<?xml version="1.0" encoding="utf-8" standalone="no"?>
<!DOCTYPE svg PUBLIC "-//W3C//DTD SVG 1.1//EN"
  "http://www.w3.org/Graphics/SVG/1.1/DTD/svg11.dtd">
<!-- Created with matplotlib (https://matplotlib.org/) -->
<svg height="170.07874pt" version="1.1" viewBox="0 0 255.11811 170.07874" width="255.11811pt" xmlns="http://www.w3.org/2000/svg" xmlns:xlink="http://www.w3.org/1999/xlink">
 <defs>
  <style type="text/css">
*{stroke-linecap:butt;stroke-linejoin:round;}
  </style>
 </defs>
 <g id="figure_1">
  <g id="patch_1">
   <path d="M 0 170.07874 
L 255.11811 170.07874 
L 255.11811 0 
L 0 0 
z
" style="fill:#ffffff;"/>
  </g>
  <g id="axes_1">
   <g id="patch_2">
    <path d="M 37.01 126.44874 
L 208.83811 126.44874 
L 208.83811 11.52 
L 37.01 11.52 
z
" style="fill:#ffffff;"/>
   </g>
   <g id="PolyCollection_1">
    <defs>
     <path d="M 44.820369 -68.493968 
L 44.820369 -58.203551 
L 47.381145 -57.125223 
L 49.941922 -55.97761 
L 52.502698 -58.161945 
L 55.063475 -56.418632 
L 57.624252 -53.088778 
L 60.185028 -55.982416 
L 62.745805 -57.06491 
L 65.306581 -53.629212 
L 67.867358 -54.843087 
L 70.428135 -57.464337 
L 72.988911 -57.407043 
L 75.549688 -59.634899 
L 78.110465 -60.084936 
L 80.671241 -59.712279 
L 83.232018 -58.686652 
L 85.792794 -56.923385 
L 88.353571 -59.143091 
L 90.914348 -58.206568 
L 93.475124 -56.970712 
L 96.035901 -58.622458 
L 98.596677 -58.480141 
L 101.157454 -58.480141 
L 103.718231 -67.489632 
L 106.279007 -75.330971 
L 108.839784 -51.068023 
L 111.40056 -48.377535 
L 113.961337 -61.651248 
L 116.522114 -66.452028 
L 119.08289 -49.399133 
L 121.643667 -46.787384 
L 124.204443 -46.838663 
L 126.76522 -45.118626 
L 129.325997 -44.781241 
L 131.886773 -46.47911 
L 134.44755 -47.037916 
L 137.008326 -45.965884 
L 139.569103 -46.41227 
L 142.12988 -46.975438 
L 144.690656 -45.350155 
L 147.251433 -44.381765 
L 147.251433 -49.967954 
L 147.251433 -49.967954 
L 144.690656 -52.117253 
L 142.12988 -54.456259 
L 139.569103 -53.691237 
L 137.008326 -53.01833 
L 134.44755 -54.511774 
L 131.886773 -53.806414 
L 129.325997 -51.065641 
L 126.76522 -51.632484 
L 124.204443 -54.246921 
L 121.643667 -54.182208 
L 119.08289 -57.174527 
L 116.522114 -107.556953 
L 113.961337 -77.836088 
L 111.40056 -56.518863 
L 108.839784 -59.360572 
L 106.279007 -158.55874 
L 103.718231 -95.333353 
L 101.157454 -68.295035 
L 98.596677 -68.295035 
L 96.035901 -68.713715 
L 93.475124 -66.453286 
L 90.914348 -68.485752 
L 88.353571 -69.536601 
L 85.792794 -66.497935 
L 83.232018 -68.976051 
L 80.671241 -70.610853 
L 78.110465 -71.266237 
L 75.549688 -70.439522 
L 72.988911 -66.824732 
L 70.428135 -66.526314 
L 67.867358 -63.452802 
L 65.306581 -62.489586 
L 62.745805 -66.567685 
L 60.185028 -65.038527 
L 57.624252 -62.419155 
L 55.063475 -65.908719 
L 52.502698 -68.306177 
L 49.941922 -65.697552 
L 47.381145 -67.095571 
L 44.820369 -68.493968 
z
" id="mc27fb6c7b3" style="stroke:#6495ed;stroke-opacity:0.4;"/>
    </defs>
    <g clip-path="url(#p8093fc2f72)">
     <use style="fill:#6495ed;fill-opacity:0.4;stroke:#6495ed;stroke-opacity:0.4;" x="0" xlink:href="#mc27fb6c7b3" y="170.07874"/>
    </g>
   </g>
   <g id="PolyCollection_2">
    <defs>
     <path d="M 44.820369 -63.843125 
L 44.820369 -60.650741 
L 47.381145 -59.462358 
L 49.941922 -58.278239 
L 52.502698 -60.60246 
L 55.063475 -58.706836 
L 57.624252 -55.09549 
L 60.185028 -58.183904 
L 62.745805 -59.370822 
L 65.306581 -55.704422 
L 67.867358 -56.989974 
L 70.428135 -59.76438 
L 72.988911 -59.717679 
L 75.549688 -62.396607 
L 78.110465 -62.97535 
L 80.671241 -62.468236 
L 83.232018 -61.19245 
L 85.792794 -59.231142 
L 88.353571 -61.748312 
L 90.914348 -60.666622 
L 93.475124 -59.267635 
L 96.035901 -61.108591 
L 98.596677 -60.956716 
L 101.157454 -60.956716 
L 103.718231 -75.143698 
L 106.279007 -94.39959 
L 108.839784 -53.258639 
L 111.40056 -50.208508 
L 113.961337 -66.182754 
L 116.522114 -77.23884 
L 119.08289 -51.44604 
L 121.643667 -48.454847 
L 124.204443 -48.562732 
L 126.76522 -46.199943 
L 129.325997 -45.706586 
L 131.886773 -48.070384 
L 134.44755 -48.822113 
L 137.008326 -47.424978 
L 139.569103 -48.013367 
L 142.12988 -48.752671 
L 144.690656 -46.538933 
L 147.251433 -45.103648 
L 147.251433 -46.713104 
L 147.251433 -46.713104 
L 144.690656 -48.676666 
L 142.12988 -51.219013 
L 139.569103 -50.403861 
L 137.008326 -49.708416 
L 134.44755 -51.308603 
L 131.886773 -50.466612 
L 129.325997 -47.603982 
L 126.76522 -48.261607 
L 124.204443 -51.020803 
L 121.643667 -50.907463 
L 119.08289 -54.063258 
L 116.522114 -91.131393 
L 113.961337 -71.657317 
L 111.40056 -52.860933 
L 108.839784 -55.964192 
L 106.279007 -122.594347 
L 103.718231 -84.539761 
L 101.157454 -64.042163 
L 98.596677 -64.042163 
L 96.035901 -64.292845 
L 93.475124 -62.215851 
L 90.914348 -63.872699 
L 88.353571 -65.033455 
L 85.792794 -62.152145 
L 83.232018 -64.421922 
L 80.671241 -65.910699 
L 78.110465 -66.520461 
L 75.549688 -65.827637 
L 72.988911 -62.647302 
L 70.428135 -62.707706 
L 67.867358 -59.709618 
L 65.306581 -58.467259 
L 62.745805 -62.351635 
L 60.185028 -61.047429 
L 57.624252 -57.958752 
L 55.063475 -61.610274 
L 52.502698 -63.743052 
L 49.941922 -61.211993 
L 47.381145 -62.523476 
L 44.820369 -63.843125 
z
" id="m3466e44753" style="stroke:#6495ed;stroke-opacity:0.6;"/>
    </defs>
    <g clip-path="url(#p8093fc2f72)">
     <use style="fill:#6495ed;fill-opacity:0.6;stroke:#6495ed;stroke-opacity:0.6;" x="0" xlink:href="#m3466e44753" y="170.07874"/>
    </g>
   </g>
   <g id="PolyCollection_3">
    <defs>
     <path d="M 147.251433 -49.967954 
L 147.251433 -44.381765 
L 149.812209 -44.381765 
L 152.372986 -44.381765 
L 154.933763 -44.381765 
L 157.494539 -44.381765 
L 160.055316 -44.381765 
L 162.616093 -44.381765 
L 165.176869 -44.381765 
L 167.737646 -44.381765 
L 170.298422 -44.381765 
L 172.859199 -44.381765 
L 175.419976 -44.381765 
L 177.980752 -44.381765 
L 180.541529 -44.381765 
L 183.102305 -44.381765 
L 185.663082 -44.381765 
L 188.223859 -44.381765 
L 190.784635 -44.381765 
L 193.345412 -44.381765 
L 195.906188 -44.381765 
L 198.466965 -44.381765 
L 201.027742 -44.381765 
L 201.027742 -49.967954 
L 201.027742 -49.967954 
L 198.466965 -49.967954 
L 195.906188 -49.967954 
L 193.345412 -49.967954 
L 190.784635 -49.967954 
L 188.223859 -49.967954 
L 185.663082 -49.967954 
L 183.102305 -49.967954 
L 180.541529 -49.967954 
L 177.980752 -49.967954 
L 175.419976 -49.967954 
L 172.859199 -49.967954 
L 170.298422 -49.967954 
L 167.737646 -49.967954 
L 165.176869 -49.967954 
L 162.616093 -49.967954 
L 160.055316 -49.967954 
L 157.494539 -49.967954 
L 154.933763 -49.967954 
L 152.372986 -49.967954 
L 149.812209 -49.967954 
L 147.251433 -49.967954 
z
" id="m8d837c0db7" style="stroke:#228b22;stroke-opacity:0.4;"/>
    </defs>
    <g clip-path="url(#p8093fc2f72)">
     <use style="fill:#228b22;fill-opacity:0.4;stroke:#228b22;stroke-opacity:0.4;" x="0" xlink:href="#m8d837c0db7" y="170.07874"/>
    </g>
   </g>
   <g id="PolyCollection_4">
    <defs>
     <path d="M 147.251433 -46.713104 
L 147.251433 -45.103648 
L 149.812209 -45.103648 
L 152.372986 -45.103648 
L 154.933763 -45.103648 
L 157.494539 -45.103648 
L 160.055316 -45.103648 
L 162.616093 -45.103648 
L 165.176869 -45.103648 
L 167.737646 -45.103648 
L 170.298422 -45.103648 
L 172.859199 -45.103648 
L 175.419976 -45.103648 
L 177.980752 -45.103648 
L 180.541529 -45.103648 
L 183.102305 -45.103648 
L 185.663082 -45.103648 
L 188.223859 -45.103648 
L 190.784635 -45.103648 
L 193.345412 -45.103648 
L 195.906188 -45.103648 
L 198.466965 -45.103648 
L 201.027742 -45.103648 
L 201.027742 -46.713104 
L 201.027742 -46.713104 
L 198.466965 -46.713104 
L 195.906188 -46.713104 
L 193.345412 -46.713104 
L 190.784635 -46.713104 
L 188.223859 -46.713104 
L 185.663082 -46.713104 
L 183.102305 -46.713104 
L 180.541529 -46.713104 
L 177.980752 -46.713104 
L 175.419976 -46.713104 
L 172.859199 -46.713104 
L 170.298422 -46.713104 
L 167.737646 -46.713104 
L 165.176869 -46.713104 
L 162.616093 -46.713104 
L 160.055316 -46.713104 
L 157.494539 -46.713104 
L 154.933763 -46.713104 
L 152.372986 -46.713104 
L 149.812209 -46.713104 
L 147.251433 -46.713104 
z
" id="m91d9855c9b" style="stroke:#228b22;stroke-opacity:0.6;"/>
    </defs>
    <g clip-path="url(#p8093fc2f72)">
     <use style="fill:#228b22;fill-opacity:0.6;stroke:#228b22;stroke-opacity:0.6;" x="0" xlink:href="#m91d9855c9b" y="170.07874"/>
    </g>
   </g>
   <g id="PathCollection_1">
    <defs>
     <path d="M -0.866025 1.732051 
L 0 0.866025 
L 0.866025 1.732051 
L 1.732051 0.866025 
L 0.866025 0 
L 1.732051 -0.866025 
L 0.866025 -1.732051 
L 0 -0.866025 
L -0.866025 -1.732051 
L -1.732051 -0.866025 
L -0.866025 0 
L -1.732051 0.866025 
z
" id="mf2ab053cab" style="stroke:#8a2be2;"/>
    </defs>
    <g clip-path="url(#p8093fc2f72)">
     <use style="fill:#8a2be2;stroke:#8a2be2;" x="103.718231" xlink:href="#mf2ab053cab" y="23.012874"/>
    </g>
   </g>
   <g id="PathCollection_2">
    <defs>
     <path d="M 0 -1.732051 
L -0.38887 -0.535233 
L -1.647278 -0.535233 
L -0.629204 0.204441 
L -1.018074 1.401259 
L -0 0.661585 
L 1.018074 1.401259 
L 0.629204 0.204441 
L 1.647278 -0.535233 
L 0.38887 -0.535233 
z
" id="m3ead2053a7" style="stroke:#000000;"/>
    </defs>
    <g clip-path="url(#p8093fc2f72)">
     <use style="stroke:#000000;" x="108.839784" xlink:href="#m3ead2053a7" y="23.012874"/>
    </g>
   </g>
   <g id="PathCollection_3">
    <defs>
     <path d="M -1.732051 1.732051 
L 1.732051 1.732051 
L 1.732051 -1.732051 
L -1.732051 -1.732051 
z
" id="mf3816ffd2d" style="stroke:#c71585;"/>
    </defs>
    <g clip-path="url(#p8093fc2f72)">
     <use style="fill:#c71585;stroke:#c71585;" x="119.08289" xlink:href="#mf3816ffd2d" y="23.012874"/>
    </g>
   </g>
   <g id="PathCollection_4">
    <defs>
     <path d="M 0 -1.732051 
L -1.647278 -0.535233 
L -1.018074 1.401259 
L 1.018074 1.401259 
L 1.647278 -0.535233 
z
" id="m47b9290eeb" style="stroke:#800000;"/>
    </defs>
    <g clip-path="url(#p8093fc2f72)">
     <use style="fill:#800000;stroke:#800000;" x="108.839784" xlink:href="#m47b9290eeb" y="28.184667"/>
    </g>
   </g>
   <g id="PathCollection_5">
    <defs>
     <path d="M -0 2.44949 
L 1.469694 0 
L 0 -2.44949 
L -1.469694 -0 
z
" id="mcb98997e98" style="stroke:#556b2f;"/>
    </defs>
    <g clip-path="url(#p8093fc2f72)">
     <use style="fill:#556b2f;stroke:#556b2f;" x="98.596677" xlink:href="#mcb98997e98" y="23.012874"/>
    </g>
   </g>
   <g id="matplotlib.axis_1">
    <g id="xtick_1">
     <g id="line2d_1">
      <defs>
       <path d="M 0 0 
L 0 3.5 
" id="mc71c07957f" style="stroke:#000000;stroke-width:0.8;"/>
      </defs>
      <g>
       <use style="stroke:#000000;stroke-width:0.8;" x="201.027742" xlink:href="#mc71c07957f" y="126.44874"/>
      </g>
     </g>
     <g id="text_1">
      <!-- 19 Apr -->
      <defs>
       <path d="M 12.40625 8.296875 
L 28.515625 8.296875 
L 28.515625 63.921875 
L 10.984375 60.40625 
L 10.984375 69.390625 
L 28.421875 72.90625 
L 38.28125 72.90625 
L 38.28125 8.296875 
L 54.390625 8.296875 
L 54.390625 0 
L 12.40625 0 
z
" id="DejaVuSans-49"/>
       <path d="M 10.984375 1.515625 
L 10.984375 10.5 
Q 14.703125 8.734375 18.5 7.8125 
Q 22.3125 6.890625 25.984375 6.890625 
Q 35.75 6.890625 40.890625 13.453125 
Q 46.046875 20.015625 46.78125 33.40625 
Q 43.953125 29.203125 39.59375 26.953125 
Q 35.25 24.703125 29.984375 24.703125 
Q 19.046875 24.703125 12.671875 31.3125 
Q 6.296875 37.9375 6.296875 49.421875 
Q 6.296875 60.640625 12.9375 67.421875 
Q 19.578125 74.21875 30.609375 74.21875 
Q 43.265625 74.21875 49.921875 64.515625 
Q 56.59375 54.828125 56.59375 36.375 
Q 56.59375 19.140625 48.40625 8.859375 
Q 40.234375 -1.421875 26.421875 -1.421875 
Q 22.703125 -1.421875 18.890625 -0.6875 
Q 15.09375 0.046875 10.984375 1.515625 
z
M 30.609375 32.421875 
Q 37.25 32.421875 41.125 36.953125 
Q 45.015625 41.5 45.015625 49.421875 
Q 45.015625 57.28125 41.125 61.84375 
Q 37.25 66.40625 30.609375 66.40625 
Q 23.96875 66.40625 20.09375 61.84375 
Q 16.21875 57.28125 16.21875 49.421875 
Q 16.21875 41.5 20.09375 36.953125 
Q 23.96875 32.421875 30.609375 32.421875 
z
" id="DejaVuSans-57"/>
       <path id="DejaVuSans-32"/>
       <path d="M 34.1875 63.1875 
L 20.796875 26.90625 
L 47.609375 26.90625 
z
M 28.609375 72.90625 
L 39.796875 72.90625 
L 67.578125 0 
L 57.328125 0 
L 50.6875 18.703125 
L 17.828125 18.703125 
L 11.1875 0 
L 0.78125 0 
z
" id="DejaVuSans-65"/>
       <path d="M 18.109375 8.203125 
L 18.109375 -20.796875 
L 9.078125 -20.796875 
L 9.078125 54.6875 
L 18.109375 54.6875 
L 18.109375 46.390625 
Q 20.953125 51.265625 25.265625 53.625 
Q 29.59375 56 35.59375 56 
Q 45.5625 56 51.78125 48.09375 
Q 58.015625 40.1875 58.015625 27.296875 
Q 58.015625 14.40625 51.78125 6.484375 
Q 45.5625 -1.421875 35.59375 -1.421875 
Q 29.59375 -1.421875 25.265625 0.953125 
Q 20.953125 3.328125 18.109375 8.203125 
z
M 48.6875 27.296875 
Q 48.6875 37.203125 44.609375 42.84375 
Q 40.53125 48.484375 33.40625 48.484375 
Q 26.265625 48.484375 22.1875 42.84375 
Q 18.109375 37.203125 18.109375 27.296875 
Q 18.109375 17.390625 22.1875 11.75 
Q 26.265625 6.109375 33.40625 6.109375 
Q 40.53125 6.109375 44.609375 11.75 
Q 48.6875 17.390625 48.6875 27.296875 
z
" id="DejaVuSans-112"/>
       <path d="M 41.109375 46.296875 
Q 39.59375 47.171875 37.8125 47.578125 
Q 36.03125 48 33.890625 48 
Q 26.265625 48 22.1875 43.046875 
Q 18.109375 38.09375 18.109375 28.8125 
L 18.109375 0 
L 9.078125 0 
L 9.078125 54.6875 
L 18.109375 54.6875 
L 18.109375 46.1875 
Q 20.953125 51.171875 25.484375 53.578125 
Q 30.03125 56 36.53125 56 
Q 37.453125 56 38.578125 55.875 
Q 39.703125 55.765625 41.0625 55.515625 
z
" id="DejaVuSans-114"/>
      </defs>
      <g transform="translate(203.235242 160.01124)rotate(-90)scale(0.08 -0.08)">
       <use xlink:href="#DejaVuSans-49"/>
       <use x="63.623047" xlink:href="#DejaVuSans-57"/>
       <use x="127.246094" xlink:href="#DejaVuSans-32"/>
       <use x="159.033203" xlink:href="#DejaVuSans-65"/>
       <use x="227.441406" xlink:href="#DejaVuSans-112"/>
       <use x="290.917969" xlink:href="#DejaVuSans-114"/>
      </g>
     </g>
    </g>
    <g id="xtick_2">
     <g id="line2d_2">
      <g>
       <use style="stroke:#000000;stroke-width:0.8;" x="183.102305" xlink:href="#mc71c07957f" y="126.44874"/>
      </g>
     </g>
     <g id="text_2">
      <!-- 12 Apr -->
      <defs>
       <path d="M 19.1875 8.296875 
L 53.609375 8.296875 
L 53.609375 0 
L 7.328125 0 
L 7.328125 8.296875 
Q 12.9375 14.109375 22.625 23.890625 
Q 32.328125 33.6875 34.8125 36.53125 
Q 39.546875 41.84375 41.421875 45.53125 
Q 43.3125 49.21875 43.3125 52.78125 
Q 43.3125 58.59375 39.234375 62.25 
Q 35.15625 65.921875 28.609375 65.921875 
Q 23.96875 65.921875 18.8125 64.3125 
Q 13.671875 62.703125 7.8125 59.421875 
L 7.8125 69.390625 
Q 13.765625 71.78125 18.9375 73 
Q 24.125 74.21875 28.421875 74.21875 
Q 39.75 74.21875 46.484375 68.546875 
Q 53.21875 62.890625 53.21875 53.421875 
Q 53.21875 48.921875 51.53125 44.890625 
Q 49.859375 40.875 45.40625 35.40625 
Q 44.1875 33.984375 37.640625 27.21875 
Q 31.109375 20.453125 19.1875 8.296875 
z
" id="DejaVuSans-50"/>
      </defs>
      <g transform="translate(185.309805 160.01124)rotate(-90)scale(0.08 -0.08)">
       <use xlink:href="#DejaVuSans-49"/>
       <use x="63.623047" xlink:href="#DejaVuSans-50"/>
       <use x="127.246094" xlink:href="#DejaVuSans-32"/>
       <use x="159.033203" xlink:href="#DejaVuSans-65"/>
       <use x="227.441406" xlink:href="#DejaVuSans-112"/>
       <use x="290.917969" xlink:href="#DejaVuSans-114"/>
      </g>
     </g>
    </g>
    <g id="xtick_3">
     <g id="line2d_3">
      <g>
       <use style="stroke:#000000;stroke-width:0.8;" x="165.176869" xlink:href="#mc71c07957f" y="126.44874"/>
      </g>
     </g>
     <g id="text_3">
      <!-- 5 Apr -->
      <defs>
       <path d="M 10.796875 72.90625 
L 49.515625 72.90625 
L 49.515625 64.59375 
L 19.828125 64.59375 
L 19.828125 46.734375 
Q 21.96875 47.46875 24.109375 47.828125 
Q 26.265625 48.1875 28.421875 48.1875 
Q 40.625 48.1875 47.75 41.5 
Q 54.890625 34.8125 54.890625 23.390625 
Q 54.890625 11.625 47.5625 5.09375 
Q 40.234375 -1.421875 26.90625 -1.421875 
Q 22.3125 -1.421875 17.546875 -0.640625 
Q 12.796875 0.140625 7.71875 1.703125 
L 7.71875 11.625 
Q 12.109375 9.234375 16.796875 8.0625 
Q 21.484375 6.890625 26.703125 6.890625 
Q 35.15625 6.890625 40.078125 11.328125 
Q 45.015625 15.765625 45.015625 23.390625 
Q 45.015625 31 40.078125 35.4375 
Q 35.15625 39.890625 26.703125 39.890625 
Q 22.75 39.890625 18.8125 39.015625 
Q 14.890625 38.140625 10.796875 36.28125 
z
" id="DejaVuSans-53"/>
      </defs>
      <g transform="translate(167.384369 154.92124)rotate(-90)scale(0.08 -0.08)">
       <use xlink:href="#DejaVuSans-53"/>
       <use x="63.623047" xlink:href="#DejaVuSans-32"/>
       <use x="95.410156" xlink:href="#DejaVuSans-65"/>
       <use x="163.818359" xlink:href="#DejaVuSans-112"/>
       <use x="227.294922" xlink:href="#DejaVuSans-114"/>
      </g>
     </g>
    </g>
    <g id="xtick_4">
     <g id="line2d_4">
      <g>
       <use style="stroke:#000000;stroke-width:0.8;" x="147.251433" xlink:href="#mc71c07957f" y="126.44874"/>
      </g>
     </g>
     <g id="text_4">
      <!-- 29 Mar -->
      <defs>
       <path d="M 9.8125 72.90625 
L 24.515625 72.90625 
L 43.109375 23.296875 
L 61.8125 72.90625 
L 76.515625 72.90625 
L 76.515625 0 
L 66.890625 0 
L 66.890625 64.015625 
L 48.09375 14.015625 
L 38.1875 14.015625 
L 19.390625 64.015625 
L 19.390625 0 
L 9.8125 0 
z
" id="DejaVuSans-77"/>
       <path d="M 34.28125 27.484375 
Q 23.390625 27.484375 19.1875 25 
Q 14.984375 22.515625 14.984375 16.5 
Q 14.984375 11.71875 18.140625 8.90625 
Q 21.296875 6.109375 26.703125 6.109375 
Q 34.1875 6.109375 38.703125 11.40625 
Q 43.21875 16.703125 43.21875 25.484375 
L 43.21875 27.484375 
z
M 52.203125 31.203125 
L 52.203125 0 
L 43.21875 0 
L 43.21875 8.296875 
Q 40.140625 3.328125 35.546875 0.953125 
Q 30.953125 -1.421875 24.3125 -1.421875 
Q 15.921875 -1.421875 10.953125 3.296875 
Q 6 8.015625 6 15.921875 
Q 6 25.140625 12.171875 29.828125 
Q 18.359375 34.515625 30.609375 34.515625 
L 43.21875 34.515625 
L 43.21875 35.40625 
Q 43.21875 41.609375 39.140625 45 
Q 35.0625 48.390625 27.6875 48.390625 
Q 23 48.390625 18.546875 47.265625 
Q 14.109375 46.140625 10.015625 43.890625 
L 10.015625 52.203125 
Q 14.9375 54.109375 19.578125 55.046875 
Q 24.21875 56 28.609375 56 
Q 40.484375 56 46.34375 49.84375 
Q 52.203125 43.703125 52.203125 31.203125 
z
" id="DejaVuSans-97"/>
      </defs>
      <g transform="translate(149.458933 161.26499)rotate(-90)scale(0.08 -0.08)">
       <use xlink:href="#DejaVuSans-50"/>
       <use x="63.623047" xlink:href="#DejaVuSans-57"/>
       <use x="127.246094" xlink:href="#DejaVuSans-32"/>
       <use x="159.033203" xlink:href="#DejaVuSans-77"/>
       <use x="245.3125" xlink:href="#DejaVuSans-97"/>
       <use x="306.591797" xlink:href="#DejaVuSans-114"/>
      </g>
     </g>
    </g>
    <g id="xtick_5">
     <g id="line2d_5">
      <g>
       <use style="stroke:#000000;stroke-width:0.8;" x="129.325997" xlink:href="#mc71c07957f" y="126.44874"/>
      </g>
     </g>
     <g id="text_5">
      <!-- 22 Mar -->
      <g transform="translate(131.533497 161.26499)rotate(-90)scale(0.08 -0.08)">
       <use xlink:href="#DejaVuSans-50"/>
       <use x="63.623047" xlink:href="#DejaVuSans-50"/>
       <use x="127.246094" xlink:href="#DejaVuSans-32"/>
       <use x="159.033203" xlink:href="#DejaVuSans-77"/>
       <use x="245.3125" xlink:href="#DejaVuSans-97"/>
       <use x="306.591797" xlink:href="#DejaVuSans-114"/>
      </g>
     </g>
    </g>
    <g id="xtick_6">
     <g id="line2d_6">
      <g>
       <use style="stroke:#000000;stroke-width:0.8;" x="111.40056" xlink:href="#mc71c07957f" y="126.44874"/>
      </g>
     </g>
     <g id="text_6">
      <!-- 15 Mar -->
      <g transform="translate(113.60806 161.26499)rotate(-90)scale(0.08 -0.08)">
       <use xlink:href="#DejaVuSans-49"/>
       <use x="63.623047" xlink:href="#DejaVuSans-53"/>
       <use x="127.246094" xlink:href="#DejaVuSans-32"/>
       <use x="159.033203" xlink:href="#DejaVuSans-77"/>
       <use x="245.3125" xlink:href="#DejaVuSans-97"/>
       <use x="306.591797" xlink:href="#DejaVuSans-114"/>
      </g>
     </g>
    </g>
    <g id="xtick_7">
     <g id="line2d_7">
      <g>
       <use style="stroke:#000000;stroke-width:0.8;" x="93.475124" xlink:href="#mc71c07957f" y="126.44874"/>
      </g>
     </g>
     <g id="text_7">
      <!-- 8 Mar -->
      <defs>
       <path d="M 31.78125 34.625 
Q 24.75 34.625 20.71875 30.859375 
Q 16.703125 27.09375 16.703125 20.515625 
Q 16.703125 13.921875 20.71875 10.15625 
Q 24.75 6.390625 31.78125 6.390625 
Q 38.8125 6.390625 42.859375 10.171875 
Q 46.921875 13.96875 46.921875 20.515625 
Q 46.921875 27.09375 42.890625 30.859375 
Q 38.875 34.625 31.78125 34.625 
z
M 21.921875 38.8125 
Q 15.578125 40.375 12.03125 44.71875 
Q 8.5 49.078125 8.5 55.328125 
Q 8.5 64.0625 14.71875 69.140625 
Q 20.953125 74.21875 31.78125 74.21875 
Q 42.671875 74.21875 48.875 69.140625 
Q 55.078125 64.0625 55.078125 55.328125 
Q 55.078125 49.078125 51.53125 44.71875 
Q 48 40.375 41.703125 38.8125 
Q 48.828125 37.15625 52.796875 32.3125 
Q 56.78125 27.484375 56.78125 20.515625 
Q 56.78125 9.90625 50.3125 4.234375 
Q 43.84375 -1.421875 31.78125 -1.421875 
Q 19.734375 -1.421875 13.25 4.234375 
Q 6.78125 9.90625 6.78125 20.515625 
Q 6.78125 27.484375 10.78125 32.3125 
Q 14.796875 37.15625 21.921875 38.8125 
z
M 18.3125 54.390625 
Q 18.3125 48.734375 21.84375 45.5625 
Q 25.390625 42.390625 31.78125 42.390625 
Q 38.140625 42.390625 41.71875 45.5625 
Q 45.3125 48.734375 45.3125 54.390625 
Q 45.3125 60.0625 41.71875 63.234375 
Q 38.140625 66.40625 31.78125 66.40625 
Q 25.390625 66.40625 21.84375 63.234375 
Q 18.3125 60.0625 18.3125 54.390625 
z
" id="DejaVuSans-56"/>
      </defs>
      <g transform="translate(95.682624 156.17499)rotate(-90)scale(0.08 -0.08)">
       <use xlink:href="#DejaVuSans-56"/>
       <use x="63.623047" xlink:href="#DejaVuSans-32"/>
       <use x="95.410156" xlink:href="#DejaVuSans-77"/>
       <use x="181.689453" xlink:href="#DejaVuSans-97"/>
       <use x="242.96875" xlink:href="#DejaVuSans-114"/>
      </g>
     </g>
    </g>
    <g id="xtick_8">
     <g id="line2d_8">
      <g>
       <use style="stroke:#000000;stroke-width:0.8;" x="75.549688" xlink:href="#mc71c07957f" y="126.44874"/>
      </g>
     </g>
     <g id="text_8">
      <!-- 1 Mar -->
      <g transform="translate(77.757188 156.17499)rotate(-90)scale(0.08 -0.08)">
       <use xlink:href="#DejaVuSans-49"/>
       <use x="63.623047" xlink:href="#DejaVuSans-32"/>
       <use x="95.410156" xlink:href="#DejaVuSans-77"/>
       <use x="181.689453" xlink:href="#DejaVuSans-97"/>
       <use x="242.96875" xlink:href="#DejaVuSans-114"/>
      </g>
     </g>
    </g>
    <g id="xtick_9">
     <g id="line2d_9">
      <g>
       <use style="stroke:#000000;stroke-width:0.8;" x="57.624252" xlink:href="#mc71c07957f" y="126.44874"/>
      </g>
     </g>
     <g id="text_9">
      <!-- 23 Feb -->
      <defs>
       <path d="M 40.578125 39.3125 
Q 47.65625 37.796875 51.625 33 
Q 55.609375 28.21875 55.609375 21.1875 
Q 55.609375 10.40625 48.1875 4.484375 
Q 40.765625 -1.421875 27.09375 -1.421875 
Q 22.515625 -1.421875 17.65625 -0.515625 
Q 12.796875 0.390625 7.625 2.203125 
L 7.625 11.71875 
Q 11.71875 9.328125 16.59375 8.109375 
Q 21.484375 6.890625 26.8125 6.890625 
Q 36.078125 6.890625 40.9375 10.546875 
Q 45.796875 14.203125 45.796875 21.1875 
Q 45.796875 27.640625 41.28125 31.265625 
Q 36.765625 34.90625 28.71875 34.90625 
L 20.21875 34.90625 
L 20.21875 43.015625 
L 29.109375 43.015625 
Q 36.375 43.015625 40.234375 45.921875 
Q 44.09375 48.828125 44.09375 54.296875 
Q 44.09375 59.90625 40.109375 62.90625 
Q 36.140625 65.921875 28.71875 65.921875 
Q 24.65625 65.921875 20.015625 65.03125 
Q 15.375 64.15625 9.8125 62.3125 
L 9.8125 71.09375 
Q 15.4375 72.65625 20.34375 73.4375 
Q 25.25 74.21875 29.59375 74.21875 
Q 40.828125 74.21875 47.359375 69.109375 
Q 53.90625 64.015625 53.90625 55.328125 
Q 53.90625 49.265625 50.4375 45.09375 
Q 46.96875 40.921875 40.578125 39.3125 
z
" id="DejaVuSans-51"/>
       <path d="M 9.8125 72.90625 
L 51.703125 72.90625 
L 51.703125 64.59375 
L 19.671875 64.59375 
L 19.671875 43.109375 
L 48.578125 43.109375 
L 48.578125 34.8125 
L 19.671875 34.8125 
L 19.671875 0 
L 9.8125 0 
z
" id="DejaVuSans-70"/>
       <path d="M 56.203125 29.59375 
L 56.203125 25.203125 
L 14.890625 25.203125 
Q 15.484375 15.921875 20.484375 11.0625 
Q 25.484375 6.203125 34.421875 6.203125 
Q 39.59375 6.203125 44.453125 7.46875 
Q 49.3125 8.734375 54.109375 11.28125 
L 54.109375 2.78125 
Q 49.265625 0.734375 44.1875 -0.34375 
Q 39.109375 -1.421875 33.890625 -1.421875 
Q 20.796875 -1.421875 13.15625 6.1875 
Q 5.515625 13.8125 5.515625 26.8125 
Q 5.515625 40.234375 12.765625 48.109375 
Q 20.015625 56 32.328125 56 
Q 43.359375 56 49.78125 48.890625 
Q 56.203125 41.796875 56.203125 29.59375 
z
M 47.21875 32.234375 
Q 47.125 39.59375 43.09375 43.984375 
Q 39.0625 48.390625 32.421875 48.390625 
Q 24.90625 48.390625 20.390625 44.140625 
Q 15.875 39.890625 15.1875 32.171875 
z
" id="DejaVuSans-101"/>
       <path d="M 48.6875 27.296875 
Q 48.6875 37.203125 44.609375 42.84375 
Q 40.53125 48.484375 33.40625 48.484375 
Q 26.265625 48.484375 22.1875 42.84375 
Q 18.109375 37.203125 18.109375 27.296875 
Q 18.109375 17.390625 22.1875 11.75 
Q 26.265625 6.109375 33.40625 6.109375 
Q 40.53125 6.109375 44.609375 11.75 
Q 48.6875 17.390625 48.6875 27.296875 
z
M 18.109375 46.390625 
Q 20.953125 51.265625 25.265625 53.625 
Q 29.59375 56 35.59375 56 
Q 45.5625 56 51.78125 48.09375 
Q 58.015625 40.1875 58.015625 27.296875 
Q 58.015625 14.40625 51.78125 6.484375 
Q 45.5625 -1.421875 35.59375 -1.421875 
Q 29.59375 -1.421875 25.265625 0.953125 
Q 20.953125 3.328125 18.109375 8.203125 
L 18.109375 0 
L 9.078125 0 
L 9.078125 75.984375 
L 18.109375 75.984375 
z
" id="DejaVuSans-98"/>
      </defs>
      <g transform="translate(59.831752 160.33374)rotate(-90)scale(0.08 -0.08)">
       <use xlink:href="#DejaVuSans-50"/>
       <use x="63.623047" xlink:href="#DejaVuSans-51"/>
       <use x="127.246094" xlink:href="#DejaVuSans-32"/>
       <use x="159.033203" xlink:href="#DejaVuSans-70"/>
       <use x="211.052734" xlink:href="#DejaVuSans-101"/>
       <use x="272.576172" xlink:href="#DejaVuSans-98"/>
      </g>
     </g>
    </g>
   </g>
   <g id="matplotlib.axis_2">
    <g id="ytick_1">
     <g id="line2d_10">
      <defs>
       <path d="M 0 0 
L -3.5 0 
" id="m1950df872a" style="stroke:#000000;stroke-width:0.8;"/>
      </defs>
      <g>
       <use style="stroke:#000000;stroke-width:0.8;" x="37.01" xlink:href="#m1950df872a" y="126.44874"/>
      </g>
     </g>
     <g id="text_10">
      <!-- 0 -->
      <defs>
       <path d="M 31.78125 66.40625 
Q 24.171875 66.40625 20.328125 58.90625 
Q 16.5 51.421875 16.5 36.375 
Q 16.5 21.390625 20.328125 13.890625 
Q 24.171875 6.390625 31.78125 6.390625 
Q 39.453125 6.390625 43.28125 13.890625 
Q 47.125 21.390625 47.125 36.375 
Q 47.125 51.421875 43.28125 58.90625 
Q 39.453125 66.40625 31.78125 66.40625 
z
M 31.78125 74.21875 
Q 44.046875 74.21875 50.515625 64.515625 
Q 56.984375 54.828125 56.984375 36.375 
Q 56.984375 17.96875 50.515625 8.265625 
Q 44.046875 -1.421875 31.78125 -1.421875 
Q 19.53125 -1.421875 13.0625 8.265625 
Q 6.59375 17.96875 6.59375 36.375 
Q 6.59375 54.828125 13.0625 64.515625 
Q 19.53125 74.21875 31.78125 74.21875 
z
" id="DejaVuSans-48"/>
      </defs>
      <g transform="translate(24.92 129.488115)scale(0.08 -0.08)">
       <use xlink:href="#DejaVuSans-48"/>
      </g>
     </g>
    </g>
    <g id="ytick_2">
     <g id="line2d_11">
      <g>
       <use style="stroke:#000000;stroke-width:0.8;" x="37.01" xlink:href="#m1950df872a" y="99.415556"/>
      </g>
     </g>
     <g id="text_11">
      <!-- 5 -->
      <g transform="translate(24.92 102.454931)scale(0.08 -0.08)">
       <use xlink:href="#DejaVuSans-53"/>
      </g>
     </g>
    </g>
    <g id="ytick_3">
     <g id="line2d_12">
      <g>
       <use style="stroke:#000000;stroke-width:0.8;" x="37.01" xlink:href="#m1950df872a" y="72.382372"/>
      </g>
     </g>
     <g id="text_12">
      <!-- 10 -->
      <g transform="translate(19.83 75.421747)scale(0.08 -0.08)">
       <use xlink:href="#DejaVuSans-49"/>
       <use x="63.623047" xlink:href="#DejaVuSans-48"/>
      </g>
     </g>
    </g>
    <g id="ytick_4">
     <g id="line2d_13">
      <g>
       <use style="stroke:#000000;stroke-width:0.8;" x="37.01" xlink:href="#m1950df872a" y="45.349187"/>
      </g>
     </g>
     <g id="text_13">
      <!-- 15 -->
      <g transform="translate(19.83 48.388562)scale(0.08 -0.08)">
       <use xlink:href="#DejaVuSans-49"/>
       <use x="63.623047" xlink:href="#DejaVuSans-53"/>
      </g>
     </g>
    </g>
    <g id="ytick_5">
     <g id="line2d_14">
      <g>
       <use style="stroke:#000000;stroke-width:0.8;" x="37.01" xlink:href="#m1950df872a" y="18.316003"/>
      </g>
     </g>
     <g id="text_14">
      <!-- 20 -->
      <g transform="translate(19.83 21.355378)scale(0.08 -0.08)">
       <use xlink:href="#DejaVuSans-50"/>
       <use x="63.623047" xlink:href="#DejaVuSans-48"/>
      </g>
     </g>
    </g>
    <g id="text_15">
     <!-- Rt -->
     <defs>
      <path d="M 44.390625 34.1875 
Q 47.5625 33.109375 50.5625 29.59375 
Q 53.5625 26.078125 56.59375 19.921875 
L 66.609375 0 
L 56 0 
L 46.6875 18.703125 
Q 43.0625 26.03125 39.671875 28.421875 
Q 36.28125 30.8125 30.421875 30.8125 
L 19.671875 30.8125 
L 19.671875 0 
L 9.8125 0 
L 9.8125 72.90625 
L 32.078125 72.90625 
Q 44.578125 72.90625 50.734375 67.671875 
Q 56.890625 62.453125 56.890625 51.90625 
Q 56.890625 45.015625 53.6875 40.46875 
Q 50.484375 35.9375 44.390625 34.1875 
z
M 19.671875 64.796875 
L 19.671875 38.921875 
L 32.078125 38.921875 
Q 39.203125 38.921875 42.84375 42.21875 
Q 46.484375 45.515625 46.484375 51.90625 
Q 46.484375 58.296875 42.84375 61.546875 
Q 39.203125 64.796875 32.078125 64.796875 
z
" id="DejaVuSans-82"/>
      <path d="M 18.3125 70.21875 
L 18.3125 54.6875 
L 36.8125 54.6875 
L 36.8125 47.703125 
L 18.3125 47.703125 
L 18.3125 18.015625 
Q 18.3125 11.328125 20.140625 9.421875 
Q 21.96875 7.515625 27.59375 7.515625 
L 36.8125 7.515625 
L 36.8125 0 
L 27.59375 0 
Q 17.1875 0 13.234375 3.875 
Q 9.28125 7.765625 9.28125 18.015625 
L 9.28125 47.703125 
L 2.6875 47.703125 
L 2.6875 54.6875 
L 9.28125 54.6875 
L 9.28125 70.21875 
z
" id="DejaVuSans-116"/>
     </defs>
     <g transform="translate(14.16625 73.33187)rotate(-90)scale(0.08 -0.08)">
      <use xlink:href="#DejaVuSans-82"/>
      <use x="69.482422" xlink:href="#DejaVuSans-116"/>
     </g>
    </g>
   </g>
   <g id="line2d_15">
    <path clip-path="url(#p8093fc2f72)" d="M 44.820369 107.648282 
L 47.381145 108.895499 
L 49.941922 110.167597 
L 52.502698 107.731512 
L 55.063475 109.754887 
L 57.624252 113.353907 
L 60.185028 110.306334 
L 62.745805 109.061754 
L 65.306581 112.832977 
L 67.867358 111.585161 
L 70.428135 108.721038 
L 72.988911 108.745938 
L 75.549688 105.823129 
L 78.110465 105.177164 
L 80.671241 105.731504 
L 83.232018 107.117786 
L 85.792794 109.230792 
L 88.353571 106.541137 
L 90.914348 107.62367 
L 93.475124 109.169139 
L 96.035901 107.23327 
L 98.596677 107.439445 
L 101.157454 107.439445 
L 103.718231 89.971193 
L 106.279007 60.243491 
L 108.839784 115.387249 
L 111.40056 118.400025 
L 113.961337 101.036988 
L 116.522114 85.445727 
L 119.08289 117.254867 
L 121.643667 120.291983 
L 124.204443 120.188464 
L 126.76522 122.671187 
L 129.325997 123.220453 
L 131.886773 120.69428 
L 134.44755 119.922893 
L 137.008326 121.383861 
L 139.569103 120.757501 
L 142.12988 119.993701 
L 144.690656 122.302293 
L 147.251433 123.963379 
" style="fill:none;stroke:#0000ff;stroke-linecap:square;stroke-opacity:0.5;"/>
   </g>
   <g id="line2d_16">
    <path clip-path="url(#p8093fc2f72)" d="M 149.812209 123.963379 
L 152.372986 123.963379 
L 154.933763 123.963379 
L 157.494539 123.963379 
L 160.055316 123.963379 
L 162.616093 123.963379 
L 165.176869 123.963379 
L 167.737646 123.963379 
L 170.298422 123.963379 
L 172.859199 123.963379 
L 175.419976 123.963379 
L 177.980752 123.963379 
L 180.541529 123.963379 
L 183.102305 123.963379 
L 185.663082 123.963379 
L 188.223859 123.963379 
L 190.784635 123.963379 
L 193.345412 123.963379 
L 195.906188 123.963379 
L 198.466965 123.963379 
L 201.027742 123.963379 
" style="fill:none;stroke:#008000;stroke-linecap:square;stroke-opacity:0.5;"/>
   </g>
   <g id="line2d_17">
    <path clip-path="url(#p8093fc2f72)" d="M 103.718231 126.44874 
L 103.718231 11.52 
" style="fill:none;stroke:#0000ff;stroke-dasharray:1.85,0.8;stroke-dashoffset:0;stroke-width:0.5;"/>
   </g>
   <g id="line2d_18">
    <path clip-path="url(#p8093fc2f72)" d="M 108.839784 126.44874 
L 108.839784 11.52 
" style="fill:none;stroke:#0000ff;stroke-dasharray:1.85,0.8;stroke-dashoffset:0;stroke-width:0.5;"/>
   </g>
   <g id="line2d_19">
    <path clip-path="url(#p8093fc2f72)" d="M 119.08289 126.44874 
L 119.08289 11.52 
" style="fill:none;stroke:#0000ff;stroke-dasharray:1.85,0.8;stroke-dashoffset:0;stroke-width:0.5;"/>
   </g>
   <g id="line2d_20">
    <path clip-path="url(#p8093fc2f72)" d="M 108.839784 126.44874 
L 108.839784 11.52 
" style="fill:none;stroke:#0000ff;stroke-dasharray:1.85,0.8;stroke-dashoffset:0;stroke-width:0.5;"/>
   </g>
   <g id="line2d_21">
    <path clip-path="url(#p8093fc2f72)" d="M 98.596677 126.44874 
L 98.596677 11.52 
" style="fill:none;stroke:#0000ff;stroke-dasharray:1.85,0.8;stroke-dashoffset:0;stroke-width:0.5;"/>
   </g>
   <g id="patch_3">
    <path d="M 37.01 126.44874 
L 37.01 11.52 
" style="fill:none;stroke:#000000;stroke-linecap:square;stroke-linejoin:miter;stroke-width:0.8;"/>
   </g>
   <g id="patch_4">
    <path d="M 208.83811 126.44874 
L 208.83811 11.52 
" style="fill:none;stroke:#000000;stroke-linecap:square;stroke-linejoin:miter;stroke-width:0.8;"/>
   </g>
   <g id="patch_5">
    <path d="M 37.01 126.44874 
L 208.83811 126.44874 
" style="fill:none;stroke:#000000;stroke-linecap:square;stroke-linejoin:miter;stroke-width:0.8;"/>
   </g>
   <g id="patch_6">
    <path d="M 37.01 11.52 
L 208.83811 11.52 
" style="fill:none;stroke:#000000;stroke-linecap:square;stroke-linejoin:miter;stroke-width:0.8;"/>
   </g>
  </g>
  <g id="axes_2">
   <g id="matplotlib.axis_3">
    <g id="ytick_6">
     <g id="line2d_22">
      <defs>
       <path d="M 0 0 
L 3.5 0 
" id="m1da36aacfe" style="stroke:#000000;stroke-width:0.8;"/>
      </defs>
      <g>
       <use style="stroke:#000000;stroke-width:0.8;" x="208.83811" xlink:href="#m1da36aacfe" y="126.44874"/>
      </g>
     </g>
     <g id="text_16">
      <!-- −1.0 -->
      <defs>
       <path d="M 10.59375 35.5 
L 73.1875 35.5 
L 73.1875 27.203125 
L 10.59375 27.203125 
z
" id="DejaVuSans-8722"/>
       <path d="M 10.6875 12.40625 
L 21 12.40625 
L 21 0 
L 10.6875 0 
z
" id="DejaVuSans-46"/>
      </defs>
      <g transform="translate(215.83811 129.488115)scale(0.08 -0.08)">
       <use xlink:href="#DejaVuSans-8722"/>
       <use x="83.789062" xlink:href="#DejaVuSans-49"/>
       <use x="147.412109" xlink:href="#DejaVuSans-46"/>
       <use x="179.199219" xlink:href="#DejaVuSans-48"/>
      </g>
     </g>
    </g>
    <g id="ytick_7">
     <g id="line2d_23">
      <g>
       <use style="stroke:#000000;stroke-width:0.8;" x="208.83811" xlink:href="#m1da36aacfe" y="85.402762"/>
      </g>
     </g>
     <g id="text_17">
      <!-- −0.5 -->
      <g transform="translate(215.83811 88.442137)scale(0.08 -0.08)">
       <use xlink:href="#DejaVuSans-8722"/>
       <use x="83.789062" xlink:href="#DejaVuSans-48"/>
       <use x="147.412109" xlink:href="#DejaVuSans-46"/>
       <use x="179.199219" xlink:href="#DejaVuSans-53"/>
      </g>
     </g>
    </g>
    <g id="ytick_8">
     <g id="line2d_24">
      <g>
       <use style="stroke:#000000;stroke-width:0.8;" x="208.83811" xlink:href="#m1da36aacfe" y="44.356783"/>
      </g>
     </g>
     <g id="text_18">
      <!-- 0.0 -->
      <g transform="translate(215.83811 47.396158)scale(0.08 -0.08)">
       <use xlink:href="#DejaVuSans-48"/>
       <use x="63.623047" xlink:href="#DejaVuSans-46"/>
       <use x="95.410156" xlink:href="#DejaVuSans-48"/>
      </g>
     </g>
    </g>
    <g id="ytick_9">
     <g id="line2d_25">
      <g>
       <use style="stroke:#000000;stroke-width:0.8;" x="208.83811" xlink:href="#m1da36aacfe" y="11.52"/>
      </g>
     </g>
     <g id="text_19">
      <!-- 0.4 -->
      <defs>
       <path d="M 37.796875 64.3125 
L 12.890625 25.390625 
L 37.796875 25.390625 
z
M 35.203125 72.90625 
L 47.609375 72.90625 
L 47.609375 25.390625 
L 58.015625 25.390625 
L 58.015625 17.1875 
L 47.609375 17.1875 
L 47.609375 0 
L 37.796875 0 
L 37.796875 17.1875 
L 4.890625 17.1875 
L 4.890625 26.703125 
z
" id="DejaVuSans-52"/>
      </defs>
      <g transform="translate(215.83811 14.559375)scale(0.08 -0.08)">
       <use xlink:href="#DejaVuSans-48"/>
       <use x="63.623047" xlink:href="#DejaVuSans-46"/>
       <use x="95.410156" xlink:href="#DejaVuSans-52"/>
      </g>
     </g>
    </g>
    <g id="text_20">
     <!-- Relative change -->
     <defs>
      <path d="M 9.421875 75.984375 
L 18.40625 75.984375 
L 18.40625 0 
L 9.421875 0 
z
" id="DejaVuSans-108"/>
      <path d="M 9.421875 54.6875 
L 18.40625 54.6875 
L 18.40625 0 
L 9.421875 0 
z
M 9.421875 75.984375 
L 18.40625 75.984375 
L 18.40625 64.59375 
L 9.421875 64.59375 
z
" id="DejaVuSans-105"/>
      <path d="M 2.984375 54.6875 
L 12.5 54.6875 
L 29.59375 8.796875 
L 46.6875 54.6875 
L 56.203125 54.6875 
L 35.6875 0 
L 23.484375 0 
z
" id="DejaVuSans-118"/>
      <path d="M 48.78125 52.59375 
L 48.78125 44.1875 
Q 44.96875 46.296875 41.140625 47.34375 
Q 37.3125 48.390625 33.40625 48.390625 
Q 24.65625 48.390625 19.8125 42.84375 
Q 14.984375 37.3125 14.984375 27.296875 
Q 14.984375 17.28125 19.8125 11.734375 
Q 24.65625 6.203125 33.40625 6.203125 
Q 37.3125 6.203125 41.140625 7.25 
Q 44.96875 8.296875 48.78125 10.40625 
L 48.78125 2.09375 
Q 45.015625 0.34375 40.984375 -0.53125 
Q 36.96875 -1.421875 32.421875 -1.421875 
Q 20.0625 -1.421875 12.78125 6.34375 
Q 5.515625 14.109375 5.515625 27.296875 
Q 5.515625 40.671875 12.859375 48.328125 
Q 20.21875 56 33.015625 56 
Q 37.15625 56 41.109375 55.140625 
Q 45.0625 54.296875 48.78125 52.59375 
z
" id="DejaVuSans-99"/>
      <path d="M 54.890625 33.015625 
L 54.890625 0 
L 45.90625 0 
L 45.90625 32.71875 
Q 45.90625 40.484375 42.875 44.328125 
Q 39.84375 48.1875 33.796875 48.1875 
Q 26.515625 48.1875 22.3125 43.546875 
Q 18.109375 38.921875 18.109375 30.90625 
L 18.109375 0 
L 9.078125 0 
L 9.078125 75.984375 
L 18.109375 75.984375 
L 18.109375 46.1875 
Q 21.34375 51.125 25.703125 53.5625 
Q 30.078125 56 35.796875 56 
Q 45.21875 56 50.046875 50.171875 
Q 54.890625 44.34375 54.890625 33.015625 
z
" id="DejaVuSans-104"/>
      <path d="M 54.890625 33.015625 
L 54.890625 0 
L 45.90625 0 
L 45.90625 32.71875 
Q 45.90625 40.484375 42.875 44.328125 
Q 39.84375 48.1875 33.796875 48.1875 
Q 26.515625 48.1875 22.3125 43.546875 
Q 18.109375 38.921875 18.109375 30.90625 
L 18.109375 0 
L 9.078125 0 
L 9.078125 54.6875 
L 18.109375 54.6875 
L 18.109375 46.1875 
Q 21.34375 51.125 25.703125 53.5625 
Q 30.078125 56 35.796875 56 
Q 45.21875 56 50.046875 50.171875 
Q 54.890625 44.34375 54.890625 33.015625 
z
" id="DejaVuSans-110"/>
      <path d="M 45.40625 27.984375 
Q 45.40625 37.75 41.375 43.109375 
Q 37.359375 48.484375 30.078125 48.484375 
Q 22.859375 48.484375 18.828125 43.109375 
Q 14.796875 37.75 14.796875 27.984375 
Q 14.796875 18.265625 18.828125 12.890625 
Q 22.859375 7.515625 30.078125 7.515625 
Q 37.359375 7.515625 41.375 12.890625 
Q 45.40625 18.265625 45.40625 27.984375 
z
M 54.390625 6.78125 
Q 54.390625 -7.171875 48.1875 -13.984375 
Q 42 -20.796875 29.203125 -20.796875 
Q 24.46875 -20.796875 20.265625 -20.09375 
Q 16.0625 -19.390625 12.109375 -17.921875 
L 12.109375 -9.1875 
Q 16.0625 -11.328125 19.921875 -12.34375 
Q 23.78125 -13.375 27.78125 -13.375 
Q 36.625 -13.375 41.015625 -8.765625 
Q 45.40625 -4.15625 45.40625 5.171875 
L 45.40625 9.625 
Q 42.625 4.78125 38.28125 2.390625 
Q 33.9375 0 27.875 0 
Q 17.828125 0 11.671875 7.65625 
Q 5.515625 15.328125 5.515625 27.984375 
Q 5.515625 40.671875 11.671875 48.328125 
Q 17.828125 56 27.875 56 
Q 33.9375 56 38.28125 53.609375 
Q 42.625 51.21875 45.40625 46.390625 
L 45.40625 54.6875 
L 54.390625 54.6875 
z
" id="DejaVuSans-103"/>
     </defs>
     <g transform="translate(245.34311 101.10812)rotate(-90)scale(0.08 -0.08)">
      <use xlink:href="#DejaVuSans-82"/>
      <use x="64.982422" xlink:href="#DejaVuSans-101"/>
      <use x="126.505859" xlink:href="#DejaVuSans-108"/>
      <use x="154.289062" xlink:href="#DejaVuSans-97"/>
      <use x="215.568359" xlink:href="#DejaVuSans-116"/>
      <use x="254.777344" xlink:href="#DejaVuSans-105"/>
      <use x="282.560547" xlink:href="#DejaVuSans-118"/>
      <use x="341.740234" xlink:href="#DejaVuSans-101"/>
      <use x="403.263672" xlink:href="#DejaVuSans-32"/>
      <use x="435.050781" xlink:href="#DejaVuSans-99"/>
      <use x="490.03125" xlink:href="#DejaVuSans-104"/>
      <use x="553.410156" xlink:href="#DejaVuSans-97"/>
      <use x="614.689453" xlink:href="#DejaVuSans-110"/>
      <use x="678.068359" xlink:href="#DejaVuSans-103"/>
      <use x="741.544922" xlink:href="#DejaVuSans-101"/>
     </g>
    </g>
   </g>
   <g id="line2d_26">
    <path clip-path="url(#p8093fc2f72)" d="M 44.820369 41.894024 
L 47.381145 41.894024 
L 49.941922 45.998622 
L 52.502698 44.356783 
L 55.063475 47.640461 
L 57.624252 50.10322 
L 60.185028 38.610346 
L 62.745805 36.147587 
L 65.306581 45.177702 
L 67.867358 45.998622 
L 70.428135 45.177702 
L 72.988911 47.640461 
L 75.549688 44.356783 
L 78.110465 47.640461 
L 80.671241 42.714944 
L 83.232018 43.535863 
L 85.792794 47.640461 
L 88.353571 45.177702 
L 90.914348 40.252185 
L 93.475124 45.177702 
L 96.035901 45.177702 
L 98.596677 47.640461 
L 101.157454 47.640461 
L 103.718231 50.10322 
L 106.279007 50.924139 
L 108.839784 101.821153 
L 111.40056 98.537475 
L 113.961337 70.626209 
L 116.522114 73.909888 
L 119.08289 94.432877 
L 121.643667 105.925751 
L 124.204443 109.209429 
L 126.76522 113.314027 
L 129.325997 109.209429 
L 131.886773 105.104831 
L 134.44755 105.104831 
L 137.008326 106.74667 
L 139.569103 107.56759 
L 142.12988 108.38851 
L 144.690656 112.493107 
L 147.251433 113.314027 
" style="fill:none;stroke:#d62728;stroke-linecap:square;stroke-opacity:0.5;"/>
   </g>
   <g id="line2d_27">
    <path clip-path="url(#p8093fc2f72)" d="M 44.820369 41.894024 
L 47.381145 43.535863 
L 49.941922 45.177702 
L 52.502698 41.894024 
L 55.063475 44.356783 
L 57.624252 50.10322 
L 60.185028 44.356783 
L 62.745805 42.714944 
L 65.306581 48.461381 
L 67.867358 45.998622 
L 70.428135 41.894024 
L 72.988911 42.714944 
L 75.549688 39.431265 
L 78.110465 38.610346 
L 80.671241 39.431265 
L 83.232018 41.073105 
L 85.792794 43.535863 
L 88.353571 40.252185 
L 90.914348 41.894024 
L 93.475124 43.535863 
L 96.035901 41.073105 
L 98.596677 41.073105 
L 101.157454 41.073105 
L 103.718231 25.475633 
L 106.279007 11.52 
L 108.839784 50.924139 
L 111.40056 59.133335 
L 113.961337 31.22207 
L 116.522114 19.729196 
L 119.08289 54.207818 
L 121.643667 63.237933 
L 124.204443 62.417013 
L 126.76522 76.372646 
L 129.325997 81.298164 
L 131.886773 64.879772 
L 134.44755 61.596094 
L 137.008326 68.163451 
L 139.569103 64.879772 
L 142.12988 61.596094 
L 144.690656 73.909888 
L 147.251433 87.86552 
" style="fill:none;stroke:#9467bd;stroke-linecap:square;stroke-opacity:0.5;"/>
   </g>
   <g id="line2d_28">
    <path clip-path="url(#p8093fc2f72)" d="M 44.820369 39.431265 
L 47.381145 40.252185 
L 49.941922 41.894024 
L 52.502698 38.610346 
L 55.063475 42.714944 
L 57.624252 45.998622 
L 60.185028 53.386898 
L 62.745805 50.924139 
L 65.306581 53.386898 
L 67.867358 56.670576 
L 70.428135 52.565979 
L 72.988911 45.998622 
L 75.549688 40.252185 
L 78.110465 44.356783 
L 80.671241 43.535863 
L 83.232018 43.535863 
L 85.792794 45.998622 
L 88.353571 41.894024 
L 90.914348 37.789426 
L 93.475124 45.998622 
L 96.035901 45.177702 
L 98.596677 47.640461 
L 101.157454 47.640461 
L 103.718231 50.10322 
L 106.279007 57.491496 
L 108.839784 72.268048 
L 111.40056 72.268048 
L 113.961337 79.656325 
L 116.522114 82.119083 
L 119.08289 90.328279 
L 121.643667 99.358394 
L 124.204443 102.642073 
L 126.76522 99.358394 
L 129.325997 96.074716 
L 131.886773 101.821153 
L 134.44755 101.000233 
L 137.008326 101.000233 
L 139.569103 103.462992 
L 142.12988 101.821153 
L 144.690656 99.358394 
L 147.251433 106.74667 
" style="fill:none;stroke:#e377c2;stroke-linecap:square;stroke-opacity:0.5;"/>
   </g>
   <g id="line2d_29">
    <path clip-path="url(#p8093fc2f72)" d="M 44.820369 41.073105 
L 47.381145 41.073105 
L 49.941922 41.894024 
L 52.502698 42.714944 
L 55.063475 45.998622 
L 57.624252 47.640461 
L 60.185028 64.058853 
L 62.745805 63.237933 
L 65.306581 61.596094 
L 67.867358 63.237933 
L 70.428135 63.237933 
L 72.988911 48.461381 
L 75.549688 45.177702 
L 78.110465 41.894024 
L 80.671241 41.073105 
L 83.232018 41.073105 
L 85.792794 42.714944 
L 88.353571 42.714944 
L 90.914348 42.714944 
L 93.475124 45.177702 
L 96.035901 42.714944 
L 98.596677 43.535863 
L 101.157454 43.535863 
L 103.718231 45.177702 
L 106.279007 50.10322 
L 108.839784 66.521611 
L 111.40056 68.163451 
L 113.961337 73.909888 
L 116.522114 81.298164 
L 119.08289 87.044601 
L 121.643667 94.432877 
L 124.204443 95.253796 
L 126.76522 86.223681 
L 129.325997 83.760922 
L 131.886773 97.716555 
L 134.44755 98.537475 
L 137.008326 97.716555 
L 139.569103 98.537475 
L 142.12988 97.716555 
L 144.690656 86.223681 
L 147.251433 87.044601 
" style="fill:none;stroke:#bcbd22;stroke-linecap:square;stroke-opacity:0.5;"/>
   </g>
   <g id="line2d_30">
    <path clip-path="url(#p8093fc2f72)" d="M 44.820369 44.356783 
L 47.381145 44.356783 
L 49.941922 44.356783 
L 52.502698 44.356783 
L 55.063475 44.356783 
L 57.624252 44.356783 
L 60.185028 41.073105 
L 62.745805 41.073105 
L 65.306581 41.894024 
L 67.867358 39.431265 
L 70.428135 40.252185 
L 72.988911 43.535863 
L 75.549688 44.356783 
L 78.110465 44.356783 
L 80.671241 44.356783 
L 83.232018 44.356783 
L 85.792794 42.714944 
L 88.353571 43.535863 
L 90.914348 44.356783 
L 93.475124 44.356783 
L 96.035901 44.356783 
L 98.596677 42.714944 
L 101.157454 42.714944 
L 103.718231 41.894024 
L 106.279007 40.252185 
L 108.839784 34.505748 
L 111.40056 37.789426 
L 113.961337 32.863909 
L 116.522114 31.22207 
L 119.08289 27.938391 
L 121.643667 22.191954 
L 124.204443 18.908276 
L 126.76522 26.296552 
L 129.325997 32.042989 
L 131.886773 23.012874 
L 134.44755 22.191954 
L 137.008326 23.012874 
L 139.569103 20.550115 
L 142.12988 18.908276 
L 144.690656 26.296552 
L 147.251433 30.40115 
" style="fill:none;stroke:#17becf;stroke-linecap:square;stroke-opacity:0.5;"/>
   </g>
   <g id="patch_7">
    <path d="M 37.01 126.44874 
L 37.01 11.52 
" style="fill:none;stroke:#000000;stroke-linecap:square;stroke-linejoin:miter;stroke-width:0.8;"/>
   </g>
   <g id="patch_8">
    <path d="M 208.83811 126.44874 
L 208.83811 11.52 
" style="fill:none;stroke:#000000;stroke-linecap:square;stroke-linejoin:miter;stroke-width:0.8;"/>
   </g>
   <g id="patch_9">
    <path d="M 37.01 126.44874 
L 208.83811 126.44874 
" style="fill:none;stroke:#000000;stroke-linecap:square;stroke-linejoin:miter;stroke-width:0.8;"/>
   </g>
   <g id="patch_10">
    <path d="M 37.01 11.52 
L 208.83811 11.52 
" style="fill:none;stroke:#000000;stroke-linecap:square;stroke-linejoin:miter;stroke-width:0.8;"/>
   </g>
  </g>
 </g>
 <defs>
  <clipPath id="p8093fc2f72">
   <rect height="114.92874" width="171.82811" x="37.01" y="11.52"/>
  </clipPath>
 </defs>
</svg>
