<?xml version="1.0" encoding="utf-8" standalone="no"?>
<!DOCTYPE svg PUBLIC "-//W3C//DTD SVG 1.1//EN"
  "http://www.w3.org/Graphics/SVG/1.1/DTD/svg11.dtd">
<!-- Created with matplotlib (https://matplotlib.org/) -->
<svg height="170.07874pt" version="1.1" viewBox="0 0 255.11811 170.07874" width="255.11811pt" xmlns="http://www.w3.org/2000/svg" xmlns:xlink="http://www.w3.org/1999/xlink">
 <defs>
  <style type="text/css">
*{stroke-linecap:butt;stroke-linejoin:round;}
  </style>
 </defs>
 <g id="figure_1">
  <g id="patch_1">
   <path d="M 0 170.07874 
L 255.11811 170.07874 
L 255.11811 0 
L 0 0 
z
" style="fill:#ffffff;"/>
  </g>
  <g id="axes_1">
   <g id="patch_2">
    <path d="M 37.01 126.44874 
L 208.83811 126.44874 
L 208.83811 11.52 
L 37.01 11.52 
z
" style="fill:#ffffff;"/>
   </g>
   <g id="PolyCollection_1">
    <defs>
     <path d="M 44.820369 -75.725259 
L 44.820369 -64.90871 
L 47.051903 -64.90871 
L 49.283436 -64.90871 
L 51.51497 -64.90871 
L 53.746504 -64.90871 
L 55.978038 -64.90871 
L 58.209572 -64.258752 
L 60.441106 -67.868031 
L 62.67264 -65.944226 
L 64.904174 -64.987607 
L 67.135708 -65.937005 
L 69.367242 -66.002667 
L 71.598775 -66.999688 
L 73.830309 -67.122998 
L 76.061843 -74.478677 
L 78.293377 -67.728396 
L 80.524911 -63.926282 
L 82.756445 -68.706671 
L 84.987979 -72.646589 
L 87.219513 -58.928333 
L 89.451047 -68.722345 
L 91.682581 -70.83114 
L 93.914114 -65.641688 
L 96.145648 -67.740615 
L 98.377182 -68.753618 
L 100.608716 -66.816704 
L 102.84025 -66.718599 
L 105.071784 -65.931381 
L 107.303318 -71.811088 
L 109.534852 -68.730237 
L 111.766386 -79.827163 
L 113.99792 -78.615194 
L 116.229453 -84.64958 
L 118.460987 -85.97618 
L 120.692521 -55.041961 
L 122.924055 -45.068211 
L 125.155589 -46.768925 
L 127.387123 -45.895509 
L 129.618657 -46.234297 
L 131.850191 -44.475695 
L 134.081725 -45.789508 
L 136.313259 -44.730442 
L 138.544792 -44.038173 
L 140.776326 -45.201773 
L 143.00786 -44.903988 
L 145.239394 -44.834247 
L 147.470928 -44.77604 
L 149.702462 -44.939053 
L 151.933996 -44.527878 
L 154.16553 -43.981873 
L 154.16553 -49.974382 
L 154.16553 -49.974382 
L 151.933996 -52.075367 
L 149.702462 -53.260345 
L 147.470928 -52.830956 
L 145.239394 -53.008099 
L 143.00786 -53.209346 
L 140.776326 -53.944641 
L 138.544792 -50.263328 
L 136.313259 -52.718106 
L 134.081725 -55.176745 
L 131.850191 -51.938988 
L 129.618657 -56.078314 
L 127.387123 -55.462232 
L 125.155589 -56.973339 
L 122.924055 -53.955839 
L 120.692521 -66.377172 
L 118.460987 -158.55874 
L 116.229453 -133.370821 
L 113.99792 -100.695434 
L 111.766386 -104.767207 
L 109.534852 -79.565843 
L 107.303318 -83.686334 
L 105.071784 -76.902287 
L 102.84025 -77.178357 
L 100.608716 -77.500056 
L 98.377182 -79.620878 
L 96.145648 -78.44125 
L 93.914114 -75.999754 
L 91.682581 -82.157088 
L 89.451047 -79.607132 
L 87.219513 -70.843688 
L 84.987979 -85.080171 
L 82.756445 -79.286779 
L 80.524911 -74.703207 
L 78.293377 -78.373944 
L 76.061843 -88.904039 
L 73.830309 -78.453854 
L 71.598775 -78.069042 
L 69.367242 -77.108016 
L 67.135708 -76.942664 
L 64.904174 -76.039506 
L 62.67264 -77.05019 
L 60.441106 -78.816688 
L 58.209572 -75.6046 
L 55.978038 -75.725259 
L 53.746504 -75.725259 
L 51.51497 -75.725259 
L 49.283436 -75.725259 
L 47.051903 -75.725259 
L 44.820369 -75.725259 
z
" id="m3c1cdc0f6b" style="stroke:#6495ed;stroke-opacity:0.4;"/>
    </defs>
    <g clip-path="url(#pa2ae9c0b1c)">
     <use style="fill:#6495ed;fill-opacity:0.4;stroke:#6495ed;stroke-opacity:0.4;" x="0" xlink:href="#m3c1cdc0f6b" y="170.07874"/>
    </g>
   </g>
   <g id="PolyCollection_2">
    <defs>
     <path d="M 44.820369 -71.356174 
L 44.820369 -67.612856 
L 47.051903 -67.612856 
L 49.283436 -67.612856 
L 51.51497 -67.612856 
L 53.746504 -67.612856 
L 55.978038 -67.612856 
L 58.209572 -66.95714 
L 60.441106 -70.680104 
L 62.67264 -68.717879 
L 64.904174 -67.716999 
L 67.135708 -68.705374 
L 69.367242 -68.773771 
L 71.598775 -69.760714 
L 73.830309 -69.924261 
L 76.061843 -78.574866 
L 78.293377 -70.440469 
L 80.524911 -66.536532 
L 82.756445 -71.484849 
L 84.987979 -76.075324 
L 87.219513 -61.663112 
L 89.451047 -71.571605 
L 91.682581 -73.797476 
L 93.914114 -68.319267 
L 96.145648 -70.494798 
L 98.377182 -71.576802 
L 100.608716 -69.544669 
L 102.84025 -69.438569 
L 105.071784 -68.668844 
L 107.303318 -75.034804 
L 109.534852 -71.565135 
L 111.766386 -87.575378 
L 113.99792 -85.68228 
L 116.229453 -99.237924 
L 118.460987 -106.309581 
L 120.692521 -58.448359 
L 122.924055 -46.329262 
L 125.155589 -48.71091 
L 127.387123 -47.549007 
L 129.618657 -48.02199 
L 131.850191 -45.383063 
L 134.081725 -47.416872 
L 136.313259 -45.808328 
L 138.544792 -44.60476 
L 140.776326 -46.522202 
L 143.00786 -46.077249 
L 145.239394 -45.975493 
L 147.470928 -45.875848 
L 149.702462 -46.151643 
L 151.933996 -45.478626 
L 154.16553 -44.494698 
L 154.16553 -46.025481 
L 154.16553 -46.025481 
L 151.933996 -47.754005 
L 149.702462 -48.736005 
L 147.470928 -48.366991 
L 145.239394 -48.498824 
L 143.00786 -48.651296 
L 140.776326 -49.304317 
L 138.544792 -46.242512 
L 136.313259 -48.263215 
L 134.081725 -50.504559 
L 131.850191 -47.611247 
L 129.618657 -51.29339 
L 127.387123 -50.710579 
L 125.155589 -52.160201 
L 122.924055 -49.06927 
L 120.692521 -62.322542 
L 118.460987 -130.467166 
L 116.229453 -115.682698 
L 113.99792 -93.145118 
L 111.766386 -95.933606 
L 109.534852 -75.221874 
L 107.303318 -78.98665 
L 105.071784 -72.389274 
L 102.84025 -73.053899 
L 100.608716 -73.200946 
L 98.377182 -75.249263 
L 96.145648 -74.103251 
L 93.914114 -71.902184 
L 91.682581 -77.604432 
L 89.451047 -75.239959 
L 87.219513 -65.832789 
L 84.987979 -80.180662 
L 82.756445 -75.094712 
L 80.524911 -70.303988 
L 78.293377 -74.109522 
L 76.061843 -83.309801 
L 73.830309 -73.793903 
L 71.598775 -73.529865 
L 69.367242 -72.545152 
L 67.135708 -72.452852 
L 64.904174 -71.468381 
L 62.67264 -72.468683 
L 60.441106 -74.388689 
L 58.209572 -70.871287 
L 55.978038 -71.356174 
L 53.746504 -71.356174 
L 51.51497 -71.356174 
L 49.283436 -71.356174 
L 47.051903 -71.356174 
L 44.820369 -71.356174 
z
" id="m7c8d9802ba" style="stroke:#6495ed;stroke-opacity:0.6;"/>
    </defs>
    <g clip-path="url(#pa2ae9c0b1c)">
     <use style="fill:#6495ed;fill-opacity:0.6;stroke:#6495ed;stroke-opacity:0.6;" x="0" xlink:href="#m7c8d9802ba" y="170.07874"/>
    </g>
   </g>
   <g id="PolyCollection_3">
    <defs>
     <path d="M 154.16553 -49.974382 
L 154.16553 -43.981873 
L 156.397064 -43.981873 
L 158.628598 -43.981873 
L 160.860131 -43.981873 
L 163.091665 -43.981873 
L 165.323199 -43.981873 
L 167.554733 -43.981873 
L 169.786267 -43.981873 
L 172.017801 -43.981873 
L 174.249335 -43.981873 
L 176.480869 -43.981873 
L 178.712403 -43.981873 
L 180.943936 -43.981873 
L 183.17547 -43.981873 
L 185.407004 -43.981873 
L 187.638538 -43.981873 
L 189.870072 -43.981873 
L 192.101606 -43.981873 
L 194.33314 -43.981873 
L 196.564674 -43.981873 
L 198.796208 -43.981873 
L 201.027742 -43.981873 
L 201.027742 -49.974382 
L 201.027742 -49.974382 
L 198.796208 -49.974382 
L 196.564674 -49.974382 
L 194.33314 -49.974382 
L 192.101606 -49.974382 
L 189.870072 -49.974382 
L 187.638538 -49.974382 
L 185.407004 -49.974382 
L 183.17547 -49.974382 
L 180.943936 -49.974382 
L 178.712403 -49.974382 
L 176.480869 -49.974382 
L 174.249335 -49.974382 
L 172.017801 -49.974382 
L 169.786267 -49.974382 
L 167.554733 -49.974382 
L 165.323199 -49.974382 
L 163.091665 -49.974382 
L 160.860131 -49.974382 
L 158.628598 -49.974382 
L 156.397064 -49.974382 
L 154.16553 -49.974382 
z
" id="m3fe3cbf406" style="stroke:#228b22;stroke-opacity:0.4;"/>
    </defs>
    <g clip-path="url(#pa2ae9c0b1c)">
     <use style="fill:#228b22;fill-opacity:0.4;stroke:#228b22;stroke-opacity:0.4;" x="0" xlink:href="#m3fe3cbf406" y="170.07874"/>
    </g>
   </g>
   <g id="PolyCollection_4">
    <defs>
     <path d="M 154.16553 -46.025481 
L 154.16553 -44.494698 
L 156.397064 -44.494698 
L 158.628598 -44.494698 
L 160.860131 -44.494698 
L 163.091665 -44.494698 
L 165.323199 -44.494698 
L 167.554733 -44.494698 
L 169.786267 -44.494698 
L 172.017801 -44.494698 
L 174.249335 -44.494698 
L 176.480869 -44.494698 
L 178.712403 -44.494698 
L 180.943936 -44.494698 
L 183.17547 -44.494698 
L 185.407004 -44.494698 
L 187.638538 -44.494698 
L 189.870072 -44.494698 
L 192.101606 -44.494698 
L 194.33314 -44.494698 
L 196.564674 -44.494698 
L 198.796208 -44.494698 
L 201.027742 -44.494698 
L 201.027742 -46.025481 
L 201.027742 -46.025481 
L 198.796208 -46.025481 
L 196.564674 -46.025481 
L 194.33314 -46.025481 
L 192.101606 -46.025481 
L 189.870072 -46.025481 
L 187.638538 -46.025481 
L 185.407004 -46.025481 
L 183.17547 -46.025481 
L 180.943936 -46.025481 
L 178.712403 -46.025481 
L 176.480869 -46.025481 
L 174.249335 -46.025481 
L 172.017801 -46.025481 
L 169.786267 -46.025481 
L 167.554733 -46.025481 
L 165.323199 -46.025481 
L 163.091665 -46.025481 
L 160.860131 -46.025481 
L 158.628598 -46.025481 
L 156.397064 -46.025481 
L 154.16553 -46.025481 
z
" id="m400a30d3a9" style="stroke:#228b22;stroke-opacity:0.6;"/>
    </defs>
    <g clip-path="url(#pa2ae9c0b1c)">
     <use style="fill:#228b22;fill-opacity:0.6;stroke:#228b22;stroke-opacity:0.6;" x="0" xlink:href="#m400a30d3a9" y="170.07874"/>
    </g>
   </g>
   <g id="PathCollection_1">
    <defs>
     <path d="M -0.866025 1.732051 
L 0 0.866025 
L 0.866025 1.732051 
L 1.732051 0.866025 
L 0.866025 0 
L 1.732051 -0.866025 
L 0.866025 -1.732051 
L 0 -0.866025 
L -0.866025 -1.732051 
L -1.732051 -0.866025 
L -0.866025 0 
L -1.732051 0.866025 
z
" id="m5e4489e0b4" style="stroke:#8a2be2;"/>
    </defs>
    <g clip-path="url(#pa2ae9c0b1c)">
     <use style="fill:#8a2be2;stroke:#8a2be2;" x="120.692521" xlink:href="#m5e4489e0b4" y="23.012874"/>
    </g>
   </g>
   <g id="PathCollection_2">
    <defs>
     <path d="M 0 -1.732051 
L -0.38887 -0.535233 
L -1.647278 -0.535233 
L -0.629204 0.204441 
L -1.018074 1.401259 
L -0 0.661585 
L 1.018074 1.401259 
L 0.629204 0.204441 
L 1.647278 -0.535233 
L 0.38887 -0.535233 
z
" id="m5dc33882b1" style="stroke:#000000;"/>
    </defs>
    <g clip-path="url(#pa2ae9c0b1c)">
     <use style="stroke:#000000;" x="118.460987" xlink:href="#m5dc33882b1" y="23.012874"/>
    </g>
   </g>
   <g id="PathCollection_3">
    <defs>
     <path d="M -1.732051 1.732051 
L 1.732051 1.732051 
L 1.732051 -1.732051 
L -1.732051 -1.732051 
z
" id="m00d1c662c0" style="stroke:#c71585;"/>
    </defs>
    <g clip-path="url(#pa2ae9c0b1c)">
     <use style="fill:#c71585;stroke:#c71585;" x="120.692521" xlink:href="#m00d1c662c0" y="28.184667"/>
    </g>
   </g>
   <g id="PathCollection_4">
    <defs>
     <path d="M 0 -1.732051 
L -1.647278 -0.535233 
L -1.018074 1.401259 
L 1.018074 1.401259 
L 1.647278 -0.535233 
z
" id="m19b332d072" style="stroke:#800000;"/>
    </defs>
    <g clip-path="url(#pa2ae9c0b1c)">
     <use style="fill:#800000;stroke:#800000;" x="109.534852" xlink:href="#m19b332d072" y="23.012874"/>
    </g>
   </g>
   <g id="PathCollection_5">
    <defs>
     <path d="M -0 2.44949 
L 1.469694 0 
L 0 -2.44949 
L -1.469694 -0 
z
" id="m8b6271183b" style="stroke:#556b2f;"/>
    </defs>
    <g clip-path="url(#pa2ae9c0b1c)">
     <use style="fill:#556b2f;stroke:#556b2f;" x="127.387123" xlink:href="#m8b6271183b" y="23.012874"/>
    </g>
   </g>
   <g id="matplotlib.axis_1">
    <g id="xtick_1">
     <g id="line2d_1">
      <defs>
       <path d="M 0 0 
L 0 3.5 
" id="m49336a03a0" style="stroke:#000000;stroke-width:0.8;"/>
      </defs>
      <g>
       <use style="stroke:#000000;stroke-width:0.8;" x="201.027742" xlink:href="#m49336a03a0" y="126.44874"/>
      </g>
     </g>
     <g id="text_1">
      <!-- 19 Apr -->
      <defs>
       <path d="M 12.40625 8.296875 
L 28.515625 8.296875 
L 28.515625 63.921875 
L 10.984375 60.40625 
L 10.984375 69.390625 
L 28.421875 72.90625 
L 38.28125 72.90625 
L 38.28125 8.296875 
L 54.390625 8.296875 
L 54.390625 0 
L 12.40625 0 
z
" id="DejaVuSans-49"/>
       <path d="M 10.984375 1.515625 
L 10.984375 10.5 
Q 14.703125 8.734375 18.5 7.8125 
Q 22.3125 6.890625 25.984375 6.890625 
Q 35.75 6.890625 40.890625 13.453125 
Q 46.046875 20.015625 46.78125 33.40625 
Q 43.953125 29.203125 39.59375 26.953125 
Q 35.25 24.703125 29.984375 24.703125 
Q 19.046875 24.703125 12.671875 31.3125 
Q 6.296875 37.9375 6.296875 49.421875 
Q 6.296875 60.640625 12.9375 67.421875 
Q 19.578125 74.21875 30.609375 74.21875 
Q 43.265625 74.21875 49.921875 64.515625 
Q 56.59375 54.828125 56.59375 36.375 
Q 56.59375 19.140625 48.40625 8.859375 
Q 40.234375 -1.421875 26.421875 -1.421875 
Q 22.703125 -1.421875 18.890625 -0.6875 
Q 15.09375 0.046875 10.984375 1.515625 
z
M 30.609375 32.421875 
Q 37.25 32.421875 41.125 36.953125 
Q 45.015625 41.5 45.015625 49.421875 
Q 45.015625 57.28125 41.125 61.84375 
Q 37.25 66.40625 30.609375 66.40625 
Q 23.96875 66.40625 20.09375 61.84375 
Q 16.21875 57.28125 16.21875 49.421875 
Q 16.21875 41.5 20.09375 36.953125 
Q 23.96875 32.421875 30.609375 32.421875 
z
" id="DejaVuSans-57"/>
       <path id="DejaVuSans-32"/>
       <path d="M 34.1875 63.1875 
L 20.796875 26.90625 
L 47.609375 26.90625 
z
M 28.609375 72.90625 
L 39.796875 72.90625 
L 67.578125 0 
L 57.328125 0 
L 50.6875 18.703125 
L 17.828125 18.703125 
L 11.1875 0 
L 0.78125 0 
z
" id="DejaVuSans-65"/>
       <path d="M 18.109375 8.203125 
L 18.109375 -20.796875 
L 9.078125 -20.796875 
L 9.078125 54.6875 
L 18.109375 54.6875 
L 18.109375 46.390625 
Q 20.953125 51.265625 25.265625 53.625 
Q 29.59375 56 35.59375 56 
Q 45.5625 56 51.78125 48.09375 
Q 58.015625 40.1875 58.015625 27.296875 
Q 58.015625 14.40625 51.78125 6.484375 
Q 45.5625 -1.421875 35.59375 -1.421875 
Q 29.59375 -1.421875 25.265625 0.953125 
Q 20.953125 3.328125 18.109375 8.203125 
z
M 48.6875 27.296875 
Q 48.6875 37.203125 44.609375 42.84375 
Q 40.53125 48.484375 33.40625 48.484375 
Q 26.265625 48.484375 22.1875 42.84375 
Q 18.109375 37.203125 18.109375 27.296875 
Q 18.109375 17.390625 22.1875 11.75 
Q 26.265625 6.109375 33.40625 6.109375 
Q 40.53125 6.109375 44.609375 11.75 
Q 48.6875 17.390625 48.6875 27.296875 
z
" id="DejaVuSans-112"/>
       <path d="M 41.109375 46.296875 
Q 39.59375 47.171875 37.8125 47.578125 
Q 36.03125 48 33.890625 48 
Q 26.265625 48 22.1875 43.046875 
Q 18.109375 38.09375 18.109375 28.8125 
L 18.109375 0 
L 9.078125 0 
L 9.078125 54.6875 
L 18.109375 54.6875 
L 18.109375 46.1875 
Q 20.953125 51.171875 25.484375 53.578125 
Q 30.03125 56 36.53125 56 
Q 37.453125 56 38.578125 55.875 
Q 39.703125 55.765625 41.0625 55.515625 
z
" id="DejaVuSans-114"/>
      </defs>
      <g transform="translate(203.235242 160.01124)rotate(-90)scale(0.08 -0.08)">
       <use xlink:href="#DejaVuSans-49"/>
       <use x="63.623047" xlink:href="#DejaVuSans-57"/>
       <use x="127.246094" xlink:href="#DejaVuSans-32"/>
       <use x="159.033203" xlink:href="#DejaVuSans-65"/>
       <use x="227.441406" xlink:href="#DejaVuSans-112"/>
       <use x="290.917969" xlink:href="#DejaVuSans-114"/>
      </g>
     </g>
    </g>
    <g id="xtick_2">
     <g id="line2d_2">
      <g>
       <use style="stroke:#000000;stroke-width:0.8;" x="185.407004" xlink:href="#m49336a03a0" y="126.44874"/>
      </g>
     </g>
     <g id="text_2">
      <!-- 12 Apr -->
      <defs>
       <path d="M 19.1875 8.296875 
L 53.609375 8.296875 
L 53.609375 0 
L 7.328125 0 
L 7.328125 8.296875 
Q 12.9375 14.109375 22.625 23.890625 
Q 32.328125 33.6875 34.8125 36.53125 
Q 39.546875 41.84375 41.421875 45.53125 
Q 43.3125 49.21875 43.3125 52.78125 
Q 43.3125 58.59375 39.234375 62.25 
Q 35.15625 65.921875 28.609375 65.921875 
Q 23.96875 65.921875 18.8125 64.3125 
Q 13.671875 62.703125 7.8125 59.421875 
L 7.8125 69.390625 
Q 13.765625 71.78125 18.9375 73 
Q 24.125 74.21875 28.421875 74.21875 
Q 39.75 74.21875 46.484375 68.546875 
Q 53.21875 62.890625 53.21875 53.421875 
Q 53.21875 48.921875 51.53125 44.890625 
Q 49.859375 40.875 45.40625 35.40625 
Q 44.1875 33.984375 37.640625 27.21875 
Q 31.109375 20.453125 19.1875 8.296875 
z
" id="DejaVuSans-50"/>
      </defs>
      <g transform="translate(187.614504 160.01124)rotate(-90)scale(0.08 -0.08)">
       <use xlink:href="#DejaVuSans-49"/>
       <use x="63.623047" xlink:href="#DejaVuSans-50"/>
       <use x="127.246094" xlink:href="#DejaVuSans-32"/>
       <use x="159.033203" xlink:href="#DejaVuSans-65"/>
       <use x="227.441406" xlink:href="#DejaVuSans-112"/>
       <use x="290.917969" xlink:href="#DejaVuSans-114"/>
      </g>
     </g>
    </g>
    <g id="xtick_3">
     <g id="line2d_3">
      <g>
       <use style="stroke:#000000;stroke-width:0.8;" x="169.786267" xlink:href="#m49336a03a0" y="126.44874"/>
      </g>
     </g>
     <g id="text_3">
      <!-- 5 Apr -->
      <defs>
       <path d="M 10.796875 72.90625 
L 49.515625 72.90625 
L 49.515625 64.59375 
L 19.828125 64.59375 
L 19.828125 46.734375 
Q 21.96875 47.46875 24.109375 47.828125 
Q 26.265625 48.1875 28.421875 48.1875 
Q 40.625 48.1875 47.75 41.5 
Q 54.890625 34.8125 54.890625 23.390625 
Q 54.890625 11.625 47.5625 5.09375 
Q 40.234375 -1.421875 26.90625 -1.421875 
Q 22.3125 -1.421875 17.546875 -0.640625 
Q 12.796875 0.140625 7.71875 1.703125 
L 7.71875 11.625 
Q 12.109375 9.234375 16.796875 8.0625 
Q 21.484375 6.890625 26.703125 6.890625 
Q 35.15625 6.890625 40.078125 11.328125 
Q 45.015625 15.765625 45.015625 23.390625 
Q 45.015625 31 40.078125 35.4375 
Q 35.15625 39.890625 26.703125 39.890625 
Q 22.75 39.890625 18.8125 39.015625 
Q 14.890625 38.140625 10.796875 36.28125 
z
" id="DejaVuSans-53"/>
      </defs>
      <g transform="translate(171.993767 154.92124)rotate(-90)scale(0.08 -0.08)">
       <use xlink:href="#DejaVuSans-53"/>
       <use x="63.623047" xlink:href="#DejaVuSans-32"/>
       <use x="95.410156" xlink:href="#DejaVuSans-65"/>
       <use x="163.818359" xlink:href="#DejaVuSans-112"/>
       <use x="227.294922" xlink:href="#DejaVuSans-114"/>
      </g>
     </g>
    </g>
    <g id="xtick_4">
     <g id="line2d_4">
      <g>
       <use style="stroke:#000000;stroke-width:0.8;" x="154.16553" xlink:href="#m49336a03a0" y="126.44874"/>
      </g>
     </g>
     <g id="text_4">
      <!-- 29 Mar -->
      <defs>
       <path d="M 9.8125 72.90625 
L 24.515625 72.90625 
L 43.109375 23.296875 
L 61.8125 72.90625 
L 76.515625 72.90625 
L 76.515625 0 
L 66.890625 0 
L 66.890625 64.015625 
L 48.09375 14.015625 
L 38.1875 14.015625 
L 19.390625 64.015625 
L 19.390625 0 
L 9.8125 0 
z
" id="DejaVuSans-77"/>
       <path d="M 34.28125 27.484375 
Q 23.390625 27.484375 19.1875 25 
Q 14.984375 22.515625 14.984375 16.5 
Q 14.984375 11.71875 18.140625 8.90625 
Q 21.296875 6.109375 26.703125 6.109375 
Q 34.1875 6.109375 38.703125 11.40625 
Q 43.21875 16.703125 43.21875 25.484375 
L 43.21875 27.484375 
z
M 52.203125 31.203125 
L 52.203125 0 
L 43.21875 0 
L 43.21875 8.296875 
Q 40.140625 3.328125 35.546875 0.953125 
Q 30.953125 -1.421875 24.3125 -1.421875 
Q 15.921875 -1.421875 10.953125 3.296875 
Q 6 8.015625 6 15.921875 
Q 6 25.140625 12.171875 29.828125 
Q 18.359375 34.515625 30.609375 34.515625 
L 43.21875 34.515625 
L 43.21875 35.40625 
Q 43.21875 41.609375 39.140625 45 
Q 35.0625 48.390625 27.6875 48.390625 
Q 23 48.390625 18.546875 47.265625 
Q 14.109375 46.140625 10.015625 43.890625 
L 10.015625 52.203125 
Q 14.9375 54.109375 19.578125 55.046875 
Q 24.21875 56 28.609375 56 
Q 40.484375 56 46.34375 49.84375 
Q 52.203125 43.703125 52.203125 31.203125 
z
" id="DejaVuSans-97"/>
      </defs>
      <g transform="translate(156.37303 161.26499)rotate(-90)scale(0.08 -0.08)">
       <use xlink:href="#DejaVuSans-50"/>
       <use x="63.623047" xlink:href="#DejaVuSans-57"/>
       <use x="127.246094" xlink:href="#DejaVuSans-32"/>
       <use x="159.033203" xlink:href="#DejaVuSans-77"/>
       <use x="245.3125" xlink:href="#DejaVuSans-97"/>
       <use x="306.591797" xlink:href="#DejaVuSans-114"/>
      </g>
     </g>
    </g>
    <g id="xtick_5">
     <g id="line2d_5">
      <g>
       <use style="stroke:#000000;stroke-width:0.8;" x="138.544792" xlink:href="#m49336a03a0" y="126.44874"/>
      </g>
     </g>
     <g id="text_5">
      <!-- 22 Mar -->
      <g transform="translate(140.752292 161.26499)rotate(-90)scale(0.08 -0.08)">
       <use xlink:href="#DejaVuSans-50"/>
       <use x="63.623047" xlink:href="#DejaVuSans-50"/>
       <use x="127.246094" xlink:href="#DejaVuSans-32"/>
       <use x="159.033203" xlink:href="#DejaVuSans-77"/>
       <use x="245.3125" xlink:href="#DejaVuSans-97"/>
       <use x="306.591797" xlink:href="#DejaVuSans-114"/>
      </g>
     </g>
    </g>
    <g id="xtick_6">
     <g id="line2d_6">
      <g>
       <use style="stroke:#000000;stroke-width:0.8;" x="122.924055" xlink:href="#m49336a03a0" y="126.44874"/>
      </g>
     </g>
     <g id="text_6">
      <!-- 15 Mar -->
      <g transform="translate(125.131555 161.26499)rotate(-90)scale(0.08 -0.08)">
       <use xlink:href="#DejaVuSans-49"/>
       <use x="63.623047" xlink:href="#DejaVuSans-53"/>
       <use x="127.246094" xlink:href="#DejaVuSans-32"/>
       <use x="159.033203" xlink:href="#DejaVuSans-77"/>
       <use x="245.3125" xlink:href="#DejaVuSans-97"/>
       <use x="306.591797" xlink:href="#DejaVuSans-114"/>
      </g>
     </g>
    </g>
    <g id="xtick_7">
     <g id="line2d_7">
      <g>
       <use style="stroke:#000000;stroke-width:0.8;" x="107.303318" xlink:href="#m49336a03a0" y="126.44874"/>
      </g>
     </g>
     <g id="text_7">
      <!-- 8 Mar -->
      <defs>
       <path d="M 31.78125 34.625 
Q 24.75 34.625 20.71875 30.859375 
Q 16.703125 27.09375 16.703125 20.515625 
Q 16.703125 13.921875 20.71875 10.15625 
Q 24.75 6.390625 31.78125 6.390625 
Q 38.8125 6.390625 42.859375 10.171875 
Q 46.921875 13.96875 46.921875 20.515625 
Q 46.921875 27.09375 42.890625 30.859375 
Q 38.875 34.625 31.78125 34.625 
z
M 21.921875 38.8125 
Q 15.578125 40.375 12.03125 44.71875 
Q 8.5 49.078125 8.5 55.328125 
Q 8.5 64.0625 14.71875 69.140625 
Q 20.953125 74.21875 31.78125 74.21875 
Q 42.671875 74.21875 48.875 69.140625 
Q 55.078125 64.0625 55.078125 55.328125 
Q 55.078125 49.078125 51.53125 44.71875 
Q 48 40.375 41.703125 38.8125 
Q 48.828125 37.15625 52.796875 32.3125 
Q 56.78125 27.484375 56.78125 20.515625 
Q 56.78125 9.90625 50.3125 4.234375 
Q 43.84375 -1.421875 31.78125 -1.421875 
Q 19.734375 -1.421875 13.25 4.234375 
Q 6.78125 9.90625 6.78125 20.515625 
Q 6.78125 27.484375 10.78125 32.3125 
Q 14.796875 37.15625 21.921875 38.8125 
z
M 18.3125 54.390625 
Q 18.3125 48.734375 21.84375 45.5625 
Q 25.390625 42.390625 31.78125 42.390625 
Q 38.140625 42.390625 41.71875 45.5625 
Q 45.3125 48.734375 45.3125 54.390625 
Q 45.3125 60.0625 41.71875 63.234375 
Q 38.140625 66.40625 31.78125 66.40625 
Q 25.390625 66.40625 21.84375 63.234375 
Q 18.3125 60.0625 18.3125 54.390625 
z
" id="DejaVuSans-56"/>
      </defs>
      <g transform="translate(109.510818 156.17499)rotate(-90)scale(0.08 -0.08)">
       <use xlink:href="#DejaVuSans-56"/>
       <use x="63.623047" xlink:href="#DejaVuSans-32"/>
       <use x="95.410156" xlink:href="#DejaVuSans-77"/>
       <use x="181.689453" xlink:href="#DejaVuSans-97"/>
       <use x="242.96875" xlink:href="#DejaVuSans-114"/>
      </g>
     </g>
    </g>
    <g id="xtick_8">
     <g id="line2d_8">
      <g>
       <use style="stroke:#000000;stroke-width:0.8;" x="91.682581" xlink:href="#m49336a03a0" y="126.44874"/>
      </g>
     </g>
     <g id="text_8">
      <!-- 1 Mar -->
      <g transform="translate(93.890081 156.17499)rotate(-90)scale(0.08 -0.08)">
       <use xlink:href="#DejaVuSans-49"/>
       <use x="63.623047" xlink:href="#DejaVuSans-32"/>
       <use x="95.410156" xlink:href="#DejaVuSans-77"/>
       <use x="181.689453" xlink:href="#DejaVuSans-97"/>
       <use x="242.96875" xlink:href="#DejaVuSans-114"/>
      </g>
     </g>
    </g>
    <g id="xtick_9">
     <g id="line2d_9">
      <g>
       <use style="stroke:#000000;stroke-width:0.8;" x="76.061843" xlink:href="#m49336a03a0" y="126.44874"/>
      </g>
     </g>
     <g id="text_9">
      <!-- 23 Feb -->
      <defs>
       <path d="M 40.578125 39.3125 
Q 47.65625 37.796875 51.625 33 
Q 55.609375 28.21875 55.609375 21.1875 
Q 55.609375 10.40625 48.1875 4.484375 
Q 40.765625 -1.421875 27.09375 -1.421875 
Q 22.515625 -1.421875 17.65625 -0.515625 
Q 12.796875 0.390625 7.625 2.203125 
L 7.625 11.71875 
Q 11.71875 9.328125 16.59375 8.109375 
Q 21.484375 6.890625 26.8125 6.890625 
Q 36.078125 6.890625 40.9375 10.546875 
Q 45.796875 14.203125 45.796875 21.1875 
Q 45.796875 27.640625 41.28125 31.265625 
Q 36.765625 34.90625 28.71875 34.90625 
L 20.21875 34.90625 
L 20.21875 43.015625 
L 29.109375 43.015625 
Q 36.375 43.015625 40.234375 45.921875 
Q 44.09375 48.828125 44.09375 54.296875 
Q 44.09375 59.90625 40.109375 62.90625 
Q 36.140625 65.921875 28.71875 65.921875 
Q 24.65625 65.921875 20.015625 65.03125 
Q 15.375 64.15625 9.8125 62.3125 
L 9.8125 71.09375 
Q 15.4375 72.65625 20.34375 73.4375 
Q 25.25 74.21875 29.59375 74.21875 
Q 40.828125 74.21875 47.359375 69.109375 
Q 53.90625 64.015625 53.90625 55.328125 
Q 53.90625 49.265625 50.4375 45.09375 
Q 46.96875 40.921875 40.578125 39.3125 
z
" id="DejaVuSans-51"/>
       <path d="M 9.8125 72.90625 
L 51.703125 72.90625 
L 51.703125 64.59375 
L 19.671875 64.59375 
L 19.671875 43.109375 
L 48.578125 43.109375 
L 48.578125 34.8125 
L 19.671875 34.8125 
L 19.671875 0 
L 9.8125 0 
z
" id="DejaVuSans-70"/>
       <path d="M 56.203125 29.59375 
L 56.203125 25.203125 
L 14.890625 25.203125 
Q 15.484375 15.921875 20.484375 11.0625 
Q 25.484375 6.203125 34.421875 6.203125 
Q 39.59375 6.203125 44.453125 7.46875 
Q 49.3125 8.734375 54.109375 11.28125 
L 54.109375 2.78125 
Q 49.265625 0.734375 44.1875 -0.34375 
Q 39.109375 -1.421875 33.890625 -1.421875 
Q 20.796875 -1.421875 13.15625 6.1875 
Q 5.515625 13.8125 5.515625 26.8125 
Q 5.515625 40.234375 12.765625 48.109375 
Q 20.015625 56 32.328125 56 
Q 43.359375 56 49.78125 48.890625 
Q 56.203125 41.796875 56.203125 29.59375 
z
M 47.21875 32.234375 
Q 47.125 39.59375 43.09375 43.984375 
Q 39.0625 48.390625 32.421875 48.390625 
Q 24.90625 48.390625 20.390625 44.140625 
Q 15.875 39.890625 15.1875 32.171875 
z
" id="DejaVuSans-101"/>
       <path d="M 48.6875 27.296875 
Q 48.6875 37.203125 44.609375 42.84375 
Q 40.53125 48.484375 33.40625 48.484375 
Q 26.265625 48.484375 22.1875 42.84375 
Q 18.109375 37.203125 18.109375 27.296875 
Q 18.109375 17.390625 22.1875 11.75 
Q 26.265625 6.109375 33.40625 6.109375 
Q 40.53125 6.109375 44.609375 11.75 
Q 48.6875 17.390625 48.6875 27.296875 
z
M 18.109375 46.390625 
Q 20.953125 51.265625 25.265625 53.625 
Q 29.59375 56 35.59375 56 
Q 45.5625 56 51.78125 48.09375 
Q 58.015625 40.1875 58.015625 27.296875 
Q 58.015625 14.40625 51.78125 6.484375 
Q 45.5625 -1.421875 35.59375 -1.421875 
Q 29.59375 -1.421875 25.265625 0.953125 
Q 20.953125 3.328125 18.109375 8.203125 
L 18.109375 0 
L 9.078125 0 
L 9.078125 75.984375 
L 18.109375 75.984375 
z
" id="DejaVuSans-98"/>
      </defs>
      <g transform="translate(78.269343 160.33374)rotate(-90)scale(0.08 -0.08)">
       <use xlink:href="#DejaVuSans-50"/>
       <use x="63.623047" xlink:href="#DejaVuSans-51"/>
       <use x="127.246094" xlink:href="#DejaVuSans-32"/>
       <use x="159.033203" xlink:href="#DejaVuSans-70"/>
       <use x="211.052734" xlink:href="#DejaVuSans-101"/>
       <use x="272.576172" xlink:href="#DejaVuSans-98"/>
      </g>
     </g>
    </g>
    <g id="xtick_10">
     <g id="line2d_10">
      <g>
       <use style="stroke:#000000;stroke-width:0.8;" x="60.441106" xlink:href="#m49336a03a0" y="126.44874"/>
      </g>
     </g>
     <g id="text_10">
      <!-- 16 Feb -->
      <defs>
       <path d="M 33.015625 40.375 
Q 26.375 40.375 22.484375 35.828125 
Q 18.609375 31.296875 18.609375 23.390625 
Q 18.609375 15.53125 22.484375 10.953125 
Q 26.375 6.390625 33.015625 6.390625 
Q 39.65625 6.390625 43.53125 10.953125 
Q 47.40625 15.53125 47.40625 23.390625 
Q 47.40625 31.296875 43.53125 35.828125 
Q 39.65625 40.375 33.015625 40.375 
z
M 52.59375 71.296875 
L 52.59375 62.3125 
Q 48.875 64.0625 45.09375 64.984375 
Q 41.3125 65.921875 37.59375 65.921875 
Q 27.828125 65.921875 22.671875 59.328125 
Q 17.53125 52.734375 16.796875 39.40625 
Q 19.671875 43.65625 24.015625 45.921875 
Q 28.375 48.1875 33.59375 48.1875 
Q 44.578125 48.1875 50.953125 41.515625 
Q 57.328125 34.859375 57.328125 23.390625 
Q 57.328125 12.15625 50.6875 5.359375 
Q 44.046875 -1.421875 33.015625 -1.421875 
Q 20.359375 -1.421875 13.671875 8.265625 
Q 6.984375 17.96875 6.984375 36.375 
Q 6.984375 53.65625 15.1875 63.9375 
Q 23.390625 74.21875 37.203125 74.21875 
Q 40.921875 74.21875 44.703125 73.484375 
Q 48.484375 72.75 52.59375 71.296875 
z
" id="DejaVuSans-54"/>
      </defs>
      <g transform="translate(62.648606 160.33374)rotate(-90)scale(0.08 -0.08)">
       <use xlink:href="#DejaVuSans-49"/>
       <use x="63.623047" xlink:href="#DejaVuSans-54"/>
       <use x="127.246094" xlink:href="#DejaVuSans-32"/>
       <use x="159.033203" xlink:href="#DejaVuSans-70"/>
       <use x="211.052734" xlink:href="#DejaVuSans-101"/>
       <use x="272.576172" xlink:href="#DejaVuSans-98"/>
      </g>
     </g>
    </g>
   </g>
   <g id="matplotlib.axis_2">
    <g id="ytick_1">
     <g id="line2d_11">
      <defs>
       <path d="M 0 0 
L -3.5 0 
" id="m673109b471" style="stroke:#000000;stroke-width:0.8;"/>
      </defs>
      <g>
       <use style="stroke:#000000;stroke-width:0.8;" x="37.01" xlink:href="#m673109b471" y="126.44874"/>
      </g>
     </g>
     <g id="text_11">
      <!-- 0.0 -->
      <defs>
       <path d="M 31.78125 66.40625 
Q 24.171875 66.40625 20.328125 58.90625 
Q 16.5 51.421875 16.5 36.375 
Q 16.5 21.390625 20.328125 13.890625 
Q 24.171875 6.390625 31.78125 6.390625 
Q 39.453125 6.390625 43.28125 13.890625 
Q 47.125 21.390625 47.125 36.375 
Q 47.125 51.421875 43.28125 58.90625 
Q 39.453125 66.40625 31.78125 66.40625 
z
M 31.78125 74.21875 
Q 44.046875 74.21875 50.515625 64.515625 
Q 56.984375 54.828125 56.984375 36.375 
Q 56.984375 17.96875 50.515625 8.265625 
Q 44.046875 -1.421875 31.78125 -1.421875 
Q 19.53125 -1.421875 13.0625 8.265625 
Q 6.59375 17.96875 6.59375 36.375 
Q 6.59375 54.828125 13.0625 64.515625 
Q 19.53125 74.21875 31.78125 74.21875 
z
" id="DejaVuSans-48"/>
       <path d="M 10.6875 12.40625 
L 21 12.40625 
L 21 0 
L 10.6875 0 
z
" id="DejaVuSans-46"/>
      </defs>
      <g transform="translate(17.2875 129.488115)scale(0.08 -0.08)">
       <use xlink:href="#DejaVuSans-48"/>
       <use x="63.623047" xlink:href="#DejaVuSans-46"/>
       <use x="95.410156" xlink:href="#DejaVuSans-48"/>
      </g>
     </g>
    </g>
    <g id="ytick_2">
     <g id="line2d_12">
      <g>
       <use style="stroke:#000000;stroke-width:0.8;" x="37.01" xlink:href="#m673109b471" y="108.050693"/>
      </g>
     </g>
     <g id="text_12">
      <!-- 2.5 -->
      <g transform="translate(17.2875 111.090068)scale(0.08 -0.08)">
       <use xlink:href="#DejaVuSans-50"/>
       <use x="63.623047" xlink:href="#DejaVuSans-46"/>
       <use x="95.410156" xlink:href="#DejaVuSans-53"/>
      </g>
     </g>
    </g>
    <g id="ytick_3">
     <g id="line2d_13">
      <g>
       <use style="stroke:#000000;stroke-width:0.8;" x="37.01" xlink:href="#m673109b471" y="89.652645"/>
      </g>
     </g>
     <g id="text_13">
      <!-- 5.0 -->
      <g transform="translate(17.2875 92.69202)scale(0.08 -0.08)">
       <use xlink:href="#DejaVuSans-53"/>
       <use x="63.623047" xlink:href="#DejaVuSans-46"/>
       <use x="95.410156" xlink:href="#DejaVuSans-48"/>
      </g>
     </g>
    </g>
    <g id="ytick_4">
     <g id="line2d_14">
      <g>
       <use style="stroke:#000000;stroke-width:0.8;" x="37.01" xlink:href="#m673109b471" y="71.254598"/>
      </g>
     </g>
     <g id="text_14">
      <!-- 7.5 -->
      <defs>
       <path d="M 8.203125 72.90625 
L 55.078125 72.90625 
L 55.078125 68.703125 
L 28.609375 0 
L 18.3125 0 
L 43.21875 64.59375 
L 8.203125 64.59375 
z
" id="DejaVuSans-55"/>
      </defs>
      <g transform="translate(17.2875 74.293973)scale(0.08 -0.08)">
       <use xlink:href="#DejaVuSans-55"/>
       <use x="63.623047" xlink:href="#DejaVuSans-46"/>
       <use x="95.410156" xlink:href="#DejaVuSans-53"/>
      </g>
     </g>
    </g>
    <g id="ytick_5">
     <g id="line2d_15">
      <g>
       <use style="stroke:#000000;stroke-width:0.8;" x="37.01" xlink:href="#m673109b471" y="52.85655"/>
      </g>
     </g>
     <g id="text_15">
      <!-- 10.0 -->
      <g transform="translate(12.1975 55.895925)scale(0.08 -0.08)">
       <use xlink:href="#DejaVuSans-49"/>
       <use x="63.623047" xlink:href="#DejaVuSans-48"/>
       <use x="127.246094" xlink:href="#DejaVuSans-46"/>
       <use x="159.033203" xlink:href="#DejaVuSans-48"/>
      </g>
     </g>
    </g>
    <g id="ytick_6">
     <g id="line2d_16">
      <g>
       <use style="stroke:#000000;stroke-width:0.8;" x="37.01" xlink:href="#m673109b471" y="34.458502"/>
      </g>
     </g>
     <g id="text_16">
      <!-- 12.5 -->
      <g transform="translate(12.1975 37.497877)scale(0.08 -0.08)">
       <use xlink:href="#DejaVuSans-49"/>
       <use x="63.623047" xlink:href="#DejaVuSans-50"/>
       <use x="127.246094" xlink:href="#DejaVuSans-46"/>
       <use x="159.033203" xlink:href="#DejaVuSans-53"/>
      </g>
     </g>
    </g>
    <g id="ytick_7">
     <g id="line2d_17">
      <g>
       <use style="stroke:#000000;stroke-width:0.8;" x="37.01" xlink:href="#m673109b471" y="16.060455"/>
      </g>
     </g>
     <g id="text_17">
      <!-- 15.0 -->
      <g transform="translate(12.1975 19.09983)scale(0.08 -0.08)">
       <use xlink:href="#DejaVuSans-49"/>
       <use x="63.623047" xlink:href="#DejaVuSans-53"/>
       <use x="127.246094" xlink:href="#DejaVuSans-46"/>
       <use x="159.033203" xlink:href="#DejaVuSans-48"/>
      </g>
     </g>
    </g>
    <g id="text_18">
     <!-- Rt -->
     <defs>
      <path d="M 44.390625 34.1875 
Q 47.5625 33.109375 50.5625 29.59375 
Q 53.5625 26.078125 56.59375 19.921875 
L 66.609375 0 
L 56 0 
L 46.6875 18.703125 
Q 43.0625 26.03125 39.671875 28.421875 
Q 36.28125 30.8125 30.421875 30.8125 
L 19.671875 30.8125 
L 19.671875 0 
L 9.8125 0 
L 9.8125 72.90625 
L 32.078125 72.90625 
Q 44.578125 72.90625 50.734375 67.671875 
Q 56.890625 62.453125 56.890625 51.90625 
Q 56.890625 45.015625 53.6875 40.46875 
Q 50.484375 35.9375 44.390625 34.1875 
z
M 19.671875 64.796875 
L 19.671875 38.921875 
L 32.078125 38.921875 
Q 39.203125 38.921875 42.84375 42.21875 
Q 46.484375 45.515625 46.484375 51.90625 
Q 46.484375 58.296875 42.84375 61.546875 
Q 39.203125 64.796875 32.078125 64.796875 
z
" id="DejaVuSans-82"/>
      <path d="M 18.3125 70.21875 
L 18.3125 54.6875 
L 36.8125 54.6875 
L 36.8125 47.703125 
L 18.3125 47.703125 
L 18.3125 18.015625 
Q 18.3125 11.328125 20.140625 9.421875 
Q 21.96875 7.515625 27.59375 7.515625 
L 36.8125 7.515625 
L 36.8125 0 
L 27.59375 0 
Q 17.1875 0 13.234375 3.875 
Q 9.28125 7.765625 9.28125 18.015625 
L 9.28125 47.703125 
L 2.6875 47.703125 
L 2.6875 54.6875 
L 9.28125 54.6875 
L 9.28125 70.21875 
z
" id="DejaVuSans-116"/>
     </defs>
     <g transform="translate(6.53375 73.33187)rotate(-90)scale(0.08 -0.08)">
      <use xlink:href="#DejaVuSans-82"/>
      <use x="69.482422" xlink:href="#DejaVuSans-116"/>
     </g>
    </g>
   </g>
   <g id="line2d_18">
    <path clip-path="url(#pa2ae9c0b1c)" d="M 44.820369 100.44495 
L 47.051903 100.44495 
L 49.283436 100.44495 
L 51.51497 100.44495 
L 53.746504 100.44495 
L 55.978038 100.44495 
L 58.209572 100.97809 
L 60.441106 97.404213 
L 62.67264 99.333466 
L 64.904174 100.315975 
L 67.135708 99.35634 
L 69.367242 99.261046 
L 71.598775 98.276694 
L 73.830309 98.056137 
L 76.061843 89.013436 
L 78.293377 97.665422 
L 80.524911 101.517278 
L 82.756445 96.6509 
L 84.987979 91.824994 
L 87.219513 106.111707 
L 89.451047 96.526296 
L 91.682581 94.206777 
L 93.914114 99.847881 
L 96.145648 97.628624 
L 98.377182 96.520909 
L 100.608716 98.590612 
L 102.84025 98.715145 
L 105.071784 99.400517 
L 107.303318 92.934856 
L 109.534852 96.537819 
L 111.766386 78.222495 
L 113.99792 80.590957 
L 116.229453 62.465594 
L 118.460987 51.322212 
L 120.692521 109.65472 
L 122.924055 122.072448 
L 125.155589 119.399831 
L 127.387123 120.687034 
L 129.618657 120.164626 
L 131.850191 123.288515 
L 134.081725 120.852739 
L 136.313259 122.747689 
L 138.544792 124.355486 
L 140.776326 121.879595 
L 143.00786 122.418029 
L 145.239394 122.546595 
L 147.470928 122.664423 
L 149.702462 122.342759 
L 151.933996 123.165553 
L 154.16553 124.52103 
" style="fill:none;stroke:#0000ff;stroke-linecap:square;stroke-opacity:0.5;"/>
   </g>
   <g id="line2d_19">
    <path clip-path="url(#pa2ae9c0b1c)" d="M 156.397064 124.52103 
L 158.628598 124.52103 
L 160.860131 124.52103 
L 163.091665 124.52103 
L 165.323199 124.52103 
L 167.554733 124.52103 
L 169.786267 124.52103 
L 172.017801 124.52103 
L 174.249335 124.52103 
L 176.480869 124.52103 
L 178.712403 124.52103 
L 180.943936 124.52103 
L 183.17547 124.52103 
L 185.407004 124.52103 
L 187.638538 124.52103 
L 189.870072 124.52103 
L 192.101606 124.52103 
L 194.33314 124.52103 
L 196.564674 124.52103 
L 198.796208 124.52103 
L 201.027742 124.52103 
" style="fill:none;stroke:#008000;stroke-linecap:square;stroke-opacity:0.5;"/>
   </g>
   <g id="line2d_20">
    <path clip-path="url(#pa2ae9c0b1c)" d="M 120.692521 126.44874 
L 120.692521 11.52 
" style="fill:none;stroke:#0000ff;stroke-dasharray:1.85,0.8;stroke-dashoffset:0;stroke-width:0.5;"/>
   </g>
   <g id="line2d_21">
    <path clip-path="url(#pa2ae9c0b1c)" d="M 118.460987 126.44874 
L 118.460987 11.52 
" style="fill:none;stroke:#0000ff;stroke-dasharray:1.85,0.8;stroke-dashoffset:0;stroke-width:0.5;"/>
   </g>
   <g id="line2d_22">
    <path clip-path="url(#pa2ae9c0b1c)" d="M 120.692521 126.44874 
L 120.692521 11.52 
" style="fill:none;stroke:#0000ff;stroke-dasharray:1.85,0.8;stroke-dashoffset:0;stroke-width:0.5;"/>
   </g>
   <g id="line2d_23">
    <path clip-path="url(#pa2ae9c0b1c)" d="M 109.534852 126.44874 
L 109.534852 11.52 
" style="fill:none;stroke:#0000ff;stroke-dasharray:1.85,0.8;stroke-dashoffset:0;stroke-width:0.5;"/>
   </g>
   <g id="line2d_24">
    <path clip-path="url(#pa2ae9c0b1c)" d="M 127.387123 126.44874 
L 127.387123 11.52 
" style="fill:none;stroke:#0000ff;stroke-dasharray:1.85,0.8;stroke-dashoffset:0;stroke-width:0.5;"/>
   </g>
   <g id="patch_3">
    <path d="M 37.01 126.44874 
L 37.01 11.52 
" style="fill:none;stroke:#000000;stroke-linecap:square;stroke-linejoin:miter;stroke-width:0.8;"/>
   </g>
   <g id="patch_4">
    <path d="M 208.83811 126.44874 
L 208.83811 11.52 
" style="fill:none;stroke:#000000;stroke-linecap:square;stroke-linejoin:miter;stroke-width:0.8;"/>
   </g>
   <g id="patch_5">
    <path d="M 37.01 126.44874 
L 208.83811 126.44874 
" style="fill:none;stroke:#000000;stroke-linecap:square;stroke-linejoin:miter;stroke-width:0.8;"/>
   </g>
   <g id="patch_6">
    <path d="M 37.01 11.52 
L 208.83811 11.52 
" style="fill:none;stroke:#000000;stroke-linecap:square;stroke-linejoin:miter;stroke-width:0.8;"/>
   </g>
  </g>
  <g id="axes_2">
   <g id="matplotlib.axis_3">
    <g id="ytick_8">
     <g id="line2d_25">
      <defs>
       <path d="M 0 0 
L 3.5 0 
" id="m3c7c650bfe" style="stroke:#000000;stroke-width:0.8;"/>
      </defs>
      <g>
       <use style="stroke:#000000;stroke-width:0.8;" x="208.83811" xlink:href="#m3c7c650bfe" y="126.44874"/>
      </g>
     </g>
     <g id="text_19">
      <!-- −1.0 -->
      <defs>
       <path d="M 10.59375 35.5 
L 73.1875 35.5 
L 73.1875 27.203125 
L 10.59375 27.203125 
z
" id="DejaVuSans-8722"/>
      </defs>
      <g transform="translate(215.83811 129.488115)scale(0.08 -0.08)">
       <use xlink:href="#DejaVuSans-8722"/>
       <use x="83.789062" xlink:href="#DejaVuSans-49"/>
       <use x="147.412109" xlink:href="#DejaVuSans-46"/>
       <use x="179.199219" xlink:href="#DejaVuSans-48"/>
      </g>
     </g>
    </g>
    <g id="ytick_9">
     <g id="line2d_26">
      <g>
       <use style="stroke:#000000;stroke-width:0.8;" x="208.83811" xlink:href="#m3c7c650bfe" y="85.402762"/>
      </g>
     </g>
     <g id="text_20">
      <!-- −0.5 -->
      <g transform="translate(215.83811 88.442137)scale(0.08 -0.08)">
       <use xlink:href="#DejaVuSans-8722"/>
       <use x="83.789062" xlink:href="#DejaVuSans-48"/>
       <use x="147.412109" xlink:href="#DejaVuSans-46"/>
       <use x="179.199219" xlink:href="#DejaVuSans-53"/>
      </g>
     </g>
    </g>
    <g id="ytick_10">
     <g id="line2d_27">
      <g>
       <use style="stroke:#000000;stroke-width:0.8;" x="208.83811" xlink:href="#m3c7c650bfe" y="44.356783"/>
      </g>
     </g>
     <g id="text_21">
      <!-- 0.0 -->
      <g transform="translate(215.83811 47.396158)scale(0.08 -0.08)">
       <use xlink:href="#DejaVuSans-48"/>
       <use x="63.623047" xlink:href="#DejaVuSans-46"/>
       <use x="95.410156" xlink:href="#DejaVuSans-48"/>
      </g>
     </g>
    </g>
    <g id="ytick_11">
     <g id="line2d_28">
      <g>
       <use style="stroke:#000000;stroke-width:0.8;" x="208.83811" xlink:href="#m3c7c650bfe" y="11.52"/>
      </g>
     </g>
     <g id="text_22">
      <!-- 0.4 -->
      <defs>
       <path d="M 37.796875 64.3125 
L 12.890625 25.390625 
L 37.796875 25.390625 
z
M 35.203125 72.90625 
L 47.609375 72.90625 
L 47.609375 25.390625 
L 58.015625 25.390625 
L 58.015625 17.1875 
L 47.609375 17.1875 
L 47.609375 0 
L 37.796875 0 
L 37.796875 17.1875 
L 4.890625 17.1875 
L 4.890625 26.703125 
z
" id="DejaVuSans-52"/>
      </defs>
      <g transform="translate(215.83811 14.559375)scale(0.08 -0.08)">
       <use xlink:href="#DejaVuSans-48"/>
       <use x="63.623047" xlink:href="#DejaVuSans-46"/>
       <use x="95.410156" xlink:href="#DejaVuSans-52"/>
      </g>
     </g>
    </g>
    <g id="text_23">
     <!-- Relative change -->
     <defs>
      <path d="M 9.421875 75.984375 
L 18.40625 75.984375 
L 18.40625 0 
L 9.421875 0 
z
" id="DejaVuSans-108"/>
      <path d="M 9.421875 54.6875 
L 18.40625 54.6875 
L 18.40625 0 
L 9.421875 0 
z
M 9.421875 75.984375 
L 18.40625 75.984375 
L 18.40625 64.59375 
L 9.421875 64.59375 
z
" id="DejaVuSans-105"/>
      <path d="M 2.984375 54.6875 
L 12.5 54.6875 
L 29.59375 8.796875 
L 46.6875 54.6875 
L 56.203125 54.6875 
L 35.6875 0 
L 23.484375 0 
z
" id="DejaVuSans-118"/>
      <path d="M 48.78125 52.59375 
L 48.78125 44.1875 
Q 44.96875 46.296875 41.140625 47.34375 
Q 37.3125 48.390625 33.40625 48.390625 
Q 24.65625 48.390625 19.8125 42.84375 
Q 14.984375 37.3125 14.984375 27.296875 
Q 14.984375 17.28125 19.8125 11.734375 
Q 24.65625 6.203125 33.40625 6.203125 
Q 37.3125 6.203125 41.140625 7.25 
Q 44.96875 8.296875 48.78125 10.40625 
L 48.78125 2.09375 
Q 45.015625 0.34375 40.984375 -0.53125 
Q 36.96875 -1.421875 32.421875 -1.421875 
Q 20.0625 -1.421875 12.78125 6.34375 
Q 5.515625 14.109375 5.515625 27.296875 
Q 5.515625 40.671875 12.859375 48.328125 
Q 20.21875 56 33.015625 56 
Q 37.15625 56 41.109375 55.140625 
Q 45.0625 54.296875 48.78125 52.59375 
z
" id="DejaVuSans-99"/>
      <path d="M 54.890625 33.015625 
L 54.890625 0 
L 45.90625 0 
L 45.90625 32.71875 
Q 45.90625 40.484375 42.875 44.328125 
Q 39.84375 48.1875 33.796875 48.1875 
Q 26.515625 48.1875 22.3125 43.546875 
Q 18.109375 38.921875 18.109375 30.90625 
L 18.109375 0 
L 9.078125 0 
L 9.078125 75.984375 
L 18.109375 75.984375 
L 18.109375 46.1875 
Q 21.34375 51.125 25.703125 53.5625 
Q 30.078125 56 35.796875 56 
Q 45.21875 56 50.046875 50.171875 
Q 54.890625 44.34375 54.890625 33.015625 
z
" id="DejaVuSans-104"/>
      <path d="M 54.890625 33.015625 
L 54.890625 0 
L 45.90625 0 
L 45.90625 32.71875 
Q 45.90625 40.484375 42.875 44.328125 
Q 39.84375 48.1875 33.796875 48.1875 
Q 26.515625 48.1875 22.3125 43.546875 
Q 18.109375 38.921875 18.109375 30.90625 
L 18.109375 0 
L 9.078125 0 
L 9.078125 54.6875 
L 18.109375 54.6875 
L 18.109375 46.1875 
Q 21.34375 51.125 25.703125 53.5625 
Q 30.078125 56 35.796875 56 
Q 45.21875 56 50.046875 50.171875 
Q 54.890625 44.34375 54.890625 33.015625 
z
" id="DejaVuSans-110"/>
      <path d="M 45.40625 27.984375 
Q 45.40625 37.75 41.375 43.109375 
Q 37.359375 48.484375 30.078125 48.484375 
Q 22.859375 48.484375 18.828125 43.109375 
Q 14.796875 37.75 14.796875 27.984375 
Q 14.796875 18.265625 18.828125 12.890625 
Q 22.859375 7.515625 30.078125 7.515625 
Q 37.359375 7.515625 41.375 12.890625 
Q 45.40625 18.265625 45.40625 27.984375 
z
M 54.390625 6.78125 
Q 54.390625 -7.171875 48.1875 -13.984375 
Q 42 -20.796875 29.203125 -20.796875 
Q 24.46875 -20.796875 20.265625 -20.09375 
Q 16.0625 -19.390625 12.109375 -17.921875 
L 12.109375 -9.1875 
Q 16.0625 -11.328125 19.921875 -12.34375 
Q 23.78125 -13.375 27.78125 -13.375 
Q 36.625 -13.375 41.015625 -8.765625 
Q 45.40625 -4.15625 45.40625 5.171875 
L 45.40625 9.625 
Q 42.625 4.78125 38.28125 2.390625 
Q 33.9375 0 27.875 0 
Q 17.828125 0 11.671875 7.65625 
Q 5.515625 15.328125 5.515625 27.984375 
Q 5.515625 40.671875 11.671875 48.328125 
Q 17.828125 56 27.875 56 
Q 33.9375 56 38.28125 53.609375 
Q 42.625 51.21875 45.40625 46.390625 
L 45.40625 54.6875 
L 54.390625 54.6875 
z
" id="DejaVuSans-103"/>
     </defs>
     <g transform="translate(245.34311 101.10812)rotate(-90)scale(0.08 -0.08)">
      <use xlink:href="#DejaVuSans-82"/>
      <use x="64.982422" xlink:href="#DejaVuSans-101"/>
      <use x="126.505859" xlink:href="#DejaVuSans-108"/>
      <use x="154.289062" xlink:href="#DejaVuSans-97"/>
      <use x="215.568359" xlink:href="#DejaVuSans-116"/>
      <use x="254.777344" xlink:href="#DejaVuSans-105"/>
      <use x="282.560547" xlink:href="#DejaVuSans-118"/>
      <use x="341.740234" xlink:href="#DejaVuSans-101"/>
      <use x="403.263672" xlink:href="#DejaVuSans-32"/>
      <use x="435.050781" xlink:href="#DejaVuSans-99"/>
      <use x="490.03125" xlink:href="#DejaVuSans-104"/>
      <use x="553.410156" xlink:href="#DejaVuSans-97"/>
      <use x="614.689453" xlink:href="#DejaVuSans-110"/>
      <use x="678.068359" xlink:href="#DejaVuSans-103"/>
      <use x="741.544922" xlink:href="#DejaVuSans-101"/>
     </g>
    </g>
   </g>
   <g id="line2d_29">
    <path clip-path="url(#pa2ae9c0b1c)" d="M 44.820369 44.356783 
L 47.051903 44.356783 
L 49.283436 44.356783 
L 51.51497 44.356783 
L 53.746504 44.356783 
L 55.978038 44.356783 
L 58.209572 42.714944 
L 60.441106 42.714944 
L 62.67264 44.356783 
L 64.904174 45.998622 
L 67.135708 44.356783 
L 69.367242 43.535863 
L 71.598775 43.535863 
L 73.830309 42.714944 
L 76.061843 38.610346 
L 78.293377 40.252185 
L 80.524911 45.998622 
L 82.756445 44.356783 
L 84.987979 41.073105 
L 87.219513 45.177702 
L 89.451047 45.177702 
L 91.682581 42.714944 
L 93.914114 46.819542 
L 96.145648 46.819542 
L 98.377182 44.356783 
L 100.608716 45.177702 
L 102.84025 45.998622 
L 105.071784 45.177702 
L 107.303318 41.073105 
L 109.534852 45.177702 
L 111.766386 46.819542 
L 113.99792 48.461381 
L 116.229453 55.028737 
L 118.460987 71.447129 
L 120.692521 101.000233 
L 122.924055 115.776786 
L 125.155589 110.030349 
L 127.387123 112.493107 
L 129.618657 113.314027 
L 131.850191 116.597705 
L 134.081725 115.776786 
L 136.313259 119.881384 
L 138.544792 121.523223 
L 140.776326 114.134947 
L 143.00786 115.776786 
L 145.239394 115.776786 
L 147.470928 115.776786 
L 149.702462 116.597705 
L 151.933996 119.881384 
L 154.16553 121.523223 
" style="fill:none;stroke:#d62728;stroke-linecap:square;stroke-opacity:0.5;"/>
   </g>
   <g id="line2d_30">
    <path clip-path="url(#pa2ae9c0b1c)" d="M 44.820369 44.356783 
L 47.051903 44.356783 
L 49.283436 44.356783 
L 51.51497 44.356783 
L 53.746504 44.356783 
L 55.978038 44.356783 
L 58.209572 45.177702 
L 60.441106 41.894024 
L 62.67264 43.535863 
L 64.904174 44.356783 
L 67.135708 43.535863 
L 69.367242 43.535863 
L 71.598775 42.714944 
L 73.830309 42.714944 
L 76.061843 36.147587 
L 78.293377 41.894024 
L 80.524911 45.177702 
L 82.756445 41.073105 
L 84.987979 37.789426 
L 87.219513 50.10322 
L 89.451047 41.073105 
L 91.682581 39.431265 
L 93.914114 43.535863 
L 96.145648 41.894024 
L 98.377182 41.073105 
L 100.608716 42.714944 
L 102.84025 42.714944 
L 105.071784 43.535863 
L 107.303318 38.610346 
L 109.534852 41.073105 
L 111.766386 29.580231 
L 113.99792 30.40115 
L 116.229453 22.191954 
L 118.460987 17.266437 
L 120.692521 50.924139 
L 122.924055 84.581842 
L 125.155589 71.447129 
L 127.387123 76.372646 
L 129.618657 73.909888 
L 131.850191 91.970118 
L 134.081725 76.372646 
L 136.313259 87.86552 
L 138.544792 104.283912 
L 140.776326 82.119083 
L 143.00786 85.402762 
L 145.239394 86.223681 
L 147.470928 87.044601 
L 149.702462 84.581842 
L 151.933996 91.149199 
L 154.16553 106.74667 
" style="fill:none;stroke:#9467bd;stroke-linecap:square;stroke-opacity:0.5;"/>
   </g>
   <g id="line2d_31">
    <path clip-path="url(#pa2ae9c0b1c)" d="M 44.820369 44.356783 
L 47.051903 44.356783 
L 49.283436 44.356783 
L 51.51497 44.356783 
L 53.746504 44.356783 
L 55.978038 44.356783 
L 58.209572 37.789426 
L 60.441106 40.252185 
L 62.67264 41.894024 
L 64.904174 41.073105 
L 67.135708 42.714944 
L 69.367242 40.252185 
L 71.598775 39.431265 
L 73.830309 32.863909 
L 76.061843 35.326668 
L 78.293377 41.073105 
L 80.524911 41.894024 
L 82.756445 43.535863 
L 84.987979 39.431265 
L 87.219513 42.714944 
L 89.451047 39.431265 
L 91.682581 40.252185 
L 93.914114 46.819542 
L 96.145648 43.535863 
L 98.377182 42.714944 
L 100.608716 44.356783 
L 102.84025 44.356783 
L 105.071784 41.073105 
L 107.303318 37.789426 
L 109.534852 44.356783 
L 111.766386 45.177702 
L 113.99792 51.745059 
L 116.229453 57.491496 
L 118.460987 70.626209 
L 120.692521 87.044601 
L 122.924055 102.642073 
L 125.155589 102.642073 
L 127.387123 105.104831 
L 129.618657 106.74667 
L 131.850191 110.030349 
L 134.081725 110.030349 
L 136.313259 113.314027 
L 138.544792 115.776786 
L 140.776326 110.851268 
L 143.00786 110.851268 
L 145.239394 111.672188 
L 147.470928 111.672188 
L 149.702462 112.493107 
L 151.933996 114.955866 
L 154.16553 116.597705 
" style="fill:none;stroke:#e377c2;stroke-linecap:square;stroke-opacity:0.5;"/>
   </g>
   <g id="line2d_32">
    <path clip-path="url(#pa2ae9c0b1c)" d="M 44.820369 44.356783 
L 47.051903 44.356783 
L 49.283436 44.356783 
L 51.51497 44.356783 
L 53.746504 44.356783 
L 55.978038 44.356783 
L 58.209572 44.356783 
L 60.441106 45.177702 
L 62.67264 41.894024 
L 64.904174 41.894024 
L 67.135708 41.894024 
L 69.367242 41.894024 
L 71.598775 42.714944 
L 73.830309 42.714944 
L 76.061843 43.535863 
L 78.293377 50.10322 
L 80.524911 49.2823 
L 82.756445 44.356783 
L 84.987979 43.535863 
L 87.219513 53.386898 
L 89.451047 45.177702 
L 91.682581 43.535863 
L 93.914114 46.819542 
L 96.145648 41.894024 
L 98.377182 41.894024 
L 100.608716 42.714944 
L 102.84025 45.177702 
L 105.071784 43.535863 
L 107.303318 43.535863 
L 109.534852 41.894024 
L 111.766386 42.714944 
L 113.99792 45.998622 
L 116.229453 48.461381 
L 118.460987 58.312416 
L 120.692521 69.80529 
L 122.924055 83.760922 
L 125.155589 87.044601 
L 127.387123 92.791038 
L 129.618657 93.611957 
L 131.850191 102.642073 
L 134.081725 98.537475 
L 136.313259 96.074716 
L 138.544792 97.716555 
L 140.776326 97.716555 
L 143.00786 99.358394 
L 145.239394 99.358394 
L 147.470928 100.179314 
L 149.702462 100.179314 
L 151.933996 96.895636 
L 154.16553 96.895636 
" style="fill:none;stroke:#bcbd22;stroke-linecap:square;stroke-opacity:0.5;"/>
   </g>
   <g id="line2d_33">
    <path clip-path="url(#pa2ae9c0b1c)" d="M 44.820369 44.356783 
L 47.051903 44.356783 
L 49.283436 44.356783 
L 51.51497 44.356783 
L 53.746504 44.356783 
L 55.978038 44.356783 
L 58.209572 45.998622 
L 60.441106 45.998622 
L 62.67264 45.177702 
L 64.904174 44.356783 
L 67.135708 45.177702 
L 69.367242 45.177702 
L 71.598775 45.998622 
L 73.830309 45.998622 
L 76.061843 46.819542 
L 78.293377 44.356783 
L 80.524911 43.535863 
L 82.756445 44.356783 
L 84.987979 45.998622 
L 87.219513 44.356783 
L 89.451047 45.177702 
L 91.682581 45.998622 
L 93.914114 43.535863 
L 96.145648 44.356783 
L 98.377182 44.356783 
L 100.608716 44.356783 
L 102.84025 44.356783 
L 105.071784 45.177702 
L 107.303318 45.998622 
L 109.534852 45.177702 
L 111.766386 44.356783 
L 113.99792 43.535863 
L 116.229453 41.894024 
L 118.460987 37.789426 
L 120.692521 32.863909 
L 122.924055 30.40115 
L 125.155589 25.475633 
L 127.387123 23.833794 
L 129.618657 23.012874 
L 131.850191 18.908276 
L 134.081725 18.087357 
L 136.313259 23.012874 
L 138.544792 26.296552 
L 140.776326 21.371035 
L 143.00786 20.550115 
L 145.239394 19.729196 
L 147.470928 19.729196 
L 149.702462 17.266437 
L 151.933996 23.012874 
L 154.16553 26.296552 
" style="fill:none;stroke:#17becf;stroke-linecap:square;stroke-opacity:0.5;"/>
   </g>
   <g id="patch_7">
    <path d="M 37.01 126.44874 
L 37.01 11.52 
" style="fill:none;stroke:#000000;stroke-linecap:square;stroke-linejoin:miter;stroke-width:0.8;"/>
   </g>
   <g id="patch_8">
    <path d="M 208.83811 126.44874 
L 208.83811 11.52 
" style="fill:none;stroke:#000000;stroke-linecap:square;stroke-linejoin:miter;stroke-width:0.8;"/>
   </g>
   <g id="patch_9">
    <path d="M 37.01 126.44874 
L 208.83811 126.44874 
" style="fill:none;stroke:#000000;stroke-linecap:square;stroke-linejoin:miter;stroke-width:0.8;"/>
   </g>
   <g id="patch_10">
    <path d="M 37.01 11.52 
L 208.83811 11.52 
" style="fill:none;stroke:#000000;stroke-linecap:square;stroke-linejoin:miter;stroke-width:0.8;"/>
   </g>
  </g>
 </g>
 <defs>
  <clipPath id="pa2ae9c0b1c">
   <rect height="114.92874" width="171.82811" x="37.01" y="11.52"/>
  </clipPath>
 </defs>
</svg>
