<?xml version="1.0" encoding="utf-8" standalone="no"?>
<!DOCTYPE svg PUBLIC "-//W3C//DTD SVG 1.1//EN"
  "http://www.w3.org/Graphics/SVG/1.1/DTD/svg11.dtd">
<!-- Created with matplotlib (https://matplotlib.org/) -->
<svg height="170.07874pt" version="1.1" viewBox="0 0 255.11811 170.07874" width="255.11811pt" xmlns="http://www.w3.org/2000/svg" xmlns:xlink="http://www.w3.org/1999/xlink">
 <defs>
  <style type="text/css">
*{stroke-linecap:butt;stroke-linejoin:round;}
  </style>
 </defs>
 <g id="figure_1">
  <g id="patch_1">
   <path d="M 0 170.07874 
L 255.11811 170.07874 
L 255.11811 0 
L 0 0 
z
" style="fill:#ffffff;"/>
  </g>
  <g id="axes_1">
   <g id="patch_2">
    <path d="M 47.09 126.44874 
L 208.83811 126.44874 
L 208.83811 11.52 
L 47.09 11.52 
z
" style="fill:#ffffff;"/>
   </g>
   <g id="PolyCollection_1">
    <defs>
     <path d="M 55.272942 -43.63 
L 55.272942 -43.63 
L 57.349831 -43.63 
L 59.42672 -43.630006 
L 61.503609 -43.630026 
L 63.580498 -43.630073 
L 65.657387 -43.630161 
L 67.734276 -43.630301 
L 69.811165 -43.630507 
L 71.888054 -43.630792 
L 73.964943 -43.631178 
L 76.041832 -43.631693 
L 78.118721 -43.632374 
L 80.19561 -43.63327 
L 82.272499 -43.634453 
L 84.349387 -43.636016 
L 86.426276 -43.638069 
L 88.503165 -43.640774 
L 90.580054 -43.644346 
L 92.656943 -43.649166 
L 94.733832 -43.655598 
L 96.810721 -43.664063 
L 98.88761 -43.67556 
L 100.964499 -43.690867 
L 103.041388 -43.710954 
L 105.118277 -43.737281 
L 107.195166 -43.771961 
L 109.272055 -43.817669 
L 111.348944 -43.878352 
L 113.425833 -43.959977 
L 115.502722 -44.064433 
L 117.57961 -44.203087 
L 119.656499 -44.386375 
L 121.733388 -44.629996 
L 123.810277 -44.966106 
L 125.887166 -45.458677 
L 127.964055 -46.207476 
L 130.040944 -47.239525 
L 132.117833 -48.606145 
L 134.194722 -50.291755 
L 136.271611 -52.244107 
L 138.3485 -54.446688 
L 140.425389 -56.909287 
L 142.502278 -59.510009 
L 144.579167 -62.177673 
L 146.656056 -64.962038 
L 148.732944 -67.585992 
L 150.809833 -70.024592 
L 152.886722 -72.276496 
L 154.963611 -74.328101 
L 157.0405 -75.863994 
L 157.0405 -99.422026 
L 157.0405 -99.422026 
L 154.963611 -95.134552 
L 152.886722 -90.646618 
L 150.809833 -86.171353 
L 148.732944 -81.69573 
L 146.656056 -77.262657 
L 144.579167 -72.829941 
L 142.502278 -68.40392 
L 140.425389 -64.184172 
L 138.3485 -60.259537 
L 136.271611 -56.646243 
L 134.194722 -53.533597 
L 132.117833 -51.025999 
L 130.040944 -49.123023 
L 127.964055 -47.718044 
L 125.887166 -46.725381 
L 123.810277 -46.031629 
L 121.733388 -45.533369 
L 119.656499 -45.14294 
L 117.57961 -44.850885 
L 115.502722 -44.615796 
L 113.425833 -44.423463 
L 111.348944 -44.270967 
L 109.272055 -44.147045 
L 107.195166 -44.048227 
L 105.118277 -43.968394 
L 103.041388 -43.903366 
L 100.964499 -43.849619 
L 98.88761 -43.807449 
L 96.810721 -43.772432 
L 94.733832 -43.74458 
L 92.656943 -43.722217 
L 90.580054 -43.704029 
L 88.503165 -43.688981 
L 86.426276 -43.676694 
L 84.349387 -43.666911 
L 82.272499 -43.65872 
L 80.19561 -43.652025 
L 78.118721 -43.646568 
L 76.041832 -43.64219 
L 73.964943 -43.638673 
L 71.888054 -43.635911 
L 69.811165 -43.633802 
L 67.734276 -43.632262 
L 65.657387 -43.631205 
L 63.580498 -43.63055 
L 61.503609 -43.630197 
L 59.42672 -43.630045 
L 57.349831 -43.63 
L 55.272942 -43.63 
z
" id="m3bf6387983" style="stroke:#6495ed;stroke-opacity:0.4;"/>
    </defs>
    <g clip-path="url(#pe93b1ba5fb)">
     <use style="fill:#6495ed;fill-opacity:0.4;stroke:#6495ed;stroke-opacity:0.4;" x="0" xlink:href="#m3bf6387983" y="170.07874"/>
    </g>
   </g>
   <g id="PolyCollection_2">
    <defs>
     <path d="M 55.272942 -43.63 
L 55.272942 -43.63 
L 57.349831 -43.63 
L 59.42672 -43.630013 
L 61.503609 -43.630055 
L 63.580498 -43.630153 
L 65.657387 -43.630336 
L 67.734276 -43.630631 
L 69.811165 -43.631061 
L 71.888054 -43.631654 
L 73.964943 -43.632445 
L 76.041832 -43.63348 
L 78.118721 -43.634811 
L 80.19561 -43.63653 
L 82.272499 -43.638723 
L 84.349387 -43.641531 
L 86.426276 -43.645108 
L 88.503165 -43.649759 
L 90.580054 -43.655837 
L 92.656943 -43.663641 
L 94.733832 -43.67369 
L 96.810721 -43.686866 
L 98.88761 -43.703691 
L 100.964499 -43.725253 
L 103.041388 -43.753215 
L 105.118277 -43.789342 
L 107.195166 -43.835659 
L 109.272055 -43.895748 
L 111.348944 -43.973687 
L 113.425833 -44.073877 
L 115.502722 -44.202393 
L 117.57961 -44.368372 
L 119.656499 -44.584103 
L 121.733388 -44.866698 
L 123.810277 -45.25173 
L 125.887166 -45.798733 
L 127.964055 -46.611129 
L 130.040944 -47.76444 
L 132.117833 -49.292812 
L 134.194722 -51.23164 
L 136.271611 -53.527121 
L 138.3485 -56.160672 
L 140.425389 -59.035806 
L 142.502278 -62.097939 
L 144.579167 -65.293649 
L 146.656056 -68.530858 
L 148.732944 -71.678554 
L 150.809833 -74.637803 
L 152.886722 -77.341707 
L 154.963611 -79.781466 
L 157.0405 -81.864037 
L 157.0405 -89.181189 
L 157.0405 -89.181189 
L 154.963611 -86.376781 
L 152.886722 -83.236268 
L 150.809833 -79.85203 
L 148.732944 -76.282058 
L 146.656056 -72.585251 
L 144.579167 -68.827774 
L 142.502278 -65.083207 
L 140.425389 -61.472577 
L 138.3485 -58.071339 
L 136.271611 -54.983961 
L 134.194722 -52.308306 
L 132.117833 -50.101958 
L 130.040944 -48.385743 
L 127.964055 -47.11782 
L 125.887166 -46.226878 
L 123.810277 -45.617038 
L 121.733388 -45.174551 
L 119.656499 -44.841194 
L 117.57961 -44.586061 
L 115.502722 -44.389609 
L 113.425833 -44.231632 
L 111.348944 -44.106737 
L 109.272055 -44.008089 
L 107.195166 -43.929124 
L 105.118277 -43.866527 
L 103.041388 -43.817432 
L 100.964499 -43.778415 
L 98.88761 -43.747367 
L 96.810721 -43.722792 
L 94.733832 -43.70315 
L 92.656943 -43.687665 
L 90.580054 -43.675402 
L 88.503165 -43.665636 
L 86.426276 -43.65785 
L 84.349387 -43.651664 
L 82.272499 -43.646673 
L 80.19561 -43.642655 
L 78.118721 -43.639463 
L 76.041832 -43.636911 
L 73.964943 -43.634888 
L 71.888054 -43.633319 
L 69.811165 -43.632132 
L 67.734276 -43.631268 
L 65.657387 -43.630676 
L 63.580498 -43.630308 
L 61.503609 -43.630111 
L 59.42672 -43.630025 
L 57.349831 -43.63 
L 55.272942 -43.63 
z
" id="m31d347d2cf" style="stroke:#6495ed;stroke-opacity:0.6;"/>
    </defs>
    <g clip-path="url(#pe93b1ba5fb)">
     <use style="fill:#6495ed;fill-opacity:0.6;stroke:#6495ed;stroke-opacity:0.6;" x="0" xlink:href="#m31d347d2cf" y="170.07874"/>
    </g>
   </g>
   <g id="PolyCollection_3">
    <defs>
     <path d="M 157.0405 -99.422026 
L 157.0405 -75.863994 
L 159.117389 -77.100642 
L 161.194278 -77.99708 
L 163.271167 -78.528336 
L 165.348056 -78.806408 
L 167.424945 -78.650721 
L 169.501834 -78.336568 
L 171.578723 -77.547627 
L 173.655612 -76.687607 
L 175.732501 -75.586501 
L 177.80939 -74.277368 
L 179.886278 -72.882699 
L 181.963167 -71.360195 
L 184.040056 -69.730375 
L 186.116945 -68.16093 
L 188.193834 -66.620546 
L 190.270723 -65.061397 
L 192.347612 -63.543631 
L 194.424501 -62.053508 
L 196.50139 -60.57114 
L 198.578279 -59.140376 
L 200.655168 -57.787597 
L 200.655168 -158.062135 
L 200.655168 -158.062135 
L 198.578279 -158.55874 
L 196.50139 -158.172006 
L 194.424501 -158.360445 
L 192.347612 -158.045032 
L 190.270723 -157.4939 
L 188.193834 -156.472996 
L 186.116945 -154.665948 
L 184.040056 -152.852996 
L 181.963167 -150.44882 
L 179.886278 -147.585122 
L 177.80939 -144.158842 
L 175.732501 -141.273813 
L 173.655612 -137.698722 
L 171.578723 -132.746425 
L 169.501834 -128.729423 
L 167.424945 -123.822727 
L 165.348056 -118.942798 
L 163.271167 -113.995499 
L 161.194278 -108.962853 
L 159.117389 -104.382198 
L 157.0405 -99.422026 
z
" id="mf4e44f1109" style="stroke:#228b22;stroke-opacity:0.4;"/>
    </defs>
    <g clip-path="url(#pe93b1ba5fb)">
     <use style="fill:#228b22;fill-opacity:0.4;stroke:#228b22;stroke-opacity:0.4;" x="0" xlink:href="#mf4e44f1109" y="170.07874"/>
    </g>
   </g>
   <g id="PolyCollection_4">
    <defs>
     <path d="M 157.0405 -89.181189 
L 157.0405 -81.864037 
L 159.117389 -83.590126 
L 161.194278 -84.855048 
L 163.271167 -85.762579 
L 165.348056 -86.271708 
L 167.424945 -86.464897 
L 169.501834 -86.20018 
L 171.578723 -85.583376 
L 173.655612 -84.706803 
L 175.732501 -83.542072 
L 177.80939 -82.172533 
L 179.886278 -80.627781 
L 181.963167 -78.943149 
L 184.040056 -77.194119 
L 186.116945 -75.388539 
L 188.193834 -73.504313 
L 190.270723 -71.654578 
L 192.347612 -69.821297 
L 194.424501 -68.007312 
L 196.50139 -66.22592 
L 198.578279 -64.500242 
L 200.655168 -62.833871 
L 200.655168 -78.830461 
L 200.655168 -78.830461 
L 198.578279 -80.892579 
L 196.50139 -82.968032 
L 194.424501 -85.084876 
L 192.347612 -87.073493 
L 190.270723 -89.059742 
L 188.193834 -90.837029 
L 186.116945 -92.567693 
L 184.040056 -94.154094 
L 181.963167 -95.523818 
L 179.886278 -96.8252 
L 177.80939 -97.874268 
L 175.732501 -98.615991 
L 173.655612 -99.002846 
L 171.578723 -99.057547 
L 169.501834 -98.730774 
L 167.424945 -98.088839 
L 165.348056 -97.032038 
L 163.271167 -95.694586 
L 161.194278 -93.955135 
L 159.117389 -91.742126 
L 157.0405 -89.181189 
z
" id="m9d3fa1df04" style="stroke:#228b22;stroke-opacity:0.6;"/>
    </defs>
    <g clip-path="url(#pe93b1ba5fb)">
     <use style="fill:#228b22;fill-opacity:0.6;stroke:#228b22;stroke-opacity:0.6;" x="0" xlink:href="#m9d3fa1df04" y="170.07874"/>
    </g>
   </g>
   <g id="PathCollection_1">
    <defs>
     <path d="M -0.866025 1.732051 
L 0 0.866025 
L 0.866025 1.732051 
L 1.732051 0.866025 
L 0.866025 0 
L 1.732051 -0.866025 
L 0.866025 -1.732051 
L 0 -0.866025 
L -0.866025 -1.732051 
L -1.732051 -0.866025 
L -0.866025 0 
L -1.732051 0.866025 
z
" id="mbe539f54ce" style="stroke:#8a2be2;"/>
    </defs>
    <g clip-path="url(#pe93b1ba5fb)">
     <use style="fill:#8a2be2;stroke:#8a2be2;" x="125.887166" xlink:href="#mbe539f54ce" y="23.012874"/>
    </g>
   </g>
   <g id="PathCollection_2">
    <defs>
     <path d="M 0 -1.732051 
L -0.38887 -0.535233 
L -1.647278 -0.535233 
L -0.629204 0.204441 
L -1.018074 1.401259 
L -0 0.661585 
L 1.018074 1.401259 
L 0.629204 0.204441 
L 1.647278 -0.535233 
L 0.38887 -0.535233 
z
" id="mdd64b2d5cb" style="stroke:#000000;"/>
    </defs>
    <g clip-path="url(#pe93b1ba5fb)">
     <use style="stroke:#000000;" x="123.810277" xlink:href="#mdd64b2d5cb" y="23.012874"/>
    </g>
   </g>
   <g id="PathCollection_3">
    <defs>
     <path d="M -1.732051 1.732051 
L 1.732051 1.732051 
L 1.732051 -1.732051 
L -1.732051 -1.732051 
z
" id="ma440b61ede" style="stroke:#c71585;"/>
    </defs>
    <g clip-path="url(#pe93b1ba5fb)">
     <use style="fill:#c71585;stroke:#c71585;" x="125.887166" xlink:href="#ma440b61ede" y="28.184667"/>
    </g>
   </g>
   <g id="PathCollection_4">
    <defs>
     <path d="M 0 -1.732051 
L -1.647278 -0.535233 
L -1.018074 1.401259 
L 1.018074 1.401259 
L 1.647278 -0.535233 
z
" id="m4dcd401435" style="stroke:#800000;"/>
    </defs>
    <g clip-path="url(#pe93b1ba5fb)">
     <use style="fill:#800000;stroke:#800000;" x="115.502722" xlink:href="#m4dcd401435" y="23.012874"/>
    </g>
   </g>
   <g id="PathCollection_5">
    <defs>
     <path d="M -0 2.44949 
L 1.469694 0 
L 0 -2.44949 
L -1.469694 -0 
z
" id="m2c27b06572" style="stroke:#556b2f;"/>
    </defs>
    <g clip-path="url(#pe93b1ba5fb)">
     <use style="fill:#556b2f;stroke:#556b2f;" x="132.117833" xlink:href="#m2c27b06572" y="23.012874"/>
    </g>
   </g>
   <g id="patch_3">
    <path clip-path="url(#pe93b1ba5fb)" d="M 54.442187 126.44874 
L 56.103698 126.44874 
L 56.103698 126.44874 
L 54.442187 126.44874 
z
" style="fill:#1f77b4;opacity:0.5;"/>
   </g>
   <g id="patch_4">
    <path clip-path="url(#pe93b1ba5fb)" d="M 56.519076 126.44874 
L 58.180587 126.44874 
L 58.180587 126.44874 
L 56.519076 126.44874 
z
" style="fill:#1f77b4;opacity:0.5;"/>
   </g>
   <g id="patch_5">
    <path clip-path="url(#pe93b1ba5fb)" d="M 58.595965 126.44874 
L 60.257476 126.44874 
L 60.257476 126.44874 
L 58.595965 126.44874 
z
" style="fill:#1f77b4;opacity:0.5;"/>
   </g>
   <g id="patch_6">
    <path clip-path="url(#pe93b1ba5fb)" d="M 60.672854 126.44874 
L 62.334365 126.44874 
L 62.334365 126.44874 
L 60.672854 126.44874 
z
" style="fill:#1f77b4;opacity:0.5;"/>
   </g>
   <g id="patch_7">
    <path clip-path="url(#pe93b1ba5fb)" d="M 62.749743 126.44874 
L 64.411254 126.44874 
L 64.411254 126.44874 
L 62.749743 126.44874 
z
" style="fill:#1f77b4;opacity:0.5;"/>
   </g>
   <g id="patch_8">
    <path clip-path="url(#pe93b1ba5fb)" d="M 64.826632 126.44874 
L 66.488143 126.44874 
L 66.488143 126.44874 
L 64.826632 126.44874 
z
" style="fill:#1f77b4;opacity:0.5;"/>
   </g>
   <g id="patch_9">
    <path clip-path="url(#pe93b1ba5fb)" d="M 66.90352 126.44874 
L 68.565032 126.44874 
L 68.565032 126.44874 
L 66.90352 126.44874 
z
" style="fill:#1f77b4;opacity:0.5;"/>
   </g>
   <g id="patch_10">
    <path clip-path="url(#pe93b1ba5fb)" d="M 68.980409 126.44874 
L 70.641921 126.44874 
L 70.641921 126.44874 
L 68.980409 126.44874 
z
" style="fill:#1f77b4;opacity:0.5;"/>
   </g>
   <g id="patch_11">
    <path clip-path="url(#pe93b1ba5fb)" d="M 71.057298 126.44874 
L 72.718809 126.44874 
L 72.718809 126.44874 
L 71.057298 126.44874 
z
" style="fill:#1f77b4;opacity:0.5;"/>
   </g>
   <g id="patch_12">
    <path clip-path="url(#pe93b1ba5fb)" d="M 73.134187 126.44874 
L 74.795698 126.44874 
L 74.795698 126.44874 
L 73.134187 126.44874 
z
" style="fill:#1f77b4;opacity:0.5;"/>
   </g>
   <g id="patch_13">
    <path clip-path="url(#pe93b1ba5fb)" d="M 75.211076 126.44874 
L 76.872587 126.44874 
L 76.872587 126.44874 
L 75.211076 126.44874 
z
" style="fill:#1f77b4;opacity:0.5;"/>
   </g>
   <g id="patch_14">
    <path clip-path="url(#pe93b1ba5fb)" d="M 77.287965 126.44874 
L 78.949476 126.44874 
L 78.949476 126.44874 
L 77.287965 126.44874 
z
" style="fill:#1f77b4;opacity:0.5;"/>
   </g>
   <g id="patch_15">
    <path clip-path="url(#pe93b1ba5fb)" d="M 79.364854 126.44874 
L 81.026365 126.44874 
L 81.026365 126.44874 
L 79.364854 126.44874 
z
" style="fill:#1f77b4;opacity:0.5;"/>
   </g>
   <g id="patch_16">
    <path clip-path="url(#pe93b1ba5fb)" d="M 81.441743 126.44874 
L 83.103254 126.44874 
L 83.103254 126.44874 
L 81.441743 126.44874 
z
" style="fill:#1f77b4;opacity:0.5;"/>
   </g>
   <g id="patch_17">
    <path clip-path="url(#pe93b1ba5fb)" d="M 83.518632 126.44874 
L 85.180143 126.44874 
L 85.180143 126.44874 
L 83.518632 126.44874 
z
" style="fill:#1f77b4;opacity:0.5;"/>
   </g>
   <g id="patch_18">
    <path clip-path="url(#pe93b1ba5fb)" d="M 85.595521 126.44874 
L 87.257032 126.44874 
L 87.257032 126.44874 
L 85.595521 126.44874 
z
" style="fill:#1f77b4;opacity:0.5;"/>
   </g>
   <g id="patch_19">
    <path clip-path="url(#pe93b1ba5fb)" d="M 87.67241 126.44874 
L 89.333921 126.44874 
L 89.333921 126.44874 
L 87.67241 126.44874 
z
" style="fill:#1f77b4;opacity:0.5;"/>
   </g>
   <g id="patch_20">
    <path clip-path="url(#pe93b1ba5fb)" d="M 89.749299 126.44874 
L 91.41081 126.44874 
L 91.41081 126.44874 
L 89.749299 126.44874 
z
" style="fill:#1f77b4;opacity:0.5;"/>
   </g>
   <g id="patch_21">
    <path clip-path="url(#pe93b1ba5fb)" d="M 91.826188 126.44874 
L 93.487699 126.44874 
L 93.487699 126.44874 
L 91.826188 126.44874 
z
" style="fill:#1f77b4;opacity:0.5;"/>
   </g>
   <g id="patch_22">
    <path clip-path="url(#pe93b1ba5fb)" d="M 93.903077 126.44874 
L 95.564588 126.44874 
L 95.564588 126.44874 
L 93.903077 126.44874 
z
" style="fill:#1f77b4;opacity:0.5;"/>
   </g>
   <g id="patch_23">
    <path clip-path="url(#pe93b1ba5fb)" d="M 95.979966 126.44874 
L 97.641477 126.44874 
L 97.641477 126.44874 
L 95.979966 126.44874 
z
" style="fill:#1f77b4;opacity:0.5;"/>
   </g>
   <g id="patch_24">
    <path clip-path="url(#pe93b1ba5fb)" d="M 98.056854 126.44874 
L 99.718366 126.44874 
L 99.718366 126.44874 
L 98.056854 126.44874 
z
" style="fill:#1f77b4;opacity:0.5;"/>
   </g>
   <g id="patch_25">
    <path clip-path="url(#pe93b1ba5fb)" d="M 100.133743 126.44874 
L 101.795255 126.44874 
L 101.795255 126.44874 
L 100.133743 126.44874 
z
" style="fill:#1f77b4;opacity:0.5;"/>
   </g>
   <g id="patch_26">
    <path clip-path="url(#pe93b1ba5fb)" d="M 102.210632 126.44874 
L 103.872143 126.44874 
L 103.872143 126.44874 
L 102.210632 126.44874 
z
" style="fill:#1f77b4;opacity:0.5;"/>
   </g>
   <g id="patch_27">
    <path clip-path="url(#pe93b1ba5fb)" d="M 104.287521 126.44874 
L 105.949032 126.44874 
L 105.949032 126.44874 
L 104.287521 126.44874 
z
" style="fill:#1f77b4;opacity:0.5;"/>
   </g>
   <g id="patch_28">
    <path clip-path="url(#pe93b1ba5fb)" d="M 106.36441 126.44874 
L 108.025921 126.44874 
L 108.025921 126.387888 
L 106.36441 126.387888 
z
" style="fill:#1f77b4;opacity:0.5;"/>
   </g>
   <g id="patch_29">
    <path clip-path="url(#pe93b1ba5fb)" d="M 108.441299 126.44874 
L 110.10281 126.44874 
L 110.10281 126.327037 
L 108.441299 126.327037 
z
" style="fill:#1f77b4;opacity:0.5;"/>
   </g>
   <g id="patch_30">
    <path clip-path="url(#pe93b1ba5fb)" d="M 110.518188 126.44874 
L 112.179699 126.44874 
L 112.179699 126.327037 
L 110.518188 126.327037 
z
" style="fill:#1f77b4;opacity:0.5;"/>
   </g>
   <g id="patch_31">
    <path clip-path="url(#pe93b1ba5fb)" d="M 112.595077 126.44874 
L 114.256588 126.44874 
L 114.256588 126.44874 
L 112.595077 126.44874 
z
" style="fill:#1f77b4;opacity:0.5;"/>
   </g>
   <g id="patch_32">
    <path clip-path="url(#pe93b1ba5fb)" d="M 114.671966 126.44874 
L 116.333477 126.44874 
L 116.333477 126.44874 
L 114.671966 126.44874 
z
" style="fill:#1f77b4;opacity:0.5;"/>
   </g>
   <g id="patch_33">
    <path clip-path="url(#pe93b1ba5fb)" d="M 116.748855 126.44874 
L 118.410366 126.44874 
L 118.410366 125.049149 
L 116.748855 125.049149 
z
" style="fill:#1f77b4;opacity:0.5;"/>
   </g>
   <g id="patch_34">
    <path clip-path="url(#pe93b1ba5fb)" d="M 118.825744 126.44874 
L 120.487255 126.44874 
L 120.487255 126.022778 
L 118.825744 126.022778 
z
" style="fill:#1f77b4;opacity:0.5;"/>
   </g>
   <g id="patch_35">
    <path clip-path="url(#pe93b1ba5fb)" d="M 120.902633 126.44874 
L 122.564144 126.44874 
L 122.564144 125.718519 
L 120.902633 125.718519 
z
" style="fill:#1f77b4;opacity:0.5;"/>
   </g>
   <g id="patch_36">
    <path clip-path="url(#pe93b1ba5fb)" d="M 122.979522 126.44874 
L 124.641033 126.44874 
L 124.641033 124.197225 
L 122.979522 124.197225 
z
" style="fill:#1f77b4;opacity:0.5;"/>
   </g>
   <g id="patch_37">
    <path clip-path="url(#pe93b1ba5fb)" d="M 125.056411 126.44874 
L 126.717922 126.44874 
L 126.717922 124.197225 
L 125.056411 124.197225 
z
" style="fill:#1f77b4;opacity:0.5;"/>
   </g>
   <g id="patch_38">
    <path clip-path="url(#pe93b1ba5fb)" d="M 127.1333 126.44874 
L 128.794811 126.44874 
L 128.794811 125.535964 
L 127.1333 125.535964 
z
" style="fill:#1f77b4;opacity:0.5;"/>
   </g>
   <g id="patch_39">
    <path clip-path="url(#pe93b1ba5fb)" d="M 129.210188 126.44874 
L 130.8717 126.44874 
L 130.8717 117.199271 
L 129.210188 117.199271 
z
" style="fill:#1f77b4;opacity:0.5;"/>
   </g>
   <g id="patch_40">
    <path clip-path="url(#pe93b1ba5fb)" d="M 131.287077 126.44874 
L 132.948589 126.44874 
L 132.948589 125.170853 
L 131.287077 125.170853 
z
" style="fill:#1f77b4;opacity:0.5;"/>
   </g>
   <g id="patch_41">
    <path clip-path="url(#pe93b1ba5fb)" d="M 133.363966 126.44874 
L 135.025477 126.44874 
L 135.025477 115.373718 
L 133.363966 115.373718 
z
" style="fill:#1f77b4;opacity:0.5;"/>
   </g>
   <g id="patch_42">
    <path clip-path="url(#pe93b1ba5fb)" d="M 135.440855 126.44874 
L 137.102366 126.44874 
L 137.102366 119.937601 
L 135.440855 119.937601 
z
" style="fill:#1f77b4;opacity:0.5;"/>
   </g>
   <g id="patch_43">
    <path clip-path="url(#pe93b1ba5fb)" d="M 137.517744 126.44874 
L 139.179255 126.44874 
L 139.179255 116.164791 
L 137.517744 116.164791 
z
" style="fill:#1f77b4;opacity:0.5;"/>
   </g>
   <g id="patch_44">
    <path clip-path="url(#pe93b1ba5fb)" d="M 139.594633 126.44874 
L 141.256144 126.44874 
L 141.256144 112.148574 
L 139.594633 112.148574 
z
" style="fill:#1f77b4;opacity:0.5;"/>
   </g>
   <g id="patch_45">
    <path clip-path="url(#pe93b1ba5fb)" d="M 141.671522 126.44874 
L 143.333033 126.44874 
L 143.333033 106.732767 
L 141.671522 106.732767 
z
" style="fill:#1f77b4;opacity:0.5;"/>
   </g>
   <g id="patch_46">
    <path clip-path="url(#pe93b1ba5fb)" d="M 143.748411 126.44874 
L 145.409922 126.44874 
L 145.409922 102.473143 
L 143.748411 102.473143 
z
" style="fill:#1f77b4;opacity:0.5;"/>
   </g>
   <g id="patch_47">
    <path clip-path="url(#pe93b1ba5fb)" d="M 145.8253 126.44874 
L 147.486811 126.44874 
L 147.486811 98.335222 
L 145.8253 98.335222 
z
" style="fill:#1f77b4;opacity:0.5;"/>
   </g>
   <g id="patch_48">
    <path clip-path="url(#pe93b1ba5fb)" d="M 147.902189 126.44874 
L 149.5637 126.44874 
L 149.5637 95.17093 
L 147.902189 95.17093 
z
" style="fill:#1f77b4;opacity:0.5;"/>
   </g>
   <g id="patch_49">
    <path clip-path="url(#pe93b1ba5fb)" d="M 149.979078 126.44874 
L 151.640589 126.44874 
L 151.640589 81.540134 
L 149.979078 81.540134 
z
" style="fill:#1f77b4;opacity:0.5;"/>
   </g>
   <g id="patch_50">
    <path clip-path="url(#pe93b1ba5fb)" d="M 152.055967 126.44874 
L 153.717478 126.44874 
L 153.717478 86.590831 
L 152.055967 86.590831 
z
" style="fill:#1f77b4;opacity:0.5;"/>
   </g>
   <g id="patch_51">
    <path clip-path="url(#pe93b1ba5fb)" d="M 154.132856 126.44874 
L 155.794367 126.44874 
L 155.794367 79.653729 
L 154.132856 79.653729 
z
" style="fill:#1f77b4;opacity:0.5;"/>
   </g>
   <g id="patch_52">
    <path clip-path="url(#pe93b1ba5fb)" d="M 156.209745 126.44874 
L 157.871256 126.44874 
L 157.871256 75.820067 
L 156.209745 75.820067 
z
" style="fill:#1f77b4;opacity:0.5;"/>
   </g>
   <g id="patch_53">
    <path clip-path="url(#pe93b1ba5fb)" d="M 158.286634 126.44874 
L 159.948145 126.44874 
L 159.948145 75.454957 
L 158.286634 75.454957 
z
" style="fill:#1f77b4;opacity:0.5;"/>
   </g>
   <g id="patch_54">
    <path clip-path="url(#pe93b1ba5fb)" d="M 160.363522 126.44874 
L 162.025034 126.44874 
L 162.025034 77.037103 
L 160.363522 77.037103 
z
" style="fill:#1f77b4;opacity:0.5;"/>
   </g>
   <g id="patch_55">
    <path clip-path="url(#pe93b1ba5fb)" d="M 162.440411 126.44874 
L 164.101923 126.44874 
L 164.101923 74.785587 
L 162.440411 74.785587 
z
" style="fill:#1f77b4;opacity:0.5;"/>
   </g>
   <g id="patch_56">
    <path clip-path="url(#pe93b1ba5fb)" d="M 164.5173 126.44874 
L 166.178812 126.44874 
L 166.178812 73.872811 
L 164.5173 73.872811 
z
" style="fill:#1f77b4;opacity:0.5;"/>
   </g>
   <g id="patch_57">
    <path clip-path="url(#pe93b1ba5fb)" d="M 166.594189 126.44874 
L 168.2557 126.44874 
L 168.2557 68.639559 
L 166.594189 68.639559 
z
" style="fill:#1f77b4;opacity:0.5;"/>
   </g>
   <g id="patch_58">
    <path clip-path="url(#pe93b1ba5fb)" d="M 168.671078 126.44874 
L 170.332589 126.44874 
L 170.332589 69.73489 
L 168.671078 69.73489 
z
" style="fill:#1f77b4;opacity:0.5;"/>
   </g>
   <g id="patch_59">
    <path clip-path="url(#pe93b1ba5fb)" d="M 170.747967 126.44874 
L 172.409478 126.44874 
L 172.409478 77.219658 
L 170.747967 77.219658 
z
" style="fill:#1f77b4;opacity:0.5;"/>
   </g>
   <g id="patch_60">
    <path clip-path="url(#pe93b1ba5fb)" d="M 172.824856 126.44874 
L 174.486367 126.44874 
L 174.486367 85.434647 
L 172.824856 85.434647 
z
" style="fill:#1f77b4;opacity:0.5;"/>
   </g>
   <g id="patch_61">
    <path clip-path="url(#pe93b1ba5fb)" d="M 174.901745 126.44874 
L 176.563256 126.44874 
L 176.563256 87.686163 
L 174.901745 87.686163 
z
" style="fill:#1f77b4;opacity:0.5;"/>
   </g>
   <g id="patch_62">
    <path clip-path="url(#pe93b1ba5fb)" d="M 176.978634 126.44874 
L 178.640145 126.44874 
L 178.640145 81.235875 
L 176.978634 81.235875 
z
" style="fill:#1f77b4;opacity:0.5;"/>
   </g>
   <g id="patch_63">
    <path clip-path="url(#pe93b1ba5fb)" d="M 179.055523 126.44874 
L 180.717034 126.44874 
L 180.717034 80.38395 
L 179.055523 80.38395 
z
" style="fill:#1f77b4;opacity:0.5;"/>
   </g>
   <g id="patch_64">
    <path clip-path="url(#pe93b1ba5fb)" d="M 181.132412 126.44874 
L 182.793923 126.44874 
L 182.793923 84.886981 
L 181.132412 84.886981 
z
" style="fill:#1f77b4;opacity:0.5;"/>
   </g>
   <g id="patch_65">
    <path clip-path="url(#pe93b1ba5fb)" d="M 183.209301 126.44874 
L 184.870812 126.44874 
L 184.870812 89.633419 
L 183.209301 89.633419 
z
" style="fill:#1f77b4;opacity:0.5;"/>
   </g>
   <g id="patch_66">
    <path clip-path="url(#pe93b1ba5fb)" d="M 185.28619 126.44874 
L 186.947701 126.44874 
L 186.947701 95.414337 
L 185.28619 95.414337 
z
" style="fill:#1f77b4;opacity:0.5;"/>
   </g>
   <g id="patch_67">
    <path clip-path="url(#pe93b1ba5fb)" d="M 187.363079 126.44874 
L 189.02459 126.44874 
L 189.02459 88.781494 
L 187.363079 88.781494 
z
" style="fill:#1f77b4;opacity:0.5;"/>
   </g>
   <g id="patch_68">
    <path clip-path="url(#pe93b1ba5fb)" d="M 189.439968 126.44874 
L 191.101479 126.44874 
L 191.101479 94.988375 
L 189.439968 94.988375 
z
" style="fill:#1f77b4;opacity:0.5;"/>
   </g>
   <g id="patch_69">
    <path clip-path="url(#pe93b1ba5fb)" d="M 191.516857 126.44874 
L 193.178368 126.44874 
L 193.178368 91.945787 
L 191.516857 91.945787 
z
" style="fill:#1f77b4;opacity:0.5;"/>
   </g>
   <g id="patch_70">
    <path clip-path="url(#pe93b1ba5fb)" d="M 193.593745 126.44874 
L 195.255257 126.44874 
L 195.255257 94.623264 
L 193.593745 94.623264 
z
" style="fill:#1f77b4;opacity:0.5;"/>
   </g>
   <g id="patch_71">
    <path clip-path="url(#pe93b1ba5fb)" d="M 195.670634 126.44874 
L 197.332146 126.44874 
L 197.332146 92.919415 
L 195.670634 92.919415 
z
" style="fill:#1f77b4;opacity:0.5;"/>
   </g>
   <g id="patch_72">
    <path clip-path="url(#pe93b1ba5fb)" d="M 197.747523 126.44874 
L 199.409034 126.44874 
L 199.409034 105.272324 
L 197.747523 105.272324 
z
" style="fill:#1f77b4;opacity:0.5;"/>
   </g>
   <g id="patch_73">
    <path clip-path="url(#pe93b1ba5fb)" d="M 199.824412 126.44874 
L 201.485923 126.44874 
L 201.485923 92.06749 
L 199.824412 92.06749 
z
" style="fill:#1f77b4;opacity:0.5;"/>
   </g>
   <g id="matplotlib.axis_1">
    <g id="xtick_1">
     <g id="line2d_1">
      <defs>
       <path d="M 0 0 
L 0 3.5 
" id="me06411cc8a" style="stroke:#000000;stroke-width:0.8;"/>
      </defs>
      <g>
       <use style="stroke:#000000;stroke-width:0.8;" x="200.655168" xlink:href="#me06411cc8a" y="126.44874"/>
      </g>
     </g>
     <g id="text_1">
      <!-- 19 Apr -->
      <defs>
       <path d="M 12.40625 8.296875 
L 28.515625 8.296875 
L 28.515625 63.921875 
L 10.984375 60.40625 
L 10.984375 69.390625 
L 28.421875 72.90625 
L 38.28125 72.90625 
L 38.28125 8.296875 
L 54.390625 8.296875 
L 54.390625 0 
L 12.40625 0 
z
" id="DejaVuSans-49"/>
       <path d="M 10.984375 1.515625 
L 10.984375 10.5 
Q 14.703125 8.734375 18.5 7.8125 
Q 22.3125 6.890625 25.984375 6.890625 
Q 35.75 6.890625 40.890625 13.453125 
Q 46.046875 20.015625 46.78125 33.40625 
Q 43.953125 29.203125 39.59375 26.953125 
Q 35.25 24.703125 29.984375 24.703125 
Q 19.046875 24.703125 12.671875 31.3125 
Q 6.296875 37.9375 6.296875 49.421875 
Q 6.296875 60.640625 12.9375 67.421875 
Q 19.578125 74.21875 30.609375 74.21875 
Q 43.265625 74.21875 49.921875 64.515625 
Q 56.59375 54.828125 56.59375 36.375 
Q 56.59375 19.140625 48.40625 8.859375 
Q 40.234375 -1.421875 26.421875 -1.421875 
Q 22.703125 -1.421875 18.890625 -0.6875 
Q 15.09375 0.046875 10.984375 1.515625 
z
M 30.609375 32.421875 
Q 37.25 32.421875 41.125 36.953125 
Q 45.015625 41.5 45.015625 49.421875 
Q 45.015625 57.28125 41.125 61.84375 
Q 37.25 66.40625 30.609375 66.40625 
Q 23.96875 66.40625 20.09375 61.84375 
Q 16.21875 57.28125 16.21875 49.421875 
Q 16.21875 41.5 20.09375 36.953125 
Q 23.96875 32.421875 30.609375 32.421875 
z
" id="DejaVuSans-57"/>
       <path id="DejaVuSans-32"/>
       <path d="M 34.1875 63.1875 
L 20.796875 26.90625 
L 47.609375 26.90625 
z
M 28.609375 72.90625 
L 39.796875 72.90625 
L 67.578125 0 
L 57.328125 0 
L 50.6875 18.703125 
L 17.828125 18.703125 
L 11.1875 0 
L 0.78125 0 
z
" id="DejaVuSans-65"/>
       <path d="M 18.109375 8.203125 
L 18.109375 -20.796875 
L 9.078125 -20.796875 
L 9.078125 54.6875 
L 18.109375 54.6875 
L 18.109375 46.390625 
Q 20.953125 51.265625 25.265625 53.625 
Q 29.59375 56 35.59375 56 
Q 45.5625 56 51.78125 48.09375 
Q 58.015625 40.1875 58.015625 27.296875 
Q 58.015625 14.40625 51.78125 6.484375 
Q 45.5625 -1.421875 35.59375 -1.421875 
Q 29.59375 -1.421875 25.265625 0.953125 
Q 20.953125 3.328125 18.109375 8.203125 
z
M 48.6875 27.296875 
Q 48.6875 37.203125 44.609375 42.84375 
Q 40.53125 48.484375 33.40625 48.484375 
Q 26.265625 48.484375 22.1875 42.84375 
Q 18.109375 37.203125 18.109375 27.296875 
Q 18.109375 17.390625 22.1875 11.75 
Q 26.265625 6.109375 33.40625 6.109375 
Q 40.53125 6.109375 44.609375 11.75 
Q 48.6875 17.390625 48.6875 27.296875 
z
" id="DejaVuSans-112"/>
       <path d="M 41.109375 46.296875 
Q 39.59375 47.171875 37.8125 47.578125 
Q 36.03125 48 33.890625 48 
Q 26.265625 48 22.1875 43.046875 
Q 18.109375 38.09375 18.109375 28.8125 
L 18.109375 0 
L 9.078125 0 
L 9.078125 54.6875 
L 18.109375 54.6875 
L 18.109375 46.1875 
Q 20.953125 51.171875 25.484375 53.578125 
Q 30.03125 56 36.53125 56 
Q 37.453125 56 38.578125 55.875 
Q 39.703125 55.765625 41.0625 55.515625 
z
" id="DejaVuSans-114"/>
      </defs>
      <g transform="translate(202.862668 160.01124)rotate(-90)scale(0.08 -0.08)">
       <use xlink:href="#DejaVuSans-49"/>
       <use x="63.623047" xlink:href="#DejaVuSans-57"/>
       <use x="127.246094" xlink:href="#DejaVuSans-32"/>
       <use x="159.033203" xlink:href="#DejaVuSans-65"/>
       <use x="227.441406" xlink:href="#DejaVuSans-112"/>
       <use x="290.917969" xlink:href="#DejaVuSans-114"/>
      </g>
     </g>
    </g>
    <g id="xtick_2">
     <g id="line2d_2">
      <g>
       <use style="stroke:#000000;stroke-width:0.8;" x="186.116945" xlink:href="#me06411cc8a" y="126.44874"/>
      </g>
     </g>
     <g id="text_2">
      <!-- 12 Apr -->
      <defs>
       <path d="M 19.1875 8.296875 
L 53.609375 8.296875 
L 53.609375 0 
L 7.328125 0 
L 7.328125 8.296875 
Q 12.9375 14.109375 22.625 23.890625 
Q 32.328125 33.6875 34.8125 36.53125 
Q 39.546875 41.84375 41.421875 45.53125 
Q 43.3125 49.21875 43.3125 52.78125 
Q 43.3125 58.59375 39.234375 62.25 
Q 35.15625 65.921875 28.609375 65.921875 
Q 23.96875 65.921875 18.8125 64.3125 
Q 13.671875 62.703125 7.8125 59.421875 
L 7.8125 69.390625 
Q 13.765625 71.78125 18.9375 73 
Q 24.125 74.21875 28.421875 74.21875 
Q 39.75 74.21875 46.484375 68.546875 
Q 53.21875 62.890625 53.21875 53.421875 
Q 53.21875 48.921875 51.53125 44.890625 
Q 49.859375 40.875 45.40625 35.40625 
Q 44.1875 33.984375 37.640625 27.21875 
Q 31.109375 20.453125 19.1875 8.296875 
z
" id="DejaVuSans-50"/>
      </defs>
      <g transform="translate(188.324445 160.01124)rotate(-90)scale(0.08 -0.08)">
       <use xlink:href="#DejaVuSans-49"/>
       <use x="63.623047" xlink:href="#DejaVuSans-50"/>
       <use x="127.246094" xlink:href="#DejaVuSans-32"/>
       <use x="159.033203" xlink:href="#DejaVuSans-65"/>
       <use x="227.441406" xlink:href="#DejaVuSans-112"/>
       <use x="290.917969" xlink:href="#DejaVuSans-114"/>
      </g>
     </g>
    </g>
    <g id="xtick_3">
     <g id="line2d_3">
      <g>
       <use style="stroke:#000000;stroke-width:0.8;" x="171.578723" xlink:href="#me06411cc8a" y="126.44874"/>
      </g>
     </g>
     <g id="text_3">
      <!-- 5 Apr -->
      <defs>
       <path d="M 10.796875 72.90625 
L 49.515625 72.90625 
L 49.515625 64.59375 
L 19.828125 64.59375 
L 19.828125 46.734375 
Q 21.96875 47.46875 24.109375 47.828125 
Q 26.265625 48.1875 28.421875 48.1875 
Q 40.625 48.1875 47.75 41.5 
Q 54.890625 34.8125 54.890625 23.390625 
Q 54.890625 11.625 47.5625 5.09375 
Q 40.234375 -1.421875 26.90625 -1.421875 
Q 22.3125 -1.421875 17.546875 -0.640625 
Q 12.796875 0.140625 7.71875 1.703125 
L 7.71875 11.625 
Q 12.109375 9.234375 16.796875 8.0625 
Q 21.484375 6.890625 26.703125 6.890625 
Q 35.15625 6.890625 40.078125 11.328125 
Q 45.015625 15.765625 45.015625 23.390625 
Q 45.015625 31 40.078125 35.4375 
Q 35.15625 39.890625 26.703125 39.890625 
Q 22.75 39.890625 18.8125 39.015625 
Q 14.890625 38.140625 10.796875 36.28125 
z
" id="DejaVuSans-53"/>
      </defs>
      <g transform="translate(173.786223 154.92124)rotate(-90)scale(0.08 -0.08)">
       <use xlink:href="#DejaVuSans-53"/>
       <use x="63.623047" xlink:href="#DejaVuSans-32"/>
       <use x="95.410156" xlink:href="#DejaVuSans-65"/>
       <use x="163.818359" xlink:href="#DejaVuSans-112"/>
       <use x="227.294922" xlink:href="#DejaVuSans-114"/>
      </g>
     </g>
    </g>
    <g id="xtick_4">
     <g id="line2d_4">
      <g>
       <use style="stroke:#000000;stroke-width:0.8;" x="157.0405" xlink:href="#me06411cc8a" y="126.44874"/>
      </g>
     </g>
     <g id="text_4">
      <!-- 29 Mar -->
      <defs>
       <path d="M 9.8125 72.90625 
L 24.515625 72.90625 
L 43.109375 23.296875 
L 61.8125 72.90625 
L 76.515625 72.90625 
L 76.515625 0 
L 66.890625 0 
L 66.890625 64.015625 
L 48.09375 14.015625 
L 38.1875 14.015625 
L 19.390625 64.015625 
L 19.390625 0 
L 9.8125 0 
z
" id="DejaVuSans-77"/>
       <path d="M 34.28125 27.484375 
Q 23.390625 27.484375 19.1875 25 
Q 14.984375 22.515625 14.984375 16.5 
Q 14.984375 11.71875 18.140625 8.90625 
Q 21.296875 6.109375 26.703125 6.109375 
Q 34.1875 6.109375 38.703125 11.40625 
Q 43.21875 16.703125 43.21875 25.484375 
L 43.21875 27.484375 
z
M 52.203125 31.203125 
L 52.203125 0 
L 43.21875 0 
L 43.21875 8.296875 
Q 40.140625 3.328125 35.546875 0.953125 
Q 30.953125 -1.421875 24.3125 -1.421875 
Q 15.921875 -1.421875 10.953125 3.296875 
Q 6 8.015625 6 15.921875 
Q 6 25.140625 12.171875 29.828125 
Q 18.359375 34.515625 30.609375 34.515625 
L 43.21875 34.515625 
L 43.21875 35.40625 
Q 43.21875 41.609375 39.140625 45 
Q 35.0625 48.390625 27.6875 48.390625 
Q 23 48.390625 18.546875 47.265625 
Q 14.109375 46.140625 10.015625 43.890625 
L 10.015625 52.203125 
Q 14.9375 54.109375 19.578125 55.046875 
Q 24.21875 56 28.609375 56 
Q 40.484375 56 46.34375 49.84375 
Q 52.203125 43.703125 52.203125 31.203125 
z
" id="DejaVuSans-97"/>
      </defs>
      <g transform="translate(159.248 161.26499)rotate(-90)scale(0.08 -0.08)">
       <use xlink:href="#DejaVuSans-50"/>
       <use x="63.623047" xlink:href="#DejaVuSans-57"/>
       <use x="127.246094" xlink:href="#DejaVuSans-32"/>
       <use x="159.033203" xlink:href="#DejaVuSans-77"/>
       <use x="245.3125" xlink:href="#DejaVuSans-97"/>
       <use x="306.591797" xlink:href="#DejaVuSans-114"/>
      </g>
     </g>
    </g>
    <g id="xtick_5">
     <g id="line2d_5">
      <g>
       <use style="stroke:#000000;stroke-width:0.8;" x="142.502278" xlink:href="#me06411cc8a" y="126.44874"/>
      </g>
     </g>
     <g id="text_5">
      <!-- 22 Mar -->
      <g transform="translate(144.709778 161.26499)rotate(-90)scale(0.08 -0.08)">
       <use xlink:href="#DejaVuSans-50"/>
       <use x="63.623047" xlink:href="#DejaVuSans-50"/>
       <use x="127.246094" xlink:href="#DejaVuSans-32"/>
       <use x="159.033203" xlink:href="#DejaVuSans-77"/>
       <use x="245.3125" xlink:href="#DejaVuSans-97"/>
       <use x="306.591797" xlink:href="#DejaVuSans-114"/>
      </g>
     </g>
    </g>
    <g id="xtick_6">
     <g id="line2d_6">
      <g>
       <use style="stroke:#000000;stroke-width:0.8;" x="127.964055" xlink:href="#me06411cc8a" y="126.44874"/>
      </g>
     </g>
     <g id="text_6">
      <!-- 15 Mar -->
      <g transform="translate(130.171555 161.26499)rotate(-90)scale(0.08 -0.08)">
       <use xlink:href="#DejaVuSans-49"/>
       <use x="63.623047" xlink:href="#DejaVuSans-53"/>
       <use x="127.246094" xlink:href="#DejaVuSans-32"/>
       <use x="159.033203" xlink:href="#DejaVuSans-77"/>
       <use x="245.3125" xlink:href="#DejaVuSans-97"/>
       <use x="306.591797" xlink:href="#DejaVuSans-114"/>
      </g>
     </g>
    </g>
    <g id="xtick_7">
     <g id="line2d_7">
      <g>
       <use style="stroke:#000000;stroke-width:0.8;" x="113.425833" xlink:href="#me06411cc8a" y="126.44874"/>
      </g>
     </g>
     <g id="text_7">
      <!-- 8 Mar -->
      <defs>
       <path d="M 31.78125 34.625 
Q 24.75 34.625 20.71875 30.859375 
Q 16.703125 27.09375 16.703125 20.515625 
Q 16.703125 13.921875 20.71875 10.15625 
Q 24.75 6.390625 31.78125 6.390625 
Q 38.8125 6.390625 42.859375 10.171875 
Q 46.921875 13.96875 46.921875 20.515625 
Q 46.921875 27.09375 42.890625 30.859375 
Q 38.875 34.625 31.78125 34.625 
z
M 21.921875 38.8125 
Q 15.578125 40.375 12.03125 44.71875 
Q 8.5 49.078125 8.5 55.328125 
Q 8.5 64.0625 14.71875 69.140625 
Q 20.953125 74.21875 31.78125 74.21875 
Q 42.671875 74.21875 48.875 69.140625 
Q 55.078125 64.0625 55.078125 55.328125 
Q 55.078125 49.078125 51.53125 44.71875 
Q 48 40.375 41.703125 38.8125 
Q 48.828125 37.15625 52.796875 32.3125 
Q 56.78125 27.484375 56.78125 20.515625 
Q 56.78125 9.90625 50.3125 4.234375 
Q 43.84375 -1.421875 31.78125 -1.421875 
Q 19.734375 -1.421875 13.25 4.234375 
Q 6.78125 9.90625 6.78125 20.515625 
Q 6.78125 27.484375 10.78125 32.3125 
Q 14.796875 37.15625 21.921875 38.8125 
z
M 18.3125 54.390625 
Q 18.3125 48.734375 21.84375 45.5625 
Q 25.390625 42.390625 31.78125 42.390625 
Q 38.140625 42.390625 41.71875 45.5625 
Q 45.3125 48.734375 45.3125 54.390625 
Q 45.3125 60.0625 41.71875 63.234375 
Q 38.140625 66.40625 31.78125 66.40625 
Q 25.390625 66.40625 21.84375 63.234375 
Q 18.3125 60.0625 18.3125 54.390625 
z
" id="DejaVuSans-56"/>
      </defs>
      <g transform="translate(115.633333 156.17499)rotate(-90)scale(0.08 -0.08)">
       <use xlink:href="#DejaVuSans-56"/>
       <use x="63.623047" xlink:href="#DejaVuSans-32"/>
       <use x="95.410156" xlink:href="#DejaVuSans-77"/>
       <use x="181.689453" xlink:href="#DejaVuSans-97"/>
       <use x="242.96875" xlink:href="#DejaVuSans-114"/>
      </g>
     </g>
    </g>
    <g id="xtick_8">
     <g id="line2d_8">
      <g>
       <use style="stroke:#000000;stroke-width:0.8;" x="98.88761" xlink:href="#me06411cc8a" y="126.44874"/>
      </g>
     </g>
     <g id="text_8">
      <!-- 1 Mar -->
      <g transform="translate(101.09511 156.17499)rotate(-90)scale(0.08 -0.08)">
       <use xlink:href="#DejaVuSans-49"/>
       <use x="63.623047" xlink:href="#DejaVuSans-32"/>
       <use x="95.410156" xlink:href="#DejaVuSans-77"/>
       <use x="181.689453" xlink:href="#DejaVuSans-97"/>
       <use x="242.96875" xlink:href="#DejaVuSans-114"/>
      </g>
     </g>
    </g>
    <g id="xtick_9">
     <g id="line2d_9">
      <g>
       <use style="stroke:#000000;stroke-width:0.8;" x="84.349387" xlink:href="#me06411cc8a" y="126.44874"/>
      </g>
     </g>
     <g id="text_9">
      <!-- 23 Feb -->
      <defs>
       <path d="M 40.578125 39.3125 
Q 47.65625 37.796875 51.625 33 
Q 55.609375 28.21875 55.609375 21.1875 
Q 55.609375 10.40625 48.1875 4.484375 
Q 40.765625 -1.421875 27.09375 -1.421875 
Q 22.515625 -1.421875 17.65625 -0.515625 
Q 12.796875 0.390625 7.625 2.203125 
L 7.625 11.71875 
Q 11.71875 9.328125 16.59375 8.109375 
Q 21.484375 6.890625 26.8125 6.890625 
Q 36.078125 6.890625 40.9375 10.546875 
Q 45.796875 14.203125 45.796875 21.1875 
Q 45.796875 27.640625 41.28125 31.265625 
Q 36.765625 34.90625 28.71875 34.90625 
L 20.21875 34.90625 
L 20.21875 43.015625 
L 29.109375 43.015625 
Q 36.375 43.015625 40.234375 45.921875 
Q 44.09375 48.828125 44.09375 54.296875 
Q 44.09375 59.90625 40.109375 62.90625 
Q 36.140625 65.921875 28.71875 65.921875 
Q 24.65625 65.921875 20.015625 65.03125 
Q 15.375 64.15625 9.8125 62.3125 
L 9.8125 71.09375 
Q 15.4375 72.65625 20.34375 73.4375 
Q 25.25 74.21875 29.59375 74.21875 
Q 40.828125 74.21875 47.359375 69.109375 
Q 53.90625 64.015625 53.90625 55.328125 
Q 53.90625 49.265625 50.4375 45.09375 
Q 46.96875 40.921875 40.578125 39.3125 
z
" id="DejaVuSans-51"/>
       <path d="M 9.8125 72.90625 
L 51.703125 72.90625 
L 51.703125 64.59375 
L 19.671875 64.59375 
L 19.671875 43.109375 
L 48.578125 43.109375 
L 48.578125 34.8125 
L 19.671875 34.8125 
L 19.671875 0 
L 9.8125 0 
z
" id="DejaVuSans-70"/>
       <path d="M 56.203125 29.59375 
L 56.203125 25.203125 
L 14.890625 25.203125 
Q 15.484375 15.921875 20.484375 11.0625 
Q 25.484375 6.203125 34.421875 6.203125 
Q 39.59375 6.203125 44.453125 7.46875 
Q 49.3125 8.734375 54.109375 11.28125 
L 54.109375 2.78125 
Q 49.265625 0.734375 44.1875 -0.34375 
Q 39.109375 -1.421875 33.890625 -1.421875 
Q 20.796875 -1.421875 13.15625 6.1875 
Q 5.515625 13.8125 5.515625 26.8125 
Q 5.515625 40.234375 12.765625 48.109375 
Q 20.015625 56 32.328125 56 
Q 43.359375 56 49.78125 48.890625 
Q 56.203125 41.796875 56.203125 29.59375 
z
M 47.21875 32.234375 
Q 47.125 39.59375 43.09375 43.984375 
Q 39.0625 48.390625 32.421875 48.390625 
Q 24.90625 48.390625 20.390625 44.140625 
Q 15.875 39.890625 15.1875 32.171875 
z
" id="DejaVuSans-101"/>
       <path d="M 48.6875 27.296875 
Q 48.6875 37.203125 44.609375 42.84375 
Q 40.53125 48.484375 33.40625 48.484375 
Q 26.265625 48.484375 22.1875 42.84375 
Q 18.109375 37.203125 18.109375 27.296875 
Q 18.109375 17.390625 22.1875 11.75 
Q 26.265625 6.109375 33.40625 6.109375 
Q 40.53125 6.109375 44.609375 11.75 
Q 48.6875 17.390625 48.6875 27.296875 
z
M 18.109375 46.390625 
Q 20.953125 51.265625 25.265625 53.625 
Q 29.59375 56 35.59375 56 
Q 45.5625 56 51.78125 48.09375 
Q 58.015625 40.1875 58.015625 27.296875 
Q 58.015625 14.40625 51.78125 6.484375 
Q 45.5625 -1.421875 35.59375 -1.421875 
Q 29.59375 -1.421875 25.265625 0.953125 
Q 20.953125 3.328125 18.109375 8.203125 
L 18.109375 0 
L 9.078125 0 
L 9.078125 75.984375 
L 18.109375 75.984375 
z
" id="DejaVuSans-98"/>
      </defs>
      <g transform="translate(86.556887 160.33374)rotate(-90)scale(0.08 -0.08)">
       <use xlink:href="#DejaVuSans-50"/>
       <use x="63.623047" xlink:href="#DejaVuSans-51"/>
       <use x="127.246094" xlink:href="#DejaVuSans-32"/>
       <use x="159.033203" xlink:href="#DejaVuSans-70"/>
       <use x="211.052734" xlink:href="#DejaVuSans-101"/>
       <use x="272.576172" xlink:href="#DejaVuSans-98"/>
      </g>
     </g>
    </g>
    <g id="xtick_10">
     <g id="line2d_10">
      <g>
       <use style="stroke:#000000;stroke-width:0.8;" x="69.811165" xlink:href="#me06411cc8a" y="126.44874"/>
      </g>
     </g>
     <g id="text_10">
      <!-- 16 Feb -->
      <defs>
       <path d="M 33.015625 40.375 
Q 26.375 40.375 22.484375 35.828125 
Q 18.609375 31.296875 18.609375 23.390625 
Q 18.609375 15.53125 22.484375 10.953125 
Q 26.375 6.390625 33.015625 6.390625 
Q 39.65625 6.390625 43.53125 10.953125 
Q 47.40625 15.53125 47.40625 23.390625 
Q 47.40625 31.296875 43.53125 35.828125 
Q 39.65625 40.375 33.015625 40.375 
z
M 52.59375 71.296875 
L 52.59375 62.3125 
Q 48.875 64.0625 45.09375 64.984375 
Q 41.3125 65.921875 37.59375 65.921875 
Q 27.828125 65.921875 22.671875 59.328125 
Q 17.53125 52.734375 16.796875 39.40625 
Q 19.671875 43.65625 24.015625 45.921875 
Q 28.375 48.1875 33.59375 48.1875 
Q 44.578125 48.1875 50.953125 41.515625 
Q 57.328125 34.859375 57.328125 23.390625 
Q 57.328125 12.15625 50.6875 5.359375 
Q 44.046875 -1.421875 33.015625 -1.421875 
Q 20.359375 -1.421875 13.671875 8.265625 
Q 6.984375 17.96875 6.984375 36.375 
Q 6.984375 53.65625 15.1875 63.9375 
Q 23.390625 74.21875 37.203125 74.21875 
Q 40.921875 74.21875 44.703125 73.484375 
Q 48.484375 72.75 52.59375 71.296875 
z
" id="DejaVuSans-54"/>
      </defs>
      <g transform="translate(72.018665 160.33374)rotate(-90)scale(0.08 -0.08)">
       <use xlink:href="#DejaVuSans-49"/>
       <use x="63.623047" xlink:href="#DejaVuSans-54"/>
       <use x="127.246094" xlink:href="#DejaVuSans-32"/>
       <use x="159.033203" xlink:href="#DejaVuSans-70"/>
       <use x="211.052734" xlink:href="#DejaVuSans-101"/>
       <use x="272.576172" xlink:href="#DejaVuSans-98"/>
      </g>
     </g>
    </g>
   </g>
   <g id="matplotlib.axis_2">
    <g id="ytick_1">
     <g id="line2d_11">
      <defs>
       <path d="M 0 0 
L -3.5 0 
" id="m071c314cfc" style="stroke:#000000;stroke-width:0.8;"/>
      </defs>
      <g>
       <use style="stroke:#000000;stroke-width:0.8;" x="47.09" xlink:href="#m071c314cfc" y="126.44874"/>
      </g>
     </g>
     <g id="text_11">
      <!-- 0 -->
      <defs>
       <path d="M 31.78125 66.40625 
Q 24.171875 66.40625 20.328125 58.90625 
Q 16.5 51.421875 16.5 36.375 
Q 16.5 21.390625 20.328125 13.890625 
Q 24.171875 6.390625 31.78125 6.390625 
Q 39.453125 6.390625 43.28125 13.890625 
Q 47.125 21.390625 47.125 36.375 
Q 47.125 51.421875 43.28125 58.90625 
Q 39.453125 66.40625 31.78125 66.40625 
z
M 31.78125 74.21875 
Q 44.046875 74.21875 50.515625 64.515625 
Q 56.984375 54.828125 56.984375 36.375 
Q 56.984375 17.96875 50.515625 8.265625 
Q 44.046875 -1.421875 31.78125 -1.421875 
Q 19.53125 -1.421875 13.0625 8.265625 
Q 6.59375 17.96875 6.59375 36.375 
Q 6.59375 54.828125 13.0625 64.515625 
Q 19.53125 74.21875 31.78125 74.21875 
z
" id="DejaVuSans-48"/>
      </defs>
      <g transform="translate(35 129.488115)scale(0.08 -0.08)">
       <use xlink:href="#DejaVuSans-48"/>
      </g>
     </g>
    </g>
    <g id="ytick_2">
     <g id="line2d_12">
      <g>
       <use style="stroke:#000000;stroke-width:0.8;" x="47.09" xlink:href="#m071c314cfc" y="96.022855"/>
      </g>
     </g>
     <g id="text_12">
      <!-- 500 -->
      <g transform="translate(24.82 99.06223)scale(0.08 -0.08)">
       <use xlink:href="#DejaVuSans-53"/>
       <use x="63.623047" xlink:href="#DejaVuSans-48"/>
       <use x="127.246094" xlink:href="#DejaVuSans-48"/>
      </g>
     </g>
    </g>
    <g id="ytick_3">
     <g id="line2d_13">
      <g>
       <use style="stroke:#000000;stroke-width:0.8;" x="47.09" xlink:href="#m071c314cfc" y="65.59697"/>
      </g>
     </g>
     <g id="text_13">
      <!-- 1000 -->
      <g transform="translate(19.73 68.636345)scale(0.08 -0.08)">
       <use xlink:href="#DejaVuSans-49"/>
       <use x="63.623047" xlink:href="#DejaVuSans-48"/>
       <use x="127.246094" xlink:href="#DejaVuSans-48"/>
       <use x="190.869141" xlink:href="#DejaVuSans-48"/>
      </g>
     </g>
    </g>
    <g id="ytick_4">
     <g id="line2d_14">
      <g>
       <use style="stroke:#000000;stroke-width:0.8;" x="47.09" xlink:href="#m071c314cfc" y="35.171085"/>
      </g>
     </g>
     <g id="text_14">
      <!-- 1500 -->
      <g transform="translate(19.73 38.21046)scale(0.08 -0.08)">
       <use xlink:href="#DejaVuSans-49"/>
       <use x="63.623047" xlink:href="#DejaVuSans-53"/>
       <use x="127.246094" xlink:href="#DejaVuSans-48"/>
       <use x="190.869141" xlink:href="#DejaVuSans-48"/>
      </g>
     </g>
    </g>
    <g id="text_15">
     <!-- Deaths per day -->
     <defs>
      <path d="M 19.671875 64.796875 
L 19.671875 8.109375 
L 31.59375 8.109375 
Q 46.6875 8.109375 53.6875 14.9375 
Q 60.6875 21.78125 60.6875 36.53125 
Q 60.6875 51.171875 53.6875 57.984375 
Q 46.6875 64.796875 31.59375 64.796875 
z
M 9.8125 72.90625 
L 30.078125 72.90625 
Q 51.265625 72.90625 61.171875 64.09375 
Q 71.09375 55.28125 71.09375 36.53125 
Q 71.09375 17.671875 61.125 8.828125 
Q 51.171875 0 30.078125 0 
L 9.8125 0 
z
" id="DejaVuSans-68"/>
      <path d="M 18.3125 70.21875 
L 18.3125 54.6875 
L 36.8125 54.6875 
L 36.8125 47.703125 
L 18.3125 47.703125 
L 18.3125 18.015625 
Q 18.3125 11.328125 20.140625 9.421875 
Q 21.96875 7.515625 27.59375 7.515625 
L 36.8125 7.515625 
L 36.8125 0 
L 27.59375 0 
Q 17.1875 0 13.234375 3.875 
Q 9.28125 7.765625 9.28125 18.015625 
L 9.28125 47.703125 
L 2.6875 47.703125 
L 2.6875 54.6875 
L 9.28125 54.6875 
L 9.28125 70.21875 
z
" id="DejaVuSans-116"/>
      <path d="M 54.890625 33.015625 
L 54.890625 0 
L 45.90625 0 
L 45.90625 32.71875 
Q 45.90625 40.484375 42.875 44.328125 
Q 39.84375 48.1875 33.796875 48.1875 
Q 26.515625 48.1875 22.3125 43.546875 
Q 18.109375 38.921875 18.109375 30.90625 
L 18.109375 0 
L 9.078125 0 
L 9.078125 75.984375 
L 18.109375 75.984375 
L 18.109375 46.1875 
Q 21.34375 51.125 25.703125 53.5625 
Q 30.078125 56 35.796875 56 
Q 45.21875 56 50.046875 50.171875 
Q 54.890625 44.34375 54.890625 33.015625 
z
" id="DejaVuSans-104"/>
      <path d="M 44.28125 53.078125 
L 44.28125 44.578125 
Q 40.484375 46.53125 36.375 47.5 
Q 32.28125 48.484375 27.875 48.484375 
Q 21.1875 48.484375 17.84375 46.4375 
Q 14.5 44.390625 14.5 40.28125 
Q 14.5 37.15625 16.890625 35.375 
Q 19.28125 33.59375 26.515625 31.984375 
L 29.59375 31.296875 
Q 39.15625 29.25 43.1875 25.515625 
Q 47.21875 21.78125 47.21875 15.09375 
Q 47.21875 7.46875 41.1875 3.015625 
Q 35.15625 -1.421875 24.609375 -1.421875 
Q 20.21875 -1.421875 15.453125 -0.5625 
Q 10.6875 0.296875 5.421875 2 
L 5.421875 11.28125 
Q 10.40625 8.6875 15.234375 7.390625 
Q 20.0625 6.109375 24.8125 6.109375 
Q 31.15625 6.109375 34.5625 8.28125 
Q 37.984375 10.453125 37.984375 14.40625 
Q 37.984375 18.0625 35.515625 20.015625 
Q 33.0625 21.96875 24.703125 23.78125 
L 21.578125 24.515625 
Q 13.234375 26.265625 9.515625 29.90625 
Q 5.8125 33.546875 5.8125 39.890625 
Q 5.8125 47.609375 11.28125 51.796875 
Q 16.75 56 26.8125 56 
Q 31.78125 56 36.171875 55.265625 
Q 40.578125 54.546875 44.28125 53.078125 
z
" id="DejaVuSans-115"/>
      <path d="M 45.40625 46.390625 
L 45.40625 75.984375 
L 54.390625 75.984375 
L 54.390625 0 
L 45.40625 0 
L 45.40625 8.203125 
Q 42.578125 3.328125 38.25 0.953125 
Q 33.9375 -1.421875 27.875 -1.421875 
Q 17.96875 -1.421875 11.734375 6.484375 
Q 5.515625 14.40625 5.515625 27.296875 
Q 5.515625 40.1875 11.734375 48.09375 
Q 17.96875 56 27.875 56 
Q 33.9375 56 38.25 53.625 
Q 42.578125 51.265625 45.40625 46.390625 
z
M 14.796875 27.296875 
Q 14.796875 17.390625 18.875 11.75 
Q 22.953125 6.109375 30.078125 6.109375 
Q 37.203125 6.109375 41.296875 11.75 
Q 45.40625 17.390625 45.40625 27.296875 
Q 45.40625 37.203125 41.296875 42.84375 
Q 37.203125 48.484375 30.078125 48.484375 
Q 22.953125 48.484375 18.875 42.84375 
Q 14.796875 37.203125 14.796875 27.296875 
z
" id="DejaVuSans-100"/>
      <path d="M 32.171875 -5.078125 
Q 28.375 -14.84375 24.75 -17.8125 
Q 21.140625 -20.796875 15.09375 -20.796875 
L 7.90625 -20.796875 
L 7.90625 -13.28125 
L 13.1875 -13.28125 
Q 16.890625 -13.28125 18.9375 -11.515625 
Q 21 -9.765625 23.484375 -3.21875 
L 25.09375 0.875 
L 2.984375 54.6875 
L 12.5 54.6875 
L 29.59375 11.921875 
L 46.6875 54.6875 
L 56.203125 54.6875 
z
" id="DejaVuSans-121"/>
     </defs>
     <g transform="translate(14.06625 99.70937)rotate(-90)scale(0.08 -0.08)">
      <use xlink:href="#DejaVuSans-68"/>
      <use x="77.001953" xlink:href="#DejaVuSans-101"/>
      <use x="138.525391" xlink:href="#DejaVuSans-97"/>
      <use x="199.804688" xlink:href="#DejaVuSans-116"/>
      <use x="239.013672" xlink:href="#DejaVuSans-104"/>
      <use x="302.392578" xlink:href="#DejaVuSans-115"/>
      <use x="354.492188" xlink:href="#DejaVuSans-32"/>
      <use x="386.279297" xlink:href="#DejaVuSans-112"/>
      <use x="449.755859" xlink:href="#DejaVuSans-101"/>
      <use x="511.279297" xlink:href="#DejaVuSans-114"/>
      <use x="552.392578" xlink:href="#DejaVuSans-32"/>
      <use x="584.179688" xlink:href="#DejaVuSans-100"/>
      <use x="647.65625" xlink:href="#DejaVuSans-97"/>
      <use x="708.935547" xlink:href="#DejaVuSans-121"/>
     </g>
    </g>
   </g>
   <g id="line2d_15">
    <path clip-path="url(#pe93b1ba5fb)" d="M 55.272942 126.44874 
L 57.349831 126.44874 
L 59.42672 126.44872 
L 61.503609 126.448653 
L 63.580498 126.448497 
L 65.657387 126.448208 
L 67.734276 126.447741 
L 69.811165 126.447061 
L 71.888054 126.446126 
L 73.964943 126.444888 
L 76.041832 126.443289 
L 78.118721 126.441254 
L 80.19561 126.438688 
L 82.272499 126.435472 
L 84.349387 126.431447 
L 86.426276 126.426411 
L 88.503165 126.420029 
L 90.580054 126.411928 
L 92.656943 126.401654 
L 94.733832 126.388594 
L 96.810721 126.371891 
L 98.88761 126.350769 
L 100.964499 126.323948 
L 103.041388 126.289839 
L 105.118277 126.246561 
L 107.195166 126.191532 
L 109.272055 126.121466 
L 111.348944 126.032326 
L 113.425833 125.918967 
L 115.502722 125.775094 
L 117.57961 125.591289 
L 119.656499 125.356168 
L 121.733388 125.047134 
L 123.810277 124.633025 
L 125.887166 124.052281 
L 127.964055 123.196702 
L 130.040944 121.986931 
L 132.117833 120.359836 
L 134.194722 118.291203 
L 136.271611 115.803714 
L 138.3485 112.94462 
L 140.425389 109.791346 
L 142.502278 106.424736 
L 144.579167 102.939198 
L 146.656056 99.430624 
L 148.732944 95.984566 
L 150.809833 92.680237 
L 152.886722 89.581674 
L 154.963611 86.7392 
L 157.0405 84.188626 
" style="fill:none;stroke:#0000ff;stroke-linecap:square;stroke-opacity:0.5;"/>
   </g>
   <g id="line2d_16">
    <path clip-path="url(#pe93b1ba5fb)" d="M 159.117389 81.954666 
L 161.194278 80.053758 
L 163.271167 78.49436 
L 165.348056 77.278977 
L 167.424945 76.403781 
L 169.501834 75.858858 
L 171.578723 75.628708 
L 173.655612 75.692977 
L 175.732501 76.027346 
L 177.80939 76.604497 
L 179.886278 77.395069 
L 181.963167 78.368562 
L 184.040056 79.494142 
L 186.116945 80.741332 
L 188.193834 82.080575 
L 190.270723 83.483663 
L 192.347612 84.924056 
L 194.424501 86.377073 
L 196.50139 87.819993 
L 198.578279 89.232068 
L 200.655168 90.594454 
" style="fill:none;stroke:#008000;stroke-linecap:square;stroke-opacity:0.5;"/>
   </g>
   <g id="line2d_17">
    <path clip-path="url(#pe93b1ba5fb)" d="M 125.887166 126.44874 
L 125.887166 11.52 
" style="fill:none;stroke:#0000ff;stroke-dasharray:1.85,0.8;stroke-dashoffset:0;stroke-width:0.5;"/>
   </g>
   <g id="line2d_18">
    <path clip-path="url(#pe93b1ba5fb)" d="M 123.810277 126.44874 
L 123.810277 11.52 
" style="fill:none;stroke:#0000ff;stroke-dasharray:1.85,0.8;stroke-dashoffset:0;stroke-width:0.5;"/>
   </g>
   <g id="line2d_19">
    <path clip-path="url(#pe93b1ba5fb)" d="M 125.887166 126.44874 
L 125.887166 11.52 
" style="fill:none;stroke:#0000ff;stroke-dasharray:1.85,0.8;stroke-dashoffset:0;stroke-width:0.5;"/>
   </g>
   <g id="line2d_20">
    <path clip-path="url(#pe93b1ba5fb)" d="M 115.502722 126.44874 
L 115.502722 11.52 
" style="fill:none;stroke:#0000ff;stroke-dasharray:1.85,0.8;stroke-dashoffset:0;stroke-width:0.5;"/>
   </g>
   <g id="line2d_21">
    <path clip-path="url(#pe93b1ba5fb)" d="M 132.117833 126.44874 
L 132.117833 11.52 
" style="fill:none;stroke:#0000ff;stroke-dasharray:1.85,0.8;stroke-dashoffset:0;stroke-width:0.5;"/>
   </g>
   <g id="patch_74">
    <path d="M 47.09 126.44874 
L 47.09 11.52 
" style="fill:none;stroke:#000000;stroke-linecap:square;stroke-linejoin:miter;stroke-width:0.8;"/>
   </g>
   <g id="patch_75">
    <path d="M 208.83811 126.44874 
L 208.83811 11.52 
" style="fill:none;stroke:#000000;stroke-linecap:square;stroke-linejoin:miter;stroke-width:0.8;"/>
   </g>
   <g id="patch_76">
    <path d="M 47.09 126.44874 
L 208.83811 126.44874 
" style="fill:none;stroke:#000000;stroke-linecap:square;stroke-linejoin:miter;stroke-width:0.8;"/>
   </g>
   <g id="patch_77">
    <path d="M 47.09 11.52 
L 208.83811 11.52 
" style="fill:none;stroke:#000000;stroke-linecap:square;stroke-linejoin:miter;stroke-width:0.8;"/>
   </g>
  </g>
  <g id="axes_2">
   <g id="matplotlib.axis_3">
    <g id="ytick_5">
     <g id="line2d_22">
      <defs>
       <path d="M 0 0 
L 3.5 0 
" id="mbf3b09229a" style="stroke:#000000;stroke-width:0.8;"/>
      </defs>
      <g>
       <use style="stroke:#000000;stroke-width:0.8;" x="208.83811" xlink:href="#mbf3b09229a" y="126.44874"/>
      </g>
     </g>
     <g id="text_16">
      <!-- 1.0 -->
      <defs>
       <path d="M 10.59375 35.5 
L 73.1875 35.5 
L 73.1875 27.203125 
L 10.59375 27.203125 
z
" id="DejaVuSans-8722"/>
       <path d="M 10.6875 12.40625 
L 21 12.40625 
L 21 0 
L 10.6875 0 
z
" id="DejaVuSans-46"/>
      </defs>
      <g transform="translate(215.83811 129.488115)scale(0.08 -0.08)">
       <use xlink:href="#DejaVuSans-8722"/>
       <use x="83.789062" xlink:href="#DejaVuSans-49"/>
       <use x="147.412109" xlink:href="#DejaVuSans-46"/>
       <use x="179.199219" xlink:href="#DejaVuSans-48"/>
      </g>
     </g>
    </g>
    <g id="ytick_6">
     <g id="line2d_23">
      <g>
       <use style="stroke:#000000;stroke-width:0.8;" x="208.83811" xlink:href="#mbf3b09229a" y="85.402762"/>
      </g>
     </g>
     <g id="text_17">
      <!-- 0.5 -->
      <g transform="translate(215.83811 88.442137)scale(0.08 -0.08)">
       <use xlink:href="#DejaVuSans-8722"/>
       <use x="83.789062" xlink:href="#DejaVuSans-48"/>
       <use x="147.412109" xlink:href="#DejaVuSans-46"/>
       <use x="179.199219" xlink:href="#DejaVuSans-53"/>
      </g>
     </g>
    </g>
    <g id="ytick_7">
     <g id="line2d_24">
      <g>
       <use style="stroke:#000000;stroke-width:0.8;" x="208.83811" xlink:href="#mbf3b09229a" y="44.356783"/>
      </g>
     </g>
     <g id="text_18">
      <!-- 0.0 -->
      <g transform="translate(215.83811 47.396158)scale(0.08 -0.08)">
       <use xlink:href="#DejaVuSans-48"/>
       <use x="63.623047" xlink:href="#DejaVuSans-46"/>
       <use x="95.410156" xlink:href="#DejaVuSans-48"/>
      </g>
     </g>
    </g>
    <g id="ytick_8">
     <g id="line2d_25">
      <g>
       <use style="stroke:#000000;stroke-width:0.8;" x="208.83811" xlink:href="#mbf3b09229a" y="11.52"/>
      </g>
     </g>
     <g id="text_19">
      <!-- 0.4 -->
      <defs>
       <path d="M 37.796875 64.3125 
L 12.890625 25.390625 
L 37.796875 25.390625 
z
M 35.203125 72.90625 
L 47.609375 72.90625 
L 47.609375 25.390625 
L 58.015625 25.390625 
L 58.015625 17.1875 
L 47.609375 17.1875 
L 47.609375 0 
L 37.796875 0 
L 37.796875 17.1875 
L 4.890625 17.1875 
L 4.890625 26.703125 
z
" id="DejaVuSans-52"/>
      </defs>
      <g transform="translate(215.83811 14.559375)scale(0.08 -0.08)">
       <use xlink:href="#DejaVuSans-48"/>
       <use x="63.623047" xlink:href="#DejaVuSans-46"/>
       <use x="95.410156" xlink:href="#DejaVuSans-52"/>
      </g>
     </g>
    </g>
    <g id="text_20">
     <!-- Relative change -->
     <defs>
      <path d="M 44.390625 34.1875 
Q 47.5625 33.109375 50.5625 29.59375 
Q 53.5625 26.078125 56.59375 19.921875 
L 66.609375 0 
L 56 0 
L 46.6875 18.703125 
Q 43.0625 26.03125 39.671875 28.421875 
Q 36.28125 30.8125 30.421875 30.8125 
L 19.671875 30.8125 
L 19.671875 0 
L 9.8125 0 
L 9.8125 72.90625 
L 32.078125 72.90625 
Q 44.578125 72.90625 50.734375 67.671875 
Q 56.890625 62.453125 56.890625 51.90625 
Q 56.890625 45.015625 53.6875 40.46875 
Q 50.484375 35.9375 44.390625 34.1875 
z
M 19.671875 64.796875 
L 19.671875 38.921875 
L 32.078125 38.921875 
Q 39.203125 38.921875 42.84375 42.21875 
Q 46.484375 45.515625 46.484375 51.90625 
Q 46.484375 58.296875 42.84375 61.546875 
Q 39.203125 64.796875 32.078125 64.796875 
z
" id="DejaVuSans-82"/>
      <path d="M 9.421875 75.984375 
L 18.40625 75.984375 
L 18.40625 0 
L 9.421875 0 
z
" id="DejaVuSans-108"/>
      <path d="M 9.421875 54.6875 
L 18.40625 54.6875 
L 18.40625 0 
L 9.421875 0 
z
M 9.421875 75.984375 
L 18.40625 75.984375 
L 18.40625 64.59375 
L 9.421875 64.59375 
z
" id="DejaVuSans-105"/>
      <path d="M 2.984375 54.6875 
L 12.5 54.6875 
L 29.59375 8.796875 
L 46.6875 54.6875 
L 56.203125 54.6875 
L 35.6875 0 
L 23.484375 0 
z
" id="DejaVuSans-118"/>
      <path d="M 48.78125 52.59375 
L 48.78125 44.1875 
Q 44.96875 46.296875 41.140625 47.34375 
Q 37.3125 48.390625 33.40625 48.390625 
Q 24.65625 48.390625 19.8125 42.84375 
Q 14.984375 37.3125 14.984375 27.296875 
Q 14.984375 17.28125 19.8125 11.734375 
Q 24.65625 6.203125 33.40625 6.203125 
Q 37.3125 6.203125 41.140625 7.25 
Q 44.96875 8.296875 48.78125 10.40625 
L 48.78125 2.09375 
Q 45.015625 0.34375 40.984375 -0.53125 
Q 36.96875 -1.421875 32.421875 -1.421875 
Q 20.0625 -1.421875 12.78125 6.34375 
Q 5.515625 14.109375 5.515625 27.296875 
Q 5.515625 40.671875 12.859375 48.328125 
Q 20.21875 56 33.015625 56 
Q 37.15625 56 41.109375 55.140625 
Q 45.0625 54.296875 48.78125 52.59375 
z
" id="DejaVuSans-99"/>
      <path d="M 54.890625 33.015625 
L 54.890625 0 
L 45.90625 0 
L 45.90625 32.71875 
Q 45.90625 40.484375 42.875 44.328125 
Q 39.84375 48.1875 33.796875 48.1875 
Q 26.515625 48.1875 22.3125 43.546875 
Q 18.109375 38.921875 18.109375 30.90625 
L 18.109375 0 
L 9.078125 0 
L 9.078125 54.6875 
L 18.109375 54.6875 
L 18.109375 46.1875 
Q 21.34375 51.125 25.703125 53.5625 
Q 30.078125 56 35.796875 56 
Q 45.21875 56 50.046875 50.171875 
Q 54.890625 44.34375 54.890625 33.015625 
z
" id="DejaVuSans-110"/>
      <path d="M 45.40625 27.984375 
Q 45.40625 37.75 41.375 43.109375 
Q 37.359375 48.484375 30.078125 48.484375 
Q 22.859375 48.484375 18.828125 43.109375 
Q 14.796875 37.75 14.796875 27.984375 
Q 14.796875 18.265625 18.828125 12.890625 
Q 22.859375 7.515625 30.078125 7.515625 
Q 37.359375 7.515625 41.375 12.890625 
Q 45.40625 18.265625 45.40625 27.984375 
z
M 54.390625 6.78125 
Q 54.390625 -7.171875 48.1875 -13.984375 
Q 42 -20.796875 29.203125 -20.796875 
Q 24.46875 -20.796875 20.265625 -20.09375 
Q 16.0625 -19.390625 12.109375 -17.921875 
L 12.109375 -9.1875 
Q 16.0625 -11.328125 19.921875 -12.34375 
Q 23.78125 -13.375 27.78125 -13.375 
Q 36.625 -13.375 41.015625 -8.765625 
Q 45.40625 -4.15625 45.40625 5.171875 
L 45.40625 9.625 
Q 42.625 4.78125 38.28125 2.390625 
Q 33.9375 0 27.875 0 
Q 17.828125 0 11.671875 7.65625 
Q 5.515625 15.328125 5.515625 27.984375 
Q 5.515625 40.671875 11.671875 48.328125 
Q 17.828125 56 27.875 56 
Q 33.9375 56 38.28125 53.609375 
Q 42.625 51.21875 45.40625 46.390625 
L 45.40625 54.6875 
L 54.390625 54.6875 
z
" id="DejaVuSans-103"/>
     </defs>
     <g transform="translate(245.34311 101.10812)rotate(-90)scale(0.08 -0.08)">
      <use xlink:href="#DejaVuSans-82"/>
      <use x="64.982422" xlink:href="#DejaVuSans-101"/>
      <use x="126.505859" xlink:href="#DejaVuSans-108"/>
      <use x="154.289062" xlink:href="#DejaVuSans-97"/>
      <use x="215.568359" xlink:href="#DejaVuSans-116"/>
      <use x="254.777344" xlink:href="#DejaVuSans-105"/>
      <use x="282.560547" xlink:href="#DejaVuSans-118"/>
      <use x="341.740234" xlink:href="#DejaVuSans-101"/>
      <use x="403.263672" xlink:href="#DejaVuSans-32"/>
      <use x="435.050781" xlink:href="#DejaVuSans-99"/>
      <use x="490.03125" xlink:href="#DejaVuSans-104"/>
      <use x="553.410156" xlink:href="#DejaVuSans-97"/>
      <use x="614.689453" xlink:href="#DejaVuSans-110"/>
      <use x="678.068359" xlink:href="#DejaVuSans-103"/>
      <use x="741.544922" xlink:href="#DejaVuSans-101"/>
     </g>
    </g>
   </g>
   <g id="line2d_26">
    <path clip-path="url(#pe93b1ba5fb)" d="M 55.272942 44.356783 
L 57.349831 44.356783 
L 59.42672 44.356783 
L 61.503609 44.356783 
L 63.580498 44.356783 
L 65.657387 44.356783 
L 67.734276 42.714944 
L 69.811165 42.714944 
L 71.888054 44.356783 
L 73.964943 45.998622 
L 76.041832 44.356783 
L 78.118721 43.535863 
L 80.19561 43.535863 
L 82.272499 42.714944 
L 84.349387 38.610346 
L 86.426276 40.252185 
L 88.503165 45.998622 
L 90.580054 44.356783 
L 92.656943 41.073105 
L 94.733832 45.177702 
L 96.810721 45.177702 
L 98.88761 42.714944 
L 100.964499 46.819542 
L 103.041388 46.819542 
L 105.118277 44.356783 
L 107.195166 45.177702 
L 109.272055 45.998622 
L 111.348944 45.177702 
L 113.425833 41.073105 
L 115.502722 45.177702 
L 117.57961 46.819542 
L 119.656499 48.461381 
L 121.733388 55.028737 
L 123.810277 71.447129 
L 125.887166 101.000233 
L 127.964055 115.776786 
L 130.040944 110.030349 
L 132.117833 112.493107 
L 134.194722 113.314027 
L 136.271611 116.597705 
L 138.3485 115.776786 
L 140.425389 119.881384 
L 142.502278 121.523223 
L 144.579167 114.134947 
L 146.656056 115.776786 
L 148.732944 115.776786 
L 150.809833 115.776786 
L 152.886722 116.597705 
L 154.963611 119.881384 
L 157.0405 121.523223 
" style="fill:none;stroke:#d62728;stroke-linecap:square;stroke-opacity:0.5;"/>
   </g>
   <g id="line2d_27">
    <path clip-path="url(#pe93b1ba5fb)" d="M 55.272942 44.356783 
L 57.349831 44.356783 
L 59.42672 44.356783 
L 61.503609 44.356783 
L 63.580498 44.356783 
L 65.657387 44.356783 
L 67.734276 45.177702 
L 69.811165 41.894024 
L 71.888054 43.535863 
L 73.964943 44.356783 
L 76.041832 43.535863 
L 78.118721 43.535863 
L 80.19561 42.714944 
L 82.272499 42.714944 
L 84.349387 36.147587 
L 86.426276 41.894024 
L 88.503165 45.177702 
L 90.580054 41.073105 
L 92.656943 37.789426 
L 94.733832 50.10322 
L 96.810721 41.073105 
L 98.88761 39.431265 
L 100.964499 43.535863 
L 103.041388 41.894024 
L 105.118277 41.073105 
L 107.195166 42.714944 
L 109.272055 42.714944 
L 111.348944 43.535863 
L 113.425833 38.610346 
L 115.502722 41.073105 
L 117.57961 29.580231 
L 119.656499 30.40115 
L 121.733388 22.191954 
L 123.810277 17.266437 
L 125.887166 50.924139 
L 127.964055 84.581842 
L 130.040944 71.447129 
L 132.117833 76.372646 
L 134.194722 73.909888 
L 136.271611 91.970118 
L 138.3485 76.372646 
L 140.425389 87.86552 
L 142.502278 104.283912 
L 144.579167 82.119083 
L 146.656056 85.402762 
L 148.732944 86.223681 
L 150.809833 87.044601 
L 152.886722 84.581842 
L 154.963611 91.149199 
L 157.0405 106.74667 
" style="fill:none;stroke:#9467bd;stroke-linecap:square;stroke-opacity:0.5;"/>
   </g>
   <g id="line2d_28">
    <path clip-path="url(#pe93b1ba5fb)" d="M 55.272942 44.356783 
L 57.349831 44.356783 
L 59.42672 44.356783 
L 61.503609 44.356783 
L 63.580498 44.356783 
L 65.657387 44.356783 
L 67.734276 37.789426 
L 69.811165 40.252185 
L 71.888054 41.894024 
L 73.964943 41.073105 
L 76.041832 42.714944 
L 78.118721 40.252185 
L 80.19561 39.431265 
L 82.272499 32.863909 
L 84.349387 35.326668 
L 86.426276 41.073105 
L 88.503165 41.894024 
L 90.580054 43.535863 
L 92.656943 39.431265 
L 94.733832 42.714944 
L 96.810721 39.431265 
L 98.88761 40.252185 
L 100.964499 46.819542 
L 103.041388 43.535863 
L 105.118277 42.714944 
L 107.195166 44.356783 
L 109.272055 44.356783 
L 111.348944 41.073105 
L 113.425833 37.789426 
L 115.502722 44.356783 
L 117.57961 45.177702 
L 119.656499 51.745059 
L 121.733388 57.491496 
L 123.810277 70.626209 
L 125.887166 87.044601 
L 127.964055 102.642073 
L 130.040944 102.642073 
L 132.117833 105.104831 
L 134.194722 106.74667 
L 136.271611 110.030349 
L 138.3485 110.030349 
L 140.425389 113.314027 
L 142.502278 115.776786 
L 144.579167 110.851268 
L 146.656056 110.851268 
L 148.732944 111.672188 
L 150.809833 111.672188 
L 152.886722 112.493107 
L 154.963611 114.955866 
L 157.0405 116.597705 
" style="fill:none;stroke:#e377c2;stroke-linecap:square;stroke-opacity:0.5;"/>
   </g>
   <g id="line2d_29">
    <path clip-path="url(#pe93b1ba5fb)" d="M 55.272942 44.356783 
L 57.349831 44.356783 
L 59.42672 44.356783 
L 61.503609 44.356783 
L 63.580498 44.356783 
L 65.657387 44.356783 
L 67.734276 44.356783 
L 69.811165 45.177702 
L 71.888054 41.894024 
L 73.964943 41.894024 
L 76.041832 41.894024 
L 78.118721 41.894024 
L 80.19561 42.714944 
L 82.272499 42.714944 
L 84.349387 43.535863 
L 86.426276 50.10322 
L 88.503165 49.2823 
L 90.580054 44.356783 
L 92.656943 43.535863 
L 94.733832 53.386898 
L 96.810721 45.177702 
L 98.88761 43.535863 
L 100.964499 46.819542 
L 103.041388 41.894024 
L 105.118277 41.894024 
L 107.195166 42.714944 
L 109.272055 45.177702 
L 111.348944 43.535863 
L 113.425833 43.535863 
L 115.502722 41.894024 
L 117.57961 42.714944 
L 119.656499 45.998622 
L 121.733388 48.461381 
L 123.810277 58.312416 
L 125.887166 69.80529 
L 127.964055 83.760922 
L 130.040944 87.044601 
L 132.117833 92.791038 
L 134.194722 93.611957 
L 136.271611 102.642073 
L 138.3485 98.537475 
L 140.425389 96.074716 
L 142.502278 97.716555 
L 144.579167 97.716555 
L 146.656056 99.358394 
L 148.732944 99.358394 
L 150.809833 100.179314 
L 152.886722 100.179314 
L 154.963611 96.895636 
L 157.0405 96.895636 
" style="fill:none;stroke:#bcbd22;stroke-linecap:square;stroke-opacity:0.5;"/>
   </g>
   <g id="line2d_30">
    <path clip-path="url(#pe93b1ba5fb)" d="M 55.272942 44.356783 
L 57.349831 44.356783 
L 59.42672 44.356783 
L 61.503609 44.356783 
L 63.580498 44.356783 
L 65.657387 44.356783 
L 67.734276 45.998622 
L 69.811165 45.998622 
L 71.888054 45.177702 
L 73.964943 44.356783 
L 76.041832 45.177702 
L 78.118721 45.177702 
L 80.19561 45.998622 
L 82.272499 45.998622 
L 84.349387 46.819542 
L 86.426276 44.356783 
L 88.503165 43.535863 
L 90.580054 44.356783 
L 92.656943 45.998622 
L 94.733832 44.356783 
L 96.810721 45.177702 
L 98.88761 45.998622 
L 100.964499 43.535863 
L 103.041388 44.356783 
L 105.118277 44.356783 
L 107.195166 44.356783 
L 109.272055 44.356783 
L 111.348944 45.177702 
L 113.425833 45.998622 
L 115.502722 45.177702 
L 117.57961 44.356783 
L 119.656499 43.535863 
L 121.733388 41.894024 
L 123.810277 37.789426 
L 125.887166 32.863909 
L 127.964055 30.40115 
L 130.040944 25.475633 
L 132.117833 23.833794 
L 134.194722 23.012874 
L 136.271611 18.908276 
L 138.3485 18.087357 
L 140.425389 23.012874 
L 142.502278 26.296552 
L 144.579167 21.371035 
L 146.656056 20.550115 
L 148.732944 19.729196 
L 150.809833 19.729196 
L 152.886722 17.266437 
L 154.963611 23.012874 
L 157.0405 26.296552 
" style="fill:none;stroke:#17becf;stroke-linecap:square;stroke-opacity:0.5;"/>
   </g>
   <g id="patch_78">
    <path d="M 47.09 126.44874 
L 47.09 11.52 
" style="fill:none;stroke:#000000;stroke-linecap:square;stroke-linejoin:miter;stroke-width:0.8;"/>
   </g>
   <g id="patch_79">
    <path d="M 208.83811 126.44874 
L 208.83811 11.52 
" style="fill:none;stroke:#000000;stroke-linecap:square;stroke-linejoin:miter;stroke-width:0.8;"/>
   </g>
   <g id="patch_80">
    <path d="M 47.09 126.44874 
L 208.83811 126.44874 
" style="fill:none;stroke:#000000;stroke-linecap:square;stroke-linejoin:miter;stroke-width:0.8;"/>
   </g>
   <g id="patch_81">
    <path d="M 47.09 11.52 
L 208.83811 11.52 
" style="fill:none;stroke:#000000;stroke-linecap:square;stroke-linejoin:miter;stroke-width:0.8;"/>
   </g>
  </g>
 </g>
 <defs>
  <clipPath id="pe93b1ba5fb">
   <rect height="114.92874" width="161.74811" x="47.09" y="11.52"/>
  </clipPath>
 </defs>
</svg>
