<?xml version="1.0" encoding="utf-8" standalone="no"?>
<!DOCTYPE svg PUBLIC "-//W3C//DTD SVG 1.1//EN"
  "http://www.w3.org/Graphics/SVG/1.1/DTD/svg11.dtd">
<!-- Created with matplotlib (https://matplotlib.org/) -->
<svg height="170.07874pt" version="1.1" viewBox="0 0 255.11811 170.07874" width="255.11811pt" xmlns="http://www.w3.org/2000/svg" xmlns:xlink="http://www.w3.org/1999/xlink">
 <defs>
  <style type="text/css">
*{stroke-linecap:butt;stroke-linejoin:round;}
  </style>
 </defs>
 <g id="figure_1">
  <g id="patch_1">
   <path d="M 0 170.07874 
L 255.11811 170.07874 
L 255.11811 0 
L 0 0 
z
" style="fill:#ffffff;"/>
  </g>
  <g id="axes_1">
   <g id="patch_2">
    <path d="M 39.62 126.44874 
L 208.83811 126.44874 
L 208.83811 17.4 
L 39.62 17.4 
z
" style="fill:#ffffff;"/>
   </g>
   <g id="PolyCollection_1">
    <defs>
     <path d="M 48.307426 -43.634356 
L 48.307426 -43.630314 
L 50.79666 -43.630314 
L 53.285893 -43.630314 
L 55.775127 -43.630314 
L 58.264361 -43.630314 
L 60.753595 -43.630314 
L 63.242828 -43.630684 
L 65.732062 -43.631117 
L 68.221296 -43.631145 
L 70.71053 -43.631631 
L 73.199763 -43.63203 
L 75.688997 -43.632928 
L 78.178231 -43.633098 
L 80.667465 -43.634582 
L 83.156698 -43.635894 
L 85.645932 -43.636854 
L 88.135166 -43.640091 
L 90.6244 -43.642259 
L 93.113633 -43.647677 
L 95.602867 -43.648128 
L 98.092101 -43.65487 
L 100.581335 -43.662171 
L 103.070568 -43.674052 
L 105.559802 -43.696259 
L 108.049036 -43.704981 
L 110.53827 -43.72815 
L 113.027503 -43.713658 
L 115.516737 -43.750554 
L 118.005971 -43.756447 
L 120.495204 -43.760225 
L 122.984438 -43.78508 
L 125.473672 -43.786117 
L 127.962906 -43.812575 
L 130.452139 -43.80174 
L 132.941373 -43.822103 
L 135.430607 -43.845569 
L 137.919841 -43.949304 
L 140.409074 -43.940126 
L 142.898308 -43.936339 
L 145.387542 -43.993281 
L 147.876776 -43.944629 
L 147.876776 -46.106256 
L 147.876776 -46.106256 
L 145.387542 -46.048496 
L 142.898308 -45.4808 
L 140.409074 -45.253192 
L 137.919841 -45.088657 
L 135.430607 -44.593845 
L 132.941373 -44.408243 
L 130.452139 -44.273535 
L 127.962906 -44.22029 
L 125.473672 -44.097613 
L 122.984438 -44.050902 
L 120.495204 -43.95826 
L 118.005971 -43.924922 
L 115.516737 -43.893407 
L 113.027503 -43.804047 
L 110.53827 -43.835191 
L 108.049036 -43.780674 
L 105.559802 -43.767172 
L 103.070568 -43.718947 
L 100.581335 -43.697883 
L 98.092101 -43.68544 
L 95.602867 -43.673403 
L 93.113633 -43.67524 
L 90.6244 -43.663965 
L 88.135166 -43.660883 
L 85.645932 -43.653267 
L 83.156698 -43.652185 
L 80.667465 -43.649032 
L 78.178231 -43.644133 
L 75.688997 -43.644959 
L 73.199763 -43.641674 
L 70.71053 -43.640446 
L 68.221296 -43.638205 
L 65.732062 -43.638719 
L 63.242828 -43.635494 
L 60.753595 -43.634356 
L 58.264361 -43.634356 
L 55.775127 -43.634356 
L 53.285893 -43.634356 
L 50.79666 -43.634356 
L 48.307426 -43.634356 
z
" id="md0eb137018" style="stroke:#6495ed;stroke-opacity:0.4;"/>
    </defs>
    <g clip-path="url(#p7b6779a6d7)">
     <use style="fill:#6495ed;fill-opacity:0.4;stroke:#6495ed;stroke-opacity:0.4;" x="0" xlink:href="#md0eb137018" y="170.07874"/>
    </g>
   </g>
   <g id="PolyCollection_2">
    <defs>
     <path d="M 48.307426 -43.632009 
L 48.307426 -43.630877 
L 50.79666 -43.630877 
L 53.285893 -43.630877 
L 55.775127 -43.630877 
L 58.264361 -43.630877 
L 60.753595 -43.630877 
L 63.242828 -43.631534 
L 65.732062 -43.632544 
L 68.221296 -43.632457 
L 70.71053 -43.633358 
L 73.199763 -43.633976 
L 75.688997 -43.635464 
L 78.178231 -43.635442 
L 80.667465 -43.63788 
L 83.156698 -43.639721 
L 85.645932 -43.64077 
L 88.135166 -43.645355 
L 90.6244 -43.647718 
L 93.113633 -43.654656 
L 95.602867 -43.654433 
L 98.092101 -43.662486 
L 100.581335 -43.671001 
L 103.070568 -43.685341 
L 105.559802 -43.713891 
L 108.049036 -43.723702 
L 110.53827 -43.75484 
L 113.027503 -43.736296 
L 115.516737 -43.78645 
L 118.005971 -43.798058 
L 120.495204 -43.80824 
L 122.984438 -43.848583 
L 125.473672 -43.857002 
L 127.962906 -43.900154 
L 130.452139 -43.896525 
L 132.941373 -43.932623 
L 135.430607 -43.980848 
L 137.919841 -44.154003 
L 140.409074 -44.160914 
L 142.898308 -44.176264 
L 145.387542 -44.299286 
L 147.876776 -44.236903 
L 147.876776 -44.822231 
L 147.876776 -44.822231 
L 145.387542 -44.859406 
L 142.898308 -44.608282 
L 140.409074 -44.541248 
L 137.919841 -44.497635 
L 135.430607 -44.204684 
L 132.941373 -44.112088 
L 130.452139 -44.042095 
L 127.962906 -44.032506 
L 125.473672 -43.958847 
L 122.984438 -43.937093 
L 120.495204 -43.874449 
L 118.005971 -43.854412 
L 115.516737 -43.836037 
L 113.027503 -43.766943 
L 110.53827 -43.790683 
L 108.049036 -43.748984 
L 105.559802 -43.737115 
L 103.070568 -43.700738 
L 100.581335 -43.683291 
L 98.092101 -43.672891 
L 95.602867 -43.663097 
L 93.113633 -43.663896 
L 90.6244 -43.655024 
L 88.135166 -43.652347 
L 85.645932 -43.646172 
L 83.156698 -43.644946 
L 80.667465 -43.642484 
L 78.178231 -43.638908 
L 75.688997 -43.639174 
L 73.199763 -43.636922 
L 70.71053 -43.636064 
L 68.221296 -43.634595 
L 65.732062 -43.634879 
L 63.242828 -43.63297 
L 60.753595 -43.632009 
L 58.264361 -43.632009 
L 55.775127 -43.632009 
L 53.285893 -43.632009 
L 50.79666 -43.632009 
L 48.307426 -43.632009 
z
" id="md77b3301da" style="stroke:#6495ed;stroke-opacity:0.6;"/>
    </defs>
    <g clip-path="url(#p7b6779a6d7)">
     <use style="fill:#6495ed;fill-opacity:0.6;stroke:#6495ed;stroke-opacity:0.6;" x="0" xlink:href="#md77b3301da" y="170.07874"/>
    </g>
   </g>
   <g id="PolyCollection_3">
    <defs>
     <path d="M 147.876776 -46.106256 
L 147.876776 -43.944629 
L 150.366009 -43.973618 
L 152.855243 -44.001315 
L 155.344477 -44.026736 
L 157.833711 -44.0503 
L 160.322944 -44.074861 
L 162.812178 -44.100789 
L 165.301412 -44.125231 
L 167.790646 -44.149646 
L 170.279879 -44.1781 
L 172.769113 -44.214323 
L 175.258347 -44.249277 
L 177.747581 -44.284334 
L 180.236814 -44.321182 
L 182.726048 -44.362492 
L 185.215282 -44.399983 
L 187.704516 -44.435084 
L 190.193749 -44.473549 
L 192.682983 -44.516879 
L 195.172217 -44.564163 
L 197.661451 -44.61231 
L 200.150684 -44.666624 
L 200.150684 -152.67874 
L 200.150684 -152.67874 
L 197.661451 -134.875722 
L 195.172217 -120.23827 
L 192.682983 -107.707232 
L 190.193749 -97.476539 
L 187.704516 -88.628867 
L 185.215282 -81.199149 
L 182.726048 -74.963913 
L 180.236814 -69.634929 
L 177.747581 -65.295346 
L 175.258347 -61.70373 
L 172.769113 -58.742239 
L 170.279879 -56.309118 
L 167.790646 -54.30048 
L 165.301412 -52.544865 
L 162.812178 -50.983246 
L 160.322944 -49.765713 
L 157.833711 -48.774491 
L 155.344477 -47.955161 
L 152.855243 -47.256246 
L 150.366009 -46.654075 
L 147.876776 -46.106256 
z
" id="m633251709b" style="stroke:#228b22;stroke-opacity:0.4;"/>
    </defs>
    <g clip-path="url(#p7b6779a6d7)">
     <use style="fill:#228b22;fill-opacity:0.4;stroke:#228b22;stroke-opacity:0.4;" x="0" xlink:href="#m633251709b" y="170.07874"/>
    </g>
   </g>
   <g id="PolyCollection_4">
    <defs>
     <path d="M 147.876776 -44.822231 
L 147.876776 -44.236903 
L 150.366009 -44.317751 
L 152.855243 -44.395913 
L 155.344477 -44.47426 
L 157.833711 -44.557097 
L 160.322944 -44.647201 
L 162.812178 -44.741753 
L 165.301412 -44.847046 
L 167.790646 -44.961056 
L 170.279879 -45.087732 
L 172.769113 -45.227967 
L 175.258347 -45.382067 
L 177.747581 -45.542386 
L 180.236814 -45.721869 
L 182.726048 -45.92399 
L 185.215282 -46.133233 
L 187.704516 -46.375596 
L 190.193749 -46.63835 
L 192.682983 -46.916119 
L 195.172217 -47.227682 
L 197.661451 -47.571705 
L 200.150684 -47.940948 
L 200.150684 -62.595671 
L 200.150684 -62.595671 
L 197.661451 -60.266854 
L 195.172217 -58.221727 
L 192.682983 -56.417712 
L 190.193749 -54.895443 
L 187.704516 -53.545545 
L 185.215282 -52.321974 
L 182.726048 -51.257244 
L 180.236814 -50.332421 
L 177.747581 -49.520023 
L 175.258347 -48.806791 
L 172.769113 -48.177065 
L 170.279879 -47.628193 
L 167.790646 -47.139069 
L 165.301412 -46.710253 
L 162.812178 -46.34347 
L 160.322944 -46.011865 
L 157.833711 -45.726397 
L 155.344477 -45.465915 
L 152.855243 -45.2373 
L 150.366009 -45.025954 
L 147.876776 -44.822231 
z
" id="m9018226e6b" style="stroke:#228b22;stroke-opacity:0.6;"/>
    </defs>
    <g clip-path="url(#p7b6779a6d7)">
     <use style="fill:#228b22;fill-opacity:0.6;stroke:#228b22;stroke-opacity:0.6;" x="0" xlink:href="#m9018226e6b" y="170.07874"/>
    </g>
   </g>
   <g id="PathCollection_1">
    <defs>
     <path d="M -0.866025 1.732051 
L 0 0.866025 
L 0.866025 1.732051 
L 1.732051 0.866025 
L 0.866025 0 
L 1.732051 -0.866025 
L 0.866025 -1.732051 
L 0 -0.866025 
L -0.866025 -1.732051 
L -1.732051 -0.866025 
L -0.866025 0 
L -1.732051 0.866025 
z
" id="m4c1d22c552" style="stroke:#8a2be2;"/>
    </defs>
    <g clip-path="url(#p7b6779a6d7)">
     <use style="fill:#8a2be2;stroke:#8a2be2;" x="105.559802" xlink:href="#m4c1d22c552" y="28.304874"/>
    </g>
   </g>
   <g id="PathCollection_2">
    <defs>
     <path d="M 0 -1.732051 
L -0.38887 -0.535233 
L -1.647278 -0.535233 
L -0.629204 0.204441 
L -1.018074 1.401259 
L -0 0.661585 
L 1.018074 1.401259 
L 0.629204 0.204441 
L 1.647278 -0.535233 
L 0.38887 -0.535233 
z
" id="mf2d72c9004" style="stroke:#000000;"/>
    </defs>
    <g clip-path="url(#p7b6779a6d7)">
     <use style="stroke:#000000;" x="120.495204" xlink:href="#mf2d72c9004" y="28.304874"/>
    </g>
   </g>
   <g id="PathCollection_3">
    <defs>
     <path d="M 0 -1.732051 
L -1.647278 -0.535233 
L -1.018074 1.401259 
L 1.018074 1.401259 
L 1.647278 -0.535233 
z
" id="mc3e61bf162" style="stroke:#800000;"/>
    </defs>
    <g clip-path="url(#p7b6779a6d7)">
     <use style="fill:#800000;stroke:#800000;" x="115.516737" xlink:href="#mc3e61bf162" y="28.304874"/>
    </g>
   </g>
   <g id="PathCollection_4">
    <defs>
     <path d="M -0 2.44949 
L 1.469694 0 
L 0 -2.44949 
L -1.469694 -0 
z
" id="m9797c5c03b" style="stroke:#556b2f;"/>
    </defs>
    <g clip-path="url(#p7b6779a6d7)">
     <use style="fill:#556b2f;stroke:#556b2f;" x="100.581335" xlink:href="#m9797c5c03b" y="28.304874"/>
    </g>
   </g>
   <g id="patch_3">
    <path clip-path="url(#p7b6779a6d7)" d="M 47.311732 126.44874 
L 49.303119 126.44874 
L 49.303119 126.44874 
L 47.311732 126.44874 
z
" style="fill:#1f77b4;opacity:0.5;"/>
   </g>
   <g id="patch_4">
    <path clip-path="url(#p7b6779a6d7)" d="M 49.800966 126.44874 
L 51.792353 126.44874 
L 51.792353 126.44874 
L 49.800966 126.44874 
z
" style="fill:#1f77b4;opacity:0.5;"/>
   </g>
   <g id="patch_5">
    <path clip-path="url(#p7b6779a6d7)" d="M 52.2902 126.44874 
L 54.281587 126.44874 
L 54.281587 126.44874 
L 52.2902 126.44874 
z
" style="fill:#1f77b4;opacity:0.5;"/>
   </g>
   <g id="patch_6">
    <path clip-path="url(#p7b6779a6d7)" d="M 54.779434 126.44874 
L 56.770821 126.44874 
L 56.770821 126.44874 
L 54.779434 126.44874 
z
" style="fill:#1f77b4;opacity:0.5;"/>
   </g>
   <g id="patch_7">
    <path clip-path="url(#p7b6779a6d7)" d="M 57.268667 126.44874 
L 59.260054 126.44874 
L 59.260054 126.44874 
L 57.268667 126.44874 
z
" style="fill:#1f77b4;opacity:0.5;"/>
   </g>
   <g id="patch_8">
    <path clip-path="url(#p7b6779a6d7)" d="M 59.757901 126.44874 
L 61.749288 126.44874 
L 61.749288 126.44874 
L 59.757901 126.44874 
z
" style="fill:#1f77b4;opacity:0.5;"/>
   </g>
   <g id="patch_9">
    <path clip-path="url(#p7b6779a6d7)" d="M 62.247135 126.44874 
L 64.238522 126.44874 
L 64.238522 126.44874 
L 62.247135 126.44874 
z
" style="fill:#1f77b4;opacity:0.5;"/>
   </g>
   <g id="patch_10">
    <path clip-path="url(#p7b6779a6d7)" d="M 64.736369 126.44874 
L 66.727756 126.44874 
L 66.727756 126.44874 
L 64.736369 126.44874 
z
" style="fill:#1f77b4;opacity:0.5;"/>
   </g>
   <g id="patch_11">
    <path clip-path="url(#p7b6779a6d7)" d="M 67.225602 126.44874 
L 69.216989 126.44874 
L 69.216989 126.44874 
L 67.225602 126.44874 
z
" style="fill:#1f77b4;opacity:0.5;"/>
   </g>
   <g id="patch_12">
    <path clip-path="url(#p7b6779a6d7)" d="M 69.714836 126.44874 
L 71.706223 126.44874 
L 71.706223 126.448664 
L 69.714836 126.448664 
z
" style="fill:#1f77b4;opacity:0.5;"/>
   </g>
   <g id="patch_13">
    <path clip-path="url(#p7b6779a6d7)" d="M 72.20407 126.44874 
L 74.195457 126.44874 
L 74.195457 126.448357 
L 72.20407 126.448357 
z
" style="fill:#1f77b4;opacity:0.5;"/>
   </g>
   <g id="patch_14">
    <path clip-path="url(#p7b6779a6d7)" d="M 74.693304 126.44874 
L 76.684691 126.44874 
L 76.684691 126.448357 
L 74.693304 126.448357 
z
" style="fill:#1f77b4;opacity:0.5;"/>
   </g>
   <g id="patch_15">
    <path clip-path="url(#p7b6779a6d7)" d="M 77.182537 126.44874 
L 79.173924 126.44874 
L 79.173924 126.448664 
L 77.182537 126.448664 
z
" style="fill:#1f77b4;opacity:0.5;"/>
   </g>
   <g id="patch_16">
    <path clip-path="url(#p7b6779a6d7)" d="M 79.671771 126.44874 
L 81.663158 126.44874 
L 81.663158 126.448664 
L 79.671771 126.448664 
z
" style="fill:#1f77b4;opacity:0.5;"/>
   </g>
   <g id="patch_17">
    <path clip-path="url(#p7b6779a6d7)" d="M 82.161005 126.44874 
L 84.152392 126.44874 
L 84.152392 126.448664 
L 82.161005 126.448664 
z
" style="fill:#1f77b4;opacity:0.5;"/>
   </g>
   <g id="patch_18">
    <path clip-path="url(#p7b6779a6d7)" d="M 84.650239 126.44874 
L 86.641626 126.44874 
L 86.641626 126.44805 
L 84.650239 126.44805 
z
" style="fill:#1f77b4;opacity:0.5;"/>
   </g>
   <g id="patch_19">
    <path clip-path="url(#p7b6779a6d7)" d="M 87.139472 126.44874 
L 89.130859 126.44874 
L 89.130859 126.447897 
L 87.139472 126.447897 
z
" style="fill:#1f77b4;opacity:0.5;"/>
   </g>
   <g id="patch_20">
    <path clip-path="url(#p7b6779a6d7)" d="M 89.628706 126.44874 
L 91.620093 126.44874 
L 91.620093 126.446747 
L 89.628706 126.446747 
z
" style="fill:#1f77b4;opacity:0.5;"/>
   </g>
   <g id="patch_21">
    <path clip-path="url(#p7b6779a6d7)" d="M 92.11794 126.44874 
L 94.109327 126.44874 
L 94.109327 126.442915 
L 92.11794 126.442915 
z
" style="fill:#1f77b4;opacity:0.5;"/>
   </g>
   <g id="patch_22">
    <path clip-path="url(#p7b6779a6d7)" d="M 94.607174 126.44874 
L 96.598561 126.44874 
L 96.598561 126.446901 
L 94.607174 126.446901 
z
" style="fill:#1f77b4;opacity:0.5;"/>
   </g>
   <g id="patch_23">
    <path clip-path="url(#p7b6779a6d7)" d="M 97.096407 126.44874 
L 99.087794 126.44874 
L 99.087794 126.445521 
L 97.096407 126.445521 
z
" style="fill:#1f77b4;opacity:0.5;"/>
   </g>
   <g id="patch_24">
    <path clip-path="url(#p7b6779a6d7)" d="M 99.585641 126.44874 
L 101.577028 126.44874 
L 101.577028 126.445291 
L 99.585641 126.445291 
z
" style="fill:#1f77b4;opacity:0.5;"/>
   </g>
   <g id="patch_25">
    <path clip-path="url(#p7b6779a6d7)" d="M 102.074875 126.44874 
L 104.066262 126.44874 
L 104.066262 126.442762 
L 102.074875 126.442762 
z
" style="fill:#1f77b4;opacity:0.5;"/>
   </g>
   <g id="patch_26">
    <path clip-path="url(#p7b6779a6d7)" d="M 104.564109 126.44874 
L 106.555496 126.44874 
L 106.555496 126.438317 
L 104.564109 126.438317 
z
" style="fill:#1f77b4;opacity:0.5;"/>
   </g>
   <g id="patch_27">
    <path clip-path="url(#p7b6779a6d7)" d="M 107.053342 126.44874 
L 109.044729 126.44874 
L 109.044729 126.436631 
L 107.053342 126.436631 
z
" style="fill:#1f77b4;opacity:0.5;"/>
   </g>
   <g id="patch_28">
    <path clip-path="url(#p7b6779a6d7)" d="M 109.542576 126.44874 
L 111.533963 126.44874 
L 111.533963 126.436861 
L 109.542576 126.436861 
z
" style="fill:#1f77b4;opacity:0.5;"/>
   </g>
   <g id="patch_29">
    <path clip-path="url(#p7b6779a6d7)" d="M 112.03181 126.44874 
L 114.023197 126.44874 
L 114.023197 126.43732 
L 112.03181 126.43732 
z
" style="fill:#1f77b4;opacity:0.5;"/>
   </g>
   <g id="patch_30">
    <path clip-path="url(#p7b6779a6d7)" d="M 114.521043 126.44874 
L 116.51243 126.44874 
L 116.51243 126.440463 
L 114.521043 126.440463 
z
" style="fill:#1f77b4;opacity:0.5;"/>
   </g>
   <g id="patch_31">
    <path clip-path="url(#p7b6779a6d7)" d="M 117.010277 126.44874 
L 119.001664 126.44874 
L 119.001664 126.441919 
L 117.010277 126.441919 
z
" style="fill:#1f77b4;opacity:0.5;"/>
   </g>
   <g id="patch_32">
    <path clip-path="url(#p7b6779a6d7)" d="M 119.499511 126.44874 
L 121.490898 126.44874 
L 121.490898 126.445215 
L 119.499511 126.445215 
z
" style="fill:#1f77b4;opacity:0.5;"/>
   </g>
   <g id="patch_33">
    <path clip-path="url(#p7b6779a6d7)" d="M 121.988745 126.44874 
L 123.980132 126.44874 
L 123.980132 126.43847 
L 121.988745 126.43847 
z
" style="fill:#1f77b4;opacity:0.5;"/>
   </g>
   <g id="patch_34">
    <path clip-path="url(#p7b6779a6d7)" d="M 124.477978 126.44874 
L 126.469365 126.44874 
L 126.469365 126.43939 
L 124.477978 126.43939 
z
" style="fill:#1f77b4;opacity:0.5;"/>
   </g>
   <g id="patch_35">
    <path clip-path="url(#p7b6779a6d7)" d="M 126.967212 126.44874 
L 128.958599 126.44874 
L 128.958599 126.433412 
L 126.967212 126.433412 
z
" style="fill:#1f77b4;opacity:0.5;"/>
   </g>
   <g id="patch_36">
    <path clip-path="url(#p7b6779a6d7)" d="M 129.456446 126.44874 
L 131.447833 126.44874 
L 131.447833 126.439313 
L 129.456446 126.439313 
z
" style="fill:#1f77b4;opacity:0.5;"/>
   </g>
   <g id="patch_37">
    <path clip-path="url(#p7b6779a6d7)" d="M 131.94568 126.44874 
L 133.937067 126.44874 
L 133.937067 126.436477 
L 131.94568 126.436477 
z
" style="fill:#1f77b4;opacity:0.5;"/>
   </g>
   <g id="patch_38">
    <path clip-path="url(#p7b6779a6d7)" d="M 134.434913 126.44874 
L 136.4263 126.44874 
L 136.4263 126.440309 
L 134.434913 126.440309 
z
" style="fill:#1f77b4;opacity:0.5;"/>
   </g>
   <g id="patch_39">
    <path clip-path="url(#p7b6779a6d7)" d="M 136.924147 126.44874 
L 138.915534 126.44874 
L 138.915534 126.42912 
L 136.924147 126.42912 
z
" style="fill:#1f77b4;opacity:0.5;"/>
   </g>
   <g id="patch_40">
    <path clip-path="url(#p7b6779a6d7)" d="M 139.413381 126.44874 
L 141.404768 126.44874 
L 141.404768 126.430499 
L 139.413381 126.430499 
z
" style="fill:#1f77b4;opacity:0.5;"/>
   </g>
   <g id="patch_41">
    <path clip-path="url(#p7b6779a6d7)" d="M 141.902615 126.44874 
L 143.894002 126.44874 
L 143.894002 126.426054 
L 141.902615 126.426054 
z
" style="fill:#1f77b4;opacity:0.5;"/>
   </g>
   <g id="patch_42">
    <path clip-path="url(#p7b6779a6d7)" d="M 144.391848 126.44874 
L 146.383235 126.44874 
L 146.383235 126.430346 
L 144.391848 126.430346 
z
" style="fill:#1f77b4;opacity:0.5;"/>
   </g>
   <g id="patch_43">
    <path clip-path="url(#p7b6779a6d7)" d="M 146.881082 126.44874 
L 148.872469 126.44874 
L 148.872469 126.418006 
L 146.881082 126.418006 
z
" style="fill:#1f77b4;opacity:0.5;"/>
   </g>
   <g id="patch_44">
    <path clip-path="url(#p7b6779a6d7)" d="M 149.370316 126.44874 
L 151.361703 126.44874 
L 151.361703 126.42935 
L 149.370316 126.42935 
z
" style="fill:#1f77b4;opacity:0.5;"/>
   </g>
   <g id="patch_45">
    <path clip-path="url(#p7b6779a6d7)" d="M 151.85955 126.44874 
L 153.850937 126.44874 
L 153.850937 126.423601 
L 151.85955 126.423601 
z
" style="fill:#1f77b4;opacity:0.5;"/>
   </g>
   <g id="patch_46">
    <path clip-path="url(#p7b6779a6d7)" d="M 154.348783 126.44874 
L 156.34017 126.44874 
L 156.34017 126.417547 
L 154.348783 126.417547 
z
" style="fill:#1f77b4;opacity:0.5;"/>
   </g>
   <g id="patch_47">
    <path clip-path="url(#p7b6779a6d7)" d="M 156.838017 126.44874 
L 158.829404 126.44874 
L 158.829404 126.409499 
L 156.838017 126.409499 
z
" style="fill:#1f77b4;opacity:0.5;"/>
   </g>
   <g id="patch_48">
    <path clip-path="url(#p7b6779a6d7)" d="M 159.327251 126.44874 
L 161.318638 126.44874 
L 161.318638 126.408963 
L 159.327251 126.408963 
z
" style="fill:#1f77b4;opacity:0.5;"/>
   </g>
   <g id="patch_49">
    <path clip-path="url(#p7b6779a6d7)" d="M 161.816485 126.44874 
L 163.807872 126.44874 
L 163.807872 126.401835 
L 161.816485 126.401835 
z
" style="fill:#1f77b4;opacity:0.5;"/>
   </g>
   <g id="patch_50">
    <path clip-path="url(#p7b6779a6d7)" d="M 164.305718 126.44874 
L 166.297105 126.44874 
L 166.297105 126.420766 
L 164.305718 126.420766 
z
" style="fill:#1f77b4;opacity:0.5;"/>
   </g>
   <g id="patch_51">
    <path clip-path="url(#p7b6779a6d7)" d="M 166.794952 126.44874 
L 168.786339 126.44874 
L 168.786339 126.419079 
L 166.794952 126.419079 
z
" style="fill:#1f77b4;opacity:0.5;"/>
   </g>
   <g id="patch_52">
    <path clip-path="url(#p7b6779a6d7)" d="M 169.284186 126.44874 
L 171.275573 126.44874 
L 171.275573 126.419922 
L 169.284186 126.419922 
z
" style="fill:#1f77b4;opacity:0.5;"/>
   </g>
   <g id="patch_53">
    <path clip-path="url(#p7b6779a6d7)" d="M 171.77342 126.44874 
L 173.764807 126.44874 
L 173.764807 126.411415 
L 171.77342 126.411415 
z
" style="fill:#1f77b4;opacity:0.5;"/>
   </g>
   <g id="patch_54">
    <path clip-path="url(#p7b6779a6d7)" d="M 174.262653 126.44874 
L 176.25404 126.44874 
L 176.25404 126.393097 
L 174.262653 126.393097 
z
" style="fill:#1f77b4;opacity:0.5;"/>
   </g>
   <g id="patch_55">
    <path clip-path="url(#p7b6779a6d7)" d="M 176.751887 126.44874 
L 178.743274 126.44874 
L 178.743274 126.393404 
L 176.751887 126.393404 
z
" style="fill:#1f77b4;opacity:0.5;"/>
   </g>
   <g id="patch_56">
    <path clip-path="url(#p7b6779a6d7)" d="M 179.241121 126.44874 
L 181.232508 126.44874 
L 181.232508 126.407046 
L 179.241121 126.407046 
z
" style="fill:#1f77b4;opacity:0.5;"/>
   </g>
   <g id="patch_57">
    <path clip-path="url(#p7b6779a6d7)" d="M 181.730355 126.44874 
L 183.721742 126.44874 
L 183.721742 126.413025 
L 181.730355 126.413025 
z
" style="fill:#1f77b4;opacity:0.5;"/>
   </g>
   <g id="patch_58">
    <path clip-path="url(#p7b6779a6d7)" d="M 184.219588 126.44874 
L 186.210975 126.44874 
L 186.210975 126.423295 
L 184.219588 126.423295 
z
" style="fill:#1f77b4;opacity:0.5;"/>
   </g>
   <g id="patch_59">
    <path clip-path="url(#p7b6779a6d7)" d="M 186.708822 126.44874 
L 188.700209 126.44874 
L 188.700209 126.413101 
L 186.708822 126.413101 
z
" style="fill:#1f77b4;opacity:0.5;"/>
   </g>
   <g id="patch_60">
    <path clip-path="url(#p7b6779a6d7)" d="M 189.198056 126.44874 
L 191.189443 126.44874 
L 191.189443 126.410649 
L 189.198056 126.410649 
z
" style="fill:#1f77b4;opacity:0.5;"/>
   </g>
   <g id="patch_61">
    <path clip-path="url(#p7b6779a6d7)" d="M 191.68729 126.44874 
L 193.678677 126.44874 
L 193.678677 126.411798 
L 191.68729 126.411798 
z
" style="fill:#1f77b4;opacity:0.5;"/>
   </g>
   <g id="patch_62">
    <path clip-path="url(#p7b6779a6d7)" d="M 194.176523 126.44874 
L 196.16791 126.44874 
L 196.16791 126.401758 
L 194.176523 126.401758 
z
" style="fill:#1f77b4;opacity:0.5;"/>
   </g>
   <g id="patch_63">
    <path clip-path="url(#p7b6779a6d7)" d="M 196.665757 126.44874 
L 198.657144 126.44874 
L 198.657144 126.39693 
L 196.665757 126.39693 
z
" style="fill:#1f77b4;opacity:0.5;"/>
   </g>
   <g id="patch_64">
    <path clip-path="url(#p7b6779a6d7)" d="M 199.154991 126.44874 
L 201.146378 126.44874 
L 201.146378 126.402295 
L 199.154991 126.402295 
z
" style="fill:#1f77b4;opacity:0.5;"/>
   </g>
   <g id="matplotlib.axis_1">
    <g id="xtick_1">
     <g id="line2d_1">
      <defs>
       <path d="M 0 0 
L 0 3.5 
" id="mc3ba747dab" style="stroke:#000000;stroke-width:0.8;"/>
      </defs>
      <g>
       <use style="stroke:#000000;stroke-width:0.8;" x="200.150684" xlink:href="#mc3ba747dab" y="126.44874"/>
      </g>
     </g>
     <g id="text_1">
      <!-- 19 Apr -->
      <defs>
       <path d="M 12.40625 8.296875 
L 28.515625 8.296875 
L 28.515625 63.921875 
L 10.984375 60.40625 
L 10.984375 69.390625 
L 28.421875 72.90625 
L 38.28125 72.90625 
L 38.28125 8.296875 
L 54.390625 8.296875 
L 54.390625 0 
L 12.40625 0 
z
" id="DejaVuSans-49"/>
       <path d="M 10.984375 1.515625 
L 10.984375 10.5 
Q 14.703125 8.734375 18.5 7.8125 
Q 22.3125 6.890625 25.984375 6.890625 
Q 35.75 6.890625 40.890625 13.453125 
Q 46.046875 20.015625 46.78125 33.40625 
Q 43.953125 29.203125 39.59375 26.953125 
Q 35.25 24.703125 29.984375 24.703125 
Q 19.046875 24.703125 12.671875 31.3125 
Q 6.296875 37.9375 6.296875 49.421875 
Q 6.296875 60.640625 12.9375 67.421875 
Q 19.578125 74.21875 30.609375 74.21875 
Q 43.265625 74.21875 49.921875 64.515625 
Q 56.59375 54.828125 56.59375 36.375 
Q 56.59375 19.140625 48.40625 8.859375 
Q 40.234375 -1.421875 26.421875 -1.421875 
Q 22.703125 -1.421875 18.890625 -0.6875 
Q 15.09375 0.046875 10.984375 1.515625 
z
M 30.609375 32.421875 
Q 37.25 32.421875 41.125 36.953125 
Q 45.015625 41.5 45.015625 49.421875 
Q 45.015625 57.28125 41.125 61.84375 
Q 37.25 66.40625 30.609375 66.40625 
Q 23.96875 66.40625 20.09375 61.84375 
Q 16.21875 57.28125 16.21875 49.421875 
Q 16.21875 41.5 20.09375 36.953125 
Q 23.96875 32.421875 30.609375 32.421875 
z
" id="DejaVuSans-57"/>
       <path id="DejaVuSans-32"/>
       <path d="M 34.1875 63.1875 
L 20.796875 26.90625 
L 47.609375 26.90625 
z
M 28.609375 72.90625 
L 39.796875 72.90625 
L 67.578125 0 
L 57.328125 0 
L 50.6875 18.703125 
L 17.828125 18.703125 
L 11.1875 0 
L 0.78125 0 
z
" id="DejaVuSans-65"/>
       <path d="M 18.109375 8.203125 
L 18.109375 -20.796875 
L 9.078125 -20.796875 
L 9.078125 54.6875 
L 18.109375 54.6875 
L 18.109375 46.390625 
Q 20.953125 51.265625 25.265625 53.625 
Q 29.59375 56 35.59375 56 
Q 45.5625 56 51.78125 48.09375 
Q 58.015625 40.1875 58.015625 27.296875 
Q 58.015625 14.40625 51.78125 6.484375 
Q 45.5625 -1.421875 35.59375 -1.421875 
Q 29.59375 -1.421875 25.265625 0.953125 
Q 20.953125 3.328125 18.109375 8.203125 
z
M 48.6875 27.296875 
Q 48.6875 37.203125 44.609375 42.84375 
Q 40.53125 48.484375 33.40625 48.484375 
Q 26.265625 48.484375 22.1875 42.84375 
Q 18.109375 37.203125 18.109375 27.296875 
Q 18.109375 17.390625 22.1875 11.75 
Q 26.265625 6.109375 33.40625 6.109375 
Q 40.53125 6.109375 44.609375 11.75 
Q 48.6875 17.390625 48.6875 27.296875 
z
" id="DejaVuSans-112"/>
       <path d="M 41.109375 46.296875 
Q 39.59375 47.171875 37.8125 47.578125 
Q 36.03125 48 33.890625 48 
Q 26.265625 48 22.1875 43.046875 
Q 18.109375 38.09375 18.109375 28.8125 
L 18.109375 0 
L 9.078125 0 
L 9.078125 54.6875 
L 18.109375 54.6875 
L 18.109375 46.1875 
Q 20.953125 51.171875 25.484375 53.578125 
Q 30.03125 56 36.53125 56 
Q 37.453125 56 38.578125 55.875 
Q 39.703125 55.765625 41.0625 55.515625 
z
" id="DejaVuSans-114"/>
      </defs>
      <g transform="translate(202.358184 160.01124)rotate(-90)scale(0.08 -0.08)">
       <use xlink:href="#DejaVuSans-49"/>
       <use x="63.623047" xlink:href="#DejaVuSans-57"/>
       <use x="127.246094" xlink:href="#DejaVuSans-32"/>
       <use x="159.033203" xlink:href="#DejaVuSans-65"/>
       <use x="227.441406" xlink:href="#DejaVuSans-112"/>
       <use x="290.917969" xlink:href="#DejaVuSans-114"/>
      </g>
     </g>
    </g>
    <g id="xtick_2">
     <g id="line2d_2">
      <g>
       <use style="stroke:#000000;stroke-width:0.8;" x="182.726048" xlink:href="#mc3ba747dab" y="126.44874"/>
      </g>
     </g>
     <g id="text_2">
      <!-- 12 Apr -->
      <defs>
       <path d="M 19.1875 8.296875 
L 53.609375 8.296875 
L 53.609375 0 
L 7.328125 0 
L 7.328125 8.296875 
Q 12.9375 14.109375 22.625 23.890625 
Q 32.328125 33.6875 34.8125 36.53125 
Q 39.546875 41.84375 41.421875 45.53125 
Q 43.3125 49.21875 43.3125 52.78125 
Q 43.3125 58.59375 39.234375 62.25 
Q 35.15625 65.921875 28.609375 65.921875 
Q 23.96875 65.921875 18.8125 64.3125 
Q 13.671875 62.703125 7.8125 59.421875 
L 7.8125 69.390625 
Q 13.765625 71.78125 18.9375 73 
Q 24.125 74.21875 28.421875 74.21875 
Q 39.75 74.21875 46.484375 68.546875 
Q 53.21875 62.890625 53.21875 53.421875 
Q 53.21875 48.921875 51.53125 44.890625 
Q 49.859375 40.875 45.40625 35.40625 
Q 44.1875 33.984375 37.640625 27.21875 
Q 31.109375 20.453125 19.1875 8.296875 
z
" id="DejaVuSans-50"/>
      </defs>
      <g transform="translate(184.933548 160.01124)rotate(-90)scale(0.08 -0.08)">
       <use xlink:href="#DejaVuSans-49"/>
       <use x="63.623047" xlink:href="#DejaVuSans-50"/>
       <use x="127.246094" xlink:href="#DejaVuSans-32"/>
       <use x="159.033203" xlink:href="#DejaVuSans-65"/>
       <use x="227.441406" xlink:href="#DejaVuSans-112"/>
       <use x="290.917969" xlink:href="#DejaVuSans-114"/>
      </g>
     </g>
    </g>
    <g id="xtick_3">
     <g id="line2d_3">
      <g>
       <use style="stroke:#000000;stroke-width:0.8;" x="165.301412" xlink:href="#mc3ba747dab" y="126.44874"/>
      </g>
     </g>
     <g id="text_3">
      <!-- 5 Apr -->
      <defs>
       <path d="M 10.796875 72.90625 
L 49.515625 72.90625 
L 49.515625 64.59375 
L 19.828125 64.59375 
L 19.828125 46.734375 
Q 21.96875 47.46875 24.109375 47.828125 
Q 26.265625 48.1875 28.421875 48.1875 
Q 40.625 48.1875 47.75 41.5 
Q 54.890625 34.8125 54.890625 23.390625 
Q 54.890625 11.625 47.5625 5.09375 
Q 40.234375 -1.421875 26.90625 -1.421875 
Q 22.3125 -1.421875 17.546875 -0.640625 
Q 12.796875 0.140625 7.71875 1.703125 
L 7.71875 11.625 
Q 12.109375 9.234375 16.796875 8.0625 
Q 21.484375 6.890625 26.703125 6.890625 
Q 35.15625 6.890625 40.078125 11.328125 
Q 45.015625 15.765625 45.015625 23.390625 
Q 45.015625 31 40.078125 35.4375 
Q 35.15625 39.890625 26.703125 39.890625 
Q 22.75 39.890625 18.8125 39.015625 
Q 14.890625 38.140625 10.796875 36.28125 
z
" id="DejaVuSans-53"/>
      </defs>
      <g transform="translate(167.508912 154.92124)rotate(-90)scale(0.08 -0.08)">
       <use xlink:href="#DejaVuSans-53"/>
       <use x="63.623047" xlink:href="#DejaVuSans-32"/>
       <use x="95.410156" xlink:href="#DejaVuSans-65"/>
       <use x="163.818359" xlink:href="#DejaVuSans-112"/>
       <use x="227.294922" xlink:href="#DejaVuSans-114"/>
      </g>
     </g>
    </g>
    <g id="xtick_4">
     <g id="line2d_4">
      <g>
       <use style="stroke:#000000;stroke-width:0.8;" x="147.876776" xlink:href="#mc3ba747dab" y="126.44874"/>
      </g>
     </g>
     <g id="text_4">
      <!-- 29 Mar -->
      <defs>
       <path d="M 9.8125 72.90625 
L 24.515625 72.90625 
L 43.109375 23.296875 
L 61.8125 72.90625 
L 76.515625 72.90625 
L 76.515625 0 
L 66.890625 0 
L 66.890625 64.015625 
L 48.09375 14.015625 
L 38.1875 14.015625 
L 19.390625 64.015625 
L 19.390625 0 
L 9.8125 0 
z
" id="DejaVuSans-77"/>
       <path d="M 34.28125 27.484375 
Q 23.390625 27.484375 19.1875 25 
Q 14.984375 22.515625 14.984375 16.5 
Q 14.984375 11.71875 18.140625 8.90625 
Q 21.296875 6.109375 26.703125 6.109375 
Q 34.1875 6.109375 38.703125 11.40625 
Q 43.21875 16.703125 43.21875 25.484375 
L 43.21875 27.484375 
z
M 52.203125 31.203125 
L 52.203125 0 
L 43.21875 0 
L 43.21875 8.296875 
Q 40.140625 3.328125 35.546875 0.953125 
Q 30.953125 -1.421875 24.3125 -1.421875 
Q 15.921875 -1.421875 10.953125 3.296875 
Q 6 8.015625 6 15.921875 
Q 6 25.140625 12.171875 29.828125 
Q 18.359375 34.515625 30.609375 34.515625 
L 43.21875 34.515625 
L 43.21875 35.40625 
Q 43.21875 41.609375 39.140625 45 
Q 35.0625 48.390625 27.6875 48.390625 
Q 23 48.390625 18.546875 47.265625 
Q 14.109375 46.140625 10.015625 43.890625 
L 10.015625 52.203125 
Q 14.9375 54.109375 19.578125 55.046875 
Q 24.21875 56 28.609375 56 
Q 40.484375 56 46.34375 49.84375 
Q 52.203125 43.703125 52.203125 31.203125 
z
" id="DejaVuSans-97"/>
      </defs>
      <g transform="translate(150.084276 161.26499)rotate(-90)scale(0.08 -0.08)">
       <use xlink:href="#DejaVuSans-50"/>
       <use x="63.623047" xlink:href="#DejaVuSans-57"/>
       <use x="127.246094" xlink:href="#DejaVuSans-32"/>
       <use x="159.033203" xlink:href="#DejaVuSans-77"/>
       <use x="245.3125" xlink:href="#DejaVuSans-97"/>
       <use x="306.591797" xlink:href="#DejaVuSans-114"/>
      </g>
     </g>
    </g>
    <g id="xtick_5">
     <g id="line2d_5">
      <g>
       <use style="stroke:#000000;stroke-width:0.8;" x="130.452139" xlink:href="#mc3ba747dab" y="126.44874"/>
      </g>
     </g>
     <g id="text_5">
      <!-- 22 Mar -->
      <g transform="translate(132.659639 161.26499)rotate(-90)scale(0.08 -0.08)">
       <use xlink:href="#DejaVuSans-50"/>
       <use x="63.623047" xlink:href="#DejaVuSans-50"/>
       <use x="127.246094" xlink:href="#DejaVuSans-32"/>
       <use x="159.033203" xlink:href="#DejaVuSans-77"/>
       <use x="245.3125" xlink:href="#DejaVuSans-97"/>
       <use x="306.591797" xlink:href="#DejaVuSans-114"/>
      </g>
     </g>
    </g>
    <g id="xtick_6">
     <g id="line2d_6">
      <g>
       <use style="stroke:#000000;stroke-width:0.8;" x="113.027503" xlink:href="#mc3ba747dab" y="126.44874"/>
      </g>
     </g>
     <g id="text_6">
      <!-- 15 Mar -->
      <g transform="translate(115.235003 161.26499)rotate(-90)scale(0.08 -0.08)">
       <use xlink:href="#DejaVuSans-49"/>
       <use x="63.623047" xlink:href="#DejaVuSans-53"/>
       <use x="127.246094" xlink:href="#DejaVuSans-32"/>
       <use x="159.033203" xlink:href="#DejaVuSans-77"/>
       <use x="245.3125" xlink:href="#DejaVuSans-97"/>
       <use x="306.591797" xlink:href="#DejaVuSans-114"/>
      </g>
     </g>
    </g>
    <g id="xtick_7">
     <g id="line2d_7">
      <g>
       <use style="stroke:#000000;stroke-width:0.8;" x="95.602867" xlink:href="#mc3ba747dab" y="126.44874"/>
      </g>
     </g>
     <g id="text_7">
      <!-- 8 Mar -->
      <defs>
       <path d="M 31.78125 34.625 
Q 24.75 34.625 20.71875 30.859375 
Q 16.703125 27.09375 16.703125 20.515625 
Q 16.703125 13.921875 20.71875 10.15625 
Q 24.75 6.390625 31.78125 6.390625 
Q 38.8125 6.390625 42.859375 10.171875 
Q 46.921875 13.96875 46.921875 20.515625 
Q 46.921875 27.09375 42.890625 30.859375 
Q 38.875 34.625 31.78125 34.625 
z
M 21.921875 38.8125 
Q 15.578125 40.375 12.03125 44.71875 
Q 8.5 49.078125 8.5 55.328125 
Q 8.5 64.0625 14.71875 69.140625 
Q 20.953125 74.21875 31.78125 74.21875 
Q 42.671875 74.21875 48.875 69.140625 
Q 55.078125 64.0625 55.078125 55.328125 
Q 55.078125 49.078125 51.53125 44.71875 
Q 48 40.375 41.703125 38.8125 
Q 48.828125 37.15625 52.796875 32.3125 
Q 56.78125 27.484375 56.78125 20.515625 
Q 56.78125 9.90625 50.3125 4.234375 
Q 43.84375 -1.421875 31.78125 -1.421875 
Q 19.734375 -1.421875 13.25 4.234375 
Q 6.78125 9.90625 6.78125 20.515625 
Q 6.78125 27.484375 10.78125 32.3125 
Q 14.796875 37.15625 21.921875 38.8125 
z
M 18.3125 54.390625 
Q 18.3125 48.734375 21.84375 45.5625 
Q 25.390625 42.390625 31.78125 42.390625 
Q 38.140625 42.390625 41.71875 45.5625 
Q 45.3125 48.734375 45.3125 54.390625 
Q 45.3125 60.0625 41.71875 63.234375 
Q 38.140625 66.40625 31.78125 66.40625 
Q 25.390625 66.40625 21.84375 63.234375 
Q 18.3125 60.0625 18.3125 54.390625 
z
" id="DejaVuSans-56"/>
      </defs>
      <g transform="translate(97.810367 156.17499)rotate(-90)scale(0.08 -0.08)">
       <use xlink:href="#DejaVuSans-56"/>
       <use x="63.623047" xlink:href="#DejaVuSans-32"/>
       <use x="95.410156" xlink:href="#DejaVuSans-77"/>
       <use x="181.689453" xlink:href="#DejaVuSans-97"/>
       <use x="242.96875" xlink:href="#DejaVuSans-114"/>
      </g>
     </g>
    </g>
    <g id="xtick_8">
     <g id="line2d_8">
      <g>
       <use style="stroke:#000000;stroke-width:0.8;" x="78.178231" xlink:href="#mc3ba747dab" y="126.44874"/>
      </g>
     </g>
     <g id="text_8">
      <!-- 1 Mar -->
      <g transform="translate(80.385731 156.17499)rotate(-90)scale(0.08 -0.08)">
       <use xlink:href="#DejaVuSans-49"/>
       <use x="63.623047" xlink:href="#DejaVuSans-32"/>
       <use x="95.410156" xlink:href="#DejaVuSans-77"/>
       <use x="181.689453" xlink:href="#DejaVuSans-97"/>
       <use x="242.96875" xlink:href="#DejaVuSans-114"/>
      </g>
     </g>
    </g>
    <g id="xtick_9">
     <g id="line2d_9">
      <g>
       <use style="stroke:#000000;stroke-width:0.8;" x="60.753595" xlink:href="#mc3ba747dab" y="126.44874"/>
      </g>
     </g>
     <g id="text_9">
      <!-- 23 Feb -->
      <defs>
       <path d="M 40.578125 39.3125 
Q 47.65625 37.796875 51.625 33 
Q 55.609375 28.21875 55.609375 21.1875 
Q 55.609375 10.40625 48.1875 4.484375 
Q 40.765625 -1.421875 27.09375 -1.421875 
Q 22.515625 -1.421875 17.65625 -0.515625 
Q 12.796875 0.390625 7.625 2.203125 
L 7.625 11.71875 
Q 11.71875 9.328125 16.59375 8.109375 
Q 21.484375 6.890625 26.8125 6.890625 
Q 36.078125 6.890625 40.9375 10.546875 
Q 45.796875 14.203125 45.796875 21.1875 
Q 45.796875 27.640625 41.28125 31.265625 
Q 36.765625 34.90625 28.71875 34.90625 
L 20.21875 34.90625 
L 20.21875 43.015625 
L 29.109375 43.015625 
Q 36.375 43.015625 40.234375 45.921875 
Q 44.09375 48.828125 44.09375 54.296875 
Q 44.09375 59.90625 40.109375 62.90625 
Q 36.140625 65.921875 28.71875 65.921875 
Q 24.65625 65.921875 20.015625 65.03125 
Q 15.375 64.15625 9.8125 62.3125 
L 9.8125 71.09375 
Q 15.4375 72.65625 20.34375 73.4375 
Q 25.25 74.21875 29.59375 74.21875 
Q 40.828125 74.21875 47.359375 69.109375 
Q 53.90625 64.015625 53.90625 55.328125 
Q 53.90625 49.265625 50.4375 45.09375 
Q 46.96875 40.921875 40.578125 39.3125 
z
" id="DejaVuSans-51"/>
       <path d="M 9.8125 72.90625 
L 51.703125 72.90625 
L 51.703125 64.59375 
L 19.671875 64.59375 
L 19.671875 43.109375 
L 48.578125 43.109375 
L 48.578125 34.8125 
L 19.671875 34.8125 
L 19.671875 0 
L 9.8125 0 
z
" id="DejaVuSans-70"/>
       <path d="M 56.203125 29.59375 
L 56.203125 25.203125 
L 14.890625 25.203125 
Q 15.484375 15.921875 20.484375 11.0625 
Q 25.484375 6.203125 34.421875 6.203125 
Q 39.59375 6.203125 44.453125 7.46875 
Q 49.3125 8.734375 54.109375 11.28125 
L 54.109375 2.78125 
Q 49.265625 0.734375 44.1875 -0.34375 
Q 39.109375 -1.421875 33.890625 -1.421875 
Q 20.796875 -1.421875 13.15625 6.1875 
Q 5.515625 13.8125 5.515625 26.8125 
Q 5.515625 40.234375 12.765625 48.109375 
Q 20.015625 56 32.328125 56 
Q 43.359375 56 49.78125 48.890625 
Q 56.203125 41.796875 56.203125 29.59375 
z
M 47.21875 32.234375 
Q 47.125 39.59375 43.09375 43.984375 
Q 39.0625 48.390625 32.421875 48.390625 
Q 24.90625 48.390625 20.390625 44.140625 
Q 15.875 39.890625 15.1875 32.171875 
z
" id="DejaVuSans-101"/>
       <path d="M 48.6875 27.296875 
Q 48.6875 37.203125 44.609375 42.84375 
Q 40.53125 48.484375 33.40625 48.484375 
Q 26.265625 48.484375 22.1875 42.84375 
Q 18.109375 37.203125 18.109375 27.296875 
Q 18.109375 17.390625 22.1875 11.75 
Q 26.265625 6.109375 33.40625 6.109375 
Q 40.53125 6.109375 44.609375 11.75 
Q 48.6875 17.390625 48.6875 27.296875 
z
M 18.109375 46.390625 
Q 20.953125 51.265625 25.265625 53.625 
Q 29.59375 56 35.59375 56 
Q 45.5625 56 51.78125 48.09375 
Q 58.015625 40.1875 58.015625 27.296875 
Q 58.015625 14.40625 51.78125 6.484375 
Q 45.5625 -1.421875 35.59375 -1.421875 
Q 29.59375 -1.421875 25.265625 0.953125 
Q 20.953125 3.328125 18.109375 8.203125 
L 18.109375 0 
L 9.078125 0 
L 9.078125 75.984375 
L 18.109375 75.984375 
z
" id="DejaVuSans-98"/>
      </defs>
      <g transform="translate(62.961095 160.33374)rotate(-90)scale(0.08 -0.08)">
       <use xlink:href="#DejaVuSans-50"/>
       <use x="63.623047" xlink:href="#DejaVuSans-51"/>
       <use x="127.246094" xlink:href="#DejaVuSans-32"/>
       <use x="159.033203" xlink:href="#DejaVuSans-70"/>
       <use x="211.052734" xlink:href="#DejaVuSans-101"/>
       <use x="272.576172" xlink:href="#DejaVuSans-98"/>
      </g>
     </g>
    </g>
   </g>
   <g id="matplotlib.axis_2">
    <g id="ytick_1">
     <g id="line2d_10">
      <defs>
       <path d="M 0 0 
L -3.5 0 
" id="mc9dd8e1552" style="stroke:#000000;stroke-width:0.8;"/>
      </defs>
      <g>
       <use style="stroke:#000000;stroke-width:0.8;" x="39.62" xlink:href="#mc9dd8e1552" y="126.44874"/>
      </g>
     </g>
     <g id="text_10">
      <!-- 0.00 -->
      <defs>
       <path d="M 31.78125 66.40625 
Q 24.171875 66.40625 20.328125 58.90625 
Q 16.5 51.421875 16.5 36.375 
Q 16.5 21.390625 20.328125 13.890625 
Q 24.171875 6.390625 31.78125 6.390625 
Q 39.453125 6.390625 43.28125 13.890625 
Q 47.125 21.390625 47.125 36.375 
Q 47.125 51.421875 43.28125 58.90625 
Q 39.453125 66.40625 31.78125 66.40625 
z
M 31.78125 74.21875 
Q 44.046875 74.21875 50.515625 64.515625 
Q 56.984375 54.828125 56.984375 36.375 
Q 56.984375 17.96875 50.515625 8.265625 
Q 44.046875 -1.421875 31.78125 -1.421875 
Q 19.53125 -1.421875 13.0625 8.265625 
Q 6.59375 17.96875 6.59375 36.375 
Q 6.59375 54.828125 13.0625 64.515625 
Q 19.53125 74.21875 31.78125 74.21875 
z
" id="DejaVuSans-48"/>
       <path d="M 10.6875 12.40625 
L 21 12.40625 
L 21 0 
L 10.6875 0 
z
" id="DejaVuSans-46"/>
      </defs>
      <g transform="translate(14.8075 129.488115)scale(0.08 -0.08)">
       <use xlink:href="#DejaVuSans-48"/>
       <use x="63.623047" xlink:href="#DejaVuSans-46"/>
       <use x="95.410156" xlink:href="#DejaVuSans-48"/>
       <use x="159.033203" xlink:href="#DejaVuSans-48"/>
      </g>
     </g>
    </g>
    <g id="ytick_2">
     <g id="line2d_11">
      <g>
       <use style="stroke:#000000;stroke-width:0.8;" x="39.62" xlink:href="#mc9dd8e1552" y="107.288043"/>
      </g>
     </g>
     <g id="text_11">
      <!-- 0.25 -->
      <g transform="translate(14.8075 110.327418)scale(0.08 -0.08)">
       <use xlink:href="#DejaVuSans-48"/>
       <use x="63.623047" xlink:href="#DejaVuSans-46"/>
       <use x="95.410156" xlink:href="#DejaVuSans-50"/>
       <use x="159.033203" xlink:href="#DejaVuSans-53"/>
      </g>
     </g>
    </g>
    <g id="ytick_3">
     <g id="line2d_12">
      <g>
       <use style="stroke:#000000;stroke-width:0.8;" x="39.62" xlink:href="#mc9dd8e1552" y="88.127345"/>
      </g>
     </g>
     <g id="text_12">
      <!-- 0.50 -->
      <g transform="translate(14.8075 91.16672)scale(0.08 -0.08)">
       <use xlink:href="#DejaVuSans-48"/>
       <use x="63.623047" xlink:href="#DejaVuSans-46"/>
       <use x="95.410156" xlink:href="#DejaVuSans-53"/>
       <use x="159.033203" xlink:href="#DejaVuSans-48"/>
      </g>
     </g>
    </g>
    <g id="ytick_4">
     <g id="line2d_13">
      <g>
       <use style="stroke:#000000;stroke-width:0.8;" x="39.62" xlink:href="#mc9dd8e1552" y="68.966647"/>
      </g>
     </g>
     <g id="text_13">
      <!-- 0.75 -->
      <defs>
       <path d="M 8.203125 72.90625 
L 55.078125 72.90625 
L 55.078125 68.703125 
L 28.609375 0 
L 18.3125 0 
L 43.21875 64.59375 
L 8.203125 64.59375 
z
" id="DejaVuSans-55"/>
      </defs>
      <g transform="translate(14.8075 72.006022)scale(0.08 -0.08)">
       <use xlink:href="#DejaVuSans-48"/>
       <use x="63.623047" xlink:href="#DejaVuSans-46"/>
       <use x="95.410156" xlink:href="#DejaVuSans-55"/>
       <use x="159.033203" xlink:href="#DejaVuSans-53"/>
      </g>
     </g>
    </g>
    <g id="ytick_5">
     <g id="line2d_14">
      <g>
       <use style="stroke:#000000;stroke-width:0.8;" x="39.62" xlink:href="#mc9dd8e1552" y="49.80595"/>
      </g>
     </g>
     <g id="text_14">
      <!-- 1.00 -->
      <g transform="translate(14.8075 52.845325)scale(0.08 -0.08)">
       <use xlink:href="#DejaVuSans-49"/>
       <use x="63.623047" xlink:href="#DejaVuSans-46"/>
       <use x="95.410156" xlink:href="#DejaVuSans-48"/>
       <use x="159.033203" xlink:href="#DejaVuSans-48"/>
      </g>
     </g>
    </g>
    <g id="ytick_6">
     <g id="line2d_15">
      <g>
       <use style="stroke:#000000;stroke-width:0.8;" x="39.62" xlink:href="#mc9dd8e1552" y="30.645252"/>
      </g>
     </g>
     <g id="text_15">
      <!-- 1.25 -->
      <g transform="translate(14.8075 33.684627)scale(0.08 -0.08)">
       <use xlink:href="#DejaVuSans-49"/>
       <use x="63.623047" xlink:href="#DejaVuSans-46"/>
       <use x="95.410156" xlink:href="#DejaVuSans-50"/>
       <use x="159.033203" xlink:href="#DejaVuSans-53"/>
      </g>
     </g>
    </g>
    <g id="text_16">
     <!-- Cases per day -->
     <defs>
      <path d="M 64.40625 67.28125 
L 64.40625 56.890625 
Q 59.421875 61.53125 53.78125 63.8125 
Q 48.140625 66.109375 41.796875 66.109375 
Q 29.296875 66.109375 22.65625 58.46875 
Q 16.015625 50.828125 16.015625 36.375 
Q 16.015625 21.96875 22.65625 14.328125 
Q 29.296875 6.6875 41.796875 6.6875 
Q 48.140625 6.6875 53.78125 8.984375 
Q 59.421875 11.28125 64.40625 15.921875 
L 64.40625 5.609375 
Q 59.234375 2.09375 53.4375 0.328125 
Q 47.65625 -1.421875 41.21875 -1.421875 
Q 24.65625 -1.421875 15.125 8.703125 
Q 5.609375 18.84375 5.609375 36.375 
Q 5.609375 53.953125 15.125 64.078125 
Q 24.65625 74.21875 41.21875 74.21875 
Q 47.75 74.21875 53.53125 72.484375 
Q 59.328125 70.75 64.40625 67.28125 
z
" id="DejaVuSans-67"/>
      <path d="M 44.28125 53.078125 
L 44.28125 44.578125 
Q 40.484375 46.53125 36.375 47.5 
Q 32.28125 48.484375 27.875 48.484375 
Q 21.1875 48.484375 17.84375 46.4375 
Q 14.5 44.390625 14.5 40.28125 
Q 14.5 37.15625 16.890625 35.375 
Q 19.28125 33.59375 26.515625 31.984375 
L 29.59375 31.296875 
Q 39.15625 29.25 43.1875 25.515625 
Q 47.21875 21.78125 47.21875 15.09375 
Q 47.21875 7.46875 41.1875 3.015625 
Q 35.15625 -1.421875 24.609375 -1.421875 
Q 20.21875 -1.421875 15.453125 -0.5625 
Q 10.6875 0.296875 5.421875 2 
L 5.421875 11.28125 
Q 10.40625 8.6875 15.234375 7.390625 
Q 20.0625 6.109375 24.8125 6.109375 
Q 31.15625 6.109375 34.5625 8.28125 
Q 37.984375 10.453125 37.984375 14.40625 
Q 37.984375 18.0625 35.515625 20.015625 
Q 33.0625 21.96875 24.703125 23.78125 
L 21.578125 24.515625 
Q 13.234375 26.265625 9.515625 29.90625 
Q 5.8125 33.546875 5.8125 39.890625 
Q 5.8125 47.609375 11.28125 51.796875 
Q 16.75 56 26.8125 56 
Q 31.78125 56 36.171875 55.265625 
Q 40.578125 54.546875 44.28125 53.078125 
z
" id="DejaVuSans-115"/>
      <path d="M 45.40625 46.390625 
L 45.40625 75.984375 
L 54.390625 75.984375 
L 54.390625 0 
L 45.40625 0 
L 45.40625 8.203125 
Q 42.578125 3.328125 38.25 0.953125 
Q 33.9375 -1.421875 27.875 -1.421875 
Q 17.96875 -1.421875 11.734375 6.484375 
Q 5.515625 14.40625 5.515625 27.296875 
Q 5.515625 40.1875 11.734375 48.09375 
Q 17.96875 56 27.875 56 
Q 33.9375 56 38.25 53.625 
Q 42.578125 51.265625 45.40625 46.390625 
z
M 14.796875 27.296875 
Q 14.796875 17.390625 18.875 11.75 
Q 22.953125 6.109375 30.078125 6.109375 
Q 37.203125 6.109375 41.296875 11.75 
Q 45.40625 17.390625 45.40625 27.296875 
Q 45.40625 37.203125 41.296875 42.84375 
Q 37.203125 48.484375 30.078125 48.484375 
Q 22.953125 48.484375 18.875 42.84375 
Q 14.796875 37.203125 14.796875 27.296875 
z
" id="DejaVuSans-100"/>
      <path d="M 32.171875 -5.078125 
Q 28.375 -14.84375 24.75 -17.8125 
Q 21.140625 -20.796875 15.09375 -20.796875 
L 7.90625 -20.796875 
L 7.90625 -13.28125 
L 13.1875 -13.28125 
Q 16.890625 -13.28125 18.9375 -11.515625 
Q 21 -9.765625 23.484375 -3.21875 
L 25.09375 0.875 
L 2.984375 54.6875 
L 12.5 54.6875 
L 29.59375 11.921875 
L 46.6875 54.6875 
L 56.203125 54.6875 
z
" id="DejaVuSans-121"/>
     </defs>
     <g transform="translate(9.14375 100.34312)rotate(-90)scale(0.08 -0.08)">
      <use xlink:href="#DejaVuSans-67"/>
      <use x="69.824219" xlink:href="#DejaVuSans-97"/>
      <use x="131.103516" xlink:href="#DejaVuSans-115"/>
      <use x="183.203125" xlink:href="#DejaVuSans-101"/>
      <use x="244.726562" xlink:href="#DejaVuSans-115"/>
      <use x="296.826172" xlink:href="#DejaVuSans-32"/>
      <use x="328.613281" xlink:href="#DejaVuSans-112"/>
      <use x="392.089844" xlink:href="#DejaVuSans-101"/>
      <use x="453.613281" xlink:href="#DejaVuSans-114"/>
      <use x="494.726562" xlink:href="#DejaVuSans-32"/>
      <use x="526.513672" xlink:href="#DejaVuSans-100"/>
      <use x="589.990234" xlink:href="#DejaVuSans-97"/>
      <use x="651.269531" xlink:href="#DejaVuSans-121"/>
     </g>
    </g>
    <g id="text_17">
     <!-- 1e6 -->
     <defs>
      <path d="M 33.015625 40.375 
Q 26.375 40.375 22.484375 35.828125 
Q 18.609375 31.296875 18.609375 23.390625 
Q 18.609375 15.53125 22.484375 10.953125 
Q 26.375 6.390625 33.015625 6.390625 
Q 39.65625 6.390625 43.53125 10.953125 
Q 47.40625 15.53125 47.40625 23.390625 
Q 47.40625 31.296875 43.53125 35.828125 
Q 39.65625 40.375 33.015625 40.375 
z
M 52.59375 71.296875 
L 52.59375 62.3125 
Q 48.875 64.0625 45.09375 64.984375 
Q 41.3125 65.921875 37.59375 65.921875 
Q 27.828125 65.921875 22.671875 59.328125 
Q 17.53125 52.734375 16.796875 39.40625 
Q 19.671875 43.65625 24.015625 45.921875 
Q 28.375 48.1875 33.59375 48.1875 
Q 44.578125 48.1875 50.953125 41.515625 
Q 57.328125 34.859375 57.328125 23.390625 
Q 57.328125 12.15625 50.6875 5.359375 
Q 44.046875 -1.421875 33.015625 -1.421875 
Q 20.359375 -1.421875 13.671875 8.265625 
Q 6.984375 17.96875 6.984375 36.375 
Q 6.984375 53.65625 15.1875 63.9375 
Q 23.390625 74.21875 37.203125 74.21875 
Q 40.921875 74.21875 44.703125 73.484375 
Q 48.484375 72.75 52.59375 71.296875 
z
" id="DejaVuSans-54"/>
     </defs>
     <g transform="translate(39.62 14.4)scale(0.08 -0.08)">
      <use xlink:href="#DejaVuSans-49"/>
      <use x="63.623047" xlink:href="#DejaVuSans-101"/>
      <use x="125.146484" xlink:href="#DejaVuSans-54"/>
     </g>
    </g>
   </g>
   <g id="line2d_16">
    <path clip-path="url(#p7b6779a6d7)" d="M 48.307426 126.447147 
L 50.79666 126.447147 
L 53.285893 126.447147 
L 55.775127 126.447147 
L 58.264361 126.447147 
L 60.753595 126.447147 
L 63.242828 126.446353 
L 65.732062 126.44482 
L 68.221296 126.445029 
L 70.71053 126.443808 
L 73.199763 126.443069 
L 75.688997 126.441168 
L 78.178231 126.441338 
L 80.667465 126.438328 
L 83.156698 126.436181 
L 85.645932 126.435026 
L 88.135166 126.429631 
L 90.6244 126.427043 
L 93.113633 126.419059 
L 95.602867 126.419621 
L 98.092101 126.410581 
L 100.581335 126.401077 
L 103.070568 126.38512 
L 105.559802 126.352144 
L 108.049036 126.34141 
L 110.53827 126.304727 
L 113.027503 126.326014 
L 115.516737 126.265843 
L 118.005971 126.250096 
L 120.495204 126.234603 
L 122.984438 126.182275 
L 125.473672 126.165597 
L 127.962906 126.104612 
L 130.452139 126.099108 
L 132.941373 126.041449 
L 135.430607 125.965646 
L 137.919841 125.723253 
L 140.409074 125.688028 
L 142.898308 125.635288 
L 145.387542 125.427903 
L 147.876776 125.466143 
" style="fill:none;stroke:#0000ff;stroke-linecap:square;stroke-opacity:0.5;"/>
   </g>
   <g id="line2d_17">
    <path clip-path="url(#p7b6779a6d7)" d="M 150.366009 125.29874 
L 152.855243 125.122113 
L 155.344477 124.930049 
L 157.833711 124.7142 
L 160.322944 124.467331 
L 162.812178 124.182908 
L 165.301412 123.854253 
L 167.790646 123.473904 
L 170.279879 123.03319 
L 172.769113 122.5219 
L 175.258347 121.92797 
L 177.747581 121.237126 
L 180.236814 120.432476 
L 182.726048 119.493997 
L 185.215282 118.397936 
L 187.704516 117.116079 
L 190.193749 115.61487 
L 192.682983 113.854352 
L 195.172217 111.786883 
L 197.661451 109.355593 
L 200.150684 106.492511 
" style="fill:none;stroke:#008000;stroke-linecap:square;stroke-opacity:0.5;"/>
   </g>
   <g id="line2d_18">
    <path clip-path="url(#p7b6779a6d7)" d="M 105.559802 126.44874 
L 105.559802 17.4 
" style="fill:none;stroke:#0000ff;stroke-dasharray:1.85,0.8;stroke-dashoffset:0;stroke-width:0.5;"/>
   </g>
   <g id="line2d_19">
    <path clip-path="url(#p7b6779a6d7)" d="M 120.495204 126.44874 
L 120.495204 17.4 
" style="fill:none;stroke:#0000ff;stroke-dasharray:1.85,0.8;stroke-dashoffset:0;stroke-width:0.5;"/>
   </g>
   <g id="line2d_20">
    <path clip-path="url(#p7b6779a6d7)" d="M 115.516737 126.44874 
L 115.516737 17.4 
" style="fill:none;stroke:#0000ff;stroke-dasharray:1.85,0.8;stroke-dashoffset:0;stroke-width:0.5;"/>
   </g>
   <g id="line2d_21">
    <path clip-path="url(#p7b6779a6d7)" d="M 100.581335 126.44874 
L 100.581335 17.4 
" style="fill:none;stroke:#0000ff;stroke-dasharray:1.85,0.8;stroke-dashoffset:0;stroke-width:0.5;"/>
   </g>
   <g id="patch_65">
    <path d="M 39.62 126.44874 
L 39.62 17.4 
" style="fill:none;stroke:#000000;stroke-linecap:square;stroke-linejoin:miter;stroke-width:0.8;"/>
   </g>
   <g id="patch_66">
    <path d="M 208.83811 126.44874 
L 208.83811 17.4 
" style="fill:none;stroke:#000000;stroke-linecap:square;stroke-linejoin:miter;stroke-width:0.8;"/>
   </g>
   <g id="patch_67">
    <path d="M 39.62 126.44874 
L 208.83811 126.44874 
" style="fill:none;stroke:#000000;stroke-linecap:square;stroke-linejoin:miter;stroke-width:0.8;"/>
   </g>
   <g id="patch_68">
    <path d="M 39.62 17.4 
L 208.83811 17.4 
" style="fill:none;stroke:#000000;stroke-linecap:square;stroke-linejoin:miter;stroke-width:0.8;"/>
   </g>
  </g>
  <g id="axes_2">
   <g id="matplotlib.axis_3">
    <g id="ytick_7">
     <g id="line2d_22">
      <defs>
       <path d="M 0 0 
L 3.5 0 
" id="m61dd8b7f46" style="stroke:#000000;stroke-width:0.8;"/>
      </defs>
      <g>
       <use style="stroke:#000000;stroke-width:0.8;" x="208.83811" xlink:href="#m61dd8b7f46" y="126.44874"/>
      </g>
     </g>
     <g id="text_18">
      <!-- 1.0 -->
      <defs>
       <path d="M 10.59375 35.5 
L 73.1875 35.5 
L 73.1875 27.203125 
L 10.59375 27.203125 
z
" id="DejaVuSans-8722"/>
      </defs>
      <g transform="translate(215.83811 129.488115)scale(0.08 -0.08)">
       <use xlink:href="#DejaVuSans-8722"/>
       <use x="83.789062" xlink:href="#DejaVuSans-49"/>
       <use x="147.412109" xlink:href="#DejaVuSans-46"/>
       <use x="179.199219" xlink:href="#DejaVuSans-48"/>
      </g>
     </g>
    </g>
    <g id="ytick_8">
     <g id="line2d_23">
      <g>
       <use style="stroke:#000000;stroke-width:0.8;" x="208.83811" xlink:href="#m61dd8b7f46" y="87.502762"/>
      </g>
     </g>
     <g id="text_19">
      <!-- 0.5 -->
      <g transform="translate(215.83811 90.542137)scale(0.08 -0.08)">
       <use xlink:href="#DejaVuSans-8722"/>
       <use x="83.789062" xlink:href="#DejaVuSans-48"/>
       <use x="147.412109" xlink:href="#DejaVuSans-46"/>
       <use x="179.199219" xlink:href="#DejaVuSans-53"/>
      </g>
     </g>
    </g>
    <g id="ytick_9">
     <g id="line2d_24">
      <g>
       <use style="stroke:#000000;stroke-width:0.8;" x="208.83811" xlink:href="#m61dd8b7f46" y="48.556783"/>
      </g>
     </g>
     <g id="text_20">
      <!-- 0.0 -->
      <g transform="translate(215.83811 51.596158)scale(0.08 -0.08)">
       <use xlink:href="#DejaVuSans-48"/>
       <use x="63.623047" xlink:href="#DejaVuSans-46"/>
       <use x="95.410156" xlink:href="#DejaVuSans-48"/>
      </g>
     </g>
    </g>
    <g id="ytick_10">
     <g id="line2d_25">
      <g>
       <use style="stroke:#000000;stroke-width:0.8;" x="208.83811" xlink:href="#m61dd8b7f46" y="17.4"/>
      </g>
     </g>
     <g id="text_21">
      <!-- 0.4 -->
      <defs>
       <path d="M 37.796875 64.3125 
L 12.890625 25.390625 
L 37.796875 25.390625 
z
M 35.203125 72.90625 
L 47.609375 72.90625 
L 47.609375 25.390625 
L 58.015625 25.390625 
L 58.015625 17.1875 
L 47.609375 17.1875 
L 47.609375 0 
L 37.796875 0 
L 37.796875 17.1875 
L 4.890625 17.1875 
L 4.890625 26.703125 
z
" id="DejaVuSans-52"/>
      </defs>
      <g transform="translate(215.83811 20.439375)scale(0.08 -0.08)">
       <use xlink:href="#DejaVuSans-48"/>
       <use x="63.623047" xlink:href="#DejaVuSans-46"/>
       <use x="95.410156" xlink:href="#DejaVuSans-52"/>
      </g>
     </g>
    </g>
    <g id="text_22">
     <!-- Relative change -->
     <defs>
      <path d="M 44.390625 34.1875 
Q 47.5625 33.109375 50.5625 29.59375 
Q 53.5625 26.078125 56.59375 19.921875 
L 66.609375 0 
L 56 0 
L 46.6875 18.703125 
Q 43.0625 26.03125 39.671875 28.421875 
Q 36.28125 30.8125 30.421875 30.8125 
L 19.671875 30.8125 
L 19.671875 0 
L 9.8125 0 
L 9.8125 72.90625 
L 32.078125 72.90625 
Q 44.578125 72.90625 50.734375 67.671875 
Q 56.890625 62.453125 56.890625 51.90625 
Q 56.890625 45.015625 53.6875 40.46875 
Q 50.484375 35.9375 44.390625 34.1875 
z
M 19.671875 64.796875 
L 19.671875 38.921875 
L 32.078125 38.921875 
Q 39.203125 38.921875 42.84375 42.21875 
Q 46.484375 45.515625 46.484375 51.90625 
Q 46.484375 58.296875 42.84375 61.546875 
Q 39.203125 64.796875 32.078125 64.796875 
z
" id="DejaVuSans-82"/>
      <path d="M 9.421875 75.984375 
L 18.40625 75.984375 
L 18.40625 0 
L 9.421875 0 
z
" id="DejaVuSans-108"/>
      <path d="M 18.3125 70.21875 
L 18.3125 54.6875 
L 36.8125 54.6875 
L 36.8125 47.703125 
L 18.3125 47.703125 
L 18.3125 18.015625 
Q 18.3125 11.328125 20.140625 9.421875 
Q 21.96875 7.515625 27.59375 7.515625 
L 36.8125 7.515625 
L 36.8125 0 
L 27.59375 0 
Q 17.1875 0 13.234375 3.875 
Q 9.28125 7.765625 9.28125 18.015625 
L 9.28125 47.703125 
L 2.6875 47.703125 
L 2.6875 54.6875 
L 9.28125 54.6875 
L 9.28125 70.21875 
z
" id="DejaVuSans-116"/>
      <path d="M 9.421875 54.6875 
L 18.40625 54.6875 
L 18.40625 0 
L 9.421875 0 
z
M 9.421875 75.984375 
L 18.40625 75.984375 
L 18.40625 64.59375 
L 9.421875 64.59375 
z
" id="DejaVuSans-105"/>
      <path d="M 2.984375 54.6875 
L 12.5 54.6875 
L 29.59375 8.796875 
L 46.6875 54.6875 
L 56.203125 54.6875 
L 35.6875 0 
L 23.484375 0 
z
" id="DejaVuSans-118"/>
      <path d="M 48.78125 52.59375 
L 48.78125 44.1875 
Q 44.96875 46.296875 41.140625 47.34375 
Q 37.3125 48.390625 33.40625 48.390625 
Q 24.65625 48.390625 19.8125 42.84375 
Q 14.984375 37.3125 14.984375 27.296875 
Q 14.984375 17.28125 19.8125 11.734375 
Q 24.65625 6.203125 33.40625 6.203125 
Q 37.3125 6.203125 41.140625 7.25 
Q 44.96875 8.296875 48.78125 10.40625 
L 48.78125 2.09375 
Q 45.015625 0.34375 40.984375 -0.53125 
Q 36.96875 -1.421875 32.421875 -1.421875 
Q 20.0625 -1.421875 12.78125 6.34375 
Q 5.515625 14.109375 5.515625 27.296875 
Q 5.515625 40.671875 12.859375 48.328125 
Q 20.21875 56 33.015625 56 
Q 37.15625 56 41.109375 55.140625 
Q 45.0625 54.296875 48.78125 52.59375 
z
" id="DejaVuSans-99"/>
      <path d="M 54.890625 33.015625 
L 54.890625 0 
L 45.90625 0 
L 45.90625 32.71875 
Q 45.90625 40.484375 42.875 44.328125 
Q 39.84375 48.1875 33.796875 48.1875 
Q 26.515625 48.1875 22.3125 43.546875 
Q 18.109375 38.921875 18.109375 30.90625 
L 18.109375 0 
L 9.078125 0 
L 9.078125 75.984375 
L 18.109375 75.984375 
L 18.109375 46.1875 
Q 21.34375 51.125 25.703125 53.5625 
Q 30.078125 56 35.796875 56 
Q 45.21875 56 50.046875 50.171875 
Q 54.890625 44.34375 54.890625 33.015625 
z
" id="DejaVuSans-104"/>
      <path d="M 54.890625 33.015625 
L 54.890625 0 
L 45.90625 0 
L 45.90625 32.71875 
Q 45.90625 40.484375 42.875 44.328125 
Q 39.84375 48.1875 33.796875 48.1875 
Q 26.515625 48.1875 22.3125 43.546875 
Q 18.109375 38.921875 18.109375 30.90625 
L 18.109375 0 
L 9.078125 0 
L 9.078125 54.6875 
L 18.109375 54.6875 
L 18.109375 46.1875 
Q 21.34375 51.125 25.703125 53.5625 
Q 30.078125 56 35.796875 56 
Q 45.21875 56 50.046875 50.171875 
Q 54.890625 44.34375 54.890625 33.015625 
z
" id="DejaVuSans-110"/>
      <path d="M 45.40625 27.984375 
Q 45.40625 37.75 41.375 43.109375 
Q 37.359375 48.484375 30.078125 48.484375 
Q 22.859375 48.484375 18.828125 43.109375 
Q 14.796875 37.75 14.796875 27.984375 
Q 14.796875 18.265625 18.828125 12.890625 
Q 22.859375 7.515625 30.078125 7.515625 
Q 37.359375 7.515625 41.375 12.890625 
Q 45.40625 18.265625 45.40625 27.984375 
z
M 54.390625 6.78125 
Q 54.390625 -7.171875 48.1875 -13.984375 
Q 42 -20.796875 29.203125 -20.796875 
Q 24.46875 -20.796875 20.265625 -20.09375 
Q 16.0625 -19.390625 12.109375 -17.921875 
L 12.109375 -9.1875 
Q 16.0625 -11.328125 19.921875 -12.34375 
Q 23.78125 -13.375 27.78125 -13.375 
Q 36.625 -13.375 41.015625 -8.765625 
Q 45.40625 -4.15625 45.40625 5.171875 
L 45.40625 9.625 
Q 42.625 4.78125 38.28125 2.390625 
Q 33.9375 0 27.875 0 
Q 17.828125 0 11.671875 7.65625 
Q 5.515625 15.328125 5.515625 27.984375 
Q 5.515625 40.671875 11.671875 48.328125 
Q 17.828125 56 27.875 56 
Q 33.9375 56 38.28125 53.609375 
Q 42.625 51.21875 45.40625 46.390625 
L 45.40625 54.6875 
L 54.390625 54.6875 
z
" id="DejaVuSans-103"/>
     </defs>
     <g transform="translate(245.34311 104.04812)rotate(-90)scale(0.08 -0.08)">
      <use xlink:href="#DejaVuSans-82"/>
      <use x="64.982422" xlink:href="#DejaVuSans-101"/>
      <use x="126.505859" xlink:href="#DejaVuSans-108"/>
      <use x="154.289062" xlink:href="#DejaVuSans-97"/>
      <use x="215.568359" xlink:href="#DejaVuSans-116"/>
      <use x="254.777344" xlink:href="#DejaVuSans-105"/>
      <use x="282.560547" xlink:href="#DejaVuSans-118"/>
      <use x="341.740234" xlink:href="#DejaVuSans-101"/>
      <use x="403.263672" xlink:href="#DejaVuSans-32"/>
      <use x="435.050781" xlink:href="#DejaVuSans-99"/>
      <use x="490.03125" xlink:href="#DejaVuSans-104"/>
      <use x="553.410156" xlink:href="#DejaVuSans-97"/>
      <use x="614.689453" xlink:href="#DejaVuSans-110"/>
      <use x="678.068359" xlink:href="#DejaVuSans-103"/>
      <use x="741.544922" xlink:href="#DejaVuSans-101"/>
     </g>
    </g>
   </g>
   <g id="line2d_26">
    <path clip-path="url(#p7b6779a6d7)" d="M 48.307426 48.556783 
L 50.79666 46.220024 
L 53.285893 47.777863 
L 55.775127 44.662185 
L 58.264361 48.556783 
L 60.753595 46.998944 
L 63.242828 46.998944 
L 65.732062 42.325426 
L 68.221296 44.662185 
L 70.71053 43.104346 
L 73.199763 43.104346 
L 75.688997 42.325426 
L 78.178231 49.335702 
L 80.667465 47.777863 
L 83.156698 48.556783 
L 85.645932 50.114622 
L 88.135166 48.556783 
L 90.6244 46.998944 
L 93.113633 44.662185 
L 95.602867 47.777863 
L 98.092101 50.114622 
L 100.581335 51.672461 
L 103.070568 51.672461 
L 105.559802 57.903818 
L 108.049036 58.682737 
L 110.53827 61.798416 
L 113.027503 68.029772 
L 115.516737 63.356255 
L 118.005971 67.250853 
L 120.495204 68.808692 
L 122.984438 65.693013 
L 125.473672 67.250853 
L 127.962906 68.808692 
L 130.452139 68.808692 
L 132.941373 68.029772 
L 135.430607 68.029772 
L 137.919841 63.356255 
L 140.409074 62.577335 
L 142.898308 63.356255 
L 145.387542 67.250853 
L 147.876776 67.250853 
" style="fill:none;stroke:#d62728;stroke-linecap:square;stroke-opacity:0.5;"/>
   </g>
   <g id="line2d_27">
    <path clip-path="url(#p7b6779a6d7)" d="M 48.307426 48.556783 
L 50.79666 47.777863 
L 53.285893 47.777863 
L 55.775127 48.556783 
L 58.264361 49.335702 
L 60.753595 48.556783 
L 63.242828 48.556783 
L 65.732062 41.546507 
L 68.221296 46.998944 
L 70.71053 45.441105 
L 73.199763 46.998944 
L 75.688997 45.441105 
L 78.178231 50.114622 
L 80.667465 46.998944 
L 83.156698 46.998944 
L 85.645932 49.335702 
L 88.135166 46.220024 
L 90.6244 47.777863 
L 93.113633 45.441105 
L 95.602867 50.114622 
L 98.092101 48.556783 
L 100.581335 47.777863 
L 103.070568 45.441105 
L 105.559802 39.988668 
L 108.049036 42.325426 
L 110.53827 41.546507 
L 113.027503 50.114622 
L 115.516737 46.220024 
L 118.005971 48.556783 
L 120.495204 50.893542 
L 122.984438 50.114622 
L 125.473672 52.451381 
L 127.962906 52.451381 
L 130.452139 55.567059 
L 132.941373 54.788139 
L 135.430607 54.00922 
L 137.919841 47.777863 
L 140.409074 50.114622 
L 142.898308 52.451381 
L 145.387542 51.672461 
L 147.876776 56.345979 
" style="fill:none;stroke:#9467bd;stroke-linecap:square;stroke-opacity:0.5;"/>
   </g>
   <g id="line2d_28">
    <path clip-path="url(#p7b6779a6d7)" d="M 48.307426 51.672461 
L 50.79666 50.893542 
L 53.285893 53.2303 
L 55.775127 50.114622 
L 58.264361 50.114622 
L 60.753595 48.556783 
L 63.242828 50.893542 
L 65.732062 50.893542 
L 68.221296 52.451381 
L 70.71053 50.114622 
L 73.199763 49.335702 
L 75.688997 44.662185 
L 78.178231 53.2303 
L 80.667465 50.893542 
L 83.156698 51.672461 
L 85.645932 52.451381 
L 88.135166 51.672461 
L 90.6244 49.335702 
L 93.113633 43.883265 
L 95.602867 53.2303 
L 98.092101 52.451381 
L 100.581335 53.2303 
L 103.070568 54.00922 
L 105.559802 61.019496 
L 108.049036 63.356255 
L 110.53827 58.682737 
L 113.027503 71.92437 
L 115.516737 68.029772 
L 118.005971 73.482209 
L 120.495204 77.376807 
L 122.984438 75.818968 
L 125.473672 77.376807 
L 127.962906 70.366531 
L 130.452139 74.261129 
L 132.941373 78.155727 
L 135.430607 77.376807 
L 137.919841 76.597888 
L 140.409074 75.818968 
L 142.898308 75.818968 
L 145.387542 71.145451 
L 147.876776 76.597888 
" style="fill:none;stroke:#e377c2;stroke-linecap:square;stroke-opacity:0.5;"/>
   </g>
   <g id="line2d_29">
    <path clip-path="url(#p7b6779a6d7)" d="M 48.307426 52.451381 
L 50.79666 52.451381 
L 53.285893 53.2303 
L 55.775127 54.00922 
L 58.264361 50.893542 
L 60.753595 49.335702 
L 63.242828 51.672461 
L 65.732062 51.672461 
L 68.221296 51.672461 
L 70.71053 52.451381 
L 73.199763 53.2303 
L 75.688997 48.556783 
L 78.178231 50.114622 
L 80.667465 50.114622 
L 83.156698 50.114622 
L 85.645932 50.114622 
L 88.135166 50.114622 
L 90.6244 50.114622 
L 93.113633 48.556783 
L 95.602867 49.335702 
L 98.092101 48.556783 
L 100.581335 48.556783 
L 103.070568 49.335702 
L 105.559802 51.672461 
L 108.049036 56.345979 
L 110.53827 53.2303 
L 113.027503 56.345979 
L 115.516737 61.798416 
L 118.005971 64.914094 
L 120.495204 69.587611 
L 122.984438 70.366531 
L 125.473672 70.366531 
L 127.962906 58.682737 
L 130.452139 60.240576 
L 132.941373 69.587611 
L 135.430607 70.366531 
L 137.919841 70.366531 
L 140.409074 70.366531 
L 142.898308 71.145451 
L 145.387542 60.240576 
L 147.876776 62.577335 
" style="fill:none;stroke:#bcbd22;stroke-linecap:square;stroke-opacity:0.5;"/>
   </g>
   <g id="line2d_30">
    <path clip-path="url(#p7b6779a6d7)" d="M 48.307426 47.777863 
L 50.79666 47.777863 
L 53.285893 47.777863 
L 55.775127 47.777863 
L 58.264361 47.777863 
L 60.753595 48.556783 
L 63.242828 47.777863 
L 65.732062 47.777863 
L 68.221296 47.777863 
L 70.71053 47.777863 
L 73.199763 47.777863 
L 75.688997 48.556783 
L 78.178231 47.777863 
L 80.667465 47.777863 
L 83.156698 47.777863 
L 85.645932 47.777863 
L 88.135166 47.777863 
L 90.6244 47.777863 
L 93.113633 48.556783 
L 95.602867 47.777863 
L 98.092101 47.777863 
L 100.581335 47.777863 
L 103.070568 46.998944 
L 105.559802 45.441105 
L 108.049036 43.883265 
L 110.53827 46.220024 
L 113.027503 44.662185 
L 115.516737 42.325426 
L 118.005971 41.546507 
L 120.495204 39.988668 
L 122.984438 39.988668 
L 125.473672 39.209748 
L 127.962906 43.883265 
L 130.452139 44.662185 
L 132.941373 39.988668 
L 135.430607 39.988668 
L 137.919841 39.988668 
L 140.409074 39.988668 
L 142.898308 39.988668 
L 145.387542 43.883265 
L 147.876776 44.662185 
" style="fill:none;stroke:#17becf;stroke-linecap:square;stroke-opacity:0.5;"/>
   </g>
   <g id="patch_69">
    <path d="M 39.62 126.44874 
L 39.62 17.4 
" style="fill:none;stroke:#000000;stroke-linecap:square;stroke-linejoin:miter;stroke-width:0.8;"/>
   </g>
   <g id="patch_70">
    <path d="M 208.83811 126.44874 
L 208.83811 17.4 
" style="fill:none;stroke:#000000;stroke-linecap:square;stroke-linejoin:miter;stroke-width:0.8;"/>
   </g>
   <g id="patch_71">
    <path d="M 39.62 126.44874 
L 208.83811 126.44874 
" style="fill:none;stroke:#000000;stroke-linecap:square;stroke-linejoin:miter;stroke-width:0.8;"/>
   </g>
   <g id="patch_72">
    <path d="M 39.62 17.4 
L 208.83811 17.4 
" style="fill:none;stroke:#000000;stroke-linecap:square;stroke-linejoin:miter;stroke-width:0.8;"/>
   </g>
  </g>
 </g>
 <defs>
  <clipPath id="p7b6779a6d7">
   <rect height="109.04874" width="169.21811" x="39.62" y="17.4"/>
  </clipPath>
 </defs>
</svg>
