<?xml version="1.0" encoding="utf-8" standalone="no"?>
<!DOCTYPE svg PUBLIC "-//W3C//DTD SVG 1.1//EN"
  "http://www.w3.org/Graphics/SVG/1.1/DTD/svg11.dtd">
<!-- Created with matplotlib (https://matplotlib.org/) -->
<svg height="170.07874pt" version="1.1" viewBox="0 0 255.11811 170.07874" width="255.11811pt" xmlns="http://www.w3.org/2000/svg" xmlns:xlink="http://www.w3.org/1999/xlink">
 <defs>
  <style type="text/css">
*{stroke-linecap:butt;stroke-linejoin:round;}
  </style>
 </defs>
 <g id="figure_1">
  <g id="patch_1">
   <path d="M 0 170.07874 
L 255.11811 170.07874 
L 255.11811 0 
L 0 0 
z
" style="fill:#ffffff;"/>
  </g>
  <g id="axes_1">
   <g id="patch_2">
    <path d="M 31.97 126.44874 
L 208.83811 126.44874 
L 208.83811 11.52 
L 31.97 11.52 
z
" style="fill:#ffffff;"/>
   </g>
   <g id="PolyCollection_1">
    <defs>
     <path d="M 40.00946 -124.663432 
L 40.00946 -89.593965 
L 42.645348 -91.300777 
L 45.281236 -90.990322 
L 47.917125 -89.571157 
L 50.553013 -88.110835 
L 53.188901 -90.132046 
L 55.82479 -89.777194 
L 58.460678 -104.070039 
L 61.096567 -92.968784 
L 63.732455 -96.29098 
L 66.368343 -92.993874 
L 69.004232 -97.031313 
L 71.64012 -86.396193 
L 74.276008 -92.998445 
L 76.911897 -92.885138 
L 79.547785 -87.975648 
L 82.183674 -94.496187 
L 84.819562 -91.545848 
L 87.45545 -96.920613 
L 90.091339 -86.444108 
L 92.727227 -89.823019 
L 95.363116 -91.330099 
L 97.999004 -95.801963 
L 100.634892 -105.26598 
L 103.270781 -99.781101 
L 105.906669 -101.915416 
L 108.542557 -83.465254 
L 111.178446 -90.665056 
L 113.814334 -85.423535 
L 116.450223 -79.955676 
L 119.086111 -81.61253 
L 121.721999 -76.949571 
L 124.357888 -78.782684 
L 126.993776 -73.21501 
L 129.629664 -73.183972 
L 132.265553 -74.348975 
L 134.901441 -85.888174 
L 137.53733 -81.786404 
L 140.173218 -77.356708 
L 142.809106 -80.168125 
L 145.444995 -71.785598 
L 145.444995 -101.166171 
L 145.444995 -101.166171 
L 142.809106 -110.597713 
L 140.173218 -107.103913 
L 137.53733 -112.714989 
L 134.901441 -119.039261 
L 132.265553 -103.697799 
L 129.629664 -102.152296 
L 126.993776 -102.570791 
L 124.357888 -108.796738 
L 121.721999 -106.843838 
L 119.086111 -112.468609 
L 116.450223 -110.349163 
L 113.814334 -117.355903 
L 111.178446 -125.633496 
L 108.542557 -114.679245 
L 105.906669 -150.031461 
L 103.270781 -144.308931 
L 100.634892 -158.55874 
L 97.999004 -134.860038 
L 95.363116 -126.864335 
L 92.727227 -124.928157 
L 90.091339 -120.415634 
L 87.45545 -138.118901 
L 84.819562 -127.734321 
L 82.183674 -132.844443 
L 79.547785 -122.372434 
L 76.911897 -129.772576 
L 74.276008 -129.896927 
L 71.64012 -120.101343 
L 69.004232 -138.50906 
L 66.368343 -130.373609 
L 63.732455 -136.415944 
L 61.096567 -130.04257 
L 58.460678 -154.595308 
L 55.82479 -124.978146 
L 53.188901 -125.993861 
L 50.553013 -122.775008 
L 47.917125 -125.206434 
L 45.281236 -126.654247 
L 42.645348 -127.205949 
L 40.00946 -124.663432 
z
" id="m74c22c304e" style="stroke:#6495ed;stroke-opacity:0.4;"/>
    </defs>
    <g clip-path="url(#p5b4f7e70ba)">
     <use style="fill:#6495ed;fill-opacity:0.4;stroke:#6495ed;stroke-opacity:0.4;" x="0" xlink:href="#m74c22c304e" y="170.07874"/>
    </g>
   </g>
   <g id="PolyCollection_2">
    <defs>
     <path d="M 40.00946 -109.236405 
L 40.00946 -98.328457 
L 42.645348 -100.59879 
L 45.281236 -100.270198 
L 47.917125 -98.528469 
L 50.553013 -96.499669 
L 53.188901 -98.918118 
L 55.82479 -98.515189 
L 58.460678 -118.274738 
L 61.096567 -102.680327 
L 63.732455 -106.951401 
L 66.368343 -102.784016 
L 69.004232 -107.687789 
L 71.64012 -94.47313 
L 74.276008 -102.677996 
L 76.911897 -102.574405 
L 79.547785 -96.378016 
L 82.183674 -104.565237 
L 84.819562 -100.767988 
L 87.45545 -107.574794 
L 90.091339 -94.581964 
L 92.727227 -98.427839 
L 95.363116 -100.369015 
L 97.999004 -106.167756 
L 100.634892 -120.589806 
L 103.270781 -112.487251 
L 105.906669 -115.66095 
L 108.542557 -91.79064 
L 111.178446 -100.608795 
L 113.814334 -94.114826 
L 116.450223 -88.268063 
L 119.086111 -90.122505 
L 121.721999 -85.044949 
L 124.357888 -86.534851 
L 126.993776 -80.436228 
L 129.629664 -80.706965 
L 132.265553 -82.165105 
L 134.901441 -95.304305 
L 137.53733 -90.29715 
L 140.173218 -85.41347 
L 142.809106 -88.110059 
L 145.444995 -78.871236 
L 145.444995 -88.055823 
L 145.444995 -88.055823 
L 142.809106 -97.506189 
L 140.173218 -94.582123 
L 137.53733 -100.002006 
L 134.901441 -105.806966 
L 132.265553 -91.176585 
L 129.629664 -89.698127 
L 126.993776 -89.590768 
L 124.357888 -95.837235 
L 121.721999 -94.206256 
L 119.086111 -99.796825 
L 116.450223 -97.739185 
L 113.814334 -104.220833 
L 111.178446 -111.928663 
L 108.542557 -101.578133 
L 105.906669 -131.315585 
L 103.270781 -127.107939 
L 100.634892 -138.28502 
L 97.999004 -118.612316 
L 95.363116 -111.54581 
L 92.727227 -109.491154 
L 90.091339 -105.268771 
L 87.45545 -120.612697 
L 84.819562 -112.064211 
L 82.183674 -116.625168 
L 79.547785 -107.177444 
L 76.911897 -114.12235 
L 74.276008 -114.268049 
L 71.64012 -105.061785 
L 69.004232 -120.802402 
L 66.368343 -114.534867 
L 63.732455 -119.63395 
L 61.096567 -114.35623 
L 58.460678 -134.745663 
L 55.82479 -109.467814 
L 53.188901 -110.082494 
L 50.553013 -107.338024 
L 47.917125 -109.528196 
L 45.281236 -111.311318 
L 42.645348 -111.76423 
L 40.00946 -109.236405 
z
" id="m976d0e295e" style="stroke:#6495ed;stroke-opacity:0.6;"/>
    </defs>
    <g clip-path="url(#p5b4f7e70ba)">
     <use style="fill:#6495ed;fill-opacity:0.6;stroke:#6495ed;stroke-opacity:0.6;" x="0" xlink:href="#m976d0e295e" y="170.07874"/>
    </g>
   </g>
   <g id="PolyCollection_3">
    <defs>
     <path d="M 145.444995 -101.166171 
L 145.444995 -71.785598 
L 148.080883 -71.785598 
L 150.716771 -71.785598 
L 153.35266 -71.785598 
L 155.988548 -71.785598 
L 158.624437 -71.785598 
L 161.260325 -71.785598 
L 163.896213 -71.785598 
L 166.532102 -71.785598 
L 169.16799 -71.785598 
L 171.803879 -71.785598 
L 174.439767 -71.785598 
L 177.075655 -71.785598 
L 179.711544 -71.785598 
L 182.347432 -71.785598 
L 184.98332 -71.785598 
L 187.619209 -71.785598 
L 190.255097 -71.785598 
L 192.890986 -71.785598 
L 195.526874 -71.785598 
L 198.162762 -71.785598 
L 200.798651 -71.785598 
L 200.798651 -101.166171 
L 200.798651 -101.166171 
L 198.162762 -101.166171 
L 195.526874 -101.166171 
L 192.890986 -101.166171 
L 190.255097 -101.166171 
L 187.619209 -101.166171 
L 184.98332 -101.166171 
L 182.347432 -101.166171 
L 179.711544 -101.166171 
L 177.075655 -101.166171 
L 174.439767 -101.166171 
L 171.803879 -101.166171 
L 169.16799 -101.166171 
L 166.532102 -101.166171 
L 163.896213 -101.166171 
L 161.260325 -101.166171 
L 158.624437 -101.166171 
L 155.988548 -101.166171 
L 153.35266 -101.166171 
L 150.716771 -101.166171 
L 148.080883 -101.166171 
L 145.444995 -101.166171 
z
" id="mf1121b4282" style="stroke:#228b22;stroke-opacity:0.4;"/>
    </defs>
    <g clip-path="url(#p5b4f7e70ba)">
     <use style="fill:#228b22;fill-opacity:0.4;stroke:#228b22;stroke-opacity:0.4;" x="0" xlink:href="#mf1121b4282" y="170.07874"/>
    </g>
   </g>
   <g id="PolyCollection_4">
    <defs>
     <path d="M 145.444995 -88.055823 
L 145.444995 -78.871236 
L 148.080883 -78.871236 
L 150.716771 -78.871236 
L 153.35266 -78.871236 
L 155.988548 -78.871236 
L 158.624437 -78.871236 
L 161.260325 -78.871236 
L 163.896213 -78.871236 
L 166.532102 -78.871236 
L 169.16799 -78.871236 
L 171.803879 -78.871236 
L 174.439767 -78.871236 
L 177.075655 -78.871236 
L 179.711544 -78.871236 
L 182.347432 -78.871236 
L 184.98332 -78.871236 
L 187.619209 -78.871236 
L 190.255097 -78.871236 
L 192.890986 -78.871236 
L 195.526874 -78.871236 
L 198.162762 -78.871236 
L 200.798651 -78.871236 
L 200.798651 -88.055823 
L 200.798651 -88.055823 
L 198.162762 -88.055823 
L 195.526874 -88.055823 
L 192.890986 -88.055823 
L 190.255097 -88.055823 
L 187.619209 -88.055823 
L 184.98332 -88.055823 
L 182.347432 -88.055823 
L 179.711544 -88.055823 
L 177.075655 -88.055823 
L 174.439767 -88.055823 
L 171.803879 -88.055823 
L 169.16799 -88.055823 
L 166.532102 -88.055823 
L 163.896213 -88.055823 
L 161.260325 -88.055823 
L 158.624437 -88.055823 
L 155.988548 -88.055823 
L 153.35266 -88.055823 
L 150.716771 -88.055823 
L 148.080883 -88.055823 
L 145.444995 -88.055823 
z
" id="m3892796ea6" style="stroke:#228b22;stroke-opacity:0.6;"/>
    </defs>
    <g clip-path="url(#p5b4f7e70ba)">
     <use style="fill:#228b22;fill-opacity:0.6;stroke:#228b22;stroke-opacity:0.6;" x="0" xlink:href="#m3892796ea6" y="170.07874"/>
    </g>
   </g>
   <g id="PathCollection_1">
    <defs>
     <path d="M -0.866025 1.732051 
L 0 0.866025 
L 0.866025 1.732051 
L 1.732051 0.866025 
L 0.866025 0 
L 1.732051 -0.866025 
L 0.866025 -1.732051 
L 0 -0.866025 
L -0.866025 -1.732051 
L -1.732051 -0.866025 
L -0.866025 0 
L -1.732051 0.866025 
z
" id="m75b86d8f80" style="stroke:#8a2be2;"/>
    </defs>
    <g clip-path="url(#p5b4f7e70ba)">
     <use style="fill:#8a2be2;stroke:#8a2be2;" x="100.634892" xlink:href="#m75b86d8f80" y="23.012874"/>
    </g>
   </g>
   <g id="PathCollection_2">
    <defs>
     <path d="M 0 -1.732051 
L -0.38887 -0.535233 
L -1.647278 -0.535233 
L -0.629204 0.204441 
L -1.018074 1.401259 
L -0 0.661585 
L 1.018074 1.401259 
L 0.629204 0.204441 
L 1.647278 -0.535233 
L 0.38887 -0.535233 
z
" id="mc7b65ebab8" style="stroke:#000000;"/>
    </defs>
    <g clip-path="url(#p5b4f7e70ba)">
     <use style="stroke:#000000;" x="116.450223" xlink:href="#mc7b65ebab8" y="23.012874"/>
    </g>
   </g>
   <g id="PathCollection_3">
    <defs>
     <path d="M 0 -1.732051 
L -1.647278 -0.535233 
L -1.018074 1.401259 
L 1.018074 1.401259 
L 1.647278 -0.535233 
z
" id="m879a3ca2e8" style="stroke:#800000;"/>
    </defs>
    <g clip-path="url(#p5b4f7e70ba)">
     <use style="fill:#800000;stroke:#800000;" x="111.178446" xlink:href="#m879a3ca2e8" y="23.012874"/>
    </g>
   </g>
   <g id="PathCollection_4">
    <defs>
     <path d="M -0 2.44949 
L 1.469694 0 
L 0 -2.44949 
L -1.469694 -0 
z
" id="mfcbbd93dcf" style="stroke:#556b2f;"/>
    </defs>
    <g clip-path="url(#p5b4f7e70ba)">
     <use style="fill:#556b2f;stroke:#556b2f;" x="95.363116" xlink:href="#mfcbbd93dcf" y="23.012874"/>
    </g>
   </g>
   <g id="matplotlib.axis_1">
    <g id="xtick_1">
     <g id="line2d_1">
      <defs>
       <path d="M 0 0 
L 0 3.5 
" id="m438a4a845a" style="stroke:#000000;stroke-width:0.8;"/>
      </defs>
      <g>
       <use style="stroke:#000000;stroke-width:0.8;" x="200.798651" xlink:href="#m438a4a845a" y="126.44874"/>
      </g>
     </g>
     <g id="text_1">
      <!-- 19 Apr -->
      <defs>
       <path d="M 12.40625 8.296875 
L 28.515625 8.296875 
L 28.515625 63.921875 
L 10.984375 60.40625 
L 10.984375 69.390625 
L 28.421875 72.90625 
L 38.28125 72.90625 
L 38.28125 8.296875 
L 54.390625 8.296875 
L 54.390625 0 
L 12.40625 0 
z
" id="DejaVuSans-49"/>
       <path d="M 10.984375 1.515625 
L 10.984375 10.5 
Q 14.703125 8.734375 18.5 7.8125 
Q 22.3125 6.890625 25.984375 6.890625 
Q 35.75 6.890625 40.890625 13.453125 
Q 46.046875 20.015625 46.78125 33.40625 
Q 43.953125 29.203125 39.59375 26.953125 
Q 35.25 24.703125 29.984375 24.703125 
Q 19.046875 24.703125 12.671875 31.3125 
Q 6.296875 37.9375 6.296875 49.421875 
Q 6.296875 60.640625 12.9375 67.421875 
Q 19.578125 74.21875 30.609375 74.21875 
Q 43.265625 74.21875 49.921875 64.515625 
Q 56.59375 54.828125 56.59375 36.375 
Q 56.59375 19.140625 48.40625 8.859375 
Q 40.234375 -1.421875 26.421875 -1.421875 
Q 22.703125 -1.421875 18.890625 -0.6875 
Q 15.09375 0.046875 10.984375 1.515625 
z
M 30.609375 32.421875 
Q 37.25 32.421875 41.125 36.953125 
Q 45.015625 41.5 45.015625 49.421875 
Q 45.015625 57.28125 41.125 61.84375 
Q 37.25 66.40625 30.609375 66.40625 
Q 23.96875 66.40625 20.09375 61.84375 
Q 16.21875 57.28125 16.21875 49.421875 
Q 16.21875 41.5 20.09375 36.953125 
Q 23.96875 32.421875 30.609375 32.421875 
z
" id="DejaVuSans-57"/>
       <path id="DejaVuSans-32"/>
       <path d="M 34.1875 63.1875 
L 20.796875 26.90625 
L 47.609375 26.90625 
z
M 28.609375 72.90625 
L 39.796875 72.90625 
L 67.578125 0 
L 57.328125 0 
L 50.6875 18.703125 
L 17.828125 18.703125 
L 11.1875 0 
L 0.78125 0 
z
" id="DejaVuSans-65"/>
       <path d="M 18.109375 8.203125 
L 18.109375 -20.796875 
L 9.078125 -20.796875 
L 9.078125 54.6875 
L 18.109375 54.6875 
L 18.109375 46.390625 
Q 20.953125 51.265625 25.265625 53.625 
Q 29.59375 56 35.59375 56 
Q 45.5625 56 51.78125 48.09375 
Q 58.015625 40.1875 58.015625 27.296875 
Q 58.015625 14.40625 51.78125 6.484375 
Q 45.5625 -1.421875 35.59375 -1.421875 
Q 29.59375 -1.421875 25.265625 0.953125 
Q 20.953125 3.328125 18.109375 8.203125 
z
M 48.6875 27.296875 
Q 48.6875 37.203125 44.609375 42.84375 
Q 40.53125 48.484375 33.40625 48.484375 
Q 26.265625 48.484375 22.1875 42.84375 
Q 18.109375 37.203125 18.109375 27.296875 
Q 18.109375 17.390625 22.1875 11.75 
Q 26.265625 6.109375 33.40625 6.109375 
Q 40.53125 6.109375 44.609375 11.75 
Q 48.6875 17.390625 48.6875 27.296875 
z
" id="DejaVuSans-112"/>
       <path d="M 41.109375 46.296875 
Q 39.59375 47.171875 37.8125 47.578125 
Q 36.03125 48 33.890625 48 
Q 26.265625 48 22.1875 43.046875 
Q 18.109375 38.09375 18.109375 28.8125 
L 18.109375 0 
L 9.078125 0 
L 9.078125 54.6875 
L 18.109375 54.6875 
L 18.109375 46.1875 
Q 20.953125 51.171875 25.484375 53.578125 
Q 30.03125 56 36.53125 56 
Q 37.453125 56 38.578125 55.875 
Q 39.703125 55.765625 41.0625 55.515625 
z
" id="DejaVuSans-114"/>
      </defs>
      <g transform="translate(203.006151 160.01124)rotate(-90)scale(0.08 -0.08)">
       <use xlink:href="#DejaVuSans-49"/>
       <use x="63.623047" xlink:href="#DejaVuSans-57"/>
       <use x="127.246094" xlink:href="#DejaVuSans-32"/>
       <use x="159.033203" xlink:href="#DejaVuSans-65"/>
       <use x="227.441406" xlink:href="#DejaVuSans-112"/>
       <use x="290.917969" xlink:href="#DejaVuSans-114"/>
      </g>
     </g>
    </g>
    <g id="xtick_2">
     <g id="line2d_2">
      <g>
       <use style="stroke:#000000;stroke-width:0.8;" x="182.347432" xlink:href="#m438a4a845a" y="126.44874"/>
      </g>
     </g>
     <g id="text_2">
      <!-- 12 Apr -->
      <defs>
       <path d="M 19.1875 8.296875 
L 53.609375 8.296875 
L 53.609375 0 
L 7.328125 0 
L 7.328125 8.296875 
Q 12.9375 14.109375 22.625 23.890625 
Q 32.328125 33.6875 34.8125 36.53125 
Q 39.546875 41.84375 41.421875 45.53125 
Q 43.3125 49.21875 43.3125 52.78125 
Q 43.3125 58.59375 39.234375 62.25 
Q 35.15625 65.921875 28.609375 65.921875 
Q 23.96875 65.921875 18.8125 64.3125 
Q 13.671875 62.703125 7.8125 59.421875 
L 7.8125 69.390625 
Q 13.765625 71.78125 18.9375 73 
Q 24.125 74.21875 28.421875 74.21875 
Q 39.75 74.21875 46.484375 68.546875 
Q 53.21875 62.890625 53.21875 53.421875 
Q 53.21875 48.921875 51.53125 44.890625 
Q 49.859375 40.875 45.40625 35.40625 
Q 44.1875 33.984375 37.640625 27.21875 
Q 31.109375 20.453125 19.1875 8.296875 
z
" id="DejaVuSans-50"/>
      </defs>
      <g transform="translate(184.554932 160.01124)rotate(-90)scale(0.08 -0.08)">
       <use xlink:href="#DejaVuSans-49"/>
       <use x="63.623047" xlink:href="#DejaVuSans-50"/>
       <use x="127.246094" xlink:href="#DejaVuSans-32"/>
       <use x="159.033203" xlink:href="#DejaVuSans-65"/>
       <use x="227.441406" xlink:href="#DejaVuSans-112"/>
       <use x="290.917969" xlink:href="#DejaVuSans-114"/>
      </g>
     </g>
    </g>
    <g id="xtick_3">
     <g id="line2d_3">
      <g>
       <use style="stroke:#000000;stroke-width:0.8;" x="163.896213" xlink:href="#m438a4a845a" y="126.44874"/>
      </g>
     </g>
     <g id="text_3">
      <!-- 5 Apr -->
      <defs>
       <path d="M 10.796875 72.90625 
L 49.515625 72.90625 
L 49.515625 64.59375 
L 19.828125 64.59375 
L 19.828125 46.734375 
Q 21.96875 47.46875 24.109375 47.828125 
Q 26.265625 48.1875 28.421875 48.1875 
Q 40.625 48.1875 47.75 41.5 
Q 54.890625 34.8125 54.890625 23.390625 
Q 54.890625 11.625 47.5625 5.09375 
Q 40.234375 -1.421875 26.90625 -1.421875 
Q 22.3125 -1.421875 17.546875 -0.640625 
Q 12.796875 0.140625 7.71875 1.703125 
L 7.71875 11.625 
Q 12.109375 9.234375 16.796875 8.0625 
Q 21.484375 6.890625 26.703125 6.890625 
Q 35.15625 6.890625 40.078125 11.328125 
Q 45.015625 15.765625 45.015625 23.390625 
Q 45.015625 31 40.078125 35.4375 
Q 35.15625 39.890625 26.703125 39.890625 
Q 22.75 39.890625 18.8125 39.015625 
Q 14.890625 38.140625 10.796875 36.28125 
z
" id="DejaVuSans-53"/>
      </defs>
      <g transform="translate(166.103713 154.92124)rotate(-90)scale(0.08 -0.08)">
       <use xlink:href="#DejaVuSans-53"/>
       <use x="63.623047" xlink:href="#DejaVuSans-32"/>
       <use x="95.410156" xlink:href="#DejaVuSans-65"/>
       <use x="163.818359" xlink:href="#DejaVuSans-112"/>
       <use x="227.294922" xlink:href="#DejaVuSans-114"/>
      </g>
     </g>
    </g>
    <g id="xtick_4">
     <g id="line2d_4">
      <g>
       <use style="stroke:#000000;stroke-width:0.8;" x="145.444995" xlink:href="#m438a4a845a" y="126.44874"/>
      </g>
     </g>
     <g id="text_4">
      <!-- 29 Mar -->
      <defs>
       <path d="M 9.8125 72.90625 
L 24.515625 72.90625 
L 43.109375 23.296875 
L 61.8125 72.90625 
L 76.515625 72.90625 
L 76.515625 0 
L 66.890625 0 
L 66.890625 64.015625 
L 48.09375 14.015625 
L 38.1875 14.015625 
L 19.390625 64.015625 
L 19.390625 0 
L 9.8125 0 
z
" id="DejaVuSans-77"/>
       <path d="M 34.28125 27.484375 
Q 23.390625 27.484375 19.1875 25 
Q 14.984375 22.515625 14.984375 16.5 
Q 14.984375 11.71875 18.140625 8.90625 
Q 21.296875 6.109375 26.703125 6.109375 
Q 34.1875 6.109375 38.703125 11.40625 
Q 43.21875 16.703125 43.21875 25.484375 
L 43.21875 27.484375 
z
M 52.203125 31.203125 
L 52.203125 0 
L 43.21875 0 
L 43.21875 8.296875 
Q 40.140625 3.328125 35.546875 0.953125 
Q 30.953125 -1.421875 24.3125 -1.421875 
Q 15.921875 -1.421875 10.953125 3.296875 
Q 6 8.015625 6 15.921875 
Q 6 25.140625 12.171875 29.828125 
Q 18.359375 34.515625 30.609375 34.515625 
L 43.21875 34.515625 
L 43.21875 35.40625 
Q 43.21875 41.609375 39.140625 45 
Q 35.0625 48.390625 27.6875 48.390625 
Q 23 48.390625 18.546875 47.265625 
Q 14.109375 46.140625 10.015625 43.890625 
L 10.015625 52.203125 
Q 14.9375 54.109375 19.578125 55.046875 
Q 24.21875 56 28.609375 56 
Q 40.484375 56 46.34375 49.84375 
Q 52.203125 43.703125 52.203125 31.203125 
z
" id="DejaVuSans-97"/>
      </defs>
      <g transform="translate(147.652495 161.26499)rotate(-90)scale(0.08 -0.08)">
       <use xlink:href="#DejaVuSans-50"/>
       <use x="63.623047" xlink:href="#DejaVuSans-57"/>
       <use x="127.246094" xlink:href="#DejaVuSans-32"/>
       <use x="159.033203" xlink:href="#DejaVuSans-77"/>
       <use x="245.3125" xlink:href="#DejaVuSans-97"/>
       <use x="306.591797" xlink:href="#DejaVuSans-114"/>
      </g>
     </g>
    </g>
    <g id="xtick_5">
     <g id="line2d_5">
      <g>
       <use style="stroke:#000000;stroke-width:0.8;" x="126.993776" xlink:href="#m438a4a845a" y="126.44874"/>
      </g>
     </g>
     <g id="text_5">
      <!-- 22 Mar -->
      <g transform="translate(129.201276 161.26499)rotate(-90)scale(0.08 -0.08)">
       <use xlink:href="#DejaVuSans-50"/>
       <use x="63.623047" xlink:href="#DejaVuSans-50"/>
       <use x="127.246094" xlink:href="#DejaVuSans-32"/>
       <use x="159.033203" xlink:href="#DejaVuSans-77"/>
       <use x="245.3125" xlink:href="#DejaVuSans-97"/>
       <use x="306.591797" xlink:href="#DejaVuSans-114"/>
      </g>
     </g>
    </g>
    <g id="xtick_6">
     <g id="line2d_6">
      <g>
       <use style="stroke:#000000;stroke-width:0.8;" x="108.542557" xlink:href="#m438a4a845a" y="126.44874"/>
      </g>
     </g>
     <g id="text_6">
      <!-- 15 Mar -->
      <g transform="translate(110.750057 161.26499)rotate(-90)scale(0.08 -0.08)">
       <use xlink:href="#DejaVuSans-49"/>
       <use x="63.623047" xlink:href="#DejaVuSans-53"/>
       <use x="127.246094" xlink:href="#DejaVuSans-32"/>
       <use x="159.033203" xlink:href="#DejaVuSans-77"/>
       <use x="245.3125" xlink:href="#DejaVuSans-97"/>
       <use x="306.591797" xlink:href="#DejaVuSans-114"/>
      </g>
     </g>
    </g>
    <g id="xtick_7">
     <g id="line2d_7">
      <g>
       <use style="stroke:#000000;stroke-width:0.8;" x="90.091339" xlink:href="#m438a4a845a" y="126.44874"/>
      </g>
     </g>
     <g id="text_7">
      <!-- 8 Mar -->
      <defs>
       <path d="M 31.78125 34.625 
Q 24.75 34.625 20.71875 30.859375 
Q 16.703125 27.09375 16.703125 20.515625 
Q 16.703125 13.921875 20.71875 10.15625 
Q 24.75 6.390625 31.78125 6.390625 
Q 38.8125 6.390625 42.859375 10.171875 
Q 46.921875 13.96875 46.921875 20.515625 
Q 46.921875 27.09375 42.890625 30.859375 
Q 38.875 34.625 31.78125 34.625 
z
M 21.921875 38.8125 
Q 15.578125 40.375 12.03125 44.71875 
Q 8.5 49.078125 8.5 55.328125 
Q 8.5 64.0625 14.71875 69.140625 
Q 20.953125 74.21875 31.78125 74.21875 
Q 42.671875 74.21875 48.875 69.140625 
Q 55.078125 64.0625 55.078125 55.328125 
Q 55.078125 49.078125 51.53125 44.71875 
Q 48 40.375 41.703125 38.8125 
Q 48.828125 37.15625 52.796875 32.3125 
Q 56.78125 27.484375 56.78125 20.515625 
Q 56.78125 9.90625 50.3125 4.234375 
Q 43.84375 -1.421875 31.78125 -1.421875 
Q 19.734375 -1.421875 13.25 4.234375 
Q 6.78125 9.90625 6.78125 20.515625 
Q 6.78125 27.484375 10.78125 32.3125 
Q 14.796875 37.15625 21.921875 38.8125 
z
M 18.3125 54.390625 
Q 18.3125 48.734375 21.84375 45.5625 
Q 25.390625 42.390625 31.78125 42.390625 
Q 38.140625 42.390625 41.71875 45.5625 
Q 45.3125 48.734375 45.3125 54.390625 
Q 45.3125 60.0625 41.71875 63.234375 
Q 38.140625 66.40625 31.78125 66.40625 
Q 25.390625 66.40625 21.84375 63.234375 
Q 18.3125 60.0625 18.3125 54.390625 
z
" id="DejaVuSans-56"/>
      </defs>
      <g transform="translate(92.298839 156.17499)rotate(-90)scale(0.08 -0.08)">
       <use xlink:href="#DejaVuSans-56"/>
       <use x="63.623047" xlink:href="#DejaVuSans-32"/>
       <use x="95.410156" xlink:href="#DejaVuSans-77"/>
       <use x="181.689453" xlink:href="#DejaVuSans-97"/>
       <use x="242.96875" xlink:href="#DejaVuSans-114"/>
      </g>
     </g>
    </g>
    <g id="xtick_8">
     <g id="line2d_8">
      <g>
       <use style="stroke:#000000;stroke-width:0.8;" x="71.64012" xlink:href="#m438a4a845a" y="126.44874"/>
      </g>
     </g>
     <g id="text_8">
      <!-- 1 Mar -->
      <g transform="translate(73.84762 156.17499)rotate(-90)scale(0.08 -0.08)">
       <use xlink:href="#DejaVuSans-49"/>
       <use x="63.623047" xlink:href="#DejaVuSans-32"/>
       <use x="95.410156" xlink:href="#DejaVuSans-77"/>
       <use x="181.689453" xlink:href="#DejaVuSans-97"/>
       <use x="242.96875" xlink:href="#DejaVuSans-114"/>
      </g>
     </g>
    </g>
    <g id="xtick_9">
     <g id="line2d_9">
      <g>
       <use style="stroke:#000000;stroke-width:0.8;" x="53.188901" xlink:href="#m438a4a845a" y="126.44874"/>
      </g>
     </g>
     <g id="text_9">
      <!-- 23 Feb -->
      <defs>
       <path d="M 40.578125 39.3125 
Q 47.65625 37.796875 51.625 33 
Q 55.609375 28.21875 55.609375 21.1875 
Q 55.609375 10.40625 48.1875 4.484375 
Q 40.765625 -1.421875 27.09375 -1.421875 
Q 22.515625 -1.421875 17.65625 -0.515625 
Q 12.796875 0.390625 7.625 2.203125 
L 7.625 11.71875 
Q 11.71875 9.328125 16.59375 8.109375 
Q 21.484375 6.890625 26.8125 6.890625 
Q 36.078125 6.890625 40.9375 10.546875 
Q 45.796875 14.203125 45.796875 21.1875 
Q 45.796875 27.640625 41.28125 31.265625 
Q 36.765625 34.90625 28.71875 34.90625 
L 20.21875 34.90625 
L 20.21875 43.015625 
L 29.109375 43.015625 
Q 36.375 43.015625 40.234375 45.921875 
Q 44.09375 48.828125 44.09375 54.296875 
Q 44.09375 59.90625 40.109375 62.90625 
Q 36.140625 65.921875 28.71875 65.921875 
Q 24.65625 65.921875 20.015625 65.03125 
Q 15.375 64.15625 9.8125 62.3125 
L 9.8125 71.09375 
Q 15.4375 72.65625 20.34375 73.4375 
Q 25.25 74.21875 29.59375 74.21875 
Q 40.828125 74.21875 47.359375 69.109375 
Q 53.90625 64.015625 53.90625 55.328125 
Q 53.90625 49.265625 50.4375 45.09375 
Q 46.96875 40.921875 40.578125 39.3125 
z
" id="DejaVuSans-51"/>
       <path d="M 9.8125 72.90625 
L 51.703125 72.90625 
L 51.703125 64.59375 
L 19.671875 64.59375 
L 19.671875 43.109375 
L 48.578125 43.109375 
L 48.578125 34.8125 
L 19.671875 34.8125 
L 19.671875 0 
L 9.8125 0 
z
" id="DejaVuSans-70"/>
       <path d="M 56.203125 29.59375 
L 56.203125 25.203125 
L 14.890625 25.203125 
Q 15.484375 15.921875 20.484375 11.0625 
Q 25.484375 6.203125 34.421875 6.203125 
Q 39.59375 6.203125 44.453125 7.46875 
Q 49.3125 8.734375 54.109375 11.28125 
L 54.109375 2.78125 
Q 49.265625 0.734375 44.1875 -0.34375 
Q 39.109375 -1.421875 33.890625 -1.421875 
Q 20.796875 -1.421875 13.15625 6.1875 
Q 5.515625 13.8125 5.515625 26.8125 
Q 5.515625 40.234375 12.765625 48.109375 
Q 20.015625 56 32.328125 56 
Q 43.359375 56 49.78125 48.890625 
Q 56.203125 41.796875 56.203125 29.59375 
z
M 47.21875 32.234375 
Q 47.125 39.59375 43.09375 43.984375 
Q 39.0625 48.390625 32.421875 48.390625 
Q 24.90625 48.390625 20.390625 44.140625 
Q 15.875 39.890625 15.1875 32.171875 
z
" id="DejaVuSans-101"/>
       <path d="M 48.6875 27.296875 
Q 48.6875 37.203125 44.609375 42.84375 
Q 40.53125 48.484375 33.40625 48.484375 
Q 26.265625 48.484375 22.1875 42.84375 
Q 18.109375 37.203125 18.109375 27.296875 
Q 18.109375 17.390625 22.1875 11.75 
Q 26.265625 6.109375 33.40625 6.109375 
Q 40.53125 6.109375 44.609375 11.75 
Q 48.6875 17.390625 48.6875 27.296875 
z
M 18.109375 46.390625 
Q 20.953125 51.265625 25.265625 53.625 
Q 29.59375 56 35.59375 56 
Q 45.5625 56 51.78125 48.09375 
Q 58.015625 40.1875 58.015625 27.296875 
Q 58.015625 14.40625 51.78125 6.484375 
Q 45.5625 -1.421875 35.59375 -1.421875 
Q 29.59375 -1.421875 25.265625 0.953125 
Q 20.953125 3.328125 18.109375 8.203125 
L 18.109375 0 
L 9.078125 0 
L 9.078125 75.984375 
L 18.109375 75.984375 
z
" id="DejaVuSans-98"/>
      </defs>
      <g transform="translate(55.396401 160.33374)rotate(-90)scale(0.08 -0.08)">
       <use xlink:href="#DejaVuSans-50"/>
       <use x="63.623047" xlink:href="#DejaVuSans-51"/>
       <use x="127.246094" xlink:href="#DejaVuSans-32"/>
       <use x="159.033203" xlink:href="#DejaVuSans-70"/>
       <use x="211.052734" xlink:href="#DejaVuSans-101"/>
       <use x="272.576172" xlink:href="#DejaVuSans-98"/>
      </g>
     </g>
    </g>
   </g>
   <g id="matplotlib.axis_2">
    <g id="ytick_1">
     <g id="line2d_10">
      <defs>
       <path d="M 0 0 
L -3.5 0 
" id="m32f256064e" style="stroke:#000000;stroke-width:0.8;"/>
      </defs>
      <g>
       <use style="stroke:#000000;stroke-width:0.8;" x="31.97" xlink:href="#m32f256064e" y="126.44874"/>
      </g>
     </g>
     <g id="text_10">
      <!-- 0 -->
      <defs>
       <path d="M 31.78125 66.40625 
Q 24.171875 66.40625 20.328125 58.90625 
Q 16.5 51.421875 16.5 36.375 
Q 16.5 21.390625 20.328125 13.890625 
Q 24.171875 6.390625 31.78125 6.390625 
Q 39.453125 6.390625 43.28125 13.890625 
Q 47.125 21.390625 47.125 36.375 
Q 47.125 51.421875 43.28125 58.90625 
Q 39.453125 66.40625 31.78125 66.40625 
z
M 31.78125 74.21875 
Q 44.046875 74.21875 50.515625 64.515625 
Q 56.984375 54.828125 56.984375 36.375 
Q 56.984375 17.96875 50.515625 8.265625 
Q 44.046875 -1.421875 31.78125 -1.421875 
Q 19.53125 -1.421875 13.0625 8.265625 
Q 6.59375 17.96875 6.59375 36.375 
Q 6.59375 54.828125 13.0625 64.515625 
Q 19.53125 74.21875 31.78125 74.21875 
z
" id="DejaVuSans-48"/>
      </defs>
      <g transform="translate(19.88 129.488115)scale(0.08 -0.08)">
       <use xlink:href="#DejaVuSans-48"/>
      </g>
     </g>
    </g>
    <g id="ytick_2">
     <g id="line2d_11">
      <g>
       <use style="stroke:#000000;stroke-width:0.8;" x="31.97" xlink:href="#m32f256064e" y="106.538778"/>
      </g>
     </g>
     <g id="text_11">
      <!-- 1 -->
      <g transform="translate(19.88 109.578153)scale(0.08 -0.08)">
       <use xlink:href="#DejaVuSans-49"/>
      </g>
     </g>
    </g>
    <g id="ytick_3">
     <g id="line2d_12">
      <g>
       <use style="stroke:#000000;stroke-width:0.8;" x="31.97" xlink:href="#m32f256064e" y="86.628816"/>
      </g>
     </g>
     <g id="text_12">
      <!-- 2 -->
      <g transform="translate(19.88 89.668191)scale(0.08 -0.08)">
       <use xlink:href="#DejaVuSans-50"/>
      </g>
     </g>
    </g>
    <g id="ytick_4">
     <g id="line2d_13">
      <g>
       <use style="stroke:#000000;stroke-width:0.8;" x="31.97" xlink:href="#m32f256064e" y="66.718854"/>
      </g>
     </g>
     <g id="text_13">
      <!-- 3 -->
      <g transform="translate(19.88 69.758229)scale(0.08 -0.08)">
       <use xlink:href="#DejaVuSans-51"/>
      </g>
     </g>
    </g>
    <g id="ytick_5">
     <g id="line2d_14">
      <g>
       <use style="stroke:#000000;stroke-width:0.8;" x="31.97" xlink:href="#m32f256064e" y="46.808892"/>
      </g>
     </g>
     <g id="text_14">
      <!-- 4 -->
      <defs>
       <path d="M 37.796875 64.3125 
L 12.890625 25.390625 
L 37.796875 25.390625 
z
M 35.203125 72.90625 
L 47.609375 72.90625 
L 47.609375 25.390625 
L 58.015625 25.390625 
L 58.015625 17.1875 
L 47.609375 17.1875 
L 47.609375 0 
L 37.796875 0 
L 37.796875 17.1875 
L 4.890625 17.1875 
L 4.890625 26.703125 
z
" id="DejaVuSans-52"/>
      </defs>
      <g transform="translate(19.88 49.848267)scale(0.08 -0.08)">
       <use xlink:href="#DejaVuSans-52"/>
      </g>
     </g>
    </g>
    <g id="ytick_6">
     <g id="line2d_15">
      <g>
       <use style="stroke:#000000;stroke-width:0.8;" x="31.97" xlink:href="#m32f256064e" y="26.89893"/>
      </g>
     </g>
     <g id="text_15">
      <!-- 5 -->
      <g transform="translate(19.88 29.938305)scale(0.08 -0.08)">
       <use xlink:href="#DejaVuSans-53"/>
      </g>
     </g>
    </g>
    <g id="text_16">
     <!-- Rt -->
     <defs>
      <path d="M 44.390625 34.1875 
Q 47.5625 33.109375 50.5625 29.59375 
Q 53.5625 26.078125 56.59375 19.921875 
L 66.609375 0 
L 56 0 
L 46.6875 18.703125 
Q 43.0625 26.03125 39.671875 28.421875 
Q 36.28125 30.8125 30.421875 30.8125 
L 19.671875 30.8125 
L 19.671875 0 
L 9.8125 0 
L 9.8125 72.90625 
L 32.078125 72.90625 
Q 44.578125 72.90625 50.734375 67.671875 
Q 56.890625 62.453125 56.890625 51.90625 
Q 56.890625 45.015625 53.6875 40.46875 
Q 50.484375 35.9375 44.390625 34.1875 
z
M 19.671875 64.796875 
L 19.671875 38.921875 
L 32.078125 38.921875 
Q 39.203125 38.921875 42.84375 42.21875 
Q 46.484375 45.515625 46.484375 51.90625 
Q 46.484375 58.296875 42.84375 61.546875 
Q 39.203125 64.796875 32.078125 64.796875 
z
" id="DejaVuSans-82"/>
      <path d="M 18.3125 70.21875 
L 18.3125 54.6875 
L 36.8125 54.6875 
L 36.8125 47.703125 
L 18.3125 47.703125 
L 18.3125 18.015625 
Q 18.3125 11.328125 20.140625 9.421875 
Q 21.96875 7.515625 27.59375 7.515625 
L 36.8125 7.515625 
L 36.8125 0 
L 27.59375 0 
Q 17.1875 0 13.234375 3.875 
Q 9.28125 7.765625 9.28125 18.015625 
L 9.28125 47.703125 
L 2.6875 47.703125 
L 2.6875 54.6875 
L 9.28125 54.6875 
L 9.28125 70.21875 
z
" id="DejaVuSans-116"/>
     </defs>
     <g transform="translate(14.21625 73.33187)rotate(-90)scale(0.08 -0.08)">
      <use xlink:href="#DejaVuSans-82"/>
      <use x="69.482422" xlink:href="#DejaVuSans-116"/>
     </g>
    </g>
   </g>
   <g id="line2d_16">
    <path clip-path="url(#p5b4f7e70ba)" d="M 40.00946 65.832227 
L 42.645348 63.498113 
L 45.281236 63.849 
L 47.917125 65.574447 
L 50.553013 67.622607 
L 53.188901 65.10102 
L 55.82479 65.593861 
L 58.460678 43.057227 
L 61.096567 61.220179 
L 63.732455 56.365871 
L 66.368343 61.02415 
L 69.004232 55.327992 
L 71.64012 69.76085 
L 74.276008 61.215102 
L 76.911897 61.332622 
L 79.547785 67.815572 
L 82.183674 59.067429 
L 84.819562 63.236116 
L 87.45545 55.476439 
L 90.091339 69.585053 
L 92.727227 65.649874 
L 95.363116 63.718378 
L 97.999004 57.223744 
L 100.634892 40.228991 
L 103.270781 49.87387 
L 105.906669 46.225364 
L 108.542557 73.059166 
L 111.178446 63.425516 
L 113.814334 70.510328 
L 116.450223 76.750442 
L 119.086111 74.821752 
L 121.721999 80.048597 
L 124.357888 78.428208 
L 126.993776 84.620398 
L 129.629664 84.428322 
L 132.265553 83.012932 
L 134.901441 69.164144 
L 137.53733 74.627051 
L 140.173218 79.7124 
L 142.809106 76.844363 
L 145.444995 86.147106 
" style="fill:none;stroke:#0000ff;stroke-linecap:square;stroke-opacity:0.5;"/>
   </g>
   <g id="line2d_17">
    <path clip-path="url(#p5b4f7e70ba)" d="M 148.080883 86.147106 
L 150.716771 86.147106 
L 153.35266 86.147106 
L 155.988548 86.147106 
L 158.624437 86.147106 
L 161.260325 86.147106 
L 163.896213 86.147106 
L 166.532102 86.147106 
L 169.16799 86.147106 
L 171.803879 86.147106 
L 174.439767 86.147106 
L 177.075655 86.147106 
L 179.711544 86.147106 
L 182.347432 86.147106 
L 184.98332 86.147106 
L 187.619209 86.147106 
L 190.255097 86.147106 
L 192.890986 86.147106 
L 195.526874 86.147106 
L 198.162762 86.147106 
L 200.798651 86.147106 
" style="fill:none;stroke:#008000;stroke-linecap:square;stroke-opacity:0.5;"/>
   </g>
   <g id="line2d_18">
    <path clip-path="url(#p5b4f7e70ba)" d="M 100.634892 126.44874 
L 100.634892 11.52 
" style="fill:none;stroke:#0000ff;stroke-dasharray:1.85,0.8;stroke-dashoffset:0;stroke-width:0.5;"/>
   </g>
   <g id="line2d_19">
    <path clip-path="url(#p5b4f7e70ba)" d="M 116.450223 126.44874 
L 116.450223 11.52 
" style="fill:none;stroke:#0000ff;stroke-dasharray:1.85,0.8;stroke-dashoffset:0;stroke-width:0.5;"/>
   </g>
   <g id="line2d_20">
    <path clip-path="url(#p5b4f7e70ba)" d="M 111.178446 126.44874 
L 111.178446 11.52 
" style="fill:none;stroke:#0000ff;stroke-dasharray:1.85,0.8;stroke-dashoffset:0;stroke-width:0.5;"/>
   </g>
   <g id="line2d_21">
    <path clip-path="url(#p5b4f7e70ba)" d="M 95.363116 126.44874 
L 95.363116 11.52 
" style="fill:none;stroke:#0000ff;stroke-dasharray:1.85,0.8;stroke-dashoffset:0;stroke-width:0.5;"/>
   </g>
   <g id="patch_3">
    <path d="M 31.97 126.44874 
L 31.97 11.52 
" style="fill:none;stroke:#000000;stroke-linecap:square;stroke-linejoin:miter;stroke-width:0.8;"/>
   </g>
   <g id="patch_4">
    <path d="M 208.83811 126.44874 
L 208.83811 11.52 
" style="fill:none;stroke:#000000;stroke-linecap:square;stroke-linejoin:miter;stroke-width:0.8;"/>
   </g>
   <g id="patch_5">
    <path d="M 31.97 126.44874 
L 208.83811 126.44874 
" style="fill:none;stroke:#000000;stroke-linecap:square;stroke-linejoin:miter;stroke-width:0.8;"/>
   </g>
   <g id="patch_6">
    <path d="M 31.97 11.52 
L 208.83811 11.52 
" style="fill:none;stroke:#000000;stroke-linecap:square;stroke-linejoin:miter;stroke-width:0.8;"/>
   </g>
  </g>
  <g id="axes_2">
   <g id="matplotlib.axis_3">
    <g id="ytick_7">
     <g id="line2d_22">
      <defs>
       <path d="M 0 0 
L 3.5 0 
" id="m5be8738b7f" style="stroke:#000000;stroke-width:0.8;"/>
      </defs>
      <g>
       <use style="stroke:#000000;stroke-width:0.8;" x="208.83811" xlink:href="#m5be8738b7f" y="126.44874"/>
      </g>
     </g>
     <g id="text_17">
      <!-- −1.0 -->
      <defs>
       <path d="M 10.59375 35.5 
L 73.1875 35.5 
L 73.1875 27.203125 
L 10.59375 27.203125 
z
" id="DejaVuSans-8722"/>
       <path d="M 10.6875 12.40625 
L 21 12.40625 
L 21 0 
L 10.6875 0 
z
" id="DejaVuSans-46"/>
      </defs>
      <g transform="translate(215.83811 129.488115)scale(0.08 -0.08)">
       <use xlink:href="#DejaVuSans-8722"/>
       <use x="83.789062" xlink:href="#DejaVuSans-49"/>
       <use x="147.412109" xlink:href="#DejaVuSans-46"/>
       <use x="179.199219" xlink:href="#DejaVuSans-48"/>
      </g>
     </g>
    </g>
    <g id="ytick_8">
     <g id="line2d_23">
      <g>
       <use style="stroke:#000000;stroke-width:0.8;" x="208.83811" xlink:href="#m5be8738b7f" y="85.402762"/>
      </g>
     </g>
     <g id="text_18">
      <!-- −0.5 -->
      <g transform="translate(215.83811 88.442137)scale(0.08 -0.08)">
       <use xlink:href="#DejaVuSans-8722"/>
       <use x="83.789062" xlink:href="#DejaVuSans-48"/>
       <use x="147.412109" xlink:href="#DejaVuSans-46"/>
       <use x="179.199219" xlink:href="#DejaVuSans-53"/>
      </g>
     </g>
    </g>
    <g id="ytick_9">
     <g id="line2d_24">
      <g>
       <use style="stroke:#000000;stroke-width:0.8;" x="208.83811" xlink:href="#m5be8738b7f" y="44.356783"/>
      </g>
     </g>
     <g id="text_19">
      <!-- 0.0 -->
      <g transform="translate(215.83811 47.396158)scale(0.08 -0.08)">
       <use xlink:href="#DejaVuSans-48"/>
       <use x="63.623047" xlink:href="#DejaVuSans-46"/>
       <use x="95.410156" xlink:href="#DejaVuSans-48"/>
      </g>
     </g>
    </g>
    <g id="ytick_10">
     <g id="line2d_25">
      <g>
       <use style="stroke:#000000;stroke-width:0.8;" x="208.83811" xlink:href="#m5be8738b7f" y="11.52"/>
      </g>
     </g>
     <g id="text_20">
      <!-- 0.4 -->
      <g transform="translate(215.83811 14.559375)scale(0.08 -0.08)">
       <use xlink:href="#DejaVuSans-48"/>
       <use x="63.623047" xlink:href="#DejaVuSans-46"/>
       <use x="95.410156" xlink:href="#DejaVuSans-52"/>
      </g>
     </g>
    </g>
    <g id="text_21">
     <!-- Relative change -->
     <defs>
      <path d="M 9.421875 75.984375 
L 18.40625 75.984375 
L 18.40625 0 
L 9.421875 0 
z
" id="DejaVuSans-108"/>
      <path d="M 9.421875 54.6875 
L 18.40625 54.6875 
L 18.40625 0 
L 9.421875 0 
z
M 9.421875 75.984375 
L 18.40625 75.984375 
L 18.40625 64.59375 
L 9.421875 64.59375 
z
" id="DejaVuSans-105"/>
      <path d="M 2.984375 54.6875 
L 12.5 54.6875 
L 29.59375 8.796875 
L 46.6875 54.6875 
L 56.203125 54.6875 
L 35.6875 0 
L 23.484375 0 
z
" id="DejaVuSans-118"/>
      <path d="M 48.78125 52.59375 
L 48.78125 44.1875 
Q 44.96875 46.296875 41.140625 47.34375 
Q 37.3125 48.390625 33.40625 48.390625 
Q 24.65625 48.390625 19.8125 42.84375 
Q 14.984375 37.3125 14.984375 27.296875 
Q 14.984375 17.28125 19.8125 11.734375 
Q 24.65625 6.203125 33.40625 6.203125 
Q 37.3125 6.203125 41.140625 7.25 
Q 44.96875 8.296875 48.78125 10.40625 
L 48.78125 2.09375 
Q 45.015625 0.34375 40.984375 -0.53125 
Q 36.96875 -1.421875 32.421875 -1.421875 
Q 20.0625 -1.421875 12.78125 6.34375 
Q 5.515625 14.109375 5.515625 27.296875 
Q 5.515625 40.671875 12.859375 48.328125 
Q 20.21875 56 33.015625 56 
Q 37.15625 56 41.109375 55.140625 
Q 45.0625 54.296875 48.78125 52.59375 
z
" id="DejaVuSans-99"/>
      <path d="M 54.890625 33.015625 
L 54.890625 0 
L 45.90625 0 
L 45.90625 32.71875 
Q 45.90625 40.484375 42.875 44.328125 
Q 39.84375 48.1875 33.796875 48.1875 
Q 26.515625 48.1875 22.3125 43.546875 
Q 18.109375 38.921875 18.109375 30.90625 
L 18.109375 0 
L 9.078125 0 
L 9.078125 75.984375 
L 18.109375 75.984375 
L 18.109375 46.1875 
Q 21.34375 51.125 25.703125 53.5625 
Q 30.078125 56 35.796875 56 
Q 45.21875 56 50.046875 50.171875 
Q 54.890625 44.34375 54.890625 33.015625 
z
" id="DejaVuSans-104"/>
      <path d="M 54.890625 33.015625 
L 54.890625 0 
L 45.90625 0 
L 45.90625 32.71875 
Q 45.90625 40.484375 42.875 44.328125 
Q 39.84375 48.1875 33.796875 48.1875 
Q 26.515625 48.1875 22.3125 43.546875 
Q 18.109375 38.921875 18.109375 30.90625 
L 18.109375 0 
L 9.078125 0 
L 9.078125 54.6875 
L 18.109375 54.6875 
L 18.109375 46.1875 
Q 21.34375 51.125 25.703125 53.5625 
Q 30.078125 56 35.796875 56 
Q 45.21875 56 50.046875 50.171875 
Q 54.890625 44.34375 54.890625 33.015625 
z
" id="DejaVuSans-110"/>
      <path d="M 45.40625 27.984375 
Q 45.40625 37.75 41.375 43.109375 
Q 37.359375 48.484375 30.078125 48.484375 
Q 22.859375 48.484375 18.828125 43.109375 
Q 14.796875 37.75 14.796875 27.984375 
Q 14.796875 18.265625 18.828125 12.890625 
Q 22.859375 7.515625 30.078125 7.515625 
Q 37.359375 7.515625 41.375 12.890625 
Q 45.40625 18.265625 45.40625 27.984375 
z
M 54.390625 6.78125 
Q 54.390625 -7.171875 48.1875 -13.984375 
Q 42 -20.796875 29.203125 -20.796875 
Q 24.46875 -20.796875 20.265625 -20.09375 
Q 16.0625 -19.390625 12.109375 -17.921875 
L 12.109375 -9.1875 
Q 16.0625 -11.328125 19.921875 -12.34375 
Q 23.78125 -13.375 27.78125 -13.375 
Q 36.625 -13.375 41.015625 -8.765625 
Q 45.40625 -4.15625 45.40625 5.171875 
L 45.40625 9.625 
Q 42.625 4.78125 38.28125 2.390625 
Q 33.9375 0 27.875 0 
Q 17.828125 0 11.671875 7.65625 
Q 5.515625 15.328125 5.515625 27.984375 
Q 5.515625 40.671875 11.671875 48.328125 
Q 17.828125 56 27.875 56 
Q 33.9375 56 38.28125 53.609375 
Q 42.625 51.21875 45.40625 46.390625 
L 45.40625 54.6875 
L 54.390625 54.6875 
z
" id="DejaVuSans-103"/>
     </defs>
     <g transform="translate(245.34311 101.10812)rotate(-90)scale(0.08 -0.08)">
      <use xlink:href="#DejaVuSans-82"/>
      <use x="64.982422" xlink:href="#DejaVuSans-101"/>
      <use x="126.505859" xlink:href="#DejaVuSans-108"/>
      <use x="154.289062" xlink:href="#DejaVuSans-97"/>
      <use x="215.568359" xlink:href="#DejaVuSans-116"/>
      <use x="254.777344" xlink:href="#DejaVuSans-105"/>
      <use x="282.560547" xlink:href="#DejaVuSans-118"/>
      <use x="341.740234" xlink:href="#DejaVuSans-101"/>
      <use x="403.263672" xlink:href="#DejaVuSans-32"/>
      <use x="435.050781" xlink:href="#DejaVuSans-99"/>
      <use x="490.03125" xlink:href="#DejaVuSans-104"/>
      <use x="553.410156" xlink:href="#DejaVuSans-97"/>
      <use x="614.689453" xlink:href="#DejaVuSans-110"/>
      <use x="678.068359" xlink:href="#DejaVuSans-103"/>
      <use x="741.544922" xlink:href="#DejaVuSans-101"/>
     </g>
    </g>
   </g>
   <g id="line2d_26">
    <path clip-path="url(#p5b4f7e70ba)" d="M 40.00946 44.356783 
L 42.645348 41.894024 
L 45.281236 43.535863 
L 47.917125 40.252185 
L 50.553013 44.356783 
L 53.188901 42.714944 
L 55.82479 42.714944 
L 58.460678 37.789426 
L 61.096567 40.252185 
L 63.732455 38.610346 
L 66.368343 38.610346 
L 69.004232 37.789426 
L 71.64012 45.177702 
L 74.276008 43.535863 
L 76.911897 44.356783 
L 79.547785 45.998622 
L 82.183674 44.356783 
L 84.819562 42.714944 
L 87.45545 40.252185 
L 90.091339 43.535863 
L 92.727227 45.998622 
L 95.363116 47.640461 
L 97.999004 47.640461 
L 100.634892 54.207818 
L 103.270781 55.028737 
L 105.906669 58.312416 
L 108.542557 64.879772 
L 111.178446 59.954255 
L 113.814334 64.058853 
L 116.450223 65.700692 
L 119.086111 62.417013 
L 121.721999 64.058853 
L 124.357888 65.700692 
L 126.993776 65.700692 
L 129.629664 64.879772 
L 132.265553 64.879772 
L 134.901441 59.954255 
L 137.53733 59.133335 
L 140.173218 59.954255 
L 142.809106 64.058853 
L 145.444995 64.058853 
" style="fill:none;stroke:#d62728;stroke-linecap:square;stroke-opacity:0.5;"/>
   </g>
   <g id="line2d_27">
    <path clip-path="url(#p5b4f7e70ba)" d="M 40.00946 44.356783 
L 42.645348 43.535863 
L 45.281236 43.535863 
L 47.917125 44.356783 
L 50.553013 45.177702 
L 53.188901 44.356783 
L 55.82479 44.356783 
L 58.460678 36.968507 
L 61.096567 42.714944 
L 63.732455 41.073105 
L 66.368343 42.714944 
L 69.004232 41.073105 
L 71.64012 45.998622 
L 74.276008 42.714944 
L 76.911897 42.714944 
L 79.547785 45.177702 
L 82.183674 41.894024 
L 84.819562 43.535863 
L 87.45545 41.073105 
L 90.091339 45.998622 
L 92.727227 44.356783 
L 95.363116 43.535863 
L 97.999004 41.073105 
L 100.634892 35.326668 
L 103.270781 37.789426 
L 105.906669 36.968507 
L 108.542557 45.998622 
L 111.178446 41.894024 
L 113.814334 44.356783 
L 116.450223 46.819542 
L 119.086111 45.998622 
L 121.721999 48.461381 
L 124.357888 48.461381 
L 126.993776 51.745059 
L 129.629664 50.924139 
L 132.265553 50.10322 
L 134.901441 43.535863 
L 137.53733 45.998622 
L 140.173218 48.461381 
L 142.809106 47.640461 
L 145.444995 52.565979 
" style="fill:none;stroke:#9467bd;stroke-linecap:square;stroke-opacity:0.5;"/>
   </g>
   <g id="line2d_28">
    <path clip-path="url(#p5b4f7e70ba)" d="M 40.00946 47.640461 
L 42.645348 46.819542 
L 45.281236 49.2823 
L 47.917125 45.998622 
L 50.553013 45.998622 
L 53.188901 44.356783 
L 55.82479 46.819542 
L 58.460678 46.819542 
L 61.096567 48.461381 
L 63.732455 45.998622 
L 66.368343 45.177702 
L 69.004232 40.252185 
L 71.64012 49.2823 
L 74.276008 46.819542 
L 76.911897 47.640461 
L 79.547785 48.461381 
L 82.183674 47.640461 
L 84.819562 45.177702 
L 87.45545 39.431265 
L 90.091339 49.2823 
L 92.727227 48.461381 
L 95.363116 49.2823 
L 97.999004 50.10322 
L 100.634892 57.491496 
L 103.270781 59.954255 
L 105.906669 55.028737 
L 108.542557 68.98437 
L 111.178446 64.879772 
L 113.814334 70.626209 
L 116.450223 74.730807 
L 119.086111 73.088968 
L 121.721999 74.730807 
L 124.357888 67.342531 
L 126.993776 71.447129 
L 129.629664 75.551727 
L 132.265553 74.730807 
L 134.901441 73.909888 
L 137.53733 73.088968 
L 140.173218 73.088968 
L 142.809106 68.163451 
L 145.444995 73.909888 
" style="fill:none;stroke:#e377c2;stroke-linecap:square;stroke-opacity:0.5;"/>
   </g>
   <g id="line2d_29">
    <path clip-path="url(#p5b4f7e70ba)" d="M 40.00946 48.461381 
L 42.645348 48.461381 
L 45.281236 49.2823 
L 47.917125 50.10322 
L 50.553013 46.819542 
L 53.188901 45.177702 
L 55.82479 47.640461 
L 58.460678 47.640461 
L 61.096567 47.640461 
L 63.732455 48.461381 
L 66.368343 49.2823 
L 69.004232 44.356783 
L 71.64012 45.998622 
L 74.276008 45.998622 
L 76.911897 45.998622 
L 79.547785 45.998622 
L 82.183674 45.998622 
L 84.819562 45.998622 
L 87.45545 44.356783 
L 90.091339 45.177702 
L 92.727227 44.356783 
L 95.363116 44.356783 
L 97.999004 45.177702 
L 100.634892 47.640461 
L 103.270781 52.565979 
L 105.906669 49.2823 
L 108.542557 52.565979 
L 111.178446 58.312416 
L 113.814334 61.596094 
L 116.450223 66.521611 
L 119.086111 67.342531 
L 121.721999 67.342531 
L 124.357888 55.028737 
L 126.993776 56.670576 
L 129.629664 66.521611 
L 132.265553 67.342531 
L 134.901441 67.342531 
L 137.53733 67.342531 
L 140.173218 68.163451 
L 142.809106 56.670576 
L 145.444995 59.133335 
" style="fill:none;stroke:#bcbd22;stroke-linecap:square;stroke-opacity:0.5;"/>
   </g>
   <g id="line2d_30">
    <path clip-path="url(#p5b4f7e70ba)" d="M 40.00946 43.535863 
L 42.645348 43.535863 
L 45.281236 43.535863 
L 47.917125 43.535863 
L 50.553013 43.535863 
L 53.188901 44.356783 
L 55.82479 43.535863 
L 58.460678 43.535863 
L 61.096567 43.535863 
L 63.732455 43.535863 
L 66.368343 43.535863 
L 69.004232 44.356783 
L 71.64012 43.535863 
L 74.276008 43.535863 
L 76.911897 43.535863 
L 79.547785 43.535863 
L 82.183674 43.535863 
L 84.819562 43.535863 
L 87.45545 44.356783 
L 90.091339 43.535863 
L 92.727227 43.535863 
L 95.363116 43.535863 
L 97.999004 42.714944 
L 100.634892 41.073105 
L 103.270781 39.431265 
L 105.906669 41.894024 
L 108.542557 40.252185 
L 111.178446 37.789426 
L 113.814334 36.968507 
L 116.450223 35.326668 
L 119.086111 35.326668 
L 121.721999 34.505748 
L 124.357888 39.431265 
L 126.993776 40.252185 
L 129.629664 35.326668 
L 132.265553 35.326668 
L 134.901441 35.326668 
L 137.53733 35.326668 
L 140.173218 35.326668 
L 142.809106 39.431265 
L 145.444995 40.252185 
" style="fill:none;stroke:#17becf;stroke-linecap:square;stroke-opacity:0.5;"/>
   </g>
   <g id="patch_7">
    <path d="M 31.97 126.44874 
L 31.97 11.52 
" style="fill:none;stroke:#000000;stroke-linecap:square;stroke-linejoin:miter;stroke-width:0.8;"/>
   </g>
   <g id="patch_8">
    <path d="M 208.83811 126.44874 
L 208.83811 11.52 
" style="fill:none;stroke:#000000;stroke-linecap:square;stroke-linejoin:miter;stroke-width:0.8;"/>
   </g>
   <g id="patch_9">
    <path d="M 31.97 126.44874 
L 208.83811 126.44874 
" style="fill:none;stroke:#000000;stroke-linecap:square;stroke-linejoin:miter;stroke-width:0.8;"/>
   </g>
   <g id="patch_10">
    <path d="M 31.97 11.52 
L 208.83811 11.52 
" style="fill:none;stroke:#000000;stroke-linecap:square;stroke-linejoin:miter;stroke-width:0.8;"/>
   </g>
  </g>
 </g>
 <defs>
  <clipPath id="p5b4f7e70ba">
   <rect height="114.92874" width="176.86811" x="31.97" y="11.52"/>
  </clipPath>
 </defs>
</svg>
