<?xml version="1.0" encoding="utf-8" standalone="no"?>
<!DOCTYPE svg PUBLIC "-//W3C//DTD SVG 1.1//EN"
  "http://www.w3.org/Graphics/SVG/1.1/DTD/svg11.dtd">
<!-- Created with matplotlib (https://matplotlib.org/) -->
<svg height="170.07874pt" version="1.1" viewBox="0 0 255.11811 170.07874" width="255.11811pt" xmlns="http://www.w3.org/2000/svg" xmlns:xlink="http://www.w3.org/1999/xlink">
 <defs>
  <style type="text/css">
*{stroke-linecap:butt;stroke-linejoin:round;}
  </style>
 </defs>
 <g id="figure_1">
  <g id="patch_1">
   <path d="M 0 170.07874 
L 255.11811 170.07874 
L 255.11811 0 
L 0 0 
z
" style="fill:#ffffff;"/>
  </g>
  <g id="axes_1">
   <g id="patch_2">
    <path d="M 52.13 126.44874 
L 208.83811 126.44874 
L 208.83811 11.52 
L 52.13 11.52 
z
" style="fill:#ffffff;"/>
   </g>
   <g id="PolyCollection_1">
    <defs>
     <path d="M 60.093579 -43.63 
L 60.093579 -43.63 
L 62.194787 -43.63 
L 64.295996 -43.630001 
L 66.397204 -43.630003 
L 68.498412 -43.630011 
L 70.59962 -43.630028 
L 72.700829 -43.630059 
L 74.802037 -43.630112 
L 76.903245 -43.630195 
L 79.004453 -43.630316 
L 81.105662 -43.630487 
L 83.20687 -43.630721 
L 85.308078 -43.631033 
L 87.409286 -43.631441 
L 89.510495 -43.631966 
L 91.611703 -43.632638 
L 93.712911 -43.633488 
L 95.814119 -43.634561 
L 97.915327 -43.635907 
L 100.016536 -43.637591 
L 102.117744 -43.639689 
L 104.218952 -43.64231 
L 106.32016 -43.645587 
L 108.421369 -43.649707 
L 110.522577 -43.6549 
L 112.623785 -43.661421 
L 114.724993 -43.669624 
L 116.826202 -43.679968 
L 118.92741 -43.69294 
L 121.028618 -43.709215 
L 123.129826 -43.729739 
L 125.231035 -43.755571 
L 127.332243 -43.788265 
L 129.433451 -43.829561 
L 131.534659 -43.881723 
L 133.635867 -43.948118 
L 135.737076 -44.033098 
L 137.838284 -44.142836 
L 139.939492 -44.285748 
L 142.0407 -44.471696 
L 144.141909 -44.712253 
L 146.243117 -45.018433 
L 148.344325 -45.401746 
L 150.445533 -45.87324 
L 152.546742 -46.44416 
L 154.64795 -47.126702 
L 156.749158 -47.929091 
L 156.749158 -51.648879 
L 156.749158 -51.648879 
L 154.64795 -50.020315 
L 152.546742 -48.668616 
L 150.445533 -47.573908 
L 148.344325 -46.707891 
L 146.243117 -46.038542 
L 144.141909 -45.528345 
L 142.0407 -45.142874 
L 139.939492 -44.849834 
L 137.838284 -44.623605 
L 135.737076 -44.446379 
L 133.635867 -44.305145 
L 131.534659 -44.19099 
L 129.433451 -44.098402 
L 127.332243 -44.022247 
L 125.231035 -43.958952 
L 123.129826 -43.906179 
L 121.028618 -43.862057 
L 118.92741 -43.824974 
L 116.826202 -43.793646 
L 114.724993 -43.76726 
L 112.623785 -43.744977 
L 110.522577 -43.726043 
L 108.421369 -43.710001 
L 106.32016 -43.696343 
L 104.218952 -43.684757 
L 102.117744 -43.674921 
L 100.016536 -43.666581 
L 97.915327 -43.659545 
L 95.814119 -43.653609 
L 93.712911 -43.648627 
L 91.611703 -43.644493 
L 89.510495 -43.641084 
L 87.409286 -43.638294 
L 85.308078 -43.63605 
L 83.20687 -43.634286 
L 81.105662 -43.632929 
L 79.004453 -43.631915 
L 76.903245 -43.631185 
L 74.802037 -43.630685 
L 72.700829 -43.630362 
L 70.59962 -43.63017 
L 68.498412 -43.630067 
L 66.397204 -43.630021 
L 64.295996 -43.630004 
L 62.194787 -43.63 
L 60.093579 -43.63 
z
" id="m5f11920860" style="stroke:#6495ed;stroke-opacity:0.4;"/>
    </defs>
    <g clip-path="url(#p632bf73166)">
     <use style="fill:#6495ed;fill-opacity:0.4;stroke:#6495ed;stroke-opacity:0.4;" x="0" xlink:href="#m5f11920860" y="170.07874"/>
    </g>
   </g>
   <g id="PolyCollection_2">
    <defs>
     <path d="M 60.093579 -43.63 
L 60.093579 -43.63 
L 62.194787 -43.63 
L 64.295996 -43.630001 
L 66.397204 -43.630007 
L 68.498412 -43.630021 
L 70.59962 -43.630054 
L 72.700829 -43.630115 
L 74.802037 -43.630218 
L 76.903245 -43.630378 
L 79.004453 -43.630613 
L 81.105662 -43.630941 
L 83.20687 -43.631386 
L 85.308078 -43.631973 
L 87.409286 -43.632732 
L 89.510495 -43.633697 
L 91.611703 -43.634909 
L 93.712911 -43.636417 
L 95.814119 -43.638283 
L 97.915327 -43.640582 
L 100.016536 -43.643412 
L 102.117744 -43.646882 
L 104.218952 -43.651125 
L 106.32016 -43.656299 
L 108.421369 -43.662631 
L 110.522577 -43.670363 
L 112.623785 -43.679829 
L 114.724993 -43.691446 
L 116.826202 -43.705717 
L 118.92741 -43.723259 
L 121.028618 -43.744815 
L 123.129826 -43.771325 
L 125.231035 -43.804028 
L 127.332243 -43.844531 
L 129.433451 -43.894824 
L 131.534659 -43.957625 
L 133.635867 -44.036525 
L 135.737076 -44.136305 
L 137.838284 -44.264284 
L 139.939492 -44.43002 
L 142.0407 -44.645918 
L 144.141909 -44.925733 
L 146.243117 -45.285928 
L 148.344325 -45.744633 
L 150.445533 -46.31917 
L 152.546742 -47.026329 
L 154.64795 -47.881549 
L 156.749158 -48.893864 
L 156.749158 -50.152839 
L 156.749158 -50.152839 
L 154.64795 -48.863982 
L 152.546742 -47.786417 
L 150.445533 -46.904234 
L 148.344325 -46.195652 
L 146.243117 -45.637805 
L 144.141909 -45.205724 
L 142.0407 -44.875096 
L 139.939492 -44.62291 
L 137.838284 -44.429008 
L 135.737076 -44.278613 
L 133.635867 -44.159747 
L 131.534659 -44.064779 
L 129.433451 -43.988004 
L 127.332243 -43.925453 
L 125.231035 -43.87421 
L 123.129826 -43.831991 
L 121.028618 -43.797279 
L 118.92741 -43.768539 
L 116.826202 -43.74462 
L 114.724993 -43.724759 
L 112.623785 -43.708226 
L 110.522577 -43.694457 
L 108.421369 -43.682983 
L 106.32016 -43.673393 
L 104.218952 -43.665403 
L 102.117744 -43.658733 
L 100.016536 -43.653159 
L 97.915327 -43.64852 
L 95.814119 -43.644664 
L 93.712911 -43.641479 
L 91.611703 -43.638866 
L 89.510495 -43.636733 
L 87.409286 -43.635013 
L 85.308078 -43.633644 
L 83.20687 -43.632572 
L 81.105662 -43.631753 
L 79.004453 -43.631145 
L 76.903245 -43.630708 
L 74.802037 -43.630409 
L 72.700829 -43.630216 
L 70.59962 -43.630101 
L 68.498412 -43.63004 
L 66.397204 -43.630012 
L 64.295996 -43.630002 
L 62.194787 -43.63 
L 60.093579 -43.63 
z
" id="ma0b0ea42a6" style="stroke:#6495ed;stroke-opacity:0.6;"/>
    </defs>
    <g clip-path="url(#p632bf73166)">
     <use style="fill:#6495ed;fill-opacity:0.6;stroke:#6495ed;stroke-opacity:0.6;" x="0" xlink:href="#ma0b0ea42a6" y="170.07874"/>
    </g>
   </g>
   <g id="PolyCollection_3">
    <defs>
     <path d="M 156.749158 -51.648879 
L 156.749158 -47.929091 
L 158.850366 -48.855295 
L 160.951575 -49.90268 
L 163.052783 -51.071641 
L 165.153991 -52.358938 
L 167.255199 -53.761706 
L 169.356407 -55.257281 
L 171.457616 -56.83095 
L 173.558824 -58.472057 
L 175.660032 -60.169023 
L 177.76124 -61.908161 
L 179.862449 -63.673209 
L 181.963657 -65.446052 
L 184.064865 -67.213827 
L 186.166073 -68.966304 
L 188.267282 -70.689367 
L 190.36849 -72.375586 
L 192.469698 -74.005999 
L 194.570906 -75.580721 
L 196.672115 -77.087116 
L 198.773323 -78.530089 
L 200.874531 -79.901767 
L 200.874531 -158.55874 
L 200.874531 -158.55874 
L 198.773323 -150.425281 
L 196.672115 -142.612499 
L 194.570906 -135.029297 
L 192.469698 -127.818412 
L 190.36849 -120.893782 
L 188.267282 -114.293245 
L 186.166073 -108.011133 
L 184.064865 -101.938194 
L 181.963657 -96.126489 
L 179.862449 -90.614946 
L 177.76124 -85.423987 
L 175.660032 -80.577036 
L 173.558824 -76.068516 
L 171.457616 -71.88049 
L 169.356407 -68.02911 
L 167.255199 -64.481666 
L 165.153991 -61.263133 
L 163.052783 -58.373225 
L 160.951575 -55.810638 
L 158.850366 -53.572039 
L 156.749158 -51.648879 
z
" id="m124aab570a" style="stroke:#228b22;stroke-opacity:0.4;"/>
    </defs>
    <g clip-path="url(#p632bf73166)">
     <use style="fill:#228b22;fill-opacity:0.4;stroke:#228b22;stroke-opacity:0.4;" x="0" xlink:href="#m124aab570a" y="170.07874"/>
    </g>
   </g>
   <g id="PolyCollection_4">
    <defs>
     <path d="M 156.749158 -50.152839 
L 156.749158 -48.893864 
L 158.850366 -50.074386 
L 160.951575 -51.425477 
L 163.052783 -52.948132 
L 165.153991 -54.640381 
L 167.255199 -56.49069 
L 169.356407 -58.490274 
L 171.457616 -60.623024 
L 173.558824 -62.868881 
L 175.660032 -65.206682 
L 177.76124 -67.624569 
L 179.862449 -70.095862 
L 181.963657 -72.599604 
L 184.064865 -75.114382 
L 186.166073 -77.623082 
L 188.267282 -80.1046 
L 190.36849 -82.544256 
L 192.469698 -84.934278 
L 194.570906 -87.265123 
L 196.672115 -89.518679 
L 198.773323 -91.691147 
L 200.874531 -93.776889 
L 200.874531 -115.482996 
L 200.874531 -115.482996 
L 198.773323 -111.905607 
L 196.672115 -108.264318 
L 194.570906 -104.57672 
L 192.469698 -100.853943 
L 190.36849 -97.107899 
L 188.267282 -93.36821 
L 186.166073 -89.644827 
L 184.064865 -85.955048 
L 181.963657 -82.310411 
L 179.862449 -78.725963 
L 177.76124 -75.236815 
L 175.660032 -71.870519 
L 173.558824 -68.650519 
L 171.457616 -65.591519 
L 169.356407 -62.725547 
L 167.255199 -60.067115 
L 165.153991 -57.623903 
L 163.052783 -55.403679 
L 160.951575 -53.41644 
L 158.850366 -51.668346 
L 156.749158 -50.152839 
z
" id="m4860cd53b2" style="stroke:#228b22;stroke-opacity:0.6;"/>
    </defs>
    <g clip-path="url(#p632bf73166)">
     <use style="fill:#228b22;fill-opacity:0.6;stroke:#228b22;stroke-opacity:0.6;" x="0" xlink:href="#m4860cd53b2" y="170.07874"/>
    </g>
   </g>
   <g id="PathCollection_1">
    <defs>
     <path d="M -0.866025 1.732051 
L 0 0.866025 
L 0.866025 1.732051 
L 1.732051 0.866025 
L 0.866025 0 
L 1.732051 -0.866025 
L 0.866025 -1.732051 
L 0 -0.866025 
L -0.866025 -1.732051 
L -1.732051 -0.866025 
L -0.866025 0 
L -1.732051 0.866025 
z
" id="mae37533519" style="stroke:#8a2be2;"/>
    </defs>
    <g clip-path="url(#p632bf73166)">
     <use style="fill:#8a2be2;stroke:#8a2be2;" x="146.243117" xlink:href="#mae37533519" y="23.012874"/>
    </g>
   </g>
   <g id="PathCollection_2">
    <defs>
     <path d="M 0 -1.732051 
L -0.38887 -0.535233 
L -1.647278 -0.535233 
L -0.629204 0.204441 
L -1.018074 1.401259 
L -0 0.661585 
L 1.018074 1.401259 
L 0.629204 0.204441 
L 1.647278 -0.535233 
L 0.38887 -0.535233 
z
" id="mb4231408d7" style="stroke:#000000;"/>
    </defs>
    <g clip-path="url(#p632bf73166)">
     <use style="stroke:#000000;" x="139.939492" xlink:href="#mb4231408d7" y="23.012874"/>
    </g>
   </g>
   <g id="PathCollection_3">
    <defs>
     <path d="M -1.732051 1.732051 
L 1.732051 1.732051 
L 1.732051 -1.732051 
L -1.732051 -1.732051 
z
" id="m657c094e1b" style="stroke:#c71585;"/>
    </defs>
    <g clip-path="url(#p632bf73166)">
     <use style="fill:#c71585;stroke:#c71585;" x="146.243117" xlink:href="#m657c094e1b" y="28.184667"/>
    </g>
   </g>
   <g id="PathCollection_4">
    <defs>
     <path d="M 0 -1.732051 
L -1.647278 -0.535233 
L -1.018074 1.401259 
L 1.018074 1.401259 
L 1.647278 -0.535233 
z
" id="m9502b06add" style="stroke:#800000;"/>
    </defs>
    <g clip-path="url(#p632bf73166)">
     <use style="fill:#800000;stroke:#800000;" x="129.433451" xlink:href="#m9502b06add" y="23.012874"/>
    </g>
   </g>
   <g id="PathCollection_5">
    <defs>
     <path d="M -0 2.44949 
L 1.469694 0 
L 0 -2.44949 
L -1.469694 -0 
z
" id="mf3a448b32b" style="stroke:#556b2f;"/>
    </defs>
    <g clip-path="url(#p632bf73166)">
     <use style="fill:#556b2f;stroke:#556b2f;" x="121.028618" xlink:href="#mf3a448b32b" y="23.012874"/>
    </g>
   </g>
   <g id="patch_3">
    <path clip-path="url(#p632bf73166)" d="M 59.253096 126.44874 
L 60.934063 126.44874 
L 60.934063 126.44874 
L 59.253096 126.44874 
z
" style="fill:#1f77b4;opacity:0.5;"/>
   </g>
   <g id="patch_4">
    <path clip-path="url(#p632bf73166)" d="M 61.354304 126.44874 
L 63.035271 126.44874 
L 63.035271 126.44874 
L 61.354304 126.44874 
z
" style="fill:#1f77b4;opacity:0.5;"/>
   </g>
   <g id="patch_5">
    <path clip-path="url(#p632bf73166)" d="M 63.455512 126.44874 
L 65.136479 126.44874 
L 65.136479 126.44874 
L 63.455512 126.44874 
z
" style="fill:#1f77b4;opacity:0.5;"/>
   </g>
   <g id="patch_6">
    <path clip-path="url(#p632bf73166)" d="M 65.556721 126.44874 
L 67.237687 126.44874 
L 67.237687 126.44874 
L 65.556721 126.44874 
z
" style="fill:#1f77b4;opacity:0.5;"/>
   </g>
   <g id="patch_7">
    <path clip-path="url(#p632bf73166)" d="M 67.657929 126.44874 
L 69.338895 126.44874 
L 69.338895 126.44874 
L 67.657929 126.44874 
z
" style="fill:#1f77b4;opacity:0.5;"/>
   </g>
   <g id="patch_8">
    <path clip-path="url(#p632bf73166)" d="M 69.759137 126.44874 
L 71.440104 126.44874 
L 71.440104 126.44874 
L 69.759137 126.44874 
z
" style="fill:#1f77b4;opacity:0.5;"/>
   </g>
   <g id="patch_9">
    <path clip-path="url(#p632bf73166)" d="M 71.860345 126.44874 
L 73.541312 126.44874 
L 73.541312 126.44874 
L 71.860345 126.44874 
z
" style="fill:#1f77b4;opacity:0.5;"/>
   </g>
   <g id="patch_10">
    <path clip-path="url(#p632bf73166)" d="M 73.961554 126.44874 
L 75.64252 126.44874 
L 75.64252 126.44874 
L 73.961554 126.44874 
z
" style="fill:#1f77b4;opacity:0.5;"/>
   </g>
   <g id="patch_11">
    <path clip-path="url(#p632bf73166)" d="M 76.062762 126.44874 
L 77.743728 126.44874 
L 77.743728 126.44874 
L 76.062762 126.44874 
z
" style="fill:#1f77b4;opacity:0.5;"/>
   </g>
   <g id="patch_12">
    <path clip-path="url(#p632bf73166)" d="M 78.16397 126.44874 
L 79.844937 126.44874 
L 79.844937 126.44874 
L 78.16397 126.44874 
z
" style="fill:#1f77b4;opacity:0.5;"/>
   </g>
   <g id="patch_13">
    <path clip-path="url(#p632bf73166)" d="M 80.265178 126.44874 
L 81.946145 126.44874 
L 81.946145 126.44874 
L 80.265178 126.44874 
z
" style="fill:#1f77b4;opacity:0.5;"/>
   </g>
   <g id="patch_14">
    <path clip-path="url(#p632bf73166)" d="M 82.366387 126.44874 
L 84.047353 126.44874 
L 84.047353 126.44874 
L 82.366387 126.44874 
z
" style="fill:#1f77b4;opacity:0.5;"/>
   </g>
   <g id="patch_15">
    <path clip-path="url(#p632bf73166)" d="M 84.467595 126.44874 
L 86.148561 126.44874 
L 86.148561 126.44874 
L 84.467595 126.44874 
z
" style="fill:#1f77b4;opacity:0.5;"/>
   </g>
   <g id="patch_16">
    <path clip-path="url(#p632bf73166)" d="M 86.568803 126.44874 
L 88.24977 126.44874 
L 88.24977 126.44874 
L 86.568803 126.44874 
z
" style="fill:#1f77b4;opacity:0.5;"/>
   </g>
   <g id="patch_17">
    <path clip-path="url(#p632bf73166)" d="M 88.670011 126.44874 
L 90.350978 126.44874 
L 90.350978 126.44874 
L 88.670011 126.44874 
z
" style="fill:#1f77b4;opacity:0.5;"/>
   </g>
   <g id="patch_18">
    <path clip-path="url(#p632bf73166)" d="M 90.771219 126.44874 
L 92.452186 126.44874 
L 92.452186 126.44874 
L 90.771219 126.44874 
z
" style="fill:#1f77b4;opacity:0.5;"/>
   </g>
   <g id="patch_19">
    <path clip-path="url(#p632bf73166)" d="M 92.872428 126.44874 
L 94.553394 126.44874 
L 94.553394 126.44874 
L 92.872428 126.44874 
z
" style="fill:#1f77b4;opacity:0.5;"/>
   </g>
   <g id="patch_20">
    <path clip-path="url(#p632bf73166)" d="M 94.973636 126.44874 
L 96.654603 126.44874 
L 96.654603 126.44874 
L 94.973636 126.44874 
z
" style="fill:#1f77b4;opacity:0.5;"/>
   </g>
   <g id="patch_21">
    <path clip-path="url(#p632bf73166)" d="M 97.074844 126.44874 
L 98.755811 126.44874 
L 98.755811 126.44874 
L 97.074844 126.44874 
z
" style="fill:#1f77b4;opacity:0.5;"/>
   </g>
   <g id="patch_22">
    <path clip-path="url(#p632bf73166)" d="M 99.176052 126.44874 
L 100.857019 126.44874 
L 100.857019 126.44874 
L 99.176052 126.44874 
z
" style="fill:#1f77b4;opacity:0.5;"/>
   </g>
   <g id="patch_23">
    <path clip-path="url(#p632bf73166)" d="M 101.277261 126.44874 
L 102.958227 126.44874 
L 102.958227 126.44874 
L 101.277261 126.44874 
z
" style="fill:#1f77b4;opacity:0.5;"/>
   </g>
   <g id="patch_24">
    <path clip-path="url(#p632bf73166)" d="M 103.378469 126.44874 
L 105.059435 126.44874 
L 105.059435 126.44874 
L 103.378469 126.44874 
z
" style="fill:#1f77b4;opacity:0.5;"/>
   </g>
   <g id="patch_25">
    <path clip-path="url(#p632bf73166)" d="M 105.479677 126.44874 
L 107.160644 126.44874 
L 107.160644 126.44874 
L 105.479677 126.44874 
z
" style="fill:#1f77b4;opacity:0.5;"/>
   </g>
   <g id="patch_26">
    <path clip-path="url(#p632bf73166)" d="M 107.580885 126.44874 
L 109.261852 126.44874 
L 109.261852 126.443394 
L 107.580885 126.443394 
z
" style="fill:#1f77b4;opacity:0.5;"/>
   </g>
   <g id="patch_27">
    <path clip-path="url(#p632bf73166)" d="M 109.682094 126.44874 
L 111.36306 126.44874 
L 111.36306 126.443394 
L 109.682094 126.443394 
z
" style="fill:#1f77b4;opacity:0.5;"/>
   </g>
   <g id="patch_28">
    <path clip-path="url(#p632bf73166)" d="M 111.783302 126.44874 
L 113.464268 126.44874 
L 113.464268 126.438047 
L 111.783302 126.438047 
z
" style="fill:#1f77b4;opacity:0.5;"/>
   </g>
   <g id="patch_29">
    <path clip-path="url(#p632bf73166)" d="M 113.88451 126.44874 
L 115.565477 126.44874 
L 115.565477 126.432701 
L 113.88451 126.432701 
z
" style="fill:#1f77b4;opacity:0.5;"/>
   </g>
   <g id="patch_30">
    <path clip-path="url(#p632bf73166)" d="M 115.985718 126.44874 
L 117.666685 126.44874 
L 117.666685 126.422008 
L 115.985718 126.422008 
z
" style="fill:#1f77b4;opacity:0.5;"/>
   </g>
   <g id="patch_31">
    <path clip-path="url(#p632bf73166)" d="M 118.086927 126.44874 
L 119.767893 126.44874 
L 119.767893 126.416662 
L 118.086927 126.416662 
z
" style="fill:#1f77b4;opacity:0.5;"/>
   </g>
   <g id="patch_32">
    <path clip-path="url(#p632bf73166)" d="M 120.188135 126.44874 
L 121.869101 126.44874 
L 121.869101 126.416662 
L 120.188135 126.416662 
z
" style="fill:#1f77b4;opacity:0.5;"/>
   </g>
   <g id="patch_33">
    <path clip-path="url(#p632bf73166)" d="M 122.289343 126.44874 
L 123.97031 126.44874 
L 123.97031 126.395276 
L 122.289343 126.395276 
z
" style="fill:#1f77b4;opacity:0.5;"/>
   </g>
   <g id="patch_34">
    <path clip-path="url(#p632bf73166)" d="M 124.390551 126.44874 
L 126.071518 126.44874 
L 126.071518 126.395276 
L 124.390551 126.395276 
z
" style="fill:#1f77b4;opacity:0.5;"/>
   </g>
   <g id="patch_35">
    <path clip-path="url(#p632bf73166)" d="M 126.491759 126.44874 
L 128.172726 126.44874 
L 128.172726 126.336466 
L 126.491759 126.336466 
z
" style="fill:#1f77b4;opacity:0.5;"/>
   </g>
   <g id="patch_36">
    <path clip-path="url(#p632bf73166)" d="M 128.592968 126.44874 
L 130.273934 126.44874 
L 130.273934 126.261617 
L 128.592968 126.261617 
z
" style="fill:#1f77b4;opacity:0.5;"/>
   </g>
   <g id="patch_37">
    <path clip-path="url(#p632bf73166)" d="M 130.694176 126.44874 
L 132.375143 126.44874 
L 132.375143 126.15469 
L 130.694176 126.15469 
z
" style="fill:#1f77b4;opacity:0.5;"/>
   </g>
   <g id="patch_38">
    <path clip-path="url(#p632bf73166)" d="M 132.795384 126.44874 
L 134.476351 126.44874 
L 134.476351 126.127958 
L 132.795384 126.127958 
z
" style="fill:#1f77b4;opacity:0.5;"/>
   </g>
   <g id="patch_39">
    <path clip-path="url(#p632bf73166)" d="M 134.896592 126.44874 
L 136.577559 126.44874 
L 136.577559 125.898064 
L 134.896592 125.898064 
z
" style="fill:#1f77b4;opacity:0.5;"/>
   </g>
   <g id="patch_40">
    <path clip-path="url(#p632bf73166)" d="M 136.997801 126.44874 
L 138.678767 126.44874 
L 138.678767 125.678863 
L 136.997801 125.678863 
z
" style="fill:#1f77b4;opacity:0.5;"/>
   </g>
   <g id="patch_41">
    <path clip-path="url(#p632bf73166)" d="M 139.099009 126.44874 
L 140.779975 126.44874 
L 140.779975 125.502433 
L 139.099009 125.502433 
z
" style="fill:#1f77b4;opacity:0.5;"/>
   </g>
   <g id="patch_42">
    <path clip-path="url(#p632bf73166)" d="M 141.200217 126.44874 
L 142.881184 126.44874 
L 142.881184 125.203036 
L 141.200217 125.203036 
z
" style="fill:#1f77b4;opacity:0.5;"/>
   </g>
   <g id="patch_43">
    <path clip-path="url(#p632bf73166)" d="M 143.301425 126.44874 
L 144.982392 126.44874 
L 144.982392 124.94641 
L 143.301425 124.94641 
z
" style="fill:#1f77b4;opacity:0.5;"/>
   </g>
   <g id="patch_44">
    <path clip-path="url(#p632bf73166)" d="M 145.402634 126.44874 
L 147.0836 126.44874 
L 147.0836 124.657706 
L 145.402634 124.657706 
z
" style="fill:#1f77b4;opacity:0.5;"/>
   </g>
   <g id="patch_45">
    <path clip-path="url(#p632bf73166)" d="M 147.503842 126.44874 
L 149.184808 126.44874 
L 149.184808 124.192572 
L 147.503842 124.192572 
z
" style="fill:#1f77b4;opacity:0.5;"/>
   </g>
   <g id="patch_46">
    <path clip-path="url(#p632bf73166)" d="M 149.60505 126.44874 
L 151.286017 126.44874 
L 151.286017 123.973371 
L 149.60505 123.973371 
z
" style="fill:#1f77b4;opacity:0.5;"/>
   </g>
   <g id="patch_47">
    <path clip-path="url(#p632bf73166)" d="M 151.706258 126.44874 
L 153.387225 126.44874 
L 153.387225 123.358539 
L 151.706258 123.358539 
z
" style="fill:#1f77b4;opacity:0.5;"/>
   </g>
   <g id="patch_48">
    <path clip-path="url(#p632bf73166)" d="M 153.807467 126.44874 
L 155.488433 126.44874 
L 155.488433 122.390846 
L 153.807467 122.390846 
z
" style="fill:#1f77b4;opacity:0.5;"/>
   </g>
   <g id="patch_49">
    <path clip-path="url(#p632bf73166)" d="M 155.908675 126.44874 
L 157.589641 126.44874 
L 157.589641 121.00079 
L 155.908675 121.00079 
z
" style="fill:#1f77b4;opacity:0.5;"/>
   </g>
   <g id="patch_50">
    <path clip-path="url(#p632bf73166)" d="M 158.009883 126.44874 
L 159.69085 126.44874 
L 159.69085 119.883399 
L 158.009883 119.883399 
z
" style="fill:#1f77b4;opacity:0.5;"/>
   </g>
   <g id="patch_51">
    <path clip-path="url(#p632bf73166)" d="M 160.111091 126.44874 
L 161.792058 126.44874 
L 161.792058 118.921052 
L 160.111091 118.921052 
z
" style="fill:#1f77b4;opacity:0.5;"/>
   </g>
   <g id="patch_52">
    <path clip-path="url(#p632bf73166)" d="M 162.212299 126.44874 
L 163.893266 126.44874 
L 163.893266 116.884085 
L 162.212299 116.884085 
z
" style="fill:#1f77b4;opacity:0.5;"/>
   </g>
   <g id="patch_53">
    <path clip-path="url(#p632bf73166)" d="M 164.313508 126.44874 
L 165.994474 126.44874 
L 165.994474 112.911733 
L 164.313508 112.911733 
z
" style="fill:#1f77b4;opacity:0.5;"/>
   </g>
   <g id="patch_54">
    <path clip-path="url(#p632bf73166)" d="M 166.414716 126.44874 
L 168.095683 126.44874 
L 168.095683 110.831995 
L 166.414716 110.831995 
z
" style="fill:#1f77b4;opacity:0.5;"/>
   </g>
   <g id="patch_55">
    <path clip-path="url(#p632bf73166)" d="M 168.515924 126.44874 
L 170.196891 126.44874 
L 170.196891 107.175079 
L 168.515924 107.175079 
z
" style="fill:#1f77b4;opacity:0.5;"/>
   </g>
   <g id="patch_56">
    <path clip-path="url(#p632bf73166)" d="M 170.617132 126.44874 
L 172.298099 126.44874 
L 172.298099 103.389849 
L 170.617132 103.389849 
z
" style="fill:#1f77b4;opacity:0.5;"/>
   </g>
   <g id="patch_57">
    <path clip-path="url(#p632bf73166)" d="M 172.718341 126.44874 
L 174.399307 126.44874 
L 174.399307 100.069754 
L 172.718341 100.069754 
z
" style="fill:#1f77b4;opacity:0.5;"/>
   </g>
   <g id="patch_58">
    <path clip-path="url(#p632bf73166)" d="M 174.819549 126.44874 
L 176.500515 126.44874 
L 176.500515 97.722698 
L 174.819549 97.722698 
z
" style="fill:#1f77b4;opacity:0.5;"/>
   </g>
   <g id="patch_59">
    <path clip-path="url(#p632bf73166)" d="M 176.920757 126.44874 
L 178.601724 126.44874 
L 178.601724 93.520451 
L 176.920757 93.520451 
z
" style="fill:#1f77b4;opacity:0.5;"/>
   </g>
   <g id="patch_60">
    <path clip-path="url(#p632bf73166)" d="M 179.021965 126.44874 
L 180.702932 126.44874 
L 180.702932 88.505557 
L 179.021965 88.505557 
z
" style="fill:#1f77b4;opacity:0.5;"/>
   </g>
   <g id="patch_61">
    <path clip-path="url(#p632bf73166)" d="M 181.123174 126.44874 
L 182.80414 126.44874 
L 182.80414 83.795405 
L 181.123174 83.795405 
z
" style="fill:#1f77b4;opacity:0.5;"/>
   </g>
   <g id="patch_62">
    <path clip-path="url(#p632bf73166)" d="M 183.224382 126.44874 
L 184.905348 126.44874 
L 184.905348 78.555963 
L 183.224382 78.555963 
z
" style="fill:#1f77b4;opacity:0.5;"/>
   </g>
   <g id="patch_63">
    <path clip-path="url(#p632bf73166)" d="M 185.32559 126.44874 
L 187.006557 126.44874 
L 187.006557 73.653343 
L 185.32559 73.653343 
z
" style="fill:#1f77b4;opacity:0.5;"/>
   </g>
   <g id="patch_64">
    <path clip-path="url(#p632bf73166)" d="M 187.426798 126.44874 
L 189.107765 126.44874 
L 189.107765 69.713068 
L 187.426798 69.713068 
z
" style="fill:#1f77b4;opacity:0.5;"/>
   </g>
   <g id="patch_65">
    <path clip-path="url(#p632bf73166)" d="M 189.528007 126.44874 
L 191.208973 126.44874 
L 191.208973 65.879722 
L 189.528007 65.879722 
z
" style="fill:#1f77b4;opacity:0.5;"/>
   </g>
   <g id="patch_66">
    <path clip-path="url(#p632bf73166)" d="M 191.629215 126.44874 
L 193.310181 126.44874 
L 193.310181 61.720246 
L 191.629215 61.720246 
z
" style="fill:#1f77b4;opacity:0.5;"/>
   </g>
   <g id="patch_67">
    <path clip-path="url(#p632bf73166)" d="M 193.730423 126.44874 
L 195.41139 126.44874 
L 195.41139 57.651659 
L 193.730423 57.651659 
z
" style="fill:#1f77b4;opacity:0.5;"/>
   </g>
   <g id="patch_68">
    <path clip-path="url(#p632bf73166)" d="M 195.831631 126.44874 
L 197.512598 126.44874 
L 197.512598 53.048435 
L 195.831631 53.048435 
z
" style="fill:#1f77b4;opacity:0.5;"/>
   </g>
   <g id="patch_69">
    <path clip-path="url(#p632bf73166)" d="M 197.932839 126.44874 
L 199.613806 126.44874 
L 199.613806 48.52006 
L 197.932839 48.52006 
z
" style="fill:#1f77b4;opacity:0.5;"/>
   </g>
   <g id="patch_70">
    <path clip-path="url(#p632bf73166)" d="M 200.034048 126.44874 
L 201.715014 126.44874 
L 201.715014 43.772484 
L 200.034048 43.772484 
z
" style="fill:#1f77b4;opacity:0.5;"/>
   </g>
   <g id="matplotlib.axis_1">
    <g id="xtick_1">
     <g id="line2d_1">
      <defs>
       <path d="M 0 0 
L 0 3.5 
" id="m95a0ed05ae" style="stroke:#000000;stroke-width:0.8;"/>
      </defs>
      <g>
       <use style="stroke:#000000;stroke-width:0.8;" x="200.874531" xlink:href="#m95a0ed05ae" y="126.44874"/>
      </g>
     </g>
     <g id="text_1">
      <!-- 19 Apr -->
      <defs>
       <path d="M 12.40625 8.296875 
L 28.515625 8.296875 
L 28.515625 63.921875 
L 10.984375 60.40625 
L 10.984375 69.390625 
L 28.421875 72.90625 
L 38.28125 72.90625 
L 38.28125 8.296875 
L 54.390625 8.296875 
L 54.390625 0 
L 12.40625 0 
z
" id="DejaVuSans-49"/>
       <path d="M 10.984375 1.515625 
L 10.984375 10.5 
Q 14.703125 8.734375 18.5 7.8125 
Q 22.3125 6.890625 25.984375 6.890625 
Q 35.75 6.890625 40.890625 13.453125 
Q 46.046875 20.015625 46.78125 33.40625 
Q 43.953125 29.203125 39.59375 26.953125 
Q 35.25 24.703125 29.984375 24.703125 
Q 19.046875 24.703125 12.671875 31.3125 
Q 6.296875 37.9375 6.296875 49.421875 
Q 6.296875 60.640625 12.9375 67.421875 
Q 19.578125 74.21875 30.609375 74.21875 
Q 43.265625 74.21875 49.921875 64.515625 
Q 56.59375 54.828125 56.59375 36.375 
Q 56.59375 19.140625 48.40625 8.859375 
Q 40.234375 -1.421875 26.421875 -1.421875 
Q 22.703125 -1.421875 18.890625 -0.6875 
Q 15.09375 0.046875 10.984375 1.515625 
z
M 30.609375 32.421875 
Q 37.25 32.421875 41.125 36.953125 
Q 45.015625 41.5 45.015625 49.421875 
Q 45.015625 57.28125 41.125 61.84375 
Q 37.25 66.40625 30.609375 66.40625 
Q 23.96875 66.40625 20.09375 61.84375 
Q 16.21875 57.28125 16.21875 49.421875 
Q 16.21875 41.5 20.09375 36.953125 
Q 23.96875 32.421875 30.609375 32.421875 
z
" id="DejaVuSans-57"/>
       <path id="DejaVuSans-32"/>
       <path d="M 34.1875 63.1875 
L 20.796875 26.90625 
L 47.609375 26.90625 
z
M 28.609375 72.90625 
L 39.796875 72.90625 
L 67.578125 0 
L 57.328125 0 
L 50.6875 18.703125 
L 17.828125 18.703125 
L 11.1875 0 
L 0.78125 0 
z
" id="DejaVuSans-65"/>
       <path d="M 18.109375 8.203125 
L 18.109375 -20.796875 
L 9.078125 -20.796875 
L 9.078125 54.6875 
L 18.109375 54.6875 
L 18.109375 46.390625 
Q 20.953125 51.265625 25.265625 53.625 
Q 29.59375 56 35.59375 56 
Q 45.5625 56 51.78125 48.09375 
Q 58.015625 40.1875 58.015625 27.296875 
Q 58.015625 14.40625 51.78125 6.484375 
Q 45.5625 -1.421875 35.59375 -1.421875 
Q 29.59375 -1.421875 25.265625 0.953125 
Q 20.953125 3.328125 18.109375 8.203125 
z
M 48.6875 27.296875 
Q 48.6875 37.203125 44.609375 42.84375 
Q 40.53125 48.484375 33.40625 48.484375 
Q 26.265625 48.484375 22.1875 42.84375 
Q 18.109375 37.203125 18.109375 27.296875 
Q 18.109375 17.390625 22.1875 11.75 
Q 26.265625 6.109375 33.40625 6.109375 
Q 40.53125 6.109375 44.609375 11.75 
Q 48.6875 17.390625 48.6875 27.296875 
z
" id="DejaVuSans-112"/>
       <path d="M 41.109375 46.296875 
Q 39.59375 47.171875 37.8125 47.578125 
Q 36.03125 48 33.890625 48 
Q 26.265625 48 22.1875 43.046875 
Q 18.109375 38.09375 18.109375 28.8125 
L 18.109375 0 
L 9.078125 0 
L 9.078125 54.6875 
L 18.109375 54.6875 
L 18.109375 46.1875 
Q 20.953125 51.171875 25.484375 53.578125 
Q 30.03125 56 36.53125 56 
Q 37.453125 56 38.578125 55.875 
Q 39.703125 55.765625 41.0625 55.515625 
z
" id="DejaVuSans-114"/>
      </defs>
      <g transform="translate(203.082031 160.01124)rotate(-90)scale(0.08 -0.08)">
       <use xlink:href="#DejaVuSans-49"/>
       <use x="63.623047" xlink:href="#DejaVuSans-57"/>
       <use x="127.246094" xlink:href="#DejaVuSans-32"/>
       <use x="159.033203" xlink:href="#DejaVuSans-65"/>
       <use x="227.441406" xlink:href="#DejaVuSans-112"/>
       <use x="290.917969" xlink:href="#DejaVuSans-114"/>
      </g>
     </g>
    </g>
    <g id="xtick_2">
     <g id="line2d_2">
      <g>
       <use style="stroke:#000000;stroke-width:0.8;" x="186.166073" xlink:href="#m95a0ed05ae" y="126.44874"/>
      </g>
     </g>
     <g id="text_2">
      <!-- 12 Apr -->
      <defs>
       <path d="M 19.1875 8.296875 
L 53.609375 8.296875 
L 53.609375 0 
L 7.328125 0 
L 7.328125 8.296875 
Q 12.9375 14.109375 22.625 23.890625 
Q 32.328125 33.6875 34.8125 36.53125 
Q 39.546875 41.84375 41.421875 45.53125 
Q 43.3125 49.21875 43.3125 52.78125 
Q 43.3125 58.59375 39.234375 62.25 
Q 35.15625 65.921875 28.609375 65.921875 
Q 23.96875 65.921875 18.8125 64.3125 
Q 13.671875 62.703125 7.8125 59.421875 
L 7.8125 69.390625 
Q 13.765625 71.78125 18.9375 73 
Q 24.125 74.21875 28.421875 74.21875 
Q 39.75 74.21875 46.484375 68.546875 
Q 53.21875 62.890625 53.21875 53.421875 
Q 53.21875 48.921875 51.53125 44.890625 
Q 49.859375 40.875 45.40625 35.40625 
Q 44.1875 33.984375 37.640625 27.21875 
Q 31.109375 20.453125 19.1875 8.296875 
z
" id="DejaVuSans-50"/>
      </defs>
      <g transform="translate(188.373573 160.01124)rotate(-90)scale(0.08 -0.08)">
       <use xlink:href="#DejaVuSans-49"/>
       <use x="63.623047" xlink:href="#DejaVuSans-50"/>
       <use x="127.246094" xlink:href="#DejaVuSans-32"/>
       <use x="159.033203" xlink:href="#DejaVuSans-65"/>
       <use x="227.441406" xlink:href="#DejaVuSans-112"/>
       <use x="290.917969" xlink:href="#DejaVuSans-114"/>
      </g>
     </g>
    </g>
    <g id="xtick_3">
     <g id="line2d_3">
      <g>
       <use style="stroke:#000000;stroke-width:0.8;" x="171.457616" xlink:href="#m95a0ed05ae" y="126.44874"/>
      </g>
     </g>
     <g id="text_3">
      <!-- 5 Apr -->
      <defs>
       <path d="M 10.796875 72.90625 
L 49.515625 72.90625 
L 49.515625 64.59375 
L 19.828125 64.59375 
L 19.828125 46.734375 
Q 21.96875 47.46875 24.109375 47.828125 
Q 26.265625 48.1875 28.421875 48.1875 
Q 40.625 48.1875 47.75 41.5 
Q 54.890625 34.8125 54.890625 23.390625 
Q 54.890625 11.625 47.5625 5.09375 
Q 40.234375 -1.421875 26.90625 -1.421875 
Q 22.3125 -1.421875 17.546875 -0.640625 
Q 12.796875 0.140625 7.71875 1.703125 
L 7.71875 11.625 
Q 12.109375 9.234375 16.796875 8.0625 
Q 21.484375 6.890625 26.703125 6.890625 
Q 35.15625 6.890625 40.078125 11.328125 
Q 45.015625 15.765625 45.015625 23.390625 
Q 45.015625 31 40.078125 35.4375 
Q 35.15625 39.890625 26.703125 39.890625 
Q 22.75 39.890625 18.8125 39.015625 
Q 14.890625 38.140625 10.796875 36.28125 
z
" id="DejaVuSans-53"/>
      </defs>
      <g transform="translate(173.665116 154.92124)rotate(-90)scale(0.08 -0.08)">
       <use xlink:href="#DejaVuSans-53"/>
       <use x="63.623047" xlink:href="#DejaVuSans-32"/>
       <use x="95.410156" xlink:href="#DejaVuSans-65"/>
       <use x="163.818359" xlink:href="#DejaVuSans-112"/>
       <use x="227.294922" xlink:href="#DejaVuSans-114"/>
      </g>
     </g>
    </g>
    <g id="xtick_4">
     <g id="line2d_4">
      <g>
       <use style="stroke:#000000;stroke-width:0.8;" x="156.749158" xlink:href="#m95a0ed05ae" y="126.44874"/>
      </g>
     </g>
     <g id="text_4">
      <!-- 29 Mar -->
      <defs>
       <path d="M 9.8125 72.90625 
L 24.515625 72.90625 
L 43.109375 23.296875 
L 61.8125 72.90625 
L 76.515625 72.90625 
L 76.515625 0 
L 66.890625 0 
L 66.890625 64.015625 
L 48.09375 14.015625 
L 38.1875 14.015625 
L 19.390625 64.015625 
L 19.390625 0 
L 9.8125 0 
z
" id="DejaVuSans-77"/>
       <path d="M 34.28125 27.484375 
Q 23.390625 27.484375 19.1875 25 
Q 14.984375 22.515625 14.984375 16.5 
Q 14.984375 11.71875 18.140625 8.90625 
Q 21.296875 6.109375 26.703125 6.109375 
Q 34.1875 6.109375 38.703125 11.40625 
Q 43.21875 16.703125 43.21875 25.484375 
L 43.21875 27.484375 
z
M 52.203125 31.203125 
L 52.203125 0 
L 43.21875 0 
L 43.21875 8.296875 
Q 40.140625 3.328125 35.546875 0.953125 
Q 30.953125 -1.421875 24.3125 -1.421875 
Q 15.921875 -1.421875 10.953125 3.296875 
Q 6 8.015625 6 15.921875 
Q 6 25.140625 12.171875 29.828125 
Q 18.359375 34.515625 30.609375 34.515625 
L 43.21875 34.515625 
L 43.21875 35.40625 
Q 43.21875 41.609375 39.140625 45 
Q 35.0625 48.390625 27.6875 48.390625 
Q 23 48.390625 18.546875 47.265625 
Q 14.109375 46.140625 10.015625 43.890625 
L 10.015625 52.203125 
Q 14.9375 54.109375 19.578125 55.046875 
Q 24.21875 56 28.609375 56 
Q 40.484375 56 46.34375 49.84375 
Q 52.203125 43.703125 52.203125 31.203125 
z
" id="DejaVuSans-97"/>
      </defs>
      <g transform="translate(158.956658 161.26499)rotate(-90)scale(0.08 -0.08)">
       <use xlink:href="#DejaVuSans-50"/>
       <use x="63.623047" xlink:href="#DejaVuSans-57"/>
       <use x="127.246094" xlink:href="#DejaVuSans-32"/>
       <use x="159.033203" xlink:href="#DejaVuSans-77"/>
       <use x="245.3125" xlink:href="#DejaVuSans-97"/>
       <use x="306.591797" xlink:href="#DejaVuSans-114"/>
      </g>
     </g>
    </g>
    <g id="xtick_5">
     <g id="line2d_5">
      <g>
       <use style="stroke:#000000;stroke-width:0.8;" x="142.0407" xlink:href="#m95a0ed05ae" y="126.44874"/>
      </g>
     </g>
     <g id="text_5">
      <!-- 22 Mar -->
      <g transform="translate(144.2482 161.26499)rotate(-90)scale(0.08 -0.08)">
       <use xlink:href="#DejaVuSans-50"/>
       <use x="63.623047" xlink:href="#DejaVuSans-50"/>
       <use x="127.246094" xlink:href="#DejaVuSans-32"/>
       <use x="159.033203" xlink:href="#DejaVuSans-77"/>
       <use x="245.3125" xlink:href="#DejaVuSans-97"/>
       <use x="306.591797" xlink:href="#DejaVuSans-114"/>
      </g>
     </g>
    </g>
    <g id="xtick_6">
     <g id="line2d_6">
      <g>
       <use style="stroke:#000000;stroke-width:0.8;" x="127.332243" xlink:href="#m95a0ed05ae" y="126.44874"/>
      </g>
     </g>
     <g id="text_6">
      <!-- 15 Mar -->
      <g transform="translate(129.539743 161.26499)rotate(-90)scale(0.08 -0.08)">
       <use xlink:href="#DejaVuSans-49"/>
       <use x="63.623047" xlink:href="#DejaVuSans-53"/>
       <use x="127.246094" xlink:href="#DejaVuSans-32"/>
       <use x="159.033203" xlink:href="#DejaVuSans-77"/>
       <use x="245.3125" xlink:href="#DejaVuSans-97"/>
       <use x="306.591797" xlink:href="#DejaVuSans-114"/>
      </g>
     </g>
    </g>
    <g id="xtick_7">
     <g id="line2d_7">
      <g>
       <use style="stroke:#000000;stroke-width:0.8;" x="112.623785" xlink:href="#m95a0ed05ae" y="126.44874"/>
      </g>
     </g>
     <g id="text_7">
      <!-- 8 Mar -->
      <defs>
       <path d="M 31.78125 34.625 
Q 24.75 34.625 20.71875 30.859375 
Q 16.703125 27.09375 16.703125 20.515625 
Q 16.703125 13.921875 20.71875 10.15625 
Q 24.75 6.390625 31.78125 6.390625 
Q 38.8125 6.390625 42.859375 10.171875 
Q 46.921875 13.96875 46.921875 20.515625 
Q 46.921875 27.09375 42.890625 30.859375 
Q 38.875 34.625 31.78125 34.625 
z
M 21.921875 38.8125 
Q 15.578125 40.375 12.03125 44.71875 
Q 8.5 49.078125 8.5 55.328125 
Q 8.5 64.0625 14.71875 69.140625 
Q 20.953125 74.21875 31.78125 74.21875 
Q 42.671875 74.21875 48.875 69.140625 
Q 55.078125 64.0625 55.078125 55.328125 
Q 55.078125 49.078125 51.53125 44.71875 
Q 48 40.375 41.703125 38.8125 
Q 48.828125 37.15625 52.796875 32.3125 
Q 56.78125 27.484375 56.78125 20.515625 
Q 56.78125 9.90625 50.3125 4.234375 
Q 43.84375 -1.421875 31.78125 -1.421875 
Q 19.734375 -1.421875 13.25 4.234375 
Q 6.78125 9.90625 6.78125 20.515625 
Q 6.78125 27.484375 10.78125 32.3125 
Q 14.796875 37.15625 21.921875 38.8125 
z
M 18.3125 54.390625 
Q 18.3125 48.734375 21.84375 45.5625 
Q 25.390625 42.390625 31.78125 42.390625 
Q 38.140625 42.390625 41.71875 45.5625 
Q 45.3125 48.734375 45.3125 54.390625 
Q 45.3125 60.0625 41.71875 63.234375 
Q 38.140625 66.40625 31.78125 66.40625 
Q 25.390625 66.40625 21.84375 63.234375 
Q 18.3125 60.0625 18.3125 54.390625 
z
" id="DejaVuSans-56"/>
      </defs>
      <g transform="translate(114.831285 156.17499)rotate(-90)scale(0.08 -0.08)">
       <use xlink:href="#DejaVuSans-56"/>
       <use x="63.623047" xlink:href="#DejaVuSans-32"/>
       <use x="95.410156" xlink:href="#DejaVuSans-77"/>
       <use x="181.689453" xlink:href="#DejaVuSans-97"/>
       <use x="242.96875" xlink:href="#DejaVuSans-114"/>
      </g>
     </g>
    </g>
    <g id="xtick_8">
     <g id="line2d_8">
      <g>
       <use style="stroke:#000000;stroke-width:0.8;" x="97.915327" xlink:href="#m95a0ed05ae" y="126.44874"/>
      </g>
     </g>
     <g id="text_8">
      <!-- 1 Mar -->
      <g transform="translate(100.122827 156.17499)rotate(-90)scale(0.08 -0.08)">
       <use xlink:href="#DejaVuSans-49"/>
       <use x="63.623047" xlink:href="#DejaVuSans-32"/>
       <use x="95.410156" xlink:href="#DejaVuSans-77"/>
       <use x="181.689453" xlink:href="#DejaVuSans-97"/>
       <use x="242.96875" xlink:href="#DejaVuSans-114"/>
      </g>
     </g>
    </g>
    <g id="xtick_9">
     <g id="line2d_9">
      <g>
       <use style="stroke:#000000;stroke-width:0.8;" x="83.20687" xlink:href="#m95a0ed05ae" y="126.44874"/>
      </g>
     </g>
     <g id="text_9">
      <!-- 23 Feb -->
      <defs>
       <path d="M 40.578125 39.3125 
Q 47.65625 37.796875 51.625 33 
Q 55.609375 28.21875 55.609375 21.1875 
Q 55.609375 10.40625 48.1875 4.484375 
Q 40.765625 -1.421875 27.09375 -1.421875 
Q 22.515625 -1.421875 17.65625 -0.515625 
Q 12.796875 0.390625 7.625 2.203125 
L 7.625 11.71875 
Q 11.71875 9.328125 16.59375 8.109375 
Q 21.484375 6.890625 26.8125 6.890625 
Q 36.078125 6.890625 40.9375 10.546875 
Q 45.796875 14.203125 45.796875 21.1875 
Q 45.796875 27.640625 41.28125 31.265625 
Q 36.765625 34.90625 28.71875 34.90625 
L 20.21875 34.90625 
L 20.21875 43.015625 
L 29.109375 43.015625 
Q 36.375 43.015625 40.234375 45.921875 
Q 44.09375 48.828125 44.09375 54.296875 
Q 44.09375 59.90625 40.109375 62.90625 
Q 36.140625 65.921875 28.71875 65.921875 
Q 24.65625 65.921875 20.015625 65.03125 
Q 15.375 64.15625 9.8125 62.3125 
L 9.8125 71.09375 
Q 15.4375 72.65625 20.34375 73.4375 
Q 25.25 74.21875 29.59375 74.21875 
Q 40.828125 74.21875 47.359375 69.109375 
Q 53.90625 64.015625 53.90625 55.328125 
Q 53.90625 49.265625 50.4375 45.09375 
Q 46.96875 40.921875 40.578125 39.3125 
z
" id="DejaVuSans-51"/>
       <path d="M 9.8125 72.90625 
L 51.703125 72.90625 
L 51.703125 64.59375 
L 19.671875 64.59375 
L 19.671875 43.109375 
L 48.578125 43.109375 
L 48.578125 34.8125 
L 19.671875 34.8125 
L 19.671875 0 
L 9.8125 0 
z
" id="DejaVuSans-70"/>
       <path d="M 56.203125 29.59375 
L 56.203125 25.203125 
L 14.890625 25.203125 
Q 15.484375 15.921875 20.484375 11.0625 
Q 25.484375 6.203125 34.421875 6.203125 
Q 39.59375 6.203125 44.453125 7.46875 
Q 49.3125 8.734375 54.109375 11.28125 
L 54.109375 2.78125 
Q 49.265625 0.734375 44.1875 -0.34375 
Q 39.109375 -1.421875 33.890625 -1.421875 
Q 20.796875 -1.421875 13.15625 6.1875 
Q 5.515625 13.8125 5.515625 26.8125 
Q 5.515625 40.234375 12.765625 48.109375 
Q 20.015625 56 32.328125 56 
Q 43.359375 56 49.78125 48.890625 
Q 56.203125 41.796875 56.203125 29.59375 
z
M 47.21875 32.234375 
Q 47.125 39.59375 43.09375 43.984375 
Q 39.0625 48.390625 32.421875 48.390625 
Q 24.90625 48.390625 20.390625 44.140625 
Q 15.875 39.890625 15.1875 32.171875 
z
" id="DejaVuSans-101"/>
       <path d="M 48.6875 27.296875 
Q 48.6875 37.203125 44.609375 42.84375 
Q 40.53125 48.484375 33.40625 48.484375 
Q 26.265625 48.484375 22.1875 42.84375 
Q 18.109375 37.203125 18.109375 27.296875 
Q 18.109375 17.390625 22.1875 11.75 
Q 26.265625 6.109375 33.40625 6.109375 
Q 40.53125 6.109375 44.609375 11.75 
Q 48.6875 17.390625 48.6875 27.296875 
z
M 18.109375 46.390625 
Q 20.953125 51.265625 25.265625 53.625 
Q 29.59375 56 35.59375 56 
Q 45.5625 56 51.78125 48.09375 
Q 58.015625 40.1875 58.015625 27.296875 
Q 58.015625 14.40625 51.78125 6.484375 
Q 45.5625 -1.421875 35.59375 -1.421875 
Q 29.59375 -1.421875 25.265625 0.953125 
Q 20.953125 3.328125 18.109375 8.203125 
L 18.109375 0 
L 9.078125 0 
L 9.078125 75.984375 
L 18.109375 75.984375 
z
" id="DejaVuSans-98"/>
      </defs>
      <g transform="translate(85.41437 160.33374)rotate(-90)scale(0.08 -0.08)">
       <use xlink:href="#DejaVuSans-50"/>
       <use x="63.623047" xlink:href="#DejaVuSans-51"/>
       <use x="127.246094" xlink:href="#DejaVuSans-32"/>
       <use x="159.033203" xlink:href="#DejaVuSans-70"/>
       <use x="211.052734" xlink:href="#DejaVuSans-101"/>
       <use x="272.576172" xlink:href="#DejaVuSans-98"/>
      </g>
     </g>
    </g>
    <g id="xtick_10">
     <g id="line2d_10">
      <g>
       <use style="stroke:#000000;stroke-width:0.8;" x="68.498412" xlink:href="#m95a0ed05ae" y="126.44874"/>
      </g>
     </g>
     <g id="text_10">
      <!-- 16 Feb -->
      <defs>
       <path d="M 33.015625 40.375 
Q 26.375 40.375 22.484375 35.828125 
Q 18.609375 31.296875 18.609375 23.390625 
Q 18.609375 15.53125 22.484375 10.953125 
Q 26.375 6.390625 33.015625 6.390625 
Q 39.65625 6.390625 43.53125 10.953125 
Q 47.40625 15.53125 47.40625 23.390625 
Q 47.40625 31.296875 43.53125 35.828125 
Q 39.65625 40.375 33.015625 40.375 
z
M 52.59375 71.296875 
L 52.59375 62.3125 
Q 48.875 64.0625 45.09375 64.984375 
Q 41.3125 65.921875 37.59375 65.921875 
Q 27.828125 65.921875 22.671875 59.328125 
Q 17.53125 52.734375 16.796875 39.40625 
Q 19.671875 43.65625 24.015625 45.921875 
Q 28.375 48.1875 33.59375 48.1875 
Q 44.578125 48.1875 50.953125 41.515625 
Q 57.328125 34.859375 57.328125 23.390625 
Q 57.328125 12.15625 50.6875 5.359375 
Q 44.046875 -1.421875 33.015625 -1.421875 
Q 20.359375 -1.421875 13.671875 8.265625 
Q 6.984375 17.96875 6.984375 36.375 
Q 6.984375 53.65625 15.1875 63.9375 
Q 23.390625 74.21875 37.203125 74.21875 
Q 40.921875 74.21875 44.703125 73.484375 
Q 48.484375 72.75 52.59375 71.296875 
z
" id="DejaVuSans-54"/>
      </defs>
      <g transform="translate(70.705912 160.33374)rotate(-90)scale(0.08 -0.08)">
       <use xlink:href="#DejaVuSans-49"/>
       <use x="63.623047" xlink:href="#DejaVuSans-54"/>
       <use x="127.246094" xlink:href="#DejaVuSans-32"/>
       <use x="159.033203" xlink:href="#DejaVuSans-70"/>
       <use x="211.052734" xlink:href="#DejaVuSans-101"/>
       <use x="272.576172" xlink:href="#DejaVuSans-98"/>
      </g>
     </g>
    </g>
   </g>
   <g id="matplotlib.axis_2">
    <g id="ytick_1">
     <g id="line2d_11">
      <defs>
       <path d="M 0 0 
L -3.5 0 
" id="m3df7b52b05" style="stroke:#000000;stroke-width:0.8;"/>
      </defs>
      <g>
       <use style="stroke:#000000;stroke-width:0.8;" x="52.13" xlink:href="#m3df7b52b05" y="126.44874"/>
      </g>
     </g>
     <g id="text_11">
      <!-- 0 -->
      <defs>
       <path d="M 31.78125 66.40625 
Q 24.171875 66.40625 20.328125 58.90625 
Q 16.5 51.421875 16.5 36.375 
Q 16.5 21.390625 20.328125 13.890625 
Q 24.171875 6.390625 31.78125 6.390625 
Q 39.453125 6.390625 43.28125 13.890625 
Q 47.125 21.390625 47.125 36.375 
Q 47.125 51.421875 43.28125 58.90625 
Q 39.453125 66.40625 31.78125 66.40625 
z
M 31.78125 74.21875 
Q 44.046875 74.21875 50.515625 64.515625 
Q 56.984375 54.828125 56.984375 36.375 
Q 56.984375 17.96875 50.515625 8.265625 
Q 44.046875 -1.421875 31.78125 -1.421875 
Q 19.53125 -1.421875 13.0625 8.265625 
Q 6.59375 17.96875 6.59375 36.375 
Q 6.59375 54.828125 13.0625 64.515625 
Q 19.53125 74.21875 31.78125 74.21875 
z
" id="DejaVuSans-48"/>
      </defs>
      <g transform="translate(40.04 129.488115)scale(0.08 -0.08)">
       <use xlink:href="#DejaVuSans-48"/>
      </g>
     </g>
    </g>
    <g id="ytick_2">
     <g id="line2d_12">
      <g>
       <use style="stroke:#000000;stroke-width:0.8;" x="52.13" xlink:href="#m3df7b52b05" y="99.716893"/>
      </g>
     </g>
     <g id="text_12">
      <!-- 5000 -->
      <g transform="translate(24.77 102.756268)scale(0.08 -0.08)">
       <use xlink:href="#DejaVuSans-53"/>
       <use x="63.623047" xlink:href="#DejaVuSans-48"/>
       <use x="127.246094" xlink:href="#DejaVuSans-48"/>
       <use x="190.869141" xlink:href="#DejaVuSans-48"/>
      </g>
     </g>
    </g>
    <g id="ytick_3">
     <g id="line2d_13">
      <g>
       <use style="stroke:#000000;stroke-width:0.8;" x="52.13" xlink:href="#m3df7b52b05" y="72.985046"/>
      </g>
     </g>
     <g id="text_13">
      <!-- 10000 -->
      <g transform="translate(19.68 76.024421)scale(0.08 -0.08)">
       <use xlink:href="#DejaVuSans-49"/>
       <use x="63.623047" xlink:href="#DejaVuSans-48"/>
       <use x="127.246094" xlink:href="#DejaVuSans-48"/>
       <use x="190.869141" xlink:href="#DejaVuSans-48"/>
       <use x="254.492188" xlink:href="#DejaVuSans-48"/>
      </g>
     </g>
    </g>
    <g id="ytick_4">
     <g id="line2d_14">
      <g>
       <use style="stroke:#000000;stroke-width:0.8;" x="52.13" xlink:href="#m3df7b52b05" y="46.2532"/>
      </g>
     </g>
     <g id="text_14">
      <!-- 15000 -->
      <g transform="translate(19.68 49.292575)scale(0.08 -0.08)">
       <use xlink:href="#DejaVuSans-49"/>
       <use x="63.623047" xlink:href="#DejaVuSans-53"/>
       <use x="127.246094" xlink:href="#DejaVuSans-48"/>
       <use x="190.869141" xlink:href="#DejaVuSans-48"/>
       <use x="254.492188" xlink:href="#DejaVuSans-48"/>
      </g>
     </g>
    </g>
    <g id="ytick_5">
     <g id="line2d_15">
      <g>
       <use style="stroke:#000000;stroke-width:0.8;" x="52.13" xlink:href="#m3df7b52b05" y="19.521353"/>
      </g>
     </g>
     <g id="text_15">
      <!-- 20000 -->
      <g transform="translate(19.68 22.560728)scale(0.08 -0.08)">
       <use xlink:href="#DejaVuSans-50"/>
       <use x="63.623047" xlink:href="#DejaVuSans-48"/>
       <use x="127.246094" xlink:href="#DejaVuSans-48"/>
       <use x="190.869141" xlink:href="#DejaVuSans-48"/>
       <use x="254.492188" xlink:href="#DejaVuSans-48"/>
      </g>
     </g>
    </g>
    <g id="text_16">
     <!-- Cumulative deaths -->
     <defs>
      <path d="M 64.40625 67.28125 
L 64.40625 56.890625 
Q 59.421875 61.53125 53.78125 63.8125 
Q 48.140625 66.109375 41.796875 66.109375 
Q 29.296875 66.109375 22.65625 58.46875 
Q 16.015625 50.828125 16.015625 36.375 
Q 16.015625 21.96875 22.65625 14.328125 
Q 29.296875 6.6875 41.796875 6.6875 
Q 48.140625 6.6875 53.78125 8.984375 
Q 59.421875 11.28125 64.40625 15.921875 
L 64.40625 5.609375 
Q 59.234375 2.09375 53.4375 0.328125 
Q 47.65625 -1.421875 41.21875 -1.421875 
Q 24.65625 -1.421875 15.125 8.703125 
Q 5.609375 18.84375 5.609375 36.375 
Q 5.609375 53.953125 15.125 64.078125 
Q 24.65625 74.21875 41.21875 74.21875 
Q 47.75 74.21875 53.53125 72.484375 
Q 59.328125 70.75 64.40625 67.28125 
z
" id="DejaVuSans-67"/>
      <path d="M 8.5 21.578125 
L 8.5 54.6875 
L 17.484375 54.6875 
L 17.484375 21.921875 
Q 17.484375 14.15625 20.5 10.265625 
Q 23.53125 6.390625 29.59375 6.390625 
Q 36.859375 6.390625 41.078125 11.03125 
Q 45.3125 15.671875 45.3125 23.6875 
L 45.3125 54.6875 
L 54.296875 54.6875 
L 54.296875 0 
L 45.3125 0 
L 45.3125 8.40625 
Q 42.046875 3.421875 37.71875 1 
Q 33.40625 -1.421875 27.6875 -1.421875 
Q 18.265625 -1.421875 13.375 4.4375 
Q 8.5 10.296875 8.5 21.578125 
z
M 31.109375 56 
z
" id="DejaVuSans-117"/>
      <path d="M 52 44.1875 
Q 55.375 50.25 60.0625 53.125 
Q 64.75 56 71.09375 56 
Q 79.640625 56 84.28125 50.015625 
Q 88.921875 44.046875 88.921875 33.015625 
L 88.921875 0 
L 79.890625 0 
L 79.890625 32.71875 
Q 79.890625 40.578125 77.09375 44.375 
Q 74.3125 48.1875 68.609375 48.1875 
Q 61.625 48.1875 57.5625 43.546875 
Q 53.515625 38.921875 53.515625 30.90625 
L 53.515625 0 
L 44.484375 0 
L 44.484375 32.71875 
Q 44.484375 40.625 41.703125 44.40625 
Q 38.921875 48.1875 33.109375 48.1875 
Q 26.21875 48.1875 22.15625 43.53125 
Q 18.109375 38.875 18.109375 30.90625 
L 18.109375 0 
L 9.078125 0 
L 9.078125 54.6875 
L 18.109375 54.6875 
L 18.109375 46.1875 
Q 21.1875 51.21875 25.484375 53.609375 
Q 29.78125 56 35.6875 56 
Q 41.65625 56 45.828125 52.96875 
Q 50 49.953125 52 44.1875 
z
" id="DejaVuSans-109"/>
      <path d="M 9.421875 75.984375 
L 18.40625 75.984375 
L 18.40625 0 
L 9.421875 0 
z
" id="DejaVuSans-108"/>
      <path d="M 18.3125 70.21875 
L 18.3125 54.6875 
L 36.8125 54.6875 
L 36.8125 47.703125 
L 18.3125 47.703125 
L 18.3125 18.015625 
Q 18.3125 11.328125 20.140625 9.421875 
Q 21.96875 7.515625 27.59375 7.515625 
L 36.8125 7.515625 
L 36.8125 0 
L 27.59375 0 
Q 17.1875 0 13.234375 3.875 
Q 9.28125 7.765625 9.28125 18.015625 
L 9.28125 47.703125 
L 2.6875 47.703125 
L 2.6875 54.6875 
L 9.28125 54.6875 
L 9.28125 70.21875 
z
" id="DejaVuSans-116"/>
      <path d="M 9.421875 54.6875 
L 18.40625 54.6875 
L 18.40625 0 
L 9.421875 0 
z
M 9.421875 75.984375 
L 18.40625 75.984375 
L 18.40625 64.59375 
L 9.421875 64.59375 
z
" id="DejaVuSans-105"/>
      <path d="M 2.984375 54.6875 
L 12.5 54.6875 
L 29.59375 8.796875 
L 46.6875 54.6875 
L 56.203125 54.6875 
L 35.6875 0 
L 23.484375 0 
z
" id="DejaVuSans-118"/>
      <path d="M 45.40625 46.390625 
L 45.40625 75.984375 
L 54.390625 75.984375 
L 54.390625 0 
L 45.40625 0 
L 45.40625 8.203125 
Q 42.578125 3.328125 38.25 0.953125 
Q 33.9375 -1.421875 27.875 -1.421875 
Q 17.96875 -1.421875 11.734375 6.484375 
Q 5.515625 14.40625 5.515625 27.296875 
Q 5.515625 40.1875 11.734375 48.09375 
Q 17.96875 56 27.875 56 
Q 33.9375 56 38.25 53.625 
Q 42.578125 51.265625 45.40625 46.390625 
z
M 14.796875 27.296875 
Q 14.796875 17.390625 18.875 11.75 
Q 22.953125 6.109375 30.078125 6.109375 
Q 37.203125 6.109375 41.296875 11.75 
Q 45.40625 17.390625 45.40625 27.296875 
Q 45.40625 37.203125 41.296875 42.84375 
Q 37.203125 48.484375 30.078125 48.484375 
Q 22.953125 48.484375 18.875 42.84375 
Q 14.796875 37.203125 14.796875 27.296875 
z
" id="DejaVuSans-100"/>
      <path d="M 54.890625 33.015625 
L 54.890625 0 
L 45.90625 0 
L 45.90625 32.71875 
Q 45.90625 40.484375 42.875 44.328125 
Q 39.84375 48.1875 33.796875 48.1875 
Q 26.515625 48.1875 22.3125 43.546875 
Q 18.109375 38.921875 18.109375 30.90625 
L 18.109375 0 
L 9.078125 0 
L 9.078125 75.984375 
L 18.109375 75.984375 
L 18.109375 46.1875 
Q 21.34375 51.125 25.703125 53.5625 
Q 30.078125 56 35.796875 56 
Q 45.21875 56 50.046875 50.171875 
Q 54.890625 44.34375 54.890625 33.015625 
z
" id="DejaVuSans-104"/>
      <path d="M 44.28125 53.078125 
L 44.28125 44.578125 
Q 40.484375 46.53125 36.375 47.5 
Q 32.28125 48.484375 27.875 48.484375 
Q 21.1875 48.484375 17.84375 46.4375 
Q 14.5 44.390625 14.5 40.28125 
Q 14.5 37.15625 16.890625 35.375 
Q 19.28125 33.59375 26.515625 31.984375 
L 29.59375 31.296875 
Q 39.15625 29.25 43.1875 25.515625 
Q 47.21875 21.78125 47.21875 15.09375 
Q 47.21875 7.46875 41.1875 3.015625 
Q 35.15625 -1.421875 24.609375 -1.421875 
Q 20.21875 -1.421875 15.453125 -0.5625 
Q 10.6875 0.296875 5.421875 2 
L 5.421875 11.28125 
Q 10.40625 8.6875 15.234375 7.390625 
Q 20.0625 6.109375 24.8125 6.109375 
Q 31.15625 6.109375 34.5625 8.28125 
Q 37.984375 10.453125 37.984375 14.40625 
Q 37.984375 18.0625 35.515625 20.015625 
Q 33.0625 21.96875 24.703125 23.78125 
L 21.578125 24.515625 
Q 13.234375 26.265625 9.515625 29.90625 
Q 5.8125 33.546875 5.8125 39.890625 
Q 5.8125 47.609375 11.28125 51.796875 
Q 16.75 56 26.8125 56 
Q 31.78125 56 36.171875 55.265625 
Q 40.578125 54.546875 44.28125 53.078125 
z
" id="DejaVuSans-115"/>
     </defs>
     <g transform="translate(14.01625 106.72437)rotate(-90)scale(0.08 -0.08)">
      <use xlink:href="#DejaVuSans-67"/>
      <use x="69.824219" xlink:href="#DejaVuSans-117"/>
      <use x="133.203125" xlink:href="#DejaVuSans-109"/>
      <use x="230.615234" xlink:href="#DejaVuSans-117"/>
      <use x="293.994141" xlink:href="#DejaVuSans-108"/>
      <use x="321.777344" xlink:href="#DejaVuSans-97"/>
      <use x="383.056641" xlink:href="#DejaVuSans-116"/>
      <use x="422.265625" xlink:href="#DejaVuSans-105"/>
      <use x="450.048828" xlink:href="#DejaVuSans-118"/>
      <use x="509.228516" xlink:href="#DejaVuSans-101"/>
      <use x="570.751953" xlink:href="#DejaVuSans-32"/>
      <use x="602.539062" xlink:href="#DejaVuSans-100"/>
      <use x="666.015625" xlink:href="#DejaVuSans-101"/>
      <use x="727.539062" xlink:href="#DejaVuSans-97"/>
      <use x="788.818359" xlink:href="#DejaVuSans-116"/>
      <use x="828.027344" xlink:href="#DejaVuSans-104"/>
      <use x="891.40625" xlink:href="#DejaVuSans-115"/>
     </g>
    </g>
   </g>
   <g id="line2d_16">
    <path clip-path="url(#p632bf73166)" d="M 60.093579 126.44874 
L 62.194787 126.44874 
L 64.295996 126.448738 
L 66.397204 126.44873 
L 68.498412 126.448708 
L 70.59962 126.448659 
L 72.700829 126.448568 
L 74.802037 126.448414 
L 76.903245 126.448176 
L 79.004453 126.447827 
L 81.105662 126.44734 
L 83.20687 126.446684 
L 85.308078 126.445825 
L 87.409286 126.444722 
L 89.510495 126.443333 
L 91.611703 126.441606 
L 93.712911 126.439479 
L 95.814119 126.43688 
L 97.915327 126.43372 
L 100.016536 126.429895 
L 102.117744 126.425278 
L 104.218952 126.419711 
L 106.32016 126.413003 
L 108.421369 126.404916 
L 110.522577 126.395162 
L 112.623785 126.383381 
L 114.724993 126.36913 
L 116.826202 126.351871 
L 118.92741 126.33094 
L 121.028618 126.305516 
L 123.129826 126.274584 
L 125.231035 126.236836 
L 127.332243 126.190576 
L 129.433451 126.133641 
L 131.534659 126.063282 
L 133.635867 125.975709 
L 135.737076 125.865689 
L 137.838284 125.7258 
L 139.939492 125.545361 
L 142.0407 125.310388 
L 144.141909 125.0035 
L 146.243117 124.605052 
L 148.344325 124.093561 
L 150.445533 123.447629 
L 152.546742 122.646869 
L 154.64795 121.673196 
L 156.749158 120.511654 
" style="fill:none;stroke:#0000ff;stroke-linecap:square;stroke-opacity:0.5;"/>
   </g>
   <g id="line2d_17">
    <path clip-path="url(#p632bf73166)" d="M 158.850366 119.151245 
L 160.951575 117.58541 
L 163.052783 115.81226 
L 165.153991 113.834548 
L 167.255199 111.659317 
L 169.356407 109.297374 
L 171.457616 106.762623 
L 173.558824 104.071362 
L 175.660032 101.241569 
L 177.76124 98.292237 
L 179.862449 95.242758 
L 181.963657 92.112391 
L 184.064865 88.919817 
L 186.166073 85.682765 
L 188.267282 82.41773 
L 190.36849 79.139758 
L 192.469698 75.862301 
L 194.570906 72.597124 
L 196.672115 69.354262 
L 198.773323 66.142017 
L 200.874531 62.966984 
" style="fill:none;stroke:#008000;stroke-linecap:square;stroke-opacity:0.5;"/>
   </g>
   <g id="line2d_18">
    <path clip-path="url(#p632bf73166)" d="M 146.243117 126.44874 
L 146.243117 11.52 
" style="fill:none;stroke:#0000ff;stroke-dasharray:1.85,0.8;stroke-dashoffset:0;stroke-width:0.5;"/>
   </g>
   <g id="line2d_19">
    <path clip-path="url(#p632bf73166)" d="M 139.939492 126.44874 
L 139.939492 11.52 
" style="fill:none;stroke:#0000ff;stroke-dasharray:1.85,0.8;stroke-dashoffset:0;stroke-width:0.5;"/>
   </g>
   <g id="line2d_20">
    <path clip-path="url(#p632bf73166)" d="M 146.243117 126.44874 
L 146.243117 11.52 
" style="fill:none;stroke:#0000ff;stroke-dasharray:1.85,0.8;stroke-dashoffset:0;stroke-width:0.5;"/>
   </g>
   <g id="line2d_21">
    <path clip-path="url(#p632bf73166)" d="M 129.433451 126.44874 
L 129.433451 11.52 
" style="fill:none;stroke:#0000ff;stroke-dasharray:1.85,0.8;stroke-dashoffset:0;stroke-width:0.5;"/>
   </g>
   <g id="line2d_22">
    <path clip-path="url(#p632bf73166)" d="M 121.028618 126.44874 
L 121.028618 11.52 
" style="fill:none;stroke:#0000ff;stroke-dasharray:1.85,0.8;stroke-dashoffset:0;stroke-width:0.5;"/>
   </g>
   <g id="patch_71">
    <path d="M 52.13 126.44874 
L 52.13 11.52 
" style="fill:none;stroke:#000000;stroke-linecap:square;stroke-linejoin:miter;stroke-width:0.8;"/>
   </g>
   <g id="patch_72">
    <path d="M 208.83811 126.44874 
L 208.83811 11.52 
" style="fill:none;stroke:#000000;stroke-linecap:square;stroke-linejoin:miter;stroke-width:0.8;"/>
   </g>
   <g id="patch_73">
    <path d="M 52.13 126.44874 
L 208.83811 126.44874 
" style="fill:none;stroke:#000000;stroke-linecap:square;stroke-linejoin:miter;stroke-width:0.8;"/>
   </g>
   <g id="patch_74">
    <path d="M 52.13 11.52 
L 208.83811 11.52 
" style="fill:none;stroke:#000000;stroke-linecap:square;stroke-linejoin:miter;stroke-width:0.8;"/>
   </g>
  </g>
  <g id="axes_2">
   <g id="matplotlib.axis_3">
    <g id="ytick_6">
     <g id="line2d_23">
      <defs>
       <path d="M 0 0 
L 3.5 0 
" id="mf5733ad8ec" style="stroke:#000000;stroke-width:0.8;"/>
      </defs>
      <g>
       <use style="stroke:#000000;stroke-width:0.8;" x="208.83811" xlink:href="#mf5733ad8ec" y="126.44874"/>
      </g>
     </g>
     <g id="text_17">
      <!-- 1.0 -->
      <defs>
       <path d="M 10.59375 35.5 
L 73.1875 35.5 
L 73.1875 27.203125 
L 10.59375 27.203125 
z
" id="DejaVuSans-8722"/>
       <path d="M 10.6875 12.40625 
L 21 12.40625 
L 21 0 
L 10.6875 0 
z
" id="DejaVuSans-46"/>
      </defs>
      <g transform="translate(215.83811 129.488115)scale(0.08 -0.08)">
       <use xlink:href="#DejaVuSans-8722"/>
       <use x="83.789062" xlink:href="#DejaVuSans-49"/>
       <use x="147.412109" xlink:href="#DejaVuSans-46"/>
       <use x="179.199219" xlink:href="#DejaVuSans-48"/>
      </g>
     </g>
    </g>
    <g id="ytick_7">
     <g id="line2d_24">
      <g>
       <use style="stroke:#000000;stroke-width:0.8;" x="208.83811" xlink:href="#mf5733ad8ec" y="85.402762"/>
      </g>
     </g>
     <g id="text_18">
      <!-- 0.5 -->
      <g transform="translate(215.83811 88.442137)scale(0.08 -0.08)">
       <use xlink:href="#DejaVuSans-8722"/>
       <use x="83.789062" xlink:href="#DejaVuSans-48"/>
       <use x="147.412109" xlink:href="#DejaVuSans-46"/>
       <use x="179.199219" xlink:href="#DejaVuSans-53"/>
      </g>
     </g>
    </g>
    <g id="ytick_8">
     <g id="line2d_25">
      <g>
       <use style="stroke:#000000;stroke-width:0.8;" x="208.83811" xlink:href="#mf5733ad8ec" y="44.356783"/>
      </g>
     </g>
     <g id="text_19">
      <!-- 0.0 -->
      <g transform="translate(215.83811 47.396158)scale(0.08 -0.08)">
       <use xlink:href="#DejaVuSans-48"/>
       <use x="63.623047" xlink:href="#DejaVuSans-46"/>
       <use x="95.410156" xlink:href="#DejaVuSans-48"/>
      </g>
     </g>
    </g>
    <g id="ytick_9">
     <g id="line2d_26">
      <g>
       <use style="stroke:#000000;stroke-width:0.8;" x="208.83811" xlink:href="#mf5733ad8ec" y="11.52"/>
      </g>
     </g>
     <g id="text_20">
      <!-- 0.4 -->
      <defs>
       <path d="M 37.796875 64.3125 
L 12.890625 25.390625 
L 37.796875 25.390625 
z
M 35.203125 72.90625 
L 47.609375 72.90625 
L 47.609375 25.390625 
L 58.015625 25.390625 
L 58.015625 17.1875 
L 47.609375 17.1875 
L 47.609375 0 
L 37.796875 0 
L 37.796875 17.1875 
L 4.890625 17.1875 
L 4.890625 26.703125 
z
" id="DejaVuSans-52"/>
      </defs>
      <g transform="translate(215.83811 14.559375)scale(0.08 -0.08)">
       <use xlink:href="#DejaVuSans-48"/>
       <use x="63.623047" xlink:href="#DejaVuSans-46"/>
       <use x="95.410156" xlink:href="#DejaVuSans-52"/>
      </g>
     </g>
    </g>
    <g id="text_21">
     <!-- Relative change -->
     <defs>
      <path d="M 44.390625 34.1875 
Q 47.5625 33.109375 50.5625 29.59375 
Q 53.5625 26.078125 56.59375 19.921875 
L 66.609375 0 
L 56 0 
L 46.6875 18.703125 
Q 43.0625 26.03125 39.671875 28.421875 
Q 36.28125 30.8125 30.421875 30.8125 
L 19.671875 30.8125 
L 19.671875 0 
L 9.8125 0 
L 9.8125 72.90625 
L 32.078125 72.90625 
Q 44.578125 72.90625 50.734375 67.671875 
Q 56.890625 62.453125 56.890625 51.90625 
Q 56.890625 45.015625 53.6875 40.46875 
Q 50.484375 35.9375 44.390625 34.1875 
z
M 19.671875 64.796875 
L 19.671875 38.921875 
L 32.078125 38.921875 
Q 39.203125 38.921875 42.84375 42.21875 
Q 46.484375 45.515625 46.484375 51.90625 
Q 46.484375 58.296875 42.84375 61.546875 
Q 39.203125 64.796875 32.078125 64.796875 
z
" id="DejaVuSans-82"/>
      <path d="M 48.78125 52.59375 
L 48.78125 44.1875 
Q 44.96875 46.296875 41.140625 47.34375 
Q 37.3125 48.390625 33.40625 48.390625 
Q 24.65625 48.390625 19.8125 42.84375 
Q 14.984375 37.3125 14.984375 27.296875 
Q 14.984375 17.28125 19.8125 11.734375 
Q 24.65625 6.203125 33.40625 6.203125 
Q 37.3125 6.203125 41.140625 7.25 
Q 44.96875 8.296875 48.78125 10.40625 
L 48.78125 2.09375 
Q 45.015625 0.34375 40.984375 -0.53125 
Q 36.96875 -1.421875 32.421875 -1.421875 
Q 20.0625 -1.421875 12.78125 6.34375 
Q 5.515625 14.109375 5.515625 27.296875 
Q 5.515625 40.671875 12.859375 48.328125 
Q 20.21875 56 33.015625 56 
Q 37.15625 56 41.109375 55.140625 
Q 45.0625 54.296875 48.78125 52.59375 
z
" id="DejaVuSans-99"/>
      <path d="M 54.890625 33.015625 
L 54.890625 0 
L 45.90625 0 
L 45.90625 32.71875 
Q 45.90625 40.484375 42.875 44.328125 
Q 39.84375 48.1875 33.796875 48.1875 
Q 26.515625 48.1875 22.3125 43.546875 
Q 18.109375 38.921875 18.109375 30.90625 
L 18.109375 0 
L 9.078125 0 
L 9.078125 54.6875 
L 18.109375 54.6875 
L 18.109375 46.1875 
Q 21.34375 51.125 25.703125 53.5625 
Q 30.078125 56 35.796875 56 
Q 45.21875 56 50.046875 50.171875 
Q 54.890625 44.34375 54.890625 33.015625 
z
" id="DejaVuSans-110"/>
      <path d="M 45.40625 27.984375 
Q 45.40625 37.75 41.375 43.109375 
Q 37.359375 48.484375 30.078125 48.484375 
Q 22.859375 48.484375 18.828125 43.109375 
Q 14.796875 37.75 14.796875 27.984375 
Q 14.796875 18.265625 18.828125 12.890625 
Q 22.859375 7.515625 30.078125 7.515625 
Q 37.359375 7.515625 41.375 12.890625 
Q 45.40625 18.265625 45.40625 27.984375 
z
M 54.390625 6.78125 
Q 54.390625 -7.171875 48.1875 -13.984375 
Q 42 -20.796875 29.203125 -20.796875 
Q 24.46875 -20.796875 20.265625 -20.09375 
Q 16.0625 -19.390625 12.109375 -17.921875 
L 12.109375 -9.1875 
Q 16.0625 -11.328125 19.921875 -12.34375 
Q 23.78125 -13.375 27.78125 -13.375 
Q 36.625 -13.375 41.015625 -8.765625 
Q 45.40625 -4.15625 45.40625 5.171875 
L 45.40625 9.625 
Q 42.625 4.78125 38.28125 2.390625 
Q 33.9375 0 27.875 0 
Q 17.828125 0 11.671875 7.65625 
Q 5.515625 15.328125 5.515625 27.984375 
Q 5.515625 40.671875 11.671875 48.328125 
Q 17.828125 56 27.875 56 
Q 33.9375 56 38.28125 53.609375 
Q 42.625 51.21875 45.40625 46.390625 
L 45.40625 54.6875 
L 54.390625 54.6875 
z
" id="DejaVuSans-103"/>
     </defs>
     <g transform="translate(245.34311 101.10812)rotate(-90)scale(0.08 -0.08)">
      <use xlink:href="#DejaVuSans-82"/>
      <use x="64.982422" xlink:href="#DejaVuSans-101"/>
      <use x="126.505859" xlink:href="#DejaVuSans-108"/>
      <use x="154.289062" xlink:href="#DejaVuSans-97"/>
      <use x="215.568359" xlink:href="#DejaVuSans-116"/>
      <use x="254.777344" xlink:href="#DejaVuSans-105"/>
      <use x="282.560547" xlink:href="#DejaVuSans-118"/>
      <use x="341.740234" xlink:href="#DejaVuSans-101"/>
      <use x="403.263672" xlink:href="#DejaVuSans-32"/>
      <use x="435.050781" xlink:href="#DejaVuSans-99"/>
      <use x="490.03125" xlink:href="#DejaVuSans-104"/>
      <use x="553.410156" xlink:href="#DejaVuSans-97"/>
      <use x="614.689453" xlink:href="#DejaVuSans-110"/>
      <use x="678.068359" xlink:href="#DejaVuSans-103"/>
      <use x="741.544922" xlink:href="#DejaVuSans-101"/>
     </g>
    </g>
   </g>
   <g id="line2d_27">
    <path clip-path="url(#p632bf73166)" d="M 60.093579 44.356783 
L 62.194787 44.356783 
L 64.295996 44.356783 
L 66.397204 54.207818 
L 68.498412 50.10322 
L 70.59962 36.147587 
L 72.700829 38.610346 
L 74.802037 39.431265 
L 76.903245 40.252185 
L 79.004453 40.252185 
L 81.105662 47.640461 
L 83.20687 45.177702 
L 85.308078 46.819542 
L 87.409286 45.177702 
L 89.510495 43.535863 
L 91.611703 42.714944 
L 93.712911 43.535863 
L 95.814119 43.535863 
L 97.915327 38.610346 
L 100.016536 41.073105 
L 102.117744 42.714944 
L 104.218952 42.714944 
L 106.32016 45.177702 
L 108.421369 40.252185 
L 110.522577 44.356783 
L 112.623785 41.073105 
L 114.724993 44.356783 
L 116.826202 45.998622 
L 118.92741 44.356783 
L 121.028618 45.177702 
L 123.129826 45.998622 
L 125.231035 52.565979 
L 127.332243 53.386898 
L 129.433451 46.819542 
L 131.534659 56.670576 
L 133.635867 61.596094 
L 135.737076 61.596094 
L 137.838284 67.342531 
L 139.939492 85.402762 
L 142.0407 90.328279 
L 144.141909 81.298164 
L 146.243117 102.642073 
L 148.344325 104.283912 
L 150.445533 105.104831 
L 152.546742 106.74667 
L 154.64795 112.493107 
L 156.749158 114.134947 
" style="fill:none;stroke:#d62728;stroke-linecap:square;stroke-opacity:0.5;"/>
   </g>
   <g id="line2d_28">
    <path clip-path="url(#p632bf73166)" d="M 60.093579 44.356783 
L 62.194787 44.356783 
L 64.295996 44.356783 
L 66.397204 50.10322 
L 68.498412 49.2823 
L 70.59962 43.535863 
L 72.700829 45.177702 
L 74.802037 45.998622 
L 76.903245 45.998622 
L 79.004453 45.177702 
L 81.105662 45.998622 
L 83.20687 45.998622 
L 85.308078 45.177702 
L 87.409286 41.073105 
L 89.510495 44.356783 
L 91.611703 43.535863 
L 93.712911 43.535863 
L 95.814119 43.535863 
L 97.915327 42.714944 
L 100.016536 41.073105 
L 102.117744 41.894024 
L 104.218952 41.894024 
L 106.32016 42.714944 
L 108.421369 39.431265 
L 110.522577 42.714944 
L 112.623785 42.714944 
L 114.724993 41.073105 
L 116.826202 40.252185 
L 118.92741 40.252185 
L 121.028618 35.326668 
L 123.129826 35.326668 
L 125.231035 38.610346 
L 127.332243 38.610346 
L 129.433451 27.938391 
L 131.534659 27.117472 
L 133.635867 26.296552 
L 135.737076 24.654713 
L 137.838284 36.147587 
L 139.939492 43.535863 
L 142.0407 55.849657 
L 144.141909 50.924139 
L 146.243117 64.058853 
L 148.344325 65.700692 
L 150.445533 67.342531 
L 152.546742 68.163451 
L 154.64795 76.372646 
L 156.749158 82.119083 
" style="fill:none;stroke:#9467bd;stroke-linecap:square;stroke-opacity:0.5;"/>
   </g>
   <g id="line2d_29">
    <path clip-path="url(#p632bf73166)" d="M 60.093579 44.356783 
L 62.194787 44.356783 
L 64.295996 44.356783 
L 66.397204 54.207818 
L 68.498412 50.10322 
L 70.59962 45.998622 
L 72.700829 46.819542 
L 74.802037 47.640461 
L 76.903245 48.461381 
L 79.004453 46.819542 
L 81.105662 45.998622 
L 83.20687 41.894024 
L 85.308078 45.998622 
L 87.409286 43.535863 
L 89.510495 45.177702 
L 91.611703 44.356783 
L 93.712911 44.356783 
L 95.814119 45.998622 
L 97.915327 40.252185 
L 100.016536 44.356783 
L 102.117744 45.177702 
L 104.218952 45.998622 
L 106.32016 46.819542 
L 108.421369 43.535863 
L 110.522577 45.177702 
L 112.623785 42.714944 
L 114.724993 46.819542 
L 116.826202 47.640461 
L 118.92741 49.2823 
L 121.028618 50.924139 
L 123.129826 51.745059 
L 125.231035 56.670576 
L 127.332243 57.491496 
L 129.433451 57.491496 
L 131.534659 66.521611 
L 133.635867 72.268048 
L 135.737076 74.730807 
L 137.838284 77.193566 
L 139.939492 82.119083 
L 142.0407 82.119083 
L 144.141909 87.86552 
L 146.243117 96.895636 
L 148.344325 100.179314 
L 150.445533 101.821153 
L 152.546742 102.642073 
L 154.64795 105.104831 
L 156.749158 105.925751 
" style="fill:none;stroke:#e377c2;stroke-linecap:square;stroke-opacity:0.5;"/>
   </g>
   <g id="line2d_30">
    <path clip-path="url(#p632bf73166)" d="M 60.093579 44.356783 
L 62.194787 44.356783 
L 64.295996 44.356783 
L 66.397204 47.640461 
L 68.498412 46.819542 
L 70.59962 55.849657 
L 72.700829 55.849657 
L 74.802037 55.849657 
L 76.903245 55.849657 
L 79.004453 56.670576 
L 81.105662 45.998622 
L 83.20687 45.177702 
L 85.308078 45.998622 
L 87.409286 43.535863 
L 89.510495 43.535863 
L 91.611703 44.356783 
L 93.712911 45.177702 
L 95.814119 44.356783 
L 97.915327 43.535863 
L 100.016536 43.535863 
L 102.117744 43.535863 
L 104.218952 43.535863 
L 106.32016 44.356783 
L 108.421369 43.535863 
L 110.522577 43.535863 
L 112.623785 43.535863 
L 114.724993 44.356783 
L 116.826202 44.356783 
L 118.92741 44.356783 
L 121.028618 45.177702 
L 123.129826 47.640461 
L 125.231035 45.998622 
L 127.332243 47.640461 
L 129.433451 51.745059 
L 131.534659 57.491496 
L 133.635867 63.237933 
L 135.737076 66.521611 
L 137.838284 68.163451 
L 139.939492 64.879772 
L 142.0407 68.98437 
L 144.141909 81.298164 
L 146.243117 91.970118 
L 148.344325 96.895636 
L 150.445533 98.537475 
L 152.546742 98.537475 
L 154.64795 91.149199 
L 156.749158 89.507359 
" style="fill:none;stroke:#bcbd22;stroke-linecap:square;stroke-opacity:0.5;"/>
   </g>
   <g id="line2d_31">
    <path clip-path="url(#p632bf73166)" d="M 60.093579 44.356783 
L 62.194787 44.356783 
L 64.295996 44.356783 
L 66.397204 42.714944 
L 68.498412 43.535863 
L 70.59962 42.714944 
L 72.700829 42.714944 
L 74.802037 41.894024 
L 76.903245 41.894024 
L 79.004453 41.894024 
L 81.105662 43.535863 
L 83.20687 44.356783 
L 85.308078 43.535863 
L 87.409286 44.356783 
L 89.510495 44.356783 
L 91.611703 44.356783 
L 93.712911 43.535863 
L 95.814119 44.356783 
L 97.915327 45.177702 
L 100.016536 44.356783 
L 102.117744 44.356783 
L 104.218952 43.535863 
L 106.32016 43.535863 
L 108.421369 44.356783 
L 110.522577 44.356783 
L 112.623785 45.177702 
L 114.724993 43.535863 
L 116.826202 43.535863 
L 118.92741 43.535863 
L 121.028618 42.714944 
L 123.129826 42.714944 
L 125.231035 42.714944 
L 127.332243 42.714944 
L 129.433451 41.073105 
L 131.534659 38.610346 
L 133.635867 36.147587 
L 135.737076 35.326668 
L 137.838284 33.684828 
L 139.939492 35.326668 
L 142.0407 36.968507 
L 144.141909 30.40115 
L 146.243117 24.654713 
L 148.344325 23.012874 
L 150.445533 22.191954 
L 152.546742 21.371035 
L 154.64795 27.938391 
L 156.749158 32.042989 
" style="fill:none;stroke:#17becf;stroke-linecap:square;stroke-opacity:0.5;"/>
   </g>
   <g id="patch_75">
    <path d="M 52.13 126.44874 
L 52.13 11.52 
" style="fill:none;stroke:#000000;stroke-linecap:square;stroke-linejoin:miter;stroke-width:0.8;"/>
   </g>
   <g id="patch_76">
    <path d="M 208.83811 126.44874 
L 208.83811 11.52 
" style="fill:none;stroke:#000000;stroke-linecap:square;stroke-linejoin:miter;stroke-width:0.8;"/>
   </g>
   <g id="patch_77">
    <path d="M 52.13 126.44874 
L 208.83811 126.44874 
" style="fill:none;stroke:#000000;stroke-linecap:square;stroke-linejoin:miter;stroke-width:0.8;"/>
   </g>
   <g id="patch_78">
    <path d="M 52.13 11.52 
L 208.83811 11.52 
" style="fill:none;stroke:#000000;stroke-linecap:square;stroke-linejoin:miter;stroke-width:0.8;"/>
   </g>
  </g>
 </g>
 <defs>
  <clipPath id="p632bf73166">
   <rect height="114.92874" width="156.70811" x="52.13" y="11.52"/>
  </clipPath>
 </defs>
</svg>
