<?xml version="1.0" encoding="utf-8" standalone="no"?>
<!DOCTYPE svg PUBLIC "-//W3C//DTD SVG 1.1//EN"
  "http://www.w3.org/Graphics/SVG/1.1/DTD/svg11.dtd">
<!-- Created with matplotlib (https://matplotlib.org/) -->
<svg height="170.07874pt" version="1.1" viewBox="0 0 255.11811 170.07874" width="255.11811pt" xmlns="http://www.w3.org/2000/svg" xmlns:xlink="http://www.w3.org/1999/xlink">
 <defs>
  <style type="text/css">
*{stroke-linecap:butt;stroke-linejoin:round;}
  </style>
 </defs>
 <g id="figure_1">
  <g id="patch_1">
   <path d="M 0 170.07874 
L 255.11811 170.07874 
L 255.11811 0 
L 0 0 
z
" style="fill:#ffffff;"/>
  </g>
  <g id="axes_1">
   <g id="patch_2">
    <path d="M 57.17 126.44874 
L 208.83811 126.44874 
L 208.83811 11.52 
L 57.17 11.52 
z
" style="fill:#ffffff;"/>
   </g>
   <g id="PolyCollection_1">
    <defs>
     <path d="M 64.877457 -43.723782 
L 64.877457 -43.645407 
L 66.911087 -43.645407 
L 68.944717 -43.645407 
L 70.978346 -43.645407 
L 73.011976 -43.645407 
L 75.045606 -43.645407 
L 77.079236 -43.656801 
L 79.112866 -43.661279 
L 81.146495 -43.667448 
L 83.180125 -43.676651 
L 85.213755 -43.686255 
L 87.247385 -43.699544 
L 89.281014 -43.717014 
L 91.314644 -43.75604 
L 93.348274 -43.767229 
L 95.381904 -43.807697 
L 97.415534 -43.849731 
L 99.449163 -43.902804 
L 101.482793 -43.988373 
L 103.516423 -44.103506 
L 105.550053 -44.199007 
L 107.583683 -44.34152 
L 109.617312 -44.478567 
L 111.650942 -44.869359 
L 113.684572 -44.931113 
L 115.718202 -45.248902 
L 117.751832 -45.757694 
L 119.785461 -46.334136 
L 121.819091 -46.932837 
L 123.852721 -48.725779 
L 125.886351 -49.898628 
L 127.919981 -50.34183 
L 129.95361 -52.040961 
L 131.98724 -59.323016 
L 134.02087 -62.935122 
L 136.0545 -68.352025 
L 138.08813 -76.454242 
L 140.121759 -73.394325 
L 142.155389 -72.408847 
L 144.189019 -64.277541 
L 146.222649 -72.230804 
L 148.256279 -58.606677 
L 150.289908 -57.420385 
L 152.323538 -56.088729 
L 154.357168 -54.841648 
L 156.390798 -50.48386 
L 158.424428 -48.242868 
L 158.424428 -108.236717 
L 158.424428 -108.236717 
L 156.390798 -112.015465 
L 154.357168 -120.36758 
L 152.323538 -116.404391 
L 150.289908 -111.846473 
L 148.256279 -107.36545 
L 146.222649 -131.41211 
L 144.189019 -104.736628 
L 142.155389 -120.348782 
L 140.121759 -120.678249 
L 138.08813 -139.393115 
L 136.0545 -103.778568 
L 134.02087 -84.948206 
L 131.98724 -74.448777 
L 129.95361 -58.796181 
L 127.919981 -55.370221 
L 125.886351 -53.931473 
L 123.852721 -51.858599 
L 121.819091 -49.325532 
L 119.785461 -48.227941 
L 117.751832 -47.286464 
L 115.718202 -46.52305 
L 113.684572 -45.953331 
L 111.650942 -45.779791 
L 109.617312 -45.198132 
L 107.583683 -44.966353 
L 105.550053 -44.750836 
L 103.516423 -44.600951 
L 101.482793 -44.411836 
L 99.449163 -44.261069 
L 97.415534 -44.163616 
L 95.381904 -44.086911 
L 93.348274 -44.004865 
L 91.314644 -44.003803 
L 89.281014 -43.898627 
L 87.247385 -43.85861 
L 85.213755 -43.828903 
L 83.180125 -43.807639 
L 81.146495 -43.779856 
L 79.112866 -43.76015 
L 77.079236 -43.744319 
L 75.045606 -43.723782 
L 73.011976 -43.723782 
L 70.978346 -43.723782 
L 68.944717 -43.723782 
L 66.911087 -43.723782 
L 64.877457 -43.723782 
z
" id="m8d820b7038" style="stroke:#6495ed;stroke-opacity:0.4;"/>
    </defs>
    <g clip-path="url(#p420064aa99)">
     <use style="fill:#6495ed;fill-opacity:0.4;stroke:#6495ed;stroke-opacity:0.4;" x="0" xlink:href="#m8d820b7038" y="170.07874"/>
    </g>
   </g>
   <g id="PolyCollection_2">
    <defs>
     <path d="M 64.877457 -43.685978 
L 64.877457 -43.659914 
L 66.911087 -43.659914 
L 68.944717 -43.659914 
L 70.978346 -43.659914 
L 73.011976 -43.659914 
L 75.045606 -43.659914 
L 77.079236 -43.67583 
L 79.112866 -43.682959 
L 81.146495 -43.692912 
L 83.180125 -43.707322 
L 85.213755 -43.719661 
L 87.247385 -43.737837 
L 89.281014 -43.761395 
L 91.314644 -43.817918 
L 93.348274 -43.827476 
L 95.381904 -43.879624 
L 97.415534 -43.93194 
L 99.449163 -43.997454 
L 101.482793 -44.098441 
L 103.516423 -44.235955 
L 105.550053 -44.344355 
L 107.583683 -44.506729 
L 109.617312 -44.666945 
L 111.650942 -45.113803 
L 113.684572 -45.196846 
L 115.718202 -45.575532 
L 117.751832 -46.160175 
L 119.785461 -46.820266 
L 121.819091 -47.536837 
L 123.852721 -49.571859 
L 125.886351 -50.981479 
L 127.919981 -51.676325 
L 129.95361 -53.822477 
L 131.98724 -63.400483 
L 134.02087 -68.783773 
L 136.0545 -77.298139 
L 138.08813 -91.45548 
L 140.121759 -85.04306 
L 142.155389 -84.223462 
L 144.189019 -73.798853 
L 146.222649 -86.231175 
L 148.256279 -68.490492 
L 150.289908 -67.864737 
L 152.323538 -66.567778 
L 154.357168 -65.527862 
L 156.390798 -58.514172 
L 158.424428 -54.480916 
L 158.424428 -69.555933 
L 158.424428 -69.555933 
L 156.390798 -75.253028 
L 154.357168 -84.821846 
L 152.323538 -84.679495 
L 150.289908 -84.57433 
L 148.256279 -83.618598 
L 146.222649 -105.476743 
L 144.189019 -87.039838 
L 142.155389 -99.926654 
L 140.121759 -100.478733 
L 138.08813 -112.348135 
L 136.0545 -89.060341 
L 134.02087 -76.127014 
L 131.98724 -68.495246 
L 129.95361 -56.112967 
L 127.919981 -53.387117 
L 125.886351 -52.388253 
L 123.852721 -50.640588 
L 121.819091 -48.324519 
L 119.785461 -47.443221 
L 117.751832 -46.665088 
L 115.718202 -45.998163 
L 113.684572 -45.539168 
L 111.650942 -45.425295 
L 109.617312 -44.913905 
L 107.583683 -44.727555 
L 105.550053 -44.53673 
L 103.516423 -44.411551 
L 101.482793 -44.245785 
L 99.449163 -44.121628 
L 97.415534 -44.041737 
L 95.381904 -43.977263 
L 93.348274 -43.911005 
L 91.314644 -43.903748 
L 89.281014 -43.825564 
L 87.247385 -43.793595 
L 85.213755 -43.768783 
L 83.180125 -43.752339 
L 81.146495 -43.731569 
L 79.112866 -43.716755 
L 77.079236 -43.70561 
L 75.045606 -43.685978 
L 73.011976 -43.685978 
L 70.978346 -43.685978 
L 68.944717 -43.685978 
L 66.911087 -43.685978 
L 64.877457 -43.685978 
z
" id="m2a6cb5dfbb" style="stroke:#6495ed;stroke-opacity:0.6;"/>
    </defs>
    <g clip-path="url(#p420064aa99)">
     <use style="fill:#6495ed;fill-opacity:0.6;stroke:#6495ed;stroke-opacity:0.6;" x="0" xlink:href="#m2a6cb5dfbb" y="170.07874"/>
    </g>
   </g>
   <g id="PolyCollection_3">
    <defs>
     <path d="M 158.424428 -108.236717 
L 158.424428 -48.242868 
L 160.458057 -47.764723 
L 162.491687 -47.249796 
L 164.525317 -46.75712 
L 166.558947 -46.29629 
L 168.592577 -45.885217 
L 170.626206 -45.533063 
L 172.659836 -45.235951 
L 174.693466 -44.972584 
L 176.727096 -44.753522 
L 178.760726 -44.565581 
L 180.794355 -44.407563 
L 182.827985 -44.276262 
L 184.861615 -44.16451 
L 186.895245 -44.073128 
L 188.928875 -43.997475 
L 190.962504 -43.934644 
L 192.996134 -43.884101 
L 195.029764 -43.840978 
L 197.063394 -43.804395 
L 199.097024 -43.774504 
L 201.130653 -43.750166 
L 201.130653 -158.55874 
L 201.130653 -158.55874 
L 199.097024 -156.455534 
L 197.063394 -153.1054 
L 195.029764 -149.789633 
L 192.996134 -147.320729 
L 190.962504 -144.910832 
L 188.928875 -141.481537 
L 186.895245 -138.443538 
L 184.861615 -135.974718 
L 182.827985 -133.490931 
L 180.794355 -130.821001 
L 178.760726 -128.340167 
L 176.727096 -126.624115 
L 174.693466 -124.817389 
L 172.659836 -122.064593 
L 170.626206 -120.083712 
L 168.592577 -117.520954 
L 166.558947 -117.089413 
L 164.525317 -116.089442 
L 162.491687 -114.173474 
L 160.458057 -111.472629 
L 158.424428 -108.236717 
z
" id="mb5962786b7" style="stroke:#228b22;stroke-opacity:0.4;"/>
    </defs>
    <g clip-path="url(#p420064aa99)">
     <use style="fill:#228b22;fill-opacity:0.4;stroke:#228b22;stroke-opacity:0.4;" x="0" xlink:href="#mb5962786b7" y="170.07874"/>
    </g>
   </g>
   <g id="PolyCollection_4">
    <defs>
     <path d="M 158.424428 -69.555933 
L 158.424428 -54.480916 
L 160.458057 -53.794864 
L 162.491687 -52.931287 
L 164.525317 -52.013248 
L 166.558947 -51.1171 
L 168.592577 -50.285369 
L 170.626206 -49.537463 
L 172.659836 -48.823241 
L 174.693466 -48.206901 
L 176.727096 -47.645599 
L 178.760726 -47.157798 
L 180.794355 -46.723755 
L 182.827985 -46.346865 
L 184.861615 -46.016804 
L 186.895245 -45.72312 
L 188.928875 -45.465003 
L 190.962504 -45.243385 
L 192.996134 -45.046159 
L 195.029764 -44.874942 
L 197.063394 -44.721347 
L 199.097024 -44.590224 
L 201.130653 -44.474955 
L 201.130653 -51.964816 
L 201.130653 -51.964816 
L 199.097024 -52.461742 
L 197.063394 -53.011081 
L 195.029764 -53.528149 
L 192.996134 -54.099344 
L 190.962504 -54.726369 
L 188.928875 -55.405773 
L 186.895245 -56.095188 
L 184.861615 -56.798489 
L 182.827985 -57.585256 
L 180.794355 -58.401492 
L 178.760726 -59.30405 
L 176.727096 -60.281279 
L 174.693466 -61.366963 
L 172.659836 -62.518732 
L 170.626206 -63.625307 
L 168.592577 -64.971405 
L 166.558947 -66.150307 
L 164.525317 -67.442227 
L 162.491687 -68.550516 
L 160.458057 -69.23896 
L 158.424428 -69.555933 
z
" id="m8e9159880f" style="stroke:#228b22;stroke-opacity:0.6;"/>
    </defs>
    <g clip-path="url(#p420064aa99)">
     <use style="fill:#228b22;fill-opacity:0.6;stroke:#228b22;stroke-opacity:0.6;" x="0" xlink:href="#m8e9159880f" y="170.07874"/>
    </g>
   </g>
   <g id="PathCollection_1">
    <defs>
     <path d="M -0.866025 1.732051 
L 0 0.866025 
L 0.866025 1.732051 
L 1.732051 0.866025 
L 0.866025 0 
L 1.732051 -0.866025 
L 0.866025 -1.732051 
L 0 -0.866025 
L -0.866025 -1.732051 
L -1.732051 -0.866025 
L -0.866025 0 
L -1.732051 0.866025 
z
" id="me8b6c9dbfa" style="stroke:#8a2be2;"/>
    </defs>
    <g clip-path="url(#p420064aa99)">
     <use style="fill:#8a2be2;stroke:#8a2be2;" x="148.256279" xlink:href="#me8b6c9dbfa" y="23.012874"/>
    </g>
   </g>
   <g id="PathCollection_2">
    <defs>
     <path d="M 0 -1.732051 
L -0.38887 -0.535233 
L -1.647278 -0.535233 
L -0.629204 0.204441 
L -1.018074 1.401259 
L -0 0.661585 
L 1.018074 1.401259 
L 0.629204 0.204441 
L 1.647278 -0.535233 
L 0.38887 -0.535233 
z
" id="ma623953a91" style="stroke:#000000;"/>
    </defs>
    <g clip-path="url(#p420064aa99)">
     <use style="stroke:#000000;" x="142.155389" xlink:href="#ma623953a91" y="23.012874"/>
    </g>
   </g>
   <g id="PathCollection_3">
    <defs>
     <path d="M -1.732051 1.732051 
L 1.732051 1.732051 
L 1.732051 -1.732051 
L -1.732051 -1.732051 
z
" id="m9ef9d8262b" style="stroke:#c71585;"/>
    </defs>
    <g clip-path="url(#p420064aa99)">
     <use style="fill:#c71585;stroke:#c71585;" x="148.256279" xlink:href="#m9ef9d8262b" y="28.184667"/>
    </g>
   </g>
   <g id="PathCollection_4">
    <defs>
     <path d="M 0 -1.732051 
L -1.647278 -0.535233 
L -1.018074 1.401259 
L 1.018074 1.401259 
L 1.647278 -0.535233 
z
" id="m574a2c685a" style="stroke:#800000;"/>
    </defs>
    <g clip-path="url(#p420064aa99)">
     <use style="fill:#800000;stroke:#800000;" x="131.98724" xlink:href="#m574a2c685a" y="23.012874"/>
    </g>
   </g>
   <g id="PathCollection_5">
    <defs>
     <path d="M -0 2.44949 
L 1.469694 0 
L 0 -2.44949 
L -1.469694 -0 
z
" id="m1f88ecae1c" style="stroke:#556b2f;"/>
    </defs>
    <g clip-path="url(#p420064aa99)">
     <use style="fill:#556b2f;stroke:#556b2f;" x="123.852721" xlink:href="#m1f88ecae1c" y="23.012874"/>
    </g>
   </g>
   <g id="patch_3">
    <path clip-path="url(#p420064aa99)" d="M 64.064005 126.44874 
L 65.690909 126.44874 
L 65.690909 126.44874 
L 64.064005 126.44874 
z
" style="fill:#1f77b4;opacity:0.5;"/>
   </g>
   <g id="patch_4">
    <path clip-path="url(#p420064aa99)" d="M 66.097635 126.44874 
L 67.724539 126.44874 
L 67.724539 126.448009 
L 66.097635 126.448009 
z
" style="fill:#1f77b4;opacity:0.5;"/>
   </g>
   <g id="patch_5">
    <path clip-path="url(#p420064aa99)" d="M 68.131265 126.44874 
L 69.758168 126.44874 
L 69.758168 126.44874 
L 68.131265 126.44874 
z
" style="fill:#1f77b4;opacity:0.5;"/>
   </g>
   <g id="patch_6">
    <path clip-path="url(#p420064aa99)" d="M 70.164894 126.44874 
L 71.791798 126.44874 
L 71.791798 126.44874 
L 70.164894 126.44874 
z
" style="fill:#1f77b4;opacity:0.5;"/>
   </g>
   <g id="patch_7">
    <path clip-path="url(#p420064aa99)" d="M 72.198524 126.44874 
L 73.825428 126.44874 
L 73.825428 126.44874 
L 72.198524 126.44874 
z
" style="fill:#1f77b4;opacity:0.5;"/>
   </g>
   <g id="patch_8">
    <path clip-path="url(#p420064aa99)" d="M 74.232154 126.44874 
L 75.859058 126.44874 
L 75.859058 126.44874 
L 74.232154 126.44874 
z
" style="fill:#1f77b4;opacity:0.5;"/>
   </g>
   <g id="patch_9">
    <path clip-path="url(#p420064aa99)" d="M 76.265784 126.44874 
L 77.892688 126.44874 
L 77.892688 126.44874 
L 76.265784 126.44874 
z
" style="fill:#1f77b4;opacity:0.5;"/>
   </g>
   <g id="patch_10">
    <path clip-path="url(#p420064aa99)" d="M 78.299414 126.44874 
L 79.926317 126.44874 
L 79.926317 126.44874 
L 78.299414 126.44874 
z
" style="fill:#1f77b4;opacity:0.5;"/>
   </g>
   <g id="patch_11">
    <path clip-path="url(#p420064aa99)" d="M 80.333043 126.44874 
L 81.959947 126.44874 
L 81.959947 126.44874 
L 80.333043 126.44874 
z
" style="fill:#1f77b4;opacity:0.5;"/>
   </g>
   <g id="patch_12">
    <path clip-path="url(#p420064aa99)" d="M 82.366673 126.44874 
L 83.993577 126.44874 
L 83.993577 126.44874 
L 82.366673 126.44874 
z
" style="fill:#1f77b4;opacity:0.5;"/>
   </g>
   <g id="patch_13">
    <path clip-path="url(#p420064aa99)" d="M 84.400303 126.44874 
L 86.027207 126.44874 
L 86.027207 126.44874 
L 84.400303 126.44874 
z
" style="fill:#1f77b4;opacity:0.5;"/>
   </g>
   <g id="patch_14">
    <path clip-path="url(#p420064aa99)" d="M 86.433933 126.44874 
L 88.060837 126.44874 
L 88.060837 126.44874 
L 86.433933 126.44874 
z
" style="fill:#1f77b4;opacity:0.5;"/>
   </g>
   <g id="patch_15">
    <path clip-path="url(#p420064aa99)" d="M 88.467563 126.44874 
L 90.094466 126.44874 
L 90.094466 126.445816 
L 88.467563 126.445816 
z
" style="fill:#1f77b4;opacity:0.5;"/>
   </g>
   <g id="patch_16">
    <path clip-path="url(#p420064aa99)" d="M 90.501192 126.44874 
L 92.128096 126.44874 
L 92.128096 126.44874 
L 90.501192 126.44874 
z
" style="fill:#1f77b4;opacity:0.5;"/>
   </g>
   <g id="patch_17">
    <path clip-path="url(#p420064aa99)" d="M 92.534822 126.44874 
L 94.161726 126.44874 
L 94.161726 126.44874 
L 92.534822 126.44874 
z
" style="fill:#1f77b4;opacity:0.5;"/>
   </g>
   <g id="patch_18">
    <path clip-path="url(#p420064aa99)" d="M 94.568452 126.44874 
L 96.195356 126.44874 
L 96.195356 126.44874 
L 94.568452 126.44874 
z
" style="fill:#1f77b4;opacity:0.5;"/>
   </g>
   <g id="patch_19">
    <path clip-path="url(#p420064aa99)" d="M 96.602082 126.44874 
L 98.228986 126.44874 
L 98.228986 126.446547 
L 96.602082 126.446547 
z
" style="fill:#1f77b4;opacity:0.5;"/>
   </g>
   <g id="patch_20">
    <path clip-path="url(#p420064aa99)" d="M 98.635712 126.44874 
L 100.262615 126.44874 
L 100.262615 126.447278 
L 98.635712 126.447278 
z
" style="fill:#1f77b4;opacity:0.5;"/>
   </g>
   <g id="patch_21">
    <path clip-path="url(#p420064aa99)" d="M 100.669341 126.44874 
L 102.296245 126.44874 
L 102.296245 126.445085 
L 100.669341 126.445085 
z
" style="fill:#1f77b4;opacity:0.5;"/>
   </g>
   <g id="patch_22">
    <path clip-path="url(#p420064aa99)" d="M 102.702971 126.44874 
L 104.329875 126.44874 
L 104.329875 126.439236 
L 102.702971 126.439236 
z
" style="fill:#1f77b4;opacity:0.5;"/>
   </g>
   <g id="patch_23">
    <path clip-path="url(#p420064aa99)" d="M 104.736601 126.44874 
L 106.363505 126.44874 
L 106.363505 126.445816 
L 104.736601 126.445816 
z
" style="fill:#1f77b4;opacity:0.5;"/>
   </g>
   <g id="patch_24">
    <path clip-path="url(#p420064aa99)" d="M 106.770231 126.44874 
L 108.397135 126.44874 
L 108.397135 126.440698 
L 106.770231 126.440698 
z
" style="fill:#1f77b4;opacity:0.5;"/>
   </g>
   <g id="patch_25">
    <path clip-path="url(#p420064aa99)" d="M 108.803861 126.44874 
L 110.430764 126.44874 
L 110.430764 126.423883 
L 108.803861 126.423883 
z
" style="fill:#1f77b4;opacity:0.5;"/>
   </g>
   <g id="patch_26">
    <path clip-path="url(#p420064aa99)" d="M 110.83749 126.44874 
L 112.464394 126.44874 
L 112.464394 126.426807 
L 110.83749 126.426807 
z
" style="fill:#1f77b4;opacity:0.5;"/>
   </g>
   <g id="patch_27">
    <path clip-path="url(#p420064aa99)" d="M 112.87112 126.44874 
L 114.498024 126.44874 
L 114.498024 126.413647 
L 112.87112 126.413647 
z
" style="fill:#1f77b4;opacity:0.5;"/>
   </g>
   <g id="patch_28">
    <path clip-path="url(#p420064aa99)" d="M 114.90475 126.44874 
L 116.531654 126.44874 
L 116.531654 126.417303 
L 114.90475 126.417303 
z
" style="fill:#1f77b4;opacity:0.5;"/>
   </g>
   <g id="patch_29">
    <path clip-path="url(#p420064aa99)" d="M 116.93838 126.44874 
L 118.565284 126.44874 
L 118.565284 126.399756 
L 116.93838 126.399756 
z
" style="fill:#1f77b4;opacity:0.5;"/>
   </g>
   <g id="patch_30">
    <path clip-path="url(#p420064aa99)" d="M 118.97201 126.44874 
L 120.598913 126.44874 
L 120.598913 126.413647 
L 118.97201 126.413647 
z
" style="fill:#1f77b4;opacity:0.5;"/>
   </g>
   <g id="patch_31">
    <path clip-path="url(#p420064aa99)" d="M 121.005639 126.44874 
L 122.632543 126.44874 
L 122.632543 126.410723 
L 121.005639 126.410723 
z
" style="fill:#1f77b4;opacity:0.5;"/>
   </g>
   <g id="patch_32">
    <path clip-path="url(#p420064aa99)" d="M 123.039269 126.44874 
L 124.666173 126.44874 
L 124.666173 126.388059 
L 123.039269 126.388059 
z
" style="fill:#1f77b4;opacity:0.5;"/>
   </g>
   <g id="patch_33">
    <path clip-path="url(#p420064aa99)" d="M 125.072899 126.44874 
L 126.699803 126.44874 
L 126.699803 126.350773 
L 125.072899 126.350773 
z
" style="fill:#1f77b4;opacity:0.5;"/>
   </g>
   <g id="patch_34">
    <path clip-path="url(#p420064aa99)" d="M 127.106529 126.44874 
L 128.733433 126.44874 
L 128.733433 126.363201 
L 127.106529 126.363201 
z
" style="fill:#1f77b4;opacity:0.5;"/>
   </g>
   <g id="patch_35">
    <path clip-path="url(#p420064aa99)" d="M 129.140159 126.44874 
L 130.767062 126.44874 
L 130.767062 126.132173 
L 129.140159 126.132173 
z
" style="fill:#1f77b4;opacity:0.5;"/>
   </g>
   <g id="patch_36">
    <path clip-path="url(#p420064aa99)" d="M 131.173788 126.44874 
L 132.800692 126.44874 
L 132.800692 126.265234 
L 131.173788 126.265234 
z
" style="fill:#1f77b4;opacity:0.5;"/>
   </g>
   <g id="patch_37">
    <path clip-path="url(#p420064aa99)" d="M 133.207418 126.44874 
L 134.834322 126.44874 
L 134.834322 126.337613 
L 133.207418 126.337613 
z
" style="fill:#1f77b4;opacity:0.5;"/>
   </g>
   <g id="patch_38">
    <path clip-path="url(#p420064aa99)" d="M 135.241048 126.44874 
L 136.867952 126.44874 
L 136.867952 126.151182 
L 135.241048 126.151182 
z
" style="fill:#1f77b4;opacity:0.5;"/>
   </g>
   <g id="patch_39">
    <path clip-path="url(#p420064aa99)" d="M 137.274678 126.44874 
L 138.901582 126.44874 
L 138.901582 125.951591 
L 137.274678 125.951591 
z
" style="fill:#1f77b4;opacity:0.5;"/>
   </g>
   <g id="patch_40">
    <path clip-path="url(#p420064aa99)" d="M 139.308307 126.44874 
L 140.935211 126.44874 
L 140.935211 125.975718 
L 139.308307 125.975718 
z
" style="fill:#1f77b4;opacity:0.5;"/>
   </g>
   <g id="patch_41">
    <path clip-path="url(#p420064aa99)" d="M 141.341937 126.44874 
L 142.968841 126.44874 
L 142.968841 125.932583 
L 141.341937 125.932583 
z
" style="fill:#1f77b4;opacity:0.5;"/>
   </g>
   <g id="patch_42">
    <path clip-path="url(#p420064aa99)" d="M 143.375567 126.44874 
L 145.002471 126.44874 
L 145.002471 125.69205 
L 143.375567 125.69205 
z
" style="fill:#1f77b4;opacity:0.5;"/>
   </g>
   <g id="patch_43">
    <path clip-path="url(#p420064aa99)" d="M 145.409197 126.44874 
L 147.036101 126.44874 
L 147.036101 125.962558 
L 145.409197 125.962558 
z
" style="fill:#1f77b4;opacity:0.5;"/>
   </g>
   <g id="patch_44">
    <path clip-path="url(#p420064aa99)" d="M 147.442827 126.44874 
L 149.069731 126.44874 
L 149.069731 125.741765 
L 147.442827 125.741765 
z
" style="fill:#1f77b4;opacity:0.5;"/>
   </g>
   <g id="patch_45">
    <path clip-path="url(#p420064aa99)" d="M 149.476456 126.44874 
L 151.10336 126.44874 
L 151.10336 125.405459 
L 149.476456 125.405459 
z
" style="fill:#1f77b4;opacity:0.5;"/>
   </g>
   <g id="patch_46">
    <path clip-path="url(#p420064aa99)" d="M 151.510086 126.44874 
L 153.13699 126.44874 
L 153.13699 125.387181 
L 151.510086 125.387181 
z
" style="fill:#1f77b4;opacity:0.5;"/>
   </g>
   <g id="patch_47">
    <path clip-path="url(#p420064aa99)" d="M 153.543716 126.44874 
L 155.17062 126.44874 
L 155.17062 124.892225 
L 153.543716 124.892225 
z
" style="fill:#1f77b4;opacity:0.5;"/>
   </g>
   <g id="patch_48">
    <path clip-path="url(#p420064aa99)" d="M 155.577346 126.44874 
L 157.20425 126.44874 
L 157.20425 124.339513 
L 155.577346 124.339513 
z
" style="fill:#1f77b4;opacity:0.5;"/>
   </g>
   <g id="patch_49">
    <path clip-path="url(#p420064aa99)" d="M 157.610976 126.44874 
L 159.237879 126.44874 
L 159.237879 124.587356 
L 157.610976 124.587356 
z
" style="fill:#1f77b4;opacity:0.5;"/>
   </g>
   <g id="patch_50">
    <path clip-path="url(#p420064aa99)" d="M 159.644605 126.44874 
L 161.271509 126.44874 
L 161.271509 124.669971 
L 159.644605 124.669971 
z
" style="fill:#1f77b4;opacity:0.5;"/>
   </g>
   <g id="patch_51">
    <path clip-path="url(#p420064aa99)" d="M 161.678235 126.44874 
L 163.305139 126.44874 
L 163.305139 124.533986 
L 161.678235 124.533986 
z
" style="fill:#1f77b4;opacity:0.5;"/>
   </g>
   <g id="patch_52">
    <path clip-path="url(#p420064aa99)" d="M 163.711865 126.44874 
L 165.338769 126.44874 
L 165.338769 124.248856 
L 163.711865 124.248856 
z
" style="fill:#1f77b4;opacity:0.5;"/>
   </g>
   <g id="patch_53">
    <path clip-path="url(#p420064aa99)" d="M 165.745495 126.44874 
L 167.372399 126.44874 
L 167.372399 123.287458 
L 165.745495 123.287458 
z
" style="fill:#1f77b4;opacity:0.5;"/>
   </g>
   <g id="patch_54">
    <path clip-path="url(#p420064aa99)" d="M 167.779125 126.44874 
L 169.406028 126.44874 
L 169.406028 123.345946 
L 167.779125 123.345946 
z
" style="fill:#1f77b4;opacity:0.5;"/>
   </g>
   <g id="patch_55">
    <path clip-path="url(#p420064aa99)" d="M 169.812754 126.44874 
L 171.439658 126.44874 
L 171.439658 123.195339 
L 169.812754 123.195339 
z
" style="fill:#1f77b4;opacity:0.5;"/>
   </g>
   <g id="patch_56">
    <path clip-path="url(#p420064aa99)" d="M 171.846384 126.44874 
L 173.473288 126.44874 
L 173.473288 123.718077 
L 171.846384 123.718077 
z
" style="fill:#1f77b4;opacity:0.5;"/>
   </g>
   <g id="patch_57">
    <path clip-path="url(#p420064aa99)" d="M 173.880014 126.44874 
L 175.506918 126.44874 
L 175.506918 122.133049 
L 173.880014 122.133049 
z
" style="fill:#1f77b4;opacity:0.5;"/>
   </g>
   <g id="patch_58">
    <path clip-path="url(#p420064aa99)" d="M 175.913644 126.44874 
L 177.540548 126.44874 
L 177.540548 123.669093 
L 175.913644 123.669093 
z
" style="fill:#1f77b4;opacity:0.5;"/>
   </g>
   <g id="patch_59">
    <path clip-path="url(#p420064aa99)" d="M 177.947274 126.44874 
L 179.574177 126.44874 
L 179.574177 123.791918 
L 177.947274 123.791918 
z
" style="fill:#1f77b4;opacity:0.5;"/>
   </g>
   <g id="patch_60">
    <path clip-path="url(#p420064aa99)" d="M 179.980903 126.44874 
L 181.607807 126.44874 
L 181.607807 122.434263 
L 179.980903 122.434263 
z
" style="fill:#1f77b4;opacity:0.5;"/>
   </g>
   <g id="patch_61">
    <path clip-path="url(#p420064aa99)" d="M 182.014533 126.44874 
L 183.641437 126.44874 
L 183.641437 123.272836 
L 182.014533 123.272836 
z
" style="fill:#1f77b4;opacity:0.5;"/>
   </g>
   <g id="patch_62">
    <path clip-path="url(#p420064aa99)" d="M 184.048163 126.44874 
L 185.675067 126.44874 
L 185.675067 122.650669 
L 184.048163 122.650669 
z
" style="fill:#1f77b4;opacity:0.5;"/>
   </g>
   <g id="patch_63">
    <path clip-path="url(#p420064aa99)" d="M 186.081793 126.44874 
L 187.708697 126.44874 
L 187.708697 120.074268 
L 186.081793 120.074268 
z
" style="fill:#1f77b4;opacity:0.5;"/>
   </g>
   <g id="patch_64">
    <path clip-path="url(#p420064aa99)" d="M 188.115423 126.44874 
L 189.742326 126.44874 
L 189.742326 122.582676 
L 188.115423 122.582676 
z
" style="fill:#1f77b4;opacity:0.5;"/>
   </g>
   <g id="patch_65">
    <path clip-path="url(#p420064aa99)" d="M 190.149052 126.44874 
L 191.775956 126.44874 
L 191.775956 123.274298 
L 190.149052 123.274298 
z
" style="fill:#1f77b4;opacity:0.5;"/>
   </g>
   <g id="patch_66">
    <path clip-path="url(#p420064aa99)" d="M 192.182682 126.44874 
L 193.809586 126.44874 
L 193.809586 122.608996 
L 192.182682 122.608996 
z
" style="fill:#1f77b4;opacity:0.5;"/>
   </g>
   <g id="patch_67">
    <path clip-path="url(#p420064aa99)" d="M 194.216312 126.44874 
L 195.843216 126.44874 
L 195.843216 123.083481 
L 194.216312 123.083481 
z
" style="fill:#1f77b4;opacity:0.5;"/>
   </g>
   <g id="patch_68">
    <path clip-path="url(#p420064aa99)" d="M 196.249942 126.44874 
L 197.876846 126.44874 
L 197.876846 123.073245 
L 196.249942 123.073245 
z
" style="fill:#1f77b4;opacity:0.5;"/>
   </g>
   <g id="patch_69">
    <path clip-path="url(#p420064aa99)" d="M 198.283572 126.44874 
L 199.910475 126.44874 
L 199.910475 122.355304 
L 198.283572 122.355304 
z
" style="fill:#1f77b4;opacity:0.5;"/>
   </g>
   <g id="patch_70">
    <path clip-path="url(#p420064aa99)" d="M 200.317201 126.44874 
L 201.944105 126.44874 
L 201.944105 122.409405 
L 200.317201 122.409405 
z
" style="fill:#1f77b4;opacity:0.5;"/>
   </g>
   <g id="matplotlib.axis_1">
    <g id="xtick_1">
     <g id="line2d_1">
      <defs>
       <path d="M 0 0 
L 0 3.5 
" id="m6938eecac7" style="stroke:#000000;stroke-width:0.8;"/>
      </defs>
      <g>
       <use style="stroke:#000000;stroke-width:0.8;" x="201.130653" xlink:href="#m6938eecac7" y="126.44874"/>
      </g>
     </g>
     <g id="text_1">
      <!-- 19 Apr -->
      <defs>
       <path d="M 12.40625 8.296875 
L 28.515625 8.296875 
L 28.515625 63.921875 
L 10.984375 60.40625 
L 10.984375 69.390625 
L 28.421875 72.90625 
L 38.28125 72.90625 
L 38.28125 8.296875 
L 54.390625 8.296875 
L 54.390625 0 
L 12.40625 0 
z
" id="DejaVuSans-49"/>
       <path d="M 10.984375 1.515625 
L 10.984375 10.5 
Q 14.703125 8.734375 18.5 7.8125 
Q 22.3125 6.890625 25.984375 6.890625 
Q 35.75 6.890625 40.890625 13.453125 
Q 46.046875 20.015625 46.78125 33.40625 
Q 43.953125 29.203125 39.59375 26.953125 
Q 35.25 24.703125 29.984375 24.703125 
Q 19.046875 24.703125 12.671875 31.3125 
Q 6.296875 37.9375 6.296875 49.421875 
Q 6.296875 60.640625 12.9375 67.421875 
Q 19.578125 74.21875 30.609375 74.21875 
Q 43.265625 74.21875 49.921875 64.515625 
Q 56.59375 54.828125 56.59375 36.375 
Q 56.59375 19.140625 48.40625 8.859375 
Q 40.234375 -1.421875 26.421875 -1.421875 
Q 22.703125 -1.421875 18.890625 -0.6875 
Q 15.09375 0.046875 10.984375 1.515625 
z
M 30.609375 32.421875 
Q 37.25 32.421875 41.125 36.953125 
Q 45.015625 41.5 45.015625 49.421875 
Q 45.015625 57.28125 41.125 61.84375 
Q 37.25 66.40625 30.609375 66.40625 
Q 23.96875 66.40625 20.09375 61.84375 
Q 16.21875 57.28125 16.21875 49.421875 
Q 16.21875 41.5 20.09375 36.953125 
Q 23.96875 32.421875 30.609375 32.421875 
z
" id="DejaVuSans-57"/>
       <path id="DejaVuSans-32"/>
       <path d="M 34.1875 63.1875 
L 20.796875 26.90625 
L 47.609375 26.90625 
z
M 28.609375 72.90625 
L 39.796875 72.90625 
L 67.578125 0 
L 57.328125 0 
L 50.6875 18.703125 
L 17.828125 18.703125 
L 11.1875 0 
L 0.78125 0 
z
" id="DejaVuSans-65"/>
       <path d="M 18.109375 8.203125 
L 18.109375 -20.796875 
L 9.078125 -20.796875 
L 9.078125 54.6875 
L 18.109375 54.6875 
L 18.109375 46.390625 
Q 20.953125 51.265625 25.265625 53.625 
Q 29.59375 56 35.59375 56 
Q 45.5625 56 51.78125 48.09375 
Q 58.015625 40.1875 58.015625 27.296875 
Q 58.015625 14.40625 51.78125 6.484375 
Q 45.5625 -1.421875 35.59375 -1.421875 
Q 29.59375 -1.421875 25.265625 0.953125 
Q 20.953125 3.328125 18.109375 8.203125 
z
M 48.6875 27.296875 
Q 48.6875 37.203125 44.609375 42.84375 
Q 40.53125 48.484375 33.40625 48.484375 
Q 26.265625 48.484375 22.1875 42.84375 
Q 18.109375 37.203125 18.109375 27.296875 
Q 18.109375 17.390625 22.1875 11.75 
Q 26.265625 6.109375 33.40625 6.109375 
Q 40.53125 6.109375 44.609375 11.75 
Q 48.6875 17.390625 48.6875 27.296875 
z
" id="DejaVuSans-112"/>
       <path d="M 41.109375 46.296875 
Q 39.59375 47.171875 37.8125 47.578125 
Q 36.03125 48 33.890625 48 
Q 26.265625 48 22.1875 43.046875 
Q 18.109375 38.09375 18.109375 28.8125 
L 18.109375 0 
L 9.078125 0 
L 9.078125 54.6875 
L 18.109375 54.6875 
L 18.109375 46.1875 
Q 20.953125 51.171875 25.484375 53.578125 
Q 30.03125 56 36.53125 56 
Q 37.453125 56 38.578125 55.875 
Q 39.703125 55.765625 41.0625 55.515625 
z
" id="DejaVuSans-114"/>
      </defs>
      <g transform="translate(203.338153 160.01124)rotate(-90)scale(0.08 -0.08)">
       <use xlink:href="#DejaVuSans-49"/>
       <use x="63.623047" xlink:href="#DejaVuSans-57"/>
       <use x="127.246094" xlink:href="#DejaVuSans-32"/>
       <use x="159.033203" xlink:href="#DejaVuSans-65"/>
       <use x="227.441406" xlink:href="#DejaVuSans-112"/>
       <use x="290.917969" xlink:href="#DejaVuSans-114"/>
      </g>
     </g>
    </g>
    <g id="xtick_2">
     <g id="line2d_2">
      <g>
       <use style="stroke:#000000;stroke-width:0.8;" x="186.895245" xlink:href="#m6938eecac7" y="126.44874"/>
      </g>
     </g>
     <g id="text_2">
      <!-- 12 Apr -->
      <defs>
       <path d="M 19.1875 8.296875 
L 53.609375 8.296875 
L 53.609375 0 
L 7.328125 0 
L 7.328125 8.296875 
Q 12.9375 14.109375 22.625 23.890625 
Q 32.328125 33.6875 34.8125 36.53125 
Q 39.546875 41.84375 41.421875 45.53125 
Q 43.3125 49.21875 43.3125 52.78125 
Q 43.3125 58.59375 39.234375 62.25 
Q 35.15625 65.921875 28.609375 65.921875 
Q 23.96875 65.921875 18.8125 64.3125 
Q 13.671875 62.703125 7.8125 59.421875 
L 7.8125 69.390625 
Q 13.765625 71.78125 18.9375 73 
Q 24.125 74.21875 28.421875 74.21875 
Q 39.75 74.21875 46.484375 68.546875 
Q 53.21875 62.890625 53.21875 53.421875 
Q 53.21875 48.921875 51.53125 44.890625 
Q 49.859375 40.875 45.40625 35.40625 
Q 44.1875 33.984375 37.640625 27.21875 
Q 31.109375 20.453125 19.1875 8.296875 
z
" id="DejaVuSans-50"/>
      </defs>
      <g transform="translate(189.102745 160.01124)rotate(-90)scale(0.08 -0.08)">
       <use xlink:href="#DejaVuSans-49"/>
       <use x="63.623047" xlink:href="#DejaVuSans-50"/>
       <use x="127.246094" xlink:href="#DejaVuSans-32"/>
       <use x="159.033203" xlink:href="#DejaVuSans-65"/>
       <use x="227.441406" xlink:href="#DejaVuSans-112"/>
       <use x="290.917969" xlink:href="#DejaVuSans-114"/>
      </g>
     </g>
    </g>
    <g id="xtick_3">
     <g id="line2d_3">
      <g>
       <use style="stroke:#000000;stroke-width:0.8;" x="172.659836" xlink:href="#m6938eecac7" y="126.44874"/>
      </g>
     </g>
     <g id="text_3">
      <!-- 5 Apr -->
      <defs>
       <path d="M 10.796875 72.90625 
L 49.515625 72.90625 
L 49.515625 64.59375 
L 19.828125 64.59375 
L 19.828125 46.734375 
Q 21.96875 47.46875 24.109375 47.828125 
Q 26.265625 48.1875 28.421875 48.1875 
Q 40.625 48.1875 47.75 41.5 
Q 54.890625 34.8125 54.890625 23.390625 
Q 54.890625 11.625 47.5625 5.09375 
Q 40.234375 -1.421875 26.90625 -1.421875 
Q 22.3125 -1.421875 17.546875 -0.640625 
Q 12.796875 0.140625 7.71875 1.703125 
L 7.71875 11.625 
Q 12.109375 9.234375 16.796875 8.0625 
Q 21.484375 6.890625 26.703125 6.890625 
Q 35.15625 6.890625 40.078125 11.328125 
Q 45.015625 15.765625 45.015625 23.390625 
Q 45.015625 31 40.078125 35.4375 
Q 35.15625 39.890625 26.703125 39.890625 
Q 22.75 39.890625 18.8125 39.015625 
Q 14.890625 38.140625 10.796875 36.28125 
z
" id="DejaVuSans-53"/>
      </defs>
      <g transform="translate(174.867336 154.92124)rotate(-90)scale(0.08 -0.08)">
       <use xlink:href="#DejaVuSans-53"/>
       <use x="63.623047" xlink:href="#DejaVuSans-32"/>
       <use x="95.410156" xlink:href="#DejaVuSans-65"/>
       <use x="163.818359" xlink:href="#DejaVuSans-112"/>
       <use x="227.294922" xlink:href="#DejaVuSans-114"/>
      </g>
     </g>
    </g>
    <g id="xtick_4">
     <g id="line2d_4">
      <g>
       <use style="stroke:#000000;stroke-width:0.8;" x="158.424428" xlink:href="#m6938eecac7" y="126.44874"/>
      </g>
     </g>
     <g id="text_4">
      <!-- 29 Mar -->
      <defs>
       <path d="M 9.8125 72.90625 
L 24.515625 72.90625 
L 43.109375 23.296875 
L 61.8125 72.90625 
L 76.515625 72.90625 
L 76.515625 0 
L 66.890625 0 
L 66.890625 64.015625 
L 48.09375 14.015625 
L 38.1875 14.015625 
L 19.390625 64.015625 
L 19.390625 0 
L 9.8125 0 
z
" id="DejaVuSans-77"/>
       <path d="M 34.28125 27.484375 
Q 23.390625 27.484375 19.1875 25 
Q 14.984375 22.515625 14.984375 16.5 
Q 14.984375 11.71875 18.140625 8.90625 
Q 21.296875 6.109375 26.703125 6.109375 
Q 34.1875 6.109375 38.703125 11.40625 
Q 43.21875 16.703125 43.21875 25.484375 
L 43.21875 27.484375 
z
M 52.203125 31.203125 
L 52.203125 0 
L 43.21875 0 
L 43.21875 8.296875 
Q 40.140625 3.328125 35.546875 0.953125 
Q 30.953125 -1.421875 24.3125 -1.421875 
Q 15.921875 -1.421875 10.953125 3.296875 
Q 6 8.015625 6 15.921875 
Q 6 25.140625 12.171875 29.828125 
Q 18.359375 34.515625 30.609375 34.515625 
L 43.21875 34.515625 
L 43.21875 35.40625 
Q 43.21875 41.609375 39.140625 45 
Q 35.0625 48.390625 27.6875 48.390625 
Q 23 48.390625 18.546875 47.265625 
Q 14.109375 46.140625 10.015625 43.890625 
L 10.015625 52.203125 
Q 14.9375 54.109375 19.578125 55.046875 
Q 24.21875 56 28.609375 56 
Q 40.484375 56 46.34375 49.84375 
Q 52.203125 43.703125 52.203125 31.203125 
z
" id="DejaVuSans-97"/>
      </defs>
      <g transform="translate(160.631928 161.26499)rotate(-90)scale(0.08 -0.08)">
       <use xlink:href="#DejaVuSans-50"/>
       <use x="63.623047" xlink:href="#DejaVuSans-57"/>
       <use x="127.246094" xlink:href="#DejaVuSans-32"/>
       <use x="159.033203" xlink:href="#DejaVuSans-77"/>
       <use x="245.3125" xlink:href="#DejaVuSans-97"/>
       <use x="306.591797" xlink:href="#DejaVuSans-114"/>
      </g>
     </g>
    </g>
    <g id="xtick_5">
     <g id="line2d_5">
      <g>
       <use style="stroke:#000000;stroke-width:0.8;" x="144.189019" xlink:href="#m6938eecac7" y="126.44874"/>
      </g>
     </g>
     <g id="text_5">
      <!-- 22 Mar -->
      <g transform="translate(146.396519 161.26499)rotate(-90)scale(0.08 -0.08)">
       <use xlink:href="#DejaVuSans-50"/>
       <use x="63.623047" xlink:href="#DejaVuSans-50"/>
       <use x="127.246094" xlink:href="#DejaVuSans-32"/>
       <use x="159.033203" xlink:href="#DejaVuSans-77"/>
       <use x="245.3125" xlink:href="#DejaVuSans-97"/>
       <use x="306.591797" xlink:href="#DejaVuSans-114"/>
      </g>
     </g>
    </g>
    <g id="xtick_6">
     <g id="line2d_6">
      <g>
       <use style="stroke:#000000;stroke-width:0.8;" x="129.95361" xlink:href="#m6938eecac7" y="126.44874"/>
      </g>
     </g>
     <g id="text_6">
      <!-- 15 Mar -->
      <g transform="translate(132.16111 161.26499)rotate(-90)scale(0.08 -0.08)">
       <use xlink:href="#DejaVuSans-49"/>
       <use x="63.623047" xlink:href="#DejaVuSans-53"/>
       <use x="127.246094" xlink:href="#DejaVuSans-32"/>
       <use x="159.033203" xlink:href="#DejaVuSans-77"/>
       <use x="245.3125" xlink:href="#DejaVuSans-97"/>
       <use x="306.591797" xlink:href="#DejaVuSans-114"/>
      </g>
     </g>
    </g>
    <g id="xtick_7">
     <g id="line2d_7">
      <g>
       <use style="stroke:#000000;stroke-width:0.8;" x="115.718202" xlink:href="#m6938eecac7" y="126.44874"/>
      </g>
     </g>
     <g id="text_7">
      <!-- 8 Mar -->
      <defs>
       <path d="M 31.78125 34.625 
Q 24.75 34.625 20.71875 30.859375 
Q 16.703125 27.09375 16.703125 20.515625 
Q 16.703125 13.921875 20.71875 10.15625 
Q 24.75 6.390625 31.78125 6.390625 
Q 38.8125 6.390625 42.859375 10.171875 
Q 46.921875 13.96875 46.921875 20.515625 
Q 46.921875 27.09375 42.890625 30.859375 
Q 38.875 34.625 31.78125 34.625 
z
M 21.921875 38.8125 
Q 15.578125 40.375 12.03125 44.71875 
Q 8.5 49.078125 8.5 55.328125 
Q 8.5 64.0625 14.71875 69.140625 
Q 20.953125 74.21875 31.78125 74.21875 
Q 42.671875 74.21875 48.875 69.140625 
Q 55.078125 64.0625 55.078125 55.328125 
Q 55.078125 49.078125 51.53125 44.71875 
Q 48 40.375 41.703125 38.8125 
Q 48.828125 37.15625 52.796875 32.3125 
Q 56.78125 27.484375 56.78125 20.515625 
Q 56.78125 9.90625 50.3125 4.234375 
Q 43.84375 -1.421875 31.78125 -1.421875 
Q 19.734375 -1.421875 13.25 4.234375 
Q 6.78125 9.90625 6.78125 20.515625 
Q 6.78125 27.484375 10.78125 32.3125 
Q 14.796875 37.15625 21.921875 38.8125 
z
M 18.3125 54.390625 
Q 18.3125 48.734375 21.84375 45.5625 
Q 25.390625 42.390625 31.78125 42.390625 
Q 38.140625 42.390625 41.71875 45.5625 
Q 45.3125 48.734375 45.3125 54.390625 
Q 45.3125 60.0625 41.71875 63.234375 
Q 38.140625 66.40625 31.78125 66.40625 
Q 25.390625 66.40625 21.84375 63.234375 
Q 18.3125 60.0625 18.3125 54.390625 
z
" id="DejaVuSans-56"/>
      </defs>
      <g transform="translate(117.925702 156.17499)rotate(-90)scale(0.08 -0.08)">
       <use xlink:href="#DejaVuSans-56"/>
       <use x="63.623047" xlink:href="#DejaVuSans-32"/>
       <use x="95.410156" xlink:href="#DejaVuSans-77"/>
       <use x="181.689453" xlink:href="#DejaVuSans-97"/>
       <use x="242.96875" xlink:href="#DejaVuSans-114"/>
      </g>
     </g>
    </g>
    <g id="xtick_8">
     <g id="line2d_8">
      <g>
       <use style="stroke:#000000;stroke-width:0.8;" x="101.482793" xlink:href="#m6938eecac7" y="126.44874"/>
      </g>
     </g>
     <g id="text_8">
      <!-- 1 Mar -->
      <g transform="translate(103.690293 156.17499)rotate(-90)scale(0.08 -0.08)">
       <use xlink:href="#DejaVuSans-49"/>
       <use x="63.623047" xlink:href="#DejaVuSans-32"/>
       <use x="95.410156" xlink:href="#DejaVuSans-77"/>
       <use x="181.689453" xlink:href="#DejaVuSans-97"/>
       <use x="242.96875" xlink:href="#DejaVuSans-114"/>
      </g>
     </g>
    </g>
    <g id="xtick_9">
     <g id="line2d_9">
      <g>
       <use style="stroke:#000000;stroke-width:0.8;" x="87.247385" xlink:href="#m6938eecac7" y="126.44874"/>
      </g>
     </g>
     <g id="text_9">
      <!-- 23 Feb -->
      <defs>
       <path d="M 40.578125 39.3125 
Q 47.65625 37.796875 51.625 33 
Q 55.609375 28.21875 55.609375 21.1875 
Q 55.609375 10.40625 48.1875 4.484375 
Q 40.765625 -1.421875 27.09375 -1.421875 
Q 22.515625 -1.421875 17.65625 -0.515625 
Q 12.796875 0.390625 7.625 2.203125 
L 7.625 11.71875 
Q 11.71875 9.328125 16.59375 8.109375 
Q 21.484375 6.890625 26.8125 6.890625 
Q 36.078125 6.890625 40.9375 10.546875 
Q 45.796875 14.203125 45.796875 21.1875 
Q 45.796875 27.640625 41.28125 31.265625 
Q 36.765625 34.90625 28.71875 34.90625 
L 20.21875 34.90625 
L 20.21875 43.015625 
L 29.109375 43.015625 
Q 36.375 43.015625 40.234375 45.921875 
Q 44.09375 48.828125 44.09375 54.296875 
Q 44.09375 59.90625 40.109375 62.90625 
Q 36.140625 65.921875 28.71875 65.921875 
Q 24.65625 65.921875 20.015625 65.03125 
Q 15.375 64.15625 9.8125 62.3125 
L 9.8125 71.09375 
Q 15.4375 72.65625 20.34375 73.4375 
Q 25.25 74.21875 29.59375 74.21875 
Q 40.828125 74.21875 47.359375 69.109375 
Q 53.90625 64.015625 53.90625 55.328125 
Q 53.90625 49.265625 50.4375 45.09375 
Q 46.96875 40.921875 40.578125 39.3125 
z
" id="DejaVuSans-51"/>
       <path d="M 9.8125 72.90625 
L 51.703125 72.90625 
L 51.703125 64.59375 
L 19.671875 64.59375 
L 19.671875 43.109375 
L 48.578125 43.109375 
L 48.578125 34.8125 
L 19.671875 34.8125 
L 19.671875 0 
L 9.8125 0 
z
" id="DejaVuSans-70"/>
       <path d="M 56.203125 29.59375 
L 56.203125 25.203125 
L 14.890625 25.203125 
Q 15.484375 15.921875 20.484375 11.0625 
Q 25.484375 6.203125 34.421875 6.203125 
Q 39.59375 6.203125 44.453125 7.46875 
Q 49.3125 8.734375 54.109375 11.28125 
L 54.109375 2.78125 
Q 49.265625 0.734375 44.1875 -0.34375 
Q 39.109375 -1.421875 33.890625 -1.421875 
Q 20.796875 -1.421875 13.15625 6.1875 
Q 5.515625 13.8125 5.515625 26.8125 
Q 5.515625 40.234375 12.765625 48.109375 
Q 20.015625 56 32.328125 56 
Q 43.359375 56 49.78125 48.890625 
Q 56.203125 41.796875 56.203125 29.59375 
z
M 47.21875 32.234375 
Q 47.125 39.59375 43.09375 43.984375 
Q 39.0625 48.390625 32.421875 48.390625 
Q 24.90625 48.390625 20.390625 44.140625 
Q 15.875 39.890625 15.1875 32.171875 
z
" id="DejaVuSans-101"/>
       <path d="M 48.6875 27.296875 
Q 48.6875 37.203125 44.609375 42.84375 
Q 40.53125 48.484375 33.40625 48.484375 
Q 26.265625 48.484375 22.1875 42.84375 
Q 18.109375 37.203125 18.109375 27.296875 
Q 18.109375 17.390625 22.1875 11.75 
Q 26.265625 6.109375 33.40625 6.109375 
Q 40.53125 6.109375 44.609375 11.75 
Q 48.6875 17.390625 48.6875 27.296875 
z
M 18.109375 46.390625 
Q 20.953125 51.265625 25.265625 53.625 
Q 29.59375 56 35.59375 56 
Q 45.5625 56 51.78125 48.09375 
Q 58.015625 40.1875 58.015625 27.296875 
Q 58.015625 14.40625 51.78125 6.484375 
Q 45.5625 -1.421875 35.59375 -1.421875 
Q 29.59375 -1.421875 25.265625 0.953125 
Q 20.953125 3.328125 18.109375 8.203125 
L 18.109375 0 
L 9.078125 0 
L 9.078125 75.984375 
L 18.109375 75.984375 
z
" id="DejaVuSans-98"/>
      </defs>
      <g transform="translate(89.454885 160.33374)rotate(-90)scale(0.08 -0.08)">
       <use xlink:href="#DejaVuSans-50"/>
       <use x="63.623047" xlink:href="#DejaVuSans-51"/>
       <use x="127.246094" xlink:href="#DejaVuSans-32"/>
       <use x="159.033203" xlink:href="#DejaVuSans-70"/>
       <use x="211.052734" xlink:href="#DejaVuSans-101"/>
       <use x="272.576172" xlink:href="#DejaVuSans-98"/>
      </g>
     </g>
    </g>
    <g id="xtick_10">
     <g id="line2d_10">
      <g>
       <use style="stroke:#000000;stroke-width:0.8;" x="73.011976" xlink:href="#m6938eecac7" y="126.44874"/>
      </g>
     </g>
     <g id="text_10">
      <!-- 16 Feb -->
      <defs>
       <path d="M 33.015625 40.375 
Q 26.375 40.375 22.484375 35.828125 
Q 18.609375 31.296875 18.609375 23.390625 
Q 18.609375 15.53125 22.484375 10.953125 
Q 26.375 6.390625 33.015625 6.390625 
Q 39.65625 6.390625 43.53125 10.953125 
Q 47.40625 15.53125 47.40625 23.390625 
Q 47.40625 31.296875 43.53125 35.828125 
Q 39.65625 40.375 33.015625 40.375 
z
M 52.59375 71.296875 
L 52.59375 62.3125 
Q 48.875 64.0625 45.09375 64.984375 
Q 41.3125 65.921875 37.59375 65.921875 
Q 27.828125 65.921875 22.671875 59.328125 
Q 17.53125 52.734375 16.796875 39.40625 
Q 19.671875 43.65625 24.015625 45.921875 
Q 28.375 48.1875 33.59375 48.1875 
Q 44.578125 48.1875 50.953125 41.515625 
Q 57.328125 34.859375 57.328125 23.390625 
Q 57.328125 12.15625 50.6875 5.359375 
Q 44.046875 -1.421875 33.015625 -1.421875 
Q 20.359375 -1.421875 13.671875 8.265625 
Q 6.984375 17.96875 6.984375 36.375 
Q 6.984375 53.65625 15.1875 63.9375 
Q 23.390625 74.21875 37.203125 74.21875 
Q 40.921875 74.21875 44.703125 73.484375 
Q 48.484375 72.75 52.59375 71.296875 
z
" id="DejaVuSans-54"/>
      </defs>
      <g transform="translate(75.219476 160.33374)rotate(-90)scale(0.08 -0.08)">
       <use xlink:href="#DejaVuSans-49"/>
       <use x="63.623047" xlink:href="#DejaVuSans-54"/>
       <use x="127.246094" xlink:href="#DejaVuSans-32"/>
       <use x="159.033203" xlink:href="#DejaVuSans-70"/>
       <use x="211.052734" xlink:href="#DejaVuSans-101"/>
       <use x="272.576172" xlink:href="#DejaVuSans-98"/>
      </g>
     </g>
    </g>
   </g>
   <g id="matplotlib.axis_2">
    <g id="ytick_1">
     <g id="line2d_11">
      <defs>
       <path d="M 0 0 
L -3.5 0 
" id="me75d755928" style="stroke:#000000;stroke-width:0.8;"/>
      </defs>
      <g>
       <use style="stroke:#000000;stroke-width:0.8;" x="57.17" xlink:href="#me75d755928" y="126.44874"/>
      </g>
     </g>
     <g id="text_11">
      <!-- 0 -->
      <defs>
       <path d="M 31.78125 66.40625 
Q 24.171875 66.40625 20.328125 58.90625 
Q 16.5 51.421875 16.5 36.375 
Q 16.5 21.390625 20.328125 13.890625 
Q 24.171875 6.390625 31.78125 6.390625 
Q 39.453125 6.390625 43.28125 13.890625 
Q 47.125 21.390625 47.125 36.375 
Q 47.125 51.421875 43.28125 58.90625 
Q 39.453125 66.40625 31.78125 66.40625 
z
M 31.78125 74.21875 
Q 44.046875 74.21875 50.515625 64.515625 
Q 56.984375 54.828125 56.984375 36.375 
Q 56.984375 17.96875 50.515625 8.265625 
Q 44.046875 -1.421875 31.78125 -1.421875 
Q 19.53125 -1.421875 13.0625 8.265625 
Q 6.59375 17.96875 6.59375 36.375 
Q 6.59375 54.828125 13.0625 64.515625 
Q 19.53125 74.21875 31.78125 74.21875 
z
" id="DejaVuSans-48"/>
      </defs>
      <g transform="translate(45.08 129.488115)scale(0.08 -0.08)">
       <use xlink:href="#DejaVuSans-48"/>
      </g>
     </g>
    </g>
    <g id="ytick_2">
     <g id="line2d_12">
      <g>
       <use style="stroke:#000000;stroke-width:0.8;" x="57.17" xlink:href="#me75d755928" y="108.171207"/>
      </g>
     </g>
     <g id="text_12">
      <!-- 25000 -->
      <g transform="translate(24.72 111.210582)scale(0.08 -0.08)">
       <use xlink:href="#DejaVuSans-50"/>
       <use x="63.623047" xlink:href="#DejaVuSans-53"/>
       <use x="127.246094" xlink:href="#DejaVuSans-48"/>
       <use x="190.869141" xlink:href="#DejaVuSans-48"/>
       <use x="254.492188" xlink:href="#DejaVuSans-48"/>
      </g>
     </g>
    </g>
    <g id="ytick_3">
     <g id="line2d_13">
      <g>
       <use style="stroke:#000000;stroke-width:0.8;" x="57.17" xlink:href="#me75d755928" y="89.893674"/>
      </g>
     </g>
     <g id="text_13">
      <!-- 50000 -->
      <g transform="translate(24.72 92.933049)scale(0.08 -0.08)">
       <use xlink:href="#DejaVuSans-53"/>
       <use x="63.623047" xlink:href="#DejaVuSans-48"/>
       <use x="127.246094" xlink:href="#DejaVuSans-48"/>
       <use x="190.869141" xlink:href="#DejaVuSans-48"/>
       <use x="254.492188" xlink:href="#DejaVuSans-48"/>
      </g>
     </g>
    </g>
    <g id="ytick_4">
     <g id="line2d_14">
      <g>
       <use style="stroke:#000000;stroke-width:0.8;" x="57.17" xlink:href="#me75d755928" y="71.616141"/>
      </g>
     </g>
     <g id="text_14">
      <!-- 75000 -->
      <defs>
       <path d="M 8.203125 72.90625 
L 55.078125 72.90625 
L 55.078125 68.703125 
L 28.609375 0 
L 18.3125 0 
L 43.21875 64.59375 
L 8.203125 64.59375 
z
" id="DejaVuSans-55"/>
      </defs>
      <g transform="translate(24.72 74.655516)scale(0.08 -0.08)">
       <use xlink:href="#DejaVuSans-55"/>
       <use x="63.623047" xlink:href="#DejaVuSans-53"/>
       <use x="127.246094" xlink:href="#DejaVuSans-48"/>
       <use x="190.869141" xlink:href="#DejaVuSans-48"/>
       <use x="254.492188" xlink:href="#DejaVuSans-48"/>
      </g>
     </g>
    </g>
    <g id="ytick_5">
     <g id="line2d_15">
      <g>
       <use style="stroke:#000000;stroke-width:0.8;" x="57.17" xlink:href="#me75d755928" y="53.338607"/>
      </g>
     </g>
     <g id="text_15">
      <!-- 100000 -->
      <g transform="translate(19.63 56.377982)scale(0.08 -0.08)">
       <use xlink:href="#DejaVuSans-49"/>
       <use x="63.623047" xlink:href="#DejaVuSans-48"/>
       <use x="127.246094" xlink:href="#DejaVuSans-48"/>
       <use x="190.869141" xlink:href="#DejaVuSans-48"/>
       <use x="254.492188" xlink:href="#DejaVuSans-48"/>
       <use x="318.115234" xlink:href="#DejaVuSans-48"/>
      </g>
     </g>
    </g>
    <g id="ytick_6">
     <g id="line2d_16">
      <g>
       <use style="stroke:#000000;stroke-width:0.8;" x="57.17" xlink:href="#me75d755928" y="35.061074"/>
      </g>
     </g>
     <g id="text_16">
      <!-- 125000 -->
      <g transform="translate(19.63 38.100449)scale(0.08 -0.08)">
       <use xlink:href="#DejaVuSans-49"/>
       <use x="63.623047" xlink:href="#DejaVuSans-50"/>
       <use x="127.246094" xlink:href="#DejaVuSans-53"/>
       <use x="190.869141" xlink:href="#DejaVuSans-48"/>
       <use x="254.492188" xlink:href="#DejaVuSans-48"/>
       <use x="318.115234" xlink:href="#DejaVuSans-48"/>
      </g>
     </g>
    </g>
    <g id="ytick_7">
     <g id="line2d_17">
      <g>
       <use style="stroke:#000000;stroke-width:0.8;" x="57.17" xlink:href="#me75d755928" y="16.783541"/>
      </g>
     </g>
     <g id="text_17">
      <!-- 150000 -->
      <g transform="translate(19.63 19.822916)scale(0.08 -0.08)">
       <use xlink:href="#DejaVuSans-49"/>
       <use x="63.623047" xlink:href="#DejaVuSans-53"/>
       <use x="127.246094" xlink:href="#DejaVuSans-48"/>
       <use x="190.869141" xlink:href="#DejaVuSans-48"/>
       <use x="254.492188" xlink:href="#DejaVuSans-48"/>
       <use x="318.115234" xlink:href="#DejaVuSans-48"/>
      </g>
     </g>
    </g>
    <g id="text_18">
     <!-- Cases per day -->
     <defs>
      <path d="M 64.40625 67.28125 
L 64.40625 56.890625 
Q 59.421875 61.53125 53.78125 63.8125 
Q 48.140625 66.109375 41.796875 66.109375 
Q 29.296875 66.109375 22.65625 58.46875 
Q 16.015625 50.828125 16.015625 36.375 
Q 16.015625 21.96875 22.65625 14.328125 
Q 29.296875 6.6875 41.796875 6.6875 
Q 48.140625 6.6875 53.78125 8.984375 
Q 59.421875 11.28125 64.40625 15.921875 
L 64.40625 5.609375 
Q 59.234375 2.09375 53.4375 0.328125 
Q 47.65625 -1.421875 41.21875 -1.421875 
Q 24.65625 -1.421875 15.125 8.703125 
Q 5.609375 18.84375 5.609375 36.375 
Q 5.609375 53.953125 15.125 64.078125 
Q 24.65625 74.21875 41.21875 74.21875 
Q 47.75 74.21875 53.53125 72.484375 
Q 59.328125 70.75 64.40625 67.28125 
z
" id="DejaVuSans-67"/>
      <path d="M 44.28125 53.078125 
L 44.28125 44.578125 
Q 40.484375 46.53125 36.375 47.5 
Q 32.28125 48.484375 27.875 48.484375 
Q 21.1875 48.484375 17.84375 46.4375 
Q 14.5 44.390625 14.5 40.28125 
Q 14.5 37.15625 16.890625 35.375 
Q 19.28125 33.59375 26.515625 31.984375 
L 29.59375 31.296875 
Q 39.15625 29.25 43.1875 25.515625 
Q 47.21875 21.78125 47.21875 15.09375 
Q 47.21875 7.46875 41.1875 3.015625 
Q 35.15625 -1.421875 24.609375 -1.421875 
Q 20.21875 -1.421875 15.453125 -0.5625 
Q 10.6875 0.296875 5.421875 2 
L 5.421875 11.28125 
Q 10.40625 8.6875 15.234375 7.390625 
Q 20.0625 6.109375 24.8125 6.109375 
Q 31.15625 6.109375 34.5625 8.28125 
Q 37.984375 10.453125 37.984375 14.40625 
Q 37.984375 18.0625 35.515625 20.015625 
Q 33.0625 21.96875 24.703125 23.78125 
L 21.578125 24.515625 
Q 13.234375 26.265625 9.515625 29.90625 
Q 5.8125 33.546875 5.8125 39.890625 
Q 5.8125 47.609375 11.28125 51.796875 
Q 16.75 56 26.8125 56 
Q 31.78125 56 36.171875 55.265625 
Q 40.578125 54.546875 44.28125 53.078125 
z
" id="DejaVuSans-115"/>
      <path d="M 45.40625 46.390625 
L 45.40625 75.984375 
L 54.390625 75.984375 
L 54.390625 0 
L 45.40625 0 
L 45.40625 8.203125 
Q 42.578125 3.328125 38.25 0.953125 
Q 33.9375 -1.421875 27.875 -1.421875 
Q 17.96875 -1.421875 11.734375 6.484375 
Q 5.515625 14.40625 5.515625 27.296875 
Q 5.515625 40.1875 11.734375 48.09375 
Q 17.96875 56 27.875 56 
Q 33.9375 56 38.25 53.625 
Q 42.578125 51.265625 45.40625 46.390625 
z
M 14.796875 27.296875 
Q 14.796875 17.390625 18.875 11.75 
Q 22.953125 6.109375 30.078125 6.109375 
Q 37.203125 6.109375 41.296875 11.75 
Q 45.40625 17.390625 45.40625 27.296875 
Q 45.40625 37.203125 41.296875 42.84375 
Q 37.203125 48.484375 30.078125 48.484375 
Q 22.953125 48.484375 18.875 42.84375 
Q 14.796875 37.203125 14.796875 27.296875 
z
" id="DejaVuSans-100"/>
      <path d="M 32.171875 -5.078125 
Q 28.375 -14.84375 24.75 -17.8125 
Q 21.140625 -20.796875 15.09375 -20.796875 
L 7.90625 -20.796875 
L 7.90625 -13.28125 
L 13.1875 -13.28125 
Q 16.890625 -13.28125 18.9375 -11.515625 
Q 21 -9.765625 23.484375 -3.21875 
L 25.09375 0.875 
L 2.984375 54.6875 
L 12.5 54.6875 
L 29.59375 11.921875 
L 46.6875 54.6875 
L 56.203125 54.6875 
z
" id="DejaVuSans-121"/>
     </defs>
     <g transform="translate(13.96625 97.40312)rotate(-90)scale(0.08 -0.08)">
      <use xlink:href="#DejaVuSans-67"/>
      <use x="69.824219" xlink:href="#DejaVuSans-97"/>
      <use x="131.103516" xlink:href="#DejaVuSans-115"/>
      <use x="183.203125" xlink:href="#DejaVuSans-101"/>
      <use x="244.726562" xlink:href="#DejaVuSans-115"/>
      <use x="296.826172" xlink:href="#DejaVuSans-32"/>
      <use x="328.613281" xlink:href="#DejaVuSans-112"/>
      <use x="392.089844" xlink:href="#DejaVuSans-101"/>
      <use x="453.613281" xlink:href="#DejaVuSans-114"/>
      <use x="494.726562" xlink:href="#DejaVuSans-32"/>
      <use x="526.513672" xlink:href="#DejaVuSans-100"/>
      <use x="589.990234" xlink:href="#DejaVuSans-97"/>
      <use x="651.269531" xlink:href="#DejaVuSans-121"/>
     </g>
    </g>
   </g>
   <g id="line2d_18">
    <path clip-path="url(#p420064aa99)" d="M 64.877457 126.404117 
L 66.911087 126.404117 
L 68.944717 126.404117 
L 70.978346 126.404117 
L 73.011976 126.404117 
L 75.045606 126.404117 
L 77.079236 126.386621 
L 79.112866 126.377343 
L 81.146495 126.364903 
L 83.180125 126.347128 
L 85.213755 126.332626 
L 87.247385 126.311173 
L 89.281014 126.283135 
L 91.314644 126.215268 
L 93.348274 126.206809 
L 95.381904 126.147225 
L 97.415534 126.088012 
L 99.449163 126.014882 
L 101.482793 125.901794 
L 103.516423 125.750243 
L 105.550053 125.631795 
L 107.583683 125.453872 
L 109.617312 125.279452 
L 111.650942 124.797578 
L 113.684572 124.696277 
L 115.718202 124.274694 
L 117.751832 123.645579 
L 119.785461 122.920347 
L 121.819091 122.116954 
L 123.852721 119.938393 
L 125.886351 118.347956 
L 127.919981 117.500089 
L 129.95361 115.047541 
L 131.98724 103.99097 
L 134.02087 97.422769 
L 136.0545 86.516461 
L 138.08813 67.291355 
L 140.121759 76.596044 
L 142.155389 77.364783 
L 144.189019 89.065221 
L 146.222649 73.210016 
L 148.256279 92.940459 
L 150.289908 92.313764 
L 152.323538 92.650115 
L 154.357168 92.724385 
L 156.390798 100.820588 
L 158.424428 105.280774 
" style="fill:none;stroke:#0000ff;stroke-linecap:square;stroke-opacity:0.5;"/>
   </g>
   <g id="line2d_19">
    <path clip-path="url(#p420064aa99)" d="M 160.458057 105.435894 
L 162.491687 105.909142 
L 164.525317 106.553969 
L 166.558947 107.24929 
L 168.592577 107.920316 
L 170.626206 108.527502 
L 172.659836 109.052894 
L 174.693466 109.490109 
L 176.727096 109.838175 
L 178.760726 110.098122 
L 180.794355 110.271251 
L 182.827985 110.358297 
L 184.861615 110.35906 
L 186.895245 110.272234 
L 188.928875 110.095322 
L 190.962504 109.824558 
L 192.996134 109.454827 
L 195.029764 108.979562 
L 197.063394 108.390601 
L 199.097024 107.678025 
L 201.130653 106.829944 
" style="fill:none;stroke:#008000;stroke-linecap:square;stroke-opacity:0.5;"/>
   </g>
   <g id="line2d_20">
    <path clip-path="url(#p420064aa99)" d="M 148.256279 126.44874 
L 148.256279 11.52 
" style="fill:none;stroke:#0000ff;stroke-dasharray:1.85,0.8;stroke-dashoffset:0;stroke-width:0.5;"/>
   </g>
   <g id="line2d_21">
    <path clip-path="url(#p420064aa99)" d="M 142.155389 126.44874 
L 142.155389 11.52 
" style="fill:none;stroke:#0000ff;stroke-dasharray:1.85,0.8;stroke-dashoffset:0;stroke-width:0.5;"/>
   </g>
   <g id="line2d_22">
    <path clip-path="url(#p420064aa99)" d="M 148.256279 126.44874 
L 148.256279 11.52 
" style="fill:none;stroke:#0000ff;stroke-dasharray:1.85,0.8;stroke-dashoffset:0;stroke-width:0.5;"/>
   </g>
   <g id="line2d_23">
    <path clip-path="url(#p420064aa99)" d="M 131.98724 126.44874 
L 131.98724 11.52 
" style="fill:none;stroke:#0000ff;stroke-dasharray:1.85,0.8;stroke-dashoffset:0;stroke-width:0.5;"/>
   </g>
   <g id="line2d_24">
    <path clip-path="url(#p420064aa99)" d="M 123.852721 126.44874 
L 123.852721 11.52 
" style="fill:none;stroke:#0000ff;stroke-dasharray:1.85,0.8;stroke-dashoffset:0;stroke-width:0.5;"/>
   </g>
   <g id="patch_71">
    <path d="M 57.17 126.44874 
L 57.17 11.52 
" style="fill:none;stroke:#000000;stroke-linecap:square;stroke-linejoin:miter;stroke-width:0.8;"/>
   </g>
   <g id="patch_72">
    <path d="M 208.83811 126.44874 
L 208.83811 11.52 
" style="fill:none;stroke:#000000;stroke-linecap:square;stroke-linejoin:miter;stroke-width:0.8;"/>
   </g>
   <g id="patch_73">
    <path d="M 57.17 126.44874 
L 208.83811 126.44874 
" style="fill:none;stroke:#000000;stroke-linecap:square;stroke-linejoin:miter;stroke-width:0.8;"/>
   </g>
   <g id="patch_74">
    <path d="M 57.17 11.52 
L 208.83811 11.52 
" style="fill:none;stroke:#000000;stroke-linecap:square;stroke-linejoin:miter;stroke-width:0.8;"/>
   </g>
  </g>
  <g id="axes_2">
   <g id="matplotlib.axis_3">
    <g id="ytick_8">
     <g id="line2d_25">
      <defs>
       <path d="M 0 0 
L 3.5 0 
" id="m52cf69292c" style="stroke:#000000;stroke-width:0.8;"/>
      </defs>
      <g>
       <use style="stroke:#000000;stroke-width:0.8;" x="208.83811" xlink:href="#m52cf69292c" y="126.44874"/>
      </g>
     </g>
     <g id="text_19">
      <!-- 1.0 -->
      <defs>
       <path d="M 10.59375 35.5 
L 73.1875 35.5 
L 73.1875 27.203125 
L 10.59375 27.203125 
z
" id="DejaVuSans-8722"/>
       <path d="M 10.6875 12.40625 
L 21 12.40625 
L 21 0 
L 10.6875 0 
z
" id="DejaVuSans-46"/>
      </defs>
      <g transform="translate(215.83811 129.488115)scale(0.08 -0.08)">
       <use xlink:href="#DejaVuSans-8722"/>
       <use x="83.789062" xlink:href="#DejaVuSans-49"/>
       <use x="147.412109" xlink:href="#DejaVuSans-46"/>
       <use x="179.199219" xlink:href="#DejaVuSans-48"/>
      </g>
     </g>
    </g>
    <g id="ytick_9">
     <g id="line2d_26">
      <g>
       <use style="stroke:#000000;stroke-width:0.8;" x="208.83811" xlink:href="#m52cf69292c" y="85.402762"/>
      </g>
     </g>
     <g id="text_20">
      <!-- 0.5 -->
      <g transform="translate(215.83811 88.442137)scale(0.08 -0.08)">
       <use xlink:href="#DejaVuSans-8722"/>
       <use x="83.789062" xlink:href="#DejaVuSans-48"/>
       <use x="147.412109" xlink:href="#DejaVuSans-46"/>
       <use x="179.199219" xlink:href="#DejaVuSans-53"/>
      </g>
     </g>
    </g>
    <g id="ytick_10">
     <g id="line2d_27">
      <g>
       <use style="stroke:#000000;stroke-width:0.8;" x="208.83811" xlink:href="#m52cf69292c" y="44.356783"/>
      </g>
     </g>
     <g id="text_21">
      <!-- 0.0 -->
      <g transform="translate(215.83811 47.396158)scale(0.08 -0.08)">
       <use xlink:href="#DejaVuSans-48"/>
       <use x="63.623047" xlink:href="#DejaVuSans-46"/>
       <use x="95.410156" xlink:href="#DejaVuSans-48"/>
      </g>
     </g>
    </g>
    <g id="ytick_11">
     <g id="line2d_28">
      <g>
       <use style="stroke:#000000;stroke-width:0.8;" x="208.83811" xlink:href="#m52cf69292c" y="11.52"/>
      </g>
     </g>
     <g id="text_22">
      <!-- 0.4 -->
      <defs>
       <path d="M 37.796875 64.3125 
L 12.890625 25.390625 
L 37.796875 25.390625 
z
M 35.203125 72.90625 
L 47.609375 72.90625 
L 47.609375 25.390625 
L 58.015625 25.390625 
L 58.015625 17.1875 
L 47.609375 17.1875 
L 47.609375 0 
L 37.796875 0 
L 37.796875 17.1875 
L 4.890625 17.1875 
L 4.890625 26.703125 
z
" id="DejaVuSans-52"/>
      </defs>
      <g transform="translate(215.83811 14.559375)scale(0.08 -0.08)">
       <use xlink:href="#DejaVuSans-48"/>
       <use x="63.623047" xlink:href="#DejaVuSans-46"/>
       <use x="95.410156" xlink:href="#DejaVuSans-52"/>
      </g>
     </g>
    </g>
    <g id="text_23">
     <!-- Relative change -->
     <defs>
      <path d="M 44.390625 34.1875 
Q 47.5625 33.109375 50.5625 29.59375 
Q 53.5625 26.078125 56.59375 19.921875 
L 66.609375 0 
L 56 0 
L 46.6875 18.703125 
Q 43.0625 26.03125 39.671875 28.421875 
Q 36.28125 30.8125 30.421875 30.8125 
L 19.671875 30.8125 
L 19.671875 0 
L 9.8125 0 
L 9.8125 72.90625 
L 32.078125 72.90625 
Q 44.578125 72.90625 50.734375 67.671875 
Q 56.890625 62.453125 56.890625 51.90625 
Q 56.890625 45.015625 53.6875 40.46875 
Q 50.484375 35.9375 44.390625 34.1875 
z
M 19.671875 64.796875 
L 19.671875 38.921875 
L 32.078125 38.921875 
Q 39.203125 38.921875 42.84375 42.21875 
Q 46.484375 45.515625 46.484375 51.90625 
Q 46.484375 58.296875 42.84375 61.546875 
Q 39.203125 64.796875 32.078125 64.796875 
z
" id="DejaVuSans-82"/>
      <path d="M 9.421875 75.984375 
L 18.40625 75.984375 
L 18.40625 0 
L 9.421875 0 
z
" id="DejaVuSans-108"/>
      <path d="M 18.3125 70.21875 
L 18.3125 54.6875 
L 36.8125 54.6875 
L 36.8125 47.703125 
L 18.3125 47.703125 
L 18.3125 18.015625 
Q 18.3125 11.328125 20.140625 9.421875 
Q 21.96875 7.515625 27.59375 7.515625 
L 36.8125 7.515625 
L 36.8125 0 
L 27.59375 0 
Q 17.1875 0 13.234375 3.875 
Q 9.28125 7.765625 9.28125 18.015625 
L 9.28125 47.703125 
L 2.6875 47.703125 
L 2.6875 54.6875 
L 9.28125 54.6875 
L 9.28125 70.21875 
z
" id="DejaVuSans-116"/>
      <path d="M 9.421875 54.6875 
L 18.40625 54.6875 
L 18.40625 0 
L 9.421875 0 
z
M 9.421875 75.984375 
L 18.40625 75.984375 
L 18.40625 64.59375 
L 9.421875 64.59375 
z
" id="DejaVuSans-105"/>
      <path d="M 2.984375 54.6875 
L 12.5 54.6875 
L 29.59375 8.796875 
L 46.6875 54.6875 
L 56.203125 54.6875 
L 35.6875 0 
L 23.484375 0 
z
" id="DejaVuSans-118"/>
      <path d="M 48.78125 52.59375 
L 48.78125 44.1875 
Q 44.96875 46.296875 41.140625 47.34375 
Q 37.3125 48.390625 33.40625 48.390625 
Q 24.65625 48.390625 19.8125 42.84375 
Q 14.984375 37.3125 14.984375 27.296875 
Q 14.984375 17.28125 19.8125 11.734375 
Q 24.65625 6.203125 33.40625 6.203125 
Q 37.3125 6.203125 41.140625 7.25 
Q 44.96875 8.296875 48.78125 10.40625 
L 48.78125 2.09375 
Q 45.015625 0.34375 40.984375 -0.53125 
Q 36.96875 -1.421875 32.421875 -1.421875 
Q 20.0625 -1.421875 12.78125 6.34375 
Q 5.515625 14.109375 5.515625 27.296875 
Q 5.515625 40.671875 12.859375 48.328125 
Q 20.21875 56 33.015625 56 
Q 37.15625 56 41.109375 55.140625 
Q 45.0625 54.296875 48.78125 52.59375 
z
" id="DejaVuSans-99"/>
      <path d="M 54.890625 33.015625 
L 54.890625 0 
L 45.90625 0 
L 45.90625 32.71875 
Q 45.90625 40.484375 42.875 44.328125 
Q 39.84375 48.1875 33.796875 48.1875 
Q 26.515625 48.1875 22.3125 43.546875 
Q 18.109375 38.921875 18.109375 30.90625 
L 18.109375 0 
L 9.078125 0 
L 9.078125 75.984375 
L 18.109375 75.984375 
L 18.109375 46.1875 
Q 21.34375 51.125 25.703125 53.5625 
Q 30.078125 56 35.796875 56 
Q 45.21875 56 50.046875 50.171875 
Q 54.890625 44.34375 54.890625 33.015625 
z
" id="DejaVuSans-104"/>
      <path d="M 54.890625 33.015625 
L 54.890625 0 
L 45.90625 0 
L 45.90625 32.71875 
Q 45.90625 40.484375 42.875 44.328125 
Q 39.84375 48.1875 33.796875 48.1875 
Q 26.515625 48.1875 22.3125 43.546875 
Q 18.109375 38.921875 18.109375 30.90625 
L 18.109375 0 
L 9.078125 0 
L 9.078125 54.6875 
L 18.109375 54.6875 
L 18.109375 46.1875 
Q 21.34375 51.125 25.703125 53.5625 
Q 30.078125 56 35.796875 56 
Q 45.21875 56 50.046875 50.171875 
Q 54.890625 44.34375 54.890625 33.015625 
z
" id="DejaVuSans-110"/>
      <path d="M 45.40625 27.984375 
Q 45.40625 37.75 41.375 43.109375 
Q 37.359375 48.484375 30.078125 48.484375 
Q 22.859375 48.484375 18.828125 43.109375 
Q 14.796875 37.75 14.796875 27.984375 
Q 14.796875 18.265625 18.828125 12.890625 
Q 22.859375 7.515625 30.078125 7.515625 
Q 37.359375 7.515625 41.375 12.890625 
Q 45.40625 18.265625 45.40625 27.984375 
z
M 54.390625 6.78125 
Q 54.390625 -7.171875 48.1875 -13.984375 
Q 42 -20.796875 29.203125 -20.796875 
Q 24.46875 -20.796875 20.265625 -20.09375 
Q 16.0625 -19.390625 12.109375 -17.921875 
L 12.109375 -9.1875 
Q 16.0625 -11.328125 19.921875 -12.34375 
Q 23.78125 -13.375 27.78125 -13.375 
Q 36.625 -13.375 41.015625 -8.765625 
Q 45.40625 -4.15625 45.40625 5.171875 
L 45.40625 9.625 
Q 42.625 4.78125 38.28125 2.390625 
Q 33.9375 0 27.875 0 
Q 17.828125 0 11.671875 7.65625 
Q 5.515625 15.328125 5.515625 27.984375 
Q 5.515625 40.671875 11.671875 48.328125 
Q 17.828125 56 27.875 56 
Q 33.9375 56 38.28125 53.609375 
Q 42.625 51.21875 45.40625 46.390625 
L 45.40625 54.6875 
L 54.390625 54.6875 
z
" id="DejaVuSans-103"/>
     </defs>
     <g transform="translate(245.34311 101.10812)rotate(-90)scale(0.08 -0.08)">
      <use xlink:href="#DejaVuSans-82"/>
      <use x="64.982422" xlink:href="#DejaVuSans-101"/>
      <use x="126.505859" xlink:href="#DejaVuSans-108"/>
      <use x="154.289062" xlink:href="#DejaVuSans-97"/>
      <use x="215.568359" xlink:href="#DejaVuSans-116"/>
      <use x="254.777344" xlink:href="#DejaVuSans-105"/>
      <use x="282.560547" xlink:href="#DejaVuSans-118"/>
      <use x="341.740234" xlink:href="#DejaVuSans-101"/>
      <use x="403.263672" xlink:href="#DejaVuSans-32"/>
      <use x="435.050781" xlink:href="#DejaVuSans-99"/>
      <use x="490.03125" xlink:href="#DejaVuSans-104"/>
      <use x="553.410156" xlink:href="#DejaVuSans-97"/>
      <use x="614.689453" xlink:href="#DejaVuSans-110"/>
      <use x="678.068359" xlink:href="#DejaVuSans-103"/>
      <use x="741.544922" xlink:href="#DejaVuSans-101"/>
     </g>
    </g>
   </g>
   <g id="line2d_29">
    <path clip-path="url(#p420064aa99)" d="M 64.877457 44.356783 
L 66.911087 44.356783 
L 68.944717 44.356783 
L 70.978346 54.207818 
L 73.011976 50.10322 
L 75.045606 36.147587 
L 77.079236 38.610346 
L 79.112866 39.431265 
L 81.146495 40.252185 
L 83.180125 40.252185 
L 85.213755 47.640461 
L 87.247385 45.177702 
L 89.281014 46.819542 
L 91.314644 45.177702 
L 93.348274 43.535863 
L 95.381904 42.714944 
L 97.415534 43.535863 
L 99.449163 43.535863 
L 101.482793 38.610346 
L 103.516423 41.073105 
L 105.550053 42.714944 
L 107.583683 42.714944 
L 109.617312 45.177702 
L 111.650942 40.252185 
L 113.684572 44.356783 
L 115.718202 41.073105 
L 117.751832 44.356783 
L 119.785461 45.998622 
L 121.819091 44.356783 
L 123.852721 45.177702 
L 125.886351 45.998622 
L 127.919981 52.565979 
L 129.95361 53.386898 
L 131.98724 46.819542 
L 134.02087 56.670576 
L 136.0545 61.596094 
L 138.08813 61.596094 
L 140.121759 67.342531 
L 142.155389 85.402762 
L 144.189019 90.328279 
L 146.222649 81.298164 
L 148.256279 102.642073 
L 150.289908 104.283912 
L 152.323538 105.104831 
L 154.357168 106.74667 
L 156.390798 112.493107 
L 158.424428 114.134947 
" style="fill:none;stroke:#d62728;stroke-linecap:square;stroke-opacity:0.5;"/>
   </g>
   <g id="line2d_30">
    <path clip-path="url(#p420064aa99)" d="M 64.877457 44.356783 
L 66.911087 44.356783 
L 68.944717 44.356783 
L 70.978346 50.10322 
L 73.011976 49.2823 
L 75.045606 43.535863 
L 77.079236 45.177702 
L 79.112866 45.998622 
L 81.146495 45.998622 
L 83.180125 45.177702 
L 85.213755 45.998622 
L 87.247385 45.998622 
L 89.281014 45.177702 
L 91.314644 41.073105 
L 93.348274 44.356783 
L 95.381904 43.535863 
L 97.415534 43.535863 
L 99.449163 43.535863 
L 101.482793 42.714944 
L 103.516423 41.073105 
L 105.550053 41.894024 
L 107.583683 41.894024 
L 109.617312 42.714944 
L 111.650942 39.431265 
L 113.684572 42.714944 
L 115.718202 42.714944 
L 117.751832 41.073105 
L 119.785461 40.252185 
L 121.819091 40.252185 
L 123.852721 35.326668 
L 125.886351 35.326668 
L 127.919981 38.610346 
L 129.95361 38.610346 
L 131.98724 27.938391 
L 134.02087 27.117472 
L 136.0545 26.296552 
L 138.08813 24.654713 
L 140.121759 36.147587 
L 142.155389 43.535863 
L 144.189019 55.849657 
L 146.222649 50.924139 
L 148.256279 64.058853 
L 150.289908 65.700692 
L 152.323538 67.342531 
L 154.357168 68.163451 
L 156.390798 76.372646 
L 158.424428 82.119083 
" style="fill:none;stroke:#9467bd;stroke-linecap:square;stroke-opacity:0.5;"/>
   </g>
   <g id="line2d_31">
    <path clip-path="url(#p420064aa99)" d="M 64.877457 44.356783 
L 66.911087 44.356783 
L 68.944717 44.356783 
L 70.978346 54.207818 
L 73.011976 50.10322 
L 75.045606 45.998622 
L 77.079236 46.819542 
L 79.112866 47.640461 
L 81.146495 48.461381 
L 83.180125 46.819542 
L 85.213755 45.998622 
L 87.247385 41.894024 
L 89.281014 45.998622 
L 91.314644 43.535863 
L 93.348274 45.177702 
L 95.381904 44.356783 
L 97.415534 44.356783 
L 99.449163 45.998622 
L 101.482793 40.252185 
L 103.516423 44.356783 
L 105.550053 45.177702 
L 107.583683 45.998622 
L 109.617312 46.819542 
L 111.650942 43.535863 
L 113.684572 45.177702 
L 115.718202 42.714944 
L 117.751832 46.819542 
L 119.785461 47.640461 
L 121.819091 49.2823 
L 123.852721 50.924139 
L 125.886351 51.745059 
L 127.919981 56.670576 
L 129.95361 57.491496 
L 131.98724 57.491496 
L 134.02087 66.521611 
L 136.0545 72.268048 
L 138.08813 74.730807 
L 140.121759 77.193566 
L 142.155389 82.119083 
L 144.189019 82.119083 
L 146.222649 87.86552 
L 148.256279 96.895636 
L 150.289908 100.179314 
L 152.323538 101.821153 
L 154.357168 102.642073 
L 156.390798 105.104831 
L 158.424428 105.925751 
" style="fill:none;stroke:#e377c2;stroke-linecap:square;stroke-opacity:0.5;"/>
   </g>
   <g id="line2d_32">
    <path clip-path="url(#p420064aa99)" d="M 64.877457 44.356783 
L 66.911087 44.356783 
L 68.944717 44.356783 
L 70.978346 47.640461 
L 73.011976 46.819542 
L 75.045606 55.849657 
L 77.079236 55.849657 
L 79.112866 55.849657 
L 81.146495 55.849657 
L 83.180125 56.670576 
L 85.213755 45.998622 
L 87.247385 45.177702 
L 89.281014 45.998622 
L 91.314644 43.535863 
L 93.348274 43.535863 
L 95.381904 44.356783 
L 97.415534 45.177702 
L 99.449163 44.356783 
L 101.482793 43.535863 
L 103.516423 43.535863 
L 105.550053 43.535863 
L 107.583683 43.535863 
L 109.617312 44.356783 
L 111.650942 43.535863 
L 113.684572 43.535863 
L 115.718202 43.535863 
L 117.751832 44.356783 
L 119.785461 44.356783 
L 121.819091 44.356783 
L 123.852721 45.177702 
L 125.886351 47.640461 
L 127.919981 45.998622 
L 129.95361 47.640461 
L 131.98724 51.745059 
L 134.02087 57.491496 
L 136.0545 63.237933 
L 138.08813 66.521611 
L 140.121759 68.163451 
L 142.155389 64.879772 
L 144.189019 68.98437 
L 146.222649 81.298164 
L 148.256279 91.970118 
L 150.289908 96.895636 
L 152.323538 98.537475 
L 154.357168 98.537475 
L 156.390798 91.149199 
L 158.424428 89.507359 
" style="fill:none;stroke:#bcbd22;stroke-linecap:square;stroke-opacity:0.5;"/>
   </g>
   <g id="line2d_33">
    <path clip-path="url(#p420064aa99)" d="M 64.877457 44.356783 
L 66.911087 44.356783 
L 68.944717 44.356783 
L 70.978346 42.714944 
L 73.011976 43.535863 
L 75.045606 42.714944 
L 77.079236 42.714944 
L 79.112866 41.894024 
L 81.146495 41.894024 
L 83.180125 41.894024 
L 85.213755 43.535863 
L 87.247385 44.356783 
L 89.281014 43.535863 
L 91.314644 44.356783 
L 93.348274 44.356783 
L 95.381904 44.356783 
L 97.415534 43.535863 
L 99.449163 44.356783 
L 101.482793 45.177702 
L 103.516423 44.356783 
L 105.550053 44.356783 
L 107.583683 43.535863 
L 109.617312 43.535863 
L 111.650942 44.356783 
L 113.684572 44.356783 
L 115.718202 45.177702 
L 117.751832 43.535863 
L 119.785461 43.535863 
L 121.819091 43.535863 
L 123.852721 42.714944 
L 125.886351 42.714944 
L 127.919981 42.714944 
L 129.95361 42.714944 
L 131.98724 41.073105 
L 134.02087 38.610346 
L 136.0545 36.147587 
L 138.08813 35.326668 
L 140.121759 33.684828 
L 142.155389 35.326668 
L 144.189019 36.968507 
L 146.222649 30.40115 
L 148.256279 24.654713 
L 150.289908 23.012874 
L 152.323538 22.191954 
L 154.357168 21.371035 
L 156.390798 27.938391 
L 158.424428 32.042989 
" style="fill:none;stroke:#17becf;stroke-linecap:square;stroke-opacity:0.5;"/>
   </g>
   <g id="patch_75">
    <path d="M 57.17 126.44874 
L 57.17 11.52 
" style="fill:none;stroke:#000000;stroke-linecap:square;stroke-linejoin:miter;stroke-width:0.8;"/>
   </g>
   <g id="patch_76">
    <path d="M 208.83811 126.44874 
L 208.83811 11.52 
" style="fill:none;stroke:#000000;stroke-linecap:square;stroke-linejoin:miter;stroke-width:0.8;"/>
   </g>
   <g id="patch_77">
    <path d="M 57.17 126.44874 
L 208.83811 126.44874 
" style="fill:none;stroke:#000000;stroke-linecap:square;stroke-linejoin:miter;stroke-width:0.8;"/>
   </g>
   <g id="patch_78">
    <path d="M 57.17 11.52 
L 208.83811 11.52 
" style="fill:none;stroke:#000000;stroke-linecap:square;stroke-linejoin:miter;stroke-width:0.8;"/>
   </g>
  </g>
 </g>
 <defs>
  <clipPath id="p420064aa99">
   <rect height="114.92874" width="151.66811" x="57.17" y="11.52"/>
  </clipPath>
 </defs>
</svg>
