<?xml version="1.0" encoding="utf-8" standalone="no"?>
<!DOCTYPE svg PUBLIC "-//W3C//DTD SVG 1.1//EN"
  "http://www.w3.org/Graphics/SVG/1.1/DTD/svg11.dtd">
<!-- Created with matplotlib (https://matplotlib.org/) -->
<svg height="720pt" version="1.1" viewBox="0 0 1080 720" width="1080pt" xmlns="http://www.w3.org/2000/svg" xmlns:xlink="http://www.w3.org/1999/xlink">
 <defs>
  <style type="text/css">
*{stroke-linecap:butt;stroke-linejoin:round;}
  </style>
 </defs>
 <g id="figure_1">
  <g id="patch_1">
   <path d="M 0 720 
L 1080 720 
L 1080 0 
L 0 0 
z
" style="fill:#ffffff;"/>
  </g>
  <g id="axes_1">
   <g id="patch_2">
    <path d="M 135 640.8 
L 972 640.8 
L 972 86.4 
L 135 86.4 
z
" style="fill:#ffffff;"/>
   </g>
   <g id="patch_3">
    <path clip-path="url(#p78a000835d)" d="M 202.784965 640.8 
L 216.813566 640.8 
L 216.813566 638.236893 
L 202.784965 638.236893 
z
" style="fill:#1f77b4;opacity:0.4;"/>
   </g>
   <g id="patch_4">
    <path clip-path="url(#p78a000835d)" d="M 216.813566 640.8 
L 230.842167 640.8 
L 230.842167 640.8 
L 216.813566 640.8 
z
" style="fill:#1f77b4;opacity:0.4;"/>
   </g>
   <g id="patch_5">
    <path clip-path="url(#p78a000835d)" d="M 230.842167 640.8 
L 244.870769 640.8 
L 244.870769 640.8 
L 230.842167 640.8 
z
" style="fill:#1f77b4;opacity:0.4;"/>
   </g>
   <g id="patch_6">
    <path clip-path="url(#p78a000835d)" d="M 244.870769 640.8 
L 258.89937 640.8 
L 258.89937 638.236893 
L 244.870769 638.236893 
z
" style="fill:#1f77b4;opacity:0.4;"/>
   </g>
   <g id="patch_7">
    <path clip-path="url(#p78a000835d)" d="M 258.89937 640.8 
L 272.927972 640.8 
L 272.927972 633.11068 
L 258.89937 633.11068 
z
" style="fill:#1f77b4;opacity:0.4;"/>
   </g>
   <g id="patch_8">
    <path clip-path="url(#p78a000835d)" d="M 272.927972 640.8 
L 286.956573 640.8 
L 286.956573 638.236893 
L 272.927972 638.236893 
z
" style="fill:#1f77b4;opacity:0.4;"/>
   </g>
   <g id="patch_9">
    <path clip-path="url(#p78a000835d)" d="M 286.956573 640.8 
L 300.985174 640.8 
L 300.985174 630.547573 
L 286.956573 630.547573 
z
" style="fill:#1f77b4;opacity:0.4;"/>
   </g>
   <g id="patch_10">
    <path clip-path="url(#p78a000835d)" d="M 300.985174 640.8 
L 315.013776 640.8 
L 315.013776 635.673786 
L 300.985174 635.673786 
z
" style="fill:#1f77b4;opacity:0.4;"/>
   </g>
   <g id="patch_11">
    <path clip-path="url(#p78a000835d)" d="M 315.013776 640.8 
L 329.042377 640.8 
L 329.042377 635.673786 
L 315.013776 635.673786 
z
" style="fill:#1f77b4;opacity:0.4;"/>
   </g>
   <g id="patch_12">
    <path clip-path="url(#p78a000835d)" d="M 329.042377 640.8 
L 343.070979 640.8 
L 343.070979 633.11068 
L 329.042377 633.11068 
z
" style="fill:#1f77b4;opacity:0.4;"/>
   </g>
   <g id="patch_13">
    <path clip-path="url(#p78a000835d)" d="M 343.070979 640.8 
L 357.09958 640.8 
L 357.09958 635.673786 
L 343.070979 635.673786 
z
" style="fill:#1f77b4;opacity:0.4;"/>
   </g>
   <g id="patch_14">
    <path clip-path="url(#p78a000835d)" d="M 357.09958 640.8 
L 371.128182 640.8 
L 371.128182 633.11068 
L 357.09958 633.11068 
z
" style="fill:#1f77b4;opacity:0.4;"/>
   </g>
   <g id="patch_15">
    <path clip-path="url(#p78a000835d)" d="M 371.128182 640.8 
L 385.156783 640.8 
L 385.156783 633.11068 
L 371.128182 633.11068 
z
" style="fill:#1f77b4;opacity:0.4;"/>
   </g>
   <g id="patch_16">
    <path clip-path="url(#p78a000835d)" d="M 385.156783 640.8 
L 399.185384 640.8 
L 399.185384 622.858252 
L 385.156783 622.858252 
z
" style="fill:#1f77b4;opacity:0.4;"/>
   </g>
   <g id="patch_17">
    <path clip-path="url(#p78a000835d)" d="M 399.185384 640.8 
L 413.213986 640.8 
L 413.213986 630.547573 
L 399.185384 630.547573 
z
" style="fill:#1f77b4;opacity:0.4;"/>
   </g>
   <g id="patch_18">
    <path clip-path="url(#p78a000835d)" d="M 413.213986 640.8 
L 427.242587 640.8 
L 427.242587 622.858252 
L 413.213986 622.858252 
z
" style="fill:#1f77b4;opacity:0.4;"/>
   </g>
   <g id="patch_19">
    <path clip-path="url(#p78a000835d)" d="M 427.242587 640.8 
L 441.271189 640.8 
L 441.271189 610.042718 
L 427.242587 610.042718 
z
" style="fill:#1f77b4;opacity:0.4;"/>
   </g>
   <g id="patch_20">
    <path clip-path="url(#p78a000835d)" d="M 441.271189 640.8 
L 455.29979 640.8 
L 455.29979 579.285437 
L 441.271189 579.285437 
z
" style="fill:#1f77b4;opacity:0.4;"/>
   </g>
   <g id="patch_21">
    <path clip-path="url(#p78a000835d)" d="M 455.29979 640.8 
L 469.328391 640.8 
L 469.328391 543.401942 
L 455.29979 543.401942 
z
" style="fill:#1f77b4;opacity:0.4;"/>
   </g>
   <g id="patch_22">
    <path clip-path="url(#p78a000835d)" d="M 469.328391 640.8 
L 483.356993 640.8 
L 483.356993 569.03301 
L 469.328391 569.03301 
z
" style="fill:#1f77b4;opacity:0.4;"/>
   </g>
   <g id="patch_23">
    <path clip-path="url(#p78a000835d)" d="M 483.356993 640.8 
L 497.385594 640.8 
L 497.385594 522.897087 
L 483.356993 522.897087 
z
" style="fill:#1f77b4;opacity:0.4;"/>
   </g>
   <g id="patch_24">
    <path clip-path="url(#p78a000835d)" d="M 497.385594 640.8 
L 511.414196 640.8 
L 511.414196 494.702913 
L 497.385594 494.702913 
z
" style="fill:#1f77b4;opacity:0.4;"/>
   </g>
   <g id="patch_25">
    <path clip-path="url(#p78a000835d)" d="M 511.414196 640.8 
L 525.442797 640.8 
L 525.442797 422.935922 
L 511.414196 422.935922 
z
" style="fill:#1f77b4;opacity:0.4;"/>
   </g>
   <g id="patch_26">
    <path clip-path="url(#p78a000835d)" d="M 525.442797 640.8 
L 539.471399 640.8 
L 539.471399 112.8 
L 525.442797 112.8 
z
" style="fill:#1f77b4;opacity:0.4;"/>
   </g>
   <g id="patch_27">
    <path clip-path="url(#p78a000835d)" d="M 539.471399 640.8 
L 553.5 640.8 
L 553.5 266.586408 
L 539.471399 266.586408 
z
" style="fill:#1f77b4;opacity:0.4;"/>
   </g>
   <g id="patch_28">
    <path clip-path="url(#p78a000835d)" d="M 553.5 640.8 
L 567.528601 640.8 
L 567.528601 420.372816 
L 553.5 420.372816 
z
" style="fill:#1f77b4;opacity:0.4;"/>
   </g>
   <g id="patch_29">
    <path clip-path="url(#p78a000835d)" d="M 567.528601 640.8 
L 581.557203 640.8 
L 581.557203 466.508738 
L 567.528601 466.508738 
z
" style="fill:#1f77b4;opacity:0.4;"/>
   </g>
   <g id="patch_30">
    <path clip-path="url(#p78a000835d)" d="M 581.557203 640.8 
L 595.585804 640.8 
L 595.585804 520.333981 
L 581.557203 520.333981 
z
" style="fill:#1f77b4;opacity:0.4;"/>
   </g>
   <g id="patch_31">
    <path clip-path="url(#p78a000835d)" d="M 595.585804 640.8 
L 609.614406 640.8 
L 609.614406 561.343689 
L 595.585804 561.343689 
z
" style="fill:#1f77b4;opacity:0.4;"/>
   </g>
   <g id="patch_32">
    <path clip-path="url(#p78a000835d)" d="M 609.614406 640.8 
L 623.643007 640.8 
L 623.643007 576.72233 
L 609.614406 576.72233 
z
" style="fill:#1f77b4;opacity:0.4;"/>
   </g>
   <g id="patch_33">
    <path clip-path="url(#p78a000835d)" d="M 623.643007 640.8 
L 637.671609 640.8 
L 637.671609 597.227184 
L 623.643007 597.227184 
z
" style="fill:#1f77b4;opacity:0.4;"/>
   </g>
   <g id="patch_34">
    <path clip-path="url(#p78a000835d)" d="M 637.671609 640.8 
L 651.70021 640.8 
L 651.70021 615.168932 
L 637.671609 615.168932 
z
" style="fill:#1f77b4;opacity:0.4;"/>
   </g>
   <g id="patch_35">
    <path clip-path="url(#p78a000835d)" d="M 651.70021 640.8 
L 665.728811 640.8 
L 665.728811 625.421359 
L 651.70021 625.421359 
z
" style="fill:#1f77b4;opacity:0.4;"/>
   </g>
   <g id="patch_36">
    <path clip-path="url(#p78a000835d)" d="M 665.728811 640.8 
L 679.757413 640.8 
L 679.757413 627.984466 
L 665.728811 627.984466 
z
" style="fill:#1f77b4;opacity:0.4;"/>
   </g>
   <g id="patch_37">
    <path clip-path="url(#p78a000835d)" d="M 679.757413 640.8 
L 693.786014 640.8 
L 693.786014 633.11068 
L 679.757413 633.11068 
z
" style="fill:#1f77b4;opacity:0.4;"/>
   </g>
   <g id="patch_38">
    <path clip-path="url(#p78a000835d)" d="M 693.786014 640.8 
L 707.814616 640.8 
L 707.814616 630.547573 
L 693.786014 630.547573 
z
" style="fill:#1f77b4;opacity:0.4;"/>
   </g>
   <g id="patch_39">
    <path clip-path="url(#p78a000835d)" d="M 707.814616 640.8 
L 721.843217 640.8 
L 721.843217 638.236893 
L 707.814616 638.236893 
z
" style="fill:#1f77b4;opacity:0.4;"/>
   </g>
   <g id="patch_40">
    <path clip-path="url(#p78a000835d)" d="M 721.843217 640.8 
L 735.871818 640.8 
L 735.871818 633.11068 
L 721.843217 633.11068 
z
" style="fill:#1f77b4;opacity:0.4;"/>
   </g>
   <g id="patch_41">
    <path clip-path="url(#p78a000835d)" d="M 735.871818 640.8 
L 749.90042 640.8 
L 749.90042 638.236893 
L 735.871818 638.236893 
z
" style="fill:#1f77b4;opacity:0.4;"/>
   </g>
   <g id="patch_42">
    <path clip-path="url(#p78a000835d)" d="M 749.90042 640.8 
L 763.929021 640.8 
L 763.929021 635.673786 
L 749.90042 635.673786 
z
" style="fill:#1f77b4;opacity:0.4;"/>
   </g>
   <g id="patch_43">
    <path clip-path="url(#p78a000835d)" d="M 763.929021 640.8 
L 777.957623 640.8 
L 777.957623 635.673786 
L 763.929021 635.673786 
z
" style="fill:#1f77b4;opacity:0.4;"/>
   </g>
   <g id="patch_44">
    <path clip-path="url(#p78a000835d)" d="M 777.957623 640.8 
L 791.986224 640.8 
L 791.986224 640.8 
L 777.957623 640.8 
z
" style="fill:#1f77b4;opacity:0.4;"/>
   </g>
   <g id="patch_45">
    <path clip-path="url(#p78a000835d)" d="M 791.986224 640.8 
L 806.014826 640.8 
L 806.014826 638.236893 
L 791.986224 638.236893 
z
" style="fill:#1f77b4;opacity:0.4;"/>
   </g>
   <g id="patch_46">
    <path clip-path="url(#p78a000835d)" d="M 806.014826 640.8 
L 820.043427 640.8 
L 820.043427 638.236893 
L 806.014826 638.236893 
z
" style="fill:#1f77b4;opacity:0.4;"/>
   </g>
   <g id="patch_47">
    <path clip-path="url(#p78a000835d)" d="M 820.043427 640.8 
L 834.072028 640.8 
L 834.072028 640.8 
L 820.043427 640.8 
z
" style="fill:#1f77b4;opacity:0.4;"/>
   </g>
   <g id="patch_48">
    <path clip-path="url(#p78a000835d)" d="M 834.072028 640.8 
L 848.10063 640.8 
L 848.10063 638.236893 
L 834.072028 638.236893 
z
" style="fill:#1f77b4;opacity:0.4;"/>
   </g>
   <g id="patch_49">
    <path clip-path="url(#p78a000835d)" d="M 848.10063 640.8 
L 862.129231 640.8 
L 862.129231 640.8 
L 848.10063 640.8 
z
" style="fill:#1f77b4;opacity:0.4;"/>
   </g>
   <g id="patch_50">
    <path clip-path="url(#p78a000835d)" d="M 862.129231 640.8 
L 876.157833 640.8 
L 876.157833 640.8 
L 862.129231 640.8 
z
" style="fill:#1f77b4;opacity:0.4;"/>
   </g>
   <g id="patch_51">
    <path clip-path="url(#p78a000835d)" d="M 876.157833 640.8 
L 890.186434 640.8 
L 890.186434 640.8 
L 876.157833 640.8 
z
" style="fill:#1f77b4;opacity:0.4;"/>
   </g>
   <g id="patch_52">
    <path clip-path="url(#p78a000835d)" d="M 890.186434 640.8 
L 904.215035 640.8 
L 904.215035 638.236893 
L 890.186434 638.236893 
z
" style="fill:#1f77b4;opacity:0.4;"/>
   </g>
   <g id="matplotlib.axis_1">
    <g id="xtick_1">
     <g id="line2d_1">
      <defs>
       <path d="M 0 0 
L 0 3.5 
" id="m30b3fe1435" style="stroke:#000000;stroke-width:0.8;"/>
      </defs>
      <g>
       <use style="stroke:#000000;stroke-width:0.8;" x="171.613359" xlink:href="#m30b3fe1435" y="640.8"/>
      </g>
     </g>
     <g id="text_1">
      <!-- 0 -->
      <defs>
       <path d="M 31.78125 66.40625 
Q 24.171875 66.40625 20.328125 58.90625 
Q 16.5 51.421875 16.5 36.375 
Q 16.5 21.390625 20.328125 13.890625 
Q 24.171875 6.390625 31.78125 6.390625 
Q 39.453125 6.390625 43.28125 13.890625 
Q 47.125 21.390625 47.125 36.375 
Q 47.125 51.421875 43.28125 58.90625 
Q 39.453125 66.40625 31.78125 66.40625 
z
M 31.78125 74.21875 
Q 44.046875 74.21875 50.515625 64.515625 
Q 56.984375 54.828125 56.984375 36.375 
Q 56.984375 17.96875 50.515625 8.265625 
Q 44.046875 -1.421875 31.78125 -1.421875 
Q 19.53125 -1.421875 13.0625 8.265625 
Q 6.59375 17.96875 6.59375 36.375 
Q 6.59375 54.828125 13.0625 64.515625 
Q 19.53125 74.21875 31.78125 74.21875 
z
" id="DejaVuSans-48"/>
      </defs>
      <g transform="translate(168.432109 655.398438)scale(0.1 -0.1)">
       <use xlink:href="#DejaVuSans-48"/>
      </g>
     </g>
    </g>
    <g id="xtick_2">
     <g id="line2d_2">
      <g>
       <use style="stroke:#000000;stroke-width:0.8;" x="302.651155" xlink:href="#m30b3fe1435" y="640.8"/>
      </g>
     </g>
     <g id="text_2">
      <!-- 1 -->
      <defs>
       <path d="M 12.40625 8.296875 
L 28.515625 8.296875 
L 28.515625 63.921875 
L 10.984375 60.40625 
L 10.984375 69.390625 
L 28.421875 72.90625 
L 38.28125 72.90625 
L 38.28125 8.296875 
L 54.390625 8.296875 
L 54.390625 0 
L 12.40625 0 
z
" id="DejaVuSans-49"/>
      </defs>
      <g transform="translate(299.469905 655.398438)scale(0.1 -0.1)">
       <use xlink:href="#DejaVuSans-49"/>
      </g>
     </g>
    </g>
    <g id="xtick_3">
     <g id="line2d_3">
      <g>
       <use style="stroke:#000000;stroke-width:0.8;" x="433.688951" xlink:href="#m30b3fe1435" y="640.8"/>
      </g>
     </g>
     <g id="text_3">
      <!-- 2 -->
      <defs>
       <path d="M 19.1875 8.296875 
L 53.609375 8.296875 
L 53.609375 0 
L 7.328125 0 
L 7.328125 8.296875 
Q 12.9375 14.109375 22.625 23.890625 
Q 32.328125 33.6875 34.8125 36.53125 
Q 39.546875 41.84375 41.421875 45.53125 
Q 43.3125 49.21875 43.3125 52.78125 
Q 43.3125 58.59375 39.234375 62.25 
Q 35.15625 65.921875 28.609375 65.921875 
Q 23.96875 65.921875 18.8125 64.3125 
Q 13.671875 62.703125 7.8125 59.421875 
L 7.8125 69.390625 
Q 13.765625 71.78125 18.9375 73 
Q 24.125 74.21875 28.421875 74.21875 
Q 39.75 74.21875 46.484375 68.546875 
Q 53.21875 62.890625 53.21875 53.421875 
Q 53.21875 48.921875 51.53125 44.890625 
Q 49.859375 40.875 45.40625 35.40625 
Q 44.1875 33.984375 37.640625 27.21875 
Q 31.109375 20.453125 19.1875 8.296875 
z
" id="DejaVuSans-50"/>
      </defs>
      <g transform="translate(430.507701 655.398438)scale(0.1 -0.1)">
       <use xlink:href="#DejaVuSans-50"/>
      </g>
     </g>
    </g>
    <g id="xtick_4">
     <g id="line2d_4">
      <g>
       <use style="stroke:#000000;stroke-width:0.8;" x="564.726746" xlink:href="#m30b3fe1435" y="640.8"/>
      </g>
     </g>
     <g id="text_4">
      <!-- 3 -->
      <defs>
       <path d="M 40.578125 39.3125 
Q 47.65625 37.796875 51.625 33 
Q 55.609375 28.21875 55.609375 21.1875 
Q 55.609375 10.40625 48.1875 4.484375 
Q 40.765625 -1.421875 27.09375 -1.421875 
Q 22.515625 -1.421875 17.65625 -0.515625 
Q 12.796875 0.390625 7.625 2.203125 
L 7.625 11.71875 
Q 11.71875 9.328125 16.59375 8.109375 
Q 21.484375 6.890625 26.8125 6.890625 
Q 36.078125 6.890625 40.9375 10.546875 
Q 45.796875 14.203125 45.796875 21.1875 
Q 45.796875 27.640625 41.28125 31.265625 
Q 36.765625 34.90625 28.71875 34.90625 
L 20.21875 34.90625 
L 20.21875 43.015625 
L 29.109375 43.015625 
Q 36.375 43.015625 40.234375 45.921875 
Q 44.09375 48.828125 44.09375 54.296875 
Q 44.09375 59.90625 40.109375 62.90625 
Q 36.140625 65.921875 28.71875 65.921875 
Q 24.65625 65.921875 20.015625 65.03125 
Q 15.375 64.15625 9.8125 62.3125 
L 9.8125 71.09375 
Q 15.4375 72.65625 20.34375 73.4375 
Q 25.25 74.21875 29.59375 74.21875 
Q 40.828125 74.21875 47.359375 69.109375 
Q 53.90625 64.015625 53.90625 55.328125 
Q 53.90625 49.265625 50.4375 45.09375 
Q 46.96875 40.921875 40.578125 39.3125 
z
" id="DejaVuSans-51"/>
      </defs>
      <g transform="translate(561.545496 655.398438)scale(0.1 -0.1)">
       <use xlink:href="#DejaVuSans-51"/>
      </g>
     </g>
    </g>
    <g id="xtick_5">
     <g id="line2d_5">
      <g>
       <use style="stroke:#000000;stroke-width:0.8;" x="695.764542" xlink:href="#m30b3fe1435" y="640.8"/>
      </g>
     </g>
     <g id="text_5">
      <!-- 4 -->
      <defs>
       <path d="M 37.796875 64.3125 
L 12.890625 25.390625 
L 37.796875 25.390625 
z
M 35.203125 72.90625 
L 47.609375 72.90625 
L 47.609375 25.390625 
L 58.015625 25.390625 
L 58.015625 17.1875 
L 47.609375 17.1875 
L 47.609375 0 
L 37.796875 0 
L 37.796875 17.1875 
L 4.890625 17.1875 
L 4.890625 26.703125 
z
" id="DejaVuSans-52"/>
      </defs>
      <g transform="translate(692.583292 655.398438)scale(0.1 -0.1)">
       <use xlink:href="#DejaVuSans-52"/>
      </g>
     </g>
    </g>
    <g id="xtick_6">
     <g id="line2d_6">
      <g>
       <use style="stroke:#000000;stroke-width:0.8;" x="826.802338" xlink:href="#m30b3fe1435" y="640.8"/>
      </g>
     </g>
     <g id="text_6">
      <!-- 5 -->
      <defs>
       <path d="M 10.796875 72.90625 
L 49.515625 72.90625 
L 49.515625 64.59375 
L 19.828125 64.59375 
L 19.828125 46.734375 
Q 21.96875 47.46875 24.109375 47.828125 
Q 26.265625 48.1875 28.421875 48.1875 
Q 40.625 48.1875 47.75 41.5 
Q 54.890625 34.8125 54.890625 23.390625 
Q 54.890625 11.625 47.5625 5.09375 
Q 40.234375 -1.421875 26.90625 -1.421875 
Q 22.3125 -1.421875 17.546875 -0.640625 
Q 12.796875 0.140625 7.71875 1.703125 
L 7.71875 11.625 
Q 12.109375 9.234375 16.796875 8.0625 
Q 21.484375 6.890625 26.703125 6.890625 
Q 35.15625 6.890625 40.078125 11.328125 
Q 45.015625 15.765625 45.015625 23.390625 
Q 45.015625 31 40.078125 35.4375 
Q 35.15625 39.890625 26.703125 39.890625 
Q 22.75 39.890625 18.8125 39.015625 
Q 14.890625 38.140625 10.796875 36.28125 
z
" id="DejaVuSans-53"/>
      </defs>
      <g transform="translate(823.621088 655.398438)scale(0.1 -0.1)">
       <use xlink:href="#DejaVuSans-53"/>
      </g>
     </g>
    </g>
    <g id="xtick_7">
     <g id="line2d_7">
      <g>
       <use style="stroke:#000000;stroke-width:0.8;" x="957.840133" xlink:href="#m30b3fe1435" y="640.8"/>
      </g>
     </g>
     <g id="text_7">
      <!-- 6 -->
      <defs>
       <path d="M 33.015625 40.375 
Q 26.375 40.375 22.484375 35.828125 
Q 18.609375 31.296875 18.609375 23.390625 
Q 18.609375 15.53125 22.484375 10.953125 
Q 26.375 6.390625 33.015625 6.390625 
Q 39.65625 6.390625 43.53125 10.953125 
Q 47.40625 15.53125 47.40625 23.390625 
Q 47.40625 31.296875 43.53125 35.828125 
Q 39.65625 40.375 33.015625 40.375 
z
M 52.59375 71.296875 
L 52.59375 62.3125 
Q 48.875 64.0625 45.09375 64.984375 
Q 41.3125 65.921875 37.59375 65.921875 
Q 27.828125 65.921875 22.671875 59.328125 
Q 17.53125 52.734375 16.796875 39.40625 
Q 19.671875 43.65625 24.015625 45.921875 
Q 28.375 48.1875 33.59375 48.1875 
Q 44.578125 48.1875 50.953125 41.515625 
Q 57.328125 34.859375 57.328125 23.390625 
Q 57.328125 12.15625 50.6875 5.359375 
Q 44.046875 -1.421875 33.015625 -1.421875 
Q 20.359375 -1.421875 13.671875 8.265625 
Q 6.984375 17.96875 6.984375 36.375 
Q 6.984375 53.65625 15.1875 63.9375 
Q 23.390625 74.21875 37.203125 74.21875 
Q 40.921875 74.21875 44.703125 73.484375 
Q 48.484375 72.75 52.59375 71.296875 
z
" id="DejaVuSans-54"/>
      </defs>
      <g transform="translate(954.658883 655.398438)scale(0.1 -0.1)">
       <use xlink:href="#DejaVuSans-54"/>
      </g>
     </g>
    </g>
   </g>
   <g id="matplotlib.axis_2">
    <g id="ytick_1">
     <g id="line2d_8">
      <defs>
       <path d="M 0 0 
L -3.5 0 
" id="mb90f28c701" style="stroke:#000000;stroke-width:0.8;"/>
      </defs>
      <g>
       <use style="stroke:#000000;stroke-width:0.8;" x="135" xlink:href="#mb90f28c701" y="640.8"/>
      </g>
     </g>
     <g id="text_8">
      <!-- 0.00 -->
      <defs>
       <path d="M 10.6875 12.40625 
L 21 12.40625 
L 21 0 
L 10.6875 0 
z
" id="DejaVuSans-46"/>
      </defs>
      <g transform="translate(105.734375 644.599219)scale(0.1 -0.1)">
       <use xlink:href="#DejaVuSans-48"/>
       <use x="63.623047" xlink:href="#DejaVuSans-46"/>
       <use x="95.410156" xlink:href="#DejaVuSans-48"/>
       <use x="159.033203" xlink:href="#DejaVuSans-48"/>
      </g>
     </g>
    </g>
    <g id="ytick_2">
     <g id="line2d_9">
      <g>
       <use style="stroke:#000000;stroke-width:0.8;" x="135" xlink:href="#mb90f28c701" y="572.199938"/>
      </g>
     </g>
     <g id="text_9">
      <!-- 0.25 -->
      <g transform="translate(105.734375 575.999157)scale(0.1 -0.1)">
       <use xlink:href="#DejaVuSans-48"/>
       <use x="63.623047" xlink:href="#DejaVuSans-46"/>
       <use x="95.410156" xlink:href="#DejaVuSans-50"/>
       <use x="159.033203" xlink:href="#DejaVuSans-53"/>
      </g>
     </g>
    </g>
    <g id="ytick_3">
     <g id="line2d_10">
      <g>
       <use style="stroke:#000000;stroke-width:0.8;" x="135" xlink:href="#mb90f28c701" y="503.599876"/>
      </g>
     </g>
     <g id="text_10">
      <!-- 0.50 -->
      <g transform="translate(105.734375 507.399095)scale(0.1 -0.1)">
       <use xlink:href="#DejaVuSans-48"/>
       <use x="63.623047" xlink:href="#DejaVuSans-46"/>
       <use x="95.410156" xlink:href="#DejaVuSans-53"/>
       <use x="159.033203" xlink:href="#DejaVuSans-48"/>
      </g>
     </g>
    </g>
    <g id="ytick_4">
     <g id="line2d_11">
      <g>
       <use style="stroke:#000000;stroke-width:0.8;" x="135" xlink:href="#mb90f28c701" y="434.999814"/>
      </g>
     </g>
     <g id="text_11">
      <!-- 0.75 -->
      <defs>
       <path d="M 8.203125 72.90625 
L 55.078125 72.90625 
L 55.078125 68.703125 
L 28.609375 0 
L 18.3125 0 
L 43.21875 64.59375 
L 8.203125 64.59375 
z
" id="DejaVuSans-55"/>
      </defs>
      <g transform="translate(105.734375 438.799033)scale(0.1 -0.1)">
       <use xlink:href="#DejaVuSans-48"/>
       <use x="63.623047" xlink:href="#DejaVuSans-46"/>
       <use x="95.410156" xlink:href="#DejaVuSans-55"/>
       <use x="159.033203" xlink:href="#DejaVuSans-53"/>
      </g>
     </g>
    </g>
    <g id="ytick_5">
     <g id="line2d_12">
      <g>
       <use style="stroke:#000000;stroke-width:0.8;" x="135" xlink:href="#mb90f28c701" y="366.399752"/>
      </g>
     </g>
     <g id="text_12">
      <!-- 1.00 -->
      <g transform="translate(105.734375 370.198971)scale(0.1 -0.1)">
       <use xlink:href="#DejaVuSans-49"/>
       <use x="63.623047" xlink:href="#DejaVuSans-46"/>
       <use x="95.410156" xlink:href="#DejaVuSans-48"/>
       <use x="159.033203" xlink:href="#DejaVuSans-48"/>
      </g>
     </g>
    </g>
    <g id="ytick_6">
     <g id="line2d_13">
      <g>
       <use style="stroke:#000000;stroke-width:0.8;" x="135" xlink:href="#mb90f28c701" y="297.79969"/>
      </g>
     </g>
     <g id="text_13">
      <!-- 1.25 -->
      <g transform="translate(105.734375 301.598909)scale(0.1 -0.1)">
       <use xlink:href="#DejaVuSans-49"/>
       <use x="63.623047" xlink:href="#DejaVuSans-46"/>
       <use x="95.410156" xlink:href="#DejaVuSans-50"/>
       <use x="159.033203" xlink:href="#DejaVuSans-53"/>
      </g>
     </g>
    </g>
    <g id="ytick_7">
     <g id="line2d_14">
      <g>
       <use style="stroke:#000000;stroke-width:0.8;" x="135" xlink:href="#mb90f28c701" y="229.199628"/>
      </g>
     </g>
     <g id="text_14">
      <!-- 1.50 -->
      <g transform="translate(105.734375 232.998847)scale(0.1 -0.1)">
       <use xlink:href="#DejaVuSans-49"/>
       <use x="63.623047" xlink:href="#DejaVuSans-46"/>
       <use x="95.410156" xlink:href="#DejaVuSans-53"/>
       <use x="159.033203" xlink:href="#DejaVuSans-48"/>
      </g>
     </g>
    </g>
    <g id="ytick_8">
     <g id="line2d_15">
      <g>
       <use style="stroke:#000000;stroke-width:0.8;" x="135" xlink:href="#mb90f28c701" y="160.599566"/>
      </g>
     </g>
     <g id="text_15">
      <!-- 1.75 -->
      <g transform="translate(105.734375 164.398785)scale(0.1 -0.1)">
       <use xlink:href="#DejaVuSans-49"/>
       <use x="63.623047" xlink:href="#DejaVuSans-46"/>
       <use x="95.410156" xlink:href="#DejaVuSans-55"/>
       <use x="159.033203" xlink:href="#DejaVuSans-53"/>
      </g>
     </g>
    </g>
    <g id="ytick_9">
     <g id="line2d_16">
      <g>
       <use style="stroke:#000000;stroke-width:0.8;" x="135" xlink:href="#mb90f28c701" y="91.999504"/>
      </g>
     </g>
     <g id="text_16">
      <!-- 2.00 -->
      <g transform="translate(105.734375 95.798722)scale(0.1 -0.1)">
       <use xlink:href="#DejaVuSans-50"/>
       <use x="63.623047" xlink:href="#DejaVuSans-46"/>
       <use x="95.410156" xlink:href="#DejaVuSans-48"/>
       <use x="159.033203" xlink:href="#DejaVuSans-48"/>
      </g>
     </g>
    </g>
   </g>
   <g id="line2d_17">
    <path clip-path="url(#p78a000835d)" d="M 173.045455 640.783288 
L 179.036865 640.723138 
L 185.028275 640.520581 
L 203.002505 639.326061 
L 208.993916 639.595948 
L 214.985326 640.12777 
L 220.976736 640.541464 
L 226.968146 640.719767 
L 232.959556 640.715326 
L 238.950966 640.50412 
L 244.942377 639.928603 
L 250.933787 638.851799 
L 262.916607 635.8741 
L 268.908017 634.92198 
L 274.899427 634.642512 
L 280.890838 634.511604 
L 292.873658 633.863258 
L 304.856478 633.990574 
L 310.847888 633.865092 
L 316.839298 633.879398 
L 334.813529 634.953844 
L 340.804939 635.100982 
L 346.796349 634.645859 
L 352.787759 633.524765 
L 358.77917 632.539471 
L 364.77058 632.375555 
L 370.76199 632.739997 
L 376.7534 632.733542 
L 382.74481 631.473083 
L 388.73622 628.954507 
L 394.727631 626.614214 
L 400.719041 625.814115 
L 406.710451 626.04933 
L 412.701861 625.667939 
L 418.693271 623.397958 
L 424.684681 618.560086 
L 430.676092 610.886963 
L 436.667502 600.776613 
L 448.650322 577.969648 
L 454.641732 568.362054 
L 460.633142 562.264355 
L 472.615963 557.386926 
L 478.607373 549.544551 
L 484.598783 535.068696 
L 490.590193 518.144291 
L 496.581603 503.047933 
L 502.573014 488.66736 
L 508.564424 467.334144 
L 514.555834 427.94519 
L 520.547244 362.73748 
L 526.538654 279.497817 
L 532.530064 209.670896 
L 538.521475 190.132667 
L 544.512885 228.041932 
L 556.495705 362.247995 
L 562.487115 414.374644 
L 568.478525 450.961568 
L 574.469936 475.840677 
L 580.461346 494.988122 
L 586.452756 512.525501 
L 592.444166 529.321725 
L 598.435576 544.875983 
L 604.426986 558.475708 
L 610.418397 569.602862 
L 616.409807 578.725457 
L 622.401217 586.82978 
L 628.392627 594.155706 
L 640.375447 607.352023 
L 646.366858 614.119358 
L 652.358268 619.910165 
L 658.349678 623.904826 
L 664.341088 626.483844 
L 670.332498 628.178775 
L 676.323908 629.320811 
L 682.315319 630.3051 
L 688.306729 631.146137 
L 700.289549 632.133198 
L 706.280959 633.378191 
L 712.272369 635.042346 
L 718.26378 636.095052 
L 724.25519 636.151609 
L 730.2466 635.8552 
L 736.23801 635.974659 
L 742.22942 636.528019 
L 748.22083 636.797286 
L 754.212241 636.221597 
L 760.203651 635.336699 
L 766.195061 635.340887 
L 772.186471 636.57044 
L 778.177881 638.100933 
L 784.169291 638.975241 
L 790.160702 639.177227 
L 808.134932 639.453343 
L 826.109162 638.697213 
L 832.100573 638.827769 
L 838.091983 639.221209 
L 850.074803 640.321096 
L 856.066213 640.635306 
L 868.049034 640.791531 
L 880.031854 640.732388 
L 886.023264 640.543022 
L 892.014674 640.127908 
L 898.006084 639.595954 
L 903.997495 639.326064 
L 909.988905 639.567055 
L 921.971725 640.520579 
L 927.963135 640.72314 
L 933.954545 640.783286 
L 933.954545 640.783286 
" style="fill:none;stroke:#1f77b4;stroke-linecap:square;stroke-width:1.5;"/>
   </g>
   <g id="patch_53">
    <path d="M 135 640.8 
L 135 86.4 
" style="fill:none;stroke:#000000;stroke-linecap:square;stroke-linejoin:miter;stroke-width:0.8;"/>
   </g>
   <g id="patch_54">
    <path d="M 972 640.8 
L 972 86.4 
" style="fill:none;stroke:#000000;stroke-linecap:square;stroke-linejoin:miter;stroke-width:0.8;"/>
   </g>
   <g id="patch_55">
    <path d="M 135 640.8 
L 972 640.8 
" style="fill:none;stroke:#000000;stroke-linecap:square;stroke-linejoin:miter;stroke-width:0.8;"/>
   </g>
   <g id="patch_56">
    <path d="M 135 86.4 
L 972 86.4 
" style="fill:none;stroke:#000000;stroke-linecap:square;stroke-linejoin:miter;stroke-width:0.8;"/>
   </g>
  </g>
 </g>
 <defs>
  <clipPath id="p78a000835d">
   <rect height="554.4" width="837" x="135" y="86.4"/>
  </clipPath>
 </defs>
</svg>
