<?xml version="1.0" encoding="utf-8" standalone="no"?>
<!DOCTYPE svg PUBLIC "-//W3C//DTD SVG 1.1//EN"
  "http://www.w3.org/Graphics/SVG/1.1/DTD/svg11.dtd">
<!-- Created with matplotlib (https://matplotlib.org/) -->
<svg height="720pt" version="1.1" viewBox="0 0 1080 720" width="1080pt" xmlns="http://www.w3.org/2000/svg" xmlns:xlink="http://www.w3.org/1999/xlink">
 <defs>
  <style type="text/css">
*{stroke-linecap:butt;stroke-linejoin:round;}
  </style>
 </defs>
 <g id="figure_1">
  <g id="patch_1">
   <path d="M 0 720 
L 1080 720 
L 1080 0 
L 0 0 
z
" style="fill:#ffffff;"/>
  </g>
  <g id="axes_1">
   <g id="patch_2">
    <path d="M 135 640.8 
L 972 640.8 
L 972 86.4 
L 135 86.4 
z
" style="fill:#ffffff;"/>
   </g>
   <g id="patch_3">
    <path clip-path="url(#p49f2c6608f)" d="M 201.8018 640.8 
L 215.869728 640.8 
L 215.869728 638.562712 
L 201.8018 638.562712 
z
" style="fill:#1f77b4;opacity:0.4;"/>
   </g>
   <g id="patch_4">
    <path clip-path="url(#p49f2c6608f)" d="M 215.869728 640.8 
L 229.937656 640.8 
L 229.937656 640.8 
L 215.869728 640.8 
z
" style="fill:#1f77b4;opacity:0.4;"/>
   </g>
   <g id="patch_5">
    <path clip-path="url(#p49f2c6608f)" d="M 229.937656 640.8 
L 244.005584 640.8 
L 244.005584 640.8 
L 229.937656 640.8 
z
" style="fill:#1f77b4;opacity:0.4;"/>
   </g>
   <g id="patch_6">
    <path clip-path="url(#p49f2c6608f)" d="M 244.005584 640.8 
L 258.073512 640.8 
L 258.073512 636.325424 
L 244.005584 636.325424 
z
" style="fill:#1f77b4;opacity:0.4;"/>
   </g>
   <g id="patch_7">
    <path clip-path="url(#p49f2c6608f)" d="M 258.073512 640.8 
L 272.14144 640.8 
L 272.14144 640.8 
L 258.073512 640.8 
z
" style="fill:#1f77b4;opacity:0.4;"/>
   </g>
   <g id="patch_8">
    <path clip-path="url(#p49f2c6608f)" d="M 272.14144 640.8 
L 286.209368 640.8 
L 286.209368 640.8 
L 272.14144 640.8 
z
" style="fill:#1f77b4;opacity:0.4;"/>
   </g>
   <g id="patch_9">
    <path clip-path="url(#p49f2c6608f)" d="M 286.209368 640.8 
L 300.277296 640.8 
L 300.277296 640.8 
L 286.209368 640.8 
z
" style="fill:#1f77b4;opacity:0.4;"/>
   </g>
   <g id="patch_10">
    <path clip-path="url(#p49f2c6608f)" d="M 300.277296 640.8 
L 314.345224 640.8 
L 314.345224 640.8 
L 300.277296 640.8 
z
" style="fill:#1f77b4;opacity:0.4;"/>
   </g>
   <g id="patch_11">
    <path clip-path="url(#p49f2c6608f)" d="M 314.345224 640.8 
L 328.413152 640.8 
L 328.413152 640.8 
L 314.345224 640.8 
z
" style="fill:#1f77b4;opacity:0.4;"/>
   </g>
   <g id="patch_12">
    <path clip-path="url(#p49f2c6608f)" d="M 328.413152 640.8 
L 342.48108 640.8 
L 342.48108 640.8 
L 328.413152 640.8 
z
" style="fill:#1f77b4;opacity:0.4;"/>
   </g>
   <g id="patch_13">
    <path clip-path="url(#p49f2c6608f)" d="M 342.48108 640.8 
L 356.549008 640.8 
L 356.549008 638.562712 
L 342.48108 638.562712 
z
" style="fill:#1f77b4;opacity:0.4;"/>
   </g>
   <g id="patch_14">
    <path clip-path="url(#p49f2c6608f)" d="M 356.549008 640.8 
L 370.616936 640.8 
L 370.616936 640.8 
L 356.549008 640.8 
z
" style="fill:#1f77b4;opacity:0.4;"/>
   </g>
   <g id="patch_15">
    <path clip-path="url(#p49f2c6608f)" d="M 370.616936 640.8 
L 384.684864 640.8 
L 384.684864 638.562712 
L 370.616936 638.562712 
z
" style="fill:#1f77b4;opacity:0.4;"/>
   </g>
   <g id="patch_16">
    <path clip-path="url(#p49f2c6608f)" d="M 384.684864 640.8 
L 398.752792 640.8 
L 398.752792 640.8 
L 384.684864 640.8 
z
" style="fill:#1f77b4;opacity:0.4;"/>
   </g>
   <g id="patch_17">
    <path clip-path="url(#p49f2c6608f)" d="M 398.752792 640.8 
L 412.82072 640.8 
L 412.82072 638.562712 
L 398.752792 638.562712 
z
" style="fill:#1f77b4;opacity:0.4;"/>
   </g>
   <g id="patch_18">
    <path clip-path="url(#p49f2c6608f)" d="M 412.82072 640.8 
L 426.888648 640.8 
L 426.888648 636.325424 
L 412.82072 636.325424 
z
" style="fill:#1f77b4;opacity:0.4;"/>
   </g>
   <g id="patch_19">
    <path clip-path="url(#p49f2c6608f)" d="M 426.888648 640.8 
L 440.956576 640.8 
L 440.956576 638.562712 
L 426.888648 638.562712 
z
" style="fill:#1f77b4;opacity:0.4;"/>
   </g>
   <g id="patch_20">
    <path clip-path="url(#p49f2c6608f)" d="M 440.956576 640.8 
L 455.024504 640.8 
L 455.024504 636.325424 
L 440.956576 636.325424 
z
" style="fill:#1f77b4;opacity:0.4;"/>
   </g>
   <g id="patch_21">
    <path clip-path="url(#p49f2c6608f)" d="M 455.024504 640.8 
L 469.092432 640.8 
L 469.092432 636.325424 
L 455.024504 636.325424 
z
" style="fill:#1f77b4;opacity:0.4;"/>
   </g>
   <g id="patch_22">
    <path clip-path="url(#p49f2c6608f)" d="M 469.092432 640.8 
L 483.16036 640.8 
L 483.16036 629.613559 
L 469.092432 629.613559 
z
" style="fill:#1f77b4;opacity:0.4;"/>
   </g>
   <g id="patch_23">
    <path clip-path="url(#p49f2c6608f)" d="M 483.16036 640.8 
L 497.228288 640.8 
L 497.228288 618.427119 
L 483.16036 618.427119 
z
" style="fill:#1f77b4;opacity:0.4;"/>
   </g>
   <g id="patch_24">
    <path clip-path="url(#p49f2c6608f)" d="M 497.228288 640.8 
L 511.296216 640.8 
L 511.296216 618.427119 
L 497.228288 618.427119 
z
" style="fill:#1f77b4;opacity:0.4;"/>
   </g>
   <g id="patch_25">
    <path clip-path="url(#p49f2c6608f)" d="M 511.296216 640.8 
L 525.364144 640.8 
L 525.364144 611.715254 
L 511.296216 611.715254 
z
" style="fill:#1f77b4;opacity:0.4;"/>
   </g>
   <g id="patch_26">
    <path clip-path="url(#p49f2c6608f)" d="M 525.364144 640.8 
L 539.432072 640.8 
L 539.432072 575.918644 
L 525.364144 575.918644 
z
" style="fill:#1f77b4;opacity:0.4;"/>
   </g>
   <g id="patch_27">
    <path clip-path="url(#p49f2c6608f)" d="M 539.432072 640.8 
L 553.5 640.8 
L 553.5 560.257627 
L 539.432072 560.257627 
z
" style="fill:#1f77b4;opacity:0.4;"/>
   </g>
   <g id="patch_28">
    <path clip-path="url(#p49f2c6608f)" d="M 553.5 640.8 
L 567.567928 640.8 
L 567.567928 573.681356 
L 553.5 573.681356 
z
" style="fill:#1f77b4;opacity:0.4;"/>
   </g>
   <g id="patch_29">
    <path clip-path="url(#p49f2c6608f)" d="M 567.567928 640.8 
L 581.635856 640.8 
L 581.635856 528.935593 
L 567.567928 528.935593 
z
" style="fill:#1f77b4;opacity:0.4;"/>
   </g>
   <g id="patch_30">
    <path clip-path="url(#p49f2c6608f)" d="M 581.635856 640.8 
L 595.703784 640.8 
L 595.703784 519.986441 
L 581.635856 519.986441 
z
" style="fill:#1f77b4;opacity:0.4;"/>
   </g>
   <g id="patch_31">
    <path clip-path="url(#p49f2c6608f)" d="M 595.703784 640.8 
L 609.771712 640.8 
L 609.771712 426.020339 
L 595.703784 426.020339 
z
" style="fill:#1f77b4;opacity:0.4;"/>
   </g>
   <g id="patch_32">
    <path clip-path="url(#p49f2c6608f)" d="M 609.771712 640.8 
L 623.83964 640.8 
L 623.83964 112.8 
L 609.771712 112.8 
z
" style="fill:#1f77b4;opacity:0.4;"/>
   </g>
   <g id="patch_33">
    <path clip-path="url(#p49f2c6608f)" d="M 623.83964 640.8 
L 637.907568 640.8 
L 637.907568 374.562712 
L 623.83964 374.562712 
z
" style="fill:#1f77b4;opacity:0.4;"/>
   </g>
   <g id="patch_34">
    <path clip-path="url(#p49f2c6608f)" d="M 637.907568 640.8 
L 651.975496 640.8 
L 651.975496 450.630508 
L 637.907568 450.630508 
z
" style="fill:#1f77b4;opacity:0.4;"/>
   </g>
   <g id="patch_35">
    <path clip-path="url(#p49f2c6608f)" d="M 651.975496 640.8 
L 666.043424 640.8 
L 666.043424 506.562712 
L 651.975496 506.562712 
z
" style="fill:#1f77b4;opacity:0.4;"/>
   </g>
   <g id="patch_36">
    <path clip-path="url(#p49f2c6608f)" d="M 666.043424 640.8 
L 680.111352 640.8 
L 680.111352 542.359322 
L 666.043424 542.359322 
z
" style="fill:#1f77b4;opacity:0.4;"/>
   </g>
   <g id="patch_37">
    <path clip-path="url(#p49f2c6608f)" d="M 680.111352 640.8 
L 694.17928 640.8 
L 694.17928 589.342373 
L 680.111352 589.342373 
z
" style="fill:#1f77b4;opacity:0.4;"/>
   </g>
   <g id="patch_38">
    <path clip-path="url(#p49f2c6608f)" d="M 694.17928 640.8 
L 708.247208 640.8 
L 708.247208 593.816949 
L 694.17928 593.816949 
z
" style="fill:#1f77b4;opacity:0.4;"/>
   </g>
   <g id="patch_39">
    <path clip-path="url(#p49f2c6608f)" d="M 708.247208 640.8 
L 722.315136 640.8 
L 722.315136 602.766102 
L 708.247208 602.766102 
z
" style="fill:#1f77b4;opacity:0.4;"/>
   </g>
   <g id="patch_40">
    <path clip-path="url(#p49f2c6608f)" d="M 722.315136 640.8 
L 736.383064 640.8 
L 736.383064 629.613559 
L 722.315136 629.613559 
z
" style="fill:#1f77b4;opacity:0.4;"/>
   </g>
   <g id="patch_41">
    <path clip-path="url(#p49f2c6608f)" d="M 736.383064 640.8 
L 750.450992 640.8 
L 750.450992 616.189831 
L 736.383064 616.189831 
z
" style="fill:#1f77b4;opacity:0.4;"/>
   </g>
   <g id="patch_42">
    <path clip-path="url(#p49f2c6608f)" d="M 750.450992 640.8 
L 764.51892 640.8 
L 764.51892 631.850847 
L 750.450992 631.850847 
z
" style="fill:#1f77b4;opacity:0.4;"/>
   </g>
   <g id="patch_43">
    <path clip-path="url(#p49f2c6608f)" d="M 764.51892 640.8 
L 778.586848 640.8 
L 778.586848 631.850847 
L 764.51892 631.850847 
z
" style="fill:#1f77b4;opacity:0.4;"/>
   </g>
   <g id="patch_44">
    <path clip-path="url(#p49f2c6608f)" d="M 778.586848 640.8 
L 792.654776 640.8 
L 792.654776 636.325424 
L 778.586848 636.325424 
z
" style="fill:#1f77b4;opacity:0.4;"/>
   </g>
   <g id="patch_45">
    <path clip-path="url(#p49f2c6608f)" d="M 792.654776 640.8 
L 806.722704 640.8 
L 806.722704 631.850847 
L 792.654776 631.850847 
z
" style="fill:#1f77b4;opacity:0.4;"/>
   </g>
   <g id="patch_46">
    <path clip-path="url(#p49f2c6608f)" d="M 806.722704 640.8 
L 820.790632 640.8 
L 820.790632 629.613559 
L 806.722704 629.613559 
z
" style="fill:#1f77b4;opacity:0.4;"/>
   </g>
   <g id="patch_47">
    <path clip-path="url(#p49f2c6608f)" d="M 820.790632 640.8 
L 834.85856 640.8 
L 834.85856 634.088136 
L 820.790632 634.088136 
z
" style="fill:#1f77b4;opacity:0.4;"/>
   </g>
   <g id="patch_48">
    <path clip-path="url(#p49f2c6608f)" d="M 834.85856 640.8 
L 848.926488 640.8 
L 848.926488 631.850847 
L 834.85856 631.850847 
z
" style="fill:#1f77b4;opacity:0.4;"/>
   </g>
   <g id="patch_49">
    <path clip-path="url(#p49f2c6608f)" d="M 848.926488 640.8 
L 862.994416 640.8 
L 862.994416 638.562712 
L 848.926488 638.562712 
z
" style="fill:#1f77b4;opacity:0.4;"/>
   </g>
   <g id="patch_50">
    <path clip-path="url(#p49f2c6608f)" d="M 862.994416 640.8 
L 877.062344 640.8 
L 877.062344 629.613559 
L 862.994416 629.613559 
z
" style="fill:#1f77b4;opacity:0.4;"/>
   </g>
   <g id="patch_51">
    <path clip-path="url(#p49f2c6608f)" d="M 877.062344 640.8 
L 891.130272 640.8 
L 891.130272 640.8 
L 877.062344 640.8 
z
" style="fill:#1f77b4;opacity:0.4;"/>
   </g>
   <g id="patch_52">
    <path clip-path="url(#p49f2c6608f)" d="M 891.130272 640.8 
L 905.1982 640.8 
L 905.1982 638.562712 
L 891.130272 638.562712 
z
" style="fill:#1f77b4;opacity:0.4;"/>
   </g>
   <g id="matplotlib.axis_1">
    <g id="xtick_1">
     <g id="line2d_1">
      <defs>
       <path d="M 0 0 
L 0 3.5 
" id="mb83c35f39b" style="stroke:#000000;stroke-width:0.8;"/>
      </defs>
      <g>
       <use style="stroke:#000000;stroke-width:0.8;" x="265.825517" xlink:href="#mb83c35f39b" y="640.8"/>
      </g>
     </g>
     <g id="text_1">
      <!-- 0 -->
      <defs>
       <path d="M 31.78125 66.40625 
Q 24.171875 66.40625 20.328125 58.90625 
Q 16.5 51.421875 16.5 36.375 
Q 16.5 21.390625 20.328125 13.890625 
Q 24.171875 6.390625 31.78125 6.390625 
Q 39.453125 6.390625 43.28125 13.890625 
Q 47.125 21.390625 47.125 36.375 
Q 47.125 51.421875 43.28125 58.90625 
Q 39.453125 66.40625 31.78125 66.40625 
z
M 31.78125 74.21875 
Q 44.046875 74.21875 50.515625 64.515625 
Q 56.984375 54.828125 56.984375 36.375 
Q 56.984375 17.96875 50.515625 8.265625 
Q 44.046875 -1.421875 31.78125 -1.421875 
Q 19.53125 -1.421875 13.0625 8.265625 
Q 6.59375 17.96875 6.59375 36.375 
Q 6.59375 54.828125 13.0625 64.515625 
Q 19.53125 74.21875 31.78125 74.21875 
z
" id="DejaVuSans-48"/>
      </defs>
      <g transform="translate(259.463017 662.996875)scale(0.2 -0.2)">
       <use xlink:href="#DejaVuSans-48"/>
      </g>
     </g>
    </g>
    <g id="xtick_2">
     <g id="line2d_2">
      <g>
       <use style="stroke:#000000;stroke-width:0.8;" x="413.167599" xlink:href="#mb83c35f39b" y="640.8"/>
      </g>
     </g>
     <g id="text_2">
      <!-- 1 -->
      <defs>
       <path d="M 12.40625 8.296875 
L 28.515625 8.296875 
L 28.515625 63.921875 
L 10.984375 60.40625 
L 10.984375 69.390625 
L 28.421875 72.90625 
L 38.28125 72.90625 
L 38.28125 8.296875 
L 54.390625 8.296875 
L 54.390625 0 
L 12.40625 0 
z
" id="DejaVuSans-49"/>
      </defs>
      <g transform="translate(406.805099 662.996875)scale(0.2 -0.2)">
       <use xlink:href="#DejaVuSans-49"/>
      </g>
     </g>
    </g>
    <g id="xtick_3">
     <g id="line2d_3">
      <g>
       <use style="stroke:#000000;stroke-width:0.8;" x="560.509681" xlink:href="#mb83c35f39b" y="640.8"/>
      </g>
     </g>
     <g id="text_3">
      <!-- 2 -->
      <defs>
       <path d="M 19.1875 8.296875 
L 53.609375 8.296875 
L 53.609375 0 
L 7.328125 0 
L 7.328125 8.296875 
Q 12.9375 14.109375 22.625 23.890625 
Q 32.328125 33.6875 34.8125 36.53125 
Q 39.546875 41.84375 41.421875 45.53125 
Q 43.3125 49.21875 43.3125 52.78125 
Q 43.3125 58.59375 39.234375 62.25 
Q 35.15625 65.921875 28.609375 65.921875 
Q 23.96875 65.921875 18.8125 64.3125 
Q 13.671875 62.703125 7.8125 59.421875 
L 7.8125 69.390625 
Q 13.765625 71.78125 18.9375 73 
Q 24.125 74.21875 28.421875 74.21875 
Q 39.75 74.21875 46.484375 68.546875 
Q 53.21875 62.890625 53.21875 53.421875 
Q 53.21875 48.921875 51.53125 44.890625 
Q 49.859375 40.875 45.40625 35.40625 
Q 44.1875 33.984375 37.640625 27.21875 
Q 31.109375 20.453125 19.1875 8.296875 
z
" id="DejaVuSans-50"/>
      </defs>
      <g transform="translate(554.147181 662.996875)scale(0.2 -0.2)">
       <use xlink:href="#DejaVuSans-50"/>
      </g>
     </g>
    </g>
    <g id="xtick_4">
     <g id="line2d_4">
      <g>
       <use style="stroke:#000000;stroke-width:0.8;" x="707.851763" xlink:href="#mb83c35f39b" y="640.8"/>
      </g>
     </g>
     <g id="text_4">
      <!-- 3 -->
      <defs>
       <path d="M 40.578125 39.3125 
Q 47.65625 37.796875 51.625 33 
Q 55.609375 28.21875 55.609375 21.1875 
Q 55.609375 10.40625 48.1875 4.484375 
Q 40.765625 -1.421875 27.09375 -1.421875 
Q 22.515625 -1.421875 17.65625 -0.515625 
Q 12.796875 0.390625 7.625 2.203125 
L 7.625 11.71875 
Q 11.71875 9.328125 16.59375 8.109375 
Q 21.484375 6.890625 26.8125 6.890625 
Q 36.078125 6.890625 40.9375 10.546875 
Q 45.796875 14.203125 45.796875 21.1875 
Q 45.796875 27.640625 41.28125 31.265625 
Q 36.765625 34.90625 28.71875 34.90625 
L 20.21875 34.90625 
L 20.21875 43.015625 
L 29.109375 43.015625 
Q 36.375 43.015625 40.234375 45.921875 
Q 44.09375 48.828125 44.09375 54.296875 
Q 44.09375 59.90625 40.109375 62.90625 
Q 36.140625 65.921875 28.71875 65.921875 
Q 24.65625 65.921875 20.015625 65.03125 
Q 15.375 64.15625 9.8125 62.3125 
L 9.8125 71.09375 
Q 15.4375 72.65625 20.34375 73.4375 
Q 25.25 74.21875 29.59375 74.21875 
Q 40.828125 74.21875 47.359375 69.109375 
Q 53.90625 64.015625 53.90625 55.328125 
Q 53.90625 49.265625 50.4375 45.09375 
Q 46.96875 40.921875 40.578125 39.3125 
z
" id="DejaVuSans-51"/>
      </defs>
      <g transform="translate(701.489263 662.996875)scale(0.2 -0.2)">
       <use xlink:href="#DejaVuSans-51"/>
      </g>
     </g>
    </g>
    <g id="xtick_5">
     <g id="line2d_5">
      <g>
       <use style="stroke:#000000;stroke-width:0.8;" x="855.193845" xlink:href="#mb83c35f39b" y="640.8"/>
      </g>
     </g>
     <g id="text_5">
      <!-- 4 -->
      <defs>
       <path d="M 37.796875 64.3125 
L 12.890625 25.390625 
L 37.796875 25.390625 
z
M 35.203125 72.90625 
L 47.609375 72.90625 
L 47.609375 25.390625 
L 58.015625 25.390625 
L 58.015625 17.1875 
L 47.609375 17.1875 
L 47.609375 0 
L 37.796875 0 
L 37.796875 17.1875 
L 4.890625 17.1875 
L 4.890625 26.703125 
z
" id="DejaVuSans-52"/>
      </defs>
      <g transform="translate(848.831345 662.996875)scale(0.2 -0.2)">
       <use xlink:href="#DejaVuSans-52"/>
      </g>
     </g>
    </g>
   </g>
   <g id="matplotlib.axis_2">
    <g id="ytick_1">
     <g id="line2d_6">
      <defs>
       <path d="M 0 0 
L -3.5 0 
" id="mc372632c76" style="stroke:#000000;stroke-width:0.8;"/>
      </defs>
      <g>
       <use style="stroke:#000000;stroke-width:0.8;" x="135" xlink:href="#mc372632c76" y="640.8"/>
      </g>
     </g>
     <g id="text_6">
      <!-- 0.0 -->
      <defs>
       <path d="M 10.6875 12.40625 
L 21 12.40625 
L 21 0 
L 10.6875 0 
z
" id="DejaVuSans-46"/>
      </defs>
      <g transform="translate(96.19375 648.398438)scale(0.2 -0.2)">
       <use xlink:href="#DejaVuSans-48"/>
       <use x="63.623047" xlink:href="#DejaVuSans-46"/>
       <use x="95.410156" xlink:href="#DejaVuSans-48"/>
      </g>
     </g>
    </g>
    <g id="ytick_2">
     <g id="line2d_7">
      <g>
       <use style="stroke:#000000;stroke-width:0.8;" x="135" xlink:href="#mc372632c76" y="533.994096"/>
      </g>
     </g>
     <g id="text_7">
      <!-- 0.5 -->
      <defs>
       <path d="M 10.796875 72.90625 
L 49.515625 72.90625 
L 49.515625 64.59375 
L 19.828125 64.59375 
L 19.828125 46.734375 
Q 21.96875 47.46875 24.109375 47.828125 
Q 26.265625 48.1875 28.421875 48.1875 
Q 40.625 48.1875 47.75 41.5 
Q 54.890625 34.8125 54.890625 23.390625 
Q 54.890625 11.625 47.5625 5.09375 
Q 40.234375 -1.421875 26.90625 -1.421875 
Q 22.3125 -1.421875 17.546875 -0.640625 
Q 12.796875 0.140625 7.71875 1.703125 
L 7.71875 11.625 
Q 12.109375 9.234375 16.796875 8.0625 
Q 21.484375 6.890625 26.703125 6.890625 
Q 35.15625 6.890625 40.078125 11.328125 
Q 45.015625 15.765625 45.015625 23.390625 
Q 45.015625 31 40.078125 35.4375 
Q 35.15625 39.890625 26.703125 39.890625 
Q 22.75 39.890625 18.8125 39.015625 
Q 14.890625 38.140625 10.796875 36.28125 
z
" id="DejaVuSans-53"/>
      </defs>
      <g transform="translate(96.19375 541.592534)scale(0.2 -0.2)">
       <use xlink:href="#DejaVuSans-48"/>
       <use x="63.623047" xlink:href="#DejaVuSans-46"/>
       <use x="95.410156" xlink:href="#DejaVuSans-53"/>
      </g>
     </g>
    </g>
    <g id="ytick_3">
     <g id="line2d_8">
      <g>
       <use style="stroke:#000000;stroke-width:0.8;" x="135" xlink:href="#mc372632c76" y="427.188193"/>
      </g>
     </g>
     <g id="text_8">
      <!-- 1.0 -->
      <g transform="translate(96.19375 434.78663)scale(0.2 -0.2)">
       <use xlink:href="#DejaVuSans-49"/>
       <use x="63.623047" xlink:href="#DejaVuSans-46"/>
       <use x="95.410156" xlink:href="#DejaVuSans-48"/>
      </g>
     </g>
    </g>
    <g id="ytick_4">
     <g id="line2d_9">
      <g>
       <use style="stroke:#000000;stroke-width:0.8;" x="135" xlink:href="#mc372632c76" y="320.382289"/>
      </g>
     </g>
     <g id="text_9">
      <!-- 1.5 -->
      <g transform="translate(96.19375 327.980727)scale(0.2 -0.2)">
       <use xlink:href="#DejaVuSans-49"/>
       <use x="63.623047" xlink:href="#DejaVuSans-46"/>
       <use x="95.410156" xlink:href="#DejaVuSans-53"/>
      </g>
     </g>
    </g>
    <g id="ytick_5">
     <g id="line2d_10">
      <g>
       <use style="stroke:#000000;stroke-width:0.8;" x="135" xlink:href="#mc372632c76" y="213.576385"/>
      </g>
     </g>
     <g id="text_10">
      <!-- 2.0 -->
      <g transform="translate(96.19375 221.174823)scale(0.2 -0.2)">
       <use xlink:href="#DejaVuSans-50"/>
       <use x="63.623047" xlink:href="#DejaVuSans-46"/>
       <use x="95.410156" xlink:href="#DejaVuSans-48"/>
      </g>
     </g>
    </g>
    <g id="ytick_6">
     <g id="line2d_11">
      <g>
       <use style="stroke:#000000;stroke-width:0.8;" x="135" xlink:href="#mc372632c76" y="106.770482"/>
      </g>
     </g>
     <g id="text_11">
      <!-- 2.5 -->
      <g transform="translate(96.19375 114.368919)scale(0.2 -0.2)">
       <use xlink:href="#DejaVuSans-50"/>
       <use x="63.623047" xlink:href="#DejaVuSans-46"/>
       <use x="95.410156" xlink:href="#DejaVuSans-53"/>
      </g>
     </g>
    </g>
   </g>
   <g id="line2d_12">
    <path clip-path="url(#p49f2c6608f)" d="M 173.045455 640.78108 
L 179.036865 640.717213 
L 185.028275 640.513445 
L 197.011095 639.655185 
L 203.002505 639.504234 
L 208.993916 639.806516 
L 214.985326 640.282384 
L 220.976736 640.589195 
L 226.968146 640.596917 
L 232.959556 640.230362 
L 238.950966 639.434327 
L 244.942377 638.52176 
L 250.933787 638.206032 
L 256.925197 638.79996 
L 262.916607 639.759569 
L 268.908017 640.434801 
L 274.899427 640.713293 
L 286.882248 640.798465 
L 328.822119 640.752489 
L 334.813529 640.600296 
L 340.804939 640.237117 
L 346.796349 639.739886 
L 352.787759 639.465309 
L 358.77917 639.651147 
L 364.77058 640.015785 
L 370.76199 640.09274 
L 382.74481 639.500832 
L 394.727631 639.494986 
L 400.719041 638.878784 
L 406.710451 637.636879 
L 412.701861 636.771417 
L 418.693271 637.060316 
L 424.684681 637.853597 
L 430.676092 638.051942 
L 442.658912 637.188052 
L 448.650322 637.083494 
L 454.641732 636.689822 
L 460.633142 635.402188 
L 466.624553 633.399039 
L 472.615963 631.100828 
L 478.607373 628.418427 
L 490.590193 622.106632 
L 496.581603 619.494135 
L 502.573014 617.175965 
L 508.564424 614.282284 
L 514.555834 609.721229 
L 520.547244 602.355105 
L 526.538654 592.394186 
L 532.530064 581.990016 
L 538.521475 573.34793 
L 544.512885 567.55045 
L 550.504295 564.727623 
L 556.495705 563.072432 
L 562.487115 558.783446 
L 568.478525 549.516296 
L 574.469936 536.290573 
L 580.461346 520.968926 
L 586.452756 502.742086 
L 592.444166 476.519231 
L 598.435576 434.654759 
L 604.426986 372.150174 
L 610.418397 297.663205 
L 616.409807 242.502337 
L 622.401217 240.689775 
L 628.392627 290.982573 
L 634.384037 358.445671 
L 640.375447 414.178608 
L 646.366858 453.171907 
L 652.358268 480.696895 
L 658.349678 501.506608 
L 670.332498 537.521511 
L 676.323908 555.100768 
L 682.315319 570.590022 
L 688.306729 582.381426 
L 694.298139 589.990354 
L 700.289549 594.474216 
L 706.280959 598.216956 
L 712.272369 603.575337 
L 718.26378 610.911797 
L 724.25519 617.947797 
L 730.2466 621.840222 
L 742.22942 623.273017 
L 748.22083 625.652054 
L 754.212241 628.201782 
L 760.203651 629.457663 
L 766.195061 630.256193 
L 772.186471 631.685498 
L 778.177881 633.46344 
L 784.169291 634.809099 
L 790.160702 635.263328 
L 796.152112 634.622909 
L 802.143522 633.051757 
L 808.134932 631.331557 
L 814.126342 630.505312 
L 820.117752 630.926341 
L 826.109162 631.827084 
L 832.100573 632.365728 
L 838.091983 632.792624 
L 844.083393 633.804945 
L 850.074803 635.100786 
L 856.066213 635.498817 
L 868.049034 633.701727 
L 874.040444 634.401121 
L 886.023264 638.713861 
L 892.014674 639.679101 
L 898.006084 639.673075 
L 903.997495 639.483953 
L 909.988905 639.653069 
L 921.971725 640.513437 
L 927.963135 640.717214 
L 933.954545 640.781079 
L 933.954545 640.781079 
" style="fill:none;stroke:#1f77b4;stroke-linecap:square;stroke-width:1.5;"/>
   </g>
   <g id="patch_53">
    <path d="M 135 640.8 
L 135 86.4 
" style="fill:none;stroke:#000000;stroke-linecap:square;stroke-linejoin:miter;stroke-width:0.8;"/>
   </g>
   <g id="patch_54">
    <path d="M 972 640.8 
L 972 86.4 
" style="fill:none;stroke:#000000;stroke-linecap:square;stroke-linejoin:miter;stroke-width:0.8;"/>
   </g>
   <g id="patch_55">
    <path d="M 135 640.8 
L 972 640.8 
" style="fill:none;stroke:#000000;stroke-linecap:square;stroke-linejoin:miter;stroke-width:0.8;"/>
   </g>
   <g id="patch_56">
    <path d="M 135 86.4 
L 972 86.4 
" style="fill:none;stroke:#000000;stroke-linecap:square;stroke-linejoin:miter;stroke-width:0.8;"/>
   </g>
  </g>
 </g>
 <defs>
  <clipPath id="p49f2c6608f">
   <rect height="554.4" width="837" x="135" y="86.4"/>
  </clipPath>
 </defs>
</svg>
