<?xml version="1.0" encoding="utf-8" standalone="no"?>
<!DOCTYPE svg PUBLIC "-//W3C//DTD SVG 1.1//EN"
  "http://www.w3.org/Graphics/SVG/1.1/DTD/svg11.dtd">
<!-- Created with matplotlib (https://matplotlib.org/) -->
<svg height="720pt" version="1.1" viewBox="0 0 1080 720" width="1080pt" xmlns="http://www.w3.org/2000/svg" xmlns:xlink="http://www.w3.org/1999/xlink">
 <defs>
  <style type="text/css">
*{stroke-linecap:butt;stroke-linejoin:round;}
  </style>
 </defs>
 <g id="figure_1">
  <g id="patch_1">
   <path d="M 0 720 
L 1080 720 
L 1080 0 
L 0 0 
z
" style="fill:#ffffff;"/>
  </g>
  <g id="axes_1">
   <g id="patch_2">
    <path d="M 135 640.8 
L 972 640.8 
L 972 86.4 
L 135 86.4 
z
" style="fill:#ffffff;"/>
   </g>
   <g id="patch_3">
    <path clip-path="url(#pe2cb521333)" d="M 204.943918 640.8 
L 218.886161 640.8 
L 218.886161 638.186139 
L 204.943918 638.186139 
z
" style="fill:#1f77b4;opacity:0.4;"/>
   </g>
   <g id="patch_4">
    <path clip-path="url(#pe2cb521333)" d="M 218.886161 640.8 
L 232.828404 640.8 
L 232.828404 638.186139 
L 218.886161 638.186139 
z
" style="fill:#1f77b4;opacity:0.4;"/>
   </g>
   <g id="patch_5">
    <path clip-path="url(#pe2cb521333)" d="M 232.828404 640.8 
L 246.770648 640.8 
L 246.770648 640.8 
L 232.828404 640.8 
z
" style="fill:#1f77b4;opacity:0.4;"/>
   </g>
   <g id="patch_6">
    <path clip-path="url(#pe2cb521333)" d="M 246.770648 640.8 
L 260.712891 640.8 
L 260.712891 638.186139 
L 246.770648 638.186139 
z
" style="fill:#1f77b4;opacity:0.4;"/>
   </g>
   <g id="patch_7">
    <path clip-path="url(#pe2cb521333)" d="M 260.712891 640.8 
L 274.655134 640.8 
L 274.655134 638.186139 
L 260.712891 638.186139 
z
" style="fill:#1f77b4;opacity:0.4;"/>
   </g>
   <g id="patch_8">
    <path clip-path="url(#pe2cb521333)" d="M 274.655134 640.8 
L 288.597377 640.8 
L 288.597377 640.8 
L 274.655134 640.8 
z
" style="fill:#1f77b4;opacity:0.4;"/>
   </g>
   <g id="patch_9">
    <path clip-path="url(#pe2cb521333)" d="M 288.597377 640.8 
L 302.539621 640.8 
L 302.539621 640.8 
L 288.597377 640.8 
z
" style="fill:#1f77b4;opacity:0.4;"/>
   </g>
   <g id="patch_10">
    <path clip-path="url(#pe2cb521333)" d="M 302.539621 640.8 
L 316.481864 640.8 
L 316.481864 630.344554 
L 302.539621 630.344554 
z
" style="fill:#1f77b4;opacity:0.4;"/>
   </g>
   <g id="patch_11">
    <path clip-path="url(#pe2cb521333)" d="M 316.481864 640.8 
L 330.424107 640.8 
L 330.424107 640.8 
L 316.481864 640.8 
z
" style="fill:#1f77b4;opacity:0.4;"/>
   </g>
   <g id="patch_12">
    <path clip-path="url(#pe2cb521333)" d="M 330.424107 640.8 
L 344.366351 640.8 
L 344.366351 635.572277 
L 330.424107 635.572277 
z
" style="fill:#1f77b4;opacity:0.4;"/>
   </g>
   <g id="patch_13">
    <path clip-path="url(#pe2cb521333)" d="M 344.366351 640.8 
L 358.308594 640.8 
L 358.308594 622.50297 
L 344.366351 622.50297 
z
" style="fill:#1f77b4;opacity:0.4;"/>
   </g>
   <g id="patch_14">
    <path clip-path="url(#pe2cb521333)" d="M 358.308594 640.8 
L 372.250837 640.8 
L 372.250837 614.661386 
L 358.308594 614.661386 
z
" style="fill:#1f77b4;opacity:0.4;"/>
   </g>
   <g id="patch_15">
    <path clip-path="url(#pe2cb521333)" d="M 372.250837 640.8 
L 386.193081 640.8 
L 386.193081 625.116832 
L 372.250837 625.116832 
z
" style="fill:#1f77b4;opacity:0.4;"/>
   </g>
   <g id="patch_16">
    <path clip-path="url(#pe2cb521333)" d="M 386.193081 640.8 
L 400.135324 640.8 
L 400.135324 627.730693 
L 386.193081 627.730693 
z
" style="fill:#1f77b4;opacity:0.4;"/>
   </g>
   <g id="patch_17">
    <path clip-path="url(#pe2cb521333)" d="M 400.135324 640.8 
L 414.077567 640.8 
L 414.077567 601.592079 
L 400.135324 601.592079 
z
" style="fill:#1f77b4;opacity:0.4;"/>
   </g>
   <g id="patch_18">
    <path clip-path="url(#pe2cb521333)" d="M 414.077567 640.8 
L 428.01981 640.8 
L 428.01981 598.978218 
L 414.077567 598.978218 
z
" style="fill:#1f77b4;opacity:0.4;"/>
   </g>
   <g id="patch_19">
    <path clip-path="url(#pe2cb521333)" d="M 428.01981 640.8 
L 441.962054 640.8 
L 441.962054 578.067327 
L 428.01981 578.067327 
z
" style="fill:#1f77b4;opacity:0.4;"/>
   </g>
   <g id="patch_20">
    <path clip-path="url(#pe2cb521333)" d="M 441.962054 640.8 
L 455.904297 640.8 
L 455.904297 570.225743 
L 441.962054 570.225743 
z
" style="fill:#1f77b4;opacity:0.4;"/>
   </g>
   <g id="patch_21">
    <path clip-path="url(#pe2cb521333)" d="M 455.904297 640.8 
L 469.84654 640.8 
L 469.84654 541.473267 
L 455.904297 541.473267 
z
" style="fill:#1f77b4;opacity:0.4;"/>
   </g>
   <g id="patch_22">
    <path clip-path="url(#pe2cb521333)" d="M 469.84654 640.8 
L 483.788784 640.8 
L 483.788784 510.106931 
L 469.84654 510.106931 
z
" style="fill:#1f77b4;opacity:0.4;"/>
   </g>
   <g id="patch_23">
    <path clip-path="url(#pe2cb521333)" d="M 483.788784 640.8 
L 497.731027 640.8 
L 497.731027 486.582178 
L 483.788784 486.582178 
z
" style="fill:#1f77b4;opacity:0.4;"/>
   </g>
   <g id="patch_24">
    <path clip-path="url(#pe2cb521333)" d="M 497.731027 640.8 
L 511.67327 640.8 
L 511.67327 426.463366 
L 497.731027 426.463366 
z
" style="fill:#1f77b4;opacity:0.4;"/>
   </g>
   <g id="patch_25">
    <path clip-path="url(#pe2cb521333)" d="M 511.67327 640.8 
L 525.615513 640.8 
L 525.615513 112.8 
L 511.67327 112.8 
z
" style="fill:#1f77b4;opacity:0.4;"/>
   </g>
   <g id="patch_26">
    <path clip-path="url(#pe2cb521333)" d="M 525.615513 640.8 
L 539.557757 640.8 
L 539.557757 256.562376 
L 525.615513 256.562376 
z
" style="fill:#1f77b4;opacity:0.4;"/>
   </g>
   <g id="patch_27">
    <path clip-path="url(#pe2cb521333)" d="M 539.557757 640.8 
L 553.5 640.8 
L 553.5 413.394059 
L 539.557757 413.394059 
z
" style="fill:#1f77b4;opacity:0.4;"/>
   </g>
   <g id="patch_28">
    <path clip-path="url(#pe2cb521333)" d="M 553.5 640.8 
L 567.442243 640.8 
L 567.442243 525.790099 
L 553.5 525.790099 
z
" style="fill:#1f77b4;opacity:0.4;"/>
   </g>
   <g id="patch_29">
    <path clip-path="url(#pe2cb521333)" d="M 567.442243 640.8 
L 581.384487 640.8 
L 581.384487 520.562376 
L 567.442243 520.562376 
z
" style="fill:#1f77b4;opacity:0.4;"/>
   </g>
   <g id="patch_30">
    <path clip-path="url(#pe2cb521333)" d="M 581.384487 640.8 
L 595.32673 640.8 
L 595.32673 549.314851 
L 581.384487 549.314851 
z
" style="fill:#1f77b4;opacity:0.4;"/>
   </g>
   <g id="patch_31">
    <path clip-path="url(#pe2cb521333)" d="M 595.32673 640.8 
L 609.268973 640.8 
L 609.268973 598.978218 
L 595.32673 598.978218 
z
" style="fill:#1f77b4;opacity:0.4;"/>
   </g>
   <g id="patch_32">
    <path clip-path="url(#pe2cb521333)" d="M 609.268973 640.8 
L 623.211216 640.8 
L 623.211216 583.29505 
L 609.268973 583.29505 
z
" style="fill:#1f77b4;opacity:0.4;"/>
   </g>
   <g id="patch_33">
    <path clip-path="url(#pe2cb521333)" d="M 623.211216 640.8 
L 637.15346 640.8 
L 637.15346 609.433663 
L 623.211216 609.433663 
z
" style="fill:#1f77b4;opacity:0.4;"/>
   </g>
   <g id="patch_34">
    <path clip-path="url(#pe2cb521333)" d="M 637.15346 640.8 
L 651.095703 640.8 
L 651.095703 627.730693 
L 637.15346 627.730693 
z
" style="fill:#1f77b4;opacity:0.4;"/>
   </g>
   <g id="patch_35">
    <path clip-path="url(#pe2cb521333)" d="M 651.095703 640.8 
L 665.037946 640.8 
L 665.037946 630.344554 
L 651.095703 630.344554 
z
" style="fill:#1f77b4;opacity:0.4;"/>
   </g>
   <g id="patch_36">
    <path clip-path="url(#pe2cb521333)" d="M 665.037946 640.8 
L 678.98019 640.8 
L 678.98019 627.730693 
L 665.037946 627.730693 
z
" style="fill:#1f77b4;opacity:0.4;"/>
   </g>
   <g id="patch_37">
    <path clip-path="url(#pe2cb521333)" d="M 678.98019 640.8 
L 692.922433 640.8 
L 692.922433 630.344554 
L 678.98019 630.344554 
z
" style="fill:#1f77b4;opacity:0.4;"/>
   </g>
   <g id="patch_38">
    <path clip-path="url(#pe2cb521333)" d="M 692.922433 640.8 
L 706.864676 640.8 
L 706.864676 635.572277 
L 692.922433 635.572277 
z
" style="fill:#1f77b4;opacity:0.4;"/>
   </g>
   <g id="patch_39">
    <path clip-path="url(#pe2cb521333)" d="M 706.864676 640.8 
L 720.806919 640.8 
L 720.806919 627.730693 
L 706.864676 627.730693 
z
" style="fill:#1f77b4;opacity:0.4;"/>
   </g>
   <g id="patch_40">
    <path clip-path="url(#pe2cb521333)" d="M 720.806919 640.8 
L 734.749163 640.8 
L 734.749163 635.572277 
L 720.806919 635.572277 
z
" style="fill:#1f77b4;opacity:0.4;"/>
   </g>
   <g id="patch_41">
    <path clip-path="url(#pe2cb521333)" d="M 734.749163 640.8 
L 748.691406 640.8 
L 748.691406 632.958416 
L 734.749163 632.958416 
z
" style="fill:#1f77b4;opacity:0.4;"/>
   </g>
   <g id="patch_42">
    <path clip-path="url(#pe2cb521333)" d="M 748.691406 640.8 
L 762.633649 640.8 
L 762.633649 640.8 
L 748.691406 640.8 
z
" style="fill:#1f77b4;opacity:0.4;"/>
   </g>
   <g id="patch_43">
    <path clip-path="url(#pe2cb521333)" d="M 762.633649 640.8 
L 776.575893 640.8 
L 776.575893 638.186139 
L 762.633649 638.186139 
z
" style="fill:#1f77b4;opacity:0.4;"/>
   </g>
   <g id="patch_44">
    <path clip-path="url(#pe2cb521333)" d="M 776.575893 640.8 
L 790.518136 640.8 
L 790.518136 630.344554 
L 776.575893 630.344554 
z
" style="fill:#1f77b4;opacity:0.4;"/>
   </g>
   <g id="patch_45">
    <path clip-path="url(#pe2cb521333)" d="M 790.518136 640.8 
L 804.460379 640.8 
L 804.460379 638.186139 
L 790.518136 638.186139 
z
" style="fill:#1f77b4;opacity:0.4;"/>
   </g>
   <g id="patch_46">
    <path clip-path="url(#pe2cb521333)" d="M 804.460379 640.8 
L 818.402623 640.8 
L 818.402623 635.572277 
L 804.460379 635.572277 
z
" style="fill:#1f77b4;opacity:0.4;"/>
   </g>
   <g id="patch_47">
    <path clip-path="url(#pe2cb521333)" d="M 818.402623 640.8 
L 832.344866 640.8 
L 832.344866 640.8 
L 818.402623 640.8 
z
" style="fill:#1f77b4;opacity:0.4;"/>
   </g>
   <g id="patch_48">
    <path clip-path="url(#pe2cb521333)" d="M 832.344866 640.8 
L 846.287109 640.8 
L 846.287109 640.8 
L 832.344866 640.8 
z
" style="fill:#1f77b4;opacity:0.4;"/>
   </g>
   <g id="patch_49">
    <path clip-path="url(#pe2cb521333)" d="M 846.287109 640.8 
L 860.229352 640.8 
L 860.229352 638.186139 
L 846.287109 638.186139 
z
" style="fill:#1f77b4;opacity:0.4;"/>
   </g>
   <g id="patch_50">
    <path clip-path="url(#pe2cb521333)" d="M 860.229352 640.8 
L 874.171596 640.8 
L 874.171596 640.8 
L 860.229352 640.8 
z
" style="fill:#1f77b4;opacity:0.4;"/>
   </g>
   <g id="patch_51">
    <path clip-path="url(#pe2cb521333)" d="M 874.171596 640.8 
L 888.113839 640.8 
L 888.113839 640.8 
L 874.171596 640.8 
z
" style="fill:#1f77b4;opacity:0.4;"/>
   </g>
   <g id="patch_52">
    <path clip-path="url(#pe2cb521333)" d="M 888.113839 640.8 
L 902.056082 640.8 
L 902.056082 638.186139 
L 888.113839 638.186139 
z
" style="fill:#1f77b4;opacity:0.4;"/>
   </g>
   <g id="matplotlib.axis_1">
    <g id="xtick_1">
     <g id="line2d_1">
      <defs>
       <path d="M 0 0 
L 0 3.5 
" id="mdee997ad01" style="stroke:#000000;stroke-width:0.8;"/>
      </defs>
      <g>
       <use style="stroke:#000000;stroke-width:0.8;" x="183.299526" xlink:href="#mdee997ad01" y="640.8"/>
      </g>
     </g>
     <g id="text_1">
      <!-- 0 -->
      <defs>
       <path d="M 31.78125 66.40625 
Q 24.171875 66.40625 20.328125 58.90625 
Q 16.5 51.421875 16.5 36.375 
Q 16.5 21.390625 20.328125 13.890625 
Q 24.171875 6.390625 31.78125 6.390625 
Q 39.453125 6.390625 43.28125 13.890625 
Q 47.125 21.390625 47.125 36.375 
Q 47.125 51.421875 43.28125 58.90625 
Q 39.453125 66.40625 31.78125 66.40625 
z
M 31.78125 74.21875 
Q 44.046875 74.21875 50.515625 64.515625 
Q 56.984375 54.828125 56.984375 36.375 
Q 56.984375 17.96875 50.515625 8.265625 
Q 44.046875 -1.421875 31.78125 -1.421875 
Q 19.53125 -1.421875 13.0625 8.265625 
Q 6.59375 17.96875 6.59375 36.375 
Q 6.59375 54.828125 13.0625 64.515625 
Q 19.53125 74.21875 31.78125 74.21875 
z
" id="DejaVuSans-48"/>
      </defs>
      <g transform="translate(176.937026 662.996875)scale(0.2 -0.2)">
       <use xlink:href="#DejaVuSans-48"/>
      </g>
     </g>
    </g>
    <g id="xtick_2">
     <g id="line2d_2">
      <g>
       <use style="stroke:#000000;stroke-width:0.8;" x="325.320894" xlink:href="#mdee997ad01" y="640.8"/>
      </g>
     </g>
     <g id="text_2">
      <!-- 1 -->
      <defs>
       <path d="M 12.40625 8.296875 
L 28.515625 8.296875 
L 28.515625 63.921875 
L 10.984375 60.40625 
L 10.984375 69.390625 
L 28.421875 72.90625 
L 38.28125 72.90625 
L 38.28125 8.296875 
L 54.390625 8.296875 
L 54.390625 0 
L 12.40625 0 
z
" id="DejaVuSans-49"/>
      </defs>
      <g transform="translate(318.958394 662.996875)scale(0.2 -0.2)">
       <use xlink:href="#DejaVuSans-49"/>
      </g>
     </g>
    </g>
    <g id="xtick_3">
     <g id="line2d_3">
      <g>
       <use style="stroke:#000000;stroke-width:0.8;" x="467.342263" xlink:href="#mdee997ad01" y="640.8"/>
      </g>
     </g>
     <g id="text_3">
      <!-- 2 -->
      <defs>
       <path d="M 19.1875 8.296875 
L 53.609375 8.296875 
L 53.609375 0 
L 7.328125 0 
L 7.328125 8.296875 
Q 12.9375 14.109375 22.625 23.890625 
Q 32.328125 33.6875 34.8125 36.53125 
Q 39.546875 41.84375 41.421875 45.53125 
Q 43.3125 49.21875 43.3125 52.78125 
Q 43.3125 58.59375 39.234375 62.25 
Q 35.15625 65.921875 28.609375 65.921875 
Q 23.96875 65.921875 18.8125 64.3125 
Q 13.671875 62.703125 7.8125 59.421875 
L 7.8125 69.390625 
Q 13.765625 71.78125 18.9375 73 
Q 24.125 74.21875 28.421875 74.21875 
Q 39.75 74.21875 46.484375 68.546875 
Q 53.21875 62.890625 53.21875 53.421875 
Q 53.21875 48.921875 51.53125 44.890625 
Q 49.859375 40.875 45.40625 35.40625 
Q 44.1875 33.984375 37.640625 27.21875 
Q 31.109375 20.453125 19.1875 8.296875 
z
" id="DejaVuSans-50"/>
      </defs>
      <g transform="translate(460.979763 662.996875)scale(0.2 -0.2)">
       <use xlink:href="#DejaVuSans-50"/>
      </g>
     </g>
    </g>
    <g id="xtick_4">
     <g id="line2d_4">
      <g>
       <use style="stroke:#000000;stroke-width:0.8;" x="609.363631" xlink:href="#mdee997ad01" y="640.8"/>
      </g>
     </g>
     <g id="text_4">
      <!-- 3 -->
      <defs>
       <path d="M 40.578125 39.3125 
Q 47.65625 37.796875 51.625 33 
Q 55.609375 28.21875 55.609375 21.1875 
Q 55.609375 10.40625 48.1875 4.484375 
Q 40.765625 -1.421875 27.09375 -1.421875 
Q 22.515625 -1.421875 17.65625 -0.515625 
Q 12.796875 0.390625 7.625 2.203125 
L 7.625 11.71875 
Q 11.71875 9.328125 16.59375 8.109375 
Q 21.484375 6.890625 26.8125 6.890625 
Q 36.078125 6.890625 40.9375 10.546875 
Q 45.796875 14.203125 45.796875 21.1875 
Q 45.796875 27.640625 41.28125 31.265625 
Q 36.765625 34.90625 28.71875 34.90625 
L 20.21875 34.90625 
L 20.21875 43.015625 
L 29.109375 43.015625 
Q 36.375 43.015625 40.234375 45.921875 
Q 44.09375 48.828125 44.09375 54.296875 
Q 44.09375 59.90625 40.109375 62.90625 
Q 36.140625 65.921875 28.71875 65.921875 
Q 24.65625 65.921875 20.015625 65.03125 
Q 15.375 64.15625 9.8125 62.3125 
L 9.8125 71.09375 
Q 15.4375 72.65625 20.34375 73.4375 
Q 25.25 74.21875 29.59375 74.21875 
Q 40.828125 74.21875 47.359375 69.109375 
Q 53.90625 64.015625 53.90625 55.328125 
Q 53.90625 49.265625 50.4375 45.09375 
Q 46.96875 40.921875 40.578125 39.3125 
z
" id="DejaVuSans-51"/>
      </defs>
      <g transform="translate(603.001131 662.996875)scale(0.2 -0.2)">
       <use xlink:href="#DejaVuSans-51"/>
      </g>
     </g>
    </g>
    <g id="xtick_5">
     <g id="line2d_5">
      <g>
       <use style="stroke:#000000;stroke-width:0.8;" x="751.385" xlink:href="#mdee997ad01" y="640.8"/>
      </g>
     </g>
     <g id="text_5">
      <!-- 4 -->
      <defs>
       <path d="M 37.796875 64.3125 
L 12.890625 25.390625 
L 37.796875 25.390625 
z
M 35.203125 72.90625 
L 47.609375 72.90625 
L 47.609375 25.390625 
L 58.015625 25.390625 
L 58.015625 17.1875 
L 47.609375 17.1875 
L 47.609375 0 
L 37.796875 0 
L 37.796875 17.1875 
L 4.890625 17.1875 
L 4.890625 26.703125 
z
" id="DejaVuSans-52"/>
      </defs>
      <g transform="translate(745.0225 662.996875)scale(0.2 -0.2)">
       <use xlink:href="#DejaVuSans-52"/>
      </g>
     </g>
    </g>
    <g id="xtick_6">
     <g id="line2d_6">
      <g>
       <use style="stroke:#000000;stroke-width:0.8;" x="893.406368" xlink:href="#mdee997ad01" y="640.8"/>
      </g>
     </g>
     <g id="text_6">
      <!-- 5 -->
      <defs>
       <path d="M 10.796875 72.90625 
L 49.515625 72.90625 
L 49.515625 64.59375 
L 19.828125 64.59375 
L 19.828125 46.734375 
Q 21.96875 47.46875 24.109375 47.828125 
Q 26.265625 48.1875 28.421875 48.1875 
Q 40.625 48.1875 47.75 41.5 
Q 54.890625 34.8125 54.890625 23.390625 
Q 54.890625 11.625 47.5625 5.09375 
Q 40.234375 -1.421875 26.90625 -1.421875 
Q 22.3125 -1.421875 17.546875 -0.640625 
Q 12.796875 0.140625 7.71875 1.703125 
L 7.71875 11.625 
Q 12.109375 9.234375 16.796875 8.0625 
Q 21.484375 6.890625 26.703125 6.890625 
Q 35.15625 6.890625 40.078125 11.328125 
Q 45.015625 15.765625 45.015625 23.390625 
Q 45.015625 31 40.078125 35.4375 
Q 35.15625 39.890625 26.703125 39.890625 
Q 22.75 39.890625 18.8125 39.015625 
Q 14.890625 38.140625 10.796875 36.28125 
z
" id="DejaVuSans-53"/>
      </defs>
      <g transform="translate(887.043868 662.996875)scale(0.2 -0.2)">
       <use xlink:href="#DejaVuSans-53"/>
      </g>
     </g>
    </g>
   </g>
   <g id="matplotlib.axis_2">
    <g id="ytick_1">
     <g id="line2d_7">
      <defs>
       <path d="M 0 0 
L -3.5 0 
" id="m5ec3a1c5de" style="stroke:#000000;stroke-width:0.8;"/>
      </defs>
      <g>
       <use style="stroke:#000000;stroke-width:0.8;" x="135" xlink:href="#m5ec3a1c5de" y="640.8"/>
      </g>
     </g>
     <g id="text_7">
      <!-- 0.00 -->
      <defs>
       <path d="M 10.6875 12.40625 
L 21 12.40625 
L 21 0 
L 10.6875 0 
z
" id="DejaVuSans-46"/>
      </defs>
      <g transform="translate(83.46875 648.398438)scale(0.2 -0.2)">
       <use xlink:href="#DejaVuSans-48"/>
       <use x="63.623047" xlink:href="#DejaVuSans-46"/>
       <use x="95.410156" xlink:href="#DejaVuSans-48"/>
       <use x="159.033203" xlink:href="#DejaVuSans-48"/>
      </g>
     </g>
    </g>
    <g id="ytick_2">
     <g id="line2d_8">
      <g>
       <use style="stroke:#000000;stroke-width:0.8;" x="135" xlink:href="#m5ec3a1c5de" y="576.649281"/>
      </g>
     </g>
     <g id="text_8">
      <!-- 0.25 -->
      <g transform="translate(83.46875 584.247719)scale(0.2 -0.2)">
       <use xlink:href="#DejaVuSans-48"/>
       <use x="63.623047" xlink:href="#DejaVuSans-46"/>
       <use x="95.410156" xlink:href="#DejaVuSans-50"/>
       <use x="159.033203" xlink:href="#DejaVuSans-53"/>
      </g>
     </g>
    </g>
    <g id="ytick_3">
     <g id="line2d_9">
      <g>
       <use style="stroke:#000000;stroke-width:0.8;" x="135" xlink:href="#m5ec3a1c5de" y="512.498563"/>
      </g>
     </g>
     <g id="text_9">
      <!-- 0.50 -->
      <g transform="translate(83.46875 520.097)scale(0.2 -0.2)">
       <use xlink:href="#DejaVuSans-48"/>
       <use x="63.623047" xlink:href="#DejaVuSans-46"/>
       <use x="95.410156" xlink:href="#DejaVuSans-53"/>
       <use x="159.033203" xlink:href="#DejaVuSans-48"/>
      </g>
     </g>
    </g>
    <g id="ytick_4">
     <g id="line2d_10">
      <g>
       <use style="stroke:#000000;stroke-width:0.8;" x="135" xlink:href="#m5ec3a1c5de" y="448.347844"/>
      </g>
     </g>
     <g id="text_10">
      <!-- 0.75 -->
      <defs>
       <path d="M 8.203125 72.90625 
L 55.078125 72.90625 
L 55.078125 68.703125 
L 28.609375 0 
L 18.3125 0 
L 43.21875 64.59375 
L 8.203125 64.59375 
z
" id="DejaVuSans-55"/>
      </defs>
      <g transform="translate(83.46875 455.946282)scale(0.2 -0.2)">
       <use xlink:href="#DejaVuSans-48"/>
       <use x="63.623047" xlink:href="#DejaVuSans-46"/>
       <use x="95.410156" xlink:href="#DejaVuSans-55"/>
       <use x="159.033203" xlink:href="#DejaVuSans-53"/>
      </g>
     </g>
    </g>
    <g id="ytick_5">
     <g id="line2d_11">
      <g>
       <use style="stroke:#000000;stroke-width:0.8;" x="135" xlink:href="#m5ec3a1c5de" y="384.197126"/>
      </g>
     </g>
     <g id="text_11">
      <!-- 1.00 -->
      <g transform="translate(83.46875 391.795563)scale(0.2 -0.2)">
       <use xlink:href="#DejaVuSans-49"/>
       <use x="63.623047" xlink:href="#DejaVuSans-46"/>
       <use x="95.410156" xlink:href="#DejaVuSans-48"/>
       <use x="159.033203" xlink:href="#DejaVuSans-48"/>
      </g>
     </g>
    </g>
    <g id="ytick_6">
     <g id="line2d_12">
      <g>
       <use style="stroke:#000000;stroke-width:0.8;" x="135" xlink:href="#m5ec3a1c5de" y="320.046407"/>
      </g>
     </g>
     <g id="text_12">
      <!-- 1.25 -->
      <g transform="translate(83.46875 327.644845)scale(0.2 -0.2)">
       <use xlink:href="#DejaVuSans-49"/>
       <use x="63.623047" xlink:href="#DejaVuSans-46"/>
       <use x="95.410156" xlink:href="#DejaVuSans-50"/>
       <use x="159.033203" xlink:href="#DejaVuSans-53"/>
      </g>
     </g>
    </g>
    <g id="ytick_7">
     <g id="line2d_13">
      <g>
       <use style="stroke:#000000;stroke-width:0.8;" x="135" xlink:href="#m5ec3a1c5de" y="255.895688"/>
      </g>
     </g>
     <g id="text_13">
      <!-- 1.50 -->
      <g transform="translate(83.46875 263.494126)scale(0.2 -0.2)">
       <use xlink:href="#DejaVuSans-49"/>
       <use x="63.623047" xlink:href="#DejaVuSans-46"/>
       <use x="95.410156" xlink:href="#DejaVuSans-53"/>
       <use x="159.033203" xlink:href="#DejaVuSans-48"/>
      </g>
     </g>
    </g>
    <g id="ytick_8">
     <g id="line2d_14">
      <g>
       <use style="stroke:#000000;stroke-width:0.8;" x="135" xlink:href="#m5ec3a1c5de" y="191.74497"/>
      </g>
     </g>
     <g id="text_14">
      <!-- 1.75 -->
      <g transform="translate(83.46875 199.343407)scale(0.2 -0.2)">
       <use xlink:href="#DejaVuSans-49"/>
       <use x="63.623047" xlink:href="#DejaVuSans-46"/>
       <use x="95.410156" xlink:href="#DejaVuSans-55"/>
       <use x="159.033203" xlink:href="#DejaVuSans-53"/>
      </g>
     </g>
    </g>
    <g id="ytick_9">
     <g id="line2d_15">
      <g>
       <use style="stroke:#000000;stroke-width:0.8;" x="135" xlink:href="#m5ec3a1c5de" y="127.594251"/>
      </g>
     </g>
     <g id="text_15">
      <!-- 2.00 -->
      <g transform="translate(83.46875 135.192689)scale(0.2 -0.2)">
       <use xlink:href="#DejaVuSans-50"/>
       <use x="63.623047" xlink:href="#DejaVuSans-46"/>
       <use x="95.410156" xlink:href="#DejaVuSans-48"/>
       <use x="159.033203" xlink:href="#DejaVuSans-48"/>
      </g>
     </g>
    </g>
   </g>
   <g id="line2d_16">
    <path clip-path="url(#pe2cb521333)" d="M 173.045455 640.780663 
L 179.036865 640.724907 
L 185.028275 640.554272 
L 191.019685 640.208756 
L 203.002505 639.399402 
L 208.993916 639.304285 
L 220.976736 639.319694 
L 226.968146 639.281806 
L 238.950966 639.543818 
L 244.942377 639.398078 
L 256.925197 638.253633 
L 262.916607 638.202269 
L 268.908017 638.802911 
L 274.899427 639.637216 
L 280.890838 640.211181 
L 286.882248 640.267143 
L 292.873658 639.685078 
L 298.865068 638.424881 
L 304.856478 636.756816 
L 310.847888 635.351807 
L 316.839298 634.780018 
L 322.830709 634.873982 
L 328.822119 634.827456 
L 334.813529 633.851469 
L 340.804939 631.589986 
L 346.796349 628.206935 
L 352.787759 624.311187 
L 358.77917 620.835665 
L 364.77058 618.945022 
L 370.76199 619.425003 
L 376.7534 621.637702 
L 382.74481 623.477892 
L 388.73622 622.796105 
L 394.727631 618.914189 
L 400.719041 612.895794 
L 406.710451 606.521911 
L 412.701861 600.898364 
L 418.693271 595.912838 
L 424.684681 591.119821 
L 430.676092 586.679093 
L 436.667502 582.534987 
L 442.658912 577.293483 
L 448.650322 569.321273 
L 454.641732 558.517527 
L 460.633142 546.025675 
L 466.624553 533.074896 
L 472.615963 520.655604 
L 478.607373 508.85507 
L 484.598783 495.805431 
L 490.590193 477.820427 
L 496.581603 450.056396 
L 502.573014 406.697108 
L 508.564424 344.043721 
L 514.555834 270.150754 
L 520.547244 211.509739 
L 526.538654 198.747022 
L 532.530064 238.872439 
L 544.512885 379.988627 
L 550.504295 436.382432 
L 556.495705 476.476368 
L 562.487115 502.987545 
L 568.478525 519.410572 
L 574.469936 530.244624 
L 580.461346 539.927992 
L 586.452756 550.82411 
L 592.444166 562.915329 
L 598.435576 574.488574 
L 604.426986 583.021968 
L 610.418397 587.528917 
L 616.409807 590.548717 
L 622.401217 596.124976 
L 628.392627 605.365462 
L 634.384037 615.31677 
L 640.375447 622.476437 
L 646.366858 626.108619 
L 652.358268 627.75124 
L 658.349678 628.688163 
L 664.341088 628.934487 
L 670.332498 628.442312 
L 676.323908 628.138148 
L 682.315319 629.033741 
L 688.306729 630.900124 
L 694.298139 632.545303 
L 700.289549 633.058527 
L 706.280959 632.449976 
L 712.272369 631.502507 
L 718.26378 631.159487 
L 724.25519 631.762393 
L 730.2466 632.954735 
L 736.23801 634.357205 
L 748.22083 637.377152 
L 754.212241 638.381696 
L 760.203651 638.581104 
L 766.195061 638.008001 
L 772.186471 636.874968 
L 778.177881 635.556449 
L 784.169291 634.681507 
L 790.160702 634.658107 
L 802.143522 635.787634 
L 808.134932 636.46157 
L 814.126342 637.453268 
L 820.117752 638.647393 
L 826.109162 639.60428 
L 832.100573 639.999196 
L 838.091983 639.867154 
L 844.083393 639.547843 
L 850.074803 639.446613 
L 856.066213 639.716398 
L 868.049034 640.521037 
L 874.040444 640.669133 
L 880.031854 640.611777 
L 886.023264 640.350677 
L 898.006084 639.548782 
L 903.997495 639.47383 
L 909.988905 639.767742 
L 921.971725 640.554592 
L 927.963135 640.724934 
L 933.954545 640.780665 
L 933.954545 640.780665 
" style="fill:none;stroke:#1f77b4;stroke-linecap:square;stroke-width:1.5;"/>
   </g>
   <g id="patch_53">
    <path d="M 135 640.8 
L 135 86.4 
" style="fill:none;stroke:#000000;stroke-linecap:square;stroke-linejoin:miter;stroke-width:0.8;"/>
   </g>
   <g id="patch_54">
    <path d="M 972 640.8 
L 972 86.4 
" style="fill:none;stroke:#000000;stroke-linecap:square;stroke-linejoin:miter;stroke-width:0.8;"/>
   </g>
   <g id="patch_55">
    <path d="M 135 640.8 
L 972 640.8 
" style="fill:none;stroke:#000000;stroke-linecap:square;stroke-linejoin:miter;stroke-width:0.8;"/>
   </g>
   <g id="patch_56">
    <path d="M 135 86.4 
L 972 86.4 
" style="fill:none;stroke:#000000;stroke-linecap:square;stroke-linejoin:miter;stroke-width:0.8;"/>
   </g>
  </g>
 </g>
 <defs>
  <clipPath id="pe2cb521333">
   <rect height="554.4" width="837" x="135" y="86.4"/>
  </clipPath>
 </defs>
</svg>
