<?xml version="1.0" encoding="utf-8" standalone="no"?>
<!DOCTYPE svg PUBLIC "-//W3C//DTD SVG 1.1//EN"
  "http://www.w3.org/Graphics/SVG/1.1/DTD/svg11.dtd">
<!-- Created with matplotlib (https://matplotlib.org/) -->
<svg height="720pt" version="1.1" viewBox="0 0 1080 720" width="1080pt" xmlns="http://www.w3.org/2000/svg" xmlns:xlink="http://www.w3.org/1999/xlink">
 <defs>
  <style type="text/css">
*{stroke-linecap:butt;stroke-linejoin:round;}
  </style>
 </defs>
 <g id="figure_1">
  <g id="patch_1">
   <path d="M 0 720 
L 1080 720 
L 1080 0 
L 0 0 
z
" style="fill:#ffffff;"/>
  </g>
  <g id="axes_1">
   <g id="patch_2">
    <path d="M 135 640.8 
L 972 640.8 
L 972 86.4 
L 135 86.4 
z
" style="fill:#ffffff;"/>
   </g>
   <g id="patch_3">
    <path clip-path="url(#p9bf9007106)" d="M 223.080818 640.8 
L 239.601777 640.8 
L 239.601777 112.8 
L 223.080818 112.8 
z
" style="fill:#1f77b4;opacity:0.4;"/>
   </g>
   <g id="patch_4">
    <path clip-path="url(#p9bf9007106)" d="M 239.601777 640.8 
L 256.122737 640.8 
L 256.122737 251.747368 
L 239.601777 251.747368 
z
" style="fill:#1f77b4;opacity:0.4;"/>
   </g>
   <g id="patch_5">
    <path clip-path="url(#p9bf9007106)" d="M 256.122737 640.8 
L 272.643696 640.8 
L 272.643696 347.747368 
L 256.122737 347.747368 
z
" style="fill:#1f77b4;opacity:0.4;"/>
   </g>
   <g id="patch_6">
    <path clip-path="url(#p9bf9007106)" d="M 272.643696 640.8 
L 289.164655 640.8 
L 289.164655 403.326316 
L 272.643696 403.326316 
z
" style="fill:#1f77b4;opacity:0.4;"/>
   </g>
   <g id="patch_7">
    <path clip-path="url(#p9bf9007106)" d="M 289.164655 640.8 
L 305.685614 640.8 
L 305.685614 428.589474 
L 289.164655 428.589474 
z
" style="fill:#1f77b4;opacity:0.4;"/>
   </g>
   <g id="patch_8">
    <path clip-path="url(#p9bf9007106)" d="M 305.685614 640.8 
L 322.206573 640.8 
L 322.206573 469.010526 
L 305.685614 469.010526 
z
" style="fill:#1f77b4;opacity:0.4;"/>
   </g>
   <g id="patch_9">
    <path clip-path="url(#p9bf9007106)" d="M 322.206573 640.8 
L 338.727532 640.8 
L 338.727532 486.694737 
L 322.206573 486.694737 
z
" style="fill:#1f77b4;opacity:0.4;"/>
   </g>
   <g id="patch_10">
    <path clip-path="url(#p9bf9007106)" d="M 338.727532 640.8 
L 355.248491 640.8 
L 355.248491 559.957895 
L 338.727532 559.957895 
z
" style="fill:#1f77b4;opacity:0.4;"/>
   </g>
   <g id="patch_11">
    <path clip-path="url(#p9bf9007106)" d="M 355.248491 640.8 
L 371.76945 640.8 
L 371.76945 542.273684 
L 355.248491 542.273684 
z
" style="fill:#1f77b4;opacity:0.4;"/>
   </g>
   <g id="patch_12">
    <path clip-path="url(#p9bf9007106)" d="M 371.76945 640.8 
L 388.290409 640.8 
L 388.290409 557.431579 
L 371.76945 557.431579 
z
" style="fill:#1f77b4;opacity:0.4;"/>
   </g>
   <g id="patch_13">
    <path clip-path="url(#p9bf9007106)" d="M 388.290409 640.8 
L 404.811368 640.8 
L 404.811368 585.221053 
L 388.290409 585.221053 
z
" style="fill:#1f77b4;opacity:0.4;"/>
   </g>
   <g id="patch_14">
    <path clip-path="url(#p9bf9007106)" d="M 404.811368 640.8 
L 421.332327 640.8 
L 421.332327 582.694737 
L 404.811368 582.694737 
z
" style="fill:#1f77b4;opacity:0.4;"/>
   </g>
   <g id="patch_15">
    <path clip-path="url(#p9bf9007106)" d="M 421.332327 640.8 
L 437.853286 640.8 
L 437.853286 613.010526 
L 421.332327 613.010526 
z
" style="fill:#1f77b4;opacity:0.4;"/>
   </g>
   <g id="patch_16">
    <path clip-path="url(#p9bf9007106)" d="M 437.853286 640.8 
L 454.374246 640.8 
L 454.374246 623.115789 
L 437.853286 623.115789 
z
" style="fill:#1f77b4;opacity:0.4;"/>
   </g>
   <g id="patch_17">
    <path clip-path="url(#p9bf9007106)" d="M 454.374246 640.8 
L 470.895205 640.8 
L 470.895205 620.589474 
L 454.374246 620.589474 
z
" style="fill:#1f77b4;opacity:0.4;"/>
   </g>
   <g id="patch_18">
    <path clip-path="url(#p9bf9007106)" d="M 470.895205 640.8 
L 487.416164 640.8 
L 487.416164 625.642105 
L 470.895205 625.642105 
z
" style="fill:#1f77b4;opacity:0.4;"/>
   </g>
   <g id="patch_19">
    <path clip-path="url(#p9bf9007106)" d="M 487.416164 640.8 
L 503.937123 640.8 
L 503.937123 630.694737 
L 487.416164 630.694737 
z
" style="fill:#1f77b4;opacity:0.4;"/>
   </g>
   <g id="patch_20">
    <path clip-path="url(#p9bf9007106)" d="M 503.937123 640.8 
L 520.458082 640.8 
L 520.458082 625.642105 
L 503.937123 625.642105 
z
" style="fill:#1f77b4;opacity:0.4;"/>
   </g>
   <g id="patch_21">
    <path clip-path="url(#p9bf9007106)" d="M 520.458082 640.8 
L 536.979041 640.8 
L 536.979041 628.168421 
L 520.458082 628.168421 
z
" style="fill:#1f77b4;opacity:0.4;"/>
   </g>
   <g id="patch_22">
    <path clip-path="url(#p9bf9007106)" d="M 536.979041 640.8 
L 553.5 640.8 
L 553.5 630.694737 
L 536.979041 630.694737 
z
" style="fill:#1f77b4;opacity:0.4;"/>
   </g>
   <g id="patch_23">
    <path clip-path="url(#p9bf9007106)" d="M 553.5 640.8 
L 570.020959 640.8 
L 570.020959 635.747368 
L 553.5 635.747368 
z
" style="fill:#1f77b4;opacity:0.4;"/>
   </g>
   <g id="patch_24">
    <path clip-path="url(#p9bf9007106)" d="M 570.020959 640.8 
L 586.541918 640.8 
L 586.541918 638.273684 
L 570.020959 638.273684 
z
" style="fill:#1f77b4;opacity:0.4;"/>
   </g>
   <g id="patch_25">
    <path clip-path="url(#p9bf9007106)" d="M 586.541918 640.8 
L 603.062877 640.8 
L 603.062877 638.273684 
L 586.541918 638.273684 
z
" style="fill:#1f77b4;opacity:0.4;"/>
   </g>
   <g id="patch_26">
    <path clip-path="url(#p9bf9007106)" d="M 603.062877 640.8 
L 619.583836 640.8 
L 619.583836 638.273684 
L 603.062877 638.273684 
z
" style="fill:#1f77b4;opacity:0.4;"/>
   </g>
   <g id="patch_27">
    <path clip-path="url(#p9bf9007106)" d="M 619.583836 640.8 
L 636.104795 640.8 
L 636.104795 635.747368 
L 619.583836 635.747368 
z
" style="fill:#1f77b4;opacity:0.4;"/>
   </g>
   <g id="patch_28">
    <path clip-path="url(#p9bf9007106)" d="M 636.104795 640.8 
L 652.625754 640.8 
L 652.625754 640.8 
L 636.104795 640.8 
z
" style="fill:#1f77b4;opacity:0.4;"/>
   </g>
   <g id="patch_29">
    <path clip-path="url(#p9bf9007106)" d="M 652.625754 640.8 
L 669.146714 640.8 
L 669.146714 633.221053 
L 652.625754 633.221053 
z
" style="fill:#1f77b4;opacity:0.4;"/>
   </g>
   <g id="patch_30">
    <path clip-path="url(#p9bf9007106)" d="M 669.146714 640.8 
L 685.667673 640.8 
L 685.667673 635.747368 
L 669.146714 635.747368 
z
" style="fill:#1f77b4;opacity:0.4;"/>
   </g>
   <g id="patch_31">
    <path clip-path="url(#p9bf9007106)" d="M 685.667673 640.8 
L 702.188632 640.8 
L 702.188632 640.8 
L 685.667673 640.8 
z
" style="fill:#1f77b4;opacity:0.4;"/>
   </g>
   <g id="patch_32">
    <path clip-path="url(#p9bf9007106)" d="M 702.188632 640.8 
L 718.709591 640.8 
L 718.709591 640.8 
L 702.188632 640.8 
z
" style="fill:#1f77b4;opacity:0.4;"/>
   </g>
   <g id="patch_33">
    <path clip-path="url(#p9bf9007106)" d="M 718.709591 640.8 
L 735.23055 640.8 
L 735.23055 640.8 
L 718.709591 640.8 
z
" style="fill:#1f77b4;opacity:0.4;"/>
   </g>
   <g id="patch_34">
    <path clip-path="url(#p9bf9007106)" d="M 735.23055 640.8 
L 751.751509 640.8 
L 751.751509 638.273684 
L 735.23055 638.273684 
z
" style="fill:#1f77b4;opacity:0.4;"/>
   </g>
   <g id="patch_35">
    <path clip-path="url(#p9bf9007106)" d="M 751.751509 640.8 
L 768.272468 640.8 
L 768.272468 640.8 
L 751.751509 640.8 
z
" style="fill:#1f77b4;opacity:0.4;"/>
   </g>
   <g id="patch_36">
    <path clip-path="url(#p9bf9007106)" d="M 768.272468 640.8 
L 784.793427 640.8 
L 784.793427 640.8 
L 768.272468 640.8 
z
" style="fill:#1f77b4;opacity:0.4;"/>
   </g>
   <g id="patch_37">
    <path clip-path="url(#p9bf9007106)" d="M 784.793427 640.8 
L 801.314386 640.8 
L 801.314386 640.8 
L 784.793427 640.8 
z
" style="fill:#1f77b4;opacity:0.4;"/>
   </g>
   <g id="patch_38">
    <path clip-path="url(#p9bf9007106)" d="M 801.314386 640.8 
L 817.835345 640.8 
L 817.835345 640.8 
L 801.314386 640.8 
z
" style="fill:#1f77b4;opacity:0.4;"/>
   </g>
   <g id="patch_39">
    <path clip-path="url(#p9bf9007106)" d="M 817.835345 640.8 
L 834.356304 640.8 
L 834.356304 640.8 
L 817.835345 640.8 
z
" style="fill:#1f77b4;opacity:0.4;"/>
   </g>
   <g id="patch_40">
    <path clip-path="url(#p9bf9007106)" d="M 834.356304 640.8 
L 850.877263 640.8 
L 850.877263 640.8 
L 834.356304 640.8 
z
" style="fill:#1f77b4;opacity:0.4;"/>
   </g>
   <g id="patch_41">
    <path clip-path="url(#p9bf9007106)" d="M 850.877263 640.8 
L 867.398223 640.8 
L 867.398223 640.8 
L 850.877263 640.8 
z
" style="fill:#1f77b4;opacity:0.4;"/>
   </g>
   <g id="patch_42">
    <path clip-path="url(#p9bf9007106)" d="M 867.398223 640.8 
L 883.919182 640.8 
L 883.919182 638.273684 
L 867.398223 638.273684 
z
" style="fill:#1f77b4;opacity:0.4;"/>
   </g>
   <g id="matplotlib.axis_1">
    <g id="xtick_1">
     <g id="line2d_1">
      <defs>
       <path d="M 0 0 
L 0 3.5 
" id="m41c21c931f" style="stroke:#000000;stroke-width:0.8;"/>
      </defs>
      <g>
       <use style="stroke:#000000;stroke-width:0.8;" x="223.073642" xlink:href="#m41c21c931f" y="640.8"/>
      </g>
     </g>
     <g id="text_1">
      <!-- 0.00 -->
      <defs>
       <path d="M 31.78125 66.40625 
Q 24.171875 66.40625 20.328125 58.90625 
Q 16.5 51.421875 16.5 36.375 
Q 16.5 21.390625 20.328125 13.890625 
Q 24.171875 6.390625 31.78125 6.390625 
Q 39.453125 6.390625 43.28125 13.890625 
Q 47.125 21.390625 47.125 36.375 
Q 47.125 51.421875 43.28125 58.90625 
Q 39.453125 66.40625 31.78125 66.40625 
z
M 31.78125 74.21875 
Q 44.046875 74.21875 50.515625 64.515625 
Q 56.984375 54.828125 56.984375 36.375 
Q 56.984375 17.96875 50.515625 8.265625 
Q 44.046875 -1.421875 31.78125 -1.421875 
Q 19.53125 -1.421875 13.0625 8.265625 
Q 6.59375 17.96875 6.59375 36.375 
Q 6.59375 54.828125 13.0625 64.515625 
Q 19.53125 74.21875 31.78125 74.21875 
z
" id="DejaVuSans-48"/>
       <path d="M 10.6875 12.40625 
L 21 12.40625 
L 21 0 
L 10.6875 0 
z
" id="DejaVuSans-46"/>
      </defs>
      <g transform="translate(200.808017 662.996875)scale(0.2 -0.2)">
       <use xlink:href="#DejaVuSans-48"/>
       <use x="63.623047" xlink:href="#DejaVuSans-46"/>
       <use x="95.410156" xlink:href="#DejaVuSans-48"/>
       <use x="159.033203" xlink:href="#DejaVuSans-48"/>
      </g>
     </g>
    </g>
    <g id="xtick_2">
     <g id="line2d_2">
      <g>
       <use style="stroke:#000000;stroke-width:0.8;" x="351.23504" xlink:href="#m41c21c931f" y="640.8"/>
      </g>
     </g>
     <g id="text_2">
      <!-- 0.05 -->
      <defs>
       <path d="M 10.796875 72.90625 
L 49.515625 72.90625 
L 49.515625 64.59375 
L 19.828125 64.59375 
L 19.828125 46.734375 
Q 21.96875 47.46875 24.109375 47.828125 
Q 26.265625 48.1875 28.421875 48.1875 
Q 40.625 48.1875 47.75 41.5 
Q 54.890625 34.8125 54.890625 23.390625 
Q 54.890625 11.625 47.5625 5.09375 
Q 40.234375 -1.421875 26.90625 -1.421875 
Q 22.3125 -1.421875 17.546875 -0.640625 
Q 12.796875 0.140625 7.71875 1.703125 
L 7.71875 11.625 
Q 12.109375 9.234375 16.796875 8.0625 
Q 21.484375 6.890625 26.703125 6.890625 
Q 35.15625 6.890625 40.078125 11.328125 
Q 45.015625 15.765625 45.015625 23.390625 
Q 45.015625 31 40.078125 35.4375 
Q 35.15625 39.890625 26.703125 39.890625 
Q 22.75 39.890625 18.8125 39.015625 
Q 14.890625 38.140625 10.796875 36.28125 
z
" id="DejaVuSans-53"/>
      </defs>
      <g transform="translate(328.969415 662.996875)scale(0.2 -0.2)">
       <use xlink:href="#DejaVuSans-48"/>
       <use x="63.623047" xlink:href="#DejaVuSans-46"/>
       <use x="95.410156" xlink:href="#DejaVuSans-48"/>
       <use x="159.033203" xlink:href="#DejaVuSans-53"/>
      </g>
     </g>
    </g>
    <g id="xtick_3">
     <g id="line2d_3">
      <g>
       <use style="stroke:#000000;stroke-width:0.8;" x="479.396439" xlink:href="#m41c21c931f" y="640.8"/>
      </g>
     </g>
     <g id="text_3">
      <!-- 0.10 -->
      <defs>
       <path d="M 12.40625 8.296875 
L 28.515625 8.296875 
L 28.515625 63.921875 
L 10.984375 60.40625 
L 10.984375 69.390625 
L 28.421875 72.90625 
L 38.28125 72.90625 
L 38.28125 8.296875 
L 54.390625 8.296875 
L 54.390625 0 
L 12.40625 0 
z
" id="DejaVuSans-49"/>
      </defs>
      <g transform="translate(457.130814 662.996875)scale(0.2 -0.2)">
       <use xlink:href="#DejaVuSans-48"/>
       <use x="63.623047" xlink:href="#DejaVuSans-46"/>
       <use x="95.410156" xlink:href="#DejaVuSans-49"/>
       <use x="159.033203" xlink:href="#DejaVuSans-48"/>
      </g>
     </g>
    </g>
    <g id="xtick_4">
     <g id="line2d_4">
      <g>
       <use style="stroke:#000000;stroke-width:0.8;" x="607.557838" xlink:href="#m41c21c931f" y="640.8"/>
      </g>
     </g>
     <g id="text_4">
      <!-- 0.15 -->
      <g transform="translate(585.292213 662.996875)scale(0.2 -0.2)">
       <use xlink:href="#DejaVuSans-48"/>
       <use x="63.623047" xlink:href="#DejaVuSans-46"/>
       <use x="95.410156" xlink:href="#DejaVuSans-49"/>
       <use x="159.033203" xlink:href="#DejaVuSans-53"/>
      </g>
     </g>
    </g>
    <g id="xtick_5">
     <g id="line2d_5">
      <g>
       <use style="stroke:#000000;stroke-width:0.8;" x="735.719237" xlink:href="#m41c21c931f" y="640.8"/>
      </g>
     </g>
     <g id="text_5">
      <!-- 0.20 -->
      <defs>
       <path d="M 19.1875 8.296875 
L 53.609375 8.296875 
L 53.609375 0 
L 7.328125 0 
L 7.328125 8.296875 
Q 12.9375 14.109375 22.625 23.890625 
Q 32.328125 33.6875 34.8125 36.53125 
Q 39.546875 41.84375 41.421875 45.53125 
Q 43.3125 49.21875 43.3125 52.78125 
Q 43.3125 58.59375 39.234375 62.25 
Q 35.15625 65.921875 28.609375 65.921875 
Q 23.96875 65.921875 18.8125 64.3125 
Q 13.671875 62.703125 7.8125 59.421875 
L 7.8125 69.390625 
Q 13.765625 71.78125 18.9375 73 
Q 24.125 74.21875 28.421875 74.21875 
Q 39.75 74.21875 46.484375 68.546875 
Q 53.21875 62.890625 53.21875 53.421875 
Q 53.21875 48.921875 51.53125 44.890625 
Q 49.859375 40.875 45.40625 35.40625 
Q 44.1875 33.984375 37.640625 27.21875 
Q 31.109375 20.453125 19.1875 8.296875 
z
" id="DejaVuSans-50"/>
      </defs>
      <g transform="translate(713.453612 662.996875)scale(0.2 -0.2)">
       <use xlink:href="#DejaVuSans-48"/>
       <use x="63.623047" xlink:href="#DejaVuSans-46"/>
       <use x="95.410156" xlink:href="#DejaVuSans-50"/>
       <use x="159.033203" xlink:href="#DejaVuSans-48"/>
      </g>
     </g>
    </g>
    <g id="xtick_6">
     <g id="line2d_6">
      <g>
       <use style="stroke:#000000;stroke-width:0.8;" x="863.880635" xlink:href="#m41c21c931f" y="640.8"/>
      </g>
     </g>
     <g id="text_6">
      <!-- 0.25 -->
      <g transform="translate(841.61501 662.996875)scale(0.2 -0.2)">
       <use xlink:href="#DejaVuSans-48"/>
       <use x="63.623047" xlink:href="#DejaVuSans-46"/>
       <use x="95.410156" xlink:href="#DejaVuSans-50"/>
       <use x="159.033203" xlink:href="#DejaVuSans-53"/>
      </g>
     </g>
    </g>
   </g>
   <g id="matplotlib.axis_2">
    <g id="ytick_1">
     <g id="line2d_7">
      <defs>
       <path d="M 0 0 
L -3.5 0 
" id="ma55d1fb0ee" style="stroke:#000000;stroke-width:0.8;"/>
      </defs>
      <g>
       <use style="stroke:#000000;stroke-width:0.8;" x="135" xlink:href="#ma55d1fb0ee" y="640.8"/>
      </g>
     </g>
     <g id="text_7">
      <!-- 0 -->
      <g transform="translate(115.275 648.398438)scale(0.2 -0.2)">
       <use xlink:href="#DejaVuSans-48"/>
      </g>
     </g>
    </g>
    <g id="ytick_2">
     <g id="line2d_8">
      <g>
       <use style="stroke:#000000;stroke-width:0.8;" x="135" xlink:href="#ma55d1fb0ee" y="559.384769"/>
      </g>
     </g>
     <g id="text_8">
      <!-- 5 -->
      <g transform="translate(115.275 566.983206)scale(0.2 -0.2)">
       <use xlink:href="#DejaVuSans-53"/>
      </g>
     </g>
    </g>
    <g id="ytick_3">
     <g id="line2d_9">
      <g>
       <use style="stroke:#000000;stroke-width:0.8;" x="135" xlink:href="#ma55d1fb0ee" y="477.969537"/>
      </g>
     </g>
     <g id="text_9">
      <!-- 10 -->
      <g transform="translate(102.55 485.567975)scale(0.2 -0.2)">
       <use xlink:href="#DejaVuSans-49"/>
       <use x="63.623047" xlink:href="#DejaVuSans-48"/>
      </g>
     </g>
    </g>
    <g id="ytick_4">
     <g id="line2d_10">
      <g>
       <use style="stroke:#000000;stroke-width:0.8;" x="135" xlink:href="#ma55d1fb0ee" y="396.554306"/>
      </g>
     </g>
     <g id="text_10">
      <!-- 15 -->
      <g transform="translate(102.55 404.152743)scale(0.2 -0.2)">
       <use xlink:href="#DejaVuSans-49"/>
       <use x="63.623047" xlink:href="#DejaVuSans-53"/>
      </g>
     </g>
    </g>
    <g id="ytick_5">
     <g id="line2d_11">
      <g>
       <use style="stroke:#000000;stroke-width:0.8;" x="135" xlink:href="#ma55d1fb0ee" y="315.139074"/>
      </g>
     </g>
     <g id="text_11">
      <!-- 20 -->
      <g transform="translate(102.55 322.737512)scale(0.2 -0.2)">
       <use xlink:href="#DejaVuSans-50"/>
       <use x="63.623047" xlink:href="#DejaVuSans-48"/>
      </g>
     </g>
    </g>
    <g id="ytick_6">
     <g id="line2d_12">
      <g>
       <use style="stroke:#000000;stroke-width:0.8;" x="135" xlink:href="#ma55d1fb0ee" y="233.723843"/>
      </g>
     </g>
     <g id="text_12">
      <!-- 25 -->
      <g transform="translate(102.55 241.32228)scale(0.2 -0.2)">
       <use xlink:href="#DejaVuSans-50"/>
       <use x="63.623047" xlink:href="#DejaVuSans-53"/>
      </g>
     </g>
    </g>
    <g id="ytick_7">
     <g id="line2d_13">
      <g>
       <use style="stroke:#000000;stroke-width:0.8;" x="135" xlink:href="#ma55d1fb0ee" y="152.308611"/>
      </g>
     </g>
     <g id="text_13">
      <!-- 30 -->
      <defs>
       <path d="M 40.578125 39.3125 
Q 47.65625 37.796875 51.625 33 
Q 55.609375 28.21875 55.609375 21.1875 
Q 55.609375 10.40625 48.1875 4.484375 
Q 40.765625 -1.421875 27.09375 -1.421875 
Q 22.515625 -1.421875 17.65625 -0.515625 
Q 12.796875 0.390625 7.625 2.203125 
L 7.625 11.71875 
Q 11.71875 9.328125 16.59375 8.109375 
Q 21.484375 6.890625 26.8125 6.890625 
Q 36.078125 6.890625 40.9375 10.546875 
Q 45.796875 14.203125 45.796875 21.1875 
Q 45.796875 27.640625 41.28125 31.265625 
Q 36.765625 34.90625 28.71875 34.90625 
L 20.21875 34.90625 
L 20.21875 43.015625 
L 29.109375 43.015625 
Q 36.375 43.015625 40.234375 45.921875 
Q 44.09375 48.828125 44.09375 54.296875 
Q 44.09375 59.90625 40.109375 62.90625 
Q 36.140625 65.921875 28.71875 65.921875 
Q 24.65625 65.921875 20.015625 65.03125 
Q 15.375 64.15625 9.8125 62.3125 
L 9.8125 71.09375 
Q 15.4375 72.65625 20.34375 73.4375 
Q 25.25 74.21875 29.59375 74.21875 
Q 40.828125 74.21875 47.359375 69.109375 
Q 53.90625 64.015625 53.90625 55.328125 
Q 53.90625 49.265625 50.4375 45.09375 
Q 46.96875 40.921875 40.578125 39.3125 
z
" id="DejaVuSans-51"/>
      </defs>
      <g transform="translate(102.55 159.907049)scale(0.2 -0.2)">
       <use xlink:href="#DejaVuSans-51"/>
       <use x="63.623047" xlink:href="#DejaVuSans-48"/>
      </g>
     </g>
    </g>
   </g>
   <g id="line2d_14">
    <path clip-path="url(#p9bf9007106)" d="M 173.045455 639.944425 
L 179.036865 638.263933 
L 185.028275 634.090278 
L 191.019685 624.985215 
L 197.011095 607.538722 
L 203.002505 578.221685 
L 208.993916 535.126599 
L 214.985326 479.936816 
L 220.976736 418.800613 
L 226.968146 361.031685 
L 232.959556 315.89423 
L 238.950966 289.182672 
L 244.942377 281.545781 
L 250.933787 289.272723 
L 256.925197 306.65833 
L 262.916607 328.37037 
L 268.908017 350.723381 
L 274.899427 371.748516 
L 280.890838 390.641159 
L 286.882248 407.228636 
L 292.873658 421.713223 
L 298.865068 434.566522 
L 304.856478 446.398929 
L 316.839298 469.30419 
L 322.830709 481.278169 
L 328.822119 493.905285 
L 334.813529 506.946788 
L 340.804939 519.655533 
L 346.796349 531.001288 
L 352.787759 540.183006 
L 358.77917 547.096257 
L 364.77058 552.393868 
L 370.76199 557.075037 
L 376.7534 561.902099 
L 388.73622 572.24036 
L 394.727631 577.067957 
L 400.719041 581.449065 
L 406.710451 585.669568 
L 412.701861 590.167726 
L 418.693271 595.19892 
L 430.676092 606.034582 
L 436.667502 610.872136 
L 442.658912 614.824047 
L 448.650322 617.867374 
L 454.641732 620.194725 
L 460.633142 622.02677 
L 466.624553 623.478279 
L 472.615963 624.561196 
L 478.607373 625.279188 
L 484.598783 625.702254 
L 502.573014 626.485791 
L 508.564424 626.930738 
L 514.555834 627.568743 
L 520.547244 628.40286 
L 550.504295 633.173665 
L 568.478525 635.995328 
L 574.469936 636.802286 
L 580.461346 637.431948 
L 586.452756 637.861479 
L 592.444166 638.094842 
L 598.435576 638.15116 
L 610.418397 637.903242 
L 622.401217 637.649427 
L 640.375447 637.616941 
L 646.366858 637.438085 
L 664.341088 636.589536 
L 670.332498 636.584079 
L 676.323908 636.832245 
L 682.315319 637.307876 
L 706.280959 639.827942 
L 712.272369 640.19193 
L 718.26378 640.370476 
L 724.25519 640.381999 
L 736.23801 640.08914 
L 748.22083 639.820257 
L 760.203651 639.966592 
L 784.169291 640.666169 
L 802.143522 640.790892 
L 844.083393 640.738976 
L 856.066213 640.547341 
L 880.031854 639.839476 
L 886.023264 639.820735 
L 898.006084 640.102863 
L 915.980315 640.634508 
L 927.963135 640.700146 
L 933.954545 640.533811 
L 933.954545 640.533811 
" style="fill:none;stroke:#1f77b4;stroke-linecap:square;stroke-width:1.5;"/>
   </g>
   <g id="patch_43">
    <path d="M 135 640.8 
L 135 86.4 
" style="fill:none;stroke:#000000;stroke-linecap:square;stroke-linejoin:miter;stroke-width:0.8;"/>
   </g>
   <g id="patch_44">
    <path d="M 972 640.8 
L 972 86.4 
" style="fill:none;stroke:#000000;stroke-linecap:square;stroke-linejoin:miter;stroke-width:0.8;"/>
   </g>
   <g id="patch_45">
    <path d="M 135 640.8 
L 972 640.8 
" style="fill:none;stroke:#000000;stroke-linecap:square;stroke-linejoin:miter;stroke-width:0.8;"/>
   </g>
   <g id="patch_46">
    <path d="M 135 86.4 
L 972 86.4 
" style="fill:none;stroke:#000000;stroke-linecap:square;stroke-linejoin:miter;stroke-width:0.8;"/>
   </g>
  </g>
 </g>
 <defs>
  <clipPath id="p9bf9007106">
   <rect height="554.4" width="837" x="135" y="86.4"/>
  </clipPath>
 </defs>
</svg>
