<?xml version="1.0" encoding="utf-8" standalone="no"?>
<!DOCTYPE svg PUBLIC "-//W3C//DTD SVG 1.1//EN"
  "http://www.w3.org/Graphics/SVG/1.1/DTD/svg11.dtd">
<!-- Created with matplotlib (https://matplotlib.org/) -->
<svg height="170.07874pt" version="1.1" viewBox="0 0 255.11811 170.07874" width="255.11811pt" xmlns="http://www.w3.org/2000/svg" xmlns:xlink="http://www.w3.org/1999/xlink">
 <defs>
  <style type="text/css">
*{stroke-linecap:butt;stroke-linejoin:round;}
  </style>
 </defs>
 <g id="figure_1">
  <g id="patch_1">
   <path d="M 0 170.07874 
L 255.11811 170.07874 
L 255.11811 0 
L 0 0 
z
" style="fill:#ffffff;"/>
  </g>
  <g id="axes_1">
   <g id="patch_2">
    <path d="M 52.13 126.44874 
L 208.83811 126.44874 
L 208.83811 11.52 
L 52.13 11.52 
z
" style="fill:#ffffff;"/>
   </g>
   <g id="PolyCollection_1">
    <defs>
     <path d="M 60.238992 -43.75972 
L 60.238992 -43.6408 
L 62.703731 -43.651601 
L 65.16847 -43.662401 
L 67.633209 -43.673202 
L 70.097948 -43.684002 
L 72.562687 -43.694802 
L 75.027426 -43.723587 
L 77.492165 -43.751959 
L 79.956904 -43.796724 
L 82.421643 -43.850882 
L 84.886382 -43.917056 
L 87.351121 -44.007531 
L 89.81586 -44.115814 
L 92.280599 -44.254539 
L 94.745339 -44.409002 
L 97.210078 -44.760535 
L 99.674817 -45.046566 
L 102.139556 -45.53417 
L 104.604295 -46.360901 
L 107.069034 -47.663904 
L 109.533773 -50.217138 
L 111.998512 -51.033545 
L 114.463251 -51.454617 
L 116.92799 -52.465677 
L 119.392729 -52.967855 
L 121.857468 -53.525107 
L 124.322207 -54.086341 
L 126.786947 -54.636638 
L 129.251686 -54.95328 
L 131.716425 -55.025113 
L 134.181164 -55.383392 
L 136.645903 -55.680798 
L 139.110642 -55.913807 
L 141.575381 -56.145974 
L 144.04012 -56.401064 
L 146.504859 -56.590119 
L 148.969598 -56.625576 
L 148.969598 -112.559731 
L 148.969598 -112.559731 
L 146.504859 -110.200721 
L 144.04012 -105.980322 
L 141.575381 -101.772627 
L 139.110642 -98.177194 
L 136.645903 -94.92232 
L 134.181164 -91.634034 
L 131.716425 -88.35311 
L 129.251686 -86.807597 
L 126.786947 -84.25907 
L 124.322207 -81.234883 
L 121.857468 -78.4481 
L 119.392729 -75.918615 
L 116.92799 -73.73482 
L 114.463251 -70.522434 
L 111.998512 -68.85903 
L 109.533773 -66.613723 
L 107.069034 -55.70738 
L 104.604295 -52.58873 
L 102.139556 -50.673152 
L 99.674817 -49.401617 
L 97.210078 -48.523707 
L 94.745339 -47.536279 
L 92.280599 -46.977009 
L 89.81586 -46.471648 
L 87.351121 -46.038751 
L 84.886382 -45.651286 
L 82.421643 -45.333432 
L 79.956904 -45.044435 
L 77.492165 -44.785374 
L 75.027426 -44.596273 
L 72.562687 -44.408318 
L 70.097948 -44.278598 
L 67.633209 -44.148878 
L 65.16847 -44.019159 
L 62.703731 -43.889439 
L 60.238992 -43.75972 
z
" id="m0cca172536" style="stroke:#6495ed;stroke-opacity:0.4;"/>
    </defs>
    <g clip-path="url(#p9fc4cc3efc)">
     <use style="fill:#6495ed;fill-opacity:0.4;stroke:#6495ed;stroke-opacity:0.4;" x="0" xlink:href="#m0cca172536" y="170.07874"/>
    </g>
   </g>
   <g id="PolyCollection_2">
    <defs>
     <path d="M 60.238992 -43.688291 
L 60.238992 -43.655049 
L 62.703731 -43.680099 
L 65.16847 -43.705148 
L 67.633209 -43.730197 
L 70.097948 -43.755246 
L 72.562687 -43.780296 
L 75.027426 -43.836241 
L 77.492165 -43.89153 
L 79.956904 -43.974399 
L 82.421643 -44.071666 
L 84.886382 -44.185147 
L 87.351121 -44.33508 
L 89.81586 -44.509288 
L 92.280599 -44.726565 
L 94.745339 -44.965771 
L 97.210078 -45.4655 
L 99.674817 -45.887156 
L 102.139556 -46.56049 
L 104.604295 -47.645786 
L 107.069034 -49.397658 
L 109.533773 -53.898884 
L 111.998512 -55.066967 
L 114.463251 -55.74963 
L 116.92799 -57.321274 
L 119.392729 -58.18792 
L 121.857468 -59.164493 
L 124.322207 -60.171822 
L 126.786947 -61.187237 
L 129.251686 -61.833149 
L 131.716425 -62.023363 
L 134.181164 -62.792063 
L 136.645903 -63.46242 
L 139.110642 -64.025348 
L 141.575381 -64.605374 
L 144.04012 -65.253198 
L 146.504859 -65.763429 
L 148.969598 -65.892502 
L 148.969598 -82.501619 
L 148.969598 -82.501619 
L 146.504859 -81.964628 
L 144.04012 -80.505423 
L 141.575381 -78.838945 
L 139.110642 -77.378932 
L 136.645903 -76.011403 
L 134.181164 -74.500115 
L 131.716425 -72.870449 
L 129.251686 -72.330909 
L 126.786947 -71.015373 
L 124.322207 -69.210575 
L 121.857468 -67.480785 
L 119.392729 -65.852778 
L 116.92799 -64.43003 
L 114.463251 -62.129134 
L 111.998512 -61.032121 
L 109.533773 -59.391202 
L 107.069034 -52.033306 
L 104.604295 -49.6667 
L 102.139556 -48.213687 
L 99.674817 -47.2828 
L 97.210078 -46.667883 
L 94.745339 -45.953638 
L 92.280599 -45.579513 
L 89.81586 -45.239681 
L 87.351121 -44.957963 
L 84.886382 -44.710396 
L 82.421643 -44.514969 
L 79.956904 -44.34203 
L 77.492165 -44.190851 
L 75.027426 -44.085446 
L 72.562687 -43.979748 
L 70.097948 -43.921457 
L 67.633209 -43.863166 
L 65.16847 -43.804874 
L 62.703731 -43.746583 
L 60.238992 -43.688291 
z
" id="m7aa151adee" style="stroke:#6495ed;stroke-opacity:0.6;"/>
    </defs>
    <g clip-path="url(#p9fc4cc3efc)">
     <use style="fill:#6495ed;fill-opacity:0.6;stroke:#6495ed;stroke-opacity:0.6;" x="0" xlink:href="#m7aa151adee" y="170.07874"/>
    </g>
   </g>
   <g id="PolyCollection_3">
    <defs>
     <path d="M 148.969598 -112.559731 
L 148.969598 -56.625576 
L 151.434337 -56.656428 
L 153.899076 -56.683255 
L 156.363815 -56.705925 
L 158.828554 -56.72481 
L 161.293294 -56.740398 
L 163.758033 -56.753042 
L 166.222772 -56.763222 
L 168.687511 -56.77129 
L 171.15225 -56.777676 
L 173.616989 -56.782744 
L 176.081728 -56.786728 
L 178.546467 -56.78987 
L 181.011206 -56.792331 
L 183.475945 -56.794248 
L 185.940684 -56.795743 
L 188.405423 -56.79692 
L 190.870162 -56.797844 
L 193.334901 -56.798569 
L 195.799641 -56.799139 
L 198.26438 -56.799588 
L 200.729119 -56.799941 
L 200.729119 -158.55874 
L 200.729119 -158.55874 
L 198.26438 -156.860527 
L 195.799641 -155.109186 
L 193.334901 -153.308565 
L 190.870162 -151.449966 
L 188.405423 -149.543969 
L 185.940684 -147.588987 
L 183.475945 -145.588807 
L 181.011206 -143.555928 
L 178.546467 -141.471815 
L 176.081728 -139.314077 
L 173.616989 -137.082878 
L 171.15225 -134.793045 
L 168.687511 -132.456801 
L 166.222772 -130.092598 
L 163.758033 -127.698457 
L 161.293294 -125.256067 
L 158.828554 -122.753109 
L 156.363815 -120.188292 
L 153.899076 -117.611297 
L 151.434337 -115.050967 
L 148.969598 -112.559731 
z
" id="m8bf3029633" style="stroke:#228b22;stroke-opacity:0.4;"/>
    </defs>
    <g clip-path="url(#p9fc4cc3efc)">
     <use style="fill:#228b22;fill-opacity:0.4;stroke:#228b22;stroke-opacity:0.4;" x="0" xlink:href="#m8bf3029633" y="170.07874"/>
    </g>
   </g>
   <g id="PolyCollection_4">
    <defs>
     <path d="M 148.969598 -82.501619 
L 148.969598 -65.892502 
L 151.434337 -66.012205 
L 153.899076 -66.120626 
L 156.363815 -66.216604 
L 158.828554 -66.299724 
L 161.293294 -66.370655 
L 163.758033 -66.430468 
L 166.222772 -66.480604 
L 168.687511 -66.522326 
L 171.15225 -66.557026 
L 173.616989 -66.585575 
L 176.081728 -66.609212 
L 178.546467 -66.628715 
L 181.011206 -66.64481 
L 183.475945 -66.658013 
L 185.940684 -66.66893 
L 188.405423 -66.67799 
L 190.870162 -66.685424 
L 193.334901 -66.691555 
L 195.799641 -66.696605 
L 198.26438 -66.700772 
L 200.729119 -66.704219 
L 200.729119 -87.507772 
L 200.729119 -87.507772 
L 198.26438 -87.448929 
L 195.799641 -87.382466 
L 193.334901 -87.307871 
L 190.870162 -87.223696 
L 188.405423 -87.12853 
L 185.940684 -87.021904 
L 183.475945 -86.901739 
L 181.011206 -86.76585 
L 178.546467 -86.613165 
L 176.081728 -86.440617 
L 173.616989 -86.247011 
L 171.15225 -86.029117 
L 168.687511 -85.78322 
L 166.222772 -85.507034 
L 163.758033 -85.195528 
L 161.293294 -84.844854 
L 158.828554 -84.452521 
L 156.363815 -84.018297 
L 153.899076 -83.543528 
L 151.434337 -83.033171 
L 148.969598 -82.501619 
z
" id="m64413563b8" style="stroke:#228b22;stroke-opacity:0.6;"/>
    </defs>
    <g clip-path="url(#p9fc4cc3efc)">
     <use style="fill:#228b22;fill-opacity:0.6;stroke:#228b22;stroke-opacity:0.6;" x="0" xlink:href="#m64413563b8" y="170.07874"/>
    </g>
   </g>
   <g id="PathCollection_1">
    <defs>
     <path d="M -0.866025 1.732051 
L 0 0.866025 
L 0.866025 1.732051 
L 1.732051 0.866025 
L 0.866025 0 
L 1.732051 -0.866025 
L 0.866025 -1.732051 
L 0 -0.866025 
L -0.866025 -1.732051 
L -1.732051 -0.866025 
L -0.866025 0 
L -1.732051 0.866025 
z
" id="m40b818f1d2" style="stroke:#8a2be2;"/>
    </defs>
    <g clip-path="url(#p9fc4cc3efc)">
     <use style="fill:#8a2be2;stroke:#8a2be2;" x="102.139556" xlink:href="#m40b818f1d2" y="23.012874"/>
    </g>
   </g>
   <g id="PathCollection_2">
    <defs>
     <path d="M 0 -1.732051 
L -0.38887 -0.535233 
L -1.647278 -0.535233 
L -0.629204 0.204441 
L -1.018074 1.401259 
L -0 0.661585 
L 1.018074 1.401259 
L 0.629204 0.204441 
L 1.647278 -0.535233 
L 0.38887 -0.535233 
z
" id="m2d3767ac8b" style="stroke:#000000;"/>
    </defs>
    <g clip-path="url(#p9fc4cc3efc)">
     <use style="stroke:#000000;" x="111.998512" xlink:href="#m2d3767ac8b" y="23.012874"/>
    </g>
   </g>
   <g id="PathCollection_3">
    <defs>
     <path d="M -1.732051 1.732051 
L 1.732051 1.732051 
L 1.732051 -1.732051 
L -1.732051 -1.732051 
z
" id="mc696392777" style="stroke:#c71585;"/>
    </defs>
    <g clip-path="url(#p9fc4cc3efc)">
     <use style="fill:#c71585;stroke:#c71585;" x="116.92799" xlink:href="#mc696392777" y="23.012874"/>
    </g>
   </g>
   <g id="PathCollection_4">
    <defs>
     <path d="M 0 -1.732051 
L -1.647278 -0.535233 
L -1.018074 1.401259 
L 1.018074 1.401259 
L 1.647278 -0.535233 
z
" id="m854d2e709f" style="stroke:#800000;"/>
    </defs>
    <g clip-path="url(#p9fc4cc3efc)">
     <use style="fill:#800000;stroke:#800000;" x="116.92799" xlink:href="#m854d2e709f" y="28.184667"/>
    </g>
   </g>
   <g id="PathCollection_5">
    <defs>
     <path d="M -0 2.44949 
L 1.469694 0 
L 0 -2.44949 
L -1.469694 -0 
z
" id="mbe87fa4b63" style="stroke:#556b2f;"/>
    </defs>
    <g clip-path="url(#p9fc4cc3efc)">
     <use style="fill:#556b2f;stroke:#556b2f;" x="116.92799" xlink:href="#mbe87fa4b63" y="28.184667"/>
    </g>
   </g>
   <g id="patch_3">
    <path clip-path="url(#p9fc4cc3efc)" d="M 59.253096 126.44874 
L 61.224887 126.44874 
L 61.224887 126.44874 
L 59.253096 126.44874 
z
" style="fill:#1f77b4;opacity:0.5;"/>
   </g>
   <g id="patch_4">
    <path clip-path="url(#p9fc4cc3efc)" d="M 61.717835 126.44874 
L 63.689626 126.44874 
L 63.689626 126.44874 
L 61.717835 126.44874 
z
" style="fill:#1f77b4;opacity:0.5;"/>
   </g>
   <g id="patch_5">
    <path clip-path="url(#p9fc4cc3efc)" d="M 64.182574 126.44874 
L 66.154365 126.44874 
L 66.154365 126.44874 
L 64.182574 126.44874 
z
" style="fill:#1f77b4;opacity:0.5;"/>
   </g>
   <g id="patch_6">
    <path clip-path="url(#p9fc4cc3efc)" d="M 66.647313 126.44874 
L 68.619104 126.44874 
L 68.619104 126.44874 
L 66.647313 126.44874 
z
" style="fill:#1f77b4;opacity:0.5;"/>
   </g>
   <g id="patch_7">
    <path clip-path="url(#p9fc4cc3efc)" d="M 69.112052 126.44874 
L 71.083843 126.44874 
L 71.083843 126.446175 
L 69.112052 126.446175 
z
" style="fill:#1f77b4;opacity:0.5;"/>
   </g>
   <g id="patch_8">
    <path clip-path="url(#p9fc4cc3efc)" d="M 71.576791 126.44874 
L 73.548583 126.44874 
L 73.548583 126.446175 
L 71.576791 126.446175 
z
" style="fill:#1f77b4;opacity:0.5;"/>
   </g>
   <g id="patch_9">
    <path clip-path="url(#p9fc4cc3efc)" d="M 74.04153 126.44874 
L 76.013322 126.44874 
L 76.013322 126.442326 
L 74.04153 126.442326 
z
" style="fill:#1f77b4;opacity:0.5;"/>
   </g>
   <g id="patch_10">
    <path clip-path="url(#p9fc4cc3efc)" d="M 76.506269 126.44874 
L 78.478061 126.44874 
L 78.478061 126.439761 
L 76.506269 126.439761 
z
" style="fill:#1f77b4;opacity:0.5;"/>
   </g>
   <g id="patch_11">
    <path clip-path="url(#p9fc4cc3efc)" d="M 78.971009 126.44874 
L 80.9428 126.44874 
L 80.9428 126.435912 
L 78.971009 126.435912 
z
" style="fill:#1f77b4;opacity:0.5;"/>
   </g>
   <g id="patch_12">
    <path clip-path="url(#p9fc4cc3efc)" d="M 81.435748 126.44874 
L 83.407539 126.44874 
L 83.407539 126.430781 
L 81.435748 126.430781 
z
" style="fill:#1f77b4;opacity:0.5;"/>
   </g>
   <g id="patch_13">
    <path clip-path="url(#p9fc4cc3efc)" d="M 83.900487 126.44874 
L 85.872278 126.44874 
L 85.872278 126.42565 
L 83.900487 126.42565 
z
" style="fill:#1f77b4;opacity:0.5;"/>
   </g>
   <g id="patch_14">
    <path clip-path="url(#p9fc4cc3efc)" d="M 86.365226 126.44874 
L 88.337017 126.44874 
L 88.337017 126.417954 
L 86.365226 126.417954 
z
" style="fill:#1f77b4;opacity:0.5;"/>
   </g>
   <g id="patch_15">
    <path clip-path="url(#p9fc4cc3efc)" d="M 88.829965 126.44874 
L 90.801756 126.44874 
L 90.801756 126.41154 
L 88.829965 126.41154 
z
" style="fill:#1f77b4;opacity:0.5;"/>
   </g>
   <g id="patch_16">
    <path clip-path="url(#p9fc4cc3efc)" d="M 91.294704 126.44874 
L 93.266495 126.44874 
L 93.266495 126.396147 
L 91.294704 126.396147 
z
" style="fill:#1f77b4;opacity:0.5;"/>
   </g>
   <g id="patch_17">
    <path clip-path="url(#p9fc4cc3efc)" d="M 93.759443 126.44874 
L 95.731234 126.44874 
L 95.731234 126.353815 
L 93.759443 126.353815 
z
" style="fill:#1f77b4;opacity:0.5;"/>
   </g>
   <g id="patch_18">
    <path clip-path="url(#p9fc4cc3efc)" d="M 96.224182 126.44874 
L 98.195973 126.44874 
L 98.195973 126.321746 
L 96.224182 126.321746 
z
" style="fill:#1f77b4;opacity:0.5;"/>
   </g>
   <g id="patch_19">
    <path clip-path="url(#p9fc4cc3efc)" d="M 98.688921 126.44874 
L 100.660712 126.44874 
L 100.660712 126.317897 
L 98.688921 126.317897 
z
" style="fill:#1f77b4;opacity:0.5;"/>
   </g>
   <g id="patch_20">
    <path clip-path="url(#p9fc4cc3efc)" d="M 101.15366 126.44874 
L 103.125451 126.44874 
L 103.125451 126.280697 
L 101.15366 126.280697 
z
" style="fill:#1f77b4;opacity:0.5;"/>
   </g>
   <g id="patch_21">
    <path clip-path="url(#p9fc4cc3efc)" d="M 103.618399 126.44874 
L 105.59019 126.44874 
L 105.59019 126.215276 
L 103.618399 126.215276 
z
" style="fill:#1f77b4;opacity:0.5;"/>
   </g>
   <g id="patch_22">
    <path clip-path="url(#p9fc4cc3efc)" d="M 106.083138 126.44874 
L 108.05493 126.44874 
L 108.05493 126.133178 
L 106.083138 126.133178 
z
" style="fill:#1f77b4;opacity:0.5;"/>
   </g>
   <g id="patch_23">
    <path clip-path="url(#p9fc4cc3efc)" d="M 108.547877 126.44874 
L 110.519669 126.44874 
L 110.519669 125.98566 
L 108.547877 125.98566 
z
" style="fill:#1f77b4;opacity:0.5;"/>
   </g>
   <g id="patch_24">
    <path clip-path="url(#p9fc4cc3efc)" d="M 111.012616 126.44874 
L 112.984408 126.44874 
L 112.984408 125.802223 
L 111.012616 125.802223 
z
" style="fill:#1f77b4;opacity:0.5;"/>
   </g>
   <g id="patch_25">
    <path clip-path="url(#p9fc4cc3efc)" d="M 113.477356 126.44874 
L 115.449147 126.44874 
L 115.449147 125.608525 
L 113.477356 125.608525 
z
" style="fill:#1f77b4;opacity:0.5;"/>
   </g>
   <g id="patch_26">
    <path clip-path="url(#p9fc4cc3efc)" d="M 115.942095 126.44874 
L 117.913886 126.44874 
L 117.913886 125.345556 
L 115.942095 125.345556 
z
" style="fill:#1f77b4;opacity:0.5;"/>
   </g>
   <g id="patch_27">
    <path clip-path="url(#p9fc4cc3efc)" d="M 118.406834 126.44874 
L 120.378625 126.44874 
L 120.378625 125.145444 
L 118.406834 125.145444 
z
" style="fill:#1f77b4;opacity:0.5;"/>
   </g>
   <g id="patch_28">
    <path clip-path="url(#p9fc4cc3efc)" d="M 120.871573 126.44874 
L 122.843364 126.44874 
L 122.843364 124.740088 
L 120.871573 124.740088 
z
" style="fill:#1f77b4;opacity:0.5;"/>
   </g>
   <g id="patch_29">
    <path clip-path="url(#p9fc4cc3efc)" d="M 123.336312 126.44874 
L 125.308103 126.44874 
L 125.308103 124.337298 
L 123.336312 124.337298 
z
" style="fill:#1f77b4;opacity:0.5;"/>
   </g>
   <g id="patch_30">
    <path clip-path="url(#p9fc4cc3efc)" d="M 125.801051 126.44874 
L 127.772842 126.44874 
L 127.772842 123.631773 
L 125.801051 123.631773 
z
" style="fill:#1f77b4;opacity:0.5;"/>
   </g>
   <g id="patch_31">
    <path clip-path="url(#p9fc4cc3efc)" d="M 128.26579 126.44874 
L 130.237581 126.44874 
L 130.237581 123.050678 
L 128.26579 123.050678 
z
" style="fill:#1f77b4;opacity:0.5;"/>
   </g>
   <g id="patch_32">
    <path clip-path="url(#p9fc4cc3efc)" d="M 130.730529 126.44874 
L 132.70232 126.44874 
L 132.70232 122.569638 
L 130.730529 122.569638 
z
" style="fill:#1f77b4;opacity:0.5;"/>
   </g>
   <g id="patch_33">
    <path clip-path="url(#p9fc4cc3efc)" d="M 133.195268 126.44874 
L 135.167059 126.44874 
L 135.167059 121.790996 
L 133.195268 121.790996 
z
" style="fill:#1f77b4;opacity:0.5;"/>
   </g>
   <g id="patch_34">
    <path clip-path="url(#p9fc4cc3efc)" d="M 135.660007 126.44874 
L 137.631798 126.44874 
L 137.631798 120.694226 
L 135.660007 120.694226 
z
" style="fill:#1f77b4;opacity:0.5;"/>
   </g>
   <g id="patch_35">
    <path clip-path="url(#p9fc4cc3efc)" d="M 138.124746 126.44874 
L 140.096538 126.44874 
L 140.096538 119.67314 
L 138.124746 119.67314 
z
" style="fill:#1f77b4;opacity:0.5;"/>
   </g>
   <g id="patch_36">
    <path clip-path="url(#p9fc4cc3efc)" d="M 140.589485 126.44874 
L 142.561277 126.44874 
L 142.561277 118.89578 
L 140.589485 118.89578 
z
" style="fill:#1f77b4;opacity:0.5;"/>
   </g>
   <g id="patch_37">
    <path clip-path="url(#p9fc4cc3efc)" d="M 143.054224 126.44874 
L 145.026016 126.44874 
L 145.026016 117.432137 
L 143.054224 117.432137 
z
" style="fill:#1f77b4;opacity:0.5;"/>
   </g>
   <g id="patch_38">
    <path clip-path="url(#p9fc4cc3efc)" d="M 145.518963 126.44874 
L 147.490755 126.44874 
L 147.490755 116.575246 
L 145.518963 116.575246 
z
" style="fill:#1f77b4;opacity:0.5;"/>
   </g>
   <g id="patch_39">
    <path clip-path="url(#p9fc4cc3efc)" d="M 147.983703 126.44874 
L 149.955494 126.44874 
L 149.955494 115.81328 
L 147.983703 115.81328 
z
" style="fill:#1f77b4;opacity:0.5;"/>
   </g>
   <g id="patch_40">
    <path clip-path="url(#p9fc4cc3efc)" d="M 150.448442 126.44874 
L 152.420233 126.44874 
L 152.420233 115.143673 
L 150.448442 115.143673 
z
" style="fill:#1f77b4;opacity:0.5;"/>
   </g>
   <g id="patch_41">
    <path clip-path="url(#p9fc4cc3efc)" d="M 152.913181 126.44874 
L 154.884972 126.44874 
L 154.884972 114.111041 
L 152.913181 114.111041 
z
" style="fill:#1f77b4;opacity:0.5;"/>
   </g>
   <g id="patch_42">
    <path clip-path="url(#p9fc4cc3efc)" d="M 155.37792 126.44874 
L 157.349711 126.44874 
L 157.349711 113.387558 
L 155.37792 113.387558 
z
" style="fill:#1f77b4;opacity:0.5;"/>
   </g>
   <g id="patch_43">
    <path clip-path="url(#p9fc4cc3efc)" d="M 157.842659 126.44874 
L 159.81445 126.44874 
L 159.81445 112.708972 
L 157.842659 112.708972 
z
" style="fill:#1f77b4;opacity:0.5;"/>
   </g>
   <g id="patch_44">
    <path clip-path="url(#p9fc4cc3efc)" d="M 160.307398 126.44874 
L 162.279189 126.44874 
L 162.279189 112.172773 
L 160.307398 112.172773 
z
" style="fill:#1f77b4;opacity:0.5;"/>
   </g>
   <g id="patch_45">
    <path clip-path="url(#p9fc4cc3efc)" d="M 162.772137 126.44874 
L 164.743928 126.44874 
L 164.743928 111.664796 
L 162.772137 111.664796 
z
" style="fill:#1f77b4;opacity:0.5;"/>
   </g>
   <g id="patch_46">
    <path clip-path="url(#p9fc4cc3efc)" d="M 165.236876 126.44874 
L 167.208667 126.44874 
L 167.208667 111.355648 
L 165.236876 111.355648 
z
" style="fill:#1f77b4;opacity:0.5;"/>
   </g>
   <g id="patch_47">
    <path clip-path="url(#p9fc4cc3efc)" d="M 167.701615 126.44874 
L 169.673406 126.44874 
L 169.673406 111.077286 
L 167.701615 111.077286 
z
" style="fill:#1f77b4;opacity:0.5;"/>
   </g>
   <g id="patch_48">
    <path clip-path="url(#p9fc4cc3efc)" d="M 170.166354 126.44874 
L 172.138145 126.44874 
L 172.138145 110.674496 
L 170.166354 110.674496 
z
" style="fill:#1f77b4;opacity:0.5;"/>
   </g>
   <g id="patch_49">
    <path clip-path="url(#p9fc4cc3efc)" d="M 172.631093 126.44874 
L 174.602885 126.44874 
L 174.602885 110.234505 
L 172.631093 110.234505 
z
" style="fill:#1f77b4;opacity:0.5;"/>
   </g>
   <g id="patch_50">
    <path clip-path="url(#p9fc4cc3efc)" d="M 175.095832 126.44874 
L 177.067624 126.44874 
L 177.067624 109.812473 
L 175.095832 109.812473 
z
" style="fill:#1f77b4;opacity:0.5;"/>
   </g>
   <g id="patch_51">
    <path clip-path="url(#p9fc4cc3efc)" d="M 177.560571 126.44874 
L 179.532363 126.44874 
L 179.532363 109.45458 
L 177.560571 109.45458 
z
" style="fill:#1f77b4;opacity:0.5;"/>
   </g>
   <g id="patch_52">
    <path clip-path="url(#p9fc4cc3efc)" d="M 180.02531 126.44874 
L 181.997102 126.44874 
L 181.997102 109.054355 
L 180.02531 109.054355 
z
" style="fill:#1f77b4;opacity:0.5;"/>
   </g>
   <g id="patch_53">
    <path clip-path="url(#p9fc4cc3efc)" d="M 182.49005 126.44874 
L 184.461841 126.44874 
L 184.461841 108.73751 
L 182.49005 108.73751 
z
" style="fill:#1f77b4;opacity:0.5;"/>
   </g>
   <g id="patch_54">
    <path clip-path="url(#p9fc4cc3efc)" d="M 184.954789 126.44874 
L 186.92658 126.44874 
L 186.92658 108.57075 
L 184.954789 108.57075 
z
" style="fill:#1f77b4;opacity:0.5;"/>
   </g>
   <g id="patch_55">
    <path clip-path="url(#p9fc4cc3efc)" d="M 187.419528 126.44874 
L 189.391319 126.44874 
L 189.391319 108.434776 
L 187.419528 108.434776 
z
" style="fill:#1f77b4;opacity:0.5;"/>
   </g>
   <g id="patch_56">
    <path clip-path="url(#p9fc4cc3efc)" d="M 189.884267 126.44874 
L 191.856058 126.44874 
L 191.856058 108.189767 
L 189.884267 108.189767 
z
" style="fill:#1f77b4;opacity:0.5;"/>
   </g>
   <g id="patch_57">
    <path clip-path="url(#p9fc4cc3efc)" d="M 192.349006 126.44874 
L 194.320797 126.44874 
L 194.320797 108.01531 
L 192.349006 108.01531 
z
" style="fill:#1f77b4;opacity:0.5;"/>
   </g>
   <g id="patch_58">
    <path clip-path="url(#p9fc4cc3efc)" d="M 194.813745 126.44874 
L 196.785536 126.44874 
L 196.785536 107.915254 
L 194.813745 107.915254 
z
" style="fill:#1f77b4;opacity:0.5;"/>
   </g>
   <g id="patch_59">
    <path clip-path="url(#p9fc4cc3efc)" d="M 197.278484 126.44874 
L 199.250275 126.44874 
L 199.250275 107.716424 
L 197.278484 107.716424 
z
" style="fill:#1f77b4;opacity:0.5;"/>
   </g>
   <g id="patch_60">
    <path clip-path="url(#p9fc4cc3efc)" d="M 199.743223 126.44874 
L 201.715014 126.44874 
L 201.715014 107.640741 
L 199.743223 107.640741 
z
" style="fill:#1f77b4;opacity:0.5;"/>
   </g>
   <g id="matplotlib.axis_1">
    <g id="xtick_1">
     <g id="line2d_1">
      <defs>
       <path d="M 0 0 
L 0 3.5 
" id="m8711107fbd" style="stroke:#000000;stroke-width:0.8;"/>
      </defs>
      <g>
       <use style="stroke:#000000;stroke-width:0.8;" x="200.729119" xlink:href="#m8711107fbd" y="126.44874"/>
      </g>
     </g>
     <g id="text_1">
      <!-- 19 Apr -->
      <defs>
       <path d="M 12.40625 8.296875 
L 28.515625 8.296875 
L 28.515625 63.921875 
L 10.984375 60.40625 
L 10.984375 69.390625 
L 28.421875 72.90625 
L 38.28125 72.90625 
L 38.28125 8.296875 
L 54.390625 8.296875 
L 54.390625 0 
L 12.40625 0 
z
" id="DejaVuSans-49"/>
       <path d="M 10.984375 1.515625 
L 10.984375 10.5 
Q 14.703125 8.734375 18.5 7.8125 
Q 22.3125 6.890625 25.984375 6.890625 
Q 35.75 6.890625 40.890625 13.453125 
Q 46.046875 20.015625 46.78125 33.40625 
Q 43.953125 29.203125 39.59375 26.953125 
Q 35.25 24.703125 29.984375 24.703125 
Q 19.046875 24.703125 12.671875 31.3125 
Q 6.296875 37.9375 6.296875 49.421875 
Q 6.296875 60.640625 12.9375 67.421875 
Q 19.578125 74.21875 30.609375 74.21875 
Q 43.265625 74.21875 49.921875 64.515625 
Q 56.59375 54.828125 56.59375 36.375 
Q 56.59375 19.140625 48.40625 8.859375 
Q 40.234375 -1.421875 26.421875 -1.421875 
Q 22.703125 -1.421875 18.890625 -0.6875 
Q 15.09375 0.046875 10.984375 1.515625 
z
M 30.609375 32.421875 
Q 37.25 32.421875 41.125 36.953125 
Q 45.015625 41.5 45.015625 49.421875 
Q 45.015625 57.28125 41.125 61.84375 
Q 37.25 66.40625 30.609375 66.40625 
Q 23.96875 66.40625 20.09375 61.84375 
Q 16.21875 57.28125 16.21875 49.421875 
Q 16.21875 41.5 20.09375 36.953125 
Q 23.96875 32.421875 30.609375 32.421875 
z
" id="DejaVuSans-57"/>
       <path id="DejaVuSans-32"/>
       <path d="M 34.1875 63.1875 
L 20.796875 26.90625 
L 47.609375 26.90625 
z
M 28.609375 72.90625 
L 39.796875 72.90625 
L 67.578125 0 
L 57.328125 0 
L 50.6875 18.703125 
L 17.828125 18.703125 
L 11.1875 0 
L 0.78125 0 
z
" id="DejaVuSans-65"/>
       <path d="M 18.109375 8.203125 
L 18.109375 -20.796875 
L 9.078125 -20.796875 
L 9.078125 54.6875 
L 18.109375 54.6875 
L 18.109375 46.390625 
Q 20.953125 51.265625 25.265625 53.625 
Q 29.59375 56 35.59375 56 
Q 45.5625 56 51.78125 48.09375 
Q 58.015625 40.1875 58.015625 27.296875 
Q 58.015625 14.40625 51.78125 6.484375 
Q 45.5625 -1.421875 35.59375 -1.421875 
Q 29.59375 -1.421875 25.265625 0.953125 
Q 20.953125 3.328125 18.109375 8.203125 
z
M 48.6875 27.296875 
Q 48.6875 37.203125 44.609375 42.84375 
Q 40.53125 48.484375 33.40625 48.484375 
Q 26.265625 48.484375 22.1875 42.84375 
Q 18.109375 37.203125 18.109375 27.296875 
Q 18.109375 17.390625 22.1875 11.75 
Q 26.265625 6.109375 33.40625 6.109375 
Q 40.53125 6.109375 44.609375 11.75 
Q 48.6875 17.390625 48.6875 27.296875 
z
" id="DejaVuSans-112"/>
       <path d="M 41.109375 46.296875 
Q 39.59375 47.171875 37.8125 47.578125 
Q 36.03125 48 33.890625 48 
Q 26.265625 48 22.1875 43.046875 
Q 18.109375 38.09375 18.109375 28.8125 
L 18.109375 0 
L 9.078125 0 
L 9.078125 54.6875 
L 18.109375 54.6875 
L 18.109375 46.1875 
Q 20.953125 51.171875 25.484375 53.578125 
Q 30.03125 56 36.53125 56 
Q 37.453125 56 38.578125 55.875 
Q 39.703125 55.765625 41.0625 55.515625 
z
" id="DejaVuSans-114"/>
      </defs>
      <g transform="translate(202.936619 160.01124)rotate(-90)scale(0.08 -0.08)">
       <use xlink:href="#DejaVuSans-49"/>
       <use x="63.623047" xlink:href="#DejaVuSans-57"/>
       <use x="127.246094" xlink:href="#DejaVuSans-32"/>
       <use x="159.033203" xlink:href="#DejaVuSans-65"/>
       <use x="227.441406" xlink:href="#DejaVuSans-112"/>
       <use x="290.917969" xlink:href="#DejaVuSans-114"/>
      </g>
     </g>
    </g>
    <g id="xtick_2">
     <g id="line2d_2">
      <g>
       <use style="stroke:#000000;stroke-width:0.8;" x="183.475945" xlink:href="#m8711107fbd" y="126.44874"/>
      </g>
     </g>
     <g id="text_2">
      <!-- 12 Apr -->
      <defs>
       <path d="M 19.1875 8.296875 
L 53.609375 8.296875 
L 53.609375 0 
L 7.328125 0 
L 7.328125 8.296875 
Q 12.9375 14.109375 22.625 23.890625 
Q 32.328125 33.6875 34.8125 36.53125 
Q 39.546875 41.84375 41.421875 45.53125 
Q 43.3125 49.21875 43.3125 52.78125 
Q 43.3125 58.59375 39.234375 62.25 
Q 35.15625 65.921875 28.609375 65.921875 
Q 23.96875 65.921875 18.8125 64.3125 
Q 13.671875 62.703125 7.8125 59.421875 
L 7.8125 69.390625 
Q 13.765625 71.78125 18.9375 73 
Q 24.125 74.21875 28.421875 74.21875 
Q 39.75 74.21875 46.484375 68.546875 
Q 53.21875 62.890625 53.21875 53.421875 
Q 53.21875 48.921875 51.53125 44.890625 
Q 49.859375 40.875 45.40625 35.40625 
Q 44.1875 33.984375 37.640625 27.21875 
Q 31.109375 20.453125 19.1875 8.296875 
z
" id="DejaVuSans-50"/>
      </defs>
      <g transform="translate(185.683445 160.01124)rotate(-90)scale(0.08 -0.08)">
       <use xlink:href="#DejaVuSans-49"/>
       <use x="63.623047" xlink:href="#DejaVuSans-50"/>
       <use x="127.246094" xlink:href="#DejaVuSans-32"/>
       <use x="159.033203" xlink:href="#DejaVuSans-65"/>
       <use x="227.441406" xlink:href="#DejaVuSans-112"/>
       <use x="290.917969" xlink:href="#DejaVuSans-114"/>
      </g>
     </g>
    </g>
    <g id="xtick_3">
     <g id="line2d_3">
      <g>
       <use style="stroke:#000000;stroke-width:0.8;" x="166.222772" xlink:href="#m8711107fbd" y="126.44874"/>
      </g>
     </g>
     <g id="text_3">
      <!-- 5 Apr -->
      <defs>
       <path d="M 10.796875 72.90625 
L 49.515625 72.90625 
L 49.515625 64.59375 
L 19.828125 64.59375 
L 19.828125 46.734375 
Q 21.96875 47.46875 24.109375 47.828125 
Q 26.265625 48.1875 28.421875 48.1875 
Q 40.625 48.1875 47.75 41.5 
Q 54.890625 34.8125 54.890625 23.390625 
Q 54.890625 11.625 47.5625 5.09375 
Q 40.234375 -1.421875 26.90625 -1.421875 
Q 22.3125 -1.421875 17.546875 -0.640625 
Q 12.796875 0.140625 7.71875 1.703125 
L 7.71875 11.625 
Q 12.109375 9.234375 16.796875 8.0625 
Q 21.484375 6.890625 26.703125 6.890625 
Q 35.15625 6.890625 40.078125 11.328125 
Q 45.015625 15.765625 45.015625 23.390625 
Q 45.015625 31 40.078125 35.4375 
Q 35.15625 39.890625 26.703125 39.890625 
Q 22.75 39.890625 18.8125 39.015625 
Q 14.890625 38.140625 10.796875 36.28125 
z
" id="DejaVuSans-53"/>
      </defs>
      <g transform="translate(168.430272 154.92124)rotate(-90)scale(0.08 -0.08)">
       <use xlink:href="#DejaVuSans-53"/>
       <use x="63.623047" xlink:href="#DejaVuSans-32"/>
       <use x="95.410156" xlink:href="#DejaVuSans-65"/>
       <use x="163.818359" xlink:href="#DejaVuSans-112"/>
       <use x="227.294922" xlink:href="#DejaVuSans-114"/>
      </g>
     </g>
    </g>
    <g id="xtick_4">
     <g id="line2d_4">
      <g>
       <use style="stroke:#000000;stroke-width:0.8;" x="148.969598" xlink:href="#m8711107fbd" y="126.44874"/>
      </g>
     </g>
     <g id="text_4">
      <!-- 29 Mar -->
      <defs>
       <path d="M 9.8125 72.90625 
L 24.515625 72.90625 
L 43.109375 23.296875 
L 61.8125 72.90625 
L 76.515625 72.90625 
L 76.515625 0 
L 66.890625 0 
L 66.890625 64.015625 
L 48.09375 14.015625 
L 38.1875 14.015625 
L 19.390625 64.015625 
L 19.390625 0 
L 9.8125 0 
z
" id="DejaVuSans-77"/>
       <path d="M 34.28125 27.484375 
Q 23.390625 27.484375 19.1875 25 
Q 14.984375 22.515625 14.984375 16.5 
Q 14.984375 11.71875 18.140625 8.90625 
Q 21.296875 6.109375 26.703125 6.109375 
Q 34.1875 6.109375 38.703125 11.40625 
Q 43.21875 16.703125 43.21875 25.484375 
L 43.21875 27.484375 
z
M 52.203125 31.203125 
L 52.203125 0 
L 43.21875 0 
L 43.21875 8.296875 
Q 40.140625 3.328125 35.546875 0.953125 
Q 30.953125 -1.421875 24.3125 -1.421875 
Q 15.921875 -1.421875 10.953125 3.296875 
Q 6 8.015625 6 15.921875 
Q 6 25.140625 12.171875 29.828125 
Q 18.359375 34.515625 30.609375 34.515625 
L 43.21875 34.515625 
L 43.21875 35.40625 
Q 43.21875 41.609375 39.140625 45 
Q 35.0625 48.390625 27.6875 48.390625 
Q 23 48.390625 18.546875 47.265625 
Q 14.109375 46.140625 10.015625 43.890625 
L 10.015625 52.203125 
Q 14.9375 54.109375 19.578125 55.046875 
Q 24.21875 56 28.609375 56 
Q 40.484375 56 46.34375 49.84375 
Q 52.203125 43.703125 52.203125 31.203125 
z
" id="DejaVuSans-97"/>
      </defs>
      <g transform="translate(151.177098 161.26499)rotate(-90)scale(0.08 -0.08)">
       <use xlink:href="#DejaVuSans-50"/>
       <use x="63.623047" xlink:href="#DejaVuSans-57"/>
       <use x="127.246094" xlink:href="#DejaVuSans-32"/>
       <use x="159.033203" xlink:href="#DejaVuSans-77"/>
       <use x="245.3125" xlink:href="#DejaVuSans-97"/>
       <use x="306.591797" xlink:href="#DejaVuSans-114"/>
      </g>
     </g>
    </g>
    <g id="xtick_5">
     <g id="line2d_5">
      <g>
       <use style="stroke:#000000;stroke-width:0.8;" x="131.716425" xlink:href="#m8711107fbd" y="126.44874"/>
      </g>
     </g>
     <g id="text_5">
      <!-- 22 Mar -->
      <g transform="translate(133.923925 161.26499)rotate(-90)scale(0.08 -0.08)">
       <use xlink:href="#DejaVuSans-50"/>
       <use x="63.623047" xlink:href="#DejaVuSans-50"/>
       <use x="127.246094" xlink:href="#DejaVuSans-32"/>
       <use x="159.033203" xlink:href="#DejaVuSans-77"/>
       <use x="245.3125" xlink:href="#DejaVuSans-97"/>
       <use x="306.591797" xlink:href="#DejaVuSans-114"/>
      </g>
     </g>
    </g>
    <g id="xtick_6">
     <g id="line2d_6">
      <g>
       <use style="stroke:#000000;stroke-width:0.8;" x="114.463251" xlink:href="#m8711107fbd" y="126.44874"/>
      </g>
     </g>
     <g id="text_6">
      <!-- 15 Mar -->
      <g transform="translate(116.670751 161.26499)rotate(-90)scale(0.08 -0.08)">
       <use xlink:href="#DejaVuSans-49"/>
       <use x="63.623047" xlink:href="#DejaVuSans-53"/>
       <use x="127.246094" xlink:href="#DejaVuSans-32"/>
       <use x="159.033203" xlink:href="#DejaVuSans-77"/>
       <use x="245.3125" xlink:href="#DejaVuSans-97"/>
       <use x="306.591797" xlink:href="#DejaVuSans-114"/>
      </g>
     </g>
    </g>
    <g id="xtick_7">
     <g id="line2d_7">
      <g>
       <use style="stroke:#000000;stroke-width:0.8;" x="97.210078" xlink:href="#m8711107fbd" y="126.44874"/>
      </g>
     </g>
     <g id="text_7">
      <!-- 8 Mar -->
      <defs>
       <path d="M 31.78125 34.625 
Q 24.75 34.625 20.71875 30.859375 
Q 16.703125 27.09375 16.703125 20.515625 
Q 16.703125 13.921875 20.71875 10.15625 
Q 24.75 6.390625 31.78125 6.390625 
Q 38.8125 6.390625 42.859375 10.171875 
Q 46.921875 13.96875 46.921875 20.515625 
Q 46.921875 27.09375 42.890625 30.859375 
Q 38.875 34.625 31.78125 34.625 
z
M 21.921875 38.8125 
Q 15.578125 40.375 12.03125 44.71875 
Q 8.5 49.078125 8.5 55.328125 
Q 8.5 64.0625 14.71875 69.140625 
Q 20.953125 74.21875 31.78125 74.21875 
Q 42.671875 74.21875 48.875 69.140625 
Q 55.078125 64.0625 55.078125 55.328125 
Q 55.078125 49.078125 51.53125 44.71875 
Q 48 40.375 41.703125 38.8125 
Q 48.828125 37.15625 52.796875 32.3125 
Q 56.78125 27.484375 56.78125 20.515625 
Q 56.78125 9.90625 50.3125 4.234375 
Q 43.84375 -1.421875 31.78125 -1.421875 
Q 19.734375 -1.421875 13.25 4.234375 
Q 6.78125 9.90625 6.78125 20.515625 
Q 6.78125 27.484375 10.78125 32.3125 
Q 14.796875 37.15625 21.921875 38.8125 
z
M 18.3125 54.390625 
Q 18.3125 48.734375 21.84375 45.5625 
Q 25.390625 42.390625 31.78125 42.390625 
Q 38.140625 42.390625 41.71875 45.5625 
Q 45.3125 48.734375 45.3125 54.390625 
Q 45.3125 60.0625 41.71875 63.234375 
Q 38.140625 66.40625 31.78125 66.40625 
Q 25.390625 66.40625 21.84375 63.234375 
Q 18.3125 60.0625 18.3125 54.390625 
z
" id="DejaVuSans-56"/>
      </defs>
      <g transform="translate(99.417578 156.17499)rotate(-90)scale(0.08 -0.08)">
       <use xlink:href="#DejaVuSans-56"/>
       <use x="63.623047" xlink:href="#DejaVuSans-32"/>
       <use x="95.410156" xlink:href="#DejaVuSans-77"/>
       <use x="181.689453" xlink:href="#DejaVuSans-97"/>
       <use x="242.96875" xlink:href="#DejaVuSans-114"/>
      </g>
     </g>
    </g>
    <g id="xtick_8">
     <g id="line2d_8">
      <g>
       <use style="stroke:#000000;stroke-width:0.8;" x="79.956904" xlink:href="#m8711107fbd" y="126.44874"/>
      </g>
     </g>
     <g id="text_8">
      <!-- 1 Mar -->
      <g transform="translate(82.164404 156.17499)rotate(-90)scale(0.08 -0.08)">
       <use xlink:href="#DejaVuSans-49"/>
       <use x="63.623047" xlink:href="#DejaVuSans-32"/>
       <use x="95.410156" xlink:href="#DejaVuSans-77"/>
       <use x="181.689453" xlink:href="#DejaVuSans-97"/>
       <use x="242.96875" xlink:href="#DejaVuSans-114"/>
      </g>
     </g>
    </g>
    <g id="xtick_9">
     <g id="line2d_9">
      <g>
       <use style="stroke:#000000;stroke-width:0.8;" x="62.703731" xlink:href="#m8711107fbd" y="126.44874"/>
      </g>
     </g>
     <g id="text_9">
      <!-- 23 Feb -->
      <defs>
       <path d="M 40.578125 39.3125 
Q 47.65625 37.796875 51.625 33 
Q 55.609375 28.21875 55.609375 21.1875 
Q 55.609375 10.40625 48.1875 4.484375 
Q 40.765625 -1.421875 27.09375 -1.421875 
Q 22.515625 -1.421875 17.65625 -0.515625 
Q 12.796875 0.390625 7.625 2.203125 
L 7.625 11.71875 
Q 11.71875 9.328125 16.59375 8.109375 
Q 21.484375 6.890625 26.8125 6.890625 
Q 36.078125 6.890625 40.9375 10.546875 
Q 45.796875 14.203125 45.796875 21.1875 
Q 45.796875 27.640625 41.28125 31.265625 
Q 36.765625 34.90625 28.71875 34.90625 
L 20.21875 34.90625 
L 20.21875 43.015625 
L 29.109375 43.015625 
Q 36.375 43.015625 40.234375 45.921875 
Q 44.09375 48.828125 44.09375 54.296875 
Q 44.09375 59.90625 40.109375 62.90625 
Q 36.140625 65.921875 28.71875 65.921875 
Q 24.65625 65.921875 20.015625 65.03125 
Q 15.375 64.15625 9.8125 62.3125 
L 9.8125 71.09375 
Q 15.4375 72.65625 20.34375 73.4375 
Q 25.25 74.21875 29.59375 74.21875 
Q 40.828125 74.21875 47.359375 69.109375 
Q 53.90625 64.015625 53.90625 55.328125 
Q 53.90625 49.265625 50.4375 45.09375 
Q 46.96875 40.921875 40.578125 39.3125 
z
" id="DejaVuSans-51"/>
       <path d="M 9.8125 72.90625 
L 51.703125 72.90625 
L 51.703125 64.59375 
L 19.671875 64.59375 
L 19.671875 43.109375 
L 48.578125 43.109375 
L 48.578125 34.8125 
L 19.671875 34.8125 
L 19.671875 0 
L 9.8125 0 
z
" id="DejaVuSans-70"/>
       <path d="M 56.203125 29.59375 
L 56.203125 25.203125 
L 14.890625 25.203125 
Q 15.484375 15.921875 20.484375 11.0625 
Q 25.484375 6.203125 34.421875 6.203125 
Q 39.59375 6.203125 44.453125 7.46875 
Q 49.3125 8.734375 54.109375 11.28125 
L 54.109375 2.78125 
Q 49.265625 0.734375 44.1875 -0.34375 
Q 39.109375 -1.421875 33.890625 -1.421875 
Q 20.796875 -1.421875 13.15625 6.1875 
Q 5.515625 13.8125 5.515625 26.8125 
Q 5.515625 40.234375 12.765625 48.109375 
Q 20.015625 56 32.328125 56 
Q 43.359375 56 49.78125 48.890625 
Q 56.203125 41.796875 56.203125 29.59375 
z
M 47.21875 32.234375 
Q 47.125 39.59375 43.09375 43.984375 
Q 39.0625 48.390625 32.421875 48.390625 
Q 24.90625 48.390625 20.390625 44.140625 
Q 15.875 39.890625 15.1875 32.171875 
z
" id="DejaVuSans-101"/>
       <path d="M 48.6875 27.296875 
Q 48.6875 37.203125 44.609375 42.84375 
Q 40.53125 48.484375 33.40625 48.484375 
Q 26.265625 48.484375 22.1875 42.84375 
Q 18.109375 37.203125 18.109375 27.296875 
Q 18.109375 17.390625 22.1875 11.75 
Q 26.265625 6.109375 33.40625 6.109375 
Q 40.53125 6.109375 44.609375 11.75 
Q 48.6875 17.390625 48.6875 27.296875 
z
M 18.109375 46.390625 
Q 20.953125 51.265625 25.265625 53.625 
Q 29.59375 56 35.59375 56 
Q 45.5625 56 51.78125 48.09375 
Q 58.015625 40.1875 58.015625 27.296875 
Q 58.015625 14.40625 51.78125 6.484375 
Q 45.5625 -1.421875 35.59375 -1.421875 
Q 29.59375 -1.421875 25.265625 0.953125 
Q 20.953125 3.328125 18.109375 8.203125 
L 18.109375 0 
L 9.078125 0 
L 9.078125 75.984375 
L 18.109375 75.984375 
z
" id="DejaVuSans-98"/>
      </defs>
      <g transform="translate(64.911231 160.33374)rotate(-90)scale(0.08 -0.08)">
       <use xlink:href="#DejaVuSans-50"/>
       <use x="63.623047" xlink:href="#DejaVuSans-51"/>
       <use x="127.246094" xlink:href="#DejaVuSans-32"/>
       <use x="159.033203" xlink:href="#DejaVuSans-70"/>
       <use x="211.052734" xlink:href="#DejaVuSans-101"/>
       <use x="272.576172" xlink:href="#DejaVuSans-98"/>
      </g>
     </g>
    </g>
   </g>
   <g id="matplotlib.axis_2">
    <g id="ytick_1">
     <g id="line2d_10">
      <defs>
       <path d="M 0 0 
L -3.5 0 
" id="m977eaec8c3" style="stroke:#000000;stroke-width:0.8;"/>
      </defs>
      <g>
       <use style="stroke:#000000;stroke-width:0.8;" x="52.13" xlink:href="#m977eaec8c3" y="126.44874"/>
      </g>
     </g>
     <g id="text_10">
      <!-- 0 -->
      <defs>
       <path d="M 31.78125 66.40625 
Q 24.171875 66.40625 20.328125 58.90625 
Q 16.5 51.421875 16.5 36.375 
Q 16.5 21.390625 20.328125 13.890625 
Q 24.171875 6.390625 31.78125 6.390625 
Q 39.453125 6.390625 43.28125 13.890625 
Q 47.125 21.390625 47.125 36.375 
Q 47.125 51.421875 43.28125 58.90625 
Q 39.453125 66.40625 31.78125 66.40625 
z
M 31.78125 74.21875 
Q 44.046875 74.21875 50.515625 64.515625 
Q 56.984375 54.828125 56.984375 36.375 
Q 56.984375 17.96875 50.515625 8.265625 
Q 44.046875 -1.421875 31.78125 -1.421875 
Q 19.53125 -1.421875 13.0625 8.265625 
Q 6.59375 17.96875 6.59375 36.375 
Q 6.59375 54.828125 13.0625 64.515625 
Q 19.53125 74.21875 31.78125 74.21875 
z
" id="DejaVuSans-48"/>
      </defs>
      <g transform="translate(40.04 129.488115)scale(0.08 -0.08)">
       <use xlink:href="#DejaVuSans-48"/>
      </g>
     </g>
    </g>
    <g id="ytick_2">
     <g id="line2d_11">
      <g>
       <use style="stroke:#000000;stroke-width:0.8;" x="52.13" xlink:href="#m977eaec8c3" y="100.793305"/>
      </g>
     </g>
     <g id="text_11">
      <!-- 20000 -->
      <g transform="translate(19.68 103.83268)scale(0.08 -0.08)">
       <use xlink:href="#DejaVuSans-50"/>
       <use x="63.623047" xlink:href="#DejaVuSans-48"/>
       <use x="127.246094" xlink:href="#DejaVuSans-48"/>
       <use x="190.869141" xlink:href="#DejaVuSans-48"/>
       <use x="254.492188" xlink:href="#DejaVuSans-48"/>
      </g>
     </g>
    </g>
    <g id="ytick_3">
     <g id="line2d_12">
      <g>
       <use style="stroke:#000000;stroke-width:0.8;" x="52.13" xlink:href="#m977eaec8c3" y="75.13787"/>
      </g>
     </g>
     <g id="text_12">
      <!-- 40000 -->
      <defs>
       <path d="M 37.796875 64.3125 
L 12.890625 25.390625 
L 37.796875 25.390625 
z
M 35.203125 72.90625 
L 47.609375 72.90625 
L 47.609375 25.390625 
L 58.015625 25.390625 
L 58.015625 17.1875 
L 47.609375 17.1875 
L 47.609375 0 
L 37.796875 0 
L 37.796875 17.1875 
L 4.890625 17.1875 
L 4.890625 26.703125 
z
" id="DejaVuSans-52"/>
      </defs>
      <g transform="translate(19.68 78.177245)scale(0.08 -0.08)">
       <use xlink:href="#DejaVuSans-52"/>
       <use x="63.623047" xlink:href="#DejaVuSans-48"/>
       <use x="127.246094" xlink:href="#DejaVuSans-48"/>
       <use x="190.869141" xlink:href="#DejaVuSans-48"/>
       <use x="254.492188" xlink:href="#DejaVuSans-48"/>
      </g>
     </g>
    </g>
    <g id="ytick_4">
     <g id="line2d_13">
      <g>
       <use style="stroke:#000000;stroke-width:0.8;" x="52.13" xlink:href="#m977eaec8c3" y="49.482435"/>
      </g>
     </g>
     <g id="text_13">
      <!-- 60000 -->
      <defs>
       <path d="M 33.015625 40.375 
Q 26.375 40.375 22.484375 35.828125 
Q 18.609375 31.296875 18.609375 23.390625 
Q 18.609375 15.53125 22.484375 10.953125 
Q 26.375 6.390625 33.015625 6.390625 
Q 39.65625 6.390625 43.53125 10.953125 
Q 47.40625 15.53125 47.40625 23.390625 
Q 47.40625 31.296875 43.53125 35.828125 
Q 39.65625 40.375 33.015625 40.375 
z
M 52.59375 71.296875 
L 52.59375 62.3125 
Q 48.875 64.0625 45.09375 64.984375 
Q 41.3125 65.921875 37.59375 65.921875 
Q 27.828125 65.921875 22.671875 59.328125 
Q 17.53125 52.734375 16.796875 39.40625 
Q 19.671875 43.65625 24.015625 45.921875 
Q 28.375 48.1875 33.59375 48.1875 
Q 44.578125 48.1875 50.953125 41.515625 
Q 57.328125 34.859375 57.328125 23.390625 
Q 57.328125 12.15625 50.6875 5.359375 
Q 44.046875 -1.421875 33.015625 -1.421875 
Q 20.359375 -1.421875 13.671875 8.265625 
Q 6.984375 17.96875 6.984375 36.375 
Q 6.984375 53.65625 15.1875 63.9375 
Q 23.390625 74.21875 37.203125 74.21875 
Q 40.921875 74.21875 44.703125 73.484375 
Q 48.484375 72.75 52.59375 71.296875 
z
" id="DejaVuSans-54"/>
      </defs>
      <g transform="translate(19.68 52.52181)scale(0.08 -0.08)">
       <use xlink:href="#DejaVuSans-54"/>
       <use x="63.623047" xlink:href="#DejaVuSans-48"/>
       <use x="127.246094" xlink:href="#DejaVuSans-48"/>
       <use x="190.869141" xlink:href="#DejaVuSans-48"/>
       <use x="254.492188" xlink:href="#DejaVuSans-48"/>
      </g>
     </g>
    </g>
    <g id="ytick_5">
     <g id="line2d_14">
      <g>
       <use style="stroke:#000000;stroke-width:0.8;" x="52.13" xlink:href="#m977eaec8c3" y="23.826999"/>
      </g>
     </g>
     <g id="text_14">
      <!-- 80000 -->
      <g transform="translate(19.68 26.866374)scale(0.08 -0.08)">
       <use xlink:href="#DejaVuSans-56"/>
       <use x="63.623047" xlink:href="#DejaVuSans-48"/>
       <use x="127.246094" xlink:href="#DejaVuSans-48"/>
       <use x="190.869141" xlink:href="#DejaVuSans-48"/>
       <use x="254.492188" xlink:href="#DejaVuSans-48"/>
      </g>
     </g>
    </g>
    <g id="text_15">
     <!-- Cumulative cases -->
     <defs>
      <path d="M 64.40625 67.28125 
L 64.40625 56.890625 
Q 59.421875 61.53125 53.78125 63.8125 
Q 48.140625 66.109375 41.796875 66.109375 
Q 29.296875 66.109375 22.65625 58.46875 
Q 16.015625 50.828125 16.015625 36.375 
Q 16.015625 21.96875 22.65625 14.328125 
Q 29.296875 6.6875 41.796875 6.6875 
Q 48.140625 6.6875 53.78125 8.984375 
Q 59.421875 11.28125 64.40625 15.921875 
L 64.40625 5.609375 
Q 59.234375 2.09375 53.4375 0.328125 
Q 47.65625 -1.421875 41.21875 -1.421875 
Q 24.65625 -1.421875 15.125 8.703125 
Q 5.609375 18.84375 5.609375 36.375 
Q 5.609375 53.953125 15.125 64.078125 
Q 24.65625 74.21875 41.21875 74.21875 
Q 47.75 74.21875 53.53125 72.484375 
Q 59.328125 70.75 64.40625 67.28125 
z
" id="DejaVuSans-67"/>
      <path d="M 8.5 21.578125 
L 8.5 54.6875 
L 17.484375 54.6875 
L 17.484375 21.921875 
Q 17.484375 14.15625 20.5 10.265625 
Q 23.53125 6.390625 29.59375 6.390625 
Q 36.859375 6.390625 41.078125 11.03125 
Q 45.3125 15.671875 45.3125 23.6875 
L 45.3125 54.6875 
L 54.296875 54.6875 
L 54.296875 0 
L 45.3125 0 
L 45.3125 8.40625 
Q 42.046875 3.421875 37.71875 1 
Q 33.40625 -1.421875 27.6875 -1.421875 
Q 18.265625 -1.421875 13.375 4.4375 
Q 8.5 10.296875 8.5 21.578125 
z
M 31.109375 56 
z
" id="DejaVuSans-117"/>
      <path d="M 52 44.1875 
Q 55.375 50.25 60.0625 53.125 
Q 64.75 56 71.09375 56 
Q 79.640625 56 84.28125 50.015625 
Q 88.921875 44.046875 88.921875 33.015625 
L 88.921875 0 
L 79.890625 0 
L 79.890625 32.71875 
Q 79.890625 40.578125 77.09375 44.375 
Q 74.3125 48.1875 68.609375 48.1875 
Q 61.625 48.1875 57.5625 43.546875 
Q 53.515625 38.921875 53.515625 30.90625 
L 53.515625 0 
L 44.484375 0 
L 44.484375 32.71875 
Q 44.484375 40.625 41.703125 44.40625 
Q 38.921875 48.1875 33.109375 48.1875 
Q 26.21875 48.1875 22.15625 43.53125 
Q 18.109375 38.875 18.109375 30.90625 
L 18.109375 0 
L 9.078125 0 
L 9.078125 54.6875 
L 18.109375 54.6875 
L 18.109375 46.1875 
Q 21.1875 51.21875 25.484375 53.609375 
Q 29.78125 56 35.6875 56 
Q 41.65625 56 45.828125 52.96875 
Q 50 49.953125 52 44.1875 
z
" id="DejaVuSans-109"/>
      <path d="M 9.421875 75.984375 
L 18.40625 75.984375 
L 18.40625 0 
L 9.421875 0 
z
" id="DejaVuSans-108"/>
      <path d="M 18.3125 70.21875 
L 18.3125 54.6875 
L 36.8125 54.6875 
L 36.8125 47.703125 
L 18.3125 47.703125 
L 18.3125 18.015625 
Q 18.3125 11.328125 20.140625 9.421875 
Q 21.96875 7.515625 27.59375 7.515625 
L 36.8125 7.515625 
L 36.8125 0 
L 27.59375 0 
Q 17.1875 0 13.234375 3.875 
Q 9.28125 7.765625 9.28125 18.015625 
L 9.28125 47.703125 
L 2.6875 47.703125 
L 2.6875 54.6875 
L 9.28125 54.6875 
L 9.28125 70.21875 
z
" id="DejaVuSans-116"/>
      <path d="M 9.421875 54.6875 
L 18.40625 54.6875 
L 18.40625 0 
L 9.421875 0 
z
M 9.421875 75.984375 
L 18.40625 75.984375 
L 18.40625 64.59375 
L 9.421875 64.59375 
z
" id="DejaVuSans-105"/>
      <path d="M 2.984375 54.6875 
L 12.5 54.6875 
L 29.59375 8.796875 
L 46.6875 54.6875 
L 56.203125 54.6875 
L 35.6875 0 
L 23.484375 0 
z
" id="DejaVuSans-118"/>
      <path d="M 48.78125 52.59375 
L 48.78125 44.1875 
Q 44.96875 46.296875 41.140625 47.34375 
Q 37.3125 48.390625 33.40625 48.390625 
Q 24.65625 48.390625 19.8125 42.84375 
Q 14.984375 37.3125 14.984375 27.296875 
Q 14.984375 17.28125 19.8125 11.734375 
Q 24.65625 6.203125 33.40625 6.203125 
Q 37.3125 6.203125 41.140625 7.25 
Q 44.96875 8.296875 48.78125 10.40625 
L 48.78125 2.09375 
Q 45.015625 0.34375 40.984375 -0.53125 
Q 36.96875 -1.421875 32.421875 -1.421875 
Q 20.0625 -1.421875 12.78125 6.34375 
Q 5.515625 14.109375 5.515625 27.296875 
Q 5.515625 40.671875 12.859375 48.328125 
Q 20.21875 56 33.015625 56 
Q 37.15625 56 41.109375 55.140625 
Q 45.0625 54.296875 48.78125 52.59375 
z
" id="DejaVuSans-99"/>
      <path d="M 44.28125 53.078125 
L 44.28125 44.578125 
Q 40.484375 46.53125 36.375 47.5 
Q 32.28125 48.484375 27.875 48.484375 
Q 21.1875 48.484375 17.84375 46.4375 
Q 14.5 44.390625 14.5 40.28125 
Q 14.5 37.15625 16.890625 35.375 
Q 19.28125 33.59375 26.515625 31.984375 
L 29.59375 31.296875 
Q 39.15625 29.25 43.1875 25.515625 
Q 47.21875 21.78125 47.21875 15.09375 
Q 47.21875 7.46875 41.1875 3.015625 
Q 35.15625 -1.421875 24.609375 -1.421875 
Q 20.21875 -1.421875 15.453125 -0.5625 
Q 10.6875 0.296875 5.421875 2 
L 5.421875 11.28125 
Q 10.40625 8.6875 15.234375 7.390625 
Q 20.0625 6.109375 24.8125 6.109375 
Q 31.15625 6.109375 34.5625 8.28125 
Q 37.984375 10.453125 37.984375 14.40625 
Q 37.984375 18.0625 35.515625 20.015625 
Q 33.0625 21.96875 24.703125 23.78125 
L 21.578125 24.515625 
Q 13.234375 26.265625 9.515625 29.90625 
Q 5.8125 33.546875 5.8125 39.890625 
Q 5.8125 47.609375 11.28125 51.796875 
Q 16.75 56 26.8125 56 
Q 31.78125 56 36.171875 55.265625 
Q 40.578125 54.546875 44.28125 53.078125 
z
" id="DejaVuSans-115"/>
     </defs>
     <g transform="translate(14.01625 104.364995)rotate(-90)scale(0.08 -0.08)">
      <use xlink:href="#DejaVuSans-67"/>
      <use x="69.824219" xlink:href="#DejaVuSans-117"/>
      <use x="133.203125" xlink:href="#DejaVuSans-109"/>
      <use x="230.615234" xlink:href="#DejaVuSans-117"/>
      <use x="293.994141" xlink:href="#DejaVuSans-108"/>
      <use x="321.777344" xlink:href="#DejaVuSans-97"/>
      <use x="383.056641" xlink:href="#DejaVuSans-116"/>
      <use x="422.265625" xlink:href="#DejaVuSans-105"/>
      <use x="450.048828" xlink:href="#DejaVuSans-118"/>
      <use x="509.228516" xlink:href="#DejaVuSans-101"/>
      <use x="570.751953" xlink:href="#DejaVuSans-32"/>
      <use x="602.539062" xlink:href="#DejaVuSans-99"/>
      <use x="657.519531" xlink:href="#DejaVuSans-97"/>
      <use x="718.798828" xlink:href="#DejaVuSans-115"/>
      <use x="770.898438" xlink:href="#DejaVuSans-101"/>
      <use x="832.421875" xlink:href="#DejaVuSans-115"/>
     </g>
    </g>
   </g>
   <g id="line2d_15">
    <path clip-path="url(#p9fc4cc3efc)" d="M 60.238992 126.402077 
L 62.703731 126.355414 
L 65.16847 126.308751 
L 67.633209 126.262088 
L 70.097948 126.215425 
L 72.562687 126.168762 
L 75.027426 126.083122 
L 77.492165 125.997386 
L 79.956904 125.874333 
L 82.421643 125.733054 
L 84.886382 125.571998 
L 87.351121 125.365994 
L 89.81586 125.130794 
L 92.280599 124.84508 
L 94.745339 124.529945 
L 97.210078 123.912274 
L 99.674817 123.382745 
L 102.139556 122.568152 
L 104.604295 121.286275 
L 107.069034 119.203354 
L 109.533773 113.147763 
L 111.998512 111.725201 
L 114.463251 110.806326 
L 116.92799 108.841127 
L 119.392729 107.661495 
L 121.857468 106.313097 
L 124.322207 104.887581 
L 126.786947 103.408461 
L 129.251686 102.356185 
L 131.716425 101.916186 
L 134.181164 100.617938 
L 136.645903 99.419075 
L 139.110642 98.335363 
L 141.575381 97.178624 
L 144.04012 95.855678 
L 146.504859 94.684115 
L 148.969598 94.197408 
" style="fill:none;stroke:#0000ff;stroke-linecap:square;stroke-opacity:0.5;"/>
   </g>
   <g id="line2d_16">
    <path clip-path="url(#p9fc4cc3efc)" d="M 151.434337 93.70358 
L 153.899076 93.215386 
L 156.363815 92.742607 
L 158.828554 92.290156 
L 161.293294 91.85931 
L 163.758033 91.44916 
L 166.222772 91.057679 
L 168.687511 90.682373 
L 171.15225 90.320642 
L 173.616989 89.969953 
L 176.081728 89.627913 
L 178.546467 89.292282 
L 181.011206 88.960966 
L 183.475945 88.631997 
L 185.940684 88.303509 
L 188.405423 87.973711 
L 190.870162 87.64087 
L 193.334901 87.303283 
L 195.799641 86.959265 
L 198.26438 86.607122 
L 200.729119 86.245141 
" style="fill:none;stroke:#008000;stroke-linecap:square;stroke-opacity:0.5;"/>
   </g>
   <g id="line2d_17">
    <path clip-path="url(#p9fc4cc3efc)" d="M 102.139556 126.44874 
L 102.139556 11.52 
" style="fill:none;stroke:#0000ff;stroke-dasharray:1.85,0.8;stroke-dashoffset:0;stroke-width:0.5;"/>
   </g>
   <g id="line2d_18">
    <path clip-path="url(#p9fc4cc3efc)" d="M 111.998512 126.44874 
L 111.998512 11.52 
" style="fill:none;stroke:#0000ff;stroke-dasharray:1.85,0.8;stroke-dashoffset:0;stroke-width:0.5;"/>
   </g>
   <g id="line2d_19">
    <path clip-path="url(#p9fc4cc3efc)" d="M 116.92799 126.44874 
L 116.92799 11.52 
" style="fill:none;stroke:#0000ff;stroke-dasharray:1.85,0.8;stroke-dashoffset:0;stroke-width:0.5;"/>
   </g>
   <g id="line2d_20">
    <path clip-path="url(#p9fc4cc3efc)" d="M 116.92799 126.44874 
L 116.92799 11.52 
" style="fill:none;stroke:#0000ff;stroke-dasharray:1.85,0.8;stroke-dashoffset:0;stroke-width:0.5;"/>
   </g>
   <g id="line2d_21">
    <path clip-path="url(#p9fc4cc3efc)" d="M 116.92799 126.44874 
L 116.92799 11.52 
" style="fill:none;stroke:#0000ff;stroke-dasharray:1.85,0.8;stroke-dashoffset:0;stroke-width:0.5;"/>
   </g>
   <g id="patch_61">
    <path d="M 52.13 126.44874 
L 52.13 11.52 
" style="fill:none;stroke:#000000;stroke-linecap:square;stroke-linejoin:miter;stroke-width:0.8;"/>
   </g>
   <g id="patch_62">
    <path d="M 208.83811 126.44874 
L 208.83811 11.52 
" style="fill:none;stroke:#000000;stroke-linecap:square;stroke-linejoin:miter;stroke-width:0.8;"/>
   </g>
   <g id="patch_63">
    <path d="M 52.13 126.44874 
L 208.83811 126.44874 
" style="fill:none;stroke:#000000;stroke-linecap:square;stroke-linejoin:miter;stroke-width:0.8;"/>
   </g>
   <g id="patch_64">
    <path d="M 52.13 11.52 
L 208.83811 11.52 
" style="fill:none;stroke:#000000;stroke-linecap:square;stroke-linejoin:miter;stroke-width:0.8;"/>
   </g>
   <g id="legend_1">
    <g id="line2d_22">
     <path d="M 59.33 103.04249 
L 75.33 103.04249 
" style="fill:none;stroke:#0000ff;stroke-linecap:square;stroke-opacity:0.5;"/>
    </g>
    <g id="line2d_23"/>
    <g id="text_16">
     <!-- Simulation -->
     <defs>
      <path d="M 53.515625 70.515625 
L 53.515625 60.890625 
Q 47.90625 63.578125 42.921875 64.890625 
Q 37.9375 66.21875 33.296875 66.21875 
Q 25.25 66.21875 20.875 63.09375 
Q 16.5 59.96875 16.5 54.203125 
Q 16.5 49.359375 19.40625 46.890625 
Q 22.3125 44.4375 30.421875 42.921875 
L 36.375 41.703125 
Q 47.40625 39.59375 52.65625 34.296875 
Q 57.90625 29 57.90625 20.125 
Q 57.90625 9.515625 50.796875 4.046875 
Q 43.703125 -1.421875 29.984375 -1.421875 
Q 24.8125 -1.421875 18.96875 -0.25 
Q 13.140625 0.921875 6.890625 3.21875 
L 6.890625 13.375 
Q 12.890625 10.015625 18.65625 8.296875 
Q 24.421875 6.59375 29.984375 6.59375 
Q 38.421875 6.59375 43.015625 9.90625 
Q 47.609375 13.234375 47.609375 19.390625 
Q 47.609375 24.75 44.3125 27.78125 
Q 41.015625 30.8125 33.5 32.328125 
L 27.484375 33.5 
Q 16.453125 35.6875 11.515625 40.375 
Q 6.59375 45.0625 6.59375 53.421875 
Q 6.59375 63.09375 13.40625 68.65625 
Q 20.21875 74.21875 32.171875 74.21875 
Q 37.3125 74.21875 42.625 73.28125 
Q 47.953125 72.359375 53.515625 70.515625 
z
" id="DejaVuSans-83"/>
      <path d="M 30.609375 48.390625 
Q 23.390625 48.390625 19.1875 42.75 
Q 14.984375 37.109375 14.984375 27.296875 
Q 14.984375 17.484375 19.15625 11.84375 
Q 23.34375 6.203125 30.609375 6.203125 
Q 37.796875 6.203125 41.984375 11.859375 
Q 46.1875 17.53125 46.1875 27.296875 
Q 46.1875 37.015625 41.984375 42.703125 
Q 37.796875 48.390625 30.609375 48.390625 
z
M 30.609375 56 
Q 42.328125 56 49.015625 48.375 
Q 55.71875 40.765625 55.71875 27.296875 
Q 55.71875 13.875 49.015625 6.21875 
Q 42.328125 -1.421875 30.609375 -1.421875 
Q 18.84375 -1.421875 12.171875 6.21875 
Q 5.515625 13.875 5.515625 27.296875 
Q 5.515625 40.765625 12.171875 48.375 
Q 18.84375 56 30.609375 56 
z
" id="DejaVuSans-111"/>
      <path d="M 54.890625 33.015625 
L 54.890625 0 
L 45.90625 0 
L 45.90625 32.71875 
Q 45.90625 40.484375 42.875 44.328125 
Q 39.84375 48.1875 33.796875 48.1875 
Q 26.515625 48.1875 22.3125 43.546875 
Q 18.109375 38.921875 18.109375 30.90625 
L 18.109375 0 
L 9.078125 0 
L 9.078125 54.6875 
L 18.109375 54.6875 
L 18.109375 46.1875 
Q 21.34375 51.125 25.703125 53.5625 
Q 30.078125 56 35.796875 56 
Q 45.21875 56 50.046875 50.171875 
Q 54.890625 44.34375 54.890625 33.015625 
z
" id="DejaVuSans-110"/>
     </defs>
     <g transform="translate(81.73 105.84249)scale(0.08 -0.08)">
      <use xlink:href="#DejaVuSans-83"/>
      <use x="63.476562" xlink:href="#DejaVuSans-105"/>
      <use x="91.259766" xlink:href="#DejaVuSans-109"/>
      <use x="188.671875" xlink:href="#DejaVuSans-117"/>
      <use x="252.050781" xlink:href="#DejaVuSans-108"/>
      <use x="279.833984" xlink:href="#DejaVuSans-97"/>
      <use x="341.113281" xlink:href="#DejaVuSans-116"/>
      <use x="380.322266" xlink:href="#DejaVuSans-105"/>
      <use x="408.105469" xlink:href="#DejaVuSans-111"/>
      <use x="469.287109" xlink:href="#DejaVuSans-110"/>
     </g>
    </g>
    <g id="line2d_24">
     <path d="M 59.33 114.78499 
L 75.33 114.78499 
" style="fill:none;stroke:#008000;stroke-linecap:square;stroke-opacity:0.5;"/>
    </g>
    <g id="line2d_25"/>
    <g id="text_17">
     <!-- Forecast -->
     <g transform="translate(81.73 117.58499)scale(0.08 -0.08)">
      <use xlink:href="#DejaVuSans-70"/>
      <use x="53.894531" xlink:href="#DejaVuSans-111"/>
      <use x="115.076172" xlink:href="#DejaVuSans-114"/>
      <use x="153.939453" xlink:href="#DejaVuSans-101"/>
      <use x="215.462891" xlink:href="#DejaVuSans-99"/>
      <use x="270.443359" xlink:href="#DejaVuSans-97"/>
      <use x="331.722656" xlink:href="#DejaVuSans-115"/>
      <use x="383.822266" xlink:href="#DejaVuSans-116"/>
     </g>
    </g>
   </g>
  </g>
  <g id="axes_2">
   <g id="matplotlib.axis_3">
    <g id="ytick_6">
     <g id="line2d_26">
      <defs>
       <path d="M 0 0 
L 3.5 0 
" id="m5c459519d8" style="stroke:#000000;stroke-width:0.8;"/>
      </defs>
      <g>
       <use style="stroke:#000000;stroke-width:0.8;" x="208.83811" xlink:href="#m5c459519d8" y="126.44874"/>
      </g>
     </g>
     <g id="text_18">
      <!-- 1.0 -->
      <defs>
       <path d="M 10.59375 35.5 
L 73.1875 35.5 
L 73.1875 27.203125 
L 10.59375 27.203125 
z
" id="DejaVuSans-8722"/>
       <path d="M 10.6875 12.40625 
L 21 12.40625 
L 21 0 
L 10.6875 0 
z
" id="DejaVuSans-46"/>
      </defs>
      <g transform="translate(215.83811 129.488115)scale(0.08 -0.08)">
       <use xlink:href="#DejaVuSans-8722"/>
       <use x="83.789062" xlink:href="#DejaVuSans-49"/>
       <use x="147.412109" xlink:href="#DejaVuSans-46"/>
       <use x="179.199219" xlink:href="#DejaVuSans-48"/>
      </g>
     </g>
    </g>
    <g id="ytick_7">
     <g id="line2d_27">
      <g>
       <use style="stroke:#000000;stroke-width:0.8;" x="208.83811" xlink:href="#m5c459519d8" y="85.402762"/>
      </g>
     </g>
     <g id="text_19">
      <!-- 0.5 -->
      <g transform="translate(215.83811 88.442137)scale(0.08 -0.08)">
       <use xlink:href="#DejaVuSans-8722"/>
       <use x="83.789062" xlink:href="#DejaVuSans-48"/>
       <use x="147.412109" xlink:href="#DejaVuSans-46"/>
       <use x="179.199219" xlink:href="#DejaVuSans-53"/>
      </g>
     </g>
    </g>
    <g id="ytick_8">
     <g id="line2d_28">
      <g>
       <use style="stroke:#000000;stroke-width:0.8;" x="208.83811" xlink:href="#m5c459519d8" y="44.356783"/>
      </g>
     </g>
     <g id="text_20">
      <!-- 0.0 -->
      <g transform="translate(215.83811 47.396158)scale(0.08 -0.08)">
       <use xlink:href="#DejaVuSans-48"/>
       <use x="63.623047" xlink:href="#DejaVuSans-46"/>
       <use x="95.410156" xlink:href="#DejaVuSans-48"/>
      </g>
     </g>
    </g>
    <g id="ytick_9">
     <g id="line2d_29">
      <g>
       <use style="stroke:#000000;stroke-width:0.8;" x="208.83811" xlink:href="#m5c459519d8" y="11.52"/>
      </g>
     </g>
     <g id="text_21">
      <!-- 0.4 -->
      <g transform="translate(215.83811 14.559375)scale(0.08 -0.08)">
       <use xlink:href="#DejaVuSans-48"/>
       <use x="63.623047" xlink:href="#DejaVuSans-46"/>
       <use x="95.410156" xlink:href="#DejaVuSans-52"/>
      </g>
     </g>
    </g>
    <g id="text_22">
     <!-- Relative change -->
     <defs>
      <path d="M 44.390625 34.1875 
Q 47.5625 33.109375 50.5625 29.59375 
Q 53.5625 26.078125 56.59375 19.921875 
L 66.609375 0 
L 56 0 
L 46.6875 18.703125 
Q 43.0625 26.03125 39.671875 28.421875 
Q 36.28125 30.8125 30.421875 30.8125 
L 19.671875 30.8125 
L 19.671875 0 
L 9.8125 0 
L 9.8125 72.90625 
L 32.078125 72.90625 
Q 44.578125 72.90625 50.734375 67.671875 
Q 56.890625 62.453125 56.890625 51.90625 
Q 56.890625 45.015625 53.6875 40.46875 
Q 50.484375 35.9375 44.390625 34.1875 
z
M 19.671875 64.796875 
L 19.671875 38.921875 
L 32.078125 38.921875 
Q 39.203125 38.921875 42.84375 42.21875 
Q 46.484375 45.515625 46.484375 51.90625 
Q 46.484375 58.296875 42.84375 61.546875 
Q 39.203125 64.796875 32.078125 64.796875 
z
" id="DejaVuSans-82"/>
      <path d="M 54.890625 33.015625 
L 54.890625 0 
L 45.90625 0 
L 45.90625 32.71875 
Q 45.90625 40.484375 42.875 44.328125 
Q 39.84375 48.1875 33.796875 48.1875 
Q 26.515625 48.1875 22.3125 43.546875 
Q 18.109375 38.921875 18.109375 30.90625 
L 18.109375 0 
L 9.078125 0 
L 9.078125 75.984375 
L 18.109375 75.984375 
L 18.109375 46.1875 
Q 21.34375 51.125 25.703125 53.5625 
Q 30.078125 56 35.796875 56 
Q 45.21875 56 50.046875 50.171875 
Q 54.890625 44.34375 54.890625 33.015625 
z
" id="DejaVuSans-104"/>
      <path d="M 45.40625 27.984375 
Q 45.40625 37.75 41.375 43.109375 
Q 37.359375 48.484375 30.078125 48.484375 
Q 22.859375 48.484375 18.828125 43.109375 
Q 14.796875 37.75 14.796875 27.984375 
Q 14.796875 18.265625 18.828125 12.890625 
Q 22.859375 7.515625 30.078125 7.515625 
Q 37.359375 7.515625 41.375 12.890625 
Q 45.40625 18.265625 45.40625 27.984375 
z
M 54.390625 6.78125 
Q 54.390625 -7.171875 48.1875 -13.984375 
Q 42 -20.796875 29.203125 -20.796875 
Q 24.46875 -20.796875 20.265625 -20.09375 
Q 16.0625 -19.390625 12.109375 -17.921875 
L 12.109375 -9.1875 
Q 16.0625 -11.328125 19.921875 -12.34375 
Q 23.78125 -13.375 27.78125 -13.375 
Q 36.625 -13.375 41.015625 -8.765625 
Q 45.40625 -4.15625 45.40625 5.171875 
L 45.40625 9.625 
Q 42.625 4.78125 38.28125 2.390625 
Q 33.9375 0 27.875 0 
Q 17.828125 0 11.671875 7.65625 
Q 5.515625 15.328125 5.515625 27.984375 
Q 5.515625 40.671875 11.671875 48.328125 
Q 17.828125 56 27.875 56 
Q 33.9375 56 38.28125 53.609375 
Q 42.625 51.21875 45.40625 46.390625 
L 45.40625 54.6875 
L 54.390625 54.6875 
z
" id="DejaVuSans-103"/>
     </defs>
     <g transform="translate(245.34311 101.10812)rotate(-90)scale(0.08 -0.08)">
      <use xlink:href="#DejaVuSans-82"/>
      <use x="64.982422" xlink:href="#DejaVuSans-101"/>
      <use x="126.505859" xlink:href="#DejaVuSans-108"/>
      <use x="154.289062" xlink:href="#DejaVuSans-97"/>
      <use x="215.568359" xlink:href="#DejaVuSans-116"/>
      <use x="254.777344" xlink:href="#DejaVuSans-105"/>
      <use x="282.560547" xlink:href="#DejaVuSans-118"/>
      <use x="341.740234" xlink:href="#DejaVuSans-101"/>
      <use x="403.263672" xlink:href="#DejaVuSans-32"/>
      <use x="435.050781" xlink:href="#DejaVuSans-99"/>
      <use x="490.03125" xlink:href="#DejaVuSans-104"/>
      <use x="553.410156" xlink:href="#DejaVuSans-97"/>
      <use x="614.689453" xlink:href="#DejaVuSans-110"/>
      <use x="678.068359" xlink:href="#DejaVuSans-103"/>
      <use x="741.544922" xlink:href="#DejaVuSans-101"/>
     </g>
    </g>
   </g>
   <g id="line2d_30">
    <path clip-path="url(#p9fc4cc3efc)" d="M 60.238992 36.968507 
L 62.703731 41.073105 
L 65.16847 36.968507 
L 67.633209 33.684828 
L 70.097948 46.819542 
L 72.562687 43.535863 
L 75.027426 45.177702 
L 77.492165 42.714944 
L 79.956904 44.356783 
L 82.421643 42.714944 
L 84.886382 45.177702 
L 87.351121 42.714944 
L 89.81586 43.535863 
L 92.280599 45.177702 
L 94.745339 41.073105 
L 97.210078 32.863909 
L 99.674817 45.177702 
L 102.139556 46.819542 
L 104.604295 49.2823 
L 107.069034 52.565979 
L 109.533773 60.775174 
L 111.998512 73.088968 
L 114.463251 92.791038 
L 116.92799 102.642073 
L 119.392729 109.209429 
L 121.857468 109.209429 
L 124.322207 110.030349 
L 126.786947 110.851268 
L 129.251686 116.597705 
L 131.716425 118.239544 
L 134.181164 109.209429 
L 136.645903 110.030349 
L 139.110642 110.851268 
L 141.575381 110.851268 
L 144.04012 110.030349 
L 146.504859 112.493107 
L 148.969598 115.776786 
" style="fill:none;stroke:#d62728;stroke-linecap:square;stroke-opacity:0.5;"/>
   </g>
   <g id="line2d_31">
    <path clip-path="url(#p9fc4cc3efc)" d="M 60.238992 41.894024 
L 62.703731 25.475633 
L 65.16847 36.147587 
L 67.633209 36.147587 
L 70.097948 36.147587 
L 72.562687 38.610346 
L 75.027426 36.968507 
L 77.492165 41.894024 
L 79.956904 37.789426 
L 82.421643 39.431265 
L 84.886382 41.073105 
L 87.351121 40.252185 
L 89.81586 41.894024 
L 92.280599 41.894024 
L 94.745339 44.356783 
L 97.210078 32.863909 
L 99.674817 41.073105 
L 102.139556 36.147587 
L 104.604295 30.40115 
L 107.069034 24.654713 
L 109.533773 6.594483 
L 111.998512 50.10322 
L 114.463251 70.626209 
L 116.92799 55.849657 
L 119.392729 70.626209 
L 121.857468 68.98437 
L 124.322207 68.163451 
L 126.786947 67.342531 
L 129.251686 76.372646 
L 131.716425 101.000233 
L 134.181164 69.80529 
L 136.645903 70.626209 
L 139.110642 72.268048 
L 141.575381 69.80529 
L 144.04012 65.700692 
L 146.504859 69.80529 
L 148.969598 96.895636 
" style="fill:none;stroke:#9467bd;stroke-linecap:square;stroke-opacity:0.5;"/>
   </g>
   <g id="line2d_32">
    <path clip-path="url(#p9fc4cc3efc)" d="M 60.238992 32.863909 
L 62.703731 40.252185 
L 65.16847 41.894024 
L 67.633209 38.610346 
L 70.097948 45.998622 
L 72.562687 44.356783 
L 75.027426 45.998622 
L 77.492165 44.356783 
L 79.956904 43.535863 
L 82.421643 43.535863 
L 84.886382 46.819542 
L 87.351121 44.356783 
L 89.81586 44.356783 
L 92.280599 45.998622 
L 94.745339 46.819542 
L 97.210078 40.252185 
L 99.674817 46.819542 
L 102.139556 46.819542 
L 104.604295 50.924139 
L 107.069034 51.745059 
L 109.533773 60.775174 
L 111.998512 72.268048 
L 114.463251 79.656325 
L 116.92799 90.328279 
L 119.392729 98.537475 
L 121.857468 97.716555 
L 124.322207 99.358394 
L 126.786947 100.179314 
L 129.251686 105.925751 
L 131.716425 106.74667 
L 134.181164 102.642073 
L 136.645903 102.642073 
L 139.110642 104.283912 
L 141.575381 103.462992 
L 144.04012 101.821153 
L 146.504859 98.537475 
L 148.969598 102.642073 
" style="fill:none;stroke:#e377c2;stroke-linecap:square;stroke-opacity:0.5;"/>
   </g>
   <g id="line2d_33">
    <path clip-path="url(#p9fc4cc3efc)" d="M 60.238992 42.714944 
L 62.703731 42.714944 
L 65.16847 42.714944 
L 67.633209 44.356783 
L 70.097948 44.356783 
L 72.562687 43.535863 
L 75.027426 43.535863 
L 77.492165 43.535863 
L 79.956904 42.714944 
L 82.421643 41.894024 
L 84.886382 42.714944 
L 87.351121 42.714944 
L 89.81586 43.535863 
L 92.280599 43.535863 
L 94.745339 44.356783 
L 97.210078 43.535863 
L 99.674817 43.535863 
L 102.139556 43.535863 
L 104.604295 45.177702 
L 107.069034 46.819542 
L 109.533773 49.2823 
L 111.998512 51.745059 
L 114.463251 59.133335 
L 116.92799 79.656325 
L 119.392729 89.507359 
L 121.857468 91.970118 
L 124.322207 93.611957 
L 126.786947 92.791038 
L 129.251686 88.68644 
L 131.716425 88.68644 
L 134.181164 93.611957 
L 136.645903 94.432877 
L 139.110642 95.253796 
L 141.575381 95.253796 
L 144.04012 93.611957 
L 146.504859 84.581842 
L 148.969598 86.223681 
" style="fill:none;stroke:#bcbd22;stroke-linecap:square;stroke-opacity:0.5;"/>
   </g>
   <g id="line2d_34">
    <path clip-path="url(#p9fc4cc3efc)" d="M 60.238992 45.998622 
L 62.703731 44.356783 
L 65.16847 45.177702 
L 67.633209 44.356783 
L 70.097948 43.535863 
L 72.562687 43.535863 
L 75.027426 43.535863 
L 77.492165 44.356783 
L 79.956904 44.356783 
L 82.421643 45.177702 
L 84.886382 43.535863 
L 87.351121 44.356783 
L 89.81586 44.356783 
L 92.280599 44.356783 
L 94.745339 44.356783 
L 97.210078 45.998622 
L 99.674817 44.356783 
L 102.139556 44.356783 
L 104.604295 43.535863 
L 107.069034 42.714944 
L 109.533773 40.252185 
L 111.998512 37.789426 
L 114.463251 37.789426 
L 116.92799 28.759311 
L 119.392729 24.654713 
L 121.857468 24.654713 
L 124.322207 23.833794 
L 126.786947 23.012874 
L 129.251686 27.938391 
L 131.716425 32.042989 
L 134.181164 23.833794 
L 136.645903 23.012874 
L 139.110642 22.191954 
L 141.575381 22.191954 
L 144.04012 22.191954 
L 146.504859 30.40115 
L 148.969598 32.863909 
" style="fill:none;stroke:#17becf;stroke-linecap:square;stroke-opacity:0.5;"/>
   </g>
   <g id="patch_65">
    <path d="M 52.13 126.44874 
L 52.13 11.52 
" style="fill:none;stroke:#000000;stroke-linecap:square;stroke-linejoin:miter;stroke-width:0.8;"/>
   </g>
   <g id="patch_66">
    <path d="M 208.83811 126.44874 
L 208.83811 11.52 
" style="fill:none;stroke:#000000;stroke-linecap:square;stroke-linejoin:miter;stroke-width:0.8;"/>
   </g>
   <g id="patch_67">
    <path d="M 52.13 126.44874 
L 208.83811 126.44874 
" style="fill:none;stroke:#000000;stroke-linecap:square;stroke-linejoin:miter;stroke-width:0.8;"/>
   </g>
   <g id="patch_68">
    <path d="M 52.13 11.52 
L 208.83811 11.52 
" style="fill:none;stroke:#000000;stroke-linecap:square;stroke-linejoin:miter;stroke-width:0.8;"/>
   </g>
  </g>
 </g>
 <defs>
  <clipPath id="p9fc4cc3efc">
   <rect height="114.92874" width="156.70811" x="52.13" y="11.52"/>
  </clipPath>
 </defs>
</svg>
