<?xml version="1.0" encoding="utf-8" standalone="no"?>
<!DOCTYPE svg PUBLIC "-//W3C//DTD SVG 1.1//EN"
  "http://www.w3.org/Graphics/SVG/1.1/DTD/svg11.dtd">
<!-- Created with matplotlib (https://matplotlib.org/) -->
<svg height="170.07874pt" version="1.1" viewBox="0 0 255.11811 170.07874" width="255.11811pt" xmlns="http://www.w3.org/2000/svg" xmlns:xlink="http://www.w3.org/1999/xlink">
 <defs>
  <style type="text/css">
*{stroke-linecap:butt;stroke-linejoin:round;}
  </style>
 </defs>
 <g id="figure_1">
  <g id="patch_1">
   <path d="M 0 170.07874 
L 255.11811 170.07874 
L 255.11811 0 
L 0 0 
z
" style="fill:#ffffff;"/>
  </g>
  <g id="axes_1">
   <g id="patch_2">
    <path d="M 37.01 126.44874 
L 208.83811 126.44874 
L 208.83811 11.52 
L 37.01 11.52 
z
" style="fill:#ffffff;"/>
   </g>
   <g id="PolyCollection_1">
    <defs>
     <path d="M 45.901389 -43.63 
L 45.901389 -43.63 
L 48.603938 -43.63 
L 51.306488 -43.630153 
L 54.009038 -43.630667 
L 56.711587 -43.631858 
L 59.414137 -43.634075 
L 62.116687 -43.637648 
L 64.819236 -43.642856 
L 67.521786 -43.650176 
L 70.224336 -43.660091 
L 72.926886 -43.67333 
L 75.629435 -43.691121 
L 78.331985 -43.714747 
L 81.034535 -43.745722 
L 83.737084 -43.783499 
L 86.439634 -43.833446 
L 89.142184 -43.90117 
L 91.844734 -43.985316 
L 94.547283 -44.097588 
L 97.249833 -44.245273 
L 99.952383 -44.45125 
L 102.654932 -44.736426 
L 105.357482 -45.197558 
L 108.060032 -45.881726 
L 110.762581 -46.824645 
L 113.465131 -48.039976 
L 116.167681 -49.523034 
L 118.870231 -51.205727 
L 121.57278 -53.050613 
L 124.27533 -55.001767 
L 126.97788 -57.035647 
L 129.680429 -58.992862 
L 132.382979 -60.989202 
L 135.085529 -62.89673 
L 137.788078 -64.678206 
L 140.490628 -66.412371 
L 143.193178 -67.929273 
L 143.193178 -101.096576 
L 143.193178 -101.096576 
L 140.490628 -96.762968 
L 137.788078 -92.186674 
L 135.085529 -87.829368 
L 132.382979 -83.286513 
L 129.680429 -78.661471 
L 126.97788 -74.04117 
L 124.27533 -69.595257 
L 121.57278 -65.391708 
L 118.870231 -61.575023 
L 116.167681 -58.28663 
L 113.465131 -55.480534 
L 110.762581 -53.142085 
L 108.060032 -51.409454 
L 105.357482 -49.947922 
L 102.654932 -48.857401 
L 99.952383 -47.968036 
L 97.249833 -47.256126 
L 94.547283 -46.671957 
L 91.844734 -46.166237 
L 89.142184 -45.722194 
L 86.439634 -45.344269 
L 83.737084 -45.014061 
L 81.034535 -44.73342 
L 78.331985 -44.491727 
L 75.629435 -44.288661 
L 72.926886 -44.118966 
L 70.224336 -43.980267 
L 67.521786 -43.869679 
L 64.819236 -43.784404 
L 62.116687 -43.721856 
L 59.414137 -43.678938 
L 56.711587 -43.652321 
L 54.009038 -43.638016 
L 51.306488 -43.631838 
L 48.603938 -43.63 
L 45.901389 -43.63 
z
" id="mb2fb182ba5" style="stroke:#6495ed;stroke-opacity:0.4;"/>
    </defs>
    <g clip-path="url(#p661a328fe6)">
     <use style="fill:#6495ed;fill-opacity:0.4;stroke:#6495ed;stroke-opacity:0.4;" x="0" xlink:href="#mb2fb182ba5" y="170.07874"/>
    </g>
   </g>
   <g id="PolyCollection_2">
    <defs>
     <path d="M 45.901389 -43.63 
L 45.901389 -43.63 
L 48.603938 -43.63 
L 51.306488 -43.630355 
L 54.009038 -43.631548 
L 56.711587 -43.63431 
L 59.414137 -43.63945 
L 62.116687 -43.647738 
L 64.819236 -43.659816 
L 67.521786 -43.676589 
L 70.224336 -43.698861 
L 72.926886 -43.727997 
L 75.629435 -43.765609 
L 78.331985 -43.814009 
L 81.034535 -43.875028 
L 83.737084 -43.951795 
L 86.439634 -44.048749 
L 89.142184 -44.167952 
L 91.844734 -44.318342 
L 94.547283 -44.506257 
L 97.249833 -44.744778 
L 99.952383 -45.053142 
L 102.654932 -45.465218 
L 105.357482 -46.083721 
L 108.060032 -46.956793 
L 110.762581 -48.145763 
L 113.465131 -49.67331 
L 116.167681 -51.497585 
L 118.870231 -53.615619 
L 121.57278 -55.948401 
L 124.27533 -58.482803 
L 126.97788 -61.074886 
L 129.680429 -63.752914 
L 132.382979 -66.38314 
L 135.085529 -68.998923 
L 137.788078 -71.486644 
L 140.490628 -73.781968 
L 143.193178 -75.922435 
L 143.193178 -86.729808 
L 143.193178 -86.729808 
L 140.490628 -83.740419 
L 137.788078 -80.561419 
L 135.085529 -77.248071 
L 132.382979 -73.788884 
L 129.680429 -70.281273 
L 126.97788 -66.778855 
L 124.27533 -63.414642 
L 121.57278 -60.147803 
L 118.870231 -57.131436 
L 116.167681 -54.428624 
L 113.465131 -52.137285 
L 110.762581 -50.259825 
L 108.060032 -48.735316 
L 105.357482 -47.609175 
L 102.654932 -46.770807 
L 99.952383 -46.162524 
L 97.249833 -45.681549 
L 94.547283 -45.290427 
L 91.844734 -44.97102 
L 89.142184 -44.711258 
L 86.439634 -44.491716 
L 83.737084 -44.310431 
L 81.034535 -44.160068 
L 78.331985 -44.035448 
L 75.629435 -43.934791 
L 72.926886 -43.853625 
L 70.224336 -43.788553 
L 67.521786 -43.737918 
L 64.819236 -43.699384 
L 62.116687 -43.671277 
L 59.414137 -43.651991 
L 56.711587 -43.64003 
L 54.009038 -43.633602 
L 51.306488 -43.630826 
L 48.603938 -43.63 
L 45.901389 -43.63 
z
" id="mb93fa58217" style="stroke:#6495ed;stroke-opacity:0.6;"/>
    </defs>
    <g clip-path="url(#p661a328fe6)">
     <use style="fill:#6495ed;fill-opacity:0.6;stroke:#6495ed;stroke-opacity:0.6;" x="0" xlink:href="#mb93fa58217" y="170.07874"/>
    </g>
   </g>
   <g id="PolyCollection_3">
    <defs>
     <path d="M 143.193178 -101.096576 
L 143.193178 -67.929273 
L 145.895728 -69.185734 
L 148.598277 -70.188984 
L 151.300827 -71.189269 
L 154.003377 -71.680327 
L 156.705926 -71.841568 
L 159.408476 -71.722045 
L 162.111026 -71.619195 
L 164.813576 -71.187376 
L 167.516125 -70.633547 
L 170.218675 -69.929195 
L 172.921225 -69.092103 
L 175.623774 -68.027223 
L 178.326324 -67.027919 
L 181.028874 -65.803129 
L 183.731423 -64.521762 
L 186.433973 -63.26456 
L 189.136523 -62.056782 
L 191.839073 -60.868328 
L 194.541622 -59.615459 
L 197.244172 -58.495512 
L 199.946722 -57.363539 
L 199.946722 -158.55874 
L 199.946722 -158.55874 
L 197.244172 -157.495069 
L 194.541622 -157.299263 
L 191.839073 -157.136684 
L 189.136523 -156.163159 
L 186.433973 -154.117015 
L 183.731423 -152.883738 
L 181.028874 -150.423989 
L 178.326324 -148.448172 
L 175.623774 -145.913013 
L 172.921225 -142.704054 
L 170.218675 -139.825344 
L 167.516125 -136.190587 
L 164.813576 -132.149918 
L 162.111026 -128.624948 
L 159.408476 -123.92228 
L 156.705926 -120.077605 
L 154.003377 -116.547804 
L 151.300827 -112.438524 
L 148.598277 -108.97362 
L 145.895728 -105.08789 
L 143.193178 -101.096576 
z
" id="ma291b71ec2" style="stroke:#228b22;stroke-opacity:0.4;"/>
    </defs>
    <g clip-path="url(#p661a328fe6)">
     <use style="fill:#228b22;fill-opacity:0.4;stroke:#228b22;stroke-opacity:0.4;" x="0" xlink:href="#ma291b71ec2" y="170.07874"/>
    </g>
   </g>
   <g id="PolyCollection_4">
    <defs>
     <path d="M 143.193178 -86.729808 
L 143.193178 -75.922435 
L 145.895728 -77.811018 
L 148.598277 -79.497894 
L 151.300827 -80.794262 
L 154.003377 -81.852734 
L 156.705926 -82.507027 
L 159.408476 -82.960081 
L 162.111026 -83.055159 
L 164.813576 -82.939636 
L 167.516125 -82.572435 
L 170.218675 -81.96194 
L 172.921225 -80.965343 
L 175.623774 -79.897678 
L 178.326324 -78.59928 
L 181.028874 -77.172528 
L 183.731423 -75.708904 
L 186.433973 -74.164935 
L 189.136523 -72.568365 
L 191.839073 -70.928315 
L 194.541622 -69.28696 
L 197.244172 -67.616737 
L 199.946722 -66.080377 
L 199.946722 -86.236695 
L 199.946722 -86.236695 
L 197.244172 -88.303615 
L 194.541622 -90.335788 
L 191.839073 -92.225428 
L 189.136523 -94.171048 
L 186.433973 -95.77009 
L 183.731423 -97.279592 
L 181.028874 -98.683875 
L 178.326324 -99.899826 
L 175.623774 -100.767436 
L 172.921225 -101.077204 
L 170.218675 -101.557579 
L 167.516125 -101.596071 
L 164.813576 -101.062197 
L 162.111026 -100.422162 
L 159.408476 -99.472749 
L 156.705926 -98.030811 
L 154.003377 -96.356444 
L 151.300827 -94.283162 
L 148.598277 -92.017074 
L 145.895728 -89.464897 
L 143.193178 -86.729808 
z
" id="mec0853093d" style="stroke:#228b22;stroke-opacity:0.6;"/>
    </defs>
    <g clip-path="url(#p661a328fe6)">
     <use style="fill:#228b22;fill-opacity:0.6;stroke:#228b22;stroke-opacity:0.6;" x="0" xlink:href="#mec0853093d" y="170.07874"/>
    </g>
   </g>
   <g id="PathCollection_1">
    <defs>
     <path d="M -0.866025 1.732051 
L 0 0.866025 
L 0.866025 1.732051 
L 1.732051 0.866025 
L 0.866025 0 
L 1.732051 -0.866025 
L 0.866025 -1.732051 
L 0 -0.866025 
L -0.866025 -1.732051 
L -1.732051 -0.866025 
L -0.866025 0 
L -1.732051 0.866025 
z
" id="m5381d93270" style="stroke:#8a2be2;"/>
    </defs>
    <g clip-path="url(#p661a328fe6)">
     <use style="fill:#8a2be2;stroke:#8a2be2;" x="91.844734" xlink:href="#m5381d93270" y="23.012874"/>
    </g>
   </g>
   <g id="PathCollection_2">
    <defs>
     <path d="M 0 -1.732051 
L -0.38887 -0.535233 
L -1.647278 -0.535233 
L -0.629204 0.204441 
L -1.018074 1.401259 
L -0 0.661585 
L 1.018074 1.401259 
L 0.629204 0.204441 
L 1.647278 -0.535233 
L 0.38887 -0.535233 
z
" id="mb1bf948e98" style="stroke:#000000;"/>
    </defs>
    <g clip-path="url(#p661a328fe6)">
     <use style="stroke:#000000;" x="102.654932" xlink:href="#mb1bf948e98" y="23.012874"/>
    </g>
   </g>
   <g id="PathCollection_3">
    <defs>
     <path d="M -1.732051 1.732051 
L 1.732051 1.732051 
L 1.732051 -1.732051 
L -1.732051 -1.732051 
z
" id="m249d19017a" style="stroke:#c71585;"/>
    </defs>
    <g clip-path="url(#p661a328fe6)">
     <use style="fill:#c71585;stroke:#c71585;" x="108.060032" xlink:href="#m249d19017a" y="23.012874"/>
    </g>
   </g>
   <g id="PathCollection_4">
    <defs>
     <path d="M 0 -1.732051 
L -1.647278 -0.535233 
L -1.018074 1.401259 
L 1.018074 1.401259 
L 1.647278 -0.535233 
z
" id="mde693b7c10" style="stroke:#800000;"/>
    </defs>
    <g clip-path="url(#p661a328fe6)">
     <use style="fill:#800000;stroke:#800000;" x="108.060032" xlink:href="#mde693b7c10" y="28.184667"/>
    </g>
   </g>
   <g id="PathCollection_5">
    <defs>
     <path d="M -0 2.44949 
L 1.469694 0 
L 0 -2.44949 
L -1.469694 -0 
z
" id="mf9efa323c6" style="stroke:#556b2f;"/>
    </defs>
    <g clip-path="url(#p661a328fe6)">
     <use style="fill:#556b2f;stroke:#556b2f;" x="108.060032" xlink:href="#mf9efa323c6" y="28.184667"/>
    </g>
   </g>
   <g id="patch_3">
    <path clip-path="url(#p661a328fe6)" d="M 44.820369 126.44874 
L 46.982408 126.44874 
L 46.982408 126.44874 
L 44.820369 126.44874 
z
" style="fill:#1f77b4;opacity:0.5;"/>
   </g>
   <g id="patch_4">
    <path clip-path="url(#p661a328fe6)" d="M 47.522918 126.44874 
L 49.684958 126.44874 
L 49.684958 126.44874 
L 47.522918 126.44874 
z
" style="fill:#1f77b4;opacity:0.5;"/>
   </g>
   <g id="patch_5">
    <path clip-path="url(#p661a328fe6)" d="M 50.225468 126.44874 
L 52.387508 126.44874 
L 52.387508 126.44874 
L 50.225468 126.44874 
z
" style="fill:#1f77b4;opacity:0.5;"/>
   </g>
   <g id="patch_6">
    <path clip-path="url(#p661a328fe6)" d="M 52.928018 126.44874 
L 55.090058 126.44874 
L 55.090058 126.44874 
L 52.928018 126.44874 
z
" style="fill:#1f77b4;opacity:0.5;"/>
   </g>
   <g id="patch_7">
    <path clip-path="url(#p661a328fe6)" d="M 55.630567 126.44874 
L 57.792607 126.44874 
L 57.792607 126.44874 
L 55.630567 126.44874 
z
" style="fill:#1f77b4;opacity:0.5;"/>
   </g>
   <g id="patch_8">
    <path clip-path="url(#p661a328fe6)" d="M 58.333117 126.44874 
L 60.495157 126.44874 
L 60.495157 126.44874 
L 58.333117 126.44874 
z
" style="fill:#1f77b4;opacity:0.5;"/>
   </g>
   <g id="patch_9">
    <path clip-path="url(#p661a328fe6)" d="M 61.035667 126.44874 
L 63.197707 126.44874 
L 63.197707 126.44874 
L 61.035667 126.44874 
z
" style="fill:#1f77b4;opacity:0.5;"/>
   </g>
   <g id="patch_10">
    <path clip-path="url(#p661a328fe6)" d="M 63.738217 126.44874 
L 65.900256 126.44874 
L 65.900256 126.44874 
L 63.738217 126.44874 
z
" style="fill:#1f77b4;opacity:0.5;"/>
   </g>
   <g id="patch_11">
    <path clip-path="url(#p661a328fe6)" d="M 66.440766 126.44874 
L 68.602806 126.44874 
L 68.602806 126.44874 
L 66.440766 126.44874 
z
" style="fill:#1f77b4;opacity:0.5;"/>
   </g>
   <g id="patch_12">
    <path clip-path="url(#p661a328fe6)" d="M 69.143316 126.44874 
L 71.305356 126.44874 
L 71.305356 126.44874 
L 69.143316 126.44874 
z
" style="fill:#1f77b4;opacity:0.5;"/>
   </g>
   <g id="patch_13">
    <path clip-path="url(#p661a328fe6)" d="M 71.845866 126.44874 
L 74.007905 126.44874 
L 74.007905 126.44874 
L 71.845866 126.44874 
z
" style="fill:#1f77b4;opacity:0.5;"/>
   </g>
   <g id="patch_14">
    <path clip-path="url(#p661a328fe6)" d="M 74.548415 126.44874 
L 76.710455 126.44874 
L 76.710455 126.44874 
L 74.548415 126.44874 
z
" style="fill:#1f77b4;opacity:0.5;"/>
   </g>
   <g id="patch_15">
    <path clip-path="url(#p661a328fe6)" d="M 77.250965 126.44874 
L 79.413005 126.44874 
L 79.413005 126.44874 
L 77.250965 126.44874 
z
" style="fill:#1f77b4;opacity:0.5;"/>
   </g>
   <g id="patch_16">
    <path clip-path="url(#p661a328fe6)" d="M 79.953515 126.44874 
L 82.115555 126.44874 
L 82.115555 126.44874 
L 79.953515 126.44874 
z
" style="fill:#1f77b4;opacity:0.5;"/>
   </g>
   <g id="patch_17">
    <path clip-path="url(#p661a328fe6)" d="M 82.656065 126.44874 
L 84.818104 126.44874 
L 84.818104 126.44874 
L 82.656065 126.44874 
z
" style="fill:#1f77b4;opacity:0.5;"/>
   </g>
   <g id="patch_18">
    <path clip-path="url(#p661a328fe6)" d="M 85.358614 126.44874 
L 87.520654 126.44874 
L 87.520654 126.44874 
L 85.358614 126.44874 
z
" style="fill:#1f77b4;opacity:0.5;"/>
   </g>
   <g id="patch_19">
    <path clip-path="url(#p661a328fe6)" d="M 88.061164 126.44874 
L 90.223204 126.44874 
L 90.223204 126.44874 
L 88.061164 126.44874 
z
" style="fill:#1f77b4;opacity:0.5;"/>
   </g>
   <g id="patch_20">
    <path clip-path="url(#p661a328fe6)" d="M 90.763714 126.44874 
L 92.925753 126.44874 
L 92.925753 126.44874 
L 90.763714 126.44874 
z
" style="fill:#1f77b4;opacity:0.5;"/>
   </g>
   <g id="patch_21">
    <path clip-path="url(#p661a328fe6)" d="M 93.466263 126.44874 
L 95.628303 126.44874 
L 95.628303 126.44874 
L 93.466263 126.44874 
z
" style="fill:#1f77b4;opacity:0.5;"/>
   </g>
   <g id="patch_22">
    <path clip-path="url(#p661a328fe6)" d="M 96.168813 126.44874 
L 98.330853 126.44874 
L 98.330853 126.44874 
L 96.168813 126.44874 
z
" style="fill:#1f77b4;opacity:0.5;"/>
   </g>
   <g id="patch_23">
    <path clip-path="url(#p661a328fe6)" d="M 98.871363 126.44874 
L 101.033403 126.44874 
L 101.033403 123.127107 
L 98.871363 123.127107 
z
" style="fill:#1f77b4;opacity:0.5;"/>
   </g>
   <g id="patch_24">
    <path clip-path="url(#p661a328fe6)" d="M 101.573912 126.44874 
L 103.735952 126.44874 
L 103.735952 126.44874 
L 101.573912 126.44874 
z
" style="fill:#1f77b4;opacity:0.5;"/>
   </g>
   <g id="patch_25">
    <path clip-path="url(#p661a328fe6)" d="M 104.276462 126.44874 
L 106.438502 126.44874 
L 106.438502 126.44874 
L 104.276462 126.44874 
z
" style="fill:#1f77b4;opacity:0.5;"/>
   </g>
   <g id="patch_26">
    <path clip-path="url(#p661a328fe6)" d="M 106.979012 126.44874 
L 109.141052 126.44874 
L 109.141052 126.44874 
L 106.979012 126.44874 
z
" style="fill:#1f77b4;opacity:0.5;"/>
   </g>
   <g id="patch_27">
    <path clip-path="url(#p661a328fe6)" d="M 109.681562 126.44874 
L 111.843601 126.44874 
L 111.843601 119.805474 
L 109.681562 119.805474 
z
" style="fill:#1f77b4;opacity:0.5;"/>
   </g>
   <g id="patch_28">
    <path clip-path="url(#p661a328fe6)" d="M 112.384111 126.44874 
L 114.546151 126.44874 
L 114.546151 126.44874 
L 112.384111 126.44874 
z
" style="fill:#1f77b4;opacity:0.5;"/>
   </g>
   <g id="patch_29">
    <path clip-path="url(#p661a328fe6)" d="M 115.086661 126.44874 
L 117.248701 126.44874 
L 117.248701 123.127107 
L 115.086661 123.127107 
z
" style="fill:#1f77b4;opacity:0.5;"/>
   </g>
   <g id="patch_30">
    <path clip-path="url(#p661a328fe6)" d="M 117.789211 126.44874 
L 119.95125 126.44874 
L 119.95125 119.805474 
L 117.789211 119.805474 
z
" style="fill:#1f77b4;opacity:0.5;"/>
   </g>
   <g id="patch_31">
    <path clip-path="url(#p661a328fe6)" d="M 120.49176 126.44874 
L 122.6538 126.44874 
L 122.6538 126.44874 
L 120.49176 126.44874 
z
" style="fill:#1f77b4;opacity:0.5;"/>
   </g>
   <g id="patch_32">
    <path clip-path="url(#p661a328fe6)" d="M 123.19431 126.44874 
L 125.35635 126.44874 
L 125.35635 119.805474 
L 123.19431 119.805474 
z
" style="fill:#1f77b4;opacity:0.5;"/>
   </g>
   <g id="patch_33">
    <path clip-path="url(#p661a328fe6)" d="M 125.89686 126.44874 
L 128.0589 126.44874 
L 128.0589 99.875676 
L 125.89686 99.875676 
z
" style="fill:#1f77b4;opacity:0.5;"/>
   </g>
   <g id="patch_34">
    <path clip-path="url(#p661a328fe6)" d="M 128.599409 126.44874 
L 130.761449 126.44874 
L 130.761449 96.554043 
L 128.599409 96.554043 
z
" style="fill:#1f77b4;opacity:0.5;"/>
   </g>
   <g id="patch_35">
    <path clip-path="url(#p661a328fe6)" d="M 131.301959 126.44874 
L 133.463999 126.44874 
L 133.463999 109.840575 
L 131.301959 109.840575 
z
" style="fill:#1f77b4;opacity:0.5;"/>
   </g>
   <g id="patch_36">
    <path clip-path="url(#p661a328fe6)" d="M 134.004509 126.44874 
L 136.166549 126.44874 
L 136.166549 113.162208 
L 134.004509 113.162208 
z
" style="fill:#1f77b4;opacity:0.5;"/>
   </g>
   <g id="patch_37">
    <path clip-path="url(#p661a328fe6)" d="M 136.707059 126.44874 
L 138.869098 126.44874 
L 138.869098 66.659345 
L 136.707059 66.659345 
z
" style="fill:#1f77b4;opacity:0.5;"/>
   </g>
   <g id="patch_38">
    <path clip-path="url(#p661a328fe6)" d="M 139.409608 126.44874 
L 141.571648 126.44874 
L 141.571648 73.302611 
L 139.409608 73.302611 
z
" style="fill:#1f77b4;opacity:0.5;"/>
   </g>
   <g id="patch_39">
    <path clip-path="url(#p661a328fe6)" d="M 142.112158 126.44874 
L 144.274198 126.44874 
L 144.274198 126.44874 
L 142.112158 126.44874 
z
" style="fill:#1f77b4;opacity:0.5;"/>
   </g>
   <g id="patch_40">
    <path clip-path="url(#p661a328fe6)" d="M 144.814708 126.44874 
L 146.976747 126.44874 
L 146.976747 66.659345 
L 144.814708 66.659345 
z
" style="fill:#1f77b4;opacity:0.5;"/>
   </g>
   <g id="patch_41">
    <path clip-path="url(#p661a328fe6)" d="M 147.517257 126.44874 
L 149.679297 126.44874 
L 149.679297 53.372813 
L 147.517257 53.372813 
z
" style="fill:#1f77b4;opacity:0.5;"/>
   </g>
   <g id="patch_42">
    <path clip-path="url(#p661a328fe6)" d="M 150.219807 126.44874 
L 152.381847 126.44874 
L 152.381847 60.016079 
L 150.219807 60.016079 
z
" style="fill:#1f77b4;opacity:0.5;"/>
   </g>
   <g id="patch_43">
    <path clip-path="url(#p661a328fe6)" d="M 152.922357 126.44874 
L 155.084397 126.44874 
L 155.084397 66.659345 
L 152.922357 66.659345 
z
" style="fill:#1f77b4;opacity:0.5;"/>
   </g>
   <g id="patch_44">
    <path clip-path="url(#p661a328fe6)" d="M 155.624907 126.44874 
L 157.786946 126.44874 
L 157.786946 86.589143 
L 155.624907 86.589143 
z
" style="fill:#1f77b4;opacity:0.5;"/>
   </g>
   <g id="patch_45">
    <path clip-path="url(#p661a328fe6)" d="M 158.327456 126.44874 
L 160.489496 126.44874 
L 160.489496 93.232409 
L 158.327456 93.232409 
z
" style="fill:#1f77b4;opacity:0.5;"/>
   </g>
   <g id="patch_46">
    <path clip-path="url(#p661a328fe6)" d="M 161.030006 126.44874 
L 163.192046 126.44874 
L 163.192046 66.659345 
L 161.030006 66.659345 
z
" style="fill:#1f77b4;opacity:0.5;"/>
   </g>
   <g id="patch_47">
    <path clip-path="url(#p661a328fe6)" d="M 163.732556 126.44874 
L 165.894595 126.44874 
L 165.894595 66.659345 
L 163.732556 66.659345 
z
" style="fill:#1f77b4;opacity:0.5;"/>
   </g>
   <g id="patch_48">
    <path clip-path="url(#p661a328fe6)" d="M 166.435105 126.44874 
L 168.597145 126.44874 
L 168.597145 73.302611 
L 166.435105 73.302611 
z
" style="fill:#1f77b4;opacity:0.5;"/>
   </g>
   <g id="patch_49">
    <path clip-path="url(#p661a328fe6)" d="M 169.137655 126.44874 
L 171.299695 126.44874 
L 171.299695 50.05118 
L 169.137655 50.05118 
z
" style="fill:#1f77b4;opacity:0.5;"/>
   </g>
   <g id="patch_50">
    <path clip-path="url(#p661a328fe6)" d="M 171.840205 126.44874 
L 174.002245 126.44874 
L 174.002245 26.799748 
L 171.840205 26.799748 
z
" style="fill:#1f77b4;opacity:0.5;"/>
   </g>
   <g id="patch_51">
    <path clip-path="url(#p661a328fe6)" d="M 174.542754 126.44874 
L 176.704794 126.44874 
L 176.704794 53.372813 
L 174.542754 53.372813 
z
" style="fill:#1f77b4;opacity:0.5;"/>
   </g>
   <g id="patch_52">
    <path clip-path="url(#p661a328fe6)" d="M 177.245304 126.44874 
L 179.407344 126.44874 
L 179.407344 46.729546 
L 177.245304 46.729546 
z
" style="fill:#1f77b4;opacity:0.5;"/>
   </g>
   <g id="patch_53">
    <path clip-path="url(#p661a328fe6)" d="M 179.947854 126.44874 
L 182.109894 126.44874 
L 182.109894 66.659345 
L 179.947854 66.659345 
z
" style="fill:#1f77b4;opacity:0.5;"/>
   </g>
   <g id="patch_54">
    <path clip-path="url(#p661a328fe6)" d="M 182.650404 126.44874 
L 184.812443 126.44874 
L 184.812443 83.26751 
L 182.650404 83.26751 
z
" style="fill:#1f77b4;opacity:0.5;"/>
   </g>
   <g id="patch_55">
    <path clip-path="url(#p661a328fe6)" d="M 185.352953 126.44874 
L 187.514993 126.44874 
L 187.514993 66.659345 
L 185.352953 66.659345 
z
" style="fill:#1f77b4;opacity:0.5;"/>
   </g>
   <g id="patch_56">
    <path clip-path="url(#p661a328fe6)" d="M 188.055503 126.44874 
L 190.217543 126.44874 
L 190.217543 73.302611 
L 188.055503 73.302611 
z
" style="fill:#1f77b4;opacity:0.5;"/>
   </g>
   <g id="patch_57">
    <path clip-path="url(#p661a328fe6)" d="M 190.758053 126.44874 
L 192.920092 126.44874 
L 192.920092 96.554043 
L 190.758053 96.554043 
z
" style="fill:#1f77b4;opacity:0.5;"/>
   </g>
   <g id="patch_58">
    <path clip-path="url(#p661a328fe6)" d="M 193.460602 126.44874 
L 195.622642 126.44874 
L 195.622642 69.980978 
L 193.460602 69.980978 
z
" style="fill:#1f77b4;opacity:0.5;"/>
   </g>
   <g id="patch_59">
    <path clip-path="url(#p661a328fe6)" d="M 196.163152 126.44874 
L 198.325192 126.44874 
L 198.325192 56.694446 
L 196.163152 56.694446 
z
" style="fill:#1f77b4;opacity:0.5;"/>
   </g>
   <g id="patch_60">
    <path clip-path="url(#p661a328fe6)" d="M 198.865702 126.44874 
L 201.027742 126.44874 
L 201.027742 86.589143 
L 198.865702 86.589143 
z
" style="fill:#1f77b4;opacity:0.5;"/>
   </g>
   <g id="matplotlib.axis_1">
    <g id="xtick_1">
     <g id="line2d_1">
      <defs>
       <path d="M 0 0 
L 0 3.5 
" id="md28308a922" style="stroke:#000000;stroke-width:0.8;"/>
      </defs>
      <g>
       <use style="stroke:#000000;stroke-width:0.8;" x="199.946722" xlink:href="#md28308a922" y="126.44874"/>
      </g>
     </g>
     <g id="text_1">
      <!-- 19 Apr -->
      <defs>
       <path d="M 12.40625 8.296875 
L 28.515625 8.296875 
L 28.515625 63.921875 
L 10.984375 60.40625 
L 10.984375 69.390625 
L 28.421875 72.90625 
L 38.28125 72.90625 
L 38.28125 8.296875 
L 54.390625 8.296875 
L 54.390625 0 
L 12.40625 0 
z
" id="DejaVuSans-49"/>
       <path d="M 10.984375 1.515625 
L 10.984375 10.5 
Q 14.703125 8.734375 18.5 7.8125 
Q 22.3125 6.890625 25.984375 6.890625 
Q 35.75 6.890625 40.890625 13.453125 
Q 46.046875 20.015625 46.78125 33.40625 
Q 43.953125 29.203125 39.59375 26.953125 
Q 35.25 24.703125 29.984375 24.703125 
Q 19.046875 24.703125 12.671875 31.3125 
Q 6.296875 37.9375 6.296875 49.421875 
Q 6.296875 60.640625 12.9375 67.421875 
Q 19.578125 74.21875 30.609375 74.21875 
Q 43.265625 74.21875 49.921875 64.515625 
Q 56.59375 54.828125 56.59375 36.375 
Q 56.59375 19.140625 48.40625 8.859375 
Q 40.234375 -1.421875 26.421875 -1.421875 
Q 22.703125 -1.421875 18.890625 -0.6875 
Q 15.09375 0.046875 10.984375 1.515625 
z
M 30.609375 32.421875 
Q 37.25 32.421875 41.125 36.953125 
Q 45.015625 41.5 45.015625 49.421875 
Q 45.015625 57.28125 41.125 61.84375 
Q 37.25 66.40625 30.609375 66.40625 
Q 23.96875 66.40625 20.09375 61.84375 
Q 16.21875 57.28125 16.21875 49.421875 
Q 16.21875 41.5 20.09375 36.953125 
Q 23.96875 32.421875 30.609375 32.421875 
z
" id="DejaVuSans-57"/>
       <path id="DejaVuSans-32"/>
       <path d="M 34.1875 63.1875 
L 20.796875 26.90625 
L 47.609375 26.90625 
z
M 28.609375 72.90625 
L 39.796875 72.90625 
L 67.578125 0 
L 57.328125 0 
L 50.6875 18.703125 
L 17.828125 18.703125 
L 11.1875 0 
L 0.78125 0 
z
" id="DejaVuSans-65"/>
       <path d="M 18.109375 8.203125 
L 18.109375 -20.796875 
L 9.078125 -20.796875 
L 9.078125 54.6875 
L 18.109375 54.6875 
L 18.109375 46.390625 
Q 20.953125 51.265625 25.265625 53.625 
Q 29.59375 56 35.59375 56 
Q 45.5625 56 51.78125 48.09375 
Q 58.015625 40.1875 58.015625 27.296875 
Q 58.015625 14.40625 51.78125 6.484375 
Q 45.5625 -1.421875 35.59375 -1.421875 
Q 29.59375 -1.421875 25.265625 0.953125 
Q 20.953125 3.328125 18.109375 8.203125 
z
M 48.6875 27.296875 
Q 48.6875 37.203125 44.609375 42.84375 
Q 40.53125 48.484375 33.40625 48.484375 
Q 26.265625 48.484375 22.1875 42.84375 
Q 18.109375 37.203125 18.109375 27.296875 
Q 18.109375 17.390625 22.1875 11.75 
Q 26.265625 6.109375 33.40625 6.109375 
Q 40.53125 6.109375 44.609375 11.75 
Q 48.6875 17.390625 48.6875 27.296875 
z
" id="DejaVuSans-112"/>
       <path d="M 41.109375 46.296875 
Q 39.59375 47.171875 37.8125 47.578125 
Q 36.03125 48 33.890625 48 
Q 26.265625 48 22.1875 43.046875 
Q 18.109375 38.09375 18.109375 28.8125 
L 18.109375 0 
L 9.078125 0 
L 9.078125 54.6875 
L 18.109375 54.6875 
L 18.109375 46.1875 
Q 20.953125 51.171875 25.484375 53.578125 
Q 30.03125 56 36.53125 56 
Q 37.453125 56 38.578125 55.875 
Q 39.703125 55.765625 41.0625 55.515625 
z
" id="DejaVuSans-114"/>
      </defs>
      <g transform="translate(202.154222 160.01124)rotate(-90)scale(0.08 -0.08)">
       <use xlink:href="#DejaVuSans-49"/>
       <use x="63.623047" xlink:href="#DejaVuSans-57"/>
       <use x="127.246094" xlink:href="#DejaVuSans-32"/>
       <use x="159.033203" xlink:href="#DejaVuSans-65"/>
       <use x="227.441406" xlink:href="#DejaVuSans-112"/>
       <use x="290.917969" xlink:href="#DejaVuSans-114"/>
      </g>
     </g>
    </g>
    <g id="xtick_2">
     <g id="line2d_2">
      <g>
       <use style="stroke:#000000;stroke-width:0.8;" x="181.028874" xlink:href="#md28308a922" y="126.44874"/>
      </g>
     </g>
     <g id="text_2">
      <!-- 12 Apr -->
      <defs>
       <path d="M 19.1875 8.296875 
L 53.609375 8.296875 
L 53.609375 0 
L 7.328125 0 
L 7.328125 8.296875 
Q 12.9375 14.109375 22.625 23.890625 
Q 32.328125 33.6875 34.8125 36.53125 
Q 39.546875 41.84375 41.421875 45.53125 
Q 43.3125 49.21875 43.3125 52.78125 
Q 43.3125 58.59375 39.234375 62.25 
Q 35.15625 65.921875 28.609375 65.921875 
Q 23.96875 65.921875 18.8125 64.3125 
Q 13.671875 62.703125 7.8125 59.421875 
L 7.8125 69.390625 
Q 13.765625 71.78125 18.9375 73 
Q 24.125 74.21875 28.421875 74.21875 
Q 39.75 74.21875 46.484375 68.546875 
Q 53.21875 62.890625 53.21875 53.421875 
Q 53.21875 48.921875 51.53125 44.890625 
Q 49.859375 40.875 45.40625 35.40625 
Q 44.1875 33.984375 37.640625 27.21875 
Q 31.109375 20.453125 19.1875 8.296875 
z
" id="DejaVuSans-50"/>
      </defs>
      <g transform="translate(183.236374 160.01124)rotate(-90)scale(0.08 -0.08)">
       <use xlink:href="#DejaVuSans-49"/>
       <use x="63.623047" xlink:href="#DejaVuSans-50"/>
       <use x="127.246094" xlink:href="#DejaVuSans-32"/>
       <use x="159.033203" xlink:href="#DejaVuSans-65"/>
       <use x="227.441406" xlink:href="#DejaVuSans-112"/>
       <use x="290.917969" xlink:href="#DejaVuSans-114"/>
      </g>
     </g>
    </g>
    <g id="xtick_3">
     <g id="line2d_3">
      <g>
       <use style="stroke:#000000;stroke-width:0.8;" x="162.111026" xlink:href="#md28308a922" y="126.44874"/>
      </g>
     </g>
     <g id="text_3">
      <!-- 5 Apr -->
      <defs>
       <path d="M 10.796875 72.90625 
L 49.515625 72.90625 
L 49.515625 64.59375 
L 19.828125 64.59375 
L 19.828125 46.734375 
Q 21.96875 47.46875 24.109375 47.828125 
Q 26.265625 48.1875 28.421875 48.1875 
Q 40.625 48.1875 47.75 41.5 
Q 54.890625 34.8125 54.890625 23.390625 
Q 54.890625 11.625 47.5625 5.09375 
Q 40.234375 -1.421875 26.90625 -1.421875 
Q 22.3125 -1.421875 17.546875 -0.640625 
Q 12.796875 0.140625 7.71875 1.703125 
L 7.71875 11.625 
Q 12.109375 9.234375 16.796875 8.0625 
Q 21.484375 6.890625 26.703125 6.890625 
Q 35.15625 6.890625 40.078125 11.328125 
Q 45.015625 15.765625 45.015625 23.390625 
Q 45.015625 31 40.078125 35.4375 
Q 35.15625 39.890625 26.703125 39.890625 
Q 22.75 39.890625 18.8125 39.015625 
Q 14.890625 38.140625 10.796875 36.28125 
z
" id="DejaVuSans-53"/>
      </defs>
      <g transform="translate(164.318526 154.92124)rotate(-90)scale(0.08 -0.08)">
       <use xlink:href="#DejaVuSans-53"/>
       <use x="63.623047" xlink:href="#DejaVuSans-32"/>
       <use x="95.410156" xlink:href="#DejaVuSans-65"/>
       <use x="163.818359" xlink:href="#DejaVuSans-112"/>
       <use x="227.294922" xlink:href="#DejaVuSans-114"/>
      </g>
     </g>
    </g>
    <g id="xtick_4">
     <g id="line2d_4">
      <g>
       <use style="stroke:#000000;stroke-width:0.8;" x="143.193178" xlink:href="#md28308a922" y="126.44874"/>
      </g>
     </g>
     <g id="text_4">
      <!-- 29 Mar -->
      <defs>
       <path d="M 9.8125 72.90625 
L 24.515625 72.90625 
L 43.109375 23.296875 
L 61.8125 72.90625 
L 76.515625 72.90625 
L 76.515625 0 
L 66.890625 0 
L 66.890625 64.015625 
L 48.09375 14.015625 
L 38.1875 14.015625 
L 19.390625 64.015625 
L 19.390625 0 
L 9.8125 0 
z
" id="DejaVuSans-77"/>
       <path d="M 34.28125 27.484375 
Q 23.390625 27.484375 19.1875 25 
Q 14.984375 22.515625 14.984375 16.5 
Q 14.984375 11.71875 18.140625 8.90625 
Q 21.296875 6.109375 26.703125 6.109375 
Q 34.1875 6.109375 38.703125 11.40625 
Q 43.21875 16.703125 43.21875 25.484375 
L 43.21875 27.484375 
z
M 52.203125 31.203125 
L 52.203125 0 
L 43.21875 0 
L 43.21875 8.296875 
Q 40.140625 3.328125 35.546875 0.953125 
Q 30.953125 -1.421875 24.3125 -1.421875 
Q 15.921875 -1.421875 10.953125 3.296875 
Q 6 8.015625 6 15.921875 
Q 6 25.140625 12.171875 29.828125 
Q 18.359375 34.515625 30.609375 34.515625 
L 43.21875 34.515625 
L 43.21875 35.40625 
Q 43.21875 41.609375 39.140625 45 
Q 35.0625 48.390625 27.6875 48.390625 
Q 23 48.390625 18.546875 47.265625 
Q 14.109375 46.140625 10.015625 43.890625 
L 10.015625 52.203125 
Q 14.9375 54.109375 19.578125 55.046875 
Q 24.21875 56 28.609375 56 
Q 40.484375 56 46.34375 49.84375 
Q 52.203125 43.703125 52.203125 31.203125 
z
" id="DejaVuSans-97"/>
      </defs>
      <g transform="translate(145.400678 161.26499)rotate(-90)scale(0.08 -0.08)">
       <use xlink:href="#DejaVuSans-50"/>
       <use x="63.623047" xlink:href="#DejaVuSans-57"/>
       <use x="127.246094" xlink:href="#DejaVuSans-32"/>
       <use x="159.033203" xlink:href="#DejaVuSans-77"/>
       <use x="245.3125" xlink:href="#DejaVuSans-97"/>
       <use x="306.591797" xlink:href="#DejaVuSans-114"/>
      </g>
     </g>
    </g>
    <g id="xtick_5">
     <g id="line2d_5">
      <g>
       <use style="stroke:#000000;stroke-width:0.8;" x="124.27533" xlink:href="#md28308a922" y="126.44874"/>
      </g>
     </g>
     <g id="text_5">
      <!-- 22 Mar -->
      <g transform="translate(126.48283 161.26499)rotate(-90)scale(0.08 -0.08)">
       <use xlink:href="#DejaVuSans-50"/>
       <use x="63.623047" xlink:href="#DejaVuSans-50"/>
       <use x="127.246094" xlink:href="#DejaVuSans-32"/>
       <use x="159.033203" xlink:href="#DejaVuSans-77"/>
       <use x="245.3125" xlink:href="#DejaVuSans-97"/>
       <use x="306.591797" xlink:href="#DejaVuSans-114"/>
      </g>
     </g>
    </g>
    <g id="xtick_6">
     <g id="line2d_6">
      <g>
       <use style="stroke:#000000;stroke-width:0.8;" x="105.357482" xlink:href="#md28308a922" y="126.44874"/>
      </g>
     </g>
     <g id="text_6">
      <!-- 15 Mar -->
      <g transform="translate(107.564982 161.26499)rotate(-90)scale(0.08 -0.08)">
       <use xlink:href="#DejaVuSans-49"/>
       <use x="63.623047" xlink:href="#DejaVuSans-53"/>
       <use x="127.246094" xlink:href="#DejaVuSans-32"/>
       <use x="159.033203" xlink:href="#DejaVuSans-77"/>
       <use x="245.3125" xlink:href="#DejaVuSans-97"/>
       <use x="306.591797" xlink:href="#DejaVuSans-114"/>
      </g>
     </g>
    </g>
    <g id="xtick_7">
     <g id="line2d_7">
      <g>
       <use style="stroke:#000000;stroke-width:0.8;" x="86.439634" xlink:href="#md28308a922" y="126.44874"/>
      </g>
     </g>
     <g id="text_7">
      <!-- 8 Mar -->
      <defs>
       <path d="M 31.78125 34.625 
Q 24.75 34.625 20.71875 30.859375 
Q 16.703125 27.09375 16.703125 20.515625 
Q 16.703125 13.921875 20.71875 10.15625 
Q 24.75 6.390625 31.78125 6.390625 
Q 38.8125 6.390625 42.859375 10.171875 
Q 46.921875 13.96875 46.921875 20.515625 
Q 46.921875 27.09375 42.890625 30.859375 
Q 38.875 34.625 31.78125 34.625 
z
M 21.921875 38.8125 
Q 15.578125 40.375 12.03125 44.71875 
Q 8.5 49.078125 8.5 55.328125 
Q 8.5 64.0625 14.71875 69.140625 
Q 20.953125 74.21875 31.78125 74.21875 
Q 42.671875 74.21875 48.875 69.140625 
Q 55.078125 64.0625 55.078125 55.328125 
Q 55.078125 49.078125 51.53125 44.71875 
Q 48 40.375 41.703125 38.8125 
Q 48.828125 37.15625 52.796875 32.3125 
Q 56.78125 27.484375 56.78125 20.515625 
Q 56.78125 9.90625 50.3125 4.234375 
Q 43.84375 -1.421875 31.78125 -1.421875 
Q 19.734375 -1.421875 13.25 4.234375 
Q 6.78125 9.90625 6.78125 20.515625 
Q 6.78125 27.484375 10.78125 32.3125 
Q 14.796875 37.15625 21.921875 38.8125 
z
M 18.3125 54.390625 
Q 18.3125 48.734375 21.84375 45.5625 
Q 25.390625 42.390625 31.78125 42.390625 
Q 38.140625 42.390625 41.71875 45.5625 
Q 45.3125 48.734375 45.3125 54.390625 
Q 45.3125 60.0625 41.71875 63.234375 
Q 38.140625 66.40625 31.78125 66.40625 
Q 25.390625 66.40625 21.84375 63.234375 
Q 18.3125 60.0625 18.3125 54.390625 
z
" id="DejaVuSans-56"/>
      </defs>
      <g transform="translate(88.647134 156.17499)rotate(-90)scale(0.08 -0.08)">
       <use xlink:href="#DejaVuSans-56"/>
       <use x="63.623047" xlink:href="#DejaVuSans-32"/>
       <use x="95.410156" xlink:href="#DejaVuSans-77"/>
       <use x="181.689453" xlink:href="#DejaVuSans-97"/>
       <use x="242.96875" xlink:href="#DejaVuSans-114"/>
      </g>
     </g>
    </g>
    <g id="xtick_8">
     <g id="line2d_8">
      <g>
       <use style="stroke:#000000;stroke-width:0.8;" x="67.521786" xlink:href="#md28308a922" y="126.44874"/>
      </g>
     </g>
     <g id="text_8">
      <!-- 1 Mar -->
      <g transform="translate(69.729286 156.17499)rotate(-90)scale(0.08 -0.08)">
       <use xlink:href="#DejaVuSans-49"/>
       <use x="63.623047" xlink:href="#DejaVuSans-32"/>
       <use x="95.410156" xlink:href="#DejaVuSans-77"/>
       <use x="181.689453" xlink:href="#DejaVuSans-97"/>
       <use x="242.96875" xlink:href="#DejaVuSans-114"/>
      </g>
     </g>
    </g>
    <g id="xtick_9">
     <g id="line2d_9">
      <g>
       <use style="stroke:#000000;stroke-width:0.8;" x="48.603938" xlink:href="#md28308a922" y="126.44874"/>
      </g>
     </g>
     <g id="text_9">
      <!-- 23 Feb -->
      <defs>
       <path d="M 40.578125 39.3125 
Q 47.65625 37.796875 51.625 33 
Q 55.609375 28.21875 55.609375 21.1875 
Q 55.609375 10.40625 48.1875 4.484375 
Q 40.765625 -1.421875 27.09375 -1.421875 
Q 22.515625 -1.421875 17.65625 -0.515625 
Q 12.796875 0.390625 7.625 2.203125 
L 7.625 11.71875 
Q 11.71875 9.328125 16.59375 8.109375 
Q 21.484375 6.890625 26.8125 6.890625 
Q 36.078125 6.890625 40.9375 10.546875 
Q 45.796875 14.203125 45.796875 21.1875 
Q 45.796875 27.640625 41.28125 31.265625 
Q 36.765625 34.90625 28.71875 34.90625 
L 20.21875 34.90625 
L 20.21875 43.015625 
L 29.109375 43.015625 
Q 36.375 43.015625 40.234375 45.921875 
Q 44.09375 48.828125 44.09375 54.296875 
Q 44.09375 59.90625 40.109375 62.90625 
Q 36.140625 65.921875 28.71875 65.921875 
Q 24.65625 65.921875 20.015625 65.03125 
Q 15.375 64.15625 9.8125 62.3125 
L 9.8125 71.09375 
Q 15.4375 72.65625 20.34375 73.4375 
Q 25.25 74.21875 29.59375 74.21875 
Q 40.828125 74.21875 47.359375 69.109375 
Q 53.90625 64.015625 53.90625 55.328125 
Q 53.90625 49.265625 50.4375 45.09375 
Q 46.96875 40.921875 40.578125 39.3125 
z
" id="DejaVuSans-51"/>
       <path d="M 9.8125 72.90625 
L 51.703125 72.90625 
L 51.703125 64.59375 
L 19.671875 64.59375 
L 19.671875 43.109375 
L 48.578125 43.109375 
L 48.578125 34.8125 
L 19.671875 34.8125 
L 19.671875 0 
L 9.8125 0 
z
" id="DejaVuSans-70"/>
       <path d="M 56.203125 29.59375 
L 56.203125 25.203125 
L 14.890625 25.203125 
Q 15.484375 15.921875 20.484375 11.0625 
Q 25.484375 6.203125 34.421875 6.203125 
Q 39.59375 6.203125 44.453125 7.46875 
Q 49.3125 8.734375 54.109375 11.28125 
L 54.109375 2.78125 
Q 49.265625 0.734375 44.1875 -0.34375 
Q 39.109375 -1.421875 33.890625 -1.421875 
Q 20.796875 -1.421875 13.15625 6.1875 
Q 5.515625 13.8125 5.515625 26.8125 
Q 5.515625 40.234375 12.765625 48.109375 
Q 20.015625 56 32.328125 56 
Q 43.359375 56 49.78125 48.890625 
Q 56.203125 41.796875 56.203125 29.59375 
z
M 47.21875 32.234375 
Q 47.125 39.59375 43.09375 43.984375 
Q 39.0625 48.390625 32.421875 48.390625 
Q 24.90625 48.390625 20.390625 44.140625 
Q 15.875 39.890625 15.1875 32.171875 
z
" id="DejaVuSans-101"/>
       <path d="M 48.6875 27.296875 
Q 48.6875 37.203125 44.609375 42.84375 
Q 40.53125 48.484375 33.40625 48.484375 
Q 26.265625 48.484375 22.1875 42.84375 
Q 18.109375 37.203125 18.109375 27.296875 
Q 18.109375 17.390625 22.1875 11.75 
Q 26.265625 6.109375 33.40625 6.109375 
Q 40.53125 6.109375 44.609375 11.75 
Q 48.6875 17.390625 48.6875 27.296875 
z
M 18.109375 46.390625 
Q 20.953125 51.265625 25.265625 53.625 
Q 29.59375 56 35.59375 56 
Q 45.5625 56 51.78125 48.09375 
Q 58.015625 40.1875 58.015625 27.296875 
Q 58.015625 14.40625 51.78125 6.484375 
Q 45.5625 -1.421875 35.59375 -1.421875 
Q 29.59375 -1.421875 25.265625 0.953125 
Q 20.953125 3.328125 18.109375 8.203125 
L 18.109375 0 
L 9.078125 0 
L 9.078125 75.984375 
L 18.109375 75.984375 
z
" id="DejaVuSans-98"/>
      </defs>
      <g transform="translate(50.811438 160.33374)rotate(-90)scale(0.08 -0.08)">
       <use xlink:href="#DejaVuSans-50"/>
       <use x="63.623047" xlink:href="#DejaVuSans-51"/>
       <use x="127.246094" xlink:href="#DejaVuSans-32"/>
       <use x="159.033203" xlink:href="#DejaVuSans-70"/>
       <use x="211.052734" xlink:href="#DejaVuSans-101"/>
       <use x="272.576172" xlink:href="#DejaVuSans-98"/>
      </g>
     </g>
    </g>
   </g>
   <g id="matplotlib.axis_2">
    <g id="ytick_1">
     <g id="line2d_10">
      <defs>
       <path d="M 0 0 
L -3.5 0 
" id="m119fa98604" style="stroke:#000000;stroke-width:0.8;"/>
      </defs>
      <g>
       <use style="stroke:#000000;stroke-width:0.8;" x="37.01" xlink:href="#m119fa98604" y="126.44874"/>
      </g>
     </g>
     <g id="text_10">
      <!-- 0 -->
      <defs>
       <path d="M 31.78125 66.40625 
Q 24.171875 66.40625 20.328125 58.90625 
Q 16.5 51.421875 16.5 36.375 
Q 16.5 21.390625 20.328125 13.890625 
Q 24.171875 6.390625 31.78125 6.390625 
Q 39.453125 6.390625 43.28125 13.890625 
Q 47.125 21.390625 47.125 36.375 
Q 47.125 51.421875 43.28125 58.90625 
Q 39.453125 66.40625 31.78125 66.40625 
z
M 31.78125 74.21875 
Q 44.046875 74.21875 50.515625 64.515625 
Q 56.984375 54.828125 56.984375 36.375 
Q 56.984375 17.96875 50.515625 8.265625 
Q 44.046875 -1.421875 31.78125 -1.421875 
Q 19.53125 -1.421875 13.0625 8.265625 
Q 6.59375 17.96875 6.59375 36.375 
Q 6.59375 54.828125 13.0625 64.515625 
Q 19.53125 74.21875 31.78125 74.21875 
z
" id="DejaVuSans-48"/>
      </defs>
      <g transform="translate(24.92 129.488115)scale(0.08 -0.08)">
       <use xlink:href="#DejaVuSans-48"/>
      </g>
     </g>
    </g>
    <g id="ytick_2">
     <g id="line2d_11">
      <g>
       <use style="stroke:#000000;stroke-width:0.8;" x="37.01" xlink:href="#m119fa98604" y="109.840575"/>
      </g>
     </g>
     <g id="text_11">
      <!-- 5 -->
      <g transform="translate(24.92 112.87995)scale(0.08 -0.08)">
       <use xlink:href="#DejaVuSans-53"/>
      </g>
     </g>
    </g>
    <g id="ytick_3">
     <g id="line2d_12">
      <g>
       <use style="stroke:#000000;stroke-width:0.8;" x="37.01" xlink:href="#m119fa98604" y="93.232409"/>
      </g>
     </g>
     <g id="text_12">
      <!-- 10 -->
      <g transform="translate(19.83 96.271784)scale(0.08 -0.08)">
       <use xlink:href="#DejaVuSans-49"/>
       <use x="63.623047" xlink:href="#DejaVuSans-48"/>
      </g>
     </g>
    </g>
    <g id="ytick_4">
     <g id="line2d_13">
      <g>
       <use style="stroke:#000000;stroke-width:0.8;" x="37.01" xlink:href="#m119fa98604" y="76.624244"/>
      </g>
     </g>
     <g id="text_13">
      <!-- 15 -->
      <g transform="translate(19.83 79.663619)scale(0.08 -0.08)">
       <use xlink:href="#DejaVuSans-49"/>
       <use x="63.623047" xlink:href="#DejaVuSans-53"/>
      </g>
     </g>
    </g>
    <g id="ytick_5">
     <g id="line2d_14">
      <g>
       <use style="stroke:#000000;stroke-width:0.8;" x="37.01" xlink:href="#m119fa98604" y="60.016079"/>
      </g>
     </g>
     <g id="text_14">
      <!-- 20 -->
      <g transform="translate(19.83 63.055454)scale(0.08 -0.08)">
       <use xlink:href="#DejaVuSans-50"/>
       <use x="63.623047" xlink:href="#DejaVuSans-48"/>
      </g>
     </g>
    </g>
    <g id="ytick_6">
     <g id="line2d_15">
      <g>
       <use style="stroke:#000000;stroke-width:0.8;" x="37.01" xlink:href="#m119fa98604" y="43.407913"/>
      </g>
     </g>
     <g id="text_15">
      <!-- 25 -->
      <g transform="translate(19.83 46.447288)scale(0.08 -0.08)">
       <use xlink:href="#DejaVuSans-50"/>
       <use x="63.623047" xlink:href="#DejaVuSans-53"/>
      </g>
     </g>
    </g>
    <g id="ytick_7">
     <g id="line2d_16">
      <g>
       <use style="stroke:#000000;stroke-width:0.8;" x="37.01" xlink:href="#m119fa98604" y="26.799748"/>
      </g>
     </g>
     <g id="text_16">
      <!-- 30 -->
      <g transform="translate(19.83 29.839123)scale(0.08 -0.08)">
       <use xlink:href="#DejaVuSans-51"/>
       <use x="63.623047" xlink:href="#DejaVuSans-48"/>
      </g>
     </g>
    </g>
    <g id="text_17">
     <!-- Deaths per day -->
     <defs>
      <path d="M 19.671875 64.796875 
L 19.671875 8.109375 
L 31.59375 8.109375 
Q 46.6875 8.109375 53.6875 14.9375 
Q 60.6875 21.78125 60.6875 36.53125 
Q 60.6875 51.171875 53.6875 57.984375 
Q 46.6875 64.796875 31.59375 64.796875 
z
M 9.8125 72.90625 
L 30.078125 72.90625 
Q 51.265625 72.90625 61.171875 64.09375 
Q 71.09375 55.28125 71.09375 36.53125 
Q 71.09375 17.671875 61.125 8.828125 
Q 51.171875 0 30.078125 0 
L 9.8125 0 
z
" id="DejaVuSans-68"/>
      <path d="M 18.3125 70.21875 
L 18.3125 54.6875 
L 36.8125 54.6875 
L 36.8125 47.703125 
L 18.3125 47.703125 
L 18.3125 18.015625 
Q 18.3125 11.328125 20.140625 9.421875 
Q 21.96875 7.515625 27.59375 7.515625 
L 36.8125 7.515625 
L 36.8125 0 
L 27.59375 0 
Q 17.1875 0 13.234375 3.875 
Q 9.28125 7.765625 9.28125 18.015625 
L 9.28125 47.703125 
L 2.6875 47.703125 
L 2.6875 54.6875 
L 9.28125 54.6875 
L 9.28125 70.21875 
z
" id="DejaVuSans-116"/>
      <path d="M 54.890625 33.015625 
L 54.890625 0 
L 45.90625 0 
L 45.90625 32.71875 
Q 45.90625 40.484375 42.875 44.328125 
Q 39.84375 48.1875 33.796875 48.1875 
Q 26.515625 48.1875 22.3125 43.546875 
Q 18.109375 38.921875 18.109375 30.90625 
L 18.109375 0 
L 9.078125 0 
L 9.078125 75.984375 
L 18.109375 75.984375 
L 18.109375 46.1875 
Q 21.34375 51.125 25.703125 53.5625 
Q 30.078125 56 35.796875 56 
Q 45.21875 56 50.046875 50.171875 
Q 54.890625 44.34375 54.890625 33.015625 
z
" id="DejaVuSans-104"/>
      <path d="M 44.28125 53.078125 
L 44.28125 44.578125 
Q 40.484375 46.53125 36.375 47.5 
Q 32.28125 48.484375 27.875 48.484375 
Q 21.1875 48.484375 17.84375 46.4375 
Q 14.5 44.390625 14.5 40.28125 
Q 14.5 37.15625 16.890625 35.375 
Q 19.28125 33.59375 26.515625 31.984375 
L 29.59375 31.296875 
Q 39.15625 29.25 43.1875 25.515625 
Q 47.21875 21.78125 47.21875 15.09375 
Q 47.21875 7.46875 41.1875 3.015625 
Q 35.15625 -1.421875 24.609375 -1.421875 
Q 20.21875 -1.421875 15.453125 -0.5625 
Q 10.6875 0.296875 5.421875 2 
L 5.421875 11.28125 
Q 10.40625 8.6875 15.234375 7.390625 
Q 20.0625 6.109375 24.8125 6.109375 
Q 31.15625 6.109375 34.5625 8.28125 
Q 37.984375 10.453125 37.984375 14.40625 
Q 37.984375 18.0625 35.515625 20.015625 
Q 33.0625 21.96875 24.703125 23.78125 
L 21.578125 24.515625 
Q 13.234375 26.265625 9.515625 29.90625 
Q 5.8125 33.546875 5.8125 39.890625 
Q 5.8125 47.609375 11.28125 51.796875 
Q 16.75 56 26.8125 56 
Q 31.78125 56 36.171875 55.265625 
Q 40.578125 54.546875 44.28125 53.078125 
z
" id="DejaVuSans-115"/>
      <path d="M 45.40625 46.390625 
L 45.40625 75.984375 
L 54.390625 75.984375 
L 54.390625 0 
L 45.40625 0 
L 45.40625 8.203125 
Q 42.578125 3.328125 38.25 0.953125 
Q 33.9375 -1.421875 27.875 -1.421875 
Q 17.96875 -1.421875 11.734375 6.484375 
Q 5.515625 14.40625 5.515625 27.296875 
Q 5.515625 40.1875 11.734375 48.09375 
Q 17.96875 56 27.875 56 
Q 33.9375 56 38.25 53.625 
Q 42.578125 51.265625 45.40625 46.390625 
z
M 14.796875 27.296875 
Q 14.796875 17.390625 18.875 11.75 
Q 22.953125 6.109375 30.078125 6.109375 
Q 37.203125 6.109375 41.296875 11.75 
Q 45.40625 17.390625 45.40625 27.296875 
Q 45.40625 37.203125 41.296875 42.84375 
Q 37.203125 48.484375 30.078125 48.484375 
Q 22.953125 48.484375 18.875 42.84375 
Q 14.796875 37.203125 14.796875 27.296875 
z
" id="DejaVuSans-100"/>
      <path d="M 32.171875 -5.078125 
Q 28.375 -14.84375 24.75 -17.8125 
Q 21.140625 -20.796875 15.09375 -20.796875 
L 7.90625 -20.796875 
L 7.90625 -13.28125 
L 13.1875 -13.28125 
Q 16.890625 -13.28125 18.9375 -11.515625 
Q 21 -9.765625 23.484375 -3.21875 
L 25.09375 0.875 
L 2.984375 54.6875 
L 12.5 54.6875 
L 29.59375 11.921875 
L 46.6875 54.6875 
L 56.203125 54.6875 
z
" id="DejaVuSans-121"/>
     </defs>
     <g transform="translate(14.16625 99.70937)rotate(-90)scale(0.08 -0.08)">
      <use xlink:href="#DejaVuSans-68"/>
      <use x="77.001953" xlink:href="#DejaVuSans-101"/>
      <use x="138.525391" xlink:href="#DejaVuSans-97"/>
      <use x="199.804688" xlink:href="#DejaVuSans-116"/>
      <use x="239.013672" xlink:href="#DejaVuSans-104"/>
      <use x="302.392578" xlink:href="#DejaVuSans-115"/>
      <use x="354.492188" xlink:href="#DejaVuSans-32"/>
      <use x="386.279297" xlink:href="#DejaVuSans-112"/>
      <use x="449.755859" xlink:href="#DejaVuSans-101"/>
      <use x="511.279297" xlink:href="#DejaVuSans-114"/>
      <use x="552.392578" xlink:href="#DejaVuSans-32"/>
      <use x="584.179688" xlink:href="#DejaVuSans-100"/>
      <use x="647.65625" xlink:href="#DejaVuSans-97"/>
      <use x="708.935547" xlink:href="#DejaVuSans-121"/>
     </g>
    </g>
   </g>
   <g id="line2d_17">
    <path clip-path="url(#p661a328fe6)" d="M 45.901389 126.44874 
L 48.603938 126.44874 
L 51.306488 126.448079 
L 54.009038 126.445856 
L 56.711587 126.440711 
L 59.414137 126.431136 
L 62.116687 126.415697 
L 64.819236 126.393198 
L 67.521786 126.362227 
L 70.224336 126.321563 
L 72.926886 126.269456 
L 75.629435 126.203943 
L 78.331985 126.122677 
L 81.034535 126.022718 
L 83.737084 125.90074 
L 86.439634 125.752696 
L 89.142184 125.574204 
L 91.844734 125.356765 
L 94.547283 125.092223 
L 97.249833 124.767033 
L 99.952383 124.360988 
L 102.654932 123.83963 
L 105.357482 123.105511 
L 108.060032 122.100621 
L 110.762581 120.761133 
L 113.465131 119.052744 
L 116.167681 116.984208 
L 118.870231 114.58376 
L 121.57278 111.900572 
L 124.27533 108.994133 
L 126.97788 105.934007 
L 129.680429 102.799571 
L 132.382979 99.661172 
L 135.085529 96.587268 
L 137.788078 93.633831 
L 140.490628 90.843842 
L 143.193178 88.246444 
" style="fill:none;stroke:#0000ff;stroke-linecap:square;stroke-opacity:0.5;"/>
   </g>
   <g id="line2d_18">
    <path clip-path="url(#p661a328fe6)" d="M 145.895728 85.860708 
L 148.598277 83.704749 
L 151.300827 81.792925 
L 154.003377 80.140649 
L 156.705926 78.761314 
L 159.408476 77.664573 
L 162.111026 76.85513 
L 164.813576 76.33215 
L 167.516125 76.089216 
L 170.218675 76.114705 
L 172.921225 76.392461 
L 175.623774 76.902617 
L 178.326324 77.622493 
L 181.028874 78.52749 
L 183.731423 79.591921 
L 186.433973 80.78976 
L 189.136523 82.095283 
L 191.839073 83.483595 
L 194.541622 84.931044 
L 197.244172 86.415532 
L 199.946722 87.916719 
" style="fill:none;stroke:#008000;stroke-linecap:square;stroke-opacity:0.5;"/>
   </g>
   <g id="line2d_19">
    <path clip-path="url(#p661a328fe6)" d="M 91.844734 126.44874 
L 91.844734 11.52 
" style="fill:none;stroke:#0000ff;stroke-dasharray:1.85,0.8;stroke-dashoffset:0;stroke-width:0.5;"/>
   </g>
   <g id="line2d_20">
    <path clip-path="url(#p661a328fe6)" d="M 102.654932 126.44874 
L 102.654932 11.52 
" style="fill:none;stroke:#0000ff;stroke-dasharray:1.85,0.8;stroke-dashoffset:0;stroke-width:0.5;"/>
   </g>
   <g id="line2d_21">
    <path clip-path="url(#p661a328fe6)" d="M 108.060032 126.44874 
L 108.060032 11.52 
" style="fill:none;stroke:#0000ff;stroke-dasharray:1.85,0.8;stroke-dashoffset:0;stroke-width:0.5;"/>
   </g>
   <g id="line2d_22">
    <path clip-path="url(#p661a328fe6)" d="M 108.060032 126.44874 
L 108.060032 11.52 
" style="fill:none;stroke:#0000ff;stroke-dasharray:1.85,0.8;stroke-dashoffset:0;stroke-width:0.5;"/>
   </g>
   <g id="line2d_23">
    <path clip-path="url(#p661a328fe6)" d="M 108.060032 126.44874 
L 108.060032 11.52 
" style="fill:none;stroke:#0000ff;stroke-dasharray:1.85,0.8;stroke-dashoffset:0;stroke-width:0.5;"/>
   </g>
   <g id="patch_61">
    <path d="M 37.01 126.44874 
L 37.01 11.52 
" style="fill:none;stroke:#000000;stroke-linecap:square;stroke-linejoin:miter;stroke-width:0.8;"/>
   </g>
   <g id="patch_62">
    <path d="M 208.83811 126.44874 
L 208.83811 11.52 
" style="fill:none;stroke:#000000;stroke-linecap:square;stroke-linejoin:miter;stroke-width:0.8;"/>
   </g>
   <g id="patch_63">
    <path d="M 37.01 126.44874 
L 208.83811 126.44874 
" style="fill:none;stroke:#000000;stroke-linecap:square;stroke-linejoin:miter;stroke-width:0.8;"/>
   </g>
   <g id="patch_64">
    <path d="M 37.01 11.52 
L 208.83811 11.52 
" style="fill:none;stroke:#000000;stroke-linecap:square;stroke-linejoin:miter;stroke-width:0.8;"/>
   </g>
   <g id="legend_1">
    <g id="line2d_24">
     <path d="M 44.21 103.04249 
L 60.21 103.04249 
" style="fill:none;stroke:#0000ff;stroke-linecap:square;stroke-opacity:0.5;"/>
    </g>
    <g id="line2d_25"/>
    <g id="text_18">
     <!-- Simulation -->
     <defs>
      <path d="M 53.515625 70.515625 
L 53.515625 60.890625 
Q 47.90625 63.578125 42.921875 64.890625 
Q 37.9375 66.21875 33.296875 66.21875 
Q 25.25 66.21875 20.875 63.09375 
Q 16.5 59.96875 16.5 54.203125 
Q 16.5 49.359375 19.40625 46.890625 
Q 22.3125 44.4375 30.421875 42.921875 
L 36.375 41.703125 
Q 47.40625 39.59375 52.65625 34.296875 
Q 57.90625 29 57.90625 20.125 
Q 57.90625 9.515625 50.796875 4.046875 
Q 43.703125 -1.421875 29.984375 -1.421875 
Q 24.8125 -1.421875 18.96875 -0.25 
Q 13.140625 0.921875 6.890625 3.21875 
L 6.890625 13.375 
Q 12.890625 10.015625 18.65625 8.296875 
Q 24.421875 6.59375 29.984375 6.59375 
Q 38.421875 6.59375 43.015625 9.90625 
Q 47.609375 13.234375 47.609375 19.390625 
Q 47.609375 24.75 44.3125 27.78125 
Q 41.015625 30.8125 33.5 32.328125 
L 27.484375 33.5 
Q 16.453125 35.6875 11.515625 40.375 
Q 6.59375 45.0625 6.59375 53.421875 
Q 6.59375 63.09375 13.40625 68.65625 
Q 20.21875 74.21875 32.171875 74.21875 
Q 37.3125 74.21875 42.625 73.28125 
Q 47.953125 72.359375 53.515625 70.515625 
z
" id="DejaVuSans-83"/>
      <path d="M 9.421875 54.6875 
L 18.40625 54.6875 
L 18.40625 0 
L 9.421875 0 
z
M 9.421875 75.984375 
L 18.40625 75.984375 
L 18.40625 64.59375 
L 9.421875 64.59375 
z
" id="DejaVuSans-105"/>
      <path d="M 52 44.1875 
Q 55.375 50.25 60.0625 53.125 
Q 64.75 56 71.09375 56 
Q 79.640625 56 84.28125 50.015625 
Q 88.921875 44.046875 88.921875 33.015625 
L 88.921875 0 
L 79.890625 0 
L 79.890625 32.71875 
Q 79.890625 40.578125 77.09375 44.375 
Q 74.3125 48.1875 68.609375 48.1875 
Q 61.625 48.1875 57.5625 43.546875 
Q 53.515625 38.921875 53.515625 30.90625 
L 53.515625 0 
L 44.484375 0 
L 44.484375 32.71875 
Q 44.484375 40.625 41.703125 44.40625 
Q 38.921875 48.1875 33.109375 48.1875 
Q 26.21875 48.1875 22.15625 43.53125 
Q 18.109375 38.875 18.109375 30.90625 
L 18.109375 0 
L 9.078125 0 
L 9.078125 54.6875 
L 18.109375 54.6875 
L 18.109375 46.1875 
Q 21.1875 51.21875 25.484375 53.609375 
Q 29.78125 56 35.6875 56 
Q 41.65625 56 45.828125 52.96875 
Q 50 49.953125 52 44.1875 
z
" id="DejaVuSans-109"/>
      <path d="M 8.5 21.578125 
L 8.5 54.6875 
L 17.484375 54.6875 
L 17.484375 21.921875 
Q 17.484375 14.15625 20.5 10.265625 
Q 23.53125 6.390625 29.59375 6.390625 
Q 36.859375 6.390625 41.078125 11.03125 
Q 45.3125 15.671875 45.3125 23.6875 
L 45.3125 54.6875 
L 54.296875 54.6875 
L 54.296875 0 
L 45.3125 0 
L 45.3125 8.40625 
Q 42.046875 3.421875 37.71875 1 
Q 33.40625 -1.421875 27.6875 -1.421875 
Q 18.265625 -1.421875 13.375 4.4375 
Q 8.5 10.296875 8.5 21.578125 
z
M 31.109375 56 
z
" id="DejaVuSans-117"/>
      <path d="M 9.421875 75.984375 
L 18.40625 75.984375 
L 18.40625 0 
L 9.421875 0 
z
" id="DejaVuSans-108"/>
      <path d="M 30.609375 48.390625 
Q 23.390625 48.390625 19.1875 42.75 
Q 14.984375 37.109375 14.984375 27.296875 
Q 14.984375 17.484375 19.15625 11.84375 
Q 23.34375 6.203125 30.609375 6.203125 
Q 37.796875 6.203125 41.984375 11.859375 
Q 46.1875 17.53125 46.1875 27.296875 
Q 46.1875 37.015625 41.984375 42.703125 
Q 37.796875 48.390625 30.609375 48.390625 
z
M 30.609375 56 
Q 42.328125 56 49.015625 48.375 
Q 55.71875 40.765625 55.71875 27.296875 
Q 55.71875 13.875 49.015625 6.21875 
Q 42.328125 -1.421875 30.609375 -1.421875 
Q 18.84375 -1.421875 12.171875 6.21875 
Q 5.515625 13.875 5.515625 27.296875 
Q 5.515625 40.765625 12.171875 48.375 
Q 18.84375 56 30.609375 56 
z
" id="DejaVuSans-111"/>
      <path d="M 54.890625 33.015625 
L 54.890625 0 
L 45.90625 0 
L 45.90625 32.71875 
Q 45.90625 40.484375 42.875 44.328125 
Q 39.84375 48.1875 33.796875 48.1875 
Q 26.515625 48.1875 22.3125 43.546875 
Q 18.109375 38.921875 18.109375 30.90625 
L 18.109375 0 
L 9.078125 0 
L 9.078125 54.6875 
L 18.109375 54.6875 
L 18.109375 46.1875 
Q 21.34375 51.125 25.703125 53.5625 
Q 30.078125 56 35.796875 56 
Q 45.21875 56 50.046875 50.171875 
Q 54.890625 44.34375 54.890625 33.015625 
z
" id="DejaVuSans-110"/>
     </defs>
     <g transform="translate(66.61 105.84249)scale(0.08 -0.08)">
      <use xlink:href="#DejaVuSans-83"/>
      <use x="63.476562" xlink:href="#DejaVuSans-105"/>
      <use x="91.259766" xlink:href="#DejaVuSans-109"/>
      <use x="188.671875" xlink:href="#DejaVuSans-117"/>
      <use x="252.050781" xlink:href="#DejaVuSans-108"/>
      <use x="279.833984" xlink:href="#DejaVuSans-97"/>
      <use x="341.113281" xlink:href="#DejaVuSans-116"/>
      <use x="380.322266" xlink:href="#DejaVuSans-105"/>
      <use x="408.105469" xlink:href="#DejaVuSans-111"/>
      <use x="469.287109" xlink:href="#DejaVuSans-110"/>
     </g>
    </g>
    <g id="line2d_26">
     <path d="M 44.21 114.78499 
L 60.21 114.78499 
" style="fill:none;stroke:#008000;stroke-linecap:square;stroke-opacity:0.5;"/>
    </g>
    <g id="line2d_27"/>
    <g id="text_19">
     <!-- Forecast -->
     <defs>
      <path d="M 48.78125 52.59375 
L 48.78125 44.1875 
Q 44.96875 46.296875 41.140625 47.34375 
Q 37.3125 48.390625 33.40625 48.390625 
Q 24.65625 48.390625 19.8125 42.84375 
Q 14.984375 37.3125 14.984375 27.296875 
Q 14.984375 17.28125 19.8125 11.734375 
Q 24.65625 6.203125 33.40625 6.203125 
Q 37.3125 6.203125 41.140625 7.25 
Q 44.96875 8.296875 48.78125 10.40625 
L 48.78125 2.09375 
Q 45.015625 0.34375 40.984375 -0.53125 
Q 36.96875 -1.421875 32.421875 -1.421875 
Q 20.0625 -1.421875 12.78125 6.34375 
Q 5.515625 14.109375 5.515625 27.296875 
Q 5.515625 40.671875 12.859375 48.328125 
Q 20.21875 56 33.015625 56 
Q 37.15625 56 41.109375 55.140625 
Q 45.0625 54.296875 48.78125 52.59375 
z
" id="DejaVuSans-99"/>
     </defs>
     <g transform="translate(66.61 117.58499)scale(0.08 -0.08)">
      <use xlink:href="#DejaVuSans-70"/>
      <use x="53.894531" xlink:href="#DejaVuSans-111"/>
      <use x="115.076172" xlink:href="#DejaVuSans-114"/>
      <use x="153.939453" xlink:href="#DejaVuSans-101"/>
      <use x="215.462891" xlink:href="#DejaVuSans-99"/>
      <use x="270.443359" xlink:href="#DejaVuSans-97"/>
      <use x="331.722656" xlink:href="#DejaVuSans-115"/>
      <use x="383.822266" xlink:href="#DejaVuSans-116"/>
     </g>
    </g>
   </g>
  </g>
  <g id="axes_2">
   <g id="matplotlib.axis_3">
    <g id="ytick_8">
     <g id="line2d_28">
      <defs>
       <path d="M 0 0 
L 3.5 0 
" id="md96abf0025" style="stroke:#000000;stroke-width:0.8;"/>
      </defs>
      <g>
       <use style="stroke:#000000;stroke-width:0.8;" x="208.83811" xlink:href="#md96abf0025" y="126.44874"/>
      </g>
     </g>
     <g id="text_20">
      <!-- 1.0 -->
      <defs>
       <path d="M 10.59375 35.5 
L 73.1875 35.5 
L 73.1875 27.203125 
L 10.59375 27.203125 
z
" id="DejaVuSans-8722"/>
       <path d="M 10.6875 12.40625 
L 21 12.40625 
L 21 0 
L 10.6875 0 
z
" id="DejaVuSans-46"/>
      </defs>
      <g transform="translate(215.83811 129.488115)scale(0.08 -0.08)">
       <use xlink:href="#DejaVuSans-8722"/>
       <use x="83.789062" xlink:href="#DejaVuSans-49"/>
       <use x="147.412109" xlink:href="#DejaVuSans-46"/>
       <use x="179.199219" xlink:href="#DejaVuSans-48"/>
      </g>
     </g>
    </g>
    <g id="ytick_9">
     <g id="line2d_29">
      <g>
       <use style="stroke:#000000;stroke-width:0.8;" x="208.83811" xlink:href="#md96abf0025" y="85.402762"/>
      </g>
     </g>
     <g id="text_21">
      <!-- 0.5 -->
      <g transform="translate(215.83811 88.442137)scale(0.08 -0.08)">
       <use xlink:href="#DejaVuSans-8722"/>
       <use x="83.789062" xlink:href="#DejaVuSans-48"/>
       <use x="147.412109" xlink:href="#DejaVuSans-46"/>
       <use x="179.199219" xlink:href="#DejaVuSans-53"/>
      </g>
     </g>
    </g>
    <g id="ytick_10">
     <g id="line2d_30">
      <g>
       <use style="stroke:#000000;stroke-width:0.8;" x="208.83811" xlink:href="#md96abf0025" y="44.356783"/>
      </g>
     </g>
     <g id="text_22">
      <!-- 0.0 -->
      <g transform="translate(215.83811 47.396158)scale(0.08 -0.08)">
       <use xlink:href="#DejaVuSans-48"/>
       <use x="63.623047" xlink:href="#DejaVuSans-46"/>
       <use x="95.410156" xlink:href="#DejaVuSans-48"/>
      </g>
     </g>
    </g>
    <g id="ytick_11">
     <g id="line2d_31">
      <g>
       <use style="stroke:#000000;stroke-width:0.8;" x="208.83811" xlink:href="#md96abf0025" y="11.52"/>
      </g>
     </g>
     <g id="text_23">
      <!-- 0.4 -->
      <defs>
       <path d="M 37.796875 64.3125 
L 12.890625 25.390625 
L 37.796875 25.390625 
z
M 35.203125 72.90625 
L 47.609375 72.90625 
L 47.609375 25.390625 
L 58.015625 25.390625 
L 58.015625 17.1875 
L 47.609375 17.1875 
L 47.609375 0 
L 37.796875 0 
L 37.796875 17.1875 
L 4.890625 17.1875 
L 4.890625 26.703125 
z
" id="DejaVuSans-52"/>
      </defs>
      <g transform="translate(215.83811 14.559375)scale(0.08 -0.08)">
       <use xlink:href="#DejaVuSans-48"/>
       <use x="63.623047" xlink:href="#DejaVuSans-46"/>
       <use x="95.410156" xlink:href="#DejaVuSans-52"/>
      </g>
     </g>
    </g>
    <g id="text_24">
     <!-- Relative change -->
     <defs>
      <path d="M 44.390625 34.1875 
Q 47.5625 33.109375 50.5625 29.59375 
Q 53.5625 26.078125 56.59375 19.921875 
L 66.609375 0 
L 56 0 
L 46.6875 18.703125 
Q 43.0625 26.03125 39.671875 28.421875 
Q 36.28125 30.8125 30.421875 30.8125 
L 19.671875 30.8125 
L 19.671875 0 
L 9.8125 0 
L 9.8125 72.90625 
L 32.078125 72.90625 
Q 44.578125 72.90625 50.734375 67.671875 
Q 56.890625 62.453125 56.890625 51.90625 
Q 56.890625 45.015625 53.6875 40.46875 
Q 50.484375 35.9375 44.390625 34.1875 
z
M 19.671875 64.796875 
L 19.671875 38.921875 
L 32.078125 38.921875 
Q 39.203125 38.921875 42.84375 42.21875 
Q 46.484375 45.515625 46.484375 51.90625 
Q 46.484375 58.296875 42.84375 61.546875 
Q 39.203125 64.796875 32.078125 64.796875 
z
" id="DejaVuSans-82"/>
      <path d="M 2.984375 54.6875 
L 12.5 54.6875 
L 29.59375 8.796875 
L 46.6875 54.6875 
L 56.203125 54.6875 
L 35.6875 0 
L 23.484375 0 
z
" id="DejaVuSans-118"/>
      <path d="M 45.40625 27.984375 
Q 45.40625 37.75 41.375 43.109375 
Q 37.359375 48.484375 30.078125 48.484375 
Q 22.859375 48.484375 18.828125 43.109375 
Q 14.796875 37.75 14.796875 27.984375 
Q 14.796875 18.265625 18.828125 12.890625 
Q 22.859375 7.515625 30.078125 7.515625 
Q 37.359375 7.515625 41.375 12.890625 
Q 45.40625 18.265625 45.40625 27.984375 
z
M 54.390625 6.78125 
Q 54.390625 -7.171875 48.1875 -13.984375 
Q 42 -20.796875 29.203125 -20.796875 
Q 24.46875 -20.796875 20.265625 -20.09375 
Q 16.0625 -19.390625 12.109375 -17.921875 
L 12.109375 -9.1875 
Q 16.0625 -11.328125 19.921875 -12.34375 
Q 23.78125 -13.375 27.78125 -13.375 
Q 36.625 -13.375 41.015625 -8.765625 
Q 45.40625 -4.15625 45.40625 5.171875 
L 45.40625 9.625 
Q 42.625 4.78125 38.28125 2.390625 
Q 33.9375 0 27.875 0 
Q 17.828125 0 11.671875 7.65625 
Q 5.515625 15.328125 5.515625 27.984375 
Q 5.515625 40.671875 11.671875 48.328125 
Q 17.828125 56 27.875 56 
Q 33.9375 56 38.28125 53.609375 
Q 42.625 51.21875 45.40625 46.390625 
L 45.40625 54.6875 
L 54.390625 54.6875 
z
" id="DejaVuSans-103"/>
     </defs>
     <g transform="translate(245.34311 101.10812)rotate(-90)scale(0.08 -0.08)">
      <use xlink:href="#DejaVuSans-82"/>
      <use x="64.982422" xlink:href="#DejaVuSans-101"/>
      <use x="126.505859" xlink:href="#DejaVuSans-108"/>
      <use x="154.289062" xlink:href="#DejaVuSans-97"/>
      <use x="215.568359" xlink:href="#DejaVuSans-116"/>
      <use x="254.777344" xlink:href="#DejaVuSans-105"/>
      <use x="282.560547" xlink:href="#DejaVuSans-118"/>
      <use x="341.740234" xlink:href="#DejaVuSans-101"/>
      <use x="403.263672" xlink:href="#DejaVuSans-32"/>
      <use x="435.050781" xlink:href="#DejaVuSans-99"/>
      <use x="490.03125" xlink:href="#DejaVuSans-104"/>
      <use x="553.410156" xlink:href="#DejaVuSans-97"/>
      <use x="614.689453" xlink:href="#DejaVuSans-110"/>
      <use x="678.068359" xlink:href="#DejaVuSans-103"/>
      <use x="741.544922" xlink:href="#DejaVuSans-101"/>
     </g>
    </g>
   </g>
   <g id="line2d_32">
    <path clip-path="url(#p661a328fe6)" d="M 45.901389 36.968507 
L 48.603938 41.073105 
L 51.306488 36.968507 
L 54.009038 33.684828 
L 56.711587 46.819542 
L 59.414137 43.535863 
L 62.116687 45.177702 
L 64.819236 42.714944 
L 67.521786 44.356783 
L 70.224336 42.714944 
L 72.926886 45.177702 
L 75.629435 42.714944 
L 78.331985 43.535863 
L 81.034535 45.177702 
L 83.737084 41.073105 
L 86.439634 32.863909 
L 89.142184 45.177702 
L 91.844734 46.819542 
L 94.547283 49.2823 
L 97.249833 52.565979 
L 99.952383 60.775174 
L 102.654932 73.088968 
L 105.357482 92.791038 
L 108.060032 102.642073 
L 110.762581 109.209429 
L 113.465131 109.209429 
L 116.167681 110.030349 
L 118.870231 110.851268 
L 121.57278 116.597705 
L 124.27533 118.239544 
L 126.97788 109.209429 
L 129.680429 110.030349 
L 132.382979 110.851268 
L 135.085529 110.851268 
L 137.788078 110.030349 
L 140.490628 112.493107 
L 143.193178 115.776786 
" style="fill:none;stroke:#d62728;stroke-linecap:square;stroke-opacity:0.5;"/>
   </g>
   <g id="line2d_33">
    <path clip-path="url(#p661a328fe6)" d="M 45.901389 41.894024 
L 48.603938 25.475633 
L 51.306488 36.147587 
L 54.009038 36.147587 
L 56.711587 36.147587 
L 59.414137 38.610346 
L 62.116687 36.968507 
L 64.819236 41.894024 
L 67.521786 37.789426 
L 70.224336 39.431265 
L 72.926886 41.073105 
L 75.629435 40.252185 
L 78.331985 41.894024 
L 81.034535 41.894024 
L 83.737084 44.356783 
L 86.439634 32.863909 
L 89.142184 41.073105 
L 91.844734 36.147587 
L 94.547283 30.40115 
L 97.249833 24.654713 
L 99.952383 6.594483 
L 102.654932 50.10322 
L 105.357482 70.626209 
L 108.060032 55.849657 
L 110.762581 70.626209 
L 113.465131 68.98437 
L 116.167681 68.163451 
L 118.870231 67.342531 
L 121.57278 76.372646 
L 124.27533 101.000233 
L 126.97788 69.80529 
L 129.680429 70.626209 
L 132.382979 72.268048 
L 135.085529 69.80529 
L 137.788078 65.700692 
L 140.490628 69.80529 
L 143.193178 96.895636 
" style="fill:none;stroke:#9467bd;stroke-linecap:square;stroke-opacity:0.5;"/>
   </g>
   <g id="line2d_34">
    <path clip-path="url(#p661a328fe6)" d="M 45.901389 32.863909 
L 48.603938 40.252185 
L 51.306488 41.894024 
L 54.009038 38.610346 
L 56.711587 45.998622 
L 59.414137 44.356783 
L 62.116687 45.998622 
L 64.819236 44.356783 
L 67.521786 43.535863 
L 70.224336 43.535863 
L 72.926886 46.819542 
L 75.629435 44.356783 
L 78.331985 44.356783 
L 81.034535 45.998622 
L 83.737084 46.819542 
L 86.439634 40.252185 
L 89.142184 46.819542 
L 91.844734 46.819542 
L 94.547283 50.924139 
L 97.249833 51.745059 
L 99.952383 60.775174 
L 102.654932 72.268048 
L 105.357482 79.656325 
L 108.060032 90.328279 
L 110.762581 98.537475 
L 113.465131 97.716555 
L 116.167681 99.358394 
L 118.870231 100.179314 
L 121.57278 105.925751 
L 124.27533 106.74667 
L 126.97788 102.642073 
L 129.680429 102.642073 
L 132.382979 104.283912 
L 135.085529 103.462992 
L 137.788078 101.821153 
L 140.490628 98.537475 
L 143.193178 102.642073 
" style="fill:none;stroke:#e377c2;stroke-linecap:square;stroke-opacity:0.5;"/>
   </g>
   <g id="line2d_35">
    <path clip-path="url(#p661a328fe6)" d="M 45.901389 42.714944 
L 48.603938 42.714944 
L 51.306488 42.714944 
L 54.009038 44.356783 
L 56.711587 44.356783 
L 59.414137 43.535863 
L 62.116687 43.535863 
L 64.819236 43.535863 
L 67.521786 42.714944 
L 70.224336 41.894024 
L 72.926886 42.714944 
L 75.629435 42.714944 
L 78.331985 43.535863 
L 81.034535 43.535863 
L 83.737084 44.356783 
L 86.439634 43.535863 
L 89.142184 43.535863 
L 91.844734 43.535863 
L 94.547283 45.177702 
L 97.249833 46.819542 
L 99.952383 49.2823 
L 102.654932 51.745059 
L 105.357482 59.133335 
L 108.060032 79.656325 
L 110.762581 89.507359 
L 113.465131 91.970118 
L 116.167681 93.611957 
L 118.870231 92.791038 
L 121.57278 88.68644 
L 124.27533 88.68644 
L 126.97788 93.611957 
L 129.680429 94.432877 
L 132.382979 95.253796 
L 135.085529 95.253796 
L 137.788078 93.611957 
L 140.490628 84.581842 
L 143.193178 86.223681 
" style="fill:none;stroke:#bcbd22;stroke-linecap:square;stroke-opacity:0.5;"/>
   </g>
   <g id="line2d_36">
    <path clip-path="url(#p661a328fe6)" d="M 45.901389 45.998622 
L 48.603938 44.356783 
L 51.306488 45.177702 
L 54.009038 44.356783 
L 56.711587 43.535863 
L 59.414137 43.535863 
L 62.116687 43.535863 
L 64.819236 44.356783 
L 67.521786 44.356783 
L 70.224336 45.177702 
L 72.926886 43.535863 
L 75.629435 44.356783 
L 78.331985 44.356783 
L 81.034535 44.356783 
L 83.737084 44.356783 
L 86.439634 45.998622 
L 89.142184 44.356783 
L 91.844734 44.356783 
L 94.547283 43.535863 
L 97.249833 42.714944 
L 99.952383 40.252185 
L 102.654932 37.789426 
L 105.357482 37.789426 
L 108.060032 28.759311 
L 110.762581 24.654713 
L 113.465131 24.654713 
L 116.167681 23.833794 
L 118.870231 23.012874 
L 121.57278 27.938391 
L 124.27533 32.042989 
L 126.97788 23.833794 
L 129.680429 23.012874 
L 132.382979 22.191954 
L 135.085529 22.191954 
L 137.788078 22.191954 
L 140.490628 30.40115 
L 143.193178 32.863909 
" style="fill:none;stroke:#17becf;stroke-linecap:square;stroke-opacity:0.5;"/>
   </g>
   <g id="patch_65">
    <path d="M 37.01 126.44874 
L 37.01 11.52 
" style="fill:none;stroke:#000000;stroke-linecap:square;stroke-linejoin:miter;stroke-width:0.8;"/>
   </g>
   <g id="patch_66">
    <path d="M 208.83811 126.44874 
L 208.83811 11.52 
" style="fill:none;stroke:#000000;stroke-linecap:square;stroke-linejoin:miter;stroke-width:0.8;"/>
   </g>
   <g id="patch_67">
    <path d="M 37.01 126.44874 
L 208.83811 126.44874 
" style="fill:none;stroke:#000000;stroke-linecap:square;stroke-linejoin:miter;stroke-width:0.8;"/>
   </g>
   <g id="patch_68">
    <path d="M 37.01 11.52 
L 208.83811 11.52 
" style="fill:none;stroke:#000000;stroke-linecap:square;stroke-linejoin:miter;stroke-width:0.8;"/>
   </g>
  </g>
 </g>
 <defs>
  <clipPath id="p661a328fe6">
   <rect height="114.92874" width="171.82811" x="37.01" y="11.52"/>
  </clipPath>
 </defs>
</svg>
