<?xml version="1.0" encoding="utf-8" standalone="no"?>
<!DOCTYPE svg PUBLIC "-//W3C//DTD SVG 1.1//EN"
  "http://www.w3.org/Graphics/SVG/1.1/DTD/svg11.dtd">
<!-- Created with matplotlib (https://matplotlib.org/) -->
<svg height="170.07874pt" version="1.1" viewBox="0 0 255.11811 170.07874" width="255.11811pt" xmlns="http://www.w3.org/2000/svg" xmlns:xlink="http://www.w3.org/1999/xlink">
 <defs>
  <style type="text/css">
*{stroke-linecap:butt;stroke-linejoin:round;}
  </style>
 </defs>
 <g id="figure_1">
  <g id="patch_1">
   <path d="M 0 170.07874 
L 255.11811 170.07874 
L 255.11811 0 
L 0 0 
z
" style="fill:#ffffff;"/>
  </g>
  <g id="axes_1">
   <g id="patch_2">
    <path d="M 57.17 126.44874 
L 208.83811 126.44874 
L 208.83811 11.52 
L 57.17 11.52 
z
" style="fill:#ffffff;"/>
   </g>
   <g id="PolyCollection_1">
    <defs>
     <path d="M 64.956433 -43.644834 
L 64.956433 -43.6315 
L 67.187502 -43.633001 
L 69.418572 -43.634501 
L 71.649642 -43.636001 
L 73.880711 -43.637501 
L 76.111781 -43.639002 
L 78.34285 -43.641954 
L 80.57392 -43.645849 
L 82.80499 -43.64952 
L 85.036059 -43.654643 
L 87.267129 -43.662269 
L 89.498198 -43.671801 
L 91.729268 -43.686273 
L 93.960337 -43.705603 
L 96.191407 -43.730401 
L 98.422477 -43.760855 
L 100.653546 -43.795799 
L 102.884616 -43.850175 
L 105.115685 -43.914473 
L 107.346755 -43.9893 
L 109.577824 -44.098437 
L 111.808894 -44.232741 
L 114.039964 -44.400127 
L 116.271033 -44.861568 
L 118.502103 -45.74006 
L 120.733172 -45.967289 
L 122.964242 -46.202492 
L 125.195312 -47.289421 
L 127.426381 -48.964509 
L 129.657451 -49.532768 
L 131.88852 -49.972161 
L 134.11959 -50.490006 
L 136.350659 -50.765551 
L 138.581729 -50.982506 
L 140.812799 -51.456006 
L 143.043868 -51.971608 
L 145.274938 -52.309868 
L 147.506007 -52.673783 
L 149.737077 -53.069923 
L 151.968147 -53.264683 
L 154.199216 -53.344986 
L 154.199216 -85.942851 
L 154.199216 -85.942851 
L 151.968147 -83.471787 
L 149.737077 -80.425586 
L 147.506007 -76.893516 
L 145.274938 -73.88729 
L 143.043868 -71.314063 
L 140.812799 -68.514113 
L 138.581729 -66.078116 
L 136.350659 -64.494545 
L 134.11959 -62.941612 
L 131.88852 -61.053677 
L 129.657451 -59.526436 
L 127.426381 -58.002668 
L 125.195312 -52.552558 
L 122.964242 -50.153015 
L 120.733172 -49.458388 
L 118.502103 -48.85612 
L 116.271033 -46.702705 
L 114.039964 -45.851955 
L 111.808894 -45.448102 
L 109.577824 -45.122803 
L 107.346755 -44.854286 
L 105.115685 -44.652655 
L 102.884616 -44.475724 
L 100.653546 -44.326836 
L 98.422477 -44.217341 
L 96.191407 -44.118662 
L 93.960337 -44.033199 
L 91.729268 -43.96039 
L 89.498198 -43.900255 
L 87.267129 -43.854769 
L 85.036059 -43.815615 
L 82.80499 -43.786328 
L 80.57392 -43.762867 
L 78.34285 -43.738295 
L 76.111781 -43.719006 
L 73.880711 -43.704172 
L 71.649642 -43.689337 
L 69.418572 -43.674503 
L 67.187502 -43.659669 
L 64.956433 -43.644834 
z
" id="m6c2224ebf8" style="stroke:#6495ed;stroke-opacity:0.4;"/>
    </defs>
    <g clip-path="url(#pf2dd1b048a)">
     <use style="fill:#6495ed;fill-opacity:0.4;stroke:#6495ed;stroke-opacity:0.4;" x="0" xlink:href="#m6c2224ebf8" y="170.07874"/>
    </g>
   </g>
   <g id="PolyCollection_2">
    <defs>
     <path d="M 64.956433 -43.637674 
L 64.956433 -43.633558 
L 67.187502 -43.637116 
L 69.418572 -43.640674 
L 71.649642 -43.644232 
L 73.880711 -43.64779 
L 76.111781 -43.651348 
L 78.34285 -43.65734 
L 80.57392 -43.665141 
L 82.80499 -43.672388 
L 85.036059 -43.682081 
L 87.267129 -43.696078 
L 89.498198 -43.712934 
L 91.729268 -43.737322 
L 93.960337 -43.768797 
L 96.191407 -43.807763 
L 98.422477 -43.854333 
L 100.653546 -43.907135 
L 102.884616 -43.985144 
L 105.115685 -44.076902 
L 107.346755 -44.182214 
L 109.577824 -44.329677 
L 111.808894 -44.510132 
L 114.039964 -44.734906 
L 116.271033 -45.292228 
L 118.502103 -46.517681 
L 120.733172 -46.831345 
L 122.964242 -47.164571 
L 125.195312 -48.605099 
L 127.426381 -51.19077 
L 129.657451 -51.991223 
L 131.88852 -52.674906 
L 134.11959 -53.50909 
L 136.350659 -53.998338 
L 138.581729 -54.407916 
L 140.812799 -55.240179 
L 143.043868 -56.162179 
L 145.274938 -56.812772 
L 147.506007 -57.538567 
L 149.737077 -58.355685 
L 151.968147 -58.811295 
L 154.199216 -59.037686 
L 154.199216 -68.458878 
L 154.199216 -68.458878 
L 151.968147 -67.745228 
L 149.737077 -66.615863 
L 147.506007 -64.936204 
L 145.274938 -63.487233 
L 143.043868 -62.224309 
L 140.812799 -60.631279 
L 138.581729 -59.218834 
L 136.350659 -58.434101 
L 134.11959 -57.571212 
L 131.88852 -56.303896 
L 129.657451 -55.278369 
L 127.426381 -54.169034 
L 125.195312 -50.349381 
L 122.964242 -48.47374 
L 120.733172 -47.991128 
L 118.502103 -47.55178 
L 116.271033 -45.903727 
L 114.039964 -45.221116 
L 111.808894 -44.91726 
L 109.577824 -44.672533 
L 107.346755 -44.471261 
L 105.115685 -44.322658 
L 102.884616 -44.192904 
L 100.653546 -44.082068 
L 98.422477 -44.003896 
L 96.191407 -43.934118 
L 93.960337 -43.874438 
L 91.729268 -43.824912 
L 89.498198 -43.785374 
L 87.267129 -43.756817 
L 85.036059 -43.732584 
L 82.80499 -43.715179 
L 80.57392 -43.701679 
L 78.34285 -43.68726 
L 76.111781 -43.676042 
L 73.880711 -43.668369 
L 71.649642 -43.660695 
L 69.418572 -43.653021 
L 67.187502 -43.645347 
L 64.956433 -43.637674 
z
" id="ma069e28967" style="stroke:#6495ed;stroke-opacity:0.6;"/>
    </defs>
    <g clip-path="url(#pf2dd1b048a)">
     <use style="fill:#6495ed;fill-opacity:0.6;stroke:#6495ed;stroke-opacity:0.6;" x="0" xlink:href="#ma069e28967" y="170.07874"/>
    </g>
   </g>
   <g id="PolyCollection_3">
    <defs>
     <path d="M 154.199216 -85.942851 
L 154.199216 -53.344986 
L 156.430286 -53.417735 
L 158.661355 -53.481951 
L 160.892425 -53.53779 
L 163.123494 -53.585474 
L 165.354564 -53.625535 
L 167.585634 -53.658827 
L 169.816703 -53.686298 
L 172.047773 -53.708861 
L 174.278842 -53.727364 
L 176.509912 -53.742446 
L 178.740982 -53.754747 
L 180.972051 -53.764776 
L 183.203121 -53.772959 
L 185.43419 -53.779627 
L 187.66526 -53.78506 
L 189.896329 -53.789485 
L 192.127399 -53.793082 
L 194.358469 -53.796011 
L 196.589538 -53.79839 
L 198.820608 -53.800328 
L 201.051677 -53.801906 
L 201.051677 -158.55874 
L 201.051677 -158.55874 
L 198.820608 -154.3828 
L 196.589538 -150.2866 
L 194.358469 -146.247171 
L 192.127399 -142.310994 
L 189.896329 -138.439319 
L 187.66526 -134.646891 
L 185.43419 -130.920434 
L 183.203121 -127.255662 
L 180.972051 -123.651517 
L 178.740982 -120.104989 
L 176.509912 -116.6576 
L 174.278842 -113.268127 
L 172.047773 -109.961687 
L 169.816703 -106.731536 
L 167.585634 -103.566044 
L 165.354564 -100.4257 
L 163.123494 -97.353261 
L 160.892425 -94.337542 
L 158.661355 -91.418732 
L 156.430286 -88.616796 
L 154.199216 -85.942851 
z
" id="me4435ab4e3" style="stroke:#228b22;stroke-opacity:0.4;"/>
    </defs>
    <g clip-path="url(#pf2dd1b048a)">
     <use style="fill:#228b22;fill-opacity:0.4;stroke:#228b22;stroke-opacity:0.4;" x="0" xlink:href="#me4435ab4e3" y="170.07874"/>
    </g>
   </g>
   <g id="PolyCollection_4">
    <defs>
     <path d="M 154.199216 -68.458878 
L 154.199216 -59.037686 
L 156.430286 -59.254101 
L 158.661355 -59.45453 
L 160.892425 -59.636118 
L 163.123494 -59.797588 
L 165.354564 -59.939191 
L 167.585634 -60.062529 
L 169.816703 -60.169354 
L 172.047773 -60.261902 
L 174.278842 -60.341402 
L 176.509912 -60.410368 
L 178.740982 -60.469848 
L 180.972051 -60.520967 
L 183.203121 -60.565073 
L 185.43419 -60.603053 
L 187.66526 -60.635846 
L 189.896329 -60.664057 
L 192.127399 -60.688329 
L 194.358469 -60.709126 
L 196.589538 -60.727049 
L 198.820608 -60.742426 
L 201.051677 -60.755716 
L 201.051677 -77.281062 
L 201.051677 -77.281062 
L 198.820608 -77.093072 
L 196.589538 -76.890725 
L 194.358469 -76.67324 
L 192.127399 -76.440422 
L 189.896329 -76.190411 
L 187.66526 -75.920955 
L 185.43419 -75.631805 
L 183.203121 -75.320378 
L 180.972051 -74.985895 
L 178.740982 -74.625608 
L 176.509912 -74.237676 
L 174.278842 -73.81944 
L 172.047773 -73.370939 
L 169.816703 -72.889193 
L 167.585634 -72.369864 
L 165.354564 -71.809204 
L 163.123494 -71.207905 
L 160.892425 -70.566279 
L 158.661355 -69.888288 
L 156.430286 -69.180708 
L 154.199216 -68.458878 
z
" id="m376e005d8b" style="stroke:#228b22;stroke-opacity:0.6;"/>
    </defs>
    <g clip-path="url(#pf2dd1b048a)">
     <use style="fill:#228b22;fill-opacity:0.6;stroke:#228b22;stroke-opacity:0.6;" x="0" xlink:href="#m376e005d8b" y="170.07874"/>
    </g>
   </g>
   <g id="PathCollection_1">
    <defs>
     <path d="M -0.866025 1.732051 
L 0 0.866025 
L 0.866025 1.732051 
L 1.732051 0.866025 
L 0.866025 0 
L 1.732051 -0.866025 
L 0.866025 -1.732051 
L 0 -0.866025 
L -0.866025 -1.732051 
L -1.732051 -0.866025 
L -0.866025 0 
L -1.732051 0.866025 
z
" id="m8e6ed8443f" style="stroke:#8a2be2;"/>
    </defs>
    <g clip-path="url(#pf2dd1b048a)">
     <use style="fill:#8a2be2;stroke:#8a2be2;" x="116.271033" xlink:href="#m8e6ed8443f" y="23.012874"/>
    </g>
   </g>
   <g id="PathCollection_2">
    <defs>
     <path d="M 0 -1.732051 
L -0.38887 -0.535233 
L -1.647278 -0.535233 
L -0.629204 0.204441 
L -1.018074 1.401259 
L -0 0.661585 
L 1.018074 1.401259 
L 0.629204 0.204441 
L 1.647278 -0.535233 
L 0.38887 -0.535233 
z
" id="mb1dd375225" style="stroke:#000000;"/>
    </defs>
    <g clip-path="url(#pf2dd1b048a)">
     <use style="stroke:#000000;" x="120.733172" xlink:href="#mb1dd375225" y="23.012874"/>
    </g>
   </g>
   <g id="PathCollection_3">
    <defs>
     <path d="M -1.732051 1.732051 
L 1.732051 1.732051 
L 1.732051 -1.732051 
L -1.732051 -1.732051 
z
" id="m5a1ee4ab9d" style="stroke:#c71585;"/>
    </defs>
    <g clip-path="url(#pf2dd1b048a)">
     <use style="fill:#c71585;stroke:#c71585;" x="129.657451" xlink:href="#m5a1ee4ab9d" y="23.012874"/>
    </g>
   </g>
   <g id="PathCollection_4">
    <defs>
     <path d="M 0 -1.732051 
L -1.647278 -0.535233 
L -1.018074 1.401259 
L 1.018074 1.401259 
L 1.647278 -0.535233 
z
" id="m6d1aa34556" style="stroke:#800000;"/>
    </defs>
    <g clip-path="url(#pf2dd1b048a)">
     <use style="fill:#800000;stroke:#800000;" x="120.733172" xlink:href="#m6d1aa34556" y="28.184667"/>
    </g>
   </g>
   <g id="PathCollection_5">
    <defs>
     <path d="M -0 2.44949 
L 1.469694 0 
L 0 -2.44949 
L -1.469694 -0 
z
" id="m50c0b71a35" style="stroke:#556b2f;"/>
    </defs>
    <g clip-path="url(#pf2dd1b048a)">
     <use style="fill:#556b2f;stroke:#556b2f;" x="111.808894" xlink:href="#m50c0b71a35" y="23.012874"/>
    </g>
   </g>
   <g id="patch_3">
    <path clip-path="url(#pf2dd1b048a)" d="M 64.064005 126.44874 
L 65.848861 126.44874 
L 65.848861 126.44874 
L 64.064005 126.44874 
z
" style="fill:#1f77b4;opacity:0.5;"/>
   </g>
   <g id="patch_4">
    <path clip-path="url(#pf2dd1b048a)" d="M 66.295075 126.44874 
L 68.07993 126.44874 
L 68.07993 126.44874 
L 66.295075 126.44874 
z
" style="fill:#1f77b4;opacity:0.5;"/>
   </g>
   <g id="patch_5">
    <path clip-path="url(#pf2dd1b048a)" d="M 68.526144 126.44874 
L 70.311 126.44874 
L 70.311 126.44874 
L 68.526144 126.44874 
z
" style="fill:#1f77b4;opacity:0.5;"/>
   </g>
   <g id="patch_6">
    <path clip-path="url(#pf2dd1b048a)" d="M 70.757214 126.44874 
L 72.542069 126.44874 
L 72.542069 126.44874 
L 70.757214 126.44874 
z
" style="fill:#1f77b4;opacity:0.5;"/>
   </g>
   <g id="patch_7">
    <path clip-path="url(#pf2dd1b048a)" d="M 72.988283 126.44874 
L 74.773139 126.44874 
L 74.773139 126.44874 
L 72.988283 126.44874 
z
" style="fill:#1f77b4;opacity:0.5;"/>
   </g>
   <g id="patch_8">
    <path clip-path="url(#pf2dd1b048a)" d="M 75.219353 126.44874 
L 77.004209 126.44874 
L 77.004209 126.44874 
L 75.219353 126.44874 
z
" style="fill:#1f77b4;opacity:0.5;"/>
   </g>
   <g id="patch_9">
    <path clip-path="url(#pf2dd1b048a)" d="M 77.450423 126.44874 
L 79.235278 126.44874 
L 79.235278 126.44874 
L 77.450423 126.44874 
z
" style="fill:#1f77b4;opacity:0.5;"/>
   </g>
   <g id="patch_10">
    <path clip-path="url(#pf2dd1b048a)" d="M 79.681492 126.44874 
L 81.466348 126.44874 
L 81.466348 126.44874 
L 79.681492 126.44874 
z
" style="fill:#1f77b4;opacity:0.5;"/>
   </g>
   <g id="patch_11">
    <path clip-path="url(#pf2dd1b048a)" d="M 81.912562 126.44874 
L 83.697417 126.44874 
L 83.697417 126.44874 
L 81.912562 126.44874 
z
" style="fill:#1f77b4;opacity:0.5;"/>
   </g>
   <g id="patch_12">
    <path clip-path="url(#pf2dd1b048a)" d="M 84.143631 126.44874 
L 85.928487 126.44874 
L 85.928487 126.44874 
L 84.143631 126.44874 
z
" style="fill:#1f77b4;opacity:0.5;"/>
   </g>
   <g id="patch_13">
    <path clip-path="url(#pf2dd1b048a)" d="M 86.374701 126.44874 
L 88.159557 126.44874 
L 88.159557 126.44874 
L 86.374701 126.44874 
z
" style="fill:#1f77b4;opacity:0.5;"/>
   </g>
   <g id="patch_14">
    <path clip-path="url(#pf2dd1b048a)" d="M 88.60577 126.44874 
L 90.390626 126.44874 
L 90.390626 126.44874 
L 88.60577 126.44874 
z
" style="fill:#1f77b4;opacity:0.5;"/>
   </g>
   <g id="patch_15">
    <path clip-path="url(#pf2dd1b048a)" d="M 90.83684 126.44874 
L 92.621696 126.44874 
L 92.621696 126.44874 
L 90.83684 126.44874 
z
" style="fill:#1f77b4;opacity:0.5;"/>
   </g>
   <g id="patch_16">
    <path clip-path="url(#pf2dd1b048a)" d="M 93.06791 126.44874 
L 94.852765 126.44874 
L 94.852765 126.448609 
L 93.06791 126.448609 
z
" style="fill:#1f77b4;opacity:0.5;"/>
   </g>
   <g id="patch_17">
    <path clip-path="url(#pf2dd1b048a)" d="M 95.298979 126.44874 
L 97.083835 126.44874 
L 97.083835 126.447819 
L 95.298979 126.447819 
z
" style="fill:#1f77b4;opacity:0.5;"/>
   </g>
   <g id="patch_18">
    <path clip-path="url(#pf2dd1b048a)" d="M 97.530049 126.44874 
L 99.314904 126.44874 
L 99.314904 126.44716 
L 97.530049 126.44716 
z
" style="fill:#1f77b4;opacity:0.5;"/>
   </g>
   <g id="patch_19">
    <path clip-path="url(#pf2dd1b048a)" d="M 99.761118 126.44874 
L 101.545974 126.44874 
L 101.545974 126.445844 
L 99.761118 126.445844 
z
" style="fill:#1f77b4;opacity:0.5;"/>
   </g>
   <g id="patch_20">
    <path clip-path="url(#pf2dd1b048a)" d="M 101.992188 126.44874 
L 103.777044 126.44874 
L 103.777044 126.442289 
L 101.992188 126.442289 
z
" style="fill:#1f77b4;opacity:0.5;"/>
   </g>
   <g id="patch_21">
    <path clip-path="url(#pf2dd1b048a)" d="M 104.223258 126.44874 
L 106.008113 126.44874 
L 106.008113 126.434522 
L 104.223258 126.434522 
z
" style="fill:#1f77b4;opacity:0.5;"/>
   </g>
   <g id="patch_22">
    <path clip-path="url(#pf2dd1b048a)" d="M 106.454327 126.44874 
L 108.239183 126.44874 
L 108.239183 126.426623 
L 106.454327 126.426623 
z
" style="fill:#1f77b4;opacity:0.5;"/>
   </g>
   <g id="patch_23">
    <path clip-path="url(#pf2dd1b048a)" d="M 108.685397 126.44874 
L 110.470252 126.44874 
L 110.470252 126.422542 
L 108.685397 126.422542 
z
" style="fill:#1f77b4;opacity:0.5;"/>
   </g>
   <g id="patch_24">
    <path clip-path="url(#pf2dd1b048a)" d="M 110.916466 126.44874 
L 112.701322 126.44874 
L 112.701322 126.417408 
L 110.916466 126.417408 
z
" style="fill:#1f77b4;opacity:0.5;"/>
   </g>
   <g id="patch_25">
    <path clip-path="url(#pf2dd1b048a)" d="M 113.147536 126.44874 
L 114.932391 126.44874 
L 114.932391 126.413722 
L 113.147536 126.413722 
z
" style="fill:#1f77b4;opacity:0.5;"/>
   </g>
   <g id="patch_26">
    <path clip-path="url(#pf2dd1b048a)" d="M 115.378605 126.44874 
L 117.163461 126.44874 
L 117.163461 126.407535 
L 115.378605 126.407535 
z
" style="fill:#1f77b4;opacity:0.5;"/>
   </g>
   <g id="patch_27">
    <path clip-path="url(#pf2dd1b048a)" d="M 117.609675 126.44874 
L 119.394531 126.44874 
L 119.394531 126.396345 
L 117.609675 126.396345 
z
" style="fill:#1f77b4;opacity:0.5;"/>
   </g>
   <g id="patch_28">
    <path clip-path="url(#pf2dd1b048a)" d="M 119.840745 126.44874 
L 121.6256 126.44874 
L 121.6256 126.375281 
L 119.840745 126.375281 
z
" style="fill:#1f77b4;opacity:0.5;"/>
   </g>
   <g id="patch_29">
    <path clip-path="url(#pf2dd1b048a)" d="M 122.071814 126.44874 
L 123.85667 126.44874 
L 123.85667 126.358167 
L 122.071814 126.358167 
z
" style="fill:#1f77b4;opacity:0.5;"/>
   </g>
   <g id="patch_30">
    <path clip-path="url(#pf2dd1b048a)" d="M 124.302884 126.44874 
L 126.087739 126.44874 
L 126.087739 126.332233 
L 124.302884 126.332233 
z
" style="fill:#1f77b4;opacity:0.5;"/>
   </g>
   <g id="patch_31">
    <path clip-path="url(#pf2dd1b048a)" d="M 126.533953 126.44874 
L 128.318809 126.44874 
L 128.318809 126.306035 
L 126.533953 126.306035 
z
" style="fill:#1f77b4;opacity:0.5;"/>
   </g>
   <g id="patch_32">
    <path clip-path="url(#pf2dd1b048a)" d="M 128.765023 126.44874 
L 130.549879 126.44874 
L 130.549879 126.285235 
L 128.765023 126.285235 
z
" style="fill:#1f77b4;opacity:0.5;"/>
   </g>
   <g id="patch_33">
    <path clip-path="url(#pf2dd1b048a)" d="M 130.996092 126.44874 
L 132.780948 126.44874 
L 132.780948 126.253244 
L 130.996092 126.253244 
z
" style="fill:#1f77b4;opacity:0.5;"/>
   </g>
   <g id="patch_34">
    <path clip-path="url(#pf2dd1b048a)" d="M 133.227162 126.44874 
L 135.012018 126.44874 
L 135.012018 126.212565 
L 133.227162 126.212565 
z
" style="fill:#1f77b4;opacity:0.5;"/>
   </g>
   <g id="patch_35">
    <path clip-path="url(#pf2dd1b048a)" d="M 135.458232 126.44874 
L 137.243087 126.44874 
L 137.243087 126.151744 
L 135.458232 126.151744 
z
" style="fill:#1f77b4;opacity:0.5;"/>
   </g>
   <g id="patch_36">
    <path clip-path="url(#pf2dd1b048a)" d="M 137.689301 126.44874 
L 139.474157 126.44874 
L 139.474157 126.078285 
L 137.689301 126.078285 
z
" style="fill:#1f77b4;opacity:0.5;"/>
   </g>
   <g id="patch_37">
    <path clip-path="url(#pf2dd1b048a)" d="M 139.920371 126.44874 
L 141.705226 126.44874 
L 141.705226 126.00114 
L 139.920371 126.00114 
z
" style="fill:#1f77b4;opacity:0.5;"/>
   </g>
   <g id="patch_38">
    <path clip-path="url(#pf2dd1b048a)" d="M 142.15144 126.44874 
L 143.936296 126.44874 
L 143.936296 125.956117 
L 142.15144 125.956117 
z
" style="fill:#1f77b4;opacity:0.5;"/>
   </g>
   <g id="patch_39">
    <path clip-path="url(#pf2dd1b048a)" d="M 144.38251 126.44874 
L 146.167366 126.44874 
L 146.167366 125.886871 
L 144.38251 125.886871 
z
" style="fill:#1f77b4;opacity:0.5;"/>
   </g>
   <g id="patch_40">
    <path clip-path="url(#pf2dd1b048a)" d="M 146.61358 126.44874 
L 148.398435 126.44874 
L 148.398435 125.79893 
L 146.61358 125.79893 
z
" style="fill:#1f77b4;opacity:0.5;"/>
   </g>
   <g id="patch_41">
    <path clip-path="url(#pf2dd1b048a)" d="M 148.844649 126.44874 
L 150.629505 126.44874 
L 150.629505 125.628052 
L 148.844649 125.628052 
z
" style="fill:#1f77b4;opacity:0.5;"/>
   </g>
   <g id="patch_42">
    <path clip-path="url(#pf2dd1b048a)" d="M 151.075719 126.44874 
L 152.860574 126.44874 
L 152.860574 125.489955 
L 151.075719 125.489955 
z
" style="fill:#1f77b4;opacity:0.5;"/>
   </g>
   <g id="patch_43">
    <path clip-path="url(#pf2dd1b048a)" d="M 153.306788 126.44874 
L 155.091644 126.44874 
L 155.091644 125.246408 
L 153.306788 125.246408 
z
" style="fill:#1f77b4;opacity:0.5;"/>
   </g>
   <g id="patch_44">
    <path clip-path="url(#pf2dd1b048a)" d="M 155.537858 126.44874 
L 157.322714 126.44874 
L 157.322714 125.022344 
L 155.537858 125.022344 
z
" style="fill:#1f77b4;opacity:0.5;"/>
   </g>
   <g id="patch_45">
    <path clip-path="url(#pf2dd1b048a)" d="M 157.768927 126.44874 
L 159.553783 126.44874 
L 159.553783 124.882403 
L 157.768927 124.882403 
z
" style="fill:#1f77b4;opacity:0.5;"/>
   </g>
   <g id="patch_46">
    <path clip-path="url(#pf2dd1b048a)" d="M 159.999997 126.44874 
L 161.784853 126.44874 
L 161.784853 124.767081 
L 159.999997 124.767081 
z
" style="fill:#1f77b4;opacity:0.5;"/>
   </g>
   <g id="patch_47">
    <path clip-path="url(#pf2dd1b048a)" d="M 162.231067 126.44874 
L 164.015922 126.44874 
L 164.015922 124.610552 
L 162.231067 124.610552 
z
" style="fill:#1f77b4;opacity:0.5;"/>
   </g>
   <g id="patch_48">
    <path clip-path="url(#pf2dd1b048a)" d="M 164.462136 126.44874 
L 166.246992 126.44874 
L 166.246992 124.428353 
L 164.462136 124.428353 
z
" style="fill:#1f77b4;opacity:0.5;"/>
   </g>
   <g id="patch_49">
    <path clip-path="url(#pf2dd1b048a)" d="M 166.693206 126.44874 
L 168.478061 126.44874 
L 168.478061 124.241151 
L 166.693206 124.241151 
z
" style="fill:#1f77b4;opacity:0.5;"/>
   </g>
   <g id="patch_50">
    <path clip-path="url(#pf2dd1b048a)" d="M 168.924275 126.44874 
L 170.709131 126.44874 
L 170.709131 124.022485 
L 168.924275 124.022485 
z
" style="fill:#1f77b4;opacity:0.5;"/>
   </g>
   <g id="patch_51">
    <path clip-path="url(#pf2dd1b048a)" d="M 171.155345 126.44874 
L 172.940201 126.44874 
L 172.940201 123.85661 
L 171.155345 123.85661 
z
" style="fill:#1f77b4;opacity:0.5;"/>
   </g>
   <g id="patch_52">
    <path clip-path="url(#pf2dd1b048a)" d="M 173.386415 126.44874 
L 175.17127 126.44874 
L 175.17127 123.70877 
L 173.386415 123.70877 
z
" style="fill:#1f77b4;opacity:0.5;"/>
   </g>
   <g id="patch_53">
    <path clip-path="url(#pf2dd1b048a)" d="M 175.617484 126.44874 
L 177.40234 126.44874 
L 177.40234 123.527097 
L 175.617484 123.527097 
z
" style="fill:#1f77b4;opacity:0.5;"/>
   </g>
   <g id="patch_54">
    <path clip-path="url(#pf2dd1b048a)" d="M 177.848554 126.44874 
L 179.633409 126.44874 
L 179.633409 123.367936 
L 177.848554 123.367936 
z
" style="fill:#1f77b4;opacity:0.5;"/>
   </g>
   <g id="patch_55">
    <path clip-path="url(#pf2dd1b048a)" d="M 180.079623 126.44874 
L 181.864479 126.44874 
L 181.864479 123.159933 
L 180.079623 123.159933 
z
" style="fill:#1f77b4;opacity:0.5;"/>
   </g>
   <g id="patch_56">
    <path clip-path="url(#pf2dd1b048a)" d="M 182.310693 126.44874 
L 184.095549 126.44874 
L 184.095549 122.93824 
L 182.310693 122.93824 
z
" style="fill:#1f77b4;opacity:0.5;"/>
   </g>
   <g id="patch_57">
    <path clip-path="url(#pf2dd1b048a)" d="M 184.541762 126.44874 
L 186.326618 126.44874 
L 186.326618 122.760385 
L 184.541762 122.760385 
z
" style="fill:#1f77b4;opacity:0.5;"/>
   </g>
   <g id="patch_58">
    <path clip-path="url(#pf2dd1b048a)" d="M 186.772832 126.44874 
L 188.557688 126.44874 
L 188.557688 122.545931 
L 186.772832 122.545931 
z
" style="fill:#1f77b4;opacity:0.5;"/>
   </g>
   <g id="patch_59">
    <path clip-path="url(#pf2dd1b048a)" d="M 189.003902 126.44874 
L 190.788757 126.44874 
L 190.788757 122.42192 
L 189.003902 122.42192 
z
" style="fill:#1f77b4;opacity:0.5;"/>
   </g>
   <g id="patch_60">
    <path clip-path="url(#pf2dd1b048a)" d="M 191.234971 126.44874 
L 193.019827 126.44874 
L 193.019827 122.352147 
L 191.234971 122.352147 
z
" style="fill:#1f77b4;opacity:0.5;"/>
   </g>
   <g id="patch_61">
    <path clip-path="url(#pf2dd1b048a)" d="M 193.466041 126.44874 
L 195.250896 126.44874 
L 195.250896 122.029085 
L 193.466041 122.029085 
z
" style="fill:#1f77b4;opacity:0.5;"/>
   </g>
   <g id="patch_62">
    <path clip-path="url(#pf2dd1b048a)" d="M 195.69711 126.44874 
L 197.481966 126.44874 
L 197.481966 121.866369 
L 195.69711 121.866369 
z
" style="fill:#1f77b4;opacity:0.5;"/>
   </g>
   <g id="patch_63">
    <path clip-path="url(#pf2dd1b048a)" d="M 197.92818 126.44874 
L 199.713036 126.44874 
L 199.713036 121.69141 
L 197.92818 121.69141 
z
" style="fill:#1f77b4;opacity:0.5;"/>
   </g>
   <g id="patch_64">
    <path clip-path="url(#pf2dd1b048a)" d="M 200.15925 126.44874 
L 201.944105 126.44874 
L 201.944105 121.553839 
L 200.15925 121.553839 
z
" style="fill:#1f77b4;opacity:0.5;"/>
   </g>
   <g id="matplotlib.axis_1">
    <g id="xtick_1">
     <g id="line2d_1">
      <defs>
       <path d="M 0 0 
L 0 3.5 
" id="m190fdb1b6e" style="stroke:#000000;stroke-width:0.8;"/>
      </defs>
      <g>
       <use style="stroke:#000000;stroke-width:0.8;" x="201.051677" xlink:href="#m190fdb1b6e" y="126.44874"/>
      </g>
     </g>
     <g id="text_1">
      <!-- 19 Apr -->
      <defs>
       <path d="M 12.40625 8.296875 
L 28.515625 8.296875 
L 28.515625 63.921875 
L 10.984375 60.40625 
L 10.984375 69.390625 
L 28.421875 72.90625 
L 38.28125 72.90625 
L 38.28125 8.296875 
L 54.390625 8.296875 
L 54.390625 0 
L 12.40625 0 
z
" id="DejaVuSans-49"/>
       <path d="M 10.984375 1.515625 
L 10.984375 10.5 
Q 14.703125 8.734375 18.5 7.8125 
Q 22.3125 6.890625 25.984375 6.890625 
Q 35.75 6.890625 40.890625 13.453125 
Q 46.046875 20.015625 46.78125 33.40625 
Q 43.953125 29.203125 39.59375 26.953125 
Q 35.25 24.703125 29.984375 24.703125 
Q 19.046875 24.703125 12.671875 31.3125 
Q 6.296875 37.9375 6.296875 49.421875 
Q 6.296875 60.640625 12.9375 67.421875 
Q 19.578125 74.21875 30.609375 74.21875 
Q 43.265625 74.21875 49.921875 64.515625 
Q 56.59375 54.828125 56.59375 36.375 
Q 56.59375 19.140625 48.40625 8.859375 
Q 40.234375 -1.421875 26.421875 -1.421875 
Q 22.703125 -1.421875 18.890625 -0.6875 
Q 15.09375 0.046875 10.984375 1.515625 
z
M 30.609375 32.421875 
Q 37.25 32.421875 41.125 36.953125 
Q 45.015625 41.5 45.015625 49.421875 
Q 45.015625 57.28125 41.125 61.84375 
Q 37.25 66.40625 30.609375 66.40625 
Q 23.96875 66.40625 20.09375 61.84375 
Q 16.21875 57.28125 16.21875 49.421875 
Q 16.21875 41.5 20.09375 36.953125 
Q 23.96875 32.421875 30.609375 32.421875 
z
" id="DejaVuSans-57"/>
       <path id="DejaVuSans-32"/>
       <path d="M 34.1875 63.1875 
L 20.796875 26.90625 
L 47.609375 26.90625 
z
M 28.609375 72.90625 
L 39.796875 72.90625 
L 67.578125 0 
L 57.328125 0 
L 50.6875 18.703125 
L 17.828125 18.703125 
L 11.1875 0 
L 0.78125 0 
z
" id="DejaVuSans-65"/>
       <path d="M 18.109375 8.203125 
L 18.109375 -20.796875 
L 9.078125 -20.796875 
L 9.078125 54.6875 
L 18.109375 54.6875 
L 18.109375 46.390625 
Q 20.953125 51.265625 25.265625 53.625 
Q 29.59375 56 35.59375 56 
Q 45.5625 56 51.78125 48.09375 
Q 58.015625 40.1875 58.015625 27.296875 
Q 58.015625 14.40625 51.78125 6.484375 
Q 45.5625 -1.421875 35.59375 -1.421875 
Q 29.59375 -1.421875 25.265625 0.953125 
Q 20.953125 3.328125 18.109375 8.203125 
z
M 48.6875 27.296875 
Q 48.6875 37.203125 44.609375 42.84375 
Q 40.53125 48.484375 33.40625 48.484375 
Q 26.265625 48.484375 22.1875 42.84375 
Q 18.109375 37.203125 18.109375 27.296875 
Q 18.109375 17.390625 22.1875 11.75 
Q 26.265625 6.109375 33.40625 6.109375 
Q 40.53125 6.109375 44.609375 11.75 
Q 48.6875 17.390625 48.6875 27.296875 
z
" id="DejaVuSans-112"/>
       <path d="M 41.109375 46.296875 
Q 39.59375 47.171875 37.8125 47.578125 
Q 36.03125 48 33.890625 48 
Q 26.265625 48 22.1875 43.046875 
Q 18.109375 38.09375 18.109375 28.8125 
L 18.109375 0 
L 9.078125 0 
L 9.078125 54.6875 
L 18.109375 54.6875 
L 18.109375 46.1875 
Q 20.953125 51.171875 25.484375 53.578125 
Q 30.03125 56 36.53125 56 
Q 37.453125 56 38.578125 55.875 
Q 39.703125 55.765625 41.0625 55.515625 
z
" id="DejaVuSans-114"/>
      </defs>
      <g transform="translate(203.259177 160.01124)rotate(-90)scale(0.08 -0.08)">
       <use xlink:href="#DejaVuSans-49"/>
       <use x="63.623047" xlink:href="#DejaVuSans-57"/>
       <use x="127.246094" xlink:href="#DejaVuSans-32"/>
       <use x="159.033203" xlink:href="#DejaVuSans-65"/>
       <use x="227.441406" xlink:href="#DejaVuSans-112"/>
       <use x="290.917969" xlink:href="#DejaVuSans-114"/>
      </g>
     </g>
    </g>
    <g id="xtick_2">
     <g id="line2d_2">
      <g>
       <use style="stroke:#000000;stroke-width:0.8;" x="185.43419" xlink:href="#m190fdb1b6e" y="126.44874"/>
      </g>
     </g>
     <g id="text_2">
      <!-- 12 Apr -->
      <defs>
       <path d="M 19.1875 8.296875 
L 53.609375 8.296875 
L 53.609375 0 
L 7.328125 0 
L 7.328125 8.296875 
Q 12.9375 14.109375 22.625 23.890625 
Q 32.328125 33.6875 34.8125 36.53125 
Q 39.546875 41.84375 41.421875 45.53125 
Q 43.3125 49.21875 43.3125 52.78125 
Q 43.3125 58.59375 39.234375 62.25 
Q 35.15625 65.921875 28.609375 65.921875 
Q 23.96875 65.921875 18.8125 64.3125 
Q 13.671875 62.703125 7.8125 59.421875 
L 7.8125 69.390625 
Q 13.765625 71.78125 18.9375 73 
Q 24.125 74.21875 28.421875 74.21875 
Q 39.75 74.21875 46.484375 68.546875 
Q 53.21875 62.890625 53.21875 53.421875 
Q 53.21875 48.921875 51.53125 44.890625 
Q 49.859375 40.875 45.40625 35.40625 
Q 44.1875 33.984375 37.640625 27.21875 
Q 31.109375 20.453125 19.1875 8.296875 
z
" id="DejaVuSans-50"/>
      </defs>
      <g transform="translate(187.64169 160.01124)rotate(-90)scale(0.08 -0.08)">
       <use xlink:href="#DejaVuSans-49"/>
       <use x="63.623047" xlink:href="#DejaVuSans-50"/>
       <use x="127.246094" xlink:href="#DejaVuSans-32"/>
       <use x="159.033203" xlink:href="#DejaVuSans-65"/>
       <use x="227.441406" xlink:href="#DejaVuSans-112"/>
       <use x="290.917969" xlink:href="#DejaVuSans-114"/>
      </g>
     </g>
    </g>
    <g id="xtick_3">
     <g id="line2d_3">
      <g>
       <use style="stroke:#000000;stroke-width:0.8;" x="169.816703" xlink:href="#m190fdb1b6e" y="126.44874"/>
      </g>
     </g>
     <g id="text_3">
      <!-- 5 Apr -->
      <defs>
       <path d="M 10.796875 72.90625 
L 49.515625 72.90625 
L 49.515625 64.59375 
L 19.828125 64.59375 
L 19.828125 46.734375 
Q 21.96875 47.46875 24.109375 47.828125 
Q 26.265625 48.1875 28.421875 48.1875 
Q 40.625 48.1875 47.75 41.5 
Q 54.890625 34.8125 54.890625 23.390625 
Q 54.890625 11.625 47.5625 5.09375 
Q 40.234375 -1.421875 26.90625 -1.421875 
Q 22.3125 -1.421875 17.546875 -0.640625 
Q 12.796875 0.140625 7.71875 1.703125 
L 7.71875 11.625 
Q 12.109375 9.234375 16.796875 8.0625 
Q 21.484375 6.890625 26.703125 6.890625 
Q 35.15625 6.890625 40.078125 11.328125 
Q 45.015625 15.765625 45.015625 23.390625 
Q 45.015625 31 40.078125 35.4375 
Q 35.15625 39.890625 26.703125 39.890625 
Q 22.75 39.890625 18.8125 39.015625 
Q 14.890625 38.140625 10.796875 36.28125 
z
" id="DejaVuSans-53"/>
      </defs>
      <g transform="translate(172.024203 154.92124)rotate(-90)scale(0.08 -0.08)">
       <use xlink:href="#DejaVuSans-53"/>
       <use x="63.623047" xlink:href="#DejaVuSans-32"/>
       <use x="95.410156" xlink:href="#DejaVuSans-65"/>
       <use x="163.818359" xlink:href="#DejaVuSans-112"/>
       <use x="227.294922" xlink:href="#DejaVuSans-114"/>
      </g>
     </g>
    </g>
    <g id="xtick_4">
     <g id="line2d_4">
      <g>
       <use style="stroke:#000000;stroke-width:0.8;" x="154.199216" xlink:href="#m190fdb1b6e" y="126.44874"/>
      </g>
     </g>
     <g id="text_4">
      <!-- 29 Mar -->
      <defs>
       <path d="M 9.8125 72.90625 
L 24.515625 72.90625 
L 43.109375 23.296875 
L 61.8125 72.90625 
L 76.515625 72.90625 
L 76.515625 0 
L 66.890625 0 
L 66.890625 64.015625 
L 48.09375 14.015625 
L 38.1875 14.015625 
L 19.390625 64.015625 
L 19.390625 0 
L 9.8125 0 
z
" id="DejaVuSans-77"/>
       <path d="M 34.28125 27.484375 
Q 23.390625 27.484375 19.1875 25 
Q 14.984375 22.515625 14.984375 16.5 
Q 14.984375 11.71875 18.140625 8.90625 
Q 21.296875 6.109375 26.703125 6.109375 
Q 34.1875 6.109375 38.703125 11.40625 
Q 43.21875 16.703125 43.21875 25.484375 
L 43.21875 27.484375 
z
M 52.203125 31.203125 
L 52.203125 0 
L 43.21875 0 
L 43.21875 8.296875 
Q 40.140625 3.328125 35.546875 0.953125 
Q 30.953125 -1.421875 24.3125 -1.421875 
Q 15.921875 -1.421875 10.953125 3.296875 
Q 6 8.015625 6 15.921875 
Q 6 25.140625 12.171875 29.828125 
Q 18.359375 34.515625 30.609375 34.515625 
L 43.21875 34.515625 
L 43.21875 35.40625 
Q 43.21875 41.609375 39.140625 45 
Q 35.0625 48.390625 27.6875 48.390625 
Q 23 48.390625 18.546875 47.265625 
Q 14.109375 46.140625 10.015625 43.890625 
L 10.015625 52.203125 
Q 14.9375 54.109375 19.578125 55.046875 
Q 24.21875 56 28.609375 56 
Q 40.484375 56 46.34375 49.84375 
Q 52.203125 43.703125 52.203125 31.203125 
z
" id="DejaVuSans-97"/>
      </defs>
      <g transform="translate(156.406716 161.26499)rotate(-90)scale(0.08 -0.08)">
       <use xlink:href="#DejaVuSans-50"/>
       <use x="63.623047" xlink:href="#DejaVuSans-57"/>
       <use x="127.246094" xlink:href="#DejaVuSans-32"/>
       <use x="159.033203" xlink:href="#DejaVuSans-77"/>
       <use x="245.3125" xlink:href="#DejaVuSans-97"/>
       <use x="306.591797" xlink:href="#DejaVuSans-114"/>
      </g>
     </g>
    </g>
    <g id="xtick_5">
     <g id="line2d_5">
      <g>
       <use style="stroke:#000000;stroke-width:0.8;" x="138.581729" xlink:href="#m190fdb1b6e" y="126.44874"/>
      </g>
     </g>
     <g id="text_5">
      <!-- 22 Mar -->
      <g transform="translate(140.789229 161.26499)rotate(-90)scale(0.08 -0.08)">
       <use xlink:href="#DejaVuSans-50"/>
       <use x="63.623047" xlink:href="#DejaVuSans-50"/>
       <use x="127.246094" xlink:href="#DejaVuSans-32"/>
       <use x="159.033203" xlink:href="#DejaVuSans-77"/>
       <use x="245.3125" xlink:href="#DejaVuSans-97"/>
       <use x="306.591797" xlink:href="#DejaVuSans-114"/>
      </g>
     </g>
    </g>
    <g id="xtick_6">
     <g id="line2d_6">
      <g>
       <use style="stroke:#000000;stroke-width:0.8;" x="122.964242" xlink:href="#m190fdb1b6e" y="126.44874"/>
      </g>
     </g>
     <g id="text_6">
      <!-- 15 Mar -->
      <g transform="translate(125.171742 161.26499)rotate(-90)scale(0.08 -0.08)">
       <use xlink:href="#DejaVuSans-49"/>
       <use x="63.623047" xlink:href="#DejaVuSans-53"/>
       <use x="127.246094" xlink:href="#DejaVuSans-32"/>
       <use x="159.033203" xlink:href="#DejaVuSans-77"/>
       <use x="245.3125" xlink:href="#DejaVuSans-97"/>
       <use x="306.591797" xlink:href="#DejaVuSans-114"/>
      </g>
     </g>
    </g>
    <g id="xtick_7">
     <g id="line2d_7">
      <g>
       <use style="stroke:#000000;stroke-width:0.8;" x="107.346755" xlink:href="#m190fdb1b6e" y="126.44874"/>
      </g>
     </g>
     <g id="text_7">
      <!-- 8 Mar -->
      <defs>
       <path d="M 31.78125 34.625 
Q 24.75 34.625 20.71875 30.859375 
Q 16.703125 27.09375 16.703125 20.515625 
Q 16.703125 13.921875 20.71875 10.15625 
Q 24.75 6.390625 31.78125 6.390625 
Q 38.8125 6.390625 42.859375 10.171875 
Q 46.921875 13.96875 46.921875 20.515625 
Q 46.921875 27.09375 42.890625 30.859375 
Q 38.875 34.625 31.78125 34.625 
z
M 21.921875 38.8125 
Q 15.578125 40.375 12.03125 44.71875 
Q 8.5 49.078125 8.5 55.328125 
Q 8.5 64.0625 14.71875 69.140625 
Q 20.953125 74.21875 31.78125 74.21875 
Q 42.671875 74.21875 48.875 69.140625 
Q 55.078125 64.0625 55.078125 55.328125 
Q 55.078125 49.078125 51.53125 44.71875 
Q 48 40.375 41.703125 38.8125 
Q 48.828125 37.15625 52.796875 32.3125 
Q 56.78125 27.484375 56.78125 20.515625 
Q 56.78125 9.90625 50.3125 4.234375 
Q 43.84375 -1.421875 31.78125 -1.421875 
Q 19.734375 -1.421875 13.25 4.234375 
Q 6.78125 9.90625 6.78125 20.515625 
Q 6.78125 27.484375 10.78125 32.3125 
Q 14.796875 37.15625 21.921875 38.8125 
z
M 18.3125 54.390625 
Q 18.3125 48.734375 21.84375 45.5625 
Q 25.390625 42.390625 31.78125 42.390625 
Q 38.140625 42.390625 41.71875 45.5625 
Q 45.3125 48.734375 45.3125 54.390625 
Q 45.3125 60.0625 41.71875 63.234375 
Q 38.140625 66.40625 31.78125 66.40625 
Q 25.390625 66.40625 21.84375 63.234375 
Q 18.3125 60.0625 18.3125 54.390625 
z
" id="DejaVuSans-56"/>
      </defs>
      <g transform="translate(109.554255 156.17499)rotate(-90)scale(0.08 -0.08)">
       <use xlink:href="#DejaVuSans-56"/>
       <use x="63.623047" xlink:href="#DejaVuSans-32"/>
       <use x="95.410156" xlink:href="#DejaVuSans-77"/>
       <use x="181.689453" xlink:href="#DejaVuSans-97"/>
       <use x="242.96875" xlink:href="#DejaVuSans-114"/>
      </g>
     </g>
    </g>
    <g id="xtick_8">
     <g id="line2d_8">
      <g>
       <use style="stroke:#000000;stroke-width:0.8;" x="91.729268" xlink:href="#m190fdb1b6e" y="126.44874"/>
      </g>
     </g>
     <g id="text_8">
      <!-- 1 Mar -->
      <g transform="translate(93.936768 156.17499)rotate(-90)scale(0.08 -0.08)">
       <use xlink:href="#DejaVuSans-49"/>
       <use x="63.623047" xlink:href="#DejaVuSans-32"/>
       <use x="95.410156" xlink:href="#DejaVuSans-77"/>
       <use x="181.689453" xlink:href="#DejaVuSans-97"/>
       <use x="242.96875" xlink:href="#DejaVuSans-114"/>
      </g>
     </g>
    </g>
    <g id="xtick_9">
     <g id="line2d_9">
      <g>
       <use style="stroke:#000000;stroke-width:0.8;" x="76.111781" xlink:href="#m190fdb1b6e" y="126.44874"/>
      </g>
     </g>
     <g id="text_9">
      <!-- 23 Feb -->
      <defs>
       <path d="M 40.578125 39.3125 
Q 47.65625 37.796875 51.625 33 
Q 55.609375 28.21875 55.609375 21.1875 
Q 55.609375 10.40625 48.1875 4.484375 
Q 40.765625 -1.421875 27.09375 -1.421875 
Q 22.515625 -1.421875 17.65625 -0.515625 
Q 12.796875 0.390625 7.625 2.203125 
L 7.625 11.71875 
Q 11.71875 9.328125 16.59375 8.109375 
Q 21.484375 6.890625 26.8125 6.890625 
Q 36.078125 6.890625 40.9375 10.546875 
Q 45.796875 14.203125 45.796875 21.1875 
Q 45.796875 27.640625 41.28125 31.265625 
Q 36.765625 34.90625 28.71875 34.90625 
L 20.21875 34.90625 
L 20.21875 43.015625 
L 29.109375 43.015625 
Q 36.375 43.015625 40.234375 45.921875 
Q 44.09375 48.828125 44.09375 54.296875 
Q 44.09375 59.90625 40.109375 62.90625 
Q 36.140625 65.921875 28.71875 65.921875 
Q 24.65625 65.921875 20.015625 65.03125 
Q 15.375 64.15625 9.8125 62.3125 
L 9.8125 71.09375 
Q 15.4375 72.65625 20.34375 73.4375 
Q 25.25 74.21875 29.59375 74.21875 
Q 40.828125 74.21875 47.359375 69.109375 
Q 53.90625 64.015625 53.90625 55.328125 
Q 53.90625 49.265625 50.4375 45.09375 
Q 46.96875 40.921875 40.578125 39.3125 
z
" id="DejaVuSans-51"/>
       <path d="M 9.8125 72.90625 
L 51.703125 72.90625 
L 51.703125 64.59375 
L 19.671875 64.59375 
L 19.671875 43.109375 
L 48.578125 43.109375 
L 48.578125 34.8125 
L 19.671875 34.8125 
L 19.671875 0 
L 9.8125 0 
z
" id="DejaVuSans-70"/>
       <path d="M 56.203125 29.59375 
L 56.203125 25.203125 
L 14.890625 25.203125 
Q 15.484375 15.921875 20.484375 11.0625 
Q 25.484375 6.203125 34.421875 6.203125 
Q 39.59375 6.203125 44.453125 7.46875 
Q 49.3125 8.734375 54.109375 11.28125 
L 54.109375 2.78125 
Q 49.265625 0.734375 44.1875 -0.34375 
Q 39.109375 -1.421875 33.890625 -1.421875 
Q 20.796875 -1.421875 13.15625 6.1875 
Q 5.515625 13.8125 5.515625 26.8125 
Q 5.515625 40.234375 12.765625 48.109375 
Q 20.015625 56 32.328125 56 
Q 43.359375 56 49.78125 48.890625 
Q 56.203125 41.796875 56.203125 29.59375 
z
M 47.21875 32.234375 
Q 47.125 39.59375 43.09375 43.984375 
Q 39.0625 48.390625 32.421875 48.390625 
Q 24.90625 48.390625 20.390625 44.140625 
Q 15.875 39.890625 15.1875 32.171875 
z
" id="DejaVuSans-101"/>
       <path d="M 48.6875 27.296875 
Q 48.6875 37.203125 44.609375 42.84375 
Q 40.53125 48.484375 33.40625 48.484375 
Q 26.265625 48.484375 22.1875 42.84375 
Q 18.109375 37.203125 18.109375 27.296875 
Q 18.109375 17.390625 22.1875 11.75 
Q 26.265625 6.109375 33.40625 6.109375 
Q 40.53125 6.109375 44.609375 11.75 
Q 48.6875 17.390625 48.6875 27.296875 
z
M 18.109375 46.390625 
Q 20.953125 51.265625 25.265625 53.625 
Q 29.59375 56 35.59375 56 
Q 45.5625 56 51.78125 48.09375 
Q 58.015625 40.1875 58.015625 27.296875 
Q 58.015625 14.40625 51.78125 6.484375 
Q 45.5625 -1.421875 35.59375 -1.421875 
Q 29.59375 -1.421875 25.265625 0.953125 
Q 20.953125 3.328125 18.109375 8.203125 
L 18.109375 0 
L 9.078125 0 
L 9.078125 75.984375 
L 18.109375 75.984375 
z
" id="DejaVuSans-98"/>
      </defs>
      <g transform="translate(78.319281 160.33374)rotate(-90)scale(0.08 -0.08)">
       <use xlink:href="#DejaVuSans-50"/>
       <use x="63.623047" xlink:href="#DejaVuSans-51"/>
       <use x="127.246094" xlink:href="#DejaVuSans-32"/>
       <use x="159.033203" xlink:href="#DejaVuSans-70"/>
       <use x="211.052734" xlink:href="#DejaVuSans-101"/>
       <use x="272.576172" xlink:href="#DejaVuSans-98"/>
      </g>
     </g>
    </g>
   </g>
   <g id="matplotlib.axis_2">
    <g id="ytick_1">
     <g id="line2d_10">
      <defs>
       <path d="M 0 0 
L -3.5 0 
" id="m2d133adbbb" style="stroke:#000000;stroke-width:0.8;"/>
      </defs>
      <g>
       <use style="stroke:#000000;stroke-width:0.8;" x="57.17" xlink:href="#m2d133adbbb" y="126.44874"/>
      </g>
     </g>
     <g id="text_10">
      <!-- 0 -->
      <defs>
       <path d="M 31.78125 66.40625 
Q 24.171875 66.40625 20.328125 58.90625 
Q 16.5 51.421875 16.5 36.375 
Q 16.5 21.390625 20.328125 13.890625 
Q 24.171875 6.390625 31.78125 6.390625 
Q 39.453125 6.390625 43.28125 13.890625 
Q 47.125 21.390625 47.125 36.375 
Q 47.125 51.421875 43.28125 58.90625 
Q 39.453125 66.40625 31.78125 66.40625 
z
M 31.78125 74.21875 
Q 44.046875 74.21875 50.515625 64.515625 
Q 56.984375 54.828125 56.984375 36.375 
Q 56.984375 17.96875 50.515625 8.265625 
Q 44.046875 -1.421875 31.78125 -1.421875 
Q 19.53125 -1.421875 13.0625 8.265625 
Q 6.59375 17.96875 6.59375 36.375 
Q 6.59375 54.828125 13.0625 64.515625 
Q 19.53125 74.21875 31.78125 74.21875 
z
" id="DejaVuSans-48"/>
      </defs>
      <g transform="translate(45.08 129.488115)scale(0.08 -0.08)">
       <use xlink:href="#DejaVuSans-48"/>
      </g>
     </g>
    </g>
    <g id="ytick_2">
     <g id="line2d_11">
      <g>
       <use style="stroke:#000000;stroke-width:0.8;" x="57.17" xlink:href="#m2d133adbbb" y="100.119329"/>
      </g>
     </g>
     <g id="text_11">
      <!-- 200000 -->
      <g transform="translate(19.63 103.158704)scale(0.08 -0.08)">
       <use xlink:href="#DejaVuSans-50"/>
       <use x="63.623047" xlink:href="#DejaVuSans-48"/>
       <use x="127.246094" xlink:href="#DejaVuSans-48"/>
       <use x="190.869141" xlink:href="#DejaVuSans-48"/>
       <use x="254.492188" xlink:href="#DejaVuSans-48"/>
       <use x="318.115234" xlink:href="#DejaVuSans-48"/>
      </g>
     </g>
    </g>
    <g id="ytick_3">
     <g id="line2d_12">
      <g>
       <use style="stroke:#000000;stroke-width:0.8;" x="57.17" xlink:href="#m2d133adbbb" y="73.789917"/>
      </g>
     </g>
     <g id="text_12">
      <!-- 400000 -->
      <defs>
       <path d="M 37.796875 64.3125 
L 12.890625 25.390625 
L 37.796875 25.390625 
z
M 35.203125 72.90625 
L 47.609375 72.90625 
L 47.609375 25.390625 
L 58.015625 25.390625 
L 58.015625 17.1875 
L 47.609375 17.1875 
L 47.609375 0 
L 37.796875 0 
L 37.796875 17.1875 
L 4.890625 17.1875 
L 4.890625 26.703125 
z
" id="DejaVuSans-52"/>
      </defs>
      <g transform="translate(19.63 76.829292)scale(0.08 -0.08)">
       <use xlink:href="#DejaVuSans-52"/>
       <use x="63.623047" xlink:href="#DejaVuSans-48"/>
       <use x="127.246094" xlink:href="#DejaVuSans-48"/>
       <use x="190.869141" xlink:href="#DejaVuSans-48"/>
       <use x="254.492188" xlink:href="#DejaVuSans-48"/>
       <use x="318.115234" xlink:href="#DejaVuSans-48"/>
      </g>
     </g>
    </g>
    <g id="ytick_4">
     <g id="line2d_13">
      <g>
       <use style="stroke:#000000;stroke-width:0.8;" x="57.17" xlink:href="#m2d133adbbb" y="47.460506"/>
      </g>
     </g>
     <g id="text_13">
      <!-- 600000 -->
      <defs>
       <path d="M 33.015625 40.375 
Q 26.375 40.375 22.484375 35.828125 
Q 18.609375 31.296875 18.609375 23.390625 
Q 18.609375 15.53125 22.484375 10.953125 
Q 26.375 6.390625 33.015625 6.390625 
Q 39.65625 6.390625 43.53125 10.953125 
Q 47.40625 15.53125 47.40625 23.390625 
Q 47.40625 31.296875 43.53125 35.828125 
Q 39.65625 40.375 33.015625 40.375 
z
M 52.59375 71.296875 
L 52.59375 62.3125 
Q 48.875 64.0625 45.09375 64.984375 
Q 41.3125 65.921875 37.59375 65.921875 
Q 27.828125 65.921875 22.671875 59.328125 
Q 17.53125 52.734375 16.796875 39.40625 
Q 19.671875 43.65625 24.015625 45.921875 
Q 28.375 48.1875 33.59375 48.1875 
Q 44.578125 48.1875 50.953125 41.515625 
Q 57.328125 34.859375 57.328125 23.390625 
Q 57.328125 12.15625 50.6875 5.359375 
Q 44.046875 -1.421875 33.015625 -1.421875 
Q 20.359375 -1.421875 13.671875 8.265625 
Q 6.984375 17.96875 6.984375 36.375 
Q 6.984375 53.65625 15.1875 63.9375 
Q 23.390625 74.21875 37.203125 74.21875 
Q 40.921875 74.21875 44.703125 73.484375 
Q 48.484375 72.75 52.59375 71.296875 
z
" id="DejaVuSans-54"/>
      </defs>
      <g transform="translate(19.63 50.499881)scale(0.08 -0.08)">
       <use xlink:href="#DejaVuSans-54"/>
       <use x="63.623047" xlink:href="#DejaVuSans-48"/>
       <use x="127.246094" xlink:href="#DejaVuSans-48"/>
       <use x="190.869141" xlink:href="#DejaVuSans-48"/>
       <use x="254.492188" xlink:href="#DejaVuSans-48"/>
       <use x="318.115234" xlink:href="#DejaVuSans-48"/>
      </g>
     </g>
    </g>
    <g id="ytick_5">
     <g id="line2d_14">
      <g>
       <use style="stroke:#000000;stroke-width:0.8;" x="57.17" xlink:href="#m2d133adbbb" y="21.131094"/>
      </g>
     </g>
     <g id="text_14">
      <!-- 800000 -->
      <g transform="translate(19.63 24.170469)scale(0.08 -0.08)">
       <use xlink:href="#DejaVuSans-56"/>
       <use x="63.623047" xlink:href="#DejaVuSans-48"/>
       <use x="127.246094" xlink:href="#DejaVuSans-48"/>
       <use x="190.869141" xlink:href="#DejaVuSans-48"/>
       <use x="254.492188" xlink:href="#DejaVuSans-48"/>
       <use x="318.115234" xlink:href="#DejaVuSans-48"/>
      </g>
     </g>
    </g>
    <g id="text_15">
     <!-- Cumulative cases -->
     <defs>
      <path d="M 64.40625 67.28125 
L 64.40625 56.890625 
Q 59.421875 61.53125 53.78125 63.8125 
Q 48.140625 66.109375 41.796875 66.109375 
Q 29.296875 66.109375 22.65625 58.46875 
Q 16.015625 50.828125 16.015625 36.375 
Q 16.015625 21.96875 22.65625 14.328125 
Q 29.296875 6.6875 41.796875 6.6875 
Q 48.140625 6.6875 53.78125 8.984375 
Q 59.421875 11.28125 64.40625 15.921875 
L 64.40625 5.609375 
Q 59.234375 2.09375 53.4375 0.328125 
Q 47.65625 -1.421875 41.21875 -1.421875 
Q 24.65625 -1.421875 15.125 8.703125 
Q 5.609375 18.84375 5.609375 36.375 
Q 5.609375 53.953125 15.125 64.078125 
Q 24.65625 74.21875 41.21875 74.21875 
Q 47.75 74.21875 53.53125 72.484375 
Q 59.328125 70.75 64.40625 67.28125 
z
" id="DejaVuSans-67"/>
      <path d="M 8.5 21.578125 
L 8.5 54.6875 
L 17.484375 54.6875 
L 17.484375 21.921875 
Q 17.484375 14.15625 20.5 10.265625 
Q 23.53125 6.390625 29.59375 6.390625 
Q 36.859375 6.390625 41.078125 11.03125 
Q 45.3125 15.671875 45.3125 23.6875 
L 45.3125 54.6875 
L 54.296875 54.6875 
L 54.296875 0 
L 45.3125 0 
L 45.3125 8.40625 
Q 42.046875 3.421875 37.71875 1 
Q 33.40625 -1.421875 27.6875 -1.421875 
Q 18.265625 -1.421875 13.375 4.4375 
Q 8.5 10.296875 8.5 21.578125 
z
M 31.109375 56 
z
" id="DejaVuSans-117"/>
      <path d="M 52 44.1875 
Q 55.375 50.25 60.0625 53.125 
Q 64.75 56 71.09375 56 
Q 79.640625 56 84.28125 50.015625 
Q 88.921875 44.046875 88.921875 33.015625 
L 88.921875 0 
L 79.890625 0 
L 79.890625 32.71875 
Q 79.890625 40.578125 77.09375 44.375 
Q 74.3125 48.1875 68.609375 48.1875 
Q 61.625 48.1875 57.5625 43.546875 
Q 53.515625 38.921875 53.515625 30.90625 
L 53.515625 0 
L 44.484375 0 
L 44.484375 32.71875 
Q 44.484375 40.625 41.703125 44.40625 
Q 38.921875 48.1875 33.109375 48.1875 
Q 26.21875 48.1875 22.15625 43.53125 
Q 18.109375 38.875 18.109375 30.90625 
L 18.109375 0 
L 9.078125 0 
L 9.078125 54.6875 
L 18.109375 54.6875 
L 18.109375 46.1875 
Q 21.1875 51.21875 25.484375 53.609375 
Q 29.78125 56 35.6875 56 
Q 41.65625 56 45.828125 52.96875 
Q 50 49.953125 52 44.1875 
z
" id="DejaVuSans-109"/>
      <path d="M 9.421875 75.984375 
L 18.40625 75.984375 
L 18.40625 0 
L 9.421875 0 
z
" id="DejaVuSans-108"/>
      <path d="M 18.3125 70.21875 
L 18.3125 54.6875 
L 36.8125 54.6875 
L 36.8125 47.703125 
L 18.3125 47.703125 
L 18.3125 18.015625 
Q 18.3125 11.328125 20.140625 9.421875 
Q 21.96875 7.515625 27.59375 7.515625 
L 36.8125 7.515625 
L 36.8125 0 
L 27.59375 0 
Q 17.1875 0 13.234375 3.875 
Q 9.28125 7.765625 9.28125 18.015625 
L 9.28125 47.703125 
L 2.6875 47.703125 
L 2.6875 54.6875 
L 9.28125 54.6875 
L 9.28125 70.21875 
z
" id="DejaVuSans-116"/>
      <path d="M 9.421875 54.6875 
L 18.40625 54.6875 
L 18.40625 0 
L 9.421875 0 
z
M 9.421875 75.984375 
L 18.40625 75.984375 
L 18.40625 64.59375 
L 9.421875 64.59375 
z
" id="DejaVuSans-105"/>
      <path d="M 2.984375 54.6875 
L 12.5 54.6875 
L 29.59375 8.796875 
L 46.6875 54.6875 
L 56.203125 54.6875 
L 35.6875 0 
L 23.484375 0 
z
" id="DejaVuSans-118"/>
      <path d="M 48.78125 52.59375 
L 48.78125 44.1875 
Q 44.96875 46.296875 41.140625 47.34375 
Q 37.3125 48.390625 33.40625 48.390625 
Q 24.65625 48.390625 19.8125 42.84375 
Q 14.984375 37.3125 14.984375 27.296875 
Q 14.984375 17.28125 19.8125 11.734375 
Q 24.65625 6.203125 33.40625 6.203125 
Q 37.3125 6.203125 41.140625 7.25 
Q 44.96875 8.296875 48.78125 10.40625 
L 48.78125 2.09375 
Q 45.015625 0.34375 40.984375 -0.53125 
Q 36.96875 -1.421875 32.421875 -1.421875 
Q 20.0625 -1.421875 12.78125 6.34375 
Q 5.515625 14.109375 5.515625 27.296875 
Q 5.515625 40.671875 12.859375 48.328125 
Q 20.21875 56 33.015625 56 
Q 37.15625 56 41.109375 55.140625 
Q 45.0625 54.296875 48.78125 52.59375 
z
" id="DejaVuSans-99"/>
      <path d="M 44.28125 53.078125 
L 44.28125 44.578125 
Q 40.484375 46.53125 36.375 47.5 
Q 32.28125 48.484375 27.875 48.484375 
Q 21.1875 48.484375 17.84375 46.4375 
Q 14.5 44.390625 14.5 40.28125 
Q 14.5 37.15625 16.890625 35.375 
Q 19.28125 33.59375 26.515625 31.984375 
L 29.59375 31.296875 
Q 39.15625 29.25 43.1875 25.515625 
Q 47.21875 21.78125 47.21875 15.09375 
Q 47.21875 7.46875 41.1875 3.015625 
Q 35.15625 -1.421875 24.609375 -1.421875 
Q 20.21875 -1.421875 15.453125 -0.5625 
Q 10.6875 0.296875 5.421875 2 
L 5.421875 11.28125 
Q 10.40625 8.6875 15.234375 7.390625 
Q 20.0625 6.109375 24.8125 6.109375 
Q 31.15625 6.109375 34.5625 8.28125 
Q 37.984375 10.453125 37.984375 14.40625 
Q 37.984375 18.0625 35.515625 20.015625 
Q 33.0625 21.96875 24.703125 23.78125 
L 21.578125 24.515625 
Q 13.234375 26.265625 9.515625 29.90625 
Q 5.8125 33.546875 5.8125 39.890625 
Q 5.8125 47.609375 11.28125 51.796875 
Q 16.75 56 26.8125 56 
Q 31.78125 56 36.171875 55.265625 
Q 40.578125 54.546875 44.28125 53.078125 
z
" id="DejaVuSans-115"/>
     </defs>
     <g transform="translate(13.96625 104.364995)rotate(-90)scale(0.08 -0.08)">
      <use xlink:href="#DejaVuSans-67"/>
      <use x="69.824219" xlink:href="#DejaVuSans-117"/>
      <use x="133.203125" xlink:href="#DejaVuSans-109"/>
      <use x="230.615234" xlink:href="#DejaVuSans-117"/>
      <use x="293.994141" xlink:href="#DejaVuSans-108"/>
      <use x="321.777344" xlink:href="#DejaVuSans-97"/>
      <use x="383.056641" xlink:href="#DejaVuSans-116"/>
      <use x="422.265625" xlink:href="#DejaVuSans-105"/>
      <use x="450.048828" xlink:href="#DejaVuSans-118"/>
      <use x="509.228516" xlink:href="#DejaVuSans-101"/>
      <use x="570.751953" xlink:href="#DejaVuSans-32"/>
      <use x="602.539062" xlink:href="#DejaVuSans-99"/>
      <use x="657.519531" xlink:href="#DejaVuSans-97"/>
      <use x="718.798828" xlink:href="#DejaVuSans-115"/>
      <use x="770.898438" xlink:href="#DejaVuSans-101"/>
      <use x="832.421875" xlink:href="#DejaVuSans-115"/>
     </g>
    </g>
   </g>
   <g id="line2d_15">
    <path clip-path="url(#pf2dd1b048a)" d="M 64.956433 126.442724 
L 67.187502 126.436708 
L 69.418572 126.430691 
L 71.649642 126.424675 
L 73.880711 126.418659 
L 76.111781 126.412642 
L 78.34285 126.403673 
L 80.57392 126.392112 
L 82.80499 126.38126 
L 85.036059 126.367153 
L 87.267129 126.347408 
L 89.498198 126.32405 
L 91.729268 126.291381 
L 93.960337 126.25013 
L 96.191407 126.199851 
L 98.422477 126.14048 
L 100.653546 126.073632 
L 102.884616 125.977783 
L 105.115685 125.865457 
L 107.346755 125.736922 
L 109.577824 125.560422 
L 111.808894 125.344825 
L 114.039964 125.076968 
L 116.271033 124.452069 
L 118.502103 123.000712 
L 120.733172 122.618451 
L 122.964242 122.201402 
L 125.195312 120.528125 
L 127.426381 117.262333 
L 129.657451 116.291626 
L 131.88852 115.414687 
L 134.11959 114.336475 
L 136.350659 113.621026 
L 138.581729 112.974281 
L 140.812799 111.794441 
L 143.043868 110.465637 
L 145.274938 109.425314 
L 147.506007 108.236623 
L 149.737077 106.865863 
L 151.968147 105.93578 
L 154.199216 105.333539 
" style="fill:none;stroke:#0000ff;stroke-linecap:square;stroke-opacity:0.5;"/>
   </g>
   <g id="line2d_16">
    <path clip-path="url(#pf2dd1b048a)" d="M 156.430286 104.715407 
L 158.661355 104.096576 
L 160.892425 103.487272 
L 163.123494 102.892173 
L 165.354564 102.312136 
L 167.585634 101.745798 
L 169.816703 101.190652 
L 172.047773 100.643661 
L 174.278842 100.101569 
L 176.509912 99.561026 
L 178.740982 99.018633 
L 180.972051 98.470923 
L 183.203121 97.914325 
L 185.43419 97.345122 
L 187.66526 96.759386 
L 189.896329 96.152929 
L 192.127399 95.521227 
L 194.358469 94.85935 
L 196.589538 94.161883 
L 198.820608 93.422829 
L 201.051677 92.63551 
" style="fill:none;stroke:#008000;stroke-linecap:square;stroke-opacity:0.5;"/>
   </g>
   <g id="line2d_17">
    <path clip-path="url(#pf2dd1b048a)" d="M 116.271033 126.44874 
L 116.271033 11.52 
" style="fill:none;stroke:#0000ff;stroke-dasharray:1.85,0.8;stroke-dashoffset:0;stroke-width:0.5;"/>
   </g>
   <g id="line2d_18">
    <path clip-path="url(#pf2dd1b048a)" d="M 120.733172 126.44874 
L 120.733172 11.52 
" style="fill:none;stroke:#0000ff;stroke-dasharray:1.85,0.8;stroke-dashoffset:0;stroke-width:0.5;"/>
   </g>
   <g id="line2d_19">
    <path clip-path="url(#pf2dd1b048a)" d="M 129.657451 126.44874 
L 129.657451 11.52 
" style="fill:none;stroke:#0000ff;stroke-dasharray:1.85,0.8;stroke-dashoffset:0;stroke-width:0.5;"/>
   </g>
   <g id="line2d_20">
    <path clip-path="url(#pf2dd1b048a)" d="M 120.733172 126.44874 
L 120.733172 11.52 
" style="fill:none;stroke:#0000ff;stroke-dasharray:1.85,0.8;stroke-dashoffset:0;stroke-width:0.5;"/>
   </g>
   <g id="line2d_21">
    <path clip-path="url(#pf2dd1b048a)" d="M 111.808894 126.44874 
L 111.808894 11.52 
" style="fill:none;stroke:#0000ff;stroke-dasharray:1.85,0.8;stroke-dashoffset:0;stroke-width:0.5;"/>
   </g>
   <g id="patch_65">
    <path d="M 57.17 126.44874 
L 57.17 11.52 
" style="fill:none;stroke:#000000;stroke-linecap:square;stroke-linejoin:miter;stroke-width:0.8;"/>
   </g>
   <g id="patch_66">
    <path d="M 208.83811 126.44874 
L 208.83811 11.52 
" style="fill:none;stroke:#000000;stroke-linecap:square;stroke-linejoin:miter;stroke-width:0.8;"/>
   </g>
   <g id="patch_67">
    <path d="M 57.17 126.44874 
L 208.83811 126.44874 
" style="fill:none;stroke:#000000;stroke-linecap:square;stroke-linejoin:miter;stroke-width:0.8;"/>
   </g>
   <g id="patch_68">
    <path d="M 57.17 11.52 
L 208.83811 11.52 
" style="fill:none;stroke:#000000;stroke-linecap:square;stroke-linejoin:miter;stroke-width:0.8;"/>
   </g>
   <g id="legend_1">
    <g id="line2d_22">
     <path d="M 64.37 103.04249 
L 80.37 103.04249 
" style="fill:none;stroke:#0000ff;stroke-linecap:square;stroke-opacity:0.5;"/>
    </g>
    <g id="line2d_23"/>
    <g id="text_16">
     <!-- Simulation -->
     <defs>
      <path d="M 53.515625 70.515625 
L 53.515625 60.890625 
Q 47.90625 63.578125 42.921875 64.890625 
Q 37.9375 66.21875 33.296875 66.21875 
Q 25.25 66.21875 20.875 63.09375 
Q 16.5 59.96875 16.5 54.203125 
Q 16.5 49.359375 19.40625 46.890625 
Q 22.3125 44.4375 30.421875 42.921875 
L 36.375 41.703125 
Q 47.40625 39.59375 52.65625 34.296875 
Q 57.90625 29 57.90625 20.125 
Q 57.90625 9.515625 50.796875 4.046875 
Q 43.703125 -1.421875 29.984375 -1.421875 
Q 24.8125 -1.421875 18.96875 -0.25 
Q 13.140625 0.921875 6.890625 3.21875 
L 6.890625 13.375 
Q 12.890625 10.015625 18.65625 8.296875 
Q 24.421875 6.59375 29.984375 6.59375 
Q 38.421875 6.59375 43.015625 9.90625 
Q 47.609375 13.234375 47.609375 19.390625 
Q 47.609375 24.75 44.3125 27.78125 
Q 41.015625 30.8125 33.5 32.328125 
L 27.484375 33.5 
Q 16.453125 35.6875 11.515625 40.375 
Q 6.59375 45.0625 6.59375 53.421875 
Q 6.59375 63.09375 13.40625 68.65625 
Q 20.21875 74.21875 32.171875 74.21875 
Q 37.3125 74.21875 42.625 73.28125 
Q 47.953125 72.359375 53.515625 70.515625 
z
" id="DejaVuSans-83"/>
      <path d="M 30.609375 48.390625 
Q 23.390625 48.390625 19.1875 42.75 
Q 14.984375 37.109375 14.984375 27.296875 
Q 14.984375 17.484375 19.15625 11.84375 
Q 23.34375 6.203125 30.609375 6.203125 
Q 37.796875 6.203125 41.984375 11.859375 
Q 46.1875 17.53125 46.1875 27.296875 
Q 46.1875 37.015625 41.984375 42.703125 
Q 37.796875 48.390625 30.609375 48.390625 
z
M 30.609375 56 
Q 42.328125 56 49.015625 48.375 
Q 55.71875 40.765625 55.71875 27.296875 
Q 55.71875 13.875 49.015625 6.21875 
Q 42.328125 -1.421875 30.609375 -1.421875 
Q 18.84375 -1.421875 12.171875 6.21875 
Q 5.515625 13.875 5.515625 27.296875 
Q 5.515625 40.765625 12.171875 48.375 
Q 18.84375 56 30.609375 56 
z
" id="DejaVuSans-111"/>
      <path d="M 54.890625 33.015625 
L 54.890625 0 
L 45.90625 0 
L 45.90625 32.71875 
Q 45.90625 40.484375 42.875 44.328125 
Q 39.84375 48.1875 33.796875 48.1875 
Q 26.515625 48.1875 22.3125 43.546875 
Q 18.109375 38.921875 18.109375 30.90625 
L 18.109375 0 
L 9.078125 0 
L 9.078125 54.6875 
L 18.109375 54.6875 
L 18.109375 46.1875 
Q 21.34375 51.125 25.703125 53.5625 
Q 30.078125 56 35.796875 56 
Q 45.21875 56 50.046875 50.171875 
Q 54.890625 44.34375 54.890625 33.015625 
z
" id="DejaVuSans-110"/>
     </defs>
     <g transform="translate(86.77 105.84249)scale(0.08 -0.08)">
      <use xlink:href="#DejaVuSans-83"/>
      <use x="63.476562" xlink:href="#DejaVuSans-105"/>
      <use x="91.259766" xlink:href="#DejaVuSans-109"/>
      <use x="188.671875" xlink:href="#DejaVuSans-117"/>
      <use x="252.050781" xlink:href="#DejaVuSans-108"/>
      <use x="279.833984" xlink:href="#DejaVuSans-97"/>
      <use x="341.113281" xlink:href="#DejaVuSans-116"/>
      <use x="380.322266" xlink:href="#DejaVuSans-105"/>
      <use x="408.105469" xlink:href="#DejaVuSans-111"/>
      <use x="469.287109" xlink:href="#DejaVuSans-110"/>
     </g>
    </g>
    <g id="line2d_24">
     <path d="M 64.37 114.78499 
L 80.37 114.78499 
" style="fill:none;stroke:#008000;stroke-linecap:square;stroke-opacity:0.5;"/>
    </g>
    <g id="line2d_25"/>
    <g id="text_17">
     <!-- Forecast -->
     <g transform="translate(86.77 117.58499)scale(0.08 -0.08)">
      <use xlink:href="#DejaVuSans-70"/>
      <use x="53.894531" xlink:href="#DejaVuSans-111"/>
      <use x="115.076172" xlink:href="#DejaVuSans-114"/>
      <use x="153.939453" xlink:href="#DejaVuSans-101"/>
      <use x="215.462891" xlink:href="#DejaVuSans-99"/>
      <use x="270.443359" xlink:href="#DejaVuSans-97"/>
      <use x="331.722656" xlink:href="#DejaVuSans-115"/>
      <use x="383.822266" xlink:href="#DejaVuSans-116"/>
     </g>
    </g>
   </g>
  </g>
  <g id="axes_2">
   <g id="matplotlib.axis_3">
    <g id="ytick_6">
     <g id="line2d_26">
      <defs>
       <path d="M 0 0 
L 3.5 0 
" id="mc35382ad32" style="stroke:#000000;stroke-width:0.8;"/>
      </defs>
      <g>
       <use style="stroke:#000000;stroke-width:0.8;" x="208.83811" xlink:href="#mc35382ad32" y="126.44874"/>
      </g>
     </g>
     <g id="text_18">
      <!-- 1.0 -->
      <defs>
       <path d="M 10.59375 35.5 
L 73.1875 35.5 
L 73.1875 27.203125 
L 10.59375 27.203125 
z
" id="DejaVuSans-8722"/>
       <path d="M 10.6875 12.40625 
L 21 12.40625 
L 21 0 
L 10.6875 0 
z
" id="DejaVuSans-46"/>
      </defs>
      <g transform="translate(215.83811 129.488115)scale(0.08 -0.08)">
       <use xlink:href="#DejaVuSans-8722"/>
       <use x="83.789062" xlink:href="#DejaVuSans-49"/>
       <use x="147.412109" xlink:href="#DejaVuSans-46"/>
       <use x="179.199219" xlink:href="#DejaVuSans-48"/>
      </g>
     </g>
    </g>
    <g id="ytick_7">
     <g id="line2d_27">
      <g>
       <use style="stroke:#000000;stroke-width:0.8;" x="208.83811" xlink:href="#mc35382ad32" y="85.402762"/>
      </g>
     </g>
     <g id="text_19">
      <!-- 0.5 -->
      <g transform="translate(215.83811 88.442137)scale(0.08 -0.08)">
       <use xlink:href="#DejaVuSans-8722"/>
       <use x="83.789062" xlink:href="#DejaVuSans-48"/>
       <use x="147.412109" xlink:href="#DejaVuSans-46"/>
       <use x="179.199219" xlink:href="#DejaVuSans-53"/>
      </g>
     </g>
    </g>
    <g id="ytick_8">
     <g id="line2d_28">
      <g>
       <use style="stroke:#000000;stroke-width:0.8;" x="208.83811" xlink:href="#mc35382ad32" y="44.356783"/>
      </g>
     </g>
     <g id="text_20">
      <!-- 0.0 -->
      <g transform="translate(215.83811 47.396158)scale(0.08 -0.08)">
       <use xlink:href="#DejaVuSans-48"/>
       <use x="63.623047" xlink:href="#DejaVuSans-46"/>
       <use x="95.410156" xlink:href="#DejaVuSans-48"/>
      </g>
     </g>
    </g>
    <g id="ytick_9">
     <g id="line2d_29">
      <g>
       <use style="stroke:#000000;stroke-width:0.8;" x="208.83811" xlink:href="#mc35382ad32" y="11.52"/>
      </g>
     </g>
     <g id="text_21">
      <!-- 0.4 -->
      <g transform="translate(215.83811 14.559375)scale(0.08 -0.08)">
       <use xlink:href="#DejaVuSans-48"/>
       <use x="63.623047" xlink:href="#DejaVuSans-46"/>
       <use x="95.410156" xlink:href="#DejaVuSans-52"/>
      </g>
     </g>
    </g>
    <g id="text_22">
     <!-- Relative change -->
     <defs>
      <path d="M 44.390625 34.1875 
Q 47.5625 33.109375 50.5625 29.59375 
Q 53.5625 26.078125 56.59375 19.921875 
L 66.609375 0 
L 56 0 
L 46.6875 18.703125 
Q 43.0625 26.03125 39.671875 28.421875 
Q 36.28125 30.8125 30.421875 30.8125 
L 19.671875 30.8125 
L 19.671875 0 
L 9.8125 0 
L 9.8125 72.90625 
L 32.078125 72.90625 
Q 44.578125 72.90625 50.734375 67.671875 
Q 56.890625 62.453125 56.890625 51.90625 
Q 56.890625 45.015625 53.6875 40.46875 
Q 50.484375 35.9375 44.390625 34.1875 
z
M 19.671875 64.796875 
L 19.671875 38.921875 
L 32.078125 38.921875 
Q 39.203125 38.921875 42.84375 42.21875 
Q 46.484375 45.515625 46.484375 51.90625 
Q 46.484375 58.296875 42.84375 61.546875 
Q 39.203125 64.796875 32.078125 64.796875 
z
" id="DejaVuSans-82"/>
      <path d="M 54.890625 33.015625 
L 54.890625 0 
L 45.90625 0 
L 45.90625 32.71875 
Q 45.90625 40.484375 42.875 44.328125 
Q 39.84375 48.1875 33.796875 48.1875 
Q 26.515625 48.1875 22.3125 43.546875 
Q 18.109375 38.921875 18.109375 30.90625 
L 18.109375 0 
L 9.078125 0 
L 9.078125 75.984375 
L 18.109375 75.984375 
L 18.109375 46.1875 
Q 21.34375 51.125 25.703125 53.5625 
Q 30.078125 56 35.796875 56 
Q 45.21875 56 50.046875 50.171875 
Q 54.890625 44.34375 54.890625 33.015625 
z
" id="DejaVuSans-104"/>
      <path d="M 45.40625 27.984375 
Q 45.40625 37.75 41.375 43.109375 
Q 37.359375 48.484375 30.078125 48.484375 
Q 22.859375 48.484375 18.828125 43.109375 
Q 14.796875 37.75 14.796875 27.984375 
Q 14.796875 18.265625 18.828125 12.890625 
Q 22.859375 7.515625 30.078125 7.515625 
Q 37.359375 7.515625 41.375 12.890625 
Q 45.40625 18.265625 45.40625 27.984375 
z
M 54.390625 6.78125 
Q 54.390625 -7.171875 48.1875 -13.984375 
Q 42 -20.796875 29.203125 -20.796875 
Q 24.46875 -20.796875 20.265625 -20.09375 
Q 16.0625 -19.390625 12.109375 -17.921875 
L 12.109375 -9.1875 
Q 16.0625 -11.328125 19.921875 -12.34375 
Q 23.78125 -13.375 27.78125 -13.375 
Q 36.625 -13.375 41.015625 -8.765625 
Q 45.40625 -4.15625 45.40625 5.171875 
L 45.40625 9.625 
Q 42.625 4.78125 38.28125 2.390625 
Q 33.9375 0 27.875 0 
Q 17.828125 0 11.671875 7.65625 
Q 5.515625 15.328125 5.515625 27.984375 
Q 5.515625 40.671875 11.671875 48.328125 
Q 17.828125 56 27.875 56 
Q 33.9375 56 38.28125 53.609375 
Q 42.625 51.21875 45.40625 46.390625 
L 45.40625 54.6875 
L 54.390625 54.6875 
z
" id="DejaVuSans-103"/>
     </defs>
     <g transform="translate(245.34311 101.10812)rotate(-90)scale(0.08 -0.08)">
      <use xlink:href="#DejaVuSans-82"/>
      <use x="64.982422" xlink:href="#DejaVuSans-101"/>
      <use x="126.505859" xlink:href="#DejaVuSans-108"/>
      <use x="154.289062" xlink:href="#DejaVuSans-97"/>
      <use x="215.568359" xlink:href="#DejaVuSans-116"/>
      <use x="254.777344" xlink:href="#DejaVuSans-105"/>
      <use x="282.560547" xlink:href="#DejaVuSans-118"/>
      <use x="341.740234" xlink:href="#DejaVuSans-101"/>
      <use x="403.263672" xlink:href="#DejaVuSans-32"/>
      <use x="435.050781" xlink:href="#DejaVuSans-99"/>
      <use x="490.03125" xlink:href="#DejaVuSans-104"/>
      <use x="553.410156" xlink:href="#DejaVuSans-97"/>
      <use x="614.689453" xlink:href="#DejaVuSans-110"/>
      <use x="678.068359" xlink:href="#DejaVuSans-103"/>
      <use x="741.544922" xlink:href="#DejaVuSans-101"/>
     </g>
    </g>
   </g>
   <g id="line2d_30">
    <path clip-path="url(#pf2dd1b048a)" d="M 64.956433 41.894024 
L 67.187502 41.894024 
L 69.418572 45.998622 
L 71.649642 44.356783 
L 73.880711 47.640461 
L 76.111781 50.10322 
L 78.34285 38.610346 
L 80.57392 36.147587 
L 82.80499 45.177702 
L 85.036059 45.998622 
L 87.267129 45.177702 
L 89.498198 47.640461 
L 91.729268 44.356783 
L 93.960337 47.640461 
L 96.191407 42.714944 
L 98.422477 43.535863 
L 100.653546 47.640461 
L 102.884616 45.177702 
L 105.115685 40.252185 
L 107.346755 45.177702 
L 109.577824 45.177702 
L 111.808894 47.640461 
L 114.039964 47.640461 
L 116.271033 50.10322 
L 118.502103 50.924139 
L 120.733172 101.821153 
L 122.964242 98.537475 
L 125.195312 70.626209 
L 127.426381 73.909888 
L 129.657451 94.432877 
L 131.88852 105.925751 
L 134.11959 109.209429 
L 136.350659 113.314027 
L 138.581729 109.209429 
L 140.812799 105.104831 
L 143.043868 105.104831 
L 145.274938 106.74667 
L 147.506007 107.56759 
L 149.737077 108.38851 
L 151.968147 112.493107 
L 154.199216 113.314027 
" style="fill:none;stroke:#d62728;stroke-linecap:square;stroke-opacity:0.5;"/>
   </g>
   <g id="line2d_31">
    <path clip-path="url(#pf2dd1b048a)" d="M 64.956433 41.894024 
L 67.187502 43.535863 
L 69.418572 45.177702 
L 71.649642 41.894024 
L 73.880711 44.356783 
L 76.111781 50.10322 
L 78.34285 44.356783 
L 80.57392 42.714944 
L 82.80499 48.461381 
L 85.036059 45.998622 
L 87.267129 41.894024 
L 89.498198 42.714944 
L 91.729268 39.431265 
L 93.960337 38.610346 
L 96.191407 39.431265 
L 98.422477 41.073105 
L 100.653546 43.535863 
L 102.884616 40.252185 
L 105.115685 41.894024 
L 107.346755 43.535863 
L 109.577824 41.073105 
L 111.808894 41.073105 
L 114.039964 41.073105 
L 116.271033 25.475633 
L 118.502103 11.52 
L 120.733172 50.924139 
L 122.964242 59.133335 
L 125.195312 31.22207 
L 127.426381 19.729196 
L 129.657451 54.207818 
L 131.88852 63.237933 
L 134.11959 62.417013 
L 136.350659 76.372646 
L 138.581729 81.298164 
L 140.812799 64.879772 
L 143.043868 61.596094 
L 145.274938 68.163451 
L 147.506007 64.879772 
L 149.737077 61.596094 
L 151.968147 73.909888 
L 154.199216 87.86552 
" style="fill:none;stroke:#9467bd;stroke-linecap:square;stroke-opacity:0.5;"/>
   </g>
   <g id="line2d_32">
    <path clip-path="url(#pf2dd1b048a)" d="M 64.956433 39.431265 
L 67.187502 40.252185 
L 69.418572 41.894024 
L 71.649642 38.610346 
L 73.880711 42.714944 
L 76.111781 45.998622 
L 78.34285 53.386898 
L 80.57392 50.924139 
L 82.80499 53.386898 
L 85.036059 56.670576 
L 87.267129 52.565979 
L 89.498198 45.998622 
L 91.729268 40.252185 
L 93.960337 44.356783 
L 96.191407 43.535863 
L 98.422477 43.535863 
L 100.653546 45.998622 
L 102.884616 41.894024 
L 105.115685 37.789426 
L 107.346755 45.998622 
L 109.577824 45.177702 
L 111.808894 47.640461 
L 114.039964 47.640461 
L 116.271033 50.10322 
L 118.502103 57.491496 
L 120.733172 72.268048 
L 122.964242 72.268048 
L 125.195312 79.656325 
L 127.426381 82.119083 
L 129.657451 90.328279 
L 131.88852 99.358394 
L 134.11959 102.642073 
L 136.350659 99.358394 
L 138.581729 96.074716 
L 140.812799 101.821153 
L 143.043868 101.000233 
L 145.274938 101.000233 
L 147.506007 103.462992 
L 149.737077 101.821153 
L 151.968147 99.358394 
L 154.199216 106.74667 
" style="fill:none;stroke:#e377c2;stroke-linecap:square;stroke-opacity:0.5;"/>
   </g>
   <g id="line2d_33">
    <path clip-path="url(#pf2dd1b048a)" d="M 64.956433 41.073105 
L 67.187502 41.073105 
L 69.418572 41.894024 
L 71.649642 42.714944 
L 73.880711 45.998622 
L 76.111781 47.640461 
L 78.34285 64.058853 
L 80.57392 63.237933 
L 82.80499 61.596094 
L 85.036059 63.237933 
L 87.267129 63.237933 
L 89.498198 48.461381 
L 91.729268 45.177702 
L 93.960337 41.894024 
L 96.191407 41.073105 
L 98.422477 41.073105 
L 100.653546 42.714944 
L 102.884616 42.714944 
L 105.115685 42.714944 
L 107.346755 45.177702 
L 109.577824 42.714944 
L 111.808894 43.535863 
L 114.039964 43.535863 
L 116.271033 45.177702 
L 118.502103 50.10322 
L 120.733172 66.521611 
L 122.964242 68.163451 
L 125.195312 73.909888 
L 127.426381 81.298164 
L 129.657451 87.044601 
L 131.88852 94.432877 
L 134.11959 95.253796 
L 136.350659 86.223681 
L 138.581729 83.760922 
L 140.812799 97.716555 
L 143.043868 98.537475 
L 145.274938 97.716555 
L 147.506007 98.537475 
L 149.737077 97.716555 
L 151.968147 86.223681 
L 154.199216 87.044601 
" style="fill:none;stroke:#bcbd22;stroke-linecap:square;stroke-opacity:0.5;"/>
   </g>
   <g id="line2d_34">
    <path clip-path="url(#pf2dd1b048a)" d="M 64.956433 44.356783 
L 67.187502 44.356783 
L 69.418572 44.356783 
L 71.649642 44.356783 
L 73.880711 44.356783 
L 76.111781 44.356783 
L 78.34285 41.073105 
L 80.57392 41.073105 
L 82.80499 41.894024 
L 85.036059 39.431265 
L 87.267129 40.252185 
L 89.498198 43.535863 
L 91.729268 44.356783 
L 93.960337 44.356783 
L 96.191407 44.356783 
L 98.422477 44.356783 
L 100.653546 42.714944 
L 102.884616 43.535863 
L 105.115685 44.356783 
L 107.346755 44.356783 
L 109.577824 44.356783 
L 111.808894 42.714944 
L 114.039964 42.714944 
L 116.271033 41.894024 
L 118.502103 40.252185 
L 120.733172 34.505748 
L 122.964242 37.789426 
L 125.195312 32.863909 
L 127.426381 31.22207 
L 129.657451 27.938391 
L 131.88852 22.191954 
L 134.11959 18.908276 
L 136.350659 26.296552 
L 138.581729 32.042989 
L 140.812799 23.012874 
L 143.043868 22.191954 
L 145.274938 23.012874 
L 147.506007 20.550115 
L 149.737077 18.908276 
L 151.968147 26.296552 
L 154.199216 30.40115 
" style="fill:none;stroke:#17becf;stroke-linecap:square;stroke-opacity:0.5;"/>
   </g>
   <g id="patch_69">
    <path d="M 57.17 126.44874 
L 57.17 11.52 
" style="fill:none;stroke:#000000;stroke-linecap:square;stroke-linejoin:miter;stroke-width:0.8;"/>
   </g>
   <g id="patch_70">
    <path d="M 208.83811 126.44874 
L 208.83811 11.52 
" style="fill:none;stroke:#000000;stroke-linecap:square;stroke-linejoin:miter;stroke-width:0.8;"/>
   </g>
   <g id="patch_71">
    <path d="M 57.17 126.44874 
L 208.83811 126.44874 
" style="fill:none;stroke:#000000;stroke-linecap:square;stroke-linejoin:miter;stroke-width:0.8;"/>
   </g>
   <g id="patch_72">
    <path d="M 57.17 11.52 
L 208.83811 11.52 
" style="fill:none;stroke:#000000;stroke-linecap:square;stroke-linejoin:miter;stroke-width:0.8;"/>
   </g>
  </g>
 </g>
 <defs>
  <clipPath id="pf2dd1b048a">
   <rect height="114.92874" width="151.66811" x="57.17" y="11.52"/>
  </clipPath>
 </defs>
</svg>
