<?xml version="1.0" encoding="utf-8" standalone="no"?>
<!DOCTYPE svg PUBLIC "-//W3C//DTD SVG 1.1//EN"
  "http://www.w3.org/Graphics/SVG/1.1/DTD/svg11.dtd">
<!-- Created with matplotlib (https://matplotlib.org/) -->
<svg height="170.07874pt" version="1.1" viewBox="0 0 255.11811 170.07874" width="255.11811pt" xmlns="http://www.w3.org/2000/svg" xmlns:xlink="http://www.w3.org/1999/xlink">
 <defs>
  <style type="text/css">
*{stroke-linecap:butt;stroke-linejoin:round;}
  </style>
 </defs>
 <g id="figure_1">
  <g id="patch_1">
   <path d="M 0 170.07874 
L 255.11811 170.07874 
L 255.11811 0 
L 0 0 
z
" style="fill:#ffffff;"/>
  </g>
  <g id="axes_1">
   <g id="patch_2">
    <path d="M 42.05 126.44874 
L 208.83811 126.44874 
L 208.83811 11.52 
L 42.05 11.52 
z
" style="fill:#ffffff;"/>
   </g>
   <g id="PolyCollection_1">
    <defs>
     <path d="M 50.612673 -43.63 
L 50.612673 -43.63 
L 53.066161 -43.63 
L 55.519649 -43.630022 
L 57.973137 -43.630095 
L 60.426625 -43.630265 
L 62.880113 -43.63058 
L 65.333601 -43.631089 
L 67.787089 -43.631831 
L 70.240576 -43.632857 
L 72.694064 -43.634218 
L 75.147552 -43.635987 
L 77.60104 -43.638256 
L 80.054528 -43.64112 
L 82.508016 -43.64482 
L 84.961504 -43.649444 
L 87.414992 -43.655448 
L 89.86848 -43.663256 
L 92.321968 -43.673749 
L 94.775456 -43.68711 
L 97.228944 -43.705274 
L 99.682432 -43.728433 
L 102.13592 -43.758826 
L 104.589408 -43.79875 
L 107.042896 -43.850246 
L 109.496384 -43.915254 
L 111.949871 -44.002878 
L 114.403359 -44.139267 
L 116.856847 -44.334562 
L 119.310335 -44.6091 
L 121.763823 -44.983978 
L 124.217311 -45.515459 
L 126.670799 -46.191522 
L 129.124287 -47.071421 
L 131.577775 -48.095131 
L 134.031263 -49.266023 
L 136.484751 -50.548248 
L 138.938239 -51.947178 
L 141.391727 -53.37583 
L 143.845215 -54.831682 
L 146.298703 -56.347705 
L 148.752191 -57.774424 
L 148.752191 -70.441809 
L 148.752191 -70.441809 
L 146.298703 -67.172416 
L 143.845215 -64.088699 
L 141.391727 -61.091283 
L 138.938239 -58.366807 
L 136.484751 -55.767622 
L 134.031263 -53.490182 
L 131.577775 -51.513727 
L 129.124287 -49.83872 
L 126.670799 -48.546085 
L 124.217311 -47.498642 
L 121.763823 -46.709021 
L 119.310335 -46.086269 
L 116.856847 -45.611422 
L 114.403359 -45.24635 
L 111.949871 -44.974063 
L 109.496384 -44.746092 
L 107.042896 -44.556445 
L 104.589408 -44.404123 
L 102.13592 -44.270835 
L 99.682432 -44.159249 
L 97.228944 -44.069137 
L 94.775456 -43.995092 
L 92.321968 -43.93071 
L 89.86848 -43.877543 
L 87.414992 -43.831843 
L 84.961504 -43.792625 
L 82.508016 -43.75895 
L 80.054528 -43.730967 
L 77.60104 -43.707187 
L 75.147552 -43.687287 
L 72.694064 -43.671024 
L 70.240576 -43.65808 
L 67.787089 -43.648103 
L 65.333601 -43.64077 
L 62.880113 -43.635738 
L 60.426625 -43.632617 
L 57.973137 -43.63094 
L 55.519649 -43.630215 
L 53.066161 -43.63 
L 50.612673 -43.63 
z
" id="m0d3fb01f0d" style="stroke:#6495ed;stroke-opacity:0.4;"/>
    </defs>
    <g clip-path="url(#pf9df8c30bc)">
     <use style="fill:#6495ed;fill-opacity:0.4;stroke:#6495ed;stroke-opacity:0.4;" x="0" xlink:href="#m0d3fb01f0d" y="170.07874"/>
    </g>
   </g>
   <g id="PolyCollection_2">
    <defs>
     <path d="M 50.612673 -43.63 
L 50.612673 -43.63 
L 53.066161 -43.63 
L 55.519649 -43.630052 
L 57.973137 -43.630225 
L 60.426625 -43.630628 
L 62.880113 -43.631376 
L 65.333601 -43.632583 
L 67.787089 -43.634342 
L 70.240576 -43.636752 
L 72.694064 -43.639929 
L 75.147552 -43.643974 
L 77.60104 -43.649018 
L 80.054528 -43.655291 
L 82.508016 -43.66306 
L 84.961504 -43.672578 
L 87.414992 -43.68444 
L 89.86848 -43.699268 
L 92.321968 -43.718151 
L 94.775456 -43.741996 
L 97.228944 -43.772117 
L 99.682432 -43.81044 
L 102.13592 -43.858053 
L 104.589408 -43.91857 
L 107.042896 -43.994099 
L 109.496384 -44.089163 
L 111.949871 -44.213112 
L 114.403359 -44.384785 
L 116.856847 -44.628588 
L 119.310335 -44.958499 
L 121.763823 -45.398406 
L 124.217311 -45.995954 
L 126.670799 -46.775968 
L 129.124287 -47.769087 
L 131.577775 -48.961216 
L 134.031263 -50.347854 
L 136.484751 -51.879505 
L 138.938239 -53.521104 
L 141.391727 -55.271586 
L 143.845215 -57.071149 
L 146.298703 -58.9278 
L 148.752191 -60.767848 
L 148.752191 -65.000943 
L 148.752191 -65.000943 
L 146.298703 -62.561947 
L 143.845215 -60.141557 
L 141.391727 -57.841127 
L 138.938239 -55.637705 
L 136.484751 -53.583093 
L 134.031263 -51.716001 
L 131.577775 -50.068855 
L 129.124287 -48.673429 
L 126.670799 -47.552763 
L 124.217311 -46.670803 
L 121.763823 -45.982369 
L 119.310335 -45.459506 
L 116.856847 -45.061856 
L 114.403359 -44.759797 
L 111.949871 -44.531624 
L 109.496384 -44.361609 
L 107.042896 -44.225144 
L 104.589408 -44.11254 
L 102.13592 -44.022447 
L 99.682432 -43.94877 
L 97.228944 -43.887856 
L 94.775456 -43.83857 
L 92.321968 -43.798535 
L 89.86848 -43.765626 
L 87.414992 -43.738654 
L 84.961504 -43.716393 
L 82.508016 -43.698144 
L 80.054528 -43.68284 
L 77.60104 -43.670251 
L 75.147552 -43.659829 
L 72.694064 -43.651293 
L 70.240576 -43.64454 
L 67.787089 -43.639365 
L 65.333601 -43.635571 
L 62.880113 -43.632968 
L 60.426625 -43.631354 
L 57.973137 -43.630486 
L 55.519649 -43.630111 
L 53.066161 -43.63 
L 50.612673 -43.63 
z
" id="mcd2e7456d9" style="stroke:#6495ed;stroke-opacity:0.6;"/>
    </defs>
    <g clip-path="url(#pf9df8c30bc)">
     <use style="fill:#6495ed;fill-opacity:0.6;stroke:#6495ed;stroke-opacity:0.6;" x="0" xlink:href="#mcd2e7456d9" y="170.07874"/>
    </g>
   </g>
   <g id="PolyCollection_3">
    <defs>
     <path d="M 148.752191 -70.441809 
L 148.752191 -57.774424 
L 151.205678 -59.129139 
L 153.659166 -60.42452 
L 156.112654 -61.610935 
L 158.566142 -62.582421 
L 161.01963 -63.396583 
L 163.473118 -63.946124 
L 165.926606 -64.333261 
L 168.380094 -64.606305 
L 170.833582 -64.657741 
L 173.28707 -64.534518 
L 175.740558 -64.273045 
L 178.194046 -63.884584 
L 180.647534 -63.429223 
L 183.101022 -62.865849 
L 185.55451 -62.211828 
L 188.007998 -61.448634 
L 190.461486 -60.570131 
L 192.914973 -59.679151 
L 195.368461 -58.804717 
L 197.821949 -57.971303 
L 200.275437 -57.102235 
L 200.275437 -158.55874 
L 200.275437 -158.55874 
L 197.821949 -154.537531 
L 195.368461 -149.595157 
L 192.914973 -144.850284 
L 190.461486 -140.881165 
L 188.007998 -137.080697 
L 185.55451 -132.589236 
L 183.101022 -128.54932 
L 180.647534 -123.925058 
L 178.194046 -119.606943 
L 175.740558 -115.459551 
L 173.28707 -110.691269 
L 170.833582 -106.340124 
L 168.380094 -101.809375 
L 165.926606 -97.61391 
L 163.473118 -93.214375 
L 161.01963 -88.727648 
L 158.566142 -84.592666 
L 156.112654 -80.851444 
L 153.659166 -77.066482 
L 151.205678 -73.837646 
L 148.752191 -70.441809 
z
" id="me98b4aded9" style="stroke:#228b22;stroke-opacity:0.4;"/>
    </defs>
    <g clip-path="url(#pf9df8c30bc)">
     <use style="fill:#228b22;fill-opacity:0.4;stroke:#228b22;stroke-opacity:0.4;" x="0" xlink:href="#me98b4aded9" y="170.07874"/>
    </g>
   </g>
   <g id="PolyCollection_4">
    <defs>
     <path d="M 148.752191 -65.000943 
L 148.752191 -60.767848 
L 151.205678 -62.553879 
L 153.659166 -64.273199 
L 156.112654 -65.920308 
L 158.566142 -67.405759 
L 161.01963 -68.702729 
L 163.473118 -69.848983 
L 165.926606 -70.789357 
L 168.380094 -71.475978 
L 170.833582 -71.981368 
L 173.28707 -72.275474 
L 175.740558 -72.295091 
L 178.194046 -72.162577 
L 180.647534 -71.809968 
L 183.101022 -71.30345 
L 185.55451 -70.662343 
L 188.007998 -69.909532 
L 190.461486 -69.018769 
L 192.914973 -68.007382 
L 195.368461 -66.931258 
L 197.821949 -65.818554 
L 200.275437 -64.703802 
L 200.275437 -82.967188 
L 200.275437 -82.967188 
L 197.821949 -83.92925 
L 195.368461 -84.84028 
L 192.914973 -85.501116 
L 190.461486 -86.240499 
L 188.007998 -86.719612 
L 185.55451 -87.145556 
L 183.101022 -87.123867 
L 180.647534 -86.92557 
L 178.194046 -86.484555 
L 175.740558 -85.788209 
L 173.28707 -84.893584 
L 170.833582 -83.67754 
L 168.380094 -82.274948 
L 165.926606 -80.604389 
L 163.473118 -78.731542 
L 161.01963 -76.851523 
L 158.566142 -74.682967 
L 156.112654 -72.433261 
L 153.659166 -70.027518 
L 151.205678 -67.507812 
L 148.752191 -65.000943 
z
" id="m8c94f201be" style="stroke:#228b22;stroke-opacity:0.6;"/>
    </defs>
    <g clip-path="url(#pf9df8c30bc)">
     <use style="fill:#228b22;fill-opacity:0.6;stroke:#228b22;stroke-opacity:0.6;" x="0" xlink:href="#m8c94f201be" y="170.07874"/>
    </g>
   </g>
   <g id="PathCollection_1">
    <defs>
     <path d="M -0.866025 1.732051 
L 0 0.866025 
L 0.866025 1.732051 
L 1.732051 0.866025 
L 0.866025 0 
L 1.732051 -0.866025 
L 0.866025 -1.732051 
L 0 -0.866025 
L -0.866025 -1.732051 
L -1.732051 -0.866025 
L -0.866025 0 
L -1.732051 0.866025 
z
" id="m0a63b63b4d" style="stroke:#8a2be2;"/>
    </defs>
    <g clip-path="url(#pf9df8c30bc)">
     <use style="fill:#8a2be2;stroke:#8a2be2;" x="107.042896" xlink:href="#m0a63b63b4d" y="23.012874"/>
    </g>
   </g>
   <g id="PathCollection_2">
    <defs>
     <path d="M 0 -1.732051 
L -0.38887 -0.535233 
L -1.647278 -0.535233 
L -0.629204 0.204441 
L -1.018074 1.401259 
L -0 0.661585 
L 1.018074 1.401259 
L 0.629204 0.204441 
L 1.647278 -0.535233 
L 0.38887 -0.535233 
z
" id="m08b837ca06" style="stroke:#000000;"/>
    </defs>
    <g clip-path="url(#pf9df8c30bc)">
     <use style="stroke:#000000;" x="111.949871" xlink:href="#m08b837ca06" y="23.012874"/>
    </g>
   </g>
   <g id="PathCollection_3">
    <defs>
     <path d="M -1.732051 1.732051 
L 1.732051 1.732051 
L 1.732051 -1.732051 
L -1.732051 -1.732051 
z
" id="mb8bbbe050e" style="stroke:#c71585;"/>
    </defs>
    <g clip-path="url(#pf9df8c30bc)">
     <use style="fill:#c71585;stroke:#c71585;" x="121.763823" xlink:href="#mb8bbbe050e" y="23.012874"/>
    </g>
   </g>
   <g id="PathCollection_4">
    <defs>
     <path d="M 0 -1.732051 
L -1.647278 -0.535233 
L -1.018074 1.401259 
L 1.018074 1.401259 
L 1.647278 -0.535233 
z
" id="mc4abcf9167" style="stroke:#800000;"/>
    </defs>
    <g clip-path="url(#pf9df8c30bc)">
     <use style="fill:#800000;stroke:#800000;" x="111.949871" xlink:href="#mc4abcf9167" y="28.184667"/>
    </g>
   </g>
   <g id="PathCollection_5">
    <defs>
     <path d="M -0 2.44949 
L 1.469694 0 
L 0 -2.44949 
L -1.469694 -0 
z
" id="mc31a6a66a2" style="stroke:#556b2f;"/>
    </defs>
    <g clip-path="url(#pf9df8c30bc)">
     <use style="fill:#556b2f;stroke:#556b2f;" x="102.13592" xlink:href="#mc31a6a66a2" y="23.012874"/>
    </g>
   </g>
   <g id="patch_3">
    <path clip-path="url(#pf9df8c30bc)" d="M 49.631278 126.44874 
L 51.594068 126.44874 
L 51.594068 126.44874 
L 49.631278 126.44874 
z
" style="fill:#1f77b4;opacity:0.5;"/>
   </g>
   <g id="patch_4">
    <path clip-path="url(#pf9df8c30bc)" d="M 52.084766 126.44874 
L 54.047556 126.44874 
L 54.047556 126.44874 
L 52.084766 126.44874 
z
" style="fill:#1f77b4;opacity:0.5;"/>
   </g>
   <g id="patch_5">
    <path clip-path="url(#pf9df8c30bc)" d="M 54.538254 126.44874 
L 56.501044 126.44874 
L 56.501044 126.44874 
L 54.538254 126.44874 
z
" style="fill:#1f77b4;opacity:0.5;"/>
   </g>
   <g id="patch_6">
    <path clip-path="url(#pf9df8c30bc)" d="M 56.991742 126.44874 
L 58.954532 126.44874 
L 58.954532 126.44874 
L 56.991742 126.44874 
z
" style="fill:#1f77b4;opacity:0.5;"/>
   </g>
   <g id="patch_7">
    <path clip-path="url(#pf9df8c30bc)" d="M 59.44523 126.44874 
L 61.40802 126.44874 
L 61.40802 126.44874 
L 59.44523 126.44874 
z
" style="fill:#1f77b4;opacity:0.5;"/>
   </g>
   <g id="patch_8">
    <path clip-path="url(#pf9df8c30bc)" d="M 61.898717 126.44874 
L 63.861508 126.44874 
L 63.861508 126.44874 
L 61.898717 126.44874 
z
" style="fill:#1f77b4;opacity:0.5;"/>
   </g>
   <g id="patch_9">
    <path clip-path="url(#pf9df8c30bc)" d="M 64.352205 126.44874 
L 66.314996 126.44874 
L 66.314996 126.44874 
L 64.352205 126.44874 
z
" style="fill:#1f77b4;opacity:0.5;"/>
   </g>
   <g id="patch_10">
    <path clip-path="url(#pf9df8c30bc)" d="M 66.805693 126.44874 
L 68.768484 126.44874 
L 68.768484 126.44874 
L 66.805693 126.44874 
z
" style="fill:#1f77b4;opacity:0.5;"/>
   </g>
   <g id="patch_11">
    <path clip-path="url(#pf9df8c30bc)" d="M 69.259181 126.44874 
L 71.221972 126.44874 
L 71.221972 126.44874 
L 69.259181 126.44874 
z
" style="fill:#1f77b4;opacity:0.5;"/>
   </g>
   <g id="patch_12">
    <path clip-path="url(#pf9df8c30bc)" d="M 71.712669 126.44874 
L 73.67546 126.44874 
L 73.67546 126.44874 
L 71.712669 126.44874 
z
" style="fill:#1f77b4;opacity:0.5;"/>
   </g>
   <g id="patch_13">
    <path clip-path="url(#pf9df8c30bc)" d="M 74.166157 126.44874 
L 76.128948 126.44874 
L 76.128948 126.44874 
L 74.166157 126.44874 
z
" style="fill:#1f77b4;opacity:0.5;"/>
   </g>
   <g id="patch_14">
    <path clip-path="url(#pf9df8c30bc)" d="M 76.619645 126.44874 
L 78.582435 126.44874 
L 78.582435 126.44874 
L 76.619645 126.44874 
z
" style="fill:#1f77b4;opacity:0.5;"/>
   </g>
   <g id="patch_15">
    <path clip-path="url(#pf9df8c30bc)" d="M 79.073133 126.44874 
L 81.035923 126.44874 
L 81.035923 126.44874 
L 79.073133 126.44874 
z
" style="fill:#1f77b4;opacity:0.5;"/>
   </g>
   <g id="patch_16">
    <path clip-path="url(#pf9df8c30bc)" d="M 81.526621 126.44874 
L 83.489411 126.44874 
L 83.489411 126.44874 
L 81.526621 126.44874 
z
" style="fill:#1f77b4;opacity:0.5;"/>
   </g>
   <g id="patch_17">
    <path clip-path="url(#pf9df8c30bc)" d="M 83.980109 126.44874 
L 85.942899 126.44874 
L 85.942899 126.44874 
L 83.980109 126.44874 
z
" style="fill:#1f77b4;opacity:0.5;"/>
   </g>
   <g id="patch_18">
    <path clip-path="url(#pf9df8c30bc)" d="M 86.433597 126.44874 
L 88.396387 126.44874 
L 88.396387 126.44874 
L 86.433597 126.44874 
z
" style="fill:#1f77b4;opacity:0.5;"/>
   </g>
   <g id="patch_19">
    <path clip-path="url(#pf9df8c30bc)" d="M 88.887085 126.44874 
L 90.849875 126.44874 
L 90.849875 126.44874 
L 88.887085 126.44874 
z
" style="fill:#1f77b4;opacity:0.5;"/>
   </g>
   <g id="patch_20">
    <path clip-path="url(#pf9df8c30bc)" d="M 91.340573 126.44874 
L 93.303363 126.44874 
L 93.303363 126.44874 
L 91.340573 126.44874 
z
" style="fill:#1f77b4;opacity:0.5;"/>
   </g>
   <g id="patch_21">
    <path clip-path="url(#pf9df8c30bc)" d="M 93.794061 126.44874 
L 95.756851 126.44874 
L 95.756851 126.44874 
L 93.794061 126.44874 
z
" style="fill:#1f77b4;opacity:0.5;"/>
   </g>
   <g id="patch_22">
    <path clip-path="url(#pf9df8c30bc)" d="M 96.247549 126.44874 
L 98.210339 126.44874 
L 98.210339 126.44874 
L 96.247549 126.44874 
z
" style="fill:#1f77b4;opacity:0.5;"/>
   </g>
   <g id="patch_23">
    <path clip-path="url(#pf9df8c30bc)" d="M 98.701037 126.44874 
L 100.663827 126.44874 
L 100.663827 126.44874 
L 98.701037 126.44874 
z
" style="fill:#1f77b4;opacity:0.5;"/>
   </g>
   <g id="patch_24">
    <path clip-path="url(#pf9df8c30bc)" d="M 101.154525 126.44874 
L 103.117315 126.44874 
L 103.117315 126.44874 
L 101.154525 126.44874 
z
" style="fill:#1f77b4;opacity:0.5;"/>
   </g>
   <g id="patch_25">
    <path clip-path="url(#pf9df8c30bc)" d="M 103.608012 126.44874 
L 105.570803 126.44874 
L 105.570803 126.44874 
L 103.608012 126.44874 
z
" style="fill:#1f77b4;opacity:0.5;"/>
   </g>
   <g id="patch_26">
    <path clip-path="url(#pf9df8c30bc)" d="M 106.0615 126.44874 
L 108.024291 126.44874 
L 108.024291 125.49114 
L 106.0615 125.49114 
z
" style="fill:#1f77b4;opacity:0.5;"/>
   </g>
   <g id="patch_27">
    <path clip-path="url(#pf9df8c30bc)" d="M 108.514988 126.44874 
L 110.477779 126.44874 
L 110.477779 126.44874 
L 108.514988 126.44874 
z
" style="fill:#1f77b4;opacity:0.5;"/>
   </g>
   <g id="patch_28">
    <path clip-path="url(#pf9df8c30bc)" d="M 110.968476 126.44874 
L 112.931267 126.44874 
L 112.931267 126.44874 
L 110.968476 126.44874 
z
" style="fill:#1f77b4;opacity:0.5;"/>
   </g>
   <g id="patch_29">
    <path clip-path="url(#pf9df8c30bc)" d="M 113.421964 126.44874 
L 115.384755 126.44874 
L 115.384755 126.12954 
L 113.421964 126.12954 
z
" style="fill:#1f77b4;opacity:0.5;"/>
   </g>
   <g id="patch_30">
    <path clip-path="url(#pf9df8c30bc)" d="M 115.875452 126.44874 
L 117.838243 126.44874 
L 117.838243 126.44874 
L 115.875452 126.44874 
z
" style="fill:#1f77b4;opacity:0.5;"/>
   </g>
   <g id="patch_31">
    <path clip-path="url(#pf9df8c30bc)" d="M 118.32894 126.44874 
L 120.29173 126.44874 
L 120.29173 126.12954 
L 118.32894 126.12954 
z
" style="fill:#1f77b4;opacity:0.5;"/>
   </g>
   <g id="patch_32">
    <path clip-path="url(#pf9df8c30bc)" d="M 120.782428 126.44874 
L 122.745218 126.44874 
L 122.745218 126.44874 
L 120.782428 126.44874 
z
" style="fill:#1f77b4;opacity:0.5;"/>
   </g>
   <g id="patch_33">
    <path clip-path="url(#pf9df8c30bc)" d="M 123.235916 126.44874 
L 125.198706 126.44874 
L 125.198706 123.575941 
L 123.235916 123.575941 
z
" style="fill:#1f77b4;opacity:0.5;"/>
   </g>
   <g id="patch_34">
    <path clip-path="url(#pf9df8c30bc)" d="M 125.689404 126.44874 
L 127.652194 126.44874 
L 127.652194 124.214341 
L 125.689404 124.214341 
z
" style="fill:#1f77b4;opacity:0.5;"/>
   </g>
   <g id="patch_35">
    <path clip-path="url(#pf9df8c30bc)" d="M 128.142892 126.44874 
L 130.105682 126.44874 
L 130.105682 121.341542 
L 128.142892 121.341542 
z
" style="fill:#1f77b4;opacity:0.5;"/>
   </g>
   <g id="patch_36">
    <path clip-path="url(#pf9df8c30bc)" d="M 130.59638 126.44874 
L 132.55917 126.44874 
L 132.55917 116.872743 
L 130.59638 116.872743 
z
" style="fill:#1f77b4;opacity:0.5;"/>
   </g>
   <g id="patch_37">
    <path clip-path="url(#pf9df8c30bc)" d="M 133.049868 126.44874 
L 135.012658 126.44874 
L 135.012658 123.895141 
L 133.049868 123.895141 
z
" style="fill:#1f77b4;opacity:0.5;"/>
   </g>
   <g id="patch_38">
    <path clip-path="url(#pf9df8c30bc)" d="M 135.503356 126.44874 
L 137.466146 126.44874 
L 137.466146 122.299142 
L 135.503356 122.299142 
z
" style="fill:#1f77b4;opacity:0.5;"/>
   </g>
   <g id="patch_39">
    <path clip-path="url(#pf9df8c30bc)" d="M 137.956844 126.44874 
L 139.919634 126.44874 
L 139.919634 115.595944 
L 137.956844 115.595944 
z
" style="fill:#1f77b4;opacity:0.5;"/>
   </g>
   <g id="patch_40">
    <path clip-path="url(#pf9df8c30bc)" d="M 140.410332 126.44874 
L 142.373122 126.44874 
L 142.373122 108.573546 
L 140.410332 108.573546 
z
" style="fill:#1f77b4;opacity:0.5;"/>
   </g>
   <g id="patch_41">
    <path clip-path="url(#pf9df8c30bc)" d="M 142.863819 126.44874 
L 144.82661 126.44874 
L 144.82661 113.042345 
L 142.863819 113.042345 
z
" style="fill:#1f77b4;opacity:0.5;"/>
   </g>
   <g id="patch_42">
    <path clip-path="url(#pf9df8c30bc)" d="M 145.317307 126.44874 
L 147.280098 126.44874 
L 147.280098 104.423947 
L 145.317307 104.423947 
z
" style="fill:#1f77b4;opacity:0.5;"/>
   </g>
   <g id="patch_43">
    <path clip-path="url(#pf9df8c30bc)" d="M 147.770795 126.44874 
L 149.733586 126.44874 
L 149.733586 106.019947 
L 147.770795 106.019947 
z
" style="fill:#1f77b4;opacity:0.5;"/>
   </g>
   <g id="patch_44">
    <path clip-path="url(#pf9df8c30bc)" d="M 150.224283 126.44874 
L 152.187074 126.44874 
L 152.187074 101.551148 
L 150.224283 101.551148 
z
" style="fill:#1f77b4;opacity:0.5;"/>
   </g>
   <g id="patch_45">
    <path clip-path="url(#pf9df8c30bc)" d="M 152.677771 126.44874 
L 154.640562 126.44874 
L 154.640562 100.274349 
L 152.677771 100.274349 
z
" style="fill:#1f77b4;opacity:0.5;"/>
   </g>
   <g id="patch_46">
    <path clip-path="url(#pf9df8c30bc)" d="M 155.131259 126.44874 
L 157.09405 126.44874 
L 157.09405 65.16236 
L 155.131259 65.16236 
z
" style="fill:#1f77b4;opacity:0.5;"/>
   </g>
   <g id="patch_47">
    <path clip-path="url(#pf9df8c30bc)" d="M 157.584747 126.44874 
L 159.547537 126.44874 
L 159.547537 87.187153 
L 157.584747 87.187153 
z
" style="fill:#1f77b4;opacity:0.5;"/>
   </g>
   <g id="patch_48">
    <path clip-path="url(#pf9df8c30bc)" d="M 160.038235 126.44874 
L 162.001025 126.44874 
L 162.001025 68.035159 
L 160.038235 68.035159 
z
" style="fill:#1f77b4;opacity:0.5;"/>
   </g>
   <g id="patch_49">
    <path clip-path="url(#pf9df8c30bc)" d="M 162.491723 126.44874 
L 164.454513 126.44874 
L 164.454513 84.314354 
L 162.491723 84.314354 
z
" style="fill:#1f77b4;opacity:0.5;"/>
   </g>
   <g id="patch_50">
    <path clip-path="url(#pf9df8c30bc)" d="M 164.945211 126.44874 
L 166.908001 126.44874 
L 166.908001 81.760755 
L 164.945211 81.760755 
z
" style="fill:#1f77b4;opacity:0.5;"/>
   </g>
   <g id="patch_51">
    <path clip-path="url(#pf9df8c30bc)" d="M 167.398699 126.44874 
L 169.361489 126.44874 
L 169.361489 74.099957 
L 167.398699 74.099957 
z
" style="fill:#1f77b4;opacity:0.5;"/>
   </g>
   <g id="patch_52">
    <path clip-path="url(#pf9df8c30bc)" d="M 169.852187 126.44874 
L 171.814977 126.44874 
L 171.814977 67.39676 
L 169.852187 67.39676 
z
" style="fill:#1f77b4;opacity:0.5;"/>
   </g>
   <g id="patch_53">
    <path clip-path="url(#pf9df8c30bc)" d="M 172.305675 126.44874 
L 174.268465 126.44874 
L 174.268465 -2.188817 
L 172.305675 -2.188817 
z
" style="fill:#1f77b4;opacity:0.5;"/>
   </g>
   <g id="patch_54">
    <path clip-path="url(#pf9df8c30bc)" d="M 174.759163 126.44874 
L 176.721953 126.44874 
L 176.721953 61.012762 
L 174.759163 61.012762 
z
" style="fill:#1f77b4;opacity:0.5;"/>
   </g>
   <g id="patch_55">
    <path clip-path="url(#pf9df8c30bc)" d="M 177.212651 126.44874 
L 179.175441 126.44874 
L 179.175441 36.11517 
L 177.212651 36.11517 
z
" style="fill:#1f77b4;opacity:0.5;"/>
   </g>
   <g id="patch_56">
    <path clip-path="url(#pf9df8c30bc)" d="M 179.666139 126.44874 
L 181.628929 126.44874 
L 181.628929 -31.874408 
L 179.666139 -31.874408 
z
" style="fill:#1f77b4;opacity:0.5;"/>
   </g>
   <g id="patch_57">
    <path clip-path="url(#pf9df8c30bc)" d="M 182.119627 126.44874 
L 184.082417 126.44874 
L 184.082417 22.070375 
L 182.119627 22.070375 
z
" style="fill:#1f77b4;opacity:0.5;"/>
   </g>
   <g id="patch_58">
    <path clip-path="url(#pf9df8c30bc)" d="M 184.573114 126.44874 
L 186.535905 126.44874 
L 186.535905 45.371967 
L 184.573114 45.371967 
z
" style="fill:#1f77b4;opacity:0.5;"/>
   </g>
   <g id="patch_59">
    <path clip-path="url(#pf9df8c30bc)" d="M 187.026602 126.44874 
L 188.989393 126.44874 
L 188.989393 29.731172 
L 187.026602 29.731172 
z
" style="fill:#1f77b4;opacity:0.5;"/>
   </g>
   <g id="patch_60">
    <path clip-path="url(#pf9df8c30bc)" d="M 189.48009 126.44874 
L 191.442881 126.44874 
L 191.442881 45.371967 
L 189.48009 45.371967 
z
" style="fill:#1f77b4;opacity:0.5;"/>
   </g>
   <g id="patch_61">
    <path clip-path="url(#pf9df8c30bc)" d="M 191.933578 126.44874 
L 193.896369 126.44874 
L 193.896369 36.11517 
L 191.933578 36.11517 
z
" style="fill:#1f77b4;opacity:0.5;"/>
   </g>
   <g id="patch_62">
    <path clip-path="url(#pf9df8c30bc)" d="M 194.387066 126.44874 
L 196.349857 126.44874 
L 196.349857 -6.657616 
L 194.387066 -6.657616 
z
" style="fill:#1f77b4;opacity:0.5;"/>
   </g>
   <g id="patch_63">
    <path clip-path="url(#pf9df8c30bc)" d="M 196.840554 126.44874 
L 198.803345 126.44874 
L 198.803345 28.773572 
L 196.840554 28.773572 
z
" style="fill:#1f77b4;opacity:0.5;"/>
   </g>
   <g id="patch_64">
    <path clip-path="url(#pf9df8c30bc)" d="M 199.294042 126.44874 
L 201.256832 126.44874 
L 201.256832 33.880771 
L 199.294042 33.880771 
z
" style="fill:#1f77b4;opacity:0.5;"/>
   </g>
   <g id="matplotlib.axis_1">
    <g id="xtick_1">
     <g id="line2d_1">
      <defs>
       <path d="M 0 0 
L 0 3.5 
" id="m8a26c8e7a2" style="stroke:#000000;stroke-width:0.8;"/>
      </defs>
      <g>
       <use style="stroke:#000000;stroke-width:0.8;" x="200.275437" xlink:href="#m8a26c8e7a2" y="126.44874"/>
      </g>
     </g>
     <g id="text_1">
      <!-- 19 Apr -->
      <defs>
       <path d="M 12.40625 8.296875 
L 28.515625 8.296875 
L 28.515625 63.921875 
L 10.984375 60.40625 
L 10.984375 69.390625 
L 28.421875 72.90625 
L 38.28125 72.90625 
L 38.28125 8.296875 
L 54.390625 8.296875 
L 54.390625 0 
L 12.40625 0 
z
" id="DejaVuSans-49"/>
       <path d="M 10.984375 1.515625 
L 10.984375 10.5 
Q 14.703125 8.734375 18.5 7.8125 
Q 22.3125 6.890625 25.984375 6.890625 
Q 35.75 6.890625 40.890625 13.453125 
Q 46.046875 20.015625 46.78125 33.40625 
Q 43.953125 29.203125 39.59375 26.953125 
Q 35.25 24.703125 29.984375 24.703125 
Q 19.046875 24.703125 12.671875 31.3125 
Q 6.296875 37.9375 6.296875 49.421875 
Q 6.296875 60.640625 12.9375 67.421875 
Q 19.578125 74.21875 30.609375 74.21875 
Q 43.265625 74.21875 49.921875 64.515625 
Q 56.59375 54.828125 56.59375 36.375 
Q 56.59375 19.140625 48.40625 8.859375 
Q 40.234375 -1.421875 26.421875 -1.421875 
Q 22.703125 -1.421875 18.890625 -0.6875 
Q 15.09375 0.046875 10.984375 1.515625 
z
M 30.609375 32.421875 
Q 37.25 32.421875 41.125 36.953125 
Q 45.015625 41.5 45.015625 49.421875 
Q 45.015625 57.28125 41.125 61.84375 
Q 37.25 66.40625 30.609375 66.40625 
Q 23.96875 66.40625 20.09375 61.84375 
Q 16.21875 57.28125 16.21875 49.421875 
Q 16.21875 41.5 20.09375 36.953125 
Q 23.96875 32.421875 30.609375 32.421875 
z
" id="DejaVuSans-57"/>
       <path id="DejaVuSans-32"/>
       <path d="M 34.1875 63.1875 
L 20.796875 26.90625 
L 47.609375 26.90625 
z
M 28.609375 72.90625 
L 39.796875 72.90625 
L 67.578125 0 
L 57.328125 0 
L 50.6875 18.703125 
L 17.828125 18.703125 
L 11.1875 0 
L 0.78125 0 
z
" id="DejaVuSans-65"/>
       <path d="M 18.109375 8.203125 
L 18.109375 -20.796875 
L 9.078125 -20.796875 
L 9.078125 54.6875 
L 18.109375 54.6875 
L 18.109375 46.390625 
Q 20.953125 51.265625 25.265625 53.625 
Q 29.59375 56 35.59375 56 
Q 45.5625 56 51.78125 48.09375 
Q 58.015625 40.1875 58.015625 27.296875 
Q 58.015625 14.40625 51.78125 6.484375 
Q 45.5625 -1.421875 35.59375 -1.421875 
Q 29.59375 -1.421875 25.265625 0.953125 
Q 20.953125 3.328125 18.109375 8.203125 
z
M 48.6875 27.296875 
Q 48.6875 37.203125 44.609375 42.84375 
Q 40.53125 48.484375 33.40625 48.484375 
Q 26.265625 48.484375 22.1875 42.84375 
Q 18.109375 37.203125 18.109375 27.296875 
Q 18.109375 17.390625 22.1875 11.75 
Q 26.265625 6.109375 33.40625 6.109375 
Q 40.53125 6.109375 44.609375 11.75 
Q 48.6875 17.390625 48.6875 27.296875 
z
" id="DejaVuSans-112"/>
       <path d="M 41.109375 46.296875 
Q 39.59375 47.171875 37.8125 47.578125 
Q 36.03125 48 33.890625 48 
Q 26.265625 48 22.1875 43.046875 
Q 18.109375 38.09375 18.109375 28.8125 
L 18.109375 0 
L 9.078125 0 
L 9.078125 54.6875 
L 18.109375 54.6875 
L 18.109375 46.1875 
Q 20.953125 51.171875 25.484375 53.578125 
Q 30.03125 56 36.53125 56 
Q 37.453125 56 38.578125 55.875 
Q 39.703125 55.765625 41.0625 55.515625 
z
" id="DejaVuSans-114"/>
      </defs>
      <g transform="translate(202.482937 160.01124)rotate(-90)scale(0.08 -0.08)">
       <use xlink:href="#DejaVuSans-49"/>
       <use x="63.623047" xlink:href="#DejaVuSans-57"/>
       <use x="127.246094" xlink:href="#DejaVuSans-32"/>
       <use x="159.033203" xlink:href="#DejaVuSans-65"/>
       <use x="227.441406" xlink:href="#DejaVuSans-112"/>
       <use x="290.917969" xlink:href="#DejaVuSans-114"/>
      </g>
     </g>
    </g>
    <g id="xtick_2">
     <g id="line2d_2">
      <g>
       <use style="stroke:#000000;stroke-width:0.8;" x="183.101022" xlink:href="#m8a26c8e7a2" y="126.44874"/>
      </g>
     </g>
     <g id="text_2">
      <!-- 12 Apr -->
      <defs>
       <path d="M 19.1875 8.296875 
L 53.609375 8.296875 
L 53.609375 0 
L 7.328125 0 
L 7.328125 8.296875 
Q 12.9375 14.109375 22.625 23.890625 
Q 32.328125 33.6875 34.8125 36.53125 
Q 39.546875 41.84375 41.421875 45.53125 
Q 43.3125 49.21875 43.3125 52.78125 
Q 43.3125 58.59375 39.234375 62.25 
Q 35.15625 65.921875 28.609375 65.921875 
Q 23.96875 65.921875 18.8125 64.3125 
Q 13.671875 62.703125 7.8125 59.421875 
L 7.8125 69.390625 
Q 13.765625 71.78125 18.9375 73 
Q 24.125 74.21875 28.421875 74.21875 
Q 39.75 74.21875 46.484375 68.546875 
Q 53.21875 62.890625 53.21875 53.421875 
Q 53.21875 48.921875 51.53125 44.890625 
Q 49.859375 40.875 45.40625 35.40625 
Q 44.1875 33.984375 37.640625 27.21875 
Q 31.109375 20.453125 19.1875 8.296875 
z
" id="DejaVuSans-50"/>
      </defs>
      <g transform="translate(185.308522 160.01124)rotate(-90)scale(0.08 -0.08)">
       <use xlink:href="#DejaVuSans-49"/>
       <use x="63.623047" xlink:href="#DejaVuSans-50"/>
       <use x="127.246094" xlink:href="#DejaVuSans-32"/>
       <use x="159.033203" xlink:href="#DejaVuSans-65"/>
       <use x="227.441406" xlink:href="#DejaVuSans-112"/>
       <use x="290.917969" xlink:href="#DejaVuSans-114"/>
      </g>
     </g>
    </g>
    <g id="xtick_3">
     <g id="line2d_3">
      <g>
       <use style="stroke:#000000;stroke-width:0.8;" x="165.926606" xlink:href="#m8a26c8e7a2" y="126.44874"/>
      </g>
     </g>
     <g id="text_3">
      <!-- 5 Apr -->
      <defs>
       <path d="M 10.796875 72.90625 
L 49.515625 72.90625 
L 49.515625 64.59375 
L 19.828125 64.59375 
L 19.828125 46.734375 
Q 21.96875 47.46875 24.109375 47.828125 
Q 26.265625 48.1875 28.421875 48.1875 
Q 40.625 48.1875 47.75 41.5 
Q 54.890625 34.8125 54.890625 23.390625 
Q 54.890625 11.625 47.5625 5.09375 
Q 40.234375 -1.421875 26.90625 -1.421875 
Q 22.3125 -1.421875 17.546875 -0.640625 
Q 12.796875 0.140625 7.71875 1.703125 
L 7.71875 11.625 
Q 12.109375 9.234375 16.796875 8.0625 
Q 21.484375 6.890625 26.703125 6.890625 
Q 35.15625 6.890625 40.078125 11.328125 
Q 45.015625 15.765625 45.015625 23.390625 
Q 45.015625 31 40.078125 35.4375 
Q 35.15625 39.890625 26.703125 39.890625 
Q 22.75 39.890625 18.8125 39.015625 
Q 14.890625 38.140625 10.796875 36.28125 
z
" id="DejaVuSans-53"/>
      </defs>
      <g transform="translate(168.134106 154.92124)rotate(-90)scale(0.08 -0.08)">
       <use xlink:href="#DejaVuSans-53"/>
       <use x="63.623047" xlink:href="#DejaVuSans-32"/>
       <use x="95.410156" xlink:href="#DejaVuSans-65"/>
       <use x="163.818359" xlink:href="#DejaVuSans-112"/>
       <use x="227.294922" xlink:href="#DejaVuSans-114"/>
      </g>
     </g>
    </g>
    <g id="xtick_4">
     <g id="line2d_4">
      <g>
       <use style="stroke:#000000;stroke-width:0.8;" x="148.752191" xlink:href="#m8a26c8e7a2" y="126.44874"/>
      </g>
     </g>
     <g id="text_4">
      <!-- 29 Mar -->
      <defs>
       <path d="M 9.8125 72.90625 
L 24.515625 72.90625 
L 43.109375 23.296875 
L 61.8125 72.90625 
L 76.515625 72.90625 
L 76.515625 0 
L 66.890625 0 
L 66.890625 64.015625 
L 48.09375 14.015625 
L 38.1875 14.015625 
L 19.390625 64.015625 
L 19.390625 0 
L 9.8125 0 
z
" id="DejaVuSans-77"/>
       <path d="M 34.28125 27.484375 
Q 23.390625 27.484375 19.1875 25 
Q 14.984375 22.515625 14.984375 16.5 
Q 14.984375 11.71875 18.140625 8.90625 
Q 21.296875 6.109375 26.703125 6.109375 
Q 34.1875 6.109375 38.703125 11.40625 
Q 43.21875 16.703125 43.21875 25.484375 
L 43.21875 27.484375 
z
M 52.203125 31.203125 
L 52.203125 0 
L 43.21875 0 
L 43.21875 8.296875 
Q 40.140625 3.328125 35.546875 0.953125 
Q 30.953125 -1.421875 24.3125 -1.421875 
Q 15.921875 -1.421875 10.953125 3.296875 
Q 6 8.015625 6 15.921875 
Q 6 25.140625 12.171875 29.828125 
Q 18.359375 34.515625 30.609375 34.515625 
L 43.21875 34.515625 
L 43.21875 35.40625 
Q 43.21875 41.609375 39.140625 45 
Q 35.0625 48.390625 27.6875 48.390625 
Q 23 48.390625 18.546875 47.265625 
Q 14.109375 46.140625 10.015625 43.890625 
L 10.015625 52.203125 
Q 14.9375 54.109375 19.578125 55.046875 
Q 24.21875 56 28.609375 56 
Q 40.484375 56 46.34375 49.84375 
Q 52.203125 43.703125 52.203125 31.203125 
z
" id="DejaVuSans-97"/>
      </defs>
      <g transform="translate(150.959691 161.26499)rotate(-90)scale(0.08 -0.08)">
       <use xlink:href="#DejaVuSans-50"/>
       <use x="63.623047" xlink:href="#DejaVuSans-57"/>
       <use x="127.246094" xlink:href="#DejaVuSans-32"/>
       <use x="159.033203" xlink:href="#DejaVuSans-77"/>
       <use x="245.3125" xlink:href="#DejaVuSans-97"/>
       <use x="306.591797" xlink:href="#DejaVuSans-114"/>
      </g>
     </g>
    </g>
    <g id="xtick_5">
     <g id="line2d_5">
      <g>
       <use style="stroke:#000000;stroke-width:0.8;" x="131.577775" xlink:href="#m8a26c8e7a2" y="126.44874"/>
      </g>
     </g>
     <g id="text_5">
      <!-- 22 Mar -->
      <g transform="translate(133.785275 161.26499)rotate(-90)scale(0.08 -0.08)">
       <use xlink:href="#DejaVuSans-50"/>
       <use x="63.623047" xlink:href="#DejaVuSans-50"/>
       <use x="127.246094" xlink:href="#DejaVuSans-32"/>
       <use x="159.033203" xlink:href="#DejaVuSans-77"/>
       <use x="245.3125" xlink:href="#DejaVuSans-97"/>
       <use x="306.591797" xlink:href="#DejaVuSans-114"/>
      </g>
     </g>
    </g>
    <g id="xtick_6">
     <g id="line2d_6">
      <g>
       <use style="stroke:#000000;stroke-width:0.8;" x="114.403359" xlink:href="#m8a26c8e7a2" y="126.44874"/>
      </g>
     </g>
     <g id="text_6">
      <!-- 15 Mar -->
      <g transform="translate(116.610859 161.26499)rotate(-90)scale(0.08 -0.08)">
       <use xlink:href="#DejaVuSans-49"/>
       <use x="63.623047" xlink:href="#DejaVuSans-53"/>
       <use x="127.246094" xlink:href="#DejaVuSans-32"/>
       <use x="159.033203" xlink:href="#DejaVuSans-77"/>
       <use x="245.3125" xlink:href="#DejaVuSans-97"/>
       <use x="306.591797" xlink:href="#DejaVuSans-114"/>
      </g>
     </g>
    </g>
    <g id="xtick_7">
     <g id="line2d_7">
      <g>
       <use style="stroke:#000000;stroke-width:0.8;" x="97.228944" xlink:href="#m8a26c8e7a2" y="126.44874"/>
      </g>
     </g>
     <g id="text_7">
      <!-- 8 Mar -->
      <defs>
       <path d="M 31.78125 34.625 
Q 24.75 34.625 20.71875 30.859375 
Q 16.703125 27.09375 16.703125 20.515625 
Q 16.703125 13.921875 20.71875 10.15625 
Q 24.75 6.390625 31.78125 6.390625 
Q 38.8125 6.390625 42.859375 10.171875 
Q 46.921875 13.96875 46.921875 20.515625 
Q 46.921875 27.09375 42.890625 30.859375 
Q 38.875 34.625 31.78125 34.625 
z
M 21.921875 38.8125 
Q 15.578125 40.375 12.03125 44.71875 
Q 8.5 49.078125 8.5 55.328125 
Q 8.5 64.0625 14.71875 69.140625 
Q 20.953125 74.21875 31.78125 74.21875 
Q 42.671875 74.21875 48.875 69.140625 
Q 55.078125 64.0625 55.078125 55.328125 
Q 55.078125 49.078125 51.53125 44.71875 
Q 48 40.375 41.703125 38.8125 
Q 48.828125 37.15625 52.796875 32.3125 
Q 56.78125 27.484375 56.78125 20.515625 
Q 56.78125 9.90625 50.3125 4.234375 
Q 43.84375 -1.421875 31.78125 -1.421875 
Q 19.734375 -1.421875 13.25 4.234375 
Q 6.78125 9.90625 6.78125 20.515625 
Q 6.78125 27.484375 10.78125 32.3125 
Q 14.796875 37.15625 21.921875 38.8125 
z
M 18.3125 54.390625 
Q 18.3125 48.734375 21.84375 45.5625 
Q 25.390625 42.390625 31.78125 42.390625 
Q 38.140625 42.390625 41.71875 45.5625 
Q 45.3125 48.734375 45.3125 54.390625 
Q 45.3125 60.0625 41.71875 63.234375 
Q 38.140625 66.40625 31.78125 66.40625 
Q 25.390625 66.40625 21.84375 63.234375 
Q 18.3125 60.0625 18.3125 54.390625 
z
" id="DejaVuSans-56"/>
      </defs>
      <g transform="translate(99.436444 156.17499)rotate(-90)scale(0.08 -0.08)">
       <use xlink:href="#DejaVuSans-56"/>
       <use x="63.623047" xlink:href="#DejaVuSans-32"/>
       <use x="95.410156" xlink:href="#DejaVuSans-77"/>
       <use x="181.689453" xlink:href="#DejaVuSans-97"/>
       <use x="242.96875" xlink:href="#DejaVuSans-114"/>
      </g>
     </g>
    </g>
    <g id="xtick_8">
     <g id="line2d_8">
      <g>
       <use style="stroke:#000000;stroke-width:0.8;" x="80.054528" xlink:href="#m8a26c8e7a2" y="126.44874"/>
      </g>
     </g>
     <g id="text_8">
      <!-- 1 Mar -->
      <g transform="translate(82.262028 156.17499)rotate(-90)scale(0.08 -0.08)">
       <use xlink:href="#DejaVuSans-49"/>
       <use x="63.623047" xlink:href="#DejaVuSans-32"/>
       <use x="95.410156" xlink:href="#DejaVuSans-77"/>
       <use x="181.689453" xlink:href="#DejaVuSans-97"/>
       <use x="242.96875" xlink:href="#DejaVuSans-114"/>
      </g>
     </g>
    </g>
    <g id="xtick_9">
     <g id="line2d_9">
      <g>
       <use style="stroke:#000000;stroke-width:0.8;" x="62.880113" xlink:href="#m8a26c8e7a2" y="126.44874"/>
      </g>
     </g>
     <g id="text_9">
      <!-- 23 Feb -->
      <defs>
       <path d="M 40.578125 39.3125 
Q 47.65625 37.796875 51.625 33 
Q 55.609375 28.21875 55.609375 21.1875 
Q 55.609375 10.40625 48.1875 4.484375 
Q 40.765625 -1.421875 27.09375 -1.421875 
Q 22.515625 -1.421875 17.65625 -0.515625 
Q 12.796875 0.390625 7.625 2.203125 
L 7.625 11.71875 
Q 11.71875 9.328125 16.59375 8.109375 
Q 21.484375 6.890625 26.8125 6.890625 
Q 36.078125 6.890625 40.9375 10.546875 
Q 45.796875 14.203125 45.796875 21.1875 
Q 45.796875 27.640625 41.28125 31.265625 
Q 36.765625 34.90625 28.71875 34.90625 
L 20.21875 34.90625 
L 20.21875 43.015625 
L 29.109375 43.015625 
Q 36.375 43.015625 40.234375 45.921875 
Q 44.09375 48.828125 44.09375 54.296875 
Q 44.09375 59.90625 40.109375 62.90625 
Q 36.140625 65.921875 28.71875 65.921875 
Q 24.65625 65.921875 20.015625 65.03125 
Q 15.375 64.15625 9.8125 62.3125 
L 9.8125 71.09375 
Q 15.4375 72.65625 20.34375 73.4375 
Q 25.25 74.21875 29.59375 74.21875 
Q 40.828125 74.21875 47.359375 69.109375 
Q 53.90625 64.015625 53.90625 55.328125 
Q 53.90625 49.265625 50.4375 45.09375 
Q 46.96875 40.921875 40.578125 39.3125 
z
" id="DejaVuSans-51"/>
       <path d="M 9.8125 72.90625 
L 51.703125 72.90625 
L 51.703125 64.59375 
L 19.671875 64.59375 
L 19.671875 43.109375 
L 48.578125 43.109375 
L 48.578125 34.8125 
L 19.671875 34.8125 
L 19.671875 0 
L 9.8125 0 
z
" id="DejaVuSans-70"/>
       <path d="M 56.203125 29.59375 
L 56.203125 25.203125 
L 14.890625 25.203125 
Q 15.484375 15.921875 20.484375 11.0625 
Q 25.484375 6.203125 34.421875 6.203125 
Q 39.59375 6.203125 44.453125 7.46875 
Q 49.3125 8.734375 54.109375 11.28125 
L 54.109375 2.78125 
Q 49.265625 0.734375 44.1875 -0.34375 
Q 39.109375 -1.421875 33.890625 -1.421875 
Q 20.796875 -1.421875 13.15625 6.1875 
Q 5.515625 13.8125 5.515625 26.8125 
Q 5.515625 40.234375 12.765625 48.109375 
Q 20.015625 56 32.328125 56 
Q 43.359375 56 49.78125 48.890625 
Q 56.203125 41.796875 56.203125 29.59375 
z
M 47.21875 32.234375 
Q 47.125 39.59375 43.09375 43.984375 
Q 39.0625 48.390625 32.421875 48.390625 
Q 24.90625 48.390625 20.390625 44.140625 
Q 15.875 39.890625 15.1875 32.171875 
z
" id="DejaVuSans-101"/>
       <path d="M 48.6875 27.296875 
Q 48.6875 37.203125 44.609375 42.84375 
Q 40.53125 48.484375 33.40625 48.484375 
Q 26.265625 48.484375 22.1875 42.84375 
Q 18.109375 37.203125 18.109375 27.296875 
Q 18.109375 17.390625 22.1875 11.75 
Q 26.265625 6.109375 33.40625 6.109375 
Q 40.53125 6.109375 44.609375 11.75 
Q 48.6875 17.390625 48.6875 27.296875 
z
M 18.109375 46.390625 
Q 20.953125 51.265625 25.265625 53.625 
Q 29.59375 56 35.59375 56 
Q 45.5625 56 51.78125 48.09375 
Q 58.015625 40.1875 58.015625 27.296875 
Q 58.015625 14.40625 51.78125 6.484375 
Q 45.5625 -1.421875 35.59375 -1.421875 
Q 29.59375 -1.421875 25.265625 0.953125 
Q 20.953125 3.328125 18.109375 8.203125 
L 18.109375 0 
L 9.078125 0 
L 9.078125 75.984375 
L 18.109375 75.984375 
z
" id="DejaVuSans-98"/>
      </defs>
      <g transform="translate(65.087613 160.33374)rotate(-90)scale(0.08 -0.08)">
       <use xlink:href="#DejaVuSans-50"/>
       <use x="63.623047" xlink:href="#DejaVuSans-51"/>
       <use x="127.246094" xlink:href="#DejaVuSans-32"/>
       <use x="159.033203" xlink:href="#DejaVuSans-70"/>
       <use x="211.052734" xlink:href="#DejaVuSans-101"/>
       <use x="272.576172" xlink:href="#DejaVuSans-98"/>
      </g>
     </g>
    </g>
   </g>
   <g id="matplotlib.axis_2">
    <g id="ytick_1">
     <g id="line2d_10">
      <defs>
       <path d="M 0 0 
L -3.5 0 
" id="m789b9f3b97" style="stroke:#000000;stroke-width:0.8;"/>
      </defs>
      <g>
       <use style="stroke:#000000;stroke-width:0.8;" x="42.05" xlink:href="#m789b9f3b97" y="126.44874"/>
      </g>
     </g>
     <g id="text_10">
      <!-- 0 -->
      <defs>
       <path d="M 31.78125 66.40625 
Q 24.171875 66.40625 20.328125 58.90625 
Q 16.5 51.421875 16.5 36.375 
Q 16.5 21.390625 20.328125 13.890625 
Q 24.171875 6.390625 31.78125 6.390625 
Q 39.453125 6.390625 43.28125 13.890625 
Q 47.125 21.390625 47.125 36.375 
Q 47.125 51.421875 43.28125 58.90625 
Q 39.453125 66.40625 31.78125 66.40625 
z
M 31.78125 74.21875 
Q 44.046875 74.21875 50.515625 64.515625 
Q 56.984375 54.828125 56.984375 36.375 
Q 56.984375 17.96875 50.515625 8.265625 
Q 44.046875 -1.421875 31.78125 -1.421875 
Q 19.53125 -1.421875 13.0625 8.265625 
Q 6.59375 17.96875 6.59375 36.375 
Q 6.59375 54.828125 13.0625 64.515625 
Q 19.53125 74.21875 31.78125 74.21875 
z
" id="DejaVuSans-48"/>
      </defs>
      <g transform="translate(29.96 129.488115)scale(0.08 -0.08)">
       <use xlink:href="#DejaVuSans-48"/>
      </g>
     </g>
    </g>
    <g id="ytick_2">
     <g id="line2d_11">
      <g>
       <use style="stroke:#000000;stroke-width:0.8;" x="42.05" xlink:href="#m789b9f3b97" y="94.528751"/>
      </g>
     </g>
     <g id="text_11">
      <!-- 100 -->
      <g transform="translate(19.78 97.568126)scale(0.08 -0.08)">
       <use xlink:href="#DejaVuSans-49"/>
       <use x="63.623047" xlink:href="#DejaVuSans-48"/>
       <use x="127.246094" xlink:href="#DejaVuSans-48"/>
      </g>
     </g>
    </g>
    <g id="ytick_3">
     <g id="line2d_12">
      <g>
       <use style="stroke:#000000;stroke-width:0.8;" x="42.05" xlink:href="#m789b9f3b97" y="62.608761"/>
      </g>
     </g>
     <g id="text_12">
      <!-- 200 -->
      <g transform="translate(19.78 65.648136)scale(0.08 -0.08)">
       <use xlink:href="#DejaVuSans-50"/>
       <use x="63.623047" xlink:href="#DejaVuSans-48"/>
       <use x="127.246094" xlink:href="#DejaVuSans-48"/>
      </g>
     </g>
    </g>
    <g id="ytick_4">
     <g id="line2d_13">
      <g>
       <use style="stroke:#000000;stroke-width:0.8;" x="42.05" xlink:href="#m789b9f3b97" y="30.688772"/>
      </g>
     </g>
     <g id="text_13">
      <!-- 300 -->
      <g transform="translate(19.78 33.728147)scale(0.08 -0.08)">
       <use xlink:href="#DejaVuSans-51"/>
       <use x="63.623047" xlink:href="#DejaVuSans-48"/>
       <use x="127.246094" xlink:href="#DejaVuSans-48"/>
      </g>
     </g>
    </g>
    <g id="text_14">
     <!-- Deaths per day -->
     <defs>
      <path d="M 19.671875 64.796875 
L 19.671875 8.109375 
L 31.59375 8.109375 
Q 46.6875 8.109375 53.6875 14.9375 
Q 60.6875 21.78125 60.6875 36.53125 
Q 60.6875 51.171875 53.6875 57.984375 
Q 46.6875 64.796875 31.59375 64.796875 
z
M 9.8125 72.90625 
L 30.078125 72.90625 
Q 51.265625 72.90625 61.171875 64.09375 
Q 71.09375 55.28125 71.09375 36.53125 
Q 71.09375 17.671875 61.125 8.828125 
Q 51.171875 0 30.078125 0 
L 9.8125 0 
z
" id="DejaVuSans-68"/>
      <path d="M 18.3125 70.21875 
L 18.3125 54.6875 
L 36.8125 54.6875 
L 36.8125 47.703125 
L 18.3125 47.703125 
L 18.3125 18.015625 
Q 18.3125 11.328125 20.140625 9.421875 
Q 21.96875 7.515625 27.59375 7.515625 
L 36.8125 7.515625 
L 36.8125 0 
L 27.59375 0 
Q 17.1875 0 13.234375 3.875 
Q 9.28125 7.765625 9.28125 18.015625 
L 9.28125 47.703125 
L 2.6875 47.703125 
L 2.6875 54.6875 
L 9.28125 54.6875 
L 9.28125 70.21875 
z
" id="DejaVuSans-116"/>
      <path d="M 54.890625 33.015625 
L 54.890625 0 
L 45.90625 0 
L 45.90625 32.71875 
Q 45.90625 40.484375 42.875 44.328125 
Q 39.84375 48.1875 33.796875 48.1875 
Q 26.515625 48.1875 22.3125 43.546875 
Q 18.109375 38.921875 18.109375 30.90625 
L 18.109375 0 
L 9.078125 0 
L 9.078125 75.984375 
L 18.109375 75.984375 
L 18.109375 46.1875 
Q 21.34375 51.125 25.703125 53.5625 
Q 30.078125 56 35.796875 56 
Q 45.21875 56 50.046875 50.171875 
Q 54.890625 44.34375 54.890625 33.015625 
z
" id="DejaVuSans-104"/>
      <path d="M 44.28125 53.078125 
L 44.28125 44.578125 
Q 40.484375 46.53125 36.375 47.5 
Q 32.28125 48.484375 27.875 48.484375 
Q 21.1875 48.484375 17.84375 46.4375 
Q 14.5 44.390625 14.5 40.28125 
Q 14.5 37.15625 16.890625 35.375 
Q 19.28125 33.59375 26.515625 31.984375 
L 29.59375 31.296875 
Q 39.15625 29.25 43.1875 25.515625 
Q 47.21875 21.78125 47.21875 15.09375 
Q 47.21875 7.46875 41.1875 3.015625 
Q 35.15625 -1.421875 24.609375 -1.421875 
Q 20.21875 -1.421875 15.453125 -0.5625 
Q 10.6875 0.296875 5.421875 2 
L 5.421875 11.28125 
Q 10.40625 8.6875 15.234375 7.390625 
Q 20.0625 6.109375 24.8125 6.109375 
Q 31.15625 6.109375 34.5625 8.28125 
Q 37.984375 10.453125 37.984375 14.40625 
Q 37.984375 18.0625 35.515625 20.015625 
Q 33.0625 21.96875 24.703125 23.78125 
L 21.578125 24.515625 
Q 13.234375 26.265625 9.515625 29.90625 
Q 5.8125 33.546875 5.8125 39.890625 
Q 5.8125 47.609375 11.28125 51.796875 
Q 16.75 56 26.8125 56 
Q 31.78125 56 36.171875 55.265625 
Q 40.578125 54.546875 44.28125 53.078125 
z
" id="DejaVuSans-115"/>
      <path d="M 45.40625 46.390625 
L 45.40625 75.984375 
L 54.390625 75.984375 
L 54.390625 0 
L 45.40625 0 
L 45.40625 8.203125 
Q 42.578125 3.328125 38.25 0.953125 
Q 33.9375 -1.421875 27.875 -1.421875 
Q 17.96875 -1.421875 11.734375 6.484375 
Q 5.515625 14.40625 5.515625 27.296875 
Q 5.515625 40.1875 11.734375 48.09375 
Q 17.96875 56 27.875 56 
Q 33.9375 56 38.25 53.625 
Q 42.578125 51.265625 45.40625 46.390625 
z
M 14.796875 27.296875 
Q 14.796875 17.390625 18.875 11.75 
Q 22.953125 6.109375 30.078125 6.109375 
Q 37.203125 6.109375 41.296875 11.75 
Q 45.40625 17.390625 45.40625 27.296875 
Q 45.40625 37.203125 41.296875 42.84375 
Q 37.203125 48.484375 30.078125 48.484375 
Q 22.953125 48.484375 18.875 42.84375 
Q 14.796875 37.203125 14.796875 27.296875 
z
" id="DejaVuSans-100"/>
      <path d="M 32.171875 -5.078125 
Q 28.375 -14.84375 24.75 -17.8125 
Q 21.140625 -20.796875 15.09375 -20.796875 
L 7.90625 -20.796875 
L 7.90625 -13.28125 
L 13.1875 -13.28125 
Q 16.890625 -13.28125 18.9375 -11.515625 
Q 21 -9.765625 23.484375 -3.21875 
L 25.09375 0.875 
L 2.984375 54.6875 
L 12.5 54.6875 
L 29.59375 11.921875 
L 46.6875 54.6875 
L 56.203125 54.6875 
z
" id="DejaVuSans-121"/>
     </defs>
     <g transform="translate(14.11625 99.70937)rotate(-90)scale(0.08 -0.08)">
      <use xlink:href="#DejaVuSans-68"/>
      <use x="77.001953" xlink:href="#DejaVuSans-101"/>
      <use x="138.525391" xlink:href="#DejaVuSans-97"/>
      <use x="199.804688" xlink:href="#DejaVuSans-116"/>
      <use x="239.013672" xlink:href="#DejaVuSans-104"/>
      <use x="302.392578" xlink:href="#DejaVuSans-115"/>
      <use x="354.492188" xlink:href="#DejaVuSans-32"/>
      <use x="386.279297" xlink:href="#DejaVuSans-112"/>
      <use x="449.755859" xlink:href="#DejaVuSans-101"/>
      <use x="511.279297" xlink:href="#DejaVuSans-114"/>
      <use x="552.392578" xlink:href="#DejaVuSans-32"/>
      <use x="584.179688" xlink:href="#DejaVuSans-100"/>
      <use x="647.65625" xlink:href="#DejaVuSans-97"/>
      <use x="708.935547" xlink:href="#DejaVuSans-121"/>
     </g>
    </g>
   </g>
   <g id="line2d_14">
    <path clip-path="url(#pf9df8c30bc)" d="M 50.612673 126.44874 
L 53.066161 126.44874 
L 55.519649 126.448653 
L 57.973137 126.448359 
L 60.426625 126.447679 
L 62.880113 126.446413 
L 65.333601 126.444372 
L 67.787089 126.441398 
L 70.240576 126.437335 
L 72.694064 126.432023 
L 75.147552 126.425324 
L 77.60104 126.417065 
L 80.054528 126.407018 
L 82.508016 126.394894 
L 84.961504 126.38024 
L 87.414992 126.362432 
L 89.86848 126.34064 
L 92.321968 126.313838 
L 94.775456 126.280854 
L 97.228944 126.240118 
L 99.682432 126.189805 
L 102.13592 126.127748 
L 104.589408 126.051094 
L 107.042896 125.956381 
L 109.496384 125.839188 
L 111.949871 125.689741 
L 114.403359 125.484527 
L 116.856847 125.208454 
L 119.310335 124.843305 
L 121.763823 124.36271 
L 124.217311 123.718288 
L 126.670799 122.880493 
L 129.124287 121.81798 
L 131.577775 120.520377 
L 134.031263 119.000458 
L 136.484751 117.286635 
L 138.938239 115.412938 
L 141.391727 113.415968 
L 143.845215 111.33252 
L 146.298703 109.193588 
L 148.752191 107.025116 
" style="fill:none;stroke:#0000ff;stroke-linecap:square;stroke-opacity:0.5;"/>
   </g>
   <g id="line2d_15">
    <path clip-path="url(#pf9df8c30bc)" d="M 151.205678 104.854163 
L 153.659166 102.709235 
L 156.112654 100.620826 
L 158.566142 98.621379 
L 161.01963 96.742021 
L 163.473118 95.010389 
L 165.926606 93.449113 
L 168.380094 92.074978 
L 170.833582 90.898647 
L 173.28707 89.924824 
L 175.740558 89.152704 
L 178.194046 88.57662 
L 180.647534 88.186785 
L 183.101022 87.970057 
L 185.55451 87.910693 
L 188.007998 87.991052 
L 190.461486 88.192208 
L 192.914973 88.494497 
L 195.368461 88.877953 
L 197.821949 89.322667 
L 200.275437 89.809045 
" style="fill:none;stroke:#008000;stroke-linecap:square;stroke-opacity:0.5;"/>
   </g>
   <g id="line2d_16">
    <path clip-path="url(#pf9df8c30bc)" d="M 107.042896 126.44874 
L 107.042896 11.52 
" style="fill:none;stroke:#0000ff;stroke-dasharray:1.85,0.8;stroke-dashoffset:0;stroke-width:0.5;"/>
   </g>
   <g id="line2d_17">
    <path clip-path="url(#pf9df8c30bc)" d="M 111.949871 126.44874 
L 111.949871 11.52 
" style="fill:none;stroke:#0000ff;stroke-dasharray:1.85,0.8;stroke-dashoffset:0;stroke-width:0.5;"/>
   </g>
   <g id="line2d_18">
    <path clip-path="url(#pf9df8c30bc)" d="M 121.763823 126.44874 
L 121.763823 11.52 
" style="fill:none;stroke:#0000ff;stroke-dasharray:1.85,0.8;stroke-dashoffset:0;stroke-width:0.5;"/>
   </g>
   <g id="line2d_19">
    <path clip-path="url(#pf9df8c30bc)" d="M 111.949871 126.44874 
L 111.949871 11.52 
" style="fill:none;stroke:#0000ff;stroke-dasharray:1.85,0.8;stroke-dashoffset:0;stroke-width:0.5;"/>
   </g>
   <g id="line2d_20">
    <path clip-path="url(#pf9df8c30bc)" d="M 102.13592 126.44874 
L 102.13592 11.52 
" style="fill:none;stroke:#0000ff;stroke-dasharray:1.85,0.8;stroke-dashoffset:0;stroke-width:0.5;"/>
   </g>
   <g id="patch_65">
    <path d="M 42.05 126.44874 
L 42.05 11.52 
" style="fill:none;stroke:#000000;stroke-linecap:square;stroke-linejoin:miter;stroke-width:0.8;"/>
   </g>
   <g id="patch_66">
    <path d="M 208.83811 126.44874 
L 208.83811 11.52 
" style="fill:none;stroke:#000000;stroke-linecap:square;stroke-linejoin:miter;stroke-width:0.8;"/>
   </g>
   <g id="patch_67">
    <path d="M 42.05 126.44874 
L 208.83811 126.44874 
" style="fill:none;stroke:#000000;stroke-linecap:square;stroke-linejoin:miter;stroke-width:0.8;"/>
   </g>
   <g id="patch_68">
    <path d="M 42.05 11.52 
L 208.83811 11.52 
" style="fill:none;stroke:#000000;stroke-linecap:square;stroke-linejoin:miter;stroke-width:0.8;"/>
   </g>
   <g id="legend_1">
    <g id="line2d_21">
     <path d="M 49.25 103.04249 
L 65.25 103.04249 
" style="fill:none;stroke:#0000ff;stroke-linecap:square;stroke-opacity:0.5;"/>
    </g>
    <g id="line2d_22"/>
    <g id="text_15">
     <!-- Simulation -->
     <defs>
      <path d="M 53.515625 70.515625 
L 53.515625 60.890625 
Q 47.90625 63.578125 42.921875 64.890625 
Q 37.9375 66.21875 33.296875 66.21875 
Q 25.25 66.21875 20.875 63.09375 
Q 16.5 59.96875 16.5 54.203125 
Q 16.5 49.359375 19.40625 46.890625 
Q 22.3125 44.4375 30.421875 42.921875 
L 36.375 41.703125 
Q 47.40625 39.59375 52.65625 34.296875 
Q 57.90625 29 57.90625 20.125 
Q 57.90625 9.515625 50.796875 4.046875 
Q 43.703125 -1.421875 29.984375 -1.421875 
Q 24.8125 -1.421875 18.96875 -0.25 
Q 13.140625 0.921875 6.890625 3.21875 
L 6.890625 13.375 
Q 12.890625 10.015625 18.65625 8.296875 
Q 24.421875 6.59375 29.984375 6.59375 
Q 38.421875 6.59375 43.015625 9.90625 
Q 47.609375 13.234375 47.609375 19.390625 
Q 47.609375 24.75 44.3125 27.78125 
Q 41.015625 30.8125 33.5 32.328125 
L 27.484375 33.5 
Q 16.453125 35.6875 11.515625 40.375 
Q 6.59375 45.0625 6.59375 53.421875 
Q 6.59375 63.09375 13.40625 68.65625 
Q 20.21875 74.21875 32.171875 74.21875 
Q 37.3125 74.21875 42.625 73.28125 
Q 47.953125 72.359375 53.515625 70.515625 
z
" id="DejaVuSans-83"/>
      <path d="M 9.421875 54.6875 
L 18.40625 54.6875 
L 18.40625 0 
L 9.421875 0 
z
M 9.421875 75.984375 
L 18.40625 75.984375 
L 18.40625 64.59375 
L 9.421875 64.59375 
z
" id="DejaVuSans-105"/>
      <path d="M 52 44.1875 
Q 55.375 50.25 60.0625 53.125 
Q 64.75 56 71.09375 56 
Q 79.640625 56 84.28125 50.015625 
Q 88.921875 44.046875 88.921875 33.015625 
L 88.921875 0 
L 79.890625 0 
L 79.890625 32.71875 
Q 79.890625 40.578125 77.09375 44.375 
Q 74.3125 48.1875 68.609375 48.1875 
Q 61.625 48.1875 57.5625 43.546875 
Q 53.515625 38.921875 53.515625 30.90625 
L 53.515625 0 
L 44.484375 0 
L 44.484375 32.71875 
Q 44.484375 40.625 41.703125 44.40625 
Q 38.921875 48.1875 33.109375 48.1875 
Q 26.21875 48.1875 22.15625 43.53125 
Q 18.109375 38.875 18.109375 30.90625 
L 18.109375 0 
L 9.078125 0 
L 9.078125 54.6875 
L 18.109375 54.6875 
L 18.109375 46.1875 
Q 21.1875 51.21875 25.484375 53.609375 
Q 29.78125 56 35.6875 56 
Q 41.65625 56 45.828125 52.96875 
Q 50 49.953125 52 44.1875 
z
" id="DejaVuSans-109"/>
      <path d="M 8.5 21.578125 
L 8.5 54.6875 
L 17.484375 54.6875 
L 17.484375 21.921875 
Q 17.484375 14.15625 20.5 10.265625 
Q 23.53125 6.390625 29.59375 6.390625 
Q 36.859375 6.390625 41.078125 11.03125 
Q 45.3125 15.671875 45.3125 23.6875 
L 45.3125 54.6875 
L 54.296875 54.6875 
L 54.296875 0 
L 45.3125 0 
L 45.3125 8.40625 
Q 42.046875 3.421875 37.71875 1 
Q 33.40625 -1.421875 27.6875 -1.421875 
Q 18.265625 -1.421875 13.375 4.4375 
Q 8.5 10.296875 8.5 21.578125 
z
M 31.109375 56 
z
" id="DejaVuSans-117"/>
      <path d="M 9.421875 75.984375 
L 18.40625 75.984375 
L 18.40625 0 
L 9.421875 0 
z
" id="DejaVuSans-108"/>
      <path d="M 30.609375 48.390625 
Q 23.390625 48.390625 19.1875 42.75 
Q 14.984375 37.109375 14.984375 27.296875 
Q 14.984375 17.484375 19.15625 11.84375 
Q 23.34375 6.203125 30.609375 6.203125 
Q 37.796875 6.203125 41.984375 11.859375 
Q 46.1875 17.53125 46.1875 27.296875 
Q 46.1875 37.015625 41.984375 42.703125 
Q 37.796875 48.390625 30.609375 48.390625 
z
M 30.609375 56 
Q 42.328125 56 49.015625 48.375 
Q 55.71875 40.765625 55.71875 27.296875 
Q 55.71875 13.875 49.015625 6.21875 
Q 42.328125 -1.421875 30.609375 -1.421875 
Q 18.84375 -1.421875 12.171875 6.21875 
Q 5.515625 13.875 5.515625 27.296875 
Q 5.515625 40.765625 12.171875 48.375 
Q 18.84375 56 30.609375 56 
z
" id="DejaVuSans-111"/>
      <path d="M 54.890625 33.015625 
L 54.890625 0 
L 45.90625 0 
L 45.90625 32.71875 
Q 45.90625 40.484375 42.875 44.328125 
Q 39.84375 48.1875 33.796875 48.1875 
Q 26.515625 48.1875 22.3125 43.546875 
Q 18.109375 38.921875 18.109375 30.90625 
L 18.109375 0 
L 9.078125 0 
L 9.078125 54.6875 
L 18.109375 54.6875 
L 18.109375 46.1875 
Q 21.34375 51.125 25.703125 53.5625 
Q 30.078125 56 35.796875 56 
Q 45.21875 56 50.046875 50.171875 
Q 54.890625 44.34375 54.890625 33.015625 
z
" id="DejaVuSans-110"/>
     </defs>
     <g transform="translate(71.65 105.84249)scale(0.08 -0.08)">
      <use xlink:href="#DejaVuSans-83"/>
      <use x="63.476562" xlink:href="#DejaVuSans-105"/>
      <use x="91.259766" xlink:href="#DejaVuSans-109"/>
      <use x="188.671875" xlink:href="#DejaVuSans-117"/>
      <use x="252.050781" xlink:href="#DejaVuSans-108"/>
      <use x="279.833984" xlink:href="#DejaVuSans-97"/>
      <use x="341.113281" xlink:href="#DejaVuSans-116"/>
      <use x="380.322266" xlink:href="#DejaVuSans-105"/>
      <use x="408.105469" xlink:href="#DejaVuSans-111"/>
      <use x="469.287109" xlink:href="#DejaVuSans-110"/>
     </g>
    </g>
    <g id="line2d_23">
     <path d="M 49.25 114.78499 
L 65.25 114.78499 
" style="fill:none;stroke:#008000;stroke-linecap:square;stroke-opacity:0.5;"/>
    </g>
    <g id="line2d_24"/>
    <g id="text_16">
     <!-- Forecast -->
     <defs>
      <path d="M 48.78125 52.59375 
L 48.78125 44.1875 
Q 44.96875 46.296875 41.140625 47.34375 
Q 37.3125 48.390625 33.40625 48.390625 
Q 24.65625 48.390625 19.8125 42.84375 
Q 14.984375 37.3125 14.984375 27.296875 
Q 14.984375 17.28125 19.8125 11.734375 
Q 24.65625 6.203125 33.40625 6.203125 
Q 37.3125 6.203125 41.140625 7.25 
Q 44.96875 8.296875 48.78125 10.40625 
L 48.78125 2.09375 
Q 45.015625 0.34375 40.984375 -0.53125 
Q 36.96875 -1.421875 32.421875 -1.421875 
Q 20.0625 -1.421875 12.78125 6.34375 
Q 5.515625 14.109375 5.515625 27.296875 
Q 5.515625 40.671875 12.859375 48.328125 
Q 20.21875 56 33.015625 56 
Q 37.15625 56 41.109375 55.140625 
Q 45.0625 54.296875 48.78125 52.59375 
z
" id="DejaVuSans-99"/>
     </defs>
     <g transform="translate(71.65 117.58499)scale(0.08 -0.08)">
      <use xlink:href="#DejaVuSans-70"/>
      <use x="53.894531" xlink:href="#DejaVuSans-111"/>
      <use x="115.076172" xlink:href="#DejaVuSans-114"/>
      <use x="153.939453" xlink:href="#DejaVuSans-101"/>
      <use x="215.462891" xlink:href="#DejaVuSans-99"/>
      <use x="270.443359" xlink:href="#DejaVuSans-97"/>
      <use x="331.722656" xlink:href="#DejaVuSans-115"/>
      <use x="383.822266" xlink:href="#DejaVuSans-116"/>
     </g>
    </g>
   </g>
  </g>
  <g id="axes_2">
   <g id="matplotlib.axis_3">
    <g id="ytick_5">
     <g id="line2d_25">
      <defs>
       <path d="M 0 0 
L 3.5 0 
" id="m7f7273ca85" style="stroke:#000000;stroke-width:0.8;"/>
      </defs>
      <g>
       <use style="stroke:#000000;stroke-width:0.8;" x="208.83811" xlink:href="#m7f7273ca85" y="126.44874"/>
      </g>
     </g>
     <g id="text_17">
      <!-- 1.0 -->
      <defs>
       <path d="M 10.59375 35.5 
L 73.1875 35.5 
L 73.1875 27.203125 
L 10.59375 27.203125 
z
" id="DejaVuSans-8722"/>
       <path d="M 10.6875 12.40625 
L 21 12.40625 
L 21 0 
L 10.6875 0 
z
" id="DejaVuSans-46"/>
      </defs>
      <g transform="translate(215.83811 129.488115)scale(0.08 -0.08)">
       <use xlink:href="#DejaVuSans-8722"/>
       <use x="83.789062" xlink:href="#DejaVuSans-49"/>
       <use x="147.412109" xlink:href="#DejaVuSans-46"/>
       <use x="179.199219" xlink:href="#DejaVuSans-48"/>
      </g>
     </g>
    </g>
    <g id="ytick_6">
     <g id="line2d_26">
      <g>
       <use style="stroke:#000000;stroke-width:0.8;" x="208.83811" xlink:href="#m7f7273ca85" y="85.402762"/>
      </g>
     </g>
     <g id="text_18">
      <!-- 0.5 -->
      <g transform="translate(215.83811 88.442137)scale(0.08 -0.08)">
       <use xlink:href="#DejaVuSans-8722"/>
       <use x="83.789062" xlink:href="#DejaVuSans-48"/>
       <use x="147.412109" xlink:href="#DejaVuSans-46"/>
       <use x="179.199219" xlink:href="#DejaVuSans-53"/>
      </g>
     </g>
    </g>
    <g id="ytick_7">
     <g id="line2d_27">
      <g>
       <use style="stroke:#000000;stroke-width:0.8;" x="208.83811" xlink:href="#m7f7273ca85" y="44.356783"/>
      </g>
     </g>
     <g id="text_19">
      <!-- 0.0 -->
      <g transform="translate(215.83811 47.396158)scale(0.08 -0.08)">
       <use xlink:href="#DejaVuSans-48"/>
       <use x="63.623047" xlink:href="#DejaVuSans-46"/>
       <use x="95.410156" xlink:href="#DejaVuSans-48"/>
      </g>
     </g>
    </g>
    <g id="ytick_8">
     <g id="line2d_28">
      <g>
       <use style="stroke:#000000;stroke-width:0.8;" x="208.83811" xlink:href="#m7f7273ca85" y="11.52"/>
      </g>
     </g>
     <g id="text_20">
      <!-- 0.4 -->
      <defs>
       <path d="M 37.796875 64.3125 
L 12.890625 25.390625 
L 37.796875 25.390625 
z
M 35.203125 72.90625 
L 47.609375 72.90625 
L 47.609375 25.390625 
L 58.015625 25.390625 
L 58.015625 17.1875 
L 47.609375 17.1875 
L 47.609375 0 
L 37.796875 0 
L 37.796875 17.1875 
L 4.890625 17.1875 
L 4.890625 26.703125 
z
" id="DejaVuSans-52"/>
      </defs>
      <g transform="translate(215.83811 14.559375)scale(0.08 -0.08)">
       <use xlink:href="#DejaVuSans-48"/>
       <use x="63.623047" xlink:href="#DejaVuSans-46"/>
       <use x="95.410156" xlink:href="#DejaVuSans-52"/>
      </g>
     </g>
    </g>
    <g id="text_21">
     <!-- Relative change -->
     <defs>
      <path d="M 44.390625 34.1875 
Q 47.5625 33.109375 50.5625 29.59375 
Q 53.5625 26.078125 56.59375 19.921875 
L 66.609375 0 
L 56 0 
L 46.6875 18.703125 
Q 43.0625 26.03125 39.671875 28.421875 
Q 36.28125 30.8125 30.421875 30.8125 
L 19.671875 30.8125 
L 19.671875 0 
L 9.8125 0 
L 9.8125 72.90625 
L 32.078125 72.90625 
Q 44.578125 72.90625 50.734375 67.671875 
Q 56.890625 62.453125 56.890625 51.90625 
Q 56.890625 45.015625 53.6875 40.46875 
Q 50.484375 35.9375 44.390625 34.1875 
z
M 19.671875 64.796875 
L 19.671875 38.921875 
L 32.078125 38.921875 
Q 39.203125 38.921875 42.84375 42.21875 
Q 46.484375 45.515625 46.484375 51.90625 
Q 46.484375 58.296875 42.84375 61.546875 
Q 39.203125 64.796875 32.078125 64.796875 
z
" id="DejaVuSans-82"/>
      <path d="M 2.984375 54.6875 
L 12.5 54.6875 
L 29.59375 8.796875 
L 46.6875 54.6875 
L 56.203125 54.6875 
L 35.6875 0 
L 23.484375 0 
z
" id="DejaVuSans-118"/>
      <path d="M 45.40625 27.984375 
Q 45.40625 37.75 41.375 43.109375 
Q 37.359375 48.484375 30.078125 48.484375 
Q 22.859375 48.484375 18.828125 43.109375 
Q 14.796875 37.75 14.796875 27.984375 
Q 14.796875 18.265625 18.828125 12.890625 
Q 22.859375 7.515625 30.078125 7.515625 
Q 37.359375 7.515625 41.375 12.890625 
Q 45.40625 18.265625 45.40625 27.984375 
z
M 54.390625 6.78125 
Q 54.390625 -7.171875 48.1875 -13.984375 
Q 42 -20.796875 29.203125 -20.796875 
Q 24.46875 -20.796875 20.265625 -20.09375 
Q 16.0625 -19.390625 12.109375 -17.921875 
L 12.109375 -9.1875 
Q 16.0625 -11.328125 19.921875 -12.34375 
Q 23.78125 -13.375 27.78125 -13.375 
Q 36.625 -13.375 41.015625 -8.765625 
Q 45.40625 -4.15625 45.40625 5.171875 
L 45.40625 9.625 
Q 42.625 4.78125 38.28125 2.390625 
Q 33.9375 0 27.875 0 
Q 17.828125 0 11.671875 7.65625 
Q 5.515625 15.328125 5.515625 27.984375 
Q 5.515625 40.671875 11.671875 48.328125 
Q 17.828125 56 27.875 56 
Q 33.9375 56 38.28125 53.609375 
Q 42.625 51.21875 45.40625 46.390625 
L 45.40625 54.6875 
L 54.390625 54.6875 
z
" id="DejaVuSans-103"/>
     </defs>
     <g transform="translate(245.34311 101.10812)rotate(-90)scale(0.08 -0.08)">
      <use xlink:href="#DejaVuSans-82"/>
      <use x="64.982422" xlink:href="#DejaVuSans-101"/>
      <use x="126.505859" xlink:href="#DejaVuSans-108"/>
      <use x="154.289062" xlink:href="#DejaVuSans-97"/>
      <use x="215.568359" xlink:href="#DejaVuSans-116"/>
      <use x="254.777344" xlink:href="#DejaVuSans-105"/>
      <use x="282.560547" xlink:href="#DejaVuSans-118"/>
      <use x="341.740234" xlink:href="#DejaVuSans-101"/>
      <use x="403.263672" xlink:href="#DejaVuSans-32"/>
      <use x="435.050781" xlink:href="#DejaVuSans-99"/>
      <use x="490.03125" xlink:href="#DejaVuSans-104"/>
      <use x="553.410156" xlink:href="#DejaVuSans-97"/>
      <use x="614.689453" xlink:href="#DejaVuSans-110"/>
      <use x="678.068359" xlink:href="#DejaVuSans-103"/>
      <use x="741.544922" xlink:href="#DejaVuSans-101"/>
     </g>
    </g>
   </g>
   <g id="line2d_29">
    <path clip-path="url(#pf9df8c30bc)" d="M 50.612673 41.894024 
L 53.066161 41.894024 
L 55.519649 45.998622 
L 57.973137 44.356783 
L 60.426625 47.640461 
L 62.880113 50.10322 
L 65.333601 38.610346 
L 67.787089 36.147587 
L 70.240576 45.177702 
L 72.694064 45.998622 
L 75.147552 45.177702 
L 77.60104 47.640461 
L 80.054528 44.356783 
L 82.508016 47.640461 
L 84.961504 42.714944 
L 87.414992 43.535863 
L 89.86848 47.640461 
L 92.321968 45.177702 
L 94.775456 40.252185 
L 97.228944 45.177702 
L 99.682432 45.177702 
L 102.13592 47.640461 
L 104.589408 47.640461 
L 107.042896 50.10322 
L 109.496384 50.924139 
L 111.949871 101.821153 
L 114.403359 98.537475 
L 116.856847 70.626209 
L 119.310335 73.909888 
L 121.763823 94.432877 
L 124.217311 105.925751 
L 126.670799 109.209429 
L 129.124287 113.314027 
L 131.577775 109.209429 
L 134.031263 105.104831 
L 136.484751 105.104831 
L 138.938239 106.74667 
L 141.391727 107.56759 
L 143.845215 108.38851 
L 146.298703 112.493107 
L 148.752191 113.314027 
" style="fill:none;stroke:#d62728;stroke-linecap:square;stroke-opacity:0.5;"/>
   </g>
   <g id="line2d_30">
    <path clip-path="url(#pf9df8c30bc)" d="M 50.612673 41.894024 
L 53.066161 43.535863 
L 55.519649 45.177702 
L 57.973137 41.894024 
L 60.426625 44.356783 
L 62.880113 50.10322 
L 65.333601 44.356783 
L 67.787089 42.714944 
L 70.240576 48.461381 
L 72.694064 45.998622 
L 75.147552 41.894024 
L 77.60104 42.714944 
L 80.054528 39.431265 
L 82.508016 38.610346 
L 84.961504 39.431265 
L 87.414992 41.073105 
L 89.86848 43.535863 
L 92.321968 40.252185 
L 94.775456 41.894024 
L 97.228944 43.535863 
L 99.682432 41.073105 
L 102.13592 41.073105 
L 104.589408 41.073105 
L 107.042896 25.475633 
L 109.496384 11.52 
L 111.949871 50.924139 
L 114.403359 59.133335 
L 116.856847 31.22207 
L 119.310335 19.729196 
L 121.763823 54.207818 
L 124.217311 63.237933 
L 126.670799 62.417013 
L 129.124287 76.372646 
L 131.577775 81.298164 
L 134.031263 64.879772 
L 136.484751 61.596094 
L 138.938239 68.163451 
L 141.391727 64.879772 
L 143.845215 61.596094 
L 146.298703 73.909888 
L 148.752191 87.86552 
" style="fill:none;stroke:#9467bd;stroke-linecap:square;stroke-opacity:0.5;"/>
   </g>
   <g id="line2d_31">
    <path clip-path="url(#pf9df8c30bc)" d="M 50.612673 39.431265 
L 53.066161 40.252185 
L 55.519649 41.894024 
L 57.973137 38.610346 
L 60.426625 42.714944 
L 62.880113 45.998622 
L 65.333601 53.386898 
L 67.787089 50.924139 
L 70.240576 53.386898 
L 72.694064 56.670576 
L 75.147552 52.565979 
L 77.60104 45.998622 
L 80.054528 40.252185 
L 82.508016 44.356783 
L 84.961504 43.535863 
L 87.414992 43.535863 
L 89.86848 45.998622 
L 92.321968 41.894024 
L 94.775456 37.789426 
L 97.228944 45.998622 
L 99.682432 45.177702 
L 102.13592 47.640461 
L 104.589408 47.640461 
L 107.042896 50.10322 
L 109.496384 57.491496 
L 111.949871 72.268048 
L 114.403359 72.268048 
L 116.856847 79.656325 
L 119.310335 82.119083 
L 121.763823 90.328279 
L 124.217311 99.358394 
L 126.670799 102.642073 
L 129.124287 99.358394 
L 131.577775 96.074716 
L 134.031263 101.821153 
L 136.484751 101.000233 
L 138.938239 101.000233 
L 141.391727 103.462992 
L 143.845215 101.821153 
L 146.298703 99.358394 
L 148.752191 106.74667 
" style="fill:none;stroke:#e377c2;stroke-linecap:square;stroke-opacity:0.5;"/>
   </g>
   <g id="line2d_32">
    <path clip-path="url(#pf9df8c30bc)" d="M 50.612673 41.073105 
L 53.066161 41.073105 
L 55.519649 41.894024 
L 57.973137 42.714944 
L 60.426625 45.998622 
L 62.880113 47.640461 
L 65.333601 64.058853 
L 67.787089 63.237933 
L 70.240576 61.596094 
L 72.694064 63.237933 
L 75.147552 63.237933 
L 77.60104 48.461381 
L 80.054528 45.177702 
L 82.508016 41.894024 
L 84.961504 41.073105 
L 87.414992 41.073105 
L 89.86848 42.714944 
L 92.321968 42.714944 
L 94.775456 42.714944 
L 97.228944 45.177702 
L 99.682432 42.714944 
L 102.13592 43.535863 
L 104.589408 43.535863 
L 107.042896 45.177702 
L 109.496384 50.10322 
L 111.949871 66.521611 
L 114.403359 68.163451 
L 116.856847 73.909888 
L 119.310335 81.298164 
L 121.763823 87.044601 
L 124.217311 94.432877 
L 126.670799 95.253796 
L 129.124287 86.223681 
L 131.577775 83.760922 
L 134.031263 97.716555 
L 136.484751 98.537475 
L 138.938239 97.716555 
L 141.391727 98.537475 
L 143.845215 97.716555 
L 146.298703 86.223681 
L 148.752191 87.044601 
" style="fill:none;stroke:#bcbd22;stroke-linecap:square;stroke-opacity:0.5;"/>
   </g>
   <g id="line2d_33">
    <path clip-path="url(#pf9df8c30bc)" d="M 50.612673 44.356783 
L 53.066161 44.356783 
L 55.519649 44.356783 
L 57.973137 44.356783 
L 60.426625 44.356783 
L 62.880113 44.356783 
L 65.333601 41.073105 
L 67.787089 41.073105 
L 70.240576 41.894024 
L 72.694064 39.431265 
L 75.147552 40.252185 
L 77.60104 43.535863 
L 80.054528 44.356783 
L 82.508016 44.356783 
L 84.961504 44.356783 
L 87.414992 44.356783 
L 89.86848 42.714944 
L 92.321968 43.535863 
L 94.775456 44.356783 
L 97.228944 44.356783 
L 99.682432 44.356783 
L 102.13592 42.714944 
L 104.589408 42.714944 
L 107.042896 41.894024 
L 109.496384 40.252185 
L 111.949871 34.505748 
L 114.403359 37.789426 
L 116.856847 32.863909 
L 119.310335 31.22207 
L 121.763823 27.938391 
L 124.217311 22.191954 
L 126.670799 18.908276 
L 129.124287 26.296552 
L 131.577775 32.042989 
L 134.031263 23.012874 
L 136.484751 22.191954 
L 138.938239 23.012874 
L 141.391727 20.550115 
L 143.845215 18.908276 
L 146.298703 26.296552 
L 148.752191 30.40115 
" style="fill:none;stroke:#17becf;stroke-linecap:square;stroke-opacity:0.5;"/>
   </g>
   <g id="patch_69">
    <path d="M 42.05 126.44874 
L 42.05 11.52 
" style="fill:none;stroke:#000000;stroke-linecap:square;stroke-linejoin:miter;stroke-width:0.8;"/>
   </g>
   <g id="patch_70">
    <path d="M 208.83811 126.44874 
L 208.83811 11.52 
" style="fill:none;stroke:#000000;stroke-linecap:square;stroke-linejoin:miter;stroke-width:0.8;"/>
   </g>
   <g id="patch_71">
    <path d="M 42.05 126.44874 
L 208.83811 126.44874 
" style="fill:none;stroke:#000000;stroke-linecap:square;stroke-linejoin:miter;stroke-width:0.8;"/>
   </g>
   <g id="patch_72">
    <path d="M 42.05 11.52 
L 208.83811 11.52 
" style="fill:none;stroke:#000000;stroke-linecap:square;stroke-linejoin:miter;stroke-width:0.8;"/>
   </g>
  </g>
 </g>
 <defs>
  <clipPath id="pf9df8c30bc">
   <rect height="114.92874" width="166.78811" x="42.05" y="11.52"/>
  </clipPath>
 </defs>
</svg>
