<?xml version="1.0" encoding="utf-8" standalone="no"?>
<!DOCTYPE svg PUBLIC "-//W3C//DTD SVG 1.1//EN"
  "http://www.w3.org/Graphics/SVG/1.1/DTD/svg11.dtd">
<!-- Created with matplotlib (https://matplotlib.org/) -->
<svg height="170.07874pt" version="1.1" viewBox="0 0 255.11811 170.07874" width="255.11811pt" xmlns="http://www.w3.org/2000/svg" xmlns:xlink="http://www.w3.org/1999/xlink">
 <defs>
  <style type="text/css">
*{stroke-linecap:butt;stroke-linejoin:round;}
  </style>
 </defs>
 <g id="figure_1">
  <g id="patch_1">
   <path d="M 0 170.07874 
L 255.11811 170.07874 
L 255.11811 0 
L 0 0 
z
" style="fill:#ffffff;"/>
  </g>
  <g id="axes_1">
   <g id="patch_2">
    <path d="M 52.13 126.44874 
L 208.83811 126.44874 
L 208.83811 11.52 
L 52.13 11.52 
z
" style="fill:#ffffff;"/>
   </g>
   <g id="PolyCollection_1">
    <defs>
     <path d="M 60.222225 -43.797049 
L 60.222225 -43.650439 
L 62.645046 -43.650439 
L 65.067868 -43.650439 
L 67.49069 -43.650439 
L 69.913512 -43.650439 
L 72.336333 -43.650439 
L 74.759155 -43.675541 
L 77.181977 -43.686679 
L 79.604799 -43.69274 
L 82.02762 -43.704521 
L 84.450442 -43.727997 
L 86.873264 -43.750919 
L 89.296086 -43.778626 
L 91.718907 -43.824128 
L 94.141729 -43.8677 
L 96.564551 -43.93528 
L 98.987372 -43.932416 
L 101.410194 -44.032948 
L 103.833016 -44.119831 
L 106.255838 -44.402856 
L 108.678659 -44.90539 
L 111.101481 -44.299196 
L 113.524303 -44.481067 
L 115.947125 -44.175357 
L 118.369946 -44.475908 
L 120.792768 -44.901945 
L 123.21559 -44.290846 
L 125.638412 -44.350685 
L 128.061233 -44.2925 
L 130.484055 -44.393657 
L 132.906877 -44.263393 
L 135.329699 -44.32706 
L 137.75252 -44.368795 
L 140.175342 -44.346331 
L 142.598164 -44.350436 
L 145.020986 -44.302322 
L 147.443807 -44.496125 
L 149.866629 -44.232585 
L 149.866629 -53.051723 
L 149.866629 -53.051723 
L 147.443807 -53.523589 
L 145.020986 -51.254561 
L 142.598164 -50.550397 
L 140.175342 -49.631997 
L 137.75252 -49.024945 
L 135.329699 -48.261569 
L 132.906877 -47.492463 
L 130.484055 -47.42575 
L 128.061233 -46.783642 
L 125.638412 -46.576576 
L 123.21559 -46.12266 
L 120.792768 -47.262541 
L 118.369946 -46.037091 
L 115.947125 -45.260094 
L 113.524303 -45.713969 
L 111.101481 -45.20019 
L 108.678659 -47.438257 
L 106.255838 -45.404249 
L 103.833016 -44.747178 
L 101.410194 -44.559586 
L 98.987372 -44.354813 
L 96.564551 -44.391843 
L 94.141729 -44.25466 
L 91.718907 -44.179015 
L 89.296086 -44.083396 
L 86.873264 -44.026276 
L 84.450442 -43.981434 
L 82.02762 -43.917533 
L 79.604799 -43.902642 
L 77.181977 -43.907538 
L 74.759155 -43.857632 
L 72.336333 -43.797049 
L 69.913512 -43.797049 
L 67.49069 -43.797049 
L 65.067868 -43.797049 
L 62.645046 -43.797049 
L 60.222225 -43.797049 
z
" id="meb899aa8f2" style="stroke:#6495ed;stroke-opacity:0.4;"/>
    </defs>
    <g clip-path="url(#p2b459cc0b4)">
     <use style="fill:#6495ed;fill-opacity:0.4;stroke:#6495ed;stroke-opacity:0.4;" x="0" xlink:href="#meb899aa8f2" y="170.07874"/>
    </g>
   </g>
   <g id="PolyCollection_2">
    <defs>
     <path d="M 60.222225 -43.723646 
L 60.222225 -43.676765 
L 62.645046 -43.676765 
L 65.067868 -43.676765 
L 67.49069 -43.676765 
L 69.913512 -43.676765 
L 72.336333 -43.676765 
L 74.759155 -43.716199 
L 77.181977 -43.735792 
L 79.604799 -43.738534 
L 82.02762 -43.751803 
L 84.450442 -43.785781 
L 86.873264 -43.814877 
L 89.296086 -43.849576 
L 91.718907 -43.910261 
L 94.141729 -43.960999 
L 96.564551 -44.043522 
L 98.987372 -44.029636 
L 101.410194 -44.155158 
L 103.833016 -44.265355 
L 106.255838 -44.642148 
L 108.678659 -45.523963 
L 111.101481 -44.518792 
L 113.524303 -44.768441 
L 115.947125 -44.401792 
L 118.369946 -44.847732 
L 120.792768 -45.486663 
L 123.21559 -44.680179 
L 125.638412 -44.815095 
L 128.061233 -44.771551 
L 130.484055 -44.926129 
L 132.906877 -44.772086 
L 135.329699 -44.956405 
L 137.75252 -45.073021 
L 140.175342 -45.093614 
L 142.598164 -45.17153 
L 145.020986 -45.135699 
L 147.443807 -45.533009 
L 149.866629 -45.079635 
L 149.866629 -47.354692 
L 149.866629 -47.354692 
L 147.443807 -47.995779 
L 145.020986 -47.069837 
L 142.598164 -46.936867 
L 140.175342 -46.63704 
L 137.75252 -46.484064 
L 135.329699 -46.170199 
L 132.906877 -45.763654 
L 130.484055 -45.878404 
L 128.061233 -45.569631 
L 125.638412 -45.5404 
L 123.21559 -45.285059 
L 120.792768 -46.282554 
L 118.369946 -45.358032 
L 115.947125 -44.770952 
L 113.524303 -45.166969 
L 111.101481 -44.814026 
L 108.678659 -46.417175 
L 106.255838 -44.975798 
L 103.833016 -44.468555 
L 101.410194 -44.328867 
L 98.987372 -44.168061 
L 96.564551 -44.1968 
L 94.141729 -44.089568 
L 91.718907 -44.028179 
L 89.296086 -43.951357 
L 86.873264 -43.906719 
L 84.450442 -43.869705 
L 82.02762 -43.822106 
L 79.604799 -43.807688 
L 77.181977 -43.809422 
L 74.759155 -43.777567 
L 72.336333 -43.723646 
L 69.913512 -43.723646 
L 67.49069 -43.723646 
L 65.067868 -43.723646 
L 62.645046 -43.723646 
L 60.222225 -43.723646 
z
" id="m32f27ba53b" style="stroke:#6495ed;stroke-opacity:0.6;"/>
    </defs>
    <g clip-path="url(#p2b459cc0b4)">
     <use style="fill:#6495ed;fill-opacity:0.6;stroke:#6495ed;stroke-opacity:0.6;" x="0" xlink:href="#m32f27ba53b" y="170.07874"/>
    </g>
   </g>
   <g id="PolyCollection_3">
    <defs>
     <path d="M 149.866629 -53.051723 
L 149.866629 -44.232585 
L 152.289451 -44.224928 
L 154.712273 -44.215956 
L 157.135094 -44.201922 
L 159.557916 -44.187904 
L 161.980738 -44.173611 
L 164.403559 -44.154211 
L 166.826381 -44.137474 
L 169.249203 -44.123263 
L 171.672025 -44.107689 
L 174.094846 -44.090106 
L 176.517668 -44.074738 
L 178.94049 -44.0576 
L 181.363312 -44.042311 
L 183.786133 -44.029849 
L 186.208955 -44.018832 
L 188.631777 -44.009019 
L 191.054599 -43.994883 
L 193.47742 -43.980722 
L 195.900242 -43.966538 
L 198.323064 -43.954809 
L 200.745886 -43.944696 
L 200.745886 -158.55874 
L 200.745886 -158.55874 
L 198.323064 -145.344101 
L 195.900242 -133.227363 
L 193.47742 -123.13348 
L 191.054599 -114.033605 
L 188.631777 -106.441978 
L 186.208955 -99.299951 
L 183.786133 -92.858636 
L 181.363312 -87.36042 
L 178.94049 -82.489822 
L 176.517668 -78.254976 
L 174.094846 -74.68304 
L 171.672025 -71.154554 
L 169.249203 -68.258369 
L 166.826381 -65.535932 
L 164.403559 -63.169068 
L 161.980738 -61.075155 
L 159.557916 -59.176955 
L 157.135094 -57.470861 
L 154.712273 -55.949488 
L 152.289451 -54.453616 
L 149.866629 -53.051723 
z
" id="ma2e7365870" style="stroke:#228b22;stroke-opacity:0.4;"/>
    </defs>
    <g clip-path="url(#p2b459cc0b4)">
     <use style="fill:#228b22;fill-opacity:0.4;stroke:#228b22;stroke-opacity:0.4;" x="0" xlink:href="#ma2e7365870" y="170.07874"/>
    </g>
   </g>
   <g id="PolyCollection_4">
    <defs>
     <path d="M 149.866629 -47.354692 
L 149.866629 -45.079635 
L 152.289451 -45.128321 
L 154.712273 -45.161069 
L 157.135094 -45.186904 
L 159.557916 -45.212676 
L 161.980738 -45.229303 
L 164.403559 -45.240432 
L 166.826381 -45.251074 
L 169.249203 -45.264472 
L 171.672025 -45.277365 
L 174.094846 -45.296922 
L 176.517668 -45.309262 
L 178.94049 -45.324474 
L 181.363312 -45.33957 
L 183.786133 -45.352355 
L 186.208955 -45.367376 
L 188.631777 -45.383694 
L 191.054599 -45.398377 
L 193.47742 -45.412819 
L 195.900242 -45.422025 
L 198.323064 -45.4366 
L 200.745886 -45.45344 
L 200.745886 -57.714571 
L 200.745886 -57.714571 
L 198.323064 -56.889335 
L 195.900242 -56.062078 
L 193.47742 -55.32998 
L 191.054599 -54.624554 
L 188.631777 -53.964277 
L 186.208955 -53.38348 
L 183.786133 -52.793978 
L 181.363312 -52.252951 
L 178.94049 -51.777244 
L 176.517668 -51.27172 
L 174.094846 -50.839732 
L 171.672025 -50.415739 
L 169.249203 -50.008328 
L 166.826381 -49.611999 
L 164.403559 -49.269098 
L 161.980738 -48.921233 
L 159.557916 -48.601702 
L 157.135094 -48.302534 
L 154.712273 -47.997009 
L 152.289451 -47.67359 
L 149.866629 -47.354692 
z
" id="m159b334687" style="stroke:#228b22;stroke-opacity:0.6;"/>
    </defs>
    <g clip-path="url(#p2b459cc0b4)">
     <use style="fill:#228b22;fill-opacity:0.6;stroke:#228b22;stroke-opacity:0.6;" x="0" xlink:href="#m159b334687" y="170.07874"/>
    </g>
   </g>
   <g id="PathCollection_1">
    <defs>
     <path d="M -0.866025 1.732051 
L 0 0.866025 
L 0.866025 1.732051 
L 1.732051 0.866025 
L 0.866025 0 
L 1.732051 -0.866025 
L 0.866025 -1.732051 
L 0 -0.866025 
L -0.866025 -1.732051 
L -1.732051 -0.866025 
L -0.866025 0 
L -1.732051 0.866025 
z
" id="m767f4aef98" style="stroke:#8a2be2;"/>
    </defs>
    <g clip-path="url(#p2b459cc0b4)">
     <use style="fill:#8a2be2;stroke:#8a2be2;" x="108.678659" xlink:href="#m767f4aef98" y="23.012874"/>
    </g>
   </g>
   <g id="PathCollection_2">
    <defs>
     <path d="M 0 -1.732051 
L -0.38887 -0.535233 
L -1.647278 -0.535233 
L -0.629204 0.204441 
L -1.018074 1.401259 
L -0 0.661585 
L 1.018074 1.401259 
L 0.629204 0.204441 
L 1.647278 -0.535233 
L 0.38887 -0.535233 
z
" id="md39db6a6c9" style="stroke:#000000;"/>
    </defs>
    <g clip-path="url(#p2b459cc0b4)">
     <use style="stroke:#000000;" x="111.101481" xlink:href="#md39db6a6c9" y="23.012874"/>
    </g>
   </g>
   <g id="PathCollection_3">
    <defs>
     <path d="M -1.732051 1.732051 
L 1.732051 1.732051 
L 1.732051 -1.732051 
L -1.732051 -1.732051 
z
" id="m4214812e4c" style="stroke:#c71585;"/>
    </defs>
    <g clip-path="url(#p2b459cc0b4)">
     <use style="fill:#c71585;stroke:#c71585;" x="123.21559" xlink:href="#m4214812e4c" y="23.012874"/>
    </g>
   </g>
   <g id="PathCollection_4">
    <defs>
     <path d="M 0 -1.732051 
L -1.647278 -0.535233 
L -1.018074 1.401259 
L 1.018074 1.401259 
L 1.647278 -0.535233 
z
" id="m0e919f2b0a" style="stroke:#800000;"/>
    </defs>
    <g clip-path="url(#p2b459cc0b4)">
     <use style="fill:#800000;stroke:#800000;" x="111.101481" xlink:href="#m0e919f2b0a" y="28.184667"/>
    </g>
   </g>
   <g id="PathCollection_5">
    <defs>
     <path d="M -0 2.44949 
L 1.469694 0 
L 0 -2.44949 
L -1.469694 -0 
z
" id="m0e9806df5e" style="stroke:#556b2f;"/>
    </defs>
    <g clip-path="url(#p2b459cc0b4)">
     <use style="fill:#556b2f;stroke:#556b2f;" x="108.678659" xlink:href="#m0e9806df5e" y="28.184667"/>
    </g>
   </g>
   <g id="patch_3">
    <path clip-path="url(#p2b459cc0b4)" d="M 59.253096 126.44874 
L 61.191353 126.44874 
L 61.191353 126.44874 
L 59.253096 126.44874 
z
" style="fill:#1f77b4;opacity:0.5;"/>
   </g>
   <g id="patch_4">
    <path clip-path="url(#p2b459cc0b4)" d="M 61.675918 126.44874 
L 63.614175 126.44874 
L 63.614175 126.44874 
L 61.675918 126.44874 
z
" style="fill:#1f77b4;opacity:0.5;"/>
   </g>
   <g id="patch_5">
    <path clip-path="url(#p2b459cc0b4)" d="M 64.098739 126.44874 
L 66.036997 126.44874 
L 66.036997 126.44874 
L 64.098739 126.44874 
z
" style="fill:#1f77b4;opacity:0.5;"/>
   </g>
   <g id="patch_6">
    <path clip-path="url(#p2b459cc0b4)" d="M 66.521561 126.44874 
L 68.459819 126.44874 
L 68.459819 126.44874 
L 66.521561 126.44874 
z
" style="fill:#1f77b4;opacity:0.5;"/>
   </g>
   <g id="patch_7">
    <path clip-path="url(#p2b459cc0b4)" d="M 68.944383 126.44874 
L 70.88264 126.44874 
L 70.88264 126.44874 
L 68.944383 126.44874 
z
" style="fill:#1f77b4;opacity:0.5;"/>
   </g>
   <g id="patch_8">
    <path clip-path="url(#p2b459cc0b4)" d="M 71.367205 126.44874 
L 73.305462 126.44874 
L 73.305462 126.44874 
L 71.367205 126.44874 
z
" style="fill:#1f77b4;opacity:0.5;"/>
   </g>
   <g id="patch_9">
    <path clip-path="url(#p2b459cc0b4)" d="M 73.790026 126.44874 
L 75.728284 126.44874 
L 75.728284 126.447412 
L 73.790026 126.447412 
z
" style="fill:#1f77b4;opacity:0.5;"/>
   </g>
   <g id="patch_10">
    <path clip-path="url(#p2b459cc0b4)" d="M 76.212848 126.44874 
L 78.151106 126.44874 
L 78.151106 126.44874 
L 76.212848 126.44874 
z
" style="fill:#1f77b4;opacity:0.5;"/>
   </g>
   <g id="patch_11">
    <path clip-path="url(#p2b459cc0b4)" d="M 78.63567 126.44874 
L 80.573927 126.44874 
L 80.573927 126.447412 
L 78.63567 126.447412 
z
" style="fill:#1f77b4;opacity:0.5;"/>
   </g>
   <g id="patch_12">
    <path clip-path="url(#p2b459cc0b4)" d="M 81.058492 126.44874 
L 82.996749 126.44874 
L 82.996749 126.447412 
L 81.058492 126.447412 
z
" style="fill:#1f77b4;opacity:0.5;"/>
   </g>
   <g id="patch_13">
    <path clip-path="url(#p2b459cc0b4)" d="M 83.481313 126.44874 
L 85.419571 126.44874 
L 85.419571 126.447412 
L 83.481313 126.447412 
z
" style="fill:#1f77b4;opacity:0.5;"/>
   </g>
   <g id="patch_14">
    <path clip-path="url(#p2b459cc0b4)" d="M 85.904135 126.44874 
L 87.842392 126.44874 
L 87.842392 126.447412 
L 85.904135 126.447412 
z
" style="fill:#1f77b4;opacity:0.5;"/>
   </g>
   <g id="patch_15">
    <path clip-path="url(#p2b459cc0b4)" d="M 88.326957 126.44874 
L 90.265214 126.44874 
L 90.265214 126.444755 
L 88.326957 126.444755 
z
" style="fill:#1f77b4;opacity:0.5;"/>
   </g>
   <g id="patch_16">
    <path clip-path="url(#p2b459cc0b4)" d="M 90.749779 126.44874 
L 92.688036 126.44874 
L 92.688036 126.446083 
L 90.749779 126.446083 
z
" style="fill:#1f77b4;opacity:0.5;"/>
   </g>
   <g id="patch_17">
    <path clip-path="url(#p2b459cc0b4)" d="M 93.1726 126.44874 
L 95.110858 126.44874 
L 95.110858 126.435456 
L 93.1726 126.435456 
z
" style="fill:#1f77b4;opacity:0.5;"/>
   </g>
   <g id="patch_18">
    <path clip-path="url(#p2b459cc0b4)" d="M 95.595422 126.44874 
L 97.533679 126.44874 
L 97.533679 126.444755 
L 95.595422 126.444755 
z
" style="fill:#1f77b4;opacity:0.5;"/>
   </g>
   <g id="patch_19">
    <path clip-path="url(#p2b459cc0b4)" d="M 98.018244 126.44874 
L 99.956501 126.44874 
L 99.956501 126.438113 
L 98.018244 126.438113 
z
" style="fill:#1f77b4;opacity:0.5;"/>
   </g>
   <g id="patch_20">
    <path clip-path="url(#p2b459cc0b4)" d="M 100.441066 126.44874 
L 102.379323 126.44874 
L 102.379323 126.439441 
L 100.441066 126.439441 
z
" style="fill:#1f77b4;opacity:0.5;"/>
   </g>
   <g id="patch_21">
    <path clip-path="url(#p2b459cc0b4)" d="M 102.863887 126.44874 
L 104.802145 126.44874 
L 104.802145 126.34911 
L 102.863887 126.34911 
z
" style="fill:#1f77b4;opacity:0.5;"/>
   </g>
   <g id="patch_22">
    <path clip-path="url(#p2b459cc0b4)" d="M 105.286709 126.44874 
L 107.224966 126.44874 
L 107.224966 126.248152 
L 105.286709 126.248152 
z
" style="fill:#1f77b4;opacity:0.5;"/>
   </g>
   <g id="patch_23">
    <path clip-path="url(#p2b459cc0b4)" d="M 107.709531 126.44874 
L 109.647788 126.44874 
L 109.647788 126.113984 
L 107.709531 126.113984 
z
" style="fill:#1f77b4;opacity:0.5;"/>
   </g>
   <g id="patch_24">
    <path clip-path="url(#p2b459cc0b4)" d="M 110.132352 126.44874 
L 112.07061 126.44874 
L 112.07061 126.236197 
L 110.132352 126.236197 
z
" style="fill:#1f77b4;opacity:0.5;"/>
   </g>
   <g id="patch_25">
    <path clip-path="url(#p2b459cc0b4)" d="M 112.555174 126.44874 
L 114.493432 126.44874 
L 114.493432 126.278705 
L 112.555174 126.278705 
z
" style="fill:#1f77b4;opacity:0.5;"/>
   </g>
   <g id="patch_26">
    <path clip-path="url(#p2b459cc0b4)" d="M 114.977996 126.44874 
L 116.916253 126.44874 
L 116.916253 126.418187 
L 114.977996 126.418187 
z
" style="fill:#1f77b4;opacity:0.5;"/>
   </g>
   <g id="patch_27">
    <path clip-path="url(#p2b459cc0b4)" d="M 117.400818 126.44874 
L 119.339075 126.44874 
L 119.339075 126.384977 
L 117.400818 126.384977 
z
" style="fill:#1f77b4;opacity:0.5;"/>
   </g>
   <g id="patch_28">
    <path clip-path="url(#p2b459cc0b4)" d="M 119.823639 126.44874 
L 121.761897 126.44874 
L 121.761897 126.373021 
L 119.823639 126.373021 
z
" style="fill:#1f77b4;opacity:0.5;"/>
   </g>
   <g id="patch_29">
    <path clip-path="url(#p2b459cc0b4)" d="M 122.246461 126.44874 
L 124.184719 126.44874 
L 124.184719 126.326528 
L 122.246461 126.326528 
z
" style="fill:#1f77b4;opacity:0.5;"/>
   </g>
   <g id="patch_30">
    <path clip-path="url(#p2b459cc0b4)" d="M 124.669283 126.44874 
L 126.60754 126.44874 
L 126.60754 126.327856 
L 124.669283 126.327856 
z
" style="fill:#1f77b4;opacity:0.5;"/>
   </g>
   <g id="patch_31">
    <path clip-path="url(#p2b459cc0b4)" d="M 127.092105 126.44874 
L 129.030362 126.44874 
L 129.030362 126.400918 
L 127.092105 126.400918 
z
" style="fill:#1f77b4;opacity:0.5;"/>
   </g>
   <g id="patch_32">
    <path clip-path="url(#p2b459cc0b4)" d="M 129.514926 126.44874 
L 131.453184 126.44874 
L 131.453184 126.310587 
L 129.514926 126.310587 
z
" style="fill:#1f77b4;opacity:0.5;"/>
   </g>
   <g id="patch_33">
    <path clip-path="url(#p2b459cc0b4)" d="M 131.937748 126.44874 
L 133.876006 126.44874 
L 133.876006 126.354424 
L 131.937748 126.354424 
z
" style="fill:#1f77b4;opacity:0.5;"/>
   </g>
   <g id="patch_34">
    <path clip-path="url(#p2b459cc0b4)" d="M 134.36057 126.44874 
L 136.298827 126.44874 
L 136.298827 126.357081 
L 134.36057 126.357081 
z
" style="fill:#1f77b4;opacity:0.5;"/>
   </g>
   <g id="patch_35">
    <path clip-path="url(#p2b459cc0b4)" d="M 136.783392 126.44874 
L 138.721649 126.44874 
L 138.721649 126.362394 
L 136.783392 126.362394 
z
" style="fill:#1f77b4;opacity:0.5;"/>
   </g>
   <g id="patch_36">
    <path clip-path="url(#p2b459cc0b4)" d="M 139.206213 126.44874 
L 141.144471 126.44874 
L 141.144471 126.27472 
L 139.206213 126.27472 
z
" style="fill:#1f77b4;opacity:0.5;"/>
   </g>
   <g id="patch_37">
    <path clip-path="url(#p2b459cc0b4)" d="M 141.629035 126.44874 
L 143.567293 126.44874 
L 143.567293 126.272063 
L 141.629035 126.272063 
z
" style="fill:#1f77b4;opacity:0.5;"/>
   </g>
   <g id="patch_38">
    <path clip-path="url(#p2b459cc0b4)" d="M 144.051857 126.44874 
L 145.990114 126.44874 
L 145.990114 126.245495 
L 144.051857 126.245495 
z
" style="fill:#1f77b4;opacity:0.5;"/>
   </g>
   <g id="patch_39">
    <path clip-path="url(#p2b459cc0b4)" d="M 146.474679 126.44874 
L 148.412936 126.44874 
L 148.412936 126.224241 
L 146.474679 126.224241 
z
" style="fill:#1f77b4;opacity:0.5;"/>
   </g>
   <g id="patch_40">
    <path clip-path="url(#p2b459cc0b4)" d="M 148.8975 126.44874 
L 150.835758 126.44874 
L 150.835758 126.242839 
L 148.8975 126.242839 
z
" style="fill:#1f77b4;opacity:0.5;"/>
   </g>
   <g id="patch_41">
    <path clip-path="url(#p2b459cc0b4)" d="M 151.320322 126.44874 
L 153.258579 126.44874 
L 153.258579 126.191031 
L 151.320322 126.191031 
z
" style="fill:#1f77b4;opacity:0.5;"/>
   </g>
   <g id="patch_42">
    <path clip-path="url(#p2b459cc0b4)" d="M 153.743144 126.44874 
L 155.681401 126.44874 
L 155.681401 126.206972 
L 153.743144 126.206972 
z
" style="fill:#1f77b4;opacity:0.5;"/>
   </g>
   <g id="patch_43">
    <path clip-path="url(#p2b459cc0b4)" d="M 156.165966 126.44874 
L 158.104223 126.44874 
L 158.104223 126.072804 
L 156.165966 126.072804 
z
" style="fill:#1f77b4;opacity:0.5;"/>
   </g>
   <g id="patch_44">
    <path clip-path="url(#p2b459cc0b4)" d="M 158.588787 126.44874 
L 160.527045 126.44874 
L 160.527045 126.120626 
L 158.588787 126.120626 
z
" style="fill:#1f77b4;opacity:0.5;"/>
   </g>
   <g id="patch_45">
    <path clip-path="url(#p2b459cc0b4)" d="M 161.011609 126.44874 
L 162.949866 126.44874 
L 162.949866 126.078117 
L 161.011609 126.078117 
z
" style="fill:#1f77b4;opacity:0.5;"/>
   </g>
   <g id="patch_46">
    <path clip-path="url(#p2b459cc0b4)" d="M 163.434431 126.44874 
L 165.372688 126.44874 
L 165.372688 125.955905 
L 163.434431 125.955905 
z
" style="fill:#1f77b4;opacity:0.5;"/>
   </g>
   <g id="patch_47">
    <path clip-path="url(#p2b459cc0b4)" d="M 165.857253 126.44874 
L 167.79551 126.44874 
L 167.79551 126.023653 
L 165.857253 126.023653 
z
" style="fill:#1f77b4;opacity:0.5;"/>
   </g>
   <g id="patch_48">
    <path clip-path="url(#p2b459cc0b4)" d="M 168.280074 126.44874 
L 170.218332 126.44874 
L 170.218332 126.060848 
L 168.280074 126.060848 
z
" style="fill:#1f77b4;opacity:0.5;"/>
   </g>
   <g id="patch_49">
    <path clip-path="url(#p2b459cc0b4)" d="M 170.702896 126.44874 
L 172.641153 126.44874 
L 172.641153 126.03428 
L 170.702896 126.03428 
z
" style="fill:#1f77b4;opacity:0.5;"/>
   </g>
   <g id="patch_50">
    <path clip-path="url(#p2b459cc0b4)" d="M 173.125718 126.44874 
L 175.063975 126.44874 
L 175.063975 125.930665 
L 173.125718 125.930665 
z
" style="fill:#1f77b4;opacity:0.5;"/>
   </g>
   <g id="patch_51">
    <path clip-path="url(#p2b459cc0b4)" d="M 175.54854 126.44874 
L 177.486797 126.44874 
L 177.486797 126.009041 
L 175.54854 126.009041 
z
" style="fill:#1f77b4;opacity:0.5;"/>
   </g>
   <g id="patch_52">
    <path clip-path="url(#p2b459cc0b4)" d="M 177.971361 126.44874 
L 179.909619 126.44874 
L 179.909619 126.139224 
L 177.971361 126.139224 
z
" style="fill:#1f77b4;opacity:0.5;"/>
   </g>
   <g id="patch_53">
    <path clip-path="url(#p2b459cc0b4)" d="M 180.394183 126.44874 
L 182.33244 126.44874 
L 182.33244 126.204315 
L 180.394183 126.204315 
z
" style="fill:#1f77b4;opacity:0.5;"/>
   </g>
   <g id="patch_54">
    <path clip-path="url(#p2b459cc0b4)" d="M 182.817005 126.44874 
L 184.755262 126.44874 
L 184.755262 126.213614 
L 182.817005 126.213614 
z
" style="fill:#1f77b4;opacity:0.5;"/>
   </g>
   <g id="patch_55">
    <path clip-path="url(#p2b459cc0b4)" d="M 185.239826 126.44874 
L 187.178084 126.44874 
L 187.178084 126.212285 
L 185.239826 126.212285 
z
" style="fill:#1f77b4;opacity:0.5;"/>
   </g>
   <g id="patch_56">
    <path clip-path="url(#p2b459cc0b4)" d="M 187.662648 126.44874 
L 189.600906 126.44874 
L 189.600906 126.257451 
L 187.662648 126.257451 
z
" style="fill:#1f77b4;opacity:0.5;"/>
   </g>
   <g id="patch_57">
    <path clip-path="url(#p2b459cc0b4)" d="M 190.08547 126.44874 
L 192.023727 126.44874 
L 192.023727 126.192359 
L 190.08547 126.192359 
z
" style="fill:#1f77b4;opacity:0.5;"/>
   </g>
   <g id="patch_58">
    <path clip-path="url(#p2b459cc0b4)" d="M 192.508292 126.44874 
L 194.446549 126.44874 
L 194.446549 126.222913 
L 192.508292 126.222913 
z
" style="fill:#1f77b4;opacity:0.5;"/>
   </g>
   <g id="patch_59">
    <path clip-path="url(#p2b459cc0b4)" d="M 194.931113 126.44874 
L 196.869371 126.44874 
L 196.869371 126.185717 
L 194.931113 126.185717 
z
" style="fill:#1f77b4;opacity:0.5;"/>
   </g>
   <g id="patch_60">
    <path clip-path="url(#p2b459cc0b4)" d="M 197.353935 126.44874 
L 199.292193 126.44874 
L 199.292193 126.191031 
L 197.353935 126.191031 
z
" style="fill:#1f77b4;opacity:0.5;"/>
   </g>
   <g id="patch_61">
    <path clip-path="url(#p2b459cc0b4)" d="M 199.776757 126.44874 
L 201.715014 126.44874 
L 201.715014 126.224241 
L 199.776757 126.224241 
z
" style="fill:#1f77b4;opacity:0.5;"/>
   </g>
   <g id="matplotlib.axis_1">
    <g id="xtick_1">
     <g id="line2d_1">
      <defs>
       <path d="M 0 0 
L 0 3.5 
" id="m7b5e93726a" style="stroke:#000000;stroke-width:0.8;"/>
      </defs>
      <g>
       <use style="stroke:#000000;stroke-width:0.8;" x="200.745886" xlink:href="#m7b5e93726a" y="126.44874"/>
      </g>
     </g>
     <g id="text_1">
      <!-- 19 Apr -->
      <defs>
       <path d="M 12.40625 8.296875 
L 28.515625 8.296875 
L 28.515625 63.921875 
L 10.984375 60.40625 
L 10.984375 69.390625 
L 28.421875 72.90625 
L 38.28125 72.90625 
L 38.28125 8.296875 
L 54.390625 8.296875 
L 54.390625 0 
L 12.40625 0 
z
" id="DejaVuSans-49"/>
       <path d="M 10.984375 1.515625 
L 10.984375 10.5 
Q 14.703125 8.734375 18.5 7.8125 
Q 22.3125 6.890625 25.984375 6.890625 
Q 35.75 6.890625 40.890625 13.453125 
Q 46.046875 20.015625 46.78125 33.40625 
Q 43.953125 29.203125 39.59375 26.953125 
Q 35.25 24.703125 29.984375 24.703125 
Q 19.046875 24.703125 12.671875 31.3125 
Q 6.296875 37.9375 6.296875 49.421875 
Q 6.296875 60.640625 12.9375 67.421875 
Q 19.578125 74.21875 30.609375 74.21875 
Q 43.265625 74.21875 49.921875 64.515625 
Q 56.59375 54.828125 56.59375 36.375 
Q 56.59375 19.140625 48.40625 8.859375 
Q 40.234375 -1.421875 26.421875 -1.421875 
Q 22.703125 -1.421875 18.890625 -0.6875 
Q 15.09375 0.046875 10.984375 1.515625 
z
M 30.609375 32.421875 
Q 37.25 32.421875 41.125 36.953125 
Q 45.015625 41.5 45.015625 49.421875 
Q 45.015625 57.28125 41.125 61.84375 
Q 37.25 66.40625 30.609375 66.40625 
Q 23.96875 66.40625 20.09375 61.84375 
Q 16.21875 57.28125 16.21875 49.421875 
Q 16.21875 41.5 20.09375 36.953125 
Q 23.96875 32.421875 30.609375 32.421875 
z
" id="DejaVuSans-57"/>
       <path id="DejaVuSans-32"/>
       <path d="M 34.1875 63.1875 
L 20.796875 26.90625 
L 47.609375 26.90625 
z
M 28.609375 72.90625 
L 39.796875 72.90625 
L 67.578125 0 
L 57.328125 0 
L 50.6875 18.703125 
L 17.828125 18.703125 
L 11.1875 0 
L 0.78125 0 
z
" id="DejaVuSans-65"/>
       <path d="M 18.109375 8.203125 
L 18.109375 -20.796875 
L 9.078125 -20.796875 
L 9.078125 54.6875 
L 18.109375 54.6875 
L 18.109375 46.390625 
Q 20.953125 51.265625 25.265625 53.625 
Q 29.59375 56 35.59375 56 
Q 45.5625 56 51.78125 48.09375 
Q 58.015625 40.1875 58.015625 27.296875 
Q 58.015625 14.40625 51.78125 6.484375 
Q 45.5625 -1.421875 35.59375 -1.421875 
Q 29.59375 -1.421875 25.265625 0.953125 
Q 20.953125 3.328125 18.109375 8.203125 
z
M 48.6875 27.296875 
Q 48.6875 37.203125 44.609375 42.84375 
Q 40.53125 48.484375 33.40625 48.484375 
Q 26.265625 48.484375 22.1875 42.84375 
Q 18.109375 37.203125 18.109375 27.296875 
Q 18.109375 17.390625 22.1875 11.75 
Q 26.265625 6.109375 33.40625 6.109375 
Q 40.53125 6.109375 44.609375 11.75 
Q 48.6875 17.390625 48.6875 27.296875 
z
" id="DejaVuSans-112"/>
       <path d="M 41.109375 46.296875 
Q 39.59375 47.171875 37.8125 47.578125 
Q 36.03125 48 33.890625 48 
Q 26.265625 48 22.1875 43.046875 
Q 18.109375 38.09375 18.109375 28.8125 
L 18.109375 0 
L 9.078125 0 
L 9.078125 54.6875 
L 18.109375 54.6875 
L 18.109375 46.1875 
Q 20.953125 51.171875 25.484375 53.578125 
Q 30.03125 56 36.53125 56 
Q 37.453125 56 38.578125 55.875 
Q 39.703125 55.765625 41.0625 55.515625 
z
" id="DejaVuSans-114"/>
      </defs>
      <g transform="translate(202.953386 160.01124)rotate(-90)scale(0.08 -0.08)">
       <use xlink:href="#DejaVuSans-49"/>
       <use x="63.623047" xlink:href="#DejaVuSans-57"/>
       <use x="127.246094" xlink:href="#DejaVuSans-32"/>
       <use x="159.033203" xlink:href="#DejaVuSans-65"/>
       <use x="227.441406" xlink:href="#DejaVuSans-112"/>
       <use x="290.917969" xlink:href="#DejaVuSans-114"/>
      </g>
     </g>
    </g>
    <g id="xtick_2">
     <g id="line2d_2">
      <g>
       <use style="stroke:#000000;stroke-width:0.8;" x="183.786133" xlink:href="#m7b5e93726a" y="126.44874"/>
      </g>
     </g>
     <g id="text_2">
      <!-- 12 Apr -->
      <defs>
       <path d="M 19.1875 8.296875 
L 53.609375 8.296875 
L 53.609375 0 
L 7.328125 0 
L 7.328125 8.296875 
Q 12.9375 14.109375 22.625 23.890625 
Q 32.328125 33.6875 34.8125 36.53125 
Q 39.546875 41.84375 41.421875 45.53125 
Q 43.3125 49.21875 43.3125 52.78125 
Q 43.3125 58.59375 39.234375 62.25 
Q 35.15625 65.921875 28.609375 65.921875 
Q 23.96875 65.921875 18.8125 64.3125 
Q 13.671875 62.703125 7.8125 59.421875 
L 7.8125 69.390625 
Q 13.765625 71.78125 18.9375 73 
Q 24.125 74.21875 28.421875 74.21875 
Q 39.75 74.21875 46.484375 68.546875 
Q 53.21875 62.890625 53.21875 53.421875 
Q 53.21875 48.921875 51.53125 44.890625 
Q 49.859375 40.875 45.40625 35.40625 
Q 44.1875 33.984375 37.640625 27.21875 
Q 31.109375 20.453125 19.1875 8.296875 
z
" id="DejaVuSans-50"/>
      </defs>
      <g transform="translate(185.993633 160.01124)rotate(-90)scale(0.08 -0.08)">
       <use xlink:href="#DejaVuSans-49"/>
       <use x="63.623047" xlink:href="#DejaVuSans-50"/>
       <use x="127.246094" xlink:href="#DejaVuSans-32"/>
       <use x="159.033203" xlink:href="#DejaVuSans-65"/>
       <use x="227.441406" xlink:href="#DejaVuSans-112"/>
       <use x="290.917969" xlink:href="#DejaVuSans-114"/>
      </g>
     </g>
    </g>
    <g id="xtick_3">
     <g id="line2d_3">
      <g>
       <use style="stroke:#000000;stroke-width:0.8;" x="166.826381" xlink:href="#m7b5e93726a" y="126.44874"/>
      </g>
     </g>
     <g id="text_3">
      <!-- 5 Apr -->
      <defs>
       <path d="M 10.796875 72.90625 
L 49.515625 72.90625 
L 49.515625 64.59375 
L 19.828125 64.59375 
L 19.828125 46.734375 
Q 21.96875 47.46875 24.109375 47.828125 
Q 26.265625 48.1875 28.421875 48.1875 
Q 40.625 48.1875 47.75 41.5 
Q 54.890625 34.8125 54.890625 23.390625 
Q 54.890625 11.625 47.5625 5.09375 
Q 40.234375 -1.421875 26.90625 -1.421875 
Q 22.3125 -1.421875 17.546875 -0.640625 
Q 12.796875 0.140625 7.71875 1.703125 
L 7.71875 11.625 
Q 12.109375 9.234375 16.796875 8.0625 
Q 21.484375 6.890625 26.703125 6.890625 
Q 35.15625 6.890625 40.078125 11.328125 
Q 45.015625 15.765625 45.015625 23.390625 
Q 45.015625 31 40.078125 35.4375 
Q 35.15625 39.890625 26.703125 39.890625 
Q 22.75 39.890625 18.8125 39.015625 
Q 14.890625 38.140625 10.796875 36.28125 
z
" id="DejaVuSans-53"/>
      </defs>
      <g transform="translate(169.033881 154.92124)rotate(-90)scale(0.08 -0.08)">
       <use xlink:href="#DejaVuSans-53"/>
       <use x="63.623047" xlink:href="#DejaVuSans-32"/>
       <use x="95.410156" xlink:href="#DejaVuSans-65"/>
       <use x="163.818359" xlink:href="#DejaVuSans-112"/>
       <use x="227.294922" xlink:href="#DejaVuSans-114"/>
      </g>
     </g>
    </g>
    <g id="xtick_4">
     <g id="line2d_4">
      <g>
       <use style="stroke:#000000;stroke-width:0.8;" x="149.866629" xlink:href="#m7b5e93726a" y="126.44874"/>
      </g>
     </g>
     <g id="text_4">
      <!-- 29 Mar -->
      <defs>
       <path d="M 9.8125 72.90625 
L 24.515625 72.90625 
L 43.109375 23.296875 
L 61.8125 72.90625 
L 76.515625 72.90625 
L 76.515625 0 
L 66.890625 0 
L 66.890625 64.015625 
L 48.09375 14.015625 
L 38.1875 14.015625 
L 19.390625 64.015625 
L 19.390625 0 
L 9.8125 0 
z
" id="DejaVuSans-77"/>
       <path d="M 34.28125 27.484375 
Q 23.390625 27.484375 19.1875 25 
Q 14.984375 22.515625 14.984375 16.5 
Q 14.984375 11.71875 18.140625 8.90625 
Q 21.296875 6.109375 26.703125 6.109375 
Q 34.1875 6.109375 38.703125 11.40625 
Q 43.21875 16.703125 43.21875 25.484375 
L 43.21875 27.484375 
z
M 52.203125 31.203125 
L 52.203125 0 
L 43.21875 0 
L 43.21875 8.296875 
Q 40.140625 3.328125 35.546875 0.953125 
Q 30.953125 -1.421875 24.3125 -1.421875 
Q 15.921875 -1.421875 10.953125 3.296875 
Q 6 8.015625 6 15.921875 
Q 6 25.140625 12.171875 29.828125 
Q 18.359375 34.515625 30.609375 34.515625 
L 43.21875 34.515625 
L 43.21875 35.40625 
Q 43.21875 41.609375 39.140625 45 
Q 35.0625 48.390625 27.6875 48.390625 
Q 23 48.390625 18.546875 47.265625 
Q 14.109375 46.140625 10.015625 43.890625 
L 10.015625 52.203125 
Q 14.9375 54.109375 19.578125 55.046875 
Q 24.21875 56 28.609375 56 
Q 40.484375 56 46.34375 49.84375 
Q 52.203125 43.703125 52.203125 31.203125 
z
" id="DejaVuSans-97"/>
      </defs>
      <g transform="translate(152.074129 161.26499)rotate(-90)scale(0.08 -0.08)">
       <use xlink:href="#DejaVuSans-50"/>
       <use x="63.623047" xlink:href="#DejaVuSans-57"/>
       <use x="127.246094" xlink:href="#DejaVuSans-32"/>
       <use x="159.033203" xlink:href="#DejaVuSans-77"/>
       <use x="245.3125" xlink:href="#DejaVuSans-97"/>
       <use x="306.591797" xlink:href="#DejaVuSans-114"/>
      </g>
     </g>
    </g>
    <g id="xtick_5">
     <g id="line2d_5">
      <g>
       <use style="stroke:#000000;stroke-width:0.8;" x="132.906877" xlink:href="#m7b5e93726a" y="126.44874"/>
      </g>
     </g>
     <g id="text_5">
      <!-- 22 Mar -->
      <g transform="translate(135.114377 161.26499)rotate(-90)scale(0.08 -0.08)">
       <use xlink:href="#DejaVuSans-50"/>
       <use x="63.623047" xlink:href="#DejaVuSans-50"/>
       <use x="127.246094" xlink:href="#DejaVuSans-32"/>
       <use x="159.033203" xlink:href="#DejaVuSans-77"/>
       <use x="245.3125" xlink:href="#DejaVuSans-97"/>
       <use x="306.591797" xlink:href="#DejaVuSans-114"/>
      </g>
     </g>
    </g>
    <g id="xtick_6">
     <g id="line2d_6">
      <g>
       <use style="stroke:#000000;stroke-width:0.8;" x="115.947125" xlink:href="#m7b5e93726a" y="126.44874"/>
      </g>
     </g>
     <g id="text_6">
      <!-- 15 Mar -->
      <g transform="translate(118.154625 161.26499)rotate(-90)scale(0.08 -0.08)">
       <use xlink:href="#DejaVuSans-49"/>
       <use x="63.623047" xlink:href="#DejaVuSans-53"/>
       <use x="127.246094" xlink:href="#DejaVuSans-32"/>
       <use x="159.033203" xlink:href="#DejaVuSans-77"/>
       <use x="245.3125" xlink:href="#DejaVuSans-97"/>
       <use x="306.591797" xlink:href="#DejaVuSans-114"/>
      </g>
     </g>
    </g>
    <g id="xtick_7">
     <g id="line2d_7">
      <g>
       <use style="stroke:#000000;stroke-width:0.8;" x="98.987372" xlink:href="#m7b5e93726a" y="126.44874"/>
      </g>
     </g>
     <g id="text_7">
      <!-- 8 Mar -->
      <defs>
       <path d="M 31.78125 34.625 
Q 24.75 34.625 20.71875 30.859375 
Q 16.703125 27.09375 16.703125 20.515625 
Q 16.703125 13.921875 20.71875 10.15625 
Q 24.75 6.390625 31.78125 6.390625 
Q 38.8125 6.390625 42.859375 10.171875 
Q 46.921875 13.96875 46.921875 20.515625 
Q 46.921875 27.09375 42.890625 30.859375 
Q 38.875 34.625 31.78125 34.625 
z
M 21.921875 38.8125 
Q 15.578125 40.375 12.03125 44.71875 
Q 8.5 49.078125 8.5 55.328125 
Q 8.5 64.0625 14.71875 69.140625 
Q 20.953125 74.21875 31.78125 74.21875 
Q 42.671875 74.21875 48.875 69.140625 
Q 55.078125 64.0625 55.078125 55.328125 
Q 55.078125 49.078125 51.53125 44.71875 
Q 48 40.375 41.703125 38.8125 
Q 48.828125 37.15625 52.796875 32.3125 
Q 56.78125 27.484375 56.78125 20.515625 
Q 56.78125 9.90625 50.3125 4.234375 
Q 43.84375 -1.421875 31.78125 -1.421875 
Q 19.734375 -1.421875 13.25 4.234375 
Q 6.78125 9.90625 6.78125 20.515625 
Q 6.78125 27.484375 10.78125 32.3125 
Q 14.796875 37.15625 21.921875 38.8125 
z
M 18.3125 54.390625 
Q 18.3125 48.734375 21.84375 45.5625 
Q 25.390625 42.390625 31.78125 42.390625 
Q 38.140625 42.390625 41.71875 45.5625 
Q 45.3125 48.734375 45.3125 54.390625 
Q 45.3125 60.0625 41.71875 63.234375 
Q 38.140625 66.40625 31.78125 66.40625 
Q 25.390625 66.40625 21.84375 63.234375 
Q 18.3125 60.0625 18.3125 54.390625 
z
" id="DejaVuSans-56"/>
      </defs>
      <g transform="translate(101.194872 156.17499)rotate(-90)scale(0.08 -0.08)">
       <use xlink:href="#DejaVuSans-56"/>
       <use x="63.623047" xlink:href="#DejaVuSans-32"/>
       <use x="95.410156" xlink:href="#DejaVuSans-77"/>
       <use x="181.689453" xlink:href="#DejaVuSans-97"/>
       <use x="242.96875" xlink:href="#DejaVuSans-114"/>
      </g>
     </g>
    </g>
    <g id="xtick_8">
     <g id="line2d_8">
      <g>
       <use style="stroke:#000000;stroke-width:0.8;" x="82.02762" xlink:href="#m7b5e93726a" y="126.44874"/>
      </g>
     </g>
     <g id="text_8">
      <!-- 1 Mar -->
      <g transform="translate(84.23512 156.17499)rotate(-90)scale(0.08 -0.08)">
       <use xlink:href="#DejaVuSans-49"/>
       <use x="63.623047" xlink:href="#DejaVuSans-32"/>
       <use x="95.410156" xlink:href="#DejaVuSans-77"/>
       <use x="181.689453" xlink:href="#DejaVuSans-97"/>
       <use x="242.96875" xlink:href="#DejaVuSans-114"/>
      </g>
     </g>
    </g>
    <g id="xtick_9">
     <g id="line2d_9">
      <g>
       <use style="stroke:#000000;stroke-width:0.8;" x="65.067868" xlink:href="#m7b5e93726a" y="126.44874"/>
      </g>
     </g>
     <g id="text_9">
      <!-- 23 Feb -->
      <defs>
       <path d="M 40.578125 39.3125 
Q 47.65625 37.796875 51.625 33 
Q 55.609375 28.21875 55.609375 21.1875 
Q 55.609375 10.40625 48.1875 4.484375 
Q 40.765625 -1.421875 27.09375 -1.421875 
Q 22.515625 -1.421875 17.65625 -0.515625 
Q 12.796875 0.390625 7.625 2.203125 
L 7.625 11.71875 
Q 11.71875 9.328125 16.59375 8.109375 
Q 21.484375 6.890625 26.8125 6.890625 
Q 36.078125 6.890625 40.9375 10.546875 
Q 45.796875 14.203125 45.796875 21.1875 
Q 45.796875 27.640625 41.28125 31.265625 
Q 36.765625 34.90625 28.71875 34.90625 
L 20.21875 34.90625 
L 20.21875 43.015625 
L 29.109375 43.015625 
Q 36.375 43.015625 40.234375 45.921875 
Q 44.09375 48.828125 44.09375 54.296875 
Q 44.09375 59.90625 40.109375 62.90625 
Q 36.140625 65.921875 28.71875 65.921875 
Q 24.65625 65.921875 20.015625 65.03125 
Q 15.375 64.15625 9.8125 62.3125 
L 9.8125 71.09375 
Q 15.4375 72.65625 20.34375 73.4375 
Q 25.25 74.21875 29.59375 74.21875 
Q 40.828125 74.21875 47.359375 69.109375 
Q 53.90625 64.015625 53.90625 55.328125 
Q 53.90625 49.265625 50.4375 45.09375 
Q 46.96875 40.921875 40.578125 39.3125 
z
" id="DejaVuSans-51"/>
       <path d="M 9.8125 72.90625 
L 51.703125 72.90625 
L 51.703125 64.59375 
L 19.671875 64.59375 
L 19.671875 43.109375 
L 48.578125 43.109375 
L 48.578125 34.8125 
L 19.671875 34.8125 
L 19.671875 0 
L 9.8125 0 
z
" id="DejaVuSans-70"/>
       <path d="M 56.203125 29.59375 
L 56.203125 25.203125 
L 14.890625 25.203125 
Q 15.484375 15.921875 20.484375 11.0625 
Q 25.484375 6.203125 34.421875 6.203125 
Q 39.59375 6.203125 44.453125 7.46875 
Q 49.3125 8.734375 54.109375 11.28125 
L 54.109375 2.78125 
Q 49.265625 0.734375 44.1875 -0.34375 
Q 39.109375 -1.421875 33.890625 -1.421875 
Q 20.796875 -1.421875 13.15625 6.1875 
Q 5.515625 13.8125 5.515625 26.8125 
Q 5.515625 40.234375 12.765625 48.109375 
Q 20.015625 56 32.328125 56 
Q 43.359375 56 49.78125 48.890625 
Q 56.203125 41.796875 56.203125 29.59375 
z
M 47.21875 32.234375 
Q 47.125 39.59375 43.09375 43.984375 
Q 39.0625 48.390625 32.421875 48.390625 
Q 24.90625 48.390625 20.390625 44.140625 
Q 15.875 39.890625 15.1875 32.171875 
z
" id="DejaVuSans-101"/>
       <path d="M 48.6875 27.296875 
Q 48.6875 37.203125 44.609375 42.84375 
Q 40.53125 48.484375 33.40625 48.484375 
Q 26.265625 48.484375 22.1875 42.84375 
Q 18.109375 37.203125 18.109375 27.296875 
Q 18.109375 17.390625 22.1875 11.75 
Q 26.265625 6.109375 33.40625 6.109375 
Q 40.53125 6.109375 44.609375 11.75 
Q 48.6875 17.390625 48.6875 27.296875 
z
M 18.109375 46.390625 
Q 20.953125 51.265625 25.265625 53.625 
Q 29.59375 56 35.59375 56 
Q 45.5625 56 51.78125 48.09375 
Q 58.015625 40.1875 58.015625 27.296875 
Q 58.015625 14.40625 51.78125 6.484375 
Q 45.5625 -1.421875 35.59375 -1.421875 
Q 29.59375 -1.421875 25.265625 0.953125 
Q 20.953125 3.328125 18.109375 8.203125 
L 18.109375 0 
L 9.078125 0 
L 9.078125 75.984375 
L 18.109375 75.984375 
z
" id="DejaVuSans-98"/>
      </defs>
      <g transform="translate(67.275368 160.33374)rotate(-90)scale(0.08 -0.08)">
       <use xlink:href="#DejaVuSans-50"/>
       <use x="63.623047" xlink:href="#DejaVuSans-51"/>
       <use x="127.246094" xlink:href="#DejaVuSans-32"/>
       <use x="159.033203" xlink:href="#DejaVuSans-70"/>
       <use x="211.052734" xlink:href="#DejaVuSans-101"/>
       <use x="272.576172" xlink:href="#DejaVuSans-98"/>
      </g>
     </g>
    </g>
   </g>
   <g id="matplotlib.axis_2">
    <g id="ytick_1">
     <g id="line2d_10">
      <defs>
       <path d="M 0 0 
L -3.5 0 
" id="m59f8452f28" style="stroke:#000000;stroke-width:0.8;"/>
      </defs>
      <g>
       <use style="stroke:#000000;stroke-width:0.8;" x="52.13" xlink:href="#m59f8452f28" y="126.44874"/>
      </g>
     </g>
     <g id="text_10">
      <!-- 0 -->
      <defs>
       <path d="M 31.78125 66.40625 
Q 24.171875 66.40625 20.328125 58.90625 
Q 16.5 51.421875 16.5 36.375 
Q 16.5 21.390625 20.328125 13.890625 
Q 24.171875 6.390625 31.78125 6.390625 
Q 39.453125 6.390625 43.28125 13.890625 
Q 47.125 21.390625 47.125 36.375 
Q 47.125 51.421875 43.28125 58.90625 
Q 39.453125 66.40625 31.78125 66.40625 
z
M 31.78125 74.21875 
Q 44.046875 74.21875 50.515625 64.515625 
Q 56.984375 54.828125 56.984375 36.375 
Q 56.984375 17.96875 50.515625 8.265625 
Q 44.046875 -1.421875 31.78125 -1.421875 
Q 19.53125 -1.421875 13.0625 8.265625 
Q 6.59375 17.96875 6.59375 36.375 
Q 6.59375 54.828125 13.0625 64.515625 
Q 19.53125 74.21875 31.78125 74.21875 
z
" id="DejaVuSans-48"/>
      </defs>
      <g transform="translate(40.04 129.488115)scale(0.08 -0.08)">
       <use xlink:href="#DejaVuSans-48"/>
      </g>
     </g>
    </g>
    <g id="ytick_2">
     <g id="line2d_11">
      <g>
       <use style="stroke:#000000;stroke-width:0.8;" x="52.13" xlink:href="#m59f8452f28" y="99.88079"/>
      </g>
     </g>
     <g id="text_11">
      <!-- 20000 -->
      <g transform="translate(19.68 102.920165)scale(0.08 -0.08)">
       <use xlink:href="#DejaVuSans-50"/>
       <use x="63.623047" xlink:href="#DejaVuSans-48"/>
       <use x="127.246094" xlink:href="#DejaVuSans-48"/>
       <use x="190.869141" xlink:href="#DejaVuSans-48"/>
       <use x="254.492188" xlink:href="#DejaVuSans-48"/>
      </g>
     </g>
    </g>
    <g id="ytick_3">
     <g id="line2d_12">
      <g>
       <use style="stroke:#000000;stroke-width:0.8;" x="52.13" xlink:href="#m59f8452f28" y="73.312839"/>
      </g>
     </g>
     <g id="text_12">
      <!-- 40000 -->
      <defs>
       <path d="M 37.796875 64.3125 
L 12.890625 25.390625 
L 37.796875 25.390625 
z
M 35.203125 72.90625 
L 47.609375 72.90625 
L 47.609375 25.390625 
L 58.015625 25.390625 
L 58.015625 17.1875 
L 47.609375 17.1875 
L 47.609375 0 
L 37.796875 0 
L 37.796875 17.1875 
L 4.890625 17.1875 
L 4.890625 26.703125 
z
" id="DejaVuSans-52"/>
      </defs>
      <g transform="translate(19.68 76.352214)scale(0.08 -0.08)">
       <use xlink:href="#DejaVuSans-52"/>
       <use x="63.623047" xlink:href="#DejaVuSans-48"/>
       <use x="127.246094" xlink:href="#DejaVuSans-48"/>
       <use x="190.869141" xlink:href="#DejaVuSans-48"/>
       <use x="254.492188" xlink:href="#DejaVuSans-48"/>
      </g>
     </g>
    </g>
    <g id="ytick_4">
     <g id="line2d_13">
      <g>
       <use style="stroke:#000000;stroke-width:0.8;" x="52.13" xlink:href="#m59f8452f28" y="46.744888"/>
      </g>
     </g>
     <g id="text_13">
      <!-- 60000 -->
      <defs>
       <path d="M 33.015625 40.375 
Q 26.375 40.375 22.484375 35.828125 
Q 18.609375 31.296875 18.609375 23.390625 
Q 18.609375 15.53125 22.484375 10.953125 
Q 26.375 6.390625 33.015625 6.390625 
Q 39.65625 6.390625 43.53125 10.953125 
Q 47.40625 15.53125 47.40625 23.390625 
Q 47.40625 31.296875 43.53125 35.828125 
Q 39.65625 40.375 33.015625 40.375 
z
M 52.59375 71.296875 
L 52.59375 62.3125 
Q 48.875 64.0625 45.09375 64.984375 
Q 41.3125 65.921875 37.59375 65.921875 
Q 27.828125 65.921875 22.671875 59.328125 
Q 17.53125 52.734375 16.796875 39.40625 
Q 19.671875 43.65625 24.015625 45.921875 
Q 28.375 48.1875 33.59375 48.1875 
Q 44.578125 48.1875 50.953125 41.515625 
Q 57.328125 34.859375 57.328125 23.390625 
Q 57.328125 12.15625 50.6875 5.359375 
Q 44.046875 -1.421875 33.015625 -1.421875 
Q 20.359375 -1.421875 13.671875 8.265625 
Q 6.984375 17.96875 6.984375 36.375 
Q 6.984375 53.65625 15.1875 63.9375 
Q 23.390625 74.21875 37.203125 74.21875 
Q 40.921875 74.21875 44.703125 73.484375 
Q 48.484375 72.75 52.59375 71.296875 
z
" id="DejaVuSans-54"/>
      </defs>
      <g transform="translate(19.68 49.784263)scale(0.08 -0.08)">
       <use xlink:href="#DejaVuSans-54"/>
       <use x="63.623047" xlink:href="#DejaVuSans-48"/>
       <use x="127.246094" xlink:href="#DejaVuSans-48"/>
       <use x="190.869141" xlink:href="#DejaVuSans-48"/>
       <use x="254.492188" xlink:href="#DejaVuSans-48"/>
      </g>
     </g>
    </g>
    <g id="ytick_5">
     <g id="line2d_14">
      <g>
       <use style="stroke:#000000;stroke-width:0.8;" x="52.13" xlink:href="#m59f8452f28" y="20.176938"/>
      </g>
     </g>
     <g id="text_14">
      <!-- 80000 -->
      <g transform="translate(19.68 23.216313)scale(0.08 -0.08)">
       <use xlink:href="#DejaVuSans-56"/>
       <use x="63.623047" xlink:href="#DejaVuSans-48"/>
       <use x="127.246094" xlink:href="#DejaVuSans-48"/>
       <use x="190.869141" xlink:href="#DejaVuSans-48"/>
       <use x="254.492188" xlink:href="#DejaVuSans-48"/>
      </g>
     </g>
    </g>
    <g id="text_15">
     <!-- Cases per day -->
     <defs>
      <path d="M 64.40625 67.28125 
L 64.40625 56.890625 
Q 59.421875 61.53125 53.78125 63.8125 
Q 48.140625 66.109375 41.796875 66.109375 
Q 29.296875 66.109375 22.65625 58.46875 
Q 16.015625 50.828125 16.015625 36.375 
Q 16.015625 21.96875 22.65625 14.328125 
Q 29.296875 6.6875 41.796875 6.6875 
Q 48.140625 6.6875 53.78125 8.984375 
Q 59.421875 11.28125 64.40625 15.921875 
L 64.40625 5.609375 
Q 59.234375 2.09375 53.4375 0.328125 
Q 47.65625 -1.421875 41.21875 -1.421875 
Q 24.65625 -1.421875 15.125 8.703125 
Q 5.609375 18.84375 5.609375 36.375 
Q 5.609375 53.953125 15.125 64.078125 
Q 24.65625 74.21875 41.21875 74.21875 
Q 47.75 74.21875 53.53125 72.484375 
Q 59.328125 70.75 64.40625 67.28125 
z
" id="DejaVuSans-67"/>
      <path d="M 44.28125 53.078125 
L 44.28125 44.578125 
Q 40.484375 46.53125 36.375 47.5 
Q 32.28125 48.484375 27.875 48.484375 
Q 21.1875 48.484375 17.84375 46.4375 
Q 14.5 44.390625 14.5 40.28125 
Q 14.5 37.15625 16.890625 35.375 
Q 19.28125 33.59375 26.515625 31.984375 
L 29.59375 31.296875 
Q 39.15625 29.25 43.1875 25.515625 
Q 47.21875 21.78125 47.21875 15.09375 
Q 47.21875 7.46875 41.1875 3.015625 
Q 35.15625 -1.421875 24.609375 -1.421875 
Q 20.21875 -1.421875 15.453125 -0.5625 
Q 10.6875 0.296875 5.421875 2 
L 5.421875 11.28125 
Q 10.40625 8.6875 15.234375 7.390625 
Q 20.0625 6.109375 24.8125 6.109375 
Q 31.15625 6.109375 34.5625 8.28125 
Q 37.984375 10.453125 37.984375 14.40625 
Q 37.984375 18.0625 35.515625 20.015625 
Q 33.0625 21.96875 24.703125 23.78125 
L 21.578125 24.515625 
Q 13.234375 26.265625 9.515625 29.90625 
Q 5.8125 33.546875 5.8125 39.890625 
Q 5.8125 47.609375 11.28125 51.796875 
Q 16.75 56 26.8125 56 
Q 31.78125 56 36.171875 55.265625 
Q 40.578125 54.546875 44.28125 53.078125 
z
" id="DejaVuSans-115"/>
      <path d="M 45.40625 46.390625 
L 45.40625 75.984375 
L 54.390625 75.984375 
L 54.390625 0 
L 45.40625 0 
L 45.40625 8.203125 
Q 42.578125 3.328125 38.25 0.953125 
Q 33.9375 -1.421875 27.875 -1.421875 
Q 17.96875 -1.421875 11.734375 6.484375 
Q 5.515625 14.40625 5.515625 27.296875 
Q 5.515625 40.1875 11.734375 48.09375 
Q 17.96875 56 27.875 56 
Q 33.9375 56 38.25 53.625 
Q 42.578125 51.265625 45.40625 46.390625 
z
M 14.796875 27.296875 
Q 14.796875 17.390625 18.875 11.75 
Q 22.953125 6.109375 30.078125 6.109375 
Q 37.203125 6.109375 41.296875 11.75 
Q 45.40625 17.390625 45.40625 27.296875 
Q 45.40625 37.203125 41.296875 42.84375 
Q 37.203125 48.484375 30.078125 48.484375 
Q 22.953125 48.484375 18.875 42.84375 
Q 14.796875 37.203125 14.796875 27.296875 
z
" id="DejaVuSans-100"/>
      <path d="M 32.171875 -5.078125 
Q 28.375 -14.84375 24.75 -17.8125 
Q 21.140625 -20.796875 15.09375 -20.796875 
L 7.90625 -20.796875 
L 7.90625 -13.28125 
L 13.1875 -13.28125 
Q 16.890625 -13.28125 18.9375 -11.515625 
Q 21 -9.765625 23.484375 -3.21875 
L 25.09375 0.875 
L 2.984375 54.6875 
L 12.5 54.6875 
L 29.59375 11.921875 
L 46.6875 54.6875 
L 56.203125 54.6875 
z
" id="DejaVuSans-121"/>
     </defs>
     <g transform="translate(14.01625 97.40312)rotate(-90)scale(0.08 -0.08)">
      <use xlink:href="#DejaVuSans-67"/>
      <use x="69.824219" xlink:href="#DejaVuSans-97"/>
      <use x="131.103516" xlink:href="#DejaVuSans-115"/>
      <use x="183.203125" xlink:href="#DejaVuSans-101"/>
      <use x="244.726562" xlink:href="#DejaVuSans-115"/>
      <use x="296.826172" xlink:href="#DejaVuSans-32"/>
      <use x="328.613281" xlink:href="#DejaVuSans-112"/>
      <use x="392.089844" xlink:href="#DejaVuSans-101"/>
      <use x="453.613281" xlink:href="#DejaVuSans-114"/>
      <use x="494.726562" xlink:href="#DejaVuSans-32"/>
      <use x="526.513672" xlink:href="#DejaVuSans-100"/>
      <use x="589.990234" xlink:href="#DejaVuSans-97"/>
      <use x="651.269531" xlink:href="#DejaVuSans-121"/>
     </g>
    </g>
   </g>
   <g id="line2d_15">
    <path clip-path="url(#p2b459cc0b4)" d="M 60.222225 126.374322 
L 62.645046 126.374322 
L 65.067868 126.374322 
L 67.49069 126.374322 
L 69.913512 126.374322 
L 72.336333 126.374322 
L 74.759155 126.329068 
L 77.181977 126.302207 
L 79.604799 126.302306 
L 82.02762 126.288094 
L 84.450442 126.247229 
L 86.873264 126.213588 
L 89.296086 126.173847 
L 91.718907 126.10467 
L 94.141729 126.046836 
L 96.564551 125.950824 
L 98.987372 125.971962 
L 101.410194 125.827094 
L 103.833016 125.700286 
L 106.255838 125.25546 
L 108.678659 124.075894 
L 111.101481 125.400219 
L 113.524303 125.093003 
L 115.947125 125.470799 
L 118.369946 124.95276 
L 120.792768 124.163676 
L 123.21559 125.063627 
L 125.638412 124.854859 
L 128.061233 124.849119 
L 130.484055 124.591859 
L 132.906877 124.706642 
L 135.329699 124.396004 
L 137.75252 124.150996 
L 140.175342 124.021554 
L 142.598164 123.779856 
L 145.020986 123.686266 
L 147.443807 122.932819 
L 149.866629 123.445576 
" style="fill:none;stroke:#0000ff;stroke-linecap:square;stroke-opacity:0.5;"/>
   </g>
   <g id="line2d_16">
    <path clip-path="url(#p2b459cc0b4)" d="M 152.289451 123.172057 
L 154.712273 122.898133 
L 157.135094 122.621158 
L 159.557916 122.329926 
L 161.980738 122.014847 
L 164.403559 121.668741 
L 166.826381 121.285816 
L 169.249203 120.860673 
L 171.672025 120.387651 
L 174.094846 119.860441 
L 176.517668 119.27184 
L 178.94049 118.613564 
L 181.363312 117.876059 
L 183.786133 117.048299 
L 186.208955 116.117542 
L 188.631777 115.069044 
L 191.054599 113.885727 
L 193.47742 112.547778 
L 195.900242 111.03218 
L 198.323064 109.312161 
L 200.745886 107.356535 
" style="fill:none;stroke:#008000;stroke-linecap:square;stroke-opacity:0.5;"/>
   </g>
   <g id="line2d_17">
    <path clip-path="url(#p2b459cc0b4)" d="M 108.678659 126.44874 
L 108.678659 11.52 
" style="fill:none;stroke:#0000ff;stroke-dasharray:1.85,0.8;stroke-dashoffset:0;stroke-width:0.5;"/>
   </g>
   <g id="line2d_18">
    <path clip-path="url(#p2b459cc0b4)" d="M 111.101481 126.44874 
L 111.101481 11.52 
" style="fill:none;stroke:#0000ff;stroke-dasharray:1.85,0.8;stroke-dashoffset:0;stroke-width:0.5;"/>
   </g>
   <g id="line2d_19">
    <path clip-path="url(#p2b459cc0b4)" d="M 123.21559 126.44874 
L 123.21559 11.52 
" style="fill:none;stroke:#0000ff;stroke-dasharray:1.85,0.8;stroke-dashoffset:0;stroke-width:0.5;"/>
   </g>
   <g id="line2d_20">
    <path clip-path="url(#p2b459cc0b4)" d="M 111.101481 126.44874 
L 111.101481 11.52 
" style="fill:none;stroke:#0000ff;stroke-dasharray:1.85,0.8;stroke-dashoffset:0;stroke-width:0.5;"/>
   </g>
   <g id="line2d_21">
    <path clip-path="url(#p2b459cc0b4)" d="M 108.678659 126.44874 
L 108.678659 11.52 
" style="fill:none;stroke:#0000ff;stroke-dasharray:1.85,0.8;stroke-dashoffset:0;stroke-width:0.5;"/>
   </g>
   <g id="patch_62">
    <path d="M 52.13 126.44874 
L 52.13 11.52 
" style="fill:none;stroke:#000000;stroke-linecap:square;stroke-linejoin:miter;stroke-width:0.8;"/>
   </g>
   <g id="patch_63">
    <path d="M 208.83811 126.44874 
L 208.83811 11.52 
" style="fill:none;stroke:#000000;stroke-linecap:square;stroke-linejoin:miter;stroke-width:0.8;"/>
   </g>
   <g id="patch_64">
    <path d="M 52.13 126.44874 
L 208.83811 126.44874 
" style="fill:none;stroke:#000000;stroke-linecap:square;stroke-linejoin:miter;stroke-width:0.8;"/>
   </g>
   <g id="patch_65">
    <path d="M 52.13 11.52 
L 208.83811 11.52 
" style="fill:none;stroke:#000000;stroke-linecap:square;stroke-linejoin:miter;stroke-width:0.8;"/>
   </g>
   <g id="legend_1">
    <g id="line2d_22">
     <path d="M 59.33 103.04249 
L 75.33 103.04249 
" style="fill:none;stroke:#0000ff;stroke-linecap:square;stroke-opacity:0.5;"/>
    </g>
    <g id="line2d_23"/>
    <g id="text_16">
     <!-- Simulation -->
     <defs>
      <path d="M 53.515625 70.515625 
L 53.515625 60.890625 
Q 47.90625 63.578125 42.921875 64.890625 
Q 37.9375 66.21875 33.296875 66.21875 
Q 25.25 66.21875 20.875 63.09375 
Q 16.5 59.96875 16.5 54.203125 
Q 16.5 49.359375 19.40625 46.890625 
Q 22.3125 44.4375 30.421875 42.921875 
L 36.375 41.703125 
Q 47.40625 39.59375 52.65625 34.296875 
Q 57.90625 29 57.90625 20.125 
Q 57.90625 9.515625 50.796875 4.046875 
Q 43.703125 -1.421875 29.984375 -1.421875 
Q 24.8125 -1.421875 18.96875 -0.25 
Q 13.140625 0.921875 6.890625 3.21875 
L 6.890625 13.375 
Q 12.890625 10.015625 18.65625 8.296875 
Q 24.421875 6.59375 29.984375 6.59375 
Q 38.421875 6.59375 43.015625 9.90625 
Q 47.609375 13.234375 47.609375 19.390625 
Q 47.609375 24.75 44.3125 27.78125 
Q 41.015625 30.8125 33.5 32.328125 
L 27.484375 33.5 
Q 16.453125 35.6875 11.515625 40.375 
Q 6.59375 45.0625 6.59375 53.421875 
Q 6.59375 63.09375 13.40625 68.65625 
Q 20.21875 74.21875 32.171875 74.21875 
Q 37.3125 74.21875 42.625 73.28125 
Q 47.953125 72.359375 53.515625 70.515625 
z
" id="DejaVuSans-83"/>
      <path d="M 9.421875 54.6875 
L 18.40625 54.6875 
L 18.40625 0 
L 9.421875 0 
z
M 9.421875 75.984375 
L 18.40625 75.984375 
L 18.40625 64.59375 
L 9.421875 64.59375 
z
" id="DejaVuSans-105"/>
      <path d="M 52 44.1875 
Q 55.375 50.25 60.0625 53.125 
Q 64.75 56 71.09375 56 
Q 79.640625 56 84.28125 50.015625 
Q 88.921875 44.046875 88.921875 33.015625 
L 88.921875 0 
L 79.890625 0 
L 79.890625 32.71875 
Q 79.890625 40.578125 77.09375 44.375 
Q 74.3125 48.1875 68.609375 48.1875 
Q 61.625 48.1875 57.5625 43.546875 
Q 53.515625 38.921875 53.515625 30.90625 
L 53.515625 0 
L 44.484375 0 
L 44.484375 32.71875 
Q 44.484375 40.625 41.703125 44.40625 
Q 38.921875 48.1875 33.109375 48.1875 
Q 26.21875 48.1875 22.15625 43.53125 
Q 18.109375 38.875 18.109375 30.90625 
L 18.109375 0 
L 9.078125 0 
L 9.078125 54.6875 
L 18.109375 54.6875 
L 18.109375 46.1875 
Q 21.1875 51.21875 25.484375 53.609375 
Q 29.78125 56 35.6875 56 
Q 41.65625 56 45.828125 52.96875 
Q 50 49.953125 52 44.1875 
z
" id="DejaVuSans-109"/>
      <path d="M 8.5 21.578125 
L 8.5 54.6875 
L 17.484375 54.6875 
L 17.484375 21.921875 
Q 17.484375 14.15625 20.5 10.265625 
Q 23.53125 6.390625 29.59375 6.390625 
Q 36.859375 6.390625 41.078125 11.03125 
Q 45.3125 15.671875 45.3125 23.6875 
L 45.3125 54.6875 
L 54.296875 54.6875 
L 54.296875 0 
L 45.3125 0 
L 45.3125 8.40625 
Q 42.046875 3.421875 37.71875 1 
Q 33.40625 -1.421875 27.6875 -1.421875 
Q 18.265625 -1.421875 13.375 4.4375 
Q 8.5 10.296875 8.5 21.578125 
z
M 31.109375 56 
z
" id="DejaVuSans-117"/>
      <path d="M 9.421875 75.984375 
L 18.40625 75.984375 
L 18.40625 0 
L 9.421875 0 
z
" id="DejaVuSans-108"/>
      <path d="M 18.3125 70.21875 
L 18.3125 54.6875 
L 36.8125 54.6875 
L 36.8125 47.703125 
L 18.3125 47.703125 
L 18.3125 18.015625 
Q 18.3125 11.328125 20.140625 9.421875 
Q 21.96875 7.515625 27.59375 7.515625 
L 36.8125 7.515625 
L 36.8125 0 
L 27.59375 0 
Q 17.1875 0 13.234375 3.875 
Q 9.28125 7.765625 9.28125 18.015625 
L 9.28125 47.703125 
L 2.6875 47.703125 
L 2.6875 54.6875 
L 9.28125 54.6875 
L 9.28125 70.21875 
z
" id="DejaVuSans-116"/>
      <path d="M 30.609375 48.390625 
Q 23.390625 48.390625 19.1875 42.75 
Q 14.984375 37.109375 14.984375 27.296875 
Q 14.984375 17.484375 19.15625 11.84375 
Q 23.34375 6.203125 30.609375 6.203125 
Q 37.796875 6.203125 41.984375 11.859375 
Q 46.1875 17.53125 46.1875 27.296875 
Q 46.1875 37.015625 41.984375 42.703125 
Q 37.796875 48.390625 30.609375 48.390625 
z
M 30.609375 56 
Q 42.328125 56 49.015625 48.375 
Q 55.71875 40.765625 55.71875 27.296875 
Q 55.71875 13.875 49.015625 6.21875 
Q 42.328125 -1.421875 30.609375 -1.421875 
Q 18.84375 -1.421875 12.171875 6.21875 
Q 5.515625 13.875 5.515625 27.296875 
Q 5.515625 40.765625 12.171875 48.375 
Q 18.84375 56 30.609375 56 
z
" id="DejaVuSans-111"/>
      <path d="M 54.890625 33.015625 
L 54.890625 0 
L 45.90625 0 
L 45.90625 32.71875 
Q 45.90625 40.484375 42.875 44.328125 
Q 39.84375 48.1875 33.796875 48.1875 
Q 26.515625 48.1875 22.3125 43.546875 
Q 18.109375 38.921875 18.109375 30.90625 
L 18.109375 0 
L 9.078125 0 
L 9.078125 54.6875 
L 18.109375 54.6875 
L 18.109375 46.1875 
Q 21.34375 51.125 25.703125 53.5625 
Q 30.078125 56 35.796875 56 
Q 45.21875 56 50.046875 50.171875 
Q 54.890625 44.34375 54.890625 33.015625 
z
" id="DejaVuSans-110"/>
     </defs>
     <g transform="translate(81.73 105.84249)scale(0.08 -0.08)">
      <use xlink:href="#DejaVuSans-83"/>
      <use x="63.476562" xlink:href="#DejaVuSans-105"/>
      <use x="91.259766" xlink:href="#DejaVuSans-109"/>
      <use x="188.671875" xlink:href="#DejaVuSans-117"/>
      <use x="252.050781" xlink:href="#DejaVuSans-108"/>
      <use x="279.833984" xlink:href="#DejaVuSans-97"/>
      <use x="341.113281" xlink:href="#DejaVuSans-116"/>
      <use x="380.322266" xlink:href="#DejaVuSans-105"/>
      <use x="408.105469" xlink:href="#DejaVuSans-111"/>
      <use x="469.287109" xlink:href="#DejaVuSans-110"/>
     </g>
    </g>
    <g id="line2d_24">
     <path d="M 59.33 114.78499 
L 75.33 114.78499 
" style="fill:none;stroke:#008000;stroke-linecap:square;stroke-opacity:0.5;"/>
    </g>
    <g id="line2d_25"/>
    <g id="text_17">
     <!-- Forecast -->
     <defs>
      <path d="M 48.78125 52.59375 
L 48.78125 44.1875 
Q 44.96875 46.296875 41.140625 47.34375 
Q 37.3125 48.390625 33.40625 48.390625 
Q 24.65625 48.390625 19.8125 42.84375 
Q 14.984375 37.3125 14.984375 27.296875 
Q 14.984375 17.28125 19.8125 11.734375 
Q 24.65625 6.203125 33.40625 6.203125 
Q 37.3125 6.203125 41.140625 7.25 
Q 44.96875 8.296875 48.78125 10.40625 
L 48.78125 2.09375 
Q 45.015625 0.34375 40.984375 -0.53125 
Q 36.96875 -1.421875 32.421875 -1.421875 
Q 20.0625 -1.421875 12.78125 6.34375 
Q 5.515625 14.109375 5.515625 27.296875 
Q 5.515625 40.671875 12.859375 48.328125 
Q 20.21875 56 33.015625 56 
Q 37.15625 56 41.109375 55.140625 
Q 45.0625 54.296875 48.78125 52.59375 
z
" id="DejaVuSans-99"/>
     </defs>
     <g transform="translate(81.73 117.58499)scale(0.08 -0.08)">
      <use xlink:href="#DejaVuSans-70"/>
      <use x="53.894531" xlink:href="#DejaVuSans-111"/>
      <use x="115.076172" xlink:href="#DejaVuSans-114"/>
      <use x="153.939453" xlink:href="#DejaVuSans-101"/>
      <use x="215.462891" xlink:href="#DejaVuSans-99"/>
      <use x="270.443359" xlink:href="#DejaVuSans-97"/>
      <use x="331.722656" xlink:href="#DejaVuSans-115"/>
      <use x="383.822266" xlink:href="#DejaVuSans-116"/>
     </g>
    </g>
   </g>
  </g>
  <g id="axes_2">
   <g id="matplotlib.axis_3">
    <g id="ytick_6">
     <g id="line2d_26">
      <defs>
       <path d="M 0 0 
L 3.5 0 
" id="mba256c1c98" style="stroke:#000000;stroke-width:0.8;"/>
      </defs>
      <g>
       <use style="stroke:#000000;stroke-width:0.8;" x="208.83811" xlink:href="#mba256c1c98" y="126.44874"/>
      </g>
     </g>
     <g id="text_18">
      <!-- 1.0 -->
      <defs>
       <path d="M 10.59375 35.5 
L 73.1875 35.5 
L 73.1875 27.203125 
L 10.59375 27.203125 
z
" id="DejaVuSans-8722"/>
       <path d="M 10.6875 12.40625 
L 21 12.40625 
L 21 0 
L 10.6875 0 
z
" id="DejaVuSans-46"/>
      </defs>
      <g transform="translate(215.83811 129.488115)scale(0.08 -0.08)">
       <use xlink:href="#DejaVuSans-8722"/>
       <use x="83.789062" xlink:href="#DejaVuSans-49"/>
       <use x="147.412109" xlink:href="#DejaVuSans-46"/>
       <use x="179.199219" xlink:href="#DejaVuSans-48"/>
      </g>
     </g>
    </g>
    <g id="ytick_7">
     <g id="line2d_27">
      <g>
       <use style="stroke:#000000;stroke-width:0.8;" x="208.83811" xlink:href="#mba256c1c98" y="85.402762"/>
      </g>
     </g>
     <g id="text_19">
      <!-- 0.5 -->
      <g transform="translate(215.83811 88.442137)scale(0.08 -0.08)">
       <use xlink:href="#DejaVuSans-8722"/>
       <use x="83.789062" xlink:href="#DejaVuSans-48"/>
       <use x="147.412109" xlink:href="#DejaVuSans-46"/>
       <use x="179.199219" xlink:href="#DejaVuSans-53"/>
      </g>
     </g>
    </g>
    <g id="ytick_8">
     <g id="line2d_28">
      <g>
       <use style="stroke:#000000;stroke-width:0.8;" x="208.83811" xlink:href="#mba256c1c98" y="44.356783"/>
      </g>
     </g>
     <g id="text_20">
      <!-- 0.0 -->
      <g transform="translate(215.83811 47.396158)scale(0.08 -0.08)">
       <use xlink:href="#DejaVuSans-48"/>
       <use x="63.623047" xlink:href="#DejaVuSans-46"/>
       <use x="95.410156" xlink:href="#DejaVuSans-48"/>
      </g>
     </g>
    </g>
    <g id="ytick_9">
     <g id="line2d_29">
      <g>
       <use style="stroke:#000000;stroke-width:0.8;" x="208.83811" xlink:href="#mba256c1c98" y="11.52"/>
      </g>
     </g>
     <g id="text_21">
      <!-- 0.4 -->
      <g transform="translate(215.83811 14.559375)scale(0.08 -0.08)">
       <use xlink:href="#DejaVuSans-48"/>
       <use x="63.623047" xlink:href="#DejaVuSans-46"/>
       <use x="95.410156" xlink:href="#DejaVuSans-52"/>
      </g>
     </g>
    </g>
    <g id="text_22">
     <!-- Relative change -->
     <defs>
      <path d="M 44.390625 34.1875 
Q 47.5625 33.109375 50.5625 29.59375 
Q 53.5625 26.078125 56.59375 19.921875 
L 66.609375 0 
L 56 0 
L 46.6875 18.703125 
Q 43.0625 26.03125 39.671875 28.421875 
Q 36.28125 30.8125 30.421875 30.8125 
L 19.671875 30.8125 
L 19.671875 0 
L 9.8125 0 
L 9.8125 72.90625 
L 32.078125 72.90625 
Q 44.578125 72.90625 50.734375 67.671875 
Q 56.890625 62.453125 56.890625 51.90625 
Q 56.890625 45.015625 53.6875 40.46875 
Q 50.484375 35.9375 44.390625 34.1875 
z
M 19.671875 64.796875 
L 19.671875 38.921875 
L 32.078125 38.921875 
Q 39.203125 38.921875 42.84375 42.21875 
Q 46.484375 45.515625 46.484375 51.90625 
Q 46.484375 58.296875 42.84375 61.546875 
Q 39.203125 64.796875 32.078125 64.796875 
z
" id="DejaVuSans-82"/>
      <path d="M 2.984375 54.6875 
L 12.5 54.6875 
L 29.59375 8.796875 
L 46.6875 54.6875 
L 56.203125 54.6875 
L 35.6875 0 
L 23.484375 0 
z
" id="DejaVuSans-118"/>
      <path d="M 54.890625 33.015625 
L 54.890625 0 
L 45.90625 0 
L 45.90625 32.71875 
Q 45.90625 40.484375 42.875 44.328125 
Q 39.84375 48.1875 33.796875 48.1875 
Q 26.515625 48.1875 22.3125 43.546875 
Q 18.109375 38.921875 18.109375 30.90625 
L 18.109375 0 
L 9.078125 0 
L 9.078125 75.984375 
L 18.109375 75.984375 
L 18.109375 46.1875 
Q 21.34375 51.125 25.703125 53.5625 
Q 30.078125 56 35.796875 56 
Q 45.21875 56 50.046875 50.171875 
Q 54.890625 44.34375 54.890625 33.015625 
z
" id="DejaVuSans-104"/>
      <path d="M 45.40625 27.984375 
Q 45.40625 37.75 41.375 43.109375 
Q 37.359375 48.484375 30.078125 48.484375 
Q 22.859375 48.484375 18.828125 43.109375 
Q 14.796875 37.75 14.796875 27.984375 
Q 14.796875 18.265625 18.828125 12.890625 
Q 22.859375 7.515625 30.078125 7.515625 
Q 37.359375 7.515625 41.375 12.890625 
Q 45.40625 18.265625 45.40625 27.984375 
z
M 54.390625 6.78125 
Q 54.390625 -7.171875 48.1875 -13.984375 
Q 42 -20.796875 29.203125 -20.796875 
Q 24.46875 -20.796875 20.265625 -20.09375 
Q 16.0625 -19.390625 12.109375 -17.921875 
L 12.109375 -9.1875 
Q 16.0625 -11.328125 19.921875 -12.34375 
Q 23.78125 -13.375 27.78125 -13.375 
Q 36.625 -13.375 41.015625 -8.765625 
Q 45.40625 -4.15625 45.40625 5.171875 
L 45.40625 9.625 
Q 42.625 4.78125 38.28125 2.390625 
Q 33.9375 0 27.875 0 
Q 17.828125 0 11.671875 7.65625 
Q 5.515625 15.328125 5.515625 27.984375 
Q 5.515625 40.671875 11.671875 48.328125 
Q 17.828125 56 27.875 56 
Q 33.9375 56 38.28125 53.609375 
Q 42.625 51.21875 45.40625 46.390625 
L 45.40625 54.6875 
L 54.390625 54.6875 
z
" id="DejaVuSans-103"/>
     </defs>
     <g transform="translate(245.34311 101.10812)rotate(-90)scale(0.08 -0.08)">
      <use xlink:href="#DejaVuSans-82"/>
      <use x="64.982422" xlink:href="#DejaVuSans-101"/>
      <use x="126.505859" xlink:href="#DejaVuSans-108"/>
      <use x="154.289062" xlink:href="#DejaVuSans-97"/>
      <use x="215.568359" xlink:href="#DejaVuSans-116"/>
      <use x="254.777344" xlink:href="#DejaVuSans-105"/>
      <use x="282.560547" xlink:href="#DejaVuSans-118"/>
      <use x="341.740234" xlink:href="#DejaVuSans-101"/>
      <use x="403.263672" xlink:href="#DejaVuSans-32"/>
      <use x="435.050781" xlink:href="#DejaVuSans-99"/>
      <use x="490.03125" xlink:href="#DejaVuSans-104"/>
      <use x="553.410156" xlink:href="#DejaVuSans-97"/>
      <use x="614.689453" xlink:href="#DejaVuSans-110"/>
      <use x="678.068359" xlink:href="#DejaVuSans-103"/>
      <use x="741.544922" xlink:href="#DejaVuSans-101"/>
     </g>
    </g>
   </g>
   <g id="line2d_30">
    <path clip-path="url(#p2b459cc0b4)" d="M 60.222225 43.535863 
L 62.645046 49.2823 
L 65.067868 43.535863 
L 67.49069 45.998622 
L 69.913512 46.819542 
L 72.336333 45.998622 
L 74.759155 42.714944 
L 77.181977 30.40115 
L 79.604799 36.147587 
L 82.02762 27.117472 
L 84.450442 35.326668 
L 86.873264 36.147587 
L 89.296086 36.968507 
L 91.718907 36.147587 
L 94.141729 38.610346 
L 96.564551 36.147587 
L 98.987372 35.326668 
L 101.410194 40.252185 
L 103.833016 41.894024 
L 106.255838 40.252185 
L 108.678659 53.386898 
L 111.101481 67.342531 
L 113.524303 69.80529 
L 115.947125 71.447129 
L 118.369946 64.058853 
L 120.792768 64.879772 
L 123.21559 78.014485 
L 125.638412 76.372646 
L 128.061233 80.477244 
L 130.484055 83.760922 
L 132.906877 75.551727 
L 135.329699 73.909888 
L 137.75252 73.909888 
L 140.175342 74.730807 
L 142.598164 73.909888 
L 145.020986 76.372646 
L 147.443807 79.656325 
L 149.866629 74.730807 
" style="fill:none;stroke:#d62728;stroke-linecap:square;stroke-opacity:0.5;"/>
   </g>
   <g id="line2d_31">
    <path clip-path="url(#p2b459cc0b4)" d="M 60.222225 43.535863 
L 62.645046 46.819542 
L 65.067868 45.998622 
L 67.49069 45.177702 
L 69.913512 46.819542 
L 72.336333 45.998622 
L 74.759155 43.535863 
L 77.181977 43.535863 
L 79.604799 47.640461 
L 82.02762 50.10322 
L 84.450442 48.461381 
L 86.873264 48.461381 
L 89.296086 48.461381 
L 91.718907 46.819542 
L 94.141729 46.819542 
L 96.564551 45.998622 
L 98.987372 50.924139 
L 101.410194 48.461381 
L 103.833016 47.640461 
L 106.255838 40.252185 
L 108.678659 26.296552 
L 111.101481 50.10322 
L 113.524303 51.745059 
L 115.947125 64.058853 
L 118.369946 55.849657 
L 120.792768 47.640461 
L 123.21559 61.596094 
L 125.638412 60.775174 
L 128.061233 62.417013 
L 130.484055 61.596094 
L 132.906877 64.879772 
L 135.329699 60.775174 
L 137.75252 59.133335 
L 140.175342 59.133335 
L 142.598164 58.312416 
L 145.020986 59.133335 
L 147.443807 55.849657 
L 149.866629 62.417013 
" style="fill:none;stroke:#9467bd;stroke-linecap:square;stroke-opacity:0.5;"/>
   </g>
   <g id="line2d_32">
    <path clip-path="url(#p2b459cc0b4)" d="M 60.222225 45.177702 
L 62.645046 47.640461 
L 65.067868 44.356783 
L 67.49069 42.714944 
L 69.913512 43.535863 
L 72.336333 44.356783 
L 74.759155 42.714944 
L 77.181977 39.431265 
L 79.604799 40.252185 
L 82.02762 40.252185 
L 84.450442 43.535863 
L 86.873264 45.177702 
L 89.296086 43.535863 
L 91.718907 45.177702 
L 94.141729 45.998622 
L 96.564551 38.610346 
L 98.987372 45.177702 
L 101.410194 46.819542 
L 103.833016 50.10322 
L 106.255838 52.565979 
L 108.678659 73.909888 
L 111.101481 83.760922 
L 113.524303 73.909888 
L 115.947125 85.402762 
L 118.369946 87.044601 
L 120.792768 89.507359 
L 123.21559 94.432877 
L 125.638412 91.970118 
L 128.061233 95.253796 
L 130.484055 89.507359 
L 132.906877 93.611957 
L 135.329699 93.611957 
L 137.75252 93.611957 
L 140.175342 92.791038 
L 142.598164 92.791038 
L 145.020986 94.432877 
L 147.443807 90.328279 
L 149.866629 93.611957 
" style="fill:none;stroke:#e377c2;stroke-linecap:square;stroke-opacity:0.5;"/>
   </g>
   <g id="line2d_33">
    <path clip-path="url(#p2b459cc0b4)" d="M 60.222225 46.819542 
L 62.645046 46.819542 
L 65.067868 44.356783 
L 67.49069 42.714944 
L 69.913512 41.894024 
L 72.336333 41.894024 
L 74.759155 41.894024 
L 77.181977 42.714944 
L 79.604799 44.356783 
L 82.02762 43.535863 
L 84.450442 42.714944 
L 86.873264 42.714944 
L 89.296086 42.714944 
L 91.718907 42.714944 
L 94.141729 43.535863 
L 96.564551 43.535863 
L 98.987372 45.998622 
L 101.410194 44.356783 
L 103.833016 44.356783 
L 106.255838 45.177702 
L 108.678659 67.342531 
L 111.101481 80.477244 
L 113.524303 57.491496 
L 115.947125 62.417013 
L 118.369946 85.402762 
L 120.792768 87.044601 
L 123.21559 88.68644 
L 125.638412 89.507359 
L 128.061233 90.328279 
L 130.484055 66.521611 
L 132.906877 67.342531 
L 135.329699 89.507359 
L 137.75252 89.507359 
L 140.175342 89.507359 
L 142.598164 89.507359 
L 145.020986 89.507359 
L 147.443807 67.342531 
L 149.866629 67.342531 
" style="fill:none;stroke:#bcbd22;stroke-linecap:square;stroke-opacity:0.5;"/>
   </g>
   <g id="line2d_34">
    <path clip-path="url(#p2b459cc0b4)" d="M 60.222225 43.535863 
L 62.645046 43.535863 
L 65.067868 44.356783 
L 67.49069 44.356783 
L 69.913512 43.535863 
L 72.336333 43.535863 
L 74.759155 44.356783 
L 77.181977 45.177702 
L 79.604799 44.356783 
L 82.02762 44.356783 
L 84.450442 44.356783 
L 86.873264 44.356783 
L 89.296086 44.356783 
L 91.718907 44.356783 
L 94.141729 44.356783 
L 96.564551 45.177702 
L 98.987372 44.356783 
L 101.410194 43.535863 
L 103.833016 42.714944 
L 106.255838 42.714944 
L 108.678659 34.505748 
L 111.101481 31.22207 
L 113.524303 37.789426 
L 115.947125 37.789426 
L 118.369946 30.40115 
L 120.792768 29.580231 
L 123.21559 27.938391 
L 125.638412 28.759311 
L 128.061233 27.117472 
L 130.484055 35.326668 
L 132.906877 36.968507 
L 135.329699 28.759311 
L 137.75252 28.759311 
L 140.175342 28.759311 
L 142.598164 28.759311 
L 145.020986 28.759311 
L 147.443807 36.147587 
L 149.866629 36.968507 
" style="fill:none;stroke:#17becf;stroke-linecap:square;stroke-opacity:0.5;"/>
   </g>
   <g id="patch_66">
    <path d="M 52.13 126.44874 
L 52.13 11.52 
" style="fill:none;stroke:#000000;stroke-linecap:square;stroke-linejoin:miter;stroke-width:0.8;"/>
   </g>
   <g id="patch_67">
    <path d="M 208.83811 126.44874 
L 208.83811 11.52 
" style="fill:none;stroke:#000000;stroke-linecap:square;stroke-linejoin:miter;stroke-width:0.8;"/>
   </g>
   <g id="patch_68">
    <path d="M 52.13 126.44874 
L 208.83811 126.44874 
" style="fill:none;stroke:#000000;stroke-linecap:square;stroke-linejoin:miter;stroke-width:0.8;"/>
   </g>
   <g id="patch_69">
    <path d="M 52.13 11.52 
L 208.83811 11.52 
" style="fill:none;stroke:#000000;stroke-linecap:square;stroke-linejoin:miter;stroke-width:0.8;"/>
   </g>
  </g>
 </g>
 <defs>
  <clipPath id="p2b459cc0b4">
   <rect height="114.92874" width="156.70811" x="52.13" y="11.52"/>
  </clipPath>
 </defs>
</svg>
