<?xml version="1.0" encoding="utf-8" standalone="no"?>
<!DOCTYPE svg PUBLIC "-//W3C//DTD SVG 1.1//EN"
  "http://www.w3.org/Graphics/SVG/1.1/DTD/svg11.dtd">
<!-- Created with matplotlib (https://matplotlib.org/) -->
<svg height="170.07874pt" version="1.1" viewBox="0 0 255.11811 170.07874" width="255.11811pt" xmlns="http://www.w3.org/2000/svg" xmlns:xlink="http://www.w3.org/1999/xlink">
 <defs>
  <style type="text/css">
*{stroke-linecap:butt;stroke-linejoin:round;}
  </style>
 </defs>
 <g id="figure_1">
  <g id="patch_1">
   <path d="M 0 170.07874 
L 255.11811 170.07874 
L 255.11811 0 
L 0 0 
z
" style="fill:#ffffff;"/>
  </g>
  <g id="axes_1">
   <g id="patch_2">
    <path d="M 42.05 126.44874 
L 208.83811 126.44874 
L 208.83811 11.52 
L 42.05 11.52 
z
" style="fill:#ffffff;"/>
   </g>
   <g id="PolyCollection_1">
    <defs>
     <path d="M 50.662744 -43.63 
L 50.662744 -43.63 
L 53.24141 -43.63 
L 55.820076 -43.630057 
L 58.398742 -43.630247 
L 60.977408 -43.630688 
L 63.556074 -43.631509 
L 66.134739 -43.632832 
L 68.713405 -43.63476 
L 71.292071 -43.637437 
L 73.870737 -43.641029 
L 76.449403 -43.645773 
L 79.028069 -43.651939 
L 81.606735 -43.659733 
L 84.185401 -43.669682 
L 86.764067 -43.682194 
L 89.342733 -43.697859 
L 91.921398 -43.717917 
L 94.500064 -43.743396 
L 97.07873 -43.774748 
L 99.657396 -43.81609 
L 102.236062 -43.86367 
L 104.814728 -43.923387 
L 107.393394 -43.999308 
L 109.97206 -44.098149 
L 112.550726 -44.220808 
L 115.129392 -44.371178 
L 117.708057 -44.549928 
L 120.286723 -44.761705 
L 122.865389 -45.00554 
L 125.444055 -45.278715 
L 128.022721 -45.580318 
L 130.601387 -45.88852 
L 133.180053 -46.22784 
L 135.758719 -46.55923 
L 138.337385 -46.902442 
L 140.916051 -47.212846 
L 143.494716 -47.548162 
L 146.073382 -47.883991 
L 146.073382 -53.511744 
L 146.073382 -53.511744 
L 143.494716 -52.542548 
L 140.916051 -51.574863 
L 138.337385 -50.724928 
L 135.758719 -49.929001 
L 133.180053 -49.215914 
L 130.601387 -48.602491 
L 128.022721 -47.991088 
L 125.444055 -47.427034 
L 122.865389 -46.933301 
L 120.286723 -46.493864 
L 117.708057 -46.089703 
L 115.129392 -45.751406 
L 112.550726 -45.450819 
L 109.97206 -45.19797 
L 107.393394 -44.978987 
L 104.814728 -44.782684 
L 102.236062 -44.619998 
L 99.657396 -44.473412 
L 97.07873 -44.346543 
L 94.500064 -44.23917 
L 91.921398 -44.138346 
L 89.342733 -44.04995 
L 86.764067 -43.971835 
L 84.185401 -43.904828 
L 81.606735 -43.846493 
L 79.028069 -43.795921 
L 76.449403 -43.753346 
L 73.870737 -43.718326 
L 71.292071 -43.69037 
L 68.713405 -43.668906 
L 66.134739 -43.653145 
L 63.556074 -43.642331 
L 60.977408 -43.635624 
L 58.398742 -43.63202 
L 55.820076 -43.630463 
L 53.24141 -43.63 
L 50.662744 -43.63 
z
" id="m5eda5911bd" style="stroke:#6495ed;stroke-opacity:0.4;"/>
    </defs>
    <g clip-path="url(#p0f1315ffbc)">
     <use style="fill:#6495ed;fill-opacity:0.4;stroke:#6495ed;stroke-opacity:0.4;" x="0" xlink:href="#m5eda5911bd" y="170.07874"/>
    </g>
   </g>
   <g id="PolyCollection_2">
    <defs>
     <path d="M 50.662744 -43.63 
L 50.662744 -43.63 
L 53.24141 -43.63 
L 55.820076 -43.63013 
L 58.398742 -43.630565 
L 60.977408 -43.631575 
L 63.556074 -43.633452 
L 66.134739 -43.636479 
L 68.713405 -43.640892 
L 71.292071 -43.64697 
L 73.870737 -43.655035 
L 76.449403 -43.66537 
L 79.028069 -43.67848 
L 81.606735 -43.694716 
L 84.185401 -43.714366 
L 86.764067 -43.737943 
L 89.342733 -43.766502 
L 91.921398 -43.800679 
L 94.500064 -43.841782 
L 97.07873 -43.890851 
L 99.657396 -43.949745 
L 102.236062 -44.019002 
L 104.814728 -44.103835 
L 107.393394 -44.207765 
L 109.97206 -44.337028 
L 112.550726 -44.495255 
L 115.129392 -44.689722 
L 117.708057 -44.91113 
L 120.286723 -45.168205 
L 122.865389 -45.466567 
L 125.444055 -45.800495 
L 128.022721 -46.157517 
L 130.601387 -46.540614 
L 133.180053 -46.950553 
L 135.758719 -47.380149 
L 138.337385 -47.826322 
L 140.916051 -48.286188 
L 143.494716 -48.742486 
L 146.073382 -49.218834 
L 146.073382 -51.07684 
L 146.073382 -51.07684 
L 143.494716 -50.405226 
L 140.916051 -49.736415 
L 138.337385 -49.100447 
L 135.758719 -48.515298 
L 133.180053 -47.958621 
L 130.601387 -47.439097 
L 128.022721 -46.959865 
L 125.444055 -46.517657 
L 122.865389 -46.107099 
L 120.286723 -45.741904 
L 117.708057 -45.419828 
L 115.129392 -45.140743 
L 112.550726 -44.897924 
L 109.97206 -44.697031 
L 107.393394 -44.526816 
L 104.814728 -44.385023 
L 102.236062 -44.267174 
L 99.657396 -44.165732 
L 97.07873 -44.077977 
L 94.500064 -44.001628 
L 91.921398 -43.936474 
L 89.342733 -43.8806 
L 86.764067 -43.831751 
L 84.185401 -43.790135 
L 81.606735 -43.754533 
L 79.028069 -43.72447 
L 76.449403 -43.699727 
L 73.870737 -43.679732 
L 71.292071 -43.663904 
L 68.713405 -43.65181 
L 66.134739 -43.642975 
L 63.556074 -43.636913 
L 60.977408 -43.633153 
L 58.398742 -43.631132 
L 55.820076 -43.63026 
L 53.24141 -43.63 
L 50.662744 -43.63 
z
" id="ma8502763ff" style="stroke:#6495ed;stroke-opacity:0.6;"/>
    </defs>
    <g clip-path="url(#p0f1315ffbc)">
     <use style="fill:#6495ed;fill-opacity:0.6;stroke:#6495ed;stroke-opacity:0.6;" x="0" xlink:href="#ma8502763ff" y="170.07874"/>
    </g>
   </g>
   <g id="PolyCollection_3">
    <defs>
     <path d="M 146.073382 -53.511744 
L 146.073382 -47.883991 
L 148.652048 -48.164871 
L 151.230714 -48.449774 
L 153.80938 -48.69811 
L 156.388046 -48.945924 
L 158.966712 -49.17257 
L 161.545378 -49.366895 
L 164.124044 -49.508754 
L 166.702709 -49.649785 
L 169.281375 -49.720806 
L 171.860041 -49.83494 
L 174.438707 -49.879676 
L 177.017373 -49.963415 
L 179.596039 -49.957042 
L 182.174705 -49.943654 
L 184.753371 -49.966075 
L 187.332037 -49.918565 
L 189.910703 -49.899795 
L 192.489368 -49.816951 
L 195.068034 -49.741111 
L 197.6467 -49.618186 
L 200.225366 -49.552239 
L 200.225366 -158.55874 
L 200.225366 -158.55874 
L 197.6467 -146.269197 
L 195.068034 -135.145548 
L 192.489368 -125.012597 
L 189.910703 -116.031158 
L 187.332037 -107.676642 
L 184.753371 -100.63425 
L 182.174705 -94.317331 
L 179.596039 -88.449146 
L 177.017373 -83.512365 
L 174.438707 -78.75564 
L 171.860041 -74.813276 
L 169.281375 -71.375052 
L 166.702709 -68.253108 
L 164.124044 -65.658767 
L 161.545378 -63.129185 
L 158.966712 -60.98959 
L 156.388046 -59.140541 
L 153.80938 -57.615306 
L 151.230714 -56.013393 
L 148.652048 -54.741328 
L 146.073382 -53.511744 
z
" id="m6876e71aca" style="stroke:#228b22;stroke-opacity:0.4;"/>
    </defs>
    <g clip-path="url(#p0f1315ffbc)">
     <use style="fill:#228b22;fill-opacity:0.4;stroke:#228b22;stroke-opacity:0.4;" x="0" xlink:href="#m6876e71aca" y="170.07874"/>
    </g>
   </g>
   <g id="PolyCollection_4">
    <defs>
     <path d="M 146.073382 -51.07684 
L 146.073382 -49.218834 
L 148.652048 -49.673133 
L 151.230714 -50.135595 
L 153.80938 -50.563788 
L 156.388046 -51.006115 
L 158.966712 -51.445561 
L 161.545378 -51.87875 
L 164.124044 -52.268437 
L 166.702709 -52.653138 
L 169.281375 -53.038638 
L 171.860041 -53.404118 
L 174.438707 -53.766468 
L 177.017373 -54.13424 
L 179.596039 -54.466681 
L 182.174705 -54.788644 
L 184.753371 -55.091029 
L 187.332037 -55.353164 
L 189.910703 -55.634996 
L 192.489368 -55.858155 
L 195.068034 -56.107637 
L 197.6467 -56.347099 
L 200.225366 -56.58987 
L 200.225366 -79.216321 
L 200.225366 -79.216321 
L 197.6467 -77.045899 
L 195.068034 -74.862524 
L 192.489368 -72.897169 
L 189.910703 -71.080271 
L 187.332037 -69.303662 
L 184.753371 -67.61936 
L 182.174705 -66.095333 
L 179.596039 -64.595114 
L 177.017373 -63.187953 
L 174.438707 -61.838916 
L 171.860041 -60.558856 
L 169.281375 -59.353394 
L 166.702709 -58.246622 
L 164.124044 -57.17686 
L 161.545378 -56.170741 
L 158.966712 -55.211515 
L 156.388046 -54.305954 
L 153.80938 -53.440849 
L 151.230714 -52.618514 
L 148.652048 -51.837604 
L 146.073382 -51.07684 
z
" id="mee6f8af00f" style="stroke:#228b22;stroke-opacity:0.6;"/>
    </defs>
    <g clip-path="url(#p0f1315ffbc)">
     <use style="fill:#228b22;fill-opacity:0.6;stroke:#228b22;stroke-opacity:0.6;" x="0" xlink:href="#mee6f8af00f" y="170.07874"/>
    </g>
   </g>
   <g id="PathCollection_1">
    <defs>
     <path d="M -0.866025 1.732051 
L 0 0.866025 
L 0.866025 1.732051 
L 1.732051 0.866025 
L 0.866025 0 
L 1.732051 -0.866025 
L 0.866025 -1.732051 
L 0 -0.866025 
L -0.866025 -1.732051 
L -1.732051 -0.866025 
L -0.866025 0 
L -1.732051 0.866025 
z
" id="meec1550960" style="stroke:#8a2be2;"/>
    </defs>
    <g clip-path="url(#p0f1315ffbc)">
     <use style="fill:#8a2be2;stroke:#8a2be2;" x="102.236062" xlink:href="#meec1550960" y="23.012874"/>
    </g>
   </g>
   <g id="PathCollection_2">
    <defs>
     <path d="M 0 -1.732051 
L -0.38887 -0.535233 
L -1.647278 -0.535233 
L -0.629204 0.204441 
L -1.018074 1.401259 
L -0 0.661585 
L 1.018074 1.401259 
L 0.629204 0.204441 
L 1.647278 -0.535233 
L 0.38887 -0.535233 
z
" id="m7c6ba9f062" style="stroke:#000000;"/>
    </defs>
    <g clip-path="url(#p0f1315ffbc)">
     <use style="stroke:#000000;" x="104.814728" xlink:href="#m7c6ba9f062" y="23.012874"/>
    </g>
   </g>
   <g id="PathCollection_3">
    <defs>
     <path d="M -1.732051 1.732051 
L 1.732051 1.732051 
L 1.732051 -1.732051 
L -1.732051 -1.732051 
z
" id="m05a71bdb4f" style="stroke:#c71585;"/>
    </defs>
    <g clip-path="url(#p0f1315ffbc)">
     <use style="fill:#c71585;stroke:#c71585;" x="117.708057" xlink:href="#m05a71bdb4f" y="23.012874"/>
    </g>
   </g>
   <g id="PathCollection_4">
    <defs>
     <path d="M 0 -1.732051 
L -1.647278 -0.535233 
L -1.018074 1.401259 
L 1.018074 1.401259 
L 1.647278 -0.535233 
z
" id="m8ac2e0581f" style="stroke:#800000;"/>
    </defs>
    <g clip-path="url(#p0f1315ffbc)">
     <use style="fill:#800000;stroke:#800000;" x="104.814728" xlink:href="#m8ac2e0581f" y="28.184667"/>
    </g>
   </g>
   <g id="PathCollection_5">
    <defs>
     <path d="M -0 2.44949 
L 1.469694 0 
L 0 -2.44949 
L -1.469694 -0 
z
" id="mf956197ead" style="stroke:#556b2f;"/>
    </defs>
    <g clip-path="url(#p0f1315ffbc)">
     <use style="fill:#556b2f;stroke:#556b2f;" x="102.236062" xlink:href="#mf956197ead" y="28.184667"/>
    </g>
   </g>
   <g id="patch_3">
    <path clip-path="url(#p0f1315ffbc)" d="M 49.631278 126.44874 
L 51.69421 126.44874 
L 51.69421 126.44874 
L 49.631278 126.44874 
z
" style="fill:#1f77b4;opacity:0.5;"/>
   </g>
   <g id="patch_4">
    <path clip-path="url(#p0f1315ffbc)" d="M 52.209944 126.44874 
L 54.272876 126.44874 
L 54.272876 126.44874 
L 52.209944 126.44874 
z
" style="fill:#1f77b4;opacity:0.5;"/>
   </g>
   <g id="patch_5">
    <path clip-path="url(#p0f1315ffbc)" d="M 54.78861 126.44874 
L 56.851542 126.44874 
L 56.851542 126.44874 
L 54.78861 126.44874 
z
" style="fill:#1f77b4;opacity:0.5;"/>
   </g>
   <g id="patch_6">
    <path clip-path="url(#p0f1315ffbc)" d="M 57.367275 126.44874 
L 59.430208 126.44874 
L 59.430208 126.44874 
L 57.367275 126.44874 
z
" style="fill:#1f77b4;opacity:0.5;"/>
   </g>
   <g id="patch_7">
    <path clip-path="url(#p0f1315ffbc)" d="M 59.945941 126.44874 
L 62.008874 126.44874 
L 62.008874 126.44874 
L 59.945941 126.44874 
z
" style="fill:#1f77b4;opacity:0.5;"/>
   </g>
   <g id="patch_8">
    <path clip-path="url(#p0f1315ffbc)" d="M 62.524607 126.44874 
L 64.58754 126.44874 
L 64.58754 126.44874 
L 62.524607 126.44874 
z
" style="fill:#1f77b4;opacity:0.5;"/>
   </g>
   <g id="patch_9">
    <path clip-path="url(#p0f1315ffbc)" d="M 65.103273 126.44874 
L 67.166206 126.44874 
L 67.166206 126.44874 
L 65.103273 126.44874 
z
" style="fill:#1f77b4;opacity:0.5;"/>
   </g>
   <g id="patch_10">
    <path clip-path="url(#p0f1315ffbc)" d="M 67.681939 126.44874 
L 69.744872 126.44874 
L 69.744872 126.44874 
L 67.681939 126.44874 
z
" style="fill:#1f77b4;opacity:0.5;"/>
   </g>
   <g id="patch_11">
    <path clip-path="url(#p0f1315ffbc)" d="M 70.260605 126.44874 
L 72.323538 126.44874 
L 72.323538 126.44874 
L 70.260605 126.44874 
z
" style="fill:#1f77b4;opacity:0.5;"/>
   </g>
   <g id="patch_12">
    <path clip-path="url(#p0f1315ffbc)" d="M 72.839271 126.44874 
L 74.902204 126.44874 
L 74.902204 126.44874 
L 72.839271 126.44874 
z
" style="fill:#1f77b4;opacity:0.5;"/>
   </g>
   <g id="patch_13">
    <path clip-path="url(#p0f1315ffbc)" d="M 75.417937 126.44874 
L 77.480869 126.44874 
L 77.480869 126.44874 
L 75.417937 126.44874 
z
" style="fill:#1f77b4;opacity:0.5;"/>
   </g>
   <g id="patch_14">
    <path clip-path="url(#p0f1315ffbc)" d="M 77.996603 126.44874 
L 80.059535 126.44874 
L 80.059535 126.44874 
L 77.996603 126.44874 
z
" style="fill:#1f77b4;opacity:0.5;"/>
   </g>
   <g id="patch_15">
    <path clip-path="url(#p0f1315ffbc)" d="M 80.575269 126.44874 
L 82.638201 126.44874 
L 82.638201 126.44874 
L 80.575269 126.44874 
z
" style="fill:#1f77b4;opacity:0.5;"/>
   </g>
   <g id="patch_16">
    <path clip-path="url(#p0f1315ffbc)" d="M 83.153934 126.44874 
L 85.216867 126.44874 
L 85.216867 126.44874 
L 83.153934 126.44874 
z
" style="fill:#1f77b4;opacity:0.5;"/>
   </g>
   <g id="patch_17">
    <path clip-path="url(#p0f1315ffbc)" d="M 85.7326 126.44874 
L 87.795533 126.44874 
L 87.795533 126.44874 
L 85.7326 126.44874 
z
" style="fill:#1f77b4;opacity:0.5;"/>
   </g>
   <g id="patch_18">
    <path clip-path="url(#p0f1315ffbc)" d="M 88.311266 126.44874 
L 90.374199 126.44874 
L 90.374199 126.44874 
L 88.311266 126.44874 
z
" style="fill:#1f77b4;opacity:0.5;"/>
   </g>
   <g id="patch_19">
    <path clip-path="url(#p0f1315ffbc)" d="M 90.889932 126.44874 
L 92.952865 126.44874 
L 92.952865 126.44874 
L 90.889932 126.44874 
z
" style="fill:#1f77b4;opacity:0.5;"/>
   </g>
   <g id="patch_20">
    <path clip-path="url(#p0f1315ffbc)" d="M 93.468598 126.44874 
L 95.531531 126.44874 
L 95.531531 126.44874 
L 93.468598 126.44874 
z
" style="fill:#1f77b4;opacity:0.5;"/>
   </g>
   <g id="patch_21">
    <path clip-path="url(#p0f1315ffbc)" d="M 96.047264 126.44874 
L 98.110197 126.44874 
L 98.110197 126.44874 
L 96.047264 126.44874 
z
" style="fill:#1f77b4;opacity:0.5;"/>
   </g>
   <g id="patch_22">
    <path clip-path="url(#p0f1315ffbc)" d="M 98.62593 126.44874 
L 100.688863 126.44874 
L 100.688863 126.44874 
L 98.62593 126.44874 
z
" style="fill:#1f77b4;opacity:0.5;"/>
   </g>
   <g id="patch_23">
    <path clip-path="url(#p0f1315ffbc)" d="M 101.204596 126.44874 
L 103.267528 126.44874 
L 103.267528 126.44874 
L 101.204596 126.44874 
z
" style="fill:#1f77b4;opacity:0.5;"/>
   </g>
   <g id="patch_24">
    <path clip-path="url(#p0f1315ffbc)" d="M 103.783262 126.44874 
L 105.846194 126.44874 
L 105.846194 126.44874 
L 103.783262 126.44874 
z
" style="fill:#1f77b4;opacity:0.5;"/>
   </g>
   <g id="patch_25">
    <path clip-path="url(#p0f1315ffbc)" d="M 106.361927 126.44874 
L 108.42486 126.44874 
L 108.42486 126.44874 
L 106.361927 126.44874 
z
" style="fill:#1f77b4;opacity:0.5;"/>
   </g>
   <g id="patch_26">
    <path clip-path="url(#p0f1315ffbc)" d="M 108.940593 126.44874 
L 111.003526 126.44874 
L 111.003526 126.44874 
L 108.940593 126.44874 
z
" style="fill:#1f77b4;opacity:0.5;"/>
   </g>
   <g id="patch_27">
    <path clip-path="url(#p0f1315ffbc)" d="M 111.519259 126.44874 
L 113.582192 126.44874 
L 113.582192 125.762293 
L 111.519259 125.762293 
z
" style="fill:#1f77b4;opacity:0.5;"/>
   </g>
   <g id="patch_28">
    <path clip-path="url(#p0f1315ffbc)" d="M 114.097925 126.44874 
L 116.160858 126.44874 
L 116.160858 126.44874 
L 114.097925 126.44874 
z
" style="fill:#1f77b4;opacity:0.5;"/>
   </g>
   <g id="patch_29">
    <path clip-path="url(#p0f1315ffbc)" d="M 116.676591 126.44874 
L 118.739524 126.44874 
L 118.739524 124.389398 
L 116.676591 124.389398 
z
" style="fill:#1f77b4;opacity:0.5;"/>
   </g>
   <g id="patch_30">
    <path clip-path="url(#p0f1315ffbc)" d="M 119.255257 126.44874 
L 121.31819 126.44874 
L 121.31819 126.44874 
L 119.255257 126.44874 
z
" style="fill:#1f77b4;opacity:0.5;"/>
   </g>
   <g id="patch_31">
    <path clip-path="url(#p0f1315ffbc)" d="M 121.833923 126.44874 
L 123.896856 126.44874 
L 123.896856 125.075846 
L 121.833923 125.075846 
z
" style="fill:#1f77b4;opacity:0.5;"/>
   </g>
   <g id="patch_32">
    <path clip-path="url(#p0f1315ffbc)" d="M 124.412589 126.44874 
L 126.475521 126.44874 
L 126.475521 124.389398 
L 124.412589 124.389398 
z
" style="fill:#1f77b4;opacity:0.5;"/>
   </g>
   <g id="patch_33">
    <path clip-path="url(#p0f1315ffbc)" d="M 126.991255 126.44874 
L 129.054187 126.44874 
L 129.054187 123.702951 
L 126.991255 123.702951 
z
" style="fill:#1f77b4;opacity:0.5;"/>
   </g>
   <g id="patch_34">
    <path clip-path="url(#p0f1315ffbc)" d="M 129.569921 126.44874 
L 131.632853 126.44874 
L 131.632853 126.44874 
L 129.569921 126.44874 
z
" style="fill:#1f77b4;opacity:0.5;"/>
   </g>
   <g id="patch_35">
    <path clip-path="url(#p0f1315ffbc)" d="M 132.148586 126.44874 
L 134.211519 126.44874 
L 134.211519 118.89782 
L 132.148586 118.89782 
z
" style="fill:#1f77b4;opacity:0.5;"/>
   </g>
   <g id="patch_36">
    <path clip-path="url(#p0f1315ffbc)" d="M 134.727252 126.44874 
L 136.790185 126.44874 
L 136.790185 120.957162 
L 134.727252 120.957162 
z
" style="fill:#1f77b4;opacity:0.5;"/>
   </g>
   <g id="patch_37">
    <path clip-path="url(#p0f1315ffbc)" d="M 137.305918 126.44874 
L 139.368851 126.44874 
L 139.368851 125.075846 
L 137.305918 125.075846 
z
" style="fill:#1f77b4;opacity:0.5;"/>
   </g>
   <g id="patch_38">
    <path clip-path="url(#p0f1315ffbc)" d="M 139.884584 126.44874 
L 141.947517 126.44874 
L 141.947517 121.643609 
L 139.884584 121.643609 
z
" style="fill:#1f77b4;opacity:0.5;"/>
   </g>
   <g id="patch_39">
    <path clip-path="url(#p0f1315ffbc)" d="M 142.46325 126.44874 
L 144.526183 126.44874 
L 144.526183 118.89782 
L 142.46325 118.89782 
z
" style="fill:#1f77b4;opacity:0.5;"/>
   </g>
   <g id="patch_40">
    <path clip-path="url(#p0f1315ffbc)" d="M 145.041916 126.44874 
L 147.104849 126.44874 
L 147.104849 117.524926 
L 145.041916 117.524926 
z
" style="fill:#1f77b4;opacity:0.5;"/>
   </g>
   <g id="patch_41">
    <path clip-path="url(#p0f1315ffbc)" d="M 147.620582 126.44874 
L 149.683515 126.44874 
L 149.683515 121.643609 
L 147.620582 121.643609 
z
" style="fill:#1f77b4;opacity:0.5;"/>
   </g>
   <g id="patch_42">
    <path clip-path="url(#p0f1315ffbc)" d="M 150.199248 126.44874 
L 152.26218 126.44874 
L 152.26218 123.016504 
L 150.199248 123.016504 
z
" style="fill:#1f77b4;opacity:0.5;"/>
   </g>
   <g id="patch_43">
    <path clip-path="url(#p0f1315ffbc)" d="M 152.777914 126.44874 
L 154.840846 126.44874 
L 154.840846 117.524926 
L 152.777914 117.524926 
z
" style="fill:#1f77b4;opacity:0.5;"/>
   </g>
   <g id="patch_44">
    <path clip-path="url(#p0f1315ffbc)" d="M 155.35658 126.44874 
L 157.419512 126.44874 
L 157.419512 116.838478 
L 155.35658 116.838478 
z
" style="fill:#1f77b4;opacity:0.5;"/>
   </g>
   <g id="patch_45">
    <path clip-path="url(#p0f1315ffbc)" d="M 157.935245 126.44874 
L 159.998178 126.44874 
L 159.998178 113.406242 
L 157.935245 113.406242 
z
" style="fill:#1f77b4;opacity:0.5;"/>
   </g>
   <g id="patch_46">
    <path clip-path="url(#p0f1315ffbc)" d="M 160.513911 126.44874 
L 162.576844 126.44874 
L 162.576844 115.465584 
L 160.513911 115.465584 
z
" style="fill:#1f77b4;opacity:0.5;"/>
   </g>
   <g id="patch_47">
    <path clip-path="url(#p0f1315ffbc)" d="M 163.092577 126.44874 
L 165.15551 126.44874 
L 165.15551 111.3469 
L 163.092577 111.3469 
z
" style="fill:#1f77b4;opacity:0.5;"/>
   </g>
   <g id="patch_48">
    <path clip-path="url(#p0f1315ffbc)" d="M 165.671243 126.44874 
L 167.734176 126.44874 
L 167.734176 114.092689 
L 165.671243 114.092689 
z
" style="fill:#1f77b4;opacity:0.5;"/>
   </g>
   <g id="patch_49">
    <path clip-path="url(#p0f1315ffbc)" d="M 168.249909 126.44874 
L 170.312842 126.44874 
L 170.312842 120.957162 
L 168.249909 120.957162 
z
" style="fill:#1f77b4;opacity:0.5;"/>
   </g>
   <g id="patch_50">
    <path clip-path="url(#p0f1315ffbc)" d="M 170.828575 126.44874 
L 172.891508 126.44874 
L 172.891508 115.465584 
L 170.828575 115.465584 
z
" style="fill:#1f77b4;opacity:0.5;"/>
   </g>
   <g id="patch_51">
    <path clip-path="url(#p0f1315ffbc)" d="M 173.407241 126.44874 
L 175.470174 126.44874 
L 175.470174 116.152031 
L 173.407241 116.152031 
z
" style="fill:#1f77b4;opacity:0.5;"/>
   </g>
   <g id="patch_52">
    <path clip-path="url(#p0f1315ffbc)" d="M 175.985907 126.44874 
L 178.048839 126.44874 
L 178.048839 113.406242 
L 175.985907 113.406242 
z
" style="fill:#1f77b4;opacity:0.5;"/>
   </g>
   <g id="patch_53">
    <path clip-path="url(#p0f1315ffbc)" d="M 178.564573 126.44874 
L 180.627505 126.44874 
L 180.627505 119.584267 
L 178.564573 119.584267 
z
" style="fill:#1f77b4;opacity:0.5;"/>
   </g>
   <g id="patch_54">
    <path clip-path="url(#p0f1315ffbc)" d="M 181.143238 126.44874 
L 183.206171 126.44874 
L 183.206171 117.524926 
L 181.143238 117.524926 
z
" style="fill:#1f77b4;opacity:0.5;"/>
   </g>
   <g id="patch_55">
    <path clip-path="url(#p0f1315ffbc)" d="M 183.721904 126.44874 
L 185.784837 126.44874 
L 185.784837 117.524926 
L 183.721904 117.524926 
z
" style="fill:#1f77b4;opacity:0.5;"/>
   </g>
   <g id="patch_56">
    <path clip-path="url(#p0f1315ffbc)" d="M 186.30057 126.44874 
L 188.363503 126.44874 
L 188.363503 118.211373 
L 186.30057 118.211373 
z
" style="fill:#1f77b4;opacity:0.5;"/>
   </g>
   <g id="patch_57">
    <path clip-path="url(#p0f1315ffbc)" d="M 188.879236 126.44874 
L 190.942169 126.44874 
L 190.942169 116.838478 
L 188.879236 116.838478 
z
" style="fill:#1f77b4;opacity:0.5;"/>
   </g>
   <g id="patch_58">
    <path clip-path="url(#p0f1315ffbc)" d="M 191.457902 126.44874 
L 193.520835 126.44874 
L 193.520835 119.584267 
L 191.457902 119.584267 
z
" style="fill:#1f77b4;opacity:0.5;"/>
   </g>
   <g id="patch_59">
    <path clip-path="url(#p0f1315ffbc)" d="M 194.036568 126.44874 
L 196.099501 126.44874 
L 196.099501 118.211373 
L 194.036568 118.211373 
z
" style="fill:#1f77b4;opacity:0.5;"/>
   </g>
   <g id="patch_60">
    <path clip-path="url(#p0f1315ffbc)" d="M 196.615234 126.44874 
L 198.678167 126.44874 
L 198.678167 116.152031 
L 196.615234 116.152031 
z
" style="fill:#1f77b4;opacity:0.5;"/>
   </g>
   <g id="patch_61">
    <path clip-path="url(#p0f1315ffbc)" d="M 199.1939 126.44874 
L 201.256832 126.44874 
L 201.256832 119.584267 
L 199.1939 119.584267 
z
" style="fill:#1f77b4;opacity:0.5;"/>
   </g>
   <g id="matplotlib.axis_1">
    <g id="xtick_1">
     <g id="line2d_1">
      <defs>
       <path d="M 0 0 
L 0 3.5 
" id="md5b39dc55b" style="stroke:#000000;stroke-width:0.8;"/>
      </defs>
      <g>
       <use style="stroke:#000000;stroke-width:0.8;" x="200.225366" xlink:href="#md5b39dc55b" y="126.44874"/>
      </g>
     </g>
     <g id="text_1">
      <!-- 19 Apr -->
      <defs>
       <path d="M 12.40625 8.296875 
L 28.515625 8.296875 
L 28.515625 63.921875 
L 10.984375 60.40625 
L 10.984375 69.390625 
L 28.421875 72.90625 
L 38.28125 72.90625 
L 38.28125 8.296875 
L 54.390625 8.296875 
L 54.390625 0 
L 12.40625 0 
z
" id="DejaVuSans-49"/>
       <path d="M 10.984375 1.515625 
L 10.984375 10.5 
Q 14.703125 8.734375 18.5 7.8125 
Q 22.3125 6.890625 25.984375 6.890625 
Q 35.75 6.890625 40.890625 13.453125 
Q 46.046875 20.015625 46.78125 33.40625 
Q 43.953125 29.203125 39.59375 26.953125 
Q 35.25 24.703125 29.984375 24.703125 
Q 19.046875 24.703125 12.671875 31.3125 
Q 6.296875 37.9375 6.296875 49.421875 
Q 6.296875 60.640625 12.9375 67.421875 
Q 19.578125 74.21875 30.609375 74.21875 
Q 43.265625 74.21875 49.921875 64.515625 
Q 56.59375 54.828125 56.59375 36.375 
Q 56.59375 19.140625 48.40625 8.859375 
Q 40.234375 -1.421875 26.421875 -1.421875 
Q 22.703125 -1.421875 18.890625 -0.6875 
Q 15.09375 0.046875 10.984375 1.515625 
z
M 30.609375 32.421875 
Q 37.25 32.421875 41.125 36.953125 
Q 45.015625 41.5 45.015625 49.421875 
Q 45.015625 57.28125 41.125 61.84375 
Q 37.25 66.40625 30.609375 66.40625 
Q 23.96875 66.40625 20.09375 61.84375 
Q 16.21875 57.28125 16.21875 49.421875 
Q 16.21875 41.5 20.09375 36.953125 
Q 23.96875 32.421875 30.609375 32.421875 
z
" id="DejaVuSans-57"/>
       <path id="DejaVuSans-32"/>
       <path d="M 34.1875 63.1875 
L 20.796875 26.90625 
L 47.609375 26.90625 
z
M 28.609375 72.90625 
L 39.796875 72.90625 
L 67.578125 0 
L 57.328125 0 
L 50.6875 18.703125 
L 17.828125 18.703125 
L 11.1875 0 
L 0.78125 0 
z
" id="DejaVuSans-65"/>
       <path d="M 18.109375 8.203125 
L 18.109375 -20.796875 
L 9.078125 -20.796875 
L 9.078125 54.6875 
L 18.109375 54.6875 
L 18.109375 46.390625 
Q 20.953125 51.265625 25.265625 53.625 
Q 29.59375 56 35.59375 56 
Q 45.5625 56 51.78125 48.09375 
Q 58.015625 40.1875 58.015625 27.296875 
Q 58.015625 14.40625 51.78125 6.484375 
Q 45.5625 -1.421875 35.59375 -1.421875 
Q 29.59375 -1.421875 25.265625 0.953125 
Q 20.953125 3.328125 18.109375 8.203125 
z
M 48.6875 27.296875 
Q 48.6875 37.203125 44.609375 42.84375 
Q 40.53125 48.484375 33.40625 48.484375 
Q 26.265625 48.484375 22.1875 42.84375 
Q 18.109375 37.203125 18.109375 27.296875 
Q 18.109375 17.390625 22.1875 11.75 
Q 26.265625 6.109375 33.40625 6.109375 
Q 40.53125 6.109375 44.609375 11.75 
Q 48.6875 17.390625 48.6875 27.296875 
z
" id="DejaVuSans-112"/>
       <path d="M 41.109375 46.296875 
Q 39.59375 47.171875 37.8125 47.578125 
Q 36.03125 48 33.890625 48 
Q 26.265625 48 22.1875 43.046875 
Q 18.109375 38.09375 18.109375 28.8125 
L 18.109375 0 
L 9.078125 0 
L 9.078125 54.6875 
L 18.109375 54.6875 
L 18.109375 46.1875 
Q 20.953125 51.171875 25.484375 53.578125 
Q 30.03125 56 36.53125 56 
Q 37.453125 56 38.578125 55.875 
Q 39.703125 55.765625 41.0625 55.515625 
z
" id="DejaVuSans-114"/>
      </defs>
      <g transform="translate(202.432866 160.01124)rotate(-90)scale(0.08 -0.08)">
       <use xlink:href="#DejaVuSans-49"/>
       <use x="63.623047" xlink:href="#DejaVuSans-57"/>
       <use x="127.246094" xlink:href="#DejaVuSans-32"/>
       <use x="159.033203" xlink:href="#DejaVuSans-65"/>
       <use x="227.441406" xlink:href="#DejaVuSans-112"/>
       <use x="290.917969" xlink:href="#DejaVuSans-114"/>
      </g>
     </g>
    </g>
    <g id="xtick_2">
     <g id="line2d_2">
      <g>
       <use style="stroke:#000000;stroke-width:0.8;" x="182.174705" xlink:href="#md5b39dc55b" y="126.44874"/>
      </g>
     </g>
     <g id="text_2">
      <!-- 12 Apr -->
      <defs>
       <path d="M 19.1875 8.296875 
L 53.609375 8.296875 
L 53.609375 0 
L 7.328125 0 
L 7.328125 8.296875 
Q 12.9375 14.109375 22.625 23.890625 
Q 32.328125 33.6875 34.8125 36.53125 
Q 39.546875 41.84375 41.421875 45.53125 
Q 43.3125 49.21875 43.3125 52.78125 
Q 43.3125 58.59375 39.234375 62.25 
Q 35.15625 65.921875 28.609375 65.921875 
Q 23.96875 65.921875 18.8125 64.3125 
Q 13.671875 62.703125 7.8125 59.421875 
L 7.8125 69.390625 
Q 13.765625 71.78125 18.9375 73 
Q 24.125 74.21875 28.421875 74.21875 
Q 39.75 74.21875 46.484375 68.546875 
Q 53.21875 62.890625 53.21875 53.421875 
Q 53.21875 48.921875 51.53125 44.890625 
Q 49.859375 40.875 45.40625 35.40625 
Q 44.1875 33.984375 37.640625 27.21875 
Q 31.109375 20.453125 19.1875 8.296875 
z
" id="DejaVuSans-50"/>
      </defs>
      <g transform="translate(184.382205 160.01124)rotate(-90)scale(0.08 -0.08)">
       <use xlink:href="#DejaVuSans-49"/>
       <use x="63.623047" xlink:href="#DejaVuSans-50"/>
       <use x="127.246094" xlink:href="#DejaVuSans-32"/>
       <use x="159.033203" xlink:href="#DejaVuSans-65"/>
       <use x="227.441406" xlink:href="#DejaVuSans-112"/>
       <use x="290.917969" xlink:href="#DejaVuSans-114"/>
      </g>
     </g>
    </g>
    <g id="xtick_3">
     <g id="line2d_3">
      <g>
       <use style="stroke:#000000;stroke-width:0.8;" x="164.124044" xlink:href="#md5b39dc55b" y="126.44874"/>
      </g>
     </g>
     <g id="text_3">
      <!-- 5 Apr -->
      <defs>
       <path d="M 10.796875 72.90625 
L 49.515625 72.90625 
L 49.515625 64.59375 
L 19.828125 64.59375 
L 19.828125 46.734375 
Q 21.96875 47.46875 24.109375 47.828125 
Q 26.265625 48.1875 28.421875 48.1875 
Q 40.625 48.1875 47.75 41.5 
Q 54.890625 34.8125 54.890625 23.390625 
Q 54.890625 11.625 47.5625 5.09375 
Q 40.234375 -1.421875 26.90625 -1.421875 
Q 22.3125 -1.421875 17.546875 -0.640625 
Q 12.796875 0.140625 7.71875 1.703125 
L 7.71875 11.625 
Q 12.109375 9.234375 16.796875 8.0625 
Q 21.484375 6.890625 26.703125 6.890625 
Q 35.15625 6.890625 40.078125 11.328125 
Q 45.015625 15.765625 45.015625 23.390625 
Q 45.015625 31 40.078125 35.4375 
Q 35.15625 39.890625 26.703125 39.890625 
Q 22.75 39.890625 18.8125 39.015625 
Q 14.890625 38.140625 10.796875 36.28125 
z
" id="DejaVuSans-53"/>
      </defs>
      <g transform="translate(166.331544 154.92124)rotate(-90)scale(0.08 -0.08)">
       <use xlink:href="#DejaVuSans-53"/>
       <use x="63.623047" xlink:href="#DejaVuSans-32"/>
       <use x="95.410156" xlink:href="#DejaVuSans-65"/>
       <use x="163.818359" xlink:href="#DejaVuSans-112"/>
       <use x="227.294922" xlink:href="#DejaVuSans-114"/>
      </g>
     </g>
    </g>
    <g id="xtick_4">
     <g id="line2d_4">
      <g>
       <use style="stroke:#000000;stroke-width:0.8;" x="146.073382" xlink:href="#md5b39dc55b" y="126.44874"/>
      </g>
     </g>
     <g id="text_4">
      <!-- 29 Mar -->
      <defs>
       <path d="M 9.8125 72.90625 
L 24.515625 72.90625 
L 43.109375 23.296875 
L 61.8125 72.90625 
L 76.515625 72.90625 
L 76.515625 0 
L 66.890625 0 
L 66.890625 64.015625 
L 48.09375 14.015625 
L 38.1875 14.015625 
L 19.390625 64.015625 
L 19.390625 0 
L 9.8125 0 
z
" id="DejaVuSans-77"/>
       <path d="M 34.28125 27.484375 
Q 23.390625 27.484375 19.1875 25 
Q 14.984375 22.515625 14.984375 16.5 
Q 14.984375 11.71875 18.140625 8.90625 
Q 21.296875 6.109375 26.703125 6.109375 
Q 34.1875 6.109375 38.703125 11.40625 
Q 43.21875 16.703125 43.21875 25.484375 
L 43.21875 27.484375 
z
M 52.203125 31.203125 
L 52.203125 0 
L 43.21875 0 
L 43.21875 8.296875 
Q 40.140625 3.328125 35.546875 0.953125 
Q 30.953125 -1.421875 24.3125 -1.421875 
Q 15.921875 -1.421875 10.953125 3.296875 
Q 6 8.015625 6 15.921875 
Q 6 25.140625 12.171875 29.828125 
Q 18.359375 34.515625 30.609375 34.515625 
L 43.21875 34.515625 
L 43.21875 35.40625 
Q 43.21875 41.609375 39.140625 45 
Q 35.0625 48.390625 27.6875 48.390625 
Q 23 48.390625 18.546875 47.265625 
Q 14.109375 46.140625 10.015625 43.890625 
L 10.015625 52.203125 
Q 14.9375 54.109375 19.578125 55.046875 
Q 24.21875 56 28.609375 56 
Q 40.484375 56 46.34375 49.84375 
Q 52.203125 43.703125 52.203125 31.203125 
z
" id="DejaVuSans-97"/>
      </defs>
      <g transform="translate(148.280882 161.26499)rotate(-90)scale(0.08 -0.08)">
       <use xlink:href="#DejaVuSans-50"/>
       <use x="63.623047" xlink:href="#DejaVuSans-57"/>
       <use x="127.246094" xlink:href="#DejaVuSans-32"/>
       <use x="159.033203" xlink:href="#DejaVuSans-77"/>
       <use x="245.3125" xlink:href="#DejaVuSans-97"/>
       <use x="306.591797" xlink:href="#DejaVuSans-114"/>
      </g>
     </g>
    </g>
    <g id="xtick_5">
     <g id="line2d_5">
      <g>
       <use style="stroke:#000000;stroke-width:0.8;" x="128.022721" xlink:href="#md5b39dc55b" y="126.44874"/>
      </g>
     </g>
     <g id="text_5">
      <!-- 22 Mar -->
      <g transform="translate(130.230221 161.26499)rotate(-90)scale(0.08 -0.08)">
       <use xlink:href="#DejaVuSans-50"/>
       <use x="63.623047" xlink:href="#DejaVuSans-50"/>
       <use x="127.246094" xlink:href="#DejaVuSans-32"/>
       <use x="159.033203" xlink:href="#DejaVuSans-77"/>
       <use x="245.3125" xlink:href="#DejaVuSans-97"/>
       <use x="306.591797" xlink:href="#DejaVuSans-114"/>
      </g>
     </g>
    </g>
    <g id="xtick_6">
     <g id="line2d_6">
      <g>
       <use style="stroke:#000000;stroke-width:0.8;" x="109.97206" xlink:href="#md5b39dc55b" y="126.44874"/>
      </g>
     </g>
     <g id="text_6">
      <!-- 15 Mar -->
      <g transform="translate(112.17956 161.26499)rotate(-90)scale(0.08 -0.08)">
       <use xlink:href="#DejaVuSans-49"/>
       <use x="63.623047" xlink:href="#DejaVuSans-53"/>
       <use x="127.246094" xlink:href="#DejaVuSans-32"/>
       <use x="159.033203" xlink:href="#DejaVuSans-77"/>
       <use x="245.3125" xlink:href="#DejaVuSans-97"/>
       <use x="306.591797" xlink:href="#DejaVuSans-114"/>
      </g>
     </g>
    </g>
    <g id="xtick_7">
     <g id="line2d_7">
      <g>
       <use style="stroke:#000000;stroke-width:0.8;" x="91.921398" xlink:href="#md5b39dc55b" y="126.44874"/>
      </g>
     </g>
     <g id="text_7">
      <!-- 8 Mar -->
      <defs>
       <path d="M 31.78125 34.625 
Q 24.75 34.625 20.71875 30.859375 
Q 16.703125 27.09375 16.703125 20.515625 
Q 16.703125 13.921875 20.71875 10.15625 
Q 24.75 6.390625 31.78125 6.390625 
Q 38.8125 6.390625 42.859375 10.171875 
Q 46.921875 13.96875 46.921875 20.515625 
Q 46.921875 27.09375 42.890625 30.859375 
Q 38.875 34.625 31.78125 34.625 
z
M 21.921875 38.8125 
Q 15.578125 40.375 12.03125 44.71875 
Q 8.5 49.078125 8.5 55.328125 
Q 8.5 64.0625 14.71875 69.140625 
Q 20.953125 74.21875 31.78125 74.21875 
Q 42.671875 74.21875 48.875 69.140625 
Q 55.078125 64.0625 55.078125 55.328125 
Q 55.078125 49.078125 51.53125 44.71875 
Q 48 40.375 41.703125 38.8125 
Q 48.828125 37.15625 52.796875 32.3125 
Q 56.78125 27.484375 56.78125 20.515625 
Q 56.78125 9.90625 50.3125 4.234375 
Q 43.84375 -1.421875 31.78125 -1.421875 
Q 19.734375 -1.421875 13.25 4.234375 
Q 6.78125 9.90625 6.78125 20.515625 
Q 6.78125 27.484375 10.78125 32.3125 
Q 14.796875 37.15625 21.921875 38.8125 
z
M 18.3125 54.390625 
Q 18.3125 48.734375 21.84375 45.5625 
Q 25.390625 42.390625 31.78125 42.390625 
Q 38.140625 42.390625 41.71875 45.5625 
Q 45.3125 48.734375 45.3125 54.390625 
Q 45.3125 60.0625 41.71875 63.234375 
Q 38.140625 66.40625 31.78125 66.40625 
Q 25.390625 66.40625 21.84375 63.234375 
Q 18.3125 60.0625 18.3125 54.390625 
z
" id="DejaVuSans-56"/>
      </defs>
      <g transform="translate(94.128898 156.17499)rotate(-90)scale(0.08 -0.08)">
       <use xlink:href="#DejaVuSans-56"/>
       <use x="63.623047" xlink:href="#DejaVuSans-32"/>
       <use x="95.410156" xlink:href="#DejaVuSans-77"/>
       <use x="181.689453" xlink:href="#DejaVuSans-97"/>
       <use x="242.96875" xlink:href="#DejaVuSans-114"/>
      </g>
     </g>
    </g>
    <g id="xtick_8">
     <g id="line2d_8">
      <g>
       <use style="stroke:#000000;stroke-width:0.8;" x="73.870737" xlink:href="#md5b39dc55b" y="126.44874"/>
      </g>
     </g>
     <g id="text_8">
      <!-- 1 Mar -->
      <g transform="translate(76.078237 156.17499)rotate(-90)scale(0.08 -0.08)">
       <use xlink:href="#DejaVuSans-49"/>
       <use x="63.623047" xlink:href="#DejaVuSans-32"/>
       <use x="95.410156" xlink:href="#DejaVuSans-77"/>
       <use x="181.689453" xlink:href="#DejaVuSans-97"/>
       <use x="242.96875" xlink:href="#DejaVuSans-114"/>
      </g>
     </g>
    </g>
    <g id="xtick_9">
     <g id="line2d_9">
      <g>
       <use style="stroke:#000000;stroke-width:0.8;" x="55.820076" xlink:href="#md5b39dc55b" y="126.44874"/>
      </g>
     </g>
     <g id="text_9">
      <!-- 23 Feb -->
      <defs>
       <path d="M 40.578125 39.3125 
Q 47.65625 37.796875 51.625 33 
Q 55.609375 28.21875 55.609375 21.1875 
Q 55.609375 10.40625 48.1875 4.484375 
Q 40.765625 -1.421875 27.09375 -1.421875 
Q 22.515625 -1.421875 17.65625 -0.515625 
Q 12.796875 0.390625 7.625 2.203125 
L 7.625 11.71875 
Q 11.71875 9.328125 16.59375 8.109375 
Q 21.484375 6.890625 26.8125 6.890625 
Q 36.078125 6.890625 40.9375 10.546875 
Q 45.796875 14.203125 45.796875 21.1875 
Q 45.796875 27.640625 41.28125 31.265625 
Q 36.765625 34.90625 28.71875 34.90625 
L 20.21875 34.90625 
L 20.21875 43.015625 
L 29.109375 43.015625 
Q 36.375 43.015625 40.234375 45.921875 
Q 44.09375 48.828125 44.09375 54.296875 
Q 44.09375 59.90625 40.109375 62.90625 
Q 36.140625 65.921875 28.71875 65.921875 
Q 24.65625 65.921875 20.015625 65.03125 
Q 15.375 64.15625 9.8125 62.3125 
L 9.8125 71.09375 
Q 15.4375 72.65625 20.34375 73.4375 
Q 25.25 74.21875 29.59375 74.21875 
Q 40.828125 74.21875 47.359375 69.109375 
Q 53.90625 64.015625 53.90625 55.328125 
Q 53.90625 49.265625 50.4375 45.09375 
Q 46.96875 40.921875 40.578125 39.3125 
z
" id="DejaVuSans-51"/>
       <path d="M 9.8125 72.90625 
L 51.703125 72.90625 
L 51.703125 64.59375 
L 19.671875 64.59375 
L 19.671875 43.109375 
L 48.578125 43.109375 
L 48.578125 34.8125 
L 19.671875 34.8125 
L 19.671875 0 
L 9.8125 0 
z
" id="DejaVuSans-70"/>
       <path d="M 56.203125 29.59375 
L 56.203125 25.203125 
L 14.890625 25.203125 
Q 15.484375 15.921875 20.484375 11.0625 
Q 25.484375 6.203125 34.421875 6.203125 
Q 39.59375 6.203125 44.453125 7.46875 
Q 49.3125 8.734375 54.109375 11.28125 
L 54.109375 2.78125 
Q 49.265625 0.734375 44.1875 -0.34375 
Q 39.109375 -1.421875 33.890625 -1.421875 
Q 20.796875 -1.421875 13.15625 6.1875 
Q 5.515625 13.8125 5.515625 26.8125 
Q 5.515625 40.234375 12.765625 48.109375 
Q 20.015625 56 32.328125 56 
Q 43.359375 56 49.78125 48.890625 
Q 56.203125 41.796875 56.203125 29.59375 
z
M 47.21875 32.234375 
Q 47.125 39.59375 43.09375 43.984375 
Q 39.0625 48.390625 32.421875 48.390625 
Q 24.90625 48.390625 20.390625 44.140625 
Q 15.875 39.890625 15.1875 32.171875 
z
" id="DejaVuSans-101"/>
       <path d="M 48.6875 27.296875 
Q 48.6875 37.203125 44.609375 42.84375 
Q 40.53125 48.484375 33.40625 48.484375 
Q 26.265625 48.484375 22.1875 42.84375 
Q 18.109375 37.203125 18.109375 27.296875 
Q 18.109375 17.390625 22.1875 11.75 
Q 26.265625 6.109375 33.40625 6.109375 
Q 40.53125 6.109375 44.609375 11.75 
Q 48.6875 17.390625 48.6875 27.296875 
z
M 18.109375 46.390625 
Q 20.953125 51.265625 25.265625 53.625 
Q 29.59375 56 35.59375 56 
Q 45.5625 56 51.78125 48.09375 
Q 58.015625 40.1875 58.015625 27.296875 
Q 58.015625 14.40625 51.78125 6.484375 
Q 45.5625 -1.421875 35.59375 -1.421875 
Q 29.59375 -1.421875 25.265625 0.953125 
Q 20.953125 3.328125 18.109375 8.203125 
L 18.109375 0 
L 9.078125 0 
L 9.078125 75.984375 
L 18.109375 75.984375 
z
" id="DejaVuSans-98"/>
      </defs>
      <g transform="translate(58.027576 160.33374)rotate(-90)scale(0.08 -0.08)">
       <use xlink:href="#DejaVuSans-50"/>
       <use x="63.623047" xlink:href="#DejaVuSans-51"/>
       <use x="127.246094" xlink:href="#DejaVuSans-32"/>
       <use x="159.033203" xlink:href="#DejaVuSans-70"/>
       <use x="211.052734" xlink:href="#DejaVuSans-101"/>
       <use x="272.576172" xlink:href="#DejaVuSans-98"/>
      </g>
     </g>
    </g>
   </g>
   <g id="matplotlib.axis_2">
    <g id="ytick_1">
     <g id="line2d_10">
      <defs>
       <path d="M 0 0 
L -3.5 0 
" id="m0cbd18117c" style="stroke:#000000;stroke-width:0.8;"/>
      </defs>
      <g>
       <use style="stroke:#000000;stroke-width:0.8;" x="42.05" xlink:href="#m0cbd18117c" y="126.44874"/>
      </g>
     </g>
     <g id="text_10">
      <!-- 0 -->
      <defs>
       <path d="M 31.78125 66.40625 
Q 24.171875 66.40625 20.328125 58.90625 
Q 16.5 51.421875 16.5 36.375 
Q 16.5 21.390625 20.328125 13.890625 
Q 24.171875 6.390625 31.78125 6.390625 
Q 39.453125 6.390625 43.28125 13.890625 
Q 47.125 21.390625 47.125 36.375 
Q 47.125 51.421875 43.28125 58.90625 
Q 39.453125 66.40625 31.78125 66.40625 
z
M 31.78125 74.21875 
Q 44.046875 74.21875 50.515625 64.515625 
Q 56.984375 54.828125 56.984375 36.375 
Q 56.984375 17.96875 50.515625 8.265625 
Q 44.046875 -1.421875 31.78125 -1.421875 
Q 19.53125 -1.421875 13.0625 8.265625 
Q 6.59375 17.96875 6.59375 36.375 
Q 6.59375 54.828125 13.0625 64.515625 
Q 19.53125 74.21875 31.78125 74.21875 
z
" id="DejaVuSans-48"/>
      </defs>
      <g transform="translate(29.96 129.488115)scale(0.08 -0.08)">
       <use xlink:href="#DejaVuSans-48"/>
      </g>
     </g>
    </g>
    <g id="ytick_2">
     <g id="line2d_11">
      <g>
       <use style="stroke:#000000;stroke-width:0.8;" x="42.05" xlink:href="#m0cbd18117c" y="109.287558"/>
      </g>
     </g>
     <g id="text_11">
      <!-- 25 -->
      <g transform="translate(24.87 112.326933)scale(0.08 -0.08)">
       <use xlink:href="#DejaVuSans-50"/>
       <use x="63.623047" xlink:href="#DejaVuSans-53"/>
      </g>
     </g>
    </g>
    <g id="ytick_3">
     <g id="line2d_12">
      <g>
       <use style="stroke:#000000;stroke-width:0.8;" x="42.05" xlink:href="#m0cbd18117c" y="92.126377"/>
      </g>
     </g>
     <g id="text_12">
      <!-- 50 -->
      <g transform="translate(24.87 95.165752)scale(0.08 -0.08)">
       <use xlink:href="#DejaVuSans-53"/>
       <use x="63.623047" xlink:href="#DejaVuSans-48"/>
      </g>
     </g>
    </g>
    <g id="ytick_4">
     <g id="line2d_13">
      <g>
       <use style="stroke:#000000;stroke-width:0.8;" x="42.05" xlink:href="#m0cbd18117c" y="74.965195"/>
      </g>
     </g>
     <g id="text_13">
      <!-- 75 -->
      <defs>
       <path d="M 8.203125 72.90625 
L 55.078125 72.90625 
L 55.078125 68.703125 
L 28.609375 0 
L 18.3125 0 
L 43.21875 64.59375 
L 8.203125 64.59375 
z
" id="DejaVuSans-55"/>
      </defs>
      <g transform="translate(24.87 78.00457)scale(0.08 -0.08)">
       <use xlink:href="#DejaVuSans-55"/>
       <use x="63.623047" xlink:href="#DejaVuSans-53"/>
      </g>
     </g>
    </g>
    <g id="ytick_5">
     <g id="line2d_14">
      <g>
       <use style="stroke:#000000;stroke-width:0.8;" x="42.05" xlink:href="#m0cbd18117c" y="57.804013"/>
      </g>
     </g>
     <g id="text_14">
      <!-- 100 -->
      <g transform="translate(19.78 60.843388)scale(0.08 -0.08)">
       <use xlink:href="#DejaVuSans-49"/>
       <use x="63.623047" xlink:href="#DejaVuSans-48"/>
       <use x="127.246094" xlink:href="#DejaVuSans-48"/>
      </g>
     </g>
    </g>
    <g id="ytick_6">
     <g id="line2d_15">
      <g>
       <use style="stroke:#000000;stroke-width:0.8;" x="42.05" xlink:href="#m0cbd18117c" y="40.642832"/>
      </g>
     </g>
     <g id="text_15">
      <!-- 125 -->
      <g transform="translate(19.78 43.682207)scale(0.08 -0.08)">
       <use xlink:href="#DejaVuSans-49"/>
       <use x="63.623047" xlink:href="#DejaVuSans-50"/>
       <use x="127.246094" xlink:href="#DejaVuSans-53"/>
      </g>
     </g>
    </g>
    <g id="ytick_7">
     <g id="line2d_16">
      <g>
       <use style="stroke:#000000;stroke-width:0.8;" x="42.05" xlink:href="#m0cbd18117c" y="23.48165"/>
      </g>
     </g>
     <g id="text_16">
      <!-- 150 -->
      <g transform="translate(19.78 26.521025)scale(0.08 -0.08)">
       <use xlink:href="#DejaVuSans-49"/>
       <use x="63.623047" xlink:href="#DejaVuSans-53"/>
       <use x="127.246094" xlink:href="#DejaVuSans-48"/>
      </g>
     </g>
    </g>
    <g id="text_17">
     <!-- Deaths per day -->
     <defs>
      <path d="M 19.671875 64.796875 
L 19.671875 8.109375 
L 31.59375 8.109375 
Q 46.6875 8.109375 53.6875 14.9375 
Q 60.6875 21.78125 60.6875 36.53125 
Q 60.6875 51.171875 53.6875 57.984375 
Q 46.6875 64.796875 31.59375 64.796875 
z
M 9.8125 72.90625 
L 30.078125 72.90625 
Q 51.265625 72.90625 61.171875 64.09375 
Q 71.09375 55.28125 71.09375 36.53125 
Q 71.09375 17.671875 61.125 8.828125 
Q 51.171875 0 30.078125 0 
L 9.8125 0 
z
" id="DejaVuSans-68"/>
      <path d="M 18.3125 70.21875 
L 18.3125 54.6875 
L 36.8125 54.6875 
L 36.8125 47.703125 
L 18.3125 47.703125 
L 18.3125 18.015625 
Q 18.3125 11.328125 20.140625 9.421875 
Q 21.96875 7.515625 27.59375 7.515625 
L 36.8125 7.515625 
L 36.8125 0 
L 27.59375 0 
Q 17.1875 0 13.234375 3.875 
Q 9.28125 7.765625 9.28125 18.015625 
L 9.28125 47.703125 
L 2.6875 47.703125 
L 2.6875 54.6875 
L 9.28125 54.6875 
L 9.28125 70.21875 
z
" id="DejaVuSans-116"/>
      <path d="M 54.890625 33.015625 
L 54.890625 0 
L 45.90625 0 
L 45.90625 32.71875 
Q 45.90625 40.484375 42.875 44.328125 
Q 39.84375 48.1875 33.796875 48.1875 
Q 26.515625 48.1875 22.3125 43.546875 
Q 18.109375 38.921875 18.109375 30.90625 
L 18.109375 0 
L 9.078125 0 
L 9.078125 75.984375 
L 18.109375 75.984375 
L 18.109375 46.1875 
Q 21.34375 51.125 25.703125 53.5625 
Q 30.078125 56 35.796875 56 
Q 45.21875 56 50.046875 50.171875 
Q 54.890625 44.34375 54.890625 33.015625 
z
" id="DejaVuSans-104"/>
      <path d="M 44.28125 53.078125 
L 44.28125 44.578125 
Q 40.484375 46.53125 36.375 47.5 
Q 32.28125 48.484375 27.875 48.484375 
Q 21.1875 48.484375 17.84375 46.4375 
Q 14.5 44.390625 14.5 40.28125 
Q 14.5 37.15625 16.890625 35.375 
Q 19.28125 33.59375 26.515625 31.984375 
L 29.59375 31.296875 
Q 39.15625 29.25 43.1875 25.515625 
Q 47.21875 21.78125 47.21875 15.09375 
Q 47.21875 7.46875 41.1875 3.015625 
Q 35.15625 -1.421875 24.609375 -1.421875 
Q 20.21875 -1.421875 15.453125 -0.5625 
Q 10.6875 0.296875 5.421875 2 
L 5.421875 11.28125 
Q 10.40625 8.6875 15.234375 7.390625 
Q 20.0625 6.109375 24.8125 6.109375 
Q 31.15625 6.109375 34.5625 8.28125 
Q 37.984375 10.453125 37.984375 14.40625 
Q 37.984375 18.0625 35.515625 20.015625 
Q 33.0625 21.96875 24.703125 23.78125 
L 21.578125 24.515625 
Q 13.234375 26.265625 9.515625 29.90625 
Q 5.8125 33.546875 5.8125 39.890625 
Q 5.8125 47.609375 11.28125 51.796875 
Q 16.75 56 26.8125 56 
Q 31.78125 56 36.171875 55.265625 
Q 40.578125 54.546875 44.28125 53.078125 
z
" id="DejaVuSans-115"/>
      <path d="M 45.40625 46.390625 
L 45.40625 75.984375 
L 54.390625 75.984375 
L 54.390625 0 
L 45.40625 0 
L 45.40625 8.203125 
Q 42.578125 3.328125 38.25 0.953125 
Q 33.9375 -1.421875 27.875 -1.421875 
Q 17.96875 -1.421875 11.734375 6.484375 
Q 5.515625 14.40625 5.515625 27.296875 
Q 5.515625 40.1875 11.734375 48.09375 
Q 17.96875 56 27.875 56 
Q 33.9375 56 38.25 53.625 
Q 42.578125 51.265625 45.40625 46.390625 
z
M 14.796875 27.296875 
Q 14.796875 17.390625 18.875 11.75 
Q 22.953125 6.109375 30.078125 6.109375 
Q 37.203125 6.109375 41.296875 11.75 
Q 45.40625 17.390625 45.40625 27.296875 
Q 45.40625 37.203125 41.296875 42.84375 
Q 37.203125 48.484375 30.078125 48.484375 
Q 22.953125 48.484375 18.875 42.84375 
Q 14.796875 37.203125 14.796875 27.296875 
z
" id="DejaVuSans-100"/>
      <path d="M 32.171875 -5.078125 
Q 28.375 -14.84375 24.75 -17.8125 
Q 21.140625 -20.796875 15.09375 -20.796875 
L 7.90625 -20.796875 
L 7.90625 -13.28125 
L 13.1875 -13.28125 
Q 16.890625 -13.28125 18.9375 -11.515625 
Q 21 -9.765625 23.484375 -3.21875 
L 25.09375 0.875 
L 2.984375 54.6875 
L 12.5 54.6875 
L 29.59375 11.921875 
L 46.6875 54.6875 
L 56.203125 54.6875 
z
" id="DejaVuSans-121"/>
     </defs>
     <g transform="translate(14.11625 99.70937)rotate(-90)scale(0.08 -0.08)">
      <use xlink:href="#DejaVuSans-68"/>
      <use x="77.001953" xlink:href="#DejaVuSans-101"/>
      <use x="138.525391" xlink:href="#DejaVuSans-97"/>
      <use x="199.804688" xlink:href="#DejaVuSans-116"/>
      <use x="239.013672" xlink:href="#DejaVuSans-104"/>
      <use x="302.392578" xlink:href="#DejaVuSans-115"/>
      <use x="354.492188" xlink:href="#DejaVuSans-32"/>
      <use x="386.279297" xlink:href="#DejaVuSans-112"/>
      <use x="449.755859" xlink:href="#DejaVuSans-101"/>
      <use x="511.279297" xlink:href="#DejaVuSans-114"/>
      <use x="552.392578" xlink:href="#DejaVuSans-32"/>
      <use x="584.179688" xlink:href="#DejaVuSans-100"/>
      <use x="647.65625" xlink:href="#DejaVuSans-97"/>
      <use x="708.935547" xlink:href="#DejaVuSans-121"/>
     </g>
    </g>
   </g>
   <g id="line2d_17">
    <path clip-path="url(#p0f1315ffbc)" d="M 50.662744 126.44874 
L 53.24141 126.44874 
L 55.820076 126.448534 
L 58.398742 126.44784 
L 60.977408 126.446235 
L 63.556074 126.443247 
L 66.134739 126.438429 
L 68.713405 126.431408 
L 71.292071 126.421791 
L 73.870737 126.409185 
L 76.449403 126.393206 
L 79.028069 126.373462 
L 81.606735 126.349524 
L 84.185401 126.32093 
L 86.764067 126.287131 
L 89.342733 126.247406 
L 91.921398 126.200865 
L 94.500064 126.146318 
L 97.07873 126.082596 
L 99.657396 126.008181 
L 102.236062 125.92136 
L 104.814728 125.819176 
L 107.393394 125.695078 
L 109.97206 125.544552 
L 112.550726 125.361589 
L 115.129392 125.143564 
L 117.708057 124.88846 
L 120.286723 124.594109 
L 122.865389 124.260961 
L 125.444055 123.889268 
L 128.022721 123.481225 
L 130.601387 123.03946 
L 133.180053 122.567643 
L 135.758719 122.068926 
L 138.337385 121.545981 
L 140.916051 121.000614 
L 143.494716 120.433354 
L 146.073382 119.843951 
" style="fill:none;stroke:#0000ff;stroke-linecap:square;stroke-opacity:0.5;"/>
   </g>
   <g id="line2d_18">
    <path clip-path="url(#p0f1315ffbc)" d="M 148.652048 119.229689 
L 151.230714 118.588673 
L 153.80938 117.917947 
L 156.388046 117.214988 
L 158.966712 116.477261 
L 161.545378 115.702026 
L 164.124044 114.886164 
L 166.702709 114.026024 
L 169.281375 113.117301 
L 171.860041 112.154923 
L 174.438707 111.132952 
L 177.017373 110.044473 
L 179.596039 108.881492 
L 182.174705 107.634807 
L 184.753371 106.29388 
L 187.332037 104.846671 
L 189.910703 103.279456 
L 192.489368 101.576613 
L 195.068034 99.720359 
L 197.6467 97.690456 
L 200.225366 95.463853 
" style="fill:none;stroke:#008000;stroke-linecap:square;stroke-opacity:0.5;"/>
   </g>
   <g id="line2d_19">
    <path clip-path="url(#p0f1315ffbc)" d="M 102.236062 126.44874 
L 102.236062 11.52 
" style="fill:none;stroke:#0000ff;stroke-dasharray:1.85,0.8;stroke-dashoffset:0;stroke-width:0.5;"/>
   </g>
   <g id="line2d_20">
    <path clip-path="url(#p0f1315ffbc)" d="M 104.814728 126.44874 
L 104.814728 11.52 
" style="fill:none;stroke:#0000ff;stroke-dasharray:1.85,0.8;stroke-dashoffset:0;stroke-width:0.5;"/>
   </g>
   <g id="line2d_21">
    <path clip-path="url(#p0f1315ffbc)" d="M 117.708057 126.44874 
L 117.708057 11.52 
" style="fill:none;stroke:#0000ff;stroke-dasharray:1.85,0.8;stroke-dashoffset:0;stroke-width:0.5;"/>
   </g>
   <g id="line2d_22">
    <path clip-path="url(#p0f1315ffbc)" d="M 104.814728 126.44874 
L 104.814728 11.52 
" style="fill:none;stroke:#0000ff;stroke-dasharray:1.85,0.8;stroke-dashoffset:0;stroke-width:0.5;"/>
   </g>
   <g id="line2d_23">
    <path clip-path="url(#p0f1315ffbc)" d="M 102.236062 126.44874 
L 102.236062 11.52 
" style="fill:none;stroke:#0000ff;stroke-dasharray:1.85,0.8;stroke-dashoffset:0;stroke-width:0.5;"/>
   </g>
   <g id="patch_62">
    <path d="M 42.05 126.44874 
L 42.05 11.52 
" style="fill:none;stroke:#000000;stroke-linecap:square;stroke-linejoin:miter;stroke-width:0.8;"/>
   </g>
   <g id="patch_63">
    <path d="M 208.83811 126.44874 
L 208.83811 11.52 
" style="fill:none;stroke:#000000;stroke-linecap:square;stroke-linejoin:miter;stroke-width:0.8;"/>
   </g>
   <g id="patch_64">
    <path d="M 42.05 126.44874 
L 208.83811 126.44874 
" style="fill:none;stroke:#000000;stroke-linecap:square;stroke-linejoin:miter;stroke-width:0.8;"/>
   </g>
   <g id="patch_65">
    <path d="M 42.05 11.52 
L 208.83811 11.52 
" style="fill:none;stroke:#000000;stroke-linecap:square;stroke-linejoin:miter;stroke-width:0.8;"/>
   </g>
  </g>
  <g id="axes_2">
   <g id="matplotlib.axis_3">
    <g id="ytick_8">
     <g id="line2d_24">
      <defs>
       <path d="M 0 0 
L 3.5 0 
" id="ma38756ca6d" style="stroke:#000000;stroke-width:0.8;"/>
      </defs>
      <g>
       <use style="stroke:#000000;stroke-width:0.8;" x="208.83811" xlink:href="#ma38756ca6d" y="126.44874"/>
      </g>
     </g>
     <g id="text_18">
      <!-- 1.0 -->
      <defs>
       <path d="M 10.59375 35.5 
L 73.1875 35.5 
L 73.1875 27.203125 
L 10.59375 27.203125 
z
" id="DejaVuSans-8722"/>
       <path d="M 10.6875 12.40625 
L 21 12.40625 
L 21 0 
L 10.6875 0 
z
" id="DejaVuSans-46"/>
      </defs>
      <g transform="translate(215.83811 129.488115)scale(0.08 -0.08)">
       <use xlink:href="#DejaVuSans-8722"/>
       <use x="83.789062" xlink:href="#DejaVuSans-49"/>
       <use x="147.412109" xlink:href="#DejaVuSans-46"/>
       <use x="179.199219" xlink:href="#DejaVuSans-48"/>
      </g>
     </g>
    </g>
    <g id="ytick_9">
     <g id="line2d_25">
      <g>
       <use style="stroke:#000000;stroke-width:0.8;" x="208.83811" xlink:href="#ma38756ca6d" y="85.402762"/>
      </g>
     </g>
     <g id="text_19">
      <!-- 0.5 -->
      <g transform="translate(215.83811 88.442137)scale(0.08 -0.08)">
       <use xlink:href="#DejaVuSans-8722"/>
       <use x="83.789062" xlink:href="#DejaVuSans-48"/>
       <use x="147.412109" xlink:href="#DejaVuSans-46"/>
       <use x="179.199219" xlink:href="#DejaVuSans-53"/>
      </g>
     </g>
    </g>
    <g id="ytick_10">
     <g id="line2d_26">
      <g>
       <use style="stroke:#000000;stroke-width:0.8;" x="208.83811" xlink:href="#ma38756ca6d" y="44.356783"/>
      </g>
     </g>
     <g id="text_20">
      <!-- 0.0 -->
      <g transform="translate(215.83811 47.396158)scale(0.08 -0.08)">
       <use xlink:href="#DejaVuSans-48"/>
       <use x="63.623047" xlink:href="#DejaVuSans-46"/>
       <use x="95.410156" xlink:href="#DejaVuSans-48"/>
      </g>
     </g>
    </g>
    <g id="ytick_11">
     <g id="line2d_27">
      <g>
       <use style="stroke:#000000;stroke-width:0.8;" x="208.83811" xlink:href="#ma38756ca6d" y="11.52"/>
      </g>
     </g>
     <g id="text_21">
      <!-- 0.4 -->
      <defs>
       <path d="M 37.796875 64.3125 
L 12.890625 25.390625 
L 37.796875 25.390625 
z
M 35.203125 72.90625 
L 47.609375 72.90625 
L 47.609375 25.390625 
L 58.015625 25.390625 
L 58.015625 17.1875 
L 47.609375 17.1875 
L 47.609375 0 
L 37.796875 0 
L 37.796875 17.1875 
L 4.890625 17.1875 
L 4.890625 26.703125 
z
" id="DejaVuSans-52"/>
      </defs>
      <g transform="translate(215.83811 14.559375)scale(0.08 -0.08)">
       <use xlink:href="#DejaVuSans-48"/>
       <use x="63.623047" xlink:href="#DejaVuSans-46"/>
       <use x="95.410156" xlink:href="#DejaVuSans-52"/>
      </g>
     </g>
    </g>
    <g id="text_22">
     <!-- Relative change -->
     <defs>
      <path d="M 44.390625 34.1875 
Q 47.5625 33.109375 50.5625 29.59375 
Q 53.5625 26.078125 56.59375 19.921875 
L 66.609375 0 
L 56 0 
L 46.6875 18.703125 
Q 43.0625 26.03125 39.671875 28.421875 
Q 36.28125 30.8125 30.421875 30.8125 
L 19.671875 30.8125 
L 19.671875 0 
L 9.8125 0 
L 9.8125 72.90625 
L 32.078125 72.90625 
Q 44.578125 72.90625 50.734375 67.671875 
Q 56.890625 62.453125 56.890625 51.90625 
Q 56.890625 45.015625 53.6875 40.46875 
Q 50.484375 35.9375 44.390625 34.1875 
z
M 19.671875 64.796875 
L 19.671875 38.921875 
L 32.078125 38.921875 
Q 39.203125 38.921875 42.84375 42.21875 
Q 46.484375 45.515625 46.484375 51.90625 
Q 46.484375 58.296875 42.84375 61.546875 
Q 39.203125 64.796875 32.078125 64.796875 
z
" id="DejaVuSans-82"/>
      <path d="M 9.421875 75.984375 
L 18.40625 75.984375 
L 18.40625 0 
L 9.421875 0 
z
" id="DejaVuSans-108"/>
      <path d="M 9.421875 54.6875 
L 18.40625 54.6875 
L 18.40625 0 
L 9.421875 0 
z
M 9.421875 75.984375 
L 18.40625 75.984375 
L 18.40625 64.59375 
L 9.421875 64.59375 
z
" id="DejaVuSans-105"/>
      <path d="M 2.984375 54.6875 
L 12.5 54.6875 
L 29.59375 8.796875 
L 46.6875 54.6875 
L 56.203125 54.6875 
L 35.6875 0 
L 23.484375 0 
z
" id="DejaVuSans-118"/>
      <path d="M 48.78125 52.59375 
L 48.78125 44.1875 
Q 44.96875 46.296875 41.140625 47.34375 
Q 37.3125 48.390625 33.40625 48.390625 
Q 24.65625 48.390625 19.8125 42.84375 
Q 14.984375 37.3125 14.984375 27.296875 
Q 14.984375 17.28125 19.8125 11.734375 
Q 24.65625 6.203125 33.40625 6.203125 
Q 37.3125 6.203125 41.140625 7.25 
Q 44.96875 8.296875 48.78125 10.40625 
L 48.78125 2.09375 
Q 45.015625 0.34375 40.984375 -0.53125 
Q 36.96875 -1.421875 32.421875 -1.421875 
Q 20.0625 -1.421875 12.78125 6.34375 
Q 5.515625 14.109375 5.515625 27.296875 
Q 5.515625 40.671875 12.859375 48.328125 
Q 20.21875 56 33.015625 56 
Q 37.15625 56 41.109375 55.140625 
Q 45.0625 54.296875 48.78125 52.59375 
z
" id="DejaVuSans-99"/>
      <path d="M 54.890625 33.015625 
L 54.890625 0 
L 45.90625 0 
L 45.90625 32.71875 
Q 45.90625 40.484375 42.875 44.328125 
Q 39.84375 48.1875 33.796875 48.1875 
Q 26.515625 48.1875 22.3125 43.546875 
Q 18.109375 38.921875 18.109375 30.90625 
L 18.109375 0 
L 9.078125 0 
L 9.078125 54.6875 
L 18.109375 54.6875 
L 18.109375 46.1875 
Q 21.34375 51.125 25.703125 53.5625 
Q 30.078125 56 35.796875 56 
Q 45.21875 56 50.046875 50.171875 
Q 54.890625 44.34375 54.890625 33.015625 
z
" id="DejaVuSans-110"/>
      <path d="M 45.40625 27.984375 
Q 45.40625 37.75 41.375 43.109375 
Q 37.359375 48.484375 30.078125 48.484375 
Q 22.859375 48.484375 18.828125 43.109375 
Q 14.796875 37.75 14.796875 27.984375 
Q 14.796875 18.265625 18.828125 12.890625 
Q 22.859375 7.515625 30.078125 7.515625 
Q 37.359375 7.515625 41.375 12.890625 
Q 45.40625 18.265625 45.40625 27.984375 
z
M 54.390625 6.78125 
Q 54.390625 -7.171875 48.1875 -13.984375 
Q 42 -20.796875 29.203125 -20.796875 
Q 24.46875 -20.796875 20.265625 -20.09375 
Q 16.0625 -19.390625 12.109375 -17.921875 
L 12.109375 -9.1875 
Q 16.0625 -11.328125 19.921875 -12.34375 
Q 23.78125 -13.375 27.78125 -13.375 
Q 36.625 -13.375 41.015625 -8.765625 
Q 45.40625 -4.15625 45.40625 5.171875 
L 45.40625 9.625 
Q 42.625 4.78125 38.28125 2.390625 
Q 33.9375 0 27.875 0 
Q 17.828125 0 11.671875 7.65625 
Q 5.515625 15.328125 5.515625 27.984375 
Q 5.515625 40.671875 11.671875 48.328125 
Q 17.828125 56 27.875 56 
Q 33.9375 56 38.28125 53.609375 
Q 42.625 51.21875 45.40625 46.390625 
L 45.40625 54.6875 
L 54.390625 54.6875 
z
" id="DejaVuSans-103"/>
     </defs>
     <g transform="translate(245.34311 101.10812)rotate(-90)scale(0.08 -0.08)">
      <use xlink:href="#DejaVuSans-82"/>
      <use x="64.982422" xlink:href="#DejaVuSans-101"/>
      <use x="126.505859" xlink:href="#DejaVuSans-108"/>
      <use x="154.289062" xlink:href="#DejaVuSans-97"/>
      <use x="215.568359" xlink:href="#DejaVuSans-116"/>
      <use x="254.777344" xlink:href="#DejaVuSans-105"/>
      <use x="282.560547" xlink:href="#DejaVuSans-118"/>
      <use x="341.740234" xlink:href="#DejaVuSans-101"/>
      <use x="403.263672" xlink:href="#DejaVuSans-32"/>
      <use x="435.050781" xlink:href="#DejaVuSans-99"/>
      <use x="490.03125" xlink:href="#DejaVuSans-104"/>
      <use x="553.410156" xlink:href="#DejaVuSans-97"/>
      <use x="614.689453" xlink:href="#DejaVuSans-110"/>
      <use x="678.068359" xlink:href="#DejaVuSans-103"/>
      <use x="741.544922" xlink:href="#DejaVuSans-101"/>
     </g>
    </g>
   </g>
   <g id="line2d_28">
    <path clip-path="url(#p0f1315ffbc)" d="M 50.662744 43.535863 
L 53.24141 49.2823 
L 55.820076 43.535863 
L 58.398742 45.998622 
L 60.977408 46.819542 
L 63.556074 45.998622 
L 66.134739 42.714944 
L 68.713405 30.40115 
L 71.292071 36.147587 
L 73.870737 27.117472 
L 76.449403 35.326668 
L 79.028069 36.147587 
L 81.606735 36.968507 
L 84.185401 36.147587 
L 86.764067 38.610346 
L 89.342733 36.147587 
L 91.921398 35.326668 
L 94.500064 40.252185 
L 97.07873 41.894024 
L 99.657396 40.252185 
L 102.236062 53.386898 
L 104.814728 67.342531 
L 107.393394 69.80529 
L 109.97206 71.447129 
L 112.550726 64.058853 
L 115.129392 64.879772 
L 117.708057 78.014485 
L 120.286723 76.372646 
L 122.865389 80.477244 
L 125.444055 83.760922 
L 128.022721 75.551727 
L 130.601387 73.909888 
L 133.180053 73.909888 
L 135.758719 74.730807 
L 138.337385 73.909888 
L 140.916051 76.372646 
L 143.494716 79.656325 
L 146.073382 74.730807 
" style="fill:none;stroke:#d62728;stroke-linecap:square;stroke-opacity:0.5;"/>
   </g>
   <g id="line2d_29">
    <path clip-path="url(#p0f1315ffbc)" d="M 50.662744 43.535863 
L 53.24141 46.819542 
L 55.820076 45.998622 
L 58.398742 45.177702 
L 60.977408 46.819542 
L 63.556074 45.998622 
L 66.134739 43.535863 
L 68.713405 43.535863 
L 71.292071 47.640461 
L 73.870737 50.10322 
L 76.449403 48.461381 
L 79.028069 48.461381 
L 81.606735 48.461381 
L 84.185401 46.819542 
L 86.764067 46.819542 
L 89.342733 45.998622 
L 91.921398 50.924139 
L 94.500064 48.461381 
L 97.07873 47.640461 
L 99.657396 40.252185 
L 102.236062 26.296552 
L 104.814728 50.10322 
L 107.393394 51.745059 
L 109.97206 64.058853 
L 112.550726 55.849657 
L 115.129392 47.640461 
L 117.708057 61.596094 
L 120.286723 60.775174 
L 122.865389 62.417013 
L 125.444055 61.596094 
L 128.022721 64.879772 
L 130.601387 60.775174 
L 133.180053 59.133335 
L 135.758719 59.133335 
L 138.337385 58.312416 
L 140.916051 59.133335 
L 143.494716 55.849657 
L 146.073382 62.417013 
" style="fill:none;stroke:#9467bd;stroke-linecap:square;stroke-opacity:0.5;"/>
   </g>
   <g id="line2d_30">
    <path clip-path="url(#p0f1315ffbc)" d="M 50.662744 45.177702 
L 53.24141 47.640461 
L 55.820076 44.356783 
L 58.398742 42.714944 
L 60.977408 43.535863 
L 63.556074 44.356783 
L 66.134739 42.714944 
L 68.713405 39.431265 
L 71.292071 40.252185 
L 73.870737 40.252185 
L 76.449403 43.535863 
L 79.028069 45.177702 
L 81.606735 43.535863 
L 84.185401 45.177702 
L 86.764067 45.998622 
L 89.342733 38.610346 
L 91.921398 45.177702 
L 94.500064 46.819542 
L 97.07873 50.10322 
L 99.657396 52.565979 
L 102.236062 73.909888 
L 104.814728 83.760922 
L 107.393394 73.909888 
L 109.97206 85.402762 
L 112.550726 87.044601 
L 115.129392 89.507359 
L 117.708057 94.432877 
L 120.286723 91.970118 
L 122.865389 95.253796 
L 125.444055 89.507359 
L 128.022721 93.611957 
L 130.601387 93.611957 
L 133.180053 93.611957 
L 135.758719 92.791038 
L 138.337385 92.791038 
L 140.916051 94.432877 
L 143.494716 90.328279 
L 146.073382 93.611957 
" style="fill:none;stroke:#e377c2;stroke-linecap:square;stroke-opacity:0.5;"/>
   </g>
   <g id="line2d_31">
    <path clip-path="url(#p0f1315ffbc)" d="M 50.662744 46.819542 
L 53.24141 46.819542 
L 55.820076 44.356783 
L 58.398742 42.714944 
L 60.977408 41.894024 
L 63.556074 41.894024 
L 66.134739 41.894024 
L 68.713405 42.714944 
L 71.292071 44.356783 
L 73.870737 43.535863 
L 76.449403 42.714944 
L 79.028069 42.714944 
L 81.606735 42.714944 
L 84.185401 42.714944 
L 86.764067 43.535863 
L 89.342733 43.535863 
L 91.921398 45.998622 
L 94.500064 44.356783 
L 97.07873 44.356783 
L 99.657396 45.177702 
L 102.236062 67.342531 
L 104.814728 80.477244 
L 107.393394 57.491496 
L 109.97206 62.417013 
L 112.550726 85.402762 
L 115.129392 87.044601 
L 117.708057 88.68644 
L 120.286723 89.507359 
L 122.865389 90.328279 
L 125.444055 66.521611 
L 128.022721 67.342531 
L 130.601387 89.507359 
L 133.180053 89.507359 
L 135.758719 89.507359 
L 138.337385 89.507359 
L 140.916051 89.507359 
L 143.494716 67.342531 
L 146.073382 67.342531 
" style="fill:none;stroke:#bcbd22;stroke-linecap:square;stroke-opacity:0.5;"/>
   </g>
   <g id="line2d_32">
    <path clip-path="url(#p0f1315ffbc)" d="M 50.662744 43.535863 
L 53.24141 43.535863 
L 55.820076 44.356783 
L 58.398742 44.356783 
L 60.977408 43.535863 
L 63.556074 43.535863 
L 66.134739 44.356783 
L 68.713405 45.177702 
L 71.292071 44.356783 
L 73.870737 44.356783 
L 76.449403 44.356783 
L 79.028069 44.356783 
L 81.606735 44.356783 
L 84.185401 44.356783 
L 86.764067 44.356783 
L 89.342733 45.177702 
L 91.921398 44.356783 
L 94.500064 43.535863 
L 97.07873 42.714944 
L 99.657396 42.714944 
L 102.236062 34.505748 
L 104.814728 31.22207 
L 107.393394 37.789426 
L 109.97206 37.789426 
L 112.550726 30.40115 
L 115.129392 29.580231 
L 117.708057 27.938391 
L 120.286723 28.759311 
L 122.865389 27.117472 
L 125.444055 35.326668 
L 128.022721 36.968507 
L 130.601387 28.759311 
L 133.180053 28.759311 
L 135.758719 28.759311 
L 138.337385 28.759311 
L 140.916051 28.759311 
L 143.494716 36.147587 
L 146.073382 36.968507 
" style="fill:none;stroke:#17becf;stroke-linecap:square;stroke-opacity:0.5;"/>
   </g>
   <g id="patch_66">
    <path d="M 42.05 126.44874 
L 42.05 11.52 
" style="fill:none;stroke:#000000;stroke-linecap:square;stroke-linejoin:miter;stroke-width:0.8;"/>
   </g>
   <g id="patch_67">
    <path d="M 208.83811 126.44874 
L 208.83811 11.52 
" style="fill:none;stroke:#000000;stroke-linecap:square;stroke-linejoin:miter;stroke-width:0.8;"/>
   </g>
   <g id="patch_68">
    <path d="M 42.05 126.44874 
L 208.83811 126.44874 
" style="fill:none;stroke:#000000;stroke-linecap:square;stroke-linejoin:miter;stroke-width:0.8;"/>
   </g>
   <g id="patch_69">
    <path d="M 42.05 11.52 
L 208.83811 11.52 
" style="fill:none;stroke:#000000;stroke-linecap:square;stroke-linejoin:miter;stroke-width:0.8;"/>
   </g>
  </g>
 </g>
 <defs>
  <clipPath id="p0f1315ffbc">
   <rect height="114.92874" width="166.78811" x="42.05" y="11.52"/>
  </clipPath>
 </defs>
</svg>
