<?xml version="1.0" encoding="utf-8" standalone="no"?>
<!DOCTYPE svg PUBLIC "-//W3C//DTD SVG 1.1//EN"
  "http://www.w3.org/Graphics/SVG/1.1/DTD/svg11.dtd">
<!-- Created with matplotlib (https://matplotlib.org/) -->
<svg height="170.07874pt" version="1.1" viewBox="0 0 255.11811 170.07874" width="255.11811pt" xmlns="http://www.w3.org/2000/svg" xmlns:xlink="http://www.w3.org/1999/xlink">
 <defs>
  <style type="text/css">
*{stroke-linecap:butt;stroke-linejoin:round;}
  </style>
 </defs>
 <g id="figure_1">
  <g id="patch_1">
   <path d="M 0 170.07874 
L 255.11811 170.07874 
L 255.11811 0 
L 0 0 
z
" style="fill:#ffffff;"/>
  </g>
  <g id="axes_1">
   <g id="patch_2">
    <path d="M 52.13 126.44874 
L 208.83811 126.44874 
L 208.83811 11.52 
L 52.13 11.52 
z
" style="fill:#ffffff;"/>
   </g>
   <g id="PolyCollection_1">
    <defs>
     <path d="M 60.035854 -43.63 
L 60.035854 -43.63 
L 61.992748 -43.63 
L 63.949643 -43.63 
L 65.906537 -43.630002 
L 67.863432 -43.630008 
L 69.820326 -43.63002 
L 71.777221 -43.630043 
L 73.734115 -43.630081 
L 75.69101 -43.630141 
L 77.647904 -43.630229 
L 79.604799 -43.630354 
L 81.561693 -43.630527 
L 83.518588 -43.630761 
L 85.475482 -43.631073 
L 87.432376 -43.631485 
L 89.389271 -43.632021 
L 91.346165 -43.632715 
L 93.30306 -43.633608 
L 95.259954 -43.634757 
L 97.216849 -43.636232 
L 99.173743 -43.638118 
L 101.130638 -43.640523 
L 103.087532 -43.64358 
L 105.044427 -43.647449 
L 107.001321 -43.652321 
L 108.958216 -43.658503 
L 110.91511 -43.666348 
L 112.872005 -43.676289 
L 114.828899 -43.688857 
L 116.785794 -43.704802 
L 118.742688 -43.725024 
L 120.699583 -43.750525 
L 122.656477 -43.782806 
L 124.613372 -43.823838 
L 126.570266 -43.875656 
L 128.527161 -43.940528 
L 130.484055 -44.021936 
L 132.44095 -44.12402 
L 134.397844 -44.251767 
L 136.354739 -44.413193 
L 138.311633 -44.623839 
L 140.268528 -44.903012 
L 142.225422 -45.270833 
L 144.182317 -45.744969 
L 146.139211 -46.342038 
L 148.096105 -47.076211 
L 150.053 -47.956634 
L 152.009894 -48.986376 
L 153.966789 -50.168199 
L 155.923683 -51.502174 
L 157.880578 -52.977783 
L 159.837472 -54.586348 
L 159.837472 -62.017414 
L 159.837472 -62.017414 
L 157.880578 -59.188121 
L 155.923683 -56.62722 
L 153.966789 -54.337193 
L 152.009894 -52.327881 
L 150.053 -50.605502 
L 148.096105 -49.166768 
L 146.139211 -47.994107 
L 144.182317 -47.065676 
L 142.225422 -46.346909 
L 140.268528 -45.799173 
L 138.311633 -45.380373 
L 136.354739 -45.056642 
L 134.397844 -44.800984 
L 132.44095 -44.595711 
L 130.484055 -44.4283 
L 128.527161 -44.290595 
L 126.570266 -44.177441 
L 124.613372 -44.084524 
L 122.656477 -44.007746 
L 120.699583 -43.944157 
L 118.742688 -43.891311 
L 116.785794 -43.847507 
L 114.828899 -43.810849 
L 112.872005 -43.780063 
L 110.91511 -43.754374 
L 108.958216 -43.732877 
L 107.001321 -43.714925 
L 105.044427 -43.699856 
L 103.087532 -43.687204 
L 101.130638 -43.676616 
L 99.173743 -43.667756 
L 97.216849 -43.660353 
L 95.259954 -43.654185 
L 93.30306 -43.649063 
L 91.346165 -43.644858 
L 89.389271 -43.641414 
L 87.432376 -43.638621 
L 85.475482 -43.636386 
L 83.518588 -43.634623 
L 81.561693 -43.633256 
L 79.604799 -43.632215 
L 77.647904 -43.631444 
L 75.69101 -43.630892 
L 73.734115 -43.630515 
L 71.777221 -43.630272 
L 69.820326 -43.630128 
L 67.863432 -43.630051 
L 65.906537 -43.630015 
L 63.949643 -43.630003 
L 61.992748 -43.63 
L 60.035854 -43.63 
z
" id="mf661798d66" style="stroke:#6495ed;stroke-opacity:0.4;"/>
    </defs>
    <g clip-path="url(#pb93be9c5e8)">
     <use style="fill:#6495ed;fill-opacity:0.4;stroke:#6495ed;stroke-opacity:0.4;" x="0" xlink:href="#mf661798d66" y="170.07874"/>
    </g>
   </g>
   <g id="PolyCollection_2">
    <defs>
     <path d="M 60.035854 -43.63 
L 60.035854 -43.63 
L 61.992748 -43.63 
L 63.949643 -43.630001 
L 65.906537 -43.630005 
L 67.863432 -43.630016 
L 69.820326 -43.630041 
L 71.777221 -43.630087 
L 73.734115 -43.630165 
L 75.69101 -43.630286 
L 77.647904 -43.630463 
L 79.604799 -43.630714 
L 81.561693 -43.631057 
L 83.518588 -43.631515 
L 85.475482 -43.632117 
L 87.432376 -43.632896 
L 89.389271 -43.633896 
L 91.346165 -43.635164 
L 93.30306 -43.636757 
L 95.259954 -43.638756 
L 97.216849 -43.641248 
L 99.173743 -43.644349 
L 101.130638 -43.648206 
L 103.087532 -43.652991 
L 105.044427 -43.658918 
L 107.001321 -43.666251 
L 108.958216 -43.675307 
L 110.91511 -43.686504 
L 112.872005 -43.700366 
L 114.828899 -43.717548 
L 116.785794 -43.738862 
L 118.742688 -43.76535 
L 120.699583 -43.798246 
L 122.656477 -43.838999 
L 124.613372 -43.889534 
L 126.570266 -43.952271 
L 128.527161 -44.030222 
L 130.484055 -44.126565 
L 132.44095 -44.245998 
L 134.397844 -44.39465 
L 136.354739 -44.581447 
L 138.311633 -44.823132 
L 140.268528 -45.140287 
L 142.225422 -45.557411 
L 144.182317 -46.098229 
L 146.139211 -46.784895 
L 148.096105 -47.635089 
L 150.053 -48.661921 
L 152.009894 -49.874296 
L 153.966789 -51.27438 
L 155.923683 -52.860011 
L 157.880578 -54.624601 
L 159.837472 -56.558929 
L 159.837472 -59.099349 
L 159.837472 -59.099349 
L 157.880578 -56.751861 
L 155.923683 -54.614155 
L 153.966789 -52.69965 
L 152.009894 -51.015443 
L 150.053 -49.566282 
L 148.096105 -48.346214 
L 146.139211 -47.345911 
L 144.182317 -46.547041 
L 142.225422 -45.922782 
L 140.268528 -45.443689 
L 138.311633 -45.07874 
L 136.354739 -44.798189 
L 134.397844 -44.579243 
L 132.44095 -44.404234 
L 130.484055 -44.263034 
L 128.527161 -44.148435 
L 126.570266 -44.054803 
L 124.613372 -43.978194 
L 122.656477 -43.915433 
L 120.699583 -43.864155 
L 118.742688 -43.822026 
L 116.785794 -43.787415 
L 114.828899 -43.758943 
L 112.872005 -43.735531 
L 110.91511 -43.716258 
L 108.958216 -43.700372 
L 107.001321 -43.687249 
L 105.044427 -43.676425 
L 103.087532 -43.667502 
L 101.130638 -43.660152 
L 99.173743 -43.65411 
L 97.216849 -43.649155 
L 95.259954 -43.645105 
L 93.30306 -43.641803 
L 91.346165 -43.639118 
L 89.389271 -43.636949 
L 87.432376 -43.63521 
L 85.475482 -43.633834 
L 83.518588 -43.63276 
L 81.561693 -43.631934 
L 79.604799 -43.631311 
L 77.647904 -43.630853 
L 75.69101 -43.630526 
L 73.734115 -43.630303 
L 71.777221 -43.63016 
L 69.820326 -43.630075 
L 67.863432 -43.63003 
L 65.906537 -43.630009 
L 63.949643 -43.630002 
L 61.992748 -43.63 
L 60.035854 -43.63 
z
" id="mec2795457b" style="stroke:#6495ed;stroke-opacity:0.6;"/>
    </defs>
    <g clip-path="url(#pb93be9c5e8)">
     <use style="fill:#6495ed;fill-opacity:0.6;stroke:#6495ed;stroke-opacity:0.6;" x="0" xlink:href="#mec2795457b" y="170.07874"/>
    </g>
   </g>
   <g id="PolyCollection_3">
    <defs>
     <path d="M 159.837472 -62.017414 
L 159.837472 -54.586348 
L 161.794367 -56.311993 
L 163.751261 -58.141791 
L 165.708156 -60.059277 
L 167.66505 -62.043587 
L 169.621945 -64.072532 
L 171.578839 -66.124623 
L 173.535734 -68.183162 
L 175.492628 -70.229737 
L 177.449523 -72.244771 
L 179.406417 -74.210365 
L 181.363312 -76.115245 
L 183.320206 -77.952101 
L 185.277101 -79.711615 
L 187.233995 -81.388315 
L 189.19089 -82.976063 
L 191.147784 -84.473485 
L 193.104679 -85.873679 
L 195.061573 -87.182142 
L 197.018468 -88.395266 
L 198.975362 -89.52064 
L 200.932257 -90.558492 
L 200.932257 -158.55874 
L 200.932257 -158.55874 
L 198.975362 -153.442897 
L 197.018468 -148.289504 
L 195.061573 -143.116213 
L 193.104679 -137.979286 
L 191.147784 -132.839287 
L 189.19089 -127.659218 
L 187.233995 -122.442053 
L 185.277101 -117.239311 
L 183.320206 -112.086459 
L 181.363312 -107.047189 
L 179.406417 -102.104331 
L 177.449523 -97.315744 
L 175.492628 -92.67005 
L 173.535734 -88.153262 
L 171.578839 -83.806129 
L 169.621945 -79.66875 
L 167.66505 -75.737613 
L 165.708156 -71.983873 
L 163.751261 -68.429652 
L 161.794367 -65.098311 
L 159.837472 -62.017414 
z
" id="mb9871d3070" style="stroke:#228b22;stroke-opacity:0.4;"/>
    </defs>
    <g clip-path="url(#pb93be9c5e8)">
     <use style="fill:#228b22;fill-opacity:0.4;stroke:#228b22;stroke-opacity:0.4;" x="0" xlink:href="#mb9871d3070" y="170.07874"/>
    </g>
   </g>
   <g id="PolyCollection_4">
    <defs>
     <path d="M 159.837472 -59.099349 
L 159.837472 -56.558929 
L 161.794367 -58.646059 
L 163.751261 -60.866659 
L 165.708156 -63.198121 
L 167.66505 -65.618829 
L 169.621945 -68.110547 
L 171.578839 -70.650662 
L 173.535734 -73.206237 
L 175.492628 -75.756076 
L 177.449523 -78.280802 
L 179.406417 -80.765272 
L 181.363312 -83.187756 
L 183.320206 -85.537836 
L 185.277101 -87.802761 
L 187.233995 -89.974104 
L 189.19089 -92.048607 
L 191.147784 -94.016057 
L 193.104679 -95.872512 
L 195.061573 -97.618645 
L 197.018468 -99.252409 
L 198.975362 -100.773747 
L 200.932257 -102.18502 
L 200.932257 -119.90666 
L 200.932257 -119.90666 
L 198.975362 -117.723468 
L 197.018468 -115.412576 
L 195.061573 -112.974396 
L 193.104679 -110.410603 
L 191.147784 -107.725684 
L 189.19089 -104.927745 
L 187.233995 -102.019771 
L 185.277101 -99.015713 
L 183.320206 -95.923617 
L 181.363312 -92.761466 
L 179.406417 -89.546652 
L 177.449523 -86.289663 
L 175.492628 -83.018306 
L 173.535734 -79.751234 
L 171.578839 -76.513593 
L 169.621945 -73.33493 
L 167.66505 -70.23139 
L 165.708156 -67.228975 
L 163.751261 -64.356823 
L 161.794367 -61.640464 
L 159.837472 -59.099349 
z
" id="m59a2cc1861" style="stroke:#228b22;stroke-opacity:0.6;"/>
    </defs>
    <g clip-path="url(#pb93be9c5e8)">
     <use style="fill:#228b22;fill-opacity:0.6;stroke:#228b22;stroke-opacity:0.6;" x="0" xlink:href="#m59a2cc1861" y="170.07874"/>
    </g>
   </g>
   <g id="PathCollection_1">
    <defs>
     <path d="M -0.866025 1.732051 
L 0 0.866025 
L 0.866025 1.732051 
L 1.732051 0.866025 
L 0.866025 0 
L 1.732051 -0.866025 
L 0.866025 -1.732051 
L 0 -0.866025 
L -0.866025 -1.732051 
L -1.732051 -0.866025 
L -0.866025 0 
L -1.732051 0.866025 
z
" id="mfba15ca566" style="stroke:#8a2be2;"/>
    </defs>
    <g clip-path="url(#pb93be9c5e8)">
     <use style="fill:#8a2be2;stroke:#8a2be2;" x="128.527161" xlink:href="#mfba15ca566" y="23.012874"/>
    </g>
   </g>
   <g id="PathCollection_2">
    <defs>
     <path d="M 0 -1.732051 
L -0.38887 -0.535233 
L -1.647278 -0.535233 
L -0.629204 0.204441 
L -1.018074 1.401259 
L -0 0.661585 
L 1.018074 1.401259 
L 0.629204 0.204441 
L 1.647278 -0.535233 
L 0.38887 -0.535233 
z
" id="m45258f5280" style="stroke:#000000;"/>
    </defs>
    <g clip-path="url(#pb93be9c5e8)">
     <use style="stroke:#000000;" x="130.484055" xlink:href="#m45258f5280" y="23.012874"/>
    </g>
   </g>
   <g id="PathCollection_3">
    <defs>
     <path d="M -1.732051 1.732051 
L 1.732051 1.732051 
L 1.732051 -1.732051 
L -1.732051 -1.732051 
z
" id="mc02b72258b" style="stroke:#c71585;"/>
    </defs>
    <g clip-path="url(#pb93be9c5e8)">
     <use style="fill:#c71585;stroke:#c71585;" x="136.354739" xlink:href="#mc02b72258b" y="23.012874"/>
    </g>
   </g>
   <g id="PathCollection_4">
    <defs>
     <path d="M 0 -1.732051 
L -1.647278 -0.535233 
L -1.018074 1.401259 
L 1.018074 1.401259 
L 1.647278 -0.535233 
z
" id="m289b8625af" style="stroke:#800000;"/>
    </defs>
    <g clip-path="url(#pb93be9c5e8)">
     <use style="fill:#800000;stroke:#800000;" x="134.397844" xlink:href="#m289b8625af" y="23.012874"/>
    </g>
   </g>
   <g id="PathCollection_5">
    <defs>
     <path d="M -0 2.44949 
L 1.469694 0 
L 0 -2.44949 
L -1.469694 -0 
z
" id="ma75acbb7ad" style="stroke:#556b2f;"/>
    </defs>
    <g clip-path="url(#pb93be9c5e8)">
     <use style="fill:#556b2f;stroke:#556b2f;" x="134.397844" xlink:href="#ma75acbb7ad" y="28.184667"/>
    </g>
   </g>
   <g id="patch_3">
    <path clip-path="url(#pb93be9c5e8)" d="M 59.253096 126.44874 
L 60.818612 126.44874 
L 60.818612 126.44874 
L 59.253096 126.44874 
z
" style="fill:#1f77b4;opacity:0.5;"/>
   </g>
   <g id="patch_4">
    <path clip-path="url(#pb93be9c5e8)" d="M 61.20999 126.44874 
L 62.775506 126.44874 
L 62.775506 126.44874 
L 61.20999 126.44874 
z
" style="fill:#1f77b4;opacity:0.5;"/>
   </g>
   <g id="patch_5">
    <path clip-path="url(#pb93be9c5e8)" d="M 63.166885 126.44874 
L 64.7324 126.44874 
L 64.7324 126.44874 
L 63.166885 126.44874 
z
" style="fill:#1f77b4;opacity:0.5;"/>
   </g>
   <g id="patch_6">
    <path clip-path="url(#pb93be9c5e8)" d="M 65.123779 126.44874 
L 66.689295 126.44874 
L 66.689295 126.44874 
L 65.123779 126.44874 
z
" style="fill:#1f77b4;opacity:0.5;"/>
   </g>
   <g id="patch_7">
    <path clip-path="url(#pb93be9c5e8)" d="M 67.080674 126.44874 
L 68.646189 126.44874 
L 68.646189 126.44874 
L 67.080674 126.44874 
z
" style="fill:#1f77b4;opacity:0.5;"/>
   </g>
   <g id="patch_8">
    <path clip-path="url(#pb93be9c5e8)" d="M 69.037568 126.44874 
L 70.603084 126.44874 
L 70.603084 126.44874 
L 69.037568 126.44874 
z
" style="fill:#1f77b4;opacity:0.5;"/>
   </g>
   <g id="patch_9">
    <path clip-path="url(#pb93be9c5e8)" d="M 70.994463 126.44874 
L 72.559978 126.44874 
L 72.559978 126.44874 
L 70.994463 126.44874 
z
" style="fill:#1f77b4;opacity:0.5;"/>
   </g>
   <g id="patch_10">
    <path clip-path="url(#pb93be9c5e8)" d="M 72.951357 126.44874 
L 74.516873 126.44874 
L 74.516873 126.44874 
L 72.951357 126.44874 
z
" style="fill:#1f77b4;opacity:0.5;"/>
   </g>
   <g id="patch_11">
    <path clip-path="url(#pb93be9c5e8)" d="M 74.908252 126.44874 
L 76.473767 126.44874 
L 76.473767 126.442603 
L 74.908252 126.442603 
z
" style="fill:#1f77b4;opacity:0.5;"/>
   </g>
   <g id="patch_12">
    <path clip-path="url(#pb93be9c5e8)" d="M 76.865146 126.44874 
L 78.430662 126.44874 
L 78.430662 126.442603 
L 76.865146 126.442603 
z
" style="fill:#1f77b4;opacity:0.5;"/>
   </g>
   <g id="patch_13">
    <path clip-path="url(#pb93be9c5e8)" d="M 78.822041 126.44874 
L 80.387556 126.44874 
L 80.387556 126.442603 
L 78.822041 126.442603 
z
" style="fill:#1f77b4;opacity:0.5;"/>
   </g>
   <g id="patch_14">
    <path clip-path="url(#pb93be9c5e8)" d="M 80.778935 126.44874 
L 82.344451 126.44874 
L 82.344451 126.442603 
L 80.778935 126.442603 
z
" style="fill:#1f77b4;opacity:0.5;"/>
   </g>
   <g id="patch_15">
    <path clip-path="url(#pb93be9c5e8)" d="M 82.73583 126.44874 
L 84.301345 126.44874 
L 84.301345 126.442603 
L 82.73583 126.442603 
z
" style="fill:#1f77b4;opacity:0.5;"/>
   </g>
   <g id="patch_16">
    <path clip-path="url(#pb93be9c5e8)" d="M 84.692724 126.44874 
L 86.25824 126.44874 
L 86.25824 126.442603 
L 84.692724 126.442603 
z
" style="fill:#1f77b4;opacity:0.5;"/>
   </g>
   <g id="patch_17">
    <path clip-path="url(#pb93be9c5e8)" d="M 86.649619 126.44874 
L 88.215134 126.44874 
L 88.215134 126.442603 
L 86.649619 126.442603 
z
" style="fill:#1f77b4;opacity:0.5;"/>
   </g>
   <g id="patch_18">
    <path clip-path="url(#pb93be9c5e8)" d="M 88.606513 126.44874 
L 90.172029 126.44874 
L 90.172029 126.442603 
L 88.606513 126.442603 
z
" style="fill:#1f77b4;opacity:0.5;"/>
   </g>
   <g id="patch_19">
    <path clip-path="url(#pb93be9c5e8)" d="M 90.563408 126.44874 
L 92.128923 126.44874 
L 92.128923 126.442603 
L 90.563408 126.442603 
z
" style="fill:#1f77b4;opacity:0.5;"/>
   </g>
   <g id="patch_20">
    <path clip-path="url(#pb93be9c5e8)" d="M 92.520302 126.44874 
L 94.085818 126.44874 
L 94.085818 126.442603 
L 92.520302 126.442603 
z
" style="fill:#1f77b4;opacity:0.5;"/>
   </g>
   <g id="patch_21">
    <path clip-path="url(#pb93be9c5e8)" d="M 94.477197 126.44874 
L 96.042712 126.44874 
L 96.042712 126.442603 
L 94.477197 126.442603 
z
" style="fill:#1f77b4;opacity:0.5;"/>
   </g>
   <g id="patch_22">
    <path clip-path="url(#pb93be9c5e8)" d="M 96.434091 126.44874 
L 97.999607 126.44874 
L 97.999607 126.442603 
L 96.434091 126.442603 
z
" style="fill:#1f77b4;opacity:0.5;"/>
   </g>
   <g id="patch_23">
    <path clip-path="url(#pb93be9c5e8)" d="M 98.390986 126.44874 
L 99.956501 126.44874 
L 99.956501 126.436466 
L 98.390986 126.436466 
z
" style="fill:#1f77b4;opacity:0.5;"/>
   </g>
   <g id="patch_24">
    <path clip-path="url(#pb93be9c5e8)" d="M 100.34788 126.44874 
L 101.913396 126.44874 
L 101.913396 126.436466 
L 100.34788 126.436466 
z
" style="fill:#1f77b4;opacity:0.5;"/>
   </g>
   <g id="patch_25">
    <path clip-path="url(#pb93be9c5e8)" d="M 102.304775 126.44874 
L 103.87029 126.44874 
L 103.87029 126.436466 
L 102.304775 126.436466 
z
" style="fill:#1f77b4;opacity:0.5;"/>
   </g>
   <g id="patch_26">
    <path clip-path="url(#pb93be9c5e8)" d="M 104.261669 126.44874 
L 105.827185 126.44874 
L 105.827185 126.436466 
L 104.261669 126.436466 
z
" style="fill:#1f77b4;opacity:0.5;"/>
   </g>
   <g id="patch_27">
    <path clip-path="url(#pb93be9c5e8)" d="M 106.218564 126.44874 
L 107.784079 126.44874 
L 107.784079 126.436466 
L 106.218564 126.436466 
z
" style="fill:#1f77b4;opacity:0.5;"/>
   </g>
   <g id="patch_28">
    <path clip-path="url(#pb93be9c5e8)" d="M 108.175458 126.44874 
L 109.740974 126.44874 
L 109.740974 126.430329 
L 108.175458 126.430329 
z
" style="fill:#1f77b4;opacity:0.5;"/>
   </g>
   <g id="patch_29">
    <path clip-path="url(#pb93be9c5e8)" d="M 110.132352 126.44874 
L 111.697868 126.44874 
L 111.697868 126.424192 
L 110.132352 126.424192 
z
" style="fill:#1f77b4;opacity:0.5;"/>
   </g>
   <g id="patch_30">
    <path clip-path="url(#pb93be9c5e8)" d="M 112.089247 126.44874 
L 113.654763 126.44874 
L 113.654763 126.424192 
L 112.089247 126.424192 
z
" style="fill:#1f77b4;opacity:0.5;"/>
   </g>
   <g id="patch_31">
    <path clip-path="url(#pb93be9c5e8)" d="M 114.046141 126.44874 
L 115.611657 126.44874 
L 115.611657 126.405781 
L 114.046141 126.405781 
z
" style="fill:#1f77b4;opacity:0.5;"/>
   </g>
   <g id="patch_32">
    <path clip-path="url(#pb93be9c5e8)" d="M 116.003036 126.44874 
L 117.568552 126.44874 
L 117.568552 126.393507 
L 116.003036 126.393507 
z
" style="fill:#1f77b4;opacity:0.5;"/>
   </g>
   <g id="patch_33">
    <path clip-path="url(#pb93be9c5e8)" d="M 117.95993 126.44874 
L 119.525446 126.44874 
L 119.525446 126.38737 
L 117.95993 126.38737 
z
" style="fill:#1f77b4;opacity:0.5;"/>
   </g>
   <g id="patch_34">
    <path clip-path="url(#pb93be9c5e8)" d="M 119.916825 126.44874 
L 121.48234 126.44874 
L 121.48234 126.332137 
L 119.916825 126.332137 
z
" style="fill:#1f77b4;opacity:0.5;"/>
   </g>
   <g id="patch_35">
    <path clip-path="url(#pb93be9c5e8)" d="M 121.873719 126.44874 
L 123.439235 126.44874 
L 123.439235 126.26463 
L 121.873719 126.26463 
z
" style="fill:#1f77b4;opacity:0.5;"/>
   </g>
   <g id="patch_36">
    <path clip-path="url(#pb93be9c5e8)" d="M 123.830614 126.44874 
L 125.396129 126.44874 
L 125.396129 126.246219 
L 123.830614 126.246219 
z
" style="fill:#1f77b4;opacity:0.5;"/>
   </g>
   <g id="patch_37">
    <path clip-path="url(#pb93be9c5e8)" d="M 125.787508 126.44874 
L 127.353024 126.44874 
L 127.353024 126.154164 
L 125.787508 126.154164 
z
" style="fill:#1f77b4;opacity:0.5;"/>
   </g>
   <g id="patch_38">
    <path clip-path="url(#pb93be9c5e8)" d="M 127.744403 126.44874 
L 129.309918 126.44874 
L 129.309918 126.074383 
L 127.744403 126.074383 
z
" style="fill:#1f77b4;opacity:0.5;"/>
   </g>
   <g id="patch_39">
    <path clip-path="url(#pb93be9c5e8)" d="M 129.701297 126.44874 
L 131.266813 126.44874 
L 131.266813 125.963918 
L 129.701297 125.963918 
z
" style="fill:#1f77b4;opacity:0.5;"/>
   </g>
   <g id="patch_40">
    <path clip-path="url(#pb93be9c5e8)" d="M 131.658192 126.44874 
L 133.223707 126.44874 
L 133.223707 125.890274 
L 131.658192 125.890274 
z
" style="fill:#1f77b4;opacity:0.5;"/>
   </g>
   <g id="patch_41">
    <path clip-path="url(#pb93be9c5e8)" d="M 133.615086 126.44874 
L 135.180602 126.44874 
L 135.180602 125.669342 
L 133.615086 125.669342 
z
" style="fill:#1f77b4;opacity:0.5;"/>
   </g>
   <g id="patch_42">
    <path clip-path="url(#pb93be9c5e8)" d="M 135.571981 126.44874 
L 137.137496 126.44874 
L 137.137496 125.540465 
L 135.571981 125.540465 
z
" style="fill:#1f77b4;opacity:0.5;"/>
   </g>
   <g id="patch_43">
    <path clip-path="url(#pb93be9c5e8)" d="M 137.528875 126.44874 
L 139.094391 126.44874 
L 139.094391 125.374766 
L 137.528875 125.374766 
z
" style="fill:#1f77b4;opacity:0.5;"/>
   </g>
   <g id="patch_44">
    <path clip-path="url(#pb93be9c5e8)" d="M 139.48577 126.44874 
L 141.051285 126.44874 
L 141.051285 124.951313 
L 139.48577 124.951313 
z
" style="fill:#1f77b4;opacity:0.5;"/>
   </g>
   <g id="patch_45">
    <path clip-path="url(#pb93be9c5e8)" d="M 141.442664 126.44874 
L 143.00818 126.44874 
L 143.00818 124.165778 
L 141.442664 124.165778 
z
" style="fill:#1f77b4;opacity:0.5;"/>
   </g>
   <g id="patch_46">
    <path clip-path="url(#pb93be9c5e8)" d="M 143.399559 126.44874 
L 144.965074 126.44874 
L 144.965074 123.687092 
L 143.399559 123.687092 
z
" style="fill:#1f77b4;opacity:0.5;"/>
   </g>
   <g id="patch_47">
    <path clip-path="url(#pb93be9c5e8)" d="M 145.356453 126.44874 
L 146.921969 126.44874 
L 146.921969 122.999749 
L 145.356453 122.999749 
z
" style="fill:#1f77b4;opacity:0.5;"/>
   </g>
   <g id="patch_48">
    <path clip-path="url(#pb93be9c5e8)" d="M 147.313348 126.44874 
L 148.878863 126.44874 
L 148.878863 122.312405 
L 147.313348 122.312405 
z
" style="fill:#1f77b4;opacity:0.5;"/>
   </g>
   <g id="patch_49">
    <path clip-path="url(#pb93be9c5e8)" d="M 149.270242 126.44874 
L 150.835758 126.44874 
L 150.835758 121.170924 
L 149.270242 121.170924 
z
" style="fill:#1f77b4;opacity:0.5;"/>
   </g>
   <g id="patch_50">
    <path clip-path="url(#pb93be9c5e8)" d="M 151.227137 126.44874 
L 152.792652 126.44874 
L 152.792652 119.698045 
L 151.227137 119.698045 
z
" style="fill:#1f77b4;opacity:0.5;"/>
   </g>
   <g id="patch_51">
    <path clip-path="url(#pb93be9c5e8)" d="M 153.184031 126.44874 
L 154.749547 126.44874 
L 154.749547 118.280399 
L 153.184031 118.280399 
z
" style="fill:#1f77b4;opacity:0.5;"/>
   </g>
   <g id="patch_52">
    <path clip-path="url(#pb93be9c5e8)" d="M 155.140926 126.44874 
L 156.706441 126.44874 
L 156.706441 116.040396 
L 155.140926 116.040396 
z
" style="fill:#1f77b4;opacity:0.5;"/>
   </g>
   <g id="patch_53">
    <path clip-path="url(#pb93be9c5e8)" d="M 157.09782 126.44874 
L 158.663336 126.44874 
L 158.663336 114.205434 
L 157.09782 114.205434 
z
" style="fill:#1f77b4;opacity:0.5;"/>
   </g>
   <g id="patch_54">
    <path clip-path="url(#pb93be9c5e8)" d="M 159.054715 126.44874 
L 160.62023 126.44874 
L 160.62023 112.247732 
L 159.054715 112.247732 
z
" style="fill:#1f77b4;opacity:0.5;"/>
   </g>
   <g id="patch_55">
    <path clip-path="url(#pb93be9c5e8)" d="M 161.011609 126.44874 
L 162.577125 126.44874 
L 162.577125 110.45573 
L 161.011609 110.45573 
z
" style="fill:#1f77b4;opacity:0.5;"/>
   </g>
   <g id="patch_56">
    <path clip-path="url(#pb93be9c5e8)" d="M 162.968504 126.44874 
L 164.534019 126.44874 
L 164.534019 107.890465 
L 162.968504 107.890465 
z
" style="fill:#1f77b4;opacity:0.5;"/>
   </g>
   <g id="patch_57">
    <path clip-path="url(#pb93be9c5e8)" d="M 164.925398 126.44874 
L 166.490914 126.44874 
L 166.490914 104.828105 
L 164.925398 104.828105 
z
" style="fill:#1f77b4;opacity:0.5;"/>
   </g>
   <g id="patch_58">
    <path clip-path="url(#pb93be9c5e8)" d="M 166.882293 126.44874 
L 168.447808 126.44874 
L 168.447808 101.704374 
L 166.882293 101.704374 
z
" style="fill:#1f77b4;opacity:0.5;"/>
   </g>
   <g id="patch_59">
    <path clip-path="url(#pb93be9c5e8)" d="M 168.839187 126.44874 
L 170.404703 126.44874 
L 170.404703 98.813849 
L 168.839187 98.813849 
z
" style="fill:#1f77b4;opacity:0.5;"/>
   </g>
   <g id="patch_60">
    <path clip-path="url(#pb93be9c5e8)" d="M 170.796081 126.44874 
L 172.361597 126.44874 
L 172.361597 86.51531 
L 170.796081 86.51531 
z
" style="fill:#1f77b4;opacity:0.5;"/>
   </g>
   <g id="patch_61">
    <path clip-path="url(#pb93be9c5e8)" d="M 172.752976 126.44874 
L 174.318492 126.44874 
L 174.318492 80.053053 
L 172.752976 80.053053 
z
" style="fill:#1f77b4;opacity:0.5;"/>
   </g>
   <g id="patch_62">
    <path clip-path="url(#pb93be9c5e8)" d="M 174.70987 126.44874 
L 176.275386 126.44874 
L 176.275386 76.87409 
L 174.70987 76.87409 
z
" style="fill:#1f77b4;opacity:0.5;"/>
   </g>
   <g id="patch_63">
    <path clip-path="url(#pb93be9c5e8)" d="M 176.666765 126.44874 
L 178.232281 126.44874 
L 178.232281 71.761972 
L 176.666765 71.761972 
z
" style="fill:#1f77b4;opacity:0.5;"/>
   </g>
   <g id="patch_64">
    <path clip-path="url(#pb93be9c5e8)" d="M 178.623659 126.44874 
L 180.189175 126.44874 
L 180.189175 63.06585 
L 178.623659 63.06585 
z
" style="fill:#1f77b4;opacity:0.5;"/>
   </g>
   <g id="patch_65">
    <path clip-path="url(#pb93be9c5e8)" d="M 180.580554 126.44874 
L 182.146069 126.44874 
L 182.146069 59.745735 
L 180.580554 59.745735 
z
" style="fill:#1f77b4;opacity:0.5;"/>
   </g>
   <g id="patch_66">
    <path clip-path="url(#pb93be9c5e8)" d="M 182.537448 126.44874 
L 184.102964 126.44874 
L 184.102964 51.516024 
L 182.537448 51.516024 
z
" style="fill:#1f77b4;opacity:0.5;"/>
   </g>
   <g id="patch_67">
    <path clip-path="url(#pb93be9c5e8)" d="M 184.494343 126.44874 
L 186.059858 126.44874 
L 186.059858 45.458809 
L 184.494343 45.458809 
z
" style="fill:#1f77b4;opacity:0.5;"/>
   </g>
   <g id="patch_68">
    <path clip-path="url(#pb93be9c5e8)" d="M 186.451237 126.44874 
L 188.016753 126.44874 
L 188.016753 41.561817 
L 186.451237 41.561817 
z
" style="fill:#1f77b4;opacity:0.5;"/>
   </g>
   <g id="patch_69">
    <path clip-path="url(#pb93be9c5e8)" d="M 188.408132 126.44874 
L 189.973647 126.44874 
L 189.973647 38.118962 
L 188.408132 38.118962 
z
" style="fill:#1f77b4;opacity:0.5;"/>
   </g>
   <g id="patch_70">
    <path clip-path="url(#pb93be9c5e8)" d="M 190.365026 126.44874 
L 191.930542 126.44874 
L 191.930542 34.596327 
L 190.365026 34.596327 
z
" style="fill:#1f77b4;opacity:0.5;"/>
   </g>
   <g id="patch_71">
    <path clip-path="url(#pb93be9c5e8)" d="M 192.321921 126.44874 
L 193.887436 126.44874 
L 193.887436 29.919936 
L 192.321921 29.919936 
z
" style="fill:#1f77b4;opacity:0.5;"/>
   </g>
   <g id="patch_72">
    <path clip-path="url(#pb93be9c5e8)" d="M 194.278815 126.44874 
L 195.844331 126.44874 
L 195.844331 21.094937 
L 194.278815 21.094937 
z
" style="fill:#1f77b4;opacity:0.5;"/>
   </g>
   <g id="patch_73">
    <path clip-path="url(#pb93be9c5e8)" d="M 196.23571 126.44874 
L 197.801225 126.44874 
L 197.801225 16.473779 
L 196.23571 16.473779 
z
" style="fill:#1f77b4;opacity:0.5;"/>
   </g>
   <g id="patch_74">
    <path clip-path="url(#pb93be9c5e8)" d="M 198.192604 126.44874 
L 199.75812 126.44874 
L 199.75812 11.803525 
L 198.192604 11.803525 
z
" style="fill:#1f77b4;opacity:0.5;"/>
   </g>
   <g id="patch_75">
    <path clip-path="url(#pb93be9c5e8)" d="M 200.149499 126.44874 
L 201.715014 126.44874 
L 201.715014 7.863574 
L 200.149499 7.863574 
z
" style="fill:#1f77b4;opacity:0.5;"/>
   </g>
   <g id="matplotlib.axis_1">
    <g id="xtick_1">
     <g id="line2d_1">
      <defs>
       <path d="M 0 0 
L 0 3.5 
" id="m8913b28f67" style="stroke:#000000;stroke-width:0.8;"/>
      </defs>
      <g>
       <use style="stroke:#000000;stroke-width:0.8;" x="200.932257" xlink:href="#m8913b28f67" y="126.44874"/>
      </g>
     </g>
     <g id="text_1">
      <!-- 19 Apr -->
      <defs>
       <path d="M 12.40625 8.296875 
L 28.515625 8.296875 
L 28.515625 63.921875 
L 10.984375 60.40625 
L 10.984375 69.390625 
L 28.421875 72.90625 
L 38.28125 72.90625 
L 38.28125 8.296875 
L 54.390625 8.296875 
L 54.390625 0 
L 12.40625 0 
z
" id="DejaVuSans-49"/>
       <path d="M 10.984375 1.515625 
L 10.984375 10.5 
Q 14.703125 8.734375 18.5 7.8125 
Q 22.3125 6.890625 25.984375 6.890625 
Q 35.75 6.890625 40.890625 13.453125 
Q 46.046875 20.015625 46.78125 33.40625 
Q 43.953125 29.203125 39.59375 26.953125 
Q 35.25 24.703125 29.984375 24.703125 
Q 19.046875 24.703125 12.671875 31.3125 
Q 6.296875 37.9375 6.296875 49.421875 
Q 6.296875 60.640625 12.9375 67.421875 
Q 19.578125 74.21875 30.609375 74.21875 
Q 43.265625 74.21875 49.921875 64.515625 
Q 56.59375 54.828125 56.59375 36.375 
Q 56.59375 19.140625 48.40625 8.859375 
Q 40.234375 -1.421875 26.421875 -1.421875 
Q 22.703125 -1.421875 18.890625 -0.6875 
Q 15.09375 0.046875 10.984375 1.515625 
z
M 30.609375 32.421875 
Q 37.25 32.421875 41.125 36.953125 
Q 45.015625 41.5 45.015625 49.421875 
Q 45.015625 57.28125 41.125 61.84375 
Q 37.25 66.40625 30.609375 66.40625 
Q 23.96875 66.40625 20.09375 61.84375 
Q 16.21875 57.28125 16.21875 49.421875 
Q 16.21875 41.5 20.09375 36.953125 
Q 23.96875 32.421875 30.609375 32.421875 
z
" id="DejaVuSans-57"/>
       <path id="DejaVuSans-32"/>
       <path d="M 34.1875 63.1875 
L 20.796875 26.90625 
L 47.609375 26.90625 
z
M 28.609375 72.90625 
L 39.796875 72.90625 
L 67.578125 0 
L 57.328125 0 
L 50.6875 18.703125 
L 17.828125 18.703125 
L 11.1875 0 
L 0.78125 0 
z
" id="DejaVuSans-65"/>
       <path d="M 18.109375 8.203125 
L 18.109375 -20.796875 
L 9.078125 -20.796875 
L 9.078125 54.6875 
L 18.109375 54.6875 
L 18.109375 46.390625 
Q 20.953125 51.265625 25.265625 53.625 
Q 29.59375 56 35.59375 56 
Q 45.5625 56 51.78125 48.09375 
Q 58.015625 40.1875 58.015625 27.296875 
Q 58.015625 14.40625 51.78125 6.484375 
Q 45.5625 -1.421875 35.59375 -1.421875 
Q 29.59375 -1.421875 25.265625 0.953125 
Q 20.953125 3.328125 18.109375 8.203125 
z
M 48.6875 27.296875 
Q 48.6875 37.203125 44.609375 42.84375 
Q 40.53125 48.484375 33.40625 48.484375 
Q 26.265625 48.484375 22.1875 42.84375 
Q 18.109375 37.203125 18.109375 27.296875 
Q 18.109375 17.390625 22.1875 11.75 
Q 26.265625 6.109375 33.40625 6.109375 
Q 40.53125 6.109375 44.609375 11.75 
Q 48.6875 17.390625 48.6875 27.296875 
z
" id="DejaVuSans-112"/>
       <path d="M 41.109375 46.296875 
Q 39.59375 47.171875 37.8125 47.578125 
Q 36.03125 48 33.890625 48 
Q 26.265625 48 22.1875 43.046875 
Q 18.109375 38.09375 18.109375 28.8125 
L 18.109375 0 
L 9.078125 0 
L 9.078125 54.6875 
L 18.109375 54.6875 
L 18.109375 46.1875 
Q 20.953125 51.171875 25.484375 53.578125 
Q 30.03125 56 36.53125 56 
Q 37.453125 56 38.578125 55.875 
Q 39.703125 55.765625 41.0625 55.515625 
z
" id="DejaVuSans-114"/>
      </defs>
      <g transform="translate(203.139757 160.01124)rotate(-90)scale(0.08 -0.08)">
       <use xlink:href="#DejaVuSans-49"/>
       <use x="63.623047" xlink:href="#DejaVuSans-57"/>
       <use x="127.246094" xlink:href="#DejaVuSans-32"/>
       <use x="159.033203" xlink:href="#DejaVuSans-65"/>
       <use x="227.441406" xlink:href="#DejaVuSans-112"/>
       <use x="290.917969" xlink:href="#DejaVuSans-114"/>
      </g>
     </g>
    </g>
    <g id="xtick_2">
     <g id="line2d_2">
      <g>
       <use style="stroke:#000000;stroke-width:0.8;" x="187.233995" xlink:href="#m8913b28f67" y="126.44874"/>
      </g>
     </g>
     <g id="text_2">
      <!-- 12 Apr -->
      <defs>
       <path d="M 19.1875 8.296875 
L 53.609375 8.296875 
L 53.609375 0 
L 7.328125 0 
L 7.328125 8.296875 
Q 12.9375 14.109375 22.625 23.890625 
Q 32.328125 33.6875 34.8125 36.53125 
Q 39.546875 41.84375 41.421875 45.53125 
Q 43.3125 49.21875 43.3125 52.78125 
Q 43.3125 58.59375 39.234375 62.25 
Q 35.15625 65.921875 28.609375 65.921875 
Q 23.96875 65.921875 18.8125 64.3125 
Q 13.671875 62.703125 7.8125 59.421875 
L 7.8125 69.390625 
Q 13.765625 71.78125 18.9375 73 
Q 24.125 74.21875 28.421875 74.21875 
Q 39.75 74.21875 46.484375 68.546875 
Q 53.21875 62.890625 53.21875 53.421875 
Q 53.21875 48.921875 51.53125 44.890625 
Q 49.859375 40.875 45.40625 35.40625 
Q 44.1875 33.984375 37.640625 27.21875 
Q 31.109375 20.453125 19.1875 8.296875 
z
" id="DejaVuSans-50"/>
      </defs>
      <g transform="translate(189.441495 160.01124)rotate(-90)scale(0.08 -0.08)">
       <use xlink:href="#DejaVuSans-49"/>
       <use x="63.623047" xlink:href="#DejaVuSans-50"/>
       <use x="127.246094" xlink:href="#DejaVuSans-32"/>
       <use x="159.033203" xlink:href="#DejaVuSans-65"/>
       <use x="227.441406" xlink:href="#DejaVuSans-112"/>
       <use x="290.917969" xlink:href="#DejaVuSans-114"/>
      </g>
     </g>
    </g>
    <g id="xtick_3">
     <g id="line2d_3">
      <g>
       <use style="stroke:#000000;stroke-width:0.8;" x="173.535734" xlink:href="#m8913b28f67" y="126.44874"/>
      </g>
     </g>
     <g id="text_3">
      <!-- 5 Apr -->
      <defs>
       <path d="M 10.796875 72.90625 
L 49.515625 72.90625 
L 49.515625 64.59375 
L 19.828125 64.59375 
L 19.828125 46.734375 
Q 21.96875 47.46875 24.109375 47.828125 
Q 26.265625 48.1875 28.421875 48.1875 
Q 40.625 48.1875 47.75 41.5 
Q 54.890625 34.8125 54.890625 23.390625 
Q 54.890625 11.625 47.5625 5.09375 
Q 40.234375 -1.421875 26.90625 -1.421875 
Q 22.3125 -1.421875 17.546875 -0.640625 
Q 12.796875 0.140625 7.71875 1.703125 
L 7.71875 11.625 
Q 12.109375 9.234375 16.796875 8.0625 
Q 21.484375 6.890625 26.703125 6.890625 
Q 35.15625 6.890625 40.078125 11.328125 
Q 45.015625 15.765625 45.015625 23.390625 
Q 45.015625 31 40.078125 35.4375 
Q 35.15625 39.890625 26.703125 39.890625 
Q 22.75 39.890625 18.8125 39.015625 
Q 14.890625 38.140625 10.796875 36.28125 
z
" id="DejaVuSans-53"/>
      </defs>
      <g transform="translate(175.743234 154.92124)rotate(-90)scale(0.08 -0.08)">
       <use xlink:href="#DejaVuSans-53"/>
       <use x="63.623047" xlink:href="#DejaVuSans-32"/>
       <use x="95.410156" xlink:href="#DejaVuSans-65"/>
       <use x="163.818359" xlink:href="#DejaVuSans-112"/>
       <use x="227.294922" xlink:href="#DejaVuSans-114"/>
      </g>
     </g>
    </g>
    <g id="xtick_4">
     <g id="line2d_4">
      <g>
       <use style="stroke:#000000;stroke-width:0.8;" x="159.837472" xlink:href="#m8913b28f67" y="126.44874"/>
      </g>
     </g>
     <g id="text_4">
      <!-- 29 Mar -->
      <defs>
       <path d="M 9.8125 72.90625 
L 24.515625 72.90625 
L 43.109375 23.296875 
L 61.8125 72.90625 
L 76.515625 72.90625 
L 76.515625 0 
L 66.890625 0 
L 66.890625 64.015625 
L 48.09375 14.015625 
L 38.1875 14.015625 
L 19.390625 64.015625 
L 19.390625 0 
L 9.8125 0 
z
" id="DejaVuSans-77"/>
       <path d="M 34.28125 27.484375 
Q 23.390625 27.484375 19.1875 25 
Q 14.984375 22.515625 14.984375 16.5 
Q 14.984375 11.71875 18.140625 8.90625 
Q 21.296875 6.109375 26.703125 6.109375 
Q 34.1875 6.109375 38.703125 11.40625 
Q 43.21875 16.703125 43.21875 25.484375 
L 43.21875 27.484375 
z
M 52.203125 31.203125 
L 52.203125 0 
L 43.21875 0 
L 43.21875 8.296875 
Q 40.140625 3.328125 35.546875 0.953125 
Q 30.953125 -1.421875 24.3125 -1.421875 
Q 15.921875 -1.421875 10.953125 3.296875 
Q 6 8.015625 6 15.921875 
Q 6 25.140625 12.171875 29.828125 
Q 18.359375 34.515625 30.609375 34.515625 
L 43.21875 34.515625 
L 43.21875 35.40625 
Q 43.21875 41.609375 39.140625 45 
Q 35.0625 48.390625 27.6875 48.390625 
Q 23 48.390625 18.546875 47.265625 
Q 14.109375 46.140625 10.015625 43.890625 
L 10.015625 52.203125 
Q 14.9375 54.109375 19.578125 55.046875 
Q 24.21875 56 28.609375 56 
Q 40.484375 56 46.34375 49.84375 
Q 52.203125 43.703125 52.203125 31.203125 
z
" id="DejaVuSans-97"/>
      </defs>
      <g transform="translate(162.044972 161.26499)rotate(-90)scale(0.08 -0.08)">
       <use xlink:href="#DejaVuSans-50"/>
       <use x="63.623047" xlink:href="#DejaVuSans-57"/>
       <use x="127.246094" xlink:href="#DejaVuSans-32"/>
       <use x="159.033203" xlink:href="#DejaVuSans-77"/>
       <use x="245.3125" xlink:href="#DejaVuSans-97"/>
       <use x="306.591797" xlink:href="#DejaVuSans-114"/>
      </g>
     </g>
    </g>
    <g id="xtick_5">
     <g id="line2d_5">
      <g>
       <use style="stroke:#000000;stroke-width:0.8;" x="146.139211" xlink:href="#m8913b28f67" y="126.44874"/>
      </g>
     </g>
     <g id="text_5">
      <!-- 22 Mar -->
      <g transform="translate(148.346711 161.26499)rotate(-90)scale(0.08 -0.08)">
       <use xlink:href="#DejaVuSans-50"/>
       <use x="63.623047" xlink:href="#DejaVuSans-50"/>
       <use x="127.246094" xlink:href="#DejaVuSans-32"/>
       <use x="159.033203" xlink:href="#DejaVuSans-77"/>
       <use x="245.3125" xlink:href="#DejaVuSans-97"/>
       <use x="306.591797" xlink:href="#DejaVuSans-114"/>
      </g>
     </g>
    </g>
    <g id="xtick_6">
     <g id="line2d_6">
      <g>
       <use style="stroke:#000000;stroke-width:0.8;" x="132.44095" xlink:href="#m8913b28f67" y="126.44874"/>
      </g>
     </g>
     <g id="text_6">
      <!-- 15 Mar -->
      <g transform="translate(134.64845 161.26499)rotate(-90)scale(0.08 -0.08)">
       <use xlink:href="#DejaVuSans-49"/>
       <use x="63.623047" xlink:href="#DejaVuSans-53"/>
       <use x="127.246094" xlink:href="#DejaVuSans-32"/>
       <use x="159.033203" xlink:href="#DejaVuSans-77"/>
       <use x="245.3125" xlink:href="#DejaVuSans-97"/>
       <use x="306.591797" xlink:href="#DejaVuSans-114"/>
      </g>
     </g>
    </g>
    <g id="xtick_7">
     <g id="line2d_7">
      <g>
       <use style="stroke:#000000;stroke-width:0.8;" x="118.742688" xlink:href="#m8913b28f67" y="126.44874"/>
      </g>
     </g>
     <g id="text_7">
      <!-- 8 Mar -->
      <defs>
       <path d="M 31.78125 34.625 
Q 24.75 34.625 20.71875 30.859375 
Q 16.703125 27.09375 16.703125 20.515625 
Q 16.703125 13.921875 20.71875 10.15625 
Q 24.75 6.390625 31.78125 6.390625 
Q 38.8125 6.390625 42.859375 10.171875 
Q 46.921875 13.96875 46.921875 20.515625 
Q 46.921875 27.09375 42.890625 30.859375 
Q 38.875 34.625 31.78125 34.625 
z
M 21.921875 38.8125 
Q 15.578125 40.375 12.03125 44.71875 
Q 8.5 49.078125 8.5 55.328125 
Q 8.5 64.0625 14.71875 69.140625 
Q 20.953125 74.21875 31.78125 74.21875 
Q 42.671875 74.21875 48.875 69.140625 
Q 55.078125 64.0625 55.078125 55.328125 
Q 55.078125 49.078125 51.53125 44.71875 
Q 48 40.375 41.703125 38.8125 
Q 48.828125 37.15625 52.796875 32.3125 
Q 56.78125 27.484375 56.78125 20.515625 
Q 56.78125 9.90625 50.3125 4.234375 
Q 43.84375 -1.421875 31.78125 -1.421875 
Q 19.734375 -1.421875 13.25 4.234375 
Q 6.78125 9.90625 6.78125 20.515625 
Q 6.78125 27.484375 10.78125 32.3125 
Q 14.796875 37.15625 21.921875 38.8125 
z
M 18.3125 54.390625 
Q 18.3125 48.734375 21.84375 45.5625 
Q 25.390625 42.390625 31.78125 42.390625 
Q 38.140625 42.390625 41.71875 45.5625 
Q 45.3125 48.734375 45.3125 54.390625 
Q 45.3125 60.0625 41.71875 63.234375 
Q 38.140625 66.40625 31.78125 66.40625 
Q 25.390625 66.40625 21.84375 63.234375 
Q 18.3125 60.0625 18.3125 54.390625 
z
" id="DejaVuSans-56"/>
      </defs>
      <g transform="translate(120.950188 156.17499)rotate(-90)scale(0.08 -0.08)">
       <use xlink:href="#DejaVuSans-56"/>
       <use x="63.623047" xlink:href="#DejaVuSans-32"/>
       <use x="95.410156" xlink:href="#DejaVuSans-77"/>
       <use x="181.689453" xlink:href="#DejaVuSans-97"/>
       <use x="242.96875" xlink:href="#DejaVuSans-114"/>
      </g>
     </g>
    </g>
    <g id="xtick_8">
     <g id="line2d_8">
      <g>
       <use style="stroke:#000000;stroke-width:0.8;" x="105.044427" xlink:href="#m8913b28f67" y="126.44874"/>
      </g>
     </g>
     <g id="text_8">
      <!-- 1 Mar -->
      <g transform="translate(107.251927 156.17499)rotate(-90)scale(0.08 -0.08)">
       <use xlink:href="#DejaVuSans-49"/>
       <use x="63.623047" xlink:href="#DejaVuSans-32"/>
       <use x="95.410156" xlink:href="#DejaVuSans-77"/>
       <use x="181.689453" xlink:href="#DejaVuSans-97"/>
       <use x="242.96875" xlink:href="#DejaVuSans-114"/>
      </g>
     </g>
    </g>
    <g id="xtick_9">
     <g id="line2d_9">
      <g>
       <use style="stroke:#000000;stroke-width:0.8;" x="91.346165" xlink:href="#m8913b28f67" y="126.44874"/>
      </g>
     </g>
     <g id="text_9">
      <!-- 23 Feb -->
      <defs>
       <path d="M 40.578125 39.3125 
Q 47.65625 37.796875 51.625 33 
Q 55.609375 28.21875 55.609375 21.1875 
Q 55.609375 10.40625 48.1875 4.484375 
Q 40.765625 -1.421875 27.09375 -1.421875 
Q 22.515625 -1.421875 17.65625 -0.515625 
Q 12.796875 0.390625 7.625 2.203125 
L 7.625 11.71875 
Q 11.71875 9.328125 16.59375 8.109375 
Q 21.484375 6.890625 26.8125 6.890625 
Q 36.078125 6.890625 40.9375 10.546875 
Q 45.796875 14.203125 45.796875 21.1875 
Q 45.796875 27.640625 41.28125 31.265625 
Q 36.765625 34.90625 28.71875 34.90625 
L 20.21875 34.90625 
L 20.21875 43.015625 
L 29.109375 43.015625 
Q 36.375 43.015625 40.234375 45.921875 
Q 44.09375 48.828125 44.09375 54.296875 
Q 44.09375 59.90625 40.109375 62.90625 
Q 36.140625 65.921875 28.71875 65.921875 
Q 24.65625 65.921875 20.015625 65.03125 
Q 15.375 64.15625 9.8125 62.3125 
L 9.8125 71.09375 
Q 15.4375 72.65625 20.34375 73.4375 
Q 25.25 74.21875 29.59375 74.21875 
Q 40.828125 74.21875 47.359375 69.109375 
Q 53.90625 64.015625 53.90625 55.328125 
Q 53.90625 49.265625 50.4375 45.09375 
Q 46.96875 40.921875 40.578125 39.3125 
z
" id="DejaVuSans-51"/>
       <path d="M 9.8125 72.90625 
L 51.703125 72.90625 
L 51.703125 64.59375 
L 19.671875 64.59375 
L 19.671875 43.109375 
L 48.578125 43.109375 
L 48.578125 34.8125 
L 19.671875 34.8125 
L 19.671875 0 
L 9.8125 0 
z
" id="DejaVuSans-70"/>
       <path d="M 56.203125 29.59375 
L 56.203125 25.203125 
L 14.890625 25.203125 
Q 15.484375 15.921875 20.484375 11.0625 
Q 25.484375 6.203125 34.421875 6.203125 
Q 39.59375 6.203125 44.453125 7.46875 
Q 49.3125 8.734375 54.109375 11.28125 
L 54.109375 2.78125 
Q 49.265625 0.734375 44.1875 -0.34375 
Q 39.109375 -1.421875 33.890625 -1.421875 
Q 20.796875 -1.421875 13.15625 6.1875 
Q 5.515625 13.8125 5.515625 26.8125 
Q 5.515625 40.234375 12.765625 48.109375 
Q 20.015625 56 32.328125 56 
Q 43.359375 56 49.78125 48.890625 
Q 56.203125 41.796875 56.203125 29.59375 
z
M 47.21875 32.234375 
Q 47.125 39.59375 43.09375 43.984375 
Q 39.0625 48.390625 32.421875 48.390625 
Q 24.90625 48.390625 20.390625 44.140625 
Q 15.875 39.890625 15.1875 32.171875 
z
" id="DejaVuSans-101"/>
       <path d="M 48.6875 27.296875 
Q 48.6875 37.203125 44.609375 42.84375 
Q 40.53125 48.484375 33.40625 48.484375 
Q 26.265625 48.484375 22.1875 42.84375 
Q 18.109375 37.203125 18.109375 27.296875 
Q 18.109375 17.390625 22.1875 11.75 
Q 26.265625 6.109375 33.40625 6.109375 
Q 40.53125 6.109375 44.609375 11.75 
Q 48.6875 17.390625 48.6875 27.296875 
z
M 18.109375 46.390625 
Q 20.953125 51.265625 25.265625 53.625 
Q 29.59375 56 35.59375 56 
Q 45.5625 56 51.78125 48.09375 
Q 58.015625 40.1875 58.015625 27.296875 
Q 58.015625 14.40625 51.78125 6.484375 
Q 45.5625 -1.421875 35.59375 -1.421875 
Q 29.59375 -1.421875 25.265625 0.953125 
Q 20.953125 3.328125 18.109375 8.203125 
L 18.109375 0 
L 9.078125 0 
L 9.078125 75.984375 
L 18.109375 75.984375 
z
" id="DejaVuSans-98"/>
      </defs>
      <g transform="translate(93.553665 160.33374)rotate(-90)scale(0.08 -0.08)">
       <use xlink:href="#DejaVuSans-50"/>
       <use x="63.623047" xlink:href="#DejaVuSans-51"/>
       <use x="127.246094" xlink:href="#DejaVuSans-32"/>
       <use x="159.033203" xlink:href="#DejaVuSans-70"/>
       <use x="211.052734" xlink:href="#DejaVuSans-101"/>
       <use x="272.576172" xlink:href="#DejaVuSans-98"/>
      </g>
     </g>
    </g>
    <g id="xtick_10">
     <g id="line2d_10">
      <g>
       <use style="stroke:#000000;stroke-width:0.8;" x="77.647904" xlink:href="#m8913b28f67" y="126.44874"/>
      </g>
     </g>
     <g id="text_10">
      <!-- 16 Feb -->
      <defs>
       <path d="M 33.015625 40.375 
Q 26.375 40.375 22.484375 35.828125 
Q 18.609375 31.296875 18.609375 23.390625 
Q 18.609375 15.53125 22.484375 10.953125 
Q 26.375 6.390625 33.015625 6.390625 
Q 39.65625 6.390625 43.53125 10.953125 
Q 47.40625 15.53125 47.40625 23.390625 
Q 47.40625 31.296875 43.53125 35.828125 
Q 39.65625 40.375 33.015625 40.375 
z
M 52.59375 71.296875 
L 52.59375 62.3125 
Q 48.875 64.0625 45.09375 64.984375 
Q 41.3125 65.921875 37.59375 65.921875 
Q 27.828125 65.921875 22.671875 59.328125 
Q 17.53125 52.734375 16.796875 39.40625 
Q 19.671875 43.65625 24.015625 45.921875 
Q 28.375 48.1875 33.59375 48.1875 
Q 44.578125 48.1875 50.953125 41.515625 
Q 57.328125 34.859375 57.328125 23.390625 
Q 57.328125 12.15625 50.6875 5.359375 
Q 44.046875 -1.421875 33.015625 -1.421875 
Q 20.359375 -1.421875 13.671875 8.265625 
Q 6.984375 17.96875 6.984375 36.375 
Q 6.984375 53.65625 15.1875 63.9375 
Q 23.390625 74.21875 37.203125 74.21875 
Q 40.921875 74.21875 44.703125 73.484375 
Q 48.484375 72.75 52.59375 71.296875 
z
" id="DejaVuSans-54"/>
      </defs>
      <g transform="translate(79.855404 160.33374)rotate(-90)scale(0.08 -0.08)">
       <use xlink:href="#DejaVuSans-49"/>
       <use x="63.623047" xlink:href="#DejaVuSans-54"/>
       <use x="127.246094" xlink:href="#DejaVuSans-32"/>
       <use x="159.033203" xlink:href="#DejaVuSans-70"/>
       <use x="211.052734" xlink:href="#DejaVuSans-101"/>
       <use x="272.576172" xlink:href="#DejaVuSans-98"/>
      </g>
     </g>
    </g>
    <g id="xtick_11">
     <g id="line2d_11">
      <g>
       <use style="stroke:#000000;stroke-width:0.8;" x="63.949643" xlink:href="#m8913b28f67" y="126.44874"/>
      </g>
     </g>
     <g id="text_11">
      <!-- 9 Feb -->
      <g transform="translate(66.157143 155.24374)rotate(-90)scale(0.08 -0.08)">
       <use xlink:href="#DejaVuSans-57"/>
       <use x="63.623047" xlink:href="#DejaVuSans-32"/>
       <use x="95.410156" xlink:href="#DejaVuSans-70"/>
       <use x="147.429688" xlink:href="#DejaVuSans-101"/>
       <use x="208.953125" xlink:href="#DejaVuSans-98"/>
      </g>
     </g>
    </g>
   </g>
   <g id="matplotlib.axis_2">
    <g id="ytick_1">
     <g id="line2d_12">
      <defs>
       <path d="M 0 0 
L -3.5 0 
" id="m0db1690b20" style="stroke:#000000;stroke-width:0.8;"/>
      </defs>
      <g>
       <use style="stroke:#000000;stroke-width:0.8;" x="52.13" xlink:href="#m0db1690b20" y="126.44874"/>
      </g>
     </g>
     <g id="text_12">
      <!-- 0 -->
      <defs>
       <path d="M 31.78125 66.40625 
Q 24.171875 66.40625 20.328125 58.90625 
Q 16.5 51.421875 16.5 36.375 
Q 16.5 21.390625 20.328125 13.890625 
Q 24.171875 6.390625 31.78125 6.390625 
Q 39.453125 6.390625 43.28125 13.890625 
Q 47.125 21.390625 47.125 36.375 
Q 47.125 51.421875 43.28125 58.90625 
Q 39.453125 66.40625 31.78125 66.40625 
z
M 31.78125 74.21875 
Q 44.046875 74.21875 50.515625 64.515625 
Q 56.984375 54.828125 56.984375 36.375 
Q 56.984375 17.96875 50.515625 8.265625 
Q 44.046875 -1.421875 31.78125 -1.421875 
Q 19.53125 -1.421875 13.0625 8.265625 
Q 6.59375 17.96875 6.59375 36.375 
Q 6.59375 54.828125 13.0625 64.515625 
Q 19.53125 74.21875 31.78125 74.21875 
z
" id="DejaVuSans-48"/>
      </defs>
      <g transform="translate(40.04 129.488115)scale(0.08 -0.08)">
       <use xlink:href="#DejaVuSans-48"/>
      </g>
     </g>
    </g>
    <g id="ytick_2">
     <g id="line2d_13">
      <g>
       <use style="stroke:#000000;stroke-width:0.8;" x="52.13" xlink:href="#m0db1690b20" y="95.763762"/>
      </g>
     </g>
     <g id="text_13">
      <!-- 5000 -->
      <g transform="translate(24.77 98.803137)scale(0.08 -0.08)">
       <use xlink:href="#DejaVuSans-53"/>
       <use x="63.623047" xlink:href="#DejaVuSans-48"/>
       <use x="127.246094" xlink:href="#DejaVuSans-48"/>
       <use x="190.869141" xlink:href="#DejaVuSans-48"/>
      </g>
     </g>
    </g>
    <g id="ytick_3">
     <g id="line2d_14">
      <g>
       <use style="stroke:#000000;stroke-width:0.8;" x="52.13" xlink:href="#m0db1690b20" y="65.078784"/>
      </g>
     </g>
     <g id="text_14">
      <!-- 10000 -->
      <g transform="translate(19.68 68.118159)scale(0.08 -0.08)">
       <use xlink:href="#DejaVuSans-49"/>
       <use x="63.623047" xlink:href="#DejaVuSans-48"/>
       <use x="127.246094" xlink:href="#DejaVuSans-48"/>
       <use x="190.869141" xlink:href="#DejaVuSans-48"/>
       <use x="254.492188" xlink:href="#DejaVuSans-48"/>
      </g>
     </g>
    </g>
    <g id="ytick_4">
     <g id="line2d_15">
      <g>
       <use style="stroke:#000000;stroke-width:0.8;" x="52.13" xlink:href="#m0db1690b20" y="34.393806"/>
      </g>
     </g>
     <g id="text_15">
      <!-- 15000 -->
      <g transform="translate(19.68 37.433181)scale(0.08 -0.08)">
       <use xlink:href="#DejaVuSans-49"/>
       <use x="63.623047" xlink:href="#DejaVuSans-53"/>
       <use x="127.246094" xlink:href="#DejaVuSans-48"/>
       <use x="190.869141" xlink:href="#DejaVuSans-48"/>
       <use x="254.492188" xlink:href="#DejaVuSans-48"/>
      </g>
     </g>
    </g>
    <g id="text_16">
     <!-- Cumulative deaths -->
     <defs>
      <path d="M 64.40625 67.28125 
L 64.40625 56.890625 
Q 59.421875 61.53125 53.78125 63.8125 
Q 48.140625 66.109375 41.796875 66.109375 
Q 29.296875 66.109375 22.65625 58.46875 
Q 16.015625 50.828125 16.015625 36.375 
Q 16.015625 21.96875 22.65625 14.328125 
Q 29.296875 6.6875 41.796875 6.6875 
Q 48.140625 6.6875 53.78125 8.984375 
Q 59.421875 11.28125 64.40625 15.921875 
L 64.40625 5.609375 
Q 59.234375 2.09375 53.4375 0.328125 
Q 47.65625 -1.421875 41.21875 -1.421875 
Q 24.65625 -1.421875 15.125 8.703125 
Q 5.609375 18.84375 5.609375 36.375 
Q 5.609375 53.953125 15.125 64.078125 
Q 24.65625 74.21875 41.21875 74.21875 
Q 47.75 74.21875 53.53125 72.484375 
Q 59.328125 70.75 64.40625 67.28125 
z
" id="DejaVuSans-67"/>
      <path d="M 8.5 21.578125 
L 8.5 54.6875 
L 17.484375 54.6875 
L 17.484375 21.921875 
Q 17.484375 14.15625 20.5 10.265625 
Q 23.53125 6.390625 29.59375 6.390625 
Q 36.859375 6.390625 41.078125 11.03125 
Q 45.3125 15.671875 45.3125 23.6875 
L 45.3125 54.6875 
L 54.296875 54.6875 
L 54.296875 0 
L 45.3125 0 
L 45.3125 8.40625 
Q 42.046875 3.421875 37.71875 1 
Q 33.40625 -1.421875 27.6875 -1.421875 
Q 18.265625 -1.421875 13.375 4.4375 
Q 8.5 10.296875 8.5 21.578125 
z
M 31.109375 56 
z
" id="DejaVuSans-117"/>
      <path d="M 52 44.1875 
Q 55.375 50.25 60.0625 53.125 
Q 64.75 56 71.09375 56 
Q 79.640625 56 84.28125 50.015625 
Q 88.921875 44.046875 88.921875 33.015625 
L 88.921875 0 
L 79.890625 0 
L 79.890625 32.71875 
Q 79.890625 40.578125 77.09375 44.375 
Q 74.3125 48.1875 68.609375 48.1875 
Q 61.625 48.1875 57.5625 43.546875 
Q 53.515625 38.921875 53.515625 30.90625 
L 53.515625 0 
L 44.484375 0 
L 44.484375 32.71875 
Q 44.484375 40.625 41.703125 44.40625 
Q 38.921875 48.1875 33.109375 48.1875 
Q 26.21875 48.1875 22.15625 43.53125 
Q 18.109375 38.875 18.109375 30.90625 
L 18.109375 0 
L 9.078125 0 
L 9.078125 54.6875 
L 18.109375 54.6875 
L 18.109375 46.1875 
Q 21.1875 51.21875 25.484375 53.609375 
Q 29.78125 56 35.6875 56 
Q 41.65625 56 45.828125 52.96875 
Q 50 49.953125 52 44.1875 
z
" id="DejaVuSans-109"/>
      <path d="M 9.421875 75.984375 
L 18.40625 75.984375 
L 18.40625 0 
L 9.421875 0 
z
" id="DejaVuSans-108"/>
      <path d="M 18.3125 70.21875 
L 18.3125 54.6875 
L 36.8125 54.6875 
L 36.8125 47.703125 
L 18.3125 47.703125 
L 18.3125 18.015625 
Q 18.3125 11.328125 20.140625 9.421875 
Q 21.96875 7.515625 27.59375 7.515625 
L 36.8125 7.515625 
L 36.8125 0 
L 27.59375 0 
Q 17.1875 0 13.234375 3.875 
Q 9.28125 7.765625 9.28125 18.015625 
L 9.28125 47.703125 
L 2.6875 47.703125 
L 2.6875 54.6875 
L 9.28125 54.6875 
L 9.28125 70.21875 
z
" id="DejaVuSans-116"/>
      <path d="M 9.421875 54.6875 
L 18.40625 54.6875 
L 18.40625 0 
L 9.421875 0 
z
M 9.421875 75.984375 
L 18.40625 75.984375 
L 18.40625 64.59375 
L 9.421875 64.59375 
z
" id="DejaVuSans-105"/>
      <path d="M 2.984375 54.6875 
L 12.5 54.6875 
L 29.59375 8.796875 
L 46.6875 54.6875 
L 56.203125 54.6875 
L 35.6875 0 
L 23.484375 0 
z
" id="DejaVuSans-118"/>
      <path d="M 45.40625 46.390625 
L 45.40625 75.984375 
L 54.390625 75.984375 
L 54.390625 0 
L 45.40625 0 
L 45.40625 8.203125 
Q 42.578125 3.328125 38.25 0.953125 
Q 33.9375 -1.421875 27.875 -1.421875 
Q 17.96875 -1.421875 11.734375 6.484375 
Q 5.515625 14.40625 5.515625 27.296875 
Q 5.515625 40.1875 11.734375 48.09375 
Q 17.96875 56 27.875 56 
Q 33.9375 56 38.25 53.625 
Q 42.578125 51.265625 45.40625 46.390625 
z
M 14.796875 27.296875 
Q 14.796875 17.390625 18.875 11.75 
Q 22.953125 6.109375 30.078125 6.109375 
Q 37.203125 6.109375 41.296875 11.75 
Q 45.40625 17.390625 45.40625 27.296875 
Q 45.40625 37.203125 41.296875 42.84375 
Q 37.203125 48.484375 30.078125 48.484375 
Q 22.953125 48.484375 18.875 42.84375 
Q 14.796875 37.203125 14.796875 27.296875 
z
" id="DejaVuSans-100"/>
      <path d="M 54.890625 33.015625 
L 54.890625 0 
L 45.90625 0 
L 45.90625 32.71875 
Q 45.90625 40.484375 42.875 44.328125 
Q 39.84375 48.1875 33.796875 48.1875 
Q 26.515625 48.1875 22.3125 43.546875 
Q 18.109375 38.921875 18.109375 30.90625 
L 18.109375 0 
L 9.078125 0 
L 9.078125 75.984375 
L 18.109375 75.984375 
L 18.109375 46.1875 
Q 21.34375 51.125 25.703125 53.5625 
Q 30.078125 56 35.796875 56 
Q 45.21875 56 50.046875 50.171875 
Q 54.890625 44.34375 54.890625 33.015625 
z
" id="DejaVuSans-104"/>
      <path d="M 44.28125 53.078125 
L 44.28125 44.578125 
Q 40.484375 46.53125 36.375 47.5 
Q 32.28125 48.484375 27.875 48.484375 
Q 21.1875 48.484375 17.84375 46.4375 
Q 14.5 44.390625 14.5 40.28125 
Q 14.5 37.15625 16.890625 35.375 
Q 19.28125 33.59375 26.515625 31.984375 
L 29.59375 31.296875 
Q 39.15625 29.25 43.1875 25.515625 
Q 47.21875 21.78125 47.21875 15.09375 
Q 47.21875 7.46875 41.1875 3.015625 
Q 35.15625 -1.421875 24.609375 -1.421875 
Q 20.21875 -1.421875 15.453125 -0.5625 
Q 10.6875 0.296875 5.421875 2 
L 5.421875 11.28125 
Q 10.40625 8.6875 15.234375 7.390625 
Q 20.0625 6.109375 24.8125 6.109375 
Q 31.15625 6.109375 34.5625 8.28125 
Q 37.984375 10.453125 37.984375 14.40625 
Q 37.984375 18.0625 35.515625 20.015625 
Q 33.0625 21.96875 24.703125 23.78125 
L 21.578125 24.515625 
Q 13.234375 26.265625 9.515625 29.90625 
Q 5.8125 33.546875 5.8125 39.890625 
Q 5.8125 47.609375 11.28125 51.796875 
Q 16.75 56 26.8125 56 
Q 31.78125 56 36.171875 55.265625 
Q 40.578125 54.546875 44.28125 53.078125 
z
" id="DejaVuSans-115"/>
     </defs>
     <g transform="translate(14.01625 106.72437)rotate(-90)scale(0.08 -0.08)">
      <use xlink:href="#DejaVuSans-67"/>
      <use x="69.824219" xlink:href="#DejaVuSans-117"/>
      <use x="133.203125" xlink:href="#DejaVuSans-109"/>
      <use x="230.615234" xlink:href="#DejaVuSans-117"/>
      <use x="293.994141" xlink:href="#DejaVuSans-108"/>
      <use x="321.777344" xlink:href="#DejaVuSans-97"/>
      <use x="383.056641" xlink:href="#DejaVuSans-116"/>
      <use x="422.265625" xlink:href="#DejaVuSans-105"/>
      <use x="450.048828" xlink:href="#DejaVuSans-118"/>
      <use x="509.228516" xlink:href="#DejaVuSans-101"/>
      <use x="570.751953" xlink:href="#DejaVuSans-32"/>
      <use x="602.539062" xlink:href="#DejaVuSans-100"/>
      <use x="666.015625" xlink:href="#DejaVuSans-101"/>
      <use x="727.539062" xlink:href="#DejaVuSans-97"/>
      <use x="788.818359" xlink:href="#DejaVuSans-116"/>
      <use x="828.027344" xlink:href="#DejaVuSans-104"/>
      <use x="891.40625" xlink:href="#DejaVuSans-115"/>
     </g>
    </g>
   </g>
   <g id="line2d_16">
    <path clip-path="url(#pb93be9c5e8)" d="M 60.035854 126.44874 
L 61.992748 126.44874 
L 63.949643 126.448739 
L 65.906537 126.448733 
L 67.863432 126.448716 
L 69.820326 126.448679 
L 71.777221 126.448611 
L 73.734115 126.448495 
L 75.69101 126.448316 
L 77.647904 126.448052 
L 79.604799 126.447682 
L 81.561693 126.447178 
L 83.518588 126.446509 
L 85.475482 126.445638 
L 87.432376 126.44452 
L 89.389271 126.443104 
L 91.346165 126.441329 
L 93.30306 126.439124 
L 95.259954 126.4364 
L 97.216849 126.433045 
L 99.173743 126.428925 
L 101.130638 126.423874 
L 103.087532 126.417692 
L 105.044427 126.410141 
L 107.001321 126.40093 
L 108.958216 126.389696 
L 110.91511 126.375992 
L 112.872005 126.359248 
L 114.828899 126.338757 
L 116.785794 126.313651 
L 118.742688 126.282856 
L 120.699583 126.245058 
L 122.656477 126.198642 
L 124.613372 126.141614 
L 126.570266 126.071531 
L 128.527161 125.985376 
L 130.484055 125.879369 
L 132.44095 125.748321 
L 134.397844 125.585755 
L 136.354739 125.38212 
L 138.311633 125.119888 
L 140.268528 124.777118 
L 142.225422 124.327022 
L 144.182317 123.741662 
L 146.139211 122.994968 
L 148.096105 122.065099 
L 150.053 120.936022 
L 152.009894 119.59789 
L 153.966789 118.047251 
L 155.923683 116.286503 
L 157.880578 114.323169 
L 159.837472 112.169072 
" style="fill:none;stroke:#0000ff;stroke-linecap:square;stroke-opacity:0.5;"/>
   </g>
   <g id="line2d_17">
    <path clip-path="url(#pb93be9c5e8)" d="M 161.794367 109.839563 
L 163.751261 107.352841 
L 165.708156 104.72925 
L 167.66505 101.990662 
L 169.621945 99.159819 
L 171.578839 96.259713 
L 173.535734 93.313004 
L 175.492628 90.341521 
L 177.449523 87.365836 
L 179.406417 84.404938 
L 181.363312 81.475984 
L 183.320206 78.594143 
L 185.277101 75.772508 
L 187.233995 73.022075 
L 189.19089 70.351778 
L 191.147784 67.768557 
L 193.104679 65.277472 
L 195.061573 62.881828 
L 197.018468 60.583319 
L 198.975362 58.38218 
L 200.932257 56.277338 
" style="fill:none;stroke:#008000;stroke-linecap:square;stroke-opacity:0.5;"/>
   </g>
   <g id="line2d_18">
    <path clip-path="url(#pb93be9c5e8)" d="M 128.527161 126.44874 
L 128.527161 11.52 
" style="fill:none;stroke:#0000ff;stroke-dasharray:1.85,0.8;stroke-dashoffset:0;stroke-width:0.5;"/>
   </g>
   <g id="line2d_19">
    <path clip-path="url(#pb93be9c5e8)" d="M 130.484055 126.44874 
L 130.484055 11.52 
" style="fill:none;stroke:#0000ff;stroke-dasharray:1.85,0.8;stroke-dashoffset:0;stroke-width:0.5;"/>
   </g>
   <g id="line2d_20">
    <path clip-path="url(#pb93be9c5e8)" d="M 136.354739 126.44874 
L 136.354739 11.52 
" style="fill:none;stroke:#0000ff;stroke-dasharray:1.85,0.8;stroke-dashoffset:0;stroke-width:0.5;"/>
   </g>
   <g id="line2d_21">
    <path clip-path="url(#pb93be9c5e8)" d="M 134.397844 126.44874 
L 134.397844 11.52 
" style="fill:none;stroke:#0000ff;stroke-dasharray:1.85,0.8;stroke-dashoffset:0;stroke-width:0.5;"/>
   </g>
   <g id="line2d_22">
    <path clip-path="url(#pb93be9c5e8)" d="M 134.397844 126.44874 
L 134.397844 11.52 
" style="fill:none;stroke:#0000ff;stroke-dasharray:1.85,0.8;stroke-dashoffset:0;stroke-width:0.5;"/>
   </g>
   <g id="patch_76">
    <path d="M 52.13 126.44874 
L 52.13 11.52 
" style="fill:none;stroke:#000000;stroke-linecap:square;stroke-linejoin:miter;stroke-width:0.8;"/>
   </g>
   <g id="patch_77">
    <path d="M 208.83811 126.44874 
L 208.83811 11.52 
" style="fill:none;stroke:#000000;stroke-linecap:square;stroke-linejoin:miter;stroke-width:0.8;"/>
   </g>
   <g id="patch_78">
    <path d="M 52.13 126.44874 
L 208.83811 126.44874 
" style="fill:none;stroke:#000000;stroke-linecap:square;stroke-linejoin:miter;stroke-width:0.8;"/>
   </g>
   <g id="patch_79">
    <path d="M 52.13 11.52 
L 208.83811 11.52 
" style="fill:none;stroke:#000000;stroke-linecap:square;stroke-linejoin:miter;stroke-width:0.8;"/>
   </g>
   <g id="legend_1">
    <g id="line2d_23">
     <path d="M 59.33 103.04249 
L 75.33 103.04249 
" style="fill:none;stroke:#0000ff;stroke-linecap:square;stroke-opacity:0.5;"/>
    </g>
    <g id="line2d_24"/>
    <g id="text_17">
     <!-- Simulation -->
     <defs>
      <path d="M 53.515625 70.515625 
L 53.515625 60.890625 
Q 47.90625 63.578125 42.921875 64.890625 
Q 37.9375 66.21875 33.296875 66.21875 
Q 25.25 66.21875 20.875 63.09375 
Q 16.5 59.96875 16.5 54.203125 
Q 16.5 49.359375 19.40625 46.890625 
Q 22.3125 44.4375 30.421875 42.921875 
L 36.375 41.703125 
Q 47.40625 39.59375 52.65625 34.296875 
Q 57.90625 29 57.90625 20.125 
Q 57.90625 9.515625 50.796875 4.046875 
Q 43.703125 -1.421875 29.984375 -1.421875 
Q 24.8125 -1.421875 18.96875 -0.25 
Q 13.140625 0.921875 6.890625 3.21875 
L 6.890625 13.375 
Q 12.890625 10.015625 18.65625 8.296875 
Q 24.421875 6.59375 29.984375 6.59375 
Q 38.421875 6.59375 43.015625 9.90625 
Q 47.609375 13.234375 47.609375 19.390625 
Q 47.609375 24.75 44.3125 27.78125 
Q 41.015625 30.8125 33.5 32.328125 
L 27.484375 33.5 
Q 16.453125 35.6875 11.515625 40.375 
Q 6.59375 45.0625 6.59375 53.421875 
Q 6.59375 63.09375 13.40625 68.65625 
Q 20.21875 74.21875 32.171875 74.21875 
Q 37.3125 74.21875 42.625 73.28125 
Q 47.953125 72.359375 53.515625 70.515625 
z
" id="DejaVuSans-83"/>
      <path d="M 30.609375 48.390625 
Q 23.390625 48.390625 19.1875 42.75 
Q 14.984375 37.109375 14.984375 27.296875 
Q 14.984375 17.484375 19.15625 11.84375 
Q 23.34375 6.203125 30.609375 6.203125 
Q 37.796875 6.203125 41.984375 11.859375 
Q 46.1875 17.53125 46.1875 27.296875 
Q 46.1875 37.015625 41.984375 42.703125 
Q 37.796875 48.390625 30.609375 48.390625 
z
M 30.609375 56 
Q 42.328125 56 49.015625 48.375 
Q 55.71875 40.765625 55.71875 27.296875 
Q 55.71875 13.875 49.015625 6.21875 
Q 42.328125 -1.421875 30.609375 -1.421875 
Q 18.84375 -1.421875 12.171875 6.21875 
Q 5.515625 13.875 5.515625 27.296875 
Q 5.515625 40.765625 12.171875 48.375 
Q 18.84375 56 30.609375 56 
z
" id="DejaVuSans-111"/>
      <path d="M 54.890625 33.015625 
L 54.890625 0 
L 45.90625 0 
L 45.90625 32.71875 
Q 45.90625 40.484375 42.875 44.328125 
Q 39.84375 48.1875 33.796875 48.1875 
Q 26.515625 48.1875 22.3125 43.546875 
Q 18.109375 38.921875 18.109375 30.90625 
L 18.109375 0 
L 9.078125 0 
L 9.078125 54.6875 
L 18.109375 54.6875 
L 18.109375 46.1875 
Q 21.34375 51.125 25.703125 53.5625 
Q 30.078125 56 35.796875 56 
Q 45.21875 56 50.046875 50.171875 
Q 54.890625 44.34375 54.890625 33.015625 
z
" id="DejaVuSans-110"/>
     </defs>
     <g transform="translate(81.73 105.84249)scale(0.08 -0.08)">
      <use xlink:href="#DejaVuSans-83"/>
      <use x="63.476562" xlink:href="#DejaVuSans-105"/>
      <use x="91.259766" xlink:href="#DejaVuSans-109"/>
      <use x="188.671875" xlink:href="#DejaVuSans-117"/>
      <use x="252.050781" xlink:href="#DejaVuSans-108"/>
      <use x="279.833984" xlink:href="#DejaVuSans-97"/>
      <use x="341.113281" xlink:href="#DejaVuSans-116"/>
      <use x="380.322266" xlink:href="#DejaVuSans-105"/>
      <use x="408.105469" xlink:href="#DejaVuSans-111"/>
      <use x="469.287109" xlink:href="#DejaVuSans-110"/>
     </g>
    </g>
    <g id="line2d_25">
     <path d="M 59.33 114.78499 
L 75.33 114.78499 
" style="fill:none;stroke:#008000;stroke-linecap:square;stroke-opacity:0.5;"/>
    </g>
    <g id="line2d_26"/>
    <g id="text_18">
     <!-- Forecast -->
     <defs>
      <path d="M 48.78125 52.59375 
L 48.78125 44.1875 
Q 44.96875 46.296875 41.140625 47.34375 
Q 37.3125 48.390625 33.40625 48.390625 
Q 24.65625 48.390625 19.8125 42.84375 
Q 14.984375 37.3125 14.984375 27.296875 
Q 14.984375 17.28125 19.8125 11.734375 
Q 24.65625 6.203125 33.40625 6.203125 
Q 37.3125 6.203125 41.140625 7.25 
Q 44.96875 8.296875 48.78125 10.40625 
L 48.78125 2.09375 
Q 45.015625 0.34375 40.984375 -0.53125 
Q 36.96875 -1.421875 32.421875 -1.421875 
Q 20.0625 -1.421875 12.78125 6.34375 
Q 5.515625 14.109375 5.515625 27.296875 
Q 5.515625 40.671875 12.859375 48.328125 
Q 20.21875 56 33.015625 56 
Q 37.15625 56 41.109375 55.140625 
Q 45.0625 54.296875 48.78125 52.59375 
z
" id="DejaVuSans-99"/>
     </defs>
     <g transform="translate(81.73 117.58499)scale(0.08 -0.08)">
      <use xlink:href="#DejaVuSans-70"/>
      <use x="53.894531" xlink:href="#DejaVuSans-111"/>
      <use x="115.076172" xlink:href="#DejaVuSans-114"/>
      <use x="153.939453" xlink:href="#DejaVuSans-101"/>
      <use x="215.462891" xlink:href="#DejaVuSans-99"/>
      <use x="270.443359" xlink:href="#DejaVuSans-97"/>
      <use x="331.722656" xlink:href="#DejaVuSans-115"/>
      <use x="383.822266" xlink:href="#DejaVuSans-116"/>
     </g>
    </g>
   </g>
  </g>
  <g id="axes_2">
   <g id="matplotlib.axis_3">
    <g id="ytick_5">
     <g id="line2d_27">
      <defs>
       <path d="M 0 0 
L 3.5 0 
" id="mb453ee153f" style="stroke:#000000;stroke-width:0.8;"/>
      </defs>
      <g>
       <use style="stroke:#000000;stroke-width:0.8;" x="208.83811" xlink:href="#mb453ee153f" y="126.44874"/>
      </g>
     </g>
     <g id="text_19">
      <!-- 1.0 -->
      <defs>
       <path d="M 10.59375 35.5 
L 73.1875 35.5 
L 73.1875 27.203125 
L 10.59375 27.203125 
z
" id="DejaVuSans-8722"/>
       <path d="M 10.6875 12.40625 
L 21 12.40625 
L 21 0 
L 10.6875 0 
z
" id="DejaVuSans-46"/>
      </defs>
      <g transform="translate(215.83811 129.488115)scale(0.08 -0.08)">
       <use xlink:href="#DejaVuSans-8722"/>
       <use x="83.789062" xlink:href="#DejaVuSans-49"/>
       <use x="147.412109" xlink:href="#DejaVuSans-46"/>
       <use x="179.199219" xlink:href="#DejaVuSans-48"/>
      </g>
     </g>
    </g>
    <g id="ytick_6">
     <g id="line2d_28">
      <g>
       <use style="stroke:#000000;stroke-width:0.8;" x="208.83811" xlink:href="#mb453ee153f" y="85.402762"/>
      </g>
     </g>
     <g id="text_20">
      <!-- 0.5 -->
      <g transform="translate(215.83811 88.442137)scale(0.08 -0.08)">
       <use xlink:href="#DejaVuSans-8722"/>
       <use x="83.789062" xlink:href="#DejaVuSans-48"/>
       <use x="147.412109" xlink:href="#DejaVuSans-46"/>
       <use x="179.199219" xlink:href="#DejaVuSans-53"/>
      </g>
     </g>
    </g>
    <g id="ytick_7">
     <g id="line2d_29">
      <g>
       <use style="stroke:#000000;stroke-width:0.8;" x="208.83811" xlink:href="#mb453ee153f" y="44.356783"/>
      </g>
     </g>
     <g id="text_21">
      <!-- 0.0 -->
      <g transform="translate(215.83811 47.396158)scale(0.08 -0.08)">
       <use xlink:href="#DejaVuSans-48"/>
       <use x="63.623047" xlink:href="#DejaVuSans-46"/>
       <use x="95.410156" xlink:href="#DejaVuSans-48"/>
      </g>
     </g>
    </g>
    <g id="ytick_8">
     <g id="line2d_30">
      <g>
       <use style="stroke:#000000;stroke-width:0.8;" x="208.83811" xlink:href="#mb453ee153f" y="11.52"/>
      </g>
     </g>
     <g id="text_22">
      <!-- 0.4 -->
      <defs>
       <path d="M 37.796875 64.3125 
L 12.890625 25.390625 
L 37.796875 25.390625 
z
M 35.203125 72.90625 
L 47.609375 72.90625 
L 47.609375 25.390625 
L 58.015625 25.390625 
L 58.015625 17.1875 
L 47.609375 17.1875 
L 47.609375 0 
L 37.796875 0 
L 37.796875 17.1875 
L 4.890625 17.1875 
L 4.890625 26.703125 
z
" id="DejaVuSans-52"/>
      </defs>
      <g transform="translate(215.83811 14.559375)scale(0.08 -0.08)">
       <use xlink:href="#DejaVuSans-48"/>
       <use x="63.623047" xlink:href="#DejaVuSans-46"/>
       <use x="95.410156" xlink:href="#DejaVuSans-52"/>
      </g>
     </g>
    </g>
    <g id="text_23">
     <!-- Relative change -->
     <defs>
      <path d="M 44.390625 34.1875 
Q 47.5625 33.109375 50.5625 29.59375 
Q 53.5625 26.078125 56.59375 19.921875 
L 66.609375 0 
L 56 0 
L 46.6875 18.703125 
Q 43.0625 26.03125 39.671875 28.421875 
Q 36.28125 30.8125 30.421875 30.8125 
L 19.671875 30.8125 
L 19.671875 0 
L 9.8125 0 
L 9.8125 72.90625 
L 32.078125 72.90625 
Q 44.578125 72.90625 50.734375 67.671875 
Q 56.890625 62.453125 56.890625 51.90625 
Q 56.890625 45.015625 53.6875 40.46875 
Q 50.484375 35.9375 44.390625 34.1875 
z
M 19.671875 64.796875 
L 19.671875 38.921875 
L 32.078125 38.921875 
Q 39.203125 38.921875 42.84375 42.21875 
Q 46.484375 45.515625 46.484375 51.90625 
Q 46.484375 58.296875 42.84375 61.546875 
Q 39.203125 64.796875 32.078125 64.796875 
z
" id="DejaVuSans-82"/>
      <path d="M 45.40625 27.984375 
Q 45.40625 37.75 41.375 43.109375 
Q 37.359375 48.484375 30.078125 48.484375 
Q 22.859375 48.484375 18.828125 43.109375 
Q 14.796875 37.75 14.796875 27.984375 
Q 14.796875 18.265625 18.828125 12.890625 
Q 22.859375 7.515625 30.078125 7.515625 
Q 37.359375 7.515625 41.375 12.890625 
Q 45.40625 18.265625 45.40625 27.984375 
z
M 54.390625 6.78125 
Q 54.390625 -7.171875 48.1875 -13.984375 
Q 42 -20.796875 29.203125 -20.796875 
Q 24.46875 -20.796875 20.265625 -20.09375 
Q 16.0625 -19.390625 12.109375 -17.921875 
L 12.109375 -9.1875 
Q 16.0625 -11.328125 19.921875 -12.34375 
Q 23.78125 -13.375 27.78125 -13.375 
Q 36.625 -13.375 41.015625 -8.765625 
Q 45.40625 -4.15625 45.40625 5.171875 
L 45.40625 9.625 
Q 42.625 4.78125 38.28125 2.390625 
Q 33.9375 0 27.875 0 
Q 17.828125 0 11.671875 7.65625 
Q 5.515625 15.328125 5.515625 27.984375 
Q 5.515625 40.671875 11.671875 48.328125 
Q 17.828125 56 27.875 56 
Q 33.9375 56 38.28125 53.609375 
Q 42.625 51.21875 45.40625 46.390625 
L 45.40625 54.6875 
L 54.390625 54.6875 
z
" id="DejaVuSans-103"/>
     </defs>
     <g transform="translate(245.34311 101.10812)rotate(-90)scale(0.08 -0.08)">
      <use xlink:href="#DejaVuSans-82"/>
      <use x="64.982422" xlink:href="#DejaVuSans-101"/>
      <use x="126.505859" xlink:href="#DejaVuSans-108"/>
      <use x="154.289062" xlink:href="#DejaVuSans-97"/>
      <use x="215.568359" xlink:href="#DejaVuSans-116"/>
      <use x="254.777344" xlink:href="#DejaVuSans-105"/>
      <use x="282.560547" xlink:href="#DejaVuSans-118"/>
      <use x="341.740234" xlink:href="#DejaVuSans-101"/>
      <use x="403.263672" xlink:href="#DejaVuSans-32"/>
      <use x="435.050781" xlink:href="#DejaVuSans-99"/>
      <use x="490.03125" xlink:href="#DejaVuSans-104"/>
      <use x="553.410156" xlink:href="#DejaVuSans-97"/>
      <use x="614.689453" xlink:href="#DejaVuSans-110"/>
      <use x="678.068359" xlink:href="#DejaVuSans-103"/>
      <use x="741.544922" xlink:href="#DejaVuSans-101"/>
     </g>
    </g>
   </g>
   <g id="line2d_31">
    <path clip-path="url(#pb93be9c5e8)" d="M 60.035854 44.356783 
L 61.992748 44.356783 
L 63.949643 44.356783 
L 65.906537 44.356783 
L 67.863432 44.356783 
L 69.820326 44.356783 
L 71.777221 44.356783 
L 73.734115 44.356783 
L 75.69101 45.998622 
L 77.647904 39.431265 
L 79.604799 43.535863 
L 81.561693 40.252185 
L 83.518588 47.640461 
L 85.475482 45.998622 
L 87.432376 45.177702 
L 89.389271 49.2823 
L 91.346165 37.789426 
L 93.30306 41.894024 
L 95.259954 43.535863 
L 97.216849 48.461381 
L 99.173743 48.461381 
L 101.130638 45.177702 
L 103.087532 50.10322 
L 105.044427 43.535863 
L 107.001321 49.2823 
L 108.958216 45.177702 
L 110.91511 49.2823 
L 112.872005 50.924139 
L 114.828899 45.998622 
L 116.785794 47.640461 
L 118.742688 44.356783 
L 120.699583 48.461381 
L 122.656477 48.461381 
L 124.613372 49.2823 
L 126.570266 50.924139 
L 128.527161 50.924139 
L 130.484055 61.596094 
L 132.44095 75.551727 
L 134.397844 79.656325 
L 136.354739 100.179314 
L 138.311633 112.493107 
L 140.268528 111.672188 
L 142.225422 112.493107 
L 144.182317 116.597705 
L 146.139211 114.955866 
L 148.096105 110.851268 
L 150.053 112.493107 
L 152.009894 113.314027 
L 153.966789 113.314027 
L 155.923683 113.314027 
L 157.880578 115.776786 
L 159.837472 116.597705 
" style="fill:none;stroke:#d62728;stroke-linecap:square;stroke-opacity:0.5;"/>
   </g>
   <g id="line2d_32">
    <path clip-path="url(#pb93be9c5e8)" d="M 60.035854 44.356783 
L 61.992748 44.356783 
L 63.949643 44.356783 
L 65.906537 44.356783 
L 67.863432 44.356783 
L 69.820326 44.356783 
L 71.777221 44.356783 
L 73.734115 44.356783 
L 75.69101 45.177702 
L 77.647904 42.714944 
L 79.604799 42.714944 
L 81.561693 42.714944 
L 83.518588 46.819542 
L 85.475482 45.177702 
L 87.432376 45.998622 
L 89.389271 45.998622 
L 91.346165 38.610346 
L 93.30306 41.894024 
L 95.259954 43.535863 
L 97.216849 45.998622 
L 99.173743 45.177702 
L 101.130638 43.535863 
L 103.087532 43.535863 
L 105.044427 41.073105 
L 107.001321 41.894024 
L 108.958216 40.252185 
L 110.91511 42.714944 
L 112.872005 44.356783 
L 114.828899 42.714944 
L 116.785794 43.535863 
L 118.742688 42.714944 
L 120.699583 42.714944 
L 122.656477 43.535863 
L 124.613372 42.714944 
L 126.570266 40.252185 
L 128.527161 30.40115 
L 130.484055 43.535863 
L 132.44095 25.475633 
L 134.397844 6.594483 
L 136.354739 56.670576 
L 138.311633 81.298164 
L 140.268528 78.014485 
L 142.225422 78.835405 
L 144.182317 88.68644 
L 146.139211 96.895636 
L 148.096105 78.014485 
L 150.053 81.298164 
L 152.009894 83.760922 
L 153.966789 82.119083 
L 155.923683 82.119083 
L 157.880578 90.328279 
L 159.837472 103.462992 
" style="fill:none;stroke:#9467bd;stroke-linecap:square;stroke-opacity:0.5;"/>
   </g>
   <g id="line2d_33">
    <path clip-path="url(#pb93be9c5e8)" d="M 60.035854 44.356783 
L 61.992748 44.356783 
L 63.949643 44.356783 
L 65.906537 44.356783 
L 67.863432 44.356783 
L 69.820326 44.356783 
L 71.777221 44.356783 
L 73.734115 44.356783 
L 75.69101 34.505748 
L 77.647904 38.610346 
L 79.604799 49.2823 
L 81.561693 47.640461 
L 83.518588 49.2823 
L 85.475482 47.640461 
L 87.432376 44.356783 
L 89.389271 32.863909 
L 91.346165 34.505748 
L 93.30306 45.177702 
L 95.259954 46.819542 
L 97.216849 48.461381 
L 99.173743 48.461381 
L 101.130638 44.356783 
L 103.087532 41.073105 
L 105.044427 42.714944 
L 107.001321 47.640461 
L 108.958216 47.640461 
L 110.91511 49.2823 
L 112.872005 49.2823 
L 114.828899 45.177702 
L 116.785794 43.535863 
L 118.742688 45.998622 
L 120.699583 48.461381 
L 122.656477 49.2823 
L 124.613372 48.461381 
L 126.570266 50.10322 
L 128.527161 50.924139 
L 130.484055 57.491496 
L 132.44095 61.596094 
L 134.397844 76.372646 
L 136.354739 94.432877 
L 138.311633 106.74667 
L 140.268528 108.38851 
L 142.225422 110.030349 
L 144.182317 111.672188 
L 146.139211 113.314027 
L 148.096105 111.672188 
L 150.053 111.672188 
L 152.009894 112.493107 
L 153.966789 112.493107 
L 155.923683 113.314027 
L 157.880578 112.493107 
L 159.837472 115.776786 
" style="fill:none;stroke:#e377c2;stroke-linecap:square;stroke-opacity:0.5;"/>
   </g>
   <g id="line2d_34">
    <path clip-path="url(#pb93be9c5e8)" d="M 60.035854 44.356783 
L 61.992748 44.356783 
L 63.949643 44.356783 
L 65.906537 44.356783 
L 67.863432 44.356783 
L 69.820326 44.356783 
L 71.777221 44.356783 
L 73.734115 44.356783 
L 75.69101 45.998622 
L 77.647904 45.177702 
L 79.604799 56.670576 
L 81.561693 55.849657 
L 83.518588 54.207818 
L 85.475482 56.670576 
L 87.432376 56.670576 
L 89.389271 48.461381 
L 91.346165 45.177702 
L 93.30306 56.670576 
L 95.259954 55.849657 
L 97.216849 54.207818 
L 99.173743 56.670576 
L 101.130638 56.670576 
L 103.087532 48.461381 
L 105.044427 43.535863 
L 107.001321 48.461381 
L 108.958216 47.640461 
L 110.91511 46.819542 
L 112.872005 48.461381 
L 114.828899 47.640461 
L 116.785794 44.356783 
L 118.742688 45.177702 
L 120.699583 45.177702 
L 122.656477 45.177702 
L 124.613372 44.356783 
L 126.570266 45.177702 
L 128.527161 45.998622 
L 130.484055 48.461381 
L 132.44095 51.745059 
L 134.397844 73.909888 
L 136.354739 89.507359 
L 138.311633 99.358394 
L 140.268528 102.642073 
L 142.225422 102.642073 
L 144.182317 91.970118 
L 146.139211 89.507359 
L 148.096105 104.283912 
L 150.053 105.104831 
L 152.009894 104.283912 
L 153.966789 105.104831 
L 155.923683 104.283912 
L 157.880578 92.791038 
L 159.837472 90.328279 
" style="fill:none;stroke:#bcbd22;stroke-linecap:square;stroke-opacity:0.5;"/>
   </g>
   <g id="line2d_35">
    <path clip-path="url(#pb93be9c5e8)" d="M 60.035854 44.356783 
L 61.992748 44.356783 
L 63.949643 44.356783 
L 65.906537 44.356783 
L 67.863432 44.356783 
L 69.820326 44.356783 
L 71.777221 44.356783 
L 73.734115 44.356783 
L 75.69101 45.177702 
L 77.647904 45.177702 
L 79.604799 41.073105 
L 81.561693 41.894024 
L 83.518588 42.714944 
L 85.475482 41.894024 
L 87.432376 41.894024 
L 89.389271 45.177702 
L 91.346165 45.177702 
L 93.30306 41.894024 
L 95.259954 41.073105 
L 97.216849 41.894024 
L 99.173743 41.073105 
L 101.130638 41.073105 
L 103.087532 43.535863 
L 105.044427 44.356783 
L 107.001321 41.894024 
L 108.958216 42.714944 
L 110.91511 42.714944 
L 112.872005 41.894024 
L 114.828899 41.894024 
L 116.785794 43.535863 
L 118.742688 43.535863 
L 120.699583 42.714944 
L 122.656477 42.714944 
L 124.613372 43.535863 
L 126.570266 43.535863 
L 128.527161 41.894024 
L 130.484055 40.252185 
L 132.44095 41.894024 
L 134.397844 33.684828 
L 136.354739 24.654713 
L 138.311633 20.550115 
L 140.268528 18.087357 
L 142.225422 14.803678 
L 144.182317 24.654713 
L 146.139211 29.580231 
L 148.096105 18.087357 
L 150.053 16.445517 
L 152.009894 18.087357 
L 153.966789 16.445517 
L 155.923683 13.982759 
L 157.880578 23.833794 
L 159.837472 29.580231 
" style="fill:none;stroke:#17becf;stroke-linecap:square;stroke-opacity:0.5;"/>
   </g>
   <g id="patch_80">
    <path d="M 52.13 126.44874 
L 52.13 11.52 
" style="fill:none;stroke:#000000;stroke-linecap:square;stroke-linejoin:miter;stroke-width:0.8;"/>
   </g>
   <g id="patch_81">
    <path d="M 208.83811 126.44874 
L 208.83811 11.52 
" style="fill:none;stroke:#000000;stroke-linecap:square;stroke-linejoin:miter;stroke-width:0.8;"/>
   </g>
   <g id="patch_82">
    <path d="M 52.13 126.44874 
L 208.83811 126.44874 
" style="fill:none;stroke:#000000;stroke-linecap:square;stroke-linejoin:miter;stroke-width:0.8;"/>
   </g>
   <g id="patch_83">
    <path d="M 52.13 11.52 
L 208.83811 11.52 
" style="fill:none;stroke:#000000;stroke-linecap:square;stroke-linejoin:miter;stroke-width:0.8;"/>
   </g>
  </g>
 </g>
 <defs>
  <clipPath id="pb93be9c5e8">
   <rect height="114.92874" width="156.70811" x="52.13" y="11.52"/>
  </clipPath>
 </defs>
</svg>
