<?xml version="1.0" encoding="utf-8" standalone="no"?>
<!DOCTYPE svg PUBLIC "-//W3C//DTD SVG 1.1//EN"
  "http://www.w3.org/Graphics/SVG/1.1/DTD/svg11.dtd">
<!-- Created with matplotlib (https://matplotlib.org/) -->
<svg height="170.07874pt" version="1.1" viewBox="0 0 255.11811 170.07874" width="255.11811pt" xmlns="http://www.w3.org/2000/svg" xmlns:xlink="http://www.w3.org/1999/xlink">
 <defs>
  <style type="text/css">
*{stroke-linecap:butt;stroke-linejoin:round;}
  </style>
 </defs>
 <g id="figure_1">
  <g id="patch_1">
   <path d="M 0 170.07874 
L 255.11811 170.07874 
L 255.11811 0 
L 0 0 
z
" style="fill:#ffffff;"/>
  </g>
  <g id="axes_1">
   <g id="patch_2">
    <path d="M 44.66 126.44874 
L 208.83811 126.44874 
L 208.83811 17.4 
L 44.66 17.4 
z
" style="fill:#ffffff;"/>
   </g>
   <g id="PolyCollection_1">
    <defs>
     <path d="M 52.942712 -43.634211 
L 52.942712 -43.630663 
L 54.992888 -43.631326 
L 57.043064 -43.631989 
L 59.09324 -43.632651 
L 61.143417 -43.633314 
L 63.193593 -43.633977 
L 65.243769 -43.63532 
L 67.293945 -43.636954 
L 69.344121 -43.638968 
L 71.394298 -43.641719 
L 73.444474 -43.645031 
L 75.49465 -43.649322 
L 77.544826 -43.654049 
L 79.595002 -43.660327 
L 81.645179 -43.667963 
L 83.695355 -43.677795 
L 85.745531 -43.693876 
L 87.795707 -43.711263 
L 89.845883 -43.732301 
L 91.89606 -43.756367 
L 93.946236 -43.787533 
L 95.996412 -43.829291 
L 98.046588 -43.882023 
L 100.096764 -43.956036 
L 102.146941 -44.043456 
L 104.197117 -44.163602 
L 106.247293 -44.297803 
L 108.297469 -44.451659 
L 110.347646 -44.660591 
L 112.397822 -44.903947 
L 114.447998 -45.213152 
L 116.498174 -45.584638 
L 118.54835 -46.012258 
L 120.598527 -46.552213 
L 122.648703 -47.295832 
L 124.698879 -48.748051 
L 126.749055 -49.668655 
L 128.799231 -52.304097 
L 130.849408 -57.080641 
L 132.899584 -58.088097 
L 134.94976 -58.471374 
L 136.999936 -59.04516 
L 139.050112 -59.629546 
L 141.100289 -59.973883 
L 143.150465 -60.176989 
L 145.200641 -60.68386 
L 147.250817 -61.04458 
L 149.300993 -61.3149 
L 151.35117 -61.564483 
L 153.401346 -61.772865 
L 155.451522 -61.887321 
L 157.501698 -61.932539 
L 157.501698 -114.838888 
L 157.501698 -114.838888 
L 155.451522 -112.528948 
L 153.401346 -109.631764 
L 151.35117 -106.314272 
L 149.300993 -103.031043 
L 147.250817 -99.923899 
L 145.200641 -96.688463 
L 143.150465 -93.189144 
L 141.100289 -90.931582 
L 139.050112 -88.282808 
L 136.999936 -85.31674 
L 134.94976 -82.608459 
L 132.899584 -80.536126 
L 130.849408 -77.671246 
L 128.799231 -59.695691 
L 126.749055 -54.625935 
L 124.698879 -52.666811 
L 122.648703 -50.235651 
L 120.598527 -48.874201 
L 118.54835 -47.855867 
L 116.498174 -47.066265 
L 114.447998 -46.427892 
L 112.397822 -45.909781 
L 110.347646 -45.502179 
L 108.297469 -45.166389 
L 106.247293 -44.909843 
L 104.197117 -44.691711 
L 102.146941 -44.496434 
L 100.096764 -44.347283 
L 98.046588 -44.217411 
L 95.996412 -44.119348 
L 93.946236 -44.038564 
L 91.89606 -43.975085 
L 89.845883 -43.923768 
L 87.795707 -43.877153 
L 85.745531 -43.835935 
L 83.695355 -43.793977 
L 81.645179 -43.768584 
L 79.595002 -43.747503 
L 77.544826 -43.728921 
L 75.49465 -43.714401 
L 73.444474 -43.699662 
L 71.394298 -43.687342 
L 69.344121 -43.676497 
L 67.293945 -43.66836 
L 65.243769 -43.661229 
L 63.193593 -43.655265 
L 61.143417 -43.651054 
L 59.09324 -43.646844 
L 57.043064 -43.642633 
L 54.992888 -43.638422 
L 52.942712 -43.634211 
z
" id="m880ab7c996" style="stroke:#6495ed;stroke-opacity:0.4;"/>
    </defs>
    <g clip-path="url(#p287d309a67)">
     <use style="fill:#6495ed;fill-opacity:0.4;stroke:#6495ed;stroke-opacity:0.4;" x="0" xlink:href="#m880ab7c996" y="170.07874"/>
    </g>
   </g>
   <g id="PolyCollection_2">
    <defs>
     <path d="M 52.942712 -43.632482 
L 52.942712 -43.631347 
L 54.992888 -43.632694 
L 57.043064 -43.634041 
L 59.09324 -43.635388 
L 61.143417 -43.636735 
L 63.193593 -43.638082 
L 65.243769 -43.640452 
L 67.293945 -43.643314 
L 69.344121 -43.646708 
L 71.394298 -43.651313 
L 73.444474 -43.656754 
L 75.49465 -43.66356 
L 77.544826 -43.670687 
L 79.595002 -43.680045 
L 81.645179 -43.6911 
L 83.695355 -43.704863 
L 85.745531 -43.727807 
L 87.795707 -43.751559 
L 89.845883 -43.77954 
L 91.89606 -43.811003 
L 93.946236 -43.850957 
L 95.996412 -43.903557 
L 98.046588 -43.968356 
L 100.096764 -44.057643 
L 102.146941 -44.162039 
L 104.197117 -44.302772 
L 106.247293 -44.459866 
L 108.297469 -44.641412 
L 110.347646 -44.8851 
L 112.397822 -45.174312 
L 114.447998 -45.541611 
L 116.498174 -45.985425 
L 118.54835 -46.507323 
L 120.598527 -47.171523 
L 122.648703 -48.075213 
L 124.698879 -49.779851 
L 126.749055 -50.965077 
L 128.799231 -54.268397 
L 130.849408 -62.369776 
L 132.899584 -63.826768 
L 134.94976 -64.51095 
L 136.999936 -65.50771 
L 139.050112 -66.539653 
L 141.100289 -67.206373 
L 143.150465 -67.640048 
L 145.200641 -68.589184 
L 147.250817 -69.30611 
L 149.300993 -69.872914 
L 151.35117 -70.411689 
L 153.401346 -70.882727 
L 155.451522 -71.175068 
L 157.501698 -71.310533 
L 157.501698 -87.075447 
L 157.501698 -87.075447 
L 155.451522 -86.531167 
L 153.401346 -85.630054 
L 151.35117 -84.406185 
L 149.300993 -83.10372 
L 147.250817 -81.800272 
L 145.200641 -80.289912 
L 143.150465 -78.469552 
L 141.100289 -77.462324 
L 139.050112 -76.125824 
L 136.999936 -74.323264 
L 134.94976 -72.619605 
L 132.899584 -71.397558 
L 130.849408 -69.306211 
L 128.799231 -56.749174 
L 126.749055 -52.648704 
L 124.698879 -51.108372 
L 122.648703 -49.075328 
L 120.598527 -47.958674 
L 118.54835 -47.132358 
L 116.498174 -46.486031 
L 114.447998 -45.949625 
L 112.397822 -45.511398 
L 110.347646 -45.166952 
L 108.297469 -44.880064 
L 106.247293 -44.664044 
L 104.197117 -44.478476 
L 102.146941 -44.313073 
L 100.096764 -44.188819 
L 98.046588 -44.080783 
L 95.996412 -44.001118 
L 93.946236 -43.935663 
L 91.89606 -43.884955 
L 89.845883 -43.8444 
L 87.795707 -43.807733 
L 85.745531 -43.775792 
L 83.695355 -43.744024 
L 81.645179 -43.724921 
L 79.595002 -43.709241 
L 77.544826 -43.695663 
L 75.49465 -43.685169 
L 73.444474 -43.674797 
L 71.394298 -43.666334 
L 69.344121 -43.658989 
L 67.293945 -43.653511 
L 65.243769 -43.64881 
L 63.193593 -43.644894 
L 61.143417 -43.642411 
L 59.09324 -43.639929 
L 57.043064 -43.637447 
L 54.992888 -43.634965 
L 52.942712 -43.632482 
z
" id="me867ca18f6" style="stroke:#6495ed;stroke-opacity:0.6;"/>
    </defs>
    <g clip-path="url(#p287d309a67)">
     <use style="fill:#6495ed;fill-opacity:0.6;stroke:#6495ed;stroke-opacity:0.6;" x="0" xlink:href="#me867ca18f6" y="170.07874"/>
    </g>
   </g>
   <g id="PolyCollection_3">
    <defs>
     <path d="M 157.501698 -114.838888 
L 157.501698 -61.932539 
L 159.551874 -61.969883 
L 161.602051 -62.000357 
L 163.652227 -62.024917 
L 165.702403 -62.044615 
L 167.752579 -62.060287 
L 169.802755 -62.072598 
L 171.852932 -62.082222 
L 173.903108 -62.089731 
L 175.953284 -62.095563 
L 178.00346 -62.100069 
L 180.053636 -62.103533 
L 182.103813 -62.106213 
L 184.153989 -62.10829 
L 186.204165 -62.109886 
L 188.254341 -62.111114 
L 190.304517 -62.112062 
L 192.354694 -62.112794 
L 194.40487 -62.113356 
L 196.455046 -62.113788 
L 198.505222 -62.114119 
L 200.555398 -62.114375 
L 200.555398 -152.67874 
L 200.555398 -152.67874 
L 198.505222 -151.350708 
L 196.455046 -149.979974 
L 194.40487 -148.565166 
L 192.354694 -147.105822 
L 190.304517 -145.607982 
L 188.254341 -144.068571 
L 186.204165 -142.485449 
L 184.153989 -140.859442 
L 182.103813 -139.194375 
L 180.053636 -137.489295 
L 178.00346 -135.753116 
L 175.953284 -133.966135 
L 173.903108 -132.112638 
L 171.852932 -130.183631 
L 169.802755 -128.188315 
L 167.752579 -126.123361 
L 165.702403 -123.969093 
L 163.652227 -121.757949 
L 161.602051 -119.485752 
L 159.551874 -117.172078 
L 157.501698 -114.838888 
z
" id="m0a6a94a908" style="stroke:#228b22;stroke-opacity:0.4;"/>
    </defs>
    <g clip-path="url(#p287d309a67)">
     <use style="fill:#228b22;fill-opacity:0.4;stroke:#228b22;stroke-opacity:0.4;" x="0" xlink:href="#m0a6a94a908" y="170.07874"/>
    </g>
   </g>
   <g id="PolyCollection_4">
    <defs>
     <path d="M 157.501698 -87.075447 
L 157.501698 -71.310533 
L 159.551874 -71.428199 
L 161.602051 -71.528994 
L 163.652227 -71.613814 
L 165.702403 -71.684621 
L 167.752579 -71.743425 
L 169.802755 -71.791806 
L 171.852932 -71.831439 
L 173.903108 -71.863734 
L 175.953284 -71.890082 
L 178.00346 -71.911439 
L 180.053636 -71.928729 
L 182.103813 -71.942712 
L 184.153989 -71.954015 
L 186.204165 -71.963165 
L 188.254341 -71.970566 
L 190.304517 -71.976561 
L 192.354694 -71.981401 
L 194.40487 -71.985321 
L 196.455046 -71.988494 
L 198.505222 -71.99106 
L 200.555398 -71.993137 
L 200.555398 -91.302138 
L 200.555398 -91.302138 
L 198.505222 -91.260181 
L 196.455046 -91.212434 
L 194.40487 -91.157953 
L 192.354694 -91.095897 
L 190.304517 -91.025171 
L 188.254341 -90.944697 
L 186.204165 -90.852894 
L 184.153989 -90.748739 
L 182.103813 -90.630234 
L 180.053636 -90.494652 
L 178.00346 -90.340479 
L 175.953284 -90.164875 
L 173.903108 -89.965143 
L 171.852932 -89.737737 
L 169.802755 -89.47884 
L 167.752579 -89.18348 
L 165.702403 -88.848663 
L 163.652227 -88.471536 
L 161.602051 -88.050078 
L 159.551874 -87.584143 
L 157.501698 -87.075447 
z
" id="meccbfe017d" style="stroke:#228b22;stroke-opacity:0.6;"/>
    </defs>
    <g clip-path="url(#p287d309a67)">
     <use style="fill:#228b22;fill-opacity:0.6;stroke:#228b22;stroke-opacity:0.6;" x="0" xlink:href="#meccbfe017d" y="170.07874"/>
    </g>
   </g>
   <g id="PathCollection_1">
    <defs>
     <path d="M -0.866025 1.732051 
L 0 0.866025 
L 0.866025 1.732051 
L 1.732051 0.866025 
L 0.866025 0 
L 1.732051 -0.866025 
L 0.866025 -1.732051 
L 0 -0.866025 
L -0.866025 -1.732051 
L -1.732051 -0.866025 
L -0.866025 0 
L -1.732051 0.866025 
z
" id="m820c63231d" style="stroke:#8a2be2;"/>
    </defs>
    <g clip-path="url(#p287d309a67)">
     <use style="fill:#8a2be2;stroke:#8a2be2;" x="124.698879" xlink:href="#m820c63231d" y="28.304874"/>
    </g>
   </g>
   <g id="PathCollection_2">
    <defs>
     <path d="M 0 -1.732051 
L -0.38887 -0.535233 
L -1.647278 -0.535233 
L -0.629204 0.204441 
L -1.018074 1.401259 
L -0 0.661585 
L 1.018074 1.401259 
L 0.629204 0.204441 
L 1.647278 -0.535233 
L 0.38887 -0.535233 
z
" id="m01d0e64cba" style="stroke:#000000;"/>
    </defs>
    <g clip-path="url(#p287d309a67)">
     <use style="stroke:#000000;" x="126.749055" xlink:href="#m01d0e64cba" y="28.304874"/>
    </g>
   </g>
   <g id="PathCollection_3">
    <defs>
     <path d="M -1.732051 1.732051 
L 1.732051 1.732051 
L 1.732051 -1.732051 
L -1.732051 -1.732051 
z
" id="mda7a28727d" style="stroke:#c71585;"/>
    </defs>
    <g clip-path="url(#p287d309a67)">
     <use style="fill:#c71585;stroke:#c71585;" x="132.899584" xlink:href="#mda7a28727d" y="28.304874"/>
    </g>
   </g>
   <g id="PathCollection_4">
    <defs>
     <path d="M 0 -1.732051 
L -1.647278 -0.535233 
L -1.018074 1.401259 
L 1.018074 1.401259 
L 1.647278 -0.535233 
z
" id="m56d1584e42" style="stroke:#800000;"/>
    </defs>
    <g clip-path="url(#p287d309a67)">
     <use style="fill:#800000;stroke:#800000;" x="130.849408" xlink:href="#m56d1584e42" y="28.304874"/>
    </g>
   </g>
   <g id="PathCollection_5">
    <defs>
     <path d="M -0 2.44949 
L 1.469694 0 
L 0 -2.44949 
L -1.469694 -0 
z
" id="m2183940a45" style="stroke:#556b2f;"/>
    </defs>
    <g clip-path="url(#p287d309a67)">
     <use style="fill:#556b2f;stroke:#556b2f;" x="130.849408" xlink:href="#m2183940a45" y="33.212067"/>
    </g>
   </g>
   <g id="patch_3">
    <path clip-path="url(#p287d309a67)" d="M 52.122641 126.44874 
L 53.762782 126.44874 
L 53.762782 126.44874 
L 52.122641 126.44874 
z
" style="fill:#1f77b4;opacity:0.5;"/>
   </g>
   <g id="patch_4">
    <path clip-path="url(#p287d309a67)" d="M 54.172818 126.44874 
L 55.812959 126.44874 
L 55.812959 126.448426 
L 54.172818 126.448426 
z
" style="fill:#1f77b4;opacity:0.5;"/>
   </g>
   <g id="patch_5">
    <path clip-path="url(#p287d309a67)" d="M 56.222994 126.44874 
L 57.863135 126.44874 
L 57.863135 126.448426 
L 56.222994 126.448426 
z
" style="fill:#1f77b4;opacity:0.5;"/>
   </g>
   <g id="patch_6">
    <path clip-path="url(#p287d309a67)" d="M 58.27317 126.44874 
L 59.913311 126.44874 
L 59.913311 126.448426 
L 58.27317 126.448426 
z
" style="fill:#1f77b4;opacity:0.5;"/>
   </g>
   <g id="patch_7">
    <path clip-path="url(#p287d309a67)" d="M 60.323346 126.44874 
L 61.963487 126.44874 
L 61.963487 126.448426 
L 60.323346 126.448426 
z
" style="fill:#1f77b4;opacity:0.5;"/>
   </g>
   <g id="patch_8">
    <path clip-path="url(#p287d309a67)" d="M 62.373522 126.44874 
L 64.013663 126.44874 
L 64.013663 126.448426 
L 62.373522 126.448426 
z
" style="fill:#1f77b4;opacity:0.5;"/>
   </g>
   <g id="patch_9">
    <path clip-path="url(#p287d309a67)" d="M 64.423699 126.44874 
L 66.06384 126.44874 
L 66.06384 126.448426 
L 64.423699 126.448426 
z
" style="fill:#1f77b4;opacity:0.5;"/>
   </g>
   <g id="patch_10">
    <path clip-path="url(#p287d309a67)" d="M 66.473875 126.44874 
L 68.114016 126.44874 
L 68.114016 126.448426 
L 66.473875 126.448426 
z
" style="fill:#1f77b4;opacity:0.5;"/>
   </g>
   <g id="patch_11">
    <path clip-path="url(#p287d309a67)" d="M 68.524051 126.44874 
L 70.164192 126.44874 
L 70.164192 126.448426 
L 68.524051 126.448426 
z
" style="fill:#1f77b4;opacity:0.5;"/>
   </g>
   <g id="patch_12">
    <path clip-path="url(#p287d309a67)" d="M 70.574227 126.44874 
L 72.214368 126.44874 
L 72.214368 126.448426 
L 70.574227 126.448426 
z
" style="fill:#1f77b4;opacity:0.5;"/>
   </g>
   <g id="patch_13">
    <path clip-path="url(#p287d309a67)" d="M 72.624403 126.44874 
L 74.264544 126.44874 
L 74.264544 126.448363 
L 72.624403 126.448363 
z
" style="fill:#1f77b4;opacity:0.5;"/>
   </g>
   <g id="patch_14">
    <path clip-path="url(#p287d309a67)" d="M 74.67458 126.44874 
L 76.314721 126.44874 
L 76.314721 126.448363 
L 74.67458 126.448363 
z
" style="fill:#1f77b4;opacity:0.5;"/>
   </g>
   <g id="patch_15">
    <path clip-path="url(#p287d309a67)" d="M 76.724756 126.44874 
L 78.364897 126.44874 
L 78.364897 126.448363 
L 76.724756 126.448363 
z
" style="fill:#1f77b4;opacity:0.5;"/>
   </g>
   <g id="patch_16">
    <path clip-path="url(#p287d309a67)" d="M 78.774932 126.44874 
L 80.415073 126.44874 
L 80.415073 126.448363 
L 78.774932 126.448363 
z
" style="fill:#1f77b4;opacity:0.5;"/>
   </g>
   <g id="patch_17">
    <path clip-path="url(#p287d309a67)" d="M 80.825108 126.44874 
L 82.465249 126.44874 
L 82.465249 126.448363 
L 80.825108 126.448363 
z
" style="fill:#1f77b4;opacity:0.5;"/>
   </g>
   <g id="patch_18">
    <path clip-path="url(#p287d309a67)" d="M 82.875284 126.44874 
L 84.515425 126.44874 
L 84.515425 126.448363 
L 82.875284 126.448363 
z
" style="fill:#1f77b4;opacity:0.5;"/>
   </g>
   <g id="patch_19">
    <path clip-path="url(#p287d309a67)" d="M 84.925461 126.44874 
L 86.565602 126.44874 
L 86.565602 126.448363 
L 84.925461 126.448363 
z
" style="fill:#1f77b4;opacity:0.5;"/>
   </g>
   <g id="patch_20">
    <path clip-path="url(#p287d309a67)" d="M 86.975637 126.44874 
L 88.615778 126.44874 
L 88.615778 126.448363 
L 86.975637 126.448363 
z
" style="fill:#1f77b4;opacity:0.5;"/>
   </g>
   <g id="patch_21">
    <path clip-path="url(#p287d309a67)" d="M 89.025813 126.44874 
L 90.665954 126.44874 
L 90.665954 126.448363 
L 89.025813 126.448363 
z
" style="fill:#1f77b4;opacity:0.5;"/>
   </g>
   <g id="patch_22">
    <path clip-path="url(#p287d309a67)" d="M 91.075989 126.44874 
L 92.71613 126.44874 
L 92.71613 126.448237 
L 91.075989 126.448237 
z
" style="fill:#1f77b4;opacity:0.5;"/>
   </g>
   <g id="patch_23">
    <path clip-path="url(#p287d309a67)" d="M 93.126165 126.44874 
L 94.766306 126.44874 
L 94.766306 126.448048 
L 93.126165 126.448048 
z
" style="fill:#1f77b4;opacity:0.5;"/>
   </g>
   <g id="patch_24">
    <path clip-path="url(#p287d309a67)" d="M 95.176342 126.44874 
L 96.816483 126.44874 
L 96.816483 126.446728 
L 95.176342 126.446728 
z
" style="fill:#1f77b4;opacity:0.5;"/>
   </g>
   <g id="patch_25">
    <path clip-path="url(#p287d309a67)" d="M 97.226518 126.44874 
L 98.866659 126.44874 
L 98.866659 126.445533 
L 97.226518 126.445533 
z
" style="fill:#1f77b4;opacity:0.5;"/>
   </g>
   <g id="patch_26">
    <path clip-path="url(#p287d309a67)" d="M 99.276694 126.44874 
L 100.916835 126.44874 
L 100.916835 126.442829 
L 99.276694 126.442829 
z
" style="fill:#1f77b4;opacity:0.5;"/>
   </g>
   <g id="patch_27">
    <path clip-path="url(#p287d309a67)" d="M 101.32687 126.44874 
L 102.967011 126.44874 
L 102.967011 126.440943 
L 101.32687 126.440943 
z
" style="fill:#1f77b4;opacity:0.5;"/>
   </g>
   <g id="patch_28">
    <path clip-path="url(#p287d309a67)" d="M 103.377046 126.44874 
L 105.017187 126.44874 
L 105.017187 126.437925 
L 103.377046 126.437925 
z
" style="fill:#1f77b4;opacity:0.5;"/>
   </g>
   <g id="patch_29">
    <path clip-path="url(#p287d309a67)" d="M 105.427223 126.44874 
L 107.067364 126.44874 
L 107.067364 126.435787 
L 105.427223 126.435787 
z
" style="fill:#1f77b4;opacity:0.5;"/>
   </g>
   <g id="patch_30">
    <path clip-path="url(#p287d309a67)" d="M 107.477399 126.44874 
L 109.11754 126.44874 
L 109.11754 126.431197 
L 107.477399 126.431197 
z
" style="fill:#1f77b4;opacity:0.5;"/>
   </g>
   <g id="patch_31">
    <path clip-path="url(#p287d309a67)" d="M 109.527575 126.44874 
L 111.167716 126.44874 
L 111.167716 126.422519 
L 109.527575 126.422519 
z
" style="fill:#1f77b4;opacity:0.5;"/>
   </g>
   <g id="patch_32">
    <path clip-path="url(#p287d309a67)" d="M 111.577751 126.44874 
L 113.217892 126.44874 
L 113.217892 126.410572 
L 111.577751 126.410572 
z
" style="fill:#1f77b4;opacity:0.5;"/>
   </g>
   <g id="patch_33">
    <path clip-path="url(#p287d309a67)" d="M 113.627927 126.44874 
L 115.268068 126.44874 
L 115.268068 126.404095 
L 113.627927 126.404095 
z
" style="fill:#1f77b4;opacity:0.5;"/>
   </g>
   <g id="patch_34">
    <path clip-path="url(#p287d309a67)" d="M 115.678104 126.44874 
L 117.318245 126.44874 
L 117.318245 126.378314 
L 115.678104 126.378314 
z
" style="fill:#1f77b4;opacity:0.5;"/>
   </g>
   <g id="patch_35">
    <path clip-path="url(#p287d309a67)" d="M 117.72828 126.44874 
L 119.368421 126.44874 
L 119.368421 126.36033 
L 117.72828 126.36033 
z
" style="fill:#1f77b4;opacity:0.5;"/>
   </g>
   <g id="patch_36">
    <path clip-path="url(#p287d309a67)" d="M 119.778456 126.44874 
L 121.418597 126.44874 
L 121.418597 126.336939 
L 119.778456 126.336939 
z
" style="fill:#1f77b4;opacity:0.5;"/>
   </g>
   <g id="patch_37">
    <path clip-path="url(#p287d309a67)" d="M 121.828632 126.44874 
L 123.468773 126.44874 
L 123.468773 126.305687 
L 121.828632 126.305687 
z
" style="fill:#1f77b4;opacity:0.5;"/>
   </g>
   <g id="patch_38">
    <path clip-path="url(#p287d309a67)" d="M 123.878808 126.44874 
L 125.518949 126.44874 
L 125.518949 126.268273 
L 123.878808 126.268273 
z
" style="fill:#1f77b4;opacity:0.5;"/>
   </g>
   <g id="patch_39">
    <path clip-path="url(#p287d309a67)" d="M 125.928985 126.44874 
L 127.569126 126.44874 
L 127.569126 126.218912 
L 125.928985 126.218912 
z
" style="fill:#1f77b4;opacity:0.5;"/>
   </g>
   <g id="patch_40">
    <path clip-path="url(#p287d309a67)" d="M 127.979161 126.44874 
L 129.619302 126.44874 
L 129.619302 126.166218 
L 127.979161 126.166218 
z
" style="fill:#1f77b4;opacity:0.5;"/>
   </g>
   <g id="patch_41">
    <path clip-path="url(#p287d309a67)" d="M 130.029337 126.44874 
L 131.669478 126.44874 
L 131.669478 126.108117 
L 130.029337 126.108117 
z
" style="fill:#1f77b4;opacity:0.5;"/>
   </g>
   <g id="patch_42">
    <path clip-path="url(#p287d309a67)" d="M 132.079513 126.44874 
L 133.719654 126.44874 
L 133.719654 126.032032 
L 132.079513 126.032032 
z
" style="fill:#1f77b4;opacity:0.5;"/>
   </g>
   <g id="patch_43">
    <path clip-path="url(#p287d309a67)" d="M 134.129689 126.44874 
L 135.76983 126.44874 
L 135.76983 125.963052 
L 134.129689 125.963052 
z
" style="fill:#1f77b4;opacity:0.5;"/>
   </g>
   <g id="patch_44">
    <path clip-path="url(#p287d309a67)" d="M 136.179866 126.44874 
L 137.820007 126.44874 
L 137.820007 125.874768 
L 136.179866 125.874768 
z
" style="fill:#1f77b4;opacity:0.5;"/>
   </g>
   <g id="patch_45">
    <path clip-path="url(#p287d309a67)" d="M 138.230042 126.44874 
L 139.870183 126.44874 
L 139.870183 125.757747 
L 138.230042 125.757747 
z
" style="fill:#1f77b4;opacity:0.5;"/>
   </g>
   <g id="patch_46">
    <path clip-path="url(#p287d309a67)" d="M 140.280218 126.44874 
L 141.920359 126.44874 
L 141.920359 125.65607 
L 140.280218 125.65607 
z
" style="fill:#1f77b4;opacity:0.5;"/>
   </g>
   <g id="patch_47">
    <path clip-path="url(#p287d309a67)" d="M 142.330394 126.44874 
L 143.970535 126.44874 
L 143.970535 125.539929 
L 142.330394 125.539929 
z
" style="fill:#1f77b4;opacity:0.5;"/>
   </g>
   <g id="patch_48">
    <path clip-path="url(#p287d309a67)" d="M 144.38057 126.44874 
L 146.020711 126.44874 
L 146.020711 125.441899 
L 144.38057 125.441899 
z
" style="fill:#1f77b4;opacity:0.5;"/>
   </g>
   <g id="patch_49">
    <path clip-path="url(#p287d309a67)" d="M 146.430747 126.44874 
L 148.070888 126.44874 
L 148.070888 125.200564 
L 146.430747 125.200564 
z
" style="fill:#1f77b4;opacity:0.5;"/>
   </g>
   <g id="patch_50">
    <path clip-path="url(#p287d309a67)" d="M 148.480923 126.44874 
L 150.121064 126.44874 
L 150.121064 125.046758 
L 148.480923 125.046758 
z
" style="fill:#1f77b4;opacity:0.5;"/>
   </g>
   <g id="patch_51">
    <path clip-path="url(#p287d309a67)" d="M 150.531099 126.44874 
L 152.17124 126.44874 
L 152.17124 124.862456 
L 150.531099 124.862456 
z
" style="fill:#1f77b4;opacity:0.5;"/>
   </g>
   <g id="patch_52">
    <path clip-path="url(#p287d309a67)" d="M 152.581275 126.44874 
L 154.221416 126.44874 
L 154.221416 124.615839 
L 152.581275 124.615839 
z
" style="fill:#1f77b4;opacity:0.5;"/>
   </g>
   <g id="patch_53">
    <path clip-path="url(#p287d309a67)" d="M 154.631451 126.44874 
L 156.271592 126.44874 
L 156.271592 124.376327 
L 154.631451 124.376327 
z
" style="fill:#1f77b4;opacity:0.5;"/>
   </g>
   <g id="patch_54">
    <path clip-path="url(#p287d309a67)" d="M 156.681628 126.44874 
L 158.321769 126.44874 
L 158.321769 124.086386 
L 156.681628 124.086386 
z
" style="fill:#1f77b4;opacity:0.5;"/>
   </g>
   <g id="patch_55">
    <path clip-path="url(#p287d309a67)" d="M 158.731804 126.44874 
L 160.371945 126.44874 
L 160.371945 123.922959 
L 158.731804 123.922959 
z
" style="fill:#1f77b4;opacity:0.5;"/>
   </g>
   <g id="patch_56">
    <path clip-path="url(#p287d309a67)" d="M 160.78198 126.44874 
L 162.422121 126.44874 
L 162.422121 123.647795 
L 160.78198 123.647795 
z
" style="fill:#1f77b4;opacity:0.5;"/>
   </g>
   <g id="patch_57">
    <path clip-path="url(#p287d309a67)" d="M 162.832156 126.44874 
L 164.472297 126.44874 
L 164.472297 123.171287 
L 162.832156 123.171287 
z
" style="fill:#1f77b4;opacity:0.5;"/>
   </g>
   <g id="patch_58">
    <path clip-path="url(#p287d309a67)" d="M 164.882332 126.44874 
L 166.522473 126.44874 
L 166.522473 122.865625 
L 164.882332 122.865625 
z
" style="fill:#1f77b4;opacity:0.5;"/>
   </g>
   <g id="patch_59">
    <path clip-path="url(#p287d309a67)" d="M 166.932509 126.44874 
L 168.57265 126.44874 
L 168.57265 122.73257 
L 166.932509 122.73257 
z
" style="fill:#1f77b4;opacity:0.5;"/>
   </g>
   <g id="patch_60">
    <path clip-path="url(#p287d309a67)" d="M 168.982685 126.44874 
L 170.622826 126.44874 
L 170.622826 122.403517 
L 168.982685 122.403517 
z
" style="fill:#1f77b4;opacity:0.5;"/>
   </g>
   <g id="patch_61">
    <path clip-path="url(#p287d309a67)" d="M 171.032861 126.44874 
L 172.673002 126.44874 
L 172.673002 122.135206 
L 171.032861 122.135206 
z
" style="fill:#1f77b4;opacity:0.5;"/>
   </g>
   <g id="patch_62">
    <path clip-path="url(#p287d309a67)" d="M 173.083037 126.44874 
L 174.723178 126.44874 
L 174.723178 122.017431 
L 173.083037 122.017431 
z
" style="fill:#1f77b4;opacity:0.5;"/>
   </g>
   <g id="patch_63">
    <path clip-path="url(#p287d309a67)" d="M 175.133213 126.44874 
L 176.773354 126.44874 
L 176.773354 121.771443 
L 175.133213 121.771443 
z
" style="fill:#1f77b4;opacity:0.5;"/>
   </g>
   <g id="patch_64">
    <path clip-path="url(#p287d309a67)" d="M 177.18339 126.44874 
L 178.823531 126.44874 
L 178.823531 121.533944 
L 177.18339 121.533944 
z
" style="fill:#1f77b4;opacity:0.5;"/>
   </g>
   <g id="patch_65">
    <path clip-path="url(#p287d309a67)" d="M 179.233566 126.44874 
L 180.873707 126.44874 
L 180.873707 121.289905 
L 179.233566 121.289905 
z
" style="fill:#1f77b4;opacity:0.5;"/>
   </g>
   <g id="patch_66">
    <path clip-path="url(#p287d309a67)" d="M 181.283742 126.44874 
L 182.923883 126.44874 
L 182.923883 121.020399 
L 181.283742 121.020399 
z
" style="fill:#1f77b4;opacity:0.5;"/>
   </g>
   <g id="patch_67">
    <path clip-path="url(#p287d309a67)" d="M 183.333918 126.44874 
L 184.974059 126.44874 
L 184.974059 120.747372 
L 183.333918 120.747372 
z
" style="fill:#1f77b4;opacity:0.5;"/>
   </g>
   <g id="patch_68">
    <path clip-path="url(#p287d309a67)" d="M 185.384094 126.44874 
L 187.024235 126.44874 
L 187.024235 120.551563 
L 185.384094 120.551563 
z
" style="fill:#1f77b4;opacity:0.5;"/>
   </g>
   <g id="patch_69">
    <path clip-path="url(#p287d309a67)" d="M 187.434271 126.44874 
L 189.074412 126.44874 
L 189.074412 120.450137 
L 187.434271 120.450137 
z
" style="fill:#1f77b4;opacity:0.5;"/>
   </g>
   <g id="patch_70">
    <path clip-path="url(#p287d309a67)" d="M 189.484447 126.44874 
L 191.124588 126.44874 
L 191.124588 120.282057 
L 189.484447 120.282057 
z
" style="fill:#1f77b4;opacity:0.5;"/>
   </g>
   <g id="patch_71">
    <path clip-path="url(#p287d309a67)" d="M 191.534623 126.44874 
L 193.174764 126.44874 
L 193.174764 119.936404 
L 191.534623 119.936404 
z
" style="fill:#1f77b4;opacity:0.5;"/>
   </g>
   <g id="patch_72">
    <path clip-path="url(#p287d309a67)" d="M 193.584799 126.44874 
L 195.22494 126.44874 
L 195.22494 119.770839 
L 193.584799 119.770839 
z
" style="fill:#1f77b4;opacity:0.5;"/>
   </g>
   <g id="patch_73">
    <path clip-path="url(#p287d309a67)" d="M 195.634975 126.44874 
L 197.275116 126.44874 
L 197.275116 119.604772 
L 195.634975 119.604772 
z
" style="fill:#1f77b4;opacity:0.5;"/>
   </g>
   <g id="patch_74">
    <path clip-path="url(#p287d309a67)" d="M 197.685152 126.44874 
L 199.325293 126.44874 
L 199.325293 119.579306 
L 197.685152 119.579306 
z
" style="fill:#1f77b4;opacity:0.5;"/>
   </g>
   <g id="patch_75">
    <path clip-path="url(#p287d309a67)" d="M 199.735328 126.44874 
L 201.375469 126.44874 
L 201.375469 119.417766 
L 199.735328 119.417766 
z
" style="fill:#1f77b4;opacity:0.5;"/>
   </g>
   <g id="matplotlib.axis_1">
    <g id="xtick_1">
     <g id="line2d_1">
      <defs>
       <path d="M 0 0 
L 0 3.5 
" id="m03671fa21c" style="stroke:#000000;stroke-width:0.8;"/>
      </defs>
      <g>
       <use style="stroke:#000000;stroke-width:0.8;" x="200.555398" xlink:href="#m03671fa21c" y="126.44874"/>
      </g>
     </g>
     <g id="text_1">
      <!-- 19 Apr -->
      <defs>
       <path d="M 12.40625 8.296875 
L 28.515625 8.296875 
L 28.515625 63.921875 
L 10.984375 60.40625 
L 10.984375 69.390625 
L 28.421875 72.90625 
L 38.28125 72.90625 
L 38.28125 8.296875 
L 54.390625 8.296875 
L 54.390625 0 
L 12.40625 0 
z
" id="DejaVuSans-49"/>
       <path d="M 10.984375 1.515625 
L 10.984375 10.5 
Q 14.703125 8.734375 18.5 7.8125 
Q 22.3125 6.890625 25.984375 6.890625 
Q 35.75 6.890625 40.890625 13.453125 
Q 46.046875 20.015625 46.78125 33.40625 
Q 43.953125 29.203125 39.59375 26.953125 
Q 35.25 24.703125 29.984375 24.703125 
Q 19.046875 24.703125 12.671875 31.3125 
Q 6.296875 37.9375 6.296875 49.421875 
Q 6.296875 60.640625 12.9375 67.421875 
Q 19.578125 74.21875 30.609375 74.21875 
Q 43.265625 74.21875 49.921875 64.515625 
Q 56.59375 54.828125 56.59375 36.375 
Q 56.59375 19.140625 48.40625 8.859375 
Q 40.234375 -1.421875 26.421875 -1.421875 
Q 22.703125 -1.421875 18.890625 -0.6875 
Q 15.09375 0.046875 10.984375 1.515625 
z
M 30.609375 32.421875 
Q 37.25 32.421875 41.125 36.953125 
Q 45.015625 41.5 45.015625 49.421875 
Q 45.015625 57.28125 41.125 61.84375 
Q 37.25 66.40625 30.609375 66.40625 
Q 23.96875 66.40625 20.09375 61.84375 
Q 16.21875 57.28125 16.21875 49.421875 
Q 16.21875 41.5 20.09375 36.953125 
Q 23.96875 32.421875 30.609375 32.421875 
z
" id="DejaVuSans-57"/>
       <path id="DejaVuSans-32"/>
       <path d="M 34.1875 63.1875 
L 20.796875 26.90625 
L 47.609375 26.90625 
z
M 28.609375 72.90625 
L 39.796875 72.90625 
L 67.578125 0 
L 57.328125 0 
L 50.6875 18.703125 
L 17.828125 18.703125 
L 11.1875 0 
L 0.78125 0 
z
" id="DejaVuSans-65"/>
       <path d="M 18.109375 8.203125 
L 18.109375 -20.796875 
L 9.078125 -20.796875 
L 9.078125 54.6875 
L 18.109375 54.6875 
L 18.109375 46.390625 
Q 20.953125 51.265625 25.265625 53.625 
Q 29.59375 56 35.59375 56 
Q 45.5625 56 51.78125 48.09375 
Q 58.015625 40.1875 58.015625 27.296875 
Q 58.015625 14.40625 51.78125 6.484375 
Q 45.5625 -1.421875 35.59375 -1.421875 
Q 29.59375 -1.421875 25.265625 0.953125 
Q 20.953125 3.328125 18.109375 8.203125 
z
M 48.6875 27.296875 
Q 48.6875 37.203125 44.609375 42.84375 
Q 40.53125 48.484375 33.40625 48.484375 
Q 26.265625 48.484375 22.1875 42.84375 
Q 18.109375 37.203125 18.109375 27.296875 
Q 18.109375 17.390625 22.1875 11.75 
Q 26.265625 6.109375 33.40625 6.109375 
Q 40.53125 6.109375 44.609375 11.75 
Q 48.6875 17.390625 48.6875 27.296875 
z
" id="DejaVuSans-112"/>
       <path d="M 41.109375 46.296875 
Q 39.59375 47.171875 37.8125 47.578125 
Q 36.03125 48 33.890625 48 
Q 26.265625 48 22.1875 43.046875 
Q 18.109375 38.09375 18.109375 28.8125 
L 18.109375 0 
L 9.078125 0 
L 9.078125 54.6875 
L 18.109375 54.6875 
L 18.109375 46.1875 
Q 20.953125 51.171875 25.484375 53.578125 
Q 30.03125 56 36.53125 56 
Q 37.453125 56 38.578125 55.875 
Q 39.703125 55.765625 41.0625 55.515625 
z
" id="DejaVuSans-114"/>
      </defs>
      <g transform="translate(202.762898 160.01124)rotate(-90)scale(0.08 -0.08)">
       <use xlink:href="#DejaVuSans-49"/>
       <use x="63.623047" xlink:href="#DejaVuSans-57"/>
       <use x="127.246094" xlink:href="#DejaVuSans-32"/>
       <use x="159.033203" xlink:href="#DejaVuSans-65"/>
       <use x="227.441406" xlink:href="#DejaVuSans-112"/>
       <use x="290.917969" xlink:href="#DejaVuSans-114"/>
      </g>
     </g>
    </g>
    <g id="xtick_2">
     <g id="line2d_2">
      <g>
       <use style="stroke:#000000;stroke-width:0.8;" x="186.204165" xlink:href="#m03671fa21c" y="126.44874"/>
      </g>
     </g>
     <g id="text_2">
      <!-- 12 Apr -->
      <defs>
       <path d="M 19.1875 8.296875 
L 53.609375 8.296875 
L 53.609375 0 
L 7.328125 0 
L 7.328125 8.296875 
Q 12.9375 14.109375 22.625 23.890625 
Q 32.328125 33.6875 34.8125 36.53125 
Q 39.546875 41.84375 41.421875 45.53125 
Q 43.3125 49.21875 43.3125 52.78125 
Q 43.3125 58.59375 39.234375 62.25 
Q 35.15625 65.921875 28.609375 65.921875 
Q 23.96875 65.921875 18.8125 64.3125 
Q 13.671875 62.703125 7.8125 59.421875 
L 7.8125 69.390625 
Q 13.765625 71.78125 18.9375 73 
Q 24.125 74.21875 28.421875 74.21875 
Q 39.75 74.21875 46.484375 68.546875 
Q 53.21875 62.890625 53.21875 53.421875 
Q 53.21875 48.921875 51.53125 44.890625 
Q 49.859375 40.875 45.40625 35.40625 
Q 44.1875 33.984375 37.640625 27.21875 
Q 31.109375 20.453125 19.1875 8.296875 
z
" id="DejaVuSans-50"/>
      </defs>
      <g transform="translate(188.411665 160.01124)rotate(-90)scale(0.08 -0.08)">
       <use xlink:href="#DejaVuSans-49"/>
       <use x="63.623047" xlink:href="#DejaVuSans-50"/>
       <use x="127.246094" xlink:href="#DejaVuSans-32"/>
       <use x="159.033203" xlink:href="#DejaVuSans-65"/>
       <use x="227.441406" xlink:href="#DejaVuSans-112"/>
       <use x="290.917969" xlink:href="#DejaVuSans-114"/>
      </g>
     </g>
    </g>
    <g id="xtick_3">
     <g id="line2d_3">
      <g>
       <use style="stroke:#000000;stroke-width:0.8;" x="171.852932" xlink:href="#m03671fa21c" y="126.44874"/>
      </g>
     </g>
     <g id="text_3">
      <!-- 5 Apr -->
      <defs>
       <path d="M 10.796875 72.90625 
L 49.515625 72.90625 
L 49.515625 64.59375 
L 19.828125 64.59375 
L 19.828125 46.734375 
Q 21.96875 47.46875 24.109375 47.828125 
Q 26.265625 48.1875 28.421875 48.1875 
Q 40.625 48.1875 47.75 41.5 
Q 54.890625 34.8125 54.890625 23.390625 
Q 54.890625 11.625 47.5625 5.09375 
Q 40.234375 -1.421875 26.90625 -1.421875 
Q 22.3125 -1.421875 17.546875 -0.640625 
Q 12.796875 0.140625 7.71875 1.703125 
L 7.71875 11.625 
Q 12.109375 9.234375 16.796875 8.0625 
Q 21.484375 6.890625 26.703125 6.890625 
Q 35.15625 6.890625 40.078125 11.328125 
Q 45.015625 15.765625 45.015625 23.390625 
Q 45.015625 31 40.078125 35.4375 
Q 35.15625 39.890625 26.703125 39.890625 
Q 22.75 39.890625 18.8125 39.015625 
Q 14.890625 38.140625 10.796875 36.28125 
z
" id="DejaVuSans-53"/>
      </defs>
      <g transform="translate(174.060432 154.92124)rotate(-90)scale(0.08 -0.08)">
       <use xlink:href="#DejaVuSans-53"/>
       <use x="63.623047" xlink:href="#DejaVuSans-32"/>
       <use x="95.410156" xlink:href="#DejaVuSans-65"/>
       <use x="163.818359" xlink:href="#DejaVuSans-112"/>
       <use x="227.294922" xlink:href="#DejaVuSans-114"/>
      </g>
     </g>
    </g>
    <g id="xtick_4">
     <g id="line2d_4">
      <g>
       <use style="stroke:#000000;stroke-width:0.8;" x="157.501698" xlink:href="#m03671fa21c" y="126.44874"/>
      </g>
     </g>
     <g id="text_4">
      <!-- 29 Mar -->
      <defs>
       <path d="M 9.8125 72.90625 
L 24.515625 72.90625 
L 43.109375 23.296875 
L 61.8125 72.90625 
L 76.515625 72.90625 
L 76.515625 0 
L 66.890625 0 
L 66.890625 64.015625 
L 48.09375 14.015625 
L 38.1875 14.015625 
L 19.390625 64.015625 
L 19.390625 0 
L 9.8125 0 
z
" id="DejaVuSans-77"/>
       <path d="M 34.28125 27.484375 
Q 23.390625 27.484375 19.1875 25 
Q 14.984375 22.515625 14.984375 16.5 
Q 14.984375 11.71875 18.140625 8.90625 
Q 21.296875 6.109375 26.703125 6.109375 
Q 34.1875 6.109375 38.703125 11.40625 
Q 43.21875 16.703125 43.21875 25.484375 
L 43.21875 27.484375 
z
M 52.203125 31.203125 
L 52.203125 0 
L 43.21875 0 
L 43.21875 8.296875 
Q 40.140625 3.328125 35.546875 0.953125 
Q 30.953125 -1.421875 24.3125 -1.421875 
Q 15.921875 -1.421875 10.953125 3.296875 
Q 6 8.015625 6 15.921875 
Q 6 25.140625 12.171875 29.828125 
Q 18.359375 34.515625 30.609375 34.515625 
L 43.21875 34.515625 
L 43.21875 35.40625 
Q 43.21875 41.609375 39.140625 45 
Q 35.0625 48.390625 27.6875 48.390625 
Q 23 48.390625 18.546875 47.265625 
Q 14.109375 46.140625 10.015625 43.890625 
L 10.015625 52.203125 
Q 14.9375 54.109375 19.578125 55.046875 
Q 24.21875 56 28.609375 56 
Q 40.484375 56 46.34375 49.84375 
Q 52.203125 43.703125 52.203125 31.203125 
z
" id="DejaVuSans-97"/>
      </defs>
      <g transform="translate(159.709198 161.26499)rotate(-90)scale(0.08 -0.08)">
       <use xlink:href="#DejaVuSans-50"/>
       <use x="63.623047" xlink:href="#DejaVuSans-57"/>
       <use x="127.246094" xlink:href="#DejaVuSans-32"/>
       <use x="159.033203" xlink:href="#DejaVuSans-77"/>
       <use x="245.3125" xlink:href="#DejaVuSans-97"/>
       <use x="306.591797" xlink:href="#DejaVuSans-114"/>
      </g>
     </g>
    </g>
    <g id="xtick_5">
     <g id="line2d_5">
      <g>
       <use style="stroke:#000000;stroke-width:0.8;" x="143.150465" xlink:href="#m03671fa21c" y="126.44874"/>
      </g>
     </g>
     <g id="text_5">
      <!-- 22 Mar -->
      <g transform="translate(145.357965 161.26499)rotate(-90)scale(0.08 -0.08)">
       <use xlink:href="#DejaVuSans-50"/>
       <use x="63.623047" xlink:href="#DejaVuSans-50"/>
       <use x="127.246094" xlink:href="#DejaVuSans-32"/>
       <use x="159.033203" xlink:href="#DejaVuSans-77"/>
       <use x="245.3125" xlink:href="#DejaVuSans-97"/>
       <use x="306.591797" xlink:href="#DejaVuSans-114"/>
      </g>
     </g>
    </g>
    <g id="xtick_6">
     <g id="line2d_6">
      <g>
       <use style="stroke:#000000;stroke-width:0.8;" x="128.799231" xlink:href="#m03671fa21c" y="126.44874"/>
      </g>
     </g>
     <g id="text_6">
      <!-- 15 Mar -->
      <g transform="translate(131.006731 161.26499)rotate(-90)scale(0.08 -0.08)">
       <use xlink:href="#DejaVuSans-49"/>
       <use x="63.623047" xlink:href="#DejaVuSans-53"/>
       <use x="127.246094" xlink:href="#DejaVuSans-32"/>
       <use x="159.033203" xlink:href="#DejaVuSans-77"/>
       <use x="245.3125" xlink:href="#DejaVuSans-97"/>
       <use x="306.591797" xlink:href="#DejaVuSans-114"/>
      </g>
     </g>
    </g>
    <g id="xtick_7">
     <g id="line2d_7">
      <g>
       <use style="stroke:#000000;stroke-width:0.8;" x="114.447998" xlink:href="#m03671fa21c" y="126.44874"/>
      </g>
     </g>
     <g id="text_7">
      <!-- 8 Mar -->
      <defs>
       <path d="M 31.78125 34.625 
Q 24.75 34.625 20.71875 30.859375 
Q 16.703125 27.09375 16.703125 20.515625 
Q 16.703125 13.921875 20.71875 10.15625 
Q 24.75 6.390625 31.78125 6.390625 
Q 38.8125 6.390625 42.859375 10.171875 
Q 46.921875 13.96875 46.921875 20.515625 
Q 46.921875 27.09375 42.890625 30.859375 
Q 38.875 34.625 31.78125 34.625 
z
M 21.921875 38.8125 
Q 15.578125 40.375 12.03125 44.71875 
Q 8.5 49.078125 8.5 55.328125 
Q 8.5 64.0625 14.71875 69.140625 
Q 20.953125 74.21875 31.78125 74.21875 
Q 42.671875 74.21875 48.875 69.140625 
Q 55.078125 64.0625 55.078125 55.328125 
Q 55.078125 49.078125 51.53125 44.71875 
Q 48 40.375 41.703125 38.8125 
Q 48.828125 37.15625 52.796875 32.3125 
Q 56.78125 27.484375 56.78125 20.515625 
Q 56.78125 9.90625 50.3125 4.234375 
Q 43.84375 -1.421875 31.78125 -1.421875 
Q 19.734375 -1.421875 13.25 4.234375 
Q 6.78125 9.90625 6.78125 20.515625 
Q 6.78125 27.484375 10.78125 32.3125 
Q 14.796875 37.15625 21.921875 38.8125 
z
M 18.3125 54.390625 
Q 18.3125 48.734375 21.84375 45.5625 
Q 25.390625 42.390625 31.78125 42.390625 
Q 38.140625 42.390625 41.71875 45.5625 
Q 45.3125 48.734375 45.3125 54.390625 
Q 45.3125 60.0625 41.71875 63.234375 
Q 38.140625 66.40625 31.78125 66.40625 
Q 25.390625 66.40625 21.84375 63.234375 
Q 18.3125 60.0625 18.3125 54.390625 
z
" id="DejaVuSans-56"/>
      </defs>
      <g transform="translate(116.655498 156.17499)rotate(-90)scale(0.08 -0.08)">
       <use xlink:href="#DejaVuSans-56"/>
       <use x="63.623047" xlink:href="#DejaVuSans-32"/>
       <use x="95.410156" xlink:href="#DejaVuSans-77"/>
       <use x="181.689453" xlink:href="#DejaVuSans-97"/>
       <use x="242.96875" xlink:href="#DejaVuSans-114"/>
      </g>
     </g>
    </g>
    <g id="xtick_8">
     <g id="line2d_8">
      <g>
       <use style="stroke:#000000;stroke-width:0.8;" x="100.096764" xlink:href="#m03671fa21c" y="126.44874"/>
      </g>
     </g>
     <g id="text_8">
      <!-- 1 Mar -->
      <g transform="translate(102.304264 156.17499)rotate(-90)scale(0.08 -0.08)">
       <use xlink:href="#DejaVuSans-49"/>
       <use x="63.623047" xlink:href="#DejaVuSans-32"/>
       <use x="95.410156" xlink:href="#DejaVuSans-77"/>
       <use x="181.689453" xlink:href="#DejaVuSans-97"/>
       <use x="242.96875" xlink:href="#DejaVuSans-114"/>
      </g>
     </g>
    </g>
    <g id="xtick_9">
     <g id="line2d_9">
      <g>
       <use style="stroke:#000000;stroke-width:0.8;" x="85.745531" xlink:href="#m03671fa21c" y="126.44874"/>
      </g>
     </g>
     <g id="text_9">
      <!-- 23 Feb -->
      <defs>
       <path d="M 40.578125 39.3125 
Q 47.65625 37.796875 51.625 33 
Q 55.609375 28.21875 55.609375 21.1875 
Q 55.609375 10.40625 48.1875 4.484375 
Q 40.765625 -1.421875 27.09375 -1.421875 
Q 22.515625 -1.421875 17.65625 -0.515625 
Q 12.796875 0.390625 7.625 2.203125 
L 7.625 11.71875 
Q 11.71875 9.328125 16.59375 8.109375 
Q 21.484375 6.890625 26.8125 6.890625 
Q 36.078125 6.890625 40.9375 10.546875 
Q 45.796875 14.203125 45.796875 21.1875 
Q 45.796875 27.640625 41.28125 31.265625 
Q 36.765625 34.90625 28.71875 34.90625 
L 20.21875 34.90625 
L 20.21875 43.015625 
L 29.109375 43.015625 
Q 36.375 43.015625 40.234375 45.921875 
Q 44.09375 48.828125 44.09375 54.296875 
Q 44.09375 59.90625 40.109375 62.90625 
Q 36.140625 65.921875 28.71875 65.921875 
Q 24.65625 65.921875 20.015625 65.03125 
Q 15.375 64.15625 9.8125 62.3125 
L 9.8125 71.09375 
Q 15.4375 72.65625 20.34375 73.4375 
Q 25.25 74.21875 29.59375 74.21875 
Q 40.828125 74.21875 47.359375 69.109375 
Q 53.90625 64.015625 53.90625 55.328125 
Q 53.90625 49.265625 50.4375 45.09375 
Q 46.96875 40.921875 40.578125 39.3125 
z
" id="DejaVuSans-51"/>
       <path d="M 9.8125 72.90625 
L 51.703125 72.90625 
L 51.703125 64.59375 
L 19.671875 64.59375 
L 19.671875 43.109375 
L 48.578125 43.109375 
L 48.578125 34.8125 
L 19.671875 34.8125 
L 19.671875 0 
L 9.8125 0 
z
" id="DejaVuSans-70"/>
       <path d="M 56.203125 29.59375 
L 56.203125 25.203125 
L 14.890625 25.203125 
Q 15.484375 15.921875 20.484375 11.0625 
Q 25.484375 6.203125 34.421875 6.203125 
Q 39.59375 6.203125 44.453125 7.46875 
Q 49.3125 8.734375 54.109375 11.28125 
L 54.109375 2.78125 
Q 49.265625 0.734375 44.1875 -0.34375 
Q 39.109375 -1.421875 33.890625 -1.421875 
Q 20.796875 -1.421875 13.15625 6.1875 
Q 5.515625 13.8125 5.515625 26.8125 
Q 5.515625 40.234375 12.765625 48.109375 
Q 20.015625 56 32.328125 56 
Q 43.359375 56 49.78125 48.890625 
Q 56.203125 41.796875 56.203125 29.59375 
z
M 47.21875 32.234375 
Q 47.125 39.59375 43.09375 43.984375 
Q 39.0625 48.390625 32.421875 48.390625 
Q 24.90625 48.390625 20.390625 44.140625 
Q 15.875 39.890625 15.1875 32.171875 
z
" id="DejaVuSans-101"/>
       <path d="M 48.6875 27.296875 
Q 48.6875 37.203125 44.609375 42.84375 
Q 40.53125 48.484375 33.40625 48.484375 
Q 26.265625 48.484375 22.1875 42.84375 
Q 18.109375 37.203125 18.109375 27.296875 
Q 18.109375 17.390625 22.1875 11.75 
Q 26.265625 6.109375 33.40625 6.109375 
Q 40.53125 6.109375 44.609375 11.75 
Q 48.6875 17.390625 48.6875 27.296875 
z
M 18.109375 46.390625 
Q 20.953125 51.265625 25.265625 53.625 
Q 29.59375 56 35.59375 56 
Q 45.5625 56 51.78125 48.09375 
Q 58.015625 40.1875 58.015625 27.296875 
Q 58.015625 14.40625 51.78125 6.484375 
Q 45.5625 -1.421875 35.59375 -1.421875 
Q 29.59375 -1.421875 25.265625 0.953125 
Q 20.953125 3.328125 18.109375 8.203125 
L 18.109375 0 
L 9.078125 0 
L 9.078125 75.984375 
L 18.109375 75.984375 
z
" id="DejaVuSans-98"/>
      </defs>
      <g transform="translate(87.953031 160.33374)rotate(-90)scale(0.08 -0.08)">
       <use xlink:href="#DejaVuSans-50"/>
       <use x="63.623047" xlink:href="#DejaVuSans-51"/>
       <use x="127.246094" xlink:href="#DejaVuSans-32"/>
       <use x="159.033203" xlink:href="#DejaVuSans-70"/>
       <use x="211.052734" xlink:href="#DejaVuSans-101"/>
       <use x="272.576172" xlink:href="#DejaVuSans-98"/>
      </g>
     </g>
    </g>
    <g id="xtick_10">
     <g id="line2d_10">
      <g>
       <use style="stroke:#000000;stroke-width:0.8;" x="71.394298" xlink:href="#m03671fa21c" y="126.44874"/>
      </g>
     </g>
     <g id="text_10">
      <!-- 16 Feb -->
      <defs>
       <path d="M 33.015625 40.375 
Q 26.375 40.375 22.484375 35.828125 
Q 18.609375 31.296875 18.609375 23.390625 
Q 18.609375 15.53125 22.484375 10.953125 
Q 26.375 6.390625 33.015625 6.390625 
Q 39.65625 6.390625 43.53125 10.953125 
Q 47.40625 15.53125 47.40625 23.390625 
Q 47.40625 31.296875 43.53125 35.828125 
Q 39.65625 40.375 33.015625 40.375 
z
M 52.59375 71.296875 
L 52.59375 62.3125 
Q 48.875 64.0625 45.09375 64.984375 
Q 41.3125 65.921875 37.59375 65.921875 
Q 27.828125 65.921875 22.671875 59.328125 
Q 17.53125 52.734375 16.796875 39.40625 
Q 19.671875 43.65625 24.015625 45.921875 
Q 28.375 48.1875 33.59375 48.1875 
Q 44.578125 48.1875 50.953125 41.515625 
Q 57.328125 34.859375 57.328125 23.390625 
Q 57.328125 12.15625 50.6875 5.359375 
Q 44.046875 -1.421875 33.015625 -1.421875 
Q 20.359375 -1.421875 13.671875 8.265625 
Q 6.984375 17.96875 6.984375 36.375 
Q 6.984375 53.65625 15.1875 63.9375 
Q 23.390625 74.21875 37.203125 74.21875 
Q 40.921875 74.21875 44.703125 73.484375 
Q 48.484375 72.75 52.59375 71.296875 
z
" id="DejaVuSans-54"/>
      </defs>
      <g transform="translate(73.601798 160.33374)rotate(-90)scale(0.08 -0.08)">
       <use xlink:href="#DejaVuSans-49"/>
       <use x="63.623047" xlink:href="#DejaVuSans-54"/>
       <use x="127.246094" xlink:href="#DejaVuSans-32"/>
       <use x="159.033203" xlink:href="#DejaVuSans-70"/>
       <use x="211.052734" xlink:href="#DejaVuSans-101"/>
       <use x="272.576172" xlink:href="#DejaVuSans-98"/>
      </g>
     </g>
    </g>
    <g id="xtick_11">
     <g id="line2d_11">
      <g>
       <use style="stroke:#000000;stroke-width:0.8;" x="57.043064" xlink:href="#m03671fa21c" y="126.44874"/>
      </g>
     </g>
     <g id="text_11">
      <!-- 9 Feb -->
      <g transform="translate(59.250564 155.24374)rotate(-90)scale(0.08 -0.08)">
       <use xlink:href="#DejaVuSans-57"/>
       <use x="63.623047" xlink:href="#DejaVuSans-32"/>
       <use x="95.410156" xlink:href="#DejaVuSans-70"/>
       <use x="147.429688" xlink:href="#DejaVuSans-101"/>
       <use x="208.953125" xlink:href="#DejaVuSans-98"/>
      </g>
     </g>
    </g>
   </g>
   <g id="matplotlib.axis_2">
    <g id="ytick_1">
     <g id="line2d_12">
      <defs>
       <path d="M 0 0 
L -3.5 0 
" id="m15155e6546" style="stroke:#000000;stroke-width:0.8;"/>
      </defs>
      <g>
       <use style="stroke:#000000;stroke-width:0.8;" x="44.66" xlink:href="#m15155e6546" y="126.44874"/>
      </g>
     </g>
     <g id="text_12">
      <!-- 0.0 -->
      <defs>
       <path d="M 31.78125 66.40625 
Q 24.171875 66.40625 20.328125 58.90625 
Q 16.5 51.421875 16.5 36.375 
Q 16.5 21.390625 20.328125 13.890625 
Q 24.171875 6.390625 31.78125 6.390625 
Q 39.453125 6.390625 43.28125 13.890625 
Q 47.125 21.390625 47.125 36.375 
Q 47.125 51.421875 43.28125 58.90625 
Q 39.453125 66.40625 31.78125 66.40625 
z
M 31.78125 74.21875 
Q 44.046875 74.21875 50.515625 64.515625 
Q 56.984375 54.828125 56.984375 36.375 
Q 56.984375 17.96875 50.515625 8.265625 
Q 44.046875 -1.421875 31.78125 -1.421875 
Q 19.53125 -1.421875 13.0625 8.265625 
Q 6.59375 17.96875 6.59375 36.375 
Q 6.59375 54.828125 13.0625 64.515625 
Q 19.53125 74.21875 31.78125 74.21875 
z
" id="DejaVuSans-48"/>
       <path d="M 10.6875 12.40625 
L 21 12.40625 
L 21 0 
L 10.6875 0 
z
" id="DejaVuSans-46"/>
      </defs>
      <g transform="translate(24.9375 129.488115)scale(0.08 -0.08)">
       <use xlink:href="#DejaVuSans-48"/>
       <use x="63.623047" xlink:href="#DejaVuSans-46"/>
       <use x="95.410156" xlink:href="#DejaVuSans-48"/>
      </g>
     </g>
    </g>
    <g id="ytick_2">
     <g id="line2d_13">
      <g>
       <use style="stroke:#000000;stroke-width:0.8;" x="44.66" xlink:href="#m15155e6546" y="95.00853"/>
      </g>
     </g>
     <g id="text_13">
      <!-- 0.5 -->
      <g transform="translate(24.9375 98.047905)scale(0.08 -0.08)">
       <use xlink:href="#DejaVuSans-48"/>
       <use x="63.623047" xlink:href="#DejaVuSans-46"/>
       <use x="95.410156" xlink:href="#DejaVuSans-53"/>
      </g>
     </g>
    </g>
    <g id="ytick_3">
     <g id="line2d_14">
      <g>
       <use style="stroke:#000000;stroke-width:0.8;" x="44.66" xlink:href="#m15155e6546" y="63.568319"/>
      </g>
     </g>
     <g id="text_14">
      <!-- 1.0 -->
      <g transform="translate(24.9375 66.607694)scale(0.08 -0.08)">
       <use xlink:href="#DejaVuSans-49"/>
       <use x="63.623047" xlink:href="#DejaVuSans-46"/>
       <use x="95.410156" xlink:href="#DejaVuSans-48"/>
      </g>
     </g>
    </g>
    <g id="ytick_4">
     <g id="line2d_15">
      <g>
       <use style="stroke:#000000;stroke-width:0.8;" x="44.66" xlink:href="#m15155e6546" y="32.128108"/>
      </g>
     </g>
     <g id="text_15">
      <!-- 1.5 -->
      <g transform="translate(24.9375 35.167483)scale(0.08 -0.08)">
       <use xlink:href="#DejaVuSans-49"/>
       <use x="63.623047" xlink:href="#DejaVuSans-46"/>
       <use x="95.410156" xlink:href="#DejaVuSans-53"/>
      </g>
     </g>
    </g>
    <g id="text_16">
     <!-- Cumulative cases -->
     <defs>
      <path d="M 64.40625 67.28125 
L 64.40625 56.890625 
Q 59.421875 61.53125 53.78125 63.8125 
Q 48.140625 66.109375 41.796875 66.109375 
Q 29.296875 66.109375 22.65625 58.46875 
Q 16.015625 50.828125 16.015625 36.375 
Q 16.015625 21.96875 22.65625 14.328125 
Q 29.296875 6.6875 41.796875 6.6875 
Q 48.140625 6.6875 53.78125 8.984375 
Q 59.421875 11.28125 64.40625 15.921875 
L 64.40625 5.609375 
Q 59.234375 2.09375 53.4375 0.328125 
Q 47.65625 -1.421875 41.21875 -1.421875 
Q 24.65625 -1.421875 15.125 8.703125 
Q 5.609375 18.84375 5.609375 36.375 
Q 5.609375 53.953125 15.125 64.078125 
Q 24.65625 74.21875 41.21875 74.21875 
Q 47.75 74.21875 53.53125 72.484375 
Q 59.328125 70.75 64.40625 67.28125 
z
" id="DejaVuSans-67"/>
      <path d="M 8.5 21.578125 
L 8.5 54.6875 
L 17.484375 54.6875 
L 17.484375 21.921875 
Q 17.484375 14.15625 20.5 10.265625 
Q 23.53125 6.390625 29.59375 6.390625 
Q 36.859375 6.390625 41.078125 11.03125 
Q 45.3125 15.671875 45.3125 23.6875 
L 45.3125 54.6875 
L 54.296875 54.6875 
L 54.296875 0 
L 45.3125 0 
L 45.3125 8.40625 
Q 42.046875 3.421875 37.71875 1 
Q 33.40625 -1.421875 27.6875 -1.421875 
Q 18.265625 -1.421875 13.375 4.4375 
Q 8.5 10.296875 8.5 21.578125 
z
M 31.109375 56 
z
" id="DejaVuSans-117"/>
      <path d="M 52 44.1875 
Q 55.375 50.25 60.0625 53.125 
Q 64.75 56 71.09375 56 
Q 79.640625 56 84.28125 50.015625 
Q 88.921875 44.046875 88.921875 33.015625 
L 88.921875 0 
L 79.890625 0 
L 79.890625 32.71875 
Q 79.890625 40.578125 77.09375 44.375 
Q 74.3125 48.1875 68.609375 48.1875 
Q 61.625 48.1875 57.5625 43.546875 
Q 53.515625 38.921875 53.515625 30.90625 
L 53.515625 0 
L 44.484375 0 
L 44.484375 32.71875 
Q 44.484375 40.625 41.703125 44.40625 
Q 38.921875 48.1875 33.109375 48.1875 
Q 26.21875 48.1875 22.15625 43.53125 
Q 18.109375 38.875 18.109375 30.90625 
L 18.109375 0 
L 9.078125 0 
L 9.078125 54.6875 
L 18.109375 54.6875 
L 18.109375 46.1875 
Q 21.1875 51.21875 25.484375 53.609375 
Q 29.78125 56 35.6875 56 
Q 41.65625 56 45.828125 52.96875 
Q 50 49.953125 52 44.1875 
z
" id="DejaVuSans-109"/>
      <path d="M 9.421875 75.984375 
L 18.40625 75.984375 
L 18.40625 0 
L 9.421875 0 
z
" id="DejaVuSans-108"/>
      <path d="M 18.3125 70.21875 
L 18.3125 54.6875 
L 36.8125 54.6875 
L 36.8125 47.703125 
L 18.3125 47.703125 
L 18.3125 18.015625 
Q 18.3125 11.328125 20.140625 9.421875 
Q 21.96875 7.515625 27.59375 7.515625 
L 36.8125 7.515625 
L 36.8125 0 
L 27.59375 0 
Q 17.1875 0 13.234375 3.875 
Q 9.28125 7.765625 9.28125 18.015625 
L 9.28125 47.703125 
L 2.6875 47.703125 
L 2.6875 54.6875 
L 9.28125 54.6875 
L 9.28125 70.21875 
z
" id="DejaVuSans-116"/>
      <path d="M 9.421875 54.6875 
L 18.40625 54.6875 
L 18.40625 0 
L 9.421875 0 
z
M 9.421875 75.984375 
L 18.40625 75.984375 
L 18.40625 64.59375 
L 9.421875 64.59375 
z
" id="DejaVuSans-105"/>
      <path d="M 2.984375 54.6875 
L 12.5 54.6875 
L 29.59375 8.796875 
L 46.6875 54.6875 
L 56.203125 54.6875 
L 35.6875 0 
L 23.484375 0 
z
" id="DejaVuSans-118"/>
      <path d="M 48.78125 52.59375 
L 48.78125 44.1875 
Q 44.96875 46.296875 41.140625 47.34375 
Q 37.3125 48.390625 33.40625 48.390625 
Q 24.65625 48.390625 19.8125 42.84375 
Q 14.984375 37.3125 14.984375 27.296875 
Q 14.984375 17.28125 19.8125 11.734375 
Q 24.65625 6.203125 33.40625 6.203125 
Q 37.3125 6.203125 41.140625 7.25 
Q 44.96875 8.296875 48.78125 10.40625 
L 48.78125 2.09375 
Q 45.015625 0.34375 40.984375 -0.53125 
Q 36.96875 -1.421875 32.421875 -1.421875 
Q 20.0625 -1.421875 12.78125 6.34375 
Q 5.515625 14.109375 5.515625 27.296875 
Q 5.515625 40.671875 12.859375 48.328125 
Q 20.21875 56 33.015625 56 
Q 37.15625 56 41.109375 55.140625 
Q 45.0625 54.296875 48.78125 52.59375 
z
" id="DejaVuSans-99"/>
      <path d="M 44.28125 53.078125 
L 44.28125 44.578125 
Q 40.484375 46.53125 36.375 47.5 
Q 32.28125 48.484375 27.875 48.484375 
Q 21.1875 48.484375 17.84375 46.4375 
Q 14.5 44.390625 14.5 40.28125 
Q 14.5 37.15625 16.890625 35.375 
Q 19.28125 33.59375 26.515625 31.984375 
L 29.59375 31.296875 
Q 39.15625 29.25 43.1875 25.515625 
Q 47.21875 21.78125 47.21875 15.09375 
Q 47.21875 7.46875 41.1875 3.015625 
Q 35.15625 -1.421875 24.609375 -1.421875 
Q 20.21875 -1.421875 15.453125 -0.5625 
Q 10.6875 0.296875 5.421875 2 
L 5.421875 11.28125 
Q 10.40625 8.6875 15.234375 7.390625 
Q 20.0625 6.109375 24.8125 6.109375 
Q 31.15625 6.109375 34.5625 8.28125 
Q 37.984375 10.453125 37.984375 14.40625 
Q 37.984375 18.0625 35.515625 20.015625 
Q 33.0625 21.96875 24.703125 23.78125 
L 21.578125 24.515625 
Q 13.234375 26.265625 9.515625 29.90625 
Q 5.8125 33.546875 5.8125 39.890625 
Q 5.8125 47.609375 11.28125 51.796875 
Q 16.75 56 26.8125 56 
Q 31.78125 56 36.171875 55.265625 
Q 40.578125 54.546875 44.28125 53.078125 
z
" id="DejaVuSans-115"/>
     </defs>
     <g transform="translate(19.27375 107.304995)rotate(-90)scale(0.08 -0.08)">
      <use xlink:href="#DejaVuSans-67"/>
      <use x="69.824219" xlink:href="#DejaVuSans-117"/>
      <use x="133.203125" xlink:href="#DejaVuSans-109"/>
      <use x="230.615234" xlink:href="#DejaVuSans-117"/>
      <use x="293.994141" xlink:href="#DejaVuSans-108"/>
      <use x="321.777344" xlink:href="#DejaVuSans-97"/>
      <use x="383.056641" xlink:href="#DejaVuSans-116"/>
      <use x="422.265625" xlink:href="#DejaVuSans-105"/>
      <use x="450.048828" xlink:href="#DejaVuSans-118"/>
      <use x="509.228516" xlink:href="#DejaVuSans-101"/>
      <use x="570.751953" xlink:href="#DejaVuSans-32"/>
      <use x="602.539062" xlink:href="#DejaVuSans-99"/>
      <use x="657.519531" xlink:href="#DejaVuSans-97"/>
      <use x="718.798828" xlink:href="#DejaVuSans-115"/>
      <use x="770.898438" xlink:href="#DejaVuSans-101"/>
      <use x="832.421875" xlink:href="#DejaVuSans-115"/>
     </g>
    </g>
    <g id="text_17">
     <!-- 1e6 -->
     <g transform="translate(44.66 14.4)scale(0.08 -0.08)">
      <use xlink:href="#DejaVuSans-49"/>
      <use x="63.623047" xlink:href="#DejaVuSans-101"/>
      <use x="125.146484" xlink:href="#DejaVuSans-54"/>
     </g>
    </g>
   </g>
   <g id="line2d_16">
    <path clip-path="url(#p287d309a67)" d="M 52.942712 126.446737 
L 54.992888 126.444734 
L 57.043064 126.442731 
L 59.09324 126.440729 
L 61.143417 126.438726 
L 63.193593 126.436723 
L 65.243769 126.433499 
L 67.293945 126.429625 
L 69.344121 126.425101 
L 71.394298 126.419013 
L 73.444474 126.411927 
L 75.49465 126.403194 
L 77.544826 126.39426 
L 79.595002 126.382638 
L 81.645179 126.369107 
L 83.695355 126.352492 
L 85.745531 126.324938 
L 87.795707 126.296879 
L 89.845883 126.264328 
L 91.89606 126.227987 
L 93.946236 126.182301 
L 95.996412 126.122885 
L 98.046588 126.050216 
L 100.096764 125.951059 
L 102.146941 125.83628 
L 104.197117 125.682587 
L 106.247293 125.510492 
L 108.297469 125.310943 
L 110.347646 125.044476 
L 112.397822 124.725896 
L 114.447998 124.321219 
L 116.498174 123.828052 
L 118.54835 123.239993 
L 120.598527 122.488139 
L 122.648703 121.470104 
L 124.698879 119.588071 
L 126.749055 118.212626 
L 128.799231 114.477663 
L 130.849408 103.972825 
L 132.899584 102.171007 
L 134.94976 101.169769 
L 136.999936 99.768871 
L 139.050112 98.290958 
L 141.100289 97.20798 
L 143.150465 96.396221 
L 145.200641 94.909054 
L 147.250817 93.675336 
L 149.300993 92.602686 
L 151.35117 91.527462 
L 153.401346 90.508238 
L 155.451522 89.736939 
L 157.501698 89.231994 
" style="fill:none;stroke:#0000ff;stroke-linecap:square;stroke-opacity:0.5;"/>
   </g>
   <g id="line2d_17">
    <path clip-path="url(#p287d309a67)" d="M 159.551874 88.742792 
L 161.602051 88.273901 
L 163.652227 87.827535 
L 165.702403 87.403392 
L 167.752579 86.999502 
L 169.802755 86.613004 
L 171.852932 86.240664 
L 173.903108 85.879165 
L 175.953284 85.525243 
L 178.00346 85.175736 
L 180.053636 84.827577 
L 182.103813 84.477763 
L 184.153989 84.123312 
L 186.204165 83.761216 
L 188.254341 83.388384 
L 190.304517 83.001591 
L 192.354694 82.597422 
L 194.40487 82.172205 
L 196.455046 81.72195 
L 198.505222 81.242276 
L 200.555398 80.728328 
" style="fill:none;stroke:#008000;stroke-linecap:square;stroke-opacity:0.5;"/>
   </g>
   <g id="line2d_18">
    <path clip-path="url(#p287d309a67)" d="M 124.698879 126.44874 
L 124.698879 17.4 
" style="fill:none;stroke:#0000ff;stroke-dasharray:1.85,0.8;stroke-dashoffset:0;stroke-width:0.5;"/>
   </g>
   <g id="line2d_19">
    <path clip-path="url(#p287d309a67)" d="M 126.749055 126.44874 
L 126.749055 17.4 
" style="fill:none;stroke:#0000ff;stroke-dasharray:1.85,0.8;stroke-dashoffset:0;stroke-width:0.5;"/>
   </g>
   <g id="line2d_20">
    <path clip-path="url(#p287d309a67)" d="M 132.899584 126.44874 
L 132.899584 17.4 
" style="fill:none;stroke:#0000ff;stroke-dasharray:1.85,0.8;stroke-dashoffset:0;stroke-width:0.5;"/>
   </g>
   <g id="line2d_21">
    <path clip-path="url(#p287d309a67)" d="M 130.849408 126.44874 
L 130.849408 17.4 
" style="fill:none;stroke:#0000ff;stroke-dasharray:1.85,0.8;stroke-dashoffset:0;stroke-width:0.5;"/>
   </g>
   <g id="line2d_22">
    <path clip-path="url(#p287d309a67)" d="M 130.849408 126.44874 
L 130.849408 17.4 
" style="fill:none;stroke:#0000ff;stroke-dasharray:1.85,0.8;stroke-dashoffset:0;stroke-width:0.5;"/>
   </g>
   <g id="patch_76">
    <path d="M 44.66 126.44874 
L 44.66 17.4 
" style="fill:none;stroke:#000000;stroke-linecap:square;stroke-linejoin:miter;stroke-width:0.8;"/>
   </g>
   <g id="patch_77">
    <path d="M 208.83811 126.44874 
L 208.83811 17.4 
" style="fill:none;stroke:#000000;stroke-linecap:square;stroke-linejoin:miter;stroke-width:0.8;"/>
   </g>
   <g id="patch_78">
    <path d="M 44.66 126.44874 
L 208.83811 126.44874 
" style="fill:none;stroke:#000000;stroke-linecap:square;stroke-linejoin:miter;stroke-width:0.8;"/>
   </g>
   <g id="patch_79">
    <path d="M 44.66 17.4 
L 208.83811 17.4 
" style="fill:none;stroke:#000000;stroke-linecap:square;stroke-linejoin:miter;stroke-width:0.8;"/>
   </g>
   <g id="legend_1">
    <g id="line2d_23">
     <path d="M 51.86 103.04249 
L 67.86 103.04249 
" style="fill:none;stroke:#0000ff;stroke-linecap:square;stroke-opacity:0.5;"/>
    </g>
    <g id="line2d_24"/>
    <g id="text_18">
     <!-- Simulation -->
     <defs>
      <path d="M 53.515625 70.515625 
L 53.515625 60.890625 
Q 47.90625 63.578125 42.921875 64.890625 
Q 37.9375 66.21875 33.296875 66.21875 
Q 25.25 66.21875 20.875 63.09375 
Q 16.5 59.96875 16.5 54.203125 
Q 16.5 49.359375 19.40625 46.890625 
Q 22.3125 44.4375 30.421875 42.921875 
L 36.375 41.703125 
Q 47.40625 39.59375 52.65625 34.296875 
Q 57.90625 29 57.90625 20.125 
Q 57.90625 9.515625 50.796875 4.046875 
Q 43.703125 -1.421875 29.984375 -1.421875 
Q 24.8125 -1.421875 18.96875 -0.25 
Q 13.140625 0.921875 6.890625 3.21875 
L 6.890625 13.375 
Q 12.890625 10.015625 18.65625 8.296875 
Q 24.421875 6.59375 29.984375 6.59375 
Q 38.421875 6.59375 43.015625 9.90625 
Q 47.609375 13.234375 47.609375 19.390625 
Q 47.609375 24.75 44.3125 27.78125 
Q 41.015625 30.8125 33.5 32.328125 
L 27.484375 33.5 
Q 16.453125 35.6875 11.515625 40.375 
Q 6.59375 45.0625 6.59375 53.421875 
Q 6.59375 63.09375 13.40625 68.65625 
Q 20.21875 74.21875 32.171875 74.21875 
Q 37.3125 74.21875 42.625 73.28125 
Q 47.953125 72.359375 53.515625 70.515625 
z
" id="DejaVuSans-83"/>
      <path d="M 30.609375 48.390625 
Q 23.390625 48.390625 19.1875 42.75 
Q 14.984375 37.109375 14.984375 27.296875 
Q 14.984375 17.484375 19.15625 11.84375 
Q 23.34375 6.203125 30.609375 6.203125 
Q 37.796875 6.203125 41.984375 11.859375 
Q 46.1875 17.53125 46.1875 27.296875 
Q 46.1875 37.015625 41.984375 42.703125 
Q 37.796875 48.390625 30.609375 48.390625 
z
M 30.609375 56 
Q 42.328125 56 49.015625 48.375 
Q 55.71875 40.765625 55.71875 27.296875 
Q 55.71875 13.875 49.015625 6.21875 
Q 42.328125 -1.421875 30.609375 -1.421875 
Q 18.84375 -1.421875 12.171875 6.21875 
Q 5.515625 13.875 5.515625 27.296875 
Q 5.515625 40.765625 12.171875 48.375 
Q 18.84375 56 30.609375 56 
z
" id="DejaVuSans-111"/>
      <path d="M 54.890625 33.015625 
L 54.890625 0 
L 45.90625 0 
L 45.90625 32.71875 
Q 45.90625 40.484375 42.875 44.328125 
Q 39.84375 48.1875 33.796875 48.1875 
Q 26.515625 48.1875 22.3125 43.546875 
Q 18.109375 38.921875 18.109375 30.90625 
L 18.109375 0 
L 9.078125 0 
L 9.078125 54.6875 
L 18.109375 54.6875 
L 18.109375 46.1875 
Q 21.34375 51.125 25.703125 53.5625 
Q 30.078125 56 35.796875 56 
Q 45.21875 56 50.046875 50.171875 
Q 54.890625 44.34375 54.890625 33.015625 
z
" id="DejaVuSans-110"/>
     </defs>
     <g transform="translate(74.26 105.84249)scale(0.08 -0.08)">
      <use xlink:href="#DejaVuSans-83"/>
      <use x="63.476562" xlink:href="#DejaVuSans-105"/>
      <use x="91.259766" xlink:href="#DejaVuSans-109"/>
      <use x="188.671875" xlink:href="#DejaVuSans-117"/>
      <use x="252.050781" xlink:href="#DejaVuSans-108"/>
      <use x="279.833984" xlink:href="#DejaVuSans-97"/>
      <use x="341.113281" xlink:href="#DejaVuSans-116"/>
      <use x="380.322266" xlink:href="#DejaVuSans-105"/>
      <use x="408.105469" xlink:href="#DejaVuSans-111"/>
      <use x="469.287109" xlink:href="#DejaVuSans-110"/>
     </g>
    </g>
    <g id="line2d_25">
     <path d="M 51.86 114.78499 
L 67.86 114.78499 
" style="fill:none;stroke:#008000;stroke-linecap:square;stroke-opacity:0.5;"/>
    </g>
    <g id="line2d_26"/>
    <g id="text_19">
     <!-- Forecast -->
     <g transform="translate(74.26 117.58499)scale(0.08 -0.08)">
      <use xlink:href="#DejaVuSans-70"/>
      <use x="53.894531" xlink:href="#DejaVuSans-111"/>
      <use x="115.076172" xlink:href="#DejaVuSans-114"/>
      <use x="153.939453" xlink:href="#DejaVuSans-101"/>
      <use x="215.462891" xlink:href="#DejaVuSans-99"/>
      <use x="270.443359" xlink:href="#DejaVuSans-97"/>
      <use x="331.722656" xlink:href="#DejaVuSans-115"/>
      <use x="383.822266" xlink:href="#DejaVuSans-116"/>
     </g>
    </g>
   </g>
  </g>
  <g id="axes_2">
   <g id="matplotlib.axis_3">
    <g id="ytick_5">
     <g id="line2d_27">
      <defs>
       <path d="M 0 0 
L 3.5 0 
" id="mffa21a34c1" style="stroke:#000000;stroke-width:0.8;"/>
      </defs>
      <g>
       <use style="stroke:#000000;stroke-width:0.8;" x="208.83811" xlink:href="#mffa21a34c1" y="126.44874"/>
      </g>
     </g>
     <g id="text_20">
      <!-- 1.0 -->
      <defs>
       <path d="M 10.59375 35.5 
L 73.1875 35.5 
L 73.1875 27.203125 
L 10.59375 27.203125 
z
" id="DejaVuSans-8722"/>
      </defs>
      <g transform="translate(215.83811 129.488115)scale(0.08 -0.08)">
       <use xlink:href="#DejaVuSans-8722"/>
       <use x="83.789062" xlink:href="#DejaVuSans-49"/>
       <use x="147.412109" xlink:href="#DejaVuSans-46"/>
       <use x="179.199219" xlink:href="#DejaVuSans-48"/>
      </g>
     </g>
    </g>
    <g id="ytick_6">
     <g id="line2d_28">
      <g>
       <use style="stroke:#000000;stroke-width:0.8;" x="208.83811" xlink:href="#mffa21a34c1" y="87.502762"/>
      </g>
     </g>
     <g id="text_21">
      <!-- 0.5 -->
      <g transform="translate(215.83811 90.542137)scale(0.08 -0.08)">
       <use xlink:href="#DejaVuSans-8722"/>
       <use x="83.789062" xlink:href="#DejaVuSans-48"/>
       <use x="147.412109" xlink:href="#DejaVuSans-46"/>
       <use x="179.199219" xlink:href="#DejaVuSans-53"/>
      </g>
     </g>
    </g>
    <g id="ytick_7">
     <g id="line2d_29">
      <g>
       <use style="stroke:#000000;stroke-width:0.8;" x="208.83811" xlink:href="#mffa21a34c1" y="48.556783"/>
      </g>
     </g>
     <g id="text_22">
      <!-- 0.0 -->
      <g transform="translate(215.83811 51.596158)scale(0.08 -0.08)">
       <use xlink:href="#DejaVuSans-48"/>
       <use x="63.623047" xlink:href="#DejaVuSans-46"/>
       <use x="95.410156" xlink:href="#DejaVuSans-48"/>
      </g>
     </g>
    </g>
    <g id="ytick_8">
     <g id="line2d_30">
      <g>
       <use style="stroke:#000000;stroke-width:0.8;" x="208.83811" xlink:href="#mffa21a34c1" y="17.4"/>
      </g>
     </g>
     <g id="text_23">
      <!-- 0.4 -->
      <defs>
       <path d="M 37.796875 64.3125 
L 12.890625 25.390625 
L 37.796875 25.390625 
z
M 35.203125 72.90625 
L 47.609375 72.90625 
L 47.609375 25.390625 
L 58.015625 25.390625 
L 58.015625 17.1875 
L 47.609375 17.1875 
L 47.609375 0 
L 37.796875 0 
L 37.796875 17.1875 
L 4.890625 17.1875 
L 4.890625 26.703125 
z
" id="DejaVuSans-52"/>
      </defs>
      <g transform="translate(215.83811 20.439375)scale(0.08 -0.08)">
       <use xlink:href="#DejaVuSans-48"/>
       <use x="63.623047" xlink:href="#DejaVuSans-46"/>
       <use x="95.410156" xlink:href="#DejaVuSans-52"/>
      </g>
     </g>
    </g>
    <g id="text_24">
     <!-- Relative change -->
     <defs>
      <path d="M 44.390625 34.1875 
Q 47.5625 33.109375 50.5625 29.59375 
Q 53.5625 26.078125 56.59375 19.921875 
L 66.609375 0 
L 56 0 
L 46.6875 18.703125 
Q 43.0625 26.03125 39.671875 28.421875 
Q 36.28125 30.8125 30.421875 30.8125 
L 19.671875 30.8125 
L 19.671875 0 
L 9.8125 0 
L 9.8125 72.90625 
L 32.078125 72.90625 
Q 44.578125 72.90625 50.734375 67.671875 
Q 56.890625 62.453125 56.890625 51.90625 
Q 56.890625 45.015625 53.6875 40.46875 
Q 50.484375 35.9375 44.390625 34.1875 
z
M 19.671875 64.796875 
L 19.671875 38.921875 
L 32.078125 38.921875 
Q 39.203125 38.921875 42.84375 42.21875 
Q 46.484375 45.515625 46.484375 51.90625 
Q 46.484375 58.296875 42.84375 61.546875 
Q 39.203125 64.796875 32.078125 64.796875 
z
" id="DejaVuSans-82"/>
      <path d="M 54.890625 33.015625 
L 54.890625 0 
L 45.90625 0 
L 45.90625 32.71875 
Q 45.90625 40.484375 42.875 44.328125 
Q 39.84375 48.1875 33.796875 48.1875 
Q 26.515625 48.1875 22.3125 43.546875 
Q 18.109375 38.921875 18.109375 30.90625 
L 18.109375 0 
L 9.078125 0 
L 9.078125 75.984375 
L 18.109375 75.984375 
L 18.109375 46.1875 
Q 21.34375 51.125 25.703125 53.5625 
Q 30.078125 56 35.796875 56 
Q 45.21875 56 50.046875 50.171875 
Q 54.890625 44.34375 54.890625 33.015625 
z
" id="DejaVuSans-104"/>
      <path d="M 45.40625 27.984375 
Q 45.40625 37.75 41.375 43.109375 
Q 37.359375 48.484375 30.078125 48.484375 
Q 22.859375 48.484375 18.828125 43.109375 
Q 14.796875 37.75 14.796875 27.984375 
Q 14.796875 18.265625 18.828125 12.890625 
Q 22.859375 7.515625 30.078125 7.515625 
Q 37.359375 7.515625 41.375 12.890625 
Q 45.40625 18.265625 45.40625 27.984375 
z
M 54.390625 6.78125 
Q 54.390625 -7.171875 48.1875 -13.984375 
Q 42 -20.796875 29.203125 -20.796875 
Q 24.46875 -20.796875 20.265625 -20.09375 
Q 16.0625 -19.390625 12.109375 -17.921875 
L 12.109375 -9.1875 
Q 16.0625 -11.328125 19.921875 -12.34375 
Q 23.78125 -13.375 27.78125 -13.375 
Q 36.625 -13.375 41.015625 -8.765625 
Q 45.40625 -4.15625 45.40625 5.171875 
L 45.40625 9.625 
Q 42.625 4.78125 38.28125 2.390625 
Q 33.9375 0 27.875 0 
Q 17.828125 0 11.671875 7.65625 
Q 5.515625 15.328125 5.515625 27.984375 
Q 5.515625 40.671875 11.671875 48.328125 
Q 17.828125 56 27.875 56 
Q 33.9375 56 38.28125 53.609375 
Q 42.625 51.21875 45.40625 46.390625 
L 45.40625 54.6875 
L 54.390625 54.6875 
z
" id="DejaVuSans-103"/>
     </defs>
     <g transform="translate(245.34311 104.04812)rotate(-90)scale(0.08 -0.08)">
      <use xlink:href="#DejaVuSans-82"/>
      <use x="64.982422" xlink:href="#DejaVuSans-101"/>
      <use x="126.505859" xlink:href="#DejaVuSans-108"/>
      <use x="154.289062" xlink:href="#DejaVuSans-97"/>
      <use x="215.568359" xlink:href="#DejaVuSans-116"/>
      <use x="254.777344" xlink:href="#DejaVuSans-105"/>
      <use x="282.560547" xlink:href="#DejaVuSans-118"/>
      <use x="341.740234" xlink:href="#DejaVuSans-101"/>
      <use x="403.263672" xlink:href="#DejaVuSans-32"/>
      <use x="435.050781" xlink:href="#DejaVuSans-99"/>
      <use x="490.03125" xlink:href="#DejaVuSans-104"/>
      <use x="553.410156" xlink:href="#DejaVuSans-97"/>
      <use x="614.689453" xlink:href="#DejaVuSans-110"/>
      <use x="678.068359" xlink:href="#DejaVuSans-103"/>
      <use x="741.544922" xlink:href="#DejaVuSans-101"/>
     </g>
    </g>
   </g>
   <g id="line2d_31">
    <path clip-path="url(#p287d309a67)" d="M 52.942712 48.556783 
L 54.992888 48.556783 
L 57.043064 48.556783 
L 59.09324 48.556783 
L 61.143417 48.556783 
L 63.193593 48.556783 
L 65.243769 48.556783 
L 67.293945 48.556783 
L 69.344121 50.114622 
L 71.394298 43.883265 
L 73.444474 47.777863 
L 75.49465 44.662185 
L 77.544826 51.672461 
L 79.595002 50.114622 
L 81.645179 49.335702 
L 83.695355 53.2303 
L 85.745531 42.325426 
L 87.795707 46.220024 
L 89.845883 47.777863 
L 91.89606 52.451381 
L 93.946236 52.451381 
L 95.996412 49.335702 
L 98.046588 54.00922 
L 100.096764 47.777863 
L 102.146941 53.2303 
L 104.197117 49.335702 
L 106.247293 53.2303 
L 108.297469 54.788139 
L 110.347646 50.114622 
L 112.397822 51.672461 
L 114.447998 48.556783 
L 116.498174 52.451381 
L 118.54835 52.451381 
L 120.598527 53.2303 
L 122.648703 54.788139 
L 124.698879 54.788139 
L 126.749055 64.914094 
L 128.799231 78.155727 
L 130.849408 82.050325 
L 132.899584 101.523314 
L 134.94976 113.207107 
L 136.999936 112.428188 
L 139.050112 113.207107 
L 141.100289 117.101705 
L 143.150465 115.543866 
L 145.200641 111.649268 
L 147.250817 113.207107 
L 149.300993 113.986027 
L 151.35117 113.986027 
L 153.401346 113.986027 
L 155.451522 116.322786 
L 157.501698 117.101705 
" style="fill:none;stroke:#d62728;stroke-linecap:square;stroke-opacity:0.5;"/>
   </g>
   <g id="line2d_32">
    <path clip-path="url(#p287d309a67)" d="M 52.942712 48.556783 
L 54.992888 48.556783 
L 57.043064 48.556783 
L 59.09324 48.556783 
L 61.143417 48.556783 
L 63.193593 48.556783 
L 65.243769 48.556783 
L 67.293945 48.556783 
L 69.344121 49.335702 
L 71.394298 46.998944 
L 73.444474 46.998944 
L 75.49465 46.998944 
L 77.544826 50.893542 
L 79.595002 49.335702 
L 81.645179 50.114622 
L 83.695355 50.114622 
L 85.745531 43.104346 
L 87.795707 46.220024 
L 89.845883 47.777863 
L 91.89606 50.114622 
L 93.946236 49.335702 
L 95.996412 47.777863 
L 98.046588 47.777863 
L 100.096764 45.441105 
L 102.146941 46.220024 
L 104.197117 44.662185 
L 106.247293 46.998944 
L 108.297469 48.556783 
L 110.347646 46.998944 
L 112.397822 47.777863 
L 114.447998 46.998944 
L 116.498174 46.998944 
L 118.54835 47.777863 
L 120.598527 46.998944 
L 122.648703 44.662185 
L 124.698879 35.31515 
L 126.749055 47.777863 
L 128.799231 30.641633 
L 130.849408 12.726483 
L 132.899584 60.240576 
L 134.94976 83.608164 
L 136.999936 80.492485 
L 139.050112 81.271405 
L 141.100289 90.61844 
L 143.150465 98.407636 
L 145.200641 80.492485 
L 147.250817 83.608164 
L 149.300993 85.944922 
L 151.35117 84.387083 
L 153.401346 84.387083 
L 155.451522 92.176279 
L 157.501698 104.638992 
" style="fill:none;stroke:#9467bd;stroke-linecap:square;stroke-opacity:0.5;"/>
   </g>
   <g id="line2d_33">
    <path clip-path="url(#p287d309a67)" d="M 52.942712 48.556783 
L 54.992888 48.556783 
L 57.043064 48.556783 
L 59.09324 48.556783 
L 61.143417 48.556783 
L 63.193593 48.556783 
L 65.243769 48.556783 
L 67.293945 48.556783 
L 69.344121 39.209748 
L 71.394298 43.104346 
L 73.444474 53.2303 
L 75.49465 51.672461 
L 77.544826 53.2303 
L 79.595002 51.672461 
L 81.645179 48.556783 
L 83.695355 37.651909 
L 85.745531 39.209748 
L 87.795707 49.335702 
L 89.845883 50.893542 
L 91.89606 52.451381 
L 93.946236 52.451381 
L 95.996412 48.556783 
L 98.046588 45.441105 
L 100.096764 46.998944 
L 102.146941 51.672461 
L 104.197117 51.672461 
L 106.247293 53.2303 
L 108.297469 53.2303 
L 110.347646 49.335702 
L 112.397822 47.777863 
L 114.447998 50.114622 
L 116.498174 52.451381 
L 118.54835 53.2303 
L 120.598527 52.451381 
L 122.648703 54.00922 
L 124.698879 54.788139 
L 126.749055 61.019496 
L 128.799231 64.914094 
L 130.849408 78.934646 
L 132.899584 96.070877 
L 134.94976 107.75467 
L 136.999936 109.31251 
L 139.050112 110.870349 
L 141.100289 112.428188 
L 143.150465 113.986027 
L 145.200641 112.428188 
L 147.250817 112.428188 
L 149.300993 113.207107 
L 151.35117 113.207107 
L 153.401346 113.986027 
L 155.451522 113.207107 
L 157.501698 116.322786 
" style="fill:none;stroke:#e377c2;stroke-linecap:square;stroke-opacity:0.5;"/>
   </g>
   <g id="line2d_34">
    <path clip-path="url(#p287d309a67)" d="M 52.942712 48.556783 
L 54.992888 48.556783 
L 57.043064 48.556783 
L 59.09324 48.556783 
L 61.143417 48.556783 
L 63.193593 48.556783 
L 65.243769 48.556783 
L 67.293945 48.556783 
L 69.344121 50.114622 
L 71.394298 49.335702 
L 73.444474 60.240576 
L 75.49465 59.461657 
L 77.544826 57.903818 
L 79.595002 60.240576 
L 81.645179 60.240576 
L 83.695355 52.451381 
L 85.745531 49.335702 
L 87.795707 60.240576 
L 89.845883 59.461657 
L 91.89606 57.903818 
L 93.946236 60.240576 
L 95.996412 60.240576 
L 98.046588 52.451381 
L 100.096764 47.777863 
L 102.146941 52.451381 
L 104.197117 51.672461 
L 106.247293 50.893542 
L 108.297469 52.451381 
L 110.347646 51.672461 
L 112.397822 48.556783 
L 114.447998 49.335702 
L 116.498174 49.335702 
L 118.54835 49.335702 
L 120.598527 48.556783 
L 122.648703 49.335702 
L 124.698879 50.114622 
L 126.749055 52.451381 
L 128.799231 55.567059 
L 130.849408 76.597888 
L 132.899584 91.397359 
L 134.94976 100.744394 
L 136.999936 103.860073 
L 139.050112 103.860073 
L 141.100289 93.734118 
L 143.150465 91.397359 
L 145.200641 105.417912 
L 147.250817 106.196831 
L 149.300993 105.417912 
L 151.35117 106.196831 
L 153.401346 105.417912 
L 155.451522 94.513038 
L 157.501698 92.176279 
" style="fill:none;stroke:#bcbd22;stroke-linecap:square;stroke-opacity:0.5;"/>
   </g>
   <g id="line2d_35">
    <path clip-path="url(#p287d309a67)" d="M 52.942712 48.556783 
L 54.992888 48.556783 
L 57.043064 48.556783 
L 59.09324 48.556783 
L 61.143417 48.556783 
L 63.193593 48.556783 
L 65.243769 48.556783 
L 67.293945 48.556783 
L 69.344121 49.335702 
L 71.394298 49.335702 
L 73.444474 45.441105 
L 75.49465 46.220024 
L 77.544826 46.998944 
L 79.595002 46.220024 
L 81.645179 46.220024 
L 83.695355 49.335702 
L 85.745531 49.335702 
L 87.795707 46.220024 
L 89.845883 45.441105 
L 91.89606 46.220024 
L 93.946236 45.441105 
L 95.996412 45.441105 
L 98.046588 47.777863 
L 100.096764 48.556783 
L 102.146941 46.220024 
L 104.197117 46.998944 
L 106.247293 46.998944 
L 108.297469 46.220024 
L 110.347646 46.220024 
L 112.397822 47.777863 
L 114.447998 47.777863 
L 116.498174 46.998944 
L 118.54835 46.998944 
L 120.598527 47.777863 
L 122.648703 47.777863 
L 124.698879 46.220024 
L 126.749055 44.662185 
L 128.799231 46.220024 
L 130.849408 38.430828 
L 132.899584 29.862713 
L 134.94976 25.968115 
L 136.999936 23.631357 
L 139.050112 20.515678 
L 141.100289 29.862713 
L 143.150465 34.536231 
L 145.200641 23.631357 
L 147.250817 22.073517 
L 149.300993 23.631357 
L 151.35117 22.073517 
L 153.401346 19.736759 
L 155.451522 29.083794 
L 157.501698 34.536231 
" style="fill:none;stroke:#17becf;stroke-linecap:square;stroke-opacity:0.5;"/>
   </g>
   <g id="patch_80">
    <path d="M 44.66 126.44874 
L 44.66 17.4 
" style="fill:none;stroke:#000000;stroke-linecap:square;stroke-linejoin:miter;stroke-width:0.8;"/>
   </g>
   <g id="patch_81">
    <path d="M 208.83811 126.44874 
L 208.83811 17.4 
" style="fill:none;stroke:#000000;stroke-linecap:square;stroke-linejoin:miter;stroke-width:0.8;"/>
   </g>
   <g id="patch_82">
    <path d="M 44.66 126.44874 
L 208.83811 126.44874 
" style="fill:none;stroke:#000000;stroke-linecap:square;stroke-linejoin:miter;stroke-width:0.8;"/>
   </g>
   <g id="patch_83">
    <path d="M 44.66 17.4 
L 208.83811 17.4 
" style="fill:none;stroke:#000000;stroke-linecap:square;stroke-linejoin:miter;stroke-width:0.8;"/>
   </g>
  </g>
 </g>
 <defs>
  <clipPath id="p287d309a67">
   <rect height="109.04874" width="164.17811" x="44.66" y="17.4"/>
  </clipPath>
 </defs>
</svg>
