<?xml version="1.0" encoding="utf-8" standalone="no"?>
<!DOCTYPE svg PUBLIC "-//W3C//DTD SVG 1.1//EN"
  "http://www.w3.org/Graphics/SVG/1.1/DTD/svg11.dtd">
<!-- Created with matplotlib (https://matplotlib.org/) -->
<svg height="170.07874pt" version="1.1" viewBox="0 0 255.11811 170.07874" width="255.11811pt" xmlns="http://www.w3.org/2000/svg" xmlns:xlink="http://www.w3.org/1999/xlink">
 <defs>
  <style type="text/css">
*{stroke-linecap:butt;stroke-linejoin:round;}
  </style>
 </defs>
 <g id="figure_1">
  <g id="patch_1">
   <path d="M 0 170.07874 
L 255.11811 170.07874 
L 255.11811 0 
L 0 0 
z
" style="fill:#ffffff;"/>
  </g>
  <g id="axes_1">
   <g id="patch_2">
    <path d="M 57.17 126.44874 
L 208.83811 126.44874 
L 208.83811 11.52 
L 57.17 11.52 
z
" style="fill:#ffffff;"/>
   </g>
   <g id="PolyCollection_1">
    <defs>
     <path d="M 64.821588 -43.656923 
L 64.821588 -43.634238 
L 66.715545 -43.634238 
L 68.609503 -43.634238 
L 70.50346 -43.634238 
L 72.397418 -43.634238 
L 74.291375 -43.634238 
L 76.185333 -43.638586 
L 78.07929 -43.640448 
L 79.973247 -43.642876 
L 81.867205 -43.647589 
L 83.761162 -43.651178 
L 85.65512 -43.657433 
L 87.549077 -43.660219 
L 89.443034 -43.670144 
L 91.336992 -43.678821 
L 93.230949 -43.692864 
L 95.124907 -43.732815 
L 97.018864 -43.741163 
L 98.912822 -43.764508 
L 100.806779 -43.783872 
L 102.700736 -43.829257 
L 104.594694 -43.896985 
L 106.488651 -43.967153 
L 108.382609 -44.103207 
L 110.276566 -44.188928 
L 112.170523 -44.398173 
L 114.064481 -44.488026 
L 115.958438 -44.613696 
L 117.852396 -44.965828 
L 119.746353 -45.185929 
L 121.640311 -45.606937 
L 123.534268 -46.005135 
L 125.428225 -46.364035 
L 127.322183 -47.082268 
L 129.21614 -48.384413 
L 131.110098 -52.914925 
L 133.004055 -49.515987 
L 134.898013 -60.479995 
L 136.79197 -74.169377 
L 138.685927 -50.071281 
L 140.579885 -46.080526 
L 142.473842 -47.298563 
L 144.3678 -47.366338 
L 146.261757 -45.831556 
L 148.155714 -44.928583 
L 150.049672 -46.87074 
L 151.943629 -45.936302 
L 153.837587 -45.358324 
L 155.731544 -45.225735 
L 157.625502 -44.962313 
L 159.519459 -44.361787 
L 161.413416 -43.919105 
L 161.413416 -58.398864 
L 161.413416 -58.398864 
L 159.519459 -62.153474 
L 157.625502 -64.840761 
L 155.731544 -64.621699 
L 153.837587 -63.495873 
L 151.943629 -64.316132 
L 150.049672 -66.003287 
L 148.155714 -58.063983 
L 146.261757 -60.565231 
L 144.3678 -62.593897 
L 142.473842 -60.945701 
L 140.579885 -56.879693 
L 138.685927 -61.946938 
L 136.79197 -158.55874 
L 134.898013 -76.044059 
L 133.004055 -56.155881 
L 131.110098 -59.1739 
L 129.21614 -52.33458 
L 127.322183 -50.140834 
L 125.428225 -48.678413 
L 123.534268 -47.711511 
L 121.640311 -46.942599 
L 119.746353 -46.236049 
L 117.852396 -45.776912 
L 115.958438 -45.270254 
L 114.064481 -45.024654 
L 112.170523 -44.878525 
L 110.276566 -44.583611 
L 108.382609 -44.460355 
L 106.488651 -44.256975 
L 104.594694 -44.146505 
L 102.700736 -44.035858 
L 100.806779 -43.958101 
L 98.912822 -43.928035 
L 97.018864 -43.893532 
L 95.124907 -43.898267 
L 93.230949 -43.79235 
L 91.336992 -43.764786 
L 89.443034 -43.748809 
L 87.549077 -43.722831 
L 85.65512 -43.724239 
L 83.761162 -43.708768 
L 81.867205 -43.699335 
L 79.973247 -43.682025 
L 78.07929 -43.675596 
L 76.185333 -43.668128 
L 74.291375 -43.656923 
L 72.397418 -43.656923 
L 70.50346 -43.656923 
L 68.609503 -43.656923 
L 66.715545 -43.656923 
L 64.821588 -43.656923 
z
" id="m8830f88cd5" style="stroke:#6495ed;stroke-opacity:0.4;"/>
    </defs>
    <g clip-path="url(#p80dabdae2f)">
     <use style="fill:#6495ed;fill-opacity:0.4;stroke:#6495ed;stroke-opacity:0.4;" x="0" xlink:href="#m8830f88cd5" y="170.07874"/>
    </g>
   </g>
   <g id="PolyCollection_2">
    <defs>
     <path d="M 64.821588 -43.645871 
L 64.821588 -43.638612 
L 66.715545 -43.638612 
L 68.609503 -43.638612 
L 70.50346 -43.638612 
L 72.397418 -43.638612 
L 74.291375 -43.638612 
L 76.185333 -43.645154 
L 78.07929 -43.648296 
L 79.973247 -43.651703 
L 81.867205 -43.659441 
L 83.761162 -43.664787 
L 85.65512 -43.673518 
L 87.549077 -43.675563 
L 89.443034 -43.689837 
L 91.336992 -43.70068 
L 93.230949 -43.717992 
L 95.124907 -43.776699 
L 97.018864 -43.781862 
L 98.912822 -43.808898 
L 100.806779 -43.831159 
L 102.700736 -43.885454 
L 104.594694 -43.966303 
L 106.488651 -44.044298 
L 108.382609 -44.200871 
L 110.276566 -44.297462 
L 112.170523 -44.529794 
L 114.064481 -44.6344 
L 115.958438 -44.790736 
L 117.852396 -45.188048 
L 119.746353 -45.479105 
L 121.640311 -45.978368 
L 123.534268 -46.467574 
L 125.428225 -46.966818 
L 127.322183 -47.876638 
L 129.21614 -49.407845 
L 131.110098 -54.528792 
L 133.004055 -51.207875 
L 134.898013 -64.750152 
L 136.79197 -95.427083 
L 138.685927 -52.945445 
L 140.579885 -48.004393 
L 142.473842 -50.002901 
L 144.3678 -50.227841 
L 146.261757 -47.89275 
L 148.155714 -46.402749 
L 150.049672 -49.69841 
L 151.943629 -48.21375 
L 153.837587 -47.253921 
L 155.731544 -47.074721 
L 157.625502 -46.641633 
L 159.519459 -45.499121 
L 161.413416 -44.496107 
L 161.413416 -47.109912 
L 161.413416 -47.109912 
L 159.519459 -49.391371 
L 157.625502 -51.454946 
L 155.731544 -51.957459 
L 153.837587 -51.963742 
L 151.943629 -53.286658 
L 150.049672 -55.268677 
L 148.155714 -50.069828 
L 146.261757 -52.17506 
L 144.3678 -55.15487 
L 142.473842 -54.522541 
L 140.579885 -51.443294 
L 138.685927 -57.001261 
L 136.79197 -123.91484 
L 134.898013 -69.846817 
L 133.004055 -53.478291 
L 131.110098 -56.628494 
L 129.21614 -50.769457 
L 127.322183 -48.913144 
L 125.428225 -47.762362 
L 123.534268 -47.059572 
L 121.640311 -46.431858 
L 119.746353 -45.832255 
L 117.852396 -45.46425 
L 115.958438 -45.011145 
L 114.064481 -44.81645 
L 112.170523 -44.687526 
L 110.276566 -44.424429 
L 108.382609 -44.32074 
L 106.488651 -44.139346 
L 104.594694 -44.048494 
L 102.700736 -43.95421 
L 100.806779 -43.889293 
L 98.912822 -43.864433 
L 97.018864 -43.834223 
L 95.124907 -43.833111 
L 93.230949 -43.752138 
L 91.336992 -43.730249 
L 89.443034 -43.716814 
L 87.549077 -43.697093 
L 85.65512 -43.696318 
L 83.761162 -43.684105 
L 81.867205 -43.676961 
L 79.973247 -43.665025 
L 78.07929 -43.660056 
L 76.185333 -43.655042 
L 74.291375 -43.645871 
L 72.397418 -43.645871 
L 70.50346 -43.645871 
L 68.609503 -43.645871 
L 66.715545 -43.645871 
L 64.821588 -43.645871 
z
" id="m5c56451336" style="stroke:#6495ed;stroke-opacity:0.6;"/>
    </defs>
    <g clip-path="url(#p80dabdae2f)">
     <use style="fill:#6495ed;fill-opacity:0.6;stroke:#6495ed;stroke-opacity:0.6;" x="0" xlink:href="#m5c56451336" y="170.07874"/>
    </g>
   </g>
   <g id="PolyCollection_3">
    <defs>
     <path d="M 161.413416 -58.398864 
L 161.413416 -43.919105 
L 163.307374 -43.868762 
L 165.201331 -43.824842 
L 167.095289 -43.787028 
L 168.989246 -43.755942 
L 170.883204 -43.7302 
L 172.777161 -43.70871 
L 174.671118 -43.69153 
L 176.565076 -43.678014 
L 178.459033 -43.667284 
L 180.352991 -43.658809 
L 182.246948 -43.652153 
L 184.140905 -43.64713 
L 186.034863 -43.643282 
L 187.92882 -43.640201 
L 189.822778 -43.637857 
L 191.716735 -43.636059 
L 193.610693 -43.634678 
L 195.50465 -43.633595 
L 197.398607 -43.632759 
L 199.292565 -43.632121 
L 201.186522 -43.631637 
L 201.186522 -52.120924 
L 201.186522 -52.120924 
L 199.292565 -52.39394 
L 197.398607 -52.675736 
L 195.50465 -52.96048 
L 193.610693 -53.206612 
L 191.716735 -53.472402 
L 189.822778 -53.751865 
L 187.92882 -54.026062 
L 186.034863 -54.275793 
L 184.140905 -54.531623 
L 182.246948 -54.730456 
L 180.352991 -55.055264 
L 178.459033 -55.480544 
L 176.565076 -55.963325 
L 174.671118 -56.387281 
L 172.777161 -56.832516 
L 170.883204 -57.403554 
L 168.989246 -57.7672 
L 167.095289 -58.157551 
L 165.201331 -58.422734 
L 163.307374 -58.547513 
L 161.413416 -58.398864 
z
" id="md25cb0b738" style="stroke:#228b22;stroke-opacity:0.4;"/>
    </defs>
    <g clip-path="url(#p80dabdae2f)">
     <use style="fill:#228b22;fill-opacity:0.4;stroke:#228b22;stroke-opacity:0.4;" x="0" xlink:href="#md25cb0b738" y="170.07874"/>
    </g>
   </g>
   <g id="PolyCollection_4">
    <defs>
     <path d="M 161.413416 -47.109912 
L 161.413416 -44.496107 
L 163.307374 -44.382315 
L 165.201331 -44.274442 
L 167.095289 -44.172304 
L 168.989246 -44.082713 
L 170.883204 -44.005968 
L 172.777161 -43.939333 
L 174.671118 -43.8834 
L 176.565076 -43.836476 
L 178.459033 -43.798459 
L 180.352991 -43.766554 
L 182.246948 -43.740541 
L 184.140905 -43.719403 
L 186.034863 -43.702266 
L 187.92882 -43.688506 
L 189.822778 -43.677319 
L 191.716735 -43.668329 
L 193.610693 -43.660942 
L 195.50465 -43.655062 
L 197.398607 -43.650291 
L 199.292565 -43.646402 
L 201.186522 -43.643281 
L 201.186522 -43.898259 
L 201.186522 -43.898259 
L 199.292565 -43.935274 
L 197.398607 -43.978328 
L 195.50465 -44.026767 
L 193.610693 -44.082192 
L 191.716735 -44.144518 
L 189.822778 -44.216953 
L 187.92882 -44.295925 
L 186.034863 -44.38768 
L 184.140905 -44.496859 
L 182.246948 -44.61572 
L 180.352991 -44.752745 
L 178.459033 -44.907009 
L 176.565076 -45.083947 
L 174.671118 -45.285288 
L 172.777161 -45.518417 
L 170.883204 -45.770685 
L 168.989246 -46.041209 
L 167.095289 -46.324635 
L 165.201331 -46.609011 
L 163.307374 -46.882406 
L 161.413416 -47.109912 
z
" id="m930627480a" style="stroke:#228b22;stroke-opacity:0.6;"/>
    </defs>
    <g clip-path="url(#p80dabdae2f)">
     <use style="fill:#228b22;fill-opacity:0.6;stroke:#228b22;stroke-opacity:0.6;" x="0" xlink:href="#m930627480a" y="170.07874"/>
    </g>
   </g>
   <g id="PathCollection_1">
    <defs>
     <path d="M -0.866025 1.732051 
L 0 0.866025 
L 0.866025 1.732051 
L 1.732051 0.866025 
L 0.866025 0 
L 1.732051 -0.866025 
L 0.866025 -1.732051 
L 0 -0.866025 
L -0.866025 -1.732051 
L -1.732051 -0.866025 
L -0.866025 0 
L -1.732051 0.866025 
z
" id="m3314dcc9cd" style="stroke:#8a2be2;"/>
    </defs>
    <g clip-path="url(#p80dabdae2f)">
     <use style="fill:#8a2be2;stroke:#8a2be2;" x="131.110098" xlink:href="#m3314dcc9cd" y="23.012874"/>
    </g>
   </g>
   <g id="PathCollection_2">
    <defs>
     <path d="M 0 -1.732051 
L -0.38887 -0.535233 
L -1.647278 -0.535233 
L -0.629204 0.204441 
L -1.018074 1.401259 
L -0 0.661585 
L 1.018074 1.401259 
L 0.629204 0.204441 
L 1.647278 -0.535233 
L 0.38887 -0.535233 
z
" id="ma25329ac6d" style="stroke:#000000;"/>
    </defs>
    <g clip-path="url(#p80dabdae2f)">
     <use style="stroke:#000000;" x="133.004055" xlink:href="#ma25329ac6d" y="23.012874"/>
    </g>
   </g>
   <g id="PathCollection_3">
    <defs>
     <path d="M -1.732051 1.732051 
L 1.732051 1.732051 
L 1.732051 -1.732051 
L -1.732051 -1.732051 
z
" id="me1583ae59f" style="stroke:#c71585;"/>
    </defs>
    <g clip-path="url(#p80dabdae2f)">
     <use style="fill:#c71585;stroke:#c71585;" x="138.685927" xlink:href="#me1583ae59f" y="23.012874"/>
    </g>
   </g>
   <g id="PathCollection_4">
    <defs>
     <path d="M 0 -1.732051 
L -1.647278 -0.535233 
L -1.018074 1.401259 
L 1.018074 1.401259 
L 1.647278 -0.535233 
z
" id="m43f3c34add" style="stroke:#800000;"/>
    </defs>
    <g clip-path="url(#p80dabdae2f)">
     <use style="fill:#800000;stroke:#800000;" x="136.79197" xlink:href="#m43f3c34add" y="23.012874"/>
    </g>
   </g>
   <g id="PathCollection_5">
    <defs>
     <path d="M -0 2.44949 
L 1.469694 0 
L 0 -2.44949 
L -1.469694 -0 
z
" id="mde25e59cac" style="stroke:#556b2f;"/>
    </defs>
    <g clip-path="url(#p80dabdae2f)">
     <use style="fill:#556b2f;stroke:#556b2f;" x="136.79197" xlink:href="#mde25e59cac" y="28.184667"/>
    </g>
   </g>
   <g id="patch_3">
    <path clip-path="url(#p80dabdae2f)" d="M 64.064005 126.44874 
L 65.579171 126.44874 
L 65.579171 126.44874 
L 64.064005 126.44874 
z
" style="fill:#1f77b4;opacity:0.5;"/>
   </g>
   <g id="patch_4">
    <path clip-path="url(#p80dabdae2f)" d="M 65.957962 126.44874 
L 67.473128 126.44874 
L 67.473128 126.44673 
L 65.957962 126.44673 
z
" style="fill:#1f77b4;opacity:0.5;"/>
   </g>
   <g id="patch_5">
    <path clip-path="url(#p80dabdae2f)" d="M 67.85192 126.44874 
L 69.367086 126.44874 
L 69.367086 126.44874 
L 67.85192 126.44874 
z
" style="fill:#1f77b4;opacity:0.5;"/>
   </g>
   <g id="patch_6">
    <path clip-path="url(#p80dabdae2f)" d="M 69.745877 126.44874 
L 71.261043 126.44874 
L 71.261043 126.44874 
L 69.745877 126.44874 
z
" style="fill:#1f77b4;opacity:0.5;"/>
   </g>
   <g id="patch_7">
    <path clip-path="url(#p80dabdae2f)" d="M 71.639835 126.44874 
L 73.155001 126.44874 
L 73.155001 126.44874 
L 71.639835 126.44874 
z
" style="fill:#1f77b4;opacity:0.5;"/>
   </g>
   <g id="patch_8">
    <path clip-path="url(#p80dabdae2f)" d="M 73.533792 126.44874 
L 75.048958 126.44874 
L 75.048958 126.44874 
L 73.533792 126.44874 
z
" style="fill:#1f77b4;opacity:0.5;"/>
   </g>
   <g id="patch_9">
    <path clip-path="url(#p80dabdae2f)" d="M 75.42775 126.44874 
L 76.942915 126.44874 
L 76.942915 126.44874 
L 75.42775 126.44874 
z
" style="fill:#1f77b4;opacity:0.5;"/>
   </g>
   <g id="patch_10">
    <path clip-path="url(#p80dabdae2f)" d="M 77.321707 126.44874 
L 78.836873 126.44874 
L 78.836873 126.44874 
L 77.321707 126.44874 
z
" style="fill:#1f77b4;opacity:0.5;"/>
   </g>
   <g id="patch_11">
    <path clip-path="url(#p80dabdae2f)" d="M 79.215664 126.44874 
L 80.73083 126.44874 
L 80.73083 126.44874 
L 79.215664 126.44874 
z
" style="fill:#1f77b4;opacity:0.5;"/>
   </g>
   <g id="patch_12">
    <path clip-path="url(#p80dabdae2f)" d="M 81.109622 126.44874 
L 82.624788 126.44874 
L 82.624788 126.44874 
L 81.109622 126.44874 
z
" style="fill:#1f77b4;opacity:0.5;"/>
   </g>
   <g id="patch_13">
    <path clip-path="url(#p80dabdae2f)" d="M 83.003579 126.44874 
L 84.518745 126.44874 
L 84.518745 126.448338 
L 83.003579 126.448338 
z
" style="fill:#1f77b4;opacity:0.5;"/>
   </g>
   <g id="patch_14">
    <path clip-path="url(#p80dabdae2f)" d="M 84.897537 126.44874 
L 86.412703 126.44874 
L 86.412703 126.44874 
L 84.897537 126.44874 
z
" style="fill:#1f77b4;opacity:0.5;"/>
   </g>
   <g id="patch_15">
    <path clip-path="url(#p80dabdae2f)" d="M 86.791494 126.44874 
L 88.30666 126.44874 
L 88.30666 126.44874 
L 86.791494 126.44874 
z
" style="fill:#1f77b4;opacity:0.5;"/>
   </g>
   <g id="patch_16">
    <path clip-path="url(#p80dabdae2f)" d="M 88.685451 126.44874 
L 90.200617 126.44874 
L 90.200617 126.44874 
L 88.685451 126.44874 
z
" style="fill:#1f77b4;opacity:0.5;"/>
   </g>
   <g id="patch_17">
    <path clip-path="url(#p80dabdae2f)" d="M 90.579409 126.44874 
L 92.094575 126.44874 
L 92.094575 126.44874 
L 90.579409 126.44874 
z
" style="fill:#1f77b4;opacity:0.5;"/>
   </g>
   <g id="patch_18">
    <path clip-path="url(#p80dabdae2f)" d="M 92.473366 126.44874 
L 93.988532 126.44874 
L 93.988532 126.44874 
L 92.473366 126.44874 
z
" style="fill:#1f77b4;opacity:0.5;"/>
   </g>
   <g id="patch_19">
    <path clip-path="url(#p80dabdae2f)" d="M 94.367324 126.44874 
L 95.88249 126.44874 
L 95.88249 126.44874 
L 94.367324 126.44874 
z
" style="fill:#1f77b4;opacity:0.5;"/>
   </g>
   <g id="patch_20">
    <path clip-path="url(#p80dabdae2f)" d="M 96.261281 126.44874 
L 97.776447 126.44874 
L 97.776447 126.44874 
L 96.261281 126.44874 
z
" style="fill:#1f77b4;opacity:0.5;"/>
   </g>
   <g id="patch_21">
    <path clip-path="url(#p80dabdae2f)" d="M 98.155239 126.44874 
L 99.670405 126.44874 
L 99.670405 126.44874 
L 98.155239 126.44874 
z
" style="fill:#1f77b4;opacity:0.5;"/>
   </g>
   <g id="patch_22">
    <path clip-path="url(#p80dabdae2f)" d="M 100.049196 126.44874 
L 101.564362 126.44874 
L 101.564362 126.447936 
L 100.049196 126.447936 
z
" style="fill:#1f77b4;opacity:0.5;"/>
   </g>
   <g id="patch_23">
    <path clip-path="url(#p80dabdae2f)" d="M 101.943153 126.44874 
L 103.458319 126.44874 
L 103.458319 126.447534 
L 101.943153 126.447534 
z
" style="fill:#1f77b4;opacity:0.5;"/>
   </g>
   <g id="patch_24">
    <path clip-path="url(#p80dabdae2f)" d="M 103.837111 126.44874 
L 105.352277 126.44874 
L 105.352277 126.440297 
L 103.837111 126.440297 
z
" style="fill:#1f77b4;opacity:0.5;"/>
   </g>
   <g id="patch_25">
    <path clip-path="url(#p80dabdae2f)" d="M 105.731068 126.44874 
L 107.246234 126.44874 
L 107.246234 126.441102 
L 105.731068 126.441102 
z
" style="fill:#1f77b4;opacity:0.5;"/>
   </g>
   <g id="patch_26">
    <path clip-path="url(#p80dabdae2f)" d="M 107.625026 126.44874 
L 109.140192 126.44874 
L 109.140192 126.431453 
L 107.625026 126.431453 
z
" style="fill:#1f77b4;opacity:0.5;"/>
   </g>
   <g id="patch_27">
    <path clip-path="url(#p80dabdae2f)" d="M 109.518983 126.44874 
L 111.034149 126.44874 
L 111.034149 126.436679 
L 109.518983 126.436679 
z
" style="fill:#1f77b4;opacity:0.5;"/>
   </g>
   <g id="patch_28">
    <path clip-path="url(#p80dabdae2f)" d="M 111.412941 126.44874 
L 112.928106 126.44874 
L 112.928106 126.429443 
L 111.412941 126.429443 
z
" style="fill:#1f77b4;opacity:0.5;"/>
   </g>
   <g id="patch_29">
    <path clip-path="url(#p80dabdae2f)" d="M 113.306898 126.44874 
L 114.822064 126.44874 
L 114.822064 126.435071 
L 113.306898 126.435071 
z
" style="fill:#1f77b4;opacity:0.5;"/>
   </g>
   <g id="patch_30">
    <path clip-path="url(#p80dabdae2f)" d="M 115.200855 126.44874 
L 116.716021 126.44874 
L 116.716021 126.419392 
L 115.200855 126.419392 
z
" style="fill:#1f77b4;opacity:0.5;"/>
   </g>
   <g id="patch_31">
    <path clip-path="url(#p80dabdae2f)" d="M 117.094813 126.44874 
L 118.609979 126.44874 
L 118.609979 126.39326 
L 117.094813 126.39326 
z
" style="fill:#1f77b4;opacity:0.5;"/>
   </g>
   <g id="patch_32">
    <path clip-path="url(#p80dabdae2f)" d="M 118.98877 126.44874 
L 120.503936 126.44874 
L 120.503936 126.372354 
L 118.98877 126.372354 
z
" style="fill:#1f77b4;opacity:0.5;"/>
   </g>
   <g id="patch_33">
    <path clip-path="url(#p80dabdae2f)" d="M 120.882728 126.44874 
L 122.397894 126.44874 
L 122.397894 126.407331 
L 120.882728 126.407331 
z
" style="fill:#1f77b4;opacity:0.5;"/>
   </g>
   <g id="patch_34">
    <path clip-path="url(#p80dabdae2f)" d="M 122.776685 126.44874 
L 124.291851 126.44874 
L 124.291851 126.283907 
L 122.776685 126.283907 
z
" style="fill:#1f77b4;opacity:0.5;"/>
   </g>
   <g id="patch_35">
    <path clip-path="url(#p80dabdae2f)" d="M 124.670642 126.44874 
L 126.185808 126.44874 
L 126.185808 126.333759 
L 124.670642 126.333759 
z
" style="fill:#1f77b4;opacity:0.5;"/>
   </g>
   <g id="patch_36">
    <path clip-path="url(#p80dabdae2f)" d="M 126.5646 126.44874 
L 128.079766 126.44874 
L 128.079766 126.299184 
L 126.5646 126.299184 
z
" style="fill:#1f77b4;opacity:0.5;"/>
   </g>
   <g id="patch_37">
    <path clip-path="url(#p80dabdae2f)" d="M 128.458557 126.44874 
L 129.973723 126.44874 
L 129.973723 126.24893 
L 128.458557 126.24893 
z
" style="fill:#1f77b4;opacity:0.5;"/>
   </g>
   <g id="patch_38">
    <path clip-path="url(#p80dabdae2f)" d="M 130.352515 126.44874 
L 131.867681 126.44874 
L 131.867681 126.20953 
L 130.352515 126.20953 
z
" style="fill:#1f77b4;opacity:0.5;"/>
   </g>
   <g id="patch_39">
    <path clip-path="url(#p80dabdae2f)" d="M 132.246472 126.44874 
L 133.761638 126.44874 
L 133.761638 126.133144 
L 132.246472 126.133144 
z
" style="fill:#1f77b4;opacity:0.5;"/>
   </g>
   <g id="patch_40">
    <path clip-path="url(#p80dabdae2f)" d="M 134.14043 126.44874 
L 135.655596 126.44874 
L 135.655596 126.111836 
L 134.14043 126.111836 
z
" style="fill:#1f77b4;opacity:0.5;"/>
   </g>
   <g id="patch_41">
    <path clip-path="url(#p80dabdae2f)" d="M 136.034387 126.44874 
L 137.549553 126.44874 
L 137.549553 126.077262 
L 136.034387 126.077262 
z
" style="fill:#1f77b4;opacity:0.5;"/>
   </g>
   <g id="patch_42">
    <path clip-path="url(#p80dabdae2f)" d="M 137.928344 126.44874 
L 139.44351 126.44874 
L 139.44351 125.96228 
L 137.928344 125.96228 
z
" style="fill:#1f77b4;opacity:0.5;"/>
   </g>
   <g id="patch_43">
    <path clip-path="url(#p80dabdae2f)" d="M 139.822302 126.44874 
L 141.337468 126.44874 
L 141.337468 126.00771 
L 139.822302 126.00771 
z
" style="fill:#1f77b4;opacity:0.5;"/>
   </g>
   <g id="patch_44">
    <path clip-path="url(#p80dabdae2f)" d="M 141.716259 126.44874 
L 143.231425 126.44874 
L 143.231425 125.884286 
L 141.716259 125.884286 
z
" style="fill:#1f77b4;opacity:0.5;"/>
   </g>
   <g id="patch_45">
    <path clip-path="url(#p80dabdae2f)" d="M 143.610217 126.44874 
L 145.125383 126.44874 
L 145.125383 125.700557 
L 143.610217 125.700557 
z
" style="fill:#1f77b4;opacity:0.5;"/>
   </g>
   <g id="patch_46">
    <path clip-path="url(#p80dabdae2f)" d="M 145.504174 126.44874 
L 147.01934 126.44874 
L 147.01934 125.798653 
L 145.504174 125.798653 
z
" style="fill:#1f77b4;opacity:0.5;"/>
   </g>
   <g id="patch_47">
    <path clip-path="url(#p80dabdae2f)" d="M 147.398132 126.44874 
L 148.913297 126.44874 
L 148.913297 125.706185 
L 147.398132 125.706185 
z
" style="fill:#1f77b4;opacity:0.5;"/>
   </g>
   <g id="patch_48">
    <path clip-path="url(#p80dabdae2f)" d="M 149.292089 126.44874 
L 150.807255 126.44874 
L 150.807255 125.821971 
L 149.292089 125.821971 
z
" style="fill:#1f77b4;opacity:0.5;"/>
   </g>
   <g id="patch_49">
    <path clip-path="url(#p80dabdae2f)" d="M 151.186046 126.44874 
L 152.701212 126.44874 
L 152.701212 124.905737 
L 151.186046 124.905737 
z
" style="fill:#1f77b4;opacity:0.5;"/>
   </g>
   <g id="patch_50">
    <path clip-path="url(#p80dabdae2f)" d="M 153.080004 126.44874 
L 154.59517 126.44874 
L 154.59517 125.465367 
L 153.080004 125.465367 
z
" style="fill:#1f77b4;opacity:0.5;"/>
   </g>
   <g id="patch_51">
    <path clip-path="url(#p80dabdae2f)" d="M 154.973961 126.44874 
L 156.489127 126.44874 
L 156.489127 125.270381 
L 154.973961 125.270381 
z
" style="fill:#1f77b4;opacity:0.5;"/>
   </g>
   <g id="patch_52">
    <path clip-path="url(#p80dabdae2f)" d="M 156.867919 126.44874 
L 158.383085 126.44874 
L 158.383085 124.871966 
L 156.867919 124.871966 
z
" style="fill:#1f77b4;opacity:0.5;"/>
   </g>
   <g id="patch_53">
    <path clip-path="url(#p80dabdae2f)" d="M 158.761876 126.44874 
L 160.277042 126.44874 
L 160.277042 124.917396 
L 158.761876 124.917396 
z
" style="fill:#1f77b4;opacity:0.5;"/>
   </g>
   <g id="patch_54">
    <path clip-path="url(#p80dabdae2f)" d="M 160.655833 126.44874 
L 162.170999 126.44874 
L 162.170999 124.594966 
L 160.655833 124.594966 
z
" style="fill:#1f77b4;opacity:0.5;"/>
   </g>
   <g id="patch_55">
    <path clip-path="url(#p80dabdae2f)" d="M 162.549791 126.44874 
L 164.064957 126.44874 
L 164.064957 125.403856 
L 162.549791 125.403856 
z
" style="fill:#1f77b4;opacity:0.5;"/>
   </g>
   <g id="patch_56">
    <path clip-path="url(#p80dabdae2f)" d="M 164.443748 126.44874 
L 165.958914 126.44874 
L 165.958914 124.689443 
L 164.443748 124.689443 
z
" style="fill:#1f77b4;opacity:0.5;"/>
   </g>
   <g id="patch_57">
    <path clip-path="url(#p80dabdae2f)" d="M 166.337706 126.44874 
L 167.852872 126.44874 
L 167.852872 123.402133 
L 166.337706 123.402133 
z
" style="fill:#1f77b4;opacity:0.5;"/>
   </g>
   <g id="patch_58">
    <path clip-path="url(#p80dabdae2f)" d="M 168.231663 126.44874 
L 169.746829 126.44874 
L 169.746829 124.494457 
L 168.231663 124.494457 
z
" style="fill:#1f77b4;opacity:0.5;"/>
   </g>
   <g id="patch_59">
    <path clip-path="url(#p80dabdae2f)" d="M 170.125621 126.44874 
L 171.640786 126.44874 
L 171.640786 125.598038 
L 170.125621 125.598038 
z
" style="fill:#1f77b4;opacity:0.5;"/>
   </g>
   <g id="patch_60">
    <path clip-path="url(#p80dabdae2f)" d="M 172.019578 126.44874 
L 173.534744 126.44874 
L 173.534744 124.344901 
L 172.019578 124.344901 
z
" style="fill:#1f77b4;opacity:0.5;"/>
   </g>
   <g id="patch_61">
    <path clip-path="url(#p80dabdae2f)" d="M 173.913535 126.44874 
L 175.428701 126.44874 
L 175.428701 124.733265 
L 173.913535 124.733265 
z
" style="fill:#1f77b4;opacity:0.5;"/>
   </g>
   <g id="patch_62">
    <path clip-path="url(#p80dabdae2f)" d="M 175.807493 126.44874 
L 177.322659 126.44874 
L 177.322659 125.695732 
L 175.807493 125.695732 
z
" style="fill:#1f77b4;opacity:0.5;"/>
   </g>
   <g id="patch_63">
    <path clip-path="url(#p80dabdae2f)" d="M 177.70145 126.44874 
L 179.216616 126.44874 
L 179.216616 124.875987 
L 177.70145 124.875987 
z
" style="fill:#1f77b4;opacity:0.5;"/>
   </g>
   <g id="patch_64">
    <path clip-path="url(#p80dabdae2f)" d="M 179.595408 126.44874 
L 181.110574 126.44874 
L 181.110574 124.930261 
L 179.595408 124.930261 
z
" style="fill:#1f77b4;opacity:0.5;"/>
   </g>
   <g id="patch_65">
    <path clip-path="url(#p80dabdae2f)" d="M 181.489365 126.44874 
L 183.004531 126.44874 
L 183.004531 124.88845 
L 181.489365 124.88845 
z
" style="fill:#1f77b4;opacity:0.5;"/>
   </g>
   <g id="patch_66">
    <path clip-path="url(#p80dabdae2f)" d="M 183.383323 126.44874 
L 184.898488 126.44874 
L 184.898488 124.725626 
L 183.383323 124.725626 
z
" style="fill:#1f77b4;opacity:0.5;"/>
   </g>
   <g id="patch_67">
    <path clip-path="url(#p80dabdae2f)" d="M 185.27728 126.44874 
L 186.792446 126.44874 
L 186.792446 124.703112 
L 185.27728 124.703112 
z
" style="fill:#1f77b4;opacity:0.5;"/>
   </g>
   <g id="patch_68">
    <path clip-path="url(#p80dabdae2f)" d="M 187.171237 126.44874 
L 188.686403 126.44874 
L 188.686403 125.196809 
L 187.171237 125.196809 
z
" style="fill:#1f77b4;opacity:0.5;"/>
   </g>
   <g id="patch_69">
    <path clip-path="url(#p80dabdae2f)" d="M 189.065195 126.44874 
L 190.580361 126.44874 
L 190.580361 125.800261 
L 189.065195 125.800261 
z
" style="fill:#1f77b4;opacity:0.5;"/>
   </g>
   <g id="patch_70">
    <path clip-path="url(#p80dabdae2f)" d="M 190.959152 126.44874 
L 192.474318 126.44874 
L 192.474318 125.374106 
L 190.959152 125.374106 
z
" style="fill:#1f77b4;opacity:0.5;"/>
   </g>
   <g id="patch_71">
    <path clip-path="url(#p80dabdae2f)" d="M 192.85311 126.44874 
L 194.368276 126.44874 
L 194.368276 124.238764 
L 192.85311 124.238764 
z
" style="fill:#1f77b4;opacity:0.5;"/>
   </g>
   <g id="patch_72">
    <path clip-path="url(#p80dabdae2f)" d="M 194.747067 126.44874 
L 196.262233 126.44874 
L 196.262233 125.390187 
L 194.747067 125.390187 
z
" style="fill:#1f77b4;opacity:0.5;"/>
   </g>
   <g id="patch_73">
    <path clip-path="url(#p80dabdae2f)" d="M 196.641024 126.44874 
L 198.15619 126.44874 
L 198.15619 125.386971 
L 196.641024 125.386971 
z
" style="fill:#1f77b4;opacity:0.5;"/>
   </g>
   <g id="patch_74">
    <path clip-path="url(#p80dabdae2f)" d="M 198.534982 126.44874 
L 200.050148 126.44874 
L 200.050148 126.285917 
L 198.534982 126.285917 
z
" style="fill:#1f77b4;opacity:0.5;"/>
   </g>
   <g id="patch_75">
    <path clip-path="url(#p80dabdae2f)" d="M 200.428939 126.44874 
L 201.944105 126.44874 
L 201.944105 125.415917 
L 200.428939 125.415917 
z
" style="fill:#1f77b4;opacity:0.5;"/>
   </g>
   <g id="matplotlib.axis_1">
    <g id="xtick_1">
     <g id="line2d_1">
      <defs>
       <path d="M 0 0 
L 0 3.5 
" id="m7a62ffd250" style="stroke:#000000;stroke-width:0.8;"/>
      </defs>
      <g>
       <use style="stroke:#000000;stroke-width:0.8;" x="201.186522" xlink:href="#m7a62ffd250" y="126.44874"/>
      </g>
     </g>
     <g id="text_1">
      <!-- 19 Apr -->
      <defs>
       <path d="M 12.40625 8.296875 
L 28.515625 8.296875 
L 28.515625 63.921875 
L 10.984375 60.40625 
L 10.984375 69.390625 
L 28.421875 72.90625 
L 38.28125 72.90625 
L 38.28125 8.296875 
L 54.390625 8.296875 
L 54.390625 0 
L 12.40625 0 
z
" id="DejaVuSans-49"/>
       <path d="M 10.984375 1.515625 
L 10.984375 10.5 
Q 14.703125 8.734375 18.5 7.8125 
Q 22.3125 6.890625 25.984375 6.890625 
Q 35.75 6.890625 40.890625 13.453125 
Q 46.046875 20.015625 46.78125 33.40625 
Q 43.953125 29.203125 39.59375 26.953125 
Q 35.25 24.703125 29.984375 24.703125 
Q 19.046875 24.703125 12.671875 31.3125 
Q 6.296875 37.9375 6.296875 49.421875 
Q 6.296875 60.640625 12.9375 67.421875 
Q 19.578125 74.21875 30.609375 74.21875 
Q 43.265625 74.21875 49.921875 64.515625 
Q 56.59375 54.828125 56.59375 36.375 
Q 56.59375 19.140625 48.40625 8.859375 
Q 40.234375 -1.421875 26.421875 -1.421875 
Q 22.703125 -1.421875 18.890625 -0.6875 
Q 15.09375 0.046875 10.984375 1.515625 
z
M 30.609375 32.421875 
Q 37.25 32.421875 41.125 36.953125 
Q 45.015625 41.5 45.015625 49.421875 
Q 45.015625 57.28125 41.125 61.84375 
Q 37.25 66.40625 30.609375 66.40625 
Q 23.96875 66.40625 20.09375 61.84375 
Q 16.21875 57.28125 16.21875 49.421875 
Q 16.21875 41.5 20.09375 36.953125 
Q 23.96875 32.421875 30.609375 32.421875 
z
" id="DejaVuSans-57"/>
       <path id="DejaVuSans-32"/>
       <path d="M 34.1875 63.1875 
L 20.796875 26.90625 
L 47.609375 26.90625 
z
M 28.609375 72.90625 
L 39.796875 72.90625 
L 67.578125 0 
L 57.328125 0 
L 50.6875 18.703125 
L 17.828125 18.703125 
L 11.1875 0 
L 0.78125 0 
z
" id="DejaVuSans-65"/>
       <path d="M 18.109375 8.203125 
L 18.109375 -20.796875 
L 9.078125 -20.796875 
L 9.078125 54.6875 
L 18.109375 54.6875 
L 18.109375 46.390625 
Q 20.953125 51.265625 25.265625 53.625 
Q 29.59375 56 35.59375 56 
Q 45.5625 56 51.78125 48.09375 
Q 58.015625 40.1875 58.015625 27.296875 
Q 58.015625 14.40625 51.78125 6.484375 
Q 45.5625 -1.421875 35.59375 -1.421875 
Q 29.59375 -1.421875 25.265625 0.953125 
Q 20.953125 3.328125 18.109375 8.203125 
z
M 48.6875 27.296875 
Q 48.6875 37.203125 44.609375 42.84375 
Q 40.53125 48.484375 33.40625 48.484375 
Q 26.265625 48.484375 22.1875 42.84375 
Q 18.109375 37.203125 18.109375 27.296875 
Q 18.109375 17.390625 22.1875 11.75 
Q 26.265625 6.109375 33.40625 6.109375 
Q 40.53125 6.109375 44.609375 11.75 
Q 48.6875 17.390625 48.6875 27.296875 
z
" id="DejaVuSans-112"/>
       <path d="M 41.109375 46.296875 
Q 39.59375 47.171875 37.8125 47.578125 
Q 36.03125 48 33.890625 48 
Q 26.265625 48 22.1875 43.046875 
Q 18.109375 38.09375 18.109375 28.8125 
L 18.109375 0 
L 9.078125 0 
L 9.078125 54.6875 
L 18.109375 54.6875 
L 18.109375 46.1875 
Q 20.953125 51.171875 25.484375 53.578125 
Q 30.03125 56 36.53125 56 
Q 37.453125 56 38.578125 55.875 
Q 39.703125 55.765625 41.0625 55.515625 
z
" id="DejaVuSans-114"/>
      </defs>
      <g transform="translate(203.394022 160.01124)rotate(-90)scale(0.08 -0.08)">
       <use xlink:href="#DejaVuSans-49"/>
       <use x="63.623047" xlink:href="#DejaVuSans-57"/>
       <use x="127.246094" xlink:href="#DejaVuSans-32"/>
       <use x="159.033203" xlink:href="#DejaVuSans-65"/>
       <use x="227.441406" xlink:href="#DejaVuSans-112"/>
       <use x="290.917969" xlink:href="#DejaVuSans-114"/>
      </g>
     </g>
    </g>
    <g id="xtick_2">
     <g id="line2d_2">
      <g>
       <use style="stroke:#000000;stroke-width:0.8;" x="187.92882" xlink:href="#m7a62ffd250" y="126.44874"/>
      </g>
     </g>
     <g id="text_2">
      <!-- 12 Apr -->
      <defs>
       <path d="M 19.1875 8.296875 
L 53.609375 8.296875 
L 53.609375 0 
L 7.328125 0 
L 7.328125 8.296875 
Q 12.9375 14.109375 22.625 23.890625 
Q 32.328125 33.6875 34.8125 36.53125 
Q 39.546875 41.84375 41.421875 45.53125 
Q 43.3125 49.21875 43.3125 52.78125 
Q 43.3125 58.59375 39.234375 62.25 
Q 35.15625 65.921875 28.609375 65.921875 
Q 23.96875 65.921875 18.8125 64.3125 
Q 13.671875 62.703125 7.8125 59.421875 
L 7.8125 69.390625 
Q 13.765625 71.78125 18.9375 73 
Q 24.125 74.21875 28.421875 74.21875 
Q 39.75 74.21875 46.484375 68.546875 
Q 53.21875 62.890625 53.21875 53.421875 
Q 53.21875 48.921875 51.53125 44.890625 
Q 49.859375 40.875 45.40625 35.40625 
Q 44.1875 33.984375 37.640625 27.21875 
Q 31.109375 20.453125 19.1875 8.296875 
z
" id="DejaVuSans-50"/>
      </defs>
      <g transform="translate(190.13632 160.01124)rotate(-90)scale(0.08 -0.08)">
       <use xlink:href="#DejaVuSans-49"/>
       <use x="63.623047" xlink:href="#DejaVuSans-50"/>
       <use x="127.246094" xlink:href="#DejaVuSans-32"/>
       <use x="159.033203" xlink:href="#DejaVuSans-65"/>
       <use x="227.441406" xlink:href="#DejaVuSans-112"/>
       <use x="290.917969" xlink:href="#DejaVuSans-114"/>
      </g>
     </g>
    </g>
    <g id="xtick_3">
     <g id="line2d_3">
      <g>
       <use style="stroke:#000000;stroke-width:0.8;" x="174.671118" xlink:href="#m7a62ffd250" y="126.44874"/>
      </g>
     </g>
     <g id="text_3">
      <!-- 5 Apr -->
      <defs>
       <path d="M 10.796875 72.90625 
L 49.515625 72.90625 
L 49.515625 64.59375 
L 19.828125 64.59375 
L 19.828125 46.734375 
Q 21.96875 47.46875 24.109375 47.828125 
Q 26.265625 48.1875 28.421875 48.1875 
Q 40.625 48.1875 47.75 41.5 
Q 54.890625 34.8125 54.890625 23.390625 
Q 54.890625 11.625 47.5625 5.09375 
Q 40.234375 -1.421875 26.90625 -1.421875 
Q 22.3125 -1.421875 17.546875 -0.640625 
Q 12.796875 0.140625 7.71875 1.703125 
L 7.71875 11.625 
Q 12.109375 9.234375 16.796875 8.0625 
Q 21.484375 6.890625 26.703125 6.890625 
Q 35.15625 6.890625 40.078125 11.328125 
Q 45.015625 15.765625 45.015625 23.390625 
Q 45.015625 31 40.078125 35.4375 
Q 35.15625 39.890625 26.703125 39.890625 
Q 22.75 39.890625 18.8125 39.015625 
Q 14.890625 38.140625 10.796875 36.28125 
z
" id="DejaVuSans-53"/>
      </defs>
      <g transform="translate(176.878618 154.92124)rotate(-90)scale(0.08 -0.08)">
       <use xlink:href="#DejaVuSans-53"/>
       <use x="63.623047" xlink:href="#DejaVuSans-32"/>
       <use x="95.410156" xlink:href="#DejaVuSans-65"/>
       <use x="163.818359" xlink:href="#DejaVuSans-112"/>
       <use x="227.294922" xlink:href="#DejaVuSans-114"/>
      </g>
     </g>
    </g>
    <g id="xtick_4">
     <g id="line2d_4">
      <g>
       <use style="stroke:#000000;stroke-width:0.8;" x="161.413416" xlink:href="#m7a62ffd250" y="126.44874"/>
      </g>
     </g>
     <g id="text_4">
      <!-- 29 Mar -->
      <defs>
       <path d="M 9.8125 72.90625 
L 24.515625 72.90625 
L 43.109375 23.296875 
L 61.8125 72.90625 
L 76.515625 72.90625 
L 76.515625 0 
L 66.890625 0 
L 66.890625 64.015625 
L 48.09375 14.015625 
L 38.1875 14.015625 
L 19.390625 64.015625 
L 19.390625 0 
L 9.8125 0 
z
" id="DejaVuSans-77"/>
       <path d="M 34.28125 27.484375 
Q 23.390625 27.484375 19.1875 25 
Q 14.984375 22.515625 14.984375 16.5 
Q 14.984375 11.71875 18.140625 8.90625 
Q 21.296875 6.109375 26.703125 6.109375 
Q 34.1875 6.109375 38.703125 11.40625 
Q 43.21875 16.703125 43.21875 25.484375 
L 43.21875 27.484375 
z
M 52.203125 31.203125 
L 52.203125 0 
L 43.21875 0 
L 43.21875 8.296875 
Q 40.140625 3.328125 35.546875 0.953125 
Q 30.953125 -1.421875 24.3125 -1.421875 
Q 15.921875 -1.421875 10.953125 3.296875 
Q 6 8.015625 6 15.921875 
Q 6 25.140625 12.171875 29.828125 
Q 18.359375 34.515625 30.609375 34.515625 
L 43.21875 34.515625 
L 43.21875 35.40625 
Q 43.21875 41.609375 39.140625 45 
Q 35.0625 48.390625 27.6875 48.390625 
Q 23 48.390625 18.546875 47.265625 
Q 14.109375 46.140625 10.015625 43.890625 
L 10.015625 52.203125 
Q 14.9375 54.109375 19.578125 55.046875 
Q 24.21875 56 28.609375 56 
Q 40.484375 56 46.34375 49.84375 
Q 52.203125 43.703125 52.203125 31.203125 
z
" id="DejaVuSans-97"/>
      </defs>
      <g transform="translate(163.620916 161.26499)rotate(-90)scale(0.08 -0.08)">
       <use xlink:href="#DejaVuSans-50"/>
       <use x="63.623047" xlink:href="#DejaVuSans-57"/>
       <use x="127.246094" xlink:href="#DejaVuSans-32"/>
       <use x="159.033203" xlink:href="#DejaVuSans-77"/>
       <use x="245.3125" xlink:href="#DejaVuSans-97"/>
       <use x="306.591797" xlink:href="#DejaVuSans-114"/>
      </g>
     </g>
    </g>
    <g id="xtick_5">
     <g id="line2d_5">
      <g>
       <use style="stroke:#000000;stroke-width:0.8;" x="148.155714" xlink:href="#m7a62ffd250" y="126.44874"/>
      </g>
     </g>
     <g id="text_5">
      <!-- 22 Mar -->
      <g transform="translate(150.363214 161.26499)rotate(-90)scale(0.08 -0.08)">
       <use xlink:href="#DejaVuSans-50"/>
       <use x="63.623047" xlink:href="#DejaVuSans-50"/>
       <use x="127.246094" xlink:href="#DejaVuSans-32"/>
       <use x="159.033203" xlink:href="#DejaVuSans-77"/>
       <use x="245.3125" xlink:href="#DejaVuSans-97"/>
       <use x="306.591797" xlink:href="#DejaVuSans-114"/>
      </g>
     </g>
    </g>
    <g id="xtick_6">
     <g id="line2d_6">
      <g>
       <use style="stroke:#000000;stroke-width:0.8;" x="134.898013" xlink:href="#m7a62ffd250" y="126.44874"/>
      </g>
     </g>
     <g id="text_6">
      <!-- 15 Mar -->
      <g transform="translate(137.105513 161.26499)rotate(-90)scale(0.08 -0.08)">
       <use xlink:href="#DejaVuSans-49"/>
       <use x="63.623047" xlink:href="#DejaVuSans-53"/>
       <use x="127.246094" xlink:href="#DejaVuSans-32"/>
       <use x="159.033203" xlink:href="#DejaVuSans-77"/>
       <use x="245.3125" xlink:href="#DejaVuSans-97"/>
       <use x="306.591797" xlink:href="#DejaVuSans-114"/>
      </g>
     </g>
    </g>
    <g id="xtick_7">
     <g id="line2d_7">
      <g>
       <use style="stroke:#000000;stroke-width:0.8;" x="121.640311" xlink:href="#m7a62ffd250" y="126.44874"/>
      </g>
     </g>
     <g id="text_7">
      <!-- 8 Mar -->
      <defs>
       <path d="M 31.78125 34.625 
Q 24.75 34.625 20.71875 30.859375 
Q 16.703125 27.09375 16.703125 20.515625 
Q 16.703125 13.921875 20.71875 10.15625 
Q 24.75 6.390625 31.78125 6.390625 
Q 38.8125 6.390625 42.859375 10.171875 
Q 46.921875 13.96875 46.921875 20.515625 
Q 46.921875 27.09375 42.890625 30.859375 
Q 38.875 34.625 31.78125 34.625 
z
M 21.921875 38.8125 
Q 15.578125 40.375 12.03125 44.71875 
Q 8.5 49.078125 8.5 55.328125 
Q 8.5 64.0625 14.71875 69.140625 
Q 20.953125 74.21875 31.78125 74.21875 
Q 42.671875 74.21875 48.875 69.140625 
Q 55.078125 64.0625 55.078125 55.328125 
Q 55.078125 49.078125 51.53125 44.71875 
Q 48 40.375 41.703125 38.8125 
Q 48.828125 37.15625 52.796875 32.3125 
Q 56.78125 27.484375 56.78125 20.515625 
Q 56.78125 9.90625 50.3125 4.234375 
Q 43.84375 -1.421875 31.78125 -1.421875 
Q 19.734375 -1.421875 13.25 4.234375 
Q 6.78125 9.90625 6.78125 20.515625 
Q 6.78125 27.484375 10.78125 32.3125 
Q 14.796875 37.15625 21.921875 38.8125 
z
M 18.3125 54.390625 
Q 18.3125 48.734375 21.84375 45.5625 
Q 25.390625 42.390625 31.78125 42.390625 
Q 38.140625 42.390625 41.71875 45.5625 
Q 45.3125 48.734375 45.3125 54.390625 
Q 45.3125 60.0625 41.71875 63.234375 
Q 38.140625 66.40625 31.78125 66.40625 
Q 25.390625 66.40625 21.84375 63.234375 
Q 18.3125 60.0625 18.3125 54.390625 
z
" id="DejaVuSans-56"/>
      </defs>
      <g transform="translate(123.847811 156.17499)rotate(-90)scale(0.08 -0.08)">
       <use xlink:href="#DejaVuSans-56"/>
       <use x="63.623047" xlink:href="#DejaVuSans-32"/>
       <use x="95.410156" xlink:href="#DejaVuSans-77"/>
       <use x="181.689453" xlink:href="#DejaVuSans-97"/>
       <use x="242.96875" xlink:href="#DejaVuSans-114"/>
      </g>
     </g>
    </g>
    <g id="xtick_8">
     <g id="line2d_8">
      <g>
       <use style="stroke:#000000;stroke-width:0.8;" x="108.382609" xlink:href="#m7a62ffd250" y="126.44874"/>
      </g>
     </g>
     <g id="text_8">
      <!-- 1 Mar -->
      <g transform="translate(110.590109 156.17499)rotate(-90)scale(0.08 -0.08)">
       <use xlink:href="#DejaVuSans-49"/>
       <use x="63.623047" xlink:href="#DejaVuSans-32"/>
       <use x="95.410156" xlink:href="#DejaVuSans-77"/>
       <use x="181.689453" xlink:href="#DejaVuSans-97"/>
       <use x="242.96875" xlink:href="#DejaVuSans-114"/>
      </g>
     </g>
    </g>
    <g id="xtick_9">
     <g id="line2d_9">
      <g>
       <use style="stroke:#000000;stroke-width:0.8;" x="95.124907" xlink:href="#m7a62ffd250" y="126.44874"/>
      </g>
     </g>
     <g id="text_9">
      <!-- 23 Feb -->
      <defs>
       <path d="M 40.578125 39.3125 
Q 47.65625 37.796875 51.625 33 
Q 55.609375 28.21875 55.609375 21.1875 
Q 55.609375 10.40625 48.1875 4.484375 
Q 40.765625 -1.421875 27.09375 -1.421875 
Q 22.515625 -1.421875 17.65625 -0.515625 
Q 12.796875 0.390625 7.625 2.203125 
L 7.625 11.71875 
Q 11.71875 9.328125 16.59375 8.109375 
Q 21.484375 6.890625 26.8125 6.890625 
Q 36.078125 6.890625 40.9375 10.546875 
Q 45.796875 14.203125 45.796875 21.1875 
Q 45.796875 27.640625 41.28125 31.265625 
Q 36.765625 34.90625 28.71875 34.90625 
L 20.21875 34.90625 
L 20.21875 43.015625 
L 29.109375 43.015625 
Q 36.375 43.015625 40.234375 45.921875 
Q 44.09375 48.828125 44.09375 54.296875 
Q 44.09375 59.90625 40.109375 62.90625 
Q 36.140625 65.921875 28.71875 65.921875 
Q 24.65625 65.921875 20.015625 65.03125 
Q 15.375 64.15625 9.8125 62.3125 
L 9.8125 71.09375 
Q 15.4375 72.65625 20.34375 73.4375 
Q 25.25 74.21875 29.59375 74.21875 
Q 40.828125 74.21875 47.359375 69.109375 
Q 53.90625 64.015625 53.90625 55.328125 
Q 53.90625 49.265625 50.4375 45.09375 
Q 46.96875 40.921875 40.578125 39.3125 
z
" id="DejaVuSans-51"/>
       <path d="M 9.8125 72.90625 
L 51.703125 72.90625 
L 51.703125 64.59375 
L 19.671875 64.59375 
L 19.671875 43.109375 
L 48.578125 43.109375 
L 48.578125 34.8125 
L 19.671875 34.8125 
L 19.671875 0 
L 9.8125 0 
z
" id="DejaVuSans-70"/>
       <path d="M 56.203125 29.59375 
L 56.203125 25.203125 
L 14.890625 25.203125 
Q 15.484375 15.921875 20.484375 11.0625 
Q 25.484375 6.203125 34.421875 6.203125 
Q 39.59375 6.203125 44.453125 7.46875 
Q 49.3125 8.734375 54.109375 11.28125 
L 54.109375 2.78125 
Q 49.265625 0.734375 44.1875 -0.34375 
Q 39.109375 -1.421875 33.890625 -1.421875 
Q 20.796875 -1.421875 13.15625 6.1875 
Q 5.515625 13.8125 5.515625 26.8125 
Q 5.515625 40.234375 12.765625 48.109375 
Q 20.015625 56 32.328125 56 
Q 43.359375 56 49.78125 48.890625 
Q 56.203125 41.796875 56.203125 29.59375 
z
M 47.21875 32.234375 
Q 47.125 39.59375 43.09375 43.984375 
Q 39.0625 48.390625 32.421875 48.390625 
Q 24.90625 48.390625 20.390625 44.140625 
Q 15.875 39.890625 15.1875 32.171875 
z
" id="DejaVuSans-101"/>
       <path d="M 48.6875 27.296875 
Q 48.6875 37.203125 44.609375 42.84375 
Q 40.53125 48.484375 33.40625 48.484375 
Q 26.265625 48.484375 22.1875 42.84375 
Q 18.109375 37.203125 18.109375 27.296875 
Q 18.109375 17.390625 22.1875 11.75 
Q 26.265625 6.109375 33.40625 6.109375 
Q 40.53125 6.109375 44.609375 11.75 
Q 48.6875 17.390625 48.6875 27.296875 
z
M 18.109375 46.390625 
Q 20.953125 51.265625 25.265625 53.625 
Q 29.59375 56 35.59375 56 
Q 45.5625 56 51.78125 48.09375 
Q 58.015625 40.1875 58.015625 27.296875 
Q 58.015625 14.40625 51.78125 6.484375 
Q 45.5625 -1.421875 35.59375 -1.421875 
Q 29.59375 -1.421875 25.265625 0.953125 
Q 20.953125 3.328125 18.109375 8.203125 
L 18.109375 0 
L 9.078125 0 
L 9.078125 75.984375 
L 18.109375 75.984375 
z
" id="DejaVuSans-98"/>
      </defs>
      <g transform="translate(97.332407 160.33374)rotate(-90)scale(0.08 -0.08)">
       <use xlink:href="#DejaVuSans-50"/>
       <use x="63.623047" xlink:href="#DejaVuSans-51"/>
       <use x="127.246094" xlink:href="#DejaVuSans-32"/>
       <use x="159.033203" xlink:href="#DejaVuSans-70"/>
       <use x="211.052734" xlink:href="#DejaVuSans-101"/>
       <use x="272.576172" xlink:href="#DejaVuSans-98"/>
      </g>
     </g>
    </g>
    <g id="xtick_10">
     <g id="line2d_10">
      <g>
       <use style="stroke:#000000;stroke-width:0.8;" x="81.867205" xlink:href="#m7a62ffd250" y="126.44874"/>
      </g>
     </g>
     <g id="text_10">
      <!-- 16 Feb -->
      <defs>
       <path d="M 33.015625 40.375 
Q 26.375 40.375 22.484375 35.828125 
Q 18.609375 31.296875 18.609375 23.390625 
Q 18.609375 15.53125 22.484375 10.953125 
Q 26.375 6.390625 33.015625 6.390625 
Q 39.65625 6.390625 43.53125 10.953125 
Q 47.40625 15.53125 47.40625 23.390625 
Q 47.40625 31.296875 43.53125 35.828125 
Q 39.65625 40.375 33.015625 40.375 
z
M 52.59375 71.296875 
L 52.59375 62.3125 
Q 48.875 64.0625 45.09375 64.984375 
Q 41.3125 65.921875 37.59375 65.921875 
Q 27.828125 65.921875 22.671875 59.328125 
Q 17.53125 52.734375 16.796875 39.40625 
Q 19.671875 43.65625 24.015625 45.921875 
Q 28.375 48.1875 33.59375 48.1875 
Q 44.578125 48.1875 50.953125 41.515625 
Q 57.328125 34.859375 57.328125 23.390625 
Q 57.328125 12.15625 50.6875 5.359375 
Q 44.046875 -1.421875 33.015625 -1.421875 
Q 20.359375 -1.421875 13.671875 8.265625 
Q 6.984375 17.96875 6.984375 36.375 
Q 6.984375 53.65625 15.1875 63.9375 
Q 23.390625 74.21875 37.203125 74.21875 
Q 40.921875 74.21875 44.703125 73.484375 
Q 48.484375 72.75 52.59375 71.296875 
z
" id="DejaVuSans-54"/>
      </defs>
      <g transform="translate(84.074705 160.33374)rotate(-90)scale(0.08 -0.08)">
       <use xlink:href="#DejaVuSans-49"/>
       <use x="63.623047" xlink:href="#DejaVuSans-54"/>
       <use x="127.246094" xlink:href="#DejaVuSans-32"/>
       <use x="159.033203" xlink:href="#DejaVuSans-70"/>
       <use x="211.052734" xlink:href="#DejaVuSans-101"/>
       <use x="272.576172" xlink:href="#DejaVuSans-98"/>
      </g>
     </g>
    </g>
    <g id="xtick_11">
     <g id="line2d_11">
      <g>
       <use style="stroke:#000000;stroke-width:0.8;" x="68.609503" xlink:href="#m7a62ffd250" y="126.44874"/>
      </g>
     </g>
     <g id="text_11">
      <!-- 9 Feb -->
      <g transform="translate(70.817003 155.24374)rotate(-90)scale(0.08 -0.08)">
       <use xlink:href="#DejaVuSans-57"/>
       <use x="63.623047" xlink:href="#DejaVuSans-32"/>
       <use x="95.410156" xlink:href="#DejaVuSans-70"/>
       <use x="147.429688" xlink:href="#DejaVuSans-101"/>
       <use x="208.953125" xlink:href="#DejaVuSans-98"/>
      </g>
     </g>
    </g>
   </g>
   <g id="matplotlib.axis_2">
    <g id="ytick_1">
     <g id="line2d_12">
      <defs>
       <path d="M 0 0 
L -3.5 0 
" id="m9f78ad7499" style="stroke:#000000;stroke-width:0.8;"/>
      </defs>
      <g>
       <use style="stroke:#000000;stroke-width:0.8;" x="57.17" xlink:href="#m9f78ad7499" y="126.44874"/>
      </g>
     </g>
     <g id="text_12">
      <!-- 0 -->
      <defs>
       <path d="M 31.78125 66.40625 
Q 24.171875 66.40625 20.328125 58.90625 
Q 16.5 51.421875 16.5 36.375 
Q 16.5 21.390625 20.328125 13.890625 
Q 24.171875 6.390625 31.78125 6.390625 
Q 39.453125 6.390625 43.28125 13.890625 
Q 47.125 21.390625 47.125 36.375 
Q 47.125 51.421875 43.28125 58.90625 
Q 39.453125 66.40625 31.78125 66.40625 
z
M 31.78125 74.21875 
Q 44.046875 74.21875 50.515625 64.515625 
Q 56.984375 54.828125 56.984375 36.375 
Q 56.984375 17.96875 50.515625 8.265625 
Q 44.046875 -1.421875 31.78125 -1.421875 
Q 19.53125 -1.421875 13.0625 8.265625 
Q 6.59375 17.96875 6.59375 36.375 
Q 6.59375 54.828125 13.0625 64.515625 
Q 19.53125 74.21875 31.78125 74.21875 
z
" id="DejaVuSans-48"/>
      </defs>
      <g transform="translate(45.08 129.488115)scale(0.08 -0.08)">
       <use xlink:href="#DejaVuSans-48"/>
      </g>
     </g>
    </g>
    <g id="ytick_2">
     <g id="line2d_13">
      <g>
       <use style="stroke:#000000;stroke-width:0.8;" x="57.17" xlink:href="#m9f78ad7499" y="106.347086"/>
      </g>
     </g>
     <g id="text_13">
      <!-- 50000 -->
      <g transform="translate(24.72 109.386461)scale(0.08 -0.08)">
       <use xlink:href="#DejaVuSans-53"/>
       <use x="63.623047" xlink:href="#DejaVuSans-48"/>
       <use x="127.246094" xlink:href="#DejaVuSans-48"/>
       <use x="190.869141" xlink:href="#DejaVuSans-48"/>
       <use x="254.492188" xlink:href="#DejaVuSans-48"/>
      </g>
     </g>
    </g>
    <g id="ytick_3">
     <g id="line2d_14">
      <g>
       <use style="stroke:#000000;stroke-width:0.8;" x="57.17" xlink:href="#m9f78ad7499" y="86.245431"/>
      </g>
     </g>
     <g id="text_14">
      <!-- 100000 -->
      <g transform="translate(19.63 89.284806)scale(0.08 -0.08)">
       <use xlink:href="#DejaVuSans-49"/>
       <use x="63.623047" xlink:href="#DejaVuSans-48"/>
       <use x="127.246094" xlink:href="#DejaVuSans-48"/>
       <use x="190.869141" xlink:href="#DejaVuSans-48"/>
       <use x="254.492188" xlink:href="#DejaVuSans-48"/>
       <use x="318.115234" xlink:href="#DejaVuSans-48"/>
      </g>
     </g>
    </g>
    <g id="ytick_4">
     <g id="line2d_15">
      <g>
       <use style="stroke:#000000;stroke-width:0.8;" x="57.17" xlink:href="#m9f78ad7499" y="66.143776"/>
      </g>
     </g>
     <g id="text_15">
      <!-- 150000 -->
      <g transform="translate(19.63 69.183151)scale(0.08 -0.08)">
       <use xlink:href="#DejaVuSans-49"/>
       <use x="63.623047" xlink:href="#DejaVuSans-53"/>
       <use x="127.246094" xlink:href="#DejaVuSans-48"/>
       <use x="190.869141" xlink:href="#DejaVuSans-48"/>
       <use x="254.492188" xlink:href="#DejaVuSans-48"/>
       <use x="318.115234" xlink:href="#DejaVuSans-48"/>
      </g>
     </g>
    </g>
    <g id="ytick_5">
     <g id="line2d_16">
      <g>
       <use style="stroke:#000000;stroke-width:0.8;" x="57.17" xlink:href="#m9f78ad7499" y="46.042122"/>
      </g>
     </g>
     <g id="text_16">
      <!-- 200000 -->
      <g transform="translate(19.63 49.081497)scale(0.08 -0.08)">
       <use xlink:href="#DejaVuSans-50"/>
       <use x="63.623047" xlink:href="#DejaVuSans-48"/>
       <use x="127.246094" xlink:href="#DejaVuSans-48"/>
       <use x="190.869141" xlink:href="#DejaVuSans-48"/>
       <use x="254.492188" xlink:href="#DejaVuSans-48"/>
       <use x="318.115234" xlink:href="#DejaVuSans-48"/>
      </g>
     </g>
    </g>
    <g id="ytick_6">
     <g id="line2d_17">
      <g>
       <use style="stroke:#000000;stroke-width:0.8;" x="57.17" xlink:href="#m9f78ad7499" y="25.940467"/>
      </g>
     </g>
     <g id="text_17">
      <!-- 250000 -->
      <g transform="translate(19.63 28.979842)scale(0.08 -0.08)">
       <use xlink:href="#DejaVuSans-50"/>
       <use x="63.623047" xlink:href="#DejaVuSans-53"/>
       <use x="127.246094" xlink:href="#DejaVuSans-48"/>
       <use x="190.869141" xlink:href="#DejaVuSans-48"/>
       <use x="254.492188" xlink:href="#DejaVuSans-48"/>
       <use x="318.115234" xlink:href="#DejaVuSans-48"/>
      </g>
     </g>
    </g>
    <g id="text_18">
     <!-- Cases per day -->
     <defs>
      <path d="M 64.40625 67.28125 
L 64.40625 56.890625 
Q 59.421875 61.53125 53.78125 63.8125 
Q 48.140625 66.109375 41.796875 66.109375 
Q 29.296875 66.109375 22.65625 58.46875 
Q 16.015625 50.828125 16.015625 36.375 
Q 16.015625 21.96875 22.65625 14.328125 
Q 29.296875 6.6875 41.796875 6.6875 
Q 48.140625 6.6875 53.78125 8.984375 
Q 59.421875 11.28125 64.40625 15.921875 
L 64.40625 5.609375 
Q 59.234375 2.09375 53.4375 0.328125 
Q 47.65625 -1.421875 41.21875 -1.421875 
Q 24.65625 -1.421875 15.125 8.703125 
Q 5.609375 18.84375 5.609375 36.375 
Q 5.609375 53.953125 15.125 64.078125 
Q 24.65625 74.21875 41.21875 74.21875 
Q 47.75 74.21875 53.53125 72.484375 
Q 59.328125 70.75 64.40625 67.28125 
z
" id="DejaVuSans-67"/>
      <path d="M 44.28125 53.078125 
L 44.28125 44.578125 
Q 40.484375 46.53125 36.375 47.5 
Q 32.28125 48.484375 27.875 48.484375 
Q 21.1875 48.484375 17.84375 46.4375 
Q 14.5 44.390625 14.5 40.28125 
Q 14.5 37.15625 16.890625 35.375 
Q 19.28125 33.59375 26.515625 31.984375 
L 29.59375 31.296875 
Q 39.15625 29.25 43.1875 25.515625 
Q 47.21875 21.78125 47.21875 15.09375 
Q 47.21875 7.46875 41.1875 3.015625 
Q 35.15625 -1.421875 24.609375 -1.421875 
Q 20.21875 -1.421875 15.453125 -0.5625 
Q 10.6875 0.296875 5.421875 2 
L 5.421875 11.28125 
Q 10.40625 8.6875 15.234375 7.390625 
Q 20.0625 6.109375 24.8125 6.109375 
Q 31.15625 6.109375 34.5625 8.28125 
Q 37.984375 10.453125 37.984375 14.40625 
Q 37.984375 18.0625 35.515625 20.015625 
Q 33.0625 21.96875 24.703125 23.78125 
L 21.578125 24.515625 
Q 13.234375 26.265625 9.515625 29.90625 
Q 5.8125 33.546875 5.8125 39.890625 
Q 5.8125 47.609375 11.28125 51.796875 
Q 16.75 56 26.8125 56 
Q 31.78125 56 36.171875 55.265625 
Q 40.578125 54.546875 44.28125 53.078125 
z
" id="DejaVuSans-115"/>
      <path d="M 45.40625 46.390625 
L 45.40625 75.984375 
L 54.390625 75.984375 
L 54.390625 0 
L 45.40625 0 
L 45.40625 8.203125 
Q 42.578125 3.328125 38.25 0.953125 
Q 33.9375 -1.421875 27.875 -1.421875 
Q 17.96875 -1.421875 11.734375 6.484375 
Q 5.515625 14.40625 5.515625 27.296875 
Q 5.515625 40.1875 11.734375 48.09375 
Q 17.96875 56 27.875 56 
Q 33.9375 56 38.25 53.625 
Q 42.578125 51.265625 45.40625 46.390625 
z
M 14.796875 27.296875 
Q 14.796875 17.390625 18.875 11.75 
Q 22.953125 6.109375 30.078125 6.109375 
Q 37.203125 6.109375 41.296875 11.75 
Q 45.40625 17.390625 45.40625 27.296875 
Q 45.40625 37.203125 41.296875 42.84375 
Q 37.203125 48.484375 30.078125 48.484375 
Q 22.953125 48.484375 18.875 42.84375 
Q 14.796875 37.203125 14.796875 27.296875 
z
" id="DejaVuSans-100"/>
      <path d="M 32.171875 -5.078125 
Q 28.375 -14.84375 24.75 -17.8125 
Q 21.140625 -20.796875 15.09375 -20.796875 
L 7.90625 -20.796875 
L 7.90625 -13.28125 
L 13.1875 -13.28125 
Q 16.890625 -13.28125 18.9375 -11.515625 
Q 21 -9.765625 23.484375 -3.21875 
L 25.09375 0.875 
L 2.984375 54.6875 
L 12.5 54.6875 
L 29.59375 11.921875 
L 46.6875 54.6875 
L 56.203125 54.6875 
z
" id="DejaVuSans-121"/>
     </defs>
     <g transform="translate(13.96625 97.40312)rotate(-90)scale(0.08 -0.08)">
      <use xlink:href="#DejaVuSans-67"/>
      <use x="69.824219" xlink:href="#DejaVuSans-97"/>
      <use x="131.103516" xlink:href="#DejaVuSans-115"/>
      <use x="183.203125" xlink:href="#DejaVuSans-101"/>
      <use x="244.726562" xlink:href="#DejaVuSans-115"/>
      <use x="296.826172" xlink:href="#DejaVuSans-32"/>
      <use x="328.613281" xlink:href="#DejaVuSans-112"/>
      <use x="392.089844" xlink:href="#DejaVuSans-101"/>
      <use x="453.613281" xlink:href="#DejaVuSans-114"/>
      <use x="494.726562" xlink:href="#DejaVuSans-32"/>
      <use x="526.513672" xlink:href="#DejaVuSans-100"/>
      <use x="589.990234" xlink:href="#DejaVuSans-97"/>
      <use x="651.269531" xlink:href="#DejaVuSans-121"/>
     </g>
    </g>
   </g>
   <g id="line2d_18">
    <path clip-path="url(#p80dabdae2f)" d="M 64.821588 126.435934 
L 66.715545 126.435934 
L 68.609503 126.435934 
L 70.50346 126.435934 
L 72.397418 126.435934 
L 74.291375 126.435934 
L 76.185333 126.428132 
L 78.07929 126.42397 
L 79.973247 126.419813 
L 81.867205 126.409815 
L 83.761162 126.403438 
L 85.65512 126.392905 
L 87.549077 126.391617 
L 89.443034 126.374437 
L 91.336992 126.362227 
L 93.230949 126.342509 
L 95.124907 126.272569 
L 97.018864 126.269345 
L 98.912822 126.24062 
L 100.806779 126.216393 
L 102.700736 126.156641 
L 104.594694 126.068853 
L 106.488651 125.984126 
L 108.382609 125.81477 
L 110.276566 125.714888 
L 112.170523 125.466082 
L 114.064481 125.348436 
L 115.958438 125.172896 
L 117.852396 124.745053 
L 119.746353 124.411868 
L 121.640311 123.861389 
L 123.534268 123.295621 
L 125.428225 122.688921 
L 127.322183 121.641671 
L 129.21614 119.939824 
L 131.110098 114.415746 
L 133.004055 117.654675 
L 134.898013 102.568834 
L 136.79197 59.284869 
L 138.685927 114.928612 
L 140.579885 120.047213 
L 142.473842 117.49194 
L 144.3678 116.999534 
L 146.261757 119.524599 
L 148.155714 121.258669 
L 150.049672 116.940368 
L 151.943629 118.560823 
L 153.837587 119.590634 
L 155.731544 119.574168 
L 157.625502 119.932219 
L 159.519459 121.517355 
L 161.413416 123.220316 
" style="fill:none;stroke:#0000ff;stroke-linecap:square;stroke-opacity:0.5;"/>
   </g>
   <g id="line2d_19">
    <path clip-path="url(#p80dabdae2f)" d="M 163.307374 123.320973 
L 165.201331 123.450832 
L 167.095289 123.594849 
L 168.989246 123.736933 
L 170.883204 123.866422 
L 172.777161 123.977622 
L 174.671118 124.068143 
L 176.565076 124.137453 
L 178.459033 124.185901 
L 180.352991 124.214129 
L 182.246948 124.222746 
L 184.140905 124.212164 
L 186.034863 124.18252 
L 187.92882 124.133635 
L 189.822778 124.064996 
L 191.716735 123.97574 
L 193.610693 123.864637 
L 195.50465 123.730066 
L 197.398607 123.569984 
L 199.292565 123.381889 
L 201.186522 123.16276 
" style="fill:none;stroke:#008000;stroke-linecap:square;stroke-opacity:0.5;"/>
   </g>
   <g id="line2d_20">
    <path clip-path="url(#p80dabdae2f)" d="M 131.110098 126.44874 
L 131.110098 11.52 
" style="fill:none;stroke:#0000ff;stroke-dasharray:1.85,0.8;stroke-dashoffset:0;stroke-width:0.5;"/>
   </g>
   <g id="line2d_21">
    <path clip-path="url(#p80dabdae2f)" d="M 133.004055 126.44874 
L 133.004055 11.52 
" style="fill:none;stroke:#0000ff;stroke-dasharray:1.85,0.8;stroke-dashoffset:0;stroke-width:0.5;"/>
   </g>
   <g id="line2d_22">
    <path clip-path="url(#p80dabdae2f)" d="M 138.685927 126.44874 
L 138.685927 11.52 
" style="fill:none;stroke:#0000ff;stroke-dasharray:1.85,0.8;stroke-dashoffset:0;stroke-width:0.5;"/>
   </g>
   <g id="line2d_23">
    <path clip-path="url(#p80dabdae2f)" d="M 136.79197 126.44874 
L 136.79197 11.52 
" style="fill:none;stroke:#0000ff;stroke-dasharray:1.85,0.8;stroke-dashoffset:0;stroke-width:0.5;"/>
   </g>
   <g id="line2d_24">
    <path clip-path="url(#p80dabdae2f)" d="M 136.79197 126.44874 
L 136.79197 11.52 
" style="fill:none;stroke:#0000ff;stroke-dasharray:1.85,0.8;stroke-dashoffset:0;stroke-width:0.5;"/>
   </g>
   <g id="patch_76">
    <path d="M 57.17 126.44874 
L 57.17 11.52 
" style="fill:none;stroke:#000000;stroke-linecap:square;stroke-linejoin:miter;stroke-width:0.8;"/>
   </g>
   <g id="patch_77">
    <path d="M 208.83811 126.44874 
L 208.83811 11.52 
" style="fill:none;stroke:#000000;stroke-linecap:square;stroke-linejoin:miter;stroke-width:0.8;"/>
   </g>
   <g id="patch_78">
    <path d="M 57.17 126.44874 
L 208.83811 126.44874 
" style="fill:none;stroke:#000000;stroke-linecap:square;stroke-linejoin:miter;stroke-width:0.8;"/>
   </g>
   <g id="patch_79">
    <path d="M 57.17 11.52 
L 208.83811 11.52 
" style="fill:none;stroke:#000000;stroke-linecap:square;stroke-linejoin:miter;stroke-width:0.8;"/>
   </g>
   <g id="legend_1">
    <g id="line2d_25">
     <path d="M 64.37 103.04249 
L 80.37 103.04249 
" style="fill:none;stroke:#0000ff;stroke-linecap:square;stroke-opacity:0.5;"/>
    </g>
    <g id="line2d_26"/>
    <g id="text_19">
     <!-- Simulation -->
     <defs>
      <path d="M 53.515625 70.515625 
L 53.515625 60.890625 
Q 47.90625 63.578125 42.921875 64.890625 
Q 37.9375 66.21875 33.296875 66.21875 
Q 25.25 66.21875 20.875 63.09375 
Q 16.5 59.96875 16.5 54.203125 
Q 16.5 49.359375 19.40625 46.890625 
Q 22.3125 44.4375 30.421875 42.921875 
L 36.375 41.703125 
Q 47.40625 39.59375 52.65625 34.296875 
Q 57.90625 29 57.90625 20.125 
Q 57.90625 9.515625 50.796875 4.046875 
Q 43.703125 -1.421875 29.984375 -1.421875 
Q 24.8125 -1.421875 18.96875 -0.25 
Q 13.140625 0.921875 6.890625 3.21875 
L 6.890625 13.375 
Q 12.890625 10.015625 18.65625 8.296875 
Q 24.421875 6.59375 29.984375 6.59375 
Q 38.421875 6.59375 43.015625 9.90625 
Q 47.609375 13.234375 47.609375 19.390625 
Q 47.609375 24.75 44.3125 27.78125 
Q 41.015625 30.8125 33.5 32.328125 
L 27.484375 33.5 
Q 16.453125 35.6875 11.515625 40.375 
Q 6.59375 45.0625 6.59375 53.421875 
Q 6.59375 63.09375 13.40625 68.65625 
Q 20.21875 74.21875 32.171875 74.21875 
Q 37.3125 74.21875 42.625 73.28125 
Q 47.953125 72.359375 53.515625 70.515625 
z
" id="DejaVuSans-83"/>
      <path d="M 9.421875 54.6875 
L 18.40625 54.6875 
L 18.40625 0 
L 9.421875 0 
z
M 9.421875 75.984375 
L 18.40625 75.984375 
L 18.40625 64.59375 
L 9.421875 64.59375 
z
" id="DejaVuSans-105"/>
      <path d="M 52 44.1875 
Q 55.375 50.25 60.0625 53.125 
Q 64.75 56 71.09375 56 
Q 79.640625 56 84.28125 50.015625 
Q 88.921875 44.046875 88.921875 33.015625 
L 88.921875 0 
L 79.890625 0 
L 79.890625 32.71875 
Q 79.890625 40.578125 77.09375 44.375 
Q 74.3125 48.1875 68.609375 48.1875 
Q 61.625 48.1875 57.5625 43.546875 
Q 53.515625 38.921875 53.515625 30.90625 
L 53.515625 0 
L 44.484375 0 
L 44.484375 32.71875 
Q 44.484375 40.625 41.703125 44.40625 
Q 38.921875 48.1875 33.109375 48.1875 
Q 26.21875 48.1875 22.15625 43.53125 
Q 18.109375 38.875 18.109375 30.90625 
L 18.109375 0 
L 9.078125 0 
L 9.078125 54.6875 
L 18.109375 54.6875 
L 18.109375 46.1875 
Q 21.1875 51.21875 25.484375 53.609375 
Q 29.78125 56 35.6875 56 
Q 41.65625 56 45.828125 52.96875 
Q 50 49.953125 52 44.1875 
z
" id="DejaVuSans-109"/>
      <path d="M 8.5 21.578125 
L 8.5 54.6875 
L 17.484375 54.6875 
L 17.484375 21.921875 
Q 17.484375 14.15625 20.5 10.265625 
Q 23.53125 6.390625 29.59375 6.390625 
Q 36.859375 6.390625 41.078125 11.03125 
Q 45.3125 15.671875 45.3125 23.6875 
L 45.3125 54.6875 
L 54.296875 54.6875 
L 54.296875 0 
L 45.3125 0 
L 45.3125 8.40625 
Q 42.046875 3.421875 37.71875 1 
Q 33.40625 -1.421875 27.6875 -1.421875 
Q 18.265625 -1.421875 13.375 4.4375 
Q 8.5 10.296875 8.5 21.578125 
z
M 31.109375 56 
z
" id="DejaVuSans-117"/>
      <path d="M 9.421875 75.984375 
L 18.40625 75.984375 
L 18.40625 0 
L 9.421875 0 
z
" id="DejaVuSans-108"/>
      <path d="M 18.3125 70.21875 
L 18.3125 54.6875 
L 36.8125 54.6875 
L 36.8125 47.703125 
L 18.3125 47.703125 
L 18.3125 18.015625 
Q 18.3125 11.328125 20.140625 9.421875 
Q 21.96875 7.515625 27.59375 7.515625 
L 36.8125 7.515625 
L 36.8125 0 
L 27.59375 0 
Q 17.1875 0 13.234375 3.875 
Q 9.28125 7.765625 9.28125 18.015625 
L 9.28125 47.703125 
L 2.6875 47.703125 
L 2.6875 54.6875 
L 9.28125 54.6875 
L 9.28125 70.21875 
z
" id="DejaVuSans-116"/>
      <path d="M 30.609375 48.390625 
Q 23.390625 48.390625 19.1875 42.75 
Q 14.984375 37.109375 14.984375 27.296875 
Q 14.984375 17.484375 19.15625 11.84375 
Q 23.34375 6.203125 30.609375 6.203125 
Q 37.796875 6.203125 41.984375 11.859375 
Q 46.1875 17.53125 46.1875 27.296875 
Q 46.1875 37.015625 41.984375 42.703125 
Q 37.796875 48.390625 30.609375 48.390625 
z
M 30.609375 56 
Q 42.328125 56 49.015625 48.375 
Q 55.71875 40.765625 55.71875 27.296875 
Q 55.71875 13.875 49.015625 6.21875 
Q 42.328125 -1.421875 30.609375 -1.421875 
Q 18.84375 -1.421875 12.171875 6.21875 
Q 5.515625 13.875 5.515625 27.296875 
Q 5.515625 40.765625 12.171875 48.375 
Q 18.84375 56 30.609375 56 
z
" id="DejaVuSans-111"/>
      <path d="M 54.890625 33.015625 
L 54.890625 0 
L 45.90625 0 
L 45.90625 32.71875 
Q 45.90625 40.484375 42.875 44.328125 
Q 39.84375 48.1875 33.796875 48.1875 
Q 26.515625 48.1875 22.3125 43.546875 
Q 18.109375 38.921875 18.109375 30.90625 
L 18.109375 0 
L 9.078125 0 
L 9.078125 54.6875 
L 18.109375 54.6875 
L 18.109375 46.1875 
Q 21.34375 51.125 25.703125 53.5625 
Q 30.078125 56 35.796875 56 
Q 45.21875 56 50.046875 50.171875 
Q 54.890625 44.34375 54.890625 33.015625 
z
" id="DejaVuSans-110"/>
     </defs>
     <g transform="translate(86.77 105.84249)scale(0.08 -0.08)">
      <use xlink:href="#DejaVuSans-83"/>
      <use x="63.476562" xlink:href="#DejaVuSans-105"/>
      <use x="91.259766" xlink:href="#DejaVuSans-109"/>
      <use x="188.671875" xlink:href="#DejaVuSans-117"/>
      <use x="252.050781" xlink:href="#DejaVuSans-108"/>
      <use x="279.833984" xlink:href="#DejaVuSans-97"/>
      <use x="341.113281" xlink:href="#DejaVuSans-116"/>
      <use x="380.322266" xlink:href="#DejaVuSans-105"/>
      <use x="408.105469" xlink:href="#DejaVuSans-111"/>
      <use x="469.287109" xlink:href="#DejaVuSans-110"/>
     </g>
    </g>
    <g id="line2d_27">
     <path d="M 64.37 114.78499 
L 80.37 114.78499 
" style="fill:none;stroke:#008000;stroke-linecap:square;stroke-opacity:0.5;"/>
    </g>
    <g id="line2d_28"/>
    <g id="text_20">
     <!-- Forecast -->
     <defs>
      <path d="M 48.78125 52.59375 
L 48.78125 44.1875 
Q 44.96875 46.296875 41.140625 47.34375 
Q 37.3125 48.390625 33.40625 48.390625 
Q 24.65625 48.390625 19.8125 42.84375 
Q 14.984375 37.3125 14.984375 27.296875 
Q 14.984375 17.28125 19.8125 11.734375 
Q 24.65625 6.203125 33.40625 6.203125 
Q 37.3125 6.203125 41.140625 7.25 
Q 44.96875 8.296875 48.78125 10.40625 
L 48.78125 2.09375 
Q 45.015625 0.34375 40.984375 -0.53125 
Q 36.96875 -1.421875 32.421875 -1.421875 
Q 20.0625 -1.421875 12.78125 6.34375 
Q 5.515625 14.109375 5.515625 27.296875 
Q 5.515625 40.671875 12.859375 48.328125 
Q 20.21875 56 33.015625 56 
Q 37.15625 56 41.109375 55.140625 
Q 45.0625 54.296875 48.78125 52.59375 
z
" id="DejaVuSans-99"/>
     </defs>
     <g transform="translate(86.77 117.58499)scale(0.08 -0.08)">
      <use xlink:href="#DejaVuSans-70"/>
      <use x="53.894531" xlink:href="#DejaVuSans-111"/>
      <use x="115.076172" xlink:href="#DejaVuSans-114"/>
      <use x="153.939453" xlink:href="#DejaVuSans-101"/>
      <use x="215.462891" xlink:href="#DejaVuSans-99"/>
      <use x="270.443359" xlink:href="#DejaVuSans-97"/>
      <use x="331.722656" xlink:href="#DejaVuSans-115"/>
      <use x="383.822266" xlink:href="#DejaVuSans-116"/>
     </g>
    </g>
   </g>
  </g>
  <g id="axes_2">
   <g id="matplotlib.axis_3">
    <g id="ytick_7">
     <g id="line2d_29">
      <defs>
       <path d="M 0 0 
L 3.5 0 
" id="mc717fe11cf" style="stroke:#000000;stroke-width:0.8;"/>
      </defs>
      <g>
       <use style="stroke:#000000;stroke-width:0.8;" x="208.83811" xlink:href="#mc717fe11cf" y="126.44874"/>
      </g>
     </g>
     <g id="text_21">
      <!-- 1.0 -->
      <defs>
       <path d="M 10.59375 35.5 
L 73.1875 35.5 
L 73.1875 27.203125 
L 10.59375 27.203125 
z
" id="DejaVuSans-8722"/>
       <path d="M 10.6875 12.40625 
L 21 12.40625 
L 21 0 
L 10.6875 0 
z
" id="DejaVuSans-46"/>
      </defs>
      <g transform="translate(215.83811 129.488115)scale(0.08 -0.08)">
       <use xlink:href="#DejaVuSans-8722"/>
       <use x="83.789062" xlink:href="#DejaVuSans-49"/>
       <use x="147.412109" xlink:href="#DejaVuSans-46"/>
       <use x="179.199219" xlink:href="#DejaVuSans-48"/>
      </g>
     </g>
    </g>
    <g id="ytick_8">
     <g id="line2d_30">
      <g>
       <use style="stroke:#000000;stroke-width:0.8;" x="208.83811" xlink:href="#mc717fe11cf" y="85.402762"/>
      </g>
     </g>
     <g id="text_22">
      <!-- 0.5 -->
      <g transform="translate(215.83811 88.442137)scale(0.08 -0.08)">
       <use xlink:href="#DejaVuSans-8722"/>
       <use x="83.789062" xlink:href="#DejaVuSans-48"/>
       <use x="147.412109" xlink:href="#DejaVuSans-46"/>
       <use x="179.199219" xlink:href="#DejaVuSans-53"/>
      </g>
     </g>
    </g>
    <g id="ytick_9">
     <g id="line2d_31">
      <g>
       <use style="stroke:#000000;stroke-width:0.8;" x="208.83811" xlink:href="#mc717fe11cf" y="44.356783"/>
      </g>
     </g>
     <g id="text_23">
      <!-- 0.0 -->
      <g transform="translate(215.83811 47.396158)scale(0.08 -0.08)">
       <use xlink:href="#DejaVuSans-48"/>
       <use x="63.623047" xlink:href="#DejaVuSans-46"/>
       <use x="95.410156" xlink:href="#DejaVuSans-48"/>
      </g>
     </g>
    </g>
    <g id="ytick_10">
     <g id="line2d_32">
      <g>
       <use style="stroke:#000000;stroke-width:0.8;" x="208.83811" xlink:href="#mc717fe11cf" y="11.52"/>
      </g>
     </g>
     <g id="text_24">
      <!-- 0.4 -->
      <defs>
       <path d="M 37.796875 64.3125 
L 12.890625 25.390625 
L 37.796875 25.390625 
z
M 35.203125 72.90625 
L 47.609375 72.90625 
L 47.609375 25.390625 
L 58.015625 25.390625 
L 58.015625 17.1875 
L 47.609375 17.1875 
L 47.609375 0 
L 37.796875 0 
L 37.796875 17.1875 
L 4.890625 17.1875 
L 4.890625 26.703125 
z
" id="DejaVuSans-52"/>
      </defs>
      <g transform="translate(215.83811 14.559375)scale(0.08 -0.08)">
       <use xlink:href="#DejaVuSans-48"/>
       <use x="63.623047" xlink:href="#DejaVuSans-46"/>
       <use x="95.410156" xlink:href="#DejaVuSans-52"/>
      </g>
     </g>
    </g>
    <g id="text_25">
     <!-- Relative change -->
     <defs>
      <path d="M 44.390625 34.1875 
Q 47.5625 33.109375 50.5625 29.59375 
Q 53.5625 26.078125 56.59375 19.921875 
L 66.609375 0 
L 56 0 
L 46.6875 18.703125 
Q 43.0625 26.03125 39.671875 28.421875 
Q 36.28125 30.8125 30.421875 30.8125 
L 19.671875 30.8125 
L 19.671875 0 
L 9.8125 0 
L 9.8125 72.90625 
L 32.078125 72.90625 
Q 44.578125 72.90625 50.734375 67.671875 
Q 56.890625 62.453125 56.890625 51.90625 
Q 56.890625 45.015625 53.6875 40.46875 
Q 50.484375 35.9375 44.390625 34.1875 
z
M 19.671875 64.796875 
L 19.671875 38.921875 
L 32.078125 38.921875 
Q 39.203125 38.921875 42.84375 42.21875 
Q 46.484375 45.515625 46.484375 51.90625 
Q 46.484375 58.296875 42.84375 61.546875 
Q 39.203125 64.796875 32.078125 64.796875 
z
" id="DejaVuSans-82"/>
      <path d="M 2.984375 54.6875 
L 12.5 54.6875 
L 29.59375 8.796875 
L 46.6875 54.6875 
L 56.203125 54.6875 
L 35.6875 0 
L 23.484375 0 
z
" id="DejaVuSans-118"/>
      <path d="M 54.890625 33.015625 
L 54.890625 0 
L 45.90625 0 
L 45.90625 32.71875 
Q 45.90625 40.484375 42.875 44.328125 
Q 39.84375 48.1875 33.796875 48.1875 
Q 26.515625 48.1875 22.3125 43.546875 
Q 18.109375 38.921875 18.109375 30.90625 
L 18.109375 0 
L 9.078125 0 
L 9.078125 75.984375 
L 18.109375 75.984375 
L 18.109375 46.1875 
Q 21.34375 51.125 25.703125 53.5625 
Q 30.078125 56 35.796875 56 
Q 45.21875 56 50.046875 50.171875 
Q 54.890625 44.34375 54.890625 33.015625 
z
" id="DejaVuSans-104"/>
      <path d="M 45.40625 27.984375 
Q 45.40625 37.75 41.375 43.109375 
Q 37.359375 48.484375 30.078125 48.484375 
Q 22.859375 48.484375 18.828125 43.109375 
Q 14.796875 37.75 14.796875 27.984375 
Q 14.796875 18.265625 18.828125 12.890625 
Q 22.859375 7.515625 30.078125 7.515625 
Q 37.359375 7.515625 41.375 12.890625 
Q 45.40625 18.265625 45.40625 27.984375 
z
M 54.390625 6.78125 
Q 54.390625 -7.171875 48.1875 -13.984375 
Q 42 -20.796875 29.203125 -20.796875 
Q 24.46875 -20.796875 20.265625 -20.09375 
Q 16.0625 -19.390625 12.109375 -17.921875 
L 12.109375 -9.1875 
Q 16.0625 -11.328125 19.921875 -12.34375 
Q 23.78125 -13.375 27.78125 -13.375 
Q 36.625 -13.375 41.015625 -8.765625 
Q 45.40625 -4.15625 45.40625 5.171875 
L 45.40625 9.625 
Q 42.625 4.78125 38.28125 2.390625 
Q 33.9375 0 27.875 0 
Q 17.828125 0 11.671875 7.65625 
Q 5.515625 15.328125 5.515625 27.984375 
Q 5.515625 40.671875 11.671875 48.328125 
Q 17.828125 56 27.875 56 
Q 33.9375 56 38.28125 53.609375 
Q 42.625 51.21875 45.40625 46.390625 
L 45.40625 54.6875 
L 54.390625 54.6875 
z
" id="DejaVuSans-103"/>
     </defs>
     <g transform="translate(245.34311 101.10812)rotate(-90)scale(0.08 -0.08)">
      <use xlink:href="#DejaVuSans-82"/>
      <use x="64.982422" xlink:href="#DejaVuSans-101"/>
      <use x="126.505859" xlink:href="#DejaVuSans-108"/>
      <use x="154.289062" xlink:href="#DejaVuSans-97"/>
      <use x="215.568359" xlink:href="#DejaVuSans-116"/>
      <use x="254.777344" xlink:href="#DejaVuSans-105"/>
      <use x="282.560547" xlink:href="#DejaVuSans-118"/>
      <use x="341.740234" xlink:href="#DejaVuSans-101"/>
      <use x="403.263672" xlink:href="#DejaVuSans-32"/>
      <use x="435.050781" xlink:href="#DejaVuSans-99"/>
      <use x="490.03125" xlink:href="#DejaVuSans-104"/>
      <use x="553.410156" xlink:href="#DejaVuSans-97"/>
      <use x="614.689453" xlink:href="#DejaVuSans-110"/>
      <use x="678.068359" xlink:href="#DejaVuSans-103"/>
      <use x="741.544922" xlink:href="#DejaVuSans-101"/>
     </g>
    </g>
   </g>
   <g id="line2d_33">
    <path clip-path="url(#p80dabdae2f)" d="M 64.821588 44.356783 
L 66.715545 44.356783 
L 68.609503 44.356783 
L 70.50346 44.356783 
L 72.397418 44.356783 
L 74.291375 44.356783 
L 76.185333 44.356783 
L 78.07929 44.356783 
L 79.973247 45.998622 
L 81.867205 39.431265 
L 83.761162 43.535863 
L 85.65512 40.252185 
L 87.549077 47.640461 
L 89.443034 45.998622 
L 91.336992 45.177702 
L 93.230949 49.2823 
L 95.124907 37.789426 
L 97.018864 41.894024 
L 98.912822 43.535863 
L 100.806779 48.461381 
L 102.700736 48.461381 
L 104.594694 45.177702 
L 106.488651 50.10322 
L 108.382609 43.535863 
L 110.276566 49.2823 
L 112.170523 45.177702 
L 114.064481 49.2823 
L 115.958438 50.924139 
L 117.852396 45.998622 
L 119.746353 47.640461 
L 121.640311 44.356783 
L 123.534268 48.461381 
L 125.428225 48.461381 
L 127.322183 49.2823 
L 129.21614 50.924139 
L 131.110098 50.924139 
L 133.004055 61.596094 
L 134.898013 75.551727 
L 136.79197 79.656325 
L 138.685927 100.179314 
L 140.579885 112.493107 
L 142.473842 111.672188 
L 144.3678 112.493107 
L 146.261757 116.597705 
L 148.155714 114.955866 
L 150.049672 110.851268 
L 151.943629 112.493107 
L 153.837587 113.314027 
L 155.731544 113.314027 
L 157.625502 113.314027 
L 159.519459 115.776786 
L 161.413416 116.597705 
" style="fill:none;stroke:#d62728;stroke-linecap:square;stroke-opacity:0.5;"/>
   </g>
   <g id="line2d_34">
    <path clip-path="url(#p80dabdae2f)" d="M 64.821588 44.356783 
L 66.715545 44.356783 
L 68.609503 44.356783 
L 70.50346 44.356783 
L 72.397418 44.356783 
L 74.291375 44.356783 
L 76.185333 44.356783 
L 78.07929 44.356783 
L 79.973247 45.177702 
L 81.867205 42.714944 
L 83.761162 42.714944 
L 85.65512 42.714944 
L 87.549077 46.819542 
L 89.443034 45.177702 
L 91.336992 45.998622 
L 93.230949 45.998622 
L 95.124907 38.610346 
L 97.018864 41.894024 
L 98.912822 43.535863 
L 100.806779 45.998622 
L 102.700736 45.177702 
L 104.594694 43.535863 
L 106.488651 43.535863 
L 108.382609 41.073105 
L 110.276566 41.894024 
L 112.170523 40.252185 
L 114.064481 42.714944 
L 115.958438 44.356783 
L 117.852396 42.714944 
L 119.746353 43.535863 
L 121.640311 42.714944 
L 123.534268 42.714944 
L 125.428225 43.535863 
L 127.322183 42.714944 
L 129.21614 40.252185 
L 131.110098 30.40115 
L 133.004055 43.535863 
L 134.898013 25.475633 
L 136.79197 6.594483 
L 138.685927 56.670576 
L 140.579885 81.298164 
L 142.473842 78.014485 
L 144.3678 78.835405 
L 146.261757 88.68644 
L 148.155714 96.895636 
L 150.049672 78.014485 
L 151.943629 81.298164 
L 153.837587 83.760922 
L 155.731544 82.119083 
L 157.625502 82.119083 
L 159.519459 90.328279 
L 161.413416 103.462992 
" style="fill:none;stroke:#9467bd;stroke-linecap:square;stroke-opacity:0.5;"/>
   </g>
   <g id="line2d_35">
    <path clip-path="url(#p80dabdae2f)" d="M 64.821588 44.356783 
L 66.715545 44.356783 
L 68.609503 44.356783 
L 70.50346 44.356783 
L 72.397418 44.356783 
L 74.291375 44.356783 
L 76.185333 44.356783 
L 78.07929 44.356783 
L 79.973247 34.505748 
L 81.867205 38.610346 
L 83.761162 49.2823 
L 85.65512 47.640461 
L 87.549077 49.2823 
L 89.443034 47.640461 
L 91.336992 44.356783 
L 93.230949 32.863909 
L 95.124907 34.505748 
L 97.018864 45.177702 
L 98.912822 46.819542 
L 100.806779 48.461381 
L 102.700736 48.461381 
L 104.594694 44.356783 
L 106.488651 41.073105 
L 108.382609 42.714944 
L 110.276566 47.640461 
L 112.170523 47.640461 
L 114.064481 49.2823 
L 115.958438 49.2823 
L 117.852396 45.177702 
L 119.746353 43.535863 
L 121.640311 45.998622 
L 123.534268 48.461381 
L 125.428225 49.2823 
L 127.322183 48.461381 
L 129.21614 50.10322 
L 131.110098 50.924139 
L 133.004055 57.491496 
L 134.898013 61.596094 
L 136.79197 76.372646 
L 138.685927 94.432877 
L 140.579885 106.74667 
L 142.473842 108.38851 
L 144.3678 110.030349 
L 146.261757 111.672188 
L 148.155714 113.314027 
L 150.049672 111.672188 
L 151.943629 111.672188 
L 153.837587 112.493107 
L 155.731544 112.493107 
L 157.625502 113.314027 
L 159.519459 112.493107 
L 161.413416 115.776786 
" style="fill:none;stroke:#e377c2;stroke-linecap:square;stroke-opacity:0.5;"/>
   </g>
   <g id="line2d_36">
    <path clip-path="url(#p80dabdae2f)" d="M 64.821588 44.356783 
L 66.715545 44.356783 
L 68.609503 44.356783 
L 70.50346 44.356783 
L 72.397418 44.356783 
L 74.291375 44.356783 
L 76.185333 44.356783 
L 78.07929 44.356783 
L 79.973247 45.998622 
L 81.867205 45.177702 
L 83.761162 56.670576 
L 85.65512 55.849657 
L 87.549077 54.207818 
L 89.443034 56.670576 
L 91.336992 56.670576 
L 93.230949 48.461381 
L 95.124907 45.177702 
L 97.018864 56.670576 
L 98.912822 55.849657 
L 100.806779 54.207818 
L 102.700736 56.670576 
L 104.594694 56.670576 
L 106.488651 48.461381 
L 108.382609 43.535863 
L 110.276566 48.461381 
L 112.170523 47.640461 
L 114.064481 46.819542 
L 115.958438 48.461381 
L 117.852396 47.640461 
L 119.746353 44.356783 
L 121.640311 45.177702 
L 123.534268 45.177702 
L 125.428225 45.177702 
L 127.322183 44.356783 
L 129.21614 45.177702 
L 131.110098 45.998622 
L 133.004055 48.461381 
L 134.898013 51.745059 
L 136.79197 73.909888 
L 138.685927 89.507359 
L 140.579885 99.358394 
L 142.473842 102.642073 
L 144.3678 102.642073 
L 146.261757 91.970118 
L 148.155714 89.507359 
L 150.049672 104.283912 
L 151.943629 105.104831 
L 153.837587 104.283912 
L 155.731544 105.104831 
L 157.625502 104.283912 
L 159.519459 92.791038 
L 161.413416 90.328279 
" style="fill:none;stroke:#bcbd22;stroke-linecap:square;stroke-opacity:0.5;"/>
   </g>
   <g id="line2d_37">
    <path clip-path="url(#p80dabdae2f)" d="M 64.821588 44.356783 
L 66.715545 44.356783 
L 68.609503 44.356783 
L 70.50346 44.356783 
L 72.397418 44.356783 
L 74.291375 44.356783 
L 76.185333 44.356783 
L 78.07929 44.356783 
L 79.973247 45.177702 
L 81.867205 45.177702 
L 83.761162 41.073105 
L 85.65512 41.894024 
L 87.549077 42.714944 
L 89.443034 41.894024 
L 91.336992 41.894024 
L 93.230949 45.177702 
L 95.124907 45.177702 
L 97.018864 41.894024 
L 98.912822 41.073105 
L 100.806779 41.894024 
L 102.700736 41.073105 
L 104.594694 41.073105 
L 106.488651 43.535863 
L 108.382609 44.356783 
L 110.276566 41.894024 
L 112.170523 42.714944 
L 114.064481 42.714944 
L 115.958438 41.894024 
L 117.852396 41.894024 
L 119.746353 43.535863 
L 121.640311 43.535863 
L 123.534268 42.714944 
L 125.428225 42.714944 
L 127.322183 43.535863 
L 129.21614 43.535863 
L 131.110098 41.894024 
L 133.004055 40.252185 
L 134.898013 41.894024 
L 136.79197 33.684828 
L 138.685927 24.654713 
L 140.579885 20.550115 
L 142.473842 18.087357 
L 144.3678 14.803678 
L 146.261757 24.654713 
L 148.155714 29.580231 
L 150.049672 18.087357 
L 151.943629 16.445517 
L 153.837587 18.087357 
L 155.731544 16.445517 
L 157.625502 13.982759 
L 159.519459 23.833794 
L 161.413416 29.580231 
" style="fill:none;stroke:#17becf;stroke-linecap:square;stroke-opacity:0.5;"/>
   </g>
   <g id="patch_80">
    <path d="M 57.17 126.44874 
L 57.17 11.52 
" style="fill:none;stroke:#000000;stroke-linecap:square;stroke-linejoin:miter;stroke-width:0.8;"/>
   </g>
   <g id="patch_81">
    <path d="M 208.83811 126.44874 
L 208.83811 11.52 
" style="fill:none;stroke:#000000;stroke-linecap:square;stroke-linejoin:miter;stroke-width:0.8;"/>
   </g>
   <g id="patch_82">
    <path d="M 57.17 126.44874 
L 208.83811 126.44874 
" style="fill:none;stroke:#000000;stroke-linecap:square;stroke-linejoin:miter;stroke-width:0.8;"/>
   </g>
   <g id="patch_83">
    <path d="M 57.17 11.52 
L 208.83811 11.52 
" style="fill:none;stroke:#000000;stroke-linecap:square;stroke-linejoin:miter;stroke-width:0.8;"/>
   </g>
  </g>
 </g>
 <defs>
  <clipPath id="p80dabdae2f">
   <rect height="114.92874" width="151.66811" x="57.17" y="11.52"/>
  </clipPath>
 </defs>
</svg>
