<?xml version="1.0" encoding="utf-8" standalone="no"?>
<!DOCTYPE svg PUBLIC "-//W3C//DTD SVG 1.1//EN"
  "http://www.w3.org/Graphics/SVG/1.1/DTD/svg11.dtd">
<!-- Created with matplotlib (https://matplotlib.org/) -->
<svg height="170.07874pt" version="1.1" viewBox="0 0 255.11811 170.07874" width="255.11811pt" xmlns="http://www.w3.org/2000/svg" xmlns:xlink="http://www.w3.org/1999/xlink">
 <defs>
  <style type="text/css">
*{stroke-linecap:butt;stroke-linejoin:round;}
  </style>
 </defs>
 <g id="figure_1">
  <g id="patch_1">
   <path d="M 0 170.07874 
L 255.11811 170.07874 
L 255.11811 0 
L 0 0 
z
" style="fill:#ffffff;"/>
  </g>
  <g id="axes_1">
   <g id="patch_2">
    <path d="M 42.05 126.44874 
L 208.83811 126.44874 
L 208.83811 11.52 
L 42.05 11.52 
z
" style="fill:#ffffff;"/>
   </g>
   <g id="PolyCollection_1">
    <defs>
     <path d="M 50.464385 -43.63 
L 50.464385 -43.63 
L 52.547154 -43.63 
L 54.629922 -43.63001 
L 56.712691 -43.630044 
L 58.79546 -43.630122 
L 60.878228 -43.630267 
L 62.960997 -43.630501 
L 65.043765 -43.630842 
L 67.126534 -43.631314 
L 69.209303 -43.631942 
L 71.292071 -43.63276 
L 73.37484 -43.633809 
L 75.457608 -43.635154 
L 77.540377 -43.636881 
L 79.623146 -43.639069 
L 81.705914 -43.641812 
L 83.788683 -43.645293 
L 85.871452 -43.649659 
L 87.95422 -43.655311 
L 90.036989 -43.662505 
L 92.119757 -43.671527 
L 94.202526 -43.682985 
L 96.285295 -43.697351 
L 98.368063 -43.71523 
L 100.450832 -43.737326 
L 102.5336 -43.766174 
L 104.616369 -43.80282 
L 106.699138 -43.848998 
L 108.781906 -43.906849 
L 110.864675 -43.981248 
L 112.947443 -44.075479 
L 115.030212 -44.191756 
L 117.112981 -44.341116 
L 119.195749 -44.533907 
L 121.278518 -44.771497 
L 123.361287 -45.059054 
L 125.444055 -45.423329 
L 127.526824 -45.878811 
L 129.609592 -46.444138 
L 131.692361 -47.186036 
L 133.77513 -48.27031 
L 135.857898 -49.779893 
L 137.940667 -51.732718 
L 140.023435 -54.074734 
L 142.106204 -56.78281 
L 144.188973 -59.803072 
L 146.271741 -63.02479 
L 148.35451 -66.314153 
L 150.437278 -69.664328 
L 152.520047 -73.016093 
L 154.602816 -76.136134 
L 156.685584 -79.065021 
L 156.685584 -105.956381 
L 156.685584 -105.956381 
L 154.602816 -100.043981 
L 152.520047 -94.07692 
L 150.437278 -87.893073 
L 148.35451 -81.572218 
L 146.271741 -75.32381 
L 144.188973 -69.462514 
L 142.106204 -64.082361 
L 140.023435 -59.463693 
L 137.940667 -55.696068 
L 135.857898 -52.855712 
L 133.77513 -50.761462 
L 131.692361 -49.261873 
L 129.609592 -48.151971 
L 127.526824 -47.317877 
L 125.444055 -46.663496 
L 123.361287 -46.122679 
L 121.278518 -45.676861 
L 119.195749 -45.321335 
L 117.112981 -45.030796 
L 115.030212 -44.794152 
L 112.947443 -44.594962 
L 110.864675 -44.437526 
L 108.781906 -44.308193 
L 106.699138 -44.195905 
L 104.616369 -44.103556 
L 102.5336 -44.025455 
L 100.450832 -43.96195 
L 98.368063 -43.908725 
L 96.285295 -43.863225 
L 94.202526 -43.825186 
L 92.119757 -43.79308 
L 90.036989 -43.765869 
L 87.95422 -43.742846 
L 85.871452 -43.722624 
L 83.788683 -43.705868 
L 81.705914 -43.691533 
L 79.623146 -43.679224 
L 77.540377 -43.66883 
L 75.457608 -43.660134 
L 73.37484 -43.652928 
L 71.292071 -43.646984 
L 69.209303 -43.642155 
L 67.126534 -43.638307 
L 65.043765 -43.635349 
L 62.960997 -43.633182 
L 60.878228 -43.631695 
L 58.79546 -43.630773 
L 56.712691 -43.630278 
L 54.629922 -43.630064 
L 52.547154 -43.63 
L 50.464385 -43.63 
z
" id="mcb1bdb45b2" style="stroke:#6495ed;stroke-opacity:0.4;"/>
    </defs>
    <g clip-path="url(#pe50a268518)">
     <use style="fill:#6495ed;fill-opacity:0.4;stroke:#6495ed;stroke-opacity:0.4;" x="0" xlink:href="#mcb1bdb45b2" y="170.07874"/>
    </g>
   </g>
   <g id="PolyCollection_2">
    <defs>
     <path d="M 50.464385 -43.63 
L 50.464385 -43.63 
L 52.547154 -43.63 
L 54.629922 -43.63002 
L 56.712691 -43.630089 
L 58.79546 -43.630247 
L 60.878228 -43.630542 
L 62.960997 -43.631018 
L 65.043765 -43.631711 
L 67.126534 -43.632664 
L 69.209303 -43.633916 
L 71.292071 -43.635523 
L 73.37484 -43.637548 
L 75.457608 -43.640098 
L 77.540377 -43.643259 
L 79.623146 -43.64717 
L 81.705914 -43.652026 
L 83.788683 -43.657923 
L 85.871452 -43.665105 
L 87.95422 -43.674024 
L 90.036989 -43.684898 
L 92.119757 -43.698306 
L 94.202526 -43.714967 
L 96.285295 -43.735404 
L 98.368063 -43.760586 
L 100.450832 -43.791535 
L 102.5336 -43.829483 
L 104.616369 -43.876666 
L 106.699138 -43.935353 
L 108.781906 -44.00852 
L 110.864675 -44.099522 
L 112.947443 -44.213496 
L 115.030212 -44.354674 
L 117.112981 -44.527739 
L 119.195749 -44.743231 
L 121.278518 -45.012024 
L 123.361287 -45.347193 
L 125.444055 -45.752322 
L 127.526824 -46.260986 
L 129.609592 -46.904661 
L 131.692361 -47.744939 
L 133.77513 -48.954061 
L 135.857898 -50.616603 
L 137.940667 -52.818816 
L 140.023435 -55.543657 
L 142.106204 -58.756538 
L 144.188973 -62.358883 
L 146.271741 -66.250051 
L 148.35451 -70.337353 
L 150.437278 -74.472408 
L 152.520047 -78.559796 
L 154.602816 -82.502102 
L 156.685584 -86.24123 
L 156.685584 -95.342739 
L 156.685584 -95.342739 
L 154.602816 -90.72144 
L 152.520047 -85.804549 
L 150.437278 -80.731333 
L 148.35451 -75.553518 
L 146.271741 -70.506833 
L 144.188973 -65.665628 
L 142.106204 -61.228277 
L 140.023435 -57.381781 
L 137.940667 -54.183922 
L 135.857898 -51.669461 
L 133.77513 -49.810244 
L 131.692361 -48.453146 
L 129.609592 -47.485276 
L 127.526824 -46.740473 
L 125.444055 -46.1545 
L 123.361287 -45.692632 
L 121.278518 -45.317618 
L 119.195749 -45.012556 
L 117.112981 -44.759584 
L 115.030212 -44.558058 
L 112.947443 -44.392444 
L 110.864675 -44.257214 
L 108.781906 -44.145742 
L 106.699138 -44.054578 
L 104.616369 -43.979956 
L 102.5336 -43.919067 
L 100.450832 -43.868456 
L 98.368063 -43.826548 
L 96.285295 -43.791924 
L 94.202526 -43.763103 
L 92.119757 -43.739159 
L 90.036989 -43.719199 
L 87.95422 -43.702757 
L 85.871452 -43.68914 
L 83.788683 -43.677773 
L 81.705914 -43.668306 
L 79.623146 -43.660315 
L 77.540377 -43.653675 
L 75.457608 -43.648189 
L 73.37484 -43.643719 
L 71.292071 -43.640094 
L 69.209303 -43.637198 
L 67.126534 -43.634904 
L 65.043765 -43.633153 
L 62.960997 -43.631876 
L 60.878228 -43.630999 
L 58.79546 -43.630456 
L 56.712691 -43.630164 
L 54.629922 -43.630038 
L 52.547154 -43.63 
L 50.464385 -43.63 
z
" id="m2c9da9c8aa" style="stroke:#6495ed;stroke-opacity:0.6;"/>
    </defs>
    <g clip-path="url(#pe50a268518)">
     <use style="fill:#6495ed;fill-opacity:0.6;stroke:#6495ed;stroke-opacity:0.6;" x="0" xlink:href="#m2c9da9c8aa" y="170.07874"/>
    </g>
   </g>
   <g id="PolyCollection_3">
    <defs>
     <path d="M 156.685584 -105.956381 
L 156.685584 -79.065021 
L 158.768353 -81.644171 
L 160.851121 -83.938551 
L 162.93389 -85.870221 
L 165.016659 -87.342298 
L 167.099427 -88.325543 
L 169.182196 -88.835438 
L 171.264965 -88.977477 
L 173.347733 -88.713925 
L 175.430502 -88.019104 
L 177.51327 -86.930007 
L 179.596039 -85.592522 
L 181.678808 -84.094038 
L 183.761576 -82.390254 
L 185.844345 -80.56596 
L 187.927113 -78.606447 
L 190.009882 -76.616652 
L 192.092651 -74.474828 
L 194.175419 -72.454084 
L 196.258188 -70.353846 
L 198.340956 -68.420834 
L 200.423725 -66.492806 
L 200.423725 -156.326719 
L 200.423725 -156.326719 
L 198.340956 -157.153905 
L 196.258188 -157.592213 
L 194.175419 -156.791184 
L 192.092651 -156.858848 
L 190.009882 -157.741526 
L 187.927113 -158.55874 
L 185.844345 -158.241002 
L 183.761576 -157.141988 
L 181.678808 -154.639897 
L 179.596039 -152.516031 
L 177.51327 -149.117598 
L 175.430502 -145.969817 
L 173.347733 -143.130157 
L 171.264965 -139.392821 
L 169.182196 -134.772177 
L 167.099427 -130.22886 
L 165.016659 -126.320998 
L 162.93389 -121.925792 
L 160.851121 -117.015983 
L 158.768353 -111.498981 
L 156.685584 -105.956381 
z
" id="m432b7a7616" style="stroke:#228b22;stroke-opacity:0.4;"/>
    </defs>
    <g clip-path="url(#pe50a268518)">
     <use style="fill:#228b22;fill-opacity:0.4;stroke:#228b22;stroke-opacity:0.4;" x="0" xlink:href="#m432b7a7616" y="170.07874"/>
    </g>
   </g>
   <g id="PolyCollection_4">
    <defs>
     <path d="M 156.685584 -95.342739 
L 156.685584 -86.24123 
L 158.768353 -89.607303 
L 160.851121 -92.547524 
L 162.93389 -94.989691 
L 165.016659 -96.955676 
L 167.099427 -98.519958 
L 169.182196 -99.586098 
L 171.264965 -99.926668 
L 173.347733 -99.800308 
L 175.430502 -99.247107 
L 177.51327 -98.360283 
L 179.596039 -96.994818 
L 181.678808 -95.399825 
L 183.761576 -93.523939 
L 185.844345 -91.462428 
L 187.927113 -89.32915 
L 190.009882 -86.970885 
L 192.092651 -84.525782 
L 194.175419 -82.095492 
L 196.258188 -79.620129 
L 198.340956 -77.143496 
L 200.423725 -74.718882 
L 200.423725 -91.723457 
L 200.423725 -91.723457 
L 198.340956 -94.536569 
L 196.258188 -97.340565 
L 194.175419 -100.107702 
L 192.092651 -102.775977 
L 190.009882 -105.265693 
L 187.927113 -107.689654 
L 185.844345 -109.806279 
L 183.761576 -111.745665 
L 181.678808 -113.288896 
L 179.596039 -114.449028 
L 177.51327 -115.378084 
L 175.430502 -115.694592 
L 173.347733 -115.600214 
L 171.264965 -114.95186 
L 169.182196 -113.652656 
L 167.099427 -111.997773 
L 165.016659 -109.77007 
L 162.93389 -106.900527 
L 160.851121 -103.468589 
L 158.768353 -99.608107 
L 156.685584 -95.342739 
z
" id="mf0c072301c" style="stroke:#228b22;stroke-opacity:0.6;"/>
    </defs>
    <g clip-path="url(#pe50a268518)">
     <use style="fill:#228b22;fill-opacity:0.6;stroke:#228b22;stroke-opacity:0.6;" x="0" xlink:href="#mf0c072301c" y="170.07874"/>
    </g>
   </g>
   <g id="PathCollection_1">
    <defs>
     <path d="M -0.866025 1.732051 
L 0 0.866025 
L 0.866025 1.732051 
L 1.732051 0.866025 
L 0.866025 0 
L 1.732051 -0.866025 
L 0.866025 -1.732051 
L 0 -0.866025 
L -0.866025 -1.732051 
L -1.732051 -0.866025 
L -0.866025 0 
L -1.732051 0.866025 
z
" id="m79ac9d5ea2" style="stroke:#8a2be2;"/>
    </defs>
    <g clip-path="url(#pe50a268518)">
     <use style="fill:#8a2be2;stroke:#8a2be2;" x="123.361287" xlink:href="#m79ac9d5ea2" y="23.012874"/>
    </g>
   </g>
   <g id="PathCollection_2">
    <defs>
     <path d="M 0 -1.732051 
L -0.38887 -0.535233 
L -1.647278 -0.535233 
L -0.629204 0.204441 
L -1.018074 1.401259 
L -0 0.661585 
L 1.018074 1.401259 
L 0.629204 0.204441 
L 1.647278 -0.535233 
L 0.38887 -0.535233 
z
" id="mc5d39462a2" style="stroke:#000000;"/>
    </defs>
    <g clip-path="url(#pe50a268518)">
     <use style="stroke:#000000;" x="125.444055" xlink:href="#mc5d39462a2" y="23.012874"/>
    </g>
   </g>
   <g id="PathCollection_3">
    <defs>
     <path d="M -1.732051 1.732051 
L 1.732051 1.732051 
L 1.732051 -1.732051 
L -1.732051 -1.732051 
z
" id="md5c013ebb5" style="stroke:#c71585;"/>
    </defs>
    <g clip-path="url(#pe50a268518)">
     <use style="fill:#c71585;stroke:#c71585;" x="131.692361" xlink:href="#md5c013ebb5" y="23.012874"/>
    </g>
   </g>
   <g id="PathCollection_4">
    <defs>
     <path d="M 0 -1.732051 
L -1.647278 -0.535233 
L -1.018074 1.401259 
L 1.018074 1.401259 
L 1.647278 -0.535233 
z
" id="ma0eab36cd3" style="stroke:#800000;"/>
    </defs>
    <g clip-path="url(#pe50a268518)">
     <use style="fill:#800000;stroke:#800000;" x="129.609592" xlink:href="#ma0eab36cd3" y="23.012874"/>
    </g>
   </g>
   <g id="PathCollection_5">
    <defs>
     <path d="M -0 2.44949 
L 1.469694 0 
L 0 -2.44949 
L -1.469694 -0 
z
" id="m2585ea5611" style="stroke:#556b2f;"/>
    </defs>
    <g clip-path="url(#pe50a268518)">
     <use style="fill:#556b2f;stroke:#556b2f;" x="129.609592" xlink:href="#m2585ea5611" y="28.184667"/>
    </g>
   </g>
   <g id="patch_3">
    <path clip-path="url(#pe50a268518)" d="M 49.631278 126.44874 
L 51.297493 126.44874 
L 51.297493 126.44874 
L 49.631278 126.44874 
z
" style="fill:#1f77b4;opacity:0.5;"/>
   </g>
   <g id="patch_4">
    <path clip-path="url(#pe50a268518)" d="M 51.714046 126.44874 
L 53.380261 126.44874 
L 53.380261 126.44874 
L 51.714046 126.44874 
z
" style="fill:#1f77b4;opacity:0.5;"/>
   </g>
   <g id="patch_5">
    <path clip-path="url(#pe50a268518)" d="M 53.796815 126.44874 
L 55.46303 126.44874 
L 55.46303 126.44874 
L 53.796815 126.44874 
z
" style="fill:#1f77b4;opacity:0.5;"/>
   </g>
   <g id="patch_6">
    <path clip-path="url(#pe50a268518)" d="M 55.879584 126.44874 
L 57.545798 126.44874 
L 57.545798 126.44874 
L 55.879584 126.44874 
z
" style="fill:#1f77b4;opacity:0.5;"/>
   </g>
   <g id="patch_7">
    <path clip-path="url(#pe50a268518)" d="M 57.962352 126.44874 
L 59.628567 126.44874 
L 59.628567 126.44874 
L 57.962352 126.44874 
z
" style="fill:#1f77b4;opacity:0.5;"/>
   </g>
   <g id="patch_8">
    <path clip-path="url(#pe50a268518)" d="M 60.045121 126.44874 
L 61.711336 126.44874 
L 61.711336 126.44874 
L 60.045121 126.44874 
z
" style="fill:#1f77b4;opacity:0.5;"/>
   </g>
   <g id="patch_9">
    <path clip-path="url(#pe50a268518)" d="M 62.127889 126.44874 
L 63.794104 126.44874 
L 63.794104 126.44874 
L 62.127889 126.44874 
z
" style="fill:#1f77b4;opacity:0.5;"/>
   </g>
   <g id="patch_10">
    <path clip-path="url(#pe50a268518)" d="M 64.210658 126.44874 
L 65.876873 126.44874 
L 65.876873 126.44874 
L 64.210658 126.44874 
z
" style="fill:#1f77b4;opacity:0.5;"/>
   </g>
   <g id="patch_11">
    <path clip-path="url(#pe50a268518)" d="M 66.293427 126.44874 
L 67.959642 126.44874 
L 67.959642 126.313549 
L 66.293427 126.313549 
z
" style="fill:#1f77b4;opacity:0.5;"/>
   </g>
   <g id="patch_12">
    <path clip-path="url(#pe50a268518)" d="M 68.376195 126.44874 
L 70.04241 126.44874 
L 70.04241 126.44874 
L 68.376195 126.44874 
z
" style="fill:#1f77b4;opacity:0.5;"/>
   </g>
   <g id="patch_13">
    <path clip-path="url(#pe50a268518)" d="M 70.458964 126.44874 
L 72.125179 126.44874 
L 72.125179 126.44874 
L 70.458964 126.44874 
z
" style="fill:#1f77b4;opacity:0.5;"/>
   </g>
   <g id="patch_14">
    <path clip-path="url(#pe50a268518)" d="M 72.541732 126.44874 
L 74.207947 126.44874 
L 74.207947 126.44874 
L 72.541732 126.44874 
z
" style="fill:#1f77b4;opacity:0.5;"/>
   </g>
   <g id="patch_15">
    <path clip-path="url(#pe50a268518)" d="M 74.624501 126.44874 
L 76.290716 126.44874 
L 76.290716 126.44874 
L 74.624501 126.44874 
z
" style="fill:#1f77b4;opacity:0.5;"/>
   </g>
   <g id="patch_16">
    <path clip-path="url(#pe50a268518)" d="M 76.70727 126.44874 
L 78.373485 126.44874 
L 78.373485 126.44874 
L 76.70727 126.44874 
z
" style="fill:#1f77b4;opacity:0.5;"/>
   </g>
   <g id="patch_17">
    <path clip-path="url(#pe50a268518)" d="M 78.790038 126.44874 
L 80.456253 126.44874 
L 80.456253 126.44874 
L 78.790038 126.44874 
z
" style="fill:#1f77b4;opacity:0.5;"/>
   </g>
   <g id="patch_18">
    <path clip-path="url(#pe50a268518)" d="M 80.872807 126.44874 
L 82.539022 126.44874 
L 82.539022 126.44874 
L 80.872807 126.44874 
z
" style="fill:#1f77b4;opacity:0.5;"/>
   </g>
   <g id="patch_19">
    <path clip-path="url(#pe50a268518)" d="M 82.955575 126.44874 
L 84.62179 126.44874 
L 84.62179 126.44874 
L 82.955575 126.44874 
z
" style="fill:#1f77b4;opacity:0.5;"/>
   </g>
   <g id="patch_20">
    <path clip-path="url(#pe50a268518)" d="M 85.038344 126.44874 
L 86.704559 126.44874 
L 86.704559 126.44874 
L 85.038344 126.44874 
z
" style="fill:#1f77b4;opacity:0.5;"/>
   </g>
   <g id="patch_21">
    <path clip-path="url(#pe50a268518)" d="M 87.121113 126.44874 
L 88.787328 126.44874 
L 88.787328 126.44874 
L 87.121113 126.44874 
z
" style="fill:#1f77b4;opacity:0.5;"/>
   </g>
   <g id="patch_22">
    <path clip-path="url(#pe50a268518)" d="M 89.203881 126.44874 
L 90.870096 126.44874 
L 90.870096 126.44874 
L 89.203881 126.44874 
z
" style="fill:#1f77b4;opacity:0.5;"/>
   </g>
   <g id="patch_23">
    <path clip-path="url(#pe50a268518)" d="M 91.28665 126.44874 
L 92.952865 126.44874 
L 92.952865 126.313549 
L 91.28665 126.313549 
z
" style="fill:#1f77b4;opacity:0.5;"/>
   </g>
   <g id="patch_24">
    <path clip-path="url(#pe50a268518)" d="M 93.369419 126.44874 
L 95.035633 126.44874 
L 95.035633 126.44874 
L 93.369419 126.44874 
z
" style="fill:#1f77b4;opacity:0.5;"/>
   </g>
   <g id="patch_25">
    <path clip-path="url(#pe50a268518)" d="M 95.452187 126.44874 
L 97.118402 126.44874 
L 97.118402 126.44874 
L 95.452187 126.44874 
z
" style="fill:#1f77b4;opacity:0.5;"/>
   </g>
   <g id="patch_26">
    <path clip-path="url(#pe50a268518)" d="M 97.534956 126.44874 
L 99.201171 126.44874 
L 99.201171 126.44874 
L 97.534956 126.44874 
z
" style="fill:#1f77b4;opacity:0.5;"/>
   </g>
   <g id="patch_27">
    <path clip-path="url(#pe50a268518)" d="M 99.617724 126.44874 
L 101.283939 126.44874 
L 101.283939 126.44874 
L 99.617724 126.44874 
z
" style="fill:#1f77b4;opacity:0.5;"/>
   </g>
   <g id="patch_28">
    <path clip-path="url(#pe50a268518)" d="M 101.700493 126.44874 
L 103.366708 126.44874 
L 103.366708 126.313549 
L 101.700493 126.313549 
z
" style="fill:#1f77b4;opacity:0.5;"/>
   </g>
   <g id="patch_29">
    <path clip-path="url(#pe50a268518)" d="M 103.783262 126.44874 
L 105.449476 126.44874 
L 105.449476 126.313549 
L 103.783262 126.313549 
z
" style="fill:#1f77b4;opacity:0.5;"/>
   </g>
   <g id="patch_30">
    <path clip-path="url(#pe50a268518)" d="M 105.86603 126.44874 
L 107.532245 126.44874 
L 107.532245 126.44874 
L 105.86603 126.44874 
z
" style="fill:#1f77b4;opacity:0.5;"/>
   </g>
   <g id="patch_31">
    <path clip-path="url(#pe50a268518)" d="M 107.948799 126.44874 
L 109.615014 126.44874 
L 109.615014 126.043165 
L 107.948799 126.043165 
z
" style="fill:#1f77b4;opacity:0.5;"/>
   </g>
   <g id="patch_32">
    <path clip-path="url(#pe50a268518)" d="M 110.031567 126.44874 
L 111.697782 126.44874 
L 111.697782 126.178357 
L 110.031567 126.178357 
z
" style="fill:#1f77b4;opacity:0.5;"/>
   </g>
   <g id="patch_33">
    <path clip-path="url(#pe50a268518)" d="M 112.114336 126.44874 
L 113.780551 126.44874 
L 113.780551 126.313549 
L 112.114336 126.313549 
z
" style="fill:#1f77b4;opacity:0.5;"/>
   </g>
   <g id="patch_34">
    <path clip-path="url(#pe50a268518)" d="M 114.197105 126.44874 
L 115.86332 126.44874 
L 115.86332 125.232015 
L 114.197105 125.232015 
z
" style="fill:#1f77b4;opacity:0.5;"/>
   </g>
   <g id="patch_35">
    <path clip-path="url(#pe50a268518)" d="M 116.279873 126.44874 
L 117.946088 126.44874 
L 117.946088 124.961632 
L 116.279873 124.961632 
z
" style="fill:#1f77b4;opacity:0.5;"/>
   </g>
   <g id="patch_36">
    <path clip-path="url(#pe50a268518)" d="M 118.362642 126.44874 
L 120.028857 126.44874 
L 120.028857 126.043165 
L 118.362642 126.043165 
z
" style="fill:#1f77b4;opacity:0.5;"/>
   </g>
   <g id="patch_37">
    <path clip-path="url(#pe50a268518)" d="M 120.44541 126.44874 
L 122.111625 126.44874 
L 122.111625 124.420865 
L 120.44541 124.420865 
z
" style="fill:#1f77b4;opacity:0.5;"/>
   </g>
   <g id="patch_38">
    <path clip-path="url(#pe50a268518)" d="M 122.528179 126.44874 
L 124.194394 126.44874 
L 124.194394 124.691249 
L 122.528179 124.691249 
z
" style="fill:#1f77b4;opacity:0.5;"/>
   </g>
   <g id="patch_39">
    <path clip-path="url(#pe50a268518)" d="M 124.610948 126.44874 
L 126.277163 126.44874 
L 126.277163 124.015291 
L 124.610948 124.015291 
z
" style="fill:#1f77b4;opacity:0.5;"/>
   </g>
   <g id="patch_40">
    <path clip-path="url(#pe50a268518)" d="M 126.693716 126.44874 
L 128.359931 126.44874 
L 128.359931 124.82644 
L 126.693716 124.82644 
z
" style="fill:#1f77b4;opacity:0.5;"/>
   </g>
   <g id="patch_41">
    <path clip-path="url(#pe50a268518)" d="M 128.776485 126.44874 
L 130.4427 126.44874 
L 130.4427 121.581841 
L 128.776485 121.581841 
z
" style="fill:#1f77b4;opacity:0.5;"/>
   </g>
   <g id="patch_42">
    <path clip-path="url(#pe50a268518)" d="M 130.859254 126.44874 
L 132.525468 126.44874 
L 132.525468 123.609716 
L 130.859254 123.609716 
z
" style="fill:#1f77b4;opacity:0.5;"/>
   </g>
   <g id="patch_43">
    <path clip-path="url(#pe50a268518)" d="M 132.942022 126.44874 
L 134.608237 126.44874 
L 134.608237 122.798566 
L 132.942022 122.798566 
z
" style="fill:#1f77b4;opacity:0.5;"/>
   </g>
   <g id="patch_44">
    <path clip-path="url(#pe50a268518)" d="M 135.024791 126.44874 
L 136.691006 126.44874 
L 136.691006 117.120517 
L 135.024791 117.120517 
z
" style="fill:#1f77b4;opacity:0.5;"/>
   </g>
   <g id="patch_45">
    <path clip-path="url(#pe50a268518)" d="M 137.107559 126.44874 
L 138.773774 126.44874 
L 138.773774 109.14421 
L 137.107559 109.14421 
z
" style="fill:#1f77b4;opacity:0.5;"/>
   </g>
   <g id="patch_46">
    <path clip-path="url(#pe50a268518)" d="M 139.190328 126.44874 
L 140.856543 126.44874 
L 140.856543 115.903792 
L 139.190328 115.903792 
z
" style="fill:#1f77b4;opacity:0.5;"/>
   </g>
   <g id="patch_47">
    <path clip-path="url(#pe50a268518)" d="M 141.273097 126.44874 
L 142.939311 126.44874 
L 142.939311 111.307276 
L 141.273097 111.307276 
z
" style="fill:#1f77b4;opacity:0.5;"/>
   </g>
   <g id="patch_48">
    <path clip-path="url(#pe50a268518)" d="M 143.355865 126.44874 
L 145.02208 126.44874 
L 145.02208 111.307276 
L 143.355865 111.307276 
z
" style="fill:#1f77b4;opacity:0.5;"/>
   </g>
   <g id="patch_49">
    <path clip-path="url(#pe50a268518)" d="M 145.438634 126.44874 
L 147.104849 126.44874 
L 147.104849 101.303094 
L 145.438634 101.303094 
z
" style="fill:#1f77b4;opacity:0.5;"/>
   </g>
   <g id="patch_50">
    <path clip-path="url(#pe50a268518)" d="M 147.521402 126.44874 
L 149.187617 126.44874 
L 149.187617 94.002746 
L 147.521402 94.002746 
z
" style="fill:#1f77b4;opacity:0.5;"/>
   </g>
   <g id="patch_51">
    <path clip-path="url(#pe50a268518)" d="M 149.604171 126.44874 
L 151.270386 126.44874 
L 151.270386 95.21947 
L 149.604171 95.21947 
z
" style="fill:#1f77b4;opacity:0.5;"/>
   </g>
   <g id="patch_52">
    <path clip-path="url(#pe50a268518)" d="M 151.68694 126.44874 
L 153.353154 126.44874 
L 153.353154 77.10379 
L 151.68694 77.10379 
z
" style="fill:#1f77b4;opacity:0.5;"/>
   </g>
   <g id="patch_53">
    <path clip-path="url(#pe50a268518)" d="M 153.769708 126.44874 
L 155.435923 126.44874 
L 155.435923 86.026439 
L 153.769708 86.026439 
z
" style="fill:#1f77b4;opacity:0.5;"/>
   </g>
   <g id="patch_54">
    <path clip-path="url(#pe50a268518)" d="M 155.852477 126.44874 
L 157.518692 126.44874 
L 157.518692 83.322606 
L 155.852477 83.322606 
z
" style="fill:#1f77b4;opacity:0.5;"/>
   </g>
   <g id="patch_55">
    <path clip-path="url(#pe50a268518)" d="M 157.935245 126.44874 
L 159.60146 126.44874 
L 159.60146 86.97278 
L 157.935245 86.97278 
z
" style="fill:#1f77b4;opacity:0.5;"/>
   </g>
   <g id="patch_56">
    <path clip-path="url(#pe50a268518)" d="M 160.018014 126.44874 
L 161.684229 126.44874 
L 161.684229 69.938633 
L 160.018014 69.938633 
z
" style="fill:#1f77b4;opacity:0.5;"/>
   </g>
   <g id="patch_57">
    <path clip-path="url(#pe50a268518)" d="M 162.100783 126.44874 
L 163.766998 126.44874 
L 163.766998 58.98811 
L 162.100783 58.98811 
z
" style="fill:#1f77b4;opacity:0.5;"/>
   </g>
   <g id="patch_58">
    <path clip-path="url(#pe50a268518)" d="M 164.183551 126.44874 
L 165.849766 126.44874 
L 165.849766 57.636193 
L 164.183551 57.636193 
z
" style="fill:#1f77b4;opacity:0.5;"/>
   </g>
   <g id="patch_59">
    <path clip-path="url(#pe50a268518)" d="M 166.26632 126.44874 
L 167.932535 126.44874 
L 167.932535 62.773476 
L 166.26632 62.773476 
z
" style="fill:#1f77b4;opacity:0.5;"/>
   </g>
   <g id="patch_60">
    <path clip-path="url(#pe50a268518)" d="M 168.349088 126.44874 
L 170.015303 126.44874 
L 170.015303 -144.475315 
L 168.349088 -144.475315 
z
" style="fill:#1f77b4;opacity:0.5;"/>
   </g>
   <g id="patch_61">
    <path clip-path="url(#pe50a268518)" d="M 170.431857 126.44874 
L 172.098072 126.44874 
L 172.098072 -15.908061 
L 170.431857 -15.908061 
z
" style="fill:#1f77b4;opacity:0.5;"/>
   </g>
   <g id="patch_62">
    <path clip-path="url(#pe50a268518)" d="M 172.514626 126.44874 
L 174.180841 126.44874 
L 174.180841 56.419468 
L 172.514626 56.419468 
z
" style="fill:#1f77b4;opacity:0.5;"/>
   </g>
   <g id="patch_63">
    <path clip-path="url(#pe50a268518)" d="M 174.597394 126.44874 
L 176.263609 126.44874 
L 176.263609 13.8341 
L 174.597394 13.8341 
z
" style="fill:#1f77b4;opacity:0.5;"/>
   </g>
   <g id="patch_64">
    <path clip-path="url(#pe50a268518)" d="M 176.680163 126.44874 
L 178.346378 126.44874 
L 178.346378 -65.11782 
L 176.680163 -65.11782 
z
" style="fill:#1f77b4;opacity:0.5;"/>
   </g>
   <g id="patch_65">
    <path clip-path="url(#pe50a268518)" d="M 178.762932 126.44874 
L 180.429146 126.44874 
L 180.429146 53.310061 
L 178.762932 53.310061 
z
" style="fill:#1f77b4;opacity:0.5;"/>
   </g>
   <g id="patch_66">
    <path clip-path="url(#pe50a268518)" d="M 180.8457 126.44874 
L 182.511915 126.44874 
L 182.511915 -54.843255 
L 180.8457 -54.843255 
z
" style="fill:#1f77b4;opacity:0.5;"/>
   </g>
   <g id="patch_67">
    <path clip-path="url(#pe50a268518)" d="M 182.928469 126.44874 
L 184.594684 126.44874 
L 184.594684 -6.985413 
L 182.928469 -6.985413 
z
" style="fill:#1f77b4;opacity:0.5;"/>
   </g>
   <g id="patch_68">
    <path clip-path="url(#pe50a268518)" d="M 185.011237 126.44874 
L 186.677452 126.44874 
L 186.677452 40.602046 
L 185.011237 40.602046 
z
" style="fill:#1f77b4;opacity:0.5;"/>
   </g>
   <g id="patch_69">
    <path clip-path="url(#pe50a268518)" d="M 187.094006 126.44874 
L 188.760221 126.44874 
L 188.760221 50.606228 
L 187.094006 50.606228 
z
" style="fill:#1f77b4;opacity:0.5;"/>
   </g>
   <g id="patch_70">
    <path clip-path="url(#pe50a268518)" d="M 189.176775 126.44874 
L 190.842989 126.44874 
L 190.842989 48.848736 
L 189.176775 48.848736 
z
" style="fill:#1f77b4;opacity:0.5;"/>
   </g>
   <g id="patch_71">
    <path clip-path="url(#pe50a268518)" d="M 191.259543 126.44874 
L 192.925758 126.44874 
L 192.925758 23.432707 
L 191.259543 23.432707 
z
" style="fill:#1f77b4;opacity:0.5;"/>
   </g>
   <g id="patch_72">
    <path clip-path="url(#pe50a268518)" d="M 193.342312 126.44874 
L 195.008527 126.44874 
L 195.008527 -67.956844 
L 193.342312 -67.956844 
z
" style="fill:#1f77b4;opacity:0.5;"/>
   </g>
   <g id="patch_73">
    <path clip-path="url(#pe50a268518)" d="M 195.42508 126.44874 
L 197.091295 126.44874 
L 197.091295 24.649432 
L 195.42508 24.649432 
z
" style="fill:#1f77b4;opacity:0.5;"/>
   </g>
   <g id="patch_74">
    <path clip-path="url(#pe50a268518)" d="M 197.507849 126.44874 
L 199.174064 126.44874 
L 199.174064 23.567899 
L 197.507849 23.567899 
z
" style="fill:#1f77b4;opacity:0.5;"/>
   </g>
   <g id="patch_75">
    <path clip-path="url(#pe50a268518)" d="M 199.590618 126.44874 
L 201.256832 126.44874 
L 201.256832 39.655705 
L 199.590618 39.655705 
z
" style="fill:#1f77b4;opacity:0.5;"/>
   </g>
   <g id="matplotlib.axis_1">
    <g id="xtick_1">
     <g id="line2d_1">
      <defs>
       <path d="M 0 0 
L 0 3.5 
" id="m5a564421c0" style="stroke:#000000;stroke-width:0.8;"/>
      </defs>
      <g>
       <use style="stroke:#000000;stroke-width:0.8;" x="200.423725" xlink:href="#m5a564421c0" y="126.44874"/>
      </g>
     </g>
     <g id="text_1">
      <!-- 19 Apr -->
      <defs>
       <path d="M 12.40625 8.296875 
L 28.515625 8.296875 
L 28.515625 63.921875 
L 10.984375 60.40625 
L 10.984375 69.390625 
L 28.421875 72.90625 
L 38.28125 72.90625 
L 38.28125 8.296875 
L 54.390625 8.296875 
L 54.390625 0 
L 12.40625 0 
z
" id="DejaVuSans-49"/>
       <path d="M 10.984375 1.515625 
L 10.984375 10.5 
Q 14.703125 8.734375 18.5 7.8125 
Q 22.3125 6.890625 25.984375 6.890625 
Q 35.75 6.890625 40.890625 13.453125 
Q 46.046875 20.015625 46.78125 33.40625 
Q 43.953125 29.203125 39.59375 26.953125 
Q 35.25 24.703125 29.984375 24.703125 
Q 19.046875 24.703125 12.671875 31.3125 
Q 6.296875 37.9375 6.296875 49.421875 
Q 6.296875 60.640625 12.9375 67.421875 
Q 19.578125 74.21875 30.609375 74.21875 
Q 43.265625 74.21875 49.921875 64.515625 
Q 56.59375 54.828125 56.59375 36.375 
Q 56.59375 19.140625 48.40625 8.859375 
Q 40.234375 -1.421875 26.421875 -1.421875 
Q 22.703125 -1.421875 18.890625 -0.6875 
Q 15.09375 0.046875 10.984375 1.515625 
z
M 30.609375 32.421875 
Q 37.25 32.421875 41.125 36.953125 
Q 45.015625 41.5 45.015625 49.421875 
Q 45.015625 57.28125 41.125 61.84375 
Q 37.25 66.40625 30.609375 66.40625 
Q 23.96875 66.40625 20.09375 61.84375 
Q 16.21875 57.28125 16.21875 49.421875 
Q 16.21875 41.5 20.09375 36.953125 
Q 23.96875 32.421875 30.609375 32.421875 
z
" id="DejaVuSans-57"/>
       <path id="DejaVuSans-32"/>
       <path d="M 34.1875 63.1875 
L 20.796875 26.90625 
L 47.609375 26.90625 
z
M 28.609375 72.90625 
L 39.796875 72.90625 
L 67.578125 0 
L 57.328125 0 
L 50.6875 18.703125 
L 17.828125 18.703125 
L 11.1875 0 
L 0.78125 0 
z
" id="DejaVuSans-65"/>
       <path d="M 18.109375 8.203125 
L 18.109375 -20.796875 
L 9.078125 -20.796875 
L 9.078125 54.6875 
L 18.109375 54.6875 
L 18.109375 46.390625 
Q 20.953125 51.265625 25.265625 53.625 
Q 29.59375 56 35.59375 56 
Q 45.5625 56 51.78125 48.09375 
Q 58.015625 40.1875 58.015625 27.296875 
Q 58.015625 14.40625 51.78125 6.484375 
Q 45.5625 -1.421875 35.59375 -1.421875 
Q 29.59375 -1.421875 25.265625 0.953125 
Q 20.953125 3.328125 18.109375 8.203125 
z
M 48.6875 27.296875 
Q 48.6875 37.203125 44.609375 42.84375 
Q 40.53125 48.484375 33.40625 48.484375 
Q 26.265625 48.484375 22.1875 42.84375 
Q 18.109375 37.203125 18.109375 27.296875 
Q 18.109375 17.390625 22.1875 11.75 
Q 26.265625 6.109375 33.40625 6.109375 
Q 40.53125 6.109375 44.609375 11.75 
Q 48.6875 17.390625 48.6875 27.296875 
z
" id="DejaVuSans-112"/>
       <path d="M 41.109375 46.296875 
Q 39.59375 47.171875 37.8125 47.578125 
Q 36.03125 48 33.890625 48 
Q 26.265625 48 22.1875 43.046875 
Q 18.109375 38.09375 18.109375 28.8125 
L 18.109375 0 
L 9.078125 0 
L 9.078125 54.6875 
L 18.109375 54.6875 
L 18.109375 46.1875 
Q 20.953125 51.171875 25.484375 53.578125 
Q 30.03125 56 36.53125 56 
Q 37.453125 56 38.578125 55.875 
Q 39.703125 55.765625 41.0625 55.515625 
z
" id="DejaVuSans-114"/>
      </defs>
      <g transform="translate(202.631225 160.01124)rotate(-90)scale(0.08 -0.08)">
       <use xlink:href="#DejaVuSans-49"/>
       <use x="63.623047" xlink:href="#DejaVuSans-57"/>
       <use x="127.246094" xlink:href="#DejaVuSans-32"/>
       <use x="159.033203" xlink:href="#DejaVuSans-65"/>
       <use x="227.441406" xlink:href="#DejaVuSans-112"/>
       <use x="290.917969" xlink:href="#DejaVuSans-114"/>
      </g>
     </g>
    </g>
    <g id="xtick_2">
     <g id="line2d_2">
      <g>
       <use style="stroke:#000000;stroke-width:0.8;" x="185.844345" xlink:href="#m5a564421c0" y="126.44874"/>
      </g>
     </g>
     <g id="text_2">
      <!-- 12 Apr -->
      <defs>
       <path d="M 19.1875 8.296875 
L 53.609375 8.296875 
L 53.609375 0 
L 7.328125 0 
L 7.328125 8.296875 
Q 12.9375 14.109375 22.625 23.890625 
Q 32.328125 33.6875 34.8125 36.53125 
Q 39.546875 41.84375 41.421875 45.53125 
Q 43.3125 49.21875 43.3125 52.78125 
Q 43.3125 58.59375 39.234375 62.25 
Q 35.15625 65.921875 28.609375 65.921875 
Q 23.96875 65.921875 18.8125 64.3125 
Q 13.671875 62.703125 7.8125 59.421875 
L 7.8125 69.390625 
Q 13.765625 71.78125 18.9375 73 
Q 24.125 74.21875 28.421875 74.21875 
Q 39.75 74.21875 46.484375 68.546875 
Q 53.21875 62.890625 53.21875 53.421875 
Q 53.21875 48.921875 51.53125 44.890625 
Q 49.859375 40.875 45.40625 35.40625 
Q 44.1875 33.984375 37.640625 27.21875 
Q 31.109375 20.453125 19.1875 8.296875 
z
" id="DejaVuSans-50"/>
      </defs>
      <g transform="translate(188.051845 160.01124)rotate(-90)scale(0.08 -0.08)">
       <use xlink:href="#DejaVuSans-49"/>
       <use x="63.623047" xlink:href="#DejaVuSans-50"/>
       <use x="127.246094" xlink:href="#DejaVuSans-32"/>
       <use x="159.033203" xlink:href="#DejaVuSans-65"/>
       <use x="227.441406" xlink:href="#DejaVuSans-112"/>
       <use x="290.917969" xlink:href="#DejaVuSans-114"/>
      </g>
     </g>
    </g>
    <g id="xtick_3">
     <g id="line2d_3">
      <g>
       <use style="stroke:#000000;stroke-width:0.8;" x="171.264965" xlink:href="#m5a564421c0" y="126.44874"/>
      </g>
     </g>
     <g id="text_3">
      <!-- 5 Apr -->
      <defs>
       <path d="M 10.796875 72.90625 
L 49.515625 72.90625 
L 49.515625 64.59375 
L 19.828125 64.59375 
L 19.828125 46.734375 
Q 21.96875 47.46875 24.109375 47.828125 
Q 26.265625 48.1875 28.421875 48.1875 
Q 40.625 48.1875 47.75 41.5 
Q 54.890625 34.8125 54.890625 23.390625 
Q 54.890625 11.625 47.5625 5.09375 
Q 40.234375 -1.421875 26.90625 -1.421875 
Q 22.3125 -1.421875 17.546875 -0.640625 
Q 12.796875 0.140625 7.71875 1.703125 
L 7.71875 11.625 
Q 12.109375 9.234375 16.796875 8.0625 
Q 21.484375 6.890625 26.703125 6.890625 
Q 35.15625 6.890625 40.078125 11.328125 
Q 45.015625 15.765625 45.015625 23.390625 
Q 45.015625 31 40.078125 35.4375 
Q 35.15625 39.890625 26.703125 39.890625 
Q 22.75 39.890625 18.8125 39.015625 
Q 14.890625 38.140625 10.796875 36.28125 
z
" id="DejaVuSans-53"/>
      </defs>
      <g transform="translate(173.472465 154.92124)rotate(-90)scale(0.08 -0.08)">
       <use xlink:href="#DejaVuSans-53"/>
       <use x="63.623047" xlink:href="#DejaVuSans-32"/>
       <use x="95.410156" xlink:href="#DejaVuSans-65"/>
       <use x="163.818359" xlink:href="#DejaVuSans-112"/>
       <use x="227.294922" xlink:href="#DejaVuSans-114"/>
      </g>
     </g>
    </g>
    <g id="xtick_4">
     <g id="line2d_4">
      <g>
       <use style="stroke:#000000;stroke-width:0.8;" x="156.685584" xlink:href="#m5a564421c0" y="126.44874"/>
      </g>
     </g>
     <g id="text_4">
      <!-- 29 Mar -->
      <defs>
       <path d="M 9.8125 72.90625 
L 24.515625 72.90625 
L 43.109375 23.296875 
L 61.8125 72.90625 
L 76.515625 72.90625 
L 76.515625 0 
L 66.890625 0 
L 66.890625 64.015625 
L 48.09375 14.015625 
L 38.1875 14.015625 
L 19.390625 64.015625 
L 19.390625 0 
L 9.8125 0 
z
" id="DejaVuSans-77"/>
       <path d="M 34.28125 27.484375 
Q 23.390625 27.484375 19.1875 25 
Q 14.984375 22.515625 14.984375 16.5 
Q 14.984375 11.71875 18.140625 8.90625 
Q 21.296875 6.109375 26.703125 6.109375 
Q 34.1875 6.109375 38.703125 11.40625 
Q 43.21875 16.703125 43.21875 25.484375 
L 43.21875 27.484375 
z
M 52.203125 31.203125 
L 52.203125 0 
L 43.21875 0 
L 43.21875 8.296875 
Q 40.140625 3.328125 35.546875 0.953125 
Q 30.953125 -1.421875 24.3125 -1.421875 
Q 15.921875 -1.421875 10.953125 3.296875 
Q 6 8.015625 6 15.921875 
Q 6 25.140625 12.171875 29.828125 
Q 18.359375 34.515625 30.609375 34.515625 
L 43.21875 34.515625 
L 43.21875 35.40625 
Q 43.21875 41.609375 39.140625 45 
Q 35.0625 48.390625 27.6875 48.390625 
Q 23 48.390625 18.546875 47.265625 
Q 14.109375 46.140625 10.015625 43.890625 
L 10.015625 52.203125 
Q 14.9375 54.109375 19.578125 55.046875 
Q 24.21875 56 28.609375 56 
Q 40.484375 56 46.34375 49.84375 
Q 52.203125 43.703125 52.203125 31.203125 
z
" id="DejaVuSans-97"/>
      </defs>
      <g transform="translate(158.893084 161.26499)rotate(-90)scale(0.08 -0.08)">
       <use xlink:href="#DejaVuSans-50"/>
       <use x="63.623047" xlink:href="#DejaVuSans-57"/>
       <use x="127.246094" xlink:href="#DejaVuSans-32"/>
       <use x="159.033203" xlink:href="#DejaVuSans-77"/>
       <use x="245.3125" xlink:href="#DejaVuSans-97"/>
       <use x="306.591797" xlink:href="#DejaVuSans-114"/>
      </g>
     </g>
    </g>
    <g id="xtick_5">
     <g id="line2d_5">
      <g>
       <use style="stroke:#000000;stroke-width:0.8;" x="142.106204" xlink:href="#m5a564421c0" y="126.44874"/>
      </g>
     </g>
     <g id="text_5">
      <!-- 22 Mar -->
      <g transform="translate(144.313704 161.26499)rotate(-90)scale(0.08 -0.08)">
       <use xlink:href="#DejaVuSans-50"/>
       <use x="63.623047" xlink:href="#DejaVuSans-50"/>
       <use x="127.246094" xlink:href="#DejaVuSans-32"/>
       <use x="159.033203" xlink:href="#DejaVuSans-77"/>
       <use x="245.3125" xlink:href="#DejaVuSans-97"/>
       <use x="306.591797" xlink:href="#DejaVuSans-114"/>
      </g>
     </g>
    </g>
    <g id="xtick_6">
     <g id="line2d_6">
      <g>
       <use style="stroke:#000000;stroke-width:0.8;" x="127.526824" xlink:href="#m5a564421c0" y="126.44874"/>
      </g>
     </g>
     <g id="text_6">
      <!-- 15 Mar -->
      <g transform="translate(129.734324 161.26499)rotate(-90)scale(0.08 -0.08)">
       <use xlink:href="#DejaVuSans-49"/>
       <use x="63.623047" xlink:href="#DejaVuSans-53"/>
       <use x="127.246094" xlink:href="#DejaVuSans-32"/>
       <use x="159.033203" xlink:href="#DejaVuSans-77"/>
       <use x="245.3125" xlink:href="#DejaVuSans-97"/>
       <use x="306.591797" xlink:href="#DejaVuSans-114"/>
      </g>
     </g>
    </g>
    <g id="xtick_7">
     <g id="line2d_7">
      <g>
       <use style="stroke:#000000;stroke-width:0.8;" x="112.947443" xlink:href="#m5a564421c0" y="126.44874"/>
      </g>
     </g>
     <g id="text_7">
      <!-- 8 Mar -->
      <defs>
       <path d="M 31.78125 34.625 
Q 24.75 34.625 20.71875 30.859375 
Q 16.703125 27.09375 16.703125 20.515625 
Q 16.703125 13.921875 20.71875 10.15625 
Q 24.75 6.390625 31.78125 6.390625 
Q 38.8125 6.390625 42.859375 10.171875 
Q 46.921875 13.96875 46.921875 20.515625 
Q 46.921875 27.09375 42.890625 30.859375 
Q 38.875 34.625 31.78125 34.625 
z
M 21.921875 38.8125 
Q 15.578125 40.375 12.03125 44.71875 
Q 8.5 49.078125 8.5 55.328125 
Q 8.5 64.0625 14.71875 69.140625 
Q 20.953125 74.21875 31.78125 74.21875 
Q 42.671875 74.21875 48.875 69.140625 
Q 55.078125 64.0625 55.078125 55.328125 
Q 55.078125 49.078125 51.53125 44.71875 
Q 48 40.375 41.703125 38.8125 
Q 48.828125 37.15625 52.796875 32.3125 
Q 56.78125 27.484375 56.78125 20.515625 
Q 56.78125 9.90625 50.3125 4.234375 
Q 43.84375 -1.421875 31.78125 -1.421875 
Q 19.734375 -1.421875 13.25 4.234375 
Q 6.78125 9.90625 6.78125 20.515625 
Q 6.78125 27.484375 10.78125 32.3125 
Q 14.796875 37.15625 21.921875 38.8125 
z
M 18.3125 54.390625 
Q 18.3125 48.734375 21.84375 45.5625 
Q 25.390625 42.390625 31.78125 42.390625 
Q 38.140625 42.390625 41.71875 45.5625 
Q 45.3125 48.734375 45.3125 54.390625 
Q 45.3125 60.0625 41.71875 63.234375 
Q 38.140625 66.40625 31.78125 66.40625 
Q 25.390625 66.40625 21.84375 63.234375 
Q 18.3125 60.0625 18.3125 54.390625 
z
" id="DejaVuSans-56"/>
      </defs>
      <g transform="translate(115.154943 156.17499)rotate(-90)scale(0.08 -0.08)">
       <use xlink:href="#DejaVuSans-56"/>
       <use x="63.623047" xlink:href="#DejaVuSans-32"/>
       <use x="95.410156" xlink:href="#DejaVuSans-77"/>
       <use x="181.689453" xlink:href="#DejaVuSans-97"/>
       <use x="242.96875" xlink:href="#DejaVuSans-114"/>
      </g>
     </g>
    </g>
    <g id="xtick_8">
     <g id="line2d_8">
      <g>
       <use style="stroke:#000000;stroke-width:0.8;" x="98.368063" xlink:href="#m5a564421c0" y="126.44874"/>
      </g>
     </g>
     <g id="text_8">
      <!-- 1 Mar -->
      <g transform="translate(100.575563 156.17499)rotate(-90)scale(0.08 -0.08)">
       <use xlink:href="#DejaVuSans-49"/>
       <use x="63.623047" xlink:href="#DejaVuSans-32"/>
       <use x="95.410156" xlink:href="#DejaVuSans-77"/>
       <use x="181.689453" xlink:href="#DejaVuSans-97"/>
       <use x="242.96875" xlink:href="#DejaVuSans-114"/>
      </g>
     </g>
    </g>
    <g id="xtick_9">
     <g id="line2d_9">
      <g>
       <use style="stroke:#000000;stroke-width:0.8;" x="83.788683" xlink:href="#m5a564421c0" y="126.44874"/>
      </g>
     </g>
     <g id="text_9">
      <!-- 23 Feb -->
      <defs>
       <path d="M 40.578125 39.3125 
Q 47.65625 37.796875 51.625 33 
Q 55.609375 28.21875 55.609375 21.1875 
Q 55.609375 10.40625 48.1875 4.484375 
Q 40.765625 -1.421875 27.09375 -1.421875 
Q 22.515625 -1.421875 17.65625 -0.515625 
Q 12.796875 0.390625 7.625 2.203125 
L 7.625 11.71875 
Q 11.71875 9.328125 16.59375 8.109375 
Q 21.484375 6.890625 26.8125 6.890625 
Q 36.078125 6.890625 40.9375 10.546875 
Q 45.796875 14.203125 45.796875 21.1875 
Q 45.796875 27.640625 41.28125 31.265625 
Q 36.765625 34.90625 28.71875 34.90625 
L 20.21875 34.90625 
L 20.21875 43.015625 
L 29.109375 43.015625 
Q 36.375 43.015625 40.234375 45.921875 
Q 44.09375 48.828125 44.09375 54.296875 
Q 44.09375 59.90625 40.109375 62.90625 
Q 36.140625 65.921875 28.71875 65.921875 
Q 24.65625 65.921875 20.015625 65.03125 
Q 15.375 64.15625 9.8125 62.3125 
L 9.8125 71.09375 
Q 15.4375 72.65625 20.34375 73.4375 
Q 25.25 74.21875 29.59375 74.21875 
Q 40.828125 74.21875 47.359375 69.109375 
Q 53.90625 64.015625 53.90625 55.328125 
Q 53.90625 49.265625 50.4375 45.09375 
Q 46.96875 40.921875 40.578125 39.3125 
z
" id="DejaVuSans-51"/>
       <path d="M 9.8125 72.90625 
L 51.703125 72.90625 
L 51.703125 64.59375 
L 19.671875 64.59375 
L 19.671875 43.109375 
L 48.578125 43.109375 
L 48.578125 34.8125 
L 19.671875 34.8125 
L 19.671875 0 
L 9.8125 0 
z
" id="DejaVuSans-70"/>
       <path d="M 56.203125 29.59375 
L 56.203125 25.203125 
L 14.890625 25.203125 
Q 15.484375 15.921875 20.484375 11.0625 
Q 25.484375 6.203125 34.421875 6.203125 
Q 39.59375 6.203125 44.453125 7.46875 
Q 49.3125 8.734375 54.109375 11.28125 
L 54.109375 2.78125 
Q 49.265625 0.734375 44.1875 -0.34375 
Q 39.109375 -1.421875 33.890625 -1.421875 
Q 20.796875 -1.421875 13.15625 6.1875 
Q 5.515625 13.8125 5.515625 26.8125 
Q 5.515625 40.234375 12.765625 48.109375 
Q 20.015625 56 32.328125 56 
Q 43.359375 56 49.78125 48.890625 
Q 56.203125 41.796875 56.203125 29.59375 
z
M 47.21875 32.234375 
Q 47.125 39.59375 43.09375 43.984375 
Q 39.0625 48.390625 32.421875 48.390625 
Q 24.90625 48.390625 20.390625 44.140625 
Q 15.875 39.890625 15.1875 32.171875 
z
" id="DejaVuSans-101"/>
       <path d="M 48.6875 27.296875 
Q 48.6875 37.203125 44.609375 42.84375 
Q 40.53125 48.484375 33.40625 48.484375 
Q 26.265625 48.484375 22.1875 42.84375 
Q 18.109375 37.203125 18.109375 27.296875 
Q 18.109375 17.390625 22.1875 11.75 
Q 26.265625 6.109375 33.40625 6.109375 
Q 40.53125 6.109375 44.609375 11.75 
Q 48.6875 17.390625 48.6875 27.296875 
z
M 18.109375 46.390625 
Q 20.953125 51.265625 25.265625 53.625 
Q 29.59375 56 35.59375 56 
Q 45.5625 56 51.78125 48.09375 
Q 58.015625 40.1875 58.015625 27.296875 
Q 58.015625 14.40625 51.78125 6.484375 
Q 45.5625 -1.421875 35.59375 -1.421875 
Q 29.59375 -1.421875 25.265625 0.953125 
Q 20.953125 3.328125 18.109375 8.203125 
L 18.109375 0 
L 9.078125 0 
L 9.078125 75.984375 
L 18.109375 75.984375 
z
" id="DejaVuSans-98"/>
      </defs>
      <g transform="translate(85.996183 160.33374)rotate(-90)scale(0.08 -0.08)">
       <use xlink:href="#DejaVuSans-50"/>
       <use x="63.623047" xlink:href="#DejaVuSans-51"/>
       <use x="127.246094" xlink:href="#DejaVuSans-32"/>
       <use x="159.033203" xlink:href="#DejaVuSans-70"/>
       <use x="211.052734" xlink:href="#DejaVuSans-101"/>
       <use x="272.576172" xlink:href="#DejaVuSans-98"/>
      </g>
     </g>
    </g>
    <g id="xtick_10">
     <g id="line2d_10">
      <g>
       <use style="stroke:#000000;stroke-width:0.8;" x="69.209303" xlink:href="#m5a564421c0" y="126.44874"/>
      </g>
     </g>
     <g id="text_10">
      <!-- 16 Feb -->
      <defs>
       <path d="M 33.015625 40.375 
Q 26.375 40.375 22.484375 35.828125 
Q 18.609375 31.296875 18.609375 23.390625 
Q 18.609375 15.53125 22.484375 10.953125 
Q 26.375 6.390625 33.015625 6.390625 
Q 39.65625 6.390625 43.53125 10.953125 
Q 47.40625 15.53125 47.40625 23.390625 
Q 47.40625 31.296875 43.53125 35.828125 
Q 39.65625 40.375 33.015625 40.375 
z
M 52.59375 71.296875 
L 52.59375 62.3125 
Q 48.875 64.0625 45.09375 64.984375 
Q 41.3125 65.921875 37.59375 65.921875 
Q 27.828125 65.921875 22.671875 59.328125 
Q 17.53125 52.734375 16.796875 39.40625 
Q 19.671875 43.65625 24.015625 45.921875 
Q 28.375 48.1875 33.59375 48.1875 
Q 44.578125 48.1875 50.953125 41.515625 
Q 57.328125 34.859375 57.328125 23.390625 
Q 57.328125 12.15625 50.6875 5.359375 
Q 44.046875 -1.421875 33.015625 -1.421875 
Q 20.359375 -1.421875 13.671875 8.265625 
Q 6.984375 17.96875 6.984375 36.375 
Q 6.984375 53.65625 15.1875 63.9375 
Q 23.390625 74.21875 37.203125 74.21875 
Q 40.921875 74.21875 44.703125 73.484375 
Q 48.484375 72.75 52.59375 71.296875 
z
" id="DejaVuSans-54"/>
      </defs>
      <g transform="translate(71.416803 160.33374)rotate(-90)scale(0.08 -0.08)">
       <use xlink:href="#DejaVuSans-49"/>
       <use x="63.623047" xlink:href="#DejaVuSans-54"/>
       <use x="127.246094" xlink:href="#DejaVuSans-32"/>
       <use x="159.033203" xlink:href="#DejaVuSans-70"/>
       <use x="211.052734" xlink:href="#DejaVuSans-101"/>
       <use x="272.576172" xlink:href="#DejaVuSans-98"/>
      </g>
     </g>
    </g>
    <g id="xtick_11">
     <g id="line2d_11">
      <g>
       <use style="stroke:#000000;stroke-width:0.8;" x="54.629922" xlink:href="#m5a564421c0" y="126.44874"/>
      </g>
     </g>
     <g id="text_11">
      <!-- 9 Feb -->
      <g transform="translate(56.837422 155.24374)rotate(-90)scale(0.08 -0.08)">
       <use xlink:href="#DejaVuSans-57"/>
       <use x="63.623047" xlink:href="#DejaVuSans-32"/>
       <use x="95.410156" xlink:href="#DejaVuSans-70"/>
       <use x="147.429688" xlink:href="#DejaVuSans-101"/>
       <use x="208.953125" xlink:href="#DejaVuSans-98"/>
      </g>
     </g>
    </g>
   </g>
   <g id="matplotlib.axis_2">
    <g id="ytick_1">
     <g id="line2d_12">
      <defs>
       <path d="M 0 0 
L -3.5 0 
" id="md24baa25cd" style="stroke:#000000;stroke-width:0.8;"/>
      </defs>
      <g>
       <use style="stroke:#000000;stroke-width:0.8;" x="42.05" xlink:href="#md24baa25cd" y="126.44874"/>
      </g>
     </g>
     <g id="text_12">
      <!-- 0 -->
      <defs>
       <path d="M 31.78125 66.40625 
Q 24.171875 66.40625 20.328125 58.90625 
Q 16.5 51.421875 16.5 36.375 
Q 16.5 21.390625 20.328125 13.890625 
Q 24.171875 6.390625 31.78125 6.390625 
Q 39.453125 6.390625 43.28125 13.890625 
Q 47.125 21.390625 47.125 36.375 
Q 47.125 51.421875 43.28125 58.90625 
Q 39.453125 66.40625 31.78125 66.40625 
z
M 31.78125 74.21875 
Q 44.046875 74.21875 50.515625 64.515625 
Q 56.984375 54.828125 56.984375 36.375 
Q 56.984375 17.96875 50.515625 8.265625 
Q 44.046875 -1.421875 31.78125 -1.421875 
Q 19.53125 -1.421875 13.0625 8.265625 
Q 6.59375 17.96875 6.59375 36.375 
Q 6.59375 54.828125 13.0625 64.515625 
Q 19.53125 74.21875 31.78125 74.21875 
z
" id="DejaVuSans-48"/>
      </defs>
      <g transform="translate(29.96 129.488115)scale(0.08 -0.08)">
       <use xlink:href="#DejaVuSans-48"/>
      </g>
     </g>
    </g>
    <g id="ytick_2">
     <g id="line2d_13">
      <g>
       <use style="stroke:#000000;stroke-width:0.8;" x="42.05" xlink:href="#md24baa25cd" y="99.410411"/>
      </g>
     </g>
     <g id="text_13">
      <!-- 200 -->
      <g transform="translate(19.78 102.449786)scale(0.08 -0.08)">
       <use xlink:href="#DejaVuSans-50"/>
       <use x="63.623047" xlink:href="#DejaVuSans-48"/>
       <use x="127.246094" xlink:href="#DejaVuSans-48"/>
      </g>
     </g>
    </g>
    <g id="ytick_3">
     <g id="line2d_14">
      <g>
       <use style="stroke:#000000;stroke-width:0.8;" x="42.05" xlink:href="#md24baa25cd" y="72.372082"/>
      </g>
     </g>
     <g id="text_14">
      <!-- 400 -->
      <defs>
       <path d="M 37.796875 64.3125 
L 12.890625 25.390625 
L 37.796875 25.390625 
z
M 35.203125 72.90625 
L 47.609375 72.90625 
L 47.609375 25.390625 
L 58.015625 25.390625 
L 58.015625 17.1875 
L 47.609375 17.1875 
L 47.609375 0 
L 37.796875 0 
L 37.796875 17.1875 
L 4.890625 17.1875 
L 4.890625 26.703125 
z
" id="DejaVuSans-52"/>
      </defs>
      <g transform="translate(19.78 75.411457)scale(0.08 -0.08)">
       <use xlink:href="#DejaVuSans-52"/>
       <use x="63.623047" xlink:href="#DejaVuSans-48"/>
       <use x="127.246094" xlink:href="#DejaVuSans-48"/>
      </g>
     </g>
    </g>
    <g id="ytick_4">
     <g id="line2d_15">
      <g>
       <use style="stroke:#000000;stroke-width:0.8;" x="42.05" xlink:href="#md24baa25cd" y="45.333754"/>
      </g>
     </g>
     <g id="text_15">
      <!-- 600 -->
      <g transform="translate(19.78 48.373129)scale(0.08 -0.08)">
       <use xlink:href="#DejaVuSans-54"/>
       <use x="63.623047" xlink:href="#DejaVuSans-48"/>
       <use x="127.246094" xlink:href="#DejaVuSans-48"/>
      </g>
     </g>
    </g>
    <g id="ytick_5">
     <g id="line2d_16">
      <g>
       <use style="stroke:#000000;stroke-width:0.8;" x="42.05" xlink:href="#md24baa25cd" y="18.295425"/>
      </g>
     </g>
     <g id="text_16">
      <!-- 800 -->
      <g transform="translate(19.78 21.3348)scale(0.08 -0.08)">
       <use xlink:href="#DejaVuSans-56"/>
       <use x="63.623047" xlink:href="#DejaVuSans-48"/>
       <use x="127.246094" xlink:href="#DejaVuSans-48"/>
      </g>
     </g>
    </g>
    <g id="text_17">
     <!-- Deaths per day -->
     <defs>
      <path d="M 19.671875 64.796875 
L 19.671875 8.109375 
L 31.59375 8.109375 
Q 46.6875 8.109375 53.6875 14.9375 
Q 60.6875 21.78125 60.6875 36.53125 
Q 60.6875 51.171875 53.6875 57.984375 
Q 46.6875 64.796875 31.59375 64.796875 
z
M 9.8125 72.90625 
L 30.078125 72.90625 
Q 51.265625 72.90625 61.171875 64.09375 
Q 71.09375 55.28125 71.09375 36.53125 
Q 71.09375 17.671875 61.125 8.828125 
Q 51.171875 0 30.078125 0 
L 9.8125 0 
z
" id="DejaVuSans-68"/>
      <path d="M 18.3125 70.21875 
L 18.3125 54.6875 
L 36.8125 54.6875 
L 36.8125 47.703125 
L 18.3125 47.703125 
L 18.3125 18.015625 
Q 18.3125 11.328125 20.140625 9.421875 
Q 21.96875 7.515625 27.59375 7.515625 
L 36.8125 7.515625 
L 36.8125 0 
L 27.59375 0 
Q 17.1875 0 13.234375 3.875 
Q 9.28125 7.765625 9.28125 18.015625 
L 9.28125 47.703125 
L 2.6875 47.703125 
L 2.6875 54.6875 
L 9.28125 54.6875 
L 9.28125 70.21875 
z
" id="DejaVuSans-116"/>
      <path d="M 54.890625 33.015625 
L 54.890625 0 
L 45.90625 0 
L 45.90625 32.71875 
Q 45.90625 40.484375 42.875 44.328125 
Q 39.84375 48.1875 33.796875 48.1875 
Q 26.515625 48.1875 22.3125 43.546875 
Q 18.109375 38.921875 18.109375 30.90625 
L 18.109375 0 
L 9.078125 0 
L 9.078125 75.984375 
L 18.109375 75.984375 
L 18.109375 46.1875 
Q 21.34375 51.125 25.703125 53.5625 
Q 30.078125 56 35.796875 56 
Q 45.21875 56 50.046875 50.171875 
Q 54.890625 44.34375 54.890625 33.015625 
z
" id="DejaVuSans-104"/>
      <path d="M 44.28125 53.078125 
L 44.28125 44.578125 
Q 40.484375 46.53125 36.375 47.5 
Q 32.28125 48.484375 27.875 48.484375 
Q 21.1875 48.484375 17.84375 46.4375 
Q 14.5 44.390625 14.5 40.28125 
Q 14.5 37.15625 16.890625 35.375 
Q 19.28125 33.59375 26.515625 31.984375 
L 29.59375 31.296875 
Q 39.15625 29.25 43.1875 25.515625 
Q 47.21875 21.78125 47.21875 15.09375 
Q 47.21875 7.46875 41.1875 3.015625 
Q 35.15625 -1.421875 24.609375 -1.421875 
Q 20.21875 -1.421875 15.453125 -0.5625 
Q 10.6875 0.296875 5.421875 2 
L 5.421875 11.28125 
Q 10.40625 8.6875 15.234375 7.390625 
Q 20.0625 6.109375 24.8125 6.109375 
Q 31.15625 6.109375 34.5625 8.28125 
Q 37.984375 10.453125 37.984375 14.40625 
Q 37.984375 18.0625 35.515625 20.015625 
Q 33.0625 21.96875 24.703125 23.78125 
L 21.578125 24.515625 
Q 13.234375 26.265625 9.515625 29.90625 
Q 5.8125 33.546875 5.8125 39.890625 
Q 5.8125 47.609375 11.28125 51.796875 
Q 16.75 56 26.8125 56 
Q 31.78125 56 36.171875 55.265625 
Q 40.578125 54.546875 44.28125 53.078125 
z
" id="DejaVuSans-115"/>
      <path d="M 45.40625 46.390625 
L 45.40625 75.984375 
L 54.390625 75.984375 
L 54.390625 0 
L 45.40625 0 
L 45.40625 8.203125 
Q 42.578125 3.328125 38.25 0.953125 
Q 33.9375 -1.421875 27.875 -1.421875 
Q 17.96875 -1.421875 11.734375 6.484375 
Q 5.515625 14.40625 5.515625 27.296875 
Q 5.515625 40.1875 11.734375 48.09375 
Q 17.96875 56 27.875 56 
Q 33.9375 56 38.25 53.625 
Q 42.578125 51.265625 45.40625 46.390625 
z
M 14.796875 27.296875 
Q 14.796875 17.390625 18.875 11.75 
Q 22.953125 6.109375 30.078125 6.109375 
Q 37.203125 6.109375 41.296875 11.75 
Q 45.40625 17.390625 45.40625 27.296875 
Q 45.40625 37.203125 41.296875 42.84375 
Q 37.203125 48.484375 30.078125 48.484375 
Q 22.953125 48.484375 18.875 42.84375 
Q 14.796875 37.203125 14.796875 27.296875 
z
" id="DejaVuSans-100"/>
      <path d="M 32.171875 -5.078125 
Q 28.375 -14.84375 24.75 -17.8125 
Q 21.140625 -20.796875 15.09375 -20.796875 
L 7.90625 -20.796875 
L 7.90625 -13.28125 
L 13.1875 -13.28125 
Q 16.890625 -13.28125 18.9375 -11.515625 
Q 21 -9.765625 23.484375 -3.21875 
L 25.09375 0.875 
L 2.984375 54.6875 
L 12.5 54.6875 
L 29.59375 11.921875 
L 46.6875 54.6875 
L 56.203125 54.6875 
z
" id="DejaVuSans-121"/>
     </defs>
     <g transform="translate(14.11625 99.70937)rotate(-90)scale(0.08 -0.08)">
      <use xlink:href="#DejaVuSans-68"/>
      <use x="77.001953" xlink:href="#DejaVuSans-101"/>
      <use x="138.525391" xlink:href="#DejaVuSans-97"/>
      <use x="199.804688" xlink:href="#DejaVuSans-116"/>
      <use x="239.013672" xlink:href="#DejaVuSans-104"/>
      <use x="302.392578" xlink:href="#DejaVuSans-115"/>
      <use x="354.492188" xlink:href="#DejaVuSans-32"/>
      <use x="386.279297" xlink:href="#DejaVuSans-112"/>
      <use x="449.755859" xlink:href="#DejaVuSans-101"/>
      <use x="511.279297" xlink:href="#DejaVuSans-114"/>
      <use x="552.392578" xlink:href="#DejaVuSans-32"/>
      <use x="584.179688" xlink:href="#DejaVuSans-100"/>
      <use x="647.65625" xlink:href="#DejaVuSans-97"/>
      <use x="708.935547" xlink:href="#DejaVuSans-121"/>
     </g>
    </g>
   </g>
   <g id="line2d_17">
    <path clip-path="url(#pe50a268518)" d="M 50.464385 126.44874 
L 52.547154 126.44874 
L 54.629922 126.44871 
L 56.712691 126.448608 
L 58.79546 126.448372 
L 60.878228 126.447934 
L 62.960997 126.447227 
L 65.043765 126.446196 
L 67.126534 126.444784 
L 69.209303 126.442934 
L 71.292071 126.440582 
L 73.37484 126.437641 
L 75.457608 126.434006 
L 77.540377 126.429545 
L 79.623146 126.424117 
L 81.705914 126.417547 
L 83.788683 126.409642 
L 85.871452 126.400167 
L 87.95422 126.38872 
L 90.036989 126.374851 
L 92.119757 126.357975 
L 94.202526 126.337461 
L 96.285295 126.31257 
L 98.368063 126.282397 
L 100.450832 126.245822 
L 102.5336 126.201277 
L 104.616369 126.146846 
L 106.699138 126.079889 
L 108.781906 125.997359 
L 110.864675 125.895675 
L 112.947443 125.770346 
L 115.030212 125.616108 
L 117.112981 125.426231 
L 119.195749 125.192476 
L 121.278518 124.904879 
L 123.361287 124.550842 
L 125.444055 124.113508 
L 127.526824 123.561892 
L 129.609592 122.867576 
L 131.692361 121.96288 
L 133.77513 120.672043 
L 135.857898 118.897881 
L 137.940667 116.533587 
L 140.023435 113.553862 
L 142.106204 109.999849 
L 144.188973 105.964694 
L 146.271741 101.576346 
L 148.35451 96.971081 
L 150.437278 92.289755 
L 152.520047 87.661295 
L 154.602816 83.198537 
L 156.685584 78.996214 
" style="fill:none;stroke:#0000ff;stroke-linecap:square;stroke-opacity:0.5;"/>
   </g>
   <g id="line2d_18">
    <path clip-path="url(#pe50a268518)" d="M 158.768353 75.132085 
L 160.851121 71.66882 
L 162.93389 68.653765 
L 165.016659 66.120483 
L 167.099427 64.088215 
L 169.182196 62.562402 
L 171.264965 61.535801 
L 173.347733 60.990047 
L 175.430502 60.897502 
L 177.51327 61.223228 
L 179.596039 61.926925 
L 181.678808 62.964769 
L 183.761576 64.291045 
L 185.844345 65.859567 
L 187.927113 67.624855 
L 190.009882 69.543072 
L 192.092651 71.572729 
L 194.175419 73.675186 
L 196.258188 75.81497 
L 198.340956 77.959927 
L 200.423725 80.081248 
" style="fill:none;stroke:#008000;stroke-linecap:square;stroke-opacity:0.5;"/>
   </g>
   <g id="line2d_19">
    <path clip-path="url(#pe50a268518)" d="M 123.361287 126.44874 
L 123.361287 11.52 
" style="fill:none;stroke:#0000ff;stroke-dasharray:1.85,0.8;stroke-dashoffset:0;stroke-width:0.5;"/>
   </g>
   <g id="line2d_20">
    <path clip-path="url(#pe50a268518)" d="M 125.444055 126.44874 
L 125.444055 11.52 
" style="fill:none;stroke:#0000ff;stroke-dasharray:1.85,0.8;stroke-dashoffset:0;stroke-width:0.5;"/>
   </g>
   <g id="line2d_21">
    <path clip-path="url(#pe50a268518)" d="M 131.692361 126.44874 
L 131.692361 11.52 
" style="fill:none;stroke:#0000ff;stroke-dasharray:1.85,0.8;stroke-dashoffset:0;stroke-width:0.5;"/>
   </g>
   <g id="line2d_22">
    <path clip-path="url(#pe50a268518)" d="M 129.609592 126.44874 
L 129.609592 11.52 
" style="fill:none;stroke:#0000ff;stroke-dasharray:1.85,0.8;stroke-dashoffset:0;stroke-width:0.5;"/>
   </g>
   <g id="line2d_23">
    <path clip-path="url(#pe50a268518)" d="M 129.609592 126.44874 
L 129.609592 11.52 
" style="fill:none;stroke:#0000ff;stroke-dasharray:1.85,0.8;stroke-dashoffset:0;stroke-width:0.5;"/>
   </g>
   <g id="patch_76">
    <path d="M 42.05 126.44874 
L 42.05 11.52 
" style="fill:none;stroke:#000000;stroke-linecap:square;stroke-linejoin:miter;stroke-width:0.8;"/>
   </g>
   <g id="patch_77">
    <path d="M 208.83811 126.44874 
L 208.83811 11.52 
" style="fill:none;stroke:#000000;stroke-linecap:square;stroke-linejoin:miter;stroke-width:0.8;"/>
   </g>
   <g id="patch_78">
    <path d="M 42.05 126.44874 
L 208.83811 126.44874 
" style="fill:none;stroke:#000000;stroke-linecap:square;stroke-linejoin:miter;stroke-width:0.8;"/>
   </g>
   <g id="patch_79">
    <path d="M 42.05 11.52 
L 208.83811 11.52 
" style="fill:none;stroke:#000000;stroke-linecap:square;stroke-linejoin:miter;stroke-width:0.8;"/>
   </g>
   <g id="legend_1">
    <g id="line2d_24">
     <path d="M 49.25 103.04249 
L 65.25 103.04249 
" style="fill:none;stroke:#0000ff;stroke-linecap:square;stroke-opacity:0.5;"/>
    </g>
    <g id="line2d_25"/>
    <g id="text_18">
     <!-- Simulation -->
     <defs>
      <path d="M 53.515625 70.515625 
L 53.515625 60.890625 
Q 47.90625 63.578125 42.921875 64.890625 
Q 37.9375 66.21875 33.296875 66.21875 
Q 25.25 66.21875 20.875 63.09375 
Q 16.5 59.96875 16.5 54.203125 
Q 16.5 49.359375 19.40625 46.890625 
Q 22.3125 44.4375 30.421875 42.921875 
L 36.375 41.703125 
Q 47.40625 39.59375 52.65625 34.296875 
Q 57.90625 29 57.90625 20.125 
Q 57.90625 9.515625 50.796875 4.046875 
Q 43.703125 -1.421875 29.984375 -1.421875 
Q 24.8125 -1.421875 18.96875 -0.25 
Q 13.140625 0.921875 6.890625 3.21875 
L 6.890625 13.375 
Q 12.890625 10.015625 18.65625 8.296875 
Q 24.421875 6.59375 29.984375 6.59375 
Q 38.421875 6.59375 43.015625 9.90625 
Q 47.609375 13.234375 47.609375 19.390625 
Q 47.609375 24.75 44.3125 27.78125 
Q 41.015625 30.8125 33.5 32.328125 
L 27.484375 33.5 
Q 16.453125 35.6875 11.515625 40.375 
Q 6.59375 45.0625 6.59375 53.421875 
Q 6.59375 63.09375 13.40625 68.65625 
Q 20.21875 74.21875 32.171875 74.21875 
Q 37.3125 74.21875 42.625 73.28125 
Q 47.953125 72.359375 53.515625 70.515625 
z
" id="DejaVuSans-83"/>
      <path d="M 9.421875 54.6875 
L 18.40625 54.6875 
L 18.40625 0 
L 9.421875 0 
z
M 9.421875 75.984375 
L 18.40625 75.984375 
L 18.40625 64.59375 
L 9.421875 64.59375 
z
" id="DejaVuSans-105"/>
      <path d="M 52 44.1875 
Q 55.375 50.25 60.0625 53.125 
Q 64.75 56 71.09375 56 
Q 79.640625 56 84.28125 50.015625 
Q 88.921875 44.046875 88.921875 33.015625 
L 88.921875 0 
L 79.890625 0 
L 79.890625 32.71875 
Q 79.890625 40.578125 77.09375 44.375 
Q 74.3125 48.1875 68.609375 48.1875 
Q 61.625 48.1875 57.5625 43.546875 
Q 53.515625 38.921875 53.515625 30.90625 
L 53.515625 0 
L 44.484375 0 
L 44.484375 32.71875 
Q 44.484375 40.625 41.703125 44.40625 
Q 38.921875 48.1875 33.109375 48.1875 
Q 26.21875 48.1875 22.15625 43.53125 
Q 18.109375 38.875 18.109375 30.90625 
L 18.109375 0 
L 9.078125 0 
L 9.078125 54.6875 
L 18.109375 54.6875 
L 18.109375 46.1875 
Q 21.1875 51.21875 25.484375 53.609375 
Q 29.78125 56 35.6875 56 
Q 41.65625 56 45.828125 52.96875 
Q 50 49.953125 52 44.1875 
z
" id="DejaVuSans-109"/>
      <path d="M 8.5 21.578125 
L 8.5 54.6875 
L 17.484375 54.6875 
L 17.484375 21.921875 
Q 17.484375 14.15625 20.5 10.265625 
Q 23.53125 6.390625 29.59375 6.390625 
Q 36.859375 6.390625 41.078125 11.03125 
Q 45.3125 15.671875 45.3125 23.6875 
L 45.3125 54.6875 
L 54.296875 54.6875 
L 54.296875 0 
L 45.3125 0 
L 45.3125 8.40625 
Q 42.046875 3.421875 37.71875 1 
Q 33.40625 -1.421875 27.6875 -1.421875 
Q 18.265625 -1.421875 13.375 4.4375 
Q 8.5 10.296875 8.5 21.578125 
z
M 31.109375 56 
z
" id="DejaVuSans-117"/>
      <path d="M 9.421875 75.984375 
L 18.40625 75.984375 
L 18.40625 0 
L 9.421875 0 
z
" id="DejaVuSans-108"/>
      <path d="M 30.609375 48.390625 
Q 23.390625 48.390625 19.1875 42.75 
Q 14.984375 37.109375 14.984375 27.296875 
Q 14.984375 17.484375 19.15625 11.84375 
Q 23.34375 6.203125 30.609375 6.203125 
Q 37.796875 6.203125 41.984375 11.859375 
Q 46.1875 17.53125 46.1875 27.296875 
Q 46.1875 37.015625 41.984375 42.703125 
Q 37.796875 48.390625 30.609375 48.390625 
z
M 30.609375 56 
Q 42.328125 56 49.015625 48.375 
Q 55.71875 40.765625 55.71875 27.296875 
Q 55.71875 13.875 49.015625 6.21875 
Q 42.328125 -1.421875 30.609375 -1.421875 
Q 18.84375 -1.421875 12.171875 6.21875 
Q 5.515625 13.875 5.515625 27.296875 
Q 5.515625 40.765625 12.171875 48.375 
Q 18.84375 56 30.609375 56 
z
" id="DejaVuSans-111"/>
      <path d="M 54.890625 33.015625 
L 54.890625 0 
L 45.90625 0 
L 45.90625 32.71875 
Q 45.90625 40.484375 42.875 44.328125 
Q 39.84375 48.1875 33.796875 48.1875 
Q 26.515625 48.1875 22.3125 43.546875 
Q 18.109375 38.921875 18.109375 30.90625 
L 18.109375 0 
L 9.078125 0 
L 9.078125 54.6875 
L 18.109375 54.6875 
L 18.109375 46.1875 
Q 21.34375 51.125 25.703125 53.5625 
Q 30.078125 56 35.796875 56 
Q 45.21875 56 50.046875 50.171875 
Q 54.890625 44.34375 54.890625 33.015625 
z
" id="DejaVuSans-110"/>
     </defs>
     <g transform="translate(71.65 105.84249)scale(0.08 -0.08)">
      <use xlink:href="#DejaVuSans-83"/>
      <use x="63.476562" xlink:href="#DejaVuSans-105"/>
      <use x="91.259766" xlink:href="#DejaVuSans-109"/>
      <use x="188.671875" xlink:href="#DejaVuSans-117"/>
      <use x="252.050781" xlink:href="#DejaVuSans-108"/>
      <use x="279.833984" xlink:href="#DejaVuSans-97"/>
      <use x="341.113281" xlink:href="#DejaVuSans-116"/>
      <use x="380.322266" xlink:href="#DejaVuSans-105"/>
      <use x="408.105469" xlink:href="#DejaVuSans-111"/>
      <use x="469.287109" xlink:href="#DejaVuSans-110"/>
     </g>
    </g>
    <g id="line2d_26">
     <path d="M 49.25 114.78499 
L 65.25 114.78499 
" style="fill:none;stroke:#008000;stroke-linecap:square;stroke-opacity:0.5;"/>
    </g>
    <g id="line2d_27"/>
    <g id="text_19">
     <!-- Forecast -->
     <defs>
      <path d="M 48.78125 52.59375 
L 48.78125 44.1875 
Q 44.96875 46.296875 41.140625 47.34375 
Q 37.3125 48.390625 33.40625 48.390625 
Q 24.65625 48.390625 19.8125 42.84375 
Q 14.984375 37.3125 14.984375 27.296875 
Q 14.984375 17.28125 19.8125 11.734375 
Q 24.65625 6.203125 33.40625 6.203125 
Q 37.3125 6.203125 41.140625 7.25 
Q 44.96875 8.296875 48.78125 10.40625 
L 48.78125 2.09375 
Q 45.015625 0.34375 40.984375 -0.53125 
Q 36.96875 -1.421875 32.421875 -1.421875 
Q 20.0625 -1.421875 12.78125 6.34375 
Q 5.515625 14.109375 5.515625 27.296875 
Q 5.515625 40.671875 12.859375 48.328125 
Q 20.21875 56 33.015625 56 
Q 37.15625 56 41.109375 55.140625 
Q 45.0625 54.296875 48.78125 52.59375 
z
" id="DejaVuSans-99"/>
     </defs>
     <g transform="translate(71.65 117.58499)scale(0.08 -0.08)">
      <use xlink:href="#DejaVuSans-70"/>
      <use x="53.894531" xlink:href="#DejaVuSans-111"/>
      <use x="115.076172" xlink:href="#DejaVuSans-114"/>
      <use x="153.939453" xlink:href="#DejaVuSans-101"/>
      <use x="215.462891" xlink:href="#DejaVuSans-99"/>
      <use x="270.443359" xlink:href="#DejaVuSans-97"/>
      <use x="331.722656" xlink:href="#DejaVuSans-115"/>
      <use x="383.822266" xlink:href="#DejaVuSans-116"/>
     </g>
    </g>
   </g>
  </g>
  <g id="axes_2">
   <g id="matplotlib.axis_3">
    <g id="ytick_6">
     <g id="line2d_28">
      <defs>
       <path d="M 0 0 
L 3.5 0 
" id="m46d6403d5c" style="stroke:#000000;stroke-width:0.8;"/>
      </defs>
      <g>
       <use style="stroke:#000000;stroke-width:0.8;" x="208.83811" xlink:href="#m46d6403d5c" y="126.44874"/>
      </g>
     </g>
     <g id="text_20">
      <!-- 1.0 -->
      <defs>
       <path d="M 10.59375 35.5 
L 73.1875 35.5 
L 73.1875 27.203125 
L 10.59375 27.203125 
z
" id="DejaVuSans-8722"/>
       <path d="M 10.6875 12.40625 
L 21 12.40625 
L 21 0 
L 10.6875 0 
z
" id="DejaVuSans-46"/>
      </defs>
      <g transform="translate(215.83811 129.488115)scale(0.08 -0.08)">
       <use xlink:href="#DejaVuSans-8722"/>
       <use x="83.789062" xlink:href="#DejaVuSans-49"/>
       <use x="147.412109" xlink:href="#DejaVuSans-46"/>
       <use x="179.199219" xlink:href="#DejaVuSans-48"/>
      </g>
     </g>
    </g>
    <g id="ytick_7">
     <g id="line2d_29">
      <g>
       <use style="stroke:#000000;stroke-width:0.8;" x="208.83811" xlink:href="#m46d6403d5c" y="85.402762"/>
      </g>
     </g>
     <g id="text_21">
      <!-- 0.5 -->
      <g transform="translate(215.83811 88.442137)scale(0.08 -0.08)">
       <use xlink:href="#DejaVuSans-8722"/>
       <use x="83.789062" xlink:href="#DejaVuSans-48"/>
       <use x="147.412109" xlink:href="#DejaVuSans-46"/>
       <use x="179.199219" xlink:href="#DejaVuSans-53"/>
      </g>
     </g>
    </g>
    <g id="ytick_8">
     <g id="line2d_30">
      <g>
       <use style="stroke:#000000;stroke-width:0.8;" x="208.83811" xlink:href="#m46d6403d5c" y="44.356783"/>
      </g>
     </g>
     <g id="text_22">
      <!-- 0.0 -->
      <g transform="translate(215.83811 47.396158)scale(0.08 -0.08)">
       <use xlink:href="#DejaVuSans-48"/>
       <use x="63.623047" xlink:href="#DejaVuSans-46"/>
       <use x="95.410156" xlink:href="#DejaVuSans-48"/>
      </g>
     </g>
    </g>
    <g id="ytick_9">
     <g id="line2d_31">
      <g>
       <use style="stroke:#000000;stroke-width:0.8;" x="208.83811" xlink:href="#m46d6403d5c" y="11.52"/>
      </g>
     </g>
     <g id="text_23">
      <!-- 0.4 -->
      <g transform="translate(215.83811 14.559375)scale(0.08 -0.08)">
       <use xlink:href="#DejaVuSans-48"/>
       <use x="63.623047" xlink:href="#DejaVuSans-46"/>
       <use x="95.410156" xlink:href="#DejaVuSans-52"/>
      </g>
     </g>
    </g>
    <g id="text_24">
     <!-- Relative change -->
     <defs>
      <path d="M 44.390625 34.1875 
Q 47.5625 33.109375 50.5625 29.59375 
Q 53.5625 26.078125 56.59375 19.921875 
L 66.609375 0 
L 56 0 
L 46.6875 18.703125 
Q 43.0625 26.03125 39.671875 28.421875 
Q 36.28125 30.8125 30.421875 30.8125 
L 19.671875 30.8125 
L 19.671875 0 
L 9.8125 0 
L 9.8125 72.90625 
L 32.078125 72.90625 
Q 44.578125 72.90625 50.734375 67.671875 
Q 56.890625 62.453125 56.890625 51.90625 
Q 56.890625 45.015625 53.6875 40.46875 
Q 50.484375 35.9375 44.390625 34.1875 
z
M 19.671875 64.796875 
L 19.671875 38.921875 
L 32.078125 38.921875 
Q 39.203125 38.921875 42.84375 42.21875 
Q 46.484375 45.515625 46.484375 51.90625 
Q 46.484375 58.296875 42.84375 61.546875 
Q 39.203125 64.796875 32.078125 64.796875 
z
" id="DejaVuSans-82"/>
      <path d="M 2.984375 54.6875 
L 12.5 54.6875 
L 29.59375 8.796875 
L 46.6875 54.6875 
L 56.203125 54.6875 
L 35.6875 0 
L 23.484375 0 
z
" id="DejaVuSans-118"/>
      <path d="M 45.40625 27.984375 
Q 45.40625 37.75 41.375 43.109375 
Q 37.359375 48.484375 30.078125 48.484375 
Q 22.859375 48.484375 18.828125 43.109375 
Q 14.796875 37.75 14.796875 27.984375 
Q 14.796875 18.265625 18.828125 12.890625 
Q 22.859375 7.515625 30.078125 7.515625 
Q 37.359375 7.515625 41.375 12.890625 
Q 45.40625 18.265625 45.40625 27.984375 
z
M 54.390625 6.78125 
Q 54.390625 -7.171875 48.1875 -13.984375 
Q 42 -20.796875 29.203125 -20.796875 
Q 24.46875 -20.796875 20.265625 -20.09375 
Q 16.0625 -19.390625 12.109375 -17.921875 
L 12.109375 -9.1875 
Q 16.0625 -11.328125 19.921875 -12.34375 
Q 23.78125 -13.375 27.78125 -13.375 
Q 36.625 -13.375 41.015625 -8.765625 
Q 45.40625 -4.15625 45.40625 5.171875 
L 45.40625 9.625 
Q 42.625 4.78125 38.28125 2.390625 
Q 33.9375 0 27.875 0 
Q 17.828125 0 11.671875 7.65625 
Q 5.515625 15.328125 5.515625 27.984375 
Q 5.515625 40.671875 11.671875 48.328125 
Q 17.828125 56 27.875 56 
Q 33.9375 56 38.28125 53.609375 
Q 42.625 51.21875 45.40625 46.390625 
L 45.40625 54.6875 
L 54.390625 54.6875 
z
" id="DejaVuSans-103"/>
     </defs>
     <g transform="translate(245.34311 101.10812)rotate(-90)scale(0.08 -0.08)">
      <use xlink:href="#DejaVuSans-82"/>
      <use x="64.982422" xlink:href="#DejaVuSans-101"/>
      <use x="126.505859" xlink:href="#DejaVuSans-108"/>
      <use x="154.289062" xlink:href="#DejaVuSans-97"/>
      <use x="215.568359" xlink:href="#DejaVuSans-116"/>
      <use x="254.777344" xlink:href="#DejaVuSans-105"/>
      <use x="282.560547" xlink:href="#DejaVuSans-118"/>
      <use x="341.740234" xlink:href="#DejaVuSans-101"/>
      <use x="403.263672" xlink:href="#DejaVuSans-32"/>
      <use x="435.050781" xlink:href="#DejaVuSans-99"/>
      <use x="490.03125" xlink:href="#DejaVuSans-104"/>
      <use x="553.410156" xlink:href="#DejaVuSans-97"/>
      <use x="614.689453" xlink:href="#DejaVuSans-110"/>
      <use x="678.068359" xlink:href="#DejaVuSans-103"/>
      <use x="741.544922" xlink:href="#DejaVuSans-101"/>
     </g>
    </g>
   </g>
   <g id="line2d_32">
    <path clip-path="url(#pe50a268518)" d="M 50.464385 44.356783 
L 52.547154 44.356783 
L 54.629922 44.356783 
L 56.712691 44.356783 
L 58.79546 44.356783 
L 60.878228 44.356783 
L 62.960997 44.356783 
L 65.043765 44.356783 
L 67.126534 45.998622 
L 69.209303 39.431265 
L 71.292071 43.535863 
L 73.37484 40.252185 
L 75.457608 47.640461 
L 77.540377 45.998622 
L 79.623146 45.177702 
L 81.705914 49.2823 
L 83.788683 37.789426 
L 85.871452 41.894024 
L 87.95422 43.535863 
L 90.036989 48.461381 
L 92.119757 48.461381 
L 94.202526 45.177702 
L 96.285295 50.10322 
L 98.368063 43.535863 
L 100.450832 49.2823 
L 102.5336 45.177702 
L 104.616369 49.2823 
L 106.699138 50.924139 
L 108.781906 45.998622 
L 110.864675 47.640461 
L 112.947443 44.356783 
L 115.030212 48.461381 
L 117.112981 48.461381 
L 119.195749 49.2823 
L 121.278518 50.924139 
L 123.361287 50.924139 
L 125.444055 61.596094 
L 127.526824 75.551727 
L 129.609592 79.656325 
L 131.692361 100.179314 
L 133.77513 112.493107 
L 135.857898 111.672188 
L 137.940667 112.493107 
L 140.023435 116.597705 
L 142.106204 114.955866 
L 144.188973 110.851268 
L 146.271741 112.493107 
L 148.35451 113.314027 
L 150.437278 113.314027 
L 152.520047 113.314027 
L 154.602816 115.776786 
L 156.685584 116.597705 
" style="fill:none;stroke:#d62728;stroke-linecap:square;stroke-opacity:0.5;"/>
   </g>
   <g id="line2d_33">
    <path clip-path="url(#pe50a268518)" d="M 50.464385 44.356783 
L 52.547154 44.356783 
L 54.629922 44.356783 
L 56.712691 44.356783 
L 58.79546 44.356783 
L 60.878228 44.356783 
L 62.960997 44.356783 
L 65.043765 44.356783 
L 67.126534 45.177702 
L 69.209303 42.714944 
L 71.292071 42.714944 
L 73.37484 42.714944 
L 75.457608 46.819542 
L 77.540377 45.177702 
L 79.623146 45.998622 
L 81.705914 45.998622 
L 83.788683 38.610346 
L 85.871452 41.894024 
L 87.95422 43.535863 
L 90.036989 45.998622 
L 92.119757 45.177702 
L 94.202526 43.535863 
L 96.285295 43.535863 
L 98.368063 41.073105 
L 100.450832 41.894024 
L 102.5336 40.252185 
L 104.616369 42.714944 
L 106.699138 44.356783 
L 108.781906 42.714944 
L 110.864675 43.535863 
L 112.947443 42.714944 
L 115.030212 42.714944 
L 117.112981 43.535863 
L 119.195749 42.714944 
L 121.278518 40.252185 
L 123.361287 30.40115 
L 125.444055 43.535863 
L 127.526824 25.475633 
L 129.609592 6.594483 
L 131.692361 56.670576 
L 133.77513 81.298164 
L 135.857898 78.014485 
L 137.940667 78.835405 
L 140.023435 88.68644 
L 142.106204 96.895636 
L 144.188973 78.014485 
L 146.271741 81.298164 
L 148.35451 83.760922 
L 150.437278 82.119083 
L 152.520047 82.119083 
L 154.602816 90.328279 
L 156.685584 103.462992 
" style="fill:none;stroke:#9467bd;stroke-linecap:square;stroke-opacity:0.5;"/>
   </g>
   <g id="line2d_34">
    <path clip-path="url(#pe50a268518)" d="M 50.464385 44.356783 
L 52.547154 44.356783 
L 54.629922 44.356783 
L 56.712691 44.356783 
L 58.79546 44.356783 
L 60.878228 44.356783 
L 62.960997 44.356783 
L 65.043765 44.356783 
L 67.126534 34.505748 
L 69.209303 38.610346 
L 71.292071 49.2823 
L 73.37484 47.640461 
L 75.457608 49.2823 
L 77.540377 47.640461 
L 79.623146 44.356783 
L 81.705914 32.863909 
L 83.788683 34.505748 
L 85.871452 45.177702 
L 87.95422 46.819542 
L 90.036989 48.461381 
L 92.119757 48.461381 
L 94.202526 44.356783 
L 96.285295 41.073105 
L 98.368063 42.714944 
L 100.450832 47.640461 
L 102.5336 47.640461 
L 104.616369 49.2823 
L 106.699138 49.2823 
L 108.781906 45.177702 
L 110.864675 43.535863 
L 112.947443 45.998622 
L 115.030212 48.461381 
L 117.112981 49.2823 
L 119.195749 48.461381 
L 121.278518 50.10322 
L 123.361287 50.924139 
L 125.444055 57.491496 
L 127.526824 61.596094 
L 129.609592 76.372646 
L 131.692361 94.432877 
L 133.77513 106.74667 
L 135.857898 108.38851 
L 137.940667 110.030349 
L 140.023435 111.672188 
L 142.106204 113.314027 
L 144.188973 111.672188 
L 146.271741 111.672188 
L 148.35451 112.493107 
L 150.437278 112.493107 
L 152.520047 113.314027 
L 154.602816 112.493107 
L 156.685584 115.776786 
" style="fill:none;stroke:#e377c2;stroke-linecap:square;stroke-opacity:0.5;"/>
   </g>
   <g id="line2d_35">
    <path clip-path="url(#pe50a268518)" d="M 50.464385 44.356783 
L 52.547154 44.356783 
L 54.629922 44.356783 
L 56.712691 44.356783 
L 58.79546 44.356783 
L 60.878228 44.356783 
L 62.960997 44.356783 
L 65.043765 44.356783 
L 67.126534 45.998622 
L 69.209303 45.177702 
L 71.292071 56.670576 
L 73.37484 55.849657 
L 75.457608 54.207818 
L 77.540377 56.670576 
L 79.623146 56.670576 
L 81.705914 48.461381 
L 83.788683 45.177702 
L 85.871452 56.670576 
L 87.95422 55.849657 
L 90.036989 54.207818 
L 92.119757 56.670576 
L 94.202526 56.670576 
L 96.285295 48.461381 
L 98.368063 43.535863 
L 100.450832 48.461381 
L 102.5336 47.640461 
L 104.616369 46.819542 
L 106.699138 48.461381 
L 108.781906 47.640461 
L 110.864675 44.356783 
L 112.947443 45.177702 
L 115.030212 45.177702 
L 117.112981 45.177702 
L 119.195749 44.356783 
L 121.278518 45.177702 
L 123.361287 45.998622 
L 125.444055 48.461381 
L 127.526824 51.745059 
L 129.609592 73.909888 
L 131.692361 89.507359 
L 133.77513 99.358394 
L 135.857898 102.642073 
L 137.940667 102.642073 
L 140.023435 91.970118 
L 142.106204 89.507359 
L 144.188973 104.283912 
L 146.271741 105.104831 
L 148.35451 104.283912 
L 150.437278 105.104831 
L 152.520047 104.283912 
L 154.602816 92.791038 
L 156.685584 90.328279 
" style="fill:none;stroke:#bcbd22;stroke-linecap:square;stroke-opacity:0.5;"/>
   </g>
   <g id="line2d_36">
    <path clip-path="url(#pe50a268518)" d="M 50.464385 44.356783 
L 52.547154 44.356783 
L 54.629922 44.356783 
L 56.712691 44.356783 
L 58.79546 44.356783 
L 60.878228 44.356783 
L 62.960997 44.356783 
L 65.043765 44.356783 
L 67.126534 45.177702 
L 69.209303 45.177702 
L 71.292071 41.073105 
L 73.37484 41.894024 
L 75.457608 42.714944 
L 77.540377 41.894024 
L 79.623146 41.894024 
L 81.705914 45.177702 
L 83.788683 45.177702 
L 85.871452 41.894024 
L 87.95422 41.073105 
L 90.036989 41.894024 
L 92.119757 41.073105 
L 94.202526 41.073105 
L 96.285295 43.535863 
L 98.368063 44.356783 
L 100.450832 41.894024 
L 102.5336 42.714944 
L 104.616369 42.714944 
L 106.699138 41.894024 
L 108.781906 41.894024 
L 110.864675 43.535863 
L 112.947443 43.535863 
L 115.030212 42.714944 
L 117.112981 42.714944 
L 119.195749 43.535863 
L 121.278518 43.535863 
L 123.361287 41.894024 
L 125.444055 40.252185 
L 127.526824 41.894024 
L 129.609592 33.684828 
L 131.692361 24.654713 
L 133.77513 20.550115 
L 135.857898 18.087357 
L 137.940667 14.803678 
L 140.023435 24.654713 
L 142.106204 29.580231 
L 144.188973 18.087357 
L 146.271741 16.445517 
L 148.35451 18.087357 
L 150.437278 16.445517 
L 152.520047 13.982759 
L 154.602816 23.833794 
L 156.685584 29.580231 
" style="fill:none;stroke:#17becf;stroke-linecap:square;stroke-opacity:0.5;"/>
   </g>
   <g id="patch_80">
    <path d="M 42.05 126.44874 
L 42.05 11.52 
" style="fill:none;stroke:#000000;stroke-linecap:square;stroke-linejoin:miter;stroke-width:0.8;"/>
   </g>
   <g id="patch_81">
    <path d="M 208.83811 126.44874 
L 208.83811 11.52 
" style="fill:none;stroke:#000000;stroke-linecap:square;stroke-linejoin:miter;stroke-width:0.8;"/>
   </g>
   <g id="patch_82">
    <path d="M 42.05 126.44874 
L 208.83811 126.44874 
" style="fill:none;stroke:#000000;stroke-linecap:square;stroke-linejoin:miter;stroke-width:0.8;"/>
   </g>
   <g id="patch_83">
    <path d="M 42.05 11.52 
L 208.83811 11.52 
" style="fill:none;stroke:#000000;stroke-linecap:square;stroke-linejoin:miter;stroke-width:0.8;"/>
   </g>
  </g>
 </g>
 <defs>
  <clipPath id="pe50a268518">
   <rect height="114.92874" width="166.78811" x="42.05" y="11.52"/>
  </clipPath>
 </defs>
</svg>
