<?xml version="1.0" encoding="utf-8" standalone="no"?>
<!DOCTYPE svg PUBLIC "-//W3C//DTD SVG 1.1//EN"
  "http://www.w3.org/Graphics/SVG/1.1/DTD/svg11.dtd">
<!-- Created with matplotlib (https://matplotlib.org/) -->
<svg height="170.07874pt" version="1.1" viewBox="0 0 255.11811 170.07874" width="255.11811pt" xmlns="http://www.w3.org/2000/svg" xmlns:xlink="http://www.w3.org/1999/xlink">
 <defs>
  <style type="text/css">
*{stroke-linecap:butt;stroke-linejoin:round;}
  </style>
 </defs>
 <g id="figure_1">
  <g id="patch_1">
   <path d="M 0 170.07874 
L 255.11811 170.07874 
L 255.11811 0 
L 0 0 
z
" style="fill:#ffffff;"/>
  </g>
  <g id="axes_1">
   <g id="patch_2">
    <path d="M 47.09 126.44874 
L 208.83811 126.44874 
L 208.83811 11.52 
L 47.09 11.52 
z
" style="fill:#ffffff;"/>
   </g>
   <g id="PolyCollection_1">
    <defs>
     <path d="M 55.349864 -43.63 
L 55.349864 -43.63 
L 57.619058 -43.63 
L 59.888251 -43.63 
L 62.157445 -43.630002 
L 64.426638 -43.630006 
L 66.695832 -43.630015 
L 68.965025 -43.630031 
L 71.234218 -43.630059 
L 73.503412 -43.630103 
L 75.772605 -43.630168 
L 78.041799 -43.630261 
L 80.310992 -43.63039 
L 82.580186 -43.630568 
L 84.849379 -43.630807 
L 87.118573 -43.631125 
L 89.387766 -43.631546 
L 91.65696 -43.6321 
L 93.926153 -43.632835 
L 96.195347 -43.633822 
L 98.46454 -43.635149 
L 100.733734 -43.636954 
L 103.002927 -43.639393 
L 105.27212 -43.642657 
L 107.541314 -43.646993 
L 109.810507 -43.652805 
L 112.079701 -43.660556 
L 114.348894 -43.670916 
L 116.618088 -43.684743 
L 118.887281 -43.70301 
L 121.156475 -43.727329 
L 123.425668 -43.759744 
L 125.694862 -43.803442 
L 127.964055 -43.862299 
L 130.233249 -43.942618 
L 132.502442 -44.050991 
L 134.771636 -44.195198 
L 137.040829 -44.384503 
L 139.310022 -44.62697 
L 141.579216 -44.930448 
L 143.848409 -45.301891 
L 146.117603 -45.748974 
L 148.386796 -46.2753 
L 150.65599 -46.885582 
L 152.925183 -47.580144 
L 152.925183 -51.025593 
L 152.925183 -51.025593 
L 150.65599 -49.686455 
L 148.386796 -48.551094 
L 146.117603 -47.598336 
L 143.848409 -46.805974 
L 141.579216 -46.161571 
L 139.310022 -45.643055 
L 137.040829 -45.232059 
L 134.771636 -44.911202 
L 132.502442 -44.661076 
L 130.233249 -44.464069 
L 127.964055 -44.307304 
L 125.694862 -44.181672 
L 123.425668 -44.080636 
L 121.156475 -43.998542 
L 118.887281 -43.931315 
L 116.618088 -43.87648 
L 114.348894 -43.831462 
L 112.079701 -43.794212 
L 109.810507 -43.763472 
L 107.541314 -43.738273 
L 105.27212 -43.717514 
L 103.002927 -43.700493 
L 100.733734 -43.686554 
L 98.46454 -43.675149 
L 96.195347 -43.665817 
L 93.926153 -43.658205 
L 91.65696 -43.651987 
L 89.387766 -43.646914 
L 87.118573 -43.642792 
L 84.849379 -43.639494 
L 82.580186 -43.636881 
L 80.310992 -43.634844 
L 78.041799 -43.633294 
L 75.772605 -43.632147 
L 73.503412 -43.631327 
L 71.234218 -43.630766 
L 68.965025 -43.630405 
L 66.695832 -43.63019 
L 64.426638 -43.630075 
L 62.157445 -43.630023 
L 59.888251 -43.630004 
L 57.619058 -43.63 
L 55.349864 -43.63 
z
" id="ma3e5315a91" style="stroke:#6495ed;stroke-opacity:0.4;"/>
    </defs>
    <g clip-path="url(#pe006eda5b4)">
     <use style="fill:#6495ed;fill-opacity:0.4;stroke:#6495ed;stroke-opacity:0.4;" x="0" xlink:href="#ma3e5315a91" y="170.07874"/>
    </g>
   </g>
   <g id="PolyCollection_2">
    <defs>
     <path d="M 55.349864 -43.63 
L 55.349864 -43.63 
L 57.619058 -43.63 
L 59.888251 -43.630001 
L 62.157445 -43.630005 
L 64.426638 -43.630015 
L 66.695832 -43.630037 
L 68.965025 -43.63008 
L 71.234218 -43.630151 
L 73.503412 -43.630262 
L 75.772605 -43.630426 
L 78.041799 -43.630658 
L 80.310992 -43.630977 
L 82.580186 -43.631406 
L 84.849379 -43.631972 
L 87.118573 -43.632708 
L 89.387766 -43.63366 
L 91.65696 -43.634885 
L 93.926153 -43.636462 
L 96.195347 -43.638508 
L 98.46454 -43.641164 
L 100.733734 -43.64462 
L 103.002927 -43.64911 
L 105.27212 -43.654934 
L 107.541314 -43.662441 
L 109.810507 -43.672129 
L 112.079701 -43.68461 
L 114.348894 -43.700751 
L 116.618088 -43.72153 
L 118.887281 -43.748246 
L 121.156475 -43.782622 
L 123.425668 -43.827022 
L 125.694862 -43.884722 
L 127.964055 -43.960362 
L 130.233249 -44.060044 
L 132.502442 -44.191923 
L 134.771636 -44.364488 
L 137.040829 -44.588978 
L 139.310022 -44.875373 
L 141.579216 -45.23415 
L 143.848409 -45.67577 
L 146.117603 -46.208834 
L 148.386796 -46.840676 
L 150.65599 -47.579792 
L 152.925183 -48.432748 
L 152.925183 -49.584549 
L 152.925183 -49.584549 
L 150.65599 -48.514497 
L 148.386796 -47.596071 
L 146.117603 -46.820031 
L 143.848409 -46.172526 
L 141.579216 -45.639941 
L 139.310022 -45.209085 
L 137.040829 -44.866669 
L 134.771636 -44.598713 
L 132.502442 -44.390589 
L 130.233249 -44.229252 
L 127.964055 -44.10445 
L 125.694862 -44.007152 
L 123.425668 -43.930636 
L 121.156475 -43.869966 
L 118.887281 -43.821458 
L 116.618088 -43.782678 
L 114.348894 -43.751586 
L 112.079701 -43.72668 
L 109.810507 -43.706735 
L 107.541314 -43.69077 
L 105.27212 -43.678008 
L 103.002927 -43.667826 
L 100.733734 -43.659708 
L 98.46454 -43.653243 
L 96.195347 -43.648118 
L 93.926153 -43.644049 
L 91.65696 -43.640814 
L 89.387766 -43.638233 
L 87.118573 -43.636175 
L 84.849379 -43.634547 
L 82.580186 -43.633272 
L 80.310992 -43.63229 
L 78.041799 -43.63155 
L 75.772605 -43.631007 
L 73.503412 -43.630622 
L 71.234218 -43.630359 
L 68.965025 -43.630189 
L 66.695832 -43.630089 
L 64.426638 -43.630035 
L 62.157445 -43.630011 
L 59.888251 -43.630002 
L 57.619058 -43.63 
L 55.349864 -43.63 
z
" id="ma6a3b8ccf5" style="stroke:#6495ed;stroke-opacity:0.6;"/>
    </defs>
    <g clip-path="url(#pe006eda5b4)">
     <use style="fill:#6495ed;fill-opacity:0.6;stroke:#6495ed;stroke-opacity:0.6;" x="0" xlink:href="#ma6a3b8ccf5" y="170.07874"/>
    </g>
   </g>
   <g id="PolyCollection_3">
    <defs>
     <path d="M 152.925183 -51.025593 
L 152.925183 -47.580144 
L 155.194377 -48.361228 
L 157.46357 -49.22584 
L 159.732764 -50.17962 
L 162.001957 -51.212362 
L 164.271151 -52.320163 
L 166.540344 -53.494146 
L 168.809538 -54.726512 
L 171.078731 -56.006676 
L 173.347924 -57.320786 
L 175.617118 -58.663998 
L 177.886311 -60.022026 
L 180.155505 -61.382233 
L 182.424698 -62.726029 
L 184.693892 -64.054072 
L 186.963085 -65.356893 
L 189.232279 -66.624033 
L 191.501472 -67.852978 
L 193.770666 -69.030709 
L 196.039859 -70.15591 
L 198.309053 -71.223801 
L 200.578246 -72.238153 
L 200.578246 -158.55874 
L 200.578246 -158.55874 
L 198.309053 -149.480711 
L 196.039859 -140.927675 
L 193.770666 -132.710428 
L 191.501472 -124.833899 
L 189.232279 -117.4102 
L 186.963085 -110.329126 
L 184.693892 -103.615464 
L 182.424698 -97.347561 
L 180.155505 -91.45378 
L 177.886311 -85.992828 
L 175.617118 -80.958856 
L 173.347924 -76.305638 
L 171.078731 -72.052715 
L 168.809538 -68.205805 
L 166.540344 -64.748781 
L 164.271151 -61.652678 
L 162.001957 -58.913558 
L 159.732764 -56.514138 
L 157.46357 -54.41008 
L 155.194377 -52.592202 
L 152.925183 -51.025593 
z
" id="mefb8e97ca6" style="stroke:#228b22;stroke-opacity:0.4;"/>
    </defs>
    <g clip-path="url(#pe006eda5b4)">
     <use style="fill:#228b22;fill-opacity:0.4;stroke:#228b22;stroke-opacity:0.4;" x="0" xlink:href="#mefb8e97ca6" y="170.07874"/>
    </g>
   </g>
   <g id="PolyCollection_4">
    <defs>
     <path d="M 152.925183 -49.584549 
L 152.925183 -48.432748 
L 155.194377 -49.40425 
L 157.46357 -50.497237 
L 159.732764 -51.711235 
L 162.001957 -53.046868 
L 164.271151 -54.499119 
L 166.540344 -56.059314 
L 168.809538 -57.721806 
L 171.078731 -59.474312 
L 173.347924 -61.301364 
L 175.617118 -63.191131 
L 177.886311 -65.126258 
L 180.155505 -67.095566 
L 182.424698 -69.081524 
L 184.693892 -71.065951 
L 186.963085 -73.034066 
L 189.232279 -74.978629 
L 191.501472 -76.885699 
L 193.770666 -78.747531 
L 196.039859 -80.550351 
L 198.309053 -82.296272 
L 200.578246 -83.976446 
L 200.578246 -105.993564 
L 200.578246 -105.993564 
L 198.309053 -102.679016 
L 196.039859 -99.330965 
L 193.770666 -95.96552 
L 191.501472 -92.582299 
L 189.232279 -89.213336 
L 186.963085 -85.864655 
L 184.693892 -82.563695 
L 182.424698 -79.320767 
L 180.155505 -76.14997 
L 177.886311 -73.073479 
L 175.617118 -70.113487 
L 173.347924 -67.284726 
L 171.078731 -64.598125 
L 168.809538 -62.074616 
L 166.540344 -59.729373 
L 164.271151 -57.571406 
L 162.001957 -55.600936 
L 159.732764 -53.819933 
L 157.46357 -52.228927 
L 155.194377 -50.81918 
L 152.925183 -49.584549 
z
" id="mdeec6ec071" style="stroke:#228b22;stroke-opacity:0.6;"/>
    </defs>
    <g clip-path="url(#pe006eda5b4)">
     <use style="fill:#228b22;fill-opacity:0.6;stroke:#228b22;stroke-opacity:0.6;" x="0" xlink:href="#mdeec6ec071" y="170.07874"/>
    </g>
   </g>
   <g id="PathCollection_1">
    <defs>
     <path d="M -0.866025 1.732051 
L 0 0.866025 
L 0.866025 1.732051 
L 1.732051 0.866025 
L 0.866025 0 
L 1.732051 -0.866025 
L 0.866025 -1.732051 
L 0 -0.866025 
L -0.866025 -1.732051 
L -1.732051 -0.866025 
L -0.866025 0 
L -1.732051 0.866025 
z
" id="m32f90010e0" style="stroke:#8a2be2;"/>
    </defs>
    <g clip-path="url(#pe006eda5b4)">
     <use style="fill:#8a2be2;stroke:#8a2be2;" x="137.040829" xlink:href="#m32f90010e0" y="23.012874"/>
    </g>
   </g>
   <g id="PathCollection_2">
    <defs>
     <path d="M 0 -1.732051 
L -0.38887 -0.535233 
L -1.647278 -0.535233 
L -0.629204 0.204441 
L -1.018074 1.401259 
L -0 0.661585 
L 1.018074 1.401259 
L 0.629204 0.204441 
L 1.647278 -0.535233 
L 0.38887 -0.535233 
z
" id="ma85b3f3aae" style="stroke:#000000;"/>
    </defs>
    <g clip-path="url(#pe006eda5b4)">
     <use style="stroke:#000000;" x="118.887281" xlink:href="#ma85b3f3aae" y="23.012874"/>
    </g>
   </g>
   <g id="PathCollection_3">
    <defs>
     <path d="M -1.732051 1.732051 
L 1.732051 1.732051 
L 1.732051 -1.732051 
L -1.732051 -1.732051 
z
" id="mee7b50511f" style="stroke:#c71585;"/>
    </defs>
    <g clip-path="url(#pe006eda5b4)">
     <use style="fill:#c71585;stroke:#c71585;" x="137.040829" xlink:href="#mee7b50511f" y="28.184667"/>
    </g>
   </g>
   <g id="PathCollection_4">
    <defs>
     <path d="M 0 -1.732051 
L -1.647278 -0.535233 
L -1.018074 1.401259 
L 1.018074 1.401259 
L 1.647278 -0.535233 
z
" id="me185c8e1f4" style="stroke:#800000;"/>
    </defs>
    <g clip-path="url(#pe006eda5b4)">
     <use style="fill:#800000;stroke:#800000;" x="114.348894" xlink:href="#me185c8e1f4" y="23.012874"/>
    </g>
   </g>
   <g id="PathCollection_5">
    <defs>
     <path d="M -0 2.44949 
L 1.469694 0 
L 0 -2.44949 
L -1.469694 -0 
z
" id="m8bd48eb4b8" style="stroke:#556b2f;"/>
    </defs>
    <g clip-path="url(#pe006eda5b4)">
     <use style="fill:#556b2f;stroke:#556b2f;" x="100.733734" xlink:href="#m8bd48eb4b8" y="23.012874"/>
    </g>
   </g>
   <g id="patch_3">
    <path clip-path="url(#pe006eda5b4)" d="M 54.442187 126.44874 
L 56.257542 126.44874 
L 56.257542 126.44874 
L 54.442187 126.44874 
z
" style="fill:#1f77b4;opacity:0.5;"/>
   </g>
   <g id="patch_4">
    <path clip-path="url(#pe006eda5b4)" d="M 56.71138 126.44874 
L 58.526735 126.44874 
L 58.526735 126.44874 
L 56.71138 126.44874 
z
" style="fill:#1f77b4;opacity:0.5;"/>
   </g>
   <g id="patch_5">
    <path clip-path="url(#pe006eda5b4)" d="M 58.980574 126.44874 
L 60.795929 126.44874 
L 60.795929 126.44874 
L 58.980574 126.44874 
z
" style="fill:#1f77b4;opacity:0.5;"/>
   </g>
   <g id="patch_6">
    <path clip-path="url(#pe006eda5b4)" d="M 61.249767 126.44874 
L 63.065122 126.44874 
L 63.065122 126.44874 
L 61.249767 126.44874 
z
" style="fill:#1f77b4;opacity:0.5;"/>
   </g>
   <g id="patch_7">
    <path clip-path="url(#pe006eda5b4)" d="M 63.518961 126.44874 
L 65.334315 126.44874 
L 65.334315 126.44874 
L 63.518961 126.44874 
z
" style="fill:#1f77b4;opacity:0.5;"/>
   </g>
   <g id="patch_8">
    <path clip-path="url(#pe006eda5b4)" d="M 65.788154 126.44874 
L 67.603509 126.44874 
L 67.603509 126.44874 
L 65.788154 126.44874 
z
" style="fill:#1f77b4;opacity:0.5;"/>
   </g>
   <g id="patch_9">
    <path clip-path="url(#pe006eda5b4)" d="M 68.057348 126.44874 
L 69.872702 126.44874 
L 69.872702 126.44874 
L 68.057348 126.44874 
z
" style="fill:#1f77b4;opacity:0.5;"/>
   </g>
   <g id="patch_10">
    <path clip-path="url(#pe006eda5b4)" d="M 70.326541 126.44874 
L 72.141896 126.44874 
L 72.141896 126.44874 
L 70.326541 126.44874 
z
" style="fill:#1f77b4;opacity:0.5;"/>
   </g>
   <g id="patch_11">
    <path clip-path="url(#pe006eda5b4)" d="M 72.595735 126.44874 
L 74.411089 126.44874 
L 74.411089 126.44874 
L 72.595735 126.44874 
z
" style="fill:#1f77b4;opacity:0.5;"/>
   </g>
   <g id="patch_12">
    <path clip-path="url(#pe006eda5b4)" d="M 74.864928 126.44874 
L 76.680283 126.44874 
L 76.680283 126.44874 
L 74.864928 126.44874 
z
" style="fill:#1f77b4;opacity:0.5;"/>
   </g>
   <g id="patch_13">
    <path clip-path="url(#pe006eda5b4)" d="M 77.134121 126.44874 
L 78.949476 126.44874 
L 78.949476 126.44874 
L 77.134121 126.44874 
z
" style="fill:#1f77b4;opacity:0.5;"/>
   </g>
   <g id="patch_14">
    <path clip-path="url(#pe006eda5b4)" d="M 79.403315 126.44874 
L 81.21867 126.44874 
L 81.21867 126.44874 
L 79.403315 126.44874 
z
" style="fill:#1f77b4;opacity:0.5;"/>
   </g>
   <g id="patch_15">
    <path clip-path="url(#pe006eda5b4)" d="M 81.672508 126.44874 
L 83.487863 126.44874 
L 83.487863 126.44874 
L 81.672508 126.44874 
z
" style="fill:#1f77b4;opacity:0.5;"/>
   </g>
   <g id="patch_16">
    <path clip-path="url(#pe006eda5b4)" d="M 83.941702 126.44874 
L 85.757057 126.44874 
L 85.757057 126.44874 
L 83.941702 126.44874 
z
" style="fill:#1f77b4;opacity:0.5;"/>
   </g>
   <g id="patch_17">
    <path clip-path="url(#pe006eda5b4)" d="M 86.210895 126.44874 
L 88.02625 126.44874 
L 88.02625 126.44874 
L 86.210895 126.44874 
z
" style="fill:#1f77b4;opacity:0.5;"/>
   </g>
   <g id="patch_18">
    <path clip-path="url(#pe006eda5b4)" d="M 88.480089 126.44874 
L 90.295444 126.44874 
L 90.295444 126.44874 
L 88.480089 126.44874 
z
" style="fill:#1f77b4;opacity:0.5;"/>
   </g>
   <g id="patch_19">
    <path clip-path="url(#pe006eda5b4)" d="M 90.749282 126.44874 
L 92.564637 126.44874 
L 92.564637 126.44874 
L 90.749282 126.44874 
z
" style="fill:#1f77b4;opacity:0.5;"/>
   </g>
   <g id="patch_20">
    <path clip-path="url(#pe006eda5b4)" d="M 93.018476 126.44874 
L 94.833831 126.44874 
L 94.833831 126.44874 
L 93.018476 126.44874 
z
" style="fill:#1f77b4;opacity:0.5;"/>
   </g>
   <g id="patch_21">
    <path clip-path="url(#pe006eda5b4)" d="M 95.287669 126.44874 
L 97.103024 126.44874 
L 97.103024 126.44874 
L 95.287669 126.44874 
z
" style="fill:#1f77b4;opacity:0.5;"/>
   </g>
   <g id="patch_22">
    <path clip-path="url(#pe006eda5b4)" d="M 97.556863 126.44874 
L 99.372217 126.44874 
L 99.372217 126.44874 
L 97.556863 126.44874 
z
" style="fill:#1f77b4;opacity:0.5;"/>
   </g>
   <g id="patch_23">
    <path clip-path="url(#pe006eda5b4)" d="M 99.826056 126.44874 
L 101.641411 126.44874 
L 101.641411 126.44874 
L 99.826056 126.44874 
z
" style="fill:#1f77b4;opacity:0.5;"/>
   </g>
   <g id="patch_24">
    <path clip-path="url(#pe006eda5b4)" d="M 102.09525 126.44874 
L 103.910604 126.44874 
L 103.910604 126.44874 
L 102.09525 126.44874 
z
" style="fill:#1f77b4;opacity:0.5;"/>
   </g>
   <g id="patch_25">
    <path clip-path="url(#pe006eda5b4)" d="M 104.364443 126.44874 
L 106.179798 126.44874 
L 106.179798 126.44874 
L 104.364443 126.44874 
z
" style="fill:#1f77b4;opacity:0.5;"/>
   </g>
   <g id="patch_26">
    <path clip-path="url(#pe006eda5b4)" d="M 106.633637 126.44874 
L 108.448991 126.44874 
L 108.448991 126.44874 
L 106.633637 126.44874 
z
" style="fill:#1f77b4;opacity:0.5;"/>
   </g>
   <g id="patch_27">
    <path clip-path="url(#pe006eda5b4)" d="M 108.90283 126.44874 
L 110.718185 126.44874 
L 110.718185 126.420493 
L 108.90283 126.420493 
z
" style="fill:#1f77b4;opacity:0.5;"/>
   </g>
   <g id="patch_28">
    <path clip-path="url(#pe006eda5b4)" d="M 111.172023 126.44874 
L 112.987378 126.44874 
L 112.987378 126.420493 
L 111.172023 126.420493 
z
" style="fill:#1f77b4;opacity:0.5;"/>
   </g>
   <g id="patch_29">
    <path clip-path="url(#pe006eda5b4)" d="M 113.441217 126.44874 
L 115.256572 126.44874 
L 115.256572 126.406369 
L 113.441217 126.406369 
z
" style="fill:#1f77b4;opacity:0.5;"/>
   </g>
   <g id="patch_30">
    <path clip-path="url(#pe006eda5b4)" d="M 115.71041 126.44874 
L 117.525765 126.44874 
L 117.525765 126.378121 
L 115.71041 126.378121 
z
" style="fill:#1f77b4;opacity:0.5;"/>
   </g>
   <g id="patch_31">
    <path clip-path="url(#pe006eda5b4)" d="M 117.979604 126.44874 
L 119.794959 126.44874 
L 119.794959 126.378121 
L 117.979604 126.378121 
z
" style="fill:#1f77b4;opacity:0.5;"/>
   </g>
   <g id="patch_32">
    <path clip-path="url(#pe006eda5b4)" d="M 120.248797 126.44874 
L 122.064152 126.44874 
L 122.064152 126.33575 
L 120.248797 126.33575 
z
" style="fill:#1f77b4;opacity:0.5;"/>
   </g>
   <g id="patch_33">
    <path clip-path="url(#pe006eda5b4)" d="M 122.517991 126.44874 
L 124.333346 126.44874 
L 124.333346 126.279255 
L 122.517991 126.279255 
z
" style="fill:#1f77b4;opacity:0.5;"/>
   </g>
   <g id="patch_34">
    <path clip-path="url(#pe006eda5b4)" d="M 124.787184 126.44874 
L 126.602539 126.44874 
L 126.602539 126.265132 
L 124.787184 126.265132 
z
" style="fill:#1f77b4;opacity:0.5;"/>
   </g>
   <g id="patch_35">
    <path clip-path="url(#pe006eda5b4)" d="M 127.056378 126.44874 
L 128.871733 126.44874 
L 128.871733 126.265132 
L 127.056378 126.265132 
z
" style="fill:#1f77b4;opacity:0.5;"/>
   </g>
   <g id="patch_36">
    <path clip-path="url(#pe006eda5b4)" d="M 129.325571 126.44874 
L 131.140926 126.44874 
L 131.140926 126.265132 
L 129.325571 126.265132 
z
" style="fill:#1f77b4;opacity:0.5;"/>
   </g>
   <g id="patch_37">
    <path clip-path="url(#pe006eda5b4)" d="M 131.594765 126.44874 
L 133.410119 126.44874 
L 133.410119 125.841419 
L 131.594765 125.841419 
z
" style="fill:#1f77b4;opacity:0.5;"/>
   </g>
   <g id="patch_38">
    <path clip-path="url(#pe006eda5b4)" d="M 133.863958 126.44874 
L 135.679313 126.44874 
L 135.679313 125.813172 
L 133.863958 125.813172 
z
" style="fill:#1f77b4;opacity:0.5;"/>
   </g>
   <g id="patch_39">
    <path clip-path="url(#pe006eda5b4)" d="M 136.133152 126.44874 
L 137.948506 126.44874 
L 137.948506 125.50245 
L 136.133152 125.50245 
z
" style="fill:#1f77b4;opacity:0.5;"/>
   </g>
   <g id="patch_40">
    <path clip-path="url(#pe006eda5b4)" d="M 138.402345 126.44874 
L 140.2177 126.44874 
L 140.2177 125.121109 
L 138.402345 125.121109 
z
" style="fill:#1f77b4;opacity:0.5;"/>
   </g>
   <g id="patch_41">
    <path clip-path="url(#pe006eda5b4)" d="M 140.671539 126.44874 
L 142.486893 126.44874 
L 142.486893 124.669149 
L 140.671539 124.669149 
z
" style="fill:#1f77b4;opacity:0.5;"/>
   </g>
   <g id="patch_42">
    <path clip-path="url(#pe006eda5b4)" d="M 142.940732 126.44874 
L 144.756087 126.44874 
L 144.756087 124.344303 
L 142.940732 124.344303 
z
" style="fill:#1f77b4;opacity:0.5;"/>
   </g>
   <g id="patch_43">
    <path clip-path="url(#pe006eda5b4)" d="M 145.209925 126.44874 
L 147.02528 126.44874 
L 147.02528 123.65224 
L 145.209925 123.65224 
z
" style="fill:#1f77b4;opacity:0.5;"/>
   </g>
   <g id="patch_44">
    <path clip-path="url(#pe006eda5b4)" d="M 147.479119 126.44874 
L 149.294474 126.44874 
L 149.294474 122.875435 
L 147.479119 122.875435 
z
" style="fill:#1f77b4;opacity:0.5;"/>
   </g>
   <g id="patch_45">
    <path clip-path="url(#pe006eda5b4)" d="M 149.748312 126.44874 
L 151.563667 126.44874 
L 151.563667 121.858526 
L 149.748312 121.858526 
z
" style="fill:#1f77b4;opacity:0.5;"/>
   </g>
   <g id="patch_46">
    <path clip-path="url(#pe006eda5b4)" d="M 152.017506 126.44874 
L 153.832861 126.44874 
L 153.832861 120.954606 
L 152.017506 120.954606 
z
" style="fill:#1f77b4;opacity:0.5;"/>
   </g>
   <g id="patch_47">
    <path clip-path="url(#pe006eda5b4)" d="M 154.286699 126.44874 
L 156.102054 126.44874 
L 156.102054 120.02244 
L 154.286699 120.02244 
z
" style="fill:#1f77b4;opacity:0.5;"/>
   </g>
   <g id="patch_48">
    <path clip-path="url(#pe006eda5b4)" d="M 156.555893 126.44874 
L 158.371248 126.44874 
L 158.371248 118.214601 
L 156.555893 118.214601 
z
" style="fill:#1f77b4;opacity:0.5;"/>
   </g>
   <g id="patch_49">
    <path clip-path="url(#pe006eda5b4)" d="M 158.825086 126.44874 
L 160.640441 126.44874 
L 160.640441 116.110164 
L 158.825086 116.110164 
z
" style="fill:#1f77b4;opacity:0.5;"/>
   </g>
   <g id="patch_50">
    <path clip-path="url(#pe006eda5b4)" d="M 161.09428 126.44874 
L 162.909634 126.44874 
L 162.909634 114.132841 
L 161.09428 114.132841 
z
" style="fill:#1f77b4;opacity:0.5;"/>
   </g>
   <g id="patch_51">
    <path clip-path="url(#pe006eda5b4)" d="M 163.363473 126.44874 
L 165.178828 126.44874 
L 165.178828 112.084899 
L 163.363473 112.084899 
z
" style="fill:#1f77b4;opacity:0.5;"/>
   </g>
   <g id="patch_52">
    <path clip-path="url(#pe006eda5b4)" d="M 165.632667 126.44874 
L 167.448021 126.44874 
L 167.448021 110.093452 
L 165.632667 110.093452 
z
" style="fill:#1f77b4;opacity:0.5;"/>
   </g>
   <g id="patch_53">
    <path clip-path="url(#pe006eda5b4)" d="M 167.90186 126.44874 
L 169.717215 126.44874 
L 169.717215 107.494685 
L 167.90186 107.494685 
z
" style="fill:#1f77b4;opacity:0.5;"/>
   </g>
   <g id="patch_54">
    <path clip-path="url(#pe006eda5b4)" d="M 170.171054 126.44874 
L 171.986408 126.44874 
L 171.986408 106.195301 
L 170.171054 106.195301 
z
" style="fill:#1f77b4;opacity:0.5;"/>
   </g>
   <g id="patch_55">
    <path clip-path="url(#pe006eda5b4)" d="M 172.440247 126.44874 
L 174.255602 126.44874 
L 174.255602 103.751894 
L 172.440247 103.751894 
z
" style="fill:#1f77b4;opacity:0.5;"/>
   </g>
   <g id="patch_56">
    <path clip-path="url(#pe006eda5b4)" d="M 174.709441 126.44874 
L 176.524795 126.44874 
L 176.524795 100.164465 
L 174.709441 100.164465 
z
" style="fill:#1f77b4;opacity:0.5;"/>
   </g>
   <g id="patch_57">
    <path clip-path="url(#pe006eda5b4)" d="M 176.978634 126.44874 
L 178.793989 126.44874 
L 178.793989 96.690026 
L 176.978634 96.690026 
z
" style="fill:#1f77b4;opacity:0.5;"/>
   </g>
   <g id="patch_58">
    <path clip-path="url(#pe006eda5b4)" d="M 179.247827 126.44874 
L 181.063182 126.44874 
L 181.063182 92.933111 
L 179.247827 92.933111 
z
" style="fill:#1f77b4;opacity:0.5;"/>
   </g>
   <g id="patch_59">
    <path clip-path="url(#pe006eda5b4)" d="M 181.517021 126.44874 
L 183.332376 126.44874 
L 183.332376 90.517952 
L 181.517021 90.517952 
z
" style="fill:#1f77b4;opacity:0.5;"/>
   </g>
   <g id="patch_60">
    <path clip-path="url(#pe006eda5b4)" d="M 183.786214 126.44874 
L 185.601569 126.44874 
L 185.601569 88.69599 
L 183.786214 88.69599 
z
" style="fill:#1f77b4;opacity:0.5;"/>
   </g>
   <g id="patch_61">
    <path clip-path="url(#pe006eda5b4)" d="M 186.055408 126.44874 
L 187.870763 126.44874 
L 187.870763 86.916399 
L 186.055408 86.916399 
z
" style="fill:#1f77b4;opacity:0.5;"/>
   </g>
   <g id="patch_62">
    <path clip-path="url(#pe006eda5b4)" d="M 188.324601 126.44874 
L 190.139956 126.44874 
L 190.139956 84.515364 
L 188.324601 84.515364 
z
" style="fill:#1f77b4;opacity:0.5;"/>
   </g>
   <g id="patch_63">
    <path clip-path="url(#pe006eda5b4)" d="M 190.593795 126.44874 
L 192.40915 126.44874 
L 192.40915 80.490099 
L 190.593795 80.490099 
z
" style="fill:#1f77b4;opacity:0.5;"/>
   </g>
   <g id="patch_64">
    <path clip-path="url(#pe006eda5b4)" d="M 192.862988 126.44874 
L 194.678343 126.44874 
L 194.678343 76.041122 
L 192.862988 76.041122 
z
" style="fill:#1f77b4;opacity:0.5;"/>
   </g>
   <g id="patch_65">
    <path clip-path="url(#pe006eda5b4)" d="M 195.132182 126.44874 
L 196.947536 126.44874 
L 196.947536 71.818124 
L 195.132182 71.818124 
z
" style="fill:#1f77b4;opacity:0.5;"/>
   </g>
   <g id="patch_66">
    <path clip-path="url(#pe006eda5b4)" d="M 197.401375 126.44874 
L 199.21673 126.44874 
L 199.21673 68.40018 
L 197.401375 68.40018 
z
" style="fill:#1f77b4;opacity:0.5;"/>
   </g>
   <g id="patch_67">
    <path clip-path="url(#pe006eda5b4)" d="M 199.670569 126.44874 
L 201.485923 126.44874 
L 201.485923 65.801412 
L 199.670569 65.801412 
z
" style="fill:#1f77b4;opacity:0.5;"/>
   </g>
   <g id="matplotlib.axis_1">
    <g id="xtick_1">
     <g id="line2d_1">
      <defs>
       <path d="M 0 0 
L 0 3.5 
" id="ma654098588" style="stroke:#000000;stroke-width:0.8;"/>
      </defs>
      <g>
       <use style="stroke:#000000;stroke-width:0.8;" x="200.578246" xlink:href="#ma654098588" y="126.44874"/>
      </g>
     </g>
     <g id="text_1">
      <!-- 19 Apr -->
      <defs>
       <path d="M 12.40625 8.296875 
L 28.515625 8.296875 
L 28.515625 63.921875 
L 10.984375 60.40625 
L 10.984375 69.390625 
L 28.421875 72.90625 
L 38.28125 72.90625 
L 38.28125 8.296875 
L 54.390625 8.296875 
L 54.390625 0 
L 12.40625 0 
z
" id="DejaVuSans-49"/>
       <path d="M 10.984375 1.515625 
L 10.984375 10.5 
Q 14.703125 8.734375 18.5 7.8125 
Q 22.3125 6.890625 25.984375 6.890625 
Q 35.75 6.890625 40.890625 13.453125 
Q 46.046875 20.015625 46.78125 33.40625 
Q 43.953125 29.203125 39.59375 26.953125 
Q 35.25 24.703125 29.984375 24.703125 
Q 19.046875 24.703125 12.671875 31.3125 
Q 6.296875 37.9375 6.296875 49.421875 
Q 6.296875 60.640625 12.9375 67.421875 
Q 19.578125 74.21875 30.609375 74.21875 
Q 43.265625 74.21875 49.921875 64.515625 
Q 56.59375 54.828125 56.59375 36.375 
Q 56.59375 19.140625 48.40625 8.859375 
Q 40.234375 -1.421875 26.421875 -1.421875 
Q 22.703125 -1.421875 18.890625 -0.6875 
Q 15.09375 0.046875 10.984375 1.515625 
z
M 30.609375 32.421875 
Q 37.25 32.421875 41.125 36.953125 
Q 45.015625 41.5 45.015625 49.421875 
Q 45.015625 57.28125 41.125 61.84375 
Q 37.25 66.40625 30.609375 66.40625 
Q 23.96875 66.40625 20.09375 61.84375 
Q 16.21875 57.28125 16.21875 49.421875 
Q 16.21875 41.5 20.09375 36.953125 
Q 23.96875 32.421875 30.609375 32.421875 
z
" id="DejaVuSans-57"/>
       <path id="DejaVuSans-32"/>
       <path d="M 34.1875 63.1875 
L 20.796875 26.90625 
L 47.609375 26.90625 
z
M 28.609375 72.90625 
L 39.796875 72.90625 
L 67.578125 0 
L 57.328125 0 
L 50.6875 18.703125 
L 17.828125 18.703125 
L 11.1875 0 
L 0.78125 0 
z
" id="DejaVuSans-65"/>
       <path d="M 18.109375 8.203125 
L 18.109375 -20.796875 
L 9.078125 -20.796875 
L 9.078125 54.6875 
L 18.109375 54.6875 
L 18.109375 46.390625 
Q 20.953125 51.265625 25.265625 53.625 
Q 29.59375 56 35.59375 56 
Q 45.5625 56 51.78125 48.09375 
Q 58.015625 40.1875 58.015625 27.296875 
Q 58.015625 14.40625 51.78125 6.484375 
Q 45.5625 -1.421875 35.59375 -1.421875 
Q 29.59375 -1.421875 25.265625 0.953125 
Q 20.953125 3.328125 18.109375 8.203125 
z
M 48.6875 27.296875 
Q 48.6875 37.203125 44.609375 42.84375 
Q 40.53125 48.484375 33.40625 48.484375 
Q 26.265625 48.484375 22.1875 42.84375 
Q 18.109375 37.203125 18.109375 27.296875 
Q 18.109375 17.390625 22.1875 11.75 
Q 26.265625 6.109375 33.40625 6.109375 
Q 40.53125 6.109375 44.609375 11.75 
Q 48.6875 17.390625 48.6875 27.296875 
z
" id="DejaVuSans-112"/>
       <path d="M 41.109375 46.296875 
Q 39.59375 47.171875 37.8125 47.578125 
Q 36.03125 48 33.890625 48 
Q 26.265625 48 22.1875 43.046875 
Q 18.109375 38.09375 18.109375 28.8125 
L 18.109375 0 
L 9.078125 0 
L 9.078125 54.6875 
L 18.109375 54.6875 
L 18.109375 46.1875 
Q 20.953125 51.171875 25.484375 53.578125 
Q 30.03125 56 36.53125 56 
Q 37.453125 56 38.578125 55.875 
Q 39.703125 55.765625 41.0625 55.515625 
z
" id="DejaVuSans-114"/>
      </defs>
      <g transform="translate(202.785746 160.01124)rotate(-90)scale(0.08 -0.08)">
       <use xlink:href="#DejaVuSans-49"/>
       <use x="63.623047" xlink:href="#DejaVuSans-57"/>
       <use x="127.246094" xlink:href="#DejaVuSans-32"/>
       <use x="159.033203" xlink:href="#DejaVuSans-65"/>
       <use x="227.441406" xlink:href="#DejaVuSans-112"/>
       <use x="290.917969" xlink:href="#DejaVuSans-114"/>
      </g>
     </g>
    </g>
    <g id="xtick_2">
     <g id="line2d_2">
      <g>
       <use style="stroke:#000000;stroke-width:0.8;" x="184.693892" xlink:href="#ma654098588" y="126.44874"/>
      </g>
     </g>
     <g id="text_2">
      <!-- 12 Apr -->
      <defs>
       <path d="M 19.1875 8.296875 
L 53.609375 8.296875 
L 53.609375 0 
L 7.328125 0 
L 7.328125 8.296875 
Q 12.9375 14.109375 22.625 23.890625 
Q 32.328125 33.6875 34.8125 36.53125 
Q 39.546875 41.84375 41.421875 45.53125 
Q 43.3125 49.21875 43.3125 52.78125 
Q 43.3125 58.59375 39.234375 62.25 
Q 35.15625 65.921875 28.609375 65.921875 
Q 23.96875 65.921875 18.8125 64.3125 
Q 13.671875 62.703125 7.8125 59.421875 
L 7.8125 69.390625 
Q 13.765625 71.78125 18.9375 73 
Q 24.125 74.21875 28.421875 74.21875 
Q 39.75 74.21875 46.484375 68.546875 
Q 53.21875 62.890625 53.21875 53.421875 
Q 53.21875 48.921875 51.53125 44.890625 
Q 49.859375 40.875 45.40625 35.40625 
Q 44.1875 33.984375 37.640625 27.21875 
Q 31.109375 20.453125 19.1875 8.296875 
z
" id="DejaVuSans-50"/>
      </defs>
      <g transform="translate(186.901392 160.01124)rotate(-90)scale(0.08 -0.08)">
       <use xlink:href="#DejaVuSans-49"/>
       <use x="63.623047" xlink:href="#DejaVuSans-50"/>
       <use x="127.246094" xlink:href="#DejaVuSans-32"/>
       <use x="159.033203" xlink:href="#DejaVuSans-65"/>
       <use x="227.441406" xlink:href="#DejaVuSans-112"/>
       <use x="290.917969" xlink:href="#DejaVuSans-114"/>
      </g>
     </g>
    </g>
    <g id="xtick_3">
     <g id="line2d_3">
      <g>
       <use style="stroke:#000000;stroke-width:0.8;" x="168.809538" xlink:href="#ma654098588" y="126.44874"/>
      </g>
     </g>
     <g id="text_3">
      <!-- 5 Apr -->
      <defs>
       <path d="M 10.796875 72.90625 
L 49.515625 72.90625 
L 49.515625 64.59375 
L 19.828125 64.59375 
L 19.828125 46.734375 
Q 21.96875 47.46875 24.109375 47.828125 
Q 26.265625 48.1875 28.421875 48.1875 
Q 40.625 48.1875 47.75 41.5 
Q 54.890625 34.8125 54.890625 23.390625 
Q 54.890625 11.625 47.5625 5.09375 
Q 40.234375 -1.421875 26.90625 -1.421875 
Q 22.3125 -1.421875 17.546875 -0.640625 
Q 12.796875 0.140625 7.71875 1.703125 
L 7.71875 11.625 
Q 12.109375 9.234375 16.796875 8.0625 
Q 21.484375 6.890625 26.703125 6.890625 
Q 35.15625 6.890625 40.078125 11.328125 
Q 45.015625 15.765625 45.015625 23.390625 
Q 45.015625 31 40.078125 35.4375 
Q 35.15625 39.890625 26.703125 39.890625 
Q 22.75 39.890625 18.8125 39.015625 
Q 14.890625 38.140625 10.796875 36.28125 
z
" id="DejaVuSans-53"/>
      </defs>
      <g transform="translate(171.017038 154.92124)rotate(-90)scale(0.08 -0.08)">
       <use xlink:href="#DejaVuSans-53"/>
       <use x="63.623047" xlink:href="#DejaVuSans-32"/>
       <use x="95.410156" xlink:href="#DejaVuSans-65"/>
       <use x="163.818359" xlink:href="#DejaVuSans-112"/>
       <use x="227.294922" xlink:href="#DejaVuSans-114"/>
      </g>
     </g>
    </g>
    <g id="xtick_4">
     <g id="line2d_4">
      <g>
       <use style="stroke:#000000;stroke-width:0.8;" x="152.925183" xlink:href="#ma654098588" y="126.44874"/>
      </g>
     </g>
     <g id="text_4">
      <!-- 29 Mar -->
      <defs>
       <path d="M 9.8125 72.90625 
L 24.515625 72.90625 
L 43.109375 23.296875 
L 61.8125 72.90625 
L 76.515625 72.90625 
L 76.515625 0 
L 66.890625 0 
L 66.890625 64.015625 
L 48.09375 14.015625 
L 38.1875 14.015625 
L 19.390625 64.015625 
L 19.390625 0 
L 9.8125 0 
z
" id="DejaVuSans-77"/>
       <path d="M 34.28125 27.484375 
Q 23.390625 27.484375 19.1875 25 
Q 14.984375 22.515625 14.984375 16.5 
Q 14.984375 11.71875 18.140625 8.90625 
Q 21.296875 6.109375 26.703125 6.109375 
Q 34.1875 6.109375 38.703125 11.40625 
Q 43.21875 16.703125 43.21875 25.484375 
L 43.21875 27.484375 
z
M 52.203125 31.203125 
L 52.203125 0 
L 43.21875 0 
L 43.21875 8.296875 
Q 40.140625 3.328125 35.546875 0.953125 
Q 30.953125 -1.421875 24.3125 -1.421875 
Q 15.921875 -1.421875 10.953125 3.296875 
Q 6 8.015625 6 15.921875 
Q 6 25.140625 12.171875 29.828125 
Q 18.359375 34.515625 30.609375 34.515625 
L 43.21875 34.515625 
L 43.21875 35.40625 
Q 43.21875 41.609375 39.140625 45 
Q 35.0625 48.390625 27.6875 48.390625 
Q 23 48.390625 18.546875 47.265625 
Q 14.109375 46.140625 10.015625 43.890625 
L 10.015625 52.203125 
Q 14.9375 54.109375 19.578125 55.046875 
Q 24.21875 56 28.609375 56 
Q 40.484375 56 46.34375 49.84375 
Q 52.203125 43.703125 52.203125 31.203125 
z
" id="DejaVuSans-97"/>
      </defs>
      <g transform="translate(155.132683 161.26499)rotate(-90)scale(0.08 -0.08)">
       <use xlink:href="#DejaVuSans-50"/>
       <use x="63.623047" xlink:href="#DejaVuSans-57"/>
       <use x="127.246094" xlink:href="#DejaVuSans-32"/>
       <use x="159.033203" xlink:href="#DejaVuSans-77"/>
       <use x="245.3125" xlink:href="#DejaVuSans-97"/>
       <use x="306.591797" xlink:href="#DejaVuSans-114"/>
      </g>
     </g>
    </g>
    <g id="xtick_5">
     <g id="line2d_5">
      <g>
       <use style="stroke:#000000;stroke-width:0.8;" x="137.040829" xlink:href="#ma654098588" y="126.44874"/>
      </g>
     </g>
     <g id="text_5">
      <!-- 22 Mar -->
      <g transform="translate(139.248329 161.26499)rotate(-90)scale(0.08 -0.08)">
       <use xlink:href="#DejaVuSans-50"/>
       <use x="63.623047" xlink:href="#DejaVuSans-50"/>
       <use x="127.246094" xlink:href="#DejaVuSans-32"/>
       <use x="159.033203" xlink:href="#DejaVuSans-77"/>
       <use x="245.3125" xlink:href="#DejaVuSans-97"/>
       <use x="306.591797" xlink:href="#DejaVuSans-114"/>
      </g>
     </g>
    </g>
    <g id="xtick_6">
     <g id="line2d_6">
      <g>
       <use style="stroke:#000000;stroke-width:0.8;" x="121.156475" xlink:href="#ma654098588" y="126.44874"/>
      </g>
     </g>
     <g id="text_6">
      <!-- 15 Mar -->
      <g transform="translate(123.363975 161.26499)rotate(-90)scale(0.08 -0.08)">
       <use xlink:href="#DejaVuSans-49"/>
       <use x="63.623047" xlink:href="#DejaVuSans-53"/>
       <use x="127.246094" xlink:href="#DejaVuSans-32"/>
       <use x="159.033203" xlink:href="#DejaVuSans-77"/>
       <use x="245.3125" xlink:href="#DejaVuSans-97"/>
       <use x="306.591797" xlink:href="#DejaVuSans-114"/>
      </g>
     </g>
    </g>
    <g id="xtick_7">
     <g id="line2d_7">
      <g>
       <use style="stroke:#000000;stroke-width:0.8;" x="105.27212" xlink:href="#ma654098588" y="126.44874"/>
      </g>
     </g>
     <g id="text_7">
      <!-- 8 Mar -->
      <defs>
       <path d="M 31.78125 34.625 
Q 24.75 34.625 20.71875 30.859375 
Q 16.703125 27.09375 16.703125 20.515625 
Q 16.703125 13.921875 20.71875 10.15625 
Q 24.75 6.390625 31.78125 6.390625 
Q 38.8125 6.390625 42.859375 10.171875 
Q 46.921875 13.96875 46.921875 20.515625 
Q 46.921875 27.09375 42.890625 30.859375 
Q 38.875 34.625 31.78125 34.625 
z
M 21.921875 38.8125 
Q 15.578125 40.375 12.03125 44.71875 
Q 8.5 49.078125 8.5 55.328125 
Q 8.5 64.0625 14.71875 69.140625 
Q 20.953125 74.21875 31.78125 74.21875 
Q 42.671875 74.21875 48.875 69.140625 
Q 55.078125 64.0625 55.078125 55.328125 
Q 55.078125 49.078125 51.53125 44.71875 
Q 48 40.375 41.703125 38.8125 
Q 48.828125 37.15625 52.796875 32.3125 
Q 56.78125 27.484375 56.78125 20.515625 
Q 56.78125 9.90625 50.3125 4.234375 
Q 43.84375 -1.421875 31.78125 -1.421875 
Q 19.734375 -1.421875 13.25 4.234375 
Q 6.78125 9.90625 6.78125 20.515625 
Q 6.78125 27.484375 10.78125 32.3125 
Q 14.796875 37.15625 21.921875 38.8125 
z
M 18.3125 54.390625 
Q 18.3125 48.734375 21.84375 45.5625 
Q 25.390625 42.390625 31.78125 42.390625 
Q 38.140625 42.390625 41.71875 45.5625 
Q 45.3125 48.734375 45.3125 54.390625 
Q 45.3125 60.0625 41.71875 63.234375 
Q 38.140625 66.40625 31.78125 66.40625 
Q 25.390625 66.40625 21.84375 63.234375 
Q 18.3125 60.0625 18.3125 54.390625 
z
" id="DejaVuSans-56"/>
      </defs>
      <g transform="translate(107.47962 156.17499)rotate(-90)scale(0.08 -0.08)">
       <use xlink:href="#DejaVuSans-56"/>
       <use x="63.623047" xlink:href="#DejaVuSans-32"/>
       <use x="95.410156" xlink:href="#DejaVuSans-77"/>
       <use x="181.689453" xlink:href="#DejaVuSans-97"/>
       <use x="242.96875" xlink:href="#DejaVuSans-114"/>
      </g>
     </g>
    </g>
    <g id="xtick_8">
     <g id="line2d_8">
      <g>
       <use style="stroke:#000000;stroke-width:0.8;" x="89.387766" xlink:href="#ma654098588" y="126.44874"/>
      </g>
     </g>
     <g id="text_8">
      <!-- 1 Mar -->
      <g transform="translate(91.595266 156.17499)rotate(-90)scale(0.08 -0.08)">
       <use xlink:href="#DejaVuSans-49"/>
       <use x="63.623047" xlink:href="#DejaVuSans-32"/>
       <use x="95.410156" xlink:href="#DejaVuSans-77"/>
       <use x="181.689453" xlink:href="#DejaVuSans-97"/>
       <use x="242.96875" xlink:href="#DejaVuSans-114"/>
      </g>
     </g>
    </g>
    <g id="xtick_9">
     <g id="line2d_9">
      <g>
       <use style="stroke:#000000;stroke-width:0.8;" x="73.503412" xlink:href="#ma654098588" y="126.44874"/>
      </g>
     </g>
     <g id="text_9">
      <!-- 23 Feb -->
      <defs>
       <path d="M 40.578125 39.3125 
Q 47.65625 37.796875 51.625 33 
Q 55.609375 28.21875 55.609375 21.1875 
Q 55.609375 10.40625 48.1875 4.484375 
Q 40.765625 -1.421875 27.09375 -1.421875 
Q 22.515625 -1.421875 17.65625 -0.515625 
Q 12.796875 0.390625 7.625 2.203125 
L 7.625 11.71875 
Q 11.71875 9.328125 16.59375 8.109375 
Q 21.484375 6.890625 26.8125 6.890625 
Q 36.078125 6.890625 40.9375 10.546875 
Q 45.796875 14.203125 45.796875 21.1875 
Q 45.796875 27.640625 41.28125 31.265625 
Q 36.765625 34.90625 28.71875 34.90625 
L 20.21875 34.90625 
L 20.21875 43.015625 
L 29.109375 43.015625 
Q 36.375 43.015625 40.234375 45.921875 
Q 44.09375 48.828125 44.09375 54.296875 
Q 44.09375 59.90625 40.109375 62.90625 
Q 36.140625 65.921875 28.71875 65.921875 
Q 24.65625 65.921875 20.015625 65.03125 
Q 15.375 64.15625 9.8125 62.3125 
L 9.8125 71.09375 
Q 15.4375 72.65625 20.34375 73.4375 
Q 25.25 74.21875 29.59375 74.21875 
Q 40.828125 74.21875 47.359375 69.109375 
Q 53.90625 64.015625 53.90625 55.328125 
Q 53.90625 49.265625 50.4375 45.09375 
Q 46.96875 40.921875 40.578125 39.3125 
z
" id="DejaVuSans-51"/>
       <path d="M 9.8125 72.90625 
L 51.703125 72.90625 
L 51.703125 64.59375 
L 19.671875 64.59375 
L 19.671875 43.109375 
L 48.578125 43.109375 
L 48.578125 34.8125 
L 19.671875 34.8125 
L 19.671875 0 
L 9.8125 0 
z
" id="DejaVuSans-70"/>
       <path d="M 56.203125 29.59375 
L 56.203125 25.203125 
L 14.890625 25.203125 
Q 15.484375 15.921875 20.484375 11.0625 
Q 25.484375 6.203125 34.421875 6.203125 
Q 39.59375 6.203125 44.453125 7.46875 
Q 49.3125 8.734375 54.109375 11.28125 
L 54.109375 2.78125 
Q 49.265625 0.734375 44.1875 -0.34375 
Q 39.109375 -1.421875 33.890625 -1.421875 
Q 20.796875 -1.421875 13.15625 6.1875 
Q 5.515625 13.8125 5.515625 26.8125 
Q 5.515625 40.234375 12.765625 48.109375 
Q 20.015625 56 32.328125 56 
Q 43.359375 56 49.78125 48.890625 
Q 56.203125 41.796875 56.203125 29.59375 
z
M 47.21875 32.234375 
Q 47.125 39.59375 43.09375 43.984375 
Q 39.0625 48.390625 32.421875 48.390625 
Q 24.90625 48.390625 20.390625 44.140625 
Q 15.875 39.890625 15.1875 32.171875 
z
" id="DejaVuSans-101"/>
       <path d="M 48.6875 27.296875 
Q 48.6875 37.203125 44.609375 42.84375 
Q 40.53125 48.484375 33.40625 48.484375 
Q 26.265625 48.484375 22.1875 42.84375 
Q 18.109375 37.203125 18.109375 27.296875 
Q 18.109375 17.390625 22.1875 11.75 
Q 26.265625 6.109375 33.40625 6.109375 
Q 40.53125 6.109375 44.609375 11.75 
Q 48.6875 17.390625 48.6875 27.296875 
z
M 18.109375 46.390625 
Q 20.953125 51.265625 25.265625 53.625 
Q 29.59375 56 35.59375 56 
Q 45.5625 56 51.78125 48.09375 
Q 58.015625 40.1875 58.015625 27.296875 
Q 58.015625 14.40625 51.78125 6.484375 
Q 45.5625 -1.421875 35.59375 -1.421875 
Q 29.59375 -1.421875 25.265625 0.953125 
Q 20.953125 3.328125 18.109375 8.203125 
L 18.109375 0 
L 9.078125 0 
L 9.078125 75.984375 
L 18.109375 75.984375 
z
" id="DejaVuSans-98"/>
      </defs>
      <g transform="translate(75.710912 160.33374)rotate(-90)scale(0.08 -0.08)">
       <use xlink:href="#DejaVuSans-50"/>
       <use x="63.623047" xlink:href="#DejaVuSans-51"/>
       <use x="127.246094" xlink:href="#DejaVuSans-32"/>
       <use x="159.033203" xlink:href="#DejaVuSans-70"/>
       <use x="211.052734" xlink:href="#DejaVuSans-101"/>
       <use x="272.576172" xlink:href="#DejaVuSans-98"/>
      </g>
     </g>
    </g>
    <g id="xtick_10">
     <g id="line2d_10">
      <g>
       <use style="stroke:#000000;stroke-width:0.8;" x="57.619058" xlink:href="#ma654098588" y="126.44874"/>
      </g>
     </g>
     <g id="text_10">
      <!-- 16 Feb -->
      <defs>
       <path d="M 33.015625 40.375 
Q 26.375 40.375 22.484375 35.828125 
Q 18.609375 31.296875 18.609375 23.390625 
Q 18.609375 15.53125 22.484375 10.953125 
Q 26.375 6.390625 33.015625 6.390625 
Q 39.65625 6.390625 43.53125 10.953125 
Q 47.40625 15.53125 47.40625 23.390625 
Q 47.40625 31.296875 43.53125 35.828125 
Q 39.65625 40.375 33.015625 40.375 
z
M 52.59375 71.296875 
L 52.59375 62.3125 
Q 48.875 64.0625 45.09375 64.984375 
Q 41.3125 65.921875 37.59375 65.921875 
Q 27.828125 65.921875 22.671875 59.328125 
Q 17.53125 52.734375 16.796875 39.40625 
Q 19.671875 43.65625 24.015625 45.921875 
Q 28.375 48.1875 33.59375 48.1875 
Q 44.578125 48.1875 50.953125 41.515625 
Q 57.328125 34.859375 57.328125 23.390625 
Q 57.328125 12.15625 50.6875 5.359375 
Q 44.046875 -1.421875 33.015625 -1.421875 
Q 20.359375 -1.421875 13.671875 8.265625 
Q 6.984375 17.96875 6.984375 36.375 
Q 6.984375 53.65625 15.1875 63.9375 
Q 23.390625 74.21875 37.203125 74.21875 
Q 40.921875 74.21875 44.703125 73.484375 
Q 48.484375 72.75 52.59375 71.296875 
z
" id="DejaVuSans-54"/>
      </defs>
      <g transform="translate(59.826558 160.33374)rotate(-90)scale(0.08 -0.08)">
       <use xlink:href="#DejaVuSans-49"/>
       <use x="63.623047" xlink:href="#DejaVuSans-54"/>
       <use x="127.246094" xlink:href="#DejaVuSans-32"/>
       <use x="159.033203" xlink:href="#DejaVuSans-70"/>
       <use x="211.052734" xlink:href="#DejaVuSans-101"/>
       <use x="272.576172" xlink:href="#DejaVuSans-98"/>
      </g>
     </g>
    </g>
   </g>
   <g id="matplotlib.axis_2">
    <g id="ytick_1">
     <g id="line2d_11">
      <defs>
       <path d="M 0 0 
L -3.5 0 
" id="m509e5a66eb" style="stroke:#000000;stroke-width:0.8;"/>
      </defs>
      <g>
       <use style="stroke:#000000;stroke-width:0.8;" x="47.09" xlink:href="#m509e5a66eb" y="126.44874"/>
      </g>
     </g>
     <g id="text_11">
      <!-- 0 -->
      <defs>
       <path d="M 31.78125 66.40625 
Q 24.171875 66.40625 20.328125 58.90625 
Q 16.5 51.421875 16.5 36.375 
Q 16.5 21.390625 20.328125 13.890625 
Q 24.171875 6.390625 31.78125 6.390625 
Q 39.453125 6.390625 43.28125 13.890625 
Q 47.125 21.390625 47.125 36.375 
Q 47.125 51.421875 43.28125 58.90625 
Q 39.453125 66.40625 31.78125 66.40625 
z
M 31.78125 74.21875 
Q 44.046875 74.21875 50.515625 64.515625 
Q 56.984375 54.828125 56.984375 36.375 
Q 56.984375 17.96875 50.515625 8.265625 
Q 44.046875 -1.421875 31.78125 -1.421875 
Q 19.53125 -1.421875 13.0625 8.265625 
Q 6.59375 17.96875 6.59375 36.375 
Q 6.59375 54.828125 13.0625 64.515625 
Q 19.53125 74.21875 31.78125 74.21875 
z
" id="DejaVuSans-48"/>
      </defs>
      <g transform="translate(35 129.488115)scale(0.08 -0.08)">
       <use xlink:href="#DejaVuSans-48"/>
      </g>
     </g>
    </g>
    <g id="ytick_2">
     <g id="line2d_12">
      <g>
       <use style="stroke:#000000;stroke-width:0.8;" x="47.09" xlink:href="#m509e5a66eb" y="98.201265"/>
      </g>
     </g>
     <g id="text_12">
      <!-- 2000 -->
      <g transform="translate(19.73 101.24064)scale(0.08 -0.08)">
       <use xlink:href="#DejaVuSans-50"/>
       <use x="63.623047" xlink:href="#DejaVuSans-48"/>
       <use x="127.246094" xlink:href="#DejaVuSans-48"/>
       <use x="190.869141" xlink:href="#DejaVuSans-48"/>
      </g>
     </g>
    </g>
    <g id="ytick_3">
     <g id="line2d_13">
      <g>
       <use style="stroke:#000000;stroke-width:0.8;" x="47.09" xlink:href="#m509e5a66eb" y="69.953791"/>
      </g>
     </g>
     <g id="text_13">
      <!-- 4000 -->
      <defs>
       <path d="M 37.796875 64.3125 
L 12.890625 25.390625 
L 37.796875 25.390625 
z
M 35.203125 72.90625 
L 47.609375 72.90625 
L 47.609375 25.390625 
L 58.015625 25.390625 
L 58.015625 17.1875 
L 47.609375 17.1875 
L 47.609375 0 
L 37.796875 0 
L 37.796875 17.1875 
L 4.890625 17.1875 
L 4.890625 26.703125 
z
" id="DejaVuSans-52"/>
      </defs>
      <g transform="translate(19.73 72.993166)scale(0.08 -0.08)">
       <use xlink:href="#DejaVuSans-52"/>
       <use x="63.623047" xlink:href="#DejaVuSans-48"/>
       <use x="127.246094" xlink:href="#DejaVuSans-48"/>
       <use x="190.869141" xlink:href="#DejaVuSans-48"/>
      </g>
     </g>
    </g>
    <g id="ytick_4">
     <g id="line2d_14">
      <g>
       <use style="stroke:#000000;stroke-width:0.8;" x="47.09" xlink:href="#m509e5a66eb" y="41.706316"/>
      </g>
     </g>
     <g id="text_14">
      <!-- 6000 -->
      <g transform="translate(19.73 44.745691)scale(0.08 -0.08)">
       <use xlink:href="#DejaVuSans-54"/>
       <use x="63.623047" xlink:href="#DejaVuSans-48"/>
       <use x="127.246094" xlink:href="#DejaVuSans-48"/>
       <use x="190.869141" xlink:href="#DejaVuSans-48"/>
      </g>
     </g>
    </g>
    <g id="ytick_5">
     <g id="line2d_15">
      <g>
       <use style="stroke:#000000;stroke-width:0.8;" x="47.09" xlink:href="#m509e5a66eb" y="13.458842"/>
      </g>
     </g>
     <g id="text_15">
      <!-- 8000 -->
      <g transform="translate(19.73 16.498217)scale(0.08 -0.08)">
       <use xlink:href="#DejaVuSans-56"/>
       <use x="63.623047" xlink:href="#DejaVuSans-48"/>
       <use x="127.246094" xlink:href="#DejaVuSans-48"/>
       <use x="190.869141" xlink:href="#DejaVuSans-48"/>
      </g>
     </g>
    </g>
    <g id="text_16">
     <!-- Cumulative deaths -->
     <defs>
      <path d="M 64.40625 67.28125 
L 64.40625 56.890625 
Q 59.421875 61.53125 53.78125 63.8125 
Q 48.140625 66.109375 41.796875 66.109375 
Q 29.296875 66.109375 22.65625 58.46875 
Q 16.015625 50.828125 16.015625 36.375 
Q 16.015625 21.96875 22.65625 14.328125 
Q 29.296875 6.6875 41.796875 6.6875 
Q 48.140625 6.6875 53.78125 8.984375 
Q 59.421875 11.28125 64.40625 15.921875 
L 64.40625 5.609375 
Q 59.234375 2.09375 53.4375 0.328125 
Q 47.65625 -1.421875 41.21875 -1.421875 
Q 24.65625 -1.421875 15.125 8.703125 
Q 5.609375 18.84375 5.609375 36.375 
Q 5.609375 53.953125 15.125 64.078125 
Q 24.65625 74.21875 41.21875 74.21875 
Q 47.75 74.21875 53.53125 72.484375 
Q 59.328125 70.75 64.40625 67.28125 
z
" id="DejaVuSans-67"/>
      <path d="M 8.5 21.578125 
L 8.5 54.6875 
L 17.484375 54.6875 
L 17.484375 21.921875 
Q 17.484375 14.15625 20.5 10.265625 
Q 23.53125 6.390625 29.59375 6.390625 
Q 36.859375 6.390625 41.078125 11.03125 
Q 45.3125 15.671875 45.3125 23.6875 
L 45.3125 54.6875 
L 54.296875 54.6875 
L 54.296875 0 
L 45.3125 0 
L 45.3125 8.40625 
Q 42.046875 3.421875 37.71875 1 
Q 33.40625 -1.421875 27.6875 -1.421875 
Q 18.265625 -1.421875 13.375 4.4375 
Q 8.5 10.296875 8.5 21.578125 
z
M 31.109375 56 
z
" id="DejaVuSans-117"/>
      <path d="M 52 44.1875 
Q 55.375 50.25 60.0625 53.125 
Q 64.75 56 71.09375 56 
Q 79.640625 56 84.28125 50.015625 
Q 88.921875 44.046875 88.921875 33.015625 
L 88.921875 0 
L 79.890625 0 
L 79.890625 32.71875 
Q 79.890625 40.578125 77.09375 44.375 
Q 74.3125 48.1875 68.609375 48.1875 
Q 61.625 48.1875 57.5625 43.546875 
Q 53.515625 38.921875 53.515625 30.90625 
L 53.515625 0 
L 44.484375 0 
L 44.484375 32.71875 
Q 44.484375 40.625 41.703125 44.40625 
Q 38.921875 48.1875 33.109375 48.1875 
Q 26.21875 48.1875 22.15625 43.53125 
Q 18.109375 38.875 18.109375 30.90625 
L 18.109375 0 
L 9.078125 0 
L 9.078125 54.6875 
L 18.109375 54.6875 
L 18.109375 46.1875 
Q 21.1875 51.21875 25.484375 53.609375 
Q 29.78125 56 35.6875 56 
Q 41.65625 56 45.828125 52.96875 
Q 50 49.953125 52 44.1875 
z
" id="DejaVuSans-109"/>
      <path d="M 9.421875 75.984375 
L 18.40625 75.984375 
L 18.40625 0 
L 9.421875 0 
z
" id="DejaVuSans-108"/>
      <path d="M 18.3125 70.21875 
L 18.3125 54.6875 
L 36.8125 54.6875 
L 36.8125 47.703125 
L 18.3125 47.703125 
L 18.3125 18.015625 
Q 18.3125 11.328125 20.140625 9.421875 
Q 21.96875 7.515625 27.59375 7.515625 
L 36.8125 7.515625 
L 36.8125 0 
L 27.59375 0 
Q 17.1875 0 13.234375 3.875 
Q 9.28125 7.765625 9.28125 18.015625 
L 9.28125 47.703125 
L 2.6875 47.703125 
L 2.6875 54.6875 
L 9.28125 54.6875 
L 9.28125 70.21875 
z
" id="DejaVuSans-116"/>
      <path d="M 9.421875 54.6875 
L 18.40625 54.6875 
L 18.40625 0 
L 9.421875 0 
z
M 9.421875 75.984375 
L 18.40625 75.984375 
L 18.40625 64.59375 
L 9.421875 64.59375 
z
" id="DejaVuSans-105"/>
      <path d="M 2.984375 54.6875 
L 12.5 54.6875 
L 29.59375 8.796875 
L 46.6875 54.6875 
L 56.203125 54.6875 
L 35.6875 0 
L 23.484375 0 
z
" id="DejaVuSans-118"/>
      <path d="M 45.40625 46.390625 
L 45.40625 75.984375 
L 54.390625 75.984375 
L 54.390625 0 
L 45.40625 0 
L 45.40625 8.203125 
Q 42.578125 3.328125 38.25 0.953125 
Q 33.9375 -1.421875 27.875 -1.421875 
Q 17.96875 -1.421875 11.734375 6.484375 
Q 5.515625 14.40625 5.515625 27.296875 
Q 5.515625 40.1875 11.734375 48.09375 
Q 17.96875 56 27.875 56 
Q 33.9375 56 38.25 53.625 
Q 42.578125 51.265625 45.40625 46.390625 
z
M 14.796875 27.296875 
Q 14.796875 17.390625 18.875 11.75 
Q 22.953125 6.109375 30.078125 6.109375 
Q 37.203125 6.109375 41.296875 11.75 
Q 45.40625 17.390625 45.40625 27.296875 
Q 45.40625 37.203125 41.296875 42.84375 
Q 37.203125 48.484375 30.078125 48.484375 
Q 22.953125 48.484375 18.875 42.84375 
Q 14.796875 37.203125 14.796875 27.296875 
z
" id="DejaVuSans-100"/>
      <path d="M 54.890625 33.015625 
L 54.890625 0 
L 45.90625 0 
L 45.90625 32.71875 
Q 45.90625 40.484375 42.875 44.328125 
Q 39.84375 48.1875 33.796875 48.1875 
Q 26.515625 48.1875 22.3125 43.546875 
Q 18.109375 38.921875 18.109375 30.90625 
L 18.109375 0 
L 9.078125 0 
L 9.078125 75.984375 
L 18.109375 75.984375 
L 18.109375 46.1875 
Q 21.34375 51.125 25.703125 53.5625 
Q 30.078125 56 35.796875 56 
Q 45.21875 56 50.046875 50.171875 
Q 54.890625 44.34375 54.890625 33.015625 
z
" id="DejaVuSans-104"/>
      <path d="M 44.28125 53.078125 
L 44.28125 44.578125 
Q 40.484375 46.53125 36.375 47.5 
Q 32.28125 48.484375 27.875 48.484375 
Q 21.1875 48.484375 17.84375 46.4375 
Q 14.5 44.390625 14.5 40.28125 
Q 14.5 37.15625 16.890625 35.375 
Q 19.28125 33.59375 26.515625 31.984375 
L 29.59375 31.296875 
Q 39.15625 29.25 43.1875 25.515625 
Q 47.21875 21.78125 47.21875 15.09375 
Q 47.21875 7.46875 41.1875 3.015625 
Q 35.15625 -1.421875 24.609375 -1.421875 
Q 20.21875 -1.421875 15.453125 -0.5625 
Q 10.6875 0.296875 5.421875 2 
L 5.421875 11.28125 
Q 10.40625 8.6875 15.234375 7.390625 
Q 20.0625 6.109375 24.8125 6.109375 
Q 31.15625 6.109375 34.5625 8.28125 
Q 37.984375 10.453125 37.984375 14.40625 
Q 37.984375 18.0625 35.515625 20.015625 
Q 33.0625 21.96875 24.703125 23.78125 
L 21.578125 24.515625 
Q 13.234375 26.265625 9.515625 29.90625 
Q 5.8125 33.546875 5.8125 39.890625 
Q 5.8125 47.609375 11.28125 51.796875 
Q 16.75 56 26.8125 56 
Q 31.78125 56 36.171875 55.265625 
Q 40.578125 54.546875 44.28125 53.078125 
z
" id="DejaVuSans-115"/>
     </defs>
     <g transform="translate(14.06625 106.72437)rotate(-90)scale(0.08 -0.08)">
      <use xlink:href="#DejaVuSans-67"/>
      <use x="69.824219" xlink:href="#DejaVuSans-117"/>
      <use x="133.203125" xlink:href="#DejaVuSans-109"/>
      <use x="230.615234" xlink:href="#DejaVuSans-117"/>
      <use x="293.994141" xlink:href="#DejaVuSans-108"/>
      <use x="321.777344" xlink:href="#DejaVuSans-97"/>
      <use x="383.056641" xlink:href="#DejaVuSans-116"/>
      <use x="422.265625" xlink:href="#DejaVuSans-105"/>
      <use x="450.048828" xlink:href="#DejaVuSans-118"/>
      <use x="509.228516" xlink:href="#DejaVuSans-101"/>
      <use x="570.751953" xlink:href="#DejaVuSans-32"/>
      <use x="602.539062" xlink:href="#DejaVuSans-100"/>
      <use x="666.015625" xlink:href="#DejaVuSans-101"/>
      <use x="727.539062" xlink:href="#DejaVuSans-97"/>
      <use x="788.818359" xlink:href="#DejaVuSans-116"/>
      <use x="828.027344" xlink:href="#DejaVuSans-104"/>
      <use x="891.40625" xlink:href="#DejaVuSans-115"/>
     </g>
    </g>
   </g>
   <g id="line2d_16">
    <path clip-path="url(#pe006eda5b4)" d="M 55.349864 126.44874 
L 57.619058 126.44874 
L 59.888251 126.448739 
L 62.157445 126.448732 
L 64.426638 126.448713 
L 66.695832 126.448671 
L 68.965025 126.448592 
L 71.234218 126.44846 
L 73.503412 126.448254 
L 75.772605 126.447952 
L 78.041799 126.447526 
L 80.310992 126.446946 
L 82.580186 126.446176 
L 84.849379 126.445173 
L 87.118573 126.443888 
L 89.387766 126.442257 
L 91.65696 126.440201 
L 93.926153 126.437611 
L 96.195347 126.434343 
L 98.46454 126.430207 
L 100.733734 126.42497 
L 103.002927 126.418342 
L 105.27212 126.409974 
L 107.541314 126.399447 
L 109.810507 126.386186 
L 112.079701 126.369474 
L 114.348894 126.348414 
L 116.618088 126.321896 
L 118.887281 126.288539 
L 121.156475 126.246444 
L 123.425668 126.193146 
L 125.694862 126.125267 
L 127.964055 126.037951 
L 130.233249 125.924758 
L 132.502442 125.777359 
L 134.771636 125.58572 
L 137.040829 125.338098 
L 139.310022 125.022035 
L 141.579216 124.625054 
L 143.848409 124.134941 
L 146.117603 123.540282 
L 148.386796 122.830401 
L 150.65599 121.995233 
L 152.925183 121.025077 
" style="fill:none;stroke:#0000ff;stroke-linecap:square;stroke-opacity:0.5;"/>
   </g>
   <g id="line2d_17">
    <path clip-path="url(#pe006eda5b4)" d="M 155.194377 119.910662 
L 157.46357 118.64406 
L 159.732764 117.219183 
L 162.001957 115.63262 
L 164.271151 113.88401 
L 166.540344 111.976113 
L 168.809538 109.914629 
L 171.078731 107.707845 
L 173.347924 105.36618 
L 175.617118 102.901675 
L 177.886311 100.327473 
L 180.155505 97.657332 
L 182.424698 94.905157 
L 184.693892 92.08461 
L 186.963085 89.208752 
L 189.232279 86.289766 
L 191.501472 83.33872 
L 193.770666 80.365388 
L 196.039859 77.378117 
L 198.309053 74.383728 
L 200.578246 71.387448 
" style="fill:none;stroke:#008000;stroke-linecap:square;stroke-opacity:0.5;"/>
   </g>
   <g id="line2d_18">
    <path clip-path="url(#pe006eda5b4)" d="M 137.040829 126.44874 
L 137.040829 11.52 
" style="fill:none;stroke:#0000ff;stroke-dasharray:1.85,0.8;stroke-dashoffset:0;stroke-width:0.5;"/>
   </g>
   <g id="line2d_19">
    <path clip-path="url(#pe006eda5b4)" d="M 118.887281 126.44874 
L 118.887281 11.52 
" style="fill:none;stroke:#0000ff;stroke-dasharray:1.85,0.8;stroke-dashoffset:0;stroke-width:0.5;"/>
   </g>
   <g id="line2d_20">
    <path clip-path="url(#pe006eda5b4)" d="M 137.040829 126.44874 
L 137.040829 11.52 
" style="fill:none;stroke:#0000ff;stroke-dasharray:1.85,0.8;stroke-dashoffset:0;stroke-width:0.5;"/>
   </g>
   <g id="line2d_21">
    <path clip-path="url(#pe006eda5b4)" d="M 114.348894 126.44874 
L 114.348894 11.52 
" style="fill:none;stroke:#0000ff;stroke-dasharray:1.85,0.8;stroke-dashoffset:0;stroke-width:0.5;"/>
   </g>
   <g id="line2d_22">
    <path clip-path="url(#pe006eda5b4)" d="M 100.733734 126.44874 
L 100.733734 11.52 
" style="fill:none;stroke:#0000ff;stroke-dasharray:1.85,0.8;stroke-dashoffset:0;stroke-width:0.5;"/>
   </g>
   <g id="patch_68">
    <path d="M 47.09 126.44874 
L 47.09 11.52 
" style="fill:none;stroke:#000000;stroke-linecap:square;stroke-linejoin:miter;stroke-width:0.8;"/>
   </g>
   <g id="patch_69">
    <path d="M 208.83811 126.44874 
L 208.83811 11.52 
" style="fill:none;stroke:#000000;stroke-linecap:square;stroke-linejoin:miter;stroke-width:0.8;"/>
   </g>
   <g id="patch_70">
    <path d="M 47.09 126.44874 
L 208.83811 126.44874 
" style="fill:none;stroke:#000000;stroke-linecap:square;stroke-linejoin:miter;stroke-width:0.8;"/>
   </g>
   <g id="patch_71">
    <path d="M 47.09 11.52 
L 208.83811 11.52 
" style="fill:none;stroke:#000000;stroke-linecap:square;stroke-linejoin:miter;stroke-width:0.8;"/>
   </g>
   <g id="legend_1">
    <g id="line2d_23">
     <path d="M 54.29 103.04249 
L 70.29 103.04249 
" style="fill:none;stroke:#0000ff;stroke-linecap:square;stroke-opacity:0.5;"/>
    </g>
    <g id="line2d_24"/>
    <g id="text_17">
     <!-- Simulation -->
     <defs>
      <path d="M 53.515625 70.515625 
L 53.515625 60.890625 
Q 47.90625 63.578125 42.921875 64.890625 
Q 37.9375 66.21875 33.296875 66.21875 
Q 25.25 66.21875 20.875 63.09375 
Q 16.5 59.96875 16.5 54.203125 
Q 16.5 49.359375 19.40625 46.890625 
Q 22.3125 44.4375 30.421875 42.921875 
L 36.375 41.703125 
Q 47.40625 39.59375 52.65625 34.296875 
Q 57.90625 29 57.90625 20.125 
Q 57.90625 9.515625 50.796875 4.046875 
Q 43.703125 -1.421875 29.984375 -1.421875 
Q 24.8125 -1.421875 18.96875 -0.25 
Q 13.140625 0.921875 6.890625 3.21875 
L 6.890625 13.375 
Q 12.890625 10.015625 18.65625 8.296875 
Q 24.421875 6.59375 29.984375 6.59375 
Q 38.421875 6.59375 43.015625 9.90625 
Q 47.609375 13.234375 47.609375 19.390625 
Q 47.609375 24.75 44.3125 27.78125 
Q 41.015625 30.8125 33.5 32.328125 
L 27.484375 33.5 
Q 16.453125 35.6875 11.515625 40.375 
Q 6.59375 45.0625 6.59375 53.421875 
Q 6.59375 63.09375 13.40625 68.65625 
Q 20.21875 74.21875 32.171875 74.21875 
Q 37.3125 74.21875 42.625 73.28125 
Q 47.953125 72.359375 53.515625 70.515625 
z
" id="DejaVuSans-83"/>
      <path d="M 30.609375 48.390625 
Q 23.390625 48.390625 19.1875 42.75 
Q 14.984375 37.109375 14.984375 27.296875 
Q 14.984375 17.484375 19.15625 11.84375 
Q 23.34375 6.203125 30.609375 6.203125 
Q 37.796875 6.203125 41.984375 11.859375 
Q 46.1875 17.53125 46.1875 27.296875 
Q 46.1875 37.015625 41.984375 42.703125 
Q 37.796875 48.390625 30.609375 48.390625 
z
M 30.609375 56 
Q 42.328125 56 49.015625 48.375 
Q 55.71875 40.765625 55.71875 27.296875 
Q 55.71875 13.875 49.015625 6.21875 
Q 42.328125 -1.421875 30.609375 -1.421875 
Q 18.84375 -1.421875 12.171875 6.21875 
Q 5.515625 13.875 5.515625 27.296875 
Q 5.515625 40.765625 12.171875 48.375 
Q 18.84375 56 30.609375 56 
z
" id="DejaVuSans-111"/>
      <path d="M 54.890625 33.015625 
L 54.890625 0 
L 45.90625 0 
L 45.90625 32.71875 
Q 45.90625 40.484375 42.875 44.328125 
Q 39.84375 48.1875 33.796875 48.1875 
Q 26.515625 48.1875 22.3125 43.546875 
Q 18.109375 38.921875 18.109375 30.90625 
L 18.109375 0 
L 9.078125 0 
L 9.078125 54.6875 
L 18.109375 54.6875 
L 18.109375 46.1875 
Q 21.34375 51.125 25.703125 53.5625 
Q 30.078125 56 35.796875 56 
Q 45.21875 56 50.046875 50.171875 
Q 54.890625 44.34375 54.890625 33.015625 
z
" id="DejaVuSans-110"/>
     </defs>
     <g transform="translate(76.69 105.84249)scale(0.08 -0.08)">
      <use xlink:href="#DejaVuSans-83"/>
      <use x="63.476562" xlink:href="#DejaVuSans-105"/>
      <use x="91.259766" xlink:href="#DejaVuSans-109"/>
      <use x="188.671875" xlink:href="#DejaVuSans-117"/>
      <use x="252.050781" xlink:href="#DejaVuSans-108"/>
      <use x="279.833984" xlink:href="#DejaVuSans-97"/>
      <use x="341.113281" xlink:href="#DejaVuSans-116"/>
      <use x="380.322266" xlink:href="#DejaVuSans-105"/>
      <use x="408.105469" xlink:href="#DejaVuSans-111"/>
      <use x="469.287109" xlink:href="#DejaVuSans-110"/>
     </g>
    </g>
    <g id="line2d_25">
     <path d="M 54.29 114.78499 
L 70.29 114.78499 
" style="fill:none;stroke:#008000;stroke-linecap:square;stroke-opacity:0.5;"/>
    </g>
    <g id="line2d_26"/>
    <g id="text_18">
     <!-- Forecast -->
     <defs>
      <path d="M 48.78125 52.59375 
L 48.78125 44.1875 
Q 44.96875 46.296875 41.140625 47.34375 
Q 37.3125 48.390625 33.40625 48.390625 
Q 24.65625 48.390625 19.8125 42.84375 
Q 14.984375 37.3125 14.984375 27.296875 
Q 14.984375 17.28125 19.8125 11.734375 
Q 24.65625 6.203125 33.40625 6.203125 
Q 37.3125 6.203125 41.140625 7.25 
Q 44.96875 8.296875 48.78125 10.40625 
L 48.78125 2.09375 
Q 45.015625 0.34375 40.984375 -0.53125 
Q 36.96875 -1.421875 32.421875 -1.421875 
Q 20.0625 -1.421875 12.78125 6.34375 
Q 5.515625 14.109375 5.515625 27.296875 
Q 5.515625 40.671875 12.859375 48.328125 
Q 20.21875 56 33.015625 56 
Q 37.15625 56 41.109375 55.140625 
Q 45.0625 54.296875 48.78125 52.59375 
z
" id="DejaVuSans-99"/>
     </defs>
     <g transform="translate(76.69 117.58499)scale(0.08 -0.08)">
      <use xlink:href="#DejaVuSans-70"/>
      <use x="53.894531" xlink:href="#DejaVuSans-111"/>
      <use x="115.076172" xlink:href="#DejaVuSans-114"/>
      <use x="153.939453" xlink:href="#DejaVuSans-101"/>
      <use x="215.462891" xlink:href="#DejaVuSans-99"/>
      <use x="270.443359" xlink:href="#DejaVuSans-97"/>
      <use x="331.722656" xlink:href="#DejaVuSans-115"/>
      <use x="383.822266" xlink:href="#DejaVuSans-116"/>
     </g>
    </g>
   </g>
  </g>
  <g id="axes_2">
   <g id="matplotlib.axis_3">
    <g id="ytick_6">
     <g id="line2d_27">
      <defs>
       <path d="M 0 0 
L 3.5 0 
" id="maff93c2faf" style="stroke:#000000;stroke-width:0.8;"/>
      </defs>
      <g>
       <use style="stroke:#000000;stroke-width:0.8;" x="208.83811" xlink:href="#maff93c2faf" y="126.44874"/>
      </g>
     </g>
     <g id="text_19">
      <!-- 1.0 -->
      <defs>
       <path d="M 10.59375 35.5 
L 73.1875 35.5 
L 73.1875 27.203125 
L 10.59375 27.203125 
z
" id="DejaVuSans-8722"/>
       <path d="M 10.6875 12.40625 
L 21 12.40625 
L 21 0 
L 10.6875 0 
z
" id="DejaVuSans-46"/>
      </defs>
      <g transform="translate(215.83811 129.488115)scale(0.08 -0.08)">
       <use xlink:href="#DejaVuSans-8722"/>
       <use x="83.789062" xlink:href="#DejaVuSans-49"/>
       <use x="147.412109" xlink:href="#DejaVuSans-46"/>
       <use x="179.199219" xlink:href="#DejaVuSans-48"/>
      </g>
     </g>
    </g>
    <g id="ytick_7">
     <g id="line2d_28">
      <g>
       <use style="stroke:#000000;stroke-width:0.8;" x="208.83811" xlink:href="#maff93c2faf" y="85.402762"/>
      </g>
     </g>
     <g id="text_20">
      <!-- 0.5 -->
      <g transform="translate(215.83811 88.442137)scale(0.08 -0.08)">
       <use xlink:href="#DejaVuSans-8722"/>
       <use x="83.789062" xlink:href="#DejaVuSans-48"/>
       <use x="147.412109" xlink:href="#DejaVuSans-46"/>
       <use x="179.199219" xlink:href="#DejaVuSans-53"/>
      </g>
     </g>
    </g>
    <g id="ytick_8">
     <g id="line2d_29">
      <g>
       <use style="stroke:#000000;stroke-width:0.8;" x="208.83811" xlink:href="#maff93c2faf" y="44.356783"/>
      </g>
     </g>
     <g id="text_21">
      <!-- 0.0 -->
      <g transform="translate(215.83811 47.396158)scale(0.08 -0.08)">
       <use xlink:href="#DejaVuSans-48"/>
       <use x="63.623047" xlink:href="#DejaVuSans-46"/>
       <use x="95.410156" xlink:href="#DejaVuSans-48"/>
      </g>
     </g>
    </g>
    <g id="ytick_9">
     <g id="line2d_30">
      <g>
       <use style="stroke:#000000;stroke-width:0.8;" x="208.83811" xlink:href="#maff93c2faf" y="11.52"/>
      </g>
     </g>
     <g id="text_22">
      <!-- 0.4 -->
      <g transform="translate(215.83811 14.559375)scale(0.08 -0.08)">
       <use xlink:href="#DejaVuSans-48"/>
       <use x="63.623047" xlink:href="#DejaVuSans-46"/>
       <use x="95.410156" xlink:href="#DejaVuSans-52"/>
      </g>
     </g>
    </g>
    <g id="text_23">
     <!-- Relative change -->
     <defs>
      <path d="M 44.390625 34.1875 
Q 47.5625 33.109375 50.5625 29.59375 
Q 53.5625 26.078125 56.59375 19.921875 
L 66.609375 0 
L 56 0 
L 46.6875 18.703125 
Q 43.0625 26.03125 39.671875 28.421875 
Q 36.28125 30.8125 30.421875 30.8125 
L 19.671875 30.8125 
L 19.671875 0 
L 9.8125 0 
L 9.8125 72.90625 
L 32.078125 72.90625 
Q 44.578125 72.90625 50.734375 67.671875 
Q 56.890625 62.453125 56.890625 51.90625 
Q 56.890625 45.015625 53.6875 40.46875 
Q 50.484375 35.9375 44.390625 34.1875 
z
M 19.671875 64.796875 
L 19.671875 38.921875 
L 32.078125 38.921875 
Q 39.203125 38.921875 42.84375 42.21875 
Q 46.484375 45.515625 46.484375 51.90625 
Q 46.484375 58.296875 42.84375 61.546875 
Q 39.203125 64.796875 32.078125 64.796875 
z
" id="DejaVuSans-82"/>
      <path d="M 45.40625 27.984375 
Q 45.40625 37.75 41.375 43.109375 
Q 37.359375 48.484375 30.078125 48.484375 
Q 22.859375 48.484375 18.828125 43.109375 
Q 14.796875 37.75 14.796875 27.984375 
Q 14.796875 18.265625 18.828125 12.890625 
Q 22.859375 7.515625 30.078125 7.515625 
Q 37.359375 7.515625 41.375 12.890625 
Q 45.40625 18.265625 45.40625 27.984375 
z
M 54.390625 6.78125 
Q 54.390625 -7.171875 48.1875 -13.984375 
Q 42 -20.796875 29.203125 -20.796875 
Q 24.46875 -20.796875 20.265625 -20.09375 
Q 16.0625 -19.390625 12.109375 -17.921875 
L 12.109375 -9.1875 
Q 16.0625 -11.328125 19.921875 -12.34375 
Q 23.78125 -13.375 27.78125 -13.375 
Q 36.625 -13.375 41.015625 -8.765625 
Q 45.40625 -4.15625 45.40625 5.171875 
L 45.40625 9.625 
Q 42.625 4.78125 38.28125 2.390625 
Q 33.9375 0 27.875 0 
Q 17.828125 0 11.671875 7.65625 
Q 5.515625 15.328125 5.515625 27.984375 
Q 5.515625 40.671875 11.671875 48.328125 
Q 17.828125 56 27.875 56 
Q 33.9375 56 38.28125 53.609375 
Q 42.625 51.21875 45.40625 46.390625 
L 45.40625 54.6875 
L 54.390625 54.6875 
z
" id="DejaVuSans-103"/>
     </defs>
     <g transform="translate(245.34311 101.10812)rotate(-90)scale(0.08 -0.08)">
      <use xlink:href="#DejaVuSans-82"/>
      <use x="64.982422" xlink:href="#DejaVuSans-101"/>
      <use x="126.505859" xlink:href="#DejaVuSans-108"/>
      <use x="154.289062" xlink:href="#DejaVuSans-97"/>
      <use x="215.568359" xlink:href="#DejaVuSans-116"/>
      <use x="254.777344" xlink:href="#DejaVuSans-105"/>
      <use x="282.560547" xlink:href="#DejaVuSans-118"/>
      <use x="341.740234" xlink:href="#DejaVuSans-101"/>
      <use x="403.263672" xlink:href="#DejaVuSans-32"/>
      <use x="435.050781" xlink:href="#DejaVuSans-99"/>
      <use x="490.03125" xlink:href="#DejaVuSans-104"/>
      <use x="553.410156" xlink:href="#DejaVuSans-97"/>
      <use x="614.689453" xlink:href="#DejaVuSans-110"/>
      <use x="678.068359" xlink:href="#DejaVuSans-103"/>
      <use x="741.544922" xlink:href="#DejaVuSans-101"/>
     </g>
    </g>
   </g>
   <g id="line2d_31">
    <path clip-path="url(#pe006eda5b4)" d="M 55.349864 39.431265 
L 57.619058 38.610346 
L 59.888251 42.714944 
L 62.157445 42.714944 
L 64.426638 41.894024 
L 66.695832 42.714944 
L 68.965025 42.714944 
L 71.234218 45.177702 
L 73.503412 44.356783 
L 75.772605 42.714944 
L 78.041799 45.177702 
L 80.310992 46.819542 
L 82.580186 48.461381 
L 84.849379 41.894024 
L 87.118573 45.177702 
L 89.387766 37.789426 
L 91.65696 42.714944 
L 93.926153 44.356783 
L 96.195347 42.714944 
L 98.46454 47.640461 
L 100.733734 46.819542 
L 103.002927 43.535863 
L 105.27212 34.505748 
L 107.541314 45.177702 
L 109.810507 50.10322 
L 112.079701 45.177702 
L 114.348894 50.10322 
L 116.618088 51.745059 
L 118.887281 58.312416 
L 121.156475 54.207818 
L 123.425668 50.10322 
L 125.694862 61.596094 
L 127.964055 72.268048 
L 130.233249 81.298164 
L 132.502442 85.402762 
L 134.771636 101.000233 
L 137.040829 102.642073 
L 139.310022 91.149199 
L 141.579216 92.791038 
L 143.848409 91.970118 
L 146.117603 92.791038 
L 148.386796 92.791038 
L 150.65599 98.537475 
L 152.925183 107.56759 
" style="fill:none;stroke:#d62728;stroke-linecap:square;stroke-opacity:0.5;"/>
   </g>
   <g id="line2d_32">
    <path clip-path="url(#pe006eda5b4)" d="M 55.349864 43.535863 
L 57.619058 36.147587 
L 59.888251 42.714944 
L 62.157445 42.714944 
L 64.426638 44.356783 
L 66.695832 45.177702 
L 68.965025 42.714944 
L 71.234218 45.998622 
L 73.503412 36.968507 
L 75.772605 48.461381 
L 78.041799 45.177702 
L 80.310992 44.356783 
L 82.580186 41.894024 
L 84.849379 35.326668 
L 87.118573 40.252185 
L 89.387766 29.580231 
L 91.65696 37.789426 
L 93.926153 40.252185 
L 96.195347 42.714944 
L 98.46454 44.356783 
L 100.733734 43.535863 
L 103.002927 44.356783 
L 105.27212 28.759311 
L 107.541314 42.714944 
L 109.810507 45.998622 
L 112.079701 42.714944 
L 114.348894 39.431265 
L 116.618088 28.759311 
L 118.887281 36.968507 
L 121.156475 33.684828 
L 123.425668 26.296552 
L 125.694862 35.326668 
L 127.964055 40.252185 
L 130.233249 46.819542 
L 132.502442 45.998622 
L 134.771636 64.058853 
L 137.040829 73.088968 
L 139.310022 57.491496 
L 141.579216 59.133335 
L 143.848409 59.133335 
L 146.117603 57.491496 
L 148.386796 55.849657 
L 150.65599 61.596094 
L 152.925183 86.223681 
" style="fill:none;stroke:#9467bd;stroke-linecap:square;stroke-opacity:0.5;"/>
   </g>
   <g id="line2d_33">
    <path clip-path="url(#pe006eda5b4)" d="M 55.349864 36.147587 
L 57.619058 39.431265 
L 59.888251 43.535863 
L 62.157445 43.535863 
L 64.426638 45.177702 
L 66.695832 41.894024 
L 68.965025 45.177702 
L 71.234218 36.968507 
L 73.503412 42.714944 
L 75.772605 48.461381 
L 78.041799 48.461381 
L 80.310992 50.10322 
L 82.580186 48.461381 
L 84.849379 45.998622 
L 87.118573 43.535863 
L 89.387766 41.073105 
L 91.65696 45.177702 
L 93.926153 46.819542 
L 96.195347 47.640461 
L 98.46454 48.461381 
L 100.733734 50.10322 
L 103.002927 45.998622 
L 105.27212 42.714944 
L 107.541314 48.461381 
L 109.810507 50.924139 
L 112.079701 50.10322 
L 114.348894 51.745059 
L 116.618088 56.670576 
L 118.887281 59.954255 
L 121.156475 57.491496 
L 123.425668 64.879772 
L 125.694862 73.088968 
L 127.964055 76.372646 
L 130.233249 82.119083 
L 132.502442 87.044601 
L 134.771636 92.791038 
L 137.040829 91.970118 
L 139.310022 90.328279 
L 141.579216 90.328279 
L 143.848409 90.328279 
L 146.117603 91.149199 
L 148.386796 90.328279 
L 150.65599 87.86552 
L 152.925183 100.179314 
" style="fill:none;stroke:#e377c2;stroke-linecap:square;stroke-opacity:0.5;"/>
   </g>
   <g id="line2d_34">
    <path clip-path="url(#pe006eda5b4)" d="M 55.349864 44.356783 
L 57.619058 45.177702 
L 59.888251 45.998622 
L 62.157445 45.177702 
L 64.426638 45.177702 
L 66.695832 47.640461 
L 68.965025 50.924139 
L 71.234218 46.819542 
L 73.503412 46.819542 
L 75.772605 60.775174 
L 78.041799 55.028737 
L 80.310992 48.461381 
L 82.580186 47.640461 
L 84.849379 48.461381 
L 87.118573 45.177702 
L 89.387766 43.535863 
L 91.65696 44.356783 
L 93.926153 44.356783 
L 96.195347 44.356783 
L 98.46454 44.356783 
L 100.733734 45.177702 
L 103.002927 44.356783 
L 105.27212 43.535863 
L 107.541314 45.177702 
L 109.810507 45.177702 
L 112.079701 45.177702 
L 114.348894 45.998622 
L 116.618088 47.640461 
L 118.887281 46.819542 
L 121.156475 48.461381 
L 123.425668 59.133335 
L 125.694862 64.879772 
L 127.964055 68.98437 
L 130.233249 71.447129 
L 132.502442 73.909888 
L 134.771636 69.80529 
L 137.040829 72.268048 
L 139.310022 78.014485 
L 141.579216 79.656325 
L 143.848409 79.656325 
L 146.117603 80.477244 
L 148.386796 80.477244 
L 150.65599 71.447129 
L 152.925183 76.372646 
" style="fill:none;stroke:#bcbd22;stroke-linecap:square;stroke-opacity:0.5;"/>
   </g>
   <g id="line2d_35">
    <path clip-path="url(#pe006eda5b4)" d="M 55.349864 45.177702 
L 57.619058 44.356783 
L 59.888251 44.356783 
L 62.157445 43.535863 
L 64.426638 43.535863 
L 66.695832 43.535863 
L 68.965025 42.714944 
L 71.234218 44.356783 
L 73.503412 44.356783 
L 75.772605 41.073105 
L 78.041799 41.073105 
L 80.310992 42.714944 
L 82.580186 42.714944 
L 84.849379 42.714944 
L 87.118573 43.535863 
L 89.387766 44.356783 
L 91.65696 44.356783 
L 93.926153 43.535863 
L 96.195347 43.535863 
L 98.46454 43.535863 
L 100.733734 42.714944 
L 103.002927 43.535863 
L 105.27212 44.356783 
L 107.541314 43.535863 
L 109.810507 41.894024 
L 112.079701 42.714944 
L 114.348894 42.714944 
L 116.618088 41.073105 
L 118.887281 41.073105 
L 121.156475 42.714944 
L 123.425668 39.431265 
L 125.694862 36.147587 
L 127.964055 35.326668 
L 130.233249 32.863909 
L 132.502442 31.22207 
L 134.771636 33.684828 
L 137.040829 36.147587 
L 139.310022 31.22207 
L 141.579216 29.580231 
L 143.848409 29.580231 
L 146.117603 29.580231 
L 148.386796 28.759311 
L 150.65599 34.505748 
L 152.925183 35.326668 
" style="fill:none;stroke:#17becf;stroke-linecap:square;stroke-opacity:0.5;"/>
   </g>
   <g id="patch_72">
    <path d="M 47.09 126.44874 
L 47.09 11.52 
" style="fill:none;stroke:#000000;stroke-linecap:square;stroke-linejoin:miter;stroke-width:0.8;"/>
   </g>
   <g id="patch_73">
    <path d="M 208.83811 126.44874 
L 208.83811 11.52 
" style="fill:none;stroke:#000000;stroke-linecap:square;stroke-linejoin:miter;stroke-width:0.8;"/>
   </g>
   <g id="patch_74">
    <path d="M 47.09 126.44874 
L 208.83811 126.44874 
" style="fill:none;stroke:#000000;stroke-linecap:square;stroke-linejoin:miter;stroke-width:0.8;"/>
   </g>
   <g id="patch_75">
    <path d="M 47.09 11.52 
L 208.83811 11.52 
" style="fill:none;stroke:#000000;stroke-linecap:square;stroke-linejoin:miter;stroke-width:0.8;"/>
   </g>
  </g>
 </g>
 <defs>
  <clipPath id="pe006eda5b4">
   <rect height="114.92874" width="161.74811" x="47.09" y="11.52"/>
  </clipPath>
 </defs>
</svg>
