<?xml version="1.0" encoding="utf-8" standalone="no"?>
<!DOCTYPE svg PUBLIC "-//W3C//DTD SVG 1.1//EN"
  "http://www.w3.org/Graphics/SVG/1.1/DTD/svg11.dtd">
<!-- Created with matplotlib (https://matplotlib.org/) -->
<svg height="170.07874pt" version="1.1" viewBox="0 0 255.11811 170.07874" width="255.11811pt" xmlns="http://www.w3.org/2000/svg" xmlns:xlink="http://www.w3.org/1999/xlink">
 <defs>
  <style type="text/css">
*{stroke-linecap:butt;stroke-linejoin:round;}
  </style>
 </defs>
 <g id="figure_1">
  <g id="patch_1">
   <path d="M 0 170.07874 
L 255.11811 170.07874 
L 255.11811 0 
L 0 0 
z
" style="fill:#ffffff;"/>
  </g>
  <g id="axes_1">
   <g id="patch_2">
    <path d="M 39.62 126.44874 
L 208.83811 126.44874 
L 208.83811 17.4 
L 39.62 17.4 
z
" style="fill:#ffffff;"/>
   </g>
   <g id="PolyCollection_1">
    <defs>
     <path d="M 48.261329 -43.633391 
L 48.261329 -43.630263 
L 50.63532 -43.630526 
L 53.009312 -43.630789 
L 55.383303 -43.631052 
L 57.757295 -43.631315 
L 60.131286 -43.631578 
L 62.505278 -43.632172 
L 64.879269 -43.632815 
L 67.25326 -43.634003 
L 69.627252 -43.634899 
L 72.001243 -43.636289 
L 74.375235 -43.638143 
L 76.749226 -43.640755 
L 79.123218 -43.645206 
L 81.497209 -43.64997 
L 83.871201 -43.660469 
L 86.245192 -43.670627 
L 88.619183 -43.683665 
L 90.993175 -43.69976 
L 93.367166 -43.719259 
L 95.741158 -43.745226 
L 98.115149 -43.77689 
L 100.489141 -43.858365 
L 102.863132 -43.915975 
L 105.237124 -43.982022 
L 107.611115 -44.084593 
L 109.985106 -44.233692 
L 112.359098 -44.508846 
L 114.733089 -44.769454 
L 117.107081 -45.161181 
L 119.481072 -45.761415 
L 121.855064 -46.335661 
L 124.229055 -46.936819 
L 126.603047 -47.504303 
L 128.977038 -48.187573 
L 131.351029 -48.502465 
L 133.725021 -48.714862 
L 136.099012 -49.224783 
L 138.473004 -49.677285 
L 140.846995 -50.120144 
L 143.220987 -50.591407 
L 145.594978 -51.097186 
L 147.96897 -51.477875 
L 150.342961 -51.5685 
L 150.342961 -74.851484 
L 150.342961 -74.851484 
L 147.96897 -72.754862 
L 145.594978 -69.317651 
L 143.220987 -65.828008 
L 140.846995 -62.923251 
L 138.473004 -60.470409 
L 136.099012 -58.301197 
L 133.725021 -56.25741 
L 131.351029 -55.082755 
L 128.977038 -53.858033 
L 126.603047 -52.04627 
L 124.229055 -50.667341 
L 121.855064 -49.300406 
L 119.481072 -48.081521 
L 117.107081 -46.662811 
L 114.733089 -45.936504 
L 112.359098 -45.483604 
L 109.985106 -44.979393 
L 107.611115 -44.718445 
L 105.237124 -44.526673 
L 102.863132 -44.389415 
L 100.489141 -44.26983 
L 98.115149 -44.098348 
L 95.741158 -44.021392 
L 93.367166 -43.956704 
L 90.993175 -43.904283 
L 88.619183 -43.859057 
L 86.245192 -43.81965 
L 83.871201 -43.785809 
L 81.497209 -43.747528 
L 79.123218 -43.7275 
L 76.749226 -43.707269 
L 74.375235 -43.694035 
L 72.001243 -43.68366 
L 69.627252 -43.675123 
L 67.25326 -43.668864 
L 64.879269 -43.660267 
L 62.505278 -43.655152 
L 60.131286 -43.650347 
L 57.757295 -43.646956 
L 55.383303 -43.643565 
L 53.009312 -43.640174 
L 50.63532 -43.636782 
L 48.261329 -43.633391 
z
" id="mfa8ecc3d17" style="stroke:#6495ed;stroke-opacity:0.4;"/>
    </defs>
    <g clip-path="url(#p0760093ba5)">
     <use style="fill:#6495ed;fill-opacity:0.4;stroke:#6495ed;stroke-opacity:0.4;" x="0" xlink:href="#mfa8ecc3d17" y="170.07874"/>
    </g>
   </g>
   <g id="PolyCollection_2">
    <defs>
     <path d="M 48.261329 -43.631587 
L 48.261329 -43.630668 
L 50.63532 -43.631336 
L 53.009312 -43.632005 
L 55.383303 -43.632673 
L 57.757295 -43.633341 
L 60.131286 -43.634009 
L 62.505278 -43.635293 
L 64.879269 -43.636665 
L 67.25326 -43.639116 
L 69.627252 -43.640929 
L 72.001243 -43.64361 
L 74.375235 -43.647065 
L 76.749226 -43.651782 
L 79.123218 -43.659528 
L 81.497209 -43.667628 
L 83.871201 -43.684341 
L 86.245192 -43.700121 
L 88.619183 -43.719559 
L 90.993175 -43.742837 
L 93.367166 -43.770499 
L 95.741158 -43.806435 
L 98.115149 -43.849811 
L 100.489141 -43.955185 
L 102.863132 -44.028986 
L 105.237124 -44.113399 
L 107.611115 -44.239632 
L 109.985106 -44.417785 
L 112.359098 -44.756038 
L 114.733089 -45.066138 
L 117.107081 -45.543299 
L 119.481072 -46.354507 
L 121.855064 -47.09421 
L 124.229055 -47.894459 
L 126.603047 -48.66279 
L 128.977038 -49.620401 
L 131.351029 -50.120872 
L 133.725021 -50.490597 
L 136.099012 -51.305918 
L 138.473004 -52.070516 
L 140.846995 -52.852549 
L 143.220987 -53.713309 
L 145.594978 -54.670458 
L 147.96897 -55.441828 
L 150.342961 -55.683377 
L 150.342961 -62.540426 
L 150.342961 -62.540426 
L 147.96897 -61.839679 
L 145.594978 -60.232724 
L 143.220987 -58.447182 
L 140.846995 -56.886029 
L 138.473004 -55.520218 
L 136.099012 -54.246142 
L 133.725021 -52.960281 
L 131.351029 -52.305232 
L 128.977038 -51.520299 
L 126.603047 -50.181321 
L 124.229055 -49.139723 
L 121.855064 -48.083015 
L 119.481072 -47.123817 
L 117.107081 -46.043508 
L 114.733089 -45.453613 
L 112.359098 -45.079383 
L 109.985106 -44.66516 
L 107.611115 -44.449069 
L 105.237124 -44.293151 
L 102.863132 -44.185323 
L 100.489141 -44.091155 
L 98.115149 -43.955215 
L 95.741158 -43.897066 
L 93.367166 -43.848254 
L 90.993175 -43.80967 
L 88.619183 -43.776701 
L 86.245192 -43.748424 
L 83.871201 -43.724756 
L 81.497209 -43.698759 
L 79.123218 -43.685607 
L 76.749226 -43.672703 
L 74.375235 -43.664497 
L 72.001243 -43.65825 
L 69.627252 -43.653258 
L 67.25326 -43.649687 
L 64.879269 -43.644903 
L 62.505278 -43.64212 
L 60.131286 -43.639524 
L 57.757295 -43.637937 
L 55.383303 -43.63635 
L 53.009312 -43.634762 
L 50.63532 -43.633175 
L 48.261329 -43.631587 
z
" id="m4bd820108c" style="stroke:#6495ed;stroke-opacity:0.6;"/>
    </defs>
    <g clip-path="url(#p0760093ba5)">
     <use style="fill:#6495ed;fill-opacity:0.6;stroke:#6495ed;stroke-opacity:0.6;" x="0" xlink:href="#m4bd820108c" y="170.07874"/>
    </g>
   </g>
   <g id="PolyCollection_3">
    <defs>
     <path d="M 150.342961 -74.851484 
L 150.342961 -51.5685 
L 152.716952 -51.656437 
L 155.090944 -51.738651 
L 157.464935 -51.812675 
L 159.838927 -51.877999 
L 162.212918 -51.934483 
L 164.58691 -51.982693 
L 166.960901 -52.023469 
L 169.334893 -52.057777 
L 171.708884 -52.086527 
L 174.082875 -52.110467 
L 176.456867 -52.130482 
L 178.830858 -52.147123 
L 181.20485 -52.160954 
L 183.578841 -52.172429 
L 185.952833 -52.181908 
L 188.326824 -52.189801 
L 190.700816 -52.196388 
L 193.074807 -52.201888 
L 195.448798 -52.206465 
L 197.82279 -52.210265 
L 200.196781 -52.213395 
L 200.196781 -152.67874 
L 200.196781 -152.67874 
L 197.82279 -147.658984 
L 195.448798 -142.764197 
L 193.074807 -137.959749 
L 190.700816 -133.292749 
L 188.326824 -128.794183 
L 185.952833 -124.418635 
L 183.578841 -120.190361 
L 181.20485 -116.143609 
L 178.830858 -112.250286 
L 176.456867 -108.432631 
L 174.082875 -104.767233 
L 171.708884 -101.235095 
L 169.334893 -97.81249 
L 166.960901 -94.523907 
L 164.58691 -91.338362 
L 162.212918 -88.253934 
L 159.838927 -85.275016 
L 157.464935 -82.448343 
L 155.090944 -79.753134 
L 152.716952 -77.206471 
L 150.342961 -74.851484 
z
" id="m0a5a8a7a30" style="stroke:#228b22;stroke-opacity:0.4;"/>
    </defs>
    <g clip-path="url(#p0760093ba5)">
     <use style="fill:#228b22;fill-opacity:0.4;stroke:#228b22;stroke-opacity:0.4;" x="0" xlink:href="#m0a5a8a7a30" y="170.07874"/>
    </g>
   </g>
   <g id="PolyCollection_4">
    <defs>
     <path d="M 150.342961 -62.540426 
L 150.342961 -55.683377 
L 152.716952 -55.928568 
L 155.090944 -56.166748 
L 157.464935 -56.389865 
L 159.838927 -56.592379 
L 162.212918 -56.774414 
L 164.58691 -56.935765 
L 166.960901 -57.078004 
L 169.334893 -57.202867 
L 171.708884 -57.312087 
L 174.082875 -57.407528 
L 176.456867 -57.491021 
L 178.830858 -57.563837 
L 181.20485 -57.627386 
L 183.578841 -57.682802 
L 185.952833 -57.730946 
L 188.326824 -57.772885 
L 190.700816 -57.809458 
L 193.074807 -57.841223 
L 195.448798 -57.868853 
L 197.82279 -57.892937 
L 200.196781 -57.914014 
L 200.196781 -73.087671 
L 200.196781 -73.087671 
L 197.82279 -72.821852 
L 195.448798 -72.54064 
L 193.074807 -72.243458 
L 190.700816 -71.928408 
L 188.326824 -71.594413 
L 185.952833 -71.239254 
L 183.578841 -70.86173 
L 181.20485 -70.460372 
L 178.830858 -70.033901 
L 176.456867 -69.579791 
L 174.082875 -69.099829 
L 171.708884 -68.591076 
L 169.334893 -68.049174 
L 166.960901 -67.476605 
L 164.58691 -66.864367 
L 162.212918 -66.213997 
L 159.838927 -65.524706 
L 157.464935 -64.801559 
L 155.090944 -64.050286 
L 152.716952 -63.287512 
L 150.342961 -62.540426 
z
" id="m09a570f40a" style="stroke:#228b22;stroke-opacity:0.6;"/>
    </defs>
    <g clip-path="url(#p0760093ba5)">
     <use style="fill:#228b22;fill-opacity:0.6;stroke:#228b22;stroke-opacity:0.6;" x="0" xlink:href="#m09a570f40a" y="170.07874"/>
    </g>
   </g>
   <g id="PathCollection_1">
    <defs>
     <path d="M -0.866025 1.732051 
L 0 0.866025 
L 0.866025 1.732051 
L 1.732051 0.866025 
L 0.866025 0 
L 1.732051 -0.866025 
L 0.866025 -1.732051 
L 0 -0.866025 
L -0.866025 -1.732051 
L -1.732051 -0.866025 
L -0.866025 0 
L -1.732051 0.866025 
z
" id="m093e7a5967" style="stroke:#8a2be2;"/>
    </defs>
    <g clip-path="url(#p0760093ba5)">
     <use style="fill:#8a2be2;stroke:#8a2be2;" x="133.725021" xlink:href="#m093e7a5967" y="28.304874"/>
    </g>
   </g>
   <g id="PathCollection_2">
    <defs>
     <path d="M 0 -1.732051 
L -0.38887 -0.535233 
L -1.647278 -0.535233 
L -0.629204 0.204441 
L -1.018074 1.401259 
L -0 0.661585 
L 1.018074 1.401259 
L 0.629204 0.204441 
L 1.647278 -0.535233 
L 0.38887 -0.535233 
z
" id="m5071c916eb" style="stroke:#000000;"/>
    </defs>
    <g clip-path="url(#p0760093ba5)">
     <use style="stroke:#000000;" x="114.733089" xlink:href="#m5071c916eb" y="28.304874"/>
    </g>
   </g>
   <g id="PathCollection_3">
    <defs>
     <path d="M -1.732051 1.732051 
L 1.732051 1.732051 
L 1.732051 -1.732051 
L -1.732051 -1.732051 
z
" id="m650b5fa332" style="stroke:#c71585;"/>
    </defs>
    <g clip-path="url(#p0760093ba5)">
     <use style="fill:#c71585;stroke:#c71585;" x="133.725021" xlink:href="#m650b5fa332" y="33.212067"/>
    </g>
   </g>
   <g id="PathCollection_4">
    <defs>
     <path d="M 0 -1.732051 
L -1.647278 -0.535233 
L -1.018074 1.401259 
L 1.018074 1.401259 
L 1.647278 -0.535233 
z
" id="m9330ac5311" style="stroke:#800000;"/>
    </defs>
    <g clip-path="url(#p0760093ba5)">
     <use style="fill:#800000;stroke:#800000;" x="109.985106" xlink:href="#m9330ac5311" y="28.304874"/>
    </g>
   </g>
   <g id="PathCollection_5">
    <defs>
     <path d="M -0 2.44949 
L 1.469694 0 
L 0 -2.44949 
L -1.469694 -0 
z
" id="m96d504b199" style="stroke:#556b2f;"/>
    </defs>
    <g clip-path="url(#p0760093ba5)">
     <use style="fill:#556b2f;stroke:#556b2f;" x="95.741158" xlink:href="#m96d504b199" y="28.304874"/>
    </g>
   </g>
   <g id="patch_3">
    <path clip-path="url(#p0760093ba5)" d="M 47.311732 126.44874 
L 49.210925 126.44874 
L 49.210925 126.44874 
L 47.311732 126.44874 
z
" style="fill:#1f77b4;opacity:0.5;"/>
   </g>
   <g id="patch_4">
    <path clip-path="url(#p0760093ba5)" d="M 49.685724 126.44874 
L 51.584917 126.44874 
L 51.584917 126.44874 
L 49.685724 126.44874 
z
" style="fill:#1f77b4;opacity:0.5;"/>
   </g>
   <g id="patch_5">
    <path clip-path="url(#p0760093ba5)" d="M 52.059715 126.44874 
L 53.958908 126.44874 
L 53.958908 126.44874 
L 52.059715 126.44874 
z
" style="fill:#1f77b4;opacity:0.5;"/>
   </g>
   <g id="patch_6">
    <path clip-path="url(#p0760093ba5)" d="M 54.433707 126.44874 
L 56.3329 126.44874 
L 56.3329 126.44874 
L 54.433707 126.44874 
z
" style="fill:#1f77b4;opacity:0.5;"/>
   </g>
   <g id="patch_7">
    <path clip-path="url(#p0760093ba5)" d="M 56.807698 126.44874 
L 58.706891 126.44874 
L 58.706891 126.44874 
L 56.807698 126.44874 
z
" style="fill:#1f77b4;opacity:0.5;"/>
   </g>
   <g id="patch_8">
    <path clip-path="url(#p0760093ba5)" d="M 59.18169 126.44874 
L 61.080883 126.44874 
L 61.080883 126.44874 
L 59.18169 126.44874 
z
" style="fill:#1f77b4;opacity:0.5;"/>
   </g>
   <g id="patch_9">
    <path clip-path="url(#p0760093ba5)" d="M 61.555681 126.44874 
L 63.454874 126.44874 
L 63.454874 126.44874 
L 61.555681 126.44874 
z
" style="fill:#1f77b4;opacity:0.5;"/>
   </g>
   <g id="patch_10">
    <path clip-path="url(#p0760093ba5)" d="M 63.929672 126.44874 
L 65.828866 126.44874 
L 65.828866 126.44874 
L 63.929672 126.44874 
z
" style="fill:#1f77b4;opacity:0.5;"/>
   </g>
   <g id="patch_11">
    <path clip-path="url(#p0760093ba5)" d="M 66.303664 126.44874 
L 68.202857 126.44874 
L 68.202857 126.44874 
L 66.303664 126.44874 
z
" style="fill:#1f77b4;opacity:0.5;"/>
   </g>
   <g id="patch_12">
    <path clip-path="url(#p0760093ba5)" d="M 68.677655 126.44874 
L 70.576848 126.44874 
L 70.576848 126.44874 
L 68.677655 126.44874 
z
" style="fill:#1f77b4;opacity:0.5;"/>
   </g>
   <g id="patch_13">
    <path clip-path="url(#p0760093ba5)" d="M 71.051647 126.44874 
L 72.95084 126.44874 
L 72.95084 126.44874 
L 71.051647 126.44874 
z
" style="fill:#1f77b4;opacity:0.5;"/>
   </g>
   <g id="patch_14">
    <path clip-path="url(#p0760093ba5)" d="M 73.425638 126.44874 
L 75.324831 126.44874 
L 75.324831 126.448592 
L 73.425638 126.448592 
z
" style="fill:#1f77b4;opacity:0.5;"/>
   </g>
   <g id="patch_15">
    <path clip-path="url(#p0760093ba5)" d="M 75.79963 126.44874 
L 77.698823 126.44874 
L 77.698823 126.448295 
L 75.79963 126.448295 
z
" style="fill:#1f77b4;opacity:0.5;"/>
   </g>
   <g id="patch_16">
    <path clip-path="url(#p0760093ba5)" d="M 78.173621 126.44874 
L 80.072814 126.44874 
L 80.072814 126.446364 
L 78.173621 126.446364 
z
" style="fill:#1f77b4;opacity:0.5;"/>
   </g>
   <g id="patch_17">
    <path clip-path="url(#p0760093ba5)" d="M 80.547613 126.44874 
L 82.446806 126.44874 
L 82.446806 126.445621 
L 80.547613 126.445621 
z
" style="fill:#1f77b4;opacity:0.5;"/>
   </g>
   <g id="patch_18">
    <path clip-path="url(#p0760093ba5)" d="M 82.921604 126.44874 
L 84.820797 126.44874 
L 84.820797 126.441611 
L 82.921604 126.441611 
z
" style="fill:#1f77b4;opacity:0.5;"/>
   </g>
   <g id="patch_19">
    <path clip-path="url(#p0760093ba5)" d="M 85.295595 126.44874 
L 87.194789 126.44874 
L 87.194789 126.440274 
L 85.295595 126.440274 
z
" style="fill:#1f77b4;opacity:0.5;"/>
   </g>
   <g id="patch_20">
    <path clip-path="url(#p0760093ba5)" d="M 87.669587 126.44874 
L 89.56878 126.44874 
L 89.56878 126.438195 
L 87.669587 126.438195 
z
" style="fill:#1f77b4;opacity:0.5;"/>
   </g>
   <g id="patch_21">
    <path clip-path="url(#p0760093ba5)" d="M 90.043578 126.44874 
L 91.942771 126.44874 
L 91.942771 126.435299 
L 90.043578 126.435299 
z
" style="fill:#1f77b4;opacity:0.5;"/>
   </g>
   <g id="patch_22">
    <path clip-path="url(#p0760093ba5)" d="M 92.41757 126.44874 
L 94.316763 126.44874 
L 94.316763 126.430397 
L 92.41757 126.430397 
z
" style="fill:#1f77b4;opacity:0.5;"/>
   </g>
   <g id="patch_23">
    <path clip-path="url(#p0760093ba5)" d="M 94.791561 126.44874 
L 96.690754 126.44874 
L 96.690754 126.420149 
L 94.791561 126.420149 
z
" style="fill:#1f77b4;opacity:0.5;"/>
   </g>
   <g id="patch_24">
    <path clip-path="url(#p0760093ba5)" d="M 97.165553 126.44874 
L 99.064746 126.44874 
L 99.064746 126.399059 
L 97.165553 126.399059 
z
" style="fill:#1f77b4;opacity:0.5;"/>
   </g>
   <g id="patch_25">
    <path clip-path="url(#p0760093ba5)" d="M 99.539544 126.44874 
L 101.438737 126.44874 
L 101.438737 126.386954 
L 99.539544 126.386954 
z
" style="fill:#1f77b4;opacity:0.5;"/>
   </g>
   <g id="patch_26">
    <path clip-path="url(#p0760093ba5)" d="M 101.913536 126.44874 
L 103.812729 126.44874 
L 103.812729 126.38287 
L 101.913536 126.38287 
z
" style="fill:#1f77b4;opacity:0.5;"/>
   </g>
   <g id="patch_27">
    <path clip-path="url(#p0760093ba5)" d="M 104.287527 126.44874 
L 106.18672 126.44874 
L 106.18672 126.36527 
L 104.287527 126.36527 
z
" style="fill:#1f77b4;opacity:0.5;"/>
   </g>
   <g id="patch_28">
    <path clip-path="url(#p0760093ba5)" d="M 106.661518 126.44874 
L 108.560712 126.44874 
L 108.560712 126.353611 
L 106.661518 126.353611 
z
" style="fill:#1f77b4;opacity:0.5;"/>
   </g>
   <g id="patch_29">
    <path clip-path="url(#p0760093ba5)" d="M 109.03551 126.44874 
L 110.934703 126.44874 
L 110.934703 126.333486 
L 109.03551 126.333486 
z
" style="fill:#1f77b4;opacity:0.5;"/>
   </g>
   <g id="patch_30">
    <path clip-path="url(#p0760093ba5)" d="M 111.409501 126.44874 
L 113.308694 126.44874 
L 113.308694 126.273928 
L 111.409501 126.273928 
z
" style="fill:#1f77b4;opacity:0.5;"/>
   </g>
   <g id="patch_31">
    <path clip-path="url(#p0760093ba5)" d="M 113.783493 126.44874 
L 115.682686 126.44874 
L 115.682686 126.222464 
L 113.783493 126.222464 
z
" style="fill:#1f77b4;opacity:0.5;"/>
   </g>
   <g id="patch_32">
    <path clip-path="url(#p0760093ba5)" d="M 116.157484 126.44874 
L 118.056677 126.44874 
L 118.056677 126.16803 
L 116.157484 126.16803 
z
" style="fill:#1f77b4;opacity:0.5;"/>
   </g>
   <g id="patch_33">
    <path clip-path="url(#p0760093ba5)" d="M 118.531476 126.44874 
L 120.430669 126.44874 
L 120.430669 126.090575 
L 118.531476 126.090575 
z
" style="fill:#1f77b4;opacity:0.5;"/>
   </g>
   <g id="patch_34">
    <path clip-path="url(#p0760093ba5)" d="M 120.905467 126.44874 
L 122.80466 126.44874 
L 122.80466 126.003391 
L 120.905467 126.003391 
z
" style="fill:#1f77b4;opacity:0.5;"/>
   </g>
   <g id="patch_35">
    <path clip-path="url(#p0760093ba5)" d="M 123.279459 126.44874 
L 125.178652 126.44874 
L 125.178652 125.918436 
L 123.279459 125.918436 
z
" style="fill:#1f77b4;opacity:0.5;"/>
   </g>
   <g id="patch_36">
    <path clip-path="url(#p0760093ba5)" d="M 125.65345 126.44874 
L 127.552643 126.44874 
L 127.552643 125.841055 
L 125.65345 125.841055 
z
" style="fill:#1f77b4;opacity:0.5;"/>
   </g>
   <g id="patch_37">
    <path clip-path="url(#p0760093ba5)" d="M 128.027441 126.44874 
L 129.926635 126.44874 
L 129.926635 125.399939 
L 128.027441 125.399939 
z
" style="fill:#1f77b4;opacity:0.5;"/>
   </g>
   <g id="patch_38">
    <path clip-path="url(#p0760093ba5)" d="M 130.401433 126.44874 
L 132.300626 126.44874 
L 132.300626 125.099253 
L 130.401433 125.099253 
z
" style="fill:#1f77b4;opacity:0.5;"/>
   </g>
   <g id="patch_39">
    <path clip-path="url(#p0760093ba5)" d="M 132.775424 126.44874 
L 134.674617 126.44874 
L 134.674617 124.85597 
L 132.775424 124.85597 
z
" style="fill:#1f77b4;opacity:0.5;"/>
   </g>
   <g id="patch_40">
    <path clip-path="url(#p0760093ba5)" d="M 135.149416 126.44874 
L 137.048609 126.44874 
L 137.048609 124.610089 
L 135.149416 124.610089 
z
" style="fill:#1f77b4;opacity:0.5;"/>
   </g>
   <g id="patch_41">
    <path clip-path="url(#p0760093ba5)" d="M 137.523407 126.44874 
L 139.4226 126.44874 
L 139.4226 124.280515 
L 137.523407 124.280515 
z
" style="fill:#1f77b4;opacity:0.5;"/>
   </g>
   <g id="patch_42">
    <path clip-path="url(#p0760093ba5)" d="M 139.897399 126.44874 
L 141.796592 126.44874 
L 141.796592 124.106593 
L 139.897399 124.106593 
z
" style="fill:#1f77b4;opacity:0.5;"/>
   </g>
   <g id="patch_43">
    <path clip-path="url(#p0760093ba5)" d="M 142.27139 126.44874 
L 144.170583 126.44874 
L 144.170583 123.7387 
L 142.27139 123.7387 
z
" style="fill:#1f77b4;opacity:0.5;"/>
   </g>
   <g id="patch_44">
    <path clip-path="url(#p0760093ba5)" d="M 144.645382 126.44874 
L 146.544575 126.44874 
L 146.544575 123.309466 
L 144.645382 123.309466 
z
" style="fill:#1f77b4;opacity:0.5;"/>
   </g>
   <g id="patch_45">
    <path clip-path="url(#p0760093ba5)" d="M 147.019373 126.44874 
L 148.918566 126.44874 
L 148.918566 122.842061 
L 147.019373 122.842061 
z
" style="fill:#1f77b4;opacity:0.5;"/>
   </g>
   <g id="patch_46">
    <path clip-path="url(#p0760093ba5)" d="M 149.393364 126.44874 
L 151.292558 126.44874 
L 151.292558 122.547613 
L 149.393364 122.547613 
z
" style="fill:#1f77b4;opacity:0.5;"/>
   </g>
   <g id="patch_47">
    <path clip-path="url(#p0760093ba5)" d="M 151.767356 126.44874 
L 153.666549 126.44874 
L 153.666549 122.194795 
L 151.767356 122.194795 
z
" style="fill:#1f77b4;opacity:0.5;"/>
   </g>
   <g id="patch_48">
    <path clip-path="url(#p0760093ba5)" d="M 154.141347 126.44874 
L 156.04054 126.44874 
L 156.04054 121.852076 
L 154.141347 121.852076 
z
" style="fill:#1f77b4;opacity:0.5;"/>
   </g>
   <g id="patch_49">
    <path clip-path="url(#p0760093ba5)" d="M 156.515339 126.44874 
L 158.414532 126.44874 
L 158.414532 121.447126 
L 156.515339 121.447126 
z
" style="fill:#1f77b4;opacity:0.5;"/>
   </g>
   <g id="patch_50">
    <path clip-path="url(#p0760093ba5)" d="M 158.88933 126.44874 
L 160.788523 126.44874 
L 160.788523 120.989969 
L 158.88933 120.989969 
z
" style="fill:#1f77b4;opacity:0.5;"/>
   </g>
   <g id="patch_51">
    <path clip-path="url(#p0760093ba5)" d="M 161.263322 126.44874 
L 163.162515 126.44874 
L 163.162515 120.531476 
L 161.263322 120.531476 
z
" style="fill:#1f77b4;opacity:0.5;"/>
   </g>
   <g id="patch_52">
    <path clip-path="url(#p0760093ba5)" d="M 163.637313 126.44874 
L 165.536506 126.44874 
L 165.536506 120.079815 
L 163.637313 120.079815 
z
" style="fill:#1f77b4;opacity:0.5;"/>
   </g>
   <g id="patch_53">
    <path clip-path="url(#p0760093ba5)" d="M 166.011305 126.44874 
L 167.910498 126.44874 
L 167.910498 119.638996 
L 166.011305 119.638996 
z
" style="fill:#1f77b4;opacity:0.5;"/>
   </g>
   <g id="patch_54">
    <path clip-path="url(#p0760093ba5)" d="M 168.385296 126.44874 
L 170.284489 126.44874 
L 170.284489 119.365935 
L 168.385296 119.365935 
z
" style="fill:#1f77b4;opacity:0.5;"/>
   </g>
   <g id="patch_55">
    <path clip-path="url(#p0760093ba5)" d="M 170.759287 126.44874 
L 172.658481 126.44874 
L 172.658481 119.081215 
L 170.759287 119.081215 
z
" style="fill:#1f77b4;opacity:0.5;"/>
   </g>
   <g id="patch_56">
    <path clip-path="url(#p0760093ba5)" d="M 173.133279 126.44874 
L 175.032472 126.44874 
L 175.032472 118.783945 
L 173.133279 118.783945 
z
" style="fill:#1f77b4;opacity:0.5;"/>
   </g>
   <g id="patch_57">
    <path clip-path="url(#p0760093ba5)" d="M 175.50727 126.44874 
L 177.406463 126.44874 
L 177.406463 118.414566 
L 175.50727 118.414566 
z
" style="fill:#1f77b4;opacity:0.5;"/>
   </g>
   <g id="patch_58">
    <path clip-path="url(#p0760093ba5)" d="M 177.881262 126.44874 
L 179.780455 126.44874 
L 179.780455 118.01927 
L 177.881262 118.01927 
z
" style="fill:#1f77b4;opacity:0.5;"/>
   </g>
   <g id="patch_59">
    <path clip-path="url(#p0760093ba5)" d="M 180.255253 126.44874 
L 182.154446 126.44874 
L 182.154446 117.712345 
L 180.255253 117.712345 
z
" style="fill:#1f77b4;opacity:0.5;"/>
   </g>
   <g id="patch_60">
    <path clip-path="url(#p0760093ba5)" d="M 182.629245 126.44874 
L 184.528438 126.44874 
L 184.528438 117.502852 
L 182.629245 117.502852 
z
" style="fill:#1f77b4;opacity:0.5;"/>
   </g>
   <g id="patch_61">
    <path clip-path="url(#p0760093ba5)" d="M 185.003236 126.44874 
L 186.902429 126.44874 
L 186.902429 117.31445 
L 185.003236 117.31445 
z
" style="fill:#1f77b4;opacity:0.5;"/>
   </g>
   <g id="patch_62">
    <path clip-path="url(#p0760093ba5)" d="M 187.377228 126.44874 
L 189.276421 126.44874 
L 189.276421 117.159836 
L 187.377228 117.159836 
z
" style="fill:#1f77b4;opacity:0.5;"/>
   </g>
   <g id="patch_63">
    <path clip-path="url(#p0760093ba5)" d="M 189.751219 126.44874 
L 191.650412 126.44874 
L 191.650412 116.975221 
L 189.751219 116.975221 
z
" style="fill:#1f77b4;opacity:0.5;"/>
   </g>
   <g id="patch_64">
    <path clip-path="url(#p0760093ba5)" d="M 192.12521 126.44874 
L 194.024404 126.44874 
L 194.024404 116.762387 
L 192.12521 116.762387 
z
" style="fill:#1f77b4;opacity:0.5;"/>
   </g>
   <g id="patch_65">
    <path clip-path="url(#p0760093ba5)" d="M 194.499202 126.44874 
L 196.398395 126.44874 
L 196.398395 116.511381 
L 194.499202 116.511381 
z
" style="fill:#1f77b4;opacity:0.5;"/>
   </g>
   <g id="patch_66">
    <path clip-path="url(#p0760093ba5)" d="M 196.873193 126.44874 
L 198.772387 126.44874 
L 198.772387 116.24337 
L 196.873193 116.24337 
z
" style="fill:#1f77b4;opacity:0.5;"/>
   </g>
   <g id="patch_67">
    <path clip-path="url(#p0760093ba5)" d="M 199.247185 126.44874 
L 201.146378 126.44874 
L 201.146378 116.060834 
L 199.247185 116.060834 
z
" style="fill:#1f77b4;opacity:0.5;"/>
   </g>
   <g id="matplotlib.axis_1">
    <g id="xtick_1">
     <g id="line2d_1">
      <defs>
       <path d="M 0 0 
L 0 3.5 
" id="mde95a8e4aa" style="stroke:#000000;stroke-width:0.8;"/>
      </defs>
      <g>
       <use style="stroke:#000000;stroke-width:0.8;" x="200.196781" xlink:href="#mde95a8e4aa" y="126.44874"/>
      </g>
     </g>
     <g id="text_1">
      <!-- 19 Apr -->
      <defs>
       <path d="M 12.40625 8.296875 
L 28.515625 8.296875 
L 28.515625 63.921875 
L 10.984375 60.40625 
L 10.984375 69.390625 
L 28.421875 72.90625 
L 38.28125 72.90625 
L 38.28125 8.296875 
L 54.390625 8.296875 
L 54.390625 0 
L 12.40625 0 
z
" id="DejaVuSans-49"/>
       <path d="M 10.984375 1.515625 
L 10.984375 10.5 
Q 14.703125 8.734375 18.5 7.8125 
Q 22.3125 6.890625 25.984375 6.890625 
Q 35.75 6.890625 40.890625 13.453125 
Q 46.046875 20.015625 46.78125 33.40625 
Q 43.953125 29.203125 39.59375 26.953125 
Q 35.25 24.703125 29.984375 24.703125 
Q 19.046875 24.703125 12.671875 31.3125 
Q 6.296875 37.9375 6.296875 49.421875 
Q 6.296875 60.640625 12.9375 67.421875 
Q 19.578125 74.21875 30.609375 74.21875 
Q 43.265625 74.21875 49.921875 64.515625 
Q 56.59375 54.828125 56.59375 36.375 
Q 56.59375 19.140625 48.40625 8.859375 
Q 40.234375 -1.421875 26.421875 -1.421875 
Q 22.703125 -1.421875 18.890625 -0.6875 
Q 15.09375 0.046875 10.984375 1.515625 
z
M 30.609375 32.421875 
Q 37.25 32.421875 41.125 36.953125 
Q 45.015625 41.5 45.015625 49.421875 
Q 45.015625 57.28125 41.125 61.84375 
Q 37.25 66.40625 30.609375 66.40625 
Q 23.96875 66.40625 20.09375 61.84375 
Q 16.21875 57.28125 16.21875 49.421875 
Q 16.21875 41.5 20.09375 36.953125 
Q 23.96875 32.421875 30.609375 32.421875 
z
" id="DejaVuSans-57"/>
       <path id="DejaVuSans-32"/>
       <path d="M 34.1875 63.1875 
L 20.796875 26.90625 
L 47.609375 26.90625 
z
M 28.609375 72.90625 
L 39.796875 72.90625 
L 67.578125 0 
L 57.328125 0 
L 50.6875 18.703125 
L 17.828125 18.703125 
L 11.1875 0 
L 0.78125 0 
z
" id="DejaVuSans-65"/>
       <path d="M 18.109375 8.203125 
L 18.109375 -20.796875 
L 9.078125 -20.796875 
L 9.078125 54.6875 
L 18.109375 54.6875 
L 18.109375 46.390625 
Q 20.953125 51.265625 25.265625 53.625 
Q 29.59375 56 35.59375 56 
Q 45.5625 56 51.78125 48.09375 
Q 58.015625 40.1875 58.015625 27.296875 
Q 58.015625 14.40625 51.78125 6.484375 
Q 45.5625 -1.421875 35.59375 -1.421875 
Q 29.59375 -1.421875 25.265625 0.953125 
Q 20.953125 3.328125 18.109375 8.203125 
z
M 48.6875 27.296875 
Q 48.6875 37.203125 44.609375 42.84375 
Q 40.53125 48.484375 33.40625 48.484375 
Q 26.265625 48.484375 22.1875 42.84375 
Q 18.109375 37.203125 18.109375 27.296875 
Q 18.109375 17.390625 22.1875 11.75 
Q 26.265625 6.109375 33.40625 6.109375 
Q 40.53125 6.109375 44.609375 11.75 
Q 48.6875 17.390625 48.6875 27.296875 
z
" id="DejaVuSans-112"/>
       <path d="M 41.109375 46.296875 
Q 39.59375 47.171875 37.8125 47.578125 
Q 36.03125 48 33.890625 48 
Q 26.265625 48 22.1875 43.046875 
Q 18.109375 38.09375 18.109375 28.8125 
L 18.109375 0 
L 9.078125 0 
L 9.078125 54.6875 
L 18.109375 54.6875 
L 18.109375 46.1875 
Q 20.953125 51.171875 25.484375 53.578125 
Q 30.03125 56 36.53125 56 
Q 37.453125 56 38.578125 55.875 
Q 39.703125 55.765625 41.0625 55.515625 
z
" id="DejaVuSans-114"/>
      </defs>
      <g transform="translate(202.404281 160.01124)rotate(-90)scale(0.08 -0.08)">
       <use xlink:href="#DejaVuSans-49"/>
       <use x="63.623047" xlink:href="#DejaVuSans-57"/>
       <use x="127.246094" xlink:href="#DejaVuSans-32"/>
       <use x="159.033203" xlink:href="#DejaVuSans-65"/>
       <use x="227.441406" xlink:href="#DejaVuSans-112"/>
       <use x="290.917969" xlink:href="#DejaVuSans-114"/>
      </g>
     </g>
    </g>
    <g id="xtick_2">
     <g id="line2d_2">
      <g>
       <use style="stroke:#000000;stroke-width:0.8;" x="183.578841" xlink:href="#mde95a8e4aa" y="126.44874"/>
      </g>
     </g>
     <g id="text_2">
      <!-- 12 Apr -->
      <defs>
       <path d="M 19.1875 8.296875 
L 53.609375 8.296875 
L 53.609375 0 
L 7.328125 0 
L 7.328125 8.296875 
Q 12.9375 14.109375 22.625 23.890625 
Q 32.328125 33.6875 34.8125 36.53125 
Q 39.546875 41.84375 41.421875 45.53125 
Q 43.3125 49.21875 43.3125 52.78125 
Q 43.3125 58.59375 39.234375 62.25 
Q 35.15625 65.921875 28.609375 65.921875 
Q 23.96875 65.921875 18.8125 64.3125 
Q 13.671875 62.703125 7.8125 59.421875 
L 7.8125 69.390625 
Q 13.765625 71.78125 18.9375 73 
Q 24.125 74.21875 28.421875 74.21875 
Q 39.75 74.21875 46.484375 68.546875 
Q 53.21875 62.890625 53.21875 53.421875 
Q 53.21875 48.921875 51.53125 44.890625 
Q 49.859375 40.875 45.40625 35.40625 
Q 44.1875 33.984375 37.640625 27.21875 
Q 31.109375 20.453125 19.1875 8.296875 
z
" id="DejaVuSans-50"/>
      </defs>
      <g transform="translate(185.786341 160.01124)rotate(-90)scale(0.08 -0.08)">
       <use xlink:href="#DejaVuSans-49"/>
       <use x="63.623047" xlink:href="#DejaVuSans-50"/>
       <use x="127.246094" xlink:href="#DejaVuSans-32"/>
       <use x="159.033203" xlink:href="#DejaVuSans-65"/>
       <use x="227.441406" xlink:href="#DejaVuSans-112"/>
       <use x="290.917969" xlink:href="#DejaVuSans-114"/>
      </g>
     </g>
    </g>
    <g id="xtick_3">
     <g id="line2d_3">
      <g>
       <use style="stroke:#000000;stroke-width:0.8;" x="166.960901" xlink:href="#mde95a8e4aa" y="126.44874"/>
      </g>
     </g>
     <g id="text_3">
      <!-- 5 Apr -->
      <defs>
       <path d="M 10.796875 72.90625 
L 49.515625 72.90625 
L 49.515625 64.59375 
L 19.828125 64.59375 
L 19.828125 46.734375 
Q 21.96875 47.46875 24.109375 47.828125 
Q 26.265625 48.1875 28.421875 48.1875 
Q 40.625 48.1875 47.75 41.5 
Q 54.890625 34.8125 54.890625 23.390625 
Q 54.890625 11.625 47.5625 5.09375 
Q 40.234375 -1.421875 26.90625 -1.421875 
Q 22.3125 -1.421875 17.546875 -0.640625 
Q 12.796875 0.140625 7.71875 1.703125 
L 7.71875 11.625 
Q 12.109375 9.234375 16.796875 8.0625 
Q 21.484375 6.890625 26.703125 6.890625 
Q 35.15625 6.890625 40.078125 11.328125 
Q 45.015625 15.765625 45.015625 23.390625 
Q 45.015625 31 40.078125 35.4375 
Q 35.15625 39.890625 26.703125 39.890625 
Q 22.75 39.890625 18.8125 39.015625 
Q 14.890625 38.140625 10.796875 36.28125 
z
" id="DejaVuSans-53"/>
      </defs>
      <g transform="translate(169.168401 154.92124)rotate(-90)scale(0.08 -0.08)">
       <use xlink:href="#DejaVuSans-53"/>
       <use x="63.623047" xlink:href="#DejaVuSans-32"/>
       <use x="95.410156" xlink:href="#DejaVuSans-65"/>
       <use x="163.818359" xlink:href="#DejaVuSans-112"/>
       <use x="227.294922" xlink:href="#DejaVuSans-114"/>
      </g>
     </g>
    </g>
    <g id="xtick_4">
     <g id="line2d_4">
      <g>
       <use style="stroke:#000000;stroke-width:0.8;" x="150.342961" xlink:href="#mde95a8e4aa" y="126.44874"/>
      </g>
     </g>
     <g id="text_4">
      <!-- 29 Mar -->
      <defs>
       <path d="M 9.8125 72.90625 
L 24.515625 72.90625 
L 43.109375 23.296875 
L 61.8125 72.90625 
L 76.515625 72.90625 
L 76.515625 0 
L 66.890625 0 
L 66.890625 64.015625 
L 48.09375 14.015625 
L 38.1875 14.015625 
L 19.390625 64.015625 
L 19.390625 0 
L 9.8125 0 
z
" id="DejaVuSans-77"/>
       <path d="M 34.28125 27.484375 
Q 23.390625 27.484375 19.1875 25 
Q 14.984375 22.515625 14.984375 16.5 
Q 14.984375 11.71875 18.140625 8.90625 
Q 21.296875 6.109375 26.703125 6.109375 
Q 34.1875 6.109375 38.703125 11.40625 
Q 43.21875 16.703125 43.21875 25.484375 
L 43.21875 27.484375 
z
M 52.203125 31.203125 
L 52.203125 0 
L 43.21875 0 
L 43.21875 8.296875 
Q 40.140625 3.328125 35.546875 0.953125 
Q 30.953125 -1.421875 24.3125 -1.421875 
Q 15.921875 -1.421875 10.953125 3.296875 
Q 6 8.015625 6 15.921875 
Q 6 25.140625 12.171875 29.828125 
Q 18.359375 34.515625 30.609375 34.515625 
L 43.21875 34.515625 
L 43.21875 35.40625 
Q 43.21875 41.609375 39.140625 45 
Q 35.0625 48.390625 27.6875 48.390625 
Q 23 48.390625 18.546875 47.265625 
Q 14.109375 46.140625 10.015625 43.890625 
L 10.015625 52.203125 
Q 14.9375 54.109375 19.578125 55.046875 
Q 24.21875 56 28.609375 56 
Q 40.484375 56 46.34375 49.84375 
Q 52.203125 43.703125 52.203125 31.203125 
z
" id="DejaVuSans-97"/>
      </defs>
      <g transform="translate(152.550461 161.26499)rotate(-90)scale(0.08 -0.08)">
       <use xlink:href="#DejaVuSans-50"/>
       <use x="63.623047" xlink:href="#DejaVuSans-57"/>
       <use x="127.246094" xlink:href="#DejaVuSans-32"/>
       <use x="159.033203" xlink:href="#DejaVuSans-77"/>
       <use x="245.3125" xlink:href="#DejaVuSans-97"/>
       <use x="306.591797" xlink:href="#DejaVuSans-114"/>
      </g>
     </g>
    </g>
    <g id="xtick_5">
     <g id="line2d_5">
      <g>
       <use style="stroke:#000000;stroke-width:0.8;" x="133.725021" xlink:href="#mde95a8e4aa" y="126.44874"/>
      </g>
     </g>
     <g id="text_5">
      <!-- 22 Mar -->
      <g transform="translate(135.932521 161.26499)rotate(-90)scale(0.08 -0.08)">
       <use xlink:href="#DejaVuSans-50"/>
       <use x="63.623047" xlink:href="#DejaVuSans-50"/>
       <use x="127.246094" xlink:href="#DejaVuSans-32"/>
       <use x="159.033203" xlink:href="#DejaVuSans-77"/>
       <use x="245.3125" xlink:href="#DejaVuSans-97"/>
       <use x="306.591797" xlink:href="#DejaVuSans-114"/>
      </g>
     </g>
    </g>
    <g id="xtick_6">
     <g id="line2d_6">
      <g>
       <use style="stroke:#000000;stroke-width:0.8;" x="117.107081" xlink:href="#mde95a8e4aa" y="126.44874"/>
      </g>
     </g>
     <g id="text_6">
      <!-- 15 Mar -->
      <g transform="translate(119.314581 161.26499)rotate(-90)scale(0.08 -0.08)">
       <use xlink:href="#DejaVuSans-49"/>
       <use x="63.623047" xlink:href="#DejaVuSans-53"/>
       <use x="127.246094" xlink:href="#DejaVuSans-32"/>
       <use x="159.033203" xlink:href="#DejaVuSans-77"/>
       <use x="245.3125" xlink:href="#DejaVuSans-97"/>
       <use x="306.591797" xlink:href="#DejaVuSans-114"/>
      </g>
     </g>
    </g>
    <g id="xtick_7">
     <g id="line2d_7">
      <g>
       <use style="stroke:#000000;stroke-width:0.8;" x="100.489141" xlink:href="#mde95a8e4aa" y="126.44874"/>
      </g>
     </g>
     <g id="text_7">
      <!-- 8 Mar -->
      <defs>
       <path d="M 31.78125 34.625 
Q 24.75 34.625 20.71875 30.859375 
Q 16.703125 27.09375 16.703125 20.515625 
Q 16.703125 13.921875 20.71875 10.15625 
Q 24.75 6.390625 31.78125 6.390625 
Q 38.8125 6.390625 42.859375 10.171875 
Q 46.921875 13.96875 46.921875 20.515625 
Q 46.921875 27.09375 42.890625 30.859375 
Q 38.875 34.625 31.78125 34.625 
z
M 21.921875 38.8125 
Q 15.578125 40.375 12.03125 44.71875 
Q 8.5 49.078125 8.5 55.328125 
Q 8.5 64.0625 14.71875 69.140625 
Q 20.953125 74.21875 31.78125 74.21875 
Q 42.671875 74.21875 48.875 69.140625 
Q 55.078125 64.0625 55.078125 55.328125 
Q 55.078125 49.078125 51.53125 44.71875 
Q 48 40.375 41.703125 38.8125 
Q 48.828125 37.15625 52.796875 32.3125 
Q 56.78125 27.484375 56.78125 20.515625 
Q 56.78125 9.90625 50.3125 4.234375 
Q 43.84375 -1.421875 31.78125 -1.421875 
Q 19.734375 -1.421875 13.25 4.234375 
Q 6.78125 9.90625 6.78125 20.515625 
Q 6.78125 27.484375 10.78125 32.3125 
Q 14.796875 37.15625 21.921875 38.8125 
z
M 18.3125 54.390625 
Q 18.3125 48.734375 21.84375 45.5625 
Q 25.390625 42.390625 31.78125 42.390625 
Q 38.140625 42.390625 41.71875 45.5625 
Q 45.3125 48.734375 45.3125 54.390625 
Q 45.3125 60.0625 41.71875 63.234375 
Q 38.140625 66.40625 31.78125 66.40625 
Q 25.390625 66.40625 21.84375 63.234375 
Q 18.3125 60.0625 18.3125 54.390625 
z
" id="DejaVuSans-56"/>
      </defs>
      <g transform="translate(102.696641 156.17499)rotate(-90)scale(0.08 -0.08)">
       <use xlink:href="#DejaVuSans-56"/>
       <use x="63.623047" xlink:href="#DejaVuSans-32"/>
       <use x="95.410156" xlink:href="#DejaVuSans-77"/>
       <use x="181.689453" xlink:href="#DejaVuSans-97"/>
       <use x="242.96875" xlink:href="#DejaVuSans-114"/>
      </g>
     </g>
    </g>
    <g id="xtick_8">
     <g id="line2d_8">
      <g>
       <use style="stroke:#000000;stroke-width:0.8;" x="83.871201" xlink:href="#mde95a8e4aa" y="126.44874"/>
      </g>
     </g>
     <g id="text_8">
      <!-- 1 Mar -->
      <g transform="translate(86.078701 156.17499)rotate(-90)scale(0.08 -0.08)">
       <use xlink:href="#DejaVuSans-49"/>
       <use x="63.623047" xlink:href="#DejaVuSans-32"/>
       <use x="95.410156" xlink:href="#DejaVuSans-77"/>
       <use x="181.689453" xlink:href="#DejaVuSans-97"/>
       <use x="242.96875" xlink:href="#DejaVuSans-114"/>
      </g>
     </g>
    </g>
    <g id="xtick_9">
     <g id="line2d_9">
      <g>
       <use style="stroke:#000000;stroke-width:0.8;" x="67.25326" xlink:href="#mde95a8e4aa" y="126.44874"/>
      </g>
     </g>
     <g id="text_9">
      <!-- 23 Feb -->
      <defs>
       <path d="M 40.578125 39.3125 
Q 47.65625 37.796875 51.625 33 
Q 55.609375 28.21875 55.609375 21.1875 
Q 55.609375 10.40625 48.1875 4.484375 
Q 40.765625 -1.421875 27.09375 -1.421875 
Q 22.515625 -1.421875 17.65625 -0.515625 
Q 12.796875 0.390625 7.625 2.203125 
L 7.625 11.71875 
Q 11.71875 9.328125 16.59375 8.109375 
Q 21.484375 6.890625 26.8125 6.890625 
Q 36.078125 6.890625 40.9375 10.546875 
Q 45.796875 14.203125 45.796875 21.1875 
Q 45.796875 27.640625 41.28125 31.265625 
Q 36.765625 34.90625 28.71875 34.90625 
L 20.21875 34.90625 
L 20.21875 43.015625 
L 29.109375 43.015625 
Q 36.375 43.015625 40.234375 45.921875 
Q 44.09375 48.828125 44.09375 54.296875 
Q 44.09375 59.90625 40.109375 62.90625 
Q 36.140625 65.921875 28.71875 65.921875 
Q 24.65625 65.921875 20.015625 65.03125 
Q 15.375 64.15625 9.8125 62.3125 
L 9.8125 71.09375 
Q 15.4375 72.65625 20.34375 73.4375 
Q 25.25 74.21875 29.59375 74.21875 
Q 40.828125 74.21875 47.359375 69.109375 
Q 53.90625 64.015625 53.90625 55.328125 
Q 53.90625 49.265625 50.4375 45.09375 
Q 46.96875 40.921875 40.578125 39.3125 
z
" id="DejaVuSans-51"/>
       <path d="M 9.8125 72.90625 
L 51.703125 72.90625 
L 51.703125 64.59375 
L 19.671875 64.59375 
L 19.671875 43.109375 
L 48.578125 43.109375 
L 48.578125 34.8125 
L 19.671875 34.8125 
L 19.671875 0 
L 9.8125 0 
z
" id="DejaVuSans-70"/>
       <path d="M 56.203125 29.59375 
L 56.203125 25.203125 
L 14.890625 25.203125 
Q 15.484375 15.921875 20.484375 11.0625 
Q 25.484375 6.203125 34.421875 6.203125 
Q 39.59375 6.203125 44.453125 7.46875 
Q 49.3125 8.734375 54.109375 11.28125 
L 54.109375 2.78125 
Q 49.265625 0.734375 44.1875 -0.34375 
Q 39.109375 -1.421875 33.890625 -1.421875 
Q 20.796875 -1.421875 13.15625 6.1875 
Q 5.515625 13.8125 5.515625 26.8125 
Q 5.515625 40.234375 12.765625 48.109375 
Q 20.015625 56 32.328125 56 
Q 43.359375 56 49.78125 48.890625 
Q 56.203125 41.796875 56.203125 29.59375 
z
M 47.21875 32.234375 
Q 47.125 39.59375 43.09375 43.984375 
Q 39.0625 48.390625 32.421875 48.390625 
Q 24.90625 48.390625 20.390625 44.140625 
Q 15.875 39.890625 15.1875 32.171875 
z
" id="DejaVuSans-101"/>
       <path d="M 48.6875 27.296875 
Q 48.6875 37.203125 44.609375 42.84375 
Q 40.53125 48.484375 33.40625 48.484375 
Q 26.265625 48.484375 22.1875 42.84375 
Q 18.109375 37.203125 18.109375 27.296875 
Q 18.109375 17.390625 22.1875 11.75 
Q 26.265625 6.109375 33.40625 6.109375 
Q 40.53125 6.109375 44.609375 11.75 
Q 48.6875 17.390625 48.6875 27.296875 
z
M 18.109375 46.390625 
Q 20.953125 51.265625 25.265625 53.625 
Q 29.59375 56 35.59375 56 
Q 45.5625 56 51.78125 48.09375 
Q 58.015625 40.1875 58.015625 27.296875 
Q 58.015625 14.40625 51.78125 6.484375 
Q 45.5625 -1.421875 35.59375 -1.421875 
Q 29.59375 -1.421875 25.265625 0.953125 
Q 20.953125 3.328125 18.109375 8.203125 
L 18.109375 0 
L 9.078125 0 
L 9.078125 75.984375 
L 18.109375 75.984375 
z
" id="DejaVuSans-98"/>
      </defs>
      <g transform="translate(69.46076 160.33374)rotate(-90)scale(0.08 -0.08)">
       <use xlink:href="#DejaVuSans-50"/>
       <use x="63.623047" xlink:href="#DejaVuSans-51"/>
       <use x="127.246094" xlink:href="#DejaVuSans-32"/>
       <use x="159.033203" xlink:href="#DejaVuSans-70"/>
       <use x="211.052734" xlink:href="#DejaVuSans-101"/>
       <use x="272.576172" xlink:href="#DejaVuSans-98"/>
      </g>
     </g>
    </g>
    <g id="xtick_10">
     <g id="line2d_10">
      <g>
       <use style="stroke:#000000;stroke-width:0.8;" x="50.63532" xlink:href="#mde95a8e4aa" y="126.44874"/>
      </g>
     </g>
     <g id="text_10">
      <!-- 16 Feb -->
      <defs>
       <path d="M 33.015625 40.375 
Q 26.375 40.375 22.484375 35.828125 
Q 18.609375 31.296875 18.609375 23.390625 
Q 18.609375 15.53125 22.484375 10.953125 
Q 26.375 6.390625 33.015625 6.390625 
Q 39.65625 6.390625 43.53125 10.953125 
Q 47.40625 15.53125 47.40625 23.390625 
Q 47.40625 31.296875 43.53125 35.828125 
Q 39.65625 40.375 33.015625 40.375 
z
M 52.59375 71.296875 
L 52.59375 62.3125 
Q 48.875 64.0625 45.09375 64.984375 
Q 41.3125 65.921875 37.59375 65.921875 
Q 27.828125 65.921875 22.671875 59.328125 
Q 17.53125 52.734375 16.796875 39.40625 
Q 19.671875 43.65625 24.015625 45.921875 
Q 28.375 48.1875 33.59375 48.1875 
Q 44.578125 48.1875 50.953125 41.515625 
Q 57.328125 34.859375 57.328125 23.390625 
Q 57.328125 12.15625 50.6875 5.359375 
Q 44.046875 -1.421875 33.015625 -1.421875 
Q 20.359375 -1.421875 13.671875 8.265625 
Q 6.984375 17.96875 6.984375 36.375 
Q 6.984375 53.65625 15.1875 63.9375 
Q 23.390625 74.21875 37.203125 74.21875 
Q 40.921875 74.21875 44.703125 73.484375 
Q 48.484375 72.75 52.59375 71.296875 
z
" id="DejaVuSans-54"/>
      </defs>
      <g transform="translate(52.84282 160.33374)rotate(-90)scale(0.08 -0.08)">
       <use xlink:href="#DejaVuSans-49"/>
       <use x="63.623047" xlink:href="#DejaVuSans-54"/>
       <use x="127.246094" xlink:href="#DejaVuSans-32"/>
       <use x="159.033203" xlink:href="#DejaVuSans-70"/>
       <use x="211.052734" xlink:href="#DejaVuSans-101"/>
       <use x="272.576172" xlink:href="#DejaVuSans-98"/>
      </g>
     </g>
    </g>
   </g>
   <g id="matplotlib.axis_2">
    <g id="ytick_1">
     <g id="line2d_11">
      <defs>
       <path d="M 0 0 
L -3.5 0 
" id="m7553c2cf31" style="stroke:#000000;stroke-width:0.8;"/>
      </defs>
      <g>
       <use style="stroke:#000000;stroke-width:0.8;" x="39.62" xlink:href="#m7553c2cf31" y="126.44874"/>
      </g>
     </g>
     <g id="text_11">
      <!-- 0.00 -->
      <defs>
       <path d="M 31.78125 66.40625 
Q 24.171875 66.40625 20.328125 58.90625 
Q 16.5 51.421875 16.5 36.375 
Q 16.5 21.390625 20.328125 13.890625 
Q 24.171875 6.390625 31.78125 6.390625 
Q 39.453125 6.390625 43.28125 13.890625 
Q 47.125 21.390625 47.125 36.375 
Q 47.125 51.421875 43.28125 58.90625 
Q 39.453125 66.40625 31.78125 66.40625 
z
M 31.78125 74.21875 
Q 44.046875 74.21875 50.515625 64.515625 
Q 56.984375 54.828125 56.984375 36.375 
Q 56.984375 17.96875 50.515625 8.265625 
Q 44.046875 -1.421875 31.78125 -1.421875 
Q 19.53125 -1.421875 13.0625 8.265625 
Q 6.59375 17.96875 6.59375 36.375 
Q 6.59375 54.828125 13.0625 64.515625 
Q 19.53125 74.21875 31.78125 74.21875 
z
" id="DejaVuSans-48"/>
       <path d="M 10.6875 12.40625 
L 21 12.40625 
L 21 0 
L 10.6875 0 
z
" id="DejaVuSans-46"/>
      </defs>
      <g transform="translate(14.8075 129.488115)scale(0.08 -0.08)">
       <use xlink:href="#DejaVuSans-48"/>
       <use x="63.623047" xlink:href="#DejaVuSans-46"/>
       <use x="95.410156" xlink:href="#DejaVuSans-48"/>
       <use x="159.033203" xlink:href="#DejaVuSans-48"/>
      </g>
     </g>
    </g>
    <g id="ytick_2">
     <g id="line2d_12">
      <g>
       <use style="stroke:#000000;stroke-width:0.8;" x="39.62" xlink:href="#m7553c2cf31" y="107.88326"/>
      </g>
     </g>
     <g id="text_12">
      <!-- 0.25 -->
      <g transform="translate(14.8075 110.922635)scale(0.08 -0.08)">
       <use xlink:href="#DejaVuSans-48"/>
       <use x="63.623047" xlink:href="#DejaVuSans-46"/>
       <use x="95.410156" xlink:href="#DejaVuSans-50"/>
       <use x="159.033203" xlink:href="#DejaVuSans-53"/>
      </g>
     </g>
    </g>
    <g id="ytick_3">
     <g id="line2d_13">
      <g>
       <use style="stroke:#000000;stroke-width:0.8;" x="39.62" xlink:href="#m7553c2cf31" y="89.31778"/>
      </g>
     </g>
     <g id="text_13">
      <!-- 0.50 -->
      <g transform="translate(14.8075 92.357155)scale(0.08 -0.08)">
       <use xlink:href="#DejaVuSans-48"/>
       <use x="63.623047" xlink:href="#DejaVuSans-46"/>
       <use x="95.410156" xlink:href="#DejaVuSans-53"/>
       <use x="159.033203" xlink:href="#DejaVuSans-48"/>
      </g>
     </g>
    </g>
    <g id="ytick_4">
     <g id="line2d_14">
      <g>
       <use style="stroke:#000000;stroke-width:0.8;" x="39.62" xlink:href="#m7553c2cf31" y="70.7523"/>
      </g>
     </g>
     <g id="text_14">
      <!-- 0.75 -->
      <defs>
       <path d="M 8.203125 72.90625 
L 55.078125 72.90625 
L 55.078125 68.703125 
L 28.609375 0 
L 18.3125 0 
L 43.21875 64.59375 
L 8.203125 64.59375 
z
" id="DejaVuSans-55"/>
      </defs>
      <g transform="translate(14.8075 73.791675)scale(0.08 -0.08)">
       <use xlink:href="#DejaVuSans-48"/>
       <use x="63.623047" xlink:href="#DejaVuSans-46"/>
       <use x="95.410156" xlink:href="#DejaVuSans-55"/>
       <use x="159.033203" xlink:href="#DejaVuSans-53"/>
      </g>
     </g>
    </g>
    <g id="ytick_5">
     <g id="line2d_15">
      <g>
       <use style="stroke:#000000;stroke-width:0.8;" x="39.62" xlink:href="#m7553c2cf31" y="52.18682"/>
      </g>
     </g>
     <g id="text_15">
      <!-- 1.00 -->
      <g transform="translate(14.8075 55.226195)scale(0.08 -0.08)">
       <use xlink:href="#DejaVuSans-49"/>
       <use x="63.623047" xlink:href="#DejaVuSans-46"/>
       <use x="95.410156" xlink:href="#DejaVuSans-48"/>
       <use x="159.033203" xlink:href="#DejaVuSans-48"/>
      </g>
     </g>
    </g>
    <g id="ytick_6">
     <g id="line2d_16">
      <g>
       <use style="stroke:#000000;stroke-width:0.8;" x="39.62" xlink:href="#m7553c2cf31" y="33.62134"/>
      </g>
     </g>
     <g id="text_16">
      <!-- 1.25 -->
      <g transform="translate(14.8075 36.660715)scale(0.08 -0.08)">
       <use xlink:href="#DejaVuSans-49"/>
       <use x="63.623047" xlink:href="#DejaVuSans-46"/>
       <use x="95.410156" xlink:href="#DejaVuSans-50"/>
       <use x="159.033203" xlink:href="#DejaVuSans-53"/>
      </g>
     </g>
    </g>
    <g id="text_17">
     <!-- Cumulative cases -->
     <defs>
      <path d="M 64.40625 67.28125 
L 64.40625 56.890625 
Q 59.421875 61.53125 53.78125 63.8125 
Q 48.140625 66.109375 41.796875 66.109375 
Q 29.296875 66.109375 22.65625 58.46875 
Q 16.015625 50.828125 16.015625 36.375 
Q 16.015625 21.96875 22.65625 14.328125 
Q 29.296875 6.6875 41.796875 6.6875 
Q 48.140625 6.6875 53.78125 8.984375 
Q 59.421875 11.28125 64.40625 15.921875 
L 64.40625 5.609375 
Q 59.234375 2.09375 53.4375 0.328125 
Q 47.65625 -1.421875 41.21875 -1.421875 
Q 24.65625 -1.421875 15.125 8.703125 
Q 5.609375 18.84375 5.609375 36.375 
Q 5.609375 53.953125 15.125 64.078125 
Q 24.65625 74.21875 41.21875 74.21875 
Q 47.75 74.21875 53.53125 72.484375 
Q 59.328125 70.75 64.40625 67.28125 
z
" id="DejaVuSans-67"/>
      <path d="M 8.5 21.578125 
L 8.5 54.6875 
L 17.484375 54.6875 
L 17.484375 21.921875 
Q 17.484375 14.15625 20.5 10.265625 
Q 23.53125 6.390625 29.59375 6.390625 
Q 36.859375 6.390625 41.078125 11.03125 
Q 45.3125 15.671875 45.3125 23.6875 
L 45.3125 54.6875 
L 54.296875 54.6875 
L 54.296875 0 
L 45.3125 0 
L 45.3125 8.40625 
Q 42.046875 3.421875 37.71875 1 
Q 33.40625 -1.421875 27.6875 -1.421875 
Q 18.265625 -1.421875 13.375 4.4375 
Q 8.5 10.296875 8.5 21.578125 
z
M 31.109375 56 
z
" id="DejaVuSans-117"/>
      <path d="M 52 44.1875 
Q 55.375 50.25 60.0625 53.125 
Q 64.75 56 71.09375 56 
Q 79.640625 56 84.28125 50.015625 
Q 88.921875 44.046875 88.921875 33.015625 
L 88.921875 0 
L 79.890625 0 
L 79.890625 32.71875 
Q 79.890625 40.578125 77.09375 44.375 
Q 74.3125 48.1875 68.609375 48.1875 
Q 61.625 48.1875 57.5625 43.546875 
Q 53.515625 38.921875 53.515625 30.90625 
L 53.515625 0 
L 44.484375 0 
L 44.484375 32.71875 
Q 44.484375 40.625 41.703125 44.40625 
Q 38.921875 48.1875 33.109375 48.1875 
Q 26.21875 48.1875 22.15625 43.53125 
Q 18.109375 38.875 18.109375 30.90625 
L 18.109375 0 
L 9.078125 0 
L 9.078125 54.6875 
L 18.109375 54.6875 
L 18.109375 46.1875 
Q 21.1875 51.21875 25.484375 53.609375 
Q 29.78125 56 35.6875 56 
Q 41.65625 56 45.828125 52.96875 
Q 50 49.953125 52 44.1875 
z
" id="DejaVuSans-109"/>
      <path d="M 9.421875 75.984375 
L 18.40625 75.984375 
L 18.40625 0 
L 9.421875 0 
z
" id="DejaVuSans-108"/>
      <path d="M 18.3125 70.21875 
L 18.3125 54.6875 
L 36.8125 54.6875 
L 36.8125 47.703125 
L 18.3125 47.703125 
L 18.3125 18.015625 
Q 18.3125 11.328125 20.140625 9.421875 
Q 21.96875 7.515625 27.59375 7.515625 
L 36.8125 7.515625 
L 36.8125 0 
L 27.59375 0 
Q 17.1875 0 13.234375 3.875 
Q 9.28125 7.765625 9.28125 18.015625 
L 9.28125 47.703125 
L 2.6875 47.703125 
L 2.6875 54.6875 
L 9.28125 54.6875 
L 9.28125 70.21875 
z
" id="DejaVuSans-116"/>
      <path d="M 9.421875 54.6875 
L 18.40625 54.6875 
L 18.40625 0 
L 9.421875 0 
z
M 9.421875 75.984375 
L 18.40625 75.984375 
L 18.40625 64.59375 
L 9.421875 64.59375 
z
" id="DejaVuSans-105"/>
      <path d="M 2.984375 54.6875 
L 12.5 54.6875 
L 29.59375 8.796875 
L 46.6875 54.6875 
L 56.203125 54.6875 
L 35.6875 0 
L 23.484375 0 
z
" id="DejaVuSans-118"/>
      <path d="M 48.78125 52.59375 
L 48.78125 44.1875 
Q 44.96875 46.296875 41.140625 47.34375 
Q 37.3125 48.390625 33.40625 48.390625 
Q 24.65625 48.390625 19.8125 42.84375 
Q 14.984375 37.3125 14.984375 27.296875 
Q 14.984375 17.28125 19.8125 11.734375 
Q 24.65625 6.203125 33.40625 6.203125 
Q 37.3125 6.203125 41.140625 7.25 
Q 44.96875 8.296875 48.78125 10.40625 
L 48.78125 2.09375 
Q 45.015625 0.34375 40.984375 -0.53125 
Q 36.96875 -1.421875 32.421875 -1.421875 
Q 20.0625 -1.421875 12.78125 6.34375 
Q 5.515625 14.109375 5.515625 27.296875 
Q 5.515625 40.671875 12.859375 48.328125 
Q 20.21875 56 33.015625 56 
Q 37.15625 56 41.109375 55.140625 
Q 45.0625 54.296875 48.78125 52.59375 
z
" id="DejaVuSans-99"/>
      <path d="M 44.28125 53.078125 
L 44.28125 44.578125 
Q 40.484375 46.53125 36.375 47.5 
Q 32.28125 48.484375 27.875 48.484375 
Q 21.1875 48.484375 17.84375 46.4375 
Q 14.5 44.390625 14.5 40.28125 
Q 14.5 37.15625 16.890625 35.375 
Q 19.28125 33.59375 26.515625 31.984375 
L 29.59375 31.296875 
Q 39.15625 29.25 43.1875 25.515625 
Q 47.21875 21.78125 47.21875 15.09375 
Q 47.21875 7.46875 41.1875 3.015625 
Q 35.15625 -1.421875 24.609375 -1.421875 
Q 20.21875 -1.421875 15.453125 -0.5625 
Q 10.6875 0.296875 5.421875 2 
L 5.421875 11.28125 
Q 10.40625 8.6875 15.234375 7.390625 
Q 20.0625 6.109375 24.8125 6.109375 
Q 31.15625 6.109375 34.5625 8.28125 
Q 37.984375 10.453125 37.984375 14.40625 
Q 37.984375 18.0625 35.515625 20.015625 
Q 33.0625 21.96875 24.703125 23.78125 
L 21.578125 24.515625 
Q 13.234375 26.265625 9.515625 29.90625 
Q 5.8125 33.546875 5.8125 39.890625 
Q 5.8125 47.609375 11.28125 51.796875 
Q 16.75 56 26.8125 56 
Q 31.78125 56 36.171875 55.265625 
Q 40.578125 54.546875 44.28125 53.078125 
z
" id="DejaVuSans-115"/>
     </defs>
     <g transform="translate(9.14375 107.304995)rotate(-90)scale(0.08 -0.08)">
      <use xlink:href="#DejaVuSans-67"/>
      <use x="69.824219" xlink:href="#DejaVuSans-117"/>
      <use x="133.203125" xlink:href="#DejaVuSans-109"/>
      <use x="230.615234" xlink:href="#DejaVuSans-117"/>
      <use x="293.994141" xlink:href="#DejaVuSans-108"/>
      <use x="321.777344" xlink:href="#DejaVuSans-97"/>
      <use x="383.056641" xlink:href="#DejaVuSans-116"/>
      <use x="422.265625" xlink:href="#DejaVuSans-105"/>
      <use x="450.048828" xlink:href="#DejaVuSans-118"/>
      <use x="509.228516" xlink:href="#DejaVuSans-101"/>
      <use x="570.751953" xlink:href="#DejaVuSans-32"/>
      <use x="602.539062" xlink:href="#DejaVuSans-99"/>
      <use x="657.519531" xlink:href="#DejaVuSans-97"/>
      <use x="718.798828" xlink:href="#DejaVuSans-115"/>
      <use x="770.898438" xlink:href="#DejaVuSans-101"/>
      <use x="832.421875" xlink:href="#DejaVuSans-115"/>
     </g>
    </g>
    <g id="text_18">
     <!-- 1e6 -->
     <g transform="translate(39.62 14.4)scale(0.08 -0.08)">
      <use xlink:href="#DejaVuSans-49"/>
      <use x="63.623047" xlink:href="#DejaVuSans-101"/>
      <use x="125.146484" xlink:href="#DejaVuSans-54"/>
     </g>
    </g>
   </g>
   <g id="line2d_17">
    <path clip-path="url(#p0760093ba5)" d="M 48.261329 126.447498 
L 50.63532 126.446256 
L 53.009312 126.445014 
L 55.383303 126.443772 
L 57.757295 126.44253 
L 60.131286 126.441288 
L 62.505278 126.43922 
L 64.879269 126.43701 
L 67.25326 126.43318 
L 69.627252 126.430348 
L 72.001243 126.426339 
L 74.375235 126.421298 
L 76.749226 126.414616 
L 79.123218 126.403956 
L 81.497209 126.393079 
L 83.871201 126.371172 
L 86.245192 126.351062 
L 88.619183 126.326854 
L 90.993175 126.298336 
L 93.367166 126.264801 
L 95.741158 126.222014 
L 98.115149 126.170794 
L 100.489141 126.049388 
L 102.863132 125.9648 
L 105.237124 125.86784 
L 107.611115 125.726003 
L 109.985106 125.52778 
L 112.359098 125.149284 
L 114.733089 124.804944 
L 117.107081 124.267942 
L 119.481072 123.312506 
L 121.855064 122.456915 
L 124.229055 121.518164 
L 126.603047 120.603041 
L 128.977038 119.440201 
L 131.351029 118.776373 
L 133.725021 118.233124 
L 136.099012 117.146633 
L 138.473004 116.078479 
L 140.846995 114.943407 
L 143.220987 113.655185 
L 145.594978 112.183338 
L 147.96897 110.872647 
L 150.342961 110.291034 
" style="fill:none;stroke:#0000ff;stroke-linecap:square;stroke-opacity:0.5;"/>
   </g>
   <g id="line2d_18">
    <path clip-path="url(#p0760093ba5)" d="M 152.716952 109.664805 
L 155.090944 109.017684 
L 157.464935 108.367853 
L 159.838927 107.725158 
L 162.212918 107.093331 
L 164.58691 106.472416 
L 166.960901 105.860471 
L 169.334893 105.254556 
L 171.708884 104.651253 
L 174.082875 104.046891 
L 176.456867 103.437625 
L 178.830858 102.819427 
L 181.20485 102.188046 
L 183.578841 101.538941 
L 185.952833 100.867202 
L 188.326824 100.167463 
L 190.700816 99.433797 
L 193.074807 98.659602 
L 195.448798 97.837469 
L 197.82279 96.959029 
L 200.196781 96.014778 
" style="fill:none;stroke:#008000;stroke-linecap:square;stroke-opacity:0.5;"/>
   </g>
   <g id="line2d_19">
    <path clip-path="url(#p0760093ba5)" d="M 133.725021 126.44874 
L 133.725021 17.4 
" style="fill:none;stroke:#0000ff;stroke-dasharray:1.85,0.8;stroke-dashoffset:0;stroke-width:0.5;"/>
   </g>
   <g id="line2d_20">
    <path clip-path="url(#p0760093ba5)" d="M 114.733089 126.44874 
L 114.733089 17.4 
" style="fill:none;stroke:#0000ff;stroke-dasharray:1.85,0.8;stroke-dashoffset:0;stroke-width:0.5;"/>
   </g>
   <g id="line2d_21">
    <path clip-path="url(#p0760093ba5)" d="M 133.725021 126.44874 
L 133.725021 17.4 
" style="fill:none;stroke:#0000ff;stroke-dasharray:1.85,0.8;stroke-dashoffset:0;stroke-width:0.5;"/>
   </g>
   <g id="line2d_22">
    <path clip-path="url(#p0760093ba5)" d="M 109.985106 126.44874 
L 109.985106 17.4 
" style="fill:none;stroke:#0000ff;stroke-dasharray:1.85,0.8;stroke-dashoffset:0;stroke-width:0.5;"/>
   </g>
   <g id="line2d_23">
    <path clip-path="url(#p0760093ba5)" d="M 95.741158 126.44874 
L 95.741158 17.4 
" style="fill:none;stroke:#0000ff;stroke-dasharray:1.85,0.8;stroke-dashoffset:0;stroke-width:0.5;"/>
   </g>
   <g id="patch_68">
    <path d="M 39.62 126.44874 
L 39.62 17.4 
" style="fill:none;stroke:#000000;stroke-linecap:square;stroke-linejoin:miter;stroke-width:0.8;"/>
   </g>
   <g id="patch_69">
    <path d="M 208.83811 126.44874 
L 208.83811 17.4 
" style="fill:none;stroke:#000000;stroke-linecap:square;stroke-linejoin:miter;stroke-width:0.8;"/>
   </g>
   <g id="patch_70">
    <path d="M 39.62 126.44874 
L 208.83811 126.44874 
" style="fill:none;stroke:#000000;stroke-linecap:square;stroke-linejoin:miter;stroke-width:0.8;"/>
   </g>
   <g id="patch_71">
    <path d="M 39.62 17.4 
L 208.83811 17.4 
" style="fill:none;stroke:#000000;stroke-linecap:square;stroke-linejoin:miter;stroke-width:0.8;"/>
   </g>
   <g id="legend_1">
    <g id="line2d_24">
     <path d="M 46.82 103.04249 
L 62.82 103.04249 
" style="fill:none;stroke:#0000ff;stroke-linecap:square;stroke-opacity:0.5;"/>
    </g>
    <g id="line2d_25"/>
    <g id="text_19">
     <!-- Simulation -->
     <defs>
      <path d="M 53.515625 70.515625 
L 53.515625 60.890625 
Q 47.90625 63.578125 42.921875 64.890625 
Q 37.9375 66.21875 33.296875 66.21875 
Q 25.25 66.21875 20.875 63.09375 
Q 16.5 59.96875 16.5 54.203125 
Q 16.5 49.359375 19.40625 46.890625 
Q 22.3125 44.4375 30.421875 42.921875 
L 36.375 41.703125 
Q 47.40625 39.59375 52.65625 34.296875 
Q 57.90625 29 57.90625 20.125 
Q 57.90625 9.515625 50.796875 4.046875 
Q 43.703125 -1.421875 29.984375 -1.421875 
Q 24.8125 -1.421875 18.96875 -0.25 
Q 13.140625 0.921875 6.890625 3.21875 
L 6.890625 13.375 
Q 12.890625 10.015625 18.65625 8.296875 
Q 24.421875 6.59375 29.984375 6.59375 
Q 38.421875 6.59375 43.015625 9.90625 
Q 47.609375 13.234375 47.609375 19.390625 
Q 47.609375 24.75 44.3125 27.78125 
Q 41.015625 30.8125 33.5 32.328125 
L 27.484375 33.5 
Q 16.453125 35.6875 11.515625 40.375 
Q 6.59375 45.0625 6.59375 53.421875 
Q 6.59375 63.09375 13.40625 68.65625 
Q 20.21875 74.21875 32.171875 74.21875 
Q 37.3125 74.21875 42.625 73.28125 
Q 47.953125 72.359375 53.515625 70.515625 
z
" id="DejaVuSans-83"/>
      <path d="M 30.609375 48.390625 
Q 23.390625 48.390625 19.1875 42.75 
Q 14.984375 37.109375 14.984375 27.296875 
Q 14.984375 17.484375 19.15625 11.84375 
Q 23.34375 6.203125 30.609375 6.203125 
Q 37.796875 6.203125 41.984375 11.859375 
Q 46.1875 17.53125 46.1875 27.296875 
Q 46.1875 37.015625 41.984375 42.703125 
Q 37.796875 48.390625 30.609375 48.390625 
z
M 30.609375 56 
Q 42.328125 56 49.015625 48.375 
Q 55.71875 40.765625 55.71875 27.296875 
Q 55.71875 13.875 49.015625 6.21875 
Q 42.328125 -1.421875 30.609375 -1.421875 
Q 18.84375 -1.421875 12.171875 6.21875 
Q 5.515625 13.875 5.515625 27.296875 
Q 5.515625 40.765625 12.171875 48.375 
Q 18.84375 56 30.609375 56 
z
" id="DejaVuSans-111"/>
      <path d="M 54.890625 33.015625 
L 54.890625 0 
L 45.90625 0 
L 45.90625 32.71875 
Q 45.90625 40.484375 42.875 44.328125 
Q 39.84375 48.1875 33.796875 48.1875 
Q 26.515625 48.1875 22.3125 43.546875 
Q 18.109375 38.921875 18.109375 30.90625 
L 18.109375 0 
L 9.078125 0 
L 9.078125 54.6875 
L 18.109375 54.6875 
L 18.109375 46.1875 
Q 21.34375 51.125 25.703125 53.5625 
Q 30.078125 56 35.796875 56 
Q 45.21875 56 50.046875 50.171875 
Q 54.890625 44.34375 54.890625 33.015625 
z
" id="DejaVuSans-110"/>
     </defs>
     <g transform="translate(69.22 105.84249)scale(0.08 -0.08)">
      <use xlink:href="#DejaVuSans-83"/>
      <use x="63.476562" xlink:href="#DejaVuSans-105"/>
      <use x="91.259766" xlink:href="#DejaVuSans-109"/>
      <use x="188.671875" xlink:href="#DejaVuSans-117"/>
      <use x="252.050781" xlink:href="#DejaVuSans-108"/>
      <use x="279.833984" xlink:href="#DejaVuSans-97"/>
      <use x="341.113281" xlink:href="#DejaVuSans-116"/>
      <use x="380.322266" xlink:href="#DejaVuSans-105"/>
      <use x="408.105469" xlink:href="#DejaVuSans-111"/>
      <use x="469.287109" xlink:href="#DejaVuSans-110"/>
     </g>
    </g>
    <g id="line2d_26">
     <path d="M 46.82 114.78499 
L 62.82 114.78499 
" style="fill:none;stroke:#008000;stroke-linecap:square;stroke-opacity:0.5;"/>
    </g>
    <g id="line2d_27"/>
    <g id="text_20">
     <!-- Forecast -->
     <g transform="translate(69.22 117.58499)scale(0.08 -0.08)">
      <use xlink:href="#DejaVuSans-70"/>
      <use x="53.894531" xlink:href="#DejaVuSans-111"/>
      <use x="115.076172" xlink:href="#DejaVuSans-114"/>
      <use x="153.939453" xlink:href="#DejaVuSans-101"/>
      <use x="215.462891" xlink:href="#DejaVuSans-99"/>
      <use x="270.443359" xlink:href="#DejaVuSans-97"/>
      <use x="331.722656" xlink:href="#DejaVuSans-115"/>
      <use x="383.822266" xlink:href="#DejaVuSans-116"/>
     </g>
    </g>
   </g>
  </g>
  <g id="axes_2">
   <g id="matplotlib.axis_3">
    <g id="ytick_7">
     <g id="line2d_28">
      <defs>
       <path d="M 0 0 
L 3.5 0 
" id="mbe05cd016b" style="stroke:#000000;stroke-width:0.8;"/>
      </defs>
      <g>
       <use style="stroke:#000000;stroke-width:0.8;" x="208.83811" xlink:href="#mbe05cd016b" y="126.44874"/>
      </g>
     </g>
     <g id="text_21">
      <!-- 1.0 -->
      <defs>
       <path d="M 10.59375 35.5 
L 73.1875 35.5 
L 73.1875 27.203125 
L 10.59375 27.203125 
z
" id="DejaVuSans-8722"/>
      </defs>
      <g transform="translate(215.83811 129.488115)scale(0.08 -0.08)">
       <use xlink:href="#DejaVuSans-8722"/>
       <use x="83.789062" xlink:href="#DejaVuSans-49"/>
       <use x="147.412109" xlink:href="#DejaVuSans-46"/>
       <use x="179.199219" xlink:href="#DejaVuSans-48"/>
      </g>
     </g>
    </g>
    <g id="ytick_8">
     <g id="line2d_29">
      <g>
       <use style="stroke:#000000;stroke-width:0.8;" x="208.83811" xlink:href="#mbe05cd016b" y="87.502762"/>
      </g>
     </g>
     <g id="text_22">
      <!-- 0.5 -->
      <g transform="translate(215.83811 90.542137)scale(0.08 -0.08)">
       <use xlink:href="#DejaVuSans-8722"/>
       <use x="83.789062" xlink:href="#DejaVuSans-48"/>
       <use x="147.412109" xlink:href="#DejaVuSans-46"/>
       <use x="179.199219" xlink:href="#DejaVuSans-53"/>
      </g>
     </g>
    </g>
    <g id="ytick_9">
     <g id="line2d_30">
      <g>
       <use style="stroke:#000000;stroke-width:0.8;" x="208.83811" xlink:href="#mbe05cd016b" y="48.556783"/>
      </g>
     </g>
     <g id="text_23">
      <!-- 0.0 -->
      <g transform="translate(215.83811 51.596158)scale(0.08 -0.08)">
       <use xlink:href="#DejaVuSans-48"/>
       <use x="63.623047" xlink:href="#DejaVuSans-46"/>
       <use x="95.410156" xlink:href="#DejaVuSans-48"/>
      </g>
     </g>
    </g>
    <g id="ytick_10">
     <g id="line2d_31">
      <g>
       <use style="stroke:#000000;stroke-width:0.8;" x="208.83811" xlink:href="#mbe05cd016b" y="17.4"/>
      </g>
     </g>
     <g id="text_24">
      <!-- 0.4 -->
      <defs>
       <path d="M 37.796875 64.3125 
L 12.890625 25.390625 
L 37.796875 25.390625 
z
M 35.203125 72.90625 
L 47.609375 72.90625 
L 47.609375 25.390625 
L 58.015625 25.390625 
L 58.015625 17.1875 
L 47.609375 17.1875 
L 47.609375 0 
L 37.796875 0 
L 37.796875 17.1875 
L 4.890625 17.1875 
L 4.890625 26.703125 
z
" id="DejaVuSans-52"/>
      </defs>
      <g transform="translate(215.83811 20.439375)scale(0.08 -0.08)">
       <use xlink:href="#DejaVuSans-48"/>
       <use x="63.623047" xlink:href="#DejaVuSans-46"/>
       <use x="95.410156" xlink:href="#DejaVuSans-52"/>
      </g>
     </g>
    </g>
    <g id="text_25">
     <!-- Relative change -->
     <defs>
      <path d="M 44.390625 34.1875 
Q 47.5625 33.109375 50.5625 29.59375 
Q 53.5625 26.078125 56.59375 19.921875 
L 66.609375 0 
L 56 0 
L 46.6875 18.703125 
Q 43.0625 26.03125 39.671875 28.421875 
Q 36.28125 30.8125 30.421875 30.8125 
L 19.671875 30.8125 
L 19.671875 0 
L 9.8125 0 
L 9.8125 72.90625 
L 32.078125 72.90625 
Q 44.578125 72.90625 50.734375 67.671875 
Q 56.890625 62.453125 56.890625 51.90625 
Q 56.890625 45.015625 53.6875 40.46875 
Q 50.484375 35.9375 44.390625 34.1875 
z
M 19.671875 64.796875 
L 19.671875 38.921875 
L 32.078125 38.921875 
Q 39.203125 38.921875 42.84375 42.21875 
Q 46.484375 45.515625 46.484375 51.90625 
Q 46.484375 58.296875 42.84375 61.546875 
Q 39.203125 64.796875 32.078125 64.796875 
z
" id="DejaVuSans-82"/>
      <path d="M 54.890625 33.015625 
L 54.890625 0 
L 45.90625 0 
L 45.90625 32.71875 
Q 45.90625 40.484375 42.875 44.328125 
Q 39.84375 48.1875 33.796875 48.1875 
Q 26.515625 48.1875 22.3125 43.546875 
Q 18.109375 38.921875 18.109375 30.90625 
L 18.109375 0 
L 9.078125 0 
L 9.078125 75.984375 
L 18.109375 75.984375 
L 18.109375 46.1875 
Q 21.34375 51.125 25.703125 53.5625 
Q 30.078125 56 35.796875 56 
Q 45.21875 56 50.046875 50.171875 
Q 54.890625 44.34375 54.890625 33.015625 
z
" id="DejaVuSans-104"/>
      <path d="M 45.40625 27.984375 
Q 45.40625 37.75 41.375 43.109375 
Q 37.359375 48.484375 30.078125 48.484375 
Q 22.859375 48.484375 18.828125 43.109375 
Q 14.796875 37.75 14.796875 27.984375 
Q 14.796875 18.265625 18.828125 12.890625 
Q 22.859375 7.515625 30.078125 7.515625 
Q 37.359375 7.515625 41.375 12.890625 
Q 45.40625 18.265625 45.40625 27.984375 
z
M 54.390625 6.78125 
Q 54.390625 -7.171875 48.1875 -13.984375 
Q 42 -20.796875 29.203125 -20.796875 
Q 24.46875 -20.796875 20.265625 -20.09375 
Q 16.0625 -19.390625 12.109375 -17.921875 
L 12.109375 -9.1875 
Q 16.0625 -11.328125 19.921875 -12.34375 
Q 23.78125 -13.375 27.78125 -13.375 
Q 36.625 -13.375 41.015625 -8.765625 
Q 45.40625 -4.15625 45.40625 5.171875 
L 45.40625 9.625 
Q 42.625 4.78125 38.28125 2.390625 
Q 33.9375 0 27.875 0 
Q 17.828125 0 11.671875 7.65625 
Q 5.515625 15.328125 5.515625 27.984375 
Q 5.515625 40.671875 11.671875 48.328125 
Q 17.828125 56 27.875 56 
Q 33.9375 56 38.28125 53.609375 
Q 42.625 51.21875 45.40625 46.390625 
L 45.40625 54.6875 
L 54.390625 54.6875 
z
" id="DejaVuSans-103"/>
     </defs>
     <g transform="translate(245.34311 104.04812)rotate(-90)scale(0.08 -0.08)">
      <use xlink:href="#DejaVuSans-82"/>
      <use x="64.982422" xlink:href="#DejaVuSans-101"/>
      <use x="126.505859" xlink:href="#DejaVuSans-108"/>
      <use x="154.289062" xlink:href="#DejaVuSans-97"/>
      <use x="215.568359" xlink:href="#DejaVuSans-116"/>
      <use x="254.777344" xlink:href="#DejaVuSans-105"/>
      <use x="282.560547" xlink:href="#DejaVuSans-118"/>
      <use x="341.740234" xlink:href="#DejaVuSans-101"/>
      <use x="403.263672" xlink:href="#DejaVuSans-32"/>
      <use x="435.050781" xlink:href="#DejaVuSans-99"/>
      <use x="490.03125" xlink:href="#DejaVuSans-104"/>
      <use x="553.410156" xlink:href="#DejaVuSans-97"/>
      <use x="614.689453" xlink:href="#DejaVuSans-110"/>
      <use x="678.068359" xlink:href="#DejaVuSans-103"/>
      <use x="741.544922" xlink:href="#DejaVuSans-101"/>
     </g>
    </g>
   </g>
   <g id="line2d_32">
    <path clip-path="url(#p0760093ba5)" d="M 48.261329 43.883265 
L 50.63532 43.104346 
L 53.009312 46.998944 
L 55.383303 46.998944 
L 57.757295 46.220024 
L 60.131286 46.998944 
L 62.505278 46.998944 
L 64.879269 49.335702 
L 67.25326 48.556783 
L 69.627252 46.998944 
L 72.001243 49.335702 
L 74.375235 50.893542 
L 76.749226 52.451381 
L 79.123218 46.220024 
L 81.497209 49.335702 
L 83.871201 42.325426 
L 86.245192 46.998944 
L 88.619183 48.556783 
L 90.993175 46.998944 
L 93.367166 51.672461 
L 95.741158 50.893542 
L 98.115149 47.777863 
L 100.489141 39.209748 
L 102.863132 49.335702 
L 105.237124 54.00922 
L 107.611115 49.335702 
L 109.985106 54.00922 
L 112.359098 55.567059 
L 114.733089 61.798416 
L 117.107081 57.903818 
L 119.481072 54.00922 
L 121.855064 64.914094 
L 124.229055 75.040048 
L 126.603047 83.608164 
L 128.977038 87.502762 
L 131.351029 102.302233 
L 133.725021 103.860073 
L 136.099012 92.955199 
L 138.473004 94.513038 
L 140.846995 93.734118 
L 143.220987 94.513038 
L 145.594978 94.513038 
L 147.96897 99.965475 
L 150.342961 108.53359 
" style="fill:none;stroke:#d62728;stroke-linecap:square;stroke-opacity:0.5;"/>
   </g>
   <g id="line2d_33">
    <path clip-path="url(#p0760093ba5)" d="M 48.261329 47.777863 
L 50.63532 40.767587 
L 53.009312 46.998944 
L 55.383303 46.998944 
L 57.757295 48.556783 
L 60.131286 49.335702 
L 62.505278 46.998944 
L 64.879269 50.114622 
L 67.25326 41.546507 
L 69.627252 52.451381 
L 72.001243 49.335702 
L 74.375235 48.556783 
L 76.749226 46.220024 
L 79.123218 39.988668 
L 81.497209 44.662185 
L 83.871201 34.536231 
L 86.245192 42.325426 
L 88.619183 44.662185 
L 90.993175 46.998944 
L 93.367166 48.556783 
L 95.741158 47.777863 
L 98.115149 48.556783 
L 100.489141 33.757311 
L 102.863132 46.998944 
L 105.237124 50.114622 
L 107.611115 46.998944 
L 109.985106 43.883265 
L 112.359098 33.757311 
L 114.733089 41.546507 
L 117.107081 38.430828 
L 119.481072 31.420552 
L 121.855064 39.988668 
L 124.229055 44.662185 
L 126.603047 50.893542 
L 128.977038 50.114622 
L 131.351029 67.250853 
L 133.725021 75.818968 
L 136.099012 61.019496 
L 138.473004 62.577335 
L 140.846995 62.577335 
L 143.220987 61.019496 
L 145.594978 59.461657 
L 147.96897 64.914094 
L 150.342961 88.281681 
" style="fill:none;stroke:#9467bd;stroke-linecap:square;stroke-opacity:0.5;"/>
   </g>
   <g id="line2d_34">
    <path clip-path="url(#p0760093ba5)" d="M 48.261329 40.767587 
L 50.63532 43.883265 
L 53.009312 47.777863 
L 55.383303 47.777863 
L 57.757295 49.335702 
L 60.131286 46.220024 
L 62.505278 49.335702 
L 64.879269 41.546507 
L 67.25326 46.998944 
L 69.627252 52.451381 
L 72.001243 52.451381 
L 74.375235 54.00922 
L 76.749226 52.451381 
L 79.123218 50.114622 
L 81.497209 47.777863 
L 83.871201 45.441105 
L 86.245192 49.335702 
L 88.619183 50.893542 
L 90.993175 51.672461 
L 93.367166 52.451381 
L 95.741158 54.00922 
L 98.115149 50.114622 
L 100.489141 46.998944 
L 102.863132 52.451381 
L 105.237124 54.788139 
L 107.611115 54.00922 
L 109.985106 55.567059 
L 112.359098 60.240576 
L 114.733089 63.356255 
L 117.107081 61.019496 
L 119.481072 68.029772 
L 121.855064 75.818968 
L 124.229055 78.934646 
L 126.603047 84.387083 
L 128.977038 89.060601 
L 131.351029 94.513038 
L 133.725021 93.734118 
L 136.099012 92.176279 
L 138.473004 92.176279 
L 140.846995 92.176279 
L 143.220987 92.955199 
L 145.594978 92.176279 
L 147.96897 89.83952 
L 150.342961 101.523314 
" style="fill:none;stroke:#e377c2;stroke-linecap:square;stroke-opacity:0.5;"/>
   </g>
   <g id="line2d_35">
    <path clip-path="url(#p0760093ba5)" d="M 48.261329 48.556783 
L 50.63532 49.335702 
L 53.009312 50.114622 
L 55.383303 49.335702 
L 57.757295 49.335702 
L 60.131286 51.672461 
L 62.505278 54.788139 
L 64.879269 50.893542 
L 67.25326 50.893542 
L 69.627252 64.135174 
L 72.001243 58.682737 
L 74.375235 52.451381 
L 76.749226 51.672461 
L 79.123218 52.451381 
L 81.497209 49.335702 
L 83.871201 47.777863 
L 86.245192 48.556783 
L 88.619183 48.556783 
L 90.993175 48.556783 
L 93.367166 48.556783 
L 95.741158 49.335702 
L 98.115149 48.556783 
L 100.489141 47.777863 
L 102.863132 49.335702 
L 105.237124 49.335702 
L 107.611115 49.335702 
L 109.985106 50.114622 
L 112.359098 51.672461 
L 114.733089 50.893542 
L 117.107081 52.451381 
L 119.481072 62.577335 
L 121.855064 68.029772 
L 124.229055 71.92437 
L 126.603047 74.261129 
L 128.977038 76.597888 
L 131.351029 72.70329 
L 133.725021 75.040048 
L 136.099012 80.492485 
L 138.473004 82.050325 
L 140.846995 82.050325 
L 143.220987 82.829244 
L 145.594978 82.829244 
L 147.96897 74.261129 
L 150.342961 78.934646 
" style="fill:none;stroke:#bcbd22;stroke-linecap:square;stroke-opacity:0.5;"/>
   </g>
   <g id="line2d_36">
    <path clip-path="url(#p0760093ba5)" d="M 48.261329 49.335702 
L 50.63532 48.556783 
L 53.009312 48.556783 
L 55.383303 47.777863 
L 57.757295 47.777863 
L 60.131286 47.777863 
L 62.505278 46.998944 
L 64.879269 48.556783 
L 67.25326 48.556783 
L 69.627252 45.441105 
L 72.001243 45.441105 
L 74.375235 46.998944 
L 76.749226 46.998944 
L 79.123218 46.998944 
L 81.497209 47.777863 
L 83.871201 48.556783 
L 86.245192 48.556783 
L 88.619183 47.777863 
L 90.993175 47.777863 
L 93.367166 47.777863 
L 95.741158 46.998944 
L 98.115149 47.777863 
L 100.489141 48.556783 
L 102.863132 47.777863 
L 105.237124 46.220024 
L 107.611115 46.998944 
L 109.985106 46.998944 
L 112.359098 45.441105 
L 114.733089 45.441105 
L 117.107081 46.998944 
L 119.481072 43.883265 
L 121.855064 40.767587 
L 124.229055 39.988668 
L 126.603047 37.651909 
L 128.977038 36.09407 
L 131.351029 38.430828 
L 133.725021 40.767587 
L 136.099012 36.09407 
L 138.473004 34.536231 
L 140.846995 34.536231 
L 143.220987 34.536231 
L 145.594978 33.757311 
L 147.96897 39.209748 
L 150.342961 39.988668 
" style="fill:none;stroke:#17becf;stroke-linecap:square;stroke-opacity:0.5;"/>
   </g>
   <g id="patch_72">
    <path d="M 39.62 126.44874 
L 39.62 17.4 
" style="fill:none;stroke:#000000;stroke-linecap:square;stroke-linejoin:miter;stroke-width:0.8;"/>
   </g>
   <g id="patch_73">
    <path d="M 208.83811 126.44874 
L 208.83811 17.4 
" style="fill:none;stroke:#000000;stroke-linecap:square;stroke-linejoin:miter;stroke-width:0.8;"/>
   </g>
   <g id="patch_74">
    <path d="M 39.62 126.44874 
L 208.83811 126.44874 
" style="fill:none;stroke:#000000;stroke-linecap:square;stroke-linejoin:miter;stroke-width:0.8;"/>
   </g>
   <g id="patch_75">
    <path d="M 39.62 17.4 
L 208.83811 17.4 
" style="fill:none;stroke:#000000;stroke-linecap:square;stroke-linejoin:miter;stroke-width:0.8;"/>
   </g>
  </g>
 </g>
 <defs>
  <clipPath id="p0760093ba5">
   <rect height="109.04874" width="169.21811" x="39.62" y="17.4"/>
  </clipPath>
 </defs>
</svg>
