<?xml version="1.0" encoding="utf-8" standalone="no"?>
<!DOCTYPE svg PUBLIC "-//W3C//DTD SVG 1.1//EN"
  "http://www.w3.org/Graphics/SVG/1.1/DTD/svg11.dtd">
<!-- Created with matplotlib (https://matplotlib.org/) -->
<svg height="170.07874pt" version="1.1" viewBox="0 0 255.11811 170.07874" width="255.11811pt" xmlns="http://www.w3.org/2000/svg" xmlns:xlink="http://www.w3.org/1999/xlink">
 <defs>
  <style type="text/css">
*{stroke-linecap:butt;stroke-linejoin:round;}
  </style>
 </defs>
 <g id="figure_1">
  <g id="patch_1">
   <path d="M 0 170.07874 
L 255.11811 170.07874 
L 255.11811 0 
L 0 0 
z
" style="fill:#ffffff;"/>
  </g>
  <g id="axes_1">
   <g id="patch_2">
    <path d="M 42.05 126.44874 
L 208.83811 126.44874 
L 208.83811 11.52 
L 42.05 11.52 
z
" style="fill:#ffffff;"/>
   </g>
   <g id="PolyCollection_1">
    <defs>
     <path d="M 50.567238 -43.63 
L 50.567238 -43.63 
L 52.907138 -43.63 
L 55.247039 -43.630004 
L 57.58694 -43.630018 
L 59.92684 -43.630051 
L 62.266741 -43.630112 
L 64.606641 -43.630211 
L 66.946542 -43.630355 
L 69.286442 -43.630554 
L 71.626343 -43.63082 
L 73.966243 -43.631175 
L 76.306144 -43.631642 
L 78.646044 -43.632245 
L 80.985945 -43.633027 
L 83.325845 -43.63403 
L 85.665746 -43.635328 
L 88.005647 -43.637013 
L 90.345547 -43.639309 
L 92.685448 -43.642498 
L 95.025348 -43.646798 
L 97.365249 -43.652849 
L 99.705149 -43.660876 
L 102.04505 -43.671326 
L 104.38495 -43.684888 
L 106.724851 -43.703585 
L 109.064751 -43.728134 
L 111.404652 -43.761157 
L 113.744552 -43.805048 
L 116.084453 -43.861259 
L 118.424354 -43.937879 
L 120.764254 -44.040381 
L 123.104155 -44.183223 
L 125.444055 -44.37514 
L 127.783956 -44.646841 
L 130.123856 -45.002009 
L 132.463757 -45.455677 
L 134.803657 -46.026618 
L 137.143558 -46.699664 
L 139.483458 -47.472055 
L 141.823359 -48.332507 
L 144.163259 -49.290112 
L 146.50316 -50.293347 
L 148.84306 -51.356222 
L 151.182961 -52.423223 
L 151.182961 -60.583618 
L 151.182961 -60.583618 
L 148.84306 -58.00378 
L 146.50316 -55.692014 
L 144.163259 -53.661385 
L 141.823359 -51.788204 
L 139.483458 -50.194463 
L 137.143558 -48.833248 
L 134.803657 -47.692082 
L 132.463757 -46.796618 
L 130.123856 -46.124133 
L 127.783956 -45.614654 
L 125.444055 -45.220515 
L 123.104155 -44.909127 
L 120.764254 -44.669326 
L 118.424354 -44.481095 
L 116.084453 -44.324213 
L 113.744552 -44.199934 
L 111.404652 -44.101594 
L 109.064751 -44.019162 
L 106.724851 -43.949031 
L 104.38495 -43.89281 
L 102.04505 -43.845486 
L 99.705149 -43.806463 
L 97.365249 -43.774392 
L 95.025348 -43.748148 
L 92.685448 -43.72637 
L 90.345547 -43.708719 
L 88.005647 -43.69422 
L 85.665746 -43.682187 
L 83.325845 -43.671748 
L 80.985945 -43.66308 
L 78.646044 -43.655787 
L 76.306144 -43.649624 
L 73.966243 -43.644526 
L 71.626343 -43.64038 
L 69.286442 -43.637104 
L 66.946542 -43.634574 
L 64.606641 -43.632721 
L 62.266741 -43.63145 
L 59.92684 -43.630661 
L 57.58694 -43.630237 
L 55.247039 -43.630054 
L 52.907138 -43.63 
L 50.567238 -43.63 
z
" id="m528a146e9a" style="stroke:#6495ed;stroke-opacity:0.4;"/>
    </defs>
    <g clip-path="url(#pc5983ab93c)">
     <use style="fill:#6495ed;fill-opacity:0.4;stroke:#6495ed;stroke-opacity:0.4;" x="0" xlink:href="#m528a146e9a" y="170.07874"/>
    </g>
   </g>
   <g id="PolyCollection_2">
    <defs>
     <path d="M 50.567238 -43.63 
L 50.567238 -43.63 
L 52.907138 -43.63 
L 55.247039 -43.630011 
L 57.58694 -43.630047 
L 59.92684 -43.63013 
L 62.266741 -43.630286 
L 64.606641 -43.630536 
L 66.946542 -43.630901 
L 69.286442 -43.631405 
L 71.626343 -43.632072 
L 73.966243 -43.63294 
L 76.306144 -43.634042 
L 78.646044 -43.63543 
L 80.985945 -43.63716 
L 83.325845 -43.639321 
L 85.665746 -43.642052 
L 88.005647 -43.645516 
L 90.345547 -43.649963 
L 92.685448 -43.655893 
L 95.025348 -43.66363 
L 97.365249 -43.673752 
L 99.705149 -43.686847 
L 102.04505 -43.703737 
L 104.38495 -43.725039 
L 106.724851 -43.75265 
L 109.064751 -43.788006 
L 111.404652 -43.834353 
L 113.744552 -43.893052 
L 116.084453 -43.968228 
L 118.424354 -44.065211 
L 120.764254 -44.192109 
L 123.104155 -44.360486 
L 125.444055 -44.587611 
L 127.783956 -44.89198 
L 130.123856 -45.299601 
L 132.463757 -45.814695 
L 134.803657 -46.472066 
L 137.143558 -47.255786 
L 139.483458 -48.172149 
L 141.823359 -49.220959 
L 144.163259 -50.378642 
L 146.50316 -51.629175 
L 148.84306 -52.987286 
L 151.182961 -54.428499 
L 151.182961 -57.176959 
L 151.182961 -57.176959 
L 148.84306 -55.257364 
L 146.50316 -53.454743 
L 144.163259 -51.827474 
L 141.823359 -50.372581 
L 139.483458 -49.084684 
L 137.143558 -47.965012 
L 134.803657 -47.022348 
L 132.463757 -46.264877 
L 130.123856 -45.672534 
L 127.783956 -45.210013 
L 125.444055 -44.861805 
L 123.104155 -44.598699 
L 120.764254 -44.398081 
L 118.424354 -44.244124 
L 116.084453 -44.120953 
L 113.744552 -44.023634 
L 111.404652 -43.945301 
L 109.064751 -43.882513 
L 106.724851 -43.832118 
L 104.38495 -43.791572 
L 102.04505 -43.7589 
L 99.705149 -43.732779 
L 97.365249 -43.711845 
L 95.025348 -43.694887 
L 92.685448 -43.681509 
L 90.345547 -43.670959 
L 88.005647 -43.662677 
L 85.665746 -43.656055 
L 83.325845 -43.650602 
L 80.985945 -43.646142 
L 78.646044 -43.642435 
L 76.306144 -43.639362 
L 73.966243 -43.636876 
L 71.626343 -43.634883 
L 69.286442 -43.63333 
L 66.946542 -43.632141 
L 64.606641 -43.631274 
L 62.266741 -43.630679 
L 59.92684 -43.63031 
L 57.58694 -43.630111 
L 55.247039 -43.630025 
L 52.907138 -43.63 
L 50.567238 -43.63 
z
" id="ma6f7708334" style="stroke:#6495ed;stroke-opacity:0.6;"/>
    </defs>
    <g clip-path="url(#pc5983ab93c)">
     <use style="fill:#6495ed;fill-opacity:0.6;stroke:#6495ed;stroke-opacity:0.6;" x="0" xlink:href="#ma6f7708334" y="170.07874"/>
    </g>
   </g>
   <g id="PolyCollection_3">
    <defs>
     <path d="M 151.182961 -60.583618 
L 151.182961 -52.423223 
L 153.522862 -53.518605 
L 155.862762 -54.576075 
L 158.202663 -55.70494 
L 160.542563 -56.704624 
L 162.882464 -57.654869 
L 165.222364 -58.492731 
L 167.562265 -59.231879 
L 169.902165 -59.837 
L 172.242066 -60.266765 
L 174.581966 -60.635196 
L 176.921867 -60.822767 
L 179.261767 -60.850361 
L 181.601668 -60.642579 
L 183.941569 -60.443159 
L 186.281469 -60.123843 
L 188.62137 -59.672119 
L 190.96127 -59.188556 
L 193.301171 -58.540198 
L 195.641071 -57.875158 
L 197.980972 -57.149606 
L 200.320872 -56.471788 
L 200.320872 -158.55874 
L 200.320872 -158.55874 
L 197.980972 -151.912276 
L 195.641071 -147.66116 
L 193.301171 -143.347622 
L 190.96127 -137.614761 
L 188.62137 -133.277092 
L 186.281469 -128.625625 
L 183.941569 -122.982261 
L 181.601668 -118.245847 
L 179.261767 -112.766189 
L 176.921867 -107.360588 
L 174.581966 -102.540194 
L 172.242066 -97.472422 
L 169.902165 -92.33226 
L 167.562265 -87.396268 
L 165.222364 -82.826958 
L 162.882464 -78.307539 
L 160.542563 -74.006894 
L 158.202663 -70.267575 
L 155.862762 -66.644512 
L 153.522862 -63.463424 
L 151.182961 -60.583618 
z
" id="m2ee51c3cb5" style="stroke:#228b22;stroke-opacity:0.4;"/>
    </defs>
    <g clip-path="url(#pc5983ab93c)">
     <use style="fill:#228b22;fill-opacity:0.4;stroke:#228b22;stroke-opacity:0.4;" x="0" xlink:href="#m2ee51c3cb5" y="170.07874"/>
    </g>
   </g>
   <g id="PolyCollection_4">
    <defs>
     <path d="M 151.182961 -57.176959 
L 151.182961 -54.428499 
L 153.522862 -55.929315 
L 155.862762 -57.467323 
L 158.202663 -58.999332 
L 160.542563 -60.53925 
L 162.882464 -62.015644 
L 165.222364 -63.382212 
L 167.562265 -64.677322 
L 169.902165 -65.816897 
L 172.242066 -66.760655 
L 174.581966 -67.554633 
L 176.921867 -68.128901 
L 179.261767 -68.561628 
L 181.601668 -68.772429 
L 183.941569 -68.753038 
L 186.281469 -68.546533 
L 188.62137 -68.248356 
L 190.96127 -67.773687 
L 193.301171 -67.200979 
L 195.641071 -66.453878 
L 197.980972 -65.733535 
L 200.320872 -64.901164 
L 200.320872 -85.592492 
L 200.320872 -85.592492 
L 197.980972 -86.01666 
L 195.641071 -86.236864 
L 193.301171 -86.461915 
L 190.96127 -86.281404 
L 188.62137 -86.024622 
L 186.281469 -85.420477 
L 183.941569 -84.685786 
L 181.601668 -83.772602 
L 179.261767 -82.578682 
L 176.921867 -81.103789 
L 174.581966 -79.44239 
L 172.242066 -77.64264 
L 169.902165 -75.577865 
L 167.562265 -73.321012 
L 165.222364 -70.950072 
L 162.882464 -68.57634 
L 160.542563 -66.177682 
L 158.202663 -63.772293 
L 155.862762 -61.47753 
L 153.522862 -59.260557 
L 151.182961 -57.176959 
z
" id="mf639e495dc" style="stroke:#228b22;stroke-opacity:0.6;"/>
    </defs>
    <g clip-path="url(#pc5983ab93c)">
     <use style="fill:#228b22;fill-opacity:0.6;stroke:#228b22;stroke-opacity:0.6;" x="0" xlink:href="#mf639e495dc" y="170.07874"/>
    </g>
   </g>
   <g id="PathCollection_1">
    <defs>
     <path d="M -0.866025 1.732051 
L 0 0.866025 
L 0.866025 1.732051 
L 1.732051 0.866025 
L 0.866025 0 
L 1.732051 -0.866025 
L 0.866025 -1.732051 
L 0 -0.866025 
L -0.866025 -1.732051 
L -1.732051 -0.866025 
L -0.866025 0 
L -1.732051 0.866025 
z
" id="md5bd7c14bd" style="stroke:#8a2be2;"/>
    </defs>
    <g clip-path="url(#pc5983ab93c)">
     <use style="fill:#8a2be2;stroke:#8a2be2;" x="134.803657" xlink:href="#md5bd7c14bd" y="23.012874"/>
    </g>
   </g>
   <g id="PathCollection_2">
    <defs>
     <path d="M 0 -1.732051 
L -0.38887 -0.535233 
L -1.647278 -0.535233 
L -0.629204 0.204441 
L -1.018074 1.401259 
L -0 0.661585 
L 1.018074 1.401259 
L 0.629204 0.204441 
L 1.647278 -0.535233 
L 0.38887 -0.535233 
z
" id="me3cb78ef6f" style="stroke:#000000;"/>
    </defs>
    <g clip-path="url(#pc5983ab93c)">
     <use style="stroke:#000000;" x="116.084453" xlink:href="#me3cb78ef6f" y="23.012874"/>
    </g>
   </g>
   <g id="PathCollection_3">
    <defs>
     <path d="M -1.732051 1.732051 
L 1.732051 1.732051 
L 1.732051 -1.732051 
L -1.732051 -1.732051 
z
" id="mec55d3d45b" style="stroke:#c71585;"/>
    </defs>
    <g clip-path="url(#pc5983ab93c)">
     <use style="fill:#c71585;stroke:#c71585;" x="134.803657" xlink:href="#mec55d3d45b" y="28.184667"/>
    </g>
   </g>
   <g id="PathCollection_4">
    <defs>
     <path d="M 0 -1.732051 
L -1.647278 -0.535233 
L -1.018074 1.401259 
L 1.018074 1.401259 
L 1.647278 -0.535233 
z
" id="m89afcd08a5" style="stroke:#800000;"/>
    </defs>
    <g clip-path="url(#pc5983ab93c)">
     <use style="fill:#800000;stroke:#800000;" x="111.404652" xlink:href="#m89afcd08a5" y="23.012874"/>
    </g>
   </g>
   <g id="PathCollection_5">
    <defs>
     <path d="M -0 2.44949 
L 1.469694 0 
L 0 -2.44949 
L -1.469694 -0 
z
" id="m6512e64275" style="stroke:#556b2f;"/>
    </defs>
    <g clip-path="url(#pc5983ab93c)">
     <use style="fill:#556b2f;stroke:#556b2f;" x="97.365249" xlink:href="#m6512e64275" y="23.012874"/>
    </g>
   </g>
   <g id="patch_3">
    <path clip-path="url(#pc5983ab93c)" d="M 49.631278 126.44874 
L 51.503198 126.44874 
L 51.503198 126.44874 
L 49.631278 126.44874 
z
" style="fill:#1f77b4;opacity:0.5;"/>
   </g>
   <g id="patch_4">
    <path clip-path="url(#pc5983ab93c)" d="M 51.971178 126.44874 
L 53.843099 126.44874 
L 53.843099 126.44874 
L 51.971178 126.44874 
z
" style="fill:#1f77b4;opacity:0.5;"/>
   </g>
   <g id="patch_5">
    <path clip-path="url(#pc5983ab93c)" d="M 54.311079 126.44874 
L 56.182999 126.44874 
L 56.182999 126.44874 
L 54.311079 126.44874 
z
" style="fill:#1f77b4;opacity:0.5;"/>
   </g>
   <g id="patch_6">
    <path clip-path="url(#pc5983ab93c)" d="M 56.650979 126.44874 
L 58.5229 126.44874 
L 58.5229 126.44874 
L 56.650979 126.44874 
z
" style="fill:#1f77b4;opacity:0.5;"/>
   </g>
   <g id="patch_7">
    <path clip-path="url(#pc5983ab93c)" d="M 58.99088 126.44874 
L 60.8628 126.44874 
L 60.8628 126.44874 
L 58.99088 126.44874 
z
" style="fill:#1f77b4;opacity:0.5;"/>
   </g>
   <g id="patch_8">
    <path clip-path="url(#pc5983ab93c)" d="M 61.33078 126.44874 
L 63.202701 126.44874 
L 63.202701 126.44874 
L 61.33078 126.44874 
z
" style="fill:#1f77b4;opacity:0.5;"/>
   </g>
   <g id="patch_9">
    <path clip-path="url(#pc5983ab93c)" d="M 63.670681 126.44874 
L 65.542601 126.44874 
L 65.542601 126.44874 
L 63.670681 126.44874 
z
" style="fill:#1f77b4;opacity:0.5;"/>
   </g>
   <g id="patch_10">
    <path clip-path="url(#pc5983ab93c)" d="M 66.010581 126.44874 
L 67.882502 126.44874 
L 67.882502 126.44874 
L 66.010581 126.44874 
z
" style="fill:#1f77b4;opacity:0.5;"/>
   </g>
   <g id="patch_11">
    <path clip-path="url(#pc5983ab93c)" d="M 68.350482 126.44874 
L 70.222402 126.44874 
L 70.222402 126.44874 
L 68.350482 126.44874 
z
" style="fill:#1f77b4;opacity:0.5;"/>
   </g>
   <g id="patch_12">
    <path clip-path="url(#pc5983ab93c)" d="M 70.690383 126.44874 
L 72.562303 126.44874 
L 72.562303 126.44874 
L 70.690383 126.44874 
z
" style="fill:#1f77b4;opacity:0.5;"/>
   </g>
   <g id="patch_13">
    <path clip-path="url(#pc5983ab93c)" d="M 73.030283 126.44874 
L 74.902204 126.44874 
L 74.902204 126.44874 
L 73.030283 126.44874 
z
" style="fill:#1f77b4;opacity:0.5;"/>
   </g>
   <g id="patch_14">
    <path clip-path="url(#pc5983ab93c)" d="M 75.370184 126.44874 
L 77.242104 126.44874 
L 77.242104 126.44874 
L 75.370184 126.44874 
z
" style="fill:#1f77b4;opacity:0.5;"/>
   </g>
   <g id="patch_15">
    <path clip-path="url(#pc5983ab93c)" d="M 77.710084 126.44874 
L 79.582005 126.44874 
L 79.582005 126.44874 
L 77.710084 126.44874 
z
" style="fill:#1f77b4;opacity:0.5;"/>
   </g>
   <g id="patch_16">
    <path clip-path="url(#pc5983ab93c)" d="M 80.049985 126.44874 
L 81.921905 126.44874 
L 81.921905 126.44874 
L 80.049985 126.44874 
z
" style="fill:#1f77b4;opacity:0.5;"/>
   </g>
   <g id="patch_17">
    <path clip-path="url(#pc5983ab93c)" d="M 82.389885 126.44874 
L 84.261806 126.44874 
L 84.261806 126.44874 
L 82.389885 126.44874 
z
" style="fill:#1f77b4;opacity:0.5;"/>
   </g>
   <g id="patch_18">
    <path clip-path="url(#pc5983ab93c)" d="M 84.729786 126.44874 
L 86.601706 126.44874 
L 86.601706 126.44874 
L 84.729786 126.44874 
z
" style="fill:#1f77b4;opacity:0.5;"/>
   </g>
   <g id="patch_19">
    <path clip-path="url(#pc5983ab93c)" d="M 87.069686 126.44874 
L 88.941607 126.44874 
L 88.941607 126.44874 
L 87.069686 126.44874 
z
" style="fill:#1f77b4;opacity:0.5;"/>
   </g>
   <g id="patch_20">
    <path clip-path="url(#pc5983ab93c)" d="M 89.409587 126.44874 
L 91.281507 126.44874 
L 91.281507 126.44874 
L 89.409587 126.44874 
z
" style="fill:#1f77b4;opacity:0.5;"/>
   </g>
   <g id="patch_21">
    <path clip-path="url(#pc5983ab93c)" d="M 91.749487 126.44874 
L 93.621408 126.44874 
L 93.621408 126.44874 
L 91.749487 126.44874 
z
" style="fill:#1f77b4;opacity:0.5;"/>
   </g>
   <g id="patch_22">
    <path clip-path="url(#pc5983ab93c)" d="M 94.089388 126.44874 
L 95.961308 126.44874 
L 95.961308 126.44874 
L 94.089388 126.44874 
z
" style="fill:#1f77b4;opacity:0.5;"/>
   </g>
   <g id="patch_23">
    <path clip-path="url(#pc5983ab93c)" d="M 96.429288 126.44874 
L 98.301209 126.44874 
L 98.301209 126.44874 
L 96.429288 126.44874 
z
" style="fill:#1f77b4;opacity:0.5;"/>
   </g>
   <g id="patch_24">
    <path clip-path="url(#pc5983ab93c)" d="M 98.769189 126.44874 
L 100.641109 126.44874 
L 100.641109 126.44874 
L 98.769189 126.44874 
z
" style="fill:#1f77b4;opacity:0.5;"/>
   </g>
   <g id="patch_25">
    <path clip-path="url(#pc5983ab93c)" d="M 101.10909 126.44874 
L 102.98101 126.44874 
L 102.98101 126.44874 
L 101.10909 126.44874 
z
" style="fill:#1f77b4;opacity:0.5;"/>
   </g>
   <g id="patch_26">
    <path clip-path="url(#pc5983ab93c)" d="M 103.44899 126.44874 
L 105.320911 126.44874 
L 105.320911 126.44874 
L 103.44899 126.44874 
z
" style="fill:#1f77b4;opacity:0.5;"/>
   </g>
   <g id="patch_27">
    <path clip-path="url(#pc5983ab93c)" d="M 105.788891 126.44874 
L 107.660811 126.44874 
L 107.660811 126.091124 
L 105.788891 126.091124 
z
" style="fill:#1f77b4;opacity:0.5;"/>
   </g>
   <g id="patch_28">
    <path clip-path="url(#pc5983ab93c)" d="M 108.128791 126.44874 
L 110.000712 126.44874 
L 110.000712 126.44874 
L 108.128791 126.44874 
z
" style="fill:#1f77b4;opacity:0.5;"/>
   </g>
   <g id="patch_29">
    <path clip-path="url(#pc5983ab93c)" d="M 110.468692 126.44874 
L 112.340612 126.44874 
L 112.340612 126.269932 
L 110.468692 126.269932 
z
" style="fill:#1f77b4;opacity:0.5;"/>
   </g>
   <g id="patch_30">
    <path clip-path="url(#pc5983ab93c)" d="M 112.808592 126.44874 
L 114.680513 126.44874 
L 114.680513 126.091124 
L 112.808592 126.091124 
z
" style="fill:#1f77b4;opacity:0.5;"/>
   </g>
   <g id="patch_31">
    <path clip-path="url(#pc5983ab93c)" d="M 115.148493 126.44874 
L 117.020413 126.44874 
L 117.020413 126.44874 
L 115.148493 126.44874 
z
" style="fill:#1f77b4;opacity:0.5;"/>
   </g>
   <g id="patch_32">
    <path clip-path="url(#pc5983ab93c)" d="M 117.488393 126.44874 
L 119.360314 126.44874 
L 119.360314 125.912316 
L 117.488393 125.912316 
z
" style="fill:#1f77b4;opacity:0.5;"/>
   </g>
   <g id="patch_33">
    <path clip-path="url(#pc5983ab93c)" d="M 119.828294 126.44874 
L 121.700214 126.44874 
L 121.700214 125.733509 
L 119.828294 125.733509 
z
" style="fill:#1f77b4;opacity:0.5;"/>
   </g>
   <g id="patch_34">
    <path clip-path="url(#pc5983ab93c)" d="M 122.168194 126.44874 
L 124.040115 126.44874 
L 124.040115 126.269932 
L 122.168194 126.269932 
z
" style="fill:#1f77b4;opacity:0.5;"/>
   </g>
   <g id="patch_35">
    <path clip-path="url(#pc5983ab93c)" d="M 124.508095 126.44874 
L 126.380015 126.44874 
L 126.380015 126.44874 
L 124.508095 126.44874 
z
" style="fill:#1f77b4;opacity:0.5;"/>
   </g>
   <g id="patch_36">
    <path clip-path="url(#pc5983ab93c)" d="M 126.847995 126.44874 
L 128.719916 126.44874 
L 128.719916 126.44874 
L 126.847995 126.44874 
z
" style="fill:#1f77b4;opacity:0.5;"/>
   </g>
   <g id="patch_37">
    <path clip-path="url(#pc5983ab93c)" d="M 129.187896 126.44874 
L 131.059816 126.44874 
L 131.059816 121.084503 
L 129.187896 121.084503 
z
" style="fill:#1f77b4;opacity:0.5;"/>
   </g>
   <g id="patch_38">
    <path clip-path="url(#pc5983ab93c)" d="M 131.527797 126.44874 
L 133.399717 126.44874 
L 133.399717 126.091124 
L 131.527797 126.091124 
z
" style="fill:#1f77b4;opacity:0.5;"/>
   </g>
   <g id="patch_39">
    <path clip-path="url(#pc5983ab93c)" d="M 133.867697 126.44874 
L 135.739617 126.44874 
L 135.739617 122.514966 
L 133.867697 122.514966 
z
" style="fill:#1f77b4;opacity:0.5;"/>
   </g>
   <g id="patch_40">
    <path clip-path="url(#pc5983ab93c)" d="M 136.207598 126.44874 
L 138.079518 126.44874 
L 138.079518 121.620927 
L 136.207598 121.620927 
z
" style="fill:#1f77b4;opacity:0.5;"/>
   </g>
   <g id="patch_41">
    <path clip-path="url(#pc5983ab93c)" d="M 138.547498 126.44874 
L 140.419419 126.44874 
L 140.419419 120.726887 
L 138.547498 120.726887 
z
" style="fill:#1f77b4;opacity:0.5;"/>
   </g>
   <g id="patch_42">
    <path clip-path="url(#pc5983ab93c)" d="M 140.887399 126.44874 
L 142.759319 126.44874 
L 142.759319 122.336158 
L 140.887399 122.336158 
z
" style="fill:#1f77b4;opacity:0.5;"/>
   </g>
   <g id="patch_43">
    <path clip-path="url(#pc5983ab93c)" d="M 143.227299 126.44874 
L 145.09922 126.44874 
L 145.09922 117.687153 
L 143.227299 117.687153 
z
" style="fill:#1f77b4;opacity:0.5;"/>
   </g>
   <g id="patch_44">
    <path clip-path="url(#pc5983ab93c)" d="M 145.5672 126.44874 
L 147.43912 126.44874 
L 147.43912 116.614306 
L 145.5672 116.614306 
z
" style="fill:#1f77b4;opacity:0.5;"/>
   </g>
   <g id="patch_45">
    <path clip-path="url(#pc5983ab93c)" d="M 147.9071 126.44874 
L 149.779021 126.44874 
L 149.779021 113.574571 
L 147.9071 113.574571 
z
" style="fill:#1f77b4;opacity:0.5;"/>
   </g>
   <g id="patch_46">
    <path clip-path="url(#pc5983ab93c)" d="M 150.247001 126.44874 
L 152.118921 126.44874 
L 152.118921 115.005034 
L 150.247001 115.005034 
z
" style="fill:#1f77b4;opacity:0.5;"/>
   </g>
   <g id="patch_47">
    <path clip-path="url(#pc5983ab93c)" d="M 152.586901 126.44874 
L 154.458822 126.44874 
L 154.458822 114.647419 
L 152.586901 114.647419 
z
" style="fill:#1f77b4;opacity:0.5;"/>
   </g>
   <g id="patch_48">
    <path clip-path="url(#pc5983ab93c)" d="M 154.926802 126.44874 
L 156.798722 126.44874 
L 156.798722 103.561329 
L 154.926802 103.561329 
z
" style="fill:#1f77b4;opacity:0.5;"/>
   </g>
   <g id="patch_49">
    <path clip-path="url(#pc5983ab93c)" d="M 157.266702 126.44874 
L 159.138623 126.44874 
L 159.138623 99.806363 
L 157.266702 99.806363 
z
" style="fill:#1f77b4;opacity:0.5;"/>
   </g>
   <g id="patch_50">
    <path clip-path="url(#pc5983ab93c)" d="M 159.606603 126.44874 
L 161.478523 126.44874 
L 161.478523 101.415634 
L 159.606603 101.415634 
z
" style="fill:#1f77b4;opacity:0.5;"/>
   </g>
   <g id="patch_51">
    <path clip-path="url(#pc5983ab93c)" d="M 161.946503 126.44874 
L 163.818424 126.44874 
L 163.818424 100.521594 
L 161.946503 100.521594 
z
" style="fill:#1f77b4;opacity:0.5;"/>
   </g>
   <g id="patch_52">
    <path clip-path="url(#pc5983ab93c)" d="M 164.286404 126.44874 
L 166.158324 126.44874 
L 166.158324 101.236826 
L 164.286404 101.236826 
z
" style="fill:#1f77b4;opacity:0.5;"/>
   </g>
   <g id="patch_53">
    <path clip-path="url(#pc5983ab93c)" d="M 166.626305 126.44874 
L 168.498225 126.44874 
L 168.498225 93.548086 
L 166.626305 93.548086 
z
" style="fill:#1f77b4;opacity:0.5;"/>
   </g>
   <g id="patch_54">
    <path clip-path="url(#pc5983ab93c)" d="M 168.966205 126.44874 
L 170.838126 126.44874 
L 170.838126 109.998413 
L 168.966205 109.998413 
z
" style="fill:#1f77b4;opacity:0.5;"/>
   </g>
   <g id="patch_55">
    <path clip-path="url(#pc5983ab93c)" d="M 171.306106 126.44874 
L 173.178026 126.44874 
L 173.178026 95.514973 
L 171.306106 95.514973 
z
" style="fill:#1f77b4;opacity:0.5;"/>
   </g>
   <g id="patch_56">
    <path clip-path="url(#pc5983ab93c)" d="M 173.646006 126.44874 
L 175.517927 126.44874 
L 175.517927 81.031533 
L 173.646006 81.031533 
z
" style="fill:#1f77b4;opacity:0.5;"/>
   </g>
   <g id="patch_57">
    <path clip-path="url(#pc5983ab93c)" d="M 175.985907 126.44874 
L 177.857827 126.44874 
L 177.857827 82.461996 
L 175.985907 82.461996 
z
" style="fill:#1f77b4;opacity:0.5;"/>
   </g>
   <g id="patch_58">
    <path clip-path="url(#pc5983ab93c)" d="M 178.325807 126.44874 
L 180.197728 126.44874 
L 180.197728 78.885838 
L 178.325807 78.885838 
z
" style="fill:#1f77b4;opacity:0.5;"/>
   </g>
   <g id="patch_59">
    <path clip-path="url(#pc5983ab93c)" d="M 180.665708 126.44874 
L 182.537628 126.44874 
L 182.537628 95.872589 
L 180.665708 95.872589 
z
" style="fill:#1f77b4;opacity:0.5;"/>
   </g>
   <g id="patch_60">
    <path clip-path="url(#pc5983ab93c)" d="M 183.005608 126.44874 
L 184.877529 126.44874 
L 184.877529 103.382521 
L 183.005608 103.382521 
z
" style="fill:#1f77b4;opacity:0.5;"/>
   </g>
   <g id="patch_61">
    <path clip-path="url(#pc5983ab93c)" d="M 185.345509 126.44874 
L 187.217429 126.44874 
L 187.217429 103.918944 
L 185.345509 103.918944 
z
" style="fill:#1f77b4;opacity:0.5;"/>
   </g>
   <g id="patch_62">
    <path clip-path="url(#pc5983ab93c)" d="M 187.685409 126.44874 
L 189.55733 126.44874 
L 189.55733 96.051397 
L 187.685409 96.051397 
z
" style="fill:#1f77b4;opacity:0.5;"/>
   </g>
   <g id="patch_63">
    <path clip-path="url(#pc5983ab93c)" d="M 190.02531 126.44874 
L 191.89723 126.44874 
L 191.89723 75.488488 
L 190.02531 75.488488 
z
" style="fill:#1f77b4;opacity:0.5;"/>
   </g>
   <g id="patch_64">
    <path clip-path="url(#pc5983ab93c)" d="M 192.36521 126.44874 
L 194.237131 126.44874 
L 194.237131 70.124251 
L 192.36521 70.124251 
z
" style="fill:#1f77b4;opacity:0.5;"/>
   </g>
   <g id="patch_65">
    <path clip-path="url(#pc5983ab93c)" d="M 194.705111 126.44874 
L 196.577031 126.44874 
L 196.577031 72.985177 
L 194.705111 72.985177 
z
" style="fill:#1f77b4;opacity:0.5;"/>
   </g>
   <g id="patch_66">
    <path clip-path="url(#pc5983ab93c)" d="M 197.045012 126.44874 
L 198.916932 126.44874 
L 198.916932 83.177228 
L 197.045012 83.177228 
z
" style="fill:#1f77b4;opacity:0.5;"/>
   </g>
   <g id="patch_67">
    <path clip-path="url(#pc5983ab93c)" d="M 199.384912 126.44874 
L 201.256832 126.44874 
L 201.256832 93.548086 
L 199.384912 93.548086 
z
" style="fill:#1f77b4;opacity:0.5;"/>
   </g>
   <g id="matplotlib.axis_1">
    <g id="xtick_1">
     <g id="line2d_1">
      <defs>
       <path d="M 0 0 
L 0 3.5 
" id="m0b8a407bb5" style="stroke:#000000;stroke-width:0.8;"/>
      </defs>
      <g>
       <use style="stroke:#000000;stroke-width:0.8;" x="200.320872" xlink:href="#m0b8a407bb5" y="126.44874"/>
      </g>
     </g>
     <g id="text_1">
      <!-- 19 Apr -->
      <defs>
       <path d="M 12.40625 8.296875 
L 28.515625 8.296875 
L 28.515625 63.921875 
L 10.984375 60.40625 
L 10.984375 69.390625 
L 28.421875 72.90625 
L 38.28125 72.90625 
L 38.28125 8.296875 
L 54.390625 8.296875 
L 54.390625 0 
L 12.40625 0 
z
" id="DejaVuSans-49"/>
       <path d="M 10.984375 1.515625 
L 10.984375 10.5 
Q 14.703125 8.734375 18.5 7.8125 
Q 22.3125 6.890625 25.984375 6.890625 
Q 35.75 6.890625 40.890625 13.453125 
Q 46.046875 20.015625 46.78125 33.40625 
Q 43.953125 29.203125 39.59375 26.953125 
Q 35.25 24.703125 29.984375 24.703125 
Q 19.046875 24.703125 12.671875 31.3125 
Q 6.296875 37.9375 6.296875 49.421875 
Q 6.296875 60.640625 12.9375 67.421875 
Q 19.578125 74.21875 30.609375 74.21875 
Q 43.265625 74.21875 49.921875 64.515625 
Q 56.59375 54.828125 56.59375 36.375 
Q 56.59375 19.140625 48.40625 8.859375 
Q 40.234375 -1.421875 26.421875 -1.421875 
Q 22.703125 -1.421875 18.890625 -0.6875 
Q 15.09375 0.046875 10.984375 1.515625 
z
M 30.609375 32.421875 
Q 37.25 32.421875 41.125 36.953125 
Q 45.015625 41.5 45.015625 49.421875 
Q 45.015625 57.28125 41.125 61.84375 
Q 37.25 66.40625 30.609375 66.40625 
Q 23.96875 66.40625 20.09375 61.84375 
Q 16.21875 57.28125 16.21875 49.421875 
Q 16.21875 41.5 20.09375 36.953125 
Q 23.96875 32.421875 30.609375 32.421875 
z
" id="DejaVuSans-57"/>
       <path id="DejaVuSans-32"/>
       <path d="M 34.1875 63.1875 
L 20.796875 26.90625 
L 47.609375 26.90625 
z
M 28.609375 72.90625 
L 39.796875 72.90625 
L 67.578125 0 
L 57.328125 0 
L 50.6875 18.703125 
L 17.828125 18.703125 
L 11.1875 0 
L 0.78125 0 
z
" id="DejaVuSans-65"/>
       <path d="M 18.109375 8.203125 
L 18.109375 -20.796875 
L 9.078125 -20.796875 
L 9.078125 54.6875 
L 18.109375 54.6875 
L 18.109375 46.390625 
Q 20.953125 51.265625 25.265625 53.625 
Q 29.59375 56 35.59375 56 
Q 45.5625 56 51.78125 48.09375 
Q 58.015625 40.1875 58.015625 27.296875 
Q 58.015625 14.40625 51.78125 6.484375 
Q 45.5625 -1.421875 35.59375 -1.421875 
Q 29.59375 -1.421875 25.265625 0.953125 
Q 20.953125 3.328125 18.109375 8.203125 
z
M 48.6875 27.296875 
Q 48.6875 37.203125 44.609375 42.84375 
Q 40.53125 48.484375 33.40625 48.484375 
Q 26.265625 48.484375 22.1875 42.84375 
Q 18.109375 37.203125 18.109375 27.296875 
Q 18.109375 17.390625 22.1875 11.75 
Q 26.265625 6.109375 33.40625 6.109375 
Q 40.53125 6.109375 44.609375 11.75 
Q 48.6875 17.390625 48.6875 27.296875 
z
" id="DejaVuSans-112"/>
       <path d="M 41.109375 46.296875 
Q 39.59375 47.171875 37.8125 47.578125 
Q 36.03125 48 33.890625 48 
Q 26.265625 48 22.1875 43.046875 
Q 18.109375 38.09375 18.109375 28.8125 
L 18.109375 0 
L 9.078125 0 
L 9.078125 54.6875 
L 18.109375 54.6875 
L 18.109375 46.1875 
Q 20.953125 51.171875 25.484375 53.578125 
Q 30.03125 56 36.53125 56 
Q 37.453125 56 38.578125 55.875 
Q 39.703125 55.765625 41.0625 55.515625 
z
" id="DejaVuSans-114"/>
      </defs>
      <g transform="translate(202.528372 160.01124)rotate(-90)scale(0.08 -0.08)">
       <use xlink:href="#DejaVuSans-49"/>
       <use x="63.623047" xlink:href="#DejaVuSans-57"/>
       <use x="127.246094" xlink:href="#DejaVuSans-32"/>
       <use x="159.033203" xlink:href="#DejaVuSans-65"/>
       <use x="227.441406" xlink:href="#DejaVuSans-112"/>
       <use x="290.917969" xlink:href="#DejaVuSans-114"/>
      </g>
     </g>
    </g>
    <g id="xtick_2">
     <g id="line2d_2">
      <g>
       <use style="stroke:#000000;stroke-width:0.8;" x="183.941569" xlink:href="#m0b8a407bb5" y="126.44874"/>
      </g>
     </g>
     <g id="text_2">
      <!-- 12 Apr -->
      <defs>
       <path d="M 19.1875 8.296875 
L 53.609375 8.296875 
L 53.609375 0 
L 7.328125 0 
L 7.328125 8.296875 
Q 12.9375 14.109375 22.625 23.890625 
Q 32.328125 33.6875 34.8125 36.53125 
Q 39.546875 41.84375 41.421875 45.53125 
Q 43.3125 49.21875 43.3125 52.78125 
Q 43.3125 58.59375 39.234375 62.25 
Q 35.15625 65.921875 28.609375 65.921875 
Q 23.96875 65.921875 18.8125 64.3125 
Q 13.671875 62.703125 7.8125 59.421875 
L 7.8125 69.390625 
Q 13.765625 71.78125 18.9375 73 
Q 24.125 74.21875 28.421875 74.21875 
Q 39.75 74.21875 46.484375 68.546875 
Q 53.21875 62.890625 53.21875 53.421875 
Q 53.21875 48.921875 51.53125 44.890625 
Q 49.859375 40.875 45.40625 35.40625 
Q 44.1875 33.984375 37.640625 27.21875 
Q 31.109375 20.453125 19.1875 8.296875 
z
" id="DejaVuSans-50"/>
      </defs>
      <g transform="translate(186.149069 160.01124)rotate(-90)scale(0.08 -0.08)">
       <use xlink:href="#DejaVuSans-49"/>
       <use x="63.623047" xlink:href="#DejaVuSans-50"/>
       <use x="127.246094" xlink:href="#DejaVuSans-32"/>
       <use x="159.033203" xlink:href="#DejaVuSans-65"/>
       <use x="227.441406" xlink:href="#DejaVuSans-112"/>
       <use x="290.917969" xlink:href="#DejaVuSans-114"/>
      </g>
     </g>
    </g>
    <g id="xtick_3">
     <g id="line2d_3">
      <g>
       <use style="stroke:#000000;stroke-width:0.8;" x="167.562265" xlink:href="#m0b8a407bb5" y="126.44874"/>
      </g>
     </g>
     <g id="text_3">
      <!-- 5 Apr -->
      <defs>
       <path d="M 10.796875 72.90625 
L 49.515625 72.90625 
L 49.515625 64.59375 
L 19.828125 64.59375 
L 19.828125 46.734375 
Q 21.96875 47.46875 24.109375 47.828125 
Q 26.265625 48.1875 28.421875 48.1875 
Q 40.625 48.1875 47.75 41.5 
Q 54.890625 34.8125 54.890625 23.390625 
Q 54.890625 11.625 47.5625 5.09375 
Q 40.234375 -1.421875 26.90625 -1.421875 
Q 22.3125 -1.421875 17.546875 -0.640625 
Q 12.796875 0.140625 7.71875 1.703125 
L 7.71875 11.625 
Q 12.109375 9.234375 16.796875 8.0625 
Q 21.484375 6.890625 26.703125 6.890625 
Q 35.15625 6.890625 40.078125 11.328125 
Q 45.015625 15.765625 45.015625 23.390625 
Q 45.015625 31 40.078125 35.4375 
Q 35.15625 39.890625 26.703125 39.890625 
Q 22.75 39.890625 18.8125 39.015625 
Q 14.890625 38.140625 10.796875 36.28125 
z
" id="DejaVuSans-53"/>
      </defs>
      <g transform="translate(169.769765 154.92124)rotate(-90)scale(0.08 -0.08)">
       <use xlink:href="#DejaVuSans-53"/>
       <use x="63.623047" xlink:href="#DejaVuSans-32"/>
       <use x="95.410156" xlink:href="#DejaVuSans-65"/>
       <use x="163.818359" xlink:href="#DejaVuSans-112"/>
       <use x="227.294922" xlink:href="#DejaVuSans-114"/>
      </g>
     </g>
    </g>
    <g id="xtick_4">
     <g id="line2d_4">
      <g>
       <use style="stroke:#000000;stroke-width:0.8;" x="151.182961" xlink:href="#m0b8a407bb5" y="126.44874"/>
      </g>
     </g>
     <g id="text_4">
      <!-- 29 Mar -->
      <defs>
       <path d="M 9.8125 72.90625 
L 24.515625 72.90625 
L 43.109375 23.296875 
L 61.8125 72.90625 
L 76.515625 72.90625 
L 76.515625 0 
L 66.890625 0 
L 66.890625 64.015625 
L 48.09375 14.015625 
L 38.1875 14.015625 
L 19.390625 64.015625 
L 19.390625 0 
L 9.8125 0 
z
" id="DejaVuSans-77"/>
       <path d="M 34.28125 27.484375 
Q 23.390625 27.484375 19.1875 25 
Q 14.984375 22.515625 14.984375 16.5 
Q 14.984375 11.71875 18.140625 8.90625 
Q 21.296875 6.109375 26.703125 6.109375 
Q 34.1875 6.109375 38.703125 11.40625 
Q 43.21875 16.703125 43.21875 25.484375 
L 43.21875 27.484375 
z
M 52.203125 31.203125 
L 52.203125 0 
L 43.21875 0 
L 43.21875 8.296875 
Q 40.140625 3.328125 35.546875 0.953125 
Q 30.953125 -1.421875 24.3125 -1.421875 
Q 15.921875 -1.421875 10.953125 3.296875 
Q 6 8.015625 6 15.921875 
Q 6 25.140625 12.171875 29.828125 
Q 18.359375 34.515625 30.609375 34.515625 
L 43.21875 34.515625 
L 43.21875 35.40625 
Q 43.21875 41.609375 39.140625 45 
Q 35.0625 48.390625 27.6875 48.390625 
Q 23 48.390625 18.546875 47.265625 
Q 14.109375 46.140625 10.015625 43.890625 
L 10.015625 52.203125 
Q 14.9375 54.109375 19.578125 55.046875 
Q 24.21875 56 28.609375 56 
Q 40.484375 56 46.34375 49.84375 
Q 52.203125 43.703125 52.203125 31.203125 
z
" id="DejaVuSans-97"/>
      </defs>
      <g transform="translate(153.390461 161.26499)rotate(-90)scale(0.08 -0.08)">
       <use xlink:href="#DejaVuSans-50"/>
       <use x="63.623047" xlink:href="#DejaVuSans-57"/>
       <use x="127.246094" xlink:href="#DejaVuSans-32"/>
       <use x="159.033203" xlink:href="#DejaVuSans-77"/>
       <use x="245.3125" xlink:href="#DejaVuSans-97"/>
       <use x="306.591797" xlink:href="#DejaVuSans-114"/>
      </g>
     </g>
    </g>
    <g id="xtick_5">
     <g id="line2d_5">
      <g>
       <use style="stroke:#000000;stroke-width:0.8;" x="134.803657" xlink:href="#m0b8a407bb5" y="126.44874"/>
      </g>
     </g>
     <g id="text_5">
      <!-- 22 Mar -->
      <g transform="translate(137.011157 161.26499)rotate(-90)scale(0.08 -0.08)">
       <use xlink:href="#DejaVuSans-50"/>
       <use x="63.623047" xlink:href="#DejaVuSans-50"/>
       <use x="127.246094" xlink:href="#DejaVuSans-32"/>
       <use x="159.033203" xlink:href="#DejaVuSans-77"/>
       <use x="245.3125" xlink:href="#DejaVuSans-97"/>
       <use x="306.591797" xlink:href="#DejaVuSans-114"/>
      </g>
     </g>
    </g>
    <g id="xtick_6">
     <g id="line2d_6">
      <g>
       <use style="stroke:#000000;stroke-width:0.8;" x="118.424354" xlink:href="#m0b8a407bb5" y="126.44874"/>
      </g>
     </g>
     <g id="text_6">
      <!-- 15 Mar -->
      <g transform="translate(120.631854 161.26499)rotate(-90)scale(0.08 -0.08)">
       <use xlink:href="#DejaVuSans-49"/>
       <use x="63.623047" xlink:href="#DejaVuSans-53"/>
       <use x="127.246094" xlink:href="#DejaVuSans-32"/>
       <use x="159.033203" xlink:href="#DejaVuSans-77"/>
       <use x="245.3125" xlink:href="#DejaVuSans-97"/>
       <use x="306.591797" xlink:href="#DejaVuSans-114"/>
      </g>
     </g>
    </g>
    <g id="xtick_7">
     <g id="line2d_7">
      <g>
       <use style="stroke:#000000;stroke-width:0.8;" x="102.04505" xlink:href="#m0b8a407bb5" y="126.44874"/>
      </g>
     </g>
     <g id="text_7">
      <!-- 8 Mar -->
      <defs>
       <path d="M 31.78125 34.625 
Q 24.75 34.625 20.71875 30.859375 
Q 16.703125 27.09375 16.703125 20.515625 
Q 16.703125 13.921875 20.71875 10.15625 
Q 24.75 6.390625 31.78125 6.390625 
Q 38.8125 6.390625 42.859375 10.171875 
Q 46.921875 13.96875 46.921875 20.515625 
Q 46.921875 27.09375 42.890625 30.859375 
Q 38.875 34.625 31.78125 34.625 
z
M 21.921875 38.8125 
Q 15.578125 40.375 12.03125 44.71875 
Q 8.5 49.078125 8.5 55.328125 
Q 8.5 64.0625 14.71875 69.140625 
Q 20.953125 74.21875 31.78125 74.21875 
Q 42.671875 74.21875 48.875 69.140625 
Q 55.078125 64.0625 55.078125 55.328125 
Q 55.078125 49.078125 51.53125 44.71875 
Q 48 40.375 41.703125 38.8125 
Q 48.828125 37.15625 52.796875 32.3125 
Q 56.78125 27.484375 56.78125 20.515625 
Q 56.78125 9.90625 50.3125 4.234375 
Q 43.84375 -1.421875 31.78125 -1.421875 
Q 19.734375 -1.421875 13.25 4.234375 
Q 6.78125 9.90625 6.78125 20.515625 
Q 6.78125 27.484375 10.78125 32.3125 
Q 14.796875 37.15625 21.921875 38.8125 
z
M 18.3125 54.390625 
Q 18.3125 48.734375 21.84375 45.5625 
Q 25.390625 42.390625 31.78125 42.390625 
Q 38.140625 42.390625 41.71875 45.5625 
Q 45.3125 48.734375 45.3125 54.390625 
Q 45.3125 60.0625 41.71875 63.234375 
Q 38.140625 66.40625 31.78125 66.40625 
Q 25.390625 66.40625 21.84375 63.234375 
Q 18.3125 60.0625 18.3125 54.390625 
z
" id="DejaVuSans-56"/>
      </defs>
      <g transform="translate(104.25255 156.17499)rotate(-90)scale(0.08 -0.08)">
       <use xlink:href="#DejaVuSans-56"/>
       <use x="63.623047" xlink:href="#DejaVuSans-32"/>
       <use x="95.410156" xlink:href="#DejaVuSans-77"/>
       <use x="181.689453" xlink:href="#DejaVuSans-97"/>
       <use x="242.96875" xlink:href="#DejaVuSans-114"/>
      </g>
     </g>
    </g>
    <g id="xtick_8">
     <g id="line2d_8">
      <g>
       <use style="stroke:#000000;stroke-width:0.8;" x="85.665746" xlink:href="#m0b8a407bb5" y="126.44874"/>
      </g>
     </g>
     <g id="text_8">
      <!-- 1 Mar -->
      <g transform="translate(87.873246 156.17499)rotate(-90)scale(0.08 -0.08)">
       <use xlink:href="#DejaVuSans-49"/>
       <use x="63.623047" xlink:href="#DejaVuSans-32"/>
       <use x="95.410156" xlink:href="#DejaVuSans-77"/>
       <use x="181.689453" xlink:href="#DejaVuSans-97"/>
       <use x="242.96875" xlink:href="#DejaVuSans-114"/>
      </g>
     </g>
    </g>
    <g id="xtick_9">
     <g id="line2d_9">
      <g>
       <use style="stroke:#000000;stroke-width:0.8;" x="69.286442" xlink:href="#m0b8a407bb5" y="126.44874"/>
      </g>
     </g>
     <g id="text_9">
      <!-- 23 Feb -->
      <defs>
       <path d="M 40.578125 39.3125 
Q 47.65625 37.796875 51.625 33 
Q 55.609375 28.21875 55.609375 21.1875 
Q 55.609375 10.40625 48.1875 4.484375 
Q 40.765625 -1.421875 27.09375 -1.421875 
Q 22.515625 -1.421875 17.65625 -0.515625 
Q 12.796875 0.390625 7.625 2.203125 
L 7.625 11.71875 
Q 11.71875 9.328125 16.59375 8.109375 
Q 21.484375 6.890625 26.8125 6.890625 
Q 36.078125 6.890625 40.9375 10.546875 
Q 45.796875 14.203125 45.796875 21.1875 
Q 45.796875 27.640625 41.28125 31.265625 
Q 36.765625 34.90625 28.71875 34.90625 
L 20.21875 34.90625 
L 20.21875 43.015625 
L 29.109375 43.015625 
Q 36.375 43.015625 40.234375 45.921875 
Q 44.09375 48.828125 44.09375 54.296875 
Q 44.09375 59.90625 40.109375 62.90625 
Q 36.140625 65.921875 28.71875 65.921875 
Q 24.65625 65.921875 20.015625 65.03125 
Q 15.375 64.15625 9.8125 62.3125 
L 9.8125 71.09375 
Q 15.4375 72.65625 20.34375 73.4375 
Q 25.25 74.21875 29.59375 74.21875 
Q 40.828125 74.21875 47.359375 69.109375 
Q 53.90625 64.015625 53.90625 55.328125 
Q 53.90625 49.265625 50.4375 45.09375 
Q 46.96875 40.921875 40.578125 39.3125 
z
" id="DejaVuSans-51"/>
       <path d="M 9.8125 72.90625 
L 51.703125 72.90625 
L 51.703125 64.59375 
L 19.671875 64.59375 
L 19.671875 43.109375 
L 48.578125 43.109375 
L 48.578125 34.8125 
L 19.671875 34.8125 
L 19.671875 0 
L 9.8125 0 
z
" id="DejaVuSans-70"/>
       <path d="M 56.203125 29.59375 
L 56.203125 25.203125 
L 14.890625 25.203125 
Q 15.484375 15.921875 20.484375 11.0625 
Q 25.484375 6.203125 34.421875 6.203125 
Q 39.59375 6.203125 44.453125 7.46875 
Q 49.3125 8.734375 54.109375 11.28125 
L 54.109375 2.78125 
Q 49.265625 0.734375 44.1875 -0.34375 
Q 39.109375 -1.421875 33.890625 -1.421875 
Q 20.796875 -1.421875 13.15625 6.1875 
Q 5.515625 13.8125 5.515625 26.8125 
Q 5.515625 40.234375 12.765625 48.109375 
Q 20.015625 56 32.328125 56 
Q 43.359375 56 49.78125 48.890625 
Q 56.203125 41.796875 56.203125 29.59375 
z
M 47.21875 32.234375 
Q 47.125 39.59375 43.09375 43.984375 
Q 39.0625 48.390625 32.421875 48.390625 
Q 24.90625 48.390625 20.390625 44.140625 
Q 15.875 39.890625 15.1875 32.171875 
z
" id="DejaVuSans-101"/>
       <path d="M 48.6875 27.296875 
Q 48.6875 37.203125 44.609375 42.84375 
Q 40.53125 48.484375 33.40625 48.484375 
Q 26.265625 48.484375 22.1875 42.84375 
Q 18.109375 37.203125 18.109375 27.296875 
Q 18.109375 17.390625 22.1875 11.75 
Q 26.265625 6.109375 33.40625 6.109375 
Q 40.53125 6.109375 44.609375 11.75 
Q 48.6875 17.390625 48.6875 27.296875 
z
M 18.109375 46.390625 
Q 20.953125 51.265625 25.265625 53.625 
Q 29.59375 56 35.59375 56 
Q 45.5625 56 51.78125 48.09375 
Q 58.015625 40.1875 58.015625 27.296875 
Q 58.015625 14.40625 51.78125 6.484375 
Q 45.5625 -1.421875 35.59375 -1.421875 
Q 29.59375 -1.421875 25.265625 0.953125 
Q 20.953125 3.328125 18.109375 8.203125 
L 18.109375 0 
L 9.078125 0 
L 9.078125 75.984375 
L 18.109375 75.984375 
z
" id="DejaVuSans-98"/>
      </defs>
      <g transform="translate(71.493942 160.33374)rotate(-90)scale(0.08 -0.08)">
       <use xlink:href="#DejaVuSans-50"/>
       <use x="63.623047" xlink:href="#DejaVuSans-51"/>
       <use x="127.246094" xlink:href="#DejaVuSans-32"/>
       <use x="159.033203" xlink:href="#DejaVuSans-70"/>
       <use x="211.052734" xlink:href="#DejaVuSans-101"/>
       <use x="272.576172" xlink:href="#DejaVuSans-98"/>
      </g>
     </g>
    </g>
    <g id="xtick_10">
     <g id="line2d_10">
      <g>
       <use style="stroke:#000000;stroke-width:0.8;" x="52.907138" xlink:href="#m0b8a407bb5" y="126.44874"/>
      </g>
     </g>
     <g id="text_10">
      <!-- 16 Feb -->
      <defs>
       <path d="M 33.015625 40.375 
Q 26.375 40.375 22.484375 35.828125 
Q 18.609375 31.296875 18.609375 23.390625 
Q 18.609375 15.53125 22.484375 10.953125 
Q 26.375 6.390625 33.015625 6.390625 
Q 39.65625 6.390625 43.53125 10.953125 
Q 47.40625 15.53125 47.40625 23.390625 
Q 47.40625 31.296875 43.53125 35.828125 
Q 39.65625 40.375 33.015625 40.375 
z
M 52.59375 71.296875 
L 52.59375 62.3125 
Q 48.875 64.0625 45.09375 64.984375 
Q 41.3125 65.921875 37.59375 65.921875 
Q 27.828125 65.921875 22.671875 59.328125 
Q 17.53125 52.734375 16.796875 39.40625 
Q 19.671875 43.65625 24.015625 45.921875 
Q 28.375 48.1875 33.59375 48.1875 
Q 44.578125 48.1875 50.953125 41.515625 
Q 57.328125 34.859375 57.328125 23.390625 
Q 57.328125 12.15625 50.6875 5.359375 
Q 44.046875 -1.421875 33.015625 -1.421875 
Q 20.359375 -1.421875 13.671875 8.265625 
Q 6.984375 17.96875 6.984375 36.375 
Q 6.984375 53.65625 15.1875 63.9375 
Q 23.390625 74.21875 37.203125 74.21875 
Q 40.921875 74.21875 44.703125 73.484375 
Q 48.484375 72.75 52.59375 71.296875 
z
" id="DejaVuSans-54"/>
      </defs>
      <g transform="translate(55.114638 160.33374)rotate(-90)scale(0.08 -0.08)">
       <use xlink:href="#DejaVuSans-49"/>
       <use x="63.623047" xlink:href="#DejaVuSans-54"/>
       <use x="127.246094" xlink:href="#DejaVuSans-32"/>
       <use x="159.033203" xlink:href="#DejaVuSans-70"/>
       <use x="211.052734" xlink:href="#DejaVuSans-101"/>
       <use x="272.576172" xlink:href="#DejaVuSans-98"/>
      </g>
     </g>
    </g>
   </g>
   <g id="matplotlib.axis_2">
    <g id="ytick_1">
     <g id="line2d_11">
      <defs>
       <path d="M 0 0 
L -3.5 0 
" id="m7355befda0" style="stroke:#000000;stroke-width:0.8;"/>
      </defs>
      <g>
       <use style="stroke:#000000;stroke-width:0.8;" x="42.05" xlink:href="#m7355befda0" y="126.44874"/>
      </g>
     </g>
     <g id="text_11">
      <!-- 0 -->
      <defs>
       <path d="M 31.78125 66.40625 
Q 24.171875 66.40625 20.328125 58.90625 
Q 16.5 51.421875 16.5 36.375 
Q 16.5 21.390625 20.328125 13.890625 
Q 24.171875 6.390625 31.78125 6.390625 
Q 39.453125 6.390625 43.28125 13.890625 
Q 47.125 21.390625 47.125 36.375 
Q 47.125 51.421875 43.28125 58.90625 
Q 39.453125 66.40625 31.78125 66.40625 
z
M 31.78125 74.21875 
Q 44.046875 74.21875 50.515625 64.515625 
Q 56.984375 54.828125 56.984375 36.375 
Q 56.984375 17.96875 50.515625 8.265625 
Q 44.046875 -1.421875 31.78125 -1.421875 
Q 19.53125 -1.421875 13.0625 8.265625 
Q 6.59375 17.96875 6.59375 36.375 
Q 6.59375 54.828125 13.0625 64.515625 
Q 19.53125 74.21875 31.78125 74.21875 
z
" id="DejaVuSans-48"/>
      </defs>
      <g transform="translate(29.96 129.488115)scale(0.08 -0.08)">
       <use xlink:href="#DejaVuSans-48"/>
      </g>
     </g>
    </g>
    <g id="ytick_2">
     <g id="line2d_12">
      <g>
       <use style="stroke:#000000;stroke-width:0.8;" x="42.05" xlink:href="#m7355befda0" y="108.56795"/>
      </g>
     </g>
     <g id="text_12">
      <!-- 100 -->
      <g transform="translate(19.78 111.607325)scale(0.08 -0.08)">
       <use xlink:href="#DejaVuSans-49"/>
       <use x="63.623047" xlink:href="#DejaVuSans-48"/>
       <use x="127.246094" xlink:href="#DejaVuSans-48"/>
      </g>
     </g>
    </g>
    <g id="ytick_3">
     <g id="line2d_13">
      <g>
       <use style="stroke:#000000;stroke-width:0.8;" x="42.05" xlink:href="#m7355befda0" y="90.68716"/>
      </g>
     </g>
     <g id="text_13">
      <!-- 200 -->
      <g transform="translate(19.78 93.726535)scale(0.08 -0.08)">
       <use xlink:href="#DejaVuSans-50"/>
       <use x="63.623047" xlink:href="#DejaVuSans-48"/>
       <use x="127.246094" xlink:href="#DejaVuSans-48"/>
      </g>
     </g>
    </g>
    <g id="ytick_4">
     <g id="line2d_14">
      <g>
       <use style="stroke:#000000;stroke-width:0.8;" x="42.05" xlink:href="#m7355befda0" y="72.806369"/>
      </g>
     </g>
     <g id="text_14">
      <!-- 300 -->
      <g transform="translate(19.78 75.845744)scale(0.08 -0.08)">
       <use xlink:href="#DejaVuSans-51"/>
       <use x="63.623047" xlink:href="#DejaVuSans-48"/>
       <use x="127.246094" xlink:href="#DejaVuSans-48"/>
      </g>
     </g>
    </g>
    <g id="ytick_5">
     <g id="line2d_15">
      <g>
       <use style="stroke:#000000;stroke-width:0.8;" x="42.05" xlink:href="#m7355befda0" y="54.925579"/>
      </g>
     </g>
     <g id="text_15">
      <!-- 400 -->
      <defs>
       <path d="M 37.796875 64.3125 
L 12.890625 25.390625 
L 37.796875 25.390625 
z
M 35.203125 72.90625 
L 47.609375 72.90625 
L 47.609375 25.390625 
L 58.015625 25.390625 
L 58.015625 17.1875 
L 47.609375 17.1875 
L 47.609375 0 
L 37.796875 0 
L 37.796875 17.1875 
L 4.890625 17.1875 
L 4.890625 26.703125 
z
" id="DejaVuSans-52"/>
      </defs>
      <g transform="translate(19.78 57.964954)scale(0.08 -0.08)">
       <use xlink:href="#DejaVuSans-52"/>
       <use x="63.623047" xlink:href="#DejaVuSans-48"/>
       <use x="127.246094" xlink:href="#DejaVuSans-48"/>
      </g>
     </g>
    </g>
    <g id="ytick_6">
     <g id="line2d_16">
      <g>
       <use style="stroke:#000000;stroke-width:0.8;" x="42.05" xlink:href="#m7355befda0" y="37.044789"/>
      </g>
     </g>
     <g id="text_16">
      <!-- 500 -->
      <g transform="translate(19.78 40.084164)scale(0.08 -0.08)">
       <use xlink:href="#DejaVuSans-53"/>
       <use x="63.623047" xlink:href="#DejaVuSans-48"/>
       <use x="127.246094" xlink:href="#DejaVuSans-48"/>
      </g>
     </g>
    </g>
    <g id="ytick_7">
     <g id="line2d_17">
      <g>
       <use style="stroke:#000000;stroke-width:0.8;" x="42.05" xlink:href="#m7355befda0" y="19.163999"/>
      </g>
     </g>
     <g id="text_17">
      <!-- 600 -->
      <g transform="translate(19.78 22.203374)scale(0.08 -0.08)">
       <use xlink:href="#DejaVuSans-54"/>
       <use x="63.623047" xlink:href="#DejaVuSans-48"/>
       <use x="127.246094" xlink:href="#DejaVuSans-48"/>
      </g>
     </g>
    </g>
    <g id="text_18">
     <!-- Deaths per day -->
     <defs>
      <path d="M 19.671875 64.796875 
L 19.671875 8.109375 
L 31.59375 8.109375 
Q 46.6875 8.109375 53.6875 14.9375 
Q 60.6875 21.78125 60.6875 36.53125 
Q 60.6875 51.171875 53.6875 57.984375 
Q 46.6875 64.796875 31.59375 64.796875 
z
M 9.8125 72.90625 
L 30.078125 72.90625 
Q 51.265625 72.90625 61.171875 64.09375 
Q 71.09375 55.28125 71.09375 36.53125 
Q 71.09375 17.671875 61.125 8.828125 
Q 51.171875 0 30.078125 0 
L 9.8125 0 
z
" id="DejaVuSans-68"/>
      <path d="M 18.3125 70.21875 
L 18.3125 54.6875 
L 36.8125 54.6875 
L 36.8125 47.703125 
L 18.3125 47.703125 
L 18.3125 18.015625 
Q 18.3125 11.328125 20.140625 9.421875 
Q 21.96875 7.515625 27.59375 7.515625 
L 36.8125 7.515625 
L 36.8125 0 
L 27.59375 0 
Q 17.1875 0 13.234375 3.875 
Q 9.28125 7.765625 9.28125 18.015625 
L 9.28125 47.703125 
L 2.6875 47.703125 
L 2.6875 54.6875 
L 9.28125 54.6875 
L 9.28125 70.21875 
z
" id="DejaVuSans-116"/>
      <path d="M 54.890625 33.015625 
L 54.890625 0 
L 45.90625 0 
L 45.90625 32.71875 
Q 45.90625 40.484375 42.875 44.328125 
Q 39.84375 48.1875 33.796875 48.1875 
Q 26.515625 48.1875 22.3125 43.546875 
Q 18.109375 38.921875 18.109375 30.90625 
L 18.109375 0 
L 9.078125 0 
L 9.078125 75.984375 
L 18.109375 75.984375 
L 18.109375 46.1875 
Q 21.34375 51.125 25.703125 53.5625 
Q 30.078125 56 35.796875 56 
Q 45.21875 56 50.046875 50.171875 
Q 54.890625 44.34375 54.890625 33.015625 
z
" id="DejaVuSans-104"/>
      <path d="M 44.28125 53.078125 
L 44.28125 44.578125 
Q 40.484375 46.53125 36.375 47.5 
Q 32.28125 48.484375 27.875 48.484375 
Q 21.1875 48.484375 17.84375 46.4375 
Q 14.5 44.390625 14.5 40.28125 
Q 14.5 37.15625 16.890625 35.375 
Q 19.28125 33.59375 26.515625 31.984375 
L 29.59375 31.296875 
Q 39.15625 29.25 43.1875 25.515625 
Q 47.21875 21.78125 47.21875 15.09375 
Q 47.21875 7.46875 41.1875 3.015625 
Q 35.15625 -1.421875 24.609375 -1.421875 
Q 20.21875 -1.421875 15.453125 -0.5625 
Q 10.6875 0.296875 5.421875 2 
L 5.421875 11.28125 
Q 10.40625 8.6875 15.234375 7.390625 
Q 20.0625 6.109375 24.8125 6.109375 
Q 31.15625 6.109375 34.5625 8.28125 
Q 37.984375 10.453125 37.984375 14.40625 
Q 37.984375 18.0625 35.515625 20.015625 
Q 33.0625 21.96875 24.703125 23.78125 
L 21.578125 24.515625 
Q 13.234375 26.265625 9.515625 29.90625 
Q 5.8125 33.546875 5.8125 39.890625 
Q 5.8125 47.609375 11.28125 51.796875 
Q 16.75 56 26.8125 56 
Q 31.78125 56 36.171875 55.265625 
Q 40.578125 54.546875 44.28125 53.078125 
z
" id="DejaVuSans-115"/>
      <path d="M 45.40625 46.390625 
L 45.40625 75.984375 
L 54.390625 75.984375 
L 54.390625 0 
L 45.40625 0 
L 45.40625 8.203125 
Q 42.578125 3.328125 38.25 0.953125 
Q 33.9375 -1.421875 27.875 -1.421875 
Q 17.96875 -1.421875 11.734375 6.484375 
Q 5.515625 14.40625 5.515625 27.296875 
Q 5.515625 40.1875 11.734375 48.09375 
Q 17.96875 56 27.875 56 
Q 33.9375 56 38.25 53.625 
Q 42.578125 51.265625 45.40625 46.390625 
z
M 14.796875 27.296875 
Q 14.796875 17.390625 18.875 11.75 
Q 22.953125 6.109375 30.078125 6.109375 
Q 37.203125 6.109375 41.296875 11.75 
Q 45.40625 17.390625 45.40625 27.296875 
Q 45.40625 37.203125 41.296875 42.84375 
Q 37.203125 48.484375 30.078125 48.484375 
Q 22.953125 48.484375 18.875 42.84375 
Q 14.796875 37.203125 14.796875 27.296875 
z
" id="DejaVuSans-100"/>
      <path d="M 32.171875 -5.078125 
Q 28.375 -14.84375 24.75 -17.8125 
Q 21.140625 -20.796875 15.09375 -20.796875 
L 7.90625 -20.796875 
L 7.90625 -13.28125 
L 13.1875 -13.28125 
Q 16.890625 -13.28125 18.9375 -11.515625 
Q 21 -9.765625 23.484375 -3.21875 
L 25.09375 0.875 
L 2.984375 54.6875 
L 12.5 54.6875 
L 29.59375 11.921875 
L 46.6875 54.6875 
L 56.203125 54.6875 
z
" id="DejaVuSans-121"/>
     </defs>
     <g transform="translate(14.11625 99.70937)rotate(-90)scale(0.08 -0.08)">
      <use xlink:href="#DejaVuSans-68"/>
      <use x="77.001953" xlink:href="#DejaVuSans-101"/>
      <use x="138.525391" xlink:href="#DejaVuSans-97"/>
      <use x="199.804688" xlink:href="#DejaVuSans-116"/>
      <use x="239.013672" xlink:href="#DejaVuSans-104"/>
      <use x="302.392578" xlink:href="#DejaVuSans-115"/>
      <use x="354.492188" xlink:href="#DejaVuSans-32"/>
      <use x="386.279297" xlink:href="#DejaVuSans-112"/>
      <use x="449.755859" xlink:href="#DejaVuSans-101"/>
      <use x="511.279297" xlink:href="#DejaVuSans-114"/>
      <use x="552.392578" xlink:href="#DejaVuSans-32"/>
      <use x="584.179688" xlink:href="#DejaVuSans-100"/>
      <use x="647.65625" xlink:href="#DejaVuSans-97"/>
      <use x="708.935547" xlink:href="#DejaVuSans-121"/>
     </g>
    </g>
   </g>
   <g id="line2d_18">
    <path clip-path="url(#pc5983ab93c)" d="M 50.567238 126.44874 
L 52.907138 126.44874 
L 55.247039 126.44872 
L 57.58694 126.448653 
L 59.92684 126.448498 
L 62.266741 126.448209 
L 64.606641 126.447744 
L 66.946542 126.447065 
L 69.286442 126.446134 
L 71.626343 126.444917 
L 73.966243 126.443354 
L 76.306144 126.4414 
L 78.646044 126.438987 
L 80.985945 126.436042 
L 83.325845 126.432466 
L 85.665746 126.428091 
L 88.005647 126.422719 
L 90.345547 126.41595 
L 92.685448 126.407359 
L 95.025348 126.396389 
L 97.365249 126.382432 
L 99.705149 126.364826 
L 102.04505 126.3428 
L 104.38495 126.315475 
L 106.724851 126.280848 
L 109.064751 126.237171 
L 111.404652 126.182121 
L 113.744552 126.113018 
L 116.084453 126.026435 
L 118.424354 125.915816 
L 120.764254 125.773983 
L 123.104155 125.58938 
L 125.444055 125.343309 
L 127.783956 125.015712 
L 130.123856 124.582651 
L 132.463757 124.022575 
L 134.803657 123.313822 
L 137.143558 122.447341 
L 139.483458 121.422924 
L 141.823359 120.243859 
L 144.163259 118.920306 
L 146.50316 117.461571 
L 148.84306 115.87544 
L 151.182961 114.166461 
" style="fill:none;stroke:#0000ff;stroke-linecap:square;stroke-opacity:0.5;"/>
   </g>
   <g id="line2d_19">
    <path clip-path="url(#pc5983ab93c)" d="M 153.522862 112.340139 
L 155.862762 110.413433 
L 158.202663 108.409662 
L 160.542563 106.362694 
L 162.882464 104.311169 
L 165.222364 102.294578 
L 167.562265 100.350147 
L 169.902165 98.510642 
L 172.242066 96.803032 
L 174.581966 95.247854 
L 176.921867 93.859101 
L 179.261767 92.644482 
L 181.601668 91.605945 
L 183.941569 90.740329 
L 186.281469 90.0401 
L 188.62137 89.49409 
L 190.96127 89.088204 
L 193.301171 88.806067 
L 195.641071 88.629596 
L 197.980972 88.539477 
L 200.320872 88.515546 
" style="fill:none;stroke:#008000;stroke-linecap:square;stroke-opacity:0.5;"/>
   </g>
   <g id="line2d_20">
    <path clip-path="url(#pc5983ab93c)" d="M 134.803657 126.44874 
L 134.803657 11.52 
" style="fill:none;stroke:#0000ff;stroke-dasharray:1.85,0.8;stroke-dashoffset:0;stroke-width:0.5;"/>
   </g>
   <g id="line2d_21">
    <path clip-path="url(#pc5983ab93c)" d="M 116.084453 126.44874 
L 116.084453 11.52 
" style="fill:none;stroke:#0000ff;stroke-dasharray:1.85,0.8;stroke-dashoffset:0;stroke-width:0.5;"/>
   </g>
   <g id="line2d_22">
    <path clip-path="url(#pc5983ab93c)" d="M 134.803657 126.44874 
L 134.803657 11.52 
" style="fill:none;stroke:#0000ff;stroke-dasharray:1.85,0.8;stroke-dashoffset:0;stroke-width:0.5;"/>
   </g>
   <g id="line2d_23">
    <path clip-path="url(#pc5983ab93c)" d="M 111.404652 126.44874 
L 111.404652 11.52 
" style="fill:none;stroke:#0000ff;stroke-dasharray:1.85,0.8;stroke-dashoffset:0;stroke-width:0.5;"/>
   </g>
   <g id="line2d_24">
    <path clip-path="url(#pc5983ab93c)" d="M 97.365249 126.44874 
L 97.365249 11.52 
" style="fill:none;stroke:#0000ff;stroke-dasharray:1.85,0.8;stroke-dashoffset:0;stroke-width:0.5;"/>
   </g>
   <g id="patch_68">
    <path d="M 42.05 126.44874 
L 42.05 11.52 
" style="fill:none;stroke:#000000;stroke-linecap:square;stroke-linejoin:miter;stroke-width:0.8;"/>
   </g>
   <g id="patch_69">
    <path d="M 208.83811 126.44874 
L 208.83811 11.52 
" style="fill:none;stroke:#000000;stroke-linecap:square;stroke-linejoin:miter;stroke-width:0.8;"/>
   </g>
   <g id="patch_70">
    <path d="M 42.05 126.44874 
L 208.83811 126.44874 
" style="fill:none;stroke:#000000;stroke-linecap:square;stroke-linejoin:miter;stroke-width:0.8;"/>
   </g>
   <g id="patch_71">
    <path d="M 42.05 11.52 
L 208.83811 11.52 
" style="fill:none;stroke:#000000;stroke-linecap:square;stroke-linejoin:miter;stroke-width:0.8;"/>
   </g>
   <g id="legend_1">
    <g id="line2d_25">
     <path d="M 49.25 103.04249 
L 65.25 103.04249 
" style="fill:none;stroke:#0000ff;stroke-linecap:square;stroke-opacity:0.5;"/>
    </g>
    <g id="line2d_26"/>
    <g id="text_19">
     <!-- Simulation -->
     <defs>
      <path d="M 53.515625 70.515625 
L 53.515625 60.890625 
Q 47.90625 63.578125 42.921875 64.890625 
Q 37.9375 66.21875 33.296875 66.21875 
Q 25.25 66.21875 20.875 63.09375 
Q 16.5 59.96875 16.5 54.203125 
Q 16.5 49.359375 19.40625 46.890625 
Q 22.3125 44.4375 30.421875 42.921875 
L 36.375 41.703125 
Q 47.40625 39.59375 52.65625 34.296875 
Q 57.90625 29 57.90625 20.125 
Q 57.90625 9.515625 50.796875 4.046875 
Q 43.703125 -1.421875 29.984375 -1.421875 
Q 24.8125 -1.421875 18.96875 -0.25 
Q 13.140625 0.921875 6.890625 3.21875 
L 6.890625 13.375 
Q 12.890625 10.015625 18.65625 8.296875 
Q 24.421875 6.59375 29.984375 6.59375 
Q 38.421875 6.59375 43.015625 9.90625 
Q 47.609375 13.234375 47.609375 19.390625 
Q 47.609375 24.75 44.3125 27.78125 
Q 41.015625 30.8125 33.5 32.328125 
L 27.484375 33.5 
Q 16.453125 35.6875 11.515625 40.375 
Q 6.59375 45.0625 6.59375 53.421875 
Q 6.59375 63.09375 13.40625 68.65625 
Q 20.21875 74.21875 32.171875 74.21875 
Q 37.3125 74.21875 42.625 73.28125 
Q 47.953125 72.359375 53.515625 70.515625 
z
" id="DejaVuSans-83"/>
      <path d="M 9.421875 54.6875 
L 18.40625 54.6875 
L 18.40625 0 
L 9.421875 0 
z
M 9.421875 75.984375 
L 18.40625 75.984375 
L 18.40625 64.59375 
L 9.421875 64.59375 
z
" id="DejaVuSans-105"/>
      <path d="M 52 44.1875 
Q 55.375 50.25 60.0625 53.125 
Q 64.75 56 71.09375 56 
Q 79.640625 56 84.28125 50.015625 
Q 88.921875 44.046875 88.921875 33.015625 
L 88.921875 0 
L 79.890625 0 
L 79.890625 32.71875 
Q 79.890625 40.578125 77.09375 44.375 
Q 74.3125 48.1875 68.609375 48.1875 
Q 61.625 48.1875 57.5625 43.546875 
Q 53.515625 38.921875 53.515625 30.90625 
L 53.515625 0 
L 44.484375 0 
L 44.484375 32.71875 
Q 44.484375 40.625 41.703125 44.40625 
Q 38.921875 48.1875 33.109375 48.1875 
Q 26.21875 48.1875 22.15625 43.53125 
Q 18.109375 38.875 18.109375 30.90625 
L 18.109375 0 
L 9.078125 0 
L 9.078125 54.6875 
L 18.109375 54.6875 
L 18.109375 46.1875 
Q 21.1875 51.21875 25.484375 53.609375 
Q 29.78125 56 35.6875 56 
Q 41.65625 56 45.828125 52.96875 
Q 50 49.953125 52 44.1875 
z
" id="DejaVuSans-109"/>
      <path d="M 8.5 21.578125 
L 8.5 54.6875 
L 17.484375 54.6875 
L 17.484375 21.921875 
Q 17.484375 14.15625 20.5 10.265625 
Q 23.53125 6.390625 29.59375 6.390625 
Q 36.859375 6.390625 41.078125 11.03125 
Q 45.3125 15.671875 45.3125 23.6875 
L 45.3125 54.6875 
L 54.296875 54.6875 
L 54.296875 0 
L 45.3125 0 
L 45.3125 8.40625 
Q 42.046875 3.421875 37.71875 1 
Q 33.40625 -1.421875 27.6875 -1.421875 
Q 18.265625 -1.421875 13.375 4.4375 
Q 8.5 10.296875 8.5 21.578125 
z
M 31.109375 56 
z
" id="DejaVuSans-117"/>
      <path d="M 9.421875 75.984375 
L 18.40625 75.984375 
L 18.40625 0 
L 9.421875 0 
z
" id="DejaVuSans-108"/>
      <path d="M 30.609375 48.390625 
Q 23.390625 48.390625 19.1875 42.75 
Q 14.984375 37.109375 14.984375 27.296875 
Q 14.984375 17.484375 19.15625 11.84375 
Q 23.34375 6.203125 30.609375 6.203125 
Q 37.796875 6.203125 41.984375 11.859375 
Q 46.1875 17.53125 46.1875 27.296875 
Q 46.1875 37.015625 41.984375 42.703125 
Q 37.796875 48.390625 30.609375 48.390625 
z
M 30.609375 56 
Q 42.328125 56 49.015625 48.375 
Q 55.71875 40.765625 55.71875 27.296875 
Q 55.71875 13.875 49.015625 6.21875 
Q 42.328125 -1.421875 30.609375 -1.421875 
Q 18.84375 -1.421875 12.171875 6.21875 
Q 5.515625 13.875 5.515625 27.296875 
Q 5.515625 40.765625 12.171875 48.375 
Q 18.84375 56 30.609375 56 
z
" id="DejaVuSans-111"/>
      <path d="M 54.890625 33.015625 
L 54.890625 0 
L 45.90625 0 
L 45.90625 32.71875 
Q 45.90625 40.484375 42.875 44.328125 
Q 39.84375 48.1875 33.796875 48.1875 
Q 26.515625 48.1875 22.3125 43.546875 
Q 18.109375 38.921875 18.109375 30.90625 
L 18.109375 0 
L 9.078125 0 
L 9.078125 54.6875 
L 18.109375 54.6875 
L 18.109375 46.1875 
Q 21.34375 51.125 25.703125 53.5625 
Q 30.078125 56 35.796875 56 
Q 45.21875 56 50.046875 50.171875 
Q 54.890625 44.34375 54.890625 33.015625 
z
" id="DejaVuSans-110"/>
     </defs>
     <g transform="translate(71.65 105.84249)scale(0.08 -0.08)">
      <use xlink:href="#DejaVuSans-83"/>
      <use x="63.476562" xlink:href="#DejaVuSans-105"/>
      <use x="91.259766" xlink:href="#DejaVuSans-109"/>
      <use x="188.671875" xlink:href="#DejaVuSans-117"/>
      <use x="252.050781" xlink:href="#DejaVuSans-108"/>
      <use x="279.833984" xlink:href="#DejaVuSans-97"/>
      <use x="341.113281" xlink:href="#DejaVuSans-116"/>
      <use x="380.322266" xlink:href="#DejaVuSans-105"/>
      <use x="408.105469" xlink:href="#DejaVuSans-111"/>
      <use x="469.287109" xlink:href="#DejaVuSans-110"/>
     </g>
    </g>
    <g id="line2d_27">
     <path d="M 49.25 114.78499 
L 65.25 114.78499 
" style="fill:none;stroke:#008000;stroke-linecap:square;stroke-opacity:0.5;"/>
    </g>
    <g id="line2d_28"/>
    <g id="text_20">
     <!-- Forecast -->
     <defs>
      <path d="M 48.78125 52.59375 
L 48.78125 44.1875 
Q 44.96875 46.296875 41.140625 47.34375 
Q 37.3125 48.390625 33.40625 48.390625 
Q 24.65625 48.390625 19.8125 42.84375 
Q 14.984375 37.3125 14.984375 27.296875 
Q 14.984375 17.28125 19.8125 11.734375 
Q 24.65625 6.203125 33.40625 6.203125 
Q 37.3125 6.203125 41.140625 7.25 
Q 44.96875 8.296875 48.78125 10.40625 
L 48.78125 2.09375 
Q 45.015625 0.34375 40.984375 -0.53125 
Q 36.96875 -1.421875 32.421875 -1.421875 
Q 20.0625 -1.421875 12.78125 6.34375 
Q 5.515625 14.109375 5.515625 27.296875 
Q 5.515625 40.671875 12.859375 48.328125 
Q 20.21875 56 33.015625 56 
Q 37.15625 56 41.109375 55.140625 
Q 45.0625 54.296875 48.78125 52.59375 
z
" id="DejaVuSans-99"/>
     </defs>
     <g transform="translate(71.65 117.58499)scale(0.08 -0.08)">
      <use xlink:href="#DejaVuSans-70"/>
      <use x="53.894531" xlink:href="#DejaVuSans-111"/>
      <use x="115.076172" xlink:href="#DejaVuSans-114"/>
      <use x="153.939453" xlink:href="#DejaVuSans-101"/>
      <use x="215.462891" xlink:href="#DejaVuSans-99"/>
      <use x="270.443359" xlink:href="#DejaVuSans-97"/>
      <use x="331.722656" xlink:href="#DejaVuSans-115"/>
      <use x="383.822266" xlink:href="#DejaVuSans-116"/>
     </g>
    </g>
   </g>
  </g>
  <g id="axes_2">
   <g id="matplotlib.axis_3">
    <g id="ytick_8">
     <g id="line2d_29">
      <defs>
       <path d="M 0 0 
L 3.5 0 
" id="m57d768a43a" style="stroke:#000000;stroke-width:0.8;"/>
      </defs>
      <g>
       <use style="stroke:#000000;stroke-width:0.8;" x="208.83811" xlink:href="#m57d768a43a" y="126.44874"/>
      </g>
     </g>
     <g id="text_21">
      <!-- 1.0 -->
      <defs>
       <path d="M 10.59375 35.5 
L 73.1875 35.5 
L 73.1875 27.203125 
L 10.59375 27.203125 
z
" id="DejaVuSans-8722"/>
       <path d="M 10.6875 12.40625 
L 21 12.40625 
L 21 0 
L 10.6875 0 
z
" id="DejaVuSans-46"/>
      </defs>
      <g transform="translate(215.83811 129.488115)scale(0.08 -0.08)">
       <use xlink:href="#DejaVuSans-8722"/>
       <use x="83.789062" xlink:href="#DejaVuSans-49"/>
       <use x="147.412109" xlink:href="#DejaVuSans-46"/>
       <use x="179.199219" xlink:href="#DejaVuSans-48"/>
      </g>
     </g>
    </g>
    <g id="ytick_9">
     <g id="line2d_30">
      <g>
       <use style="stroke:#000000;stroke-width:0.8;" x="208.83811" xlink:href="#m57d768a43a" y="85.402762"/>
      </g>
     </g>
     <g id="text_22">
      <!-- 0.5 -->
      <g transform="translate(215.83811 88.442137)scale(0.08 -0.08)">
       <use xlink:href="#DejaVuSans-8722"/>
       <use x="83.789062" xlink:href="#DejaVuSans-48"/>
       <use x="147.412109" xlink:href="#DejaVuSans-46"/>
       <use x="179.199219" xlink:href="#DejaVuSans-53"/>
      </g>
     </g>
    </g>
    <g id="ytick_10">
     <g id="line2d_31">
      <g>
       <use style="stroke:#000000;stroke-width:0.8;" x="208.83811" xlink:href="#m57d768a43a" y="44.356783"/>
      </g>
     </g>
     <g id="text_23">
      <!-- 0.0 -->
      <g transform="translate(215.83811 47.396158)scale(0.08 -0.08)">
       <use xlink:href="#DejaVuSans-48"/>
       <use x="63.623047" xlink:href="#DejaVuSans-46"/>
       <use x="95.410156" xlink:href="#DejaVuSans-48"/>
      </g>
     </g>
    </g>
    <g id="ytick_11">
     <g id="line2d_32">
      <g>
       <use style="stroke:#000000;stroke-width:0.8;" x="208.83811" xlink:href="#m57d768a43a" y="11.52"/>
      </g>
     </g>
     <g id="text_24">
      <!-- 0.4 -->
      <g transform="translate(215.83811 14.559375)scale(0.08 -0.08)">
       <use xlink:href="#DejaVuSans-48"/>
       <use x="63.623047" xlink:href="#DejaVuSans-46"/>
       <use x="95.410156" xlink:href="#DejaVuSans-52"/>
      </g>
     </g>
    </g>
    <g id="text_25">
     <!-- Relative change -->
     <defs>
      <path d="M 44.390625 34.1875 
Q 47.5625 33.109375 50.5625 29.59375 
Q 53.5625 26.078125 56.59375 19.921875 
L 66.609375 0 
L 56 0 
L 46.6875 18.703125 
Q 43.0625 26.03125 39.671875 28.421875 
Q 36.28125 30.8125 30.421875 30.8125 
L 19.671875 30.8125 
L 19.671875 0 
L 9.8125 0 
L 9.8125 72.90625 
L 32.078125 72.90625 
Q 44.578125 72.90625 50.734375 67.671875 
Q 56.890625 62.453125 56.890625 51.90625 
Q 56.890625 45.015625 53.6875 40.46875 
Q 50.484375 35.9375 44.390625 34.1875 
z
M 19.671875 64.796875 
L 19.671875 38.921875 
L 32.078125 38.921875 
Q 39.203125 38.921875 42.84375 42.21875 
Q 46.484375 45.515625 46.484375 51.90625 
Q 46.484375 58.296875 42.84375 61.546875 
Q 39.203125 64.796875 32.078125 64.796875 
z
" id="DejaVuSans-82"/>
      <path d="M 2.984375 54.6875 
L 12.5 54.6875 
L 29.59375 8.796875 
L 46.6875 54.6875 
L 56.203125 54.6875 
L 35.6875 0 
L 23.484375 0 
z
" id="DejaVuSans-118"/>
      <path d="M 45.40625 27.984375 
Q 45.40625 37.75 41.375 43.109375 
Q 37.359375 48.484375 30.078125 48.484375 
Q 22.859375 48.484375 18.828125 43.109375 
Q 14.796875 37.75 14.796875 27.984375 
Q 14.796875 18.265625 18.828125 12.890625 
Q 22.859375 7.515625 30.078125 7.515625 
Q 37.359375 7.515625 41.375 12.890625 
Q 45.40625 18.265625 45.40625 27.984375 
z
M 54.390625 6.78125 
Q 54.390625 -7.171875 48.1875 -13.984375 
Q 42 -20.796875 29.203125 -20.796875 
Q 24.46875 -20.796875 20.265625 -20.09375 
Q 16.0625 -19.390625 12.109375 -17.921875 
L 12.109375 -9.1875 
Q 16.0625 -11.328125 19.921875 -12.34375 
Q 23.78125 -13.375 27.78125 -13.375 
Q 36.625 -13.375 41.015625 -8.765625 
Q 45.40625 -4.15625 45.40625 5.171875 
L 45.40625 9.625 
Q 42.625 4.78125 38.28125 2.390625 
Q 33.9375 0 27.875 0 
Q 17.828125 0 11.671875 7.65625 
Q 5.515625 15.328125 5.515625 27.984375 
Q 5.515625 40.671875 11.671875 48.328125 
Q 17.828125 56 27.875 56 
Q 33.9375 56 38.28125 53.609375 
Q 42.625 51.21875 45.40625 46.390625 
L 45.40625 54.6875 
L 54.390625 54.6875 
z
" id="DejaVuSans-103"/>
     </defs>
     <g transform="translate(245.34311 101.10812)rotate(-90)scale(0.08 -0.08)">
      <use xlink:href="#DejaVuSans-82"/>
      <use x="64.982422" xlink:href="#DejaVuSans-101"/>
      <use x="126.505859" xlink:href="#DejaVuSans-108"/>
      <use x="154.289062" xlink:href="#DejaVuSans-97"/>
      <use x="215.568359" xlink:href="#DejaVuSans-116"/>
      <use x="254.777344" xlink:href="#DejaVuSans-105"/>
      <use x="282.560547" xlink:href="#DejaVuSans-118"/>
      <use x="341.740234" xlink:href="#DejaVuSans-101"/>
      <use x="403.263672" xlink:href="#DejaVuSans-32"/>
      <use x="435.050781" xlink:href="#DejaVuSans-99"/>
      <use x="490.03125" xlink:href="#DejaVuSans-104"/>
      <use x="553.410156" xlink:href="#DejaVuSans-97"/>
      <use x="614.689453" xlink:href="#DejaVuSans-110"/>
      <use x="678.068359" xlink:href="#DejaVuSans-103"/>
      <use x="741.544922" xlink:href="#DejaVuSans-101"/>
     </g>
    </g>
   </g>
   <g id="line2d_33">
    <path clip-path="url(#pc5983ab93c)" d="M 50.567238 39.431265 
L 52.907138 38.610346 
L 55.247039 42.714944 
L 57.58694 42.714944 
L 59.92684 41.894024 
L 62.266741 42.714944 
L 64.606641 42.714944 
L 66.946542 45.177702 
L 69.286442 44.356783 
L 71.626343 42.714944 
L 73.966243 45.177702 
L 76.306144 46.819542 
L 78.646044 48.461381 
L 80.985945 41.894024 
L 83.325845 45.177702 
L 85.665746 37.789426 
L 88.005647 42.714944 
L 90.345547 44.356783 
L 92.685448 42.714944 
L 95.025348 47.640461 
L 97.365249 46.819542 
L 99.705149 43.535863 
L 102.04505 34.505748 
L 104.38495 45.177702 
L 106.724851 50.10322 
L 109.064751 45.177702 
L 111.404652 50.10322 
L 113.744552 51.745059 
L 116.084453 58.312416 
L 118.424354 54.207818 
L 120.764254 50.10322 
L 123.104155 61.596094 
L 125.444055 72.268048 
L 127.783956 81.298164 
L 130.123856 85.402762 
L 132.463757 101.000233 
L 134.803657 102.642073 
L 137.143558 91.149199 
L 139.483458 92.791038 
L 141.823359 91.970118 
L 144.163259 92.791038 
L 146.50316 92.791038 
L 148.84306 98.537475 
L 151.182961 107.56759 
" style="fill:none;stroke:#d62728;stroke-linecap:square;stroke-opacity:0.5;"/>
   </g>
   <g id="line2d_34">
    <path clip-path="url(#pc5983ab93c)" d="M 50.567238 43.535863 
L 52.907138 36.147587 
L 55.247039 42.714944 
L 57.58694 42.714944 
L 59.92684 44.356783 
L 62.266741 45.177702 
L 64.606641 42.714944 
L 66.946542 45.998622 
L 69.286442 36.968507 
L 71.626343 48.461381 
L 73.966243 45.177702 
L 76.306144 44.356783 
L 78.646044 41.894024 
L 80.985945 35.326668 
L 83.325845 40.252185 
L 85.665746 29.580231 
L 88.005647 37.789426 
L 90.345547 40.252185 
L 92.685448 42.714944 
L 95.025348 44.356783 
L 97.365249 43.535863 
L 99.705149 44.356783 
L 102.04505 28.759311 
L 104.38495 42.714944 
L 106.724851 45.998622 
L 109.064751 42.714944 
L 111.404652 39.431265 
L 113.744552 28.759311 
L 116.084453 36.968507 
L 118.424354 33.684828 
L 120.764254 26.296552 
L 123.104155 35.326668 
L 125.444055 40.252185 
L 127.783956 46.819542 
L 130.123856 45.998622 
L 132.463757 64.058853 
L 134.803657 73.088968 
L 137.143558 57.491496 
L 139.483458 59.133335 
L 141.823359 59.133335 
L 144.163259 57.491496 
L 146.50316 55.849657 
L 148.84306 61.596094 
L 151.182961 86.223681 
" style="fill:none;stroke:#9467bd;stroke-linecap:square;stroke-opacity:0.5;"/>
   </g>
   <g id="line2d_35">
    <path clip-path="url(#pc5983ab93c)" d="M 50.567238 36.147587 
L 52.907138 39.431265 
L 55.247039 43.535863 
L 57.58694 43.535863 
L 59.92684 45.177702 
L 62.266741 41.894024 
L 64.606641 45.177702 
L 66.946542 36.968507 
L 69.286442 42.714944 
L 71.626343 48.461381 
L 73.966243 48.461381 
L 76.306144 50.10322 
L 78.646044 48.461381 
L 80.985945 45.998622 
L 83.325845 43.535863 
L 85.665746 41.073105 
L 88.005647 45.177702 
L 90.345547 46.819542 
L 92.685448 47.640461 
L 95.025348 48.461381 
L 97.365249 50.10322 
L 99.705149 45.998622 
L 102.04505 42.714944 
L 104.38495 48.461381 
L 106.724851 50.924139 
L 109.064751 50.10322 
L 111.404652 51.745059 
L 113.744552 56.670576 
L 116.084453 59.954255 
L 118.424354 57.491496 
L 120.764254 64.879772 
L 123.104155 73.088968 
L 125.444055 76.372646 
L 127.783956 82.119083 
L 130.123856 87.044601 
L 132.463757 92.791038 
L 134.803657 91.970118 
L 137.143558 90.328279 
L 139.483458 90.328279 
L 141.823359 90.328279 
L 144.163259 91.149199 
L 146.50316 90.328279 
L 148.84306 87.86552 
L 151.182961 100.179314 
" style="fill:none;stroke:#e377c2;stroke-linecap:square;stroke-opacity:0.5;"/>
   </g>
   <g id="line2d_36">
    <path clip-path="url(#pc5983ab93c)" d="M 50.567238 44.356783 
L 52.907138 45.177702 
L 55.247039 45.998622 
L 57.58694 45.177702 
L 59.92684 45.177702 
L 62.266741 47.640461 
L 64.606641 50.924139 
L 66.946542 46.819542 
L 69.286442 46.819542 
L 71.626343 60.775174 
L 73.966243 55.028737 
L 76.306144 48.461381 
L 78.646044 47.640461 
L 80.985945 48.461381 
L 83.325845 45.177702 
L 85.665746 43.535863 
L 88.005647 44.356783 
L 90.345547 44.356783 
L 92.685448 44.356783 
L 95.025348 44.356783 
L 97.365249 45.177702 
L 99.705149 44.356783 
L 102.04505 43.535863 
L 104.38495 45.177702 
L 106.724851 45.177702 
L 109.064751 45.177702 
L 111.404652 45.998622 
L 113.744552 47.640461 
L 116.084453 46.819542 
L 118.424354 48.461381 
L 120.764254 59.133335 
L 123.104155 64.879772 
L 125.444055 68.98437 
L 127.783956 71.447129 
L 130.123856 73.909888 
L 132.463757 69.80529 
L 134.803657 72.268048 
L 137.143558 78.014485 
L 139.483458 79.656325 
L 141.823359 79.656325 
L 144.163259 80.477244 
L 146.50316 80.477244 
L 148.84306 71.447129 
L 151.182961 76.372646 
" style="fill:none;stroke:#bcbd22;stroke-linecap:square;stroke-opacity:0.5;"/>
   </g>
   <g id="line2d_37">
    <path clip-path="url(#pc5983ab93c)" d="M 50.567238 45.177702 
L 52.907138 44.356783 
L 55.247039 44.356783 
L 57.58694 43.535863 
L 59.92684 43.535863 
L 62.266741 43.535863 
L 64.606641 42.714944 
L 66.946542 44.356783 
L 69.286442 44.356783 
L 71.626343 41.073105 
L 73.966243 41.073105 
L 76.306144 42.714944 
L 78.646044 42.714944 
L 80.985945 42.714944 
L 83.325845 43.535863 
L 85.665746 44.356783 
L 88.005647 44.356783 
L 90.345547 43.535863 
L 92.685448 43.535863 
L 95.025348 43.535863 
L 97.365249 42.714944 
L 99.705149 43.535863 
L 102.04505 44.356783 
L 104.38495 43.535863 
L 106.724851 41.894024 
L 109.064751 42.714944 
L 111.404652 42.714944 
L 113.744552 41.073105 
L 116.084453 41.073105 
L 118.424354 42.714944 
L 120.764254 39.431265 
L 123.104155 36.147587 
L 125.444055 35.326668 
L 127.783956 32.863909 
L 130.123856 31.22207 
L 132.463757 33.684828 
L 134.803657 36.147587 
L 137.143558 31.22207 
L 139.483458 29.580231 
L 141.823359 29.580231 
L 144.163259 29.580231 
L 146.50316 28.759311 
L 148.84306 34.505748 
L 151.182961 35.326668 
" style="fill:none;stroke:#17becf;stroke-linecap:square;stroke-opacity:0.5;"/>
   </g>
   <g id="patch_72">
    <path d="M 42.05 126.44874 
L 42.05 11.52 
" style="fill:none;stroke:#000000;stroke-linecap:square;stroke-linejoin:miter;stroke-width:0.8;"/>
   </g>
   <g id="patch_73">
    <path d="M 208.83811 126.44874 
L 208.83811 11.52 
" style="fill:none;stroke:#000000;stroke-linecap:square;stroke-linejoin:miter;stroke-width:0.8;"/>
   </g>
   <g id="patch_74">
    <path d="M 42.05 126.44874 
L 208.83811 126.44874 
" style="fill:none;stroke:#000000;stroke-linecap:square;stroke-linejoin:miter;stroke-width:0.8;"/>
   </g>
   <g id="patch_75">
    <path d="M 42.05 11.52 
L 208.83811 11.52 
" style="fill:none;stroke:#000000;stroke-linecap:square;stroke-linejoin:miter;stroke-width:0.8;"/>
   </g>
  </g>
 </g>
 <defs>
  <clipPath id="pc5983ab93c">
   <rect height="114.92874" width="166.78811" x="42.05" y="11.52"/>
  </clipPath>
 </defs>
</svg>
