<?xml version="1.0" encoding="utf-8" standalone="no"?>
<!DOCTYPE svg PUBLIC "-//W3C//DTD SVG 1.1//EN"
  "http://www.w3.org/Graphics/SVG/1.1/DTD/svg11.dtd">
<!-- Created with matplotlib (https://matplotlib.org/) -->
<svg height="170.07874pt" version="1.1" viewBox="0 0 255.11811 170.07874" width="255.11811pt" xmlns="http://www.w3.org/2000/svg" xmlns:xlink="http://www.w3.org/1999/xlink">
 <defs>
  <style type="text/css">
*{stroke-linecap:butt;stroke-linejoin:round;}
  </style>
 </defs>
 <g id="figure_1">
  <g id="patch_1">
   <path d="M 0 170.07874 
L 255.11811 170.07874 
L 255.11811 0 
L 0 0 
z
" style="fill:#ffffff;"/>
  </g>
  <g id="axes_1">
   <g id="patch_2">
    <path d="M 52.13 126.44874 
L 208.83811 126.44874 
L 208.83811 11.52 
L 52.13 11.52 
z
" style="fill:#ffffff;"/>
   </g>
   <g id="PolyCollection_1">
    <defs>
     <path d="M 60.13249 -43.707642 
L 60.13249 -43.636023 
L 62.330977 -43.636023 
L 64.529463 -43.636023 
L 66.72795 -43.636023 
L 68.926436 -43.636023 
L 71.124922 -43.636023 
L 73.323409 -43.643581 
L 75.521895 -43.644734 
L 77.720382 -43.657206 
L 79.918868 -43.650515 
L 82.117354 -43.661813 
L 84.315841 -43.672462 
L 86.514327 -43.689787 
L 88.712814 -43.731907 
L 90.9113 -43.739079 
L 93.109786 -43.870379 
L 95.308273 -43.862578 
L 97.506759 -43.92851 
L 99.705246 -43.998483 
L 101.903732 -44.076442 
L 104.102218 -44.22451 
L 106.300705 -44.354965 
L 108.499191 -45.495405 
L 110.697678 -44.948976 
L 112.896164 -45.142171 
L 115.09465 -45.978404 
L 117.293137 -47.043662 
L 119.491623 -49.929714 
L 121.69011 -49.596698 
L 123.888596 -52.598697 
L 126.087082 -57.372531 
L 128.285569 -56.777524 
L 130.484055 -57.393696 
L 132.682542 -56.622702 
L 134.881028 -59.27365 
L 137.079514 -50.839549 
L 139.278001 -48.492888 
L 141.476487 -55.304771 
L 143.674973 -53.990178 
L 145.87346 -53.769372 
L 148.071946 -54.419695 
L 150.270433 -55.209967 
L 152.468919 -52.345969 
L 154.667405 -45.704885 
L 154.667405 -91.632745 
L 154.667405 -91.632745 
L 152.468919 -122.325914 
L 150.270433 -123.526349 
L 148.071946 -110.13524 
L 145.87346 -99.7885 
L 143.674973 -93.294722 
L 141.476487 -90.423082 
L 139.278001 -70.524052 
L 137.079514 -71.670357 
L 134.881028 -85.110824 
L 132.682542 -75.20097 
L 130.484055 -74.92637 
L 128.285569 -71.536724 
L 126.087082 -76.111757 
L 123.888596 -60.259002 
L 121.69011 -53.999283 
L 119.491623 -55.174055 
L 117.293137 -49.604472 
L 115.09465 -48.020678 
L 112.896164 -46.772545 
L 110.697678 -46.367942 
L 108.499191 -47.556131 
L 106.300705 -45.391915 
L 104.102218 -45.111066 
L 101.903732 -44.830198 
L 99.705246 -44.665446 
L 97.506759 -44.532246 
L 95.308273 -44.404782 
L 93.109786 -44.506469 
L 90.9113 -44.088541 
L 88.712814 -44.093204 
L 86.514327 -43.932987 
L 84.315841 -43.867537 
L 82.117354 -43.825461 
L 79.918868 -43.773306 
L 77.720382 -43.826833 
L 75.521895 -43.747103 
L 73.323409 -43.740007 
L 71.124922 -43.707642 
L 68.926436 -43.707642 
L 66.72795 -43.707642 
L 64.529463 -43.707642 
L 62.330977 -43.707642 
L 60.13249 -43.707642 
z
" id="m2567fe1ce5" style="stroke:#6495ed;stroke-opacity:0.4;"/>
    </defs>
    <g clip-path="url(#p8af8a5b6c7)">
     <use style="fill:#6495ed;fill-opacity:0.4;stroke:#6495ed;stroke-opacity:0.4;" x="0" xlink:href="#m2567fe1ce5" y="170.07874"/>
    </g>
   </g>
   <g id="PolyCollection_2">
    <defs>
     <path d="M 60.13249 -43.666344 
L 60.13249 -43.645298 
L 62.330977 -43.645298 
L 64.529463 -43.645298 
L 66.72795 -43.645298 
L 68.926436 -43.645298 
L 71.124922 -43.645298 
L 73.323409 -43.659403 
L 75.521895 -43.661403 
L 77.720382 -43.686126 
L 79.918868 -43.671509 
L 82.117354 -43.691374 
L 84.315841 -43.709108 
L 86.514327 -43.738003 
L 88.712814 -43.80733 
L 90.9113 -43.815449 
L 93.109786 -44.01266 
L 95.308273 -43.99128 
L 97.506759 -44.075055 
L 99.705246 -44.162935 
L 101.903732 -44.263333 
L 104.102218 -44.452775 
L 106.300705 -44.623107 
L 108.499191 -46.042571 
L 110.697678 -45.319679 
L 112.896164 -45.562668 
L 115.09465 -46.520129 
L 117.293137 -47.708863 
L 119.491623 -51.374416 
L 121.69011 -50.729829 
L 123.888596 -54.554733 
L 126.087082 -62.202829 
L 128.285569 -60.565697 
L 130.484055 -61.951928 
L 132.682542 -61.221159 
L 134.881028 -65.554784 
L 137.079514 -55.088422 
L 139.278001 -52.094951 
L 141.476487 -62.297013 
L 143.674973 -61.135686 
L 145.87346 -61.534855 
L 148.071946 -63.337343 
L 150.270433 -65.544203 
L 152.468919 -61.29073 
L 154.667405 -49.160343 
L 154.667405 -59.673804 
L 154.667405 -59.673804 
L 152.468919 -80.421687 
L 150.270433 -84.510481 
L 148.071946 -79.373044 
L 145.87346 -74.900627 
L 143.674973 -72.800334 
L 141.476487 -73.070151 
L 139.278001 -58.62752 
L 137.079514 -61.601263 
L 134.881028 -74.286278 
L 132.682542 -67.477678 
L 130.484055 -67.823634 
L 128.285569 -65.591099 
L 126.087082 -68.363978 
L 123.888596 -57.135818 
L 121.69011 -52.198115 
L 119.491623 -53.113753 
L 117.293137 -48.577446 
L 115.09465 -47.199799 
L 112.896164 -46.098741 
L 110.697678 -45.786016 
L 108.499191 -46.742378 
L 106.300705 -44.961328 
L 104.102218 -44.747583 
L 101.903732 -44.513385 
L 99.705246 -44.384836 
L 97.506759 -44.27741 
L 95.308273 -44.171884 
L 93.109786 -44.225218 
L 90.9113 -43.93112 
L 88.712814 -43.925421 
L 86.514327 -43.817885 
L 84.315841 -43.773034 
L 82.117354 -43.744293 
L 79.918868 -43.711767 
L 77.720382 -43.739525 
L 75.521895 -43.693718 
L 73.323409 -43.689421 
L 71.124922 -43.666344 
L 68.926436 -43.666344 
L 66.72795 -43.666344 
L 64.529463 -43.666344 
L 62.330977 -43.666344 
L 60.13249 -43.666344 
z
" id="meea22096b2" style="stroke:#6495ed;stroke-opacity:0.6;"/>
    </defs>
    <g clip-path="url(#p8af8a5b6c7)">
     <use style="fill:#6495ed;fill-opacity:0.6;stroke:#6495ed;stroke-opacity:0.6;" x="0" xlink:href="#meea22096b2" y="170.07874"/>
    </g>
   </g>
   <g id="PolyCollection_3">
    <defs>
     <path d="M 154.667405 -91.632745 
L 154.667405 -45.704885 
L 156.865892 -45.643336 
L 159.064378 -45.512331 
L 161.262865 -45.324802 
L 163.461351 -45.125612 
L 165.659837 -44.92321 
L 167.858324 -44.733778 
L 170.05681 -44.563574 
L 172.255297 -44.415486 
L 174.453783 -44.288243 
L 176.652269 -44.178126 
L 178.850756 -44.088245 
L 181.049242 -44.011003 
L 183.247729 -43.946672 
L 185.446215 -43.892715 
L 187.644701 -43.847032 
L 189.843188 -43.810699 
L 192.041674 -43.780819 
L 194.240161 -43.755919 
L 196.438647 -43.73479 
L 198.637133 -43.71701 
L 200.83562 -43.701647 
L 200.83562 -158.55874 
L 200.83562 -158.55874 
L 198.637133 -155.697512 
L 196.438647 -153.629192 
L 194.240161 -150.48228 
L 192.041674 -146.625942 
L 189.843188 -143.809405 
L 187.644701 -140.437526 
L 185.446215 -136.281521 
L 183.247729 -132.768748 
L 181.049242 -131.036279 
L 178.850756 -127.550313 
L 176.652269 -124.49929 
L 174.453783 -121.991521 
L 172.255297 -118.923029 
L 170.05681 -116.563964 
L 167.858324 -114.248835 
L 165.659837 -111.833162 
L 163.461351 -108.347486 
L 161.262865 -105.337565 
L 159.064378 -101.936573 
L 156.865892 -97.548099 
L 154.667405 -91.632745 
z
" id="mb0b7cd4085" style="stroke:#228b22;stroke-opacity:0.4;"/>
    </defs>
    <g clip-path="url(#p8af8a5b6c7)">
     <use style="fill:#228b22;fill-opacity:0.4;stroke:#228b22;stroke-opacity:0.4;" x="0" xlink:href="#mb0b7cd4085" y="170.07874"/>
    </g>
   </g>
   <g id="PolyCollection_4">
    <defs>
     <path d="M 154.667405 -59.673804 
L 154.667405 -49.160343 
L 156.865892 -49.2437 
L 159.064378 -49.08322 
L 161.262865 -48.738323 
L 163.461351 -48.266614 
L 165.659837 -47.797729 
L 167.858324 -47.324177 
L 170.05681 -46.886612 
L 172.255297 -46.488777 
L 174.453783 -46.130627 
L 176.652269 -45.815131 
L 178.850756 -45.541604 
L 181.049242 -45.297136 
L 183.247729 -45.084971 
L 185.446215 -44.898774 
L 187.644701 -44.732264 
L 189.843188 -44.590207 
L 192.041674 -44.467362 
L 194.240161 -44.357257 
L 196.438647 -44.2626 
L 198.637133 -44.181402 
L 200.83562 -44.112577 
L 200.83562 -49.716 
L 200.83562 -49.716 
L 198.637133 -50.068427 
L 196.438647 -50.434073 
L 194.240161 -50.843138 
L 192.041674 -51.27691 
L 189.843188 -51.761471 
L 187.644701 -52.273528 
L 185.446215 -52.819196 
L 183.247729 -53.394174 
L 181.049242 -54.02697 
L 178.850756 -54.618878 
L 176.652269 -55.278046 
L 174.453783 -56.036986 
L 172.255297 -56.739141 
L 170.05681 -57.647355 
L 167.858324 -58.520411 
L 165.659837 -59.411503 
L 163.461351 -60.18665 
L 161.262865 -60.830625 
L 159.064378 -61.093922 
L 156.865892 -60.734741 
L 154.667405 -59.673804 
z
" id="m491052645f" style="stroke:#228b22;stroke-opacity:0.6;"/>
    </defs>
    <g clip-path="url(#p8af8a5b6c7)">
     <use style="fill:#228b22;fill-opacity:0.6;stroke:#228b22;stroke-opacity:0.6;" x="0" xlink:href="#m491052645f" y="170.07874"/>
    </g>
   </g>
   <g id="PathCollection_1">
    <defs>
     <path d="M -0.866025 1.732051 
L 0 0.866025 
L 0.866025 1.732051 
L 1.732051 0.866025 
L 0.866025 0 
L 1.732051 -0.866025 
L 0.866025 -1.732051 
L 0 -0.866025 
L -0.866025 -1.732051 
L -1.732051 -0.866025 
L -0.866025 0 
L -1.732051 0.866025 
z
" id="m4fea72d2b5" style="stroke:#8a2be2;"/>
    </defs>
    <g clip-path="url(#p8af8a5b6c7)">
     <use style="fill:#8a2be2;stroke:#8a2be2;" x="139.278001" xlink:href="#m4fea72d2b5" y="23.012874"/>
    </g>
   </g>
   <g id="PathCollection_2">
    <defs>
     <path d="M 0 -1.732051 
L -0.38887 -0.535233 
L -1.647278 -0.535233 
L -0.629204 0.204441 
L -1.018074 1.401259 
L -0 0.661585 
L 1.018074 1.401259 
L 0.629204 0.204441 
L 1.647278 -0.535233 
L 0.38887 -0.535233 
z
" id="m24614b1206" style="stroke:#000000;"/>
    </defs>
    <g clip-path="url(#p8af8a5b6c7)">
     <use style="stroke:#000000;" x="121.69011" xlink:href="#m24614b1206" y="23.012874"/>
    </g>
   </g>
   <g id="PathCollection_3">
    <defs>
     <path d="M -1.732051 1.732051 
L 1.732051 1.732051 
L 1.732051 -1.732051 
L -1.732051 -1.732051 
z
" id="mebd3e30bf9" style="stroke:#c71585;"/>
    </defs>
    <g clip-path="url(#p8af8a5b6c7)">
     <use style="fill:#c71585;stroke:#c71585;" x="139.278001" xlink:href="#mebd3e30bf9" y="28.184667"/>
    </g>
   </g>
   <g id="PathCollection_4">
    <defs>
     <path d="M 0 -1.732051 
L -1.647278 -0.535233 
L -1.018074 1.401259 
L 1.018074 1.401259 
L 1.647278 -0.535233 
z
" id="m7d259adad4" style="stroke:#800000;"/>
    </defs>
    <g clip-path="url(#p8af8a5b6c7)">
     <use style="fill:#800000;stroke:#800000;" x="117.293137" xlink:href="#m7d259adad4" y="23.012874"/>
    </g>
   </g>
   <g id="PathCollection_5">
    <defs>
     <path d="M -0 2.44949 
L 1.469694 0 
L 0 -2.44949 
L -1.469694 -0 
z
" id="me5561d6119" style="stroke:#556b2f;"/>
    </defs>
    <g clip-path="url(#p8af8a5b6c7)">
     <use style="fill:#556b2f;stroke:#556b2f;" x="104.102218" xlink:href="#me5561d6119" y="23.012874"/>
    </g>
   </g>
   <g id="patch_3">
    <path clip-path="url(#p8af8a5b6c7)" d="M 59.253096 126.44874 
L 61.011885 126.44874 
L 61.011885 126.44874 
L 59.253096 126.44874 
z
" style="fill:#1f77b4;opacity:0.5;"/>
   </g>
   <g id="patch_4">
    <path clip-path="url(#p8af8a5b6c7)" d="M 61.451582 126.44874 
L 63.210371 126.44874 
L 63.210371 126.44874 
L 61.451582 126.44874 
z
" style="fill:#1f77b4;opacity:0.5;"/>
   </g>
   <g id="patch_5">
    <path clip-path="url(#p8af8a5b6c7)" d="M 63.650069 126.44874 
L 65.408858 126.44874 
L 65.408858 126.44874 
L 63.650069 126.44874 
z
" style="fill:#1f77b4;opacity:0.5;"/>
   </g>
   <g id="patch_6">
    <path clip-path="url(#p8af8a5b6c7)" d="M 65.848555 126.44874 
L 67.607344 126.44874 
L 67.607344 126.44874 
L 65.848555 126.44874 
z
" style="fill:#1f77b4;opacity:0.5;"/>
   </g>
   <g id="patch_7">
    <path clip-path="url(#p8af8a5b6c7)" d="M 68.047041 126.44874 
L 69.805831 126.44874 
L 69.805831 126.44874 
L 68.047041 126.44874 
z
" style="fill:#1f77b4;opacity:0.5;"/>
   </g>
   <g id="patch_8">
    <path clip-path="url(#p8af8a5b6c7)" d="M 70.245528 126.44874 
L 72.004317 126.44874 
L 72.004317 126.44874 
L 70.245528 126.44874 
z
" style="fill:#1f77b4;opacity:0.5;"/>
   </g>
   <g id="patch_9">
    <path clip-path="url(#p8af8a5b6c7)" d="M 72.444014 126.44874 
L 74.202803 126.44874 
L 74.202803 126.44874 
L 72.444014 126.44874 
z
" style="fill:#1f77b4;opacity:0.5;"/>
   </g>
   <g id="patch_10">
    <path clip-path="url(#p8af8a5b6c7)" d="M 74.642501 126.44874 
L 76.40129 126.44874 
L 76.40129 126.44874 
L 74.642501 126.44874 
z
" style="fill:#1f77b4;opacity:0.5;"/>
   </g>
   <g id="patch_11">
    <path clip-path="url(#p8af8a5b6c7)" d="M 76.840987 126.44874 
L 78.599776 126.44874 
L 78.599776 126.44874 
L 76.840987 126.44874 
z
" style="fill:#1f77b4;opacity:0.5;"/>
   </g>
   <g id="patch_12">
    <path clip-path="url(#p8af8a5b6c7)" d="M 79.039473 126.44874 
L 80.798263 126.44874 
L 80.798263 126.44874 
L 79.039473 126.44874 
z
" style="fill:#1f77b4;opacity:0.5;"/>
   </g>
   <g id="patch_13">
    <path clip-path="url(#p8af8a5b6c7)" d="M 81.23796 126.44874 
L 82.996749 126.44874 
L 82.996749 126.44874 
L 81.23796 126.44874 
z
" style="fill:#1f77b4;opacity:0.5;"/>
   </g>
   <g id="patch_14">
    <path clip-path="url(#p8af8a5b6c7)" d="M 83.436446 126.44874 
L 85.195235 126.44874 
L 85.195235 126.44534 
L 83.436446 126.44534 
z
" style="fill:#1f77b4;opacity:0.5;"/>
   </g>
   <g id="patch_15">
    <path clip-path="url(#p8af8a5b6c7)" d="M 85.634933 126.44874 
L 87.393722 126.44874 
L 87.393722 126.441939 
L 85.634933 126.441939 
z
" style="fill:#1f77b4;opacity:0.5;"/>
   </g>
   <g id="patch_16">
    <path clip-path="url(#p8af8a5b6c7)" d="M 87.833419 126.44874 
L 89.592208 126.44874 
L 89.592208 126.404534 
L 87.833419 126.404534 
z
" style="fill:#1f77b4;opacity:0.5;"/>
   </g>
   <g id="patch_17">
    <path clip-path="url(#p8af8a5b6c7)" d="M 90.031905 126.44874 
L 91.790695 126.44874 
L 91.790695 126.431738 
L 90.031905 126.431738 
z
" style="fill:#1f77b4;opacity:0.5;"/>
   </g>
   <g id="patch_18">
    <path clip-path="url(#p8af8a5b6c7)" d="M 92.230392 126.44874 
L 93.989181 126.44874 
L 93.989181 126.356927 
L 92.230392 126.356927 
z
" style="fill:#1f77b4;opacity:0.5;"/>
   </g>
   <g id="patch_19">
    <path clip-path="url(#p8af8a5b6c7)" d="M 94.428878 126.44874 
L 96.187667 126.44874 
L 96.187667 126.418136 
L 94.428878 126.418136 
z
" style="fill:#1f77b4;opacity:0.5;"/>
   </g>
   <g id="patch_20">
    <path clip-path="url(#p8af8a5b6c7)" d="M 96.627365 126.44874 
L 98.386154 126.44874 
L 98.386154 126.401133 
L 96.627365 126.401133 
z
" style="fill:#1f77b4;opacity:0.5;"/>
   </g>
   <g id="patch_21">
    <path clip-path="url(#p8af8a5b6c7)" d="M 98.825851 126.44874 
L 100.58464 126.44874 
L 100.58464 126.382431 
L 98.825851 126.382431 
z
" style="fill:#1f77b4;opacity:0.5;"/>
   </g>
   <g id="patch_22">
    <path clip-path="url(#p8af8a5b6c7)" d="M 101.024337 126.44874 
L 102.783127 126.44874 
L 102.783127 126.336524 
L 101.024337 126.336524 
z
" style="fill:#1f77b4;opacity:0.5;"/>
   </g>
   <g id="patch_23">
    <path clip-path="url(#p8af8a5b6c7)" d="M 103.222824 126.44874 
L 104.981613 126.44874 
L 104.981613 126.214106 
L 103.222824 126.214106 
z
" style="fill:#1f77b4;opacity:0.5;"/>
   </g>
   <g id="patch_24">
    <path clip-path="url(#p8af8a5b6c7)" d="M 105.42131 126.44874 
L 107.180099 126.44874 
L 107.180099 125.96587 
L 105.42131 125.96587 
z
" style="fill:#1f77b4;opacity:0.5;"/>
   </g>
   <g id="patch_25">
    <path clip-path="url(#p8af8a5b6c7)" d="M 107.619797 126.44874 
L 109.378586 126.44874 
L 109.378586 126.1716 
L 107.619797 126.1716 
z
" style="fill:#1f77b4;opacity:0.5;"/>
   </g>
   <g id="patch_26">
    <path clip-path="url(#p8af8a5b6c7)" d="M 109.818283 126.44874 
L 111.577072 126.44874 
L 111.577072 126.355227 
L 109.818283 126.355227 
z
" style="fill:#1f77b4;opacity:0.5;"/>
   </g>
   <g id="patch_27">
    <path clip-path="url(#p8af8a5b6c7)" d="M 112.016769 126.44874 
L 113.775559 126.44874 
L 113.775559 126.045781 
L 112.016769 126.045781 
z
" style="fill:#1f77b4;opacity:0.5;"/>
   </g>
   <g id="patch_28">
    <path clip-path="url(#p8af8a5b6c7)" d="M 114.215256 126.44874 
L 115.974045 126.44874 
L 115.974045 126.181801 
L 114.215256 126.181801 
z
" style="fill:#1f77b4;opacity:0.5;"/>
   </g>
   <g id="patch_29">
    <path clip-path="url(#p8af8a5b6c7)" d="M 116.413742 126.44874 
L 118.172531 126.44874 
L 118.172531 125.987973 
L 116.413742 125.987973 
z
" style="fill:#1f77b4;opacity:0.5;"/>
   </g>
   <g id="patch_30">
    <path clip-path="url(#p8af8a5b6c7)" d="M 118.612229 126.44874 
L 120.371018 126.44874 
L 120.371018 125.085142 
L 118.612229 125.085142 
z
" style="fill:#1f77b4;opacity:0.5;"/>
   </g>
   <g id="patch_31">
    <path clip-path="url(#p8af8a5b6c7)" d="M 120.810715 126.44874 
L 122.569504 126.44874 
L 122.569504 125.270469 
L 120.810715 125.270469 
z
" style="fill:#1f77b4;opacity:0.5;"/>
   </g>
   <g id="patch_32">
    <path clip-path="url(#p8af8a5b6c7)" d="M 123.009201 126.44874 
L 124.76799 126.44874 
L 124.76799 125.202459 
L 123.009201 125.202459 
z
" style="fill:#1f77b4;opacity:0.5;"/>
   </g>
   <g id="patch_33">
    <path clip-path="url(#p8af8a5b6c7)" d="M 125.207688 126.44874 
L 126.966477 126.44874 
L 126.966477 124.675382 
L 125.207688 124.675382 
z
" style="fill:#1f77b4;opacity:0.5;"/>
   </g>
   <g id="patch_34">
    <path clip-path="url(#p8af8a5b6c7)" d="M 127.406174 126.44874 
L 129.164963 126.44874 
L 129.164963 124.452649 
L 127.406174 124.452649 
z
" style="fill:#1f77b4;opacity:0.5;"/>
   </g>
   <g id="patch_35">
    <path clip-path="url(#p8af8a5b6c7)" d="M 129.604661 126.44874 
L 131.36345 126.44874 
L 131.36345 124.503657 
L 129.604661 124.503657 
z
" style="fill:#1f77b4;opacity:0.5;"/>
   </g>
   <g id="patch_36">
    <path clip-path="url(#p8af8a5b6c7)" d="M 131.803147 126.44874 
L 133.561936 126.44874 
L 133.561936 124.677082 
L 131.803147 124.677082 
z
" style="fill:#1f77b4;opacity:0.5;"/>
   </g>
   <g id="patch_37">
    <path clip-path="url(#p8af8a5b6c7)" d="M 134.001633 126.44874 
L 135.760422 126.44874 
L 135.760422 116.349269 
L 134.001633 116.349269 
z
" style="fill:#1f77b4;opacity:0.5;"/>
   </g>
   <g id="patch_38">
    <path clip-path="url(#p8af8a5b6c7)" d="M 136.20012 126.44874 
L 137.958909 126.44874 
L 137.958909 119.564438 
L 136.20012 119.564438 
z
" style="fill:#1f77b4;opacity:0.5;"/>
   </g>
   <g id="patch_39">
    <path clip-path="url(#p8af8a5b6c7)" d="M 138.398606 126.44874 
L 140.157395 126.44874 
L 140.157395 120.878729 
L 138.398606 120.878729 
z
" style="fill:#1f77b4;opacity:0.5;"/>
   </g>
   <g id="patch_40">
    <path clip-path="url(#p8af8a5b6c7)" d="M 140.597093 126.44874 
L 142.355882 126.44874 
L 142.355882 120.81922 
L 140.597093 120.81922 
z
" style="fill:#1f77b4;opacity:0.5;"/>
   </g>
   <g id="patch_41">
    <path clip-path="url(#p8af8a5b6c7)" d="M 142.795579 126.44874 
L 144.554368 126.44874 
L 144.554368 118.903041 
L 142.795579 118.903041 
z
" style="fill:#1f77b4;opacity:0.5;"/>
   </g>
   <g id="patch_42">
    <path clip-path="url(#p8af8a5b6c7)" d="M 144.994065 126.44874 
L 146.752854 126.44874 
L 146.752854 122.46676 
L 144.994065 122.46676 
z
" style="fill:#1f77b4;opacity:0.5;"/>
   </g>
   <g id="patch_43">
    <path clip-path="url(#p8af8a5b6c7)" d="M 147.192552 126.44874 
L 148.951341 126.44874 
L 148.951341 118.025714 
L 147.192552 118.025714 
z
" style="fill:#1f77b4;opacity:0.5;"/>
   </g>
   <g id="patch_44">
    <path clip-path="url(#p8af8a5b6c7)" d="M 149.391038 126.44874 
L 151.149827 126.44874 
L 151.149827 116.621309 
L 149.391038 116.621309 
z
" style="fill:#1f77b4;opacity:0.5;"/>
   </g>
   <g id="patch_45">
    <path clip-path="url(#p8af8a5b6c7)" d="M 151.589525 126.44874 
L 153.348314 126.44874 
L 153.348314 115.747382 
L 151.589525 115.747382 
z
" style="fill:#1f77b4;opacity:0.5;"/>
   </g>
   <g id="patch_46">
    <path clip-path="url(#p8af8a5b6c7)" d="M 153.788011 126.44874 
L 155.5468 126.44874 
L 155.5468 119.707258 
L 153.788011 119.707258 
z
" style="fill:#1f77b4;opacity:0.5;"/>
   </g>
   <g id="patch_47">
    <path clip-path="url(#p8af8a5b6c7)" d="M 155.986497 126.44874 
L 157.745286 126.44874 
L 157.745286 118.370864 
L 155.986497 118.370864 
z
" style="fill:#1f77b4;opacity:0.5;"/>
   </g>
   <g id="patch_48">
    <path clip-path="url(#p8af8a5b6c7)" d="M 158.184984 126.44874 
L 159.943773 126.44874 
L 159.943773 118.602097 
L 158.184984 118.602097 
z
" style="fill:#1f77b4;opacity:0.5;"/>
   </g>
   <g id="patch_49">
    <path clip-path="url(#p8af8a5b6c7)" d="M 160.38347 126.44874 
L 162.142259 126.44874 
L 162.142259 117.17729 
L 160.38347 117.17729 
z
" style="fill:#1f77b4;opacity:0.5;"/>
   </g>
   <g id="patch_50">
    <path clip-path="url(#p8af8a5b6c7)" d="M 162.581956 126.44874 
L 164.340746 126.44874 
L 164.340746 115.982016 
L 162.581956 115.982016 
z
" style="fill:#1f77b4;opacity:0.5;"/>
   </g>
   <g id="patch_51">
    <path clip-path="url(#p8af8a5b6c7)" d="M 164.780443 126.44874 
L 166.539232 126.44874 
L 166.539232 115.951411 
L 164.780443 115.951411 
z
" style="fill:#1f77b4;opacity:0.5;"/>
   </g>
   <g id="patch_52">
    <path clip-path="url(#p8af8a5b6c7)" d="M 166.978929 126.44874 
L 168.737718 126.44874 
L 168.737718 116.107834 
L 166.978929 116.107834 
z
" style="fill:#1f77b4;opacity:0.5;"/>
   </g>
   <g id="patch_53">
    <path clip-path="url(#p8af8a5b6c7)" d="M 169.177416 126.44874 
L 170.936205 126.44874 
L 170.936205 116.35607 
L 169.177416 116.35607 
z
" style="fill:#1f77b4;opacity:0.5;"/>
   </g>
   <g id="patch_54">
    <path clip-path="url(#p8af8a5b6c7)" d="M 171.375902 126.44874 
L 173.134691 126.44874 
L 173.134691 120.19693 
L 171.375902 120.19693 
z
" style="fill:#1f77b4;opacity:0.5;"/>
   </g>
   <g id="patch_55">
    <path clip-path="url(#p8af8a5b6c7)" d="M 173.574388 126.44874 
L 175.333178 126.44874 
L 175.333178 119.929991 
L 173.574388 119.929991 
z
" style="fill:#1f77b4;opacity:0.5;"/>
   </g>
   <g id="patch_56">
    <path clip-path="url(#p8af8a5b6c7)" d="M 175.772875 126.44874 
L 177.531664 126.44874 
L 177.531664 119.642649 
L 175.772875 119.642649 
z
" style="fill:#1f77b4;opacity:0.5;"/>
   </g>
   <g id="patch_57">
    <path clip-path="url(#p8af8a5b6c7)" d="M 177.971361 126.44874 
L 179.73015 126.44874 
L 179.73015 117.991709 
L 177.971361 117.991709 
z
" style="fill:#1f77b4;opacity:0.5;"/>
   </g>
   <g id="patch_58">
    <path clip-path="url(#p8af8a5b6c7)" d="M 180.169848 126.44874 
L 181.928637 126.44874 
L 181.928637 117.398322 
L 180.169848 117.398322 
z
" style="fill:#1f77b4;opacity:0.5;"/>
   </g>
   <g id="patch_59">
    <path clip-path="url(#p8af8a5b6c7)" d="M 182.368334 126.44874 
L 184.127123 126.44874 
L 184.127123 119.421617 
L 182.368334 119.421617 
z
" style="fill:#1f77b4;opacity:0.5;"/>
   </g>
   <g id="patch_60">
    <path clip-path="url(#p8af8a5b6c7)" d="M 184.56682 126.44874 
L 186.32561 126.44874 
L 186.32561 121.652342 
L 184.56682 121.652342 
z
" style="fill:#1f77b4;opacity:0.5;"/>
   </g>
   <g id="patch_61">
    <path clip-path="url(#p8af8a5b6c7)" d="M 186.765307 126.44874 
L 188.524096 126.44874 
L 188.524096 122.135212 
L 186.765307 122.135212 
z
" style="fill:#1f77b4;opacity:0.5;"/>
   </g>
   <g id="patch_62">
    <path clip-path="url(#p8af8a5b6c7)" d="M 188.963793 126.44874 
L 190.722582 126.44874 
L 190.722582 122.908825 
L 188.963793 122.908825 
z
" style="fill:#1f77b4;opacity:0.5;"/>
   </g>
   <g id="patch_63">
    <path clip-path="url(#p8af8a5b6c7)" d="M 191.16228 126.44874 
L 192.921069 126.44874 
L 192.921069 122.221925 
L 191.16228 122.221925 
z
" style="fill:#1f77b4;opacity:0.5;"/>
   </g>
   <g id="patch_64">
    <path clip-path="url(#p8af8a5b6c7)" d="M 193.360766 126.44874 
L 195.119555 126.44874 
L 195.119555 121.575831 
L 193.360766 121.575831 
z
" style="fill:#1f77b4;opacity:0.5;"/>
   </g>
   <g id="patch_65">
    <path clip-path="url(#p8af8a5b6c7)" d="M 195.559252 126.44874 
L 197.318042 126.44874 
L 197.318042 120.701903 
L 195.559252 120.701903 
z
" style="fill:#1f77b4;opacity:0.5;"/>
   </g>
   <g id="patch_66">
    <path clip-path="url(#p8af8a5b6c7)" d="M 197.757739 126.44874 
L 199.516528 126.44874 
L 199.516528 120.312547 
L 197.757739 120.312547 
z
" style="fill:#1f77b4;opacity:0.5;"/>
   </g>
   <g id="patch_67">
    <path clip-path="url(#p8af8a5b6c7)" d="M 199.956225 126.44874 
L 201.715014 126.44874 
L 201.715014 122.269532 
L 199.956225 122.269532 
z
" style="fill:#1f77b4;opacity:0.5;"/>
   </g>
   <g id="matplotlib.axis_1">
    <g id="xtick_1">
     <g id="line2d_1">
      <defs>
       <path d="M 0 0 
L 0 3.5 
" id="mbb02013cab" style="stroke:#000000;stroke-width:0.8;"/>
      </defs>
      <g>
       <use style="stroke:#000000;stroke-width:0.8;" x="200.83562" xlink:href="#mbb02013cab" y="126.44874"/>
      </g>
     </g>
     <g id="text_1">
      <!-- 19 Apr -->
      <defs>
       <path d="M 12.40625 8.296875 
L 28.515625 8.296875 
L 28.515625 63.921875 
L 10.984375 60.40625 
L 10.984375 69.390625 
L 28.421875 72.90625 
L 38.28125 72.90625 
L 38.28125 8.296875 
L 54.390625 8.296875 
L 54.390625 0 
L 12.40625 0 
z
" id="DejaVuSans-49"/>
       <path d="M 10.984375 1.515625 
L 10.984375 10.5 
Q 14.703125 8.734375 18.5 7.8125 
Q 22.3125 6.890625 25.984375 6.890625 
Q 35.75 6.890625 40.890625 13.453125 
Q 46.046875 20.015625 46.78125 33.40625 
Q 43.953125 29.203125 39.59375 26.953125 
Q 35.25 24.703125 29.984375 24.703125 
Q 19.046875 24.703125 12.671875 31.3125 
Q 6.296875 37.9375 6.296875 49.421875 
Q 6.296875 60.640625 12.9375 67.421875 
Q 19.578125 74.21875 30.609375 74.21875 
Q 43.265625 74.21875 49.921875 64.515625 
Q 56.59375 54.828125 56.59375 36.375 
Q 56.59375 19.140625 48.40625 8.859375 
Q 40.234375 -1.421875 26.421875 -1.421875 
Q 22.703125 -1.421875 18.890625 -0.6875 
Q 15.09375 0.046875 10.984375 1.515625 
z
M 30.609375 32.421875 
Q 37.25 32.421875 41.125 36.953125 
Q 45.015625 41.5 45.015625 49.421875 
Q 45.015625 57.28125 41.125 61.84375 
Q 37.25 66.40625 30.609375 66.40625 
Q 23.96875 66.40625 20.09375 61.84375 
Q 16.21875 57.28125 16.21875 49.421875 
Q 16.21875 41.5 20.09375 36.953125 
Q 23.96875 32.421875 30.609375 32.421875 
z
" id="DejaVuSans-57"/>
       <path id="DejaVuSans-32"/>
       <path d="M 34.1875 63.1875 
L 20.796875 26.90625 
L 47.609375 26.90625 
z
M 28.609375 72.90625 
L 39.796875 72.90625 
L 67.578125 0 
L 57.328125 0 
L 50.6875 18.703125 
L 17.828125 18.703125 
L 11.1875 0 
L 0.78125 0 
z
" id="DejaVuSans-65"/>
       <path d="M 18.109375 8.203125 
L 18.109375 -20.796875 
L 9.078125 -20.796875 
L 9.078125 54.6875 
L 18.109375 54.6875 
L 18.109375 46.390625 
Q 20.953125 51.265625 25.265625 53.625 
Q 29.59375 56 35.59375 56 
Q 45.5625 56 51.78125 48.09375 
Q 58.015625 40.1875 58.015625 27.296875 
Q 58.015625 14.40625 51.78125 6.484375 
Q 45.5625 -1.421875 35.59375 -1.421875 
Q 29.59375 -1.421875 25.265625 0.953125 
Q 20.953125 3.328125 18.109375 8.203125 
z
M 48.6875 27.296875 
Q 48.6875 37.203125 44.609375 42.84375 
Q 40.53125 48.484375 33.40625 48.484375 
Q 26.265625 48.484375 22.1875 42.84375 
Q 18.109375 37.203125 18.109375 27.296875 
Q 18.109375 17.390625 22.1875 11.75 
Q 26.265625 6.109375 33.40625 6.109375 
Q 40.53125 6.109375 44.609375 11.75 
Q 48.6875 17.390625 48.6875 27.296875 
z
" id="DejaVuSans-112"/>
       <path d="M 41.109375 46.296875 
Q 39.59375 47.171875 37.8125 47.578125 
Q 36.03125 48 33.890625 48 
Q 26.265625 48 22.1875 43.046875 
Q 18.109375 38.09375 18.109375 28.8125 
L 18.109375 0 
L 9.078125 0 
L 9.078125 54.6875 
L 18.109375 54.6875 
L 18.109375 46.1875 
Q 20.953125 51.171875 25.484375 53.578125 
Q 30.03125 56 36.53125 56 
Q 37.453125 56 38.578125 55.875 
Q 39.703125 55.765625 41.0625 55.515625 
z
" id="DejaVuSans-114"/>
      </defs>
      <g transform="translate(203.04312 160.01124)rotate(-90)scale(0.08 -0.08)">
       <use xlink:href="#DejaVuSans-49"/>
       <use x="63.623047" xlink:href="#DejaVuSans-57"/>
       <use x="127.246094" xlink:href="#DejaVuSans-32"/>
       <use x="159.033203" xlink:href="#DejaVuSans-65"/>
       <use x="227.441406" xlink:href="#DejaVuSans-112"/>
       <use x="290.917969" xlink:href="#DejaVuSans-114"/>
      </g>
     </g>
    </g>
    <g id="xtick_2">
     <g id="line2d_2">
      <g>
       <use style="stroke:#000000;stroke-width:0.8;" x="185.446215" xlink:href="#mbb02013cab" y="126.44874"/>
      </g>
     </g>
     <g id="text_2">
      <!-- 12 Apr -->
      <defs>
       <path d="M 19.1875 8.296875 
L 53.609375 8.296875 
L 53.609375 0 
L 7.328125 0 
L 7.328125 8.296875 
Q 12.9375 14.109375 22.625 23.890625 
Q 32.328125 33.6875 34.8125 36.53125 
Q 39.546875 41.84375 41.421875 45.53125 
Q 43.3125 49.21875 43.3125 52.78125 
Q 43.3125 58.59375 39.234375 62.25 
Q 35.15625 65.921875 28.609375 65.921875 
Q 23.96875 65.921875 18.8125 64.3125 
Q 13.671875 62.703125 7.8125 59.421875 
L 7.8125 69.390625 
Q 13.765625 71.78125 18.9375 73 
Q 24.125 74.21875 28.421875 74.21875 
Q 39.75 74.21875 46.484375 68.546875 
Q 53.21875 62.890625 53.21875 53.421875 
Q 53.21875 48.921875 51.53125 44.890625 
Q 49.859375 40.875 45.40625 35.40625 
Q 44.1875 33.984375 37.640625 27.21875 
Q 31.109375 20.453125 19.1875 8.296875 
z
" id="DejaVuSans-50"/>
      </defs>
      <g transform="translate(187.653715 160.01124)rotate(-90)scale(0.08 -0.08)">
       <use xlink:href="#DejaVuSans-49"/>
       <use x="63.623047" xlink:href="#DejaVuSans-50"/>
       <use x="127.246094" xlink:href="#DejaVuSans-32"/>
       <use x="159.033203" xlink:href="#DejaVuSans-65"/>
       <use x="227.441406" xlink:href="#DejaVuSans-112"/>
       <use x="290.917969" xlink:href="#DejaVuSans-114"/>
      </g>
     </g>
    </g>
    <g id="xtick_3">
     <g id="line2d_3">
      <g>
       <use style="stroke:#000000;stroke-width:0.8;" x="170.05681" xlink:href="#mbb02013cab" y="126.44874"/>
      </g>
     </g>
     <g id="text_3">
      <!-- 5 Apr -->
      <defs>
       <path d="M 10.796875 72.90625 
L 49.515625 72.90625 
L 49.515625 64.59375 
L 19.828125 64.59375 
L 19.828125 46.734375 
Q 21.96875 47.46875 24.109375 47.828125 
Q 26.265625 48.1875 28.421875 48.1875 
Q 40.625 48.1875 47.75 41.5 
Q 54.890625 34.8125 54.890625 23.390625 
Q 54.890625 11.625 47.5625 5.09375 
Q 40.234375 -1.421875 26.90625 -1.421875 
Q 22.3125 -1.421875 17.546875 -0.640625 
Q 12.796875 0.140625 7.71875 1.703125 
L 7.71875 11.625 
Q 12.109375 9.234375 16.796875 8.0625 
Q 21.484375 6.890625 26.703125 6.890625 
Q 35.15625 6.890625 40.078125 11.328125 
Q 45.015625 15.765625 45.015625 23.390625 
Q 45.015625 31 40.078125 35.4375 
Q 35.15625 39.890625 26.703125 39.890625 
Q 22.75 39.890625 18.8125 39.015625 
Q 14.890625 38.140625 10.796875 36.28125 
z
" id="DejaVuSans-53"/>
      </defs>
      <g transform="translate(172.26431 154.92124)rotate(-90)scale(0.08 -0.08)">
       <use xlink:href="#DejaVuSans-53"/>
       <use x="63.623047" xlink:href="#DejaVuSans-32"/>
       <use x="95.410156" xlink:href="#DejaVuSans-65"/>
       <use x="163.818359" xlink:href="#DejaVuSans-112"/>
       <use x="227.294922" xlink:href="#DejaVuSans-114"/>
      </g>
     </g>
    </g>
    <g id="xtick_4">
     <g id="line2d_4">
      <g>
       <use style="stroke:#000000;stroke-width:0.8;" x="154.667405" xlink:href="#mbb02013cab" y="126.44874"/>
      </g>
     </g>
     <g id="text_4">
      <!-- 29 Mar -->
      <defs>
       <path d="M 9.8125 72.90625 
L 24.515625 72.90625 
L 43.109375 23.296875 
L 61.8125 72.90625 
L 76.515625 72.90625 
L 76.515625 0 
L 66.890625 0 
L 66.890625 64.015625 
L 48.09375 14.015625 
L 38.1875 14.015625 
L 19.390625 64.015625 
L 19.390625 0 
L 9.8125 0 
z
" id="DejaVuSans-77"/>
       <path d="M 34.28125 27.484375 
Q 23.390625 27.484375 19.1875 25 
Q 14.984375 22.515625 14.984375 16.5 
Q 14.984375 11.71875 18.140625 8.90625 
Q 21.296875 6.109375 26.703125 6.109375 
Q 34.1875 6.109375 38.703125 11.40625 
Q 43.21875 16.703125 43.21875 25.484375 
L 43.21875 27.484375 
z
M 52.203125 31.203125 
L 52.203125 0 
L 43.21875 0 
L 43.21875 8.296875 
Q 40.140625 3.328125 35.546875 0.953125 
Q 30.953125 -1.421875 24.3125 -1.421875 
Q 15.921875 -1.421875 10.953125 3.296875 
Q 6 8.015625 6 15.921875 
Q 6 25.140625 12.171875 29.828125 
Q 18.359375 34.515625 30.609375 34.515625 
L 43.21875 34.515625 
L 43.21875 35.40625 
Q 43.21875 41.609375 39.140625 45 
Q 35.0625 48.390625 27.6875 48.390625 
Q 23 48.390625 18.546875 47.265625 
Q 14.109375 46.140625 10.015625 43.890625 
L 10.015625 52.203125 
Q 14.9375 54.109375 19.578125 55.046875 
Q 24.21875 56 28.609375 56 
Q 40.484375 56 46.34375 49.84375 
Q 52.203125 43.703125 52.203125 31.203125 
z
" id="DejaVuSans-97"/>
      </defs>
      <g transform="translate(156.874905 161.26499)rotate(-90)scale(0.08 -0.08)">
       <use xlink:href="#DejaVuSans-50"/>
       <use x="63.623047" xlink:href="#DejaVuSans-57"/>
       <use x="127.246094" xlink:href="#DejaVuSans-32"/>
       <use x="159.033203" xlink:href="#DejaVuSans-77"/>
       <use x="245.3125" xlink:href="#DejaVuSans-97"/>
       <use x="306.591797" xlink:href="#DejaVuSans-114"/>
      </g>
     </g>
    </g>
    <g id="xtick_5">
     <g id="line2d_5">
      <g>
       <use style="stroke:#000000;stroke-width:0.8;" x="139.278001" xlink:href="#mbb02013cab" y="126.44874"/>
      </g>
     </g>
     <g id="text_5">
      <!-- 22 Mar -->
      <g transform="translate(141.485501 161.26499)rotate(-90)scale(0.08 -0.08)">
       <use xlink:href="#DejaVuSans-50"/>
       <use x="63.623047" xlink:href="#DejaVuSans-50"/>
       <use x="127.246094" xlink:href="#DejaVuSans-32"/>
       <use x="159.033203" xlink:href="#DejaVuSans-77"/>
       <use x="245.3125" xlink:href="#DejaVuSans-97"/>
       <use x="306.591797" xlink:href="#DejaVuSans-114"/>
      </g>
     </g>
    </g>
    <g id="xtick_6">
     <g id="line2d_6">
      <g>
       <use style="stroke:#000000;stroke-width:0.8;" x="123.888596" xlink:href="#mbb02013cab" y="126.44874"/>
      </g>
     </g>
     <g id="text_6">
      <!-- 15 Mar -->
      <g transform="translate(126.096096 161.26499)rotate(-90)scale(0.08 -0.08)">
       <use xlink:href="#DejaVuSans-49"/>
       <use x="63.623047" xlink:href="#DejaVuSans-53"/>
       <use x="127.246094" xlink:href="#DejaVuSans-32"/>
       <use x="159.033203" xlink:href="#DejaVuSans-77"/>
       <use x="245.3125" xlink:href="#DejaVuSans-97"/>
       <use x="306.591797" xlink:href="#DejaVuSans-114"/>
      </g>
     </g>
    </g>
    <g id="xtick_7">
     <g id="line2d_7">
      <g>
       <use style="stroke:#000000;stroke-width:0.8;" x="108.499191" xlink:href="#mbb02013cab" y="126.44874"/>
      </g>
     </g>
     <g id="text_7">
      <!-- 8 Mar -->
      <defs>
       <path d="M 31.78125 34.625 
Q 24.75 34.625 20.71875 30.859375 
Q 16.703125 27.09375 16.703125 20.515625 
Q 16.703125 13.921875 20.71875 10.15625 
Q 24.75 6.390625 31.78125 6.390625 
Q 38.8125 6.390625 42.859375 10.171875 
Q 46.921875 13.96875 46.921875 20.515625 
Q 46.921875 27.09375 42.890625 30.859375 
Q 38.875 34.625 31.78125 34.625 
z
M 21.921875 38.8125 
Q 15.578125 40.375 12.03125 44.71875 
Q 8.5 49.078125 8.5 55.328125 
Q 8.5 64.0625 14.71875 69.140625 
Q 20.953125 74.21875 31.78125 74.21875 
Q 42.671875 74.21875 48.875 69.140625 
Q 55.078125 64.0625 55.078125 55.328125 
Q 55.078125 49.078125 51.53125 44.71875 
Q 48 40.375 41.703125 38.8125 
Q 48.828125 37.15625 52.796875 32.3125 
Q 56.78125 27.484375 56.78125 20.515625 
Q 56.78125 9.90625 50.3125 4.234375 
Q 43.84375 -1.421875 31.78125 -1.421875 
Q 19.734375 -1.421875 13.25 4.234375 
Q 6.78125 9.90625 6.78125 20.515625 
Q 6.78125 27.484375 10.78125 32.3125 
Q 14.796875 37.15625 21.921875 38.8125 
z
M 18.3125 54.390625 
Q 18.3125 48.734375 21.84375 45.5625 
Q 25.390625 42.390625 31.78125 42.390625 
Q 38.140625 42.390625 41.71875 45.5625 
Q 45.3125 48.734375 45.3125 54.390625 
Q 45.3125 60.0625 41.71875 63.234375 
Q 38.140625 66.40625 31.78125 66.40625 
Q 25.390625 66.40625 21.84375 63.234375 
Q 18.3125 60.0625 18.3125 54.390625 
z
" id="DejaVuSans-56"/>
      </defs>
      <g transform="translate(110.706691 156.17499)rotate(-90)scale(0.08 -0.08)">
       <use xlink:href="#DejaVuSans-56"/>
       <use x="63.623047" xlink:href="#DejaVuSans-32"/>
       <use x="95.410156" xlink:href="#DejaVuSans-77"/>
       <use x="181.689453" xlink:href="#DejaVuSans-97"/>
       <use x="242.96875" xlink:href="#DejaVuSans-114"/>
      </g>
     </g>
    </g>
    <g id="xtick_8">
     <g id="line2d_8">
      <g>
       <use style="stroke:#000000;stroke-width:0.8;" x="93.109786" xlink:href="#mbb02013cab" y="126.44874"/>
      </g>
     </g>
     <g id="text_8">
      <!-- 1 Mar -->
      <g transform="translate(95.317286 156.17499)rotate(-90)scale(0.08 -0.08)">
       <use xlink:href="#DejaVuSans-49"/>
       <use x="63.623047" xlink:href="#DejaVuSans-32"/>
       <use x="95.410156" xlink:href="#DejaVuSans-77"/>
       <use x="181.689453" xlink:href="#DejaVuSans-97"/>
       <use x="242.96875" xlink:href="#DejaVuSans-114"/>
      </g>
     </g>
    </g>
    <g id="xtick_9">
     <g id="line2d_9">
      <g>
       <use style="stroke:#000000;stroke-width:0.8;" x="77.720382" xlink:href="#mbb02013cab" y="126.44874"/>
      </g>
     </g>
     <g id="text_9">
      <!-- 23 Feb -->
      <defs>
       <path d="M 40.578125 39.3125 
Q 47.65625 37.796875 51.625 33 
Q 55.609375 28.21875 55.609375 21.1875 
Q 55.609375 10.40625 48.1875 4.484375 
Q 40.765625 -1.421875 27.09375 -1.421875 
Q 22.515625 -1.421875 17.65625 -0.515625 
Q 12.796875 0.390625 7.625 2.203125 
L 7.625 11.71875 
Q 11.71875 9.328125 16.59375 8.109375 
Q 21.484375 6.890625 26.8125 6.890625 
Q 36.078125 6.890625 40.9375 10.546875 
Q 45.796875 14.203125 45.796875 21.1875 
Q 45.796875 27.640625 41.28125 31.265625 
Q 36.765625 34.90625 28.71875 34.90625 
L 20.21875 34.90625 
L 20.21875 43.015625 
L 29.109375 43.015625 
Q 36.375 43.015625 40.234375 45.921875 
Q 44.09375 48.828125 44.09375 54.296875 
Q 44.09375 59.90625 40.109375 62.90625 
Q 36.140625 65.921875 28.71875 65.921875 
Q 24.65625 65.921875 20.015625 65.03125 
Q 15.375 64.15625 9.8125 62.3125 
L 9.8125 71.09375 
Q 15.4375 72.65625 20.34375 73.4375 
Q 25.25 74.21875 29.59375 74.21875 
Q 40.828125 74.21875 47.359375 69.109375 
Q 53.90625 64.015625 53.90625 55.328125 
Q 53.90625 49.265625 50.4375 45.09375 
Q 46.96875 40.921875 40.578125 39.3125 
z
" id="DejaVuSans-51"/>
       <path d="M 9.8125 72.90625 
L 51.703125 72.90625 
L 51.703125 64.59375 
L 19.671875 64.59375 
L 19.671875 43.109375 
L 48.578125 43.109375 
L 48.578125 34.8125 
L 19.671875 34.8125 
L 19.671875 0 
L 9.8125 0 
z
" id="DejaVuSans-70"/>
       <path d="M 56.203125 29.59375 
L 56.203125 25.203125 
L 14.890625 25.203125 
Q 15.484375 15.921875 20.484375 11.0625 
Q 25.484375 6.203125 34.421875 6.203125 
Q 39.59375 6.203125 44.453125 7.46875 
Q 49.3125 8.734375 54.109375 11.28125 
L 54.109375 2.78125 
Q 49.265625 0.734375 44.1875 -0.34375 
Q 39.109375 -1.421875 33.890625 -1.421875 
Q 20.796875 -1.421875 13.15625 6.1875 
Q 5.515625 13.8125 5.515625 26.8125 
Q 5.515625 40.234375 12.765625 48.109375 
Q 20.015625 56 32.328125 56 
Q 43.359375 56 49.78125 48.890625 
Q 56.203125 41.796875 56.203125 29.59375 
z
M 47.21875 32.234375 
Q 47.125 39.59375 43.09375 43.984375 
Q 39.0625 48.390625 32.421875 48.390625 
Q 24.90625 48.390625 20.390625 44.140625 
Q 15.875 39.890625 15.1875 32.171875 
z
" id="DejaVuSans-101"/>
       <path d="M 48.6875 27.296875 
Q 48.6875 37.203125 44.609375 42.84375 
Q 40.53125 48.484375 33.40625 48.484375 
Q 26.265625 48.484375 22.1875 42.84375 
Q 18.109375 37.203125 18.109375 27.296875 
Q 18.109375 17.390625 22.1875 11.75 
Q 26.265625 6.109375 33.40625 6.109375 
Q 40.53125 6.109375 44.609375 11.75 
Q 48.6875 17.390625 48.6875 27.296875 
z
M 18.109375 46.390625 
Q 20.953125 51.265625 25.265625 53.625 
Q 29.59375 56 35.59375 56 
Q 45.5625 56 51.78125 48.09375 
Q 58.015625 40.1875 58.015625 27.296875 
Q 58.015625 14.40625 51.78125 6.484375 
Q 45.5625 -1.421875 35.59375 -1.421875 
Q 29.59375 -1.421875 25.265625 0.953125 
Q 20.953125 3.328125 18.109375 8.203125 
L 18.109375 0 
L 9.078125 0 
L 9.078125 75.984375 
L 18.109375 75.984375 
z
" id="DejaVuSans-98"/>
      </defs>
      <g transform="translate(79.927882 160.33374)rotate(-90)scale(0.08 -0.08)">
       <use xlink:href="#DejaVuSans-50"/>
       <use x="63.623047" xlink:href="#DejaVuSans-51"/>
       <use x="127.246094" xlink:href="#DejaVuSans-32"/>
       <use x="159.033203" xlink:href="#DejaVuSans-70"/>
       <use x="211.052734" xlink:href="#DejaVuSans-101"/>
       <use x="272.576172" xlink:href="#DejaVuSans-98"/>
      </g>
     </g>
    </g>
    <g id="xtick_10">
     <g id="line2d_10">
      <g>
       <use style="stroke:#000000;stroke-width:0.8;" x="62.330977" xlink:href="#mbb02013cab" y="126.44874"/>
      </g>
     </g>
     <g id="text_10">
      <!-- 16 Feb -->
      <defs>
       <path d="M 33.015625 40.375 
Q 26.375 40.375 22.484375 35.828125 
Q 18.609375 31.296875 18.609375 23.390625 
Q 18.609375 15.53125 22.484375 10.953125 
Q 26.375 6.390625 33.015625 6.390625 
Q 39.65625 6.390625 43.53125 10.953125 
Q 47.40625 15.53125 47.40625 23.390625 
Q 47.40625 31.296875 43.53125 35.828125 
Q 39.65625 40.375 33.015625 40.375 
z
M 52.59375 71.296875 
L 52.59375 62.3125 
Q 48.875 64.0625 45.09375 64.984375 
Q 41.3125 65.921875 37.59375 65.921875 
Q 27.828125 65.921875 22.671875 59.328125 
Q 17.53125 52.734375 16.796875 39.40625 
Q 19.671875 43.65625 24.015625 45.921875 
Q 28.375 48.1875 33.59375 48.1875 
Q 44.578125 48.1875 50.953125 41.515625 
Q 57.328125 34.859375 57.328125 23.390625 
Q 57.328125 12.15625 50.6875 5.359375 
Q 44.046875 -1.421875 33.015625 -1.421875 
Q 20.359375 -1.421875 13.671875 8.265625 
Q 6.984375 17.96875 6.984375 36.375 
Q 6.984375 53.65625 15.1875 63.9375 
Q 23.390625 74.21875 37.203125 74.21875 
Q 40.921875 74.21875 44.703125 73.484375 
Q 48.484375 72.75 52.59375 71.296875 
z
" id="DejaVuSans-54"/>
      </defs>
      <g transform="translate(64.538477 160.33374)rotate(-90)scale(0.08 -0.08)">
       <use xlink:href="#DejaVuSans-49"/>
       <use x="63.623047" xlink:href="#DejaVuSans-54"/>
       <use x="127.246094" xlink:href="#DejaVuSans-32"/>
       <use x="159.033203" xlink:href="#DejaVuSans-70"/>
       <use x="211.052734" xlink:href="#DejaVuSans-101"/>
       <use x="272.576172" xlink:href="#DejaVuSans-98"/>
      </g>
     </g>
    </g>
   </g>
   <g id="matplotlib.axis_2">
    <g id="ytick_1">
     <g id="line2d_11">
      <defs>
       <path d="M 0 0 
L -3.5 0 
" id="ma37ab559f3" style="stroke:#000000;stroke-width:0.8;"/>
      </defs>
      <g>
       <use style="stroke:#000000;stroke-width:0.8;" x="52.13" xlink:href="#ma37ab559f3" y="126.44874"/>
      </g>
     </g>
     <g id="text_11">
      <!-- 0 -->
      <defs>
       <path d="M 31.78125 66.40625 
Q 24.171875 66.40625 20.328125 58.90625 
Q 16.5 51.421875 16.5 36.375 
Q 16.5 21.390625 20.328125 13.890625 
Q 24.171875 6.390625 31.78125 6.390625 
Q 39.453125 6.390625 43.28125 13.890625 
Q 47.125 21.390625 47.125 36.375 
Q 47.125 51.421875 43.28125 58.90625 
Q 39.453125 66.40625 31.78125 66.40625 
z
M 31.78125 74.21875 
Q 44.046875 74.21875 50.515625 64.515625 
Q 56.984375 54.828125 56.984375 36.375 
Q 56.984375 17.96875 50.515625 8.265625 
Q 44.046875 -1.421875 31.78125 -1.421875 
Q 19.53125 -1.421875 13.0625 8.265625 
Q 6.59375 17.96875 6.59375 36.375 
Q 6.59375 54.828125 13.0625 64.515625 
Q 19.53125 74.21875 31.78125 74.21875 
z
" id="DejaVuSans-48"/>
      </defs>
      <g transform="translate(40.04 129.488115)scale(0.08 -0.08)">
       <use xlink:href="#DejaVuSans-48"/>
      </g>
     </g>
    </g>
    <g id="ytick_2">
     <g id="line2d_12">
      <g>
       <use style="stroke:#000000;stroke-width:0.8;" x="52.13" xlink:href="#ma37ab559f3" y="109.446264"/>
      </g>
     </g>
     <g id="text_12">
      <!-- 10000 -->
      <g transform="translate(19.68 112.485639)scale(0.08 -0.08)">
       <use xlink:href="#DejaVuSans-49"/>
       <use x="63.623047" xlink:href="#DejaVuSans-48"/>
       <use x="127.246094" xlink:href="#DejaVuSans-48"/>
       <use x="190.869141" xlink:href="#DejaVuSans-48"/>
       <use x="254.492188" xlink:href="#DejaVuSans-48"/>
      </g>
     </g>
    </g>
    <g id="ytick_3">
     <g id="line2d_13">
      <g>
       <use style="stroke:#000000;stroke-width:0.8;" x="52.13" xlink:href="#ma37ab559f3" y="92.443788"/>
      </g>
     </g>
     <g id="text_13">
      <!-- 20000 -->
      <g transform="translate(19.68 95.483163)scale(0.08 -0.08)">
       <use xlink:href="#DejaVuSans-50"/>
       <use x="63.623047" xlink:href="#DejaVuSans-48"/>
       <use x="127.246094" xlink:href="#DejaVuSans-48"/>
       <use x="190.869141" xlink:href="#DejaVuSans-48"/>
       <use x="254.492188" xlink:href="#DejaVuSans-48"/>
      </g>
     </g>
    </g>
    <g id="ytick_4">
     <g id="line2d_14">
      <g>
       <use style="stroke:#000000;stroke-width:0.8;" x="52.13" xlink:href="#ma37ab559f3" y="75.441312"/>
      </g>
     </g>
     <g id="text_14">
      <!-- 30000 -->
      <g transform="translate(19.68 78.480687)scale(0.08 -0.08)">
       <use xlink:href="#DejaVuSans-51"/>
       <use x="63.623047" xlink:href="#DejaVuSans-48"/>
       <use x="127.246094" xlink:href="#DejaVuSans-48"/>
       <use x="190.869141" xlink:href="#DejaVuSans-48"/>
       <use x="254.492188" xlink:href="#DejaVuSans-48"/>
      </g>
     </g>
    </g>
    <g id="ytick_5">
     <g id="line2d_15">
      <g>
       <use style="stroke:#000000;stroke-width:0.8;" x="52.13" xlink:href="#ma37ab559f3" y="58.438836"/>
      </g>
     </g>
     <g id="text_15">
      <!-- 40000 -->
      <defs>
       <path d="M 37.796875 64.3125 
L 12.890625 25.390625 
L 37.796875 25.390625 
z
M 35.203125 72.90625 
L 47.609375 72.90625 
L 47.609375 25.390625 
L 58.015625 25.390625 
L 58.015625 17.1875 
L 47.609375 17.1875 
L 47.609375 0 
L 37.796875 0 
L 37.796875 17.1875 
L 4.890625 17.1875 
L 4.890625 26.703125 
z
" id="DejaVuSans-52"/>
      </defs>
      <g transform="translate(19.68 61.478211)scale(0.08 -0.08)">
       <use xlink:href="#DejaVuSans-52"/>
       <use x="63.623047" xlink:href="#DejaVuSans-48"/>
       <use x="127.246094" xlink:href="#DejaVuSans-48"/>
       <use x="190.869141" xlink:href="#DejaVuSans-48"/>
       <use x="254.492188" xlink:href="#DejaVuSans-48"/>
      </g>
     </g>
    </g>
    <g id="ytick_6">
     <g id="line2d_16">
      <g>
       <use style="stroke:#000000;stroke-width:0.8;" x="52.13" xlink:href="#ma37ab559f3" y="41.43636"/>
      </g>
     </g>
     <g id="text_16">
      <!-- 50000 -->
      <g transform="translate(19.68 44.475735)scale(0.08 -0.08)">
       <use xlink:href="#DejaVuSans-53"/>
       <use x="63.623047" xlink:href="#DejaVuSans-48"/>
       <use x="127.246094" xlink:href="#DejaVuSans-48"/>
       <use x="190.869141" xlink:href="#DejaVuSans-48"/>
       <use x="254.492188" xlink:href="#DejaVuSans-48"/>
      </g>
     </g>
    </g>
    <g id="ytick_7">
     <g id="line2d_17">
      <g>
       <use style="stroke:#000000;stroke-width:0.8;" x="52.13" xlink:href="#ma37ab559f3" y="24.433884"/>
      </g>
     </g>
     <g id="text_17">
      <!-- 60000 -->
      <g transform="translate(19.68 27.473259)scale(0.08 -0.08)">
       <use xlink:href="#DejaVuSans-54"/>
       <use x="63.623047" xlink:href="#DejaVuSans-48"/>
       <use x="127.246094" xlink:href="#DejaVuSans-48"/>
       <use x="190.869141" xlink:href="#DejaVuSans-48"/>
       <use x="254.492188" xlink:href="#DejaVuSans-48"/>
      </g>
     </g>
    </g>
    <g id="text_18">
     <!-- Cases per day -->
     <defs>
      <path d="M 64.40625 67.28125 
L 64.40625 56.890625 
Q 59.421875 61.53125 53.78125 63.8125 
Q 48.140625 66.109375 41.796875 66.109375 
Q 29.296875 66.109375 22.65625 58.46875 
Q 16.015625 50.828125 16.015625 36.375 
Q 16.015625 21.96875 22.65625 14.328125 
Q 29.296875 6.6875 41.796875 6.6875 
Q 48.140625 6.6875 53.78125 8.984375 
Q 59.421875 11.28125 64.40625 15.921875 
L 64.40625 5.609375 
Q 59.234375 2.09375 53.4375 0.328125 
Q 47.65625 -1.421875 41.21875 -1.421875 
Q 24.65625 -1.421875 15.125 8.703125 
Q 5.609375 18.84375 5.609375 36.375 
Q 5.609375 53.953125 15.125 64.078125 
Q 24.65625 74.21875 41.21875 74.21875 
Q 47.75 74.21875 53.53125 72.484375 
Q 59.328125 70.75 64.40625 67.28125 
z
" id="DejaVuSans-67"/>
      <path d="M 44.28125 53.078125 
L 44.28125 44.578125 
Q 40.484375 46.53125 36.375 47.5 
Q 32.28125 48.484375 27.875 48.484375 
Q 21.1875 48.484375 17.84375 46.4375 
Q 14.5 44.390625 14.5 40.28125 
Q 14.5 37.15625 16.890625 35.375 
Q 19.28125 33.59375 26.515625 31.984375 
L 29.59375 31.296875 
Q 39.15625 29.25 43.1875 25.515625 
Q 47.21875 21.78125 47.21875 15.09375 
Q 47.21875 7.46875 41.1875 3.015625 
Q 35.15625 -1.421875 24.609375 -1.421875 
Q 20.21875 -1.421875 15.453125 -0.5625 
Q 10.6875 0.296875 5.421875 2 
L 5.421875 11.28125 
Q 10.40625 8.6875 15.234375 7.390625 
Q 20.0625 6.109375 24.8125 6.109375 
Q 31.15625 6.109375 34.5625 8.28125 
Q 37.984375 10.453125 37.984375 14.40625 
Q 37.984375 18.0625 35.515625 20.015625 
Q 33.0625 21.96875 24.703125 23.78125 
L 21.578125 24.515625 
Q 13.234375 26.265625 9.515625 29.90625 
Q 5.8125 33.546875 5.8125 39.890625 
Q 5.8125 47.609375 11.28125 51.796875 
Q 16.75 56 26.8125 56 
Q 31.78125 56 36.171875 55.265625 
Q 40.578125 54.546875 44.28125 53.078125 
z
" id="DejaVuSans-115"/>
      <path d="M 45.40625 46.390625 
L 45.40625 75.984375 
L 54.390625 75.984375 
L 54.390625 0 
L 45.40625 0 
L 45.40625 8.203125 
Q 42.578125 3.328125 38.25 0.953125 
Q 33.9375 -1.421875 27.875 -1.421875 
Q 17.96875 -1.421875 11.734375 6.484375 
Q 5.515625 14.40625 5.515625 27.296875 
Q 5.515625 40.1875 11.734375 48.09375 
Q 17.96875 56 27.875 56 
Q 33.9375 56 38.25 53.625 
Q 42.578125 51.265625 45.40625 46.390625 
z
M 14.796875 27.296875 
Q 14.796875 17.390625 18.875 11.75 
Q 22.953125 6.109375 30.078125 6.109375 
Q 37.203125 6.109375 41.296875 11.75 
Q 45.40625 17.390625 45.40625 27.296875 
Q 45.40625 37.203125 41.296875 42.84375 
Q 37.203125 48.484375 30.078125 48.484375 
Q 22.953125 48.484375 18.875 42.84375 
Q 14.796875 37.203125 14.796875 27.296875 
z
" id="DejaVuSans-100"/>
      <path d="M 32.171875 -5.078125 
Q 28.375 -14.84375 24.75 -17.8125 
Q 21.140625 -20.796875 15.09375 -20.796875 
L 7.90625 -20.796875 
L 7.90625 -13.28125 
L 13.1875 -13.28125 
Q 16.890625 -13.28125 18.9375 -11.515625 
Q 21 -9.765625 23.484375 -3.21875 
L 25.09375 0.875 
L 2.984375 54.6875 
L 12.5 54.6875 
L 29.59375 11.921875 
L 46.6875 54.6875 
L 56.203125 54.6875 
z
" id="DejaVuSans-121"/>
     </defs>
     <g transform="translate(14.01625 97.40312)rotate(-90)scale(0.08 -0.08)">
      <use xlink:href="#DejaVuSans-67"/>
      <use x="69.824219" xlink:href="#DejaVuSans-97"/>
      <use x="131.103516" xlink:href="#DejaVuSans-115"/>
      <use x="183.203125" xlink:href="#DejaVuSans-101"/>
      <use x="244.726562" xlink:href="#DejaVuSans-115"/>
      <use x="296.826172" xlink:href="#DejaVuSans-32"/>
      <use x="328.613281" xlink:href="#DejaVuSans-112"/>
      <use x="392.089844" xlink:href="#DejaVuSans-101"/>
      <use x="453.613281" xlink:href="#DejaVuSans-114"/>
      <use x="494.726562" xlink:href="#DejaVuSans-32"/>
      <use x="526.513672" xlink:href="#DejaVuSans-100"/>
      <use x="589.990234" xlink:href="#DejaVuSans-97"/>
      <use x="651.269531" xlink:href="#DejaVuSans-121"/>
     </g>
    </g>
   </g>
   <g id="line2d_18">
    <path clip-path="url(#p8af8a5b6c7)" d="M 60.13249 126.420304 
L 62.330977 126.420304 
L 64.529463 126.420304 
L 66.72795 126.420304 
L 68.926436 126.420304 
L 71.124922 126.420304 
L 73.323409 126.401395 
L 75.521895 126.398133 
L 77.720382 126.36105 
L 79.918868 126.383914 
L 82.117354 126.356937 
L 84.315841 126.333333 
L 86.514327 126.295743 
L 88.712814 126.204679 
L 90.9113 126.199725 
L 93.109786 125.947176 
L 95.308273 125.988303 
L 97.506759 125.894502 
L 99.705246 125.795805 
L 101.903732 125.680943 
L 104.102218 125.469132 
L 106.300705 125.276032 
L 108.499191 123.66911 
L 110.697678 124.512087 
L 112.896164 124.228813 
L 115.09465 123.201341 
L 117.293137 121.910372 
L 119.491623 117.78295 
L 121.69011 118.564991 
L 123.888596 114.15392 
L 126.087082 104.573759 
L 128.285569 106.859745 
L 130.484055 104.955778 
L 132.682542 105.496737 
L 134.881028 99.825204 
L 137.079514 111.250197 
L 139.278001 114.010903 
L 141.476487 101.573235 
L 143.674973 101.993038 
L 145.87346 100.460945 
L 148.071946 96.954533 
L 150.270433 92.7504 
L 152.468919 96.440106 
L 154.667405 113.132548 
" style="fill:none;stroke:#0000ff;stroke-linecap:square;stroke-opacity:0.5;"/>
   </g>
   <g id="line2d_19">
    <path clip-path="url(#p8af8a5b6c7)" d="M 156.865892 112.111044 
L 159.064378 111.632729 
L 161.262865 111.570675 
L 163.461351 111.734054 
L 165.659837 111.982874 
L 167.858324 112.23273 
L 170.05681 112.438077 
L 172.255297 112.576147 
L 174.453783 112.635941 
L 176.652269 112.611709 
L 178.850756 112.499414 
L 181.049242 112.294923 
L 183.247729 111.993094 
L 185.446215 111.587296 
L 187.644701 111.069098 
L 189.843188 110.428019 
L 192.041674 109.651246 
L 194.240161 108.723324 
L 196.438647 107.625769 
L 198.637133 106.336612 
L 200.83562 104.829848 
" style="fill:none;stroke:#008000;stroke-linecap:square;stroke-opacity:0.5;"/>
   </g>
   <g id="line2d_20">
    <path clip-path="url(#p8af8a5b6c7)" d="M 139.278001 126.44874 
L 139.278001 11.52 
" style="fill:none;stroke:#0000ff;stroke-dasharray:1.85,0.8;stroke-dashoffset:0;stroke-width:0.5;"/>
   </g>
   <g id="line2d_21">
    <path clip-path="url(#p8af8a5b6c7)" d="M 121.69011 126.44874 
L 121.69011 11.52 
" style="fill:none;stroke:#0000ff;stroke-dasharray:1.85,0.8;stroke-dashoffset:0;stroke-width:0.5;"/>
   </g>
   <g id="line2d_22">
    <path clip-path="url(#p8af8a5b6c7)" d="M 139.278001 126.44874 
L 139.278001 11.52 
" style="fill:none;stroke:#0000ff;stroke-dasharray:1.85,0.8;stroke-dashoffset:0;stroke-width:0.5;"/>
   </g>
   <g id="line2d_23">
    <path clip-path="url(#p8af8a5b6c7)" d="M 117.293137 126.44874 
L 117.293137 11.52 
" style="fill:none;stroke:#0000ff;stroke-dasharray:1.85,0.8;stroke-dashoffset:0;stroke-width:0.5;"/>
   </g>
   <g id="line2d_24">
    <path clip-path="url(#p8af8a5b6c7)" d="M 104.102218 126.44874 
L 104.102218 11.52 
" style="fill:none;stroke:#0000ff;stroke-dasharray:1.85,0.8;stroke-dashoffset:0;stroke-width:0.5;"/>
   </g>
   <g id="patch_68">
    <path d="M 52.13 126.44874 
L 52.13 11.52 
" style="fill:none;stroke:#000000;stroke-linecap:square;stroke-linejoin:miter;stroke-width:0.8;"/>
   </g>
   <g id="patch_69">
    <path d="M 208.83811 126.44874 
L 208.83811 11.52 
" style="fill:none;stroke:#000000;stroke-linecap:square;stroke-linejoin:miter;stroke-width:0.8;"/>
   </g>
   <g id="patch_70">
    <path d="M 52.13 126.44874 
L 208.83811 126.44874 
" style="fill:none;stroke:#000000;stroke-linecap:square;stroke-linejoin:miter;stroke-width:0.8;"/>
   </g>
   <g id="patch_71">
    <path d="M 52.13 11.52 
L 208.83811 11.52 
" style="fill:none;stroke:#000000;stroke-linecap:square;stroke-linejoin:miter;stroke-width:0.8;"/>
   </g>
  </g>
  <g id="axes_2">
   <g id="matplotlib.axis_3">
    <g id="ytick_8">
     <g id="line2d_25">
      <defs>
       <path d="M 0 0 
L 3.5 0 
" id="m77c1e400c4" style="stroke:#000000;stroke-width:0.8;"/>
      </defs>
      <g>
       <use style="stroke:#000000;stroke-width:0.8;" x="208.83811" xlink:href="#m77c1e400c4" y="126.44874"/>
      </g>
     </g>
     <g id="text_19">
      <!-- 1.0 -->
      <defs>
       <path d="M 10.59375 35.5 
L 73.1875 35.5 
L 73.1875 27.203125 
L 10.59375 27.203125 
z
" id="DejaVuSans-8722"/>
       <path d="M 10.6875 12.40625 
L 21 12.40625 
L 21 0 
L 10.6875 0 
z
" id="DejaVuSans-46"/>
      </defs>
      <g transform="translate(215.83811 129.488115)scale(0.08 -0.08)">
       <use xlink:href="#DejaVuSans-8722"/>
       <use x="83.789062" xlink:href="#DejaVuSans-49"/>
       <use x="147.412109" xlink:href="#DejaVuSans-46"/>
       <use x="179.199219" xlink:href="#DejaVuSans-48"/>
      </g>
     </g>
    </g>
    <g id="ytick_9">
     <g id="line2d_26">
      <g>
       <use style="stroke:#000000;stroke-width:0.8;" x="208.83811" xlink:href="#m77c1e400c4" y="85.402762"/>
      </g>
     </g>
     <g id="text_20">
      <!-- 0.5 -->
      <g transform="translate(215.83811 88.442137)scale(0.08 -0.08)">
       <use xlink:href="#DejaVuSans-8722"/>
       <use x="83.789062" xlink:href="#DejaVuSans-48"/>
       <use x="147.412109" xlink:href="#DejaVuSans-46"/>
       <use x="179.199219" xlink:href="#DejaVuSans-53"/>
      </g>
     </g>
    </g>
    <g id="ytick_10">
     <g id="line2d_27">
      <g>
       <use style="stroke:#000000;stroke-width:0.8;" x="208.83811" xlink:href="#m77c1e400c4" y="44.356783"/>
      </g>
     </g>
     <g id="text_21">
      <!-- 0.0 -->
      <g transform="translate(215.83811 47.396158)scale(0.08 -0.08)">
       <use xlink:href="#DejaVuSans-48"/>
       <use x="63.623047" xlink:href="#DejaVuSans-46"/>
       <use x="95.410156" xlink:href="#DejaVuSans-48"/>
      </g>
     </g>
    </g>
    <g id="ytick_11">
     <g id="line2d_28">
      <g>
       <use style="stroke:#000000;stroke-width:0.8;" x="208.83811" xlink:href="#m77c1e400c4" y="11.52"/>
      </g>
     </g>
     <g id="text_22">
      <!-- 0.4 -->
      <g transform="translate(215.83811 14.559375)scale(0.08 -0.08)">
       <use xlink:href="#DejaVuSans-48"/>
       <use x="63.623047" xlink:href="#DejaVuSans-46"/>
       <use x="95.410156" xlink:href="#DejaVuSans-52"/>
      </g>
     </g>
    </g>
    <g id="text_23">
     <!-- Relative change -->
     <defs>
      <path d="M 44.390625 34.1875 
Q 47.5625 33.109375 50.5625 29.59375 
Q 53.5625 26.078125 56.59375 19.921875 
L 66.609375 0 
L 56 0 
L 46.6875 18.703125 
Q 43.0625 26.03125 39.671875 28.421875 
Q 36.28125 30.8125 30.421875 30.8125 
L 19.671875 30.8125 
L 19.671875 0 
L 9.8125 0 
L 9.8125 72.90625 
L 32.078125 72.90625 
Q 44.578125 72.90625 50.734375 67.671875 
Q 56.890625 62.453125 56.890625 51.90625 
Q 56.890625 45.015625 53.6875 40.46875 
Q 50.484375 35.9375 44.390625 34.1875 
z
M 19.671875 64.796875 
L 19.671875 38.921875 
L 32.078125 38.921875 
Q 39.203125 38.921875 42.84375 42.21875 
Q 46.484375 45.515625 46.484375 51.90625 
Q 46.484375 58.296875 42.84375 61.546875 
Q 39.203125 64.796875 32.078125 64.796875 
z
" id="DejaVuSans-82"/>
      <path d="M 9.421875 75.984375 
L 18.40625 75.984375 
L 18.40625 0 
L 9.421875 0 
z
" id="DejaVuSans-108"/>
      <path d="M 18.3125 70.21875 
L 18.3125 54.6875 
L 36.8125 54.6875 
L 36.8125 47.703125 
L 18.3125 47.703125 
L 18.3125 18.015625 
Q 18.3125 11.328125 20.140625 9.421875 
Q 21.96875 7.515625 27.59375 7.515625 
L 36.8125 7.515625 
L 36.8125 0 
L 27.59375 0 
Q 17.1875 0 13.234375 3.875 
Q 9.28125 7.765625 9.28125 18.015625 
L 9.28125 47.703125 
L 2.6875 47.703125 
L 2.6875 54.6875 
L 9.28125 54.6875 
L 9.28125 70.21875 
z
" id="DejaVuSans-116"/>
      <path d="M 9.421875 54.6875 
L 18.40625 54.6875 
L 18.40625 0 
L 9.421875 0 
z
M 9.421875 75.984375 
L 18.40625 75.984375 
L 18.40625 64.59375 
L 9.421875 64.59375 
z
" id="DejaVuSans-105"/>
      <path d="M 2.984375 54.6875 
L 12.5 54.6875 
L 29.59375 8.796875 
L 46.6875 54.6875 
L 56.203125 54.6875 
L 35.6875 0 
L 23.484375 0 
z
" id="DejaVuSans-118"/>
      <path d="M 48.78125 52.59375 
L 48.78125 44.1875 
Q 44.96875 46.296875 41.140625 47.34375 
Q 37.3125 48.390625 33.40625 48.390625 
Q 24.65625 48.390625 19.8125 42.84375 
Q 14.984375 37.3125 14.984375 27.296875 
Q 14.984375 17.28125 19.8125 11.734375 
Q 24.65625 6.203125 33.40625 6.203125 
Q 37.3125 6.203125 41.140625 7.25 
Q 44.96875 8.296875 48.78125 10.40625 
L 48.78125 2.09375 
Q 45.015625 0.34375 40.984375 -0.53125 
Q 36.96875 -1.421875 32.421875 -1.421875 
Q 20.0625 -1.421875 12.78125 6.34375 
Q 5.515625 14.109375 5.515625 27.296875 
Q 5.515625 40.671875 12.859375 48.328125 
Q 20.21875 56 33.015625 56 
Q 37.15625 56 41.109375 55.140625 
Q 45.0625 54.296875 48.78125 52.59375 
z
" id="DejaVuSans-99"/>
      <path d="M 54.890625 33.015625 
L 54.890625 0 
L 45.90625 0 
L 45.90625 32.71875 
Q 45.90625 40.484375 42.875 44.328125 
Q 39.84375 48.1875 33.796875 48.1875 
Q 26.515625 48.1875 22.3125 43.546875 
Q 18.109375 38.921875 18.109375 30.90625 
L 18.109375 0 
L 9.078125 0 
L 9.078125 75.984375 
L 18.109375 75.984375 
L 18.109375 46.1875 
Q 21.34375 51.125 25.703125 53.5625 
Q 30.078125 56 35.796875 56 
Q 45.21875 56 50.046875 50.171875 
Q 54.890625 44.34375 54.890625 33.015625 
z
" id="DejaVuSans-104"/>
      <path d="M 54.890625 33.015625 
L 54.890625 0 
L 45.90625 0 
L 45.90625 32.71875 
Q 45.90625 40.484375 42.875 44.328125 
Q 39.84375 48.1875 33.796875 48.1875 
Q 26.515625 48.1875 22.3125 43.546875 
Q 18.109375 38.921875 18.109375 30.90625 
L 18.109375 0 
L 9.078125 0 
L 9.078125 54.6875 
L 18.109375 54.6875 
L 18.109375 46.1875 
Q 21.34375 51.125 25.703125 53.5625 
Q 30.078125 56 35.796875 56 
Q 45.21875 56 50.046875 50.171875 
Q 54.890625 44.34375 54.890625 33.015625 
z
" id="DejaVuSans-110"/>
      <path d="M 45.40625 27.984375 
Q 45.40625 37.75 41.375 43.109375 
Q 37.359375 48.484375 30.078125 48.484375 
Q 22.859375 48.484375 18.828125 43.109375 
Q 14.796875 37.75 14.796875 27.984375 
Q 14.796875 18.265625 18.828125 12.890625 
Q 22.859375 7.515625 30.078125 7.515625 
Q 37.359375 7.515625 41.375 12.890625 
Q 45.40625 18.265625 45.40625 27.984375 
z
M 54.390625 6.78125 
Q 54.390625 -7.171875 48.1875 -13.984375 
Q 42 -20.796875 29.203125 -20.796875 
Q 24.46875 -20.796875 20.265625 -20.09375 
Q 16.0625 -19.390625 12.109375 -17.921875 
L 12.109375 -9.1875 
Q 16.0625 -11.328125 19.921875 -12.34375 
Q 23.78125 -13.375 27.78125 -13.375 
Q 36.625 -13.375 41.015625 -8.765625 
Q 45.40625 -4.15625 45.40625 5.171875 
L 45.40625 9.625 
Q 42.625 4.78125 38.28125 2.390625 
Q 33.9375 0 27.875 0 
Q 17.828125 0 11.671875 7.65625 
Q 5.515625 15.328125 5.515625 27.984375 
Q 5.515625 40.671875 11.671875 48.328125 
Q 17.828125 56 27.875 56 
Q 33.9375 56 38.28125 53.609375 
Q 42.625 51.21875 45.40625 46.390625 
L 45.40625 54.6875 
L 54.390625 54.6875 
z
" id="DejaVuSans-103"/>
     </defs>
     <g transform="translate(245.34311 101.10812)rotate(-90)scale(0.08 -0.08)">
      <use xlink:href="#DejaVuSans-82"/>
      <use x="64.982422" xlink:href="#DejaVuSans-101"/>
      <use x="126.505859" xlink:href="#DejaVuSans-108"/>
      <use x="154.289062" xlink:href="#DejaVuSans-97"/>
      <use x="215.568359" xlink:href="#DejaVuSans-116"/>
      <use x="254.777344" xlink:href="#DejaVuSans-105"/>
      <use x="282.560547" xlink:href="#DejaVuSans-118"/>
      <use x="341.740234" xlink:href="#DejaVuSans-101"/>
      <use x="403.263672" xlink:href="#DejaVuSans-32"/>
      <use x="435.050781" xlink:href="#DejaVuSans-99"/>
      <use x="490.03125" xlink:href="#DejaVuSans-104"/>
      <use x="553.410156" xlink:href="#DejaVuSans-97"/>
      <use x="614.689453" xlink:href="#DejaVuSans-110"/>
      <use x="678.068359" xlink:href="#DejaVuSans-103"/>
      <use x="741.544922" xlink:href="#DejaVuSans-101"/>
     </g>
    </g>
   </g>
   <g id="line2d_29">
    <path clip-path="url(#p8af8a5b6c7)" d="M 60.13249 39.431265 
L 62.330977 38.610346 
L 64.529463 42.714944 
L 66.72795 42.714944 
L 68.926436 41.894024 
L 71.124922 42.714944 
L 73.323409 42.714944 
L 75.521895 45.177702 
L 77.720382 44.356783 
L 79.918868 42.714944 
L 82.117354 45.177702 
L 84.315841 46.819542 
L 86.514327 48.461381 
L 88.712814 41.894024 
L 90.9113 45.177702 
L 93.109786 37.789426 
L 95.308273 42.714944 
L 97.506759 44.356783 
L 99.705246 42.714944 
L 101.903732 47.640461 
L 104.102218 46.819542 
L 106.300705 43.535863 
L 108.499191 34.505748 
L 110.697678 45.177702 
L 112.896164 50.10322 
L 115.09465 45.177702 
L 117.293137 50.10322 
L 119.491623 51.745059 
L 121.69011 58.312416 
L 123.888596 54.207818 
L 126.087082 50.10322 
L 128.285569 61.596094 
L 130.484055 72.268048 
L 132.682542 81.298164 
L 134.881028 85.402762 
L 137.079514 101.000233 
L 139.278001 102.642073 
L 141.476487 91.149199 
L 143.674973 92.791038 
L 145.87346 91.970118 
L 148.071946 92.791038 
L 150.270433 92.791038 
L 152.468919 98.537475 
L 154.667405 107.56759 
" style="fill:none;stroke:#d62728;stroke-linecap:square;stroke-opacity:0.5;"/>
   </g>
   <g id="line2d_30">
    <path clip-path="url(#p8af8a5b6c7)" d="M 60.13249 43.535863 
L 62.330977 36.147587 
L 64.529463 42.714944 
L 66.72795 42.714944 
L 68.926436 44.356783 
L 71.124922 45.177702 
L 73.323409 42.714944 
L 75.521895 45.998622 
L 77.720382 36.968507 
L 79.918868 48.461381 
L 82.117354 45.177702 
L 84.315841 44.356783 
L 86.514327 41.894024 
L 88.712814 35.326668 
L 90.9113 40.252185 
L 93.109786 29.580231 
L 95.308273 37.789426 
L 97.506759 40.252185 
L 99.705246 42.714944 
L 101.903732 44.356783 
L 104.102218 43.535863 
L 106.300705 44.356783 
L 108.499191 28.759311 
L 110.697678 42.714944 
L 112.896164 45.998622 
L 115.09465 42.714944 
L 117.293137 39.431265 
L 119.491623 28.759311 
L 121.69011 36.968507 
L 123.888596 33.684828 
L 126.087082 26.296552 
L 128.285569 35.326668 
L 130.484055 40.252185 
L 132.682542 46.819542 
L 134.881028 45.998622 
L 137.079514 64.058853 
L 139.278001 73.088968 
L 141.476487 57.491496 
L 143.674973 59.133335 
L 145.87346 59.133335 
L 148.071946 57.491496 
L 150.270433 55.849657 
L 152.468919 61.596094 
L 154.667405 86.223681 
" style="fill:none;stroke:#9467bd;stroke-linecap:square;stroke-opacity:0.5;"/>
   </g>
   <g id="line2d_31">
    <path clip-path="url(#p8af8a5b6c7)" d="M 60.13249 36.147587 
L 62.330977 39.431265 
L 64.529463 43.535863 
L 66.72795 43.535863 
L 68.926436 45.177702 
L 71.124922 41.894024 
L 73.323409 45.177702 
L 75.521895 36.968507 
L 77.720382 42.714944 
L 79.918868 48.461381 
L 82.117354 48.461381 
L 84.315841 50.10322 
L 86.514327 48.461381 
L 88.712814 45.998622 
L 90.9113 43.535863 
L 93.109786 41.073105 
L 95.308273 45.177702 
L 97.506759 46.819542 
L 99.705246 47.640461 
L 101.903732 48.461381 
L 104.102218 50.10322 
L 106.300705 45.998622 
L 108.499191 42.714944 
L 110.697678 48.461381 
L 112.896164 50.924139 
L 115.09465 50.10322 
L 117.293137 51.745059 
L 119.491623 56.670576 
L 121.69011 59.954255 
L 123.888596 57.491496 
L 126.087082 64.879772 
L 128.285569 73.088968 
L 130.484055 76.372646 
L 132.682542 82.119083 
L 134.881028 87.044601 
L 137.079514 92.791038 
L 139.278001 91.970118 
L 141.476487 90.328279 
L 143.674973 90.328279 
L 145.87346 90.328279 
L 148.071946 91.149199 
L 150.270433 90.328279 
L 152.468919 87.86552 
L 154.667405 100.179314 
" style="fill:none;stroke:#e377c2;stroke-linecap:square;stroke-opacity:0.5;"/>
   </g>
   <g id="line2d_32">
    <path clip-path="url(#p8af8a5b6c7)" d="M 60.13249 44.356783 
L 62.330977 45.177702 
L 64.529463 45.998622 
L 66.72795 45.177702 
L 68.926436 45.177702 
L 71.124922 47.640461 
L 73.323409 50.924139 
L 75.521895 46.819542 
L 77.720382 46.819542 
L 79.918868 60.775174 
L 82.117354 55.028737 
L 84.315841 48.461381 
L 86.514327 47.640461 
L 88.712814 48.461381 
L 90.9113 45.177702 
L 93.109786 43.535863 
L 95.308273 44.356783 
L 97.506759 44.356783 
L 99.705246 44.356783 
L 101.903732 44.356783 
L 104.102218 45.177702 
L 106.300705 44.356783 
L 108.499191 43.535863 
L 110.697678 45.177702 
L 112.896164 45.177702 
L 115.09465 45.177702 
L 117.293137 45.998622 
L 119.491623 47.640461 
L 121.69011 46.819542 
L 123.888596 48.461381 
L 126.087082 59.133335 
L 128.285569 64.879772 
L 130.484055 68.98437 
L 132.682542 71.447129 
L 134.881028 73.909888 
L 137.079514 69.80529 
L 139.278001 72.268048 
L 141.476487 78.014485 
L 143.674973 79.656325 
L 145.87346 79.656325 
L 148.071946 80.477244 
L 150.270433 80.477244 
L 152.468919 71.447129 
L 154.667405 76.372646 
" style="fill:none;stroke:#bcbd22;stroke-linecap:square;stroke-opacity:0.5;"/>
   </g>
   <g id="line2d_33">
    <path clip-path="url(#p8af8a5b6c7)" d="M 60.13249 45.177702 
L 62.330977 44.356783 
L 64.529463 44.356783 
L 66.72795 43.535863 
L 68.926436 43.535863 
L 71.124922 43.535863 
L 73.323409 42.714944 
L 75.521895 44.356783 
L 77.720382 44.356783 
L 79.918868 41.073105 
L 82.117354 41.073105 
L 84.315841 42.714944 
L 86.514327 42.714944 
L 88.712814 42.714944 
L 90.9113 43.535863 
L 93.109786 44.356783 
L 95.308273 44.356783 
L 97.506759 43.535863 
L 99.705246 43.535863 
L 101.903732 43.535863 
L 104.102218 42.714944 
L 106.300705 43.535863 
L 108.499191 44.356783 
L 110.697678 43.535863 
L 112.896164 41.894024 
L 115.09465 42.714944 
L 117.293137 42.714944 
L 119.491623 41.073105 
L 121.69011 41.073105 
L 123.888596 42.714944 
L 126.087082 39.431265 
L 128.285569 36.147587 
L 130.484055 35.326668 
L 132.682542 32.863909 
L 134.881028 31.22207 
L 137.079514 33.684828 
L 139.278001 36.147587 
L 141.476487 31.22207 
L 143.674973 29.580231 
L 145.87346 29.580231 
L 148.071946 29.580231 
L 150.270433 28.759311 
L 152.468919 34.505748 
L 154.667405 35.326668 
" style="fill:none;stroke:#17becf;stroke-linecap:square;stroke-opacity:0.5;"/>
   </g>
   <g id="patch_72">
    <path d="M 52.13 126.44874 
L 52.13 11.52 
" style="fill:none;stroke:#000000;stroke-linecap:square;stroke-linejoin:miter;stroke-width:0.8;"/>
   </g>
   <g id="patch_73">
    <path d="M 208.83811 126.44874 
L 208.83811 11.52 
" style="fill:none;stroke:#000000;stroke-linecap:square;stroke-linejoin:miter;stroke-width:0.8;"/>
   </g>
   <g id="patch_74">
    <path d="M 52.13 126.44874 
L 208.83811 126.44874 
" style="fill:none;stroke:#000000;stroke-linecap:square;stroke-linejoin:miter;stroke-width:0.8;"/>
   </g>
   <g id="patch_75">
    <path d="M 52.13 11.52 
L 208.83811 11.52 
" style="fill:none;stroke:#000000;stroke-linecap:square;stroke-linejoin:miter;stroke-width:0.8;"/>
   </g>
  </g>
 </g>
 <defs>
  <clipPath id="p8af8a5b6c7">
   <rect height="114.92874" width="156.70811" x="52.13" y="11.52"/>
  </clipPath>
 </defs>
</svg>
