<?xml version="1.0" encoding="utf-8" standalone="no"?>
<!DOCTYPE svg PUBLIC "-//W3C//DTD SVG 1.1//EN"
  "http://www.w3.org/Graphics/SVG/1.1/DTD/svg11.dtd">
<!-- Created with matplotlib (https://matplotlib.org/) -->
<svg height="170.07874pt" version="1.1" viewBox="0 0 255.11811 170.07874" width="255.11811pt" xmlns="http://www.w3.org/2000/svg" xmlns:xlink="http://www.w3.org/1999/xlink">
 <defs>
  <style type="text/css">
*{stroke-linecap:butt;stroke-linejoin:round;}
  </style>
 </defs>
 <g id="figure_1">
  <g id="patch_1">
   <path d="M 0 170.07874 
L 255.11811 170.07874 
L 255.11811 0 
L 0 0 
z
" style="fill:#ffffff;"/>
  </g>
  <g id="axes_1">
   <g id="patch_2">
    <path d="M 39.62 126.44874 
L 208.83811 126.44874 
L 208.83811 17.4 
L 39.62 17.4 
z
" style="fill:#ffffff;"/>
   </g>
   <g id="PolyCollection_1">
    <defs>
     <path d="M 48.046027 -43.631143 
L 48.046027 -43.630189 
L 49.881762 -43.630378 
L 51.717498 -43.630567 
L 53.553233 -43.630756 
L 55.388969 -43.630945 
L 57.224705 -43.631134 
L 59.06044 -43.63154 
L 60.896176 -43.632036 
L 62.731912 -43.632659 
L 64.567647 -43.633458 
L 66.403383 -43.634484 
L 68.239118 -43.635802 
L 70.074854 -43.637502 
L 71.91059 -43.639676 
L 73.746325 -43.642469 
L 75.582061 -43.646073 
L 77.417797 -43.650724 
L 79.253532 -43.656701 
L 81.089268 -43.664368 
L 82.925003 -43.674056 
L 84.760739 -43.688081 
L 86.596475 -43.705203 
L 88.43221 -43.727467 
L 90.267946 -43.753928 
L 92.103682 -43.790912 
L 93.939417 -43.838116 
L 95.775153 -43.903656 
L 97.610889 -44.029889 
L 99.446624 -44.212304 
L 101.28236 -44.377408 
L 103.118095 -44.548427 
L 104.953831 -44.788332 
L 106.789567 -45.096753 
L 108.625302 -45.474983 
L 110.461038 -45.895343 
L 112.296774 -46.371885 
L 114.132509 -47.061791 
L 115.968245 -47.928735 
L 117.80398 -48.934424 
L 119.639716 -50.152416 
L 121.475452 -51.677905 
L 123.311187 -53.603873 
L 125.146923 -55.656299 
L 126.982659 -57.972018 
L 128.818394 -59.691535 
L 130.65413 -60.911701 
L 132.489865 -61.935553 
L 134.325601 -62.441148 
L 136.161337 -62.657611 
L 137.997072 -63.292776 
L 139.832808 -63.761361 
L 141.668544 -64.139685 
L 143.504279 -64.456068 
L 145.340015 -64.792486 
L 147.17575 -64.964086 
L 149.011486 -64.991478 
L 150.847222 -65.161964 
L 152.682957 -65.286034 
L 154.518693 -65.375057 
L 156.354429 -65.445607 
L 158.190164 -65.525441 
L 160.0259 -65.571545 
L 161.861636 -65.579745 
L 161.861636 -125.091538 
L 161.861636 -125.091538 
L 160.0259 -123.039696 
L 158.190164 -119.746084 
L 156.354429 -116.041873 
L 154.518693 -112.792294 
L 152.682957 -109.477769 
L 150.847222 -105.907562 
L 149.011486 -102.238637 
L 147.17575 -100.405539 
L 145.340015 -97.241319 
L 143.504279 -93.600341 
L 141.668544 -90.358824 
L 139.832808 -87.170657 
L 137.997072 -83.984665 
L 136.161337 -80.65166 
L 134.325601 -78.579799 
L 132.489865 -76.051476 
L 130.65413 -72.983504 
L 128.818394 -69.988241 
L 126.982659 -66.743667 
L 125.146923 -62.744009 
L 123.311187 -59.350977 
L 121.475452 -56.071115 
L 119.639716 -53.630956 
L 117.80398 -51.76904 
L 115.968245 -50.267584 
L 114.132509 -48.943697 
L 112.296774 -47.924019 
L 110.461038 -47.258551 
L 108.625302 -46.671685 
L 106.789567 -46.117178 
L 104.953831 -45.663982 
L 103.118095 -45.313721 
L 101.28236 -45.066404 
L 99.446624 -44.810355 
L 97.610889 -44.420494 
L 95.775153 -44.194159 
L 93.939417 -44.082293 
L 92.103682 -43.997239 
L 90.267946 -43.928012 
L 88.43221 -43.874796 
L 86.596475 -43.82931 
L 84.760739 -43.792459 
L 82.925003 -43.761193 
L 81.089268 -43.73773 
L 79.253532 -43.718142 
L 77.417797 -43.702097 
L 75.582061 -43.688958 
L 73.746325 -43.678172 
L 71.91059 -43.669321 
L 70.074854 -43.662014 
L 68.239118 -43.656014 
L 66.403383 -43.651105 
L 64.567647 -43.647078 
L 62.731912 -43.643764 
L 60.896176 -43.641026 
L 59.06044 -43.638749 
L 57.224705 -43.636856 
L 55.388969 -43.635714 
L 53.553233 -43.634571 
L 51.717498 -43.633428 
L 49.881762 -43.632285 
L 48.046027 -43.631143 
z
" id="m1b40c31f6e" style="stroke:#6495ed;stroke-opacity:0.4;"/>
    </defs>
    <g clip-path="url(#p24f1b719cf)">
     <use style="fill:#6495ed;fill-opacity:0.4;stroke:#6495ed;stroke-opacity:0.4;" x="0" xlink:href="#m1b40c31f6e" y="170.07874"/>
    </g>
   </g>
   <g id="PolyCollection_2">
    <defs>
     <path d="M 48.046027 -43.630666 
L 48.046027 -43.630356 
L 49.881762 -43.630711 
L 51.717498 -43.631067 
L 53.553233 -43.631423 
L 55.388969 -43.631779 
L 57.224705 -43.632134 
L 59.06044 -43.632832 
L 60.896176 -43.63368 
L 62.731912 -43.634728 
L 64.567647 -43.63604 
L 66.403383 -43.637696 
L 68.239118 -43.639783 
L 70.074854 -43.642422 
L 71.91059 -43.645746 
L 73.746325 -43.649937 
L 75.582061 -43.655228 
L 77.417797 -43.661904 
L 79.253532 -43.67032 
L 81.089268 -43.680927 
L 82.925003 -43.693979 
L 84.760739 -43.712406 
L 86.596475 -43.734553 
L 88.43221 -43.762902 
L 90.267946 -43.796328 
L 92.103682 -43.841975 
L 93.939417 -43.899489 
L 95.775153 -43.977807 
L 97.610889 -44.129792 
L 99.446624 -44.365915 
L 101.28236 -44.556424 
L 103.118095 -44.749528 
L 104.953831 -45.021313 
L 106.789567 -45.370223 
L 108.625302 -45.79885 
L 110.461038 -46.265159 
L 112.296774 -46.792353 
L 114.132509 -47.571749 
L 115.968245 -48.567694 
L 117.80398 -49.7122 
L 119.639716 -51.112376 
L 121.475452 -52.902254 
L 123.311187 -55.222149 
L 125.146923 -57.658313 
L 126.982659 -60.452476 
L 128.818394 -62.623983 
L 130.65413 -64.360445 
L 132.489865 -65.921055 
L 134.325601 -66.825797 
L 136.161337 -67.291842 
L 137.997072 -68.438671 
L 139.832808 -69.345718 
L 141.668544 -70.121641 
L 143.504279 -70.80709 
L 145.340015 -71.543042 
L 147.17575 -71.977505 
L 149.011486 -72.077076 
L 150.847222 -72.523457 
L 152.682957 -72.871862 
L 154.518693 -73.141826 
L 156.354429 -73.369743 
L 158.190164 -73.625626 
L 160.0259 -73.792705 
L 161.861636 -73.834578 
L 161.861636 -89.682057 
L 161.861636 -89.682057 
L 160.0259 -89.397463 
L 158.190164 -88.664856 
L 156.354429 -87.705757 
L 154.518693 -86.845292 
L 152.682957 -85.901413 
L 150.847222 -84.79441 
L 149.011486 -83.504601 
L 147.17575 -83.072006 
L 145.340015 -81.887901 
L 143.504279 -80.218365 
L 141.668544 -78.690064 
L 139.832808 -77.073876 
L 137.997072 -75.310547 
L 136.161337 -73.286298 
L 134.325601 -72.261265 
L 132.489865 -70.674812 
L 130.65413 -68.406253 
L 128.818394 -66.062424 
L 126.982659 -63.372584 
L 125.146923 -60.022989 
L 123.311187 -57.145014 
L 121.475452 -54.367724 
L 119.639716 -52.272769 
L 117.80398 -50.658263 
L 115.968245 -49.346066 
L 114.132509 -48.200578 
L 112.296774 -47.311702 
L 110.461038 -46.719762 
L 108.625302 -46.197589 
L 106.789567 -45.711752 
L 104.953831 -45.315228 
L 103.118095 -45.00799 
L 101.28236 -44.790179 
L 99.446624 -44.569504 
L 97.610889 -44.260929 
L 95.775153 -44.07557 
L 93.939417 -43.981703 
L 92.103682 -43.911425 
L 90.267946 -43.854808 
L 88.43221 -43.81253 
L 86.596475 -43.776276 
L 84.760739 -43.747422 
L 82.925003 -43.723137 
L 81.089268 -43.705449 
L 79.253532 -43.690854 
L 77.417797 -43.679054 
L 75.582061 -43.669517 
L 73.746325 -43.661811 
L 71.91059 -43.655586 
L 70.074854 -43.650551 
L 68.239118 -43.646481 
L 66.403383 -43.64319 
L 64.567647 -43.64053 
L 62.731912 -43.638377 
L 60.896176 -43.636626 
L 59.06044 -43.635188 
L 57.224705 -43.633996 
L 55.388969 -43.63333 
L 53.553233 -43.632664 
L 51.717498 -43.631998 
L 49.881762 -43.631332 
L 48.046027 -43.630666 
z
" id="m9649f6929d" style="stroke:#6495ed;stroke-opacity:0.6;"/>
    </defs>
    <g clip-path="url(#p24f1b719cf)">
     <use style="fill:#6495ed;fill-opacity:0.6;stroke:#6495ed;stroke-opacity:0.6;" x="0" xlink:href="#m9649f6929d" y="170.07874"/>
    </g>
   </g>
   <g id="PolyCollection_3">
    <defs>
     <path d="M 161.861636 -125.091538 
L 161.861636 -65.579745 
L 163.697371 -65.586609 
L 165.533107 -65.592258 
L 167.368842 -65.596838 
L 169.204578 -65.6005 
L 171.040314 -65.603402 
L 172.876049 -65.605681 
L 174.711785 -65.607455 
L 176.547521 -65.608827 
L 178.383256 -65.609883 
L 180.218992 -65.610693 
L 182.054727 -65.611312 
L 183.890463 -65.611784 
L 185.726199 -65.612144 
L 187.561934 -65.612416 
L 189.39767 -65.612622 
L 191.233406 -65.612776 
L 193.069141 -65.612893 
L 194.904877 -65.612981 
L 196.740612 -65.613047 
L 198.576348 -65.613096 
L 200.412084 -65.613134 
L 200.412084 -152.67874 
L 200.412084 -152.67874 
L 198.576348 -152.00991 
L 196.740612 -151.29473 
L 194.904877 -150.529986 
L 193.069141 -149.712237 
L 191.233406 -148.837804 
L 189.39767 -147.902751 
L 187.561934 -146.907923 
L 185.726199 -145.849791 
L 183.890463 -144.729406 
L 182.054727 -143.543892 
L 180.218992 -142.310811 
L 178.383256 -141.005604 
L 176.547521 -139.61073 
L 174.711785 -138.116794 
L 172.876049 -136.51461 
L 171.040314 -134.811026 
L 169.204578 -133.022737 
L 167.368842 -131.134949 
L 165.533107 -129.169935 
L 163.697371 -127.149077 
L 161.861636 -125.091538 
z
" id="meadaf58951" style="stroke:#228b22;stroke-opacity:0.4;"/>
    </defs>
    <g clip-path="url(#p24f1b719cf)">
     <use style="fill:#228b22;fill-opacity:0.4;stroke:#228b22;stroke-opacity:0.4;" x="0" xlink:href="#meadaf58951" y="170.07874"/>
    </g>
   </g>
   <g id="PolyCollection_4">
    <defs>
     <path d="M 161.861636 -89.682057 
L 161.861636 -73.834578 
L 163.697371 -73.871304 
L 165.533107 -73.902904 
L 167.368842 -73.929597 
L 169.204578 -73.951808 
L 171.040314 -73.970069 
L 172.876049 -73.984929 
L 174.711785 -73.996883 
L 176.547521 -74.006485 
L 178.383256 -74.014161 
L 180.218992 -74.020255 
L 182.054727 -74.0251 
L 183.890463 -74.028941 
L 185.726199 -74.031986 
L 187.561934 -74.0344 
L 189.39767 -74.036309 
L 191.233406 -74.037819 
L 193.069141 -74.039009 
L 194.904877 -74.039947 
L 196.740612 -74.040687 
L 198.576348 -74.041271 
L 200.412084 -74.041733 
L 200.412084 -91.677702 
L 200.412084 -91.677702 
L 198.576348 -91.664508 
L 196.740612 -91.649027 
L 194.904877 -91.630814 
L 193.069141 -91.609399 
L 191.233406 -91.584321 
L 189.39767 -91.555027 
L 187.561934 -91.520602 
L 185.726199 -91.480077 
L 183.890463 -91.432491 
L 182.054727 -91.376522 
L 180.218992 -91.310714 
L 178.383256 -91.2336 
L 176.547521 -91.142948 
L 174.711785 -91.036797 
L 172.876049 -90.912563 
L 171.040314 -90.76804 
L 169.204578 -90.600916 
L 167.368842 -90.408788 
L 165.533107 -90.1909 
L 163.697371 -89.948004 
L 161.861636 -89.682057 
z
" id="maac7da46e5" style="stroke:#228b22;stroke-opacity:0.6;"/>
    </defs>
    <g clip-path="url(#p24f1b719cf)">
     <use style="fill:#228b22;fill-opacity:0.6;stroke:#228b22;stroke-opacity:0.6;" x="0" xlink:href="#maac7da46e5" y="170.07874"/>
    </g>
   </g>
   <g id="PathCollection_1">
    <defs>
     <path d="M -0.866025 1.732051 
L 0 0.866025 
L 0.866025 1.732051 
L 1.732051 0.866025 
L 0.866025 0 
L 1.732051 -0.866025 
L 0.866025 -1.732051 
L 0 -0.866025 
L -0.866025 -1.732051 
L -1.732051 -0.866025 
L -0.866025 0 
L -1.732051 0.866025 
z
" id="mb596e87ddf" style="stroke:#8a2be2;"/>
    </defs>
    <g clip-path="url(#p24f1b719cf)">
     <use style="fill:#8a2be2;stroke:#8a2be2;" x="125.146923" xlink:href="#mb596e87ddf" y="28.304874"/>
    </g>
   </g>
   <g id="PathCollection_2">
    <defs>
     <path d="M 0 -1.732051 
L -0.38887 -0.535233 
L -1.647278 -0.535233 
L -0.629204 0.204441 
L -1.018074 1.401259 
L -0 0.661585 
L 1.018074 1.401259 
L 0.629204 0.204441 
L 1.647278 -0.535233 
L 0.38887 -0.535233 
z
" id="mbcf8fd9ca2" style="stroke:#000000;"/>
    </defs>
    <g clip-path="url(#p24f1b719cf)">
     <use style="stroke:#000000;" x="117.80398" xlink:href="#mbcf8fd9ca2" y="28.304874"/>
    </g>
   </g>
   <g id="PathCollection_3">
    <defs>
     <path d="M -1.732051 1.732051 
L 1.732051 1.732051 
L 1.732051 -1.732051 
L -1.732051 -1.732051 
z
" id="m24378eb928" style="stroke:#c71585;"/>
    </defs>
    <g clip-path="url(#p24f1b719cf)">
     <use style="fill:#c71585;stroke:#c71585;" x="128.818394" xlink:href="#m24378eb928" y="28.304874"/>
    </g>
   </g>
   <g id="PathCollection_4">
    <defs>
     <path d="M 0 -1.732051 
L -1.647278 -0.535233 
L -1.018074 1.401259 
L 1.018074 1.401259 
L 1.647278 -0.535233 
z
" id="ma29eca9f3b" style="stroke:#800000;"/>
    </defs>
    <g clip-path="url(#p24f1b719cf)">
     <use style="fill:#800000;stroke:#800000;" x="125.146923" xlink:href="#ma29eca9f3b" y="33.212067"/>
    </g>
   </g>
   <g id="PathCollection_5">
    <defs>
     <path d="M -0 2.44949 
L 1.469694 0 
L 0 -2.44949 
L -1.469694 -0 
z
" id="mdec9c410f4" style="stroke:#556b2f;"/>
    </defs>
    <g clip-path="url(#p24f1b719cf)">
     <use style="fill:#556b2f;stroke:#556b2f;" x="125.146923" xlink:href="#mdec9c410f4" y="33.212067"/>
    </g>
   </g>
   <g id="patch_3">
    <path clip-path="url(#p24f1b719cf)" d="M 47.311732 126.44874 
L 48.780321 126.44874 
L 48.780321 126.44874 
L 47.311732 126.44874 
z
" style="fill:#1f77b4;opacity:0.5;"/>
   </g>
   <g id="patch_4">
    <path clip-path="url(#p24f1b719cf)" d="M 49.147468 126.44874 
L 50.616056 126.44874 
L 50.616056 126.44874 
L 49.147468 126.44874 
z
" style="fill:#1f77b4;opacity:0.5;"/>
   </g>
   <g id="patch_5">
    <path clip-path="url(#p24f1b719cf)" d="M 50.983204 126.44874 
L 52.451792 126.44874 
L 52.451792 126.44874 
L 50.983204 126.44874 
z
" style="fill:#1f77b4;opacity:0.5;"/>
   </g>
   <g id="patch_6">
    <path clip-path="url(#p24f1b719cf)" d="M 52.818939 126.44874 
L 54.287528 126.44874 
L 54.287528 126.44874 
L 52.818939 126.44874 
z
" style="fill:#1f77b4;opacity:0.5;"/>
   </g>
   <g id="patch_7">
    <path clip-path="url(#p24f1b719cf)" d="M 54.654675 126.44874 
L 56.123263 126.44874 
L 56.123263 126.448654 
L 54.654675 126.448654 
z
" style="fill:#1f77b4;opacity:0.5;"/>
   </g>
   <g id="patch_8">
    <path clip-path="url(#p24f1b719cf)" d="M 56.49041 126.44874 
L 57.958999 126.44874 
L 57.958999 126.448654 
L 56.49041 126.448654 
z
" style="fill:#1f77b4;opacity:0.5;"/>
   </g>
   <g id="patch_9">
    <path clip-path="url(#p24f1b719cf)" d="M 58.326146 126.44874 
L 59.794735 126.44874 
L 59.794735 126.448654 
L 58.326146 126.448654 
z
" style="fill:#1f77b4;opacity:0.5;"/>
   </g>
   <g id="patch_10">
    <path clip-path="url(#p24f1b719cf)" d="M 60.161882 126.44874 
L 61.63047 126.44874 
L 61.63047 126.448654 
L 60.161882 126.448654 
z
" style="fill:#1f77b4;opacity:0.5;"/>
   </g>
   <g id="patch_11">
    <path clip-path="url(#p24f1b719cf)" d="M 61.997617 126.44874 
L 63.466206 126.44874 
L 63.466206 126.448654 
L 61.997617 126.448654 
z
" style="fill:#1f77b4;opacity:0.5;"/>
   </g>
   <g id="patch_12">
    <path clip-path="url(#p24f1b719cf)" d="M 63.833353 126.44874 
L 65.301941 126.44874 
L 65.301941 126.448654 
L 63.833353 126.448654 
z
" style="fill:#1f77b4;opacity:0.5;"/>
   </g>
   <g id="patch_13">
    <path clip-path="url(#p24f1b719cf)" d="M 65.669089 126.44874 
L 67.137677 126.44874 
L 67.137677 126.448654 
L 65.669089 126.448654 
z
" style="fill:#1f77b4;opacity:0.5;"/>
   </g>
   <g id="patch_14">
    <path clip-path="url(#p24f1b719cf)" d="M 67.504824 126.44874 
L 68.973413 126.44874 
L 68.973413 126.448654 
L 67.504824 126.448654 
z
" style="fill:#1f77b4;opacity:0.5;"/>
   </g>
   <g id="patch_15">
    <path clip-path="url(#p24f1b719cf)" d="M 69.34056 126.44874 
L 70.809148 126.44874 
L 70.809148 126.448654 
L 69.34056 126.448654 
z
" style="fill:#1f77b4;opacity:0.5;"/>
   </g>
   <g id="patch_16">
    <path clip-path="url(#p24f1b719cf)" d="M 71.176295 126.44874 
L 72.644884 126.44874 
L 72.644884 126.448654 
L 71.176295 126.448654 
z
" style="fill:#1f77b4;opacity:0.5;"/>
   </g>
   <g id="patch_17">
    <path clip-path="url(#p24f1b719cf)" d="M 73.012031 126.44874 
L 74.48062 126.44874 
L 74.48062 126.448654 
L 73.012031 126.448654 
z
" style="fill:#1f77b4;opacity:0.5;"/>
   </g>
   <g id="patch_18">
    <path clip-path="url(#p24f1b719cf)" d="M 74.847767 126.44874 
L 76.316355 126.44874 
L 76.316355 126.448654 
L 74.847767 126.448654 
z
" style="fill:#1f77b4;opacity:0.5;"/>
   </g>
   <g id="patch_19">
    <path clip-path="url(#p24f1b719cf)" d="M 76.683502 126.44874 
L 78.152091 126.44874 
L 78.152091 126.448654 
L 76.683502 126.448654 
z
" style="fill:#1f77b4;opacity:0.5;"/>
   </g>
   <g id="patch_20">
    <path clip-path="url(#p24f1b719cf)" d="M 78.519238 126.44874 
L 79.987826 126.44874 
L 79.987826 126.448654 
L 78.519238 126.448654 
z
" style="fill:#1f77b4;opacity:0.5;"/>
   </g>
   <g id="patch_21">
    <path clip-path="url(#p24f1b719cf)" d="M 80.354974 126.44874 
L 81.823562 126.44874 
L 81.823562 126.448654 
L 80.354974 126.448654 
z
" style="fill:#1f77b4;opacity:0.5;"/>
   </g>
   <g id="patch_22">
    <path clip-path="url(#p24f1b719cf)" d="M 82.190709 126.44874 
L 83.659298 126.44874 
L 83.659298 126.448654 
L 82.190709 126.448654 
z
" style="fill:#1f77b4;opacity:0.5;"/>
   </g>
   <g id="patch_23">
    <path clip-path="url(#p24f1b719cf)" d="M 84.026445 126.44874 
L 85.495033 126.44874 
L 85.495033 126.448654 
L 84.026445 126.448654 
z
" style="fill:#1f77b4;opacity:0.5;"/>
   </g>
   <g id="patch_24">
    <path clip-path="url(#p24f1b719cf)" d="M 85.86218 126.44874 
L 87.330769 126.44874 
L 87.330769 126.448654 
L 85.86218 126.448654 
z
" style="fill:#1f77b4;opacity:0.5;"/>
   </g>
   <g id="patch_25">
    <path clip-path="url(#p24f1b719cf)" d="M 87.697916 126.44874 
L 89.166505 126.44874 
L 89.166505 126.448654 
L 87.697916 126.448654 
z
" style="fill:#1f77b4;opacity:0.5;"/>
   </g>
   <g id="patch_26">
    <path clip-path="url(#p24f1b719cf)" d="M 89.533652 126.44874 
L 91.00224 126.44874 
L 91.00224 126.448654 
L 89.533652 126.448654 
z
" style="fill:#1f77b4;opacity:0.5;"/>
   </g>
   <g id="patch_27">
    <path clip-path="url(#p24f1b719cf)" d="M 91.369387 126.44874 
L 92.837976 126.44874 
L 92.837976 126.448654 
L 91.369387 126.448654 
z
" style="fill:#1f77b4;opacity:0.5;"/>
   </g>
   <g id="patch_28">
    <path clip-path="url(#p24f1b719cf)" d="M 93.205123 126.44874 
L 94.673711 126.44874 
L 94.673711 126.448654 
L 93.205123 126.448654 
z
" style="fill:#1f77b4;opacity:0.5;"/>
   </g>
   <g id="patch_29">
    <path clip-path="url(#p24f1b719cf)" d="M 95.040859 126.44874 
L 96.509447 126.44874 
L 96.509447 126.448253 
L 95.040859 126.448253 
z
" style="fill:#1f77b4;opacity:0.5;"/>
   </g>
   <g id="patch_30">
    <path clip-path="url(#p24f1b719cf)" d="M 96.876594 126.44874 
L 98.345183 126.44874 
L 98.345183 126.446476 
L 96.876594 126.446476 
z
" style="fill:#1f77b4;opacity:0.5;"/>
   </g>
   <g id="patch_31">
    <path clip-path="url(#p24f1b719cf)" d="M 98.71233 126.44874 
L 100.180918 126.44874 
L 100.180918 126.444957 
L 98.71233 126.444957 
z
" style="fill:#1f77b4;opacity:0.5;"/>
   </g>
   <g id="patch_32">
    <path clip-path="url(#p24f1b719cf)" d="M 100.548066 126.44874 
L 102.016654 126.44874 
L 102.016654 126.442176 
L 100.548066 126.442176 
z
" style="fill:#1f77b4;opacity:0.5;"/>
   </g>
   <g id="patch_33">
    <path clip-path="url(#p24f1b719cf)" d="M 102.383801 126.44874 
L 103.85239 126.44874 
L 103.85239 126.43951 
L 102.383801 126.43951 
z
" style="fill:#1f77b4;opacity:0.5;"/>
   </g>
   <g id="patch_34">
    <path clip-path="url(#p24f1b719cf)" d="M 104.219537 126.44874 
L 105.688125 126.44874 
L 105.688125 126.437275 
L 104.219537 126.437275 
z
" style="fill:#1f77b4;opacity:0.5;"/>
   </g>
   <g id="patch_35">
    <path clip-path="url(#p24f1b719cf)" d="M 106.055272 126.44874 
L 107.523861 126.44874 
L 107.523861 126.430109 
L 106.055272 126.430109 
z
" style="fill:#1f77b4;opacity:0.5;"/>
   </g>
   <g id="patch_36">
    <path clip-path="url(#p24f1b719cf)" d="M 107.891008 126.44874 
L 109.359597 126.44874 
L 109.359597 126.423287 
L 107.891008 126.423287 
z
" style="fill:#1f77b4;opacity:0.5;"/>
   </g>
   <g id="patch_37">
    <path clip-path="url(#p24f1b719cf)" d="M 109.726744 126.44874 
L 111.195332 126.44874 
L 111.195332 126.416407 
L 109.726744 126.416407 
z
" style="fill:#1f77b4;opacity:0.5;"/>
   </g>
   <g id="patch_38">
    <path clip-path="url(#p24f1b719cf)" d="M 111.562479 126.44874 
L 113.031068 126.44874 
L 113.031068 126.400327 
L 111.562479 126.400327 
z
" style="fill:#1f77b4;opacity:0.5;"/>
   </g>
   <g id="patch_39">
    <path clip-path="url(#p24f1b719cf)" d="M 113.398215 126.44874 
L 114.866803 126.44874 
L 114.866803 126.39038 
L 113.398215 126.39038 
z
" style="fill:#1f77b4;opacity:0.5;"/>
   </g>
   <g id="patch_40">
    <path clip-path="url(#p24f1b719cf)" d="M 115.233951 126.44874 
L 116.702539 126.44874 
L 116.702539 126.377023 
L 115.233951 126.377023 
z
" style="fill:#1f77b4;opacity:0.5;"/>
   </g>
   <g id="patch_41">
    <path clip-path="url(#p24f1b719cf)" d="M 117.069686 126.44874 
L 118.538275 126.44874 
L 118.538275 126.360197 
L 117.069686 126.360197 
z
" style="fill:#1f77b4;opacity:0.5;"/>
   </g>
   <g id="patch_42">
    <path clip-path="url(#p24f1b719cf)" d="M 118.905422 126.44874 
L 120.37401 126.44874 
L 120.37401 126.338155 
L 118.905422 126.338155 
z
" style="fill:#1f77b4;opacity:0.5;"/>
   </g>
   <g id="patch_43">
    <path clip-path="url(#p24f1b719cf)" d="M 120.741157 126.44874 
L 122.209746 126.44874 
L 122.209746 126.315854 
L 120.741157 126.315854 
z
" style="fill:#1f77b4;opacity:0.5;"/>
   </g>
   <g id="patch_44">
    <path clip-path="url(#p24f1b719cf)" d="M 122.576893 126.44874 
L 124.045482 126.44874 
L 124.045482 126.28011 
L 122.576893 126.28011 
z
" style="fill:#1f77b4;opacity:0.5;"/>
   </g>
   <g id="patch_45">
    <path clip-path="url(#p24f1b719cf)" d="M 124.412629 126.44874 
L 125.881217 126.44874 
L 125.881217 126.237344 
L 124.412629 126.237344 
z
" style="fill:#1f77b4;opacity:0.5;"/>
   </g>
   <g id="patch_46">
    <path clip-path="url(#p24f1b719cf)" d="M 126.248364 126.44874 
L 127.716953 126.44874 
L 127.716953 126.185835 
L 126.248364 126.185835 
z
" style="fill:#1f77b4;opacity:0.5;"/>
   </g>
   <g id="patch_47">
    <path clip-path="url(#p24f1b719cf)" d="M 128.0841 126.44874 
L 129.552688 126.44874 
L 129.552688 126.15783 
L 128.0841 126.15783 
z
" style="fill:#1f77b4;opacity:0.5;"/>
   </g>
   <g id="patch_48">
    <path clip-path="url(#p24f1b719cf)" d="M 129.919836 126.44874 
L 131.388424 126.44874 
L 131.388424 126.09153 
L 129.919836 126.09153 
z
" style="fill:#1f77b4;opacity:0.5;"/>
   </g>
   <g id="patch_49">
    <path clip-path="url(#p24f1b719cf)" d="M 131.755571 126.44874 
L 133.22416 126.44874 
L 133.22416 126.015542 
L 131.755571 126.015542 
z
" style="fill:#1f77b4;opacity:0.5;"/>
   </g>
   <g id="patch_50">
    <path clip-path="url(#p24f1b719cf)" d="M 133.591307 126.44874 
L 135.059895 126.44874 
L 135.059895 125.942535 
L 133.591307 125.942535 
z
" style="fill:#1f77b4;opacity:0.5;"/>
   </g>
   <g id="patch_51">
    <path clip-path="url(#p24f1b719cf)" d="M 135.427042 126.44874 
L 136.895631 126.44874 
L 136.895631 125.842297 
L 135.427042 125.842297 
z
" style="fill:#1f77b4;opacity:0.5;"/>
   </g>
   <g id="patch_52">
    <path clip-path="url(#p24f1b719cf)" d="M 137.262778 126.44874 
L 138.731367 126.44874 
L 138.731367 125.761379 
L 137.262778 125.761379 
z
" style="fill:#1f77b4;opacity:0.5;"/>
   </g>
   <g id="patch_53">
    <path clip-path="url(#p24f1b719cf)" d="M 139.098514 126.44874 
L 140.567102 126.44874 
L 140.567102 125.646723 
L 139.098514 125.646723 
z
" style="fill:#1f77b4;opacity:0.5;"/>
   </g>
   <g id="patch_54">
    <path clip-path="url(#p24f1b719cf)" d="M 140.934249 126.44874 
L 142.402838 126.44874 
L 142.402838 125.545654 
L 140.934249 125.545654 
z
" style="fill:#1f77b4;opacity:0.5;"/>
   </g>
   <g id="patch_55">
    <path clip-path="url(#p24f1b719cf)" d="M 142.769985 126.44874 
L 144.238573 126.44874 
L 144.238573 125.425065 
L 142.769985 125.425065 
z
" style="fill:#1f77b4;opacity:0.5;"/>
   </g>
   <g id="patch_56">
    <path clip-path="url(#p24f1b719cf)" d="M 144.605721 126.44874 
L 146.074309 126.44874 
L 146.074309 125.272516 
L 144.605721 125.272516 
z
" style="fill:#1f77b4;opacity:0.5;"/>
   </g>
   <g id="patch_57">
    <path clip-path="url(#p24f1b719cf)" d="M 146.441456 126.44874 
L 147.910045 126.44874 
L 147.910045 125.100933 
L 146.441456 125.100933 
z
" style="fill:#1f77b4;opacity:0.5;"/>
   </g>
   <g id="patch_58">
    <path clip-path="url(#p24f1b719cf)" d="M 148.277192 126.44874 
L 149.74578 126.44874 
L 149.74578 124.912984 
L 148.277192 124.912984 
z
" style="fill:#1f77b4;opacity:0.5;"/>
   </g>
   <g id="patch_59">
    <path clip-path="url(#p24f1b719cf)" d="M 150.112927 126.44874 
L 151.581516 126.44874 
L 151.581516 124.753613 
L 150.112927 124.753613 
z
" style="fill:#1f77b4;opacity:0.5;"/>
   </g>
   <g id="patch_60">
    <path clip-path="url(#p24f1b719cf)" d="M 151.948663 126.44874 
L 153.417252 126.44874 
L 153.417252 124.616341 
L 151.948663 124.616341 
z
" style="fill:#1f77b4;opacity:0.5;"/>
   </g>
   <g id="patch_61">
    <path clip-path="url(#p24f1b719cf)" d="M 153.784399 126.44874 
L 155.252987 126.44874 
L 155.252987 124.465884 
L 153.784399 124.465884 
z
" style="fill:#1f77b4;opacity:0.5;"/>
   </g>
   <g id="patch_62">
    <path clip-path="url(#p24f1b719cf)" d="M 155.620134 126.44874 
L 157.088723 126.44874 
L 157.088723 124.316545 
L 155.620134 124.316545 
z
" style="fill:#1f77b4;opacity:0.5;"/>
   </g>
   <g id="patch_63">
    <path clip-path="url(#p24f1b719cf)" d="M 157.45587 126.44874 
L 158.924458 126.44874 
L 158.924458 124.140176 
L 157.45587 124.140176 
z
" style="fill:#1f77b4;opacity:0.5;"/>
   </g>
   <g id="patch_64">
    <path clip-path="url(#p24f1b719cf)" d="M 159.291606 126.44874 
L 160.760194 126.44874 
L 160.760194 123.969367 
L 159.291606 123.969367 
z
" style="fill:#1f77b4;opacity:0.5;"/>
   </g>
   <g id="patch_65">
    <path clip-path="url(#p24f1b719cf)" d="M 161.127341 126.44874 
L 162.59593 126.44874 
L 162.59593 123.798129 
L 161.127341 123.798129 
z
" style="fill:#1f77b4;opacity:0.5;"/>
   </g>
   <g id="patch_66">
    <path clip-path="url(#p24f1b719cf)" d="M 162.963077 126.44874 
L 164.431665 126.44874 
L 164.431665 123.648589 
L 162.963077 123.648589 
z
" style="fill:#1f77b4;opacity:0.5;"/>
   </g>
   <g id="patch_67">
    <path clip-path="url(#p24f1b719cf)" d="M 164.798813 126.44874 
L 166.267401 126.44874 
L 166.267401 123.532501 
L 164.798813 123.532501 
z
" style="fill:#1f77b4;opacity:0.5;"/>
   </g>
   <g id="patch_68">
    <path clip-path="url(#p24f1b719cf)" d="M 166.634548 126.44874 
L 168.103137 126.44874 
L 168.103137 123.416326 
L 166.634548 123.416326 
z
" style="fill:#1f77b4;opacity:0.5;"/>
   </g>
   <g id="patch_69">
    <path clip-path="url(#p24f1b719cf)" d="M 168.470284 126.44874 
L 169.938872 126.44874 
L 169.938872 123.279255 
L 168.470284 123.279255 
z
" style="fill:#1f77b4;opacity:0.5;"/>
   </g>
   <g id="patch_70">
    <path clip-path="url(#p24f1b719cf)" d="M 170.306019 126.44874 
L 171.774608 126.44874 
L 171.774608 123.145451 
L 170.306019 123.145451 
z
" style="fill:#1f77b4;opacity:0.5;"/>
   </g>
   <g id="patch_71">
    <path clip-path="url(#p24f1b719cf)" d="M 172.141755 126.44874 
L 173.610344 126.44874 
L 173.610344 123.014027 
L 172.141755 123.014027 
z
" style="fill:#1f77b4;opacity:0.5;"/>
   </g>
   <g id="patch_72">
    <path clip-path="url(#p24f1b719cf)" d="M 173.977491 126.44874 
L 175.446079 126.44874 
L 175.446079 122.876297 
L 173.977491 122.876297 
z
" style="fill:#1f77b4;opacity:0.5;"/>
   </g>
   <g id="patch_73">
    <path clip-path="url(#p24f1b719cf)" d="M 175.813226 126.44874 
L 177.281815 126.44874 
L 177.281815 122.752584 
L 175.813226 122.752584 
z
" style="fill:#1f77b4;opacity:0.5;"/>
   </g>
   <g id="patch_74">
    <path clip-path="url(#p24f1b719cf)" d="M 177.648962 126.44874 
L 179.11755 126.44874 
L 179.11755 122.649422 
L 177.648962 122.649422 
z
" style="fill:#1f77b4;opacity:0.5;"/>
   </g>
   <g id="patch_75">
    <path clip-path="url(#p24f1b719cf)" d="M 179.484698 126.44874 
L 180.953286 126.44874 
L 180.953286 122.562312 
L 179.484698 122.562312 
z
" style="fill:#1f77b4;opacity:0.5;"/>
   </g>
   <g id="patch_76">
    <path clip-path="url(#p24f1b719cf)" d="M 181.320433 126.44874 
L 182.789022 126.44874 
L 182.789022 122.452358 
L 181.320433 122.452358 
z
" style="fill:#1f77b4;opacity:0.5;"/>
   </g>
   <g id="patch_77">
    <path clip-path="url(#p24f1b719cf)" d="M 183.156169 126.44874 
L 184.624757 126.44874 
L 184.624757 122.331854 
L 183.156169 122.331854 
z
" style="fill:#1f77b4;opacity:0.5;"/>
   </g>
   <g id="patch_78">
    <path clip-path="url(#p24f1b719cf)" d="M 184.991904 126.44874 
L 186.460493 126.44874 
L 186.460493 122.218603 
L 184.991904 122.218603 
z
" style="fill:#1f77b4;opacity:0.5;"/>
   </g>
   <g id="patch_79">
    <path clip-path="url(#p24f1b719cf)" d="M 186.82764 126.44874 
L 188.296229 126.44874 
L 188.296229 122.084055 
L 186.82764 122.084055 
z
" style="fill:#1f77b4;opacity:0.5;"/>
   </g>
   <g id="patch_80">
    <path clip-path="url(#p24f1b719cf)" d="M 188.663376 126.44874 
L 190.131964 126.44874 
L 190.131964 121.966762 
L 188.663376 121.966762 
z
" style="fill:#1f77b4;opacity:0.5;"/>
   </g>
   <g id="patch_81">
    <path clip-path="url(#p24f1b719cf)" d="M 190.499111 126.44874 
L 191.9677 126.44874 
L 191.9677 121.876385 
L 190.499111 121.876385 
z
" style="fill:#1f77b4;opacity:0.5;"/>
   </g>
   <g id="patch_82">
    <path clip-path="url(#p24f1b719cf)" d="M 192.334847 126.44874 
L 193.803435 126.44874 
L 193.803435 121.791195 
L 192.334847 121.791195 
z
" style="fill:#1f77b4;opacity:0.5;"/>
   </g>
   <g id="patch_83">
    <path clip-path="url(#p24f1b719cf)" d="M 194.170583 126.44874 
L 195.639171 126.44874 
L 195.639171 121.714749 
L 194.170583 121.714749 
z
" style="fill:#1f77b4;opacity:0.5;"/>
   </g>
   <g id="patch_84">
    <path clip-path="url(#p24f1b719cf)" d="M 196.006318 126.44874 
L 197.474907 126.44874 
L 197.474907 121.606227 
L 196.006318 121.606227 
z
" style="fill:#1f77b4;opacity:0.5;"/>
   </g>
   <g id="patch_85">
    <path clip-path="url(#p24f1b719cf)" d="M 197.842054 126.44874 
L 199.310642 126.44874 
L 199.310642 121.506104 
L 197.842054 121.506104 
z
" style="fill:#1f77b4;opacity:0.5;"/>
   </g>
   <g id="patch_86">
    <path clip-path="url(#p24f1b719cf)" d="M 199.677789 126.44874 
L 201.146378 126.44874 
L 201.146378 121.406038 
L 199.677789 121.406038 
z
" style="fill:#1f77b4;opacity:0.5;"/>
   </g>
   <g id="matplotlib.axis_1">
    <g id="xtick_1">
     <g id="line2d_1">
      <defs>
       <path d="M 0 0 
L 0 3.5 
" id="m4d7d5f8394" style="stroke:#000000;stroke-width:0.8;"/>
      </defs>
      <g>
       <use style="stroke:#000000;stroke-width:0.8;" x="200.412084" xlink:href="#m4d7d5f8394" y="126.44874"/>
      </g>
     </g>
     <g id="text_1">
      <!-- 19 Apr -->
      <defs>
       <path d="M 12.40625 8.296875 
L 28.515625 8.296875 
L 28.515625 63.921875 
L 10.984375 60.40625 
L 10.984375 69.390625 
L 28.421875 72.90625 
L 38.28125 72.90625 
L 38.28125 8.296875 
L 54.390625 8.296875 
L 54.390625 0 
L 12.40625 0 
z
" id="DejaVuSans-49"/>
       <path d="M 10.984375 1.515625 
L 10.984375 10.5 
Q 14.703125 8.734375 18.5 7.8125 
Q 22.3125 6.890625 25.984375 6.890625 
Q 35.75 6.890625 40.890625 13.453125 
Q 46.046875 20.015625 46.78125 33.40625 
Q 43.953125 29.203125 39.59375 26.953125 
Q 35.25 24.703125 29.984375 24.703125 
Q 19.046875 24.703125 12.671875 31.3125 
Q 6.296875 37.9375 6.296875 49.421875 
Q 6.296875 60.640625 12.9375 67.421875 
Q 19.578125 74.21875 30.609375 74.21875 
Q 43.265625 74.21875 49.921875 64.515625 
Q 56.59375 54.828125 56.59375 36.375 
Q 56.59375 19.140625 48.40625 8.859375 
Q 40.234375 -1.421875 26.421875 -1.421875 
Q 22.703125 -1.421875 18.890625 -0.6875 
Q 15.09375 0.046875 10.984375 1.515625 
z
M 30.609375 32.421875 
Q 37.25 32.421875 41.125 36.953125 
Q 45.015625 41.5 45.015625 49.421875 
Q 45.015625 57.28125 41.125 61.84375 
Q 37.25 66.40625 30.609375 66.40625 
Q 23.96875 66.40625 20.09375 61.84375 
Q 16.21875 57.28125 16.21875 49.421875 
Q 16.21875 41.5 20.09375 36.953125 
Q 23.96875 32.421875 30.609375 32.421875 
z
" id="DejaVuSans-57"/>
       <path id="DejaVuSans-32"/>
       <path d="M 34.1875 63.1875 
L 20.796875 26.90625 
L 47.609375 26.90625 
z
M 28.609375 72.90625 
L 39.796875 72.90625 
L 67.578125 0 
L 57.328125 0 
L 50.6875 18.703125 
L 17.828125 18.703125 
L 11.1875 0 
L 0.78125 0 
z
" id="DejaVuSans-65"/>
       <path d="M 18.109375 8.203125 
L 18.109375 -20.796875 
L 9.078125 -20.796875 
L 9.078125 54.6875 
L 18.109375 54.6875 
L 18.109375 46.390625 
Q 20.953125 51.265625 25.265625 53.625 
Q 29.59375 56 35.59375 56 
Q 45.5625 56 51.78125 48.09375 
Q 58.015625 40.1875 58.015625 27.296875 
Q 58.015625 14.40625 51.78125 6.484375 
Q 45.5625 -1.421875 35.59375 -1.421875 
Q 29.59375 -1.421875 25.265625 0.953125 
Q 20.953125 3.328125 18.109375 8.203125 
z
M 48.6875 27.296875 
Q 48.6875 37.203125 44.609375 42.84375 
Q 40.53125 48.484375 33.40625 48.484375 
Q 26.265625 48.484375 22.1875 42.84375 
Q 18.109375 37.203125 18.109375 27.296875 
Q 18.109375 17.390625 22.1875 11.75 
Q 26.265625 6.109375 33.40625 6.109375 
Q 40.53125 6.109375 44.609375 11.75 
Q 48.6875 17.390625 48.6875 27.296875 
z
" id="DejaVuSans-112"/>
       <path d="M 41.109375 46.296875 
Q 39.59375 47.171875 37.8125 47.578125 
Q 36.03125 48 33.890625 48 
Q 26.265625 48 22.1875 43.046875 
Q 18.109375 38.09375 18.109375 28.8125 
L 18.109375 0 
L 9.078125 0 
L 9.078125 54.6875 
L 18.109375 54.6875 
L 18.109375 46.1875 
Q 20.953125 51.171875 25.484375 53.578125 
Q 30.03125 56 36.53125 56 
Q 37.453125 56 38.578125 55.875 
Q 39.703125 55.765625 41.0625 55.515625 
z
" id="DejaVuSans-114"/>
      </defs>
      <g transform="translate(202.619584 160.01124)rotate(-90)scale(0.08 -0.08)">
       <use xlink:href="#DejaVuSans-49"/>
       <use x="63.623047" xlink:href="#DejaVuSans-57"/>
       <use x="127.246094" xlink:href="#DejaVuSans-32"/>
       <use x="159.033203" xlink:href="#DejaVuSans-65"/>
       <use x="227.441406" xlink:href="#DejaVuSans-112"/>
       <use x="290.917969" xlink:href="#DejaVuSans-114"/>
      </g>
     </g>
    </g>
    <g id="xtick_2">
     <g id="line2d_2">
      <g>
       <use style="stroke:#000000;stroke-width:0.8;" x="187.561934" xlink:href="#m4d7d5f8394" y="126.44874"/>
      </g>
     </g>
     <g id="text_2">
      <!-- 12 Apr -->
      <defs>
       <path d="M 19.1875 8.296875 
L 53.609375 8.296875 
L 53.609375 0 
L 7.328125 0 
L 7.328125 8.296875 
Q 12.9375 14.109375 22.625 23.890625 
Q 32.328125 33.6875 34.8125 36.53125 
Q 39.546875 41.84375 41.421875 45.53125 
Q 43.3125 49.21875 43.3125 52.78125 
Q 43.3125 58.59375 39.234375 62.25 
Q 35.15625 65.921875 28.609375 65.921875 
Q 23.96875 65.921875 18.8125 64.3125 
Q 13.671875 62.703125 7.8125 59.421875 
L 7.8125 69.390625 
Q 13.765625 71.78125 18.9375 73 
Q 24.125 74.21875 28.421875 74.21875 
Q 39.75 74.21875 46.484375 68.546875 
Q 53.21875 62.890625 53.21875 53.421875 
Q 53.21875 48.921875 51.53125 44.890625 
Q 49.859375 40.875 45.40625 35.40625 
Q 44.1875 33.984375 37.640625 27.21875 
Q 31.109375 20.453125 19.1875 8.296875 
z
" id="DejaVuSans-50"/>
      </defs>
      <g transform="translate(189.769434 160.01124)rotate(-90)scale(0.08 -0.08)">
       <use xlink:href="#DejaVuSans-49"/>
       <use x="63.623047" xlink:href="#DejaVuSans-50"/>
       <use x="127.246094" xlink:href="#DejaVuSans-32"/>
       <use x="159.033203" xlink:href="#DejaVuSans-65"/>
       <use x="227.441406" xlink:href="#DejaVuSans-112"/>
       <use x="290.917969" xlink:href="#DejaVuSans-114"/>
      </g>
     </g>
    </g>
    <g id="xtick_3">
     <g id="line2d_3">
      <g>
       <use style="stroke:#000000;stroke-width:0.8;" x="174.711785" xlink:href="#m4d7d5f8394" y="126.44874"/>
      </g>
     </g>
     <g id="text_3">
      <!-- 5 Apr -->
      <defs>
       <path d="M 10.796875 72.90625 
L 49.515625 72.90625 
L 49.515625 64.59375 
L 19.828125 64.59375 
L 19.828125 46.734375 
Q 21.96875 47.46875 24.109375 47.828125 
Q 26.265625 48.1875 28.421875 48.1875 
Q 40.625 48.1875 47.75 41.5 
Q 54.890625 34.8125 54.890625 23.390625 
Q 54.890625 11.625 47.5625 5.09375 
Q 40.234375 -1.421875 26.90625 -1.421875 
Q 22.3125 -1.421875 17.546875 -0.640625 
Q 12.796875 0.140625 7.71875 1.703125 
L 7.71875 11.625 
Q 12.109375 9.234375 16.796875 8.0625 
Q 21.484375 6.890625 26.703125 6.890625 
Q 35.15625 6.890625 40.078125 11.328125 
Q 45.015625 15.765625 45.015625 23.390625 
Q 45.015625 31 40.078125 35.4375 
Q 35.15625 39.890625 26.703125 39.890625 
Q 22.75 39.890625 18.8125 39.015625 
Q 14.890625 38.140625 10.796875 36.28125 
z
" id="DejaVuSans-53"/>
      </defs>
      <g transform="translate(176.919285 154.92124)rotate(-90)scale(0.08 -0.08)">
       <use xlink:href="#DejaVuSans-53"/>
       <use x="63.623047" xlink:href="#DejaVuSans-32"/>
       <use x="95.410156" xlink:href="#DejaVuSans-65"/>
       <use x="163.818359" xlink:href="#DejaVuSans-112"/>
       <use x="227.294922" xlink:href="#DejaVuSans-114"/>
      </g>
     </g>
    </g>
    <g id="xtick_4">
     <g id="line2d_4">
      <g>
       <use style="stroke:#000000;stroke-width:0.8;" x="161.861636" xlink:href="#m4d7d5f8394" y="126.44874"/>
      </g>
     </g>
     <g id="text_4">
      <!-- 29 Mar -->
      <defs>
       <path d="M 9.8125 72.90625 
L 24.515625 72.90625 
L 43.109375 23.296875 
L 61.8125 72.90625 
L 76.515625 72.90625 
L 76.515625 0 
L 66.890625 0 
L 66.890625 64.015625 
L 48.09375 14.015625 
L 38.1875 14.015625 
L 19.390625 64.015625 
L 19.390625 0 
L 9.8125 0 
z
" id="DejaVuSans-77"/>
       <path d="M 34.28125 27.484375 
Q 23.390625 27.484375 19.1875 25 
Q 14.984375 22.515625 14.984375 16.5 
Q 14.984375 11.71875 18.140625 8.90625 
Q 21.296875 6.109375 26.703125 6.109375 
Q 34.1875 6.109375 38.703125 11.40625 
Q 43.21875 16.703125 43.21875 25.484375 
L 43.21875 27.484375 
z
M 52.203125 31.203125 
L 52.203125 0 
L 43.21875 0 
L 43.21875 8.296875 
Q 40.140625 3.328125 35.546875 0.953125 
Q 30.953125 -1.421875 24.3125 -1.421875 
Q 15.921875 -1.421875 10.953125 3.296875 
Q 6 8.015625 6 15.921875 
Q 6 25.140625 12.171875 29.828125 
Q 18.359375 34.515625 30.609375 34.515625 
L 43.21875 34.515625 
L 43.21875 35.40625 
Q 43.21875 41.609375 39.140625 45 
Q 35.0625 48.390625 27.6875 48.390625 
Q 23 48.390625 18.546875 47.265625 
Q 14.109375 46.140625 10.015625 43.890625 
L 10.015625 52.203125 
Q 14.9375 54.109375 19.578125 55.046875 
Q 24.21875 56 28.609375 56 
Q 40.484375 56 46.34375 49.84375 
Q 52.203125 43.703125 52.203125 31.203125 
z
" id="DejaVuSans-97"/>
      </defs>
      <g transform="translate(164.069136 161.26499)rotate(-90)scale(0.08 -0.08)">
       <use xlink:href="#DejaVuSans-50"/>
       <use x="63.623047" xlink:href="#DejaVuSans-57"/>
       <use x="127.246094" xlink:href="#DejaVuSans-32"/>
       <use x="159.033203" xlink:href="#DejaVuSans-77"/>
       <use x="245.3125" xlink:href="#DejaVuSans-97"/>
       <use x="306.591797" xlink:href="#DejaVuSans-114"/>
      </g>
     </g>
    </g>
    <g id="xtick_5">
     <g id="line2d_5">
      <g>
       <use style="stroke:#000000;stroke-width:0.8;" x="149.011486" xlink:href="#m4d7d5f8394" y="126.44874"/>
      </g>
     </g>
     <g id="text_5">
      <!-- 22 Mar -->
      <g transform="translate(151.218986 161.26499)rotate(-90)scale(0.08 -0.08)">
       <use xlink:href="#DejaVuSans-50"/>
       <use x="63.623047" xlink:href="#DejaVuSans-50"/>
       <use x="127.246094" xlink:href="#DejaVuSans-32"/>
       <use x="159.033203" xlink:href="#DejaVuSans-77"/>
       <use x="245.3125" xlink:href="#DejaVuSans-97"/>
       <use x="306.591797" xlink:href="#DejaVuSans-114"/>
      </g>
     </g>
    </g>
    <g id="xtick_6">
     <g id="line2d_6">
      <g>
       <use style="stroke:#000000;stroke-width:0.8;" x="136.161337" xlink:href="#m4d7d5f8394" y="126.44874"/>
      </g>
     </g>
     <g id="text_6">
      <!-- 15 Mar -->
      <g transform="translate(138.368837 161.26499)rotate(-90)scale(0.08 -0.08)">
       <use xlink:href="#DejaVuSans-49"/>
       <use x="63.623047" xlink:href="#DejaVuSans-53"/>
       <use x="127.246094" xlink:href="#DejaVuSans-32"/>
       <use x="159.033203" xlink:href="#DejaVuSans-77"/>
       <use x="245.3125" xlink:href="#DejaVuSans-97"/>
       <use x="306.591797" xlink:href="#DejaVuSans-114"/>
      </g>
     </g>
    </g>
    <g id="xtick_7">
     <g id="line2d_7">
      <g>
       <use style="stroke:#000000;stroke-width:0.8;" x="123.311187" xlink:href="#m4d7d5f8394" y="126.44874"/>
      </g>
     </g>
     <g id="text_7">
      <!-- 8 Mar -->
      <defs>
       <path d="M 31.78125 34.625 
Q 24.75 34.625 20.71875 30.859375 
Q 16.703125 27.09375 16.703125 20.515625 
Q 16.703125 13.921875 20.71875 10.15625 
Q 24.75 6.390625 31.78125 6.390625 
Q 38.8125 6.390625 42.859375 10.171875 
Q 46.921875 13.96875 46.921875 20.515625 
Q 46.921875 27.09375 42.890625 30.859375 
Q 38.875 34.625 31.78125 34.625 
z
M 21.921875 38.8125 
Q 15.578125 40.375 12.03125 44.71875 
Q 8.5 49.078125 8.5 55.328125 
Q 8.5 64.0625 14.71875 69.140625 
Q 20.953125 74.21875 31.78125 74.21875 
Q 42.671875 74.21875 48.875 69.140625 
Q 55.078125 64.0625 55.078125 55.328125 
Q 55.078125 49.078125 51.53125 44.71875 
Q 48 40.375 41.703125 38.8125 
Q 48.828125 37.15625 52.796875 32.3125 
Q 56.78125 27.484375 56.78125 20.515625 
Q 56.78125 9.90625 50.3125 4.234375 
Q 43.84375 -1.421875 31.78125 -1.421875 
Q 19.734375 -1.421875 13.25 4.234375 
Q 6.78125 9.90625 6.78125 20.515625 
Q 6.78125 27.484375 10.78125 32.3125 
Q 14.796875 37.15625 21.921875 38.8125 
z
M 18.3125 54.390625 
Q 18.3125 48.734375 21.84375 45.5625 
Q 25.390625 42.390625 31.78125 42.390625 
Q 38.140625 42.390625 41.71875 45.5625 
Q 45.3125 48.734375 45.3125 54.390625 
Q 45.3125 60.0625 41.71875 63.234375 
Q 38.140625 66.40625 31.78125 66.40625 
Q 25.390625 66.40625 21.84375 63.234375 
Q 18.3125 60.0625 18.3125 54.390625 
z
" id="DejaVuSans-56"/>
      </defs>
      <g transform="translate(125.518687 156.17499)rotate(-90)scale(0.08 -0.08)">
       <use xlink:href="#DejaVuSans-56"/>
       <use x="63.623047" xlink:href="#DejaVuSans-32"/>
       <use x="95.410156" xlink:href="#DejaVuSans-77"/>
       <use x="181.689453" xlink:href="#DejaVuSans-97"/>
       <use x="242.96875" xlink:href="#DejaVuSans-114"/>
      </g>
     </g>
    </g>
    <g id="xtick_8">
     <g id="line2d_8">
      <g>
       <use style="stroke:#000000;stroke-width:0.8;" x="110.461038" xlink:href="#m4d7d5f8394" y="126.44874"/>
      </g>
     </g>
     <g id="text_8">
      <!-- 1 Mar -->
      <g transform="translate(112.668538 156.17499)rotate(-90)scale(0.08 -0.08)">
       <use xlink:href="#DejaVuSans-49"/>
       <use x="63.623047" xlink:href="#DejaVuSans-32"/>
       <use x="95.410156" xlink:href="#DejaVuSans-77"/>
       <use x="181.689453" xlink:href="#DejaVuSans-97"/>
       <use x="242.96875" xlink:href="#DejaVuSans-114"/>
      </g>
     </g>
    </g>
    <g id="xtick_9">
     <g id="line2d_9">
      <g>
       <use style="stroke:#000000;stroke-width:0.8;" x="97.610889" xlink:href="#m4d7d5f8394" y="126.44874"/>
      </g>
     </g>
     <g id="text_9">
      <!-- 23 Feb -->
      <defs>
       <path d="M 40.578125 39.3125 
Q 47.65625 37.796875 51.625 33 
Q 55.609375 28.21875 55.609375 21.1875 
Q 55.609375 10.40625 48.1875 4.484375 
Q 40.765625 -1.421875 27.09375 -1.421875 
Q 22.515625 -1.421875 17.65625 -0.515625 
Q 12.796875 0.390625 7.625 2.203125 
L 7.625 11.71875 
Q 11.71875 9.328125 16.59375 8.109375 
Q 21.484375 6.890625 26.8125 6.890625 
Q 36.078125 6.890625 40.9375 10.546875 
Q 45.796875 14.203125 45.796875 21.1875 
Q 45.796875 27.640625 41.28125 31.265625 
Q 36.765625 34.90625 28.71875 34.90625 
L 20.21875 34.90625 
L 20.21875 43.015625 
L 29.109375 43.015625 
Q 36.375 43.015625 40.234375 45.921875 
Q 44.09375 48.828125 44.09375 54.296875 
Q 44.09375 59.90625 40.109375 62.90625 
Q 36.140625 65.921875 28.71875 65.921875 
Q 24.65625 65.921875 20.015625 65.03125 
Q 15.375 64.15625 9.8125 62.3125 
L 9.8125 71.09375 
Q 15.4375 72.65625 20.34375 73.4375 
Q 25.25 74.21875 29.59375 74.21875 
Q 40.828125 74.21875 47.359375 69.109375 
Q 53.90625 64.015625 53.90625 55.328125 
Q 53.90625 49.265625 50.4375 45.09375 
Q 46.96875 40.921875 40.578125 39.3125 
z
" id="DejaVuSans-51"/>
       <path d="M 9.8125 72.90625 
L 51.703125 72.90625 
L 51.703125 64.59375 
L 19.671875 64.59375 
L 19.671875 43.109375 
L 48.578125 43.109375 
L 48.578125 34.8125 
L 19.671875 34.8125 
L 19.671875 0 
L 9.8125 0 
z
" id="DejaVuSans-70"/>
       <path d="M 56.203125 29.59375 
L 56.203125 25.203125 
L 14.890625 25.203125 
Q 15.484375 15.921875 20.484375 11.0625 
Q 25.484375 6.203125 34.421875 6.203125 
Q 39.59375 6.203125 44.453125 7.46875 
Q 49.3125 8.734375 54.109375 11.28125 
L 54.109375 2.78125 
Q 49.265625 0.734375 44.1875 -0.34375 
Q 39.109375 -1.421875 33.890625 -1.421875 
Q 20.796875 -1.421875 13.15625 6.1875 
Q 5.515625 13.8125 5.515625 26.8125 
Q 5.515625 40.234375 12.765625 48.109375 
Q 20.015625 56 32.328125 56 
Q 43.359375 56 49.78125 48.890625 
Q 56.203125 41.796875 56.203125 29.59375 
z
M 47.21875 32.234375 
Q 47.125 39.59375 43.09375 43.984375 
Q 39.0625 48.390625 32.421875 48.390625 
Q 24.90625 48.390625 20.390625 44.140625 
Q 15.875 39.890625 15.1875 32.171875 
z
" id="DejaVuSans-101"/>
       <path d="M 48.6875 27.296875 
Q 48.6875 37.203125 44.609375 42.84375 
Q 40.53125 48.484375 33.40625 48.484375 
Q 26.265625 48.484375 22.1875 42.84375 
Q 18.109375 37.203125 18.109375 27.296875 
Q 18.109375 17.390625 22.1875 11.75 
Q 26.265625 6.109375 33.40625 6.109375 
Q 40.53125 6.109375 44.609375 11.75 
Q 48.6875 17.390625 48.6875 27.296875 
z
M 18.109375 46.390625 
Q 20.953125 51.265625 25.265625 53.625 
Q 29.59375 56 35.59375 56 
Q 45.5625 56 51.78125 48.09375 
Q 58.015625 40.1875 58.015625 27.296875 
Q 58.015625 14.40625 51.78125 6.484375 
Q 45.5625 -1.421875 35.59375 -1.421875 
Q 29.59375 -1.421875 25.265625 0.953125 
Q 20.953125 3.328125 18.109375 8.203125 
L 18.109375 0 
L 9.078125 0 
L 9.078125 75.984375 
L 18.109375 75.984375 
z
" id="DejaVuSans-98"/>
      </defs>
      <g transform="translate(99.818389 160.33374)rotate(-90)scale(0.08 -0.08)">
       <use xlink:href="#DejaVuSans-50"/>
       <use x="63.623047" xlink:href="#DejaVuSans-51"/>
       <use x="127.246094" xlink:href="#DejaVuSans-32"/>
       <use x="159.033203" xlink:href="#DejaVuSans-70"/>
       <use x="211.052734" xlink:href="#DejaVuSans-101"/>
       <use x="272.576172" xlink:href="#DejaVuSans-98"/>
      </g>
     </g>
    </g>
    <g id="xtick_10">
     <g id="line2d_10">
      <g>
       <use style="stroke:#000000;stroke-width:0.8;" x="84.760739" xlink:href="#m4d7d5f8394" y="126.44874"/>
      </g>
     </g>
     <g id="text_10">
      <!-- 16 Feb -->
      <defs>
       <path d="M 33.015625 40.375 
Q 26.375 40.375 22.484375 35.828125 
Q 18.609375 31.296875 18.609375 23.390625 
Q 18.609375 15.53125 22.484375 10.953125 
Q 26.375 6.390625 33.015625 6.390625 
Q 39.65625 6.390625 43.53125 10.953125 
Q 47.40625 15.53125 47.40625 23.390625 
Q 47.40625 31.296875 43.53125 35.828125 
Q 39.65625 40.375 33.015625 40.375 
z
M 52.59375 71.296875 
L 52.59375 62.3125 
Q 48.875 64.0625 45.09375 64.984375 
Q 41.3125 65.921875 37.59375 65.921875 
Q 27.828125 65.921875 22.671875 59.328125 
Q 17.53125 52.734375 16.796875 39.40625 
Q 19.671875 43.65625 24.015625 45.921875 
Q 28.375 48.1875 33.59375 48.1875 
Q 44.578125 48.1875 50.953125 41.515625 
Q 57.328125 34.859375 57.328125 23.390625 
Q 57.328125 12.15625 50.6875 5.359375 
Q 44.046875 -1.421875 33.015625 -1.421875 
Q 20.359375 -1.421875 13.671875 8.265625 
Q 6.984375 17.96875 6.984375 36.375 
Q 6.984375 53.65625 15.1875 63.9375 
Q 23.390625 74.21875 37.203125 74.21875 
Q 40.921875 74.21875 44.703125 73.484375 
Q 48.484375 72.75 52.59375 71.296875 
z
" id="DejaVuSans-54"/>
      </defs>
      <g transform="translate(86.968239 160.33374)rotate(-90)scale(0.08 -0.08)">
       <use xlink:href="#DejaVuSans-49"/>
       <use x="63.623047" xlink:href="#DejaVuSans-54"/>
       <use x="127.246094" xlink:href="#DejaVuSans-32"/>
       <use x="159.033203" xlink:href="#DejaVuSans-70"/>
       <use x="211.052734" xlink:href="#DejaVuSans-101"/>
       <use x="272.576172" xlink:href="#DejaVuSans-98"/>
      </g>
     </g>
    </g>
    <g id="xtick_11">
     <g id="line2d_11">
      <g>
       <use style="stroke:#000000;stroke-width:0.8;" x="71.91059" xlink:href="#m4d7d5f8394" y="126.44874"/>
      </g>
     </g>
     <g id="text_11">
      <!-- 9 Feb -->
      <g transform="translate(74.11809 155.24374)rotate(-90)scale(0.08 -0.08)">
       <use xlink:href="#DejaVuSans-57"/>
       <use x="63.623047" xlink:href="#DejaVuSans-32"/>
       <use x="95.410156" xlink:href="#DejaVuSans-70"/>
       <use x="147.429688" xlink:href="#DejaVuSans-101"/>
       <use x="208.953125" xlink:href="#DejaVuSans-98"/>
      </g>
     </g>
    </g>
    <g id="xtick_12">
     <g id="line2d_12">
      <g>
       <use style="stroke:#000000;stroke-width:0.8;" x="59.06044" xlink:href="#m4d7d5f8394" y="126.44874"/>
      </g>
     </g>
     <g id="text_12">
      <!-- 2 Feb -->
      <g transform="translate(61.26794 155.24374)rotate(-90)scale(0.08 -0.08)">
       <use xlink:href="#DejaVuSans-50"/>
       <use x="63.623047" xlink:href="#DejaVuSans-32"/>
       <use x="95.410156" xlink:href="#DejaVuSans-70"/>
       <use x="147.429688" xlink:href="#DejaVuSans-101"/>
       <use x="208.953125" xlink:href="#DejaVuSans-98"/>
      </g>
     </g>
    </g>
   </g>
   <g id="matplotlib.axis_2">
    <g id="ytick_1">
     <g id="line2d_13">
      <defs>
       <path d="M 0 0 
L -3.5 0 
" id="m5ca87fc6e1" style="stroke:#000000;stroke-width:0.8;"/>
      </defs>
      <g>
       <use style="stroke:#000000;stroke-width:0.8;" x="39.62" xlink:href="#m5ca87fc6e1" y="126.44874"/>
      </g>
     </g>
     <g id="text_13">
      <!-- 0 -->
      <defs>
       <path d="M 31.78125 66.40625 
Q 24.171875 66.40625 20.328125 58.90625 
Q 16.5 51.421875 16.5 36.375 
Q 16.5 21.390625 20.328125 13.890625 
Q 24.171875 6.390625 31.78125 6.390625 
Q 39.453125 6.390625 43.28125 13.890625 
Q 47.125 21.390625 47.125 36.375 
Q 47.125 51.421875 43.28125 58.90625 
Q 39.453125 66.40625 31.78125 66.40625 
z
M 31.78125 74.21875 
Q 44.046875 74.21875 50.515625 64.515625 
Q 56.984375 54.828125 56.984375 36.375 
Q 56.984375 17.96875 50.515625 8.265625 
Q 44.046875 -1.421875 31.78125 -1.421875 
Q 19.53125 -1.421875 13.0625 8.265625 
Q 6.59375 17.96875 6.59375 36.375 
Q 6.59375 54.828125 13.0625 64.515625 
Q 19.53125 74.21875 31.78125 74.21875 
z
" id="DejaVuSans-48"/>
      </defs>
      <g transform="translate(27.53 129.488115)scale(0.08 -0.08)">
       <use xlink:href="#DejaVuSans-48"/>
      </g>
     </g>
    </g>
    <g id="ytick_2">
     <g id="line2d_14">
      <g>
       <use style="stroke:#000000;stroke-width:0.8;" x="39.62" xlink:href="#m5ca87fc6e1" y="97.78481"/>
      </g>
     </g>
     <g id="text_14">
      <!-- 1 -->
      <g transform="translate(27.53 100.824185)scale(0.08 -0.08)">
       <use xlink:href="#DejaVuSans-49"/>
      </g>
     </g>
    </g>
    <g id="ytick_3">
     <g id="line2d_15">
      <g>
       <use style="stroke:#000000;stroke-width:0.8;" x="39.62" xlink:href="#m5ca87fc6e1" y="69.120879"/>
      </g>
     </g>
     <g id="text_15">
      <!-- 2 -->
      <g transform="translate(27.53 72.160254)scale(0.08 -0.08)">
       <use xlink:href="#DejaVuSans-50"/>
      </g>
     </g>
    </g>
    <g id="ytick_4">
     <g id="line2d_16">
      <g>
       <use style="stroke:#000000;stroke-width:0.8;" x="39.62" xlink:href="#m5ca87fc6e1" y="40.456949"/>
      </g>
     </g>
     <g id="text_16">
      <!-- 3 -->
      <g transform="translate(27.53 43.496324)scale(0.08 -0.08)">
       <use xlink:href="#DejaVuSans-51"/>
      </g>
     </g>
    </g>
    <g id="text_17">
     <!-- Cumulative cases -->
     <defs>
      <path d="M 64.40625 67.28125 
L 64.40625 56.890625 
Q 59.421875 61.53125 53.78125 63.8125 
Q 48.140625 66.109375 41.796875 66.109375 
Q 29.296875 66.109375 22.65625 58.46875 
Q 16.015625 50.828125 16.015625 36.375 
Q 16.015625 21.96875 22.65625 14.328125 
Q 29.296875 6.6875 41.796875 6.6875 
Q 48.140625 6.6875 53.78125 8.984375 
Q 59.421875 11.28125 64.40625 15.921875 
L 64.40625 5.609375 
Q 59.234375 2.09375 53.4375 0.328125 
Q 47.65625 -1.421875 41.21875 -1.421875 
Q 24.65625 -1.421875 15.125 8.703125 
Q 5.609375 18.84375 5.609375 36.375 
Q 5.609375 53.953125 15.125 64.078125 
Q 24.65625 74.21875 41.21875 74.21875 
Q 47.75 74.21875 53.53125 72.484375 
Q 59.328125 70.75 64.40625 67.28125 
z
" id="DejaVuSans-67"/>
      <path d="M 8.5 21.578125 
L 8.5 54.6875 
L 17.484375 54.6875 
L 17.484375 21.921875 
Q 17.484375 14.15625 20.5 10.265625 
Q 23.53125 6.390625 29.59375 6.390625 
Q 36.859375 6.390625 41.078125 11.03125 
Q 45.3125 15.671875 45.3125 23.6875 
L 45.3125 54.6875 
L 54.296875 54.6875 
L 54.296875 0 
L 45.3125 0 
L 45.3125 8.40625 
Q 42.046875 3.421875 37.71875 1 
Q 33.40625 -1.421875 27.6875 -1.421875 
Q 18.265625 -1.421875 13.375 4.4375 
Q 8.5 10.296875 8.5 21.578125 
z
M 31.109375 56 
z
" id="DejaVuSans-117"/>
      <path d="M 52 44.1875 
Q 55.375 50.25 60.0625 53.125 
Q 64.75 56 71.09375 56 
Q 79.640625 56 84.28125 50.015625 
Q 88.921875 44.046875 88.921875 33.015625 
L 88.921875 0 
L 79.890625 0 
L 79.890625 32.71875 
Q 79.890625 40.578125 77.09375 44.375 
Q 74.3125 48.1875 68.609375 48.1875 
Q 61.625 48.1875 57.5625 43.546875 
Q 53.515625 38.921875 53.515625 30.90625 
L 53.515625 0 
L 44.484375 0 
L 44.484375 32.71875 
Q 44.484375 40.625 41.703125 44.40625 
Q 38.921875 48.1875 33.109375 48.1875 
Q 26.21875 48.1875 22.15625 43.53125 
Q 18.109375 38.875 18.109375 30.90625 
L 18.109375 0 
L 9.078125 0 
L 9.078125 54.6875 
L 18.109375 54.6875 
L 18.109375 46.1875 
Q 21.1875 51.21875 25.484375 53.609375 
Q 29.78125 56 35.6875 56 
Q 41.65625 56 45.828125 52.96875 
Q 50 49.953125 52 44.1875 
z
" id="DejaVuSans-109"/>
      <path d="M 9.421875 75.984375 
L 18.40625 75.984375 
L 18.40625 0 
L 9.421875 0 
z
" id="DejaVuSans-108"/>
      <path d="M 18.3125 70.21875 
L 18.3125 54.6875 
L 36.8125 54.6875 
L 36.8125 47.703125 
L 18.3125 47.703125 
L 18.3125 18.015625 
Q 18.3125 11.328125 20.140625 9.421875 
Q 21.96875 7.515625 27.59375 7.515625 
L 36.8125 7.515625 
L 36.8125 0 
L 27.59375 0 
Q 17.1875 0 13.234375 3.875 
Q 9.28125 7.765625 9.28125 18.015625 
L 9.28125 47.703125 
L 2.6875 47.703125 
L 2.6875 54.6875 
L 9.28125 54.6875 
L 9.28125 70.21875 
z
" id="DejaVuSans-116"/>
      <path d="M 9.421875 54.6875 
L 18.40625 54.6875 
L 18.40625 0 
L 9.421875 0 
z
M 9.421875 75.984375 
L 18.40625 75.984375 
L 18.40625 64.59375 
L 9.421875 64.59375 
z
" id="DejaVuSans-105"/>
      <path d="M 2.984375 54.6875 
L 12.5 54.6875 
L 29.59375 8.796875 
L 46.6875 54.6875 
L 56.203125 54.6875 
L 35.6875 0 
L 23.484375 0 
z
" id="DejaVuSans-118"/>
      <path d="M 48.78125 52.59375 
L 48.78125 44.1875 
Q 44.96875 46.296875 41.140625 47.34375 
Q 37.3125 48.390625 33.40625 48.390625 
Q 24.65625 48.390625 19.8125 42.84375 
Q 14.984375 37.3125 14.984375 27.296875 
Q 14.984375 17.28125 19.8125 11.734375 
Q 24.65625 6.203125 33.40625 6.203125 
Q 37.3125 6.203125 41.140625 7.25 
Q 44.96875 8.296875 48.78125 10.40625 
L 48.78125 2.09375 
Q 45.015625 0.34375 40.984375 -0.53125 
Q 36.96875 -1.421875 32.421875 -1.421875 
Q 20.0625 -1.421875 12.78125 6.34375 
Q 5.515625 14.109375 5.515625 27.296875 
Q 5.515625 40.671875 12.859375 48.328125 
Q 20.21875 56 33.015625 56 
Q 37.15625 56 41.109375 55.140625 
Q 45.0625 54.296875 48.78125 52.59375 
z
" id="DejaVuSans-99"/>
      <path d="M 44.28125 53.078125 
L 44.28125 44.578125 
Q 40.484375 46.53125 36.375 47.5 
Q 32.28125 48.484375 27.875 48.484375 
Q 21.1875 48.484375 17.84375 46.4375 
Q 14.5 44.390625 14.5 40.28125 
Q 14.5 37.15625 16.890625 35.375 
Q 19.28125 33.59375 26.515625 31.984375 
L 29.59375 31.296875 
Q 39.15625 29.25 43.1875 25.515625 
Q 47.21875 21.78125 47.21875 15.09375 
Q 47.21875 7.46875 41.1875 3.015625 
Q 35.15625 -1.421875 24.609375 -1.421875 
Q 20.21875 -1.421875 15.453125 -0.5625 
Q 10.6875 0.296875 5.421875 2 
L 5.421875 11.28125 
Q 10.40625 8.6875 15.234375 7.390625 
Q 20.0625 6.109375 24.8125 6.109375 
Q 31.15625 6.109375 34.5625 8.28125 
Q 37.984375 10.453125 37.984375 14.40625 
Q 37.984375 18.0625 35.515625 20.015625 
Q 33.0625 21.96875 24.703125 23.78125 
L 21.578125 24.515625 
Q 13.234375 26.265625 9.515625 29.90625 
Q 5.8125 33.546875 5.8125 39.890625 
Q 5.8125 47.609375 11.28125 51.796875 
Q 16.75 56 26.8125 56 
Q 31.78125 56 36.171875 55.265625 
Q 40.578125 54.546875 44.28125 53.078125 
z
" id="DejaVuSans-115"/>
     </defs>
     <g transform="translate(21.86625 107.304995)rotate(-90)scale(0.08 -0.08)">
      <use xlink:href="#DejaVuSans-67"/>
      <use x="69.824219" xlink:href="#DejaVuSans-117"/>
      <use x="133.203125" xlink:href="#DejaVuSans-109"/>
      <use x="230.615234" xlink:href="#DejaVuSans-117"/>
      <use x="293.994141" xlink:href="#DejaVuSans-108"/>
      <use x="321.777344" xlink:href="#DejaVuSans-97"/>
      <use x="383.056641" xlink:href="#DejaVuSans-116"/>
      <use x="422.265625" xlink:href="#DejaVuSans-105"/>
      <use x="450.048828" xlink:href="#DejaVuSans-118"/>
      <use x="509.228516" xlink:href="#DejaVuSans-101"/>
      <use x="570.751953" xlink:href="#DejaVuSans-32"/>
      <use x="602.539062" xlink:href="#DejaVuSans-99"/>
      <use x="657.519531" xlink:href="#DejaVuSans-97"/>
      <use x="718.798828" xlink:href="#DejaVuSans-115"/>
      <use x="770.898438" xlink:href="#DejaVuSans-101"/>
      <use x="832.421875" xlink:href="#DejaVuSans-115"/>
     </g>
    </g>
    <g id="text_18">
     <!-- 1e6 -->
     <g transform="translate(39.62 14.4)scale(0.08 -0.08)">
      <use xlink:href="#DejaVuSans-49"/>
      <use x="63.623047" xlink:href="#DejaVuSans-101"/>
      <use x="125.146484" xlink:href="#DejaVuSans-54"/>
     </g>
    </g>
   </g>
   <g id="line2d_17">
    <path clip-path="url(#p24f1b719cf)" d="M 48.046027 126.448204 
L 49.881762 126.447669 
L 51.717498 126.447133 
L 53.553233 126.446597 
L 55.388969 126.446061 
L 57.224705 126.445525 
L 59.06044 126.444546 
L 60.896176 126.443362 
L 62.731912 126.441914 
L 64.567647 126.440123 
L 66.403383 126.437899 
L 68.239118 126.435133 
L 70.074854 126.431691 
L 71.91059 126.427409 
L 73.746325 126.422079 
L 75.582061 126.415444 
L 77.417797 126.407183 
L 79.253532 126.396894 
L 81.089268 126.384078 
L 82.925003 126.368451 
L 84.760739 126.346832 
L 86.596475 126.321054 
L 88.43221 126.288476 
L 90.267946 126.250253 
L 92.103682 126.198791 
L 93.939417 126.13446 
L 95.775153 126.048007 
L 97.610889 125.878154 
L 99.446624 125.603438 
L 101.28236 125.397069 
L 103.118095 125.191021 
L 104.953831 124.900676 
L 106.789567 124.526828 
L 108.625302 124.06813 
L 110.461038 123.572332 
L 112.296774 123.010798 
L 114.132509 122.173511 
L 115.968245 121.097801 
L 117.80398 119.864828 
L 119.639716 118.35146 
L 121.475452 116.402499 
L 123.311187 113.844457 
L 125.146923 111.175951 
L 126.982659 108.091035 
L 128.818394 105.650963 
L 130.65413 103.597964 
L 132.489865 101.662592 
L 134.325601 100.369697 
L 136.161337 99.558299 
L 137.997072 97.908221 
L 139.832808 96.496668 
L 141.668544 95.206439 
L 143.504279 93.990944 
L 145.340015 92.664069 
L 147.17575 91.71569 
L 149.011486 91.336371 
L 150.847222 90.294724 
L 152.682957 89.387566 
L 154.518693 88.594471 
L 156.354429 87.855752 
L 158.190164 87.025638 
L 160.0259 86.354744 
L 161.861636 86.028281 
" style="fill:none;stroke:#0000ff;stroke-linecap:square;stroke-opacity:0.5;"/>
   </g>
   <g id="line2d_18">
    <path clip-path="url(#p24f1b719cf)" d="M 163.697371 85.706798 
L 165.533107 85.395824 
L 167.368842 85.099135 
L 169.204578 84.818153 
L 171.040314 84.55262 
L 172.876049 84.301328 
L 174.711785 84.062626 
L 176.547521 83.83473 
L 178.383256 83.615889 
L 180.218992 83.404458 
L 182.054727 83.198921 
L 183.890463 82.997894 
L 185.726199 82.800113 
L 187.561934 82.604409 
L 189.39767 82.409701 
L 191.233406 82.214969 
L 193.069141 82.019246 
L 194.904877 81.821597 
L 196.740612 81.621111 
L 198.576348 81.416884 
L 200.412084 81.208012 
" style="fill:none;stroke:#008000;stroke-linecap:square;stroke-opacity:0.5;"/>
   </g>
   <g id="line2d_19">
    <path clip-path="url(#p24f1b719cf)" d="M 125.146923 126.44874 
L 125.146923 17.4 
" style="fill:none;stroke:#0000ff;stroke-dasharray:1.85,0.8;stroke-dashoffset:0;stroke-width:0.5;"/>
   </g>
   <g id="line2d_20">
    <path clip-path="url(#p24f1b719cf)" d="M 117.80398 126.44874 
L 117.80398 17.4 
" style="fill:none;stroke:#0000ff;stroke-dasharray:1.85,0.8;stroke-dashoffset:0;stroke-width:0.5;"/>
   </g>
   <g id="line2d_21">
    <path clip-path="url(#p24f1b719cf)" d="M 128.818394 126.44874 
L 128.818394 17.4 
" style="fill:none;stroke:#0000ff;stroke-dasharray:1.85,0.8;stroke-dashoffset:0;stroke-width:0.5;"/>
   </g>
   <g id="line2d_22">
    <path clip-path="url(#p24f1b719cf)" d="M 125.146923 126.44874 
L 125.146923 17.4 
" style="fill:none;stroke:#0000ff;stroke-dasharray:1.85,0.8;stroke-dashoffset:0;stroke-width:0.5;"/>
   </g>
   <g id="line2d_23">
    <path clip-path="url(#p24f1b719cf)" d="M 125.146923 126.44874 
L 125.146923 17.4 
" style="fill:none;stroke:#0000ff;stroke-dasharray:1.85,0.8;stroke-dashoffset:0;stroke-width:0.5;"/>
   </g>
   <g id="patch_87">
    <path d="M 39.62 126.44874 
L 39.62 17.4 
" style="fill:none;stroke:#000000;stroke-linecap:square;stroke-linejoin:miter;stroke-width:0.8;"/>
   </g>
   <g id="patch_88">
    <path d="M 208.83811 126.44874 
L 208.83811 17.4 
" style="fill:none;stroke:#000000;stroke-linecap:square;stroke-linejoin:miter;stroke-width:0.8;"/>
   </g>
   <g id="patch_89">
    <path d="M 39.62 126.44874 
L 208.83811 126.44874 
" style="fill:none;stroke:#000000;stroke-linecap:square;stroke-linejoin:miter;stroke-width:0.8;"/>
   </g>
   <g id="patch_90">
    <path d="M 39.62 17.4 
L 208.83811 17.4 
" style="fill:none;stroke:#000000;stroke-linecap:square;stroke-linejoin:miter;stroke-width:0.8;"/>
   </g>
   <g id="legend_1">
    <g id="line2d_24">
     <path d="M 46.82 103.04249 
L 62.82 103.04249 
" style="fill:none;stroke:#0000ff;stroke-linecap:square;stroke-opacity:0.5;"/>
    </g>
    <g id="line2d_25"/>
    <g id="text_19">
     <!-- Simulation -->
     <defs>
      <path d="M 53.515625 70.515625 
L 53.515625 60.890625 
Q 47.90625 63.578125 42.921875 64.890625 
Q 37.9375 66.21875 33.296875 66.21875 
Q 25.25 66.21875 20.875 63.09375 
Q 16.5 59.96875 16.5 54.203125 
Q 16.5 49.359375 19.40625 46.890625 
Q 22.3125 44.4375 30.421875 42.921875 
L 36.375 41.703125 
Q 47.40625 39.59375 52.65625 34.296875 
Q 57.90625 29 57.90625 20.125 
Q 57.90625 9.515625 50.796875 4.046875 
Q 43.703125 -1.421875 29.984375 -1.421875 
Q 24.8125 -1.421875 18.96875 -0.25 
Q 13.140625 0.921875 6.890625 3.21875 
L 6.890625 13.375 
Q 12.890625 10.015625 18.65625 8.296875 
Q 24.421875 6.59375 29.984375 6.59375 
Q 38.421875 6.59375 43.015625 9.90625 
Q 47.609375 13.234375 47.609375 19.390625 
Q 47.609375 24.75 44.3125 27.78125 
Q 41.015625 30.8125 33.5 32.328125 
L 27.484375 33.5 
Q 16.453125 35.6875 11.515625 40.375 
Q 6.59375 45.0625 6.59375 53.421875 
Q 6.59375 63.09375 13.40625 68.65625 
Q 20.21875 74.21875 32.171875 74.21875 
Q 37.3125 74.21875 42.625 73.28125 
Q 47.953125 72.359375 53.515625 70.515625 
z
" id="DejaVuSans-83"/>
      <path d="M 30.609375 48.390625 
Q 23.390625 48.390625 19.1875 42.75 
Q 14.984375 37.109375 14.984375 27.296875 
Q 14.984375 17.484375 19.15625 11.84375 
Q 23.34375 6.203125 30.609375 6.203125 
Q 37.796875 6.203125 41.984375 11.859375 
Q 46.1875 17.53125 46.1875 27.296875 
Q 46.1875 37.015625 41.984375 42.703125 
Q 37.796875 48.390625 30.609375 48.390625 
z
M 30.609375 56 
Q 42.328125 56 49.015625 48.375 
Q 55.71875 40.765625 55.71875 27.296875 
Q 55.71875 13.875 49.015625 6.21875 
Q 42.328125 -1.421875 30.609375 -1.421875 
Q 18.84375 -1.421875 12.171875 6.21875 
Q 5.515625 13.875 5.515625 27.296875 
Q 5.515625 40.765625 12.171875 48.375 
Q 18.84375 56 30.609375 56 
z
" id="DejaVuSans-111"/>
      <path d="M 54.890625 33.015625 
L 54.890625 0 
L 45.90625 0 
L 45.90625 32.71875 
Q 45.90625 40.484375 42.875 44.328125 
Q 39.84375 48.1875 33.796875 48.1875 
Q 26.515625 48.1875 22.3125 43.546875 
Q 18.109375 38.921875 18.109375 30.90625 
L 18.109375 0 
L 9.078125 0 
L 9.078125 54.6875 
L 18.109375 54.6875 
L 18.109375 46.1875 
Q 21.34375 51.125 25.703125 53.5625 
Q 30.078125 56 35.796875 56 
Q 45.21875 56 50.046875 50.171875 
Q 54.890625 44.34375 54.890625 33.015625 
z
" id="DejaVuSans-110"/>
     </defs>
     <g transform="translate(69.22 105.84249)scale(0.08 -0.08)">
      <use xlink:href="#DejaVuSans-83"/>
      <use x="63.476562" xlink:href="#DejaVuSans-105"/>
      <use x="91.259766" xlink:href="#DejaVuSans-109"/>
      <use x="188.671875" xlink:href="#DejaVuSans-117"/>
      <use x="252.050781" xlink:href="#DejaVuSans-108"/>
      <use x="279.833984" xlink:href="#DejaVuSans-97"/>
      <use x="341.113281" xlink:href="#DejaVuSans-116"/>
      <use x="380.322266" xlink:href="#DejaVuSans-105"/>
      <use x="408.105469" xlink:href="#DejaVuSans-111"/>
      <use x="469.287109" xlink:href="#DejaVuSans-110"/>
     </g>
    </g>
    <g id="line2d_26">
     <path d="M 46.82 114.78499 
L 62.82 114.78499 
" style="fill:none;stroke:#008000;stroke-linecap:square;stroke-opacity:0.5;"/>
    </g>
    <g id="line2d_27"/>
    <g id="text_20">
     <!-- Forecast -->
     <g transform="translate(69.22 117.58499)scale(0.08 -0.08)">
      <use xlink:href="#DejaVuSans-70"/>
      <use x="53.894531" xlink:href="#DejaVuSans-111"/>
      <use x="115.076172" xlink:href="#DejaVuSans-114"/>
      <use x="153.939453" xlink:href="#DejaVuSans-101"/>
      <use x="215.462891" xlink:href="#DejaVuSans-99"/>
      <use x="270.443359" xlink:href="#DejaVuSans-97"/>
      <use x="331.722656" xlink:href="#DejaVuSans-115"/>
      <use x="383.822266" xlink:href="#DejaVuSans-116"/>
     </g>
    </g>
   </g>
  </g>
  <g id="axes_2">
   <g id="matplotlib.axis_3">
    <g id="ytick_5">
     <g id="line2d_28">
      <defs>
       <path d="M 0 0 
L 3.5 0 
" id="mb5fe6b7160" style="stroke:#000000;stroke-width:0.8;"/>
      </defs>
      <g>
       <use style="stroke:#000000;stroke-width:0.8;" x="208.83811" xlink:href="#mb5fe6b7160" y="126.44874"/>
      </g>
     </g>
     <g id="text_21">
      <!-- 1.0 -->
      <defs>
       <path d="M 10.59375 35.5 
L 73.1875 35.5 
L 73.1875 27.203125 
L 10.59375 27.203125 
z
" id="DejaVuSans-8722"/>
       <path d="M 10.6875 12.40625 
L 21 12.40625 
L 21 0 
L 10.6875 0 
z
" id="DejaVuSans-46"/>
      </defs>
      <g transform="translate(215.83811 129.488115)scale(0.08 -0.08)">
       <use xlink:href="#DejaVuSans-8722"/>
       <use x="83.789062" xlink:href="#DejaVuSans-49"/>
       <use x="147.412109" xlink:href="#DejaVuSans-46"/>
       <use x="179.199219" xlink:href="#DejaVuSans-48"/>
      </g>
     </g>
    </g>
    <g id="ytick_6">
     <g id="line2d_29">
      <g>
       <use style="stroke:#000000;stroke-width:0.8;" x="208.83811" xlink:href="#mb5fe6b7160" y="87.502762"/>
      </g>
     </g>
     <g id="text_22">
      <!-- 0.5 -->
      <g transform="translate(215.83811 90.542137)scale(0.08 -0.08)">
       <use xlink:href="#DejaVuSans-8722"/>
       <use x="83.789062" xlink:href="#DejaVuSans-48"/>
       <use x="147.412109" xlink:href="#DejaVuSans-46"/>
       <use x="179.199219" xlink:href="#DejaVuSans-53"/>
      </g>
     </g>
    </g>
    <g id="ytick_7">
     <g id="line2d_30">
      <g>
       <use style="stroke:#000000;stroke-width:0.8;" x="208.83811" xlink:href="#mb5fe6b7160" y="48.556783"/>
      </g>
     </g>
     <g id="text_23">
      <!-- 0.0 -->
      <g transform="translate(215.83811 51.596158)scale(0.08 -0.08)">
       <use xlink:href="#DejaVuSans-48"/>
       <use x="63.623047" xlink:href="#DejaVuSans-46"/>
       <use x="95.410156" xlink:href="#DejaVuSans-48"/>
      </g>
     </g>
    </g>
    <g id="ytick_8">
     <g id="line2d_31">
      <g>
       <use style="stroke:#000000;stroke-width:0.8;" x="208.83811" xlink:href="#mb5fe6b7160" y="17.4"/>
      </g>
     </g>
     <g id="text_24">
      <!-- 0.4 -->
      <defs>
       <path d="M 37.796875 64.3125 
L 12.890625 25.390625 
L 37.796875 25.390625 
z
M 35.203125 72.90625 
L 47.609375 72.90625 
L 47.609375 25.390625 
L 58.015625 25.390625 
L 58.015625 17.1875 
L 47.609375 17.1875 
L 47.609375 0 
L 37.796875 0 
L 37.796875 17.1875 
L 4.890625 17.1875 
L 4.890625 26.703125 
z
" id="DejaVuSans-52"/>
      </defs>
      <g transform="translate(215.83811 20.439375)scale(0.08 -0.08)">
       <use xlink:href="#DejaVuSans-48"/>
       <use x="63.623047" xlink:href="#DejaVuSans-46"/>
       <use x="95.410156" xlink:href="#DejaVuSans-52"/>
      </g>
     </g>
    </g>
    <g id="text_25">
     <!-- Relative change -->
     <defs>
      <path d="M 44.390625 34.1875 
Q 47.5625 33.109375 50.5625 29.59375 
Q 53.5625 26.078125 56.59375 19.921875 
L 66.609375 0 
L 56 0 
L 46.6875 18.703125 
Q 43.0625 26.03125 39.671875 28.421875 
Q 36.28125 30.8125 30.421875 30.8125 
L 19.671875 30.8125 
L 19.671875 0 
L 9.8125 0 
L 9.8125 72.90625 
L 32.078125 72.90625 
Q 44.578125 72.90625 50.734375 67.671875 
Q 56.890625 62.453125 56.890625 51.90625 
Q 56.890625 45.015625 53.6875 40.46875 
Q 50.484375 35.9375 44.390625 34.1875 
z
M 19.671875 64.796875 
L 19.671875 38.921875 
L 32.078125 38.921875 
Q 39.203125 38.921875 42.84375 42.21875 
Q 46.484375 45.515625 46.484375 51.90625 
Q 46.484375 58.296875 42.84375 61.546875 
Q 39.203125 64.796875 32.078125 64.796875 
z
" id="DejaVuSans-82"/>
      <path d="M 54.890625 33.015625 
L 54.890625 0 
L 45.90625 0 
L 45.90625 32.71875 
Q 45.90625 40.484375 42.875 44.328125 
Q 39.84375 48.1875 33.796875 48.1875 
Q 26.515625 48.1875 22.3125 43.546875 
Q 18.109375 38.921875 18.109375 30.90625 
L 18.109375 0 
L 9.078125 0 
L 9.078125 75.984375 
L 18.109375 75.984375 
L 18.109375 46.1875 
Q 21.34375 51.125 25.703125 53.5625 
Q 30.078125 56 35.796875 56 
Q 45.21875 56 50.046875 50.171875 
Q 54.890625 44.34375 54.890625 33.015625 
z
" id="DejaVuSans-104"/>
      <path d="M 45.40625 27.984375 
Q 45.40625 37.75 41.375 43.109375 
Q 37.359375 48.484375 30.078125 48.484375 
Q 22.859375 48.484375 18.828125 43.109375 
Q 14.796875 37.75 14.796875 27.984375 
Q 14.796875 18.265625 18.828125 12.890625 
Q 22.859375 7.515625 30.078125 7.515625 
Q 37.359375 7.515625 41.375 12.890625 
Q 45.40625 18.265625 45.40625 27.984375 
z
M 54.390625 6.78125 
Q 54.390625 -7.171875 48.1875 -13.984375 
Q 42 -20.796875 29.203125 -20.796875 
Q 24.46875 -20.796875 20.265625 -20.09375 
Q 16.0625 -19.390625 12.109375 -17.921875 
L 12.109375 -9.1875 
Q 16.0625 -11.328125 19.921875 -12.34375 
Q 23.78125 -13.375 27.78125 -13.375 
Q 36.625 -13.375 41.015625 -8.765625 
Q 45.40625 -4.15625 45.40625 5.171875 
L 45.40625 9.625 
Q 42.625 4.78125 38.28125 2.390625 
Q 33.9375 0 27.875 0 
Q 17.828125 0 11.671875 7.65625 
Q 5.515625 15.328125 5.515625 27.984375 
Q 5.515625 40.671875 11.671875 48.328125 
Q 17.828125 56 27.875 56 
Q 33.9375 56 38.28125 53.609375 
Q 42.625 51.21875 45.40625 46.390625 
L 45.40625 54.6875 
L 54.390625 54.6875 
z
" id="DejaVuSans-103"/>
     </defs>
     <g transform="translate(245.34311 104.04812)rotate(-90)scale(0.08 -0.08)">
      <use xlink:href="#DejaVuSans-82"/>
      <use x="64.982422" xlink:href="#DejaVuSans-101"/>
      <use x="126.505859" xlink:href="#DejaVuSans-108"/>
      <use x="154.289062" xlink:href="#DejaVuSans-97"/>
      <use x="215.568359" xlink:href="#DejaVuSans-116"/>
      <use x="254.777344" xlink:href="#DejaVuSans-105"/>
      <use x="282.560547" xlink:href="#DejaVuSans-118"/>
      <use x="341.740234" xlink:href="#DejaVuSans-101"/>
      <use x="403.263672" xlink:href="#DejaVuSans-32"/>
      <use x="435.050781" xlink:href="#DejaVuSans-99"/>
      <use x="490.03125" xlink:href="#DejaVuSans-104"/>
      <use x="553.410156" xlink:href="#DejaVuSans-97"/>
      <use x="614.689453" xlink:href="#DejaVuSans-110"/>
      <use x="678.068359" xlink:href="#DejaVuSans-103"/>
      <use x="741.544922" xlink:href="#DejaVuSans-101"/>
     </g>
    </g>
   </g>
   <g id="line2d_32">
    <path clip-path="url(#p24f1b719cf)" d="M 48.046027 48.556783 
L 49.881762 48.556783 
L 51.717498 48.556783 
L 53.553233 48.556783 
L 55.388969 48.556783 
L 57.224705 48.556783 
L 59.06044 48.556783 
L 60.896176 48.556783 
L 62.731912 48.556783 
L 64.567647 48.556783 
L 66.403383 48.556783 
L 68.239118 48.556783 
L 70.074854 48.556783 
L 71.91059 48.556783 
L 73.746325 48.556783 
L 75.582061 48.556783 
L 77.417797 48.556783 
L 79.253532 48.556783 
L 81.089268 48.556783 
L 82.925003 46.220024 
L 84.760739 46.220024 
L 86.596475 48.556783 
L 88.43221 46.220024 
L 90.267946 48.556783 
L 92.103682 46.998944 
L 93.939417 47.777863 
L 95.775153 49.335702 
L 97.610889 52.451381 
L 99.446624 51.672461 
L 101.28236 53.2303 
L 103.118095 58.682737 
L 104.953831 56.345979 
L 106.789567 54.788139 
L 108.625302 56.345979 
L 110.461038 63.356255 
L 112.296774 58.682737 
L 114.132509 54.00922 
L 115.968245 54.00922 
L 117.80398 57.903818 
L 119.639716 60.240576 
L 121.475452 63.356255 
L 123.311187 73.482209 
L 125.146923 71.92437 
L 126.982659 82.050325 
L 128.818394 89.060601 
L 130.65413 103.081153 
L 132.489865 106.975751 
L 134.325601 113.207107 
L 136.161337 118.659544 
L 137.997072 106.975751 
L 139.832808 108.53359 
L 141.668544 110.091429 
L 143.504279 110.091429 
L 145.340015 110.870349 
L 147.17575 115.543866 
L 149.011486 122.554142 
L 150.847222 110.870349 
L 152.682957 111.649268 
L 154.518693 113.207107 
L 156.354429 113.986027 
L 158.190164 113.207107 
L 160.0259 116.322786 
L 161.861636 121.775223 
" style="fill:none;stroke:#d62728;stroke-linecap:square;stroke-opacity:0.5;"/>
   </g>
   <g id="line2d_33">
    <path clip-path="url(#p24f1b719cf)" d="M 48.046027 48.556783 
L 49.881762 48.556783 
L 51.717498 48.556783 
L 53.553233 48.556783 
L 55.388969 48.556783 
L 57.224705 48.556783 
L 59.06044 48.556783 
L 60.896176 48.556783 
L 62.731912 48.556783 
L 64.567647 48.556783 
L 66.403383 48.556783 
L 68.239118 48.556783 
L 70.074854 48.556783 
L 71.91059 48.556783 
L 73.746325 48.556783 
L 75.582061 48.556783 
L 77.417797 48.556783 
L 79.253532 48.556783 
L 81.089268 48.556783 
L 82.925003 49.335702 
L 84.760739 46.998944 
L 86.596475 47.777863 
L 88.43221 47.777863 
L 90.267946 49.335702 
L 92.103682 47.777863 
L 93.939417 47.777863 
L 95.775153 46.220024 
L 97.610889 36.09407 
L 99.446624 30.641633 
L 101.28236 44.662185 
L 103.118095 52.451381 
L 104.953831 50.893542 
L 106.789567 50.114622 
L 108.625302 50.114622 
L 110.461038 52.451381 
L 112.296774 54.00922 
L 114.132509 49.335702 
L 115.968245 47.777863 
L 117.80398 48.556783 
L 119.639716 48.556783 
L 121.475452 47.777863 
L 123.311187 46.220024 
L 125.146923 49.335702 
L 126.982659 50.114622 
L 128.818394 59.461657 
L 130.65413 66.471933 
L 132.489865 70.366531 
L 134.325601 82.050325 
L 136.161337 95.291957 
L 137.997072 77.376807 
L 139.832808 80.492485 
L 141.668544 82.050325 
L 143.504279 82.829244 
L 145.340015 79.713566 
L 147.17575 88.281681 
L 149.011486 114.764947 
L 150.847222 83.608164 
L 152.682957 85.944922 
L 154.518693 88.281681 
L 156.354429 89.060601 
L 158.190164 84.387083 
L 160.0259 90.61844 
L 161.861636 114.764947 
" style="fill:none;stroke:#9467bd;stroke-linecap:square;stroke-opacity:0.5;"/>
   </g>
   <g id="line2d_34">
    <path clip-path="url(#p24f1b719cf)" d="M 48.046027 48.556783 
L 49.881762 48.556783 
L 51.717498 48.556783 
L 53.553233 48.556783 
L 55.388969 48.556783 
L 57.224705 48.556783 
L 59.06044 48.556783 
L 60.896176 48.556783 
L 62.731912 48.556783 
L 64.567647 48.556783 
L 66.403383 48.556783 
L 68.239118 48.556783 
L 70.074854 48.556783 
L 71.91059 48.556783 
L 73.746325 48.556783 
L 75.582061 48.556783 
L 77.417797 48.556783 
L 79.253532 48.556783 
L 81.089268 48.556783 
L 82.925003 41.546507 
L 84.760739 39.988668 
L 86.596475 46.220024 
L 88.43221 45.441105 
L 90.267946 46.220024 
L 92.103682 44.662185 
L 93.939417 44.662185 
L 95.775153 42.325426 
L 97.610889 43.883265 
L 99.446624 60.240576 
L 101.28236 62.577335 
L 103.118095 66.471933 
L 104.953831 65.693013 
L 106.789567 64.135174 
L 108.625302 61.019496 
L 110.461038 68.808692 
L 112.296774 68.029772 
L 114.132509 64.914094 
L 115.968245 63.356255 
L 117.80398 70.366531 
L 119.639716 71.145451 
L 121.475452 67.250853 
L 123.311187 69.587611 
L 125.146923 81.271405 
L 126.982659 88.281681 
L 128.818394 92.955199 
L 130.65413 100.744394 
L 132.489865 103.860073 
L 134.325601 107.75467 
L 136.161337 110.870349 
L 137.997072 106.196831 
L 139.832808 107.75467 
L 141.668544 108.53359 
L 143.504279 109.31251 
L 145.340015 109.31251 
L 147.17575 110.870349 
L 149.011486 116.322786 
L 150.847222 111.649268 
L 152.682957 111.649268 
L 154.518693 112.428188 
L 156.354429 113.207107 
L 158.190164 112.428188 
L 160.0259 112.428188 
L 161.861636 116.322786 
" style="fill:none;stroke:#e377c2;stroke-linecap:square;stroke-opacity:0.5;"/>
   </g>
   <g id="line2d_35">
    <path clip-path="url(#p24f1b719cf)" d="M 48.046027 48.556783 
L 49.881762 48.556783 
L 51.717498 48.556783 
L 53.553233 48.556783 
L 55.388969 48.556783 
L 57.224705 48.556783 
L 59.06044 48.556783 
L 60.896176 48.556783 
L 62.731912 48.556783 
L 64.567647 48.556783 
L 66.403383 48.556783 
L 68.239118 48.556783 
L 70.074854 48.556783 
L 71.91059 48.556783 
L 73.746325 48.556783 
L 75.582061 48.556783 
L 77.417797 48.556783 
L 79.253532 48.556783 
L 81.089268 48.556783 
L 82.925003 48.556783 
L 84.760739 47.777863 
L 86.596475 47.777863 
L 88.43221 47.777863 
L 90.267946 47.777863 
L 92.103682 47.777863 
L 93.939417 48.556783 
L 95.775153 48.556783 
L 97.610889 47.777863 
L 99.446624 59.461657 
L 101.28236 60.240576 
L 103.118095 57.903818 
L 104.953831 57.903818 
L 106.789567 57.903818 
L 108.625302 55.567059 
L 110.461038 52.451381 
L 112.296774 55.567059 
L 114.132509 54.788139 
L 115.968245 54.788139 
L 117.80398 61.019496 
L 119.639716 61.798416 
L 121.475452 60.240576 
L 123.311187 56.345979 
L 125.146923 67.250853 
L 126.982659 72.70329 
L 128.818394 77.376807 
L 130.65413 85.166003 
L 132.489865 89.83952 
L 134.325601 93.734118 
L 136.161337 91.397359 
L 137.997072 93.734118 
L 139.832808 96.070877 
L 141.668544 96.070877 
L 143.504279 97.628716 
L 145.340015 97.628716 
L 147.17575 97.628716 
L 149.011486 97.628716 
L 150.847222 101.523314 
L 152.682957 102.302233 
L 154.518693 103.081153 
L 156.354429 104.638992 
L 158.190164 103.860073 
L 160.0259 99.186555 
L 161.861636 97.628716 
" style="fill:none;stroke:#bcbd22;stroke-linecap:square;stroke-opacity:0.5;"/>
   </g>
   <g id="line2d_36">
    <path clip-path="url(#p24f1b719cf)" d="M 48.046027 48.556783 
L 49.881762 48.556783 
L 51.717498 48.556783 
L 53.553233 48.556783 
L 55.388969 48.556783 
L 57.224705 48.556783 
L 59.06044 48.556783 
L 60.896176 48.556783 
L 62.731912 48.556783 
L 64.567647 48.556783 
L 66.403383 48.556783 
L 68.239118 48.556783 
L 70.074854 48.556783 
L 71.91059 48.556783 
L 73.746325 48.556783 
L 75.582061 48.556783 
L 77.417797 48.556783 
L 79.253532 48.556783 
L 81.089268 48.556783 
L 82.925003 49.335702 
L 84.760739 50.114622 
L 86.596475 48.556783 
L 88.43221 48.556783 
L 90.267946 48.556783 
L 92.103682 48.556783 
L 93.939417 49.335702 
L 95.775153 49.335702 
L 97.610889 48.556783 
L 99.446624 45.441105 
L 101.28236 44.662185 
L 103.118095 43.883265 
L 104.953831 43.883265 
L 106.789567 44.662185 
L 108.625302 46.220024 
L 110.461038 45.441105 
L 112.296774 44.662185 
L 114.132509 45.441105 
L 115.968245 45.441105 
L 117.80398 43.104346 
L 119.639716 42.325426 
L 121.475452 43.883265 
L 123.311187 43.883265 
L 125.146923 39.988668 
L 126.982659 36.09407 
L 128.818394 33.757311 
L 130.65413 29.862713 
L 132.489865 26.747035 
L 134.325601 29.083794 
L 136.161337 31.420552 
L 137.997072 27.525954 
L 139.832808 25.968115 
L 141.668544 25.189196 
L 143.504279 24.410276 
L 145.340015 23.631357 
L 147.17575 28.304874 
L 149.011486 29.862713 
L 150.847222 23.631357 
L 152.682957 23.631357 
L 154.518693 22.073517 
L 156.354429 21.294598 
L 158.190164 20.515678 
L 160.0259 27.525954 
L 161.861636 29.862713 
" style="fill:none;stroke:#17becf;stroke-linecap:square;stroke-opacity:0.5;"/>
   </g>
   <g id="patch_91">
    <path d="M 39.62 126.44874 
L 39.62 17.4 
" style="fill:none;stroke:#000000;stroke-linecap:square;stroke-linejoin:miter;stroke-width:0.8;"/>
   </g>
   <g id="patch_92">
    <path d="M 208.83811 126.44874 
L 208.83811 17.4 
" style="fill:none;stroke:#000000;stroke-linecap:square;stroke-linejoin:miter;stroke-width:0.8;"/>
   </g>
   <g id="patch_93">
    <path d="M 39.62 126.44874 
L 208.83811 126.44874 
" style="fill:none;stroke:#000000;stroke-linecap:square;stroke-linejoin:miter;stroke-width:0.8;"/>
   </g>
   <g id="patch_94">
    <path d="M 39.62 17.4 
L 208.83811 17.4 
" style="fill:none;stroke:#000000;stroke-linecap:square;stroke-linejoin:miter;stroke-width:0.8;"/>
   </g>
  </g>
 </g>
 <defs>
  <clipPath id="p24f1b719cf">
   <rect height="109.04874" width="169.21811" x="39.62" y="17.4"/>
  </clipPath>
 </defs>
</svg>
