<?xml version="1.0" encoding="utf-8" standalone="no"?>
<!DOCTYPE svg PUBLIC "-//W3C//DTD SVG 1.1//EN"
  "http://www.w3.org/Graphics/SVG/1.1/DTD/svg11.dtd">
<!-- Created with matplotlib (https://matplotlib.org/) -->
<svg height="170.07874pt" version="1.1" viewBox="0 0 255.11811 170.07874" width="255.11811pt" xmlns="http://www.w3.org/2000/svg" xmlns:xlink="http://www.w3.org/1999/xlink">
 <defs>
  <style type="text/css">
*{stroke-linecap:butt;stroke-linejoin:round;}
  </style>
 </defs>
 <g id="figure_1">
  <g id="patch_1">
   <path d="M 0 170.07874 
L 255.11811 170.07874 
L 255.11811 0 
L 0 0 
z
" style="fill:#ffffff;"/>
  </g>
  <g id="axes_1">
   <g id="patch_2">
    <path d="M 36.92 126.44874 
L 208.83811 126.44874 
L 208.83811 11.52 
L 36.92 11.52 
z
" style="fill:#ffffff;"/>
   </g>
   <g id="PolyCollection_1">
    <defs>
     <path d="M 44.73446 -86.239152 
L 44.73446 -75.936394 
L 46.617462 -75.936394 
L 48.500464 -75.936394 
L 50.383466 -75.936394 
L 52.266469 -75.936394 
L 54.149471 -75.936394 
L 56.032473 -75.936394 
L 57.915476 -75.936394 
L 59.798478 -75.936394 
L 61.68148 -75.936394 
L 63.564483 -75.936394 
L 65.447485 -75.936394 
L 67.330487 -75.936394 
L 69.213489 -75.936394 
L 71.096492 -75.936394 
L 72.979494 -75.936394 
L 74.862496 -75.936394 
L 76.745499 -75.936394 
L 78.628501 -75.936394 
L 80.511503 -74.981007 
L 82.394506 -78.149234 
L 84.277508 -76.974684 
L 86.16051 -77.019473 
L 88.043513 -74.853658 
L 89.926515 -77.030717 
L 91.809517 -77.020494 
L 93.692519 -78.972487 
L 95.575522 -88.902781 
L 97.458524 -92.502795 
L 99.341526 -78.758165 
L 101.224529 -69.147279 
L 103.107531 -71.46449 
L 104.990533 -72.742074 
L 106.873536 -72.953499 
L 108.756538 -69.229712 
L 110.63954 -67.006121 
L 112.522542 -73.993059 
L 114.405545 -76.056679 
L 116.288547 -74.277457 
L 118.171549 -74.058749 
L 120.054552 -75.27878 
L 121.937554 -76.396046 
L 123.820556 -71.497385 
L 125.703559 -68.655182 
L 127.586561 -57.574605 
L 129.469563 -51.925729 
L 131.352565 -49.926113 
L 133.235568 -46.61033 
L 135.11857 -44.923566 
L 137.001572 -47.677923 
L 138.884575 -46.907791 
L 140.767577 -46.581383 
L 142.650579 -46.415696 
L 144.533582 -46.99815 
L 146.416584 -45.598515 
L 148.299586 -43.989726 
L 150.182589 -46.23618 
L 152.065591 -45.865101 
L 153.948593 -45.531188 
L 155.831595 -45.426739 
L 157.714598 -46.035403 
L 159.5976 -45.312982 
L 161.480602 -43.990377 
L 161.480602 -50.351495 
L 161.480602 -50.351495 
L 159.5976 -54.777216 
L 157.714598 -56.151536 
L 155.831595 -54.94969 
L 153.948593 -55.209253 
L 152.065591 -55.875394 
L 150.182589 -56.540442 
L 148.299586 -50.347768 
L 146.416584 -55.482302 
L 144.533582 -57.818685 
L 142.650579 -56.89963 
L 140.767577 -57.194308 
L 138.884575 -57.722057 
L 137.001572 -58.934079 
L 135.11857 -53.950273 
L 133.235568 -57.357815 
L 131.352565 -61.643534 
L 129.469563 -63.78832 
L 127.586561 -68.338509 
L 125.703559 -77.467825 
L 123.820556 -79.340268 
L 121.937554 -86.677478 
L 120.054552 -83.51257 
L 118.171549 -81.882928 
L 116.288547 -82.16604 
L 114.405545 -84.952624 
L 112.522542 -82.005737 
L 110.63954 -75.445275 
L 108.756538 -77.116321 
L 106.873536 -80.760387 
L 104.990533 -80.395196 
L 103.107531 -78.936196 
L 101.224529 -76.752826 
L 99.341526 -91.806335 
L 97.458524 -158.55874 
L 95.575522 -130.484628 
L 93.692519 -92.255535 
L 91.809517 -88.503549 
L 89.926515 -88.517407 
L 88.043513 -85.098435 
L 86.16051 -88.495975 
L 84.277508 -88.137763 
L 82.394506 -91.386552 
L 80.511503 -85.993352 
L 78.628501 -86.239152 
L 76.745499 -86.239152 
L 74.862496 -86.239152 
L 72.979494 -86.239152 
L 71.096492 -86.239152 
L 69.213489 -86.239152 
L 67.330487 -86.239152 
L 65.447485 -86.239152 
L 63.564483 -86.239152 
L 61.68148 -86.239152 
L 59.798478 -86.239152 
L 57.915476 -86.239152 
L 56.032473 -86.239152 
L 54.149471 -86.239152 
L 52.266469 -86.239152 
L 50.383466 -86.239152 
L 48.500464 -86.239152 
L 46.617462 -86.239152 
L 44.73446 -86.239152 
z
" id="m2ef6af70d2" style="stroke:#6495ed;stroke-opacity:0.4;"/>
    </defs>
    <g clip-path="url(#p1c0fce360d)">
     <use style="fill:#6495ed;fill-opacity:0.4;stroke:#6495ed;stroke-opacity:0.4;" x="0" xlink:href="#m2ef6af70d2" y="170.07874"/>
    </g>
   </g>
   <g id="PolyCollection_2">
    <defs>
     <path d="M 44.73446 -82.189124 
L 44.73446 -78.633236 
L 46.617462 -78.633236 
L 48.500464 -78.633236 
L 50.383466 -78.633236 
L 52.266469 -78.633236 
L 54.149471 -78.633236 
L 56.032473 -78.633236 
L 57.915476 -78.633236 
L 59.798478 -78.633236 
L 61.68148 -78.633236 
L 63.564483 -78.633236 
L 65.447485 -78.633236 
L 67.330487 -78.633236 
L 69.213489 -78.633236 
L 71.096492 -78.633236 
L 72.979494 -78.633236 
L 74.862496 -78.633236 
L 76.745499 -78.633236 
L 78.628501 -78.633236 
L 80.511503 -77.698754 
L 82.394506 -81.490485 
L 84.277508 -79.899561 
L 86.16051 -80.014664 
L 88.043513 -77.513961 
L 89.926515 -80.001669 
L 91.809517 -80.000285 
L 93.692519 -82.488547 
L 95.575522 -101.061916 
L 97.458524 -111.259925 
L 99.341526 -83.270242 
L 101.224529 -71.652163 
L 103.107531 -73.851237 
L 104.990533 -75.087579 
L 106.873536 -75.312341 
L 108.756538 -71.691585 
L 110.63954 -69.676013 
L 112.522542 -76.392992 
L 114.405545 -78.736608 
L 116.288547 -76.73566 
L 118.171549 -76.495738 
L 120.054552 -77.860918 
L 121.937554 -79.837275 
L 123.820556 -74.109142 
L 125.703559 -71.744456 
L 127.586561 -61.046629 
L 129.469563 -55.174194 
L 131.352565 -52.877926 
L 133.235568 -48.663597 
L 135.11857 -46.15865 
L 137.001572 -50.070757 
L 138.884575 -49.048863 
L 140.767577 -48.610374 
L 142.650579 -48.383072 
L 144.533582 -49.200109 
L 146.416584 -47.22298 
L 148.299586 -44.527312 
L 150.182589 -48.14927 
L 152.065591 -47.628219 
L 153.948593 -47.146072 
L 155.831595 -46.982356 
L 157.714598 -47.910252 
L 159.5976 -46.796706 
L 161.480602 -44.527568 
L 161.480602 -46.166199 
L 161.480602 -46.166199 
L 159.5976 -49.761085 
L 157.714598 -51.197641 
L 155.831595 -50.00277 
L 153.948593 -50.216612 
L 152.065591 -50.863573 
L 150.182589 -51.526267 
L 148.299586 -46.163023 
L 146.416584 -50.343798 
L 144.533582 -52.78436 
L 142.650579 -51.830251 
L 140.767577 -52.103607 
L 138.884575 -52.626705 
L 137.001572 -53.831261 
L 135.11857 -48.902988 
L 133.235568 -52.194483 
L 131.352565 -56.89951 
L 129.469563 -59.252339 
L 127.586561 -64.719119 
L 125.703559 -74.846399 
L 123.820556 -76.797253 
L 121.937554 -83.160881 
L 120.054552 -80.617179 
L 118.171549 -79.130041 
L 116.288547 -79.373225 
L 114.405545 -81.738176 
L 112.522542 -79.124688 
L 110.63954 -72.630813 
L 108.756538 -74.450375 
L 106.873536 -78.064811 
L 104.990533 -77.728745 
L 103.107531 -76.440403 
L 101.224529 -74.299602 
L 99.341526 -87.447014 
L 97.458524 -134.073985 
L 95.575522 -114.963292 
L 93.692519 -86.941105 
L 91.809517 -83.917157 
L 89.926515 -83.908914 
L 88.043513 -81.023777 
L 86.16051 -83.917403 
L 84.277508 -83.746017 
L 82.394506 -85.858891 
L 80.511503 -81.394054 
L 78.628501 -82.189124 
L 76.745499 -82.189124 
L 74.862496 -82.189124 
L 72.979494 -82.189124 
L 71.096492 -82.189124 
L 69.213489 -82.189124 
L 67.330487 -82.189124 
L 65.447485 -82.189124 
L 63.564483 -82.189124 
L 61.68148 -82.189124 
L 59.798478 -82.189124 
L 57.915476 -82.189124 
L 56.032473 -82.189124 
L 54.149471 -82.189124 
L 52.266469 -82.189124 
L 50.383466 -82.189124 
L 48.500464 -82.189124 
L 46.617462 -82.189124 
L 44.73446 -82.189124 
z
" id="ma28b52f01b" style="stroke:#6495ed;stroke-opacity:0.6;"/>
    </defs>
    <g clip-path="url(#p1c0fce360d)">
     <use style="fill:#6495ed;fill-opacity:0.6;stroke:#6495ed;stroke-opacity:0.6;" x="0" xlink:href="#ma28b52f01b" y="170.07874"/>
    </g>
   </g>
   <g id="PolyCollection_3">
    <defs>
     <path d="M 161.480602 -50.351495 
L 161.480602 -43.990377 
L 163.363605 -43.990377 
L 165.246607 -43.990377 
L 167.129609 -43.990377 
L 169.012612 -43.990377 
L 170.895614 -43.990377 
L 172.778616 -43.990377 
L 174.661618 -43.990377 
L 176.544621 -43.990377 
L 178.427623 -43.990377 
L 180.310625 -43.990377 
L 182.193628 -43.990377 
L 184.07663 -43.990377 
L 185.959632 -43.990377 
L 187.842635 -43.990377 
L 189.725637 -43.990377 
L 191.608639 -43.990377 
L 193.491641 -43.990377 
L 195.374644 -43.990377 
L 197.257646 -43.990377 
L 199.140648 -43.990377 
L 201.023651 -43.990377 
L 201.023651 -50.351495 
L 201.023651 -50.351495 
L 199.140648 -50.351495 
L 197.257646 -50.351495 
L 195.374644 -50.351495 
L 193.491641 -50.351495 
L 191.608639 -50.351495 
L 189.725637 -50.351495 
L 187.842635 -50.351495 
L 185.959632 -50.351495 
L 184.07663 -50.351495 
L 182.193628 -50.351495 
L 180.310625 -50.351495 
L 178.427623 -50.351495 
L 176.544621 -50.351495 
L 174.661618 -50.351495 
L 172.778616 -50.351495 
L 170.895614 -50.351495 
L 169.012612 -50.351495 
L 167.129609 -50.351495 
L 165.246607 -50.351495 
L 163.363605 -50.351495 
L 161.480602 -50.351495 
z
" id="m5cce1cbad0" style="stroke:#228b22;stroke-opacity:0.4;"/>
    </defs>
    <g clip-path="url(#p1c0fce360d)">
     <use style="fill:#228b22;fill-opacity:0.4;stroke:#228b22;stroke-opacity:0.4;" x="0" xlink:href="#m5cce1cbad0" y="170.07874"/>
    </g>
   </g>
   <g id="PolyCollection_4">
    <defs>
     <path d="M 161.480602 -46.166199 
L 161.480602 -44.527568 
L 163.363605 -44.527568 
L 165.246607 -44.527568 
L 167.129609 -44.527568 
L 169.012612 -44.527568 
L 170.895614 -44.527568 
L 172.778616 -44.527568 
L 174.661618 -44.527568 
L 176.544621 -44.527568 
L 178.427623 -44.527568 
L 180.310625 -44.527568 
L 182.193628 -44.527568 
L 184.07663 -44.527568 
L 185.959632 -44.527568 
L 187.842635 -44.527568 
L 189.725637 -44.527568 
L 191.608639 -44.527568 
L 193.491641 -44.527568 
L 195.374644 -44.527568 
L 197.257646 -44.527568 
L 199.140648 -44.527568 
L 201.023651 -44.527568 
L 201.023651 -46.166199 
L 201.023651 -46.166199 
L 199.140648 -46.166199 
L 197.257646 -46.166199 
L 195.374644 -46.166199 
L 193.491641 -46.166199 
L 191.608639 -46.166199 
L 189.725637 -46.166199 
L 187.842635 -46.166199 
L 185.959632 -46.166199 
L 184.07663 -46.166199 
L 182.193628 -46.166199 
L 180.310625 -46.166199 
L 178.427623 -46.166199 
L 176.544621 -46.166199 
L 174.661618 -46.166199 
L 172.778616 -46.166199 
L 170.895614 -46.166199 
L 169.012612 -46.166199 
L 167.129609 -46.166199 
L 165.246607 -46.166199 
L 163.363605 -46.166199 
L 161.480602 -46.166199 
z
" id="m6782d65a1b" style="stroke:#228b22;stroke-opacity:0.6;"/>
    </defs>
    <g clip-path="url(#p1c0fce360d)">
     <use style="fill:#228b22;fill-opacity:0.6;stroke:#228b22;stroke-opacity:0.6;" x="0" xlink:href="#m6782d65a1b" y="170.07874"/>
    </g>
   </g>
   <g id="PathCollection_1">
    <defs>
     <path d="M -0.866025 1.732051 
L 0 0.866025 
L 0.866025 1.732051 
L 1.732051 0.866025 
L 0.866025 0 
L 1.732051 -0.866025 
L 0.866025 -1.732051 
L 0 -0.866025 
L -0.866025 -1.732051 
L -1.732051 -0.866025 
L -0.866025 0 
L -1.732051 0.866025 
z
" id="m71f2b70d87" style="stroke:#8a2be2;"/>
    </defs>
    <g clip-path="url(#p1c0fce360d)">
     <use style="fill:#8a2be2;stroke:#8a2be2;" x="123.820556" xlink:href="#m71f2b70d87" y="23.012874"/>
    </g>
   </g>
   <g id="PathCollection_2">
    <defs>
     <path d="M 0 -1.732051 
L -0.38887 -0.535233 
L -1.647278 -0.535233 
L -0.629204 0.204441 
L -1.018074 1.401259 
L -0 0.661585 
L 1.018074 1.401259 
L 0.629204 0.204441 
L 1.647278 -0.535233 
L 0.38887 -0.535233 
z
" id="m03d9b1ca36" style="stroke:#000000;"/>
    </defs>
    <g clip-path="url(#p1c0fce360d)">
     <use style="stroke:#000000;" x="116.288547" xlink:href="#m03d9b1ca36" y="23.012874"/>
    </g>
   </g>
   <g id="PathCollection_3">
    <defs>
     <path d="M -1.732051 1.732051 
L 1.732051 1.732051 
L 1.732051 -1.732051 
L -1.732051 -1.732051 
z
" id="m5d511a6cb0" style="stroke:#c71585;"/>
    </defs>
    <g clip-path="url(#p1c0fce360d)">
     <use style="fill:#c71585;stroke:#c71585;" x="127.586561" xlink:href="#m5d511a6cb0" y="23.012874"/>
    </g>
   </g>
   <g id="PathCollection_4">
    <defs>
     <path d="M 0 -1.732051 
L -1.647278 -0.535233 
L -1.018074 1.401259 
L 1.018074 1.401259 
L 1.647278 -0.535233 
z
" id="m6d12c9f5c3" style="stroke:#800000;"/>
    </defs>
    <g clip-path="url(#p1c0fce360d)">
     <use style="fill:#800000;stroke:#800000;" x="123.820556" xlink:href="#m6d12c9f5c3" y="28.184667"/>
    </g>
   </g>
   <g id="PathCollection_5">
    <defs>
     <path d="M -0 2.44949 
L 1.469694 0 
L 0 -2.44949 
L -1.469694 -0 
z
" id="mf7bc382194" style="stroke:#556b2f;"/>
    </defs>
    <g clip-path="url(#p1c0fce360d)">
     <use style="fill:#556b2f;stroke:#556b2f;" x="123.820556" xlink:href="#mf7bc382194" y="28.184667"/>
    </g>
   </g>
   <g id="matplotlib.axis_1">
    <g id="xtick_1">
     <g id="line2d_1">
      <defs>
       <path d="M 0 0 
L 0 3.5 
" id="ma9f6fe3202" style="stroke:#000000;stroke-width:0.8;"/>
      </defs>
      <g>
       <use style="stroke:#000000;stroke-width:0.8;" x="201.023651" xlink:href="#ma9f6fe3202" y="126.44874"/>
      </g>
     </g>
     <g id="text_1">
      <!-- 19 Apr -->
      <defs>
       <path d="M 12.40625 8.296875 
L 28.515625 8.296875 
L 28.515625 63.921875 
L 10.984375 60.40625 
L 10.984375 69.390625 
L 28.421875 72.90625 
L 38.28125 72.90625 
L 38.28125 8.296875 
L 54.390625 8.296875 
L 54.390625 0 
L 12.40625 0 
z
" id="DejaVuSans-49"/>
       <path d="M 10.984375 1.515625 
L 10.984375 10.5 
Q 14.703125 8.734375 18.5 7.8125 
Q 22.3125 6.890625 25.984375 6.890625 
Q 35.75 6.890625 40.890625 13.453125 
Q 46.046875 20.015625 46.78125 33.40625 
Q 43.953125 29.203125 39.59375 26.953125 
Q 35.25 24.703125 29.984375 24.703125 
Q 19.046875 24.703125 12.671875 31.3125 
Q 6.296875 37.9375 6.296875 49.421875 
Q 6.296875 60.640625 12.9375 67.421875 
Q 19.578125 74.21875 30.609375 74.21875 
Q 43.265625 74.21875 49.921875 64.515625 
Q 56.59375 54.828125 56.59375 36.375 
Q 56.59375 19.140625 48.40625 8.859375 
Q 40.234375 -1.421875 26.421875 -1.421875 
Q 22.703125 -1.421875 18.890625 -0.6875 
Q 15.09375 0.046875 10.984375 1.515625 
z
M 30.609375 32.421875 
Q 37.25 32.421875 41.125 36.953125 
Q 45.015625 41.5 45.015625 49.421875 
Q 45.015625 57.28125 41.125 61.84375 
Q 37.25 66.40625 30.609375 66.40625 
Q 23.96875 66.40625 20.09375 61.84375 
Q 16.21875 57.28125 16.21875 49.421875 
Q 16.21875 41.5 20.09375 36.953125 
Q 23.96875 32.421875 30.609375 32.421875 
z
" id="DejaVuSans-57"/>
       <path id="DejaVuSans-32"/>
       <path d="M 34.1875 63.1875 
L 20.796875 26.90625 
L 47.609375 26.90625 
z
M 28.609375 72.90625 
L 39.796875 72.90625 
L 67.578125 0 
L 57.328125 0 
L 50.6875 18.703125 
L 17.828125 18.703125 
L 11.1875 0 
L 0.78125 0 
z
" id="DejaVuSans-65"/>
       <path d="M 18.109375 8.203125 
L 18.109375 -20.796875 
L 9.078125 -20.796875 
L 9.078125 54.6875 
L 18.109375 54.6875 
L 18.109375 46.390625 
Q 20.953125 51.265625 25.265625 53.625 
Q 29.59375 56 35.59375 56 
Q 45.5625 56 51.78125 48.09375 
Q 58.015625 40.1875 58.015625 27.296875 
Q 58.015625 14.40625 51.78125 6.484375 
Q 45.5625 -1.421875 35.59375 -1.421875 
Q 29.59375 -1.421875 25.265625 0.953125 
Q 20.953125 3.328125 18.109375 8.203125 
z
M 48.6875 27.296875 
Q 48.6875 37.203125 44.609375 42.84375 
Q 40.53125 48.484375 33.40625 48.484375 
Q 26.265625 48.484375 22.1875 42.84375 
Q 18.109375 37.203125 18.109375 27.296875 
Q 18.109375 17.390625 22.1875 11.75 
Q 26.265625 6.109375 33.40625 6.109375 
Q 40.53125 6.109375 44.609375 11.75 
Q 48.6875 17.390625 48.6875 27.296875 
z
" id="DejaVuSans-112"/>
       <path d="M 41.109375 46.296875 
Q 39.59375 47.171875 37.8125 47.578125 
Q 36.03125 48 33.890625 48 
Q 26.265625 48 22.1875 43.046875 
Q 18.109375 38.09375 18.109375 28.8125 
L 18.109375 0 
L 9.078125 0 
L 9.078125 54.6875 
L 18.109375 54.6875 
L 18.109375 46.1875 
Q 20.953125 51.171875 25.484375 53.578125 
Q 30.03125 56 36.53125 56 
Q 37.453125 56 38.578125 55.875 
Q 39.703125 55.765625 41.0625 55.515625 
z
" id="DejaVuSans-114"/>
      </defs>
      <g transform="translate(203.231151 160.01124)rotate(-90)scale(0.08 -0.08)">
       <use xlink:href="#DejaVuSans-49"/>
       <use x="63.623047" xlink:href="#DejaVuSans-57"/>
       <use x="127.246094" xlink:href="#DejaVuSans-32"/>
       <use x="159.033203" xlink:href="#DejaVuSans-65"/>
       <use x="227.441406" xlink:href="#DejaVuSans-112"/>
       <use x="290.917969" xlink:href="#DejaVuSans-114"/>
      </g>
     </g>
    </g>
    <g id="xtick_2">
     <g id="line2d_2">
      <g>
       <use style="stroke:#000000;stroke-width:0.8;" x="187.842635" xlink:href="#ma9f6fe3202" y="126.44874"/>
      </g>
     </g>
     <g id="text_2">
      <!-- 12 Apr -->
      <defs>
       <path d="M 19.1875 8.296875 
L 53.609375 8.296875 
L 53.609375 0 
L 7.328125 0 
L 7.328125 8.296875 
Q 12.9375 14.109375 22.625 23.890625 
Q 32.328125 33.6875 34.8125 36.53125 
Q 39.546875 41.84375 41.421875 45.53125 
Q 43.3125 49.21875 43.3125 52.78125 
Q 43.3125 58.59375 39.234375 62.25 
Q 35.15625 65.921875 28.609375 65.921875 
Q 23.96875 65.921875 18.8125 64.3125 
Q 13.671875 62.703125 7.8125 59.421875 
L 7.8125 69.390625 
Q 13.765625 71.78125 18.9375 73 
Q 24.125 74.21875 28.421875 74.21875 
Q 39.75 74.21875 46.484375 68.546875 
Q 53.21875 62.890625 53.21875 53.421875 
Q 53.21875 48.921875 51.53125 44.890625 
Q 49.859375 40.875 45.40625 35.40625 
Q 44.1875 33.984375 37.640625 27.21875 
Q 31.109375 20.453125 19.1875 8.296875 
z
" id="DejaVuSans-50"/>
      </defs>
      <g transform="translate(190.050135 160.01124)rotate(-90)scale(0.08 -0.08)">
       <use xlink:href="#DejaVuSans-49"/>
       <use x="63.623047" xlink:href="#DejaVuSans-50"/>
       <use x="127.246094" xlink:href="#DejaVuSans-32"/>
       <use x="159.033203" xlink:href="#DejaVuSans-65"/>
       <use x="227.441406" xlink:href="#DejaVuSans-112"/>
       <use x="290.917969" xlink:href="#DejaVuSans-114"/>
      </g>
     </g>
    </g>
    <g id="xtick_3">
     <g id="line2d_3">
      <g>
       <use style="stroke:#000000;stroke-width:0.8;" x="174.661618" xlink:href="#ma9f6fe3202" y="126.44874"/>
      </g>
     </g>
     <g id="text_3">
      <!-- 5 Apr -->
      <defs>
       <path d="M 10.796875 72.90625 
L 49.515625 72.90625 
L 49.515625 64.59375 
L 19.828125 64.59375 
L 19.828125 46.734375 
Q 21.96875 47.46875 24.109375 47.828125 
Q 26.265625 48.1875 28.421875 48.1875 
Q 40.625 48.1875 47.75 41.5 
Q 54.890625 34.8125 54.890625 23.390625 
Q 54.890625 11.625 47.5625 5.09375 
Q 40.234375 -1.421875 26.90625 -1.421875 
Q 22.3125 -1.421875 17.546875 -0.640625 
Q 12.796875 0.140625 7.71875 1.703125 
L 7.71875 11.625 
Q 12.109375 9.234375 16.796875 8.0625 
Q 21.484375 6.890625 26.703125 6.890625 
Q 35.15625 6.890625 40.078125 11.328125 
Q 45.015625 15.765625 45.015625 23.390625 
Q 45.015625 31 40.078125 35.4375 
Q 35.15625 39.890625 26.703125 39.890625 
Q 22.75 39.890625 18.8125 39.015625 
Q 14.890625 38.140625 10.796875 36.28125 
z
" id="DejaVuSans-53"/>
      </defs>
      <g transform="translate(176.869118 154.92124)rotate(-90)scale(0.08 -0.08)">
       <use xlink:href="#DejaVuSans-53"/>
       <use x="63.623047" xlink:href="#DejaVuSans-32"/>
       <use x="95.410156" xlink:href="#DejaVuSans-65"/>
       <use x="163.818359" xlink:href="#DejaVuSans-112"/>
       <use x="227.294922" xlink:href="#DejaVuSans-114"/>
      </g>
     </g>
    </g>
    <g id="xtick_4">
     <g id="line2d_4">
      <g>
       <use style="stroke:#000000;stroke-width:0.8;" x="161.480602" xlink:href="#ma9f6fe3202" y="126.44874"/>
      </g>
     </g>
     <g id="text_4">
      <!-- 29 Mar -->
      <defs>
       <path d="M 9.8125 72.90625 
L 24.515625 72.90625 
L 43.109375 23.296875 
L 61.8125 72.90625 
L 76.515625 72.90625 
L 76.515625 0 
L 66.890625 0 
L 66.890625 64.015625 
L 48.09375 14.015625 
L 38.1875 14.015625 
L 19.390625 64.015625 
L 19.390625 0 
L 9.8125 0 
z
" id="DejaVuSans-77"/>
       <path d="M 34.28125 27.484375 
Q 23.390625 27.484375 19.1875 25 
Q 14.984375 22.515625 14.984375 16.5 
Q 14.984375 11.71875 18.140625 8.90625 
Q 21.296875 6.109375 26.703125 6.109375 
Q 34.1875 6.109375 38.703125 11.40625 
Q 43.21875 16.703125 43.21875 25.484375 
L 43.21875 27.484375 
z
M 52.203125 31.203125 
L 52.203125 0 
L 43.21875 0 
L 43.21875 8.296875 
Q 40.140625 3.328125 35.546875 0.953125 
Q 30.953125 -1.421875 24.3125 -1.421875 
Q 15.921875 -1.421875 10.953125 3.296875 
Q 6 8.015625 6 15.921875 
Q 6 25.140625 12.171875 29.828125 
Q 18.359375 34.515625 30.609375 34.515625 
L 43.21875 34.515625 
L 43.21875 35.40625 
Q 43.21875 41.609375 39.140625 45 
Q 35.0625 48.390625 27.6875 48.390625 
Q 23 48.390625 18.546875 47.265625 
Q 14.109375 46.140625 10.015625 43.890625 
L 10.015625 52.203125 
Q 14.9375 54.109375 19.578125 55.046875 
Q 24.21875 56 28.609375 56 
Q 40.484375 56 46.34375 49.84375 
Q 52.203125 43.703125 52.203125 31.203125 
z
" id="DejaVuSans-97"/>
      </defs>
      <g transform="translate(163.688102 161.26499)rotate(-90)scale(0.08 -0.08)">
       <use xlink:href="#DejaVuSans-50"/>
       <use x="63.623047" xlink:href="#DejaVuSans-57"/>
       <use x="127.246094" xlink:href="#DejaVuSans-32"/>
       <use x="159.033203" xlink:href="#DejaVuSans-77"/>
       <use x="245.3125" xlink:href="#DejaVuSans-97"/>
       <use x="306.591797" xlink:href="#DejaVuSans-114"/>
      </g>
     </g>
    </g>
    <g id="xtick_5">
     <g id="line2d_5">
      <g>
       <use style="stroke:#000000;stroke-width:0.8;" x="148.299586" xlink:href="#ma9f6fe3202" y="126.44874"/>
      </g>
     </g>
     <g id="text_5">
      <!-- 22 Mar -->
      <g transform="translate(150.507086 161.26499)rotate(-90)scale(0.08 -0.08)">
       <use xlink:href="#DejaVuSans-50"/>
       <use x="63.623047" xlink:href="#DejaVuSans-50"/>
       <use x="127.246094" xlink:href="#DejaVuSans-32"/>
       <use x="159.033203" xlink:href="#DejaVuSans-77"/>
       <use x="245.3125" xlink:href="#DejaVuSans-97"/>
       <use x="306.591797" xlink:href="#DejaVuSans-114"/>
      </g>
     </g>
    </g>
    <g id="xtick_6">
     <g id="line2d_6">
      <g>
       <use style="stroke:#000000;stroke-width:0.8;" x="135.11857" xlink:href="#ma9f6fe3202" y="126.44874"/>
      </g>
     </g>
     <g id="text_6">
      <!-- 15 Mar -->
      <g transform="translate(137.32607 161.26499)rotate(-90)scale(0.08 -0.08)">
       <use xlink:href="#DejaVuSans-49"/>
       <use x="63.623047" xlink:href="#DejaVuSans-53"/>
       <use x="127.246094" xlink:href="#DejaVuSans-32"/>
       <use x="159.033203" xlink:href="#DejaVuSans-77"/>
       <use x="245.3125" xlink:href="#DejaVuSans-97"/>
       <use x="306.591797" xlink:href="#DejaVuSans-114"/>
      </g>
     </g>
    </g>
    <g id="xtick_7">
     <g id="line2d_7">
      <g>
       <use style="stroke:#000000;stroke-width:0.8;" x="121.937554" xlink:href="#ma9f6fe3202" y="126.44874"/>
      </g>
     </g>
     <g id="text_7">
      <!-- 8 Mar -->
      <defs>
       <path d="M 31.78125 34.625 
Q 24.75 34.625 20.71875 30.859375 
Q 16.703125 27.09375 16.703125 20.515625 
Q 16.703125 13.921875 20.71875 10.15625 
Q 24.75 6.390625 31.78125 6.390625 
Q 38.8125 6.390625 42.859375 10.171875 
Q 46.921875 13.96875 46.921875 20.515625 
Q 46.921875 27.09375 42.890625 30.859375 
Q 38.875 34.625 31.78125 34.625 
z
M 21.921875 38.8125 
Q 15.578125 40.375 12.03125 44.71875 
Q 8.5 49.078125 8.5 55.328125 
Q 8.5 64.0625 14.71875 69.140625 
Q 20.953125 74.21875 31.78125 74.21875 
Q 42.671875 74.21875 48.875 69.140625 
Q 55.078125 64.0625 55.078125 55.328125 
Q 55.078125 49.078125 51.53125 44.71875 
Q 48 40.375 41.703125 38.8125 
Q 48.828125 37.15625 52.796875 32.3125 
Q 56.78125 27.484375 56.78125 20.515625 
Q 56.78125 9.90625 50.3125 4.234375 
Q 43.84375 -1.421875 31.78125 -1.421875 
Q 19.734375 -1.421875 13.25 4.234375 
Q 6.78125 9.90625 6.78125 20.515625 
Q 6.78125 27.484375 10.78125 32.3125 
Q 14.796875 37.15625 21.921875 38.8125 
z
M 18.3125 54.390625 
Q 18.3125 48.734375 21.84375 45.5625 
Q 25.390625 42.390625 31.78125 42.390625 
Q 38.140625 42.390625 41.71875 45.5625 
Q 45.3125 48.734375 45.3125 54.390625 
Q 45.3125 60.0625 41.71875 63.234375 
Q 38.140625 66.40625 31.78125 66.40625 
Q 25.390625 66.40625 21.84375 63.234375 
Q 18.3125 60.0625 18.3125 54.390625 
z
" id="DejaVuSans-56"/>
      </defs>
      <g transform="translate(124.145054 156.17499)rotate(-90)scale(0.08 -0.08)">
       <use xlink:href="#DejaVuSans-56"/>
       <use x="63.623047" xlink:href="#DejaVuSans-32"/>
       <use x="95.410156" xlink:href="#DejaVuSans-77"/>
       <use x="181.689453" xlink:href="#DejaVuSans-97"/>
       <use x="242.96875" xlink:href="#DejaVuSans-114"/>
      </g>
     </g>
    </g>
    <g id="xtick_8">
     <g id="line2d_8">
      <g>
       <use style="stroke:#000000;stroke-width:0.8;" x="108.756538" xlink:href="#ma9f6fe3202" y="126.44874"/>
      </g>
     </g>
     <g id="text_8">
      <!-- 1 Mar -->
      <g transform="translate(110.964038 156.17499)rotate(-90)scale(0.08 -0.08)">
       <use xlink:href="#DejaVuSans-49"/>
       <use x="63.623047" xlink:href="#DejaVuSans-32"/>
       <use x="95.410156" xlink:href="#DejaVuSans-77"/>
       <use x="181.689453" xlink:href="#DejaVuSans-97"/>
       <use x="242.96875" xlink:href="#DejaVuSans-114"/>
      </g>
     </g>
    </g>
    <g id="xtick_9">
     <g id="line2d_9">
      <g>
       <use style="stroke:#000000;stroke-width:0.8;" x="95.575522" xlink:href="#ma9f6fe3202" y="126.44874"/>
      </g>
     </g>
     <g id="text_9">
      <!-- 23 Feb -->
      <defs>
       <path d="M 40.578125 39.3125 
Q 47.65625 37.796875 51.625 33 
Q 55.609375 28.21875 55.609375 21.1875 
Q 55.609375 10.40625 48.1875 4.484375 
Q 40.765625 -1.421875 27.09375 -1.421875 
Q 22.515625 -1.421875 17.65625 -0.515625 
Q 12.796875 0.390625 7.625 2.203125 
L 7.625 11.71875 
Q 11.71875 9.328125 16.59375 8.109375 
Q 21.484375 6.890625 26.8125 6.890625 
Q 36.078125 6.890625 40.9375 10.546875 
Q 45.796875 14.203125 45.796875 21.1875 
Q 45.796875 27.640625 41.28125 31.265625 
Q 36.765625 34.90625 28.71875 34.90625 
L 20.21875 34.90625 
L 20.21875 43.015625 
L 29.109375 43.015625 
Q 36.375 43.015625 40.234375 45.921875 
Q 44.09375 48.828125 44.09375 54.296875 
Q 44.09375 59.90625 40.109375 62.90625 
Q 36.140625 65.921875 28.71875 65.921875 
Q 24.65625 65.921875 20.015625 65.03125 
Q 15.375 64.15625 9.8125 62.3125 
L 9.8125 71.09375 
Q 15.4375 72.65625 20.34375 73.4375 
Q 25.25 74.21875 29.59375 74.21875 
Q 40.828125 74.21875 47.359375 69.109375 
Q 53.90625 64.015625 53.90625 55.328125 
Q 53.90625 49.265625 50.4375 45.09375 
Q 46.96875 40.921875 40.578125 39.3125 
z
" id="DejaVuSans-51"/>
       <path d="M 9.8125 72.90625 
L 51.703125 72.90625 
L 51.703125 64.59375 
L 19.671875 64.59375 
L 19.671875 43.109375 
L 48.578125 43.109375 
L 48.578125 34.8125 
L 19.671875 34.8125 
L 19.671875 0 
L 9.8125 0 
z
" id="DejaVuSans-70"/>
       <path d="M 56.203125 29.59375 
L 56.203125 25.203125 
L 14.890625 25.203125 
Q 15.484375 15.921875 20.484375 11.0625 
Q 25.484375 6.203125 34.421875 6.203125 
Q 39.59375 6.203125 44.453125 7.46875 
Q 49.3125 8.734375 54.109375 11.28125 
L 54.109375 2.78125 
Q 49.265625 0.734375 44.1875 -0.34375 
Q 39.109375 -1.421875 33.890625 -1.421875 
Q 20.796875 -1.421875 13.15625 6.1875 
Q 5.515625 13.8125 5.515625 26.8125 
Q 5.515625 40.234375 12.765625 48.109375 
Q 20.015625 56 32.328125 56 
Q 43.359375 56 49.78125 48.890625 
Q 56.203125 41.796875 56.203125 29.59375 
z
M 47.21875 32.234375 
Q 47.125 39.59375 43.09375 43.984375 
Q 39.0625 48.390625 32.421875 48.390625 
Q 24.90625 48.390625 20.390625 44.140625 
Q 15.875 39.890625 15.1875 32.171875 
z
" id="DejaVuSans-101"/>
       <path d="M 48.6875 27.296875 
Q 48.6875 37.203125 44.609375 42.84375 
Q 40.53125 48.484375 33.40625 48.484375 
Q 26.265625 48.484375 22.1875 42.84375 
Q 18.109375 37.203125 18.109375 27.296875 
Q 18.109375 17.390625 22.1875 11.75 
Q 26.265625 6.109375 33.40625 6.109375 
Q 40.53125 6.109375 44.609375 11.75 
Q 48.6875 17.390625 48.6875 27.296875 
z
M 18.109375 46.390625 
Q 20.953125 51.265625 25.265625 53.625 
Q 29.59375 56 35.59375 56 
Q 45.5625 56 51.78125 48.09375 
Q 58.015625 40.1875 58.015625 27.296875 
Q 58.015625 14.40625 51.78125 6.484375 
Q 45.5625 -1.421875 35.59375 -1.421875 
Q 29.59375 -1.421875 25.265625 0.953125 
Q 20.953125 3.328125 18.109375 8.203125 
L 18.109375 0 
L 9.078125 0 
L 9.078125 75.984375 
L 18.109375 75.984375 
z
" id="DejaVuSans-98"/>
      </defs>
      <g transform="translate(97.783022 160.33374)rotate(-90)scale(0.08 -0.08)">
       <use xlink:href="#DejaVuSans-50"/>
       <use x="63.623047" xlink:href="#DejaVuSans-51"/>
       <use x="127.246094" xlink:href="#DejaVuSans-32"/>
       <use x="159.033203" xlink:href="#DejaVuSans-70"/>
       <use x="211.052734" xlink:href="#DejaVuSans-101"/>
       <use x="272.576172" xlink:href="#DejaVuSans-98"/>
      </g>
     </g>
    </g>
    <g id="xtick_10">
     <g id="line2d_10">
      <g>
       <use style="stroke:#000000;stroke-width:0.8;" x="82.394506" xlink:href="#ma9f6fe3202" y="126.44874"/>
      </g>
     </g>
     <g id="text_10">
      <!-- 16 Feb -->
      <defs>
       <path d="M 33.015625 40.375 
Q 26.375 40.375 22.484375 35.828125 
Q 18.609375 31.296875 18.609375 23.390625 
Q 18.609375 15.53125 22.484375 10.953125 
Q 26.375 6.390625 33.015625 6.390625 
Q 39.65625 6.390625 43.53125 10.953125 
Q 47.40625 15.53125 47.40625 23.390625 
Q 47.40625 31.296875 43.53125 35.828125 
Q 39.65625 40.375 33.015625 40.375 
z
M 52.59375 71.296875 
L 52.59375 62.3125 
Q 48.875 64.0625 45.09375 64.984375 
Q 41.3125 65.921875 37.59375 65.921875 
Q 27.828125 65.921875 22.671875 59.328125 
Q 17.53125 52.734375 16.796875 39.40625 
Q 19.671875 43.65625 24.015625 45.921875 
Q 28.375 48.1875 33.59375 48.1875 
Q 44.578125 48.1875 50.953125 41.515625 
Q 57.328125 34.859375 57.328125 23.390625 
Q 57.328125 12.15625 50.6875 5.359375 
Q 44.046875 -1.421875 33.015625 -1.421875 
Q 20.359375 -1.421875 13.671875 8.265625 
Q 6.984375 17.96875 6.984375 36.375 
Q 6.984375 53.65625 15.1875 63.9375 
Q 23.390625 74.21875 37.203125 74.21875 
Q 40.921875 74.21875 44.703125 73.484375 
Q 48.484375 72.75 52.59375 71.296875 
z
" id="DejaVuSans-54"/>
      </defs>
      <g transform="translate(84.602006 160.33374)rotate(-90)scale(0.08 -0.08)">
       <use xlink:href="#DejaVuSans-49"/>
       <use x="63.623047" xlink:href="#DejaVuSans-54"/>
       <use x="127.246094" xlink:href="#DejaVuSans-32"/>
       <use x="159.033203" xlink:href="#DejaVuSans-70"/>
       <use x="211.052734" xlink:href="#DejaVuSans-101"/>
       <use x="272.576172" xlink:href="#DejaVuSans-98"/>
      </g>
     </g>
    </g>
    <g id="xtick_11">
     <g id="line2d_11">
      <g>
       <use style="stroke:#000000;stroke-width:0.8;" x="69.213489" xlink:href="#ma9f6fe3202" y="126.44874"/>
      </g>
     </g>
     <g id="text_11">
      <!-- 9 Feb -->
      <g transform="translate(71.420989 155.24374)rotate(-90)scale(0.08 -0.08)">
       <use xlink:href="#DejaVuSans-57"/>
       <use x="63.623047" xlink:href="#DejaVuSans-32"/>
       <use x="95.410156" xlink:href="#DejaVuSans-70"/>
       <use x="147.429688" xlink:href="#DejaVuSans-101"/>
       <use x="208.953125" xlink:href="#DejaVuSans-98"/>
      </g>
     </g>
    </g>
    <g id="xtick_12">
     <g id="line2d_12">
      <g>
       <use style="stroke:#000000;stroke-width:0.8;" x="56.032473" xlink:href="#ma9f6fe3202" y="126.44874"/>
      </g>
     </g>
     <g id="text_12">
      <!-- 2 Feb -->
      <g transform="translate(58.239973 155.24374)rotate(-90)scale(0.08 -0.08)">
       <use xlink:href="#DejaVuSans-50"/>
       <use x="63.623047" xlink:href="#DejaVuSans-32"/>
       <use x="95.410156" xlink:href="#DejaVuSans-70"/>
       <use x="147.429688" xlink:href="#DejaVuSans-101"/>
       <use x="208.953125" xlink:href="#DejaVuSans-98"/>
      </g>
     </g>
    </g>
   </g>
   <g id="matplotlib.axis_2">
    <g id="ytick_1">
     <g id="line2d_13">
      <defs>
       <path d="M 0 0 
L -3.5 0 
" id="m639bce14ce" style="stroke:#000000;stroke-width:0.8;"/>
      </defs>
      <g>
       <use style="stroke:#000000;stroke-width:0.8;" x="36.92" xlink:href="#m639bce14ce" y="126.44874"/>
      </g>
     </g>
     <g id="text_13">
      <!-- 0 -->
      <defs>
       <path d="M 31.78125 66.40625 
Q 24.171875 66.40625 20.328125 58.90625 
Q 16.5 51.421875 16.5 36.375 
Q 16.5 21.390625 20.328125 13.890625 
Q 24.171875 6.390625 31.78125 6.390625 
Q 39.453125 6.390625 43.28125 13.890625 
Q 47.125 21.390625 47.125 36.375 
Q 47.125 51.421875 43.28125 58.90625 
Q 39.453125 66.40625 31.78125 66.40625 
z
M 31.78125 74.21875 
Q 44.046875 74.21875 50.515625 64.515625 
Q 56.984375 54.828125 56.984375 36.375 
Q 56.984375 17.96875 50.515625 8.265625 
Q 44.046875 -1.421875 31.78125 -1.421875 
Q 19.53125 -1.421875 13.0625 8.265625 
Q 6.59375 17.96875 6.59375 36.375 
Q 6.59375 54.828125 13.0625 64.515625 
Q 19.53125 74.21875 31.78125 74.21875 
z
" id="DejaVuSans-48"/>
      </defs>
      <g transform="translate(24.83 129.488115)scale(0.08 -0.08)">
       <use xlink:href="#DejaVuSans-48"/>
      </g>
     </g>
    </g>
    <g id="ytick_2">
     <g id="line2d_14">
      <g>
       <use style="stroke:#000000;stroke-width:0.8;" x="36.92" xlink:href="#m639bce14ce" y="105.606543"/>
      </g>
     </g>
     <g id="text_14">
      <!-- 2 -->
      <g transform="translate(24.83 108.645918)scale(0.08 -0.08)">
       <use xlink:href="#DejaVuSans-50"/>
      </g>
     </g>
    </g>
    <g id="ytick_3">
     <g id="line2d_15">
      <g>
       <use style="stroke:#000000;stroke-width:0.8;" x="36.92" xlink:href="#m639bce14ce" y="84.764345"/>
      </g>
     </g>
     <g id="text_15">
      <!-- 4 -->
      <defs>
       <path d="M 37.796875 64.3125 
L 12.890625 25.390625 
L 37.796875 25.390625 
z
M 35.203125 72.90625 
L 47.609375 72.90625 
L 47.609375 25.390625 
L 58.015625 25.390625 
L 58.015625 17.1875 
L 47.609375 17.1875 
L 47.609375 0 
L 37.796875 0 
L 37.796875 17.1875 
L 4.890625 17.1875 
L 4.890625 26.703125 
z
" id="DejaVuSans-52"/>
      </defs>
      <g transform="translate(24.83 87.80372)scale(0.08 -0.08)">
       <use xlink:href="#DejaVuSans-52"/>
      </g>
     </g>
    </g>
    <g id="ytick_4">
     <g id="line2d_16">
      <g>
       <use style="stroke:#000000;stroke-width:0.8;" x="36.92" xlink:href="#m639bce14ce" y="63.922148"/>
      </g>
     </g>
     <g id="text_16">
      <!-- 6 -->
      <g transform="translate(24.83 66.961523)scale(0.08 -0.08)">
       <use xlink:href="#DejaVuSans-54"/>
      </g>
     </g>
    </g>
    <g id="ytick_5">
     <g id="line2d_17">
      <g>
       <use style="stroke:#000000;stroke-width:0.8;" x="36.92" xlink:href="#m639bce14ce" y="43.079951"/>
      </g>
     </g>
     <g id="text_17">
      <!-- 8 -->
      <g transform="translate(24.83 46.119326)scale(0.08 -0.08)">
       <use xlink:href="#DejaVuSans-56"/>
      </g>
     </g>
    </g>
    <g id="ytick_6">
     <g id="line2d_18">
      <g>
       <use style="stroke:#000000;stroke-width:0.8;" x="36.92" xlink:href="#m639bce14ce" y="22.237753"/>
      </g>
     </g>
     <g id="text_18">
      <!-- 10 -->
      <g transform="translate(19.74 25.277128)scale(0.08 -0.08)">
       <use xlink:href="#DejaVuSans-49"/>
       <use x="63.623047" xlink:href="#DejaVuSans-48"/>
      </g>
     </g>
    </g>
    <g id="text_19">
     <!-- Rt -->
     <defs>
      <path d="M 44.390625 34.1875 
Q 47.5625 33.109375 50.5625 29.59375 
Q 53.5625 26.078125 56.59375 19.921875 
L 66.609375 0 
L 56 0 
L 46.6875 18.703125 
Q 43.0625 26.03125 39.671875 28.421875 
Q 36.28125 30.8125 30.421875 30.8125 
L 19.671875 30.8125 
L 19.671875 0 
L 9.8125 0 
L 9.8125 72.90625 
L 32.078125 72.90625 
Q 44.578125 72.90625 50.734375 67.671875 
Q 56.890625 62.453125 56.890625 51.90625 
Q 56.890625 45.015625 53.6875 40.46875 
Q 50.484375 35.9375 44.390625 34.1875 
z
M 19.671875 64.796875 
L 19.671875 38.921875 
L 32.078125 38.921875 
Q 39.203125 38.921875 42.84375 42.21875 
Q 46.484375 45.515625 46.484375 51.90625 
Q 46.484375 58.296875 42.84375 61.546875 
Q 39.203125 64.796875 32.078125 64.796875 
z
" id="DejaVuSans-82"/>
      <path d="M 18.3125 70.21875 
L 18.3125 54.6875 
L 36.8125 54.6875 
L 36.8125 47.703125 
L 18.3125 47.703125 
L 18.3125 18.015625 
Q 18.3125 11.328125 20.140625 9.421875 
Q 21.96875 7.515625 27.59375 7.515625 
L 36.8125 7.515625 
L 36.8125 0 
L 27.59375 0 
Q 17.1875 0 13.234375 3.875 
Q 9.28125 7.765625 9.28125 18.015625 
L 9.28125 47.703125 
L 2.6875 47.703125 
L 2.6875 54.6875 
L 9.28125 54.6875 
L 9.28125 70.21875 
z
" id="DejaVuSans-116"/>
     </defs>
     <g transform="translate(14.07625 73.33187)rotate(-90)scale(0.08 -0.08)">
      <use xlink:href="#DejaVuSans-82"/>
      <use x="69.482422" xlink:href="#DejaVuSans-116"/>
     </g>
    </g>
   </g>
   <g id="line2d_19">
    <path clip-path="url(#p1c0fce360d)" d="M 44.73446 89.568191 
L 46.617462 89.568191 
L 48.500464 89.568191 
L 50.383466 89.568191 
L 52.266469 89.568191 
L 54.149471 89.568191 
L 56.032473 89.568191 
L 57.915476 89.568191 
L 59.798478 89.568191 
L 61.68148 89.568191 
L 63.564483 89.568191 
L 65.447485 89.568191 
L 67.330487 89.568191 
L 69.213489 89.568191 
L 71.096492 89.568191 
L 72.979494 89.568191 
L 74.862496 89.568191 
L 76.745499 89.568191 
L 78.628501 89.568191 
L 80.511503 90.352276 
L 82.394506 86.236455 
L 84.277508 88.137748 
L 86.16051 87.992186 
L 88.043513 90.676565 
L 89.926515 87.997011 
L 91.809517 87.998551 
L 93.692519 85.23114 
L 95.575522 61.885237 
L 97.458524 46.937106 
L 99.341526 84.70903 
L 101.224529 97.109717 
L 103.107531 94.929441 
L 104.990533 93.651121 
L 106.873536 93.354777 
L 108.756538 96.99102 
L 110.63954 98.922522 
L 112.522542 92.278744 
L 114.405545 89.792055 
L 116.288547 91.99288 
L 118.171549 92.229107 
L 120.054552 90.796347 
L 121.937554 88.593537 
L 123.820556 94.637382 
L 125.703559 96.825153 
L 127.586561 107.177571 
L 129.469563 112.741723 
L 131.352565 115.039561 
L 133.235568 119.413729 
L 135.11857 122.23886 
L 137.001572 117.927157 
L 138.884575 119.006692 
L 140.767577 119.4856 
L 142.650579 119.730132 
L 144.533582 118.863911 
L 146.416584 121.012824 
L 148.299586 124.4257 
L 150.182589 120.001938 
L 152.065591 120.579719 
L 153.948593 121.131221 
L 155.831595 121.318988 
L 157.714598 120.285493 
L 159.5976 121.515332 
L 161.480602 124.423893 
" style="fill:none;stroke:#0000ff;stroke-linecap:square;stroke-opacity:0.5;"/>
   </g>
   <g id="line2d_20">
    <path clip-path="url(#p1c0fce360d)" d="M 163.363605 124.423893 
L 165.246607 124.423893 
L 167.129609 124.423893 
L 169.012612 124.423893 
L 170.895614 124.423893 
L 172.778616 124.423893 
L 174.661618 124.423893 
L 176.544621 124.423893 
L 178.427623 124.423893 
L 180.310625 124.423893 
L 182.193628 124.423893 
L 184.07663 124.423893 
L 185.959632 124.423893 
L 187.842635 124.423893 
L 189.725637 124.423893 
L 191.608639 124.423893 
L 193.491641 124.423893 
L 195.374644 124.423893 
L 197.257646 124.423893 
L 199.140648 124.423893 
L 201.023651 124.423893 
" style="fill:none;stroke:#008000;stroke-linecap:square;stroke-opacity:0.5;"/>
   </g>
   <g id="line2d_21">
    <path clip-path="url(#p1c0fce360d)" d="M 123.820556 126.44874 
L 123.820556 11.52 
" style="fill:none;stroke:#0000ff;stroke-dasharray:1.85,0.8;stroke-dashoffset:0;stroke-width:0.5;"/>
   </g>
   <g id="line2d_22">
    <path clip-path="url(#p1c0fce360d)" d="M 116.288547 126.44874 
L 116.288547 11.52 
" style="fill:none;stroke:#0000ff;stroke-dasharray:1.85,0.8;stroke-dashoffset:0;stroke-width:0.5;"/>
   </g>
   <g id="line2d_23">
    <path clip-path="url(#p1c0fce360d)" d="M 127.586561 126.44874 
L 127.586561 11.52 
" style="fill:none;stroke:#0000ff;stroke-dasharray:1.85,0.8;stroke-dashoffset:0;stroke-width:0.5;"/>
   </g>
   <g id="line2d_24">
    <path clip-path="url(#p1c0fce360d)" d="M 123.820556 126.44874 
L 123.820556 11.52 
" style="fill:none;stroke:#0000ff;stroke-dasharray:1.85,0.8;stroke-dashoffset:0;stroke-width:0.5;"/>
   </g>
   <g id="line2d_25">
    <path clip-path="url(#p1c0fce360d)" d="M 123.820556 126.44874 
L 123.820556 11.52 
" style="fill:none;stroke:#0000ff;stroke-dasharray:1.85,0.8;stroke-dashoffset:0;stroke-width:0.5;"/>
   </g>
   <g id="patch_3">
    <path d="M 36.92 126.44874 
L 36.92 11.52 
" style="fill:none;stroke:#000000;stroke-linecap:square;stroke-linejoin:miter;stroke-width:0.8;"/>
   </g>
   <g id="patch_4">
    <path d="M 208.83811 126.44874 
L 208.83811 11.52 
" style="fill:none;stroke:#000000;stroke-linecap:square;stroke-linejoin:miter;stroke-width:0.8;"/>
   </g>
   <g id="patch_5">
    <path d="M 36.92 126.44874 
L 208.83811 126.44874 
" style="fill:none;stroke:#000000;stroke-linecap:square;stroke-linejoin:miter;stroke-width:0.8;"/>
   </g>
   <g id="patch_6">
    <path d="M 36.92 11.52 
L 208.83811 11.52 
" style="fill:none;stroke:#000000;stroke-linecap:square;stroke-linejoin:miter;stroke-width:0.8;"/>
   </g>
  </g>
  <g id="axes_2">
   <g id="matplotlib.axis_3">
    <g id="ytick_7">
     <g id="line2d_26">
      <defs>
       <path d="M 0 0 
L 3.5 0 
" id="m6473f92cd2" style="stroke:#000000;stroke-width:0.8;"/>
      </defs>
      <g>
       <use style="stroke:#000000;stroke-width:0.8;" x="208.83811" xlink:href="#m6473f92cd2" y="126.44874"/>
      </g>
     </g>
     <g id="text_20">
      <!-- −1.0 -->
      <defs>
       <path d="M 10.59375 35.5 
L 73.1875 35.5 
L 73.1875 27.203125 
L 10.59375 27.203125 
z
" id="DejaVuSans-8722"/>
       <path d="M 10.6875 12.40625 
L 21 12.40625 
L 21 0 
L 10.6875 0 
z
" id="DejaVuSans-46"/>
      </defs>
      <g transform="translate(215.83811 129.488115)scale(0.08 -0.08)">
       <use xlink:href="#DejaVuSans-8722"/>
       <use x="83.789062" xlink:href="#DejaVuSans-49"/>
       <use x="147.412109" xlink:href="#DejaVuSans-46"/>
       <use x="179.199219" xlink:href="#DejaVuSans-48"/>
      </g>
     </g>
    </g>
    <g id="ytick_8">
     <g id="line2d_27">
      <g>
       <use style="stroke:#000000;stroke-width:0.8;" x="208.83811" xlink:href="#m6473f92cd2" y="85.402762"/>
      </g>
     </g>
     <g id="text_21">
      <!-- −0.5 -->
      <g transform="translate(215.83811 88.442137)scale(0.08 -0.08)">
       <use xlink:href="#DejaVuSans-8722"/>
       <use x="83.789062" xlink:href="#DejaVuSans-48"/>
       <use x="147.412109" xlink:href="#DejaVuSans-46"/>
       <use x="179.199219" xlink:href="#DejaVuSans-53"/>
      </g>
     </g>
    </g>
    <g id="ytick_9">
     <g id="line2d_28">
      <g>
       <use style="stroke:#000000;stroke-width:0.8;" x="208.83811" xlink:href="#m6473f92cd2" y="44.356783"/>
      </g>
     </g>
     <g id="text_22">
      <!-- 0.0 -->
      <g transform="translate(215.83811 47.396158)scale(0.08 -0.08)">
       <use xlink:href="#DejaVuSans-48"/>
       <use x="63.623047" xlink:href="#DejaVuSans-46"/>
       <use x="95.410156" xlink:href="#DejaVuSans-48"/>
      </g>
     </g>
    </g>
    <g id="ytick_10">
     <g id="line2d_29">
      <g>
       <use style="stroke:#000000;stroke-width:0.8;" x="208.83811" xlink:href="#m6473f92cd2" y="11.52"/>
      </g>
     </g>
     <g id="text_23">
      <!-- 0.4 -->
      <g transform="translate(215.83811 14.559375)scale(0.08 -0.08)">
       <use xlink:href="#DejaVuSans-48"/>
       <use x="63.623047" xlink:href="#DejaVuSans-46"/>
       <use x="95.410156" xlink:href="#DejaVuSans-52"/>
      </g>
     </g>
    </g>
    <g id="text_24">
     <!-- Relative change -->
     <defs>
      <path d="M 9.421875 75.984375 
L 18.40625 75.984375 
L 18.40625 0 
L 9.421875 0 
z
" id="DejaVuSans-108"/>
      <path d="M 9.421875 54.6875 
L 18.40625 54.6875 
L 18.40625 0 
L 9.421875 0 
z
M 9.421875 75.984375 
L 18.40625 75.984375 
L 18.40625 64.59375 
L 9.421875 64.59375 
z
" id="DejaVuSans-105"/>
      <path d="M 2.984375 54.6875 
L 12.5 54.6875 
L 29.59375 8.796875 
L 46.6875 54.6875 
L 56.203125 54.6875 
L 35.6875 0 
L 23.484375 0 
z
" id="DejaVuSans-118"/>
      <path d="M 48.78125 52.59375 
L 48.78125 44.1875 
Q 44.96875 46.296875 41.140625 47.34375 
Q 37.3125 48.390625 33.40625 48.390625 
Q 24.65625 48.390625 19.8125 42.84375 
Q 14.984375 37.3125 14.984375 27.296875 
Q 14.984375 17.28125 19.8125 11.734375 
Q 24.65625 6.203125 33.40625 6.203125 
Q 37.3125 6.203125 41.140625 7.25 
Q 44.96875 8.296875 48.78125 10.40625 
L 48.78125 2.09375 
Q 45.015625 0.34375 40.984375 -0.53125 
Q 36.96875 -1.421875 32.421875 -1.421875 
Q 20.0625 -1.421875 12.78125 6.34375 
Q 5.515625 14.109375 5.515625 27.296875 
Q 5.515625 40.671875 12.859375 48.328125 
Q 20.21875 56 33.015625 56 
Q 37.15625 56 41.109375 55.140625 
Q 45.0625 54.296875 48.78125 52.59375 
z
" id="DejaVuSans-99"/>
      <path d="M 54.890625 33.015625 
L 54.890625 0 
L 45.90625 0 
L 45.90625 32.71875 
Q 45.90625 40.484375 42.875 44.328125 
Q 39.84375 48.1875 33.796875 48.1875 
Q 26.515625 48.1875 22.3125 43.546875 
Q 18.109375 38.921875 18.109375 30.90625 
L 18.109375 0 
L 9.078125 0 
L 9.078125 75.984375 
L 18.109375 75.984375 
L 18.109375 46.1875 
Q 21.34375 51.125 25.703125 53.5625 
Q 30.078125 56 35.796875 56 
Q 45.21875 56 50.046875 50.171875 
Q 54.890625 44.34375 54.890625 33.015625 
z
" id="DejaVuSans-104"/>
      <path d="M 54.890625 33.015625 
L 54.890625 0 
L 45.90625 0 
L 45.90625 32.71875 
Q 45.90625 40.484375 42.875 44.328125 
Q 39.84375 48.1875 33.796875 48.1875 
Q 26.515625 48.1875 22.3125 43.546875 
Q 18.109375 38.921875 18.109375 30.90625 
L 18.109375 0 
L 9.078125 0 
L 9.078125 54.6875 
L 18.109375 54.6875 
L 18.109375 46.1875 
Q 21.34375 51.125 25.703125 53.5625 
Q 30.078125 56 35.796875 56 
Q 45.21875 56 50.046875 50.171875 
Q 54.890625 44.34375 54.890625 33.015625 
z
" id="DejaVuSans-110"/>
      <path d="M 45.40625 27.984375 
Q 45.40625 37.75 41.375 43.109375 
Q 37.359375 48.484375 30.078125 48.484375 
Q 22.859375 48.484375 18.828125 43.109375 
Q 14.796875 37.75 14.796875 27.984375 
Q 14.796875 18.265625 18.828125 12.890625 
Q 22.859375 7.515625 30.078125 7.515625 
Q 37.359375 7.515625 41.375 12.890625 
Q 45.40625 18.265625 45.40625 27.984375 
z
M 54.390625 6.78125 
Q 54.390625 -7.171875 48.1875 -13.984375 
Q 42 -20.796875 29.203125 -20.796875 
Q 24.46875 -20.796875 20.265625 -20.09375 
Q 16.0625 -19.390625 12.109375 -17.921875 
L 12.109375 -9.1875 
Q 16.0625 -11.328125 19.921875 -12.34375 
Q 23.78125 -13.375 27.78125 -13.375 
Q 36.625 -13.375 41.015625 -8.765625 
Q 45.40625 -4.15625 45.40625 5.171875 
L 45.40625 9.625 
Q 42.625 4.78125 38.28125 2.390625 
Q 33.9375 0 27.875 0 
Q 17.828125 0 11.671875 7.65625 
Q 5.515625 15.328125 5.515625 27.984375 
Q 5.515625 40.671875 11.671875 48.328125 
Q 17.828125 56 27.875 56 
Q 33.9375 56 38.28125 53.609375 
Q 42.625 51.21875 45.40625 46.390625 
L 45.40625 54.6875 
L 54.390625 54.6875 
z
" id="DejaVuSans-103"/>
     </defs>
     <g transform="translate(245.34311 101.10812)rotate(-90)scale(0.08 -0.08)">
      <use xlink:href="#DejaVuSans-82"/>
      <use x="64.982422" xlink:href="#DejaVuSans-101"/>
      <use x="126.505859" xlink:href="#DejaVuSans-108"/>
      <use x="154.289062" xlink:href="#DejaVuSans-97"/>
      <use x="215.568359" xlink:href="#DejaVuSans-116"/>
      <use x="254.777344" xlink:href="#DejaVuSans-105"/>
      <use x="282.560547" xlink:href="#DejaVuSans-118"/>
      <use x="341.740234" xlink:href="#DejaVuSans-101"/>
      <use x="403.263672" xlink:href="#DejaVuSans-32"/>
      <use x="435.050781" xlink:href="#DejaVuSans-99"/>
      <use x="490.03125" xlink:href="#DejaVuSans-104"/>
      <use x="553.410156" xlink:href="#DejaVuSans-97"/>
      <use x="614.689453" xlink:href="#DejaVuSans-110"/>
      <use x="678.068359" xlink:href="#DejaVuSans-103"/>
      <use x="741.544922" xlink:href="#DejaVuSans-101"/>
     </g>
    </g>
   </g>
   <g id="line2d_30">
    <path clip-path="url(#p1c0fce360d)" d="M 44.73446 44.356783 
L 46.617462 44.356783 
L 48.500464 44.356783 
L 50.383466 44.356783 
L 52.266469 44.356783 
L 54.149471 44.356783 
L 56.032473 44.356783 
L 57.915476 44.356783 
L 59.798478 44.356783 
L 61.68148 44.356783 
L 63.564483 44.356783 
L 65.447485 44.356783 
L 67.330487 44.356783 
L 69.213489 44.356783 
L 71.096492 44.356783 
L 72.979494 44.356783 
L 74.862496 44.356783 
L 76.745499 44.356783 
L 78.628501 44.356783 
L 80.511503 41.894024 
L 82.394506 41.894024 
L 84.277508 44.356783 
L 86.16051 41.894024 
L 88.043513 44.356783 
L 89.926515 42.714944 
L 91.809517 43.535863 
L 93.692519 45.177702 
L 95.575522 48.461381 
L 97.458524 47.640461 
L 99.341526 49.2823 
L 101.224529 55.028737 
L 103.107531 52.565979 
L 104.990533 50.924139 
L 106.873536 52.565979 
L 108.756538 59.954255 
L 110.63954 55.028737 
L 112.522542 50.10322 
L 114.405545 50.10322 
L 116.288547 54.207818 
L 118.171549 56.670576 
L 120.054552 59.954255 
L 121.937554 70.626209 
L 123.820556 68.98437 
L 125.703559 79.656325 
L 127.586561 87.044601 
L 129.469563 101.821153 
L 131.352565 105.925751 
L 133.235568 112.493107 
L 135.11857 118.239544 
L 137.001572 105.925751 
L 138.884575 107.56759 
L 140.767577 109.209429 
L 142.650579 109.209429 
L 144.533582 110.030349 
L 146.416584 114.955866 
L 148.299586 122.344142 
L 150.182589 110.030349 
L 152.065591 110.851268 
L 153.948593 112.493107 
L 155.831595 113.314027 
L 157.714598 112.493107 
L 159.5976 115.776786 
L 161.480602 121.523223 
" style="fill:none;stroke:#d62728;stroke-linecap:square;stroke-opacity:0.5;"/>
   </g>
   <g id="line2d_31">
    <path clip-path="url(#p1c0fce360d)" d="M 44.73446 44.356783 
L 46.617462 44.356783 
L 48.500464 44.356783 
L 50.383466 44.356783 
L 52.266469 44.356783 
L 54.149471 44.356783 
L 56.032473 44.356783 
L 57.915476 44.356783 
L 59.798478 44.356783 
L 61.68148 44.356783 
L 63.564483 44.356783 
L 65.447485 44.356783 
L 67.330487 44.356783 
L 69.213489 44.356783 
L 71.096492 44.356783 
L 72.979494 44.356783 
L 74.862496 44.356783 
L 76.745499 44.356783 
L 78.628501 44.356783 
L 80.511503 45.177702 
L 82.394506 42.714944 
L 84.277508 43.535863 
L 86.16051 43.535863 
L 88.043513 45.177702 
L 89.926515 43.535863 
L 91.809517 43.535863 
L 93.692519 41.894024 
L 95.575522 31.22207 
L 97.458524 25.475633 
L 99.341526 40.252185 
L 101.224529 48.461381 
L 103.107531 46.819542 
L 104.990533 45.998622 
L 106.873536 45.998622 
L 108.756538 48.461381 
L 110.63954 50.10322 
L 112.522542 45.177702 
L 114.405545 43.535863 
L 116.288547 44.356783 
L 118.171549 44.356783 
L 120.054552 43.535863 
L 121.937554 41.894024 
L 123.820556 45.177702 
L 125.703559 45.998622 
L 127.586561 55.849657 
L 129.469563 63.237933 
L 131.352565 67.342531 
L 133.235568 79.656325 
L 135.11857 93.611957 
L 137.001572 74.730807 
L 138.884575 78.014485 
L 140.767577 79.656325 
L 142.650579 80.477244 
L 144.533582 77.193566 
L 146.416584 86.223681 
L 148.299586 114.134947 
L 150.182589 81.298164 
L 152.065591 83.760922 
L 153.948593 86.223681 
L 155.831595 87.044601 
L 157.714598 82.119083 
L 159.5976 88.68644 
L 161.480602 114.134947 
" style="fill:none;stroke:#9467bd;stroke-linecap:square;stroke-opacity:0.5;"/>
   </g>
   <g id="line2d_32">
    <path clip-path="url(#p1c0fce360d)" d="M 44.73446 44.356783 
L 46.617462 44.356783 
L 48.500464 44.356783 
L 50.383466 44.356783 
L 52.266469 44.356783 
L 54.149471 44.356783 
L 56.032473 44.356783 
L 57.915476 44.356783 
L 59.798478 44.356783 
L 61.68148 44.356783 
L 63.564483 44.356783 
L 65.447485 44.356783 
L 67.330487 44.356783 
L 69.213489 44.356783 
L 71.096492 44.356783 
L 72.979494 44.356783 
L 74.862496 44.356783 
L 76.745499 44.356783 
L 78.628501 44.356783 
L 80.511503 36.968507 
L 82.394506 35.326668 
L 84.277508 41.894024 
L 86.16051 41.073105 
L 88.043513 41.894024 
L 89.926515 40.252185 
L 91.809517 40.252185 
L 93.692519 37.789426 
L 95.575522 39.431265 
L 97.458524 56.670576 
L 99.341526 59.133335 
L 101.224529 63.237933 
L 103.107531 62.417013 
L 104.990533 60.775174 
L 106.873536 57.491496 
L 108.756538 65.700692 
L 110.63954 64.879772 
L 112.522542 61.596094 
L 114.405545 59.954255 
L 116.288547 67.342531 
L 118.171549 68.163451 
L 120.054552 64.058853 
L 121.937554 66.521611 
L 123.820556 78.835405 
L 125.703559 86.223681 
L 127.586561 91.149199 
L 129.469563 99.358394 
L 131.352565 102.642073 
L 133.235568 106.74667 
L 135.11857 110.030349 
L 137.001572 105.104831 
L 138.884575 106.74667 
L 140.767577 107.56759 
L 142.650579 108.38851 
L 144.533582 108.38851 
L 146.416584 110.030349 
L 148.299586 115.776786 
L 150.182589 110.851268 
L 152.065591 110.851268 
L 153.948593 111.672188 
L 155.831595 112.493107 
L 157.714598 111.672188 
L 159.5976 111.672188 
L 161.480602 115.776786 
" style="fill:none;stroke:#e377c2;stroke-linecap:square;stroke-opacity:0.5;"/>
   </g>
   <g id="line2d_33">
    <path clip-path="url(#p1c0fce360d)" d="M 44.73446 44.356783 
L 46.617462 44.356783 
L 48.500464 44.356783 
L 50.383466 44.356783 
L 52.266469 44.356783 
L 54.149471 44.356783 
L 56.032473 44.356783 
L 57.915476 44.356783 
L 59.798478 44.356783 
L 61.68148 44.356783 
L 63.564483 44.356783 
L 65.447485 44.356783 
L 67.330487 44.356783 
L 69.213489 44.356783 
L 71.096492 44.356783 
L 72.979494 44.356783 
L 74.862496 44.356783 
L 76.745499 44.356783 
L 78.628501 44.356783 
L 80.511503 44.356783 
L 82.394506 43.535863 
L 84.277508 43.535863 
L 86.16051 43.535863 
L 88.043513 43.535863 
L 89.926515 43.535863 
L 91.809517 44.356783 
L 93.692519 44.356783 
L 95.575522 43.535863 
L 97.458524 55.849657 
L 99.341526 56.670576 
L 101.224529 54.207818 
L 103.107531 54.207818 
L 104.990533 54.207818 
L 106.873536 51.745059 
L 108.756538 48.461381 
L 110.63954 51.745059 
L 112.522542 50.924139 
L 114.405545 50.924139 
L 116.288547 57.491496 
L 118.171549 58.312416 
L 120.054552 56.670576 
L 121.937554 52.565979 
L 123.820556 64.058853 
L 125.703559 69.80529 
L 127.586561 74.730807 
L 129.469563 82.940003 
L 131.352565 87.86552 
L 133.235568 91.970118 
L 135.11857 89.507359 
L 137.001572 91.970118 
L 138.884575 94.432877 
L 140.767577 94.432877 
L 142.650579 96.074716 
L 144.533582 96.074716 
L 146.416584 96.074716 
L 148.299586 96.074716 
L 150.182589 100.179314 
L 152.065591 101.000233 
L 153.948593 101.821153 
L 155.831595 103.462992 
L 157.714598 102.642073 
L 159.5976 97.716555 
L 161.480602 96.074716 
" style="fill:none;stroke:#bcbd22;stroke-linecap:square;stroke-opacity:0.5;"/>
   </g>
   <g id="line2d_34">
    <path clip-path="url(#p1c0fce360d)" d="M 44.73446 44.356783 
L 46.617462 44.356783 
L 48.500464 44.356783 
L 50.383466 44.356783 
L 52.266469 44.356783 
L 54.149471 44.356783 
L 56.032473 44.356783 
L 57.915476 44.356783 
L 59.798478 44.356783 
L 61.68148 44.356783 
L 63.564483 44.356783 
L 65.447485 44.356783 
L 67.330487 44.356783 
L 69.213489 44.356783 
L 71.096492 44.356783 
L 72.979494 44.356783 
L 74.862496 44.356783 
L 76.745499 44.356783 
L 78.628501 44.356783 
L 80.511503 45.177702 
L 82.394506 45.998622 
L 84.277508 44.356783 
L 86.16051 44.356783 
L 88.043513 44.356783 
L 89.926515 44.356783 
L 91.809517 45.177702 
L 93.692519 45.177702 
L 95.575522 44.356783 
L 97.458524 41.073105 
L 99.341526 40.252185 
L 101.224529 39.431265 
L 103.107531 39.431265 
L 104.990533 40.252185 
L 106.873536 41.894024 
L 108.756538 41.073105 
L 110.63954 40.252185 
L 112.522542 41.073105 
L 114.405545 41.073105 
L 116.288547 38.610346 
L 118.171549 37.789426 
L 120.054552 39.431265 
L 121.937554 39.431265 
L 123.820556 35.326668 
L 125.703559 31.22207 
L 127.586561 28.759311 
L 129.469563 24.654713 
L 131.352565 21.371035 
L 133.235568 23.833794 
L 135.11857 26.296552 
L 137.001572 22.191954 
L 138.884575 20.550115 
L 140.767577 19.729196 
L 142.650579 18.908276 
L 144.533582 18.087357 
L 146.416584 23.012874 
L 148.299586 24.654713 
L 150.182589 18.087357 
L 152.065591 18.087357 
L 153.948593 16.445517 
L 155.831595 15.624598 
L 157.714598 14.803678 
L 159.5976 22.191954 
L 161.480602 24.654713 
" style="fill:none;stroke:#17becf;stroke-linecap:square;stroke-opacity:0.5;"/>
   </g>
   <g id="patch_7">
    <path d="M 36.92 126.44874 
L 36.92 11.52 
" style="fill:none;stroke:#000000;stroke-linecap:square;stroke-linejoin:miter;stroke-width:0.8;"/>
   </g>
   <g id="patch_8">
    <path d="M 208.83811 126.44874 
L 208.83811 11.52 
" style="fill:none;stroke:#000000;stroke-linecap:square;stroke-linejoin:miter;stroke-width:0.8;"/>
   </g>
   <g id="patch_9">
    <path d="M 36.92 126.44874 
L 208.83811 126.44874 
" style="fill:none;stroke:#000000;stroke-linecap:square;stroke-linejoin:miter;stroke-width:0.8;"/>
   </g>
   <g id="patch_10">
    <path d="M 36.92 11.52 
L 208.83811 11.52 
" style="fill:none;stroke:#000000;stroke-linecap:square;stroke-linejoin:miter;stroke-width:0.8;"/>
   </g>
  </g>
 </g>
 <defs>
  <clipPath id="p1c0fce360d">
   <rect height="114.92874" width="171.91811" x="36.92" y="11.52"/>
  </clipPath>
 </defs>
</svg>
