<?xml version="1.0" encoding="utf-8" standalone="no"?>
<!DOCTYPE svg PUBLIC "-//W3C//DTD SVG 1.1//EN"
  "http://www.w3.org/Graphics/SVG/1.1/DTD/svg11.dtd">
<!-- Created with matplotlib (https://matplotlib.org/) -->
<svg height="170.07874pt" version="1.1" viewBox="0 0 255.11811 170.07874" width="255.11811pt" xmlns="http://www.w3.org/2000/svg" xmlns:xlink="http://www.w3.org/1999/xlink">
 <defs>
  <style type="text/css">
*{stroke-linecap:butt;stroke-linejoin:round;}
  </style>
 </defs>
 <g id="figure_1">
  <g id="patch_1">
   <path d="M 0 170.07874 
L 255.11811 170.07874 
L 255.11811 0 
L 0 0 
z
" style="fill:#ffffff;"/>
  </g>
  <g id="axes_1">
   <g id="patch_2">
    <path d="M 47.09 126.44874 
L 208.83811 126.44874 
L 208.83811 11.52 
L 47.09 11.52 
z
" style="fill:#ffffff;"/>
   </g>
   <g id="PolyCollection_1">
    <defs>
     <path d="M 55.144066 -43.63 
L 55.144066 -43.63 
L 56.898765 -43.63 
L 58.653463 -43.630003 
L 60.408162 -43.630011 
L 62.16286 -43.630032 
L 63.917559 -43.630069 
L 65.672257 -43.63013 
L 67.426956 -43.630218 
L 69.181654 -43.630341 
L 70.936353 -43.630505 
L 72.691052 -43.63072 
L 74.44575 -43.630999 
L 76.200449 -43.631359 
L 77.955147 -43.631822 
L 79.709846 -43.632417 
L 81.464544 -43.633186 
L 83.219243 -43.634168 
L 84.973941 -43.635424 
L 86.72864 -43.637044 
L 88.483338 -43.639154 
L 90.238037 -43.641824 
L 91.992735 -43.645218 
L 93.747434 -43.649682 
L 95.502132 -43.655369 
L 97.256831 -43.66269 
L 99.011529 -43.672287 
L 100.766228 -43.684829 
L 102.520926 -43.700779 
L 104.275625 -43.721491 
L 106.030324 -43.749234 
L 107.785022 -43.789083 
L 109.539721 -43.843397 
L 111.294419 -43.918422 
L 113.049118 -44.016795 
L 114.803816 -44.145647 
L 116.558515 -44.305805 
L 118.313213 -44.50726 
L 120.067912 -44.759469 
L 121.82261 -45.065556 
L 123.577309 -45.44092 
L 125.332007 -45.91064 
L 127.086706 -46.487201 
L 128.841404 -47.188756 
L 130.596103 -48.065589 
L 132.350801 -49.118537 
L 134.1055 -50.421635 
L 135.860198 -52.003689 
L 137.614897 -53.840916 
L 139.369596 -55.925289 
L 141.124294 -58.305501 
L 142.878993 -60.941754 
L 144.633691 -63.593505 
L 146.38839 -66.375643 
L 148.143088 -69.098363 
L 149.897787 -71.785199 
L 151.652485 -74.278083 
L 153.407184 -76.333592 
L 155.161882 -78.25681 
L 156.916581 -79.740514 
L 158.671279 -80.889597 
L 160.425978 -81.642792 
L 162.180676 -82.046091 
L 163.935375 -82.171206 
L 163.935375 -119.961511 
L 163.935375 -119.961511 
L 162.180676 -115.846027 
L 160.425978 -111.462505 
L 158.671279 -107.266501 
L 156.916581 -102.711636 
L 155.161882 -98.361433 
L 153.407184 -94.134008 
L 151.652485 -89.644774 
L 149.897787 -85.257227 
L 148.143088 -81.005899 
L 146.38839 -76.666729 
L 144.633691 -72.513957 
L 142.878993 -68.510811 
L 141.124294 -64.735943 
L 139.369596 -61.268101 
L 137.614897 -58.194247 
L 135.860198 -55.535331 
L 134.1055 -53.343128 
L 132.350801 -51.558144 
L 130.596103 -50.09126 
L 128.841404 -48.890336 
L 127.086706 -47.913055 
L 125.332007 -47.118361 
L 123.577309 -46.466212 
L 121.82261 -45.925599 
L 120.067912 -45.4756 
L 118.313213 -45.106718 
L 116.558515 -44.804836 
L 114.803816 -44.561747 
L 113.049118 -44.370443 
L 111.294419 -44.21619 
L 109.539721 -44.095919 
L 107.785022 -44.00322 
L 106.030324 -43.930987 
L 104.275625 -43.874751 
L 102.520926 -43.82989 
L 100.766228 -43.793062 
L 99.011529 -43.763944 
L 97.256831 -43.739777 
L 95.502132 -43.719527 
L 93.747434 -43.702925 
L 91.992735 -43.68931 
L 90.238037 -43.678385 
L 88.483338 -43.669333 
L 86.72864 -43.661859 
L 84.973941 -43.655653 
L 83.219243 -43.650554 
L 81.464544 -43.646333 
L 79.709846 -43.642869 
L 77.955147 -43.640018 
L 76.200449 -43.637683 
L 74.44575 -43.63578 
L 72.691052 -43.634243 
L 70.936353 -43.633016 
L 69.181654 -43.632054 
L 67.426956 -43.631321 
L 65.672257 -43.630786 
L 63.917559 -43.630419 
L 62.16286 -43.630191 
L 60.408162 -43.630069 
L 58.653463 -43.630016 
L 56.898765 -43.63 
L 55.144066 -43.63 
z
" id="md2848fa23f" style="stroke:#6495ed;stroke-opacity:0.4;"/>
    </defs>
    <g clip-path="url(#p569ee56d30)">
     <use style="fill:#6495ed;fill-opacity:0.4;stroke:#6495ed;stroke-opacity:0.4;" x="0" xlink:href="#md2848fa23f" y="170.07874"/>
    </g>
   </g>
   <g id="PolyCollection_2">
    <defs>
     <path d="M 55.144066 -43.63 
L 55.144066 -43.63 
L 56.898765 -43.63 
L 58.653463 -43.630005 
L 60.408162 -43.630021 
L 62.16286 -43.630059 
L 63.917559 -43.63013 
L 65.672257 -43.630245 
L 67.426956 -43.630411 
L 69.181654 -43.630641 
L 70.936353 -43.630947 
L 72.691052 -43.631343 
L 74.44575 -43.631852 
L 76.200449 -43.6325 
L 77.955147 -43.633318 
L 79.709846 -43.634349 
L 81.464544 -43.635645 
L 83.219243 -43.63727 
L 84.973941 -43.639309 
L 86.72864 -43.641892 
L 88.483338 -43.645137 
L 90.238037 -43.649212 
L 91.992735 -43.654369 
L 93.747434 -43.660891 
L 95.502132 -43.669131 
L 97.256831 -43.679451 
L 99.011529 -43.692604 
L 100.766228 -43.709517 
L 102.520926 -43.730786 
L 104.275625 -43.757643 
L 106.030324 -43.793157 
L 107.785022 -43.840733 
L 109.539721 -43.905733 
L 111.294419 -43.99389 
L 113.049118 -44.107763 
L 114.803816 -44.25529 
L 116.558515 -44.440957 
L 118.313213 -44.672301 
L 120.067912 -44.957491 
L 121.82261 -45.305519 
L 123.577309 -45.731502 
L 125.332007 -46.252044 
L 127.086706 -46.892396 
L 128.841404 -47.676637 
L 130.596103 -48.64057 
L 132.350801 -49.817174 
L 134.1055 -51.267974 
L 135.860198 -53.007341 
L 137.614897 -55.049083 
L 139.369596 -57.421306 
L 141.124294 -60.092464 
L 142.878993 -62.983376 
L 144.633691 -66.052953 
L 146.38839 -69.210446 
L 148.143088 -72.373149 
L 149.897787 -75.51852 
L 151.652485 -78.507377 
L 153.407184 -81.289426 
L 155.161882 -83.772949 
L 156.916581 -85.978745 
L 158.671279 -87.713561 
L 160.425978 -89.063151 
L 162.180676 -90.064734 
L 163.935375 -90.643206 
L 163.935375 -102.853303 
L 163.935375 -102.853303 
L 162.180676 -101.093962 
L 160.425978 -98.903861 
L 158.671279 -96.318038 
L 156.916581 -93.514155 
L 155.161882 -90.50915 
L 153.407184 -87.217104 
L 151.652485 -83.679784 
L 149.897787 -80.137206 
L 148.143088 -76.450503 
L 146.38839 -72.750202 
L 144.633691 -69.079546 
L 142.878993 -65.562176 
L 141.124294 -62.243255 
L 139.369596 -59.220867 
L 137.614897 -56.532508 
L 135.860198 -54.20282 
L 134.1055 -52.230697 
L 132.350801 -50.608186 
L 130.596103 -49.290757 
L 128.841404 -48.225737 
L 127.086706 -47.358142 
L 125.332007 -46.649821 
L 123.577309 -46.069837 
L 121.82261 -45.592548 
L 120.067912 -45.199339 
L 118.313213 -44.878053 
L 116.558515 -44.613863 
L 114.803816 -44.400703 
L 113.049118 -44.230354 
L 111.294419 -44.096027 
L 109.539721 -43.991448 
L 107.785022 -43.913011 
L 106.030324 -43.853687 
L 104.275625 -43.808932 
L 102.520926 -43.77386 
L 100.766228 -43.745841 
L 99.011529 -43.723217 
L 97.256831 -43.704982 
L 95.502132 -43.690371 
L 93.747434 -43.678557 
L 91.992735 -43.669046 
L 90.238037 -43.661355 
L 88.483338 -43.655125 
L 86.72864 -43.65008 
L 84.973941 -43.645974 
L 83.219243 -43.642641 
L 81.464544 -43.639957 
L 79.709846 -43.637777 
L 77.955147 -43.635999 
L 76.200449 -43.63457 
L 74.44575 -43.633413 
L 72.691052 -43.632491 
L 70.936353 -43.631764 
L 69.181654 -43.631198 
L 67.426956 -43.63077 
L 65.672257 -43.630458 
L 63.917559 -43.630244 
L 62.16286 -43.630111 
L 60.408162 -43.63004 
L 58.653463 -43.630009 
L 56.898765 -43.63 
L 55.144066 -43.63 
z
" id="md57d981e5f" style="stroke:#6495ed;stroke-opacity:0.6;"/>
    </defs>
    <g clip-path="url(#p569ee56d30)">
     <use style="fill:#6495ed;fill-opacity:0.6;stroke:#6495ed;stroke-opacity:0.6;" x="0" xlink:href="#md57d981e5f" y="170.07874"/>
    </g>
   </g>
   <g id="PolyCollection_3">
    <defs>
     <path d="M 163.935375 -119.961511 
L 163.935375 -82.171206 
L 165.690073 -81.99393 
L 167.444772 -81.519196 
L 169.199471 -80.802145 
L 170.954169 -79.741438 
L 172.708868 -78.485544 
L 174.463566 -77.161913 
L 176.218265 -75.723922 
L 177.972963 -74.176423 
L 179.727662 -72.432915 
L 181.48236 -70.7797 
L 183.237059 -69.094544 
L 184.991757 -67.438946 
L 186.746456 -65.802042 
L 188.501154 -64.178601 
L 190.255853 -62.607438 
L 192.010551 -61.075814 
L 193.76525 -59.640042 
L 195.519948 -58.284255 
L 197.274647 -57.000608 
L 199.029345 -55.808001 
L 200.784044 -54.669903 
L 200.784044 -146.679396 
L 200.784044 -146.679396 
L 199.029345 -148.696498 
L 197.274647 -150.613666 
L 195.519948 -152.480799 
L 193.76525 -154.329486 
L 192.010551 -156.762678 
L 190.255853 -158.347449 
L 188.501154 -158.55874 
L 186.746456 -157.978894 
L 184.991757 -157.110127 
L 183.237059 -156.675529 
L 181.48236 -154.48749 
L 179.727662 -152.217122 
L 177.972963 -150.031785 
L 176.218265 -147.604975 
L 174.463566 -144.145741 
L 172.708868 -141.12114 
L 170.954169 -137.287233 
L 169.199471 -132.569509 
L 167.444772 -128.603263 
L 165.690073 -124.268876 
L 163.935375 -119.961511 
z
" id="m72a409d728" style="stroke:#228b22;stroke-opacity:0.4;"/>
    </defs>
    <g clip-path="url(#p569ee56d30)">
     <use style="fill:#228b22;fill-opacity:0.4;stroke:#228b22;stroke-opacity:0.4;" x="0" xlink:href="#m72a409d728" y="170.07874"/>
    </g>
   </g>
   <g id="PolyCollection_4">
    <defs>
     <path d="M 163.935375 -102.853303 
L 163.935375 -90.643206 
L 165.690073 -91.027624 
L 167.444772 -90.94966 
L 169.199471 -90.509 
L 170.954169 -89.786398 
L 172.708868 -88.842855 
L 174.463566 -87.648678 
L 176.218265 -86.209104 
L 177.972963 -84.58897 
L 179.727662 -82.921954 
L 181.48236 -81.085035 
L 183.237059 -79.152194 
L 184.991757 -77.237523 
L 186.746456 -75.238394 
L 188.501154 -73.266637 
L 190.255853 -71.310472 
L 192.010551 -69.4042 
L 193.76525 -67.543945 
L 195.519948 -65.730377 
L 197.274647 -63.980269 
L 199.029345 -62.338172 
L 200.784044 -60.755477 
L 200.784044 -77.62229 
L 200.784044 -77.62229 
L 199.029345 -79.99261 
L 197.274647 -82.415975 
L 195.519948 -84.922832 
L 193.76525 -87.268815 
L 192.010551 -89.717307 
L 190.255853 -92.091546 
L 188.501154 -94.441248 
L 186.746456 -96.694193 
L 184.991757 -98.744102 
L 183.237059 -100.535563 
L 181.48236 -102.188453 
L 179.727662 -103.692559 
L 177.972963 -104.903812 
L 176.218265 -105.837322 
L 174.463566 -106.415918 
L 172.708868 -106.67348 
L 170.954169 -106.649625 
L 169.199471 -106.271204 
L 167.444772 -105.551892 
L 165.690073 -104.287389 
L 163.935375 -102.853303 
z
" id="mb6caf5ff2b" style="stroke:#228b22;stroke-opacity:0.6;"/>
    </defs>
    <g clip-path="url(#p569ee56d30)">
     <use style="fill:#228b22;fill-opacity:0.6;stroke:#228b22;stroke-opacity:0.6;" x="0" xlink:href="#mb6caf5ff2b" y="170.07874"/>
    </g>
   </g>
   <g id="PathCollection_1">
    <defs>
     <path d="M -0.866025 1.732051 
L 0 0.866025 
L 0.866025 1.732051 
L 1.732051 0.866025 
L 0.866025 0 
L 1.732051 -0.866025 
L 0.866025 -1.732051 
L 0 -0.866025 
L -0.866025 -1.732051 
L -1.732051 -0.866025 
L -0.866025 0 
L -1.732051 0.866025 
z
" id="m40a127a605" style="stroke:#8a2be2;"/>
    </defs>
    <g clip-path="url(#p569ee56d30)">
     <use style="fill:#8a2be2;stroke:#8a2be2;" x="128.841404" xlink:href="#m40a127a605" y="23.012874"/>
    </g>
   </g>
   <g id="PathCollection_2">
    <defs>
     <path d="M 0 -1.732051 
L -0.38887 -0.535233 
L -1.647278 -0.535233 
L -0.629204 0.204441 
L -1.018074 1.401259 
L -0 0.661585 
L 1.018074 1.401259 
L 0.629204 0.204441 
L 1.647278 -0.535233 
L 0.38887 -0.535233 
z
" id="m8d5c908788" style="stroke:#000000;"/>
    </defs>
    <g clip-path="url(#p569ee56d30)">
     <use style="stroke:#000000;" x="121.82261" xlink:href="#m8d5c908788" y="23.012874"/>
    </g>
   </g>
   <g id="PathCollection_3">
    <defs>
     <path d="M -1.732051 1.732051 
L 1.732051 1.732051 
L 1.732051 -1.732051 
L -1.732051 -1.732051 
z
" id="m47e329f991" style="stroke:#c71585;"/>
    </defs>
    <g clip-path="url(#p569ee56d30)">
     <use style="fill:#c71585;stroke:#c71585;" x="132.350801" xlink:href="#m47e329f991" y="23.012874"/>
    </g>
   </g>
   <g id="PathCollection_4">
    <defs>
     <path d="M 0 -1.732051 
L -1.647278 -0.535233 
L -1.018074 1.401259 
L 1.018074 1.401259 
L 1.647278 -0.535233 
z
" id="mdc0c5af9f4" style="stroke:#800000;"/>
    </defs>
    <g clip-path="url(#p569ee56d30)">
     <use style="fill:#800000;stroke:#800000;" x="128.841404" xlink:href="#mdc0c5af9f4" y="28.184667"/>
    </g>
   </g>
   <g id="PathCollection_5">
    <defs>
     <path d="M -0 2.44949 
L 1.469694 0 
L 0 -2.44949 
L -1.469694 -0 
z
" id="m9dd19526fa" style="stroke:#556b2f;"/>
    </defs>
    <g clip-path="url(#p569ee56d30)">
     <use style="fill:#556b2f;stroke:#556b2f;" x="128.841404" xlink:href="#m9dd19526fa" y="28.184667"/>
    </g>
   </g>
   <g id="patch_3">
    <path clip-path="url(#p569ee56d30)" d="M 54.442187 126.44874 
L 55.845946 126.44874 
L 55.845946 126.44874 
L 54.442187 126.44874 
z
" style="fill:#1f77b4;opacity:0.5;"/>
   </g>
   <g id="patch_4">
    <path clip-path="url(#p569ee56d30)" d="M 56.196885 126.44874 
L 57.600644 126.44874 
L 57.600644 126.44874 
L 56.196885 126.44874 
z
" style="fill:#1f77b4;opacity:0.5;"/>
   </g>
   <g id="patch_5">
    <path clip-path="url(#p569ee56d30)" d="M 57.951584 126.44874 
L 59.355343 126.44874 
L 59.355343 126.44874 
L 57.951584 126.44874 
z
" style="fill:#1f77b4;opacity:0.5;"/>
   </g>
   <g id="patch_6">
    <path clip-path="url(#p569ee56d30)" d="M 59.706282 126.44874 
L 61.110041 126.44874 
L 61.110041 126.44874 
L 59.706282 126.44874 
z
" style="fill:#1f77b4;opacity:0.5;"/>
   </g>
   <g id="patch_7">
    <path clip-path="url(#p569ee56d30)" d="M 61.460981 126.44874 
L 62.86474 126.44874 
L 62.86474 126.44874 
L 61.460981 126.44874 
z
" style="fill:#1f77b4;opacity:0.5;"/>
   </g>
   <g id="patch_8">
    <path clip-path="url(#p569ee56d30)" d="M 63.215679 126.44874 
L 64.619438 126.44874 
L 64.619438 126.44874 
L 63.215679 126.44874 
z
" style="fill:#1f77b4;opacity:0.5;"/>
   </g>
   <g id="patch_9">
    <path clip-path="url(#p569ee56d30)" d="M 64.970378 126.44874 
L 66.374137 126.44874 
L 66.374137 126.44874 
L 64.970378 126.44874 
z
" style="fill:#1f77b4;opacity:0.5;"/>
   </g>
   <g id="patch_10">
    <path clip-path="url(#p569ee56d30)" d="M 66.725077 126.44874 
L 68.128835 126.44874 
L 68.128835 126.44874 
L 66.725077 126.44874 
z
" style="fill:#1f77b4;opacity:0.5;"/>
   </g>
   <g id="patch_11">
    <path clip-path="url(#p569ee56d30)" d="M 68.479775 126.44874 
L 69.883534 126.44874 
L 69.883534 126.44874 
L 68.479775 126.44874 
z
" style="fill:#1f77b4;opacity:0.5;"/>
   </g>
   <g id="patch_12">
    <path clip-path="url(#p569ee56d30)" d="M 70.234474 126.44874 
L 71.638232 126.44874 
L 71.638232 126.44874 
L 70.234474 126.44874 
z
" style="fill:#1f77b4;opacity:0.5;"/>
   </g>
   <g id="patch_13">
    <path clip-path="url(#p569ee56d30)" d="M 71.989172 126.44874 
L 73.392931 126.44874 
L 73.392931 126.44874 
L 71.989172 126.44874 
z
" style="fill:#1f77b4;opacity:0.5;"/>
   </g>
   <g id="patch_14">
    <path clip-path="url(#p569ee56d30)" d="M 73.743871 126.44874 
L 75.147629 126.44874 
L 75.147629 126.44874 
L 73.743871 126.44874 
z
" style="fill:#1f77b4;opacity:0.5;"/>
   </g>
   <g id="patch_15">
    <path clip-path="url(#p569ee56d30)" d="M 75.498569 126.44874 
L 76.902328 126.44874 
L 76.902328 126.44874 
L 75.498569 126.44874 
z
" style="fill:#1f77b4;opacity:0.5;"/>
   </g>
   <g id="patch_16">
    <path clip-path="url(#p569ee56d30)" d="M 77.253268 126.44874 
L 78.657027 126.44874 
L 78.657027 126.44874 
L 77.253268 126.44874 
z
" style="fill:#1f77b4;opacity:0.5;"/>
   </g>
   <g id="patch_17">
    <path clip-path="url(#p569ee56d30)" d="M 79.007966 126.44874 
L 80.411725 126.44874 
L 80.411725 126.44874 
L 79.007966 126.44874 
z
" style="fill:#1f77b4;opacity:0.5;"/>
   </g>
   <g id="patch_18">
    <path clip-path="url(#p569ee56d30)" d="M 80.762665 126.44874 
L 82.166424 126.44874 
L 82.166424 126.44874 
L 80.762665 126.44874 
z
" style="fill:#1f77b4;opacity:0.5;"/>
   </g>
   <g id="patch_19">
    <path clip-path="url(#p569ee56d30)" d="M 82.517363 126.44874 
L 83.921122 126.44874 
L 83.921122 126.44874 
L 82.517363 126.44874 
z
" style="fill:#1f77b4;opacity:0.5;"/>
   </g>
   <g id="patch_20">
    <path clip-path="url(#p569ee56d30)" d="M 84.272062 126.44874 
L 85.675821 126.44874 
L 85.675821 126.44874 
L 84.272062 126.44874 
z
" style="fill:#1f77b4;opacity:0.5;"/>
   </g>
   <g id="patch_21">
    <path clip-path="url(#p569ee56d30)" d="M 86.02676 126.44874 
L 87.430519 126.44874 
L 87.430519 126.44874 
L 86.02676 126.44874 
z
" style="fill:#1f77b4;opacity:0.5;"/>
   </g>
   <g id="patch_22">
    <path clip-path="url(#p569ee56d30)" d="M 87.781459 126.44874 
L 89.185218 126.44874 
L 89.185218 126.44874 
L 87.781459 126.44874 
z
" style="fill:#1f77b4;opacity:0.5;"/>
   </g>
   <g id="patch_23">
    <path clip-path="url(#p569ee56d30)" d="M 89.536157 126.44874 
L 90.939916 126.44874 
L 90.939916 126.44874 
L 89.536157 126.44874 
z
" style="fill:#1f77b4;opacity:0.5;"/>
   </g>
   <g id="patch_24">
    <path clip-path="url(#p569ee56d30)" d="M 91.290856 126.44874 
L 92.694615 126.44874 
L 92.694615 126.44874 
L 91.290856 126.44874 
z
" style="fill:#1f77b4;opacity:0.5;"/>
   </g>
   <g id="patch_25">
    <path clip-path="url(#p569ee56d30)" d="M 93.045554 126.44874 
L 94.449313 126.44874 
L 94.449313 126.44874 
L 93.045554 126.44874 
z
" style="fill:#1f77b4;opacity:0.5;"/>
   </g>
   <g id="patch_26">
    <path clip-path="url(#p569ee56d30)" d="M 94.800253 126.44874 
L 96.204012 126.44874 
L 96.204012 126.44874 
L 94.800253 126.44874 
z
" style="fill:#1f77b4;opacity:0.5;"/>
   </g>
   <g id="patch_27">
    <path clip-path="url(#p569ee56d30)" d="M 96.554951 126.44874 
L 97.95871 126.44874 
L 97.95871 126.44874 
L 96.554951 126.44874 
z
" style="fill:#1f77b4;opacity:0.5;"/>
   </g>
   <g id="patch_28">
    <path clip-path="url(#p569ee56d30)" d="M 98.30965 126.44874 
L 99.713409 126.44874 
L 99.713409 126.44874 
L 98.30965 126.44874 
z
" style="fill:#1f77b4;opacity:0.5;"/>
   </g>
   <g id="patch_29">
    <path clip-path="url(#p569ee56d30)" d="M 100.064349 126.44874 
L 101.468107 126.44874 
L 101.468107 126.44874 
L 100.064349 126.44874 
z
" style="fill:#1f77b4;opacity:0.5;"/>
   </g>
   <g id="patch_30">
    <path clip-path="url(#p569ee56d30)" d="M 101.819047 126.44874 
L 103.222806 126.44874 
L 103.222806 126.330097 
L 101.819047 126.330097 
z
" style="fill:#1f77b4;opacity:0.5;"/>
   </g>
   <g id="patch_31">
    <path clip-path="url(#p569ee56d30)" d="M 103.573746 126.44874 
L 104.977504 126.44874 
L 104.977504 126.44874 
L 103.573746 126.44874 
z
" style="fill:#1f77b4;opacity:0.5;"/>
   </g>
   <g id="patch_32">
    <path clip-path="url(#p569ee56d30)" d="M 105.328444 126.44874 
L 106.732203 126.44874 
L 106.732203 126.211454 
L 105.328444 126.211454 
z
" style="fill:#1f77b4;opacity:0.5;"/>
   </g>
   <g id="patch_33">
    <path clip-path="url(#p569ee56d30)" d="M 107.083143 126.44874 
L 108.486901 126.44874 
L 108.486901 126.152133 
L 107.083143 126.152133 
z
" style="fill:#1f77b4;opacity:0.5;"/>
   </g>
   <g id="patch_34">
    <path clip-path="url(#p569ee56d30)" d="M 108.837841 126.44874 
L 110.2416 126.44874 
L 110.2416 126.389419 
L 108.837841 126.389419 
z
" style="fill:#1f77b4;opacity:0.5;"/>
   </g>
   <g id="patch_35">
    <path clip-path="url(#p569ee56d30)" d="M 110.59254 126.44874 
L 111.996299 126.44874 
L 111.996299 126.152133 
L 110.59254 126.152133 
z
" style="fill:#1f77b4;opacity:0.5;"/>
   </g>
   <g id="patch_36">
    <path clip-path="url(#p569ee56d30)" d="M 112.347238 126.44874 
L 113.750997 126.44874 
L 113.750997 126.211454 
L 112.347238 126.211454 
z
" style="fill:#1f77b4;opacity:0.5;"/>
   </g>
   <g id="patch_37">
    <path clip-path="url(#p569ee56d30)" d="M 114.101937 126.44874 
L 115.505696 126.44874 
L 115.505696 125.974169 
L 114.101937 125.974169 
z
" style="fill:#1f77b4;opacity:0.5;"/>
   </g>
   <g id="patch_38">
    <path clip-path="url(#p569ee56d30)" d="M 115.856635 126.44874 
L 117.260394 126.44874 
L 117.260394 126.092811 
L 115.856635 126.092811 
z
" style="fill:#1f77b4;opacity:0.5;"/>
   </g>
   <g id="patch_39">
    <path clip-path="url(#p569ee56d30)" d="M 117.611334 126.44874 
L 119.015093 126.44874 
L 119.015093 125.440276 
L 117.611334 125.440276 
z
" style="fill:#1f77b4;opacity:0.5;"/>
   </g>
   <g id="patch_40">
    <path clip-path="url(#p569ee56d30)" d="M 119.366032 126.44874 
L 120.769791 126.44874 
L 120.769791 124.78774 
L 119.366032 124.78774 
z
" style="fill:#1f77b4;opacity:0.5;"/>
   </g>
   <g id="patch_41">
    <path clip-path="url(#p569ee56d30)" d="M 121.120731 126.44874 
L 122.52449 126.44874 
L 122.52449 124.847061 
L 121.120731 124.847061 
z
" style="fill:#1f77b4;opacity:0.5;"/>
   </g>
   <g id="patch_42">
    <path clip-path="url(#p569ee56d30)" d="M 122.875429 126.44874 
L 124.279188 126.44874 
L 124.279188 124.016561 
L 122.875429 124.016561 
z
" style="fill:#1f77b4;opacity:0.5;"/>
   </g>
   <g id="patch_43">
    <path clip-path="url(#p569ee56d30)" d="M 124.630128 126.44874 
L 126.033887 126.44874 
L 126.033887 123.541989 
L 124.630128 123.541989 
z
" style="fill:#1f77b4;opacity:0.5;"/>
   </g>
   <g id="patch_44">
    <path clip-path="url(#p569ee56d30)" d="M 126.384826 126.44874 
L 127.788585 126.44874 
L 127.788585 124.313168 
L 126.384826 124.313168 
z
" style="fill:#1f77b4;opacity:0.5;"/>
   </g>
   <g id="patch_45">
    <path clip-path="url(#p569ee56d30)" d="M 128.139525 126.44874 
L 129.543284 126.44874 
L 129.543284 118.558988 
L 128.139525 118.558988 
z
" style="fill:#1f77b4;opacity:0.5;"/>
   </g>
   <g id="patch_46">
    <path clip-path="url(#p569ee56d30)" d="M 129.894223 126.44874 
L 131.297982 126.44874 
L 131.297982 120.635238 
L 129.894223 120.635238 
z
" style="fill:#1f77b4;opacity:0.5;"/>
   </g>
   <g id="patch_47">
    <path clip-path="url(#p569ee56d30)" d="M 131.648922 126.44874 
L 133.052681 126.44874 
L 133.052681 116.542059 
L 131.648922 116.542059 
z
" style="fill:#1f77b4;opacity:0.5;"/>
   </g>
   <g id="patch_48">
    <path clip-path="url(#p569ee56d30)" d="M 133.403621 126.44874 
L 134.807379 126.44874 
L 134.807379 114.821737 
L 133.403621 114.821737 
z
" style="fill:#1f77b4;opacity:0.5;"/>
   </g>
   <g id="patch_49">
    <path clip-path="url(#p569ee56d30)" d="M 135.158319 126.44874 
L 136.562078 126.44874 
L 136.562078 115.236987 
L 135.158319 115.236987 
z
" style="fill:#1f77b4;opacity:0.5;"/>
   </g>
   <g id="patch_50">
    <path clip-path="url(#p569ee56d30)" d="M 136.913018 126.44874 
L 138.316776 126.44874 
L 138.316776 111.499736 
L 136.913018 111.499736 
z
" style="fill:#1f77b4;opacity:0.5;"/>
   </g>
   <g id="patch_51">
    <path clip-path="url(#p569ee56d30)" d="M 138.667716 126.44874 
L 140.071475 126.44874 
L 140.071475 116.18613 
L 138.667716 116.18613 
z
" style="fill:#1f77b4;opacity:0.5;"/>
   </g>
   <g id="patch_52">
    <path clip-path="url(#p569ee56d30)" d="M 140.422415 126.44874 
L 141.826173 126.44874 
L 141.826173 104.499805 
L 140.422415 104.499805 
z
" style="fill:#1f77b4;opacity:0.5;"/>
   </g>
   <g id="patch_53">
    <path clip-path="url(#p569ee56d30)" d="M 142.177113 126.44874 
L 143.580872 126.44874 
L 143.580872 105.864198 
L 142.177113 105.864198 
z
" style="fill:#1f77b4;opacity:0.5;"/>
   </g>
   <g id="patch_54">
    <path clip-path="url(#p569ee56d30)" d="M 143.931812 126.44874 
L 145.335571 126.44874 
L 145.335571 105.864198 
L 143.931812 105.864198 
z
" style="fill:#1f77b4;opacity:0.5;"/>
   </g>
   <g id="patch_55">
    <path clip-path="url(#p569ee56d30)" d="M 145.68651 126.44874 
L 147.090269 126.44874 
L 147.090269 98.389696 
L 145.68651 98.389696 
z
" style="fill:#1f77b4;opacity:0.5;"/>
   </g>
   <g id="patch_56">
    <path clip-path="url(#p569ee56d30)" d="M 147.441209 126.44874 
L 148.844968 126.44874 
L 148.844968 100.99984 
L 147.441209 100.99984 
z
" style="fill:#1f77b4;opacity:0.5;"/>
   </g>
   <g id="patch_57">
    <path clip-path="url(#p569ee56d30)" d="M 149.195907 126.44874 
L 150.599666 126.44874 
L 150.599666 89.372836 
L 149.195907 89.372836 
z
" style="fill:#1f77b4;opacity:0.5;"/>
   </g>
   <g id="patch_58">
    <path clip-path="url(#p569ee56d30)" d="M 150.950606 126.44874 
L 152.354365 126.44874 
L 152.354365 79.28819 
L 150.950606 79.28819 
z
" style="fill:#1f77b4;opacity:0.5;"/>
   </g>
   <g id="patch_59">
    <path clip-path="url(#p569ee56d30)" d="M 152.705304 126.44874 
L 154.109063 126.44874 
L 154.109063 87.949122 
L 152.705304 87.949122 
z
" style="fill:#1f77b4;opacity:0.5;"/>
   </g>
   <g id="patch_60">
    <path clip-path="url(#p569ee56d30)" d="M 154.460003 126.44874 
L 155.863762 126.44874 
L 155.863762 90.796551 
L 154.460003 90.796551 
z
" style="fill:#1f77b4;opacity:0.5;"/>
   </g>
   <g id="patch_61">
    <path clip-path="url(#p569ee56d30)" d="M 156.214701 126.44874 
L 157.61846 126.44874 
L 157.61846 82.372906 
L 156.214701 82.372906 
z
" style="fill:#1f77b4;opacity:0.5;"/>
   </g>
   <g id="patch_62">
    <path clip-path="url(#p569ee56d30)" d="M 157.9694 126.44874 
L 159.373159 126.44874 
L 159.373159 85.81355 
L 157.9694 85.81355 
z
" style="fill:#1f77b4;opacity:0.5;"/>
   </g>
   <g id="patch_63">
    <path clip-path="url(#p569ee56d30)" d="M 159.724098 126.44874 
L 161.127857 126.44874 
L 161.127857 87.296586 
L 159.724098 87.296586 
z
" style="fill:#1f77b4;opacity:0.5;"/>
   </g>
   <g id="patch_64">
    <path clip-path="url(#p569ee56d30)" d="M 161.478797 126.44874 
L 162.882556 126.44874 
L 162.882556 68.847616 
L 161.478797 68.847616 
z
" style="fill:#1f77b4;opacity:0.5;"/>
   </g>
   <g id="patch_65">
    <path clip-path="url(#p569ee56d30)" d="M 163.233496 126.44874 
L 164.637254 126.44874 
L 164.637254 73.830617 
L 163.233496 73.830617 
z
" style="fill:#1f77b4;opacity:0.5;"/>
   </g>
   <g id="patch_66">
    <path clip-path="url(#p569ee56d30)" d="M 164.988194 126.44874 
L 166.391953 126.44874 
L 166.391953 81.483084 
L 164.988194 81.483084 
z
" style="fill:#1f77b4;opacity:0.5;"/>
   </g>
   <g id="patch_67">
    <path clip-path="url(#p569ee56d30)" d="M 166.742893 126.44874 
L 168.146651 126.44874 
L 168.146651 78.398369 
L 166.742893 78.398369 
z
" style="fill:#1f77b4;opacity:0.5;"/>
   </g>
   <g id="patch_68">
    <path clip-path="url(#p569ee56d30)" d="M 168.497591 126.44874 
L 169.90135 126.44874 
L 169.90135 76.678047 
L 168.497591 76.678047 
z
" style="fill:#1f77b4;opacity:0.5;"/>
   </g>
   <g id="patch_69">
    <path clip-path="url(#p569ee56d30)" d="M 170.25229 126.44874 
L 171.656048 126.44874 
L 171.656048 83.322049 
L 170.25229 83.322049 
z
" style="fill:#1f77b4;opacity:0.5;"/>
   </g>
   <g id="patch_70">
    <path clip-path="url(#p569ee56d30)" d="M 172.006988 126.44874 
L 173.410747 126.44874 
L 173.410747 81.364441 
L 172.006988 81.364441 
z
" style="fill:#1f77b4;opacity:0.5;"/>
   </g>
   <g id="patch_71">
    <path clip-path="url(#p569ee56d30)" d="M 173.761687 126.44874 
L 175.165445 126.44874 
L 175.165445 81.127155 
L 173.761687 81.127155 
z
" style="fill:#1f77b4;opacity:0.5;"/>
   </g>
   <g id="patch_72">
    <path clip-path="url(#p569ee56d30)" d="M 175.516385 126.44874 
L 176.920144 126.44874 
L 176.920144 86.050835 
L 175.516385 86.050835 
z
" style="fill:#1f77b4;opacity:0.5;"/>
   </g>
   <g id="patch_73">
    <path clip-path="url(#p569ee56d30)" d="M 177.271084 126.44874 
L 178.674843 126.44874 
L 178.674843 95.186338 
L 177.271084 95.186338 
z
" style="fill:#1f77b4;opacity:0.5;"/>
   </g>
   <g id="patch_74">
    <path clip-path="url(#p569ee56d30)" d="M 179.025782 126.44874 
L 180.429541 126.44874 
L 180.429541 88.7203 
L 179.025782 88.7203 
z
" style="fill:#1f77b4;opacity:0.5;"/>
   </g>
   <g id="patch_75">
    <path clip-path="url(#p569ee56d30)" d="M 180.780481 126.44874 
L 182.18424 126.44874 
L 182.18424 90.618587 
L 180.780481 90.618587 
z
" style="fill:#1f77b4;opacity:0.5;"/>
   </g>
   <g id="patch_76">
    <path clip-path="url(#p569ee56d30)" d="M 182.535179 126.44874 
L 183.938938 126.44874 
L 183.938938 94.415159 
L 182.535179 94.415159 
z
" style="fill:#1f77b4;opacity:0.5;"/>
   </g>
   <g id="patch_77">
    <path clip-path="url(#p569ee56d30)" d="M 184.289878 126.44874 
L 185.693637 126.44874 
L 185.693637 90.144015 
L 184.289878 90.144015 
z
" style="fill:#1f77b4;opacity:0.5;"/>
   </g>
   <g id="patch_78">
    <path clip-path="url(#p569ee56d30)" d="M 186.044576 126.44874 
L 187.448335 126.44874 
L 187.448335 92.635516 
L 186.044576 92.635516 
z
" style="fill:#1f77b4;opacity:0.5;"/>
   </g>
   <g id="patch_79">
    <path clip-path="url(#p569ee56d30)" d="M 187.799275 126.44874 
L 189.203034 126.44874 
L 189.203034 89.728765 
L 187.799275 89.728765 
z
" style="fill:#1f77b4;opacity:0.5;"/>
   </g>
   <g id="patch_80">
    <path clip-path="url(#p569ee56d30)" d="M 189.553973 126.44874 
L 190.957732 126.44874 
L 190.957732 100.881197 
L 189.553973 100.881197 
z
" style="fill:#1f77b4;opacity:0.5;"/>
   </g>
   <g id="patch_81">
    <path clip-path="url(#p569ee56d30)" d="M 191.308672 126.44874 
L 192.712431 126.44874 
L 192.712431 92.991445 
L 191.308672 92.991445 
z
" style="fill:#1f77b4;opacity:0.5;"/>
   </g>
   <g id="patch_82">
    <path clip-path="url(#p569ee56d30)" d="M 193.06337 126.44874 
L 194.467129 126.44874 
L 194.467129 90.618587 
L 193.06337 90.618587 
z
" style="fill:#1f77b4;opacity:0.5;"/>
   </g>
   <g id="patch_83">
    <path clip-path="url(#p569ee56d30)" d="M 194.818069 126.44874 
L 196.221828 126.44874 
L 196.221828 92.160944 
L 194.818069 92.160944 
z
" style="fill:#1f77b4;opacity:0.5;"/>
   </g>
   <g id="patch_84">
    <path clip-path="url(#p569ee56d30)" d="M 196.572768 126.44874 
L 197.976526 126.44874 
L 197.976526 95.304981 
L 196.572768 95.304981 
z
" style="fill:#1f77b4;opacity:0.5;"/>
   </g>
   <g id="patch_85">
    <path clip-path="url(#p569ee56d30)" d="M 198.327466 126.44874 
L 199.731225 126.44874 
L 199.731225 92.338909 
L 198.327466 92.338909 
z
" style="fill:#1f77b4;opacity:0.5;"/>
   </g>
   <g id="patch_86">
    <path clip-path="url(#p569ee56d30)" d="M 200.082165 126.44874 
L 201.485923 126.44874 
L 201.485923 97.974446 
L 200.082165 97.974446 
z
" style="fill:#1f77b4;opacity:0.5;"/>
   </g>
   <g id="matplotlib.axis_1">
    <g id="xtick_1">
     <g id="line2d_1">
      <defs>
       <path d="M 0 0 
L 0 3.5 
" id="mce4feacb02" style="stroke:#000000;stroke-width:0.8;"/>
      </defs>
      <g>
       <use style="stroke:#000000;stroke-width:0.8;" x="200.784044" xlink:href="#mce4feacb02" y="126.44874"/>
      </g>
     </g>
     <g id="text_1">
      <!-- 19 Apr -->
      <defs>
       <path d="M 12.40625 8.296875 
L 28.515625 8.296875 
L 28.515625 63.921875 
L 10.984375 60.40625 
L 10.984375 69.390625 
L 28.421875 72.90625 
L 38.28125 72.90625 
L 38.28125 8.296875 
L 54.390625 8.296875 
L 54.390625 0 
L 12.40625 0 
z
" id="DejaVuSans-49"/>
       <path d="M 10.984375 1.515625 
L 10.984375 10.5 
Q 14.703125 8.734375 18.5 7.8125 
Q 22.3125 6.890625 25.984375 6.890625 
Q 35.75 6.890625 40.890625 13.453125 
Q 46.046875 20.015625 46.78125 33.40625 
Q 43.953125 29.203125 39.59375 26.953125 
Q 35.25 24.703125 29.984375 24.703125 
Q 19.046875 24.703125 12.671875 31.3125 
Q 6.296875 37.9375 6.296875 49.421875 
Q 6.296875 60.640625 12.9375 67.421875 
Q 19.578125 74.21875 30.609375 74.21875 
Q 43.265625 74.21875 49.921875 64.515625 
Q 56.59375 54.828125 56.59375 36.375 
Q 56.59375 19.140625 48.40625 8.859375 
Q 40.234375 -1.421875 26.421875 -1.421875 
Q 22.703125 -1.421875 18.890625 -0.6875 
Q 15.09375 0.046875 10.984375 1.515625 
z
M 30.609375 32.421875 
Q 37.25 32.421875 41.125 36.953125 
Q 45.015625 41.5 45.015625 49.421875 
Q 45.015625 57.28125 41.125 61.84375 
Q 37.25 66.40625 30.609375 66.40625 
Q 23.96875 66.40625 20.09375 61.84375 
Q 16.21875 57.28125 16.21875 49.421875 
Q 16.21875 41.5 20.09375 36.953125 
Q 23.96875 32.421875 30.609375 32.421875 
z
" id="DejaVuSans-57"/>
       <path id="DejaVuSans-32"/>
       <path d="M 34.1875 63.1875 
L 20.796875 26.90625 
L 47.609375 26.90625 
z
M 28.609375 72.90625 
L 39.796875 72.90625 
L 67.578125 0 
L 57.328125 0 
L 50.6875 18.703125 
L 17.828125 18.703125 
L 11.1875 0 
L 0.78125 0 
z
" id="DejaVuSans-65"/>
       <path d="M 18.109375 8.203125 
L 18.109375 -20.796875 
L 9.078125 -20.796875 
L 9.078125 54.6875 
L 18.109375 54.6875 
L 18.109375 46.390625 
Q 20.953125 51.265625 25.265625 53.625 
Q 29.59375 56 35.59375 56 
Q 45.5625 56 51.78125 48.09375 
Q 58.015625 40.1875 58.015625 27.296875 
Q 58.015625 14.40625 51.78125 6.484375 
Q 45.5625 -1.421875 35.59375 -1.421875 
Q 29.59375 -1.421875 25.265625 0.953125 
Q 20.953125 3.328125 18.109375 8.203125 
z
M 48.6875 27.296875 
Q 48.6875 37.203125 44.609375 42.84375 
Q 40.53125 48.484375 33.40625 48.484375 
Q 26.265625 48.484375 22.1875 42.84375 
Q 18.109375 37.203125 18.109375 27.296875 
Q 18.109375 17.390625 22.1875 11.75 
Q 26.265625 6.109375 33.40625 6.109375 
Q 40.53125 6.109375 44.609375 11.75 
Q 48.6875 17.390625 48.6875 27.296875 
z
" id="DejaVuSans-112"/>
       <path d="M 41.109375 46.296875 
Q 39.59375 47.171875 37.8125 47.578125 
Q 36.03125 48 33.890625 48 
Q 26.265625 48 22.1875 43.046875 
Q 18.109375 38.09375 18.109375 28.8125 
L 18.109375 0 
L 9.078125 0 
L 9.078125 54.6875 
L 18.109375 54.6875 
L 18.109375 46.1875 
Q 20.953125 51.171875 25.484375 53.578125 
Q 30.03125 56 36.53125 56 
Q 37.453125 56 38.578125 55.875 
Q 39.703125 55.765625 41.0625 55.515625 
z
" id="DejaVuSans-114"/>
      </defs>
      <g transform="translate(202.991544 160.01124)rotate(-90)scale(0.08 -0.08)">
       <use xlink:href="#DejaVuSans-49"/>
       <use x="63.623047" xlink:href="#DejaVuSans-57"/>
       <use x="127.246094" xlink:href="#DejaVuSans-32"/>
       <use x="159.033203" xlink:href="#DejaVuSans-65"/>
       <use x="227.441406" xlink:href="#DejaVuSans-112"/>
       <use x="290.917969" xlink:href="#DejaVuSans-114"/>
      </g>
     </g>
    </g>
    <g id="xtick_2">
     <g id="line2d_2">
      <g>
       <use style="stroke:#000000;stroke-width:0.8;" x="188.501154" xlink:href="#mce4feacb02" y="126.44874"/>
      </g>
     </g>
     <g id="text_2">
      <!-- 12 Apr -->
      <defs>
       <path d="M 19.1875 8.296875 
L 53.609375 8.296875 
L 53.609375 0 
L 7.328125 0 
L 7.328125 8.296875 
Q 12.9375 14.109375 22.625 23.890625 
Q 32.328125 33.6875 34.8125 36.53125 
Q 39.546875 41.84375 41.421875 45.53125 
Q 43.3125 49.21875 43.3125 52.78125 
Q 43.3125 58.59375 39.234375 62.25 
Q 35.15625 65.921875 28.609375 65.921875 
Q 23.96875 65.921875 18.8125 64.3125 
Q 13.671875 62.703125 7.8125 59.421875 
L 7.8125 69.390625 
Q 13.765625 71.78125 18.9375 73 
Q 24.125 74.21875 28.421875 74.21875 
Q 39.75 74.21875 46.484375 68.546875 
Q 53.21875 62.890625 53.21875 53.421875 
Q 53.21875 48.921875 51.53125 44.890625 
Q 49.859375 40.875 45.40625 35.40625 
Q 44.1875 33.984375 37.640625 27.21875 
Q 31.109375 20.453125 19.1875 8.296875 
z
" id="DejaVuSans-50"/>
      </defs>
      <g transform="translate(190.708654 160.01124)rotate(-90)scale(0.08 -0.08)">
       <use xlink:href="#DejaVuSans-49"/>
       <use x="63.623047" xlink:href="#DejaVuSans-50"/>
       <use x="127.246094" xlink:href="#DejaVuSans-32"/>
       <use x="159.033203" xlink:href="#DejaVuSans-65"/>
       <use x="227.441406" xlink:href="#DejaVuSans-112"/>
       <use x="290.917969" xlink:href="#DejaVuSans-114"/>
      </g>
     </g>
    </g>
    <g id="xtick_3">
     <g id="line2d_3">
      <g>
       <use style="stroke:#000000;stroke-width:0.8;" x="176.218265" xlink:href="#mce4feacb02" y="126.44874"/>
      </g>
     </g>
     <g id="text_3">
      <!-- 5 Apr -->
      <defs>
       <path d="M 10.796875 72.90625 
L 49.515625 72.90625 
L 49.515625 64.59375 
L 19.828125 64.59375 
L 19.828125 46.734375 
Q 21.96875 47.46875 24.109375 47.828125 
Q 26.265625 48.1875 28.421875 48.1875 
Q 40.625 48.1875 47.75 41.5 
Q 54.890625 34.8125 54.890625 23.390625 
Q 54.890625 11.625 47.5625 5.09375 
Q 40.234375 -1.421875 26.90625 -1.421875 
Q 22.3125 -1.421875 17.546875 -0.640625 
Q 12.796875 0.140625 7.71875 1.703125 
L 7.71875 11.625 
Q 12.109375 9.234375 16.796875 8.0625 
Q 21.484375 6.890625 26.703125 6.890625 
Q 35.15625 6.890625 40.078125 11.328125 
Q 45.015625 15.765625 45.015625 23.390625 
Q 45.015625 31 40.078125 35.4375 
Q 35.15625 39.890625 26.703125 39.890625 
Q 22.75 39.890625 18.8125 39.015625 
Q 14.890625 38.140625 10.796875 36.28125 
z
" id="DejaVuSans-53"/>
      </defs>
      <g transform="translate(178.425765 154.92124)rotate(-90)scale(0.08 -0.08)">
       <use xlink:href="#DejaVuSans-53"/>
       <use x="63.623047" xlink:href="#DejaVuSans-32"/>
       <use x="95.410156" xlink:href="#DejaVuSans-65"/>
       <use x="163.818359" xlink:href="#DejaVuSans-112"/>
       <use x="227.294922" xlink:href="#DejaVuSans-114"/>
      </g>
     </g>
    </g>
    <g id="xtick_4">
     <g id="line2d_4">
      <g>
       <use style="stroke:#000000;stroke-width:0.8;" x="163.935375" xlink:href="#mce4feacb02" y="126.44874"/>
      </g>
     </g>
     <g id="text_4">
      <!-- 29 Mar -->
      <defs>
       <path d="M 9.8125 72.90625 
L 24.515625 72.90625 
L 43.109375 23.296875 
L 61.8125 72.90625 
L 76.515625 72.90625 
L 76.515625 0 
L 66.890625 0 
L 66.890625 64.015625 
L 48.09375 14.015625 
L 38.1875 14.015625 
L 19.390625 64.015625 
L 19.390625 0 
L 9.8125 0 
z
" id="DejaVuSans-77"/>
       <path d="M 34.28125 27.484375 
Q 23.390625 27.484375 19.1875 25 
Q 14.984375 22.515625 14.984375 16.5 
Q 14.984375 11.71875 18.140625 8.90625 
Q 21.296875 6.109375 26.703125 6.109375 
Q 34.1875 6.109375 38.703125 11.40625 
Q 43.21875 16.703125 43.21875 25.484375 
L 43.21875 27.484375 
z
M 52.203125 31.203125 
L 52.203125 0 
L 43.21875 0 
L 43.21875 8.296875 
Q 40.140625 3.328125 35.546875 0.953125 
Q 30.953125 -1.421875 24.3125 -1.421875 
Q 15.921875 -1.421875 10.953125 3.296875 
Q 6 8.015625 6 15.921875 
Q 6 25.140625 12.171875 29.828125 
Q 18.359375 34.515625 30.609375 34.515625 
L 43.21875 34.515625 
L 43.21875 35.40625 
Q 43.21875 41.609375 39.140625 45 
Q 35.0625 48.390625 27.6875 48.390625 
Q 23 48.390625 18.546875 47.265625 
Q 14.109375 46.140625 10.015625 43.890625 
L 10.015625 52.203125 
Q 14.9375 54.109375 19.578125 55.046875 
Q 24.21875 56 28.609375 56 
Q 40.484375 56 46.34375 49.84375 
Q 52.203125 43.703125 52.203125 31.203125 
z
" id="DejaVuSans-97"/>
      </defs>
      <g transform="translate(166.142875 161.26499)rotate(-90)scale(0.08 -0.08)">
       <use xlink:href="#DejaVuSans-50"/>
       <use x="63.623047" xlink:href="#DejaVuSans-57"/>
       <use x="127.246094" xlink:href="#DejaVuSans-32"/>
       <use x="159.033203" xlink:href="#DejaVuSans-77"/>
       <use x="245.3125" xlink:href="#DejaVuSans-97"/>
       <use x="306.591797" xlink:href="#DejaVuSans-114"/>
      </g>
     </g>
    </g>
    <g id="xtick_5">
     <g id="line2d_5">
      <g>
       <use style="stroke:#000000;stroke-width:0.8;" x="151.652485" xlink:href="#mce4feacb02" y="126.44874"/>
      </g>
     </g>
     <g id="text_5">
      <!-- 22 Mar -->
      <g transform="translate(153.859985 161.26499)rotate(-90)scale(0.08 -0.08)">
       <use xlink:href="#DejaVuSans-50"/>
       <use x="63.623047" xlink:href="#DejaVuSans-50"/>
       <use x="127.246094" xlink:href="#DejaVuSans-32"/>
       <use x="159.033203" xlink:href="#DejaVuSans-77"/>
       <use x="245.3125" xlink:href="#DejaVuSans-97"/>
       <use x="306.591797" xlink:href="#DejaVuSans-114"/>
      </g>
     </g>
    </g>
    <g id="xtick_6">
     <g id="line2d_6">
      <g>
       <use style="stroke:#000000;stroke-width:0.8;" x="139.369596" xlink:href="#mce4feacb02" y="126.44874"/>
      </g>
     </g>
     <g id="text_6">
      <!-- 15 Mar -->
      <g transform="translate(141.577096 161.26499)rotate(-90)scale(0.08 -0.08)">
       <use xlink:href="#DejaVuSans-49"/>
       <use x="63.623047" xlink:href="#DejaVuSans-53"/>
       <use x="127.246094" xlink:href="#DejaVuSans-32"/>
       <use x="159.033203" xlink:href="#DejaVuSans-77"/>
       <use x="245.3125" xlink:href="#DejaVuSans-97"/>
       <use x="306.591797" xlink:href="#DejaVuSans-114"/>
      </g>
     </g>
    </g>
    <g id="xtick_7">
     <g id="line2d_7">
      <g>
       <use style="stroke:#000000;stroke-width:0.8;" x="127.086706" xlink:href="#mce4feacb02" y="126.44874"/>
      </g>
     </g>
     <g id="text_7">
      <!-- 8 Mar -->
      <defs>
       <path d="M 31.78125 34.625 
Q 24.75 34.625 20.71875 30.859375 
Q 16.703125 27.09375 16.703125 20.515625 
Q 16.703125 13.921875 20.71875 10.15625 
Q 24.75 6.390625 31.78125 6.390625 
Q 38.8125 6.390625 42.859375 10.171875 
Q 46.921875 13.96875 46.921875 20.515625 
Q 46.921875 27.09375 42.890625 30.859375 
Q 38.875 34.625 31.78125 34.625 
z
M 21.921875 38.8125 
Q 15.578125 40.375 12.03125 44.71875 
Q 8.5 49.078125 8.5 55.328125 
Q 8.5 64.0625 14.71875 69.140625 
Q 20.953125 74.21875 31.78125 74.21875 
Q 42.671875 74.21875 48.875 69.140625 
Q 55.078125 64.0625 55.078125 55.328125 
Q 55.078125 49.078125 51.53125 44.71875 
Q 48 40.375 41.703125 38.8125 
Q 48.828125 37.15625 52.796875 32.3125 
Q 56.78125 27.484375 56.78125 20.515625 
Q 56.78125 9.90625 50.3125 4.234375 
Q 43.84375 -1.421875 31.78125 -1.421875 
Q 19.734375 -1.421875 13.25 4.234375 
Q 6.78125 9.90625 6.78125 20.515625 
Q 6.78125 27.484375 10.78125 32.3125 
Q 14.796875 37.15625 21.921875 38.8125 
z
M 18.3125 54.390625 
Q 18.3125 48.734375 21.84375 45.5625 
Q 25.390625 42.390625 31.78125 42.390625 
Q 38.140625 42.390625 41.71875 45.5625 
Q 45.3125 48.734375 45.3125 54.390625 
Q 45.3125 60.0625 41.71875 63.234375 
Q 38.140625 66.40625 31.78125 66.40625 
Q 25.390625 66.40625 21.84375 63.234375 
Q 18.3125 60.0625 18.3125 54.390625 
z
" id="DejaVuSans-56"/>
      </defs>
      <g transform="translate(129.294206 156.17499)rotate(-90)scale(0.08 -0.08)">
       <use xlink:href="#DejaVuSans-56"/>
       <use x="63.623047" xlink:href="#DejaVuSans-32"/>
       <use x="95.410156" xlink:href="#DejaVuSans-77"/>
       <use x="181.689453" xlink:href="#DejaVuSans-97"/>
       <use x="242.96875" xlink:href="#DejaVuSans-114"/>
      </g>
     </g>
    </g>
    <g id="xtick_8">
     <g id="line2d_8">
      <g>
       <use style="stroke:#000000;stroke-width:0.8;" x="114.803816" xlink:href="#mce4feacb02" y="126.44874"/>
      </g>
     </g>
     <g id="text_8">
      <!-- 1 Mar -->
      <g transform="translate(117.011316 156.17499)rotate(-90)scale(0.08 -0.08)">
       <use xlink:href="#DejaVuSans-49"/>
       <use x="63.623047" xlink:href="#DejaVuSans-32"/>
       <use x="95.410156" xlink:href="#DejaVuSans-77"/>
       <use x="181.689453" xlink:href="#DejaVuSans-97"/>
       <use x="242.96875" xlink:href="#DejaVuSans-114"/>
      </g>
     </g>
    </g>
    <g id="xtick_9">
     <g id="line2d_9">
      <g>
       <use style="stroke:#000000;stroke-width:0.8;" x="102.520926" xlink:href="#mce4feacb02" y="126.44874"/>
      </g>
     </g>
     <g id="text_9">
      <!-- 23 Feb -->
      <defs>
       <path d="M 40.578125 39.3125 
Q 47.65625 37.796875 51.625 33 
Q 55.609375 28.21875 55.609375 21.1875 
Q 55.609375 10.40625 48.1875 4.484375 
Q 40.765625 -1.421875 27.09375 -1.421875 
Q 22.515625 -1.421875 17.65625 -0.515625 
Q 12.796875 0.390625 7.625 2.203125 
L 7.625 11.71875 
Q 11.71875 9.328125 16.59375 8.109375 
Q 21.484375 6.890625 26.8125 6.890625 
Q 36.078125 6.890625 40.9375 10.546875 
Q 45.796875 14.203125 45.796875 21.1875 
Q 45.796875 27.640625 41.28125 31.265625 
Q 36.765625 34.90625 28.71875 34.90625 
L 20.21875 34.90625 
L 20.21875 43.015625 
L 29.109375 43.015625 
Q 36.375 43.015625 40.234375 45.921875 
Q 44.09375 48.828125 44.09375 54.296875 
Q 44.09375 59.90625 40.109375 62.90625 
Q 36.140625 65.921875 28.71875 65.921875 
Q 24.65625 65.921875 20.015625 65.03125 
Q 15.375 64.15625 9.8125 62.3125 
L 9.8125 71.09375 
Q 15.4375 72.65625 20.34375 73.4375 
Q 25.25 74.21875 29.59375 74.21875 
Q 40.828125 74.21875 47.359375 69.109375 
Q 53.90625 64.015625 53.90625 55.328125 
Q 53.90625 49.265625 50.4375 45.09375 
Q 46.96875 40.921875 40.578125 39.3125 
z
" id="DejaVuSans-51"/>
       <path d="M 9.8125 72.90625 
L 51.703125 72.90625 
L 51.703125 64.59375 
L 19.671875 64.59375 
L 19.671875 43.109375 
L 48.578125 43.109375 
L 48.578125 34.8125 
L 19.671875 34.8125 
L 19.671875 0 
L 9.8125 0 
z
" id="DejaVuSans-70"/>
       <path d="M 56.203125 29.59375 
L 56.203125 25.203125 
L 14.890625 25.203125 
Q 15.484375 15.921875 20.484375 11.0625 
Q 25.484375 6.203125 34.421875 6.203125 
Q 39.59375 6.203125 44.453125 7.46875 
Q 49.3125 8.734375 54.109375 11.28125 
L 54.109375 2.78125 
Q 49.265625 0.734375 44.1875 -0.34375 
Q 39.109375 -1.421875 33.890625 -1.421875 
Q 20.796875 -1.421875 13.15625 6.1875 
Q 5.515625 13.8125 5.515625 26.8125 
Q 5.515625 40.234375 12.765625 48.109375 
Q 20.015625 56 32.328125 56 
Q 43.359375 56 49.78125 48.890625 
Q 56.203125 41.796875 56.203125 29.59375 
z
M 47.21875 32.234375 
Q 47.125 39.59375 43.09375 43.984375 
Q 39.0625 48.390625 32.421875 48.390625 
Q 24.90625 48.390625 20.390625 44.140625 
Q 15.875 39.890625 15.1875 32.171875 
z
" id="DejaVuSans-101"/>
       <path d="M 48.6875 27.296875 
Q 48.6875 37.203125 44.609375 42.84375 
Q 40.53125 48.484375 33.40625 48.484375 
Q 26.265625 48.484375 22.1875 42.84375 
Q 18.109375 37.203125 18.109375 27.296875 
Q 18.109375 17.390625 22.1875 11.75 
Q 26.265625 6.109375 33.40625 6.109375 
Q 40.53125 6.109375 44.609375 11.75 
Q 48.6875 17.390625 48.6875 27.296875 
z
M 18.109375 46.390625 
Q 20.953125 51.265625 25.265625 53.625 
Q 29.59375 56 35.59375 56 
Q 45.5625 56 51.78125 48.09375 
Q 58.015625 40.1875 58.015625 27.296875 
Q 58.015625 14.40625 51.78125 6.484375 
Q 45.5625 -1.421875 35.59375 -1.421875 
Q 29.59375 -1.421875 25.265625 0.953125 
Q 20.953125 3.328125 18.109375 8.203125 
L 18.109375 0 
L 9.078125 0 
L 9.078125 75.984375 
L 18.109375 75.984375 
z
" id="DejaVuSans-98"/>
      </defs>
      <g transform="translate(104.728426 160.33374)rotate(-90)scale(0.08 -0.08)">
       <use xlink:href="#DejaVuSans-50"/>
       <use x="63.623047" xlink:href="#DejaVuSans-51"/>
       <use x="127.246094" xlink:href="#DejaVuSans-32"/>
       <use x="159.033203" xlink:href="#DejaVuSans-70"/>
       <use x="211.052734" xlink:href="#DejaVuSans-101"/>
       <use x="272.576172" xlink:href="#DejaVuSans-98"/>
      </g>
     </g>
    </g>
    <g id="xtick_10">
     <g id="line2d_10">
      <g>
       <use style="stroke:#000000;stroke-width:0.8;" x="90.238037" xlink:href="#mce4feacb02" y="126.44874"/>
      </g>
     </g>
     <g id="text_10">
      <!-- 16 Feb -->
      <defs>
       <path d="M 33.015625 40.375 
Q 26.375 40.375 22.484375 35.828125 
Q 18.609375 31.296875 18.609375 23.390625 
Q 18.609375 15.53125 22.484375 10.953125 
Q 26.375 6.390625 33.015625 6.390625 
Q 39.65625 6.390625 43.53125 10.953125 
Q 47.40625 15.53125 47.40625 23.390625 
Q 47.40625 31.296875 43.53125 35.828125 
Q 39.65625 40.375 33.015625 40.375 
z
M 52.59375 71.296875 
L 52.59375 62.3125 
Q 48.875 64.0625 45.09375 64.984375 
Q 41.3125 65.921875 37.59375 65.921875 
Q 27.828125 65.921875 22.671875 59.328125 
Q 17.53125 52.734375 16.796875 39.40625 
Q 19.671875 43.65625 24.015625 45.921875 
Q 28.375 48.1875 33.59375 48.1875 
Q 44.578125 48.1875 50.953125 41.515625 
Q 57.328125 34.859375 57.328125 23.390625 
Q 57.328125 12.15625 50.6875 5.359375 
Q 44.046875 -1.421875 33.015625 -1.421875 
Q 20.359375 -1.421875 13.671875 8.265625 
Q 6.984375 17.96875 6.984375 36.375 
Q 6.984375 53.65625 15.1875 63.9375 
Q 23.390625 74.21875 37.203125 74.21875 
Q 40.921875 74.21875 44.703125 73.484375 
Q 48.484375 72.75 52.59375 71.296875 
z
" id="DejaVuSans-54"/>
      </defs>
      <g transform="translate(92.445537 160.33374)rotate(-90)scale(0.08 -0.08)">
       <use xlink:href="#DejaVuSans-49"/>
       <use x="63.623047" xlink:href="#DejaVuSans-54"/>
       <use x="127.246094" xlink:href="#DejaVuSans-32"/>
       <use x="159.033203" xlink:href="#DejaVuSans-70"/>
       <use x="211.052734" xlink:href="#DejaVuSans-101"/>
       <use x="272.576172" xlink:href="#DejaVuSans-98"/>
      </g>
     </g>
    </g>
    <g id="xtick_11">
     <g id="line2d_11">
      <g>
       <use style="stroke:#000000;stroke-width:0.8;" x="77.955147" xlink:href="#mce4feacb02" y="126.44874"/>
      </g>
     </g>
     <g id="text_11">
      <!-- 9 Feb -->
      <g transform="translate(80.162647 155.24374)rotate(-90)scale(0.08 -0.08)">
       <use xlink:href="#DejaVuSans-57"/>
       <use x="63.623047" xlink:href="#DejaVuSans-32"/>
       <use x="95.410156" xlink:href="#DejaVuSans-70"/>
       <use x="147.429688" xlink:href="#DejaVuSans-101"/>
       <use x="208.953125" xlink:href="#DejaVuSans-98"/>
      </g>
     </g>
    </g>
    <g id="xtick_12">
     <g id="line2d_12">
      <g>
       <use style="stroke:#000000;stroke-width:0.8;" x="65.672257" xlink:href="#mce4feacb02" y="126.44874"/>
      </g>
     </g>
     <g id="text_12">
      <!-- 2 Feb -->
      <g transform="translate(67.879757 155.24374)rotate(-90)scale(0.08 -0.08)">
       <use xlink:href="#DejaVuSans-50"/>
       <use x="63.623047" xlink:href="#DejaVuSans-32"/>
       <use x="95.410156" xlink:href="#DejaVuSans-70"/>
       <use x="147.429688" xlink:href="#DejaVuSans-101"/>
       <use x="208.953125" xlink:href="#DejaVuSans-98"/>
      </g>
     </g>
    </g>
   </g>
   <g id="matplotlib.axis_2">
    <g id="ytick_1">
     <g id="line2d_13">
      <defs>
       <path d="M 0 0 
L -3.5 0 
" id="mf10eb31144" style="stroke:#000000;stroke-width:0.8;"/>
      </defs>
      <g>
       <use style="stroke:#000000;stroke-width:0.8;" x="47.09" xlink:href="#mf10eb31144" y="126.44874"/>
      </g>
     </g>
     <g id="text_13">
      <!-- 0 -->
      <defs>
       <path d="M 31.78125 66.40625 
Q 24.171875 66.40625 20.328125 58.90625 
Q 16.5 51.421875 16.5 36.375 
Q 16.5 21.390625 20.328125 13.890625 
Q 24.171875 6.390625 31.78125 6.390625 
Q 39.453125 6.390625 43.28125 13.890625 
Q 47.125 21.390625 47.125 36.375 
Q 47.125 51.421875 43.28125 58.90625 
Q 39.453125 66.40625 31.78125 66.40625 
z
M 31.78125 74.21875 
Q 44.046875 74.21875 50.515625 64.515625 
Q 56.984375 54.828125 56.984375 36.375 
Q 56.984375 17.96875 50.515625 8.265625 
Q 44.046875 -1.421875 31.78125 -1.421875 
Q 19.53125 -1.421875 13.0625 8.265625 
Q 6.59375 17.96875 6.59375 36.375 
Q 6.59375 54.828125 13.0625 64.515625 
Q 19.53125 74.21875 31.78125 74.21875 
z
" id="DejaVuSans-48"/>
      </defs>
      <g transform="translate(35 129.488115)scale(0.08 -0.08)">
       <use xlink:href="#DejaVuSans-48"/>
      </g>
     </g>
    </g>
    <g id="ytick_2">
     <g id="line2d_14">
      <g>
       <use style="stroke:#000000;stroke-width:0.8;" x="47.09" xlink:href="#mf10eb31144" y="96.788017"/>
      </g>
     </g>
     <g id="text_14">
      <!-- 500 -->
      <g transform="translate(24.82 99.827392)scale(0.08 -0.08)">
       <use xlink:href="#DejaVuSans-53"/>
       <use x="63.623047" xlink:href="#DejaVuSans-48"/>
       <use x="127.246094" xlink:href="#DejaVuSans-48"/>
      </g>
     </g>
    </g>
    <g id="ytick_3">
     <g id="line2d_15">
      <g>
       <use style="stroke:#000000;stroke-width:0.8;" x="47.09" xlink:href="#mf10eb31144" y="67.127294"/>
      </g>
     </g>
     <g id="text_15">
      <!-- 1000 -->
      <g transform="translate(19.73 70.166669)scale(0.08 -0.08)">
       <use xlink:href="#DejaVuSans-49"/>
       <use x="63.623047" xlink:href="#DejaVuSans-48"/>
       <use x="127.246094" xlink:href="#DejaVuSans-48"/>
       <use x="190.869141" xlink:href="#DejaVuSans-48"/>
      </g>
     </g>
    </g>
    <g id="ytick_4">
     <g id="line2d_16">
      <g>
       <use style="stroke:#000000;stroke-width:0.8;" x="47.09" xlink:href="#mf10eb31144" y="37.466571"/>
      </g>
     </g>
     <g id="text_16">
      <!-- 1500 -->
      <g transform="translate(19.73 40.505946)scale(0.08 -0.08)">
       <use xlink:href="#DejaVuSans-49"/>
       <use x="63.623047" xlink:href="#DejaVuSans-53"/>
       <use x="127.246094" xlink:href="#DejaVuSans-48"/>
       <use x="190.869141" xlink:href="#DejaVuSans-48"/>
      </g>
     </g>
    </g>
    <g id="text_17">
     <!-- Deaths per day -->
     <defs>
      <path d="M 19.671875 64.796875 
L 19.671875 8.109375 
L 31.59375 8.109375 
Q 46.6875 8.109375 53.6875 14.9375 
Q 60.6875 21.78125 60.6875 36.53125 
Q 60.6875 51.171875 53.6875 57.984375 
Q 46.6875 64.796875 31.59375 64.796875 
z
M 9.8125 72.90625 
L 30.078125 72.90625 
Q 51.265625 72.90625 61.171875 64.09375 
Q 71.09375 55.28125 71.09375 36.53125 
Q 71.09375 17.671875 61.125 8.828125 
Q 51.171875 0 30.078125 0 
L 9.8125 0 
z
" id="DejaVuSans-68"/>
      <path d="M 18.3125 70.21875 
L 18.3125 54.6875 
L 36.8125 54.6875 
L 36.8125 47.703125 
L 18.3125 47.703125 
L 18.3125 18.015625 
Q 18.3125 11.328125 20.140625 9.421875 
Q 21.96875 7.515625 27.59375 7.515625 
L 36.8125 7.515625 
L 36.8125 0 
L 27.59375 0 
Q 17.1875 0 13.234375 3.875 
Q 9.28125 7.765625 9.28125 18.015625 
L 9.28125 47.703125 
L 2.6875 47.703125 
L 2.6875 54.6875 
L 9.28125 54.6875 
L 9.28125 70.21875 
z
" id="DejaVuSans-116"/>
      <path d="M 54.890625 33.015625 
L 54.890625 0 
L 45.90625 0 
L 45.90625 32.71875 
Q 45.90625 40.484375 42.875 44.328125 
Q 39.84375 48.1875 33.796875 48.1875 
Q 26.515625 48.1875 22.3125 43.546875 
Q 18.109375 38.921875 18.109375 30.90625 
L 18.109375 0 
L 9.078125 0 
L 9.078125 75.984375 
L 18.109375 75.984375 
L 18.109375 46.1875 
Q 21.34375 51.125 25.703125 53.5625 
Q 30.078125 56 35.796875 56 
Q 45.21875 56 50.046875 50.171875 
Q 54.890625 44.34375 54.890625 33.015625 
z
" id="DejaVuSans-104"/>
      <path d="M 44.28125 53.078125 
L 44.28125 44.578125 
Q 40.484375 46.53125 36.375 47.5 
Q 32.28125 48.484375 27.875 48.484375 
Q 21.1875 48.484375 17.84375 46.4375 
Q 14.5 44.390625 14.5 40.28125 
Q 14.5 37.15625 16.890625 35.375 
Q 19.28125 33.59375 26.515625 31.984375 
L 29.59375 31.296875 
Q 39.15625 29.25 43.1875 25.515625 
Q 47.21875 21.78125 47.21875 15.09375 
Q 47.21875 7.46875 41.1875 3.015625 
Q 35.15625 -1.421875 24.609375 -1.421875 
Q 20.21875 -1.421875 15.453125 -0.5625 
Q 10.6875 0.296875 5.421875 2 
L 5.421875 11.28125 
Q 10.40625 8.6875 15.234375 7.390625 
Q 20.0625 6.109375 24.8125 6.109375 
Q 31.15625 6.109375 34.5625 8.28125 
Q 37.984375 10.453125 37.984375 14.40625 
Q 37.984375 18.0625 35.515625 20.015625 
Q 33.0625 21.96875 24.703125 23.78125 
L 21.578125 24.515625 
Q 13.234375 26.265625 9.515625 29.90625 
Q 5.8125 33.546875 5.8125 39.890625 
Q 5.8125 47.609375 11.28125 51.796875 
Q 16.75 56 26.8125 56 
Q 31.78125 56 36.171875 55.265625 
Q 40.578125 54.546875 44.28125 53.078125 
z
" id="DejaVuSans-115"/>
      <path d="M 45.40625 46.390625 
L 45.40625 75.984375 
L 54.390625 75.984375 
L 54.390625 0 
L 45.40625 0 
L 45.40625 8.203125 
Q 42.578125 3.328125 38.25 0.953125 
Q 33.9375 -1.421875 27.875 -1.421875 
Q 17.96875 -1.421875 11.734375 6.484375 
Q 5.515625 14.40625 5.515625 27.296875 
Q 5.515625 40.1875 11.734375 48.09375 
Q 17.96875 56 27.875 56 
Q 33.9375 56 38.25 53.625 
Q 42.578125 51.265625 45.40625 46.390625 
z
M 14.796875 27.296875 
Q 14.796875 17.390625 18.875 11.75 
Q 22.953125 6.109375 30.078125 6.109375 
Q 37.203125 6.109375 41.296875 11.75 
Q 45.40625 17.390625 45.40625 27.296875 
Q 45.40625 37.203125 41.296875 42.84375 
Q 37.203125 48.484375 30.078125 48.484375 
Q 22.953125 48.484375 18.875 42.84375 
Q 14.796875 37.203125 14.796875 27.296875 
z
" id="DejaVuSans-100"/>
      <path d="M 32.171875 -5.078125 
Q 28.375 -14.84375 24.75 -17.8125 
Q 21.140625 -20.796875 15.09375 -20.796875 
L 7.90625 -20.796875 
L 7.90625 -13.28125 
L 13.1875 -13.28125 
Q 16.890625 -13.28125 18.9375 -11.515625 
Q 21 -9.765625 23.484375 -3.21875 
L 25.09375 0.875 
L 2.984375 54.6875 
L 12.5 54.6875 
L 29.59375 11.921875 
L 46.6875 54.6875 
L 56.203125 54.6875 
z
" id="DejaVuSans-121"/>
     </defs>
     <g transform="translate(14.06625 99.70937)rotate(-90)scale(0.08 -0.08)">
      <use xlink:href="#DejaVuSans-68"/>
      <use x="77.001953" xlink:href="#DejaVuSans-101"/>
      <use x="138.525391" xlink:href="#DejaVuSans-97"/>
      <use x="199.804688" xlink:href="#DejaVuSans-116"/>
      <use x="239.013672" xlink:href="#DejaVuSans-104"/>
      <use x="302.392578" xlink:href="#DejaVuSans-115"/>
      <use x="354.492188" xlink:href="#DejaVuSans-32"/>
      <use x="386.279297" xlink:href="#DejaVuSans-112"/>
      <use x="449.755859" xlink:href="#DejaVuSans-101"/>
      <use x="511.279297" xlink:href="#DejaVuSans-114"/>
      <use x="552.392578" xlink:href="#DejaVuSans-32"/>
      <use x="584.179688" xlink:href="#DejaVuSans-100"/>
      <use x="647.65625" xlink:href="#DejaVuSans-97"/>
      <use x="708.935547" xlink:href="#DejaVuSans-121"/>
     </g>
    </g>
   </g>
   <g id="line2d_17">
    <path clip-path="url(#p569ee56d30)" d="M 55.144066 126.44874 
L 56.898765 126.44874 
L 58.653463 126.448733 
L 60.408162 126.448708 
L 62.16286 126.448651 
L 63.917559 126.448544 
L 65.672257 126.448372 
L 67.426956 126.448121 
L 69.181654 126.447776 
L 70.936353 126.44732 
L 72.691052 126.446732 
L 74.44575 126.445987 
L 76.200449 126.44505 
L 77.955147 126.443881 
L 79.709846 126.442426 
L 81.464544 126.440621 
L 83.219243 126.438383 
L 84.973941 126.435608 
L 86.72864 126.432167 
L 88.483338 126.427899 
L 90.238037 126.422602 
L 91.992735 126.416027 
L 93.747434 126.40784 
L 95.502132 126.397628 
L 97.256831 126.384857 
L 99.011529 126.368898 
L 100.766228 126.348924 
L 102.520926 126.323911 
L 104.275625 126.292473 
L 106.030324 126.251988 
L 107.785022 126.197954 
L 109.539721 126.125713 
L 111.294419 126.030073 
L 113.049118 125.905615 
L 114.803816 125.746615 
L 116.558515 125.54643 
L 118.313213 125.297908 
L 120.067912 124.993226 
L 121.82261 124.621516 
L 123.577309 124.168544 
L 125.332007 123.616258 
L 127.086706 122.941464 
L 128.841404 122.114491 
L 130.596103 121.096234 
L 132.350801 119.843592 
L 134.1055 118.306881 
L 135.860198 116.448863 
L 137.614897 114.247512 
L 139.369596 111.702837 
L 141.124294 108.845082 
L 142.878993 105.731665 
L 144.633691 102.428906 
L 146.38839 99.015489 
L 148.143088 95.567607 
L 149.897787 92.157624 
L 151.652485 88.848974 
L 153.407184 85.700292 
L 155.161882 82.767854 
L 156.916581 80.093514 
L 158.671279 77.713329 
L 160.425978 75.650705 
L 162.180676 73.918778 
L 163.935375 72.52008 
" style="fill:none;stroke:#0000ff;stroke-linecap:square;stroke-opacity:0.5;"/>
   </g>
   <g id="line2d_18">
    <path clip-path="url(#p569ee56d30)" d="M 165.690073 71.450608 
L 167.444772 70.70366 
L 169.199471 70.269393 
L 170.954169 70.137172 
L 172.708868 70.294328 
L 174.463566 70.72564 
L 176.218265 71.413106 
L 177.972963 72.336042 
L 179.727662 73.471436 
L 181.48236 74.794484 
L 183.237059 76.279215 
L 184.991757 77.899139 
L 186.746456 79.627869 
L 188.501154 81.439677 
L 190.255853 83.309967 
L 192.010551 85.215656 
L 193.76525 87.135457 
L 195.519948 89.05007 
L 197.274647 90.942299 
L 199.029345 92.797082 
L 200.784044 94.601476 
" style="fill:none;stroke:#008000;stroke-linecap:square;stroke-opacity:0.5;"/>
   </g>
   <g id="line2d_19">
    <path clip-path="url(#p569ee56d30)" d="M 128.841404 126.44874 
L 128.841404 11.52 
" style="fill:none;stroke:#0000ff;stroke-dasharray:1.85,0.8;stroke-dashoffset:0;stroke-width:0.5;"/>
   </g>
   <g id="line2d_20">
    <path clip-path="url(#p569ee56d30)" d="M 121.82261 126.44874 
L 121.82261 11.52 
" style="fill:none;stroke:#0000ff;stroke-dasharray:1.85,0.8;stroke-dashoffset:0;stroke-width:0.5;"/>
   </g>
   <g id="line2d_21">
    <path clip-path="url(#p569ee56d30)" d="M 132.350801 126.44874 
L 132.350801 11.52 
" style="fill:none;stroke:#0000ff;stroke-dasharray:1.85,0.8;stroke-dashoffset:0;stroke-width:0.5;"/>
   </g>
   <g id="line2d_22">
    <path clip-path="url(#p569ee56d30)" d="M 128.841404 126.44874 
L 128.841404 11.52 
" style="fill:none;stroke:#0000ff;stroke-dasharray:1.85,0.8;stroke-dashoffset:0;stroke-width:0.5;"/>
   </g>
   <g id="line2d_23">
    <path clip-path="url(#p569ee56d30)" d="M 128.841404 126.44874 
L 128.841404 11.52 
" style="fill:none;stroke:#0000ff;stroke-dasharray:1.85,0.8;stroke-dashoffset:0;stroke-width:0.5;"/>
   </g>
   <g id="patch_87">
    <path d="M 47.09 126.44874 
L 47.09 11.52 
" style="fill:none;stroke:#000000;stroke-linecap:square;stroke-linejoin:miter;stroke-width:0.8;"/>
   </g>
   <g id="patch_88">
    <path d="M 208.83811 126.44874 
L 208.83811 11.52 
" style="fill:none;stroke:#000000;stroke-linecap:square;stroke-linejoin:miter;stroke-width:0.8;"/>
   </g>
   <g id="patch_89">
    <path d="M 47.09 126.44874 
L 208.83811 126.44874 
" style="fill:none;stroke:#000000;stroke-linecap:square;stroke-linejoin:miter;stroke-width:0.8;"/>
   </g>
   <g id="patch_90">
    <path d="M 47.09 11.52 
L 208.83811 11.52 
" style="fill:none;stroke:#000000;stroke-linecap:square;stroke-linejoin:miter;stroke-width:0.8;"/>
   </g>
   <g id="legend_1">
    <g id="line2d_24">
     <path d="M 54.29 103.04249 
L 70.29 103.04249 
" style="fill:none;stroke:#0000ff;stroke-linecap:square;stroke-opacity:0.5;"/>
    </g>
    <g id="line2d_25"/>
    <g id="text_18">
     <!-- Simulation -->
     <defs>
      <path d="M 53.515625 70.515625 
L 53.515625 60.890625 
Q 47.90625 63.578125 42.921875 64.890625 
Q 37.9375 66.21875 33.296875 66.21875 
Q 25.25 66.21875 20.875 63.09375 
Q 16.5 59.96875 16.5 54.203125 
Q 16.5 49.359375 19.40625 46.890625 
Q 22.3125 44.4375 30.421875 42.921875 
L 36.375 41.703125 
Q 47.40625 39.59375 52.65625 34.296875 
Q 57.90625 29 57.90625 20.125 
Q 57.90625 9.515625 50.796875 4.046875 
Q 43.703125 -1.421875 29.984375 -1.421875 
Q 24.8125 -1.421875 18.96875 -0.25 
Q 13.140625 0.921875 6.890625 3.21875 
L 6.890625 13.375 
Q 12.890625 10.015625 18.65625 8.296875 
Q 24.421875 6.59375 29.984375 6.59375 
Q 38.421875 6.59375 43.015625 9.90625 
Q 47.609375 13.234375 47.609375 19.390625 
Q 47.609375 24.75 44.3125 27.78125 
Q 41.015625 30.8125 33.5 32.328125 
L 27.484375 33.5 
Q 16.453125 35.6875 11.515625 40.375 
Q 6.59375 45.0625 6.59375 53.421875 
Q 6.59375 63.09375 13.40625 68.65625 
Q 20.21875 74.21875 32.171875 74.21875 
Q 37.3125 74.21875 42.625 73.28125 
Q 47.953125 72.359375 53.515625 70.515625 
z
" id="DejaVuSans-83"/>
      <path d="M 9.421875 54.6875 
L 18.40625 54.6875 
L 18.40625 0 
L 9.421875 0 
z
M 9.421875 75.984375 
L 18.40625 75.984375 
L 18.40625 64.59375 
L 9.421875 64.59375 
z
" id="DejaVuSans-105"/>
      <path d="M 52 44.1875 
Q 55.375 50.25 60.0625 53.125 
Q 64.75 56 71.09375 56 
Q 79.640625 56 84.28125 50.015625 
Q 88.921875 44.046875 88.921875 33.015625 
L 88.921875 0 
L 79.890625 0 
L 79.890625 32.71875 
Q 79.890625 40.578125 77.09375 44.375 
Q 74.3125 48.1875 68.609375 48.1875 
Q 61.625 48.1875 57.5625 43.546875 
Q 53.515625 38.921875 53.515625 30.90625 
L 53.515625 0 
L 44.484375 0 
L 44.484375 32.71875 
Q 44.484375 40.625 41.703125 44.40625 
Q 38.921875 48.1875 33.109375 48.1875 
Q 26.21875 48.1875 22.15625 43.53125 
Q 18.109375 38.875 18.109375 30.90625 
L 18.109375 0 
L 9.078125 0 
L 9.078125 54.6875 
L 18.109375 54.6875 
L 18.109375 46.1875 
Q 21.1875 51.21875 25.484375 53.609375 
Q 29.78125 56 35.6875 56 
Q 41.65625 56 45.828125 52.96875 
Q 50 49.953125 52 44.1875 
z
" id="DejaVuSans-109"/>
      <path d="M 8.5 21.578125 
L 8.5 54.6875 
L 17.484375 54.6875 
L 17.484375 21.921875 
Q 17.484375 14.15625 20.5 10.265625 
Q 23.53125 6.390625 29.59375 6.390625 
Q 36.859375 6.390625 41.078125 11.03125 
Q 45.3125 15.671875 45.3125 23.6875 
L 45.3125 54.6875 
L 54.296875 54.6875 
L 54.296875 0 
L 45.3125 0 
L 45.3125 8.40625 
Q 42.046875 3.421875 37.71875 1 
Q 33.40625 -1.421875 27.6875 -1.421875 
Q 18.265625 -1.421875 13.375 4.4375 
Q 8.5 10.296875 8.5 21.578125 
z
M 31.109375 56 
z
" id="DejaVuSans-117"/>
      <path d="M 9.421875 75.984375 
L 18.40625 75.984375 
L 18.40625 0 
L 9.421875 0 
z
" id="DejaVuSans-108"/>
      <path d="M 30.609375 48.390625 
Q 23.390625 48.390625 19.1875 42.75 
Q 14.984375 37.109375 14.984375 27.296875 
Q 14.984375 17.484375 19.15625 11.84375 
Q 23.34375 6.203125 30.609375 6.203125 
Q 37.796875 6.203125 41.984375 11.859375 
Q 46.1875 17.53125 46.1875 27.296875 
Q 46.1875 37.015625 41.984375 42.703125 
Q 37.796875 48.390625 30.609375 48.390625 
z
M 30.609375 56 
Q 42.328125 56 49.015625 48.375 
Q 55.71875 40.765625 55.71875 27.296875 
Q 55.71875 13.875 49.015625 6.21875 
Q 42.328125 -1.421875 30.609375 -1.421875 
Q 18.84375 -1.421875 12.171875 6.21875 
Q 5.515625 13.875 5.515625 27.296875 
Q 5.515625 40.765625 12.171875 48.375 
Q 18.84375 56 30.609375 56 
z
" id="DejaVuSans-111"/>
      <path d="M 54.890625 33.015625 
L 54.890625 0 
L 45.90625 0 
L 45.90625 32.71875 
Q 45.90625 40.484375 42.875 44.328125 
Q 39.84375 48.1875 33.796875 48.1875 
Q 26.515625 48.1875 22.3125 43.546875 
Q 18.109375 38.921875 18.109375 30.90625 
L 18.109375 0 
L 9.078125 0 
L 9.078125 54.6875 
L 18.109375 54.6875 
L 18.109375 46.1875 
Q 21.34375 51.125 25.703125 53.5625 
Q 30.078125 56 35.796875 56 
Q 45.21875 56 50.046875 50.171875 
Q 54.890625 44.34375 54.890625 33.015625 
z
" id="DejaVuSans-110"/>
     </defs>
     <g transform="translate(76.69 105.84249)scale(0.08 -0.08)">
      <use xlink:href="#DejaVuSans-83"/>
      <use x="63.476562" xlink:href="#DejaVuSans-105"/>
      <use x="91.259766" xlink:href="#DejaVuSans-109"/>
      <use x="188.671875" xlink:href="#DejaVuSans-117"/>
      <use x="252.050781" xlink:href="#DejaVuSans-108"/>
      <use x="279.833984" xlink:href="#DejaVuSans-97"/>
      <use x="341.113281" xlink:href="#DejaVuSans-116"/>
      <use x="380.322266" xlink:href="#DejaVuSans-105"/>
      <use x="408.105469" xlink:href="#DejaVuSans-111"/>
      <use x="469.287109" xlink:href="#DejaVuSans-110"/>
     </g>
    </g>
    <g id="line2d_26">
     <path d="M 54.29 114.78499 
L 70.29 114.78499 
" style="fill:none;stroke:#008000;stroke-linecap:square;stroke-opacity:0.5;"/>
    </g>
    <g id="line2d_27"/>
    <g id="text_19">
     <!-- Forecast -->
     <defs>
      <path d="M 48.78125 52.59375 
L 48.78125 44.1875 
Q 44.96875 46.296875 41.140625 47.34375 
Q 37.3125 48.390625 33.40625 48.390625 
Q 24.65625 48.390625 19.8125 42.84375 
Q 14.984375 37.3125 14.984375 27.296875 
Q 14.984375 17.28125 19.8125 11.734375 
Q 24.65625 6.203125 33.40625 6.203125 
Q 37.3125 6.203125 41.140625 7.25 
Q 44.96875 8.296875 48.78125 10.40625 
L 48.78125 2.09375 
Q 45.015625 0.34375 40.984375 -0.53125 
Q 36.96875 -1.421875 32.421875 -1.421875 
Q 20.0625 -1.421875 12.78125 6.34375 
Q 5.515625 14.109375 5.515625 27.296875 
Q 5.515625 40.671875 12.859375 48.328125 
Q 20.21875 56 33.015625 56 
Q 37.15625 56 41.109375 55.140625 
Q 45.0625 54.296875 48.78125 52.59375 
z
" id="DejaVuSans-99"/>
     </defs>
     <g transform="translate(76.69 117.58499)scale(0.08 -0.08)">
      <use xlink:href="#DejaVuSans-70"/>
      <use x="53.894531" xlink:href="#DejaVuSans-111"/>
      <use x="115.076172" xlink:href="#DejaVuSans-114"/>
      <use x="153.939453" xlink:href="#DejaVuSans-101"/>
      <use x="215.462891" xlink:href="#DejaVuSans-99"/>
      <use x="270.443359" xlink:href="#DejaVuSans-97"/>
      <use x="331.722656" xlink:href="#DejaVuSans-115"/>
      <use x="383.822266" xlink:href="#DejaVuSans-116"/>
     </g>
    </g>
   </g>
  </g>
  <g id="axes_2">
   <g id="matplotlib.axis_3">
    <g id="ytick_5">
     <g id="line2d_28">
      <defs>
       <path d="M 0 0 
L 3.5 0 
" id="m58039d0284" style="stroke:#000000;stroke-width:0.8;"/>
      </defs>
      <g>
       <use style="stroke:#000000;stroke-width:0.8;" x="208.83811" xlink:href="#m58039d0284" y="126.44874"/>
      </g>
     </g>
     <g id="text_20">
      <!-- 1.0 -->
      <defs>
       <path d="M 10.59375 35.5 
L 73.1875 35.5 
L 73.1875 27.203125 
L 10.59375 27.203125 
z
" id="DejaVuSans-8722"/>
       <path d="M 10.6875 12.40625 
L 21 12.40625 
L 21 0 
L 10.6875 0 
z
" id="DejaVuSans-46"/>
      </defs>
      <g transform="translate(215.83811 129.488115)scale(0.08 -0.08)">
       <use xlink:href="#DejaVuSans-8722"/>
       <use x="83.789062" xlink:href="#DejaVuSans-49"/>
       <use x="147.412109" xlink:href="#DejaVuSans-46"/>
       <use x="179.199219" xlink:href="#DejaVuSans-48"/>
      </g>
     </g>
    </g>
    <g id="ytick_6">
     <g id="line2d_29">
      <g>
       <use style="stroke:#000000;stroke-width:0.8;" x="208.83811" xlink:href="#m58039d0284" y="85.402762"/>
      </g>
     </g>
     <g id="text_21">
      <!-- 0.5 -->
      <g transform="translate(215.83811 88.442137)scale(0.08 -0.08)">
       <use xlink:href="#DejaVuSans-8722"/>
       <use x="83.789062" xlink:href="#DejaVuSans-48"/>
       <use x="147.412109" xlink:href="#DejaVuSans-46"/>
       <use x="179.199219" xlink:href="#DejaVuSans-53"/>
      </g>
     </g>
    </g>
    <g id="ytick_7">
     <g id="line2d_30">
      <g>
       <use style="stroke:#000000;stroke-width:0.8;" x="208.83811" xlink:href="#m58039d0284" y="44.356783"/>
      </g>
     </g>
     <g id="text_22">
      <!-- 0.0 -->
      <g transform="translate(215.83811 47.396158)scale(0.08 -0.08)">
       <use xlink:href="#DejaVuSans-48"/>
       <use x="63.623047" xlink:href="#DejaVuSans-46"/>
       <use x="95.410156" xlink:href="#DejaVuSans-48"/>
      </g>
     </g>
    </g>
    <g id="ytick_8">
     <g id="line2d_31">
      <g>
       <use style="stroke:#000000;stroke-width:0.8;" x="208.83811" xlink:href="#m58039d0284" y="11.52"/>
      </g>
     </g>
     <g id="text_23">
      <!-- 0.4 -->
      <defs>
       <path d="M 37.796875 64.3125 
L 12.890625 25.390625 
L 37.796875 25.390625 
z
M 35.203125 72.90625 
L 47.609375 72.90625 
L 47.609375 25.390625 
L 58.015625 25.390625 
L 58.015625 17.1875 
L 47.609375 17.1875 
L 47.609375 0 
L 37.796875 0 
L 37.796875 17.1875 
L 4.890625 17.1875 
L 4.890625 26.703125 
z
" id="DejaVuSans-52"/>
      </defs>
      <g transform="translate(215.83811 14.559375)scale(0.08 -0.08)">
       <use xlink:href="#DejaVuSans-48"/>
       <use x="63.623047" xlink:href="#DejaVuSans-46"/>
       <use x="95.410156" xlink:href="#DejaVuSans-52"/>
      </g>
     </g>
    </g>
    <g id="text_24">
     <!-- Relative change -->
     <defs>
      <path d="M 44.390625 34.1875 
Q 47.5625 33.109375 50.5625 29.59375 
Q 53.5625 26.078125 56.59375 19.921875 
L 66.609375 0 
L 56 0 
L 46.6875 18.703125 
Q 43.0625 26.03125 39.671875 28.421875 
Q 36.28125 30.8125 30.421875 30.8125 
L 19.671875 30.8125 
L 19.671875 0 
L 9.8125 0 
L 9.8125 72.90625 
L 32.078125 72.90625 
Q 44.578125 72.90625 50.734375 67.671875 
Q 56.890625 62.453125 56.890625 51.90625 
Q 56.890625 45.015625 53.6875 40.46875 
Q 50.484375 35.9375 44.390625 34.1875 
z
M 19.671875 64.796875 
L 19.671875 38.921875 
L 32.078125 38.921875 
Q 39.203125 38.921875 42.84375 42.21875 
Q 46.484375 45.515625 46.484375 51.90625 
Q 46.484375 58.296875 42.84375 61.546875 
Q 39.203125 64.796875 32.078125 64.796875 
z
" id="DejaVuSans-82"/>
      <path d="M 2.984375 54.6875 
L 12.5 54.6875 
L 29.59375 8.796875 
L 46.6875 54.6875 
L 56.203125 54.6875 
L 35.6875 0 
L 23.484375 0 
z
" id="DejaVuSans-118"/>
      <path d="M 45.40625 27.984375 
Q 45.40625 37.75 41.375 43.109375 
Q 37.359375 48.484375 30.078125 48.484375 
Q 22.859375 48.484375 18.828125 43.109375 
Q 14.796875 37.75 14.796875 27.984375 
Q 14.796875 18.265625 18.828125 12.890625 
Q 22.859375 7.515625 30.078125 7.515625 
Q 37.359375 7.515625 41.375 12.890625 
Q 45.40625 18.265625 45.40625 27.984375 
z
M 54.390625 6.78125 
Q 54.390625 -7.171875 48.1875 -13.984375 
Q 42 -20.796875 29.203125 -20.796875 
Q 24.46875 -20.796875 20.265625 -20.09375 
Q 16.0625 -19.390625 12.109375 -17.921875 
L 12.109375 -9.1875 
Q 16.0625 -11.328125 19.921875 -12.34375 
Q 23.78125 -13.375 27.78125 -13.375 
Q 36.625 -13.375 41.015625 -8.765625 
Q 45.40625 -4.15625 45.40625 5.171875 
L 45.40625 9.625 
Q 42.625 4.78125 38.28125 2.390625 
Q 33.9375 0 27.875 0 
Q 17.828125 0 11.671875 7.65625 
Q 5.515625 15.328125 5.515625 27.984375 
Q 5.515625 40.671875 11.671875 48.328125 
Q 17.828125 56 27.875 56 
Q 33.9375 56 38.28125 53.609375 
Q 42.625 51.21875 45.40625 46.390625 
L 45.40625 54.6875 
L 54.390625 54.6875 
z
" id="DejaVuSans-103"/>
     </defs>
     <g transform="translate(245.34311 101.10812)rotate(-90)scale(0.08 -0.08)">
      <use xlink:href="#DejaVuSans-82"/>
      <use x="64.982422" xlink:href="#DejaVuSans-101"/>
      <use x="126.505859" xlink:href="#DejaVuSans-108"/>
      <use x="154.289062" xlink:href="#DejaVuSans-97"/>
      <use x="215.568359" xlink:href="#DejaVuSans-116"/>
      <use x="254.777344" xlink:href="#DejaVuSans-105"/>
      <use x="282.560547" xlink:href="#DejaVuSans-118"/>
      <use x="341.740234" xlink:href="#DejaVuSans-101"/>
      <use x="403.263672" xlink:href="#DejaVuSans-32"/>
      <use x="435.050781" xlink:href="#DejaVuSans-99"/>
      <use x="490.03125" xlink:href="#DejaVuSans-104"/>
      <use x="553.410156" xlink:href="#DejaVuSans-97"/>
      <use x="614.689453" xlink:href="#DejaVuSans-110"/>
      <use x="678.068359" xlink:href="#DejaVuSans-103"/>
      <use x="741.544922" xlink:href="#DejaVuSans-101"/>
     </g>
    </g>
   </g>
   <g id="line2d_32">
    <path clip-path="url(#p569ee56d30)" d="M 55.144066 44.356783 
L 56.898765 44.356783 
L 58.653463 44.356783 
L 60.408162 44.356783 
L 62.16286 44.356783 
L 63.917559 44.356783 
L 65.672257 44.356783 
L 67.426956 44.356783 
L 69.181654 44.356783 
L 70.936353 44.356783 
L 72.691052 44.356783 
L 74.44575 44.356783 
L 76.200449 44.356783 
L 77.955147 44.356783 
L 79.709846 44.356783 
L 81.464544 44.356783 
L 83.219243 44.356783 
L 84.973941 44.356783 
L 86.72864 44.356783 
L 88.483338 41.894024 
L 90.238037 41.894024 
L 91.992735 44.356783 
L 93.747434 41.894024 
L 95.502132 44.356783 
L 97.256831 42.714944 
L 99.011529 43.535863 
L 100.766228 45.177702 
L 102.520926 48.461381 
L 104.275625 47.640461 
L 106.030324 49.2823 
L 107.785022 55.028737 
L 109.539721 52.565979 
L 111.294419 50.924139 
L 113.049118 52.565979 
L 114.803816 59.954255 
L 116.558515 55.028737 
L 118.313213 50.10322 
L 120.067912 50.10322 
L 121.82261 54.207818 
L 123.577309 56.670576 
L 125.332007 59.954255 
L 127.086706 70.626209 
L 128.841404 68.98437 
L 130.596103 79.656325 
L 132.350801 87.044601 
L 134.1055 101.821153 
L 135.860198 105.925751 
L 137.614897 112.493107 
L 139.369596 118.239544 
L 141.124294 105.925751 
L 142.878993 107.56759 
L 144.633691 109.209429 
L 146.38839 109.209429 
L 148.143088 110.030349 
L 149.897787 114.955866 
L 151.652485 122.344142 
L 153.407184 110.030349 
L 155.161882 110.851268 
L 156.916581 112.493107 
L 158.671279 113.314027 
L 160.425978 112.493107 
L 162.180676 115.776786 
L 163.935375 121.523223 
" style="fill:none;stroke:#d62728;stroke-linecap:square;stroke-opacity:0.5;"/>
   </g>
   <g id="line2d_33">
    <path clip-path="url(#p569ee56d30)" d="M 55.144066 44.356783 
L 56.898765 44.356783 
L 58.653463 44.356783 
L 60.408162 44.356783 
L 62.16286 44.356783 
L 63.917559 44.356783 
L 65.672257 44.356783 
L 67.426956 44.356783 
L 69.181654 44.356783 
L 70.936353 44.356783 
L 72.691052 44.356783 
L 74.44575 44.356783 
L 76.200449 44.356783 
L 77.955147 44.356783 
L 79.709846 44.356783 
L 81.464544 44.356783 
L 83.219243 44.356783 
L 84.973941 44.356783 
L 86.72864 44.356783 
L 88.483338 45.177702 
L 90.238037 42.714944 
L 91.992735 43.535863 
L 93.747434 43.535863 
L 95.502132 45.177702 
L 97.256831 43.535863 
L 99.011529 43.535863 
L 100.766228 41.894024 
L 102.520926 31.22207 
L 104.275625 25.475633 
L 106.030324 40.252185 
L 107.785022 48.461381 
L 109.539721 46.819542 
L 111.294419 45.998622 
L 113.049118 45.998622 
L 114.803816 48.461381 
L 116.558515 50.10322 
L 118.313213 45.177702 
L 120.067912 43.535863 
L 121.82261 44.356783 
L 123.577309 44.356783 
L 125.332007 43.535863 
L 127.086706 41.894024 
L 128.841404 45.177702 
L 130.596103 45.998622 
L 132.350801 55.849657 
L 134.1055 63.237933 
L 135.860198 67.342531 
L 137.614897 79.656325 
L 139.369596 93.611957 
L 141.124294 74.730807 
L 142.878993 78.014485 
L 144.633691 79.656325 
L 146.38839 80.477244 
L 148.143088 77.193566 
L 149.897787 86.223681 
L 151.652485 114.134947 
L 153.407184 81.298164 
L 155.161882 83.760922 
L 156.916581 86.223681 
L 158.671279 87.044601 
L 160.425978 82.119083 
L 162.180676 88.68644 
L 163.935375 114.134947 
" style="fill:none;stroke:#9467bd;stroke-linecap:square;stroke-opacity:0.5;"/>
   </g>
   <g id="line2d_34">
    <path clip-path="url(#p569ee56d30)" d="M 55.144066 44.356783 
L 56.898765 44.356783 
L 58.653463 44.356783 
L 60.408162 44.356783 
L 62.16286 44.356783 
L 63.917559 44.356783 
L 65.672257 44.356783 
L 67.426956 44.356783 
L 69.181654 44.356783 
L 70.936353 44.356783 
L 72.691052 44.356783 
L 74.44575 44.356783 
L 76.200449 44.356783 
L 77.955147 44.356783 
L 79.709846 44.356783 
L 81.464544 44.356783 
L 83.219243 44.356783 
L 84.973941 44.356783 
L 86.72864 44.356783 
L 88.483338 36.968507 
L 90.238037 35.326668 
L 91.992735 41.894024 
L 93.747434 41.073105 
L 95.502132 41.894024 
L 97.256831 40.252185 
L 99.011529 40.252185 
L 100.766228 37.789426 
L 102.520926 39.431265 
L 104.275625 56.670576 
L 106.030324 59.133335 
L 107.785022 63.237933 
L 109.539721 62.417013 
L 111.294419 60.775174 
L 113.049118 57.491496 
L 114.803816 65.700692 
L 116.558515 64.879772 
L 118.313213 61.596094 
L 120.067912 59.954255 
L 121.82261 67.342531 
L 123.577309 68.163451 
L 125.332007 64.058853 
L 127.086706 66.521611 
L 128.841404 78.835405 
L 130.596103 86.223681 
L 132.350801 91.149199 
L 134.1055 99.358394 
L 135.860198 102.642073 
L 137.614897 106.74667 
L 139.369596 110.030349 
L 141.124294 105.104831 
L 142.878993 106.74667 
L 144.633691 107.56759 
L 146.38839 108.38851 
L 148.143088 108.38851 
L 149.897787 110.030349 
L 151.652485 115.776786 
L 153.407184 110.851268 
L 155.161882 110.851268 
L 156.916581 111.672188 
L 158.671279 112.493107 
L 160.425978 111.672188 
L 162.180676 111.672188 
L 163.935375 115.776786 
" style="fill:none;stroke:#e377c2;stroke-linecap:square;stroke-opacity:0.5;"/>
   </g>
   <g id="line2d_35">
    <path clip-path="url(#p569ee56d30)" d="M 55.144066 44.356783 
L 56.898765 44.356783 
L 58.653463 44.356783 
L 60.408162 44.356783 
L 62.16286 44.356783 
L 63.917559 44.356783 
L 65.672257 44.356783 
L 67.426956 44.356783 
L 69.181654 44.356783 
L 70.936353 44.356783 
L 72.691052 44.356783 
L 74.44575 44.356783 
L 76.200449 44.356783 
L 77.955147 44.356783 
L 79.709846 44.356783 
L 81.464544 44.356783 
L 83.219243 44.356783 
L 84.973941 44.356783 
L 86.72864 44.356783 
L 88.483338 44.356783 
L 90.238037 43.535863 
L 91.992735 43.535863 
L 93.747434 43.535863 
L 95.502132 43.535863 
L 97.256831 43.535863 
L 99.011529 44.356783 
L 100.766228 44.356783 
L 102.520926 43.535863 
L 104.275625 55.849657 
L 106.030324 56.670576 
L 107.785022 54.207818 
L 109.539721 54.207818 
L 111.294419 54.207818 
L 113.049118 51.745059 
L 114.803816 48.461381 
L 116.558515 51.745059 
L 118.313213 50.924139 
L 120.067912 50.924139 
L 121.82261 57.491496 
L 123.577309 58.312416 
L 125.332007 56.670576 
L 127.086706 52.565979 
L 128.841404 64.058853 
L 130.596103 69.80529 
L 132.350801 74.730807 
L 134.1055 82.940003 
L 135.860198 87.86552 
L 137.614897 91.970118 
L 139.369596 89.507359 
L 141.124294 91.970118 
L 142.878993 94.432877 
L 144.633691 94.432877 
L 146.38839 96.074716 
L 148.143088 96.074716 
L 149.897787 96.074716 
L 151.652485 96.074716 
L 153.407184 100.179314 
L 155.161882 101.000233 
L 156.916581 101.821153 
L 158.671279 103.462992 
L 160.425978 102.642073 
L 162.180676 97.716555 
L 163.935375 96.074716 
" style="fill:none;stroke:#bcbd22;stroke-linecap:square;stroke-opacity:0.5;"/>
   </g>
   <g id="line2d_36">
    <path clip-path="url(#p569ee56d30)" d="M 55.144066 44.356783 
L 56.898765 44.356783 
L 58.653463 44.356783 
L 60.408162 44.356783 
L 62.16286 44.356783 
L 63.917559 44.356783 
L 65.672257 44.356783 
L 67.426956 44.356783 
L 69.181654 44.356783 
L 70.936353 44.356783 
L 72.691052 44.356783 
L 74.44575 44.356783 
L 76.200449 44.356783 
L 77.955147 44.356783 
L 79.709846 44.356783 
L 81.464544 44.356783 
L 83.219243 44.356783 
L 84.973941 44.356783 
L 86.72864 44.356783 
L 88.483338 45.177702 
L 90.238037 45.998622 
L 91.992735 44.356783 
L 93.747434 44.356783 
L 95.502132 44.356783 
L 97.256831 44.356783 
L 99.011529 45.177702 
L 100.766228 45.177702 
L 102.520926 44.356783 
L 104.275625 41.073105 
L 106.030324 40.252185 
L 107.785022 39.431265 
L 109.539721 39.431265 
L 111.294419 40.252185 
L 113.049118 41.894024 
L 114.803816 41.073105 
L 116.558515 40.252185 
L 118.313213 41.073105 
L 120.067912 41.073105 
L 121.82261 38.610346 
L 123.577309 37.789426 
L 125.332007 39.431265 
L 127.086706 39.431265 
L 128.841404 35.326668 
L 130.596103 31.22207 
L 132.350801 28.759311 
L 134.1055 24.654713 
L 135.860198 21.371035 
L 137.614897 23.833794 
L 139.369596 26.296552 
L 141.124294 22.191954 
L 142.878993 20.550115 
L 144.633691 19.729196 
L 146.38839 18.908276 
L 148.143088 18.087357 
L 149.897787 23.012874 
L 151.652485 24.654713 
L 153.407184 18.087357 
L 155.161882 18.087357 
L 156.916581 16.445517 
L 158.671279 15.624598 
L 160.425978 14.803678 
L 162.180676 22.191954 
L 163.935375 24.654713 
" style="fill:none;stroke:#17becf;stroke-linecap:square;stroke-opacity:0.5;"/>
   </g>
   <g id="patch_91">
    <path d="M 47.09 126.44874 
L 47.09 11.52 
" style="fill:none;stroke:#000000;stroke-linecap:square;stroke-linejoin:miter;stroke-width:0.8;"/>
   </g>
   <g id="patch_92">
    <path d="M 208.83811 126.44874 
L 208.83811 11.52 
" style="fill:none;stroke:#000000;stroke-linecap:square;stroke-linejoin:miter;stroke-width:0.8;"/>
   </g>
   <g id="patch_93">
    <path d="M 47.09 126.44874 
L 208.83811 126.44874 
" style="fill:none;stroke:#000000;stroke-linecap:square;stroke-linejoin:miter;stroke-width:0.8;"/>
   </g>
   <g id="patch_94">
    <path d="M 47.09 11.52 
L 208.83811 11.52 
" style="fill:none;stroke:#000000;stroke-linecap:square;stroke-linejoin:miter;stroke-width:0.8;"/>
   </g>
  </g>
 </g>
 <defs>
  <clipPath id="p569ee56d30">
   <rect height="114.92874" width="161.74811" x="47.09" y="11.52"/>
  </clipPath>
 </defs>
</svg>
