<?xml version="1.0" encoding="utf-8" standalone="no"?>
<!DOCTYPE svg PUBLIC "-//W3C//DTD SVG 1.1//EN"
  "http://www.w3.org/Graphics/SVG/1.1/DTD/svg11.dtd">
<!-- Created with matplotlib (https://matplotlib.org/) -->
<svg height="170.07874pt" version="1.1" viewBox="0 0 255.11811 170.07874" width="255.11811pt" xmlns="http://www.w3.org/2000/svg" xmlns:xlink="http://www.w3.org/1999/xlink">
 <defs>
  <style type="text/css">
*{stroke-linecap:butt;stroke-linejoin:round;}
  </style>
 </defs>
 <g id="figure_1">
  <g id="patch_1">
   <path d="M 0 170.07874 
L 255.11811 170.07874 
L 255.11811 0 
L 0 0 
z
" style="fill:#ffffff;"/>
  </g>
  <g id="axes_1">
   <g id="patch_2">
    <path d="M 52.13 126.44874 
L 208.83811 126.44874 
L 208.83811 11.52 
L 52.13 11.52 
z
" style="fill:#ffffff;"/>
   </g>
   <g id="PolyCollection_1">
    <defs>
     <path d="M 59.933105 -43.63 
L 59.933105 -43.63 
L 61.633128 -43.63 
L 63.333151 -43.63 
L 65.033174 -43.630001 
L 66.733197 -43.630002 
L 68.43322 -43.630004 
L 70.133242 -43.630009 
L 71.833265 -43.630018 
L 73.533288 -43.630031 
L 75.233311 -43.630051 
L 76.933334 -43.630079 
L 78.633357 -43.630117 
L 80.33338 -43.63017 
L 82.033403 -43.63024 
L 83.733426 -43.630334 
L 85.433448 -43.630457 
L 87.133471 -43.630619 
L 88.833494 -43.630829 
L 90.533517 -43.631102 
L 92.23354 -43.631456 
L 93.933563 -43.631914 
L 95.633586 -43.632504 
L 97.333609 -43.633266 
L 99.033632 -43.634249 
L 100.733654 -43.635515 
L 102.433677 -43.637153 
L 104.1337 -43.639277 
L 105.833723 -43.642018 
L 107.533746 -43.645562 
L 109.233769 -43.65018 
L 110.933792 -43.656342 
L 112.633815 -43.664608 
L 114.333838 -43.675779 
L 116.033861 -43.690761 
L 117.733883 -43.710734 
L 119.433906 -43.73691 
L 121.133929 -43.770889 
L 122.833952 -43.814638 
L 124.533975 -43.870242 
L 126.233998 -43.940385 
L 127.934021 -44.028722 
L 129.634044 -44.139391 
L 131.334067 -44.277234 
L 133.034089 -44.449039 
L 134.734112 -44.661629 
L 136.434135 -44.924692 
L 138.134158 -45.249034 
L 139.834181 -45.644538 
L 141.534204 -46.120776 
L 143.234227 -46.689209 
L 144.93425 -47.359752 
L 146.634273 -48.133007 
L 148.334295 -49.014023 
L 150.034318 -50.0005 
L 151.734341 -51.091047 
L 153.434364 -52.278152 
L 155.134387 -53.544874 
L 156.83441 -54.886089 
L 158.534433 -56.284773 
L 160.234456 -57.727964 
L 161.934479 -59.20033 
L 163.634502 -60.688316 
L 165.334524 -62.181149 
L 165.334524 -73.564432 
L 165.334524 -73.564432 
L 163.634502 -70.607852 
L 161.934479 -67.810678 
L 160.234456 -65.183293 
L 158.534433 -62.718434 
L 156.83441 -60.43 
L 155.134387 -58.310065 
L 153.434364 -56.353872 
L 151.734341 -54.571562 
L 150.034318 -52.959197 
L 148.334295 -51.511501 
L 146.634273 -50.231875 
L 144.93425 -49.113101 
L 143.234227 -48.149382 
L 141.534204 -47.331877 
L 139.834181 -46.648693 
L 138.134158 -46.08457 
L 136.434135 -45.623436 
L 134.734112 -45.247213 
L 133.034089 -44.940129 
L 131.334067 -44.689862 
L 129.634044 -44.486111 
L 127.934021 -44.320214 
L 126.233998 -44.185098 
L 124.533975 -44.075242 
L 122.833952 -43.986325 
L 121.133929 -43.914839 
L 119.433906 -43.85764 
L 117.733883 -43.812135 
L 116.033861 -43.776045 
L 114.333838 -43.747365 
L 112.633815 -43.72466 
L 110.933792 -43.706614 
L 109.233769 -43.692157 
L 107.533746 -43.680499 
L 105.833723 -43.671019 
L 104.1337 -43.663277 
L 102.433677 -43.656961 
L 100.733654 -43.651773 
L 99.033632 -43.647521 
L 97.333609 -43.644053 
L 95.633586 -43.641228 
L 93.933563 -43.638931 
L 92.23354 -43.637057 
L 90.533517 -43.635533 
L 88.833494 -43.634299 
L 87.133471 -43.633306 
L 85.433448 -43.63251 
L 83.733426 -43.631877 
L 82.033403 -43.631379 
L 80.33338 -43.630991 
L 78.633357 -43.630693 
L 76.933334 -43.630469 
L 75.233311 -43.630305 
L 73.533288 -43.630188 
L 71.833265 -43.630108 
L 70.133242 -43.630057 
L 68.43322 -43.630027 
L 66.733197 -43.630011 
L 65.033174 -43.630003 
L 63.333151 -43.630001 
L 61.633128 -43.63 
L 59.933105 -43.63 
z
" id="mc4d49d068b" style="stroke:#6495ed;stroke-opacity:0.4;"/>
    </defs>
    <g clip-path="url(#p40fe95a79e)">
     <use style="fill:#6495ed;fill-opacity:0.4;stroke:#6495ed;stroke-opacity:0.4;" x="0" xlink:href="#mc4d49d068b" y="170.07874"/>
    </g>
   </g>
   <g id="PolyCollection_2">
    <defs>
     <path d="M 59.933105 -43.63 
L 59.933105 -43.63 
L 61.633128 -43.63 
L 63.333151 -43.63 
L 65.033174 -43.630001 
L 66.733197 -43.630003 
L 68.43322 -43.630008 
L 70.133242 -43.630018 
L 71.833265 -43.630034 
L 73.533288 -43.630059 
L 75.233311 -43.630095 
L 76.933334 -43.630147 
L 78.633357 -43.630219 
L 80.33338 -43.630316 
L 82.033403 -43.630444 
L 83.733426 -43.630613 
L 85.433448 -43.630831 
L 87.133471 -43.631113 
L 88.833494 -43.631474 
L 90.533517 -43.631934 
L 92.23354 -43.632521 
L 93.933563 -43.633265 
L 95.633586 -43.634209 
L 97.333609 -43.635405 
L 99.033632 -43.636921 
L 100.733654 -43.638836 
L 102.433677 -43.641261 
L 104.1337 -43.644341 
L 105.833723 -43.648245 
L 107.533746 -43.653189 
L 109.233769 -43.659508 
L 110.933792 -43.667671 
L 112.633815 -43.678351 
L 114.333838 -43.692446 
L 116.033861 -43.710951 
L 117.733883 -43.735171 
L 119.433906 -43.766582 
L 121.133929 -43.806954 
L 122.833952 -43.858372 
L 124.533975 -43.923271 
L 126.233998 -44.004669 
L 127.934021 -44.10623 
L 129.634044 -44.232593 
L 131.334067 -44.389334 
L 133.034089 -44.58341 
L 134.734112 -44.82306 
L 136.434135 -45.118905 
L 138.134158 -45.482122 
L 139.834181 -45.924422 
L 141.534204 -46.458606 
L 143.234227 -47.096254 
L 144.93425 -47.845876 
L 146.634273 -48.714394 
L 148.334295 -49.705212 
L 150.034318 -50.818533 
L 151.734341 -52.053684 
L 153.434364 -53.404604 
L 155.134387 -54.863282 
L 156.83441 -56.418156 
L 158.534433 -58.058468 
L 160.234456 -59.765975 
L 161.934479 -61.525756 
L 163.634502 -63.324332 
L 165.334524 -65.145315 
L 165.334524 -68.920964 
L 165.334524 -68.920964 
L 163.634502 -66.627043 
L 161.934479 -64.401268 
L 160.234456 -62.260322 
L 158.534433 -60.219534 
L 156.83441 -58.28735 
L 155.134387 -56.47156 
L 153.434364 -54.783283 
L 151.734341 -53.232018 
L 150.034318 -51.817969 
L 148.334295 -50.546718 
L 146.634273 -49.418793 
L 144.93425 -48.433045 
L 143.234227 -47.583537 
L 141.534204 -46.862582 
L 139.834181 -46.258695 
L 138.134158 -45.758936 
L 136.434135 -45.349415 
L 134.734112 -45.01628 
L 133.034089 -44.745991 
L 131.334067 -44.526731 
L 129.634044 -44.348722 
L 127.934021 -44.204319 
L 126.233998 -44.087351 
L 124.533975 -43.992847 
L 122.833952 -43.916831 
L 121.133929 -43.856045 
L 119.433906 -43.807704 
L 117.733883 -43.769596 
L 116.033861 -43.739744 
L 114.333838 -43.71649 
L 112.633815 -43.698439 
L 110.933792 -43.684439 
L 109.233769 -43.673477 
L 107.533746 -43.664813 
L 105.833723 -43.657882 
L 104.1337 -43.65231 
L 102.433677 -43.647823 
L 100.733654 -43.644212 
L 99.033632 -43.641308 
L 97.333609 -43.63897 
L 95.633586 -43.637089 
L 93.933563 -43.635577 
L 92.23354 -43.634362 
L 90.533517 -43.633389 
L 88.833494 -43.632611 
L 87.133471 -43.631993 
L 85.433448 -43.631503 
L 83.733426 -43.631117 
L 82.033403 -43.630816 
L 80.33338 -43.630584 
L 78.633357 -43.630407 
L 76.933334 -43.630274 
L 75.233311 -43.630178 
L 73.533288 -43.63011 
L 71.833265 -43.630063 
L 70.133242 -43.630033 
L 68.43322 -43.630016 
L 66.733197 -43.630006 
L 65.033174 -43.630002 
L 63.333151 -43.63 
L 61.633128 -43.63 
L 59.933105 -43.63 
z
" id="mc2537b5c45" style="stroke:#6495ed;stroke-opacity:0.6;"/>
    </defs>
    <g clip-path="url(#p40fe95a79e)">
     <use style="fill:#6495ed;fill-opacity:0.6;stroke:#6495ed;stroke-opacity:0.6;" x="0" xlink:href="#mc2537b5c45" y="170.07874"/>
    </g>
   </g>
   <g id="PolyCollection_3">
    <defs>
     <path d="M 165.334524 -73.564432 
L 165.334524 -62.181149 
L 167.034547 -63.667115 
L 168.73457 -65.134693 
L 170.434593 -66.574498 
L 172.134616 -67.973217 
L 173.834639 -69.323292 
L 175.534662 -70.622097 
L 177.234685 -71.865205 
L 178.934708 -73.048372 
L 180.63473 -74.164007 
L 182.334753 -75.215608 
L 184.034776 -76.201937 
L 185.734799 -77.124139 
L 187.434822 -77.982938 
L 189.134845 -78.778856 
L 190.834868 -79.513917 
L 192.534891 -80.189653 
L 194.234914 -80.809776 
L 195.934936 -81.377386 
L 197.634959 -81.895275 
L 199.334982 -82.366971 
L 201.035005 -82.794584 
L 201.035005 -158.55874 
L 201.035005 -158.55874 
L 199.334982 -154.567285 
L 197.634959 -150.4977 
L 195.934936 -146.353857 
L 194.234914 -142.137693 
L 192.534891 -137.849923 
L 190.834868 -133.467908 
L 189.134845 -129.024509 
L 187.434822 -124.572926 
L 185.734799 -120.143802 
L 184.034776 -115.748328 
L 182.334753 -111.369688 
L 180.63473 -107.075799 
L 178.934708 -102.869848 
L 177.234685 -98.748543 
L 175.534662 -94.721237 
L 173.834639 -90.827918 
L 172.134616 -87.051753 
L 170.434593 -83.424088 
L 168.73457 -79.979157 
L 167.034547 -76.687852 
L 165.334524 -73.564432 
z
" id="m90ad4f6df2" style="stroke:#228b22;stroke-opacity:0.4;"/>
    </defs>
    <g clip-path="url(#p40fe95a79e)">
     <use style="fill:#228b22;fill-opacity:0.4;stroke:#228b22;stroke-opacity:0.4;" x="0" xlink:href="#m90ad4f6df2" y="170.07874"/>
    </g>
   </g>
   <g id="PolyCollection_4">
    <defs>
     <path d="M 165.334524 -68.920964 
L 165.334524 -65.145315 
L 167.034547 -66.981187 
L 168.73457 -68.814039 
L 170.434593 -70.629823 
L 172.134616 -72.417618 
L 173.834639 -74.168867 
L 175.534662 -75.87386 
L 177.234685 -77.523095 
L 178.934708 -79.109576 
L 180.63473 -80.631487 
L 182.334753 -82.082249 
L 184.034776 -83.458145 
L 185.734799 -84.759879 
L 187.434822 -85.984181 
L 189.134845 -87.132109 
L 190.834868 -88.204268 
L 192.534891 -89.202591 
L 194.234914 -90.12886 
L 195.934936 -90.984883 
L 197.634959 -91.773119 
L 199.334982 -92.49775 
L 201.035005 -93.161078 
L 201.035005 -112.329048 
L 201.035005 -112.329048 
L 199.334982 -111.012411 
L 197.634959 -109.603962 
L 195.934936 -108.101649 
L 194.234914 -106.502236 
L 192.534891 -104.811956 
L 190.834868 -103.026837 
L 189.134845 -101.149755 
L 187.434822 -99.181662 
L 185.734799 -97.126304 
L 184.034776 -94.991547 
L 182.334753 -92.7874 
L 180.63473 -90.519231 
L 178.934708 -88.192802 
L 177.234685 -85.819458 
L 175.534662 -83.409956 
L 173.834639 -80.978042 
L 172.134616 -78.536153 
L 170.434593 -76.095187 
L 168.73457 -73.668879 
L 167.034547 -71.270432 
L 165.334524 -68.920964 
z
" id="mde710bbaa5" style="stroke:#228b22;stroke-opacity:0.6;"/>
    </defs>
    <g clip-path="url(#p40fe95a79e)">
     <use style="fill:#228b22;fill-opacity:0.6;stroke:#228b22;stroke-opacity:0.6;" x="0" xlink:href="#mde710bbaa5" y="170.07874"/>
    </g>
   </g>
   <g id="PathCollection_1">
    <defs>
     <path d="M -0.866025 1.732051 
L 0 0.866025 
L 0.866025 1.732051 
L 1.732051 0.866025 
L 0.866025 0 
L 1.732051 -0.866025 
L 0.866025 -1.732051 
L 0 -0.866025 
L -0.866025 -1.732051 
L -1.732051 -0.866025 
L -0.866025 0 
L -1.732051 0.866025 
z
" id="mdfcc60d989" style="stroke:#8a2be2;"/>
    </defs>
    <g clip-path="url(#p40fe95a79e)">
     <use style="fill:#8a2be2;stroke:#8a2be2;" x="131.334067" xlink:href="#mdfcc60d989" y="23.012874"/>
    </g>
   </g>
   <g id="PathCollection_2">
    <defs>
     <path d="M 0 -1.732051 
L -0.38887 -0.535233 
L -1.647278 -0.535233 
L -0.629204 0.204441 
L -1.018074 1.401259 
L -0 0.661585 
L 1.018074 1.401259 
L 0.629204 0.204441 
L 1.647278 -0.535233 
L 0.38887 -0.535233 
z
" id="m19353e9553" style="stroke:#000000;"/>
    </defs>
    <g clip-path="url(#p40fe95a79e)">
     <use style="stroke:#000000;" x="124.533975" xlink:href="#m19353e9553" y="23.012874"/>
    </g>
   </g>
   <g id="PathCollection_3">
    <defs>
     <path d="M -1.732051 1.732051 
L 1.732051 1.732051 
L 1.732051 -1.732051 
L -1.732051 -1.732051 
z
" id="m902159b837" style="stroke:#c71585;"/>
    </defs>
    <g clip-path="url(#p40fe95a79e)">
     <use style="fill:#c71585;stroke:#c71585;" x="134.734112" xlink:href="#m902159b837" y="23.012874"/>
    </g>
   </g>
   <g id="PathCollection_4">
    <defs>
     <path d="M 0 -1.732051 
L -1.647278 -0.535233 
L -1.018074 1.401259 
L 1.018074 1.401259 
L 1.647278 -0.535233 
z
" id="m95b9e44f0a" style="stroke:#800000;"/>
    </defs>
    <g clip-path="url(#p40fe95a79e)">
     <use style="fill:#800000;stroke:#800000;" x="131.334067" xlink:href="#m95b9e44f0a" y="28.184667"/>
    </g>
   </g>
   <g id="PathCollection_5">
    <defs>
     <path d="M -0 2.44949 
L 1.469694 0 
L 0 -2.44949 
L -1.469694 -0 
z
" id="md9172fc8b2" style="stroke:#556b2f;"/>
    </defs>
    <g clip-path="url(#p40fe95a79e)">
     <use style="fill:#556b2f;stroke:#556b2f;" x="131.334067" xlink:href="#md9172fc8b2" y="28.184667"/>
    </g>
   </g>
   <g id="patch_3">
    <path clip-path="url(#p40fe95a79e)" d="M 59.253096 126.44874 
L 60.613114 126.44874 
L 60.613114 126.44874 
L 59.253096 126.44874 
z
" style="fill:#1f77b4;opacity:0.5;"/>
   </g>
   <g id="patch_4">
    <path clip-path="url(#p40fe95a79e)" d="M 60.953119 126.44874 
L 62.313137 126.44874 
L 62.313137 126.44874 
L 60.953119 126.44874 
z
" style="fill:#1f77b4;opacity:0.5;"/>
   </g>
   <g id="patch_5">
    <path clip-path="url(#p40fe95a79e)" d="M 62.653142 126.44874 
L 64.01316 126.44874 
L 64.01316 126.44874 
L 62.653142 126.44874 
z
" style="fill:#1f77b4;opacity:0.5;"/>
   </g>
   <g id="patch_6">
    <path clip-path="url(#p40fe95a79e)" d="M 64.353165 126.44874 
L 65.713183 126.44874 
L 65.713183 126.44874 
L 64.353165 126.44874 
z
" style="fill:#1f77b4;opacity:0.5;"/>
   </g>
   <g id="patch_7">
    <path clip-path="url(#p40fe95a79e)" d="M 66.053187 126.44874 
L 67.413206 126.44874 
L 67.413206 126.44874 
L 66.053187 126.44874 
z
" style="fill:#1f77b4;opacity:0.5;"/>
   </g>
   <g id="patch_8">
    <path clip-path="url(#p40fe95a79e)" d="M 67.75321 126.44874 
L 69.113229 126.44874 
L 69.113229 126.44874 
L 67.75321 126.44874 
z
" style="fill:#1f77b4;opacity:0.5;"/>
   </g>
   <g id="patch_9">
    <path clip-path="url(#p40fe95a79e)" d="M 69.453233 126.44874 
L 70.813252 126.44874 
L 70.813252 126.44874 
L 69.453233 126.44874 
z
" style="fill:#1f77b4;opacity:0.5;"/>
   </g>
   <g id="patch_10">
    <path clip-path="url(#p40fe95a79e)" d="M 71.153256 126.44874 
L 72.513274 126.44874 
L 72.513274 126.44874 
L 71.153256 126.44874 
z
" style="fill:#1f77b4;opacity:0.5;"/>
   </g>
   <g id="patch_11">
    <path clip-path="url(#p40fe95a79e)" d="M 72.853279 126.44874 
L 74.213297 126.44874 
L 74.213297 126.44874 
L 72.853279 126.44874 
z
" style="fill:#1f77b4;opacity:0.5;"/>
   </g>
   <g id="patch_12">
    <path clip-path="url(#p40fe95a79e)" d="M 74.553302 126.44874 
L 75.91332 126.44874 
L 75.91332 126.44874 
L 74.553302 126.44874 
z
" style="fill:#1f77b4;opacity:0.5;"/>
   </g>
   <g id="patch_13">
    <path clip-path="url(#p40fe95a79e)" d="M 76.253325 126.44874 
L 77.613343 126.44874 
L 77.613343 126.44874 
L 76.253325 126.44874 
z
" style="fill:#1f77b4;opacity:0.5;"/>
   </g>
   <g id="patch_14">
    <path clip-path="url(#p40fe95a79e)" d="M 77.953348 126.44874 
L 79.313366 126.44874 
L 79.313366 126.44874 
L 77.953348 126.44874 
z
" style="fill:#1f77b4;opacity:0.5;"/>
   </g>
   <g id="patch_15">
    <path clip-path="url(#p40fe95a79e)" d="M 79.653371 126.44874 
L 81.013389 126.44874 
L 81.013389 126.44874 
L 79.653371 126.44874 
z
" style="fill:#1f77b4;opacity:0.5;"/>
   </g>
   <g id="patch_16">
    <path clip-path="url(#p40fe95a79e)" d="M 81.353394 126.44874 
L 82.713412 126.44874 
L 82.713412 126.44874 
L 81.353394 126.44874 
z
" style="fill:#1f77b4;opacity:0.5;"/>
   </g>
   <g id="patch_17">
    <path clip-path="url(#p40fe95a79e)" d="M 83.053416 126.44874 
L 84.413435 126.44874 
L 84.413435 126.44874 
L 83.053416 126.44874 
z
" style="fill:#1f77b4;opacity:0.5;"/>
   </g>
   <g id="patch_18">
    <path clip-path="url(#p40fe95a79e)" d="M 84.753439 126.44874 
L 86.113458 126.44874 
L 86.113458 126.44874 
L 84.753439 126.44874 
z
" style="fill:#1f77b4;opacity:0.5;"/>
   </g>
   <g id="patch_19">
    <path clip-path="url(#p40fe95a79e)" d="M 86.453462 126.44874 
L 87.813481 126.44874 
L 87.813481 126.44874 
L 86.453462 126.44874 
z
" style="fill:#1f77b4;opacity:0.5;"/>
   </g>
   <g id="patch_20">
    <path clip-path="url(#p40fe95a79e)" d="M 88.153485 126.44874 
L 89.513503 126.44874 
L 89.513503 126.44874 
L 88.153485 126.44874 
z
" style="fill:#1f77b4;opacity:0.5;"/>
   </g>
   <g id="patch_21">
    <path clip-path="url(#p40fe95a79e)" d="M 89.853508 126.44874 
L 91.213526 126.44874 
L 91.213526 126.44874 
L 89.853508 126.44874 
z
" style="fill:#1f77b4;opacity:0.5;"/>
   </g>
   <g id="patch_22">
    <path clip-path="url(#p40fe95a79e)" d="M 91.553531 126.44874 
L 92.913549 126.44874 
L 92.913549 126.44874 
L 91.553531 126.44874 
z
" style="fill:#1f77b4;opacity:0.5;"/>
   </g>
   <g id="patch_23">
    <path clip-path="url(#p40fe95a79e)" d="M 93.253554 126.44874 
L 94.613572 126.44874 
L 94.613572 126.44874 
L 93.253554 126.44874 
z
" style="fill:#1f77b4;opacity:0.5;"/>
   </g>
   <g id="patch_24">
    <path clip-path="url(#p40fe95a79e)" d="M 94.953577 126.44874 
L 96.313595 126.44874 
L 96.313595 126.44874 
L 94.953577 126.44874 
z
" style="fill:#1f77b4;opacity:0.5;"/>
   </g>
   <g id="patch_25">
    <path clip-path="url(#p40fe95a79e)" d="M 96.6536 126.44874 
L 98.013618 126.44874 
L 98.013618 126.44874 
L 96.6536 126.44874 
z
" style="fill:#1f77b4;opacity:0.5;"/>
   </g>
   <g id="patch_26">
    <path clip-path="url(#p40fe95a79e)" d="M 98.353622 126.44874 
L 99.713641 126.44874 
L 99.713641 126.44874 
L 98.353622 126.44874 
z
" style="fill:#1f77b4;opacity:0.5;"/>
   </g>
   <g id="patch_27">
    <path clip-path="url(#p40fe95a79e)" d="M 100.053645 126.44874 
L 101.413664 126.44874 
L 101.413664 126.44874 
L 100.053645 126.44874 
z
" style="fill:#1f77b4;opacity:0.5;"/>
   </g>
   <g id="patch_28">
    <path clip-path="url(#p40fe95a79e)" d="M 101.753668 126.44874 
L 103.113687 126.44874 
L 103.113687 126.44874 
L 101.753668 126.44874 
z
" style="fill:#1f77b4;opacity:0.5;"/>
   </g>
   <g id="patch_29">
    <path clip-path="url(#p40fe95a79e)" d="M 103.453691 126.44874 
L 104.813709 126.44874 
L 104.813709 126.44874 
L 103.453691 126.44874 
z
" style="fill:#1f77b4;opacity:0.5;"/>
   </g>
   <g id="patch_30">
    <path clip-path="url(#p40fe95a79e)" d="M 105.153714 126.44874 
L 106.513732 126.44874 
L 106.513732 126.444145 
L 105.153714 126.444145 
z
" style="fill:#1f77b4;opacity:0.5;"/>
   </g>
   <g id="patch_31">
    <path clip-path="url(#p40fe95a79e)" d="M 106.853737 126.44874 
L 108.213755 126.44874 
L 108.213755 126.444145 
L 106.853737 126.444145 
z
" style="fill:#1f77b4;opacity:0.5;"/>
   </g>
   <g id="patch_32">
    <path clip-path="url(#p40fe95a79e)" d="M 108.55376 126.44874 
L 109.913778 126.44874 
L 109.913778 126.434954 
L 108.55376 126.434954 
z
" style="fill:#1f77b4;opacity:0.5;"/>
   </g>
   <g id="patch_33">
    <path clip-path="url(#p40fe95a79e)" d="M 110.253783 126.44874 
L 111.613801 126.44874 
L 111.613801 126.423465 
L 110.253783 126.423465 
z
" style="fill:#1f77b4;opacity:0.5;"/>
   </g>
   <g id="patch_34">
    <path clip-path="url(#p40fe95a79e)" d="M 111.953806 126.44874 
L 113.313824 126.44874 
L 113.313824 126.421167 
L 111.953806 126.421167 
z
" style="fill:#1f77b4;opacity:0.5;"/>
   </g>
   <g id="patch_35">
    <path clip-path="url(#p40fe95a79e)" d="M 113.653828 126.44874 
L 115.013847 126.44874 
L 115.013847 126.409679 
L 113.653828 126.409679 
z
" style="fill:#1f77b4;opacity:0.5;"/>
   </g>
   <g id="patch_36">
    <path clip-path="url(#p40fe95a79e)" d="M 115.353851 126.44874 
L 116.71387 126.44874 
L 116.71387 126.400488 
L 115.353851 126.400488 
z
" style="fill:#1f77b4;opacity:0.5;"/>
   </g>
   <g id="patch_37">
    <path clip-path="url(#p40fe95a79e)" d="M 117.053874 126.44874 
L 118.413893 126.44874 
L 118.413893 126.382106 
L 117.053874 126.382106 
z
" style="fill:#1f77b4;opacity:0.5;"/>
   </g>
   <g id="patch_38">
    <path clip-path="url(#p40fe95a79e)" d="M 118.753897 126.44874 
L 120.113915 126.44874 
L 120.113915 126.36832 
L 118.753897 126.36832 
z
" style="fill:#1f77b4;opacity:0.5;"/>
   </g>
   <g id="patch_39">
    <path clip-path="url(#p40fe95a79e)" d="M 120.45392 126.44874 
L 121.813938 126.44874 
L 121.813938 126.329259 
L 120.45392 126.329259 
z
" style="fill:#1f77b4;opacity:0.5;"/>
   </g>
   <g id="patch_40">
    <path clip-path="url(#p40fe95a79e)" d="M 122.153943 126.44874 
L 123.513961 126.44874 
L 123.513961 126.264922 
L 122.153943 126.264922 
z
" style="fill:#1f77b4;opacity:0.5;"/>
   </g>
   <g id="patch_41">
    <path clip-path="url(#p40fe95a79e)" d="M 123.853966 126.44874 
L 125.213984 126.44874 
L 125.213984 126.202884 
L 123.853966 126.202884 
z
" style="fill:#1f77b4;opacity:0.5;"/>
   </g>
   <g id="patch_42">
    <path clip-path="url(#p40fe95a79e)" d="M 125.553989 126.44874 
L 126.914007 126.44874 
L 126.914007 126.108677 
L 125.553989 126.108677 
z
" style="fill:#1f77b4;opacity:0.5;"/>
   </g>
   <g id="patch_43">
    <path clip-path="url(#p40fe95a79e)" d="M 127.254012 126.44874 
L 128.61403 126.44874 
L 128.61403 125.996089 
L 127.254012 125.996089 
z
" style="fill:#1f77b4;opacity:0.5;"/>
   </g>
   <g id="patch_44">
    <path clip-path="url(#p40fe95a79e)" d="M 128.954035 126.44874 
L 130.314053 126.44874 
L 130.314053 125.913371 
L 128.954035 125.913371 
z
" style="fill:#1f77b4;opacity:0.5;"/>
   </g>
   <g id="patch_45">
    <path clip-path="url(#p40fe95a79e)" d="M 130.654057 126.44874 
L 132.014076 126.44874 
L 132.014076 125.607774 
L 130.654057 125.607774 
z
" style="fill:#1f77b4;opacity:0.5;"/>
   </g>
   <g id="patch_46">
    <path clip-path="url(#p40fe95a79e)" d="M 132.35408 126.44874 
L 133.714099 126.44874 
L 133.714099 125.382597 
L 132.35408 125.382597 
z
" style="fill:#1f77b4;opacity:0.5;"/>
   </g>
   <g id="patch_47">
    <path clip-path="url(#p40fe95a79e)" d="M 134.054103 126.44874 
L 135.414122 126.44874 
L 135.414122 124.998877 
L 134.054103 124.998877 
z
" style="fill:#1f77b4;opacity:0.5;"/>
   </g>
   <g id="patch_48">
    <path clip-path="url(#p40fe95a79e)" d="M 135.754126 126.44874 
L 137.114144 126.44874 
L 137.114144 124.548524 
L 135.754126 124.548524 
z
" style="fill:#1f77b4;opacity:0.5;"/>
   </g>
   <g id="patch_49">
    <path clip-path="url(#p40fe95a79e)" d="M 137.454149 126.44874 
L 138.814167 126.44874 
L 138.814167 124.114254 
L 137.454149 124.114254 
z
" style="fill:#1f77b4;opacity:0.5;"/>
   </g>
   <g id="patch_50">
    <path clip-path="url(#p40fe95a79e)" d="M 139.154172 126.44874 
L 140.51419 126.44874 
L 140.51419 123.535228 
L 139.154172 123.535228 
z
" style="fill:#1f77b4;opacity:0.5;"/>
   </g>
   <g id="patch_51">
    <path clip-path="url(#p40fe95a79e)" d="M 140.854195 126.44874 
L 142.214213 126.44874 
L 142.214213 123.137722 
L 140.854195 123.137722 
z
" style="fill:#1f77b4;opacity:0.5;"/>
   </g>
   <g id="patch_52">
    <path clip-path="url(#p40fe95a79e)" d="M 142.554218 126.44874 
L 143.914236 126.44874 
L 143.914236 122.287565 
L 142.554218 122.287565 
z
" style="fill:#1f77b4;opacity:0.5;"/>
   </g>
   <g id="patch_53">
    <path clip-path="url(#p40fe95a79e)" d="M 144.254241 126.44874 
L 145.614259 126.44874 
L 145.614259 121.490255 
L 144.254241 121.490255 
z
" style="fill:#1f77b4;opacity:0.5;"/>
   </g>
   <g id="patch_54">
    <path clip-path="url(#p40fe95a79e)" d="M 145.954263 126.44874 
L 147.314282 126.44874 
L 147.314282 120.692945 
L 145.954263 120.692945 
z
" style="fill:#1f77b4;opacity:0.5;"/>
   </g>
   <g id="patch_55">
    <path clip-path="url(#p40fe95a79e)" d="M 147.654286 126.44874 
L 149.014305 126.44874 
L 149.014305 119.606123 
L 147.654286 119.606123 
z
" style="fill:#1f77b4;opacity:0.5;"/>
   </g>
   <g id="patch_56">
    <path clip-path="url(#p40fe95a79e)" d="M 149.354309 126.44874 
L 150.714328 126.44874 
L 150.714328 118.6204 
L 149.354309 118.6204 
z
" style="fill:#1f77b4;opacity:0.5;"/>
   </g>
   <g id="patch_57">
    <path clip-path="url(#p40fe95a79e)" d="M 151.054332 126.44874 
L 152.41435 126.44874 
L 152.41435 117.184323 
L 151.054332 117.184323 
z
" style="fill:#1f77b4;opacity:0.5;"/>
   </g>
   <g id="patch_58">
    <path clip-path="url(#p40fe95a79e)" d="M 152.754355 126.44874 
L 154.114373 126.44874 
L 154.114373 115.357634 
L 152.754355 115.357634 
z
" style="fill:#1f77b4;opacity:0.5;"/>
   </g>
   <g id="patch_59">
    <path clip-path="url(#p40fe95a79e)" d="M 154.454378 126.44874 
L 155.814396 126.44874 
L 155.814396 113.866412 
L 154.454378 113.866412 
z
" style="fill:#1f77b4;opacity:0.5;"/>
   </g>
   <g id="patch_60">
    <path clip-path="url(#p40fe95a79e)" d="M 156.154401 126.44874 
L 157.514419 126.44874 
L 157.514419 112.485481 
L 156.154401 112.485481 
z
" style="fill:#1f77b4;opacity:0.5;"/>
   </g>
   <g id="patch_61">
    <path clip-path="url(#p40fe95a79e)" d="M 157.854424 126.44874 
L 159.214442 126.44874 
L 159.214442 110.778273 
L 157.854424 110.778273 
z
" style="fill:#1f77b4;opacity:0.5;"/>
   </g>
   <g id="patch_62">
    <path clip-path="url(#p40fe95a79e)" d="M 159.554447 126.44874 
L 160.914465 126.44874 
L 160.914465 109.204333 
L 159.554447 109.204333 
z
" style="fill:#1f77b4;opacity:0.5;"/>
   </g>
   <g id="patch_63">
    <path clip-path="url(#p40fe95a79e)" d="M 161.254469 126.44874 
L 162.614488 126.44874 
L 162.614488 107.687836 
L 161.254469 107.687836 
z
" style="fill:#1f77b4;opacity:0.5;"/>
   </g>
   <g id="patch_64">
    <path clip-path="url(#p40fe95a79e)" d="M 162.954492 126.44874 
L 164.314511 126.44874 
L 164.314511 105.456748 
L 162.954492 105.456748 
z
" style="fill:#1f77b4;opacity:0.5;"/>
   </g>
   <g id="patch_65">
    <path clip-path="url(#p40fe95a79e)" d="M 164.654515 126.44874 
L 166.014534 126.44874 
L 166.014534 103.418668 
L 164.654515 103.418668 
z
" style="fill:#1f77b4;opacity:0.5;"/>
   </g>
   <g id="patch_66">
    <path clip-path="url(#p40fe95a79e)" d="M 166.354538 126.44874 
L 167.714556 126.44874 
L 167.714556 101.676994 
L 166.354538 101.676994 
z
" style="fill:#1f77b4;opacity:0.5;"/>
   </g>
   <g id="patch_67">
    <path clip-path="url(#p40fe95a79e)" d="M 168.054561 126.44874 
L 169.414579 126.44874 
L 169.414579 99.815839 
L 168.054561 99.815839 
z
" style="fill:#1f77b4;opacity:0.5;"/>
   </g>
   <g id="patch_68">
    <path clip-path="url(#p40fe95a79e)" d="M 169.754584 126.44874 
L 171.114602 126.44874 
L 171.114602 97.88805 
L 169.754584 97.88805 
z
" style="fill:#1f77b4;opacity:0.5;"/>
   </g>
   <g id="patch_69">
    <path clip-path="url(#p40fe95a79e)" d="M 171.454607 126.44874 
L 172.814625 126.44874 
L 172.814625 96.217606 
L 171.454607 96.217606 
z
" style="fill:#1f77b4;opacity:0.5;"/>
   </g>
   <g id="patch_70">
    <path clip-path="url(#p40fe95a79e)" d="M 173.15463 126.44874 
L 174.514648 126.44874 
L 174.514648 94.471336 
L 173.15463 94.471336 
z
" style="fill:#1f77b4;opacity:0.5;"/>
   </g>
   <g id="patch_71">
    <path clip-path="url(#p40fe95a79e)" d="M 174.854653 126.44874 
L 176.214671 126.44874 
L 176.214671 92.715876 
L 174.854653 92.715876 
z
" style="fill:#1f77b4;opacity:0.5;"/>
   </g>
   <g id="patch_72">
    <path clip-path="url(#p40fe95a79e)" d="M 176.554676 126.44874 
L 177.914694 126.44874 
L 177.914694 91.151127 
L 176.554676 91.151127 
z
" style="fill:#1f77b4;opacity:0.5;"/>
   </g>
   <g id="patch_73">
    <path clip-path="url(#p40fe95a79e)" d="M 178.254698 126.44874 
L 179.614717 126.44874 
L 179.614717 89.940228 
L 178.254698 89.940228 
z
" style="fill:#1f77b4;opacity:0.5;"/>
   </g>
   <g id="patch_74">
    <path clip-path="url(#p40fe95a79e)" d="M 179.954721 126.44874 
L 181.31474 126.44874 
L 181.31474 88.478876 
L 179.954721 88.478876 
z
" style="fill:#1f77b4;opacity:0.5;"/>
   </g>
   <g id="patch_75">
    <path clip-path="url(#p40fe95a79e)" d="M 181.654744 126.44874 
L 183.014762 126.44874 
L 183.014762 87.091052 
L 181.654744 87.091052 
z
" style="fill:#1f77b4;opacity:0.5;"/>
   </g>
   <g id="patch_76">
    <path clip-path="url(#p40fe95a79e)" d="M 183.354767 126.44874 
L 184.714785 126.44874 
L 184.714785 85.850282 
L 183.354767 85.850282 
z
" style="fill:#1f77b4;opacity:0.5;"/>
   </g>
   <g id="patch_77">
    <path clip-path="url(#p40fe95a79e)" d="M 185.05479 126.44874 
L 186.414808 126.44874 
L 186.414808 84.444076 
L 185.05479 84.444076 
z
" style="fill:#1f77b4;opacity:0.5;"/>
   </g>
   <g id="patch_78">
    <path clip-path="url(#p40fe95a79e)" d="M 186.754813 126.44874 
L 188.114831 126.44874 
L 188.114831 83.134374 
L 186.754813 83.134374 
z
" style="fill:#1f77b4;opacity:0.5;"/>
   </g>
   <g id="patch_79">
    <path clip-path="url(#p40fe95a79e)" d="M 188.454836 126.44874 
L 189.814854 126.44874 
L 189.814854 81.712084 
L 188.454836 81.712084 
z
" style="fill:#1f77b4;opacity:0.5;"/>
   </g>
   <g id="patch_80">
    <path clip-path="url(#p40fe95a79e)" d="M 190.154859 126.44874 
L 191.514877 126.44874 
L 191.514877 80.721765 
L 190.154859 80.721765 
z
" style="fill:#1f77b4;opacity:0.5;"/>
   </g>
   <g id="patch_81">
    <path clip-path="url(#p40fe95a79e)" d="M 191.854882 126.44874 
L 193.2149 126.44874 
L 193.2149 79.42585 
L 191.854882 79.42585 
z
" style="fill:#1f77b4;opacity:0.5;"/>
   </g>
   <g id="patch_82">
    <path clip-path="url(#p40fe95a79e)" d="M 193.554904 126.44874 
L 194.914923 126.44874 
L 194.914923 78.038025 
L 193.554904 78.038025 
z
" style="fill:#1f77b4;opacity:0.5;"/>
   </g>
   <g id="patch_83">
    <path clip-path="url(#p40fe95a79e)" d="M 195.254927 126.44874 
L 196.614946 126.44874 
L 196.614946 76.709942 
L 195.254927 76.709942 
z
" style="fill:#1f77b4;opacity:0.5;"/>
   </g>
   <g id="patch_84">
    <path clip-path="url(#p40fe95a79e)" d="M 196.95495 126.44874 
L 198.314969 126.44874 
L 198.314969 75.503637 
L 196.95495 75.503637 
z
" style="fill:#1f77b4;opacity:0.5;"/>
   </g>
   <g id="patch_85">
    <path clip-path="url(#p40fe95a79e)" d="M 198.654973 126.44874 
L 200.014991 126.44874 
L 200.014991 74.182447 
L 198.654973 74.182447 
z
" style="fill:#1f77b4;opacity:0.5;"/>
   </g>
   <g id="patch_86">
    <path clip-path="url(#p40fe95a79e)" d="M 200.354996 126.44874 
L 201.715014 126.44874 
L 201.715014 73.07954 
L 200.354996 73.07954 
z
" style="fill:#1f77b4;opacity:0.5;"/>
   </g>
   <g id="matplotlib.axis_1">
    <g id="xtick_1">
     <g id="line2d_1">
      <defs>
       <path d="M 0 0 
L 0 3.5 
" id="m6b84dc5297" style="stroke:#000000;stroke-width:0.8;"/>
      </defs>
      <g>
       <use style="stroke:#000000;stroke-width:0.8;" x="201.035005" xlink:href="#m6b84dc5297" y="126.44874"/>
      </g>
     </g>
     <g id="text_1">
      <!-- 19 Apr -->
      <defs>
       <path d="M 12.40625 8.296875 
L 28.515625 8.296875 
L 28.515625 63.921875 
L 10.984375 60.40625 
L 10.984375 69.390625 
L 28.421875 72.90625 
L 38.28125 72.90625 
L 38.28125 8.296875 
L 54.390625 8.296875 
L 54.390625 0 
L 12.40625 0 
z
" id="DejaVuSans-49"/>
       <path d="M 10.984375 1.515625 
L 10.984375 10.5 
Q 14.703125 8.734375 18.5 7.8125 
Q 22.3125 6.890625 25.984375 6.890625 
Q 35.75 6.890625 40.890625 13.453125 
Q 46.046875 20.015625 46.78125 33.40625 
Q 43.953125 29.203125 39.59375 26.953125 
Q 35.25 24.703125 29.984375 24.703125 
Q 19.046875 24.703125 12.671875 31.3125 
Q 6.296875 37.9375 6.296875 49.421875 
Q 6.296875 60.640625 12.9375 67.421875 
Q 19.578125 74.21875 30.609375 74.21875 
Q 43.265625 74.21875 49.921875 64.515625 
Q 56.59375 54.828125 56.59375 36.375 
Q 56.59375 19.140625 48.40625 8.859375 
Q 40.234375 -1.421875 26.421875 -1.421875 
Q 22.703125 -1.421875 18.890625 -0.6875 
Q 15.09375 0.046875 10.984375 1.515625 
z
M 30.609375 32.421875 
Q 37.25 32.421875 41.125 36.953125 
Q 45.015625 41.5 45.015625 49.421875 
Q 45.015625 57.28125 41.125 61.84375 
Q 37.25 66.40625 30.609375 66.40625 
Q 23.96875 66.40625 20.09375 61.84375 
Q 16.21875 57.28125 16.21875 49.421875 
Q 16.21875 41.5 20.09375 36.953125 
Q 23.96875 32.421875 30.609375 32.421875 
z
" id="DejaVuSans-57"/>
       <path id="DejaVuSans-32"/>
       <path d="M 34.1875 63.1875 
L 20.796875 26.90625 
L 47.609375 26.90625 
z
M 28.609375 72.90625 
L 39.796875 72.90625 
L 67.578125 0 
L 57.328125 0 
L 50.6875 18.703125 
L 17.828125 18.703125 
L 11.1875 0 
L 0.78125 0 
z
" id="DejaVuSans-65"/>
       <path d="M 18.109375 8.203125 
L 18.109375 -20.796875 
L 9.078125 -20.796875 
L 9.078125 54.6875 
L 18.109375 54.6875 
L 18.109375 46.390625 
Q 20.953125 51.265625 25.265625 53.625 
Q 29.59375 56 35.59375 56 
Q 45.5625 56 51.78125 48.09375 
Q 58.015625 40.1875 58.015625 27.296875 
Q 58.015625 14.40625 51.78125 6.484375 
Q 45.5625 -1.421875 35.59375 -1.421875 
Q 29.59375 -1.421875 25.265625 0.953125 
Q 20.953125 3.328125 18.109375 8.203125 
z
M 48.6875 27.296875 
Q 48.6875 37.203125 44.609375 42.84375 
Q 40.53125 48.484375 33.40625 48.484375 
Q 26.265625 48.484375 22.1875 42.84375 
Q 18.109375 37.203125 18.109375 27.296875 
Q 18.109375 17.390625 22.1875 11.75 
Q 26.265625 6.109375 33.40625 6.109375 
Q 40.53125 6.109375 44.609375 11.75 
Q 48.6875 17.390625 48.6875 27.296875 
z
" id="DejaVuSans-112"/>
       <path d="M 41.109375 46.296875 
Q 39.59375 47.171875 37.8125 47.578125 
Q 36.03125 48 33.890625 48 
Q 26.265625 48 22.1875 43.046875 
Q 18.109375 38.09375 18.109375 28.8125 
L 18.109375 0 
L 9.078125 0 
L 9.078125 54.6875 
L 18.109375 54.6875 
L 18.109375 46.1875 
Q 20.953125 51.171875 25.484375 53.578125 
Q 30.03125 56 36.53125 56 
Q 37.453125 56 38.578125 55.875 
Q 39.703125 55.765625 41.0625 55.515625 
z
" id="DejaVuSans-114"/>
      </defs>
      <g transform="translate(203.242505 160.01124)rotate(-90)scale(0.08 -0.08)">
       <use xlink:href="#DejaVuSans-49"/>
       <use x="63.623047" xlink:href="#DejaVuSans-57"/>
       <use x="127.246094" xlink:href="#DejaVuSans-32"/>
       <use x="159.033203" xlink:href="#DejaVuSans-65"/>
       <use x="227.441406" xlink:href="#DejaVuSans-112"/>
       <use x="290.917969" xlink:href="#DejaVuSans-114"/>
      </g>
     </g>
    </g>
    <g id="xtick_2">
     <g id="line2d_2">
      <g>
       <use style="stroke:#000000;stroke-width:0.8;" x="189.134845" xlink:href="#m6b84dc5297" y="126.44874"/>
      </g>
     </g>
     <g id="text_2">
      <!-- 12 Apr -->
      <defs>
       <path d="M 19.1875 8.296875 
L 53.609375 8.296875 
L 53.609375 0 
L 7.328125 0 
L 7.328125 8.296875 
Q 12.9375 14.109375 22.625 23.890625 
Q 32.328125 33.6875 34.8125 36.53125 
Q 39.546875 41.84375 41.421875 45.53125 
Q 43.3125 49.21875 43.3125 52.78125 
Q 43.3125 58.59375 39.234375 62.25 
Q 35.15625 65.921875 28.609375 65.921875 
Q 23.96875 65.921875 18.8125 64.3125 
Q 13.671875 62.703125 7.8125 59.421875 
L 7.8125 69.390625 
Q 13.765625 71.78125 18.9375 73 
Q 24.125 74.21875 28.421875 74.21875 
Q 39.75 74.21875 46.484375 68.546875 
Q 53.21875 62.890625 53.21875 53.421875 
Q 53.21875 48.921875 51.53125 44.890625 
Q 49.859375 40.875 45.40625 35.40625 
Q 44.1875 33.984375 37.640625 27.21875 
Q 31.109375 20.453125 19.1875 8.296875 
z
" id="DejaVuSans-50"/>
      </defs>
      <g transform="translate(191.342345 160.01124)rotate(-90)scale(0.08 -0.08)">
       <use xlink:href="#DejaVuSans-49"/>
       <use x="63.623047" xlink:href="#DejaVuSans-50"/>
       <use x="127.246094" xlink:href="#DejaVuSans-32"/>
       <use x="159.033203" xlink:href="#DejaVuSans-65"/>
       <use x="227.441406" xlink:href="#DejaVuSans-112"/>
       <use x="290.917969" xlink:href="#DejaVuSans-114"/>
      </g>
     </g>
    </g>
    <g id="xtick_3">
     <g id="line2d_3">
      <g>
       <use style="stroke:#000000;stroke-width:0.8;" x="177.234685" xlink:href="#m6b84dc5297" y="126.44874"/>
      </g>
     </g>
     <g id="text_3">
      <!-- 5 Apr -->
      <defs>
       <path d="M 10.796875 72.90625 
L 49.515625 72.90625 
L 49.515625 64.59375 
L 19.828125 64.59375 
L 19.828125 46.734375 
Q 21.96875 47.46875 24.109375 47.828125 
Q 26.265625 48.1875 28.421875 48.1875 
Q 40.625 48.1875 47.75 41.5 
Q 54.890625 34.8125 54.890625 23.390625 
Q 54.890625 11.625 47.5625 5.09375 
Q 40.234375 -1.421875 26.90625 -1.421875 
Q 22.3125 -1.421875 17.546875 -0.640625 
Q 12.796875 0.140625 7.71875 1.703125 
L 7.71875 11.625 
Q 12.109375 9.234375 16.796875 8.0625 
Q 21.484375 6.890625 26.703125 6.890625 
Q 35.15625 6.890625 40.078125 11.328125 
Q 45.015625 15.765625 45.015625 23.390625 
Q 45.015625 31 40.078125 35.4375 
Q 35.15625 39.890625 26.703125 39.890625 
Q 22.75 39.890625 18.8125 39.015625 
Q 14.890625 38.140625 10.796875 36.28125 
z
" id="DejaVuSans-53"/>
      </defs>
      <g transform="translate(179.442185 154.92124)rotate(-90)scale(0.08 -0.08)">
       <use xlink:href="#DejaVuSans-53"/>
       <use x="63.623047" xlink:href="#DejaVuSans-32"/>
       <use x="95.410156" xlink:href="#DejaVuSans-65"/>
       <use x="163.818359" xlink:href="#DejaVuSans-112"/>
       <use x="227.294922" xlink:href="#DejaVuSans-114"/>
      </g>
     </g>
    </g>
    <g id="xtick_4">
     <g id="line2d_4">
      <g>
       <use style="stroke:#000000;stroke-width:0.8;" x="165.334524" xlink:href="#m6b84dc5297" y="126.44874"/>
      </g>
     </g>
     <g id="text_4">
      <!-- 29 Mar -->
      <defs>
       <path d="M 9.8125 72.90625 
L 24.515625 72.90625 
L 43.109375 23.296875 
L 61.8125 72.90625 
L 76.515625 72.90625 
L 76.515625 0 
L 66.890625 0 
L 66.890625 64.015625 
L 48.09375 14.015625 
L 38.1875 14.015625 
L 19.390625 64.015625 
L 19.390625 0 
L 9.8125 0 
z
" id="DejaVuSans-77"/>
       <path d="M 34.28125 27.484375 
Q 23.390625 27.484375 19.1875 25 
Q 14.984375 22.515625 14.984375 16.5 
Q 14.984375 11.71875 18.140625 8.90625 
Q 21.296875 6.109375 26.703125 6.109375 
Q 34.1875 6.109375 38.703125 11.40625 
Q 43.21875 16.703125 43.21875 25.484375 
L 43.21875 27.484375 
z
M 52.203125 31.203125 
L 52.203125 0 
L 43.21875 0 
L 43.21875 8.296875 
Q 40.140625 3.328125 35.546875 0.953125 
Q 30.953125 -1.421875 24.3125 -1.421875 
Q 15.921875 -1.421875 10.953125 3.296875 
Q 6 8.015625 6 15.921875 
Q 6 25.140625 12.171875 29.828125 
Q 18.359375 34.515625 30.609375 34.515625 
L 43.21875 34.515625 
L 43.21875 35.40625 
Q 43.21875 41.609375 39.140625 45 
Q 35.0625 48.390625 27.6875 48.390625 
Q 23 48.390625 18.546875 47.265625 
Q 14.109375 46.140625 10.015625 43.890625 
L 10.015625 52.203125 
Q 14.9375 54.109375 19.578125 55.046875 
Q 24.21875 56 28.609375 56 
Q 40.484375 56 46.34375 49.84375 
Q 52.203125 43.703125 52.203125 31.203125 
z
" id="DejaVuSans-97"/>
      </defs>
      <g transform="translate(167.542024 161.26499)rotate(-90)scale(0.08 -0.08)">
       <use xlink:href="#DejaVuSans-50"/>
       <use x="63.623047" xlink:href="#DejaVuSans-57"/>
       <use x="127.246094" xlink:href="#DejaVuSans-32"/>
       <use x="159.033203" xlink:href="#DejaVuSans-77"/>
       <use x="245.3125" xlink:href="#DejaVuSans-97"/>
       <use x="306.591797" xlink:href="#DejaVuSans-114"/>
      </g>
     </g>
    </g>
    <g id="xtick_5">
     <g id="line2d_5">
      <g>
       <use style="stroke:#000000;stroke-width:0.8;" x="153.434364" xlink:href="#m6b84dc5297" y="126.44874"/>
      </g>
     </g>
     <g id="text_5">
      <!-- 22 Mar -->
      <g transform="translate(155.641864 161.26499)rotate(-90)scale(0.08 -0.08)">
       <use xlink:href="#DejaVuSans-50"/>
       <use x="63.623047" xlink:href="#DejaVuSans-50"/>
       <use x="127.246094" xlink:href="#DejaVuSans-32"/>
       <use x="159.033203" xlink:href="#DejaVuSans-77"/>
       <use x="245.3125" xlink:href="#DejaVuSans-97"/>
       <use x="306.591797" xlink:href="#DejaVuSans-114"/>
      </g>
     </g>
    </g>
    <g id="xtick_6">
     <g id="line2d_6">
      <g>
       <use style="stroke:#000000;stroke-width:0.8;" x="141.534204" xlink:href="#m6b84dc5297" y="126.44874"/>
      </g>
     </g>
     <g id="text_6">
      <!-- 15 Mar -->
      <g transform="translate(143.741704 161.26499)rotate(-90)scale(0.08 -0.08)">
       <use xlink:href="#DejaVuSans-49"/>
       <use x="63.623047" xlink:href="#DejaVuSans-53"/>
       <use x="127.246094" xlink:href="#DejaVuSans-32"/>
       <use x="159.033203" xlink:href="#DejaVuSans-77"/>
       <use x="245.3125" xlink:href="#DejaVuSans-97"/>
       <use x="306.591797" xlink:href="#DejaVuSans-114"/>
      </g>
     </g>
    </g>
    <g id="xtick_7">
     <g id="line2d_7">
      <g>
       <use style="stroke:#000000;stroke-width:0.8;" x="129.634044" xlink:href="#m6b84dc5297" y="126.44874"/>
      </g>
     </g>
     <g id="text_7">
      <!-- 8 Mar -->
      <defs>
       <path d="M 31.78125 34.625 
Q 24.75 34.625 20.71875 30.859375 
Q 16.703125 27.09375 16.703125 20.515625 
Q 16.703125 13.921875 20.71875 10.15625 
Q 24.75 6.390625 31.78125 6.390625 
Q 38.8125 6.390625 42.859375 10.171875 
Q 46.921875 13.96875 46.921875 20.515625 
Q 46.921875 27.09375 42.890625 30.859375 
Q 38.875 34.625 31.78125 34.625 
z
M 21.921875 38.8125 
Q 15.578125 40.375 12.03125 44.71875 
Q 8.5 49.078125 8.5 55.328125 
Q 8.5 64.0625 14.71875 69.140625 
Q 20.953125 74.21875 31.78125 74.21875 
Q 42.671875 74.21875 48.875 69.140625 
Q 55.078125 64.0625 55.078125 55.328125 
Q 55.078125 49.078125 51.53125 44.71875 
Q 48 40.375 41.703125 38.8125 
Q 48.828125 37.15625 52.796875 32.3125 
Q 56.78125 27.484375 56.78125 20.515625 
Q 56.78125 9.90625 50.3125 4.234375 
Q 43.84375 -1.421875 31.78125 -1.421875 
Q 19.734375 -1.421875 13.25 4.234375 
Q 6.78125 9.90625 6.78125 20.515625 
Q 6.78125 27.484375 10.78125 32.3125 
Q 14.796875 37.15625 21.921875 38.8125 
z
M 18.3125 54.390625 
Q 18.3125 48.734375 21.84375 45.5625 
Q 25.390625 42.390625 31.78125 42.390625 
Q 38.140625 42.390625 41.71875 45.5625 
Q 45.3125 48.734375 45.3125 54.390625 
Q 45.3125 60.0625 41.71875 63.234375 
Q 38.140625 66.40625 31.78125 66.40625 
Q 25.390625 66.40625 21.84375 63.234375 
Q 18.3125 60.0625 18.3125 54.390625 
z
" id="DejaVuSans-56"/>
      </defs>
      <g transform="translate(131.841544 156.17499)rotate(-90)scale(0.08 -0.08)">
       <use xlink:href="#DejaVuSans-56"/>
       <use x="63.623047" xlink:href="#DejaVuSans-32"/>
       <use x="95.410156" xlink:href="#DejaVuSans-77"/>
       <use x="181.689453" xlink:href="#DejaVuSans-97"/>
       <use x="242.96875" xlink:href="#DejaVuSans-114"/>
      </g>
     </g>
    </g>
    <g id="xtick_8">
     <g id="line2d_8">
      <g>
       <use style="stroke:#000000;stroke-width:0.8;" x="117.733883" xlink:href="#m6b84dc5297" y="126.44874"/>
      </g>
     </g>
     <g id="text_8">
      <!-- 1 Mar -->
      <g transform="translate(119.941383 156.17499)rotate(-90)scale(0.08 -0.08)">
       <use xlink:href="#DejaVuSans-49"/>
       <use x="63.623047" xlink:href="#DejaVuSans-32"/>
       <use x="95.410156" xlink:href="#DejaVuSans-77"/>
       <use x="181.689453" xlink:href="#DejaVuSans-97"/>
       <use x="242.96875" xlink:href="#DejaVuSans-114"/>
      </g>
     </g>
    </g>
    <g id="xtick_9">
     <g id="line2d_9">
      <g>
       <use style="stroke:#000000;stroke-width:0.8;" x="105.833723" xlink:href="#m6b84dc5297" y="126.44874"/>
      </g>
     </g>
     <g id="text_9">
      <!-- 23 Feb -->
      <defs>
       <path d="M 40.578125 39.3125 
Q 47.65625 37.796875 51.625 33 
Q 55.609375 28.21875 55.609375 21.1875 
Q 55.609375 10.40625 48.1875 4.484375 
Q 40.765625 -1.421875 27.09375 -1.421875 
Q 22.515625 -1.421875 17.65625 -0.515625 
Q 12.796875 0.390625 7.625 2.203125 
L 7.625 11.71875 
Q 11.71875 9.328125 16.59375 8.109375 
Q 21.484375 6.890625 26.8125 6.890625 
Q 36.078125 6.890625 40.9375 10.546875 
Q 45.796875 14.203125 45.796875 21.1875 
Q 45.796875 27.640625 41.28125 31.265625 
Q 36.765625 34.90625 28.71875 34.90625 
L 20.21875 34.90625 
L 20.21875 43.015625 
L 29.109375 43.015625 
Q 36.375 43.015625 40.234375 45.921875 
Q 44.09375 48.828125 44.09375 54.296875 
Q 44.09375 59.90625 40.109375 62.90625 
Q 36.140625 65.921875 28.71875 65.921875 
Q 24.65625 65.921875 20.015625 65.03125 
Q 15.375 64.15625 9.8125 62.3125 
L 9.8125 71.09375 
Q 15.4375 72.65625 20.34375 73.4375 
Q 25.25 74.21875 29.59375 74.21875 
Q 40.828125 74.21875 47.359375 69.109375 
Q 53.90625 64.015625 53.90625 55.328125 
Q 53.90625 49.265625 50.4375 45.09375 
Q 46.96875 40.921875 40.578125 39.3125 
z
" id="DejaVuSans-51"/>
       <path d="M 9.8125 72.90625 
L 51.703125 72.90625 
L 51.703125 64.59375 
L 19.671875 64.59375 
L 19.671875 43.109375 
L 48.578125 43.109375 
L 48.578125 34.8125 
L 19.671875 34.8125 
L 19.671875 0 
L 9.8125 0 
z
" id="DejaVuSans-70"/>
       <path d="M 56.203125 29.59375 
L 56.203125 25.203125 
L 14.890625 25.203125 
Q 15.484375 15.921875 20.484375 11.0625 
Q 25.484375 6.203125 34.421875 6.203125 
Q 39.59375 6.203125 44.453125 7.46875 
Q 49.3125 8.734375 54.109375 11.28125 
L 54.109375 2.78125 
Q 49.265625 0.734375 44.1875 -0.34375 
Q 39.109375 -1.421875 33.890625 -1.421875 
Q 20.796875 -1.421875 13.15625 6.1875 
Q 5.515625 13.8125 5.515625 26.8125 
Q 5.515625 40.234375 12.765625 48.109375 
Q 20.015625 56 32.328125 56 
Q 43.359375 56 49.78125 48.890625 
Q 56.203125 41.796875 56.203125 29.59375 
z
M 47.21875 32.234375 
Q 47.125 39.59375 43.09375 43.984375 
Q 39.0625 48.390625 32.421875 48.390625 
Q 24.90625 48.390625 20.390625 44.140625 
Q 15.875 39.890625 15.1875 32.171875 
z
" id="DejaVuSans-101"/>
       <path d="M 48.6875 27.296875 
Q 48.6875 37.203125 44.609375 42.84375 
Q 40.53125 48.484375 33.40625 48.484375 
Q 26.265625 48.484375 22.1875 42.84375 
Q 18.109375 37.203125 18.109375 27.296875 
Q 18.109375 17.390625 22.1875 11.75 
Q 26.265625 6.109375 33.40625 6.109375 
Q 40.53125 6.109375 44.609375 11.75 
Q 48.6875 17.390625 48.6875 27.296875 
z
M 18.109375 46.390625 
Q 20.953125 51.265625 25.265625 53.625 
Q 29.59375 56 35.59375 56 
Q 45.5625 56 51.78125 48.09375 
Q 58.015625 40.1875 58.015625 27.296875 
Q 58.015625 14.40625 51.78125 6.484375 
Q 45.5625 -1.421875 35.59375 -1.421875 
Q 29.59375 -1.421875 25.265625 0.953125 
Q 20.953125 3.328125 18.109375 8.203125 
L 18.109375 0 
L 9.078125 0 
L 9.078125 75.984375 
L 18.109375 75.984375 
z
" id="DejaVuSans-98"/>
      </defs>
      <g transform="translate(108.041223 160.33374)rotate(-90)scale(0.08 -0.08)">
       <use xlink:href="#DejaVuSans-50"/>
       <use x="63.623047" xlink:href="#DejaVuSans-51"/>
       <use x="127.246094" xlink:href="#DejaVuSans-32"/>
       <use x="159.033203" xlink:href="#DejaVuSans-70"/>
       <use x="211.052734" xlink:href="#DejaVuSans-101"/>
       <use x="272.576172" xlink:href="#DejaVuSans-98"/>
      </g>
     </g>
    </g>
    <g id="xtick_10">
     <g id="line2d_10">
      <g>
       <use style="stroke:#000000;stroke-width:0.8;" x="93.933563" xlink:href="#m6b84dc5297" y="126.44874"/>
      </g>
     </g>
     <g id="text_10">
      <!-- 16 Feb -->
      <defs>
       <path d="M 33.015625 40.375 
Q 26.375 40.375 22.484375 35.828125 
Q 18.609375 31.296875 18.609375 23.390625 
Q 18.609375 15.53125 22.484375 10.953125 
Q 26.375 6.390625 33.015625 6.390625 
Q 39.65625 6.390625 43.53125 10.953125 
Q 47.40625 15.53125 47.40625 23.390625 
Q 47.40625 31.296875 43.53125 35.828125 
Q 39.65625 40.375 33.015625 40.375 
z
M 52.59375 71.296875 
L 52.59375 62.3125 
Q 48.875 64.0625 45.09375 64.984375 
Q 41.3125 65.921875 37.59375 65.921875 
Q 27.828125 65.921875 22.671875 59.328125 
Q 17.53125 52.734375 16.796875 39.40625 
Q 19.671875 43.65625 24.015625 45.921875 
Q 28.375 48.1875 33.59375 48.1875 
Q 44.578125 48.1875 50.953125 41.515625 
Q 57.328125 34.859375 57.328125 23.390625 
Q 57.328125 12.15625 50.6875 5.359375 
Q 44.046875 -1.421875 33.015625 -1.421875 
Q 20.359375 -1.421875 13.671875 8.265625 
Q 6.984375 17.96875 6.984375 36.375 
Q 6.984375 53.65625 15.1875 63.9375 
Q 23.390625 74.21875 37.203125 74.21875 
Q 40.921875 74.21875 44.703125 73.484375 
Q 48.484375 72.75 52.59375 71.296875 
z
" id="DejaVuSans-54"/>
      </defs>
      <g transform="translate(96.141063 160.33374)rotate(-90)scale(0.08 -0.08)">
       <use xlink:href="#DejaVuSans-49"/>
       <use x="63.623047" xlink:href="#DejaVuSans-54"/>
       <use x="127.246094" xlink:href="#DejaVuSans-32"/>
       <use x="159.033203" xlink:href="#DejaVuSans-70"/>
       <use x="211.052734" xlink:href="#DejaVuSans-101"/>
       <use x="272.576172" xlink:href="#DejaVuSans-98"/>
      </g>
     </g>
    </g>
    <g id="xtick_11">
     <g id="line2d_11">
      <g>
       <use style="stroke:#000000;stroke-width:0.8;" x="82.033403" xlink:href="#m6b84dc5297" y="126.44874"/>
      </g>
     </g>
     <g id="text_11">
      <!-- 9 Feb -->
      <g transform="translate(84.240903 155.24374)rotate(-90)scale(0.08 -0.08)">
       <use xlink:href="#DejaVuSans-57"/>
       <use x="63.623047" xlink:href="#DejaVuSans-32"/>
       <use x="95.410156" xlink:href="#DejaVuSans-70"/>
       <use x="147.429688" xlink:href="#DejaVuSans-101"/>
       <use x="208.953125" xlink:href="#DejaVuSans-98"/>
      </g>
     </g>
    </g>
    <g id="xtick_12">
     <g id="line2d_12">
      <g>
       <use style="stroke:#000000;stroke-width:0.8;" x="70.133242" xlink:href="#m6b84dc5297" y="126.44874"/>
      </g>
     </g>
     <g id="text_12">
      <!-- 2 Feb -->
      <g transform="translate(72.340742 155.24374)rotate(-90)scale(0.08 -0.08)">
       <use xlink:href="#DejaVuSans-50"/>
       <use x="63.623047" xlink:href="#DejaVuSans-32"/>
       <use x="95.410156" xlink:href="#DejaVuSans-70"/>
       <use x="147.429688" xlink:href="#DejaVuSans-101"/>
       <use x="208.953125" xlink:href="#DejaVuSans-98"/>
      </g>
     </g>
    </g>
   </g>
   <g id="matplotlib.axis_2">
    <g id="ytick_1">
     <g id="line2d_13">
      <defs>
       <path d="M 0 0 
L -3.5 0 
" id="m3dde6a416f" style="stroke:#000000;stroke-width:0.8;"/>
      </defs>
      <g>
       <use style="stroke:#000000;stroke-width:0.8;" x="52.13" xlink:href="#m3dde6a416f" y="126.44874"/>
      </g>
     </g>
     <g id="text_13">
      <!-- 0 -->
      <defs>
       <path d="M 31.78125 66.40625 
Q 24.171875 66.40625 20.328125 58.90625 
Q 16.5 51.421875 16.5 36.375 
Q 16.5 21.390625 20.328125 13.890625 
Q 24.171875 6.390625 31.78125 6.390625 
Q 39.453125 6.390625 43.28125 13.890625 
Q 47.125 21.390625 47.125 36.375 
Q 47.125 51.421875 43.28125 58.90625 
Q 39.453125 66.40625 31.78125 66.40625 
z
M 31.78125 74.21875 
Q 44.046875 74.21875 50.515625 64.515625 
Q 56.984375 54.828125 56.984375 36.375 
Q 56.984375 17.96875 50.515625 8.265625 
Q 44.046875 -1.421875 31.78125 -1.421875 
Q 19.53125 -1.421875 13.0625 8.265625 
Q 6.59375 17.96875 6.59375 36.375 
Q 6.59375 54.828125 13.0625 64.515625 
Q 19.53125 74.21875 31.78125 74.21875 
z
" id="DejaVuSans-48"/>
      </defs>
      <g transform="translate(40.04 129.488115)scale(0.08 -0.08)">
       <use xlink:href="#DejaVuSans-48"/>
      </g>
     </g>
    </g>
    <g id="ytick_2">
     <g id="line2d_14">
      <g>
       <use style="stroke:#000000;stroke-width:0.8;" x="52.13" xlink:href="#m3dde6a416f" y="103.471515"/>
      </g>
     </g>
     <g id="text_14">
      <!-- 10000 -->
      <g transform="translate(19.68 106.51089)scale(0.08 -0.08)">
       <use xlink:href="#DejaVuSans-49"/>
       <use x="63.623047" xlink:href="#DejaVuSans-48"/>
       <use x="127.246094" xlink:href="#DejaVuSans-48"/>
       <use x="190.869141" xlink:href="#DejaVuSans-48"/>
       <use x="254.492188" xlink:href="#DejaVuSans-48"/>
      </g>
     </g>
    </g>
    <g id="ytick_3">
     <g id="line2d_15">
      <g>
       <use style="stroke:#000000;stroke-width:0.8;" x="52.13" xlink:href="#m3dde6a416f" y="80.494291"/>
      </g>
     </g>
     <g id="text_15">
      <!-- 20000 -->
      <g transform="translate(19.68 83.533666)scale(0.08 -0.08)">
       <use xlink:href="#DejaVuSans-50"/>
       <use x="63.623047" xlink:href="#DejaVuSans-48"/>
       <use x="127.246094" xlink:href="#DejaVuSans-48"/>
       <use x="190.869141" xlink:href="#DejaVuSans-48"/>
       <use x="254.492188" xlink:href="#DejaVuSans-48"/>
      </g>
     </g>
    </g>
    <g id="ytick_4">
     <g id="line2d_16">
      <g>
       <use style="stroke:#000000;stroke-width:0.8;" x="52.13" xlink:href="#m3dde6a416f" y="57.517066"/>
      </g>
     </g>
     <g id="text_16">
      <!-- 30000 -->
      <g transform="translate(19.68 60.556441)scale(0.08 -0.08)">
       <use xlink:href="#DejaVuSans-51"/>
       <use x="63.623047" xlink:href="#DejaVuSans-48"/>
       <use x="127.246094" xlink:href="#DejaVuSans-48"/>
       <use x="190.869141" xlink:href="#DejaVuSans-48"/>
       <use x="254.492188" xlink:href="#DejaVuSans-48"/>
      </g>
     </g>
    </g>
    <g id="ytick_5">
     <g id="line2d_17">
      <g>
       <use style="stroke:#000000;stroke-width:0.8;" x="52.13" xlink:href="#m3dde6a416f" y="34.539841"/>
      </g>
     </g>
     <g id="text_17">
      <!-- 40000 -->
      <defs>
       <path d="M 37.796875 64.3125 
L 12.890625 25.390625 
L 37.796875 25.390625 
z
M 35.203125 72.90625 
L 47.609375 72.90625 
L 47.609375 25.390625 
L 58.015625 25.390625 
L 58.015625 17.1875 
L 47.609375 17.1875 
L 47.609375 0 
L 37.796875 0 
L 37.796875 17.1875 
L 4.890625 17.1875 
L 4.890625 26.703125 
z
" id="DejaVuSans-52"/>
      </defs>
      <g transform="translate(19.68 37.579216)scale(0.08 -0.08)">
       <use xlink:href="#DejaVuSans-52"/>
       <use x="63.623047" xlink:href="#DejaVuSans-48"/>
       <use x="127.246094" xlink:href="#DejaVuSans-48"/>
       <use x="190.869141" xlink:href="#DejaVuSans-48"/>
       <use x="254.492188" xlink:href="#DejaVuSans-48"/>
      </g>
     </g>
    </g>
    <g id="ytick_6">
     <g id="line2d_18">
      <g>
       <use style="stroke:#000000;stroke-width:0.8;" x="52.13" xlink:href="#m3dde6a416f" y="11.562616"/>
      </g>
     </g>
     <g id="text_18">
      <!-- 50000 -->
      <g transform="translate(19.68 14.601991)scale(0.08 -0.08)">
       <use xlink:href="#DejaVuSans-53"/>
       <use x="63.623047" xlink:href="#DejaVuSans-48"/>
       <use x="127.246094" xlink:href="#DejaVuSans-48"/>
       <use x="190.869141" xlink:href="#DejaVuSans-48"/>
       <use x="254.492188" xlink:href="#DejaVuSans-48"/>
      </g>
     </g>
    </g>
    <g id="text_19">
     <!-- Cumulative deaths -->
     <defs>
      <path d="M 64.40625 67.28125 
L 64.40625 56.890625 
Q 59.421875 61.53125 53.78125 63.8125 
Q 48.140625 66.109375 41.796875 66.109375 
Q 29.296875 66.109375 22.65625 58.46875 
Q 16.015625 50.828125 16.015625 36.375 
Q 16.015625 21.96875 22.65625 14.328125 
Q 29.296875 6.6875 41.796875 6.6875 
Q 48.140625 6.6875 53.78125 8.984375 
Q 59.421875 11.28125 64.40625 15.921875 
L 64.40625 5.609375 
Q 59.234375 2.09375 53.4375 0.328125 
Q 47.65625 -1.421875 41.21875 -1.421875 
Q 24.65625 -1.421875 15.125 8.703125 
Q 5.609375 18.84375 5.609375 36.375 
Q 5.609375 53.953125 15.125 64.078125 
Q 24.65625 74.21875 41.21875 74.21875 
Q 47.75 74.21875 53.53125 72.484375 
Q 59.328125 70.75 64.40625 67.28125 
z
" id="DejaVuSans-67"/>
      <path d="M 8.5 21.578125 
L 8.5 54.6875 
L 17.484375 54.6875 
L 17.484375 21.921875 
Q 17.484375 14.15625 20.5 10.265625 
Q 23.53125 6.390625 29.59375 6.390625 
Q 36.859375 6.390625 41.078125 11.03125 
Q 45.3125 15.671875 45.3125 23.6875 
L 45.3125 54.6875 
L 54.296875 54.6875 
L 54.296875 0 
L 45.3125 0 
L 45.3125 8.40625 
Q 42.046875 3.421875 37.71875 1 
Q 33.40625 -1.421875 27.6875 -1.421875 
Q 18.265625 -1.421875 13.375 4.4375 
Q 8.5 10.296875 8.5 21.578125 
z
M 31.109375 56 
z
" id="DejaVuSans-117"/>
      <path d="M 52 44.1875 
Q 55.375 50.25 60.0625 53.125 
Q 64.75 56 71.09375 56 
Q 79.640625 56 84.28125 50.015625 
Q 88.921875 44.046875 88.921875 33.015625 
L 88.921875 0 
L 79.890625 0 
L 79.890625 32.71875 
Q 79.890625 40.578125 77.09375 44.375 
Q 74.3125 48.1875 68.609375 48.1875 
Q 61.625 48.1875 57.5625 43.546875 
Q 53.515625 38.921875 53.515625 30.90625 
L 53.515625 0 
L 44.484375 0 
L 44.484375 32.71875 
Q 44.484375 40.625 41.703125 44.40625 
Q 38.921875 48.1875 33.109375 48.1875 
Q 26.21875 48.1875 22.15625 43.53125 
Q 18.109375 38.875 18.109375 30.90625 
L 18.109375 0 
L 9.078125 0 
L 9.078125 54.6875 
L 18.109375 54.6875 
L 18.109375 46.1875 
Q 21.1875 51.21875 25.484375 53.609375 
Q 29.78125 56 35.6875 56 
Q 41.65625 56 45.828125 52.96875 
Q 50 49.953125 52 44.1875 
z
" id="DejaVuSans-109"/>
      <path d="M 9.421875 75.984375 
L 18.40625 75.984375 
L 18.40625 0 
L 9.421875 0 
z
" id="DejaVuSans-108"/>
      <path d="M 18.3125 70.21875 
L 18.3125 54.6875 
L 36.8125 54.6875 
L 36.8125 47.703125 
L 18.3125 47.703125 
L 18.3125 18.015625 
Q 18.3125 11.328125 20.140625 9.421875 
Q 21.96875 7.515625 27.59375 7.515625 
L 36.8125 7.515625 
L 36.8125 0 
L 27.59375 0 
Q 17.1875 0 13.234375 3.875 
Q 9.28125 7.765625 9.28125 18.015625 
L 9.28125 47.703125 
L 2.6875 47.703125 
L 2.6875 54.6875 
L 9.28125 54.6875 
L 9.28125 70.21875 
z
" id="DejaVuSans-116"/>
      <path d="M 9.421875 54.6875 
L 18.40625 54.6875 
L 18.40625 0 
L 9.421875 0 
z
M 9.421875 75.984375 
L 18.40625 75.984375 
L 18.40625 64.59375 
L 9.421875 64.59375 
z
" id="DejaVuSans-105"/>
      <path d="M 2.984375 54.6875 
L 12.5 54.6875 
L 29.59375 8.796875 
L 46.6875 54.6875 
L 56.203125 54.6875 
L 35.6875 0 
L 23.484375 0 
z
" id="DejaVuSans-118"/>
      <path d="M 45.40625 46.390625 
L 45.40625 75.984375 
L 54.390625 75.984375 
L 54.390625 0 
L 45.40625 0 
L 45.40625 8.203125 
Q 42.578125 3.328125 38.25 0.953125 
Q 33.9375 -1.421875 27.875 -1.421875 
Q 17.96875 -1.421875 11.734375 6.484375 
Q 5.515625 14.40625 5.515625 27.296875 
Q 5.515625 40.1875 11.734375 48.09375 
Q 17.96875 56 27.875 56 
Q 33.9375 56 38.25 53.625 
Q 42.578125 51.265625 45.40625 46.390625 
z
M 14.796875 27.296875 
Q 14.796875 17.390625 18.875 11.75 
Q 22.953125 6.109375 30.078125 6.109375 
Q 37.203125 6.109375 41.296875 11.75 
Q 45.40625 17.390625 45.40625 27.296875 
Q 45.40625 37.203125 41.296875 42.84375 
Q 37.203125 48.484375 30.078125 48.484375 
Q 22.953125 48.484375 18.875 42.84375 
Q 14.796875 37.203125 14.796875 27.296875 
z
" id="DejaVuSans-100"/>
      <path d="M 54.890625 33.015625 
L 54.890625 0 
L 45.90625 0 
L 45.90625 32.71875 
Q 45.90625 40.484375 42.875 44.328125 
Q 39.84375 48.1875 33.796875 48.1875 
Q 26.515625 48.1875 22.3125 43.546875 
Q 18.109375 38.921875 18.109375 30.90625 
L 18.109375 0 
L 9.078125 0 
L 9.078125 75.984375 
L 18.109375 75.984375 
L 18.109375 46.1875 
Q 21.34375 51.125 25.703125 53.5625 
Q 30.078125 56 35.796875 56 
Q 45.21875 56 50.046875 50.171875 
Q 54.890625 44.34375 54.890625 33.015625 
z
" id="DejaVuSans-104"/>
      <path d="M 44.28125 53.078125 
L 44.28125 44.578125 
Q 40.484375 46.53125 36.375 47.5 
Q 32.28125 48.484375 27.875 48.484375 
Q 21.1875 48.484375 17.84375 46.4375 
Q 14.5 44.390625 14.5 40.28125 
Q 14.5 37.15625 16.890625 35.375 
Q 19.28125 33.59375 26.515625 31.984375 
L 29.59375 31.296875 
Q 39.15625 29.25 43.1875 25.515625 
Q 47.21875 21.78125 47.21875 15.09375 
Q 47.21875 7.46875 41.1875 3.015625 
Q 35.15625 -1.421875 24.609375 -1.421875 
Q 20.21875 -1.421875 15.453125 -0.5625 
Q 10.6875 0.296875 5.421875 2 
L 5.421875 11.28125 
Q 10.40625 8.6875 15.234375 7.390625 
Q 20.0625 6.109375 24.8125 6.109375 
Q 31.15625 6.109375 34.5625 8.28125 
Q 37.984375 10.453125 37.984375 14.40625 
Q 37.984375 18.0625 35.515625 20.015625 
Q 33.0625 21.96875 24.703125 23.78125 
L 21.578125 24.515625 
Q 13.234375 26.265625 9.515625 29.90625 
Q 5.8125 33.546875 5.8125 39.890625 
Q 5.8125 47.609375 11.28125 51.796875 
Q 16.75 56 26.8125 56 
Q 31.78125 56 36.171875 55.265625 
Q 40.578125 54.546875 44.28125 53.078125 
z
" id="DejaVuSans-115"/>
     </defs>
     <g transform="translate(14.01625 106.72437)rotate(-90)scale(0.08 -0.08)">
      <use xlink:href="#DejaVuSans-67"/>
      <use x="69.824219" xlink:href="#DejaVuSans-117"/>
      <use x="133.203125" xlink:href="#DejaVuSans-109"/>
      <use x="230.615234" xlink:href="#DejaVuSans-117"/>
      <use x="293.994141" xlink:href="#DejaVuSans-108"/>
      <use x="321.777344" xlink:href="#DejaVuSans-97"/>
      <use x="383.056641" xlink:href="#DejaVuSans-116"/>
      <use x="422.265625" xlink:href="#DejaVuSans-105"/>
      <use x="450.048828" xlink:href="#DejaVuSans-118"/>
      <use x="509.228516" xlink:href="#DejaVuSans-101"/>
      <use x="570.751953" xlink:href="#DejaVuSans-32"/>
      <use x="602.539062" xlink:href="#DejaVuSans-100"/>
      <use x="666.015625" xlink:href="#DejaVuSans-101"/>
      <use x="727.539062" xlink:href="#DejaVuSans-97"/>
      <use x="788.818359" xlink:href="#DejaVuSans-116"/>
      <use x="828.027344" xlink:href="#DejaVuSans-104"/>
      <use x="891.40625" xlink:href="#DejaVuSans-115"/>
     </g>
    </g>
   </g>
   <g id="line2d_19">
    <path clip-path="url(#p40fe95a79e)" d="M 59.933105 126.44874 
L 61.633128 126.44874 
L 63.333151 126.44874 
L 65.033174 126.448739 
L 66.733197 126.448735 
L 68.43322 126.448728 
L 70.133242 126.448713 
L 71.833265 126.448689 
L 73.533288 126.448652 
L 75.233311 126.448597 
L 76.933334 126.448519 
L 78.633357 126.448412 
L 80.33338 126.44827 
L 82.033403 126.448081 
L 83.733426 126.447837 
L 85.433448 126.447522 
L 87.133471 126.447121 
L 88.833494 126.446612 
L 90.533517 126.445971 
L 92.23354 126.445163 
L 93.933563 126.444151 
L 95.633586 126.442884 
L 97.333609 126.4413 
L 99.033632 126.43932 
L 100.733654 126.436845 
L 102.433677 126.433753 
L 104.1337 126.429887 
L 105.833723 126.425052 
L 107.533746 126.418999 
L 109.233769 126.411378 
L 110.933792 126.401664 
L 112.633815 126.389152 
L 114.333838 126.372936 
L 116.033861 126.351899 
L 117.733883 126.324703 
L 119.433906 126.289753 
L 121.133929 126.245178 
L 122.833952 126.188801 
L 124.533975 126.118026 
L 126.233998 126.029706 
L 127.934021 125.919994 
L 129.634044 125.784146 
L 131.334067 125.616265 
L 133.034089 125.408945 
L 134.734112 125.153105 
L 136.434135 124.837742 
L 138.134158 124.450413 
L 139.834181 123.977818 
L 141.534204 123.406659 
L 143.234227 122.724809 
L 144.93425 121.922365 
L 146.634273 120.991995 
L 148.334295 119.929412 
L 150.034318 118.73328 
L 151.734341 117.405067 
L 153.434364 115.9487 
L 155.134387 114.370373 
L 156.83441 112.678463 
L 158.534433 110.882967 
L 160.234456 108.995277 
L 161.934479 107.027696 
L 163.634502 104.993031 
L 165.334524 102.904189 
" style="fill:none;stroke:#0000ff;stroke-linecap:square;stroke-opacity:0.5;"/>
   </g>
   <g id="line2d_20">
    <path clip-path="url(#p40fe95a79e)" d="M 167.034547 100.773924 
L 168.73457 98.614726 
L 170.434593 96.438708 
L 172.134616 94.257568 
L 173.834639 92.082516 
L 175.534662 89.924169 
L 177.234685 87.792451 
L 178.934708 85.696481 
L 180.63473 83.644489 
L 182.334753 81.643743 
L 184.034776 79.700506 
L 185.734799 77.820014 
L 187.434822 76.006481 
L 189.134845 74.263126 
L 190.834868 72.592214 
L 192.534891 70.995116 
L 194.234914 69.472378 
L 195.934936 68.023799 
L 197.634959 66.648514 
L 199.334982 65.34507 
L 201.035005 64.111516 
" style="fill:none;stroke:#008000;stroke-linecap:square;stroke-opacity:0.5;"/>
   </g>
   <g id="line2d_21">
    <path clip-path="url(#p40fe95a79e)" d="M 131.334067 126.44874 
L 131.334067 11.52 
" style="fill:none;stroke:#0000ff;stroke-dasharray:1.85,0.8;stroke-dashoffset:0;stroke-width:0.5;"/>
   </g>
   <g id="line2d_22">
    <path clip-path="url(#p40fe95a79e)" d="M 124.533975 126.44874 
L 124.533975 11.52 
" style="fill:none;stroke:#0000ff;stroke-dasharray:1.85,0.8;stroke-dashoffset:0;stroke-width:0.5;"/>
   </g>
   <g id="line2d_23">
    <path clip-path="url(#p40fe95a79e)" d="M 134.734112 126.44874 
L 134.734112 11.52 
" style="fill:none;stroke:#0000ff;stroke-dasharray:1.85,0.8;stroke-dashoffset:0;stroke-width:0.5;"/>
   </g>
   <g id="line2d_24">
    <path clip-path="url(#p40fe95a79e)" d="M 131.334067 126.44874 
L 131.334067 11.52 
" style="fill:none;stroke:#0000ff;stroke-dasharray:1.85,0.8;stroke-dashoffset:0;stroke-width:0.5;"/>
   </g>
   <g id="line2d_25">
    <path clip-path="url(#p40fe95a79e)" d="M 131.334067 126.44874 
L 131.334067 11.52 
" style="fill:none;stroke:#0000ff;stroke-dasharray:1.85,0.8;stroke-dashoffset:0;stroke-width:0.5;"/>
   </g>
   <g id="patch_87">
    <path d="M 52.13 126.44874 
L 52.13 11.52 
" style="fill:none;stroke:#000000;stroke-linecap:square;stroke-linejoin:miter;stroke-width:0.8;"/>
   </g>
   <g id="patch_88">
    <path d="M 208.83811 126.44874 
L 208.83811 11.52 
" style="fill:none;stroke:#000000;stroke-linecap:square;stroke-linejoin:miter;stroke-width:0.8;"/>
   </g>
   <g id="patch_89">
    <path d="M 52.13 126.44874 
L 208.83811 126.44874 
" style="fill:none;stroke:#000000;stroke-linecap:square;stroke-linejoin:miter;stroke-width:0.8;"/>
   </g>
   <g id="patch_90">
    <path d="M 52.13 11.52 
L 208.83811 11.52 
" style="fill:none;stroke:#000000;stroke-linecap:square;stroke-linejoin:miter;stroke-width:0.8;"/>
   </g>
   <g id="legend_1">
    <g id="line2d_26">
     <path d="M 59.33 103.04249 
L 75.33 103.04249 
" style="fill:none;stroke:#0000ff;stroke-linecap:square;stroke-opacity:0.5;"/>
    </g>
    <g id="line2d_27"/>
    <g id="text_20">
     <!-- Simulation -->
     <defs>
      <path d="M 53.515625 70.515625 
L 53.515625 60.890625 
Q 47.90625 63.578125 42.921875 64.890625 
Q 37.9375 66.21875 33.296875 66.21875 
Q 25.25 66.21875 20.875 63.09375 
Q 16.5 59.96875 16.5 54.203125 
Q 16.5 49.359375 19.40625 46.890625 
Q 22.3125 44.4375 30.421875 42.921875 
L 36.375 41.703125 
Q 47.40625 39.59375 52.65625 34.296875 
Q 57.90625 29 57.90625 20.125 
Q 57.90625 9.515625 50.796875 4.046875 
Q 43.703125 -1.421875 29.984375 -1.421875 
Q 24.8125 -1.421875 18.96875 -0.25 
Q 13.140625 0.921875 6.890625 3.21875 
L 6.890625 13.375 
Q 12.890625 10.015625 18.65625 8.296875 
Q 24.421875 6.59375 29.984375 6.59375 
Q 38.421875 6.59375 43.015625 9.90625 
Q 47.609375 13.234375 47.609375 19.390625 
Q 47.609375 24.75 44.3125 27.78125 
Q 41.015625 30.8125 33.5 32.328125 
L 27.484375 33.5 
Q 16.453125 35.6875 11.515625 40.375 
Q 6.59375 45.0625 6.59375 53.421875 
Q 6.59375 63.09375 13.40625 68.65625 
Q 20.21875 74.21875 32.171875 74.21875 
Q 37.3125 74.21875 42.625 73.28125 
Q 47.953125 72.359375 53.515625 70.515625 
z
" id="DejaVuSans-83"/>
      <path d="M 30.609375 48.390625 
Q 23.390625 48.390625 19.1875 42.75 
Q 14.984375 37.109375 14.984375 27.296875 
Q 14.984375 17.484375 19.15625 11.84375 
Q 23.34375 6.203125 30.609375 6.203125 
Q 37.796875 6.203125 41.984375 11.859375 
Q 46.1875 17.53125 46.1875 27.296875 
Q 46.1875 37.015625 41.984375 42.703125 
Q 37.796875 48.390625 30.609375 48.390625 
z
M 30.609375 56 
Q 42.328125 56 49.015625 48.375 
Q 55.71875 40.765625 55.71875 27.296875 
Q 55.71875 13.875 49.015625 6.21875 
Q 42.328125 -1.421875 30.609375 -1.421875 
Q 18.84375 -1.421875 12.171875 6.21875 
Q 5.515625 13.875 5.515625 27.296875 
Q 5.515625 40.765625 12.171875 48.375 
Q 18.84375 56 30.609375 56 
z
" id="DejaVuSans-111"/>
      <path d="M 54.890625 33.015625 
L 54.890625 0 
L 45.90625 0 
L 45.90625 32.71875 
Q 45.90625 40.484375 42.875 44.328125 
Q 39.84375 48.1875 33.796875 48.1875 
Q 26.515625 48.1875 22.3125 43.546875 
Q 18.109375 38.921875 18.109375 30.90625 
L 18.109375 0 
L 9.078125 0 
L 9.078125 54.6875 
L 18.109375 54.6875 
L 18.109375 46.1875 
Q 21.34375 51.125 25.703125 53.5625 
Q 30.078125 56 35.796875 56 
Q 45.21875 56 50.046875 50.171875 
Q 54.890625 44.34375 54.890625 33.015625 
z
" id="DejaVuSans-110"/>
     </defs>
     <g transform="translate(81.73 105.84249)scale(0.08 -0.08)">
      <use xlink:href="#DejaVuSans-83"/>
      <use x="63.476562" xlink:href="#DejaVuSans-105"/>
      <use x="91.259766" xlink:href="#DejaVuSans-109"/>
      <use x="188.671875" xlink:href="#DejaVuSans-117"/>
      <use x="252.050781" xlink:href="#DejaVuSans-108"/>
      <use x="279.833984" xlink:href="#DejaVuSans-97"/>
      <use x="341.113281" xlink:href="#DejaVuSans-116"/>
      <use x="380.322266" xlink:href="#DejaVuSans-105"/>
      <use x="408.105469" xlink:href="#DejaVuSans-111"/>
      <use x="469.287109" xlink:href="#DejaVuSans-110"/>
     </g>
    </g>
    <g id="line2d_28">
     <path d="M 59.33 114.78499 
L 75.33 114.78499 
" style="fill:none;stroke:#008000;stroke-linecap:square;stroke-opacity:0.5;"/>
    </g>
    <g id="line2d_29"/>
    <g id="text_21">
     <!-- Forecast -->
     <defs>
      <path d="M 48.78125 52.59375 
L 48.78125 44.1875 
Q 44.96875 46.296875 41.140625 47.34375 
Q 37.3125 48.390625 33.40625 48.390625 
Q 24.65625 48.390625 19.8125 42.84375 
Q 14.984375 37.3125 14.984375 27.296875 
Q 14.984375 17.28125 19.8125 11.734375 
Q 24.65625 6.203125 33.40625 6.203125 
Q 37.3125 6.203125 41.140625 7.25 
Q 44.96875 8.296875 48.78125 10.40625 
L 48.78125 2.09375 
Q 45.015625 0.34375 40.984375 -0.53125 
Q 36.96875 -1.421875 32.421875 -1.421875 
Q 20.0625 -1.421875 12.78125 6.34375 
Q 5.515625 14.109375 5.515625 27.296875 
Q 5.515625 40.671875 12.859375 48.328125 
Q 20.21875 56 33.015625 56 
Q 37.15625 56 41.109375 55.140625 
Q 45.0625 54.296875 48.78125 52.59375 
z
" id="DejaVuSans-99"/>
     </defs>
     <g transform="translate(81.73 117.58499)scale(0.08 -0.08)">
      <use xlink:href="#DejaVuSans-70"/>
      <use x="53.894531" xlink:href="#DejaVuSans-111"/>
      <use x="115.076172" xlink:href="#DejaVuSans-114"/>
      <use x="153.939453" xlink:href="#DejaVuSans-101"/>
      <use x="215.462891" xlink:href="#DejaVuSans-99"/>
      <use x="270.443359" xlink:href="#DejaVuSans-97"/>
      <use x="331.722656" xlink:href="#DejaVuSans-115"/>
      <use x="383.822266" xlink:href="#DejaVuSans-116"/>
     </g>
    </g>
   </g>
  </g>
  <g id="axes_2">
   <g id="matplotlib.axis_3">
    <g id="ytick_7">
     <g id="line2d_30">
      <defs>
       <path d="M 0 0 
L 3.5 0 
" id="m9bd05ccd6a" style="stroke:#000000;stroke-width:0.8;"/>
      </defs>
      <g>
       <use style="stroke:#000000;stroke-width:0.8;" x="208.83811" xlink:href="#m9bd05ccd6a" y="126.44874"/>
      </g>
     </g>
     <g id="text_22">
      <!-- 1.0 -->
      <defs>
       <path d="M 10.59375 35.5 
L 73.1875 35.5 
L 73.1875 27.203125 
L 10.59375 27.203125 
z
" id="DejaVuSans-8722"/>
       <path d="M 10.6875 12.40625 
L 21 12.40625 
L 21 0 
L 10.6875 0 
z
" id="DejaVuSans-46"/>
      </defs>
      <g transform="translate(215.83811 129.488115)scale(0.08 -0.08)">
       <use xlink:href="#DejaVuSans-8722"/>
       <use x="83.789062" xlink:href="#DejaVuSans-49"/>
       <use x="147.412109" xlink:href="#DejaVuSans-46"/>
       <use x="179.199219" xlink:href="#DejaVuSans-48"/>
      </g>
     </g>
    </g>
    <g id="ytick_8">
     <g id="line2d_31">
      <g>
       <use style="stroke:#000000;stroke-width:0.8;" x="208.83811" xlink:href="#m9bd05ccd6a" y="85.402762"/>
      </g>
     </g>
     <g id="text_23">
      <!-- 0.5 -->
      <g transform="translate(215.83811 88.442137)scale(0.08 -0.08)">
       <use xlink:href="#DejaVuSans-8722"/>
       <use x="83.789062" xlink:href="#DejaVuSans-48"/>
       <use x="147.412109" xlink:href="#DejaVuSans-46"/>
       <use x="179.199219" xlink:href="#DejaVuSans-53"/>
      </g>
     </g>
    </g>
    <g id="ytick_9">
     <g id="line2d_32">
      <g>
       <use style="stroke:#000000;stroke-width:0.8;" x="208.83811" xlink:href="#m9bd05ccd6a" y="44.356783"/>
      </g>
     </g>
     <g id="text_24">
      <!-- 0.0 -->
      <g transform="translate(215.83811 47.396158)scale(0.08 -0.08)">
       <use xlink:href="#DejaVuSans-48"/>
       <use x="63.623047" xlink:href="#DejaVuSans-46"/>
       <use x="95.410156" xlink:href="#DejaVuSans-48"/>
      </g>
     </g>
    </g>
    <g id="ytick_10">
     <g id="line2d_33">
      <g>
       <use style="stroke:#000000;stroke-width:0.8;" x="208.83811" xlink:href="#m9bd05ccd6a" y="11.52"/>
      </g>
     </g>
     <g id="text_25">
      <!-- 0.4 -->
      <g transform="translate(215.83811 14.559375)scale(0.08 -0.08)">
       <use xlink:href="#DejaVuSans-48"/>
       <use x="63.623047" xlink:href="#DejaVuSans-46"/>
       <use x="95.410156" xlink:href="#DejaVuSans-52"/>
      </g>
     </g>
    </g>
    <g id="text_26">
     <!-- Relative change -->
     <defs>
      <path d="M 44.390625 34.1875 
Q 47.5625 33.109375 50.5625 29.59375 
Q 53.5625 26.078125 56.59375 19.921875 
L 66.609375 0 
L 56 0 
L 46.6875 18.703125 
Q 43.0625 26.03125 39.671875 28.421875 
Q 36.28125 30.8125 30.421875 30.8125 
L 19.671875 30.8125 
L 19.671875 0 
L 9.8125 0 
L 9.8125 72.90625 
L 32.078125 72.90625 
Q 44.578125 72.90625 50.734375 67.671875 
Q 56.890625 62.453125 56.890625 51.90625 
Q 56.890625 45.015625 53.6875 40.46875 
Q 50.484375 35.9375 44.390625 34.1875 
z
M 19.671875 64.796875 
L 19.671875 38.921875 
L 32.078125 38.921875 
Q 39.203125 38.921875 42.84375 42.21875 
Q 46.484375 45.515625 46.484375 51.90625 
Q 46.484375 58.296875 42.84375 61.546875 
Q 39.203125 64.796875 32.078125 64.796875 
z
" id="DejaVuSans-82"/>
      <path d="M 45.40625 27.984375 
Q 45.40625 37.75 41.375 43.109375 
Q 37.359375 48.484375 30.078125 48.484375 
Q 22.859375 48.484375 18.828125 43.109375 
Q 14.796875 37.75 14.796875 27.984375 
Q 14.796875 18.265625 18.828125 12.890625 
Q 22.859375 7.515625 30.078125 7.515625 
Q 37.359375 7.515625 41.375 12.890625 
Q 45.40625 18.265625 45.40625 27.984375 
z
M 54.390625 6.78125 
Q 54.390625 -7.171875 48.1875 -13.984375 
Q 42 -20.796875 29.203125 -20.796875 
Q 24.46875 -20.796875 20.265625 -20.09375 
Q 16.0625 -19.390625 12.109375 -17.921875 
L 12.109375 -9.1875 
Q 16.0625 -11.328125 19.921875 -12.34375 
Q 23.78125 -13.375 27.78125 -13.375 
Q 36.625 -13.375 41.015625 -8.765625 
Q 45.40625 -4.15625 45.40625 5.171875 
L 45.40625 9.625 
Q 42.625 4.78125 38.28125 2.390625 
Q 33.9375 0 27.875 0 
Q 17.828125 0 11.671875 7.65625 
Q 5.515625 15.328125 5.515625 27.984375 
Q 5.515625 40.671875 11.671875 48.328125 
Q 17.828125 56 27.875 56 
Q 33.9375 56 38.28125 53.609375 
Q 42.625 51.21875 45.40625 46.390625 
L 45.40625 54.6875 
L 54.390625 54.6875 
z
" id="DejaVuSans-103"/>
     </defs>
     <g transform="translate(245.34311 101.10812)rotate(-90)scale(0.08 -0.08)">
      <use xlink:href="#DejaVuSans-82"/>
      <use x="64.982422" xlink:href="#DejaVuSans-101"/>
      <use x="126.505859" xlink:href="#DejaVuSans-108"/>
      <use x="154.289062" xlink:href="#DejaVuSans-97"/>
      <use x="215.568359" xlink:href="#DejaVuSans-116"/>
      <use x="254.777344" xlink:href="#DejaVuSans-105"/>
      <use x="282.560547" xlink:href="#DejaVuSans-118"/>
      <use x="341.740234" xlink:href="#DejaVuSans-101"/>
      <use x="403.263672" xlink:href="#DejaVuSans-32"/>
      <use x="435.050781" xlink:href="#DejaVuSans-99"/>
      <use x="490.03125" xlink:href="#DejaVuSans-104"/>
      <use x="553.410156" xlink:href="#DejaVuSans-97"/>
      <use x="614.689453" xlink:href="#DejaVuSans-110"/>
      <use x="678.068359" xlink:href="#DejaVuSans-103"/>
      <use x="741.544922" xlink:href="#DejaVuSans-101"/>
     </g>
    </g>
   </g>
   <g id="line2d_34">
    <path clip-path="url(#p40fe95a79e)" d="M 59.933105 44.356783 
L 61.633128 44.356783 
L 63.333151 44.356783 
L 65.033174 44.356783 
L 66.733197 44.356783 
L 68.43322 44.356783 
L 70.133242 44.356783 
L 71.833265 44.356783 
L 73.533288 44.356783 
L 75.233311 44.356783 
L 76.933334 44.356783 
L 78.633357 44.356783 
L 80.33338 44.356783 
L 82.033403 44.356783 
L 83.733426 44.356783 
L 85.433448 44.356783 
L 87.133471 44.356783 
L 88.833494 44.356783 
L 90.533517 44.356783 
L 92.23354 41.894024 
L 93.933563 41.894024 
L 95.633586 44.356783 
L 97.333609 41.894024 
L 99.033632 44.356783 
L 100.733654 42.714944 
L 102.433677 43.535863 
L 104.1337 45.177702 
L 105.833723 48.461381 
L 107.533746 47.640461 
L 109.233769 49.2823 
L 110.933792 55.028737 
L 112.633815 52.565979 
L 114.333838 50.924139 
L 116.033861 52.565979 
L 117.733883 59.954255 
L 119.433906 55.028737 
L 121.133929 50.10322 
L 122.833952 50.10322 
L 124.533975 54.207818 
L 126.233998 56.670576 
L 127.934021 59.954255 
L 129.634044 70.626209 
L 131.334067 68.98437 
L 133.034089 79.656325 
L 134.734112 87.044601 
L 136.434135 101.821153 
L 138.134158 105.925751 
L 139.834181 112.493107 
L 141.534204 118.239544 
L 143.234227 105.925751 
L 144.93425 107.56759 
L 146.634273 109.209429 
L 148.334295 109.209429 
L 150.034318 110.030349 
L 151.734341 114.955866 
L 153.434364 122.344142 
L 155.134387 110.030349 
L 156.83441 110.851268 
L 158.534433 112.493107 
L 160.234456 113.314027 
L 161.934479 112.493107 
L 163.634502 115.776786 
L 165.334524 121.523223 
" style="fill:none;stroke:#d62728;stroke-linecap:square;stroke-opacity:0.5;"/>
   </g>
   <g id="line2d_35">
    <path clip-path="url(#p40fe95a79e)" d="M 59.933105 44.356783 
L 61.633128 44.356783 
L 63.333151 44.356783 
L 65.033174 44.356783 
L 66.733197 44.356783 
L 68.43322 44.356783 
L 70.133242 44.356783 
L 71.833265 44.356783 
L 73.533288 44.356783 
L 75.233311 44.356783 
L 76.933334 44.356783 
L 78.633357 44.356783 
L 80.33338 44.356783 
L 82.033403 44.356783 
L 83.733426 44.356783 
L 85.433448 44.356783 
L 87.133471 44.356783 
L 88.833494 44.356783 
L 90.533517 44.356783 
L 92.23354 45.177702 
L 93.933563 42.714944 
L 95.633586 43.535863 
L 97.333609 43.535863 
L 99.033632 45.177702 
L 100.733654 43.535863 
L 102.433677 43.535863 
L 104.1337 41.894024 
L 105.833723 31.22207 
L 107.533746 25.475633 
L 109.233769 40.252185 
L 110.933792 48.461381 
L 112.633815 46.819542 
L 114.333838 45.998622 
L 116.033861 45.998622 
L 117.733883 48.461381 
L 119.433906 50.10322 
L 121.133929 45.177702 
L 122.833952 43.535863 
L 124.533975 44.356783 
L 126.233998 44.356783 
L 127.934021 43.535863 
L 129.634044 41.894024 
L 131.334067 45.177702 
L 133.034089 45.998622 
L 134.734112 55.849657 
L 136.434135 63.237933 
L 138.134158 67.342531 
L 139.834181 79.656325 
L 141.534204 93.611957 
L 143.234227 74.730807 
L 144.93425 78.014485 
L 146.634273 79.656325 
L 148.334295 80.477244 
L 150.034318 77.193566 
L 151.734341 86.223681 
L 153.434364 114.134947 
L 155.134387 81.298164 
L 156.83441 83.760922 
L 158.534433 86.223681 
L 160.234456 87.044601 
L 161.934479 82.119083 
L 163.634502 88.68644 
L 165.334524 114.134947 
" style="fill:none;stroke:#9467bd;stroke-linecap:square;stroke-opacity:0.5;"/>
   </g>
   <g id="line2d_36">
    <path clip-path="url(#p40fe95a79e)" d="M 59.933105 44.356783 
L 61.633128 44.356783 
L 63.333151 44.356783 
L 65.033174 44.356783 
L 66.733197 44.356783 
L 68.43322 44.356783 
L 70.133242 44.356783 
L 71.833265 44.356783 
L 73.533288 44.356783 
L 75.233311 44.356783 
L 76.933334 44.356783 
L 78.633357 44.356783 
L 80.33338 44.356783 
L 82.033403 44.356783 
L 83.733426 44.356783 
L 85.433448 44.356783 
L 87.133471 44.356783 
L 88.833494 44.356783 
L 90.533517 44.356783 
L 92.23354 36.968507 
L 93.933563 35.326668 
L 95.633586 41.894024 
L 97.333609 41.073105 
L 99.033632 41.894024 
L 100.733654 40.252185 
L 102.433677 40.252185 
L 104.1337 37.789426 
L 105.833723 39.431265 
L 107.533746 56.670576 
L 109.233769 59.133335 
L 110.933792 63.237933 
L 112.633815 62.417013 
L 114.333838 60.775174 
L 116.033861 57.491496 
L 117.733883 65.700692 
L 119.433906 64.879772 
L 121.133929 61.596094 
L 122.833952 59.954255 
L 124.533975 67.342531 
L 126.233998 68.163451 
L 127.934021 64.058853 
L 129.634044 66.521611 
L 131.334067 78.835405 
L 133.034089 86.223681 
L 134.734112 91.149199 
L 136.434135 99.358394 
L 138.134158 102.642073 
L 139.834181 106.74667 
L 141.534204 110.030349 
L 143.234227 105.104831 
L 144.93425 106.74667 
L 146.634273 107.56759 
L 148.334295 108.38851 
L 150.034318 108.38851 
L 151.734341 110.030349 
L 153.434364 115.776786 
L 155.134387 110.851268 
L 156.83441 110.851268 
L 158.534433 111.672188 
L 160.234456 112.493107 
L 161.934479 111.672188 
L 163.634502 111.672188 
L 165.334524 115.776786 
" style="fill:none;stroke:#e377c2;stroke-linecap:square;stroke-opacity:0.5;"/>
   </g>
   <g id="line2d_37">
    <path clip-path="url(#p40fe95a79e)" d="M 59.933105 44.356783 
L 61.633128 44.356783 
L 63.333151 44.356783 
L 65.033174 44.356783 
L 66.733197 44.356783 
L 68.43322 44.356783 
L 70.133242 44.356783 
L 71.833265 44.356783 
L 73.533288 44.356783 
L 75.233311 44.356783 
L 76.933334 44.356783 
L 78.633357 44.356783 
L 80.33338 44.356783 
L 82.033403 44.356783 
L 83.733426 44.356783 
L 85.433448 44.356783 
L 87.133471 44.356783 
L 88.833494 44.356783 
L 90.533517 44.356783 
L 92.23354 44.356783 
L 93.933563 43.535863 
L 95.633586 43.535863 
L 97.333609 43.535863 
L 99.033632 43.535863 
L 100.733654 43.535863 
L 102.433677 44.356783 
L 104.1337 44.356783 
L 105.833723 43.535863 
L 107.533746 55.849657 
L 109.233769 56.670576 
L 110.933792 54.207818 
L 112.633815 54.207818 
L 114.333838 54.207818 
L 116.033861 51.745059 
L 117.733883 48.461381 
L 119.433906 51.745059 
L 121.133929 50.924139 
L 122.833952 50.924139 
L 124.533975 57.491496 
L 126.233998 58.312416 
L 127.934021 56.670576 
L 129.634044 52.565979 
L 131.334067 64.058853 
L 133.034089 69.80529 
L 134.734112 74.730807 
L 136.434135 82.940003 
L 138.134158 87.86552 
L 139.834181 91.970118 
L 141.534204 89.507359 
L 143.234227 91.970118 
L 144.93425 94.432877 
L 146.634273 94.432877 
L 148.334295 96.074716 
L 150.034318 96.074716 
L 151.734341 96.074716 
L 153.434364 96.074716 
L 155.134387 100.179314 
L 156.83441 101.000233 
L 158.534433 101.821153 
L 160.234456 103.462992 
L 161.934479 102.642073 
L 163.634502 97.716555 
L 165.334524 96.074716 
" style="fill:none;stroke:#bcbd22;stroke-linecap:square;stroke-opacity:0.5;"/>
   </g>
   <g id="line2d_38">
    <path clip-path="url(#p40fe95a79e)" d="M 59.933105 44.356783 
L 61.633128 44.356783 
L 63.333151 44.356783 
L 65.033174 44.356783 
L 66.733197 44.356783 
L 68.43322 44.356783 
L 70.133242 44.356783 
L 71.833265 44.356783 
L 73.533288 44.356783 
L 75.233311 44.356783 
L 76.933334 44.356783 
L 78.633357 44.356783 
L 80.33338 44.356783 
L 82.033403 44.356783 
L 83.733426 44.356783 
L 85.433448 44.356783 
L 87.133471 44.356783 
L 88.833494 44.356783 
L 90.533517 44.356783 
L 92.23354 45.177702 
L 93.933563 45.998622 
L 95.633586 44.356783 
L 97.333609 44.356783 
L 99.033632 44.356783 
L 100.733654 44.356783 
L 102.433677 45.177702 
L 104.1337 45.177702 
L 105.833723 44.356783 
L 107.533746 41.073105 
L 109.233769 40.252185 
L 110.933792 39.431265 
L 112.633815 39.431265 
L 114.333838 40.252185 
L 116.033861 41.894024 
L 117.733883 41.073105 
L 119.433906 40.252185 
L 121.133929 41.073105 
L 122.833952 41.073105 
L 124.533975 38.610346 
L 126.233998 37.789426 
L 127.934021 39.431265 
L 129.634044 39.431265 
L 131.334067 35.326668 
L 133.034089 31.22207 
L 134.734112 28.759311 
L 136.434135 24.654713 
L 138.134158 21.371035 
L 139.834181 23.833794 
L 141.534204 26.296552 
L 143.234227 22.191954 
L 144.93425 20.550115 
L 146.634273 19.729196 
L 148.334295 18.908276 
L 150.034318 18.087357 
L 151.734341 23.012874 
L 153.434364 24.654713 
L 155.134387 18.087357 
L 156.83441 18.087357 
L 158.534433 16.445517 
L 160.234456 15.624598 
L 161.934479 14.803678 
L 163.634502 22.191954 
L 165.334524 24.654713 
" style="fill:none;stroke:#17becf;stroke-linecap:square;stroke-opacity:0.5;"/>
   </g>
   <g id="patch_91">
    <path d="M 52.13 126.44874 
L 52.13 11.52 
" style="fill:none;stroke:#000000;stroke-linecap:square;stroke-linejoin:miter;stroke-width:0.8;"/>
   </g>
   <g id="patch_92">
    <path d="M 208.83811 126.44874 
L 208.83811 11.52 
" style="fill:none;stroke:#000000;stroke-linecap:square;stroke-linejoin:miter;stroke-width:0.8;"/>
   </g>
   <g id="patch_93">
    <path d="M 52.13 126.44874 
L 208.83811 126.44874 
" style="fill:none;stroke:#000000;stroke-linecap:square;stroke-linejoin:miter;stroke-width:0.8;"/>
   </g>
   <g id="patch_94">
    <path d="M 52.13 11.52 
L 208.83811 11.52 
" style="fill:none;stroke:#000000;stroke-linecap:square;stroke-linejoin:miter;stroke-width:0.8;"/>
   </g>
  </g>
 </g>
 <defs>
  <clipPath id="p40fe95a79e">
   <rect height="114.92874" width="156.70811" x="52.13" y="11.52"/>
  </clipPath>
 </defs>
</svg>
