<?xml version="1.0" encoding="utf-8" standalone="no"?>
<!DOCTYPE svg PUBLIC "-//W3C//DTD SVG 1.1//EN"
  "http://www.w3.org/Graphics/SVG/1.1/DTD/svg11.dtd">
<!-- Created with matplotlib (https://matplotlib.org/) -->
<svg height="170.07874pt" version="1.1" viewBox="0 0 255.11811 170.07874" width="255.11811pt" xmlns="http://www.w3.org/2000/svg" xmlns:xlink="http://www.w3.org/1999/xlink">
 <defs>
  <style type="text/css">
*{stroke-linecap:butt;stroke-linejoin:round;}
  </style>
 </defs>
 <g id="figure_1">
  <g id="patch_1">
   <path d="M 0 170.07874 
L 255.11811 170.07874 
L 255.11811 0 
L 0 0 
z
" style="fill:#ffffff;"/>
  </g>
  <g id="axes_1">
   <g id="patch_2">
    <path d="M 57.17 126.44874 
L 208.83811 126.44874 
L 208.83811 11.52 
L 57.17 11.52 
z
" style="fill:#ffffff;"/>
   </g>
   <g id="PolyCollection_1">
    <defs>
     <path d="M 64.722144 -43.662835 
L 64.722144 -43.635429 
L 66.367491 -43.635429 
L 68.012838 -43.635429 
L 69.658186 -43.635429 
L 71.303533 -43.635429 
L 72.94888 -43.635429 
L 74.594227 -43.641677 
L 76.239575 -43.644246 
L 77.884922 -43.647893 
L 79.530269 -43.652964 
L 81.175616 -43.659483 
L 82.820964 -43.66787 
L 84.466311 -43.678856 
L 86.111658 -43.692474 
L 87.757006 -43.710257 
L 89.402353 -43.733552 
L 91.0477 -43.76365 
L 92.693047 -43.801745 
L 94.338395 -43.850296 
L 95.983742 -43.908388 
L 97.629089 -44.033012 
L 99.274436 -44.121987 
L 100.919784 -44.269768 
L 102.565131 -44.390323 
L 104.210478 -44.692742 
L 105.855825 -44.986389 
L 107.501173 -45.513271 
L 109.14652 -47.257248 
L 110.791867 -48.871639 
L 112.437214 -48.374196 
L 114.082562 -48.54417 
L 115.727909 -50.523573 
L 117.373256 -52.492383 
L 119.018603 -54.498284 
L 120.663951 -55.708915 
L 122.309298 -57.32324 
L 123.954645 -63.454221 
L 125.599992 -68.541323 
L 127.24534 -72.528092 
L 128.890687 -78.628564 
L 130.536034 -87.464381 
L 132.181381 -98.971979 
L 133.826729 -102.605742 
L 135.472076 -110.171341 
L 137.117423 -93.039701 
L 138.762771 -78.691011 
L 140.408118 -73.050019 
L 142.053465 -58.158102 
L 143.698812 -49.849996 
L 145.34416 -61.881215 
L 146.989507 -57.094624 
L 148.634854 -54.501006 
L 150.280201 -52.721151 
L 151.925549 -53.296851 
L 153.570896 -48.560857 
L 155.216243 -44.417108 
L 156.86159 -48.528862 
L 158.506938 -47.195113 
L 160.152285 -46.188019 
L 161.797632 -45.657252 
L 163.442979 -45.924004 
L 165.088327 -44.954759 
L 166.733674 -43.865635 
L 166.733674 -102.588931 
L 166.733674 -102.588931 
L 165.088327 -138.270748 
L 163.442979 -150.069163 
L 161.797632 -137.005482 
L 160.152285 -138.871691 
L 158.506938 -146.218585 
L 156.86159 -149.055256 
L 155.216243 -96.303384 
L 153.570896 -134.552734 
L 151.925549 -148.252197 
L 150.280201 -136.773803 
L 148.634854 -135.240818 
L 146.989507 -135.178328 
L 145.34416 -139.402701 
L 143.698812 -103.164198 
L 142.053465 -116.280441 
L 140.408118 -131.787067 
L 138.762771 -129.697806 
L 137.117423 -136.861642 
L 135.472076 -158.55874 
L 133.826729 -141.127536 
L 132.181381 -137.87565 
L 130.536034 -113.747083 
L 128.890687 -97.131509 
L 127.24534 -86.773788 
L 125.599992 -81.671419 
L 123.954645 -72.930074 
L 122.309298 -62.751969 
L 120.663951 -60.493381 
L 119.018603 -59.563554 
L 117.373256 -56.652449 
L 115.727909 -53.694601 
L 114.082562 -50.736579 
L 112.437214 -50.987476 
L 110.791867 -54.832522 
L 109.14652 -50.133633 
L 107.501173 -46.844439 
L 105.855825 -46.074003 
L 104.210478 -45.619207 
L 102.565131 -45.15914 
L 100.919784 -44.937037 
L 99.274436 -44.688897 
L 97.629089 -44.528421 
L 95.983742 -44.304195 
L 94.338395 -44.192843 
L 92.693047 -44.09106 
L 91.0477 -44.00754 
L 89.402353 -43.939927 
L 87.757006 -43.884329 
L 86.111658 -43.839971 
L 84.466311 -43.802416 
L 82.820964 -43.771042 
L 81.175616 -43.745727 
L 79.530269 -43.72521 
L 77.884922 -43.708676 
L 76.239575 -43.695422 
L 74.594227 -43.684401 
L 72.94888 -43.662835 
L 71.303533 -43.662835 
L 69.658186 -43.662835 
L 68.012838 -43.662835 
L 66.367491 -43.662835 
L 64.722144 -43.662835 
z
" id="mc563f08cc1" style="stroke:#6495ed;stroke-opacity:0.4;"/>
    </defs>
    <g clip-path="url(#pb9276d10a1)">
     <use style="fill:#6495ed;fill-opacity:0.4;stroke:#6495ed;stroke-opacity:0.4;" x="0" xlink:href="#mc563f08cc1" y="170.07874"/>
    </g>
   </g>
   <g id="PolyCollection_2">
    <defs>
     <path d="M 64.722144 -43.64914 
L 64.722144 -43.640221 
L 66.367491 -43.640221 
L 68.012838 -43.640221 
L 69.658186 -43.640221 
L 71.303533 -43.640221 
L 72.94888 -43.640221 
L 74.594227 -43.650056 
L 76.239575 -43.65435 
L 77.884922 -43.660113 
L 79.530269 -43.667716 
L 81.175616 -43.677575 
L 82.820964 -43.68998 
L 84.466311 -43.705838 
L 86.111658 -43.72549 
L 87.757006 -43.75044 
L 89.402353 -43.78203 
L 91.0477 -43.821826 
L 92.693047 -43.871838 
L 94.338395 -43.93479 
L 95.983742 -44.005033 
L 97.629089 -44.159509 
L 99.274436 -44.266389 
L 100.919784 -44.444588 
L 102.565131 -44.590494 
L 104.210478 -44.941646 
L 105.855825 -45.282651 
L 107.501173 -45.880434 
L 109.14652 -47.997238 
L 110.791867 -50.414916 
L 112.437214 -49.104196 
L 114.082562 -49.178778 
L 115.727909 -51.439649 
L 117.373256 -53.655789 
L 119.018603 -55.946431 
L 120.663951 -57.029246 
L 122.309298 -58.77872 
L 123.954645 -66.025664 
L 125.599992 -72.248126 
L 127.24534 -76.516952 
L 128.890687 -83.863564 
L 130.536034 -95.061479 
L 132.181381 -110.291349 
L 133.826729 -113.63231 
L 135.472076 -123.919251 
L 137.117423 -106.027476 
L 138.762771 -93.526602 
L 140.408118 -88.47357 
L 142.053465 -69.627445 
L 143.698812 -57.021617 
L 145.34416 -76.583722 
L 146.989507 -69.693653 
L 148.634854 -65.925888 
L 150.280201 -63.326129 
L 151.925549 -64.7773 
L 153.570896 -56.114155 
L 155.216243 -46.491129 
L 156.86159 -56.456591 
L 158.506938 -53.641306 
L 160.152285 -51.387308 
L 161.797632 -50.179117 
L 163.442979 -50.982705 
L 165.088327 -48.430963 
L 166.733674 -44.833201 
L 166.733674 -51.807686 
L 166.733674 -51.807686 
L 165.088327 -64.681217 
L 163.442979 -71.189358 
L 161.797632 -68.355145 
L 160.152285 -70.75201 
L 158.506938 -75.439357 
L 156.86159 -80.692179 
L 155.216243 -56.060456 
L 153.570896 -77.654851 
L 151.925549 -91.6035 
L 150.280201 -87.545182 
L 148.634854 -90.070583 
L 146.989507 -94.29861 
L 145.34416 -101.796059 
L 143.698812 -73.083963 
L 142.053465 -89.216141 
L 140.408118 -108.81623 
L 138.762771 -110.979074 
L 137.117423 -120.921601 
L 135.472076 -139.879387 
L 133.826729 -126.327581 
L 132.181381 -123.43443 
L 130.536034 -103.827767 
L 128.890687 -90.022259 
L 127.24534 -81.33549 
L 125.599992 -76.545199 
L 123.954645 -69.17153 
L 122.309298 -60.639184 
L 120.663951 -58.634427 
L 119.018603 -57.590354 
L 117.373256 -55.023988 
L 115.727909 -52.458365 
L 114.082562 -49.888711 
L 112.437214 -49.971034 
L 110.791867 -52.496798 
L 109.14652 -48.956199 
L 107.501173 -46.327259 
L 105.855825 -45.649395 
L 104.210478 -45.256888 
L 102.565131 -44.844829 
L 100.919784 -44.67174 
L 99.274436 -44.459103 
L 97.629089 -44.327846 
L 95.983742 -44.138258 
L 94.338395 -44.049383 
L 92.693047 -43.969068 
L 91.0477 -43.904018 
L 89.402353 -43.851431 
L 87.757006 -43.80889 
L 86.111658 -43.774663 
L 84.466311 -43.746958 
L 82.820964 -43.724558 
L 81.175616 -43.706428 
L 79.530269 -43.691874 
L 77.884922 -43.68031 
L 76.239575 -43.671328 
L 74.594227 -43.664238 
L 72.94888 -43.64914 
L 71.303533 -43.64914 
L 69.658186 -43.64914 
L 68.012838 -43.64914 
L 66.367491 -43.64914 
L 64.722144 -43.64914 
z
" id="m67bb8ff10a" style="stroke:#6495ed;stroke-opacity:0.6;"/>
    </defs>
    <g clip-path="url(#pb9276d10a1)">
     <use style="fill:#6495ed;fill-opacity:0.6;stroke:#6495ed;stroke-opacity:0.6;" x="0" xlink:href="#m67bb8ff10a" y="170.07874"/>
    </g>
   </g>
   <g id="PolyCollection_3">
    <defs>
     <path d="M 166.733674 -102.588931 
L 166.733674 -43.865635 
L 168.379021 -43.827241 
L 170.024368 -43.792324 
L 171.669716 -43.761591 
L 173.315063 -43.735227 
L 174.96041 -43.713392 
L 176.605757 -43.695477 
L 178.251105 -43.680977 
L 179.896452 -43.669434 
L 181.541799 -43.660342 
L 183.187146 -43.653265 
L 184.832494 -43.647796 
L 186.477841 -43.643573 
L 188.123188 -43.640328 
L 189.768536 -43.637826 
L 191.413883 -43.635906 
L 193.05923 -43.634449 
L 194.704577 -43.633347 
L 196.349925 -43.632518 
L 197.995272 -43.631897 
L 199.640619 -43.63143 
L 201.285966 -43.631081 
L 201.285966 -62.848602 
L 201.285966 -62.848602 
L 199.640619 -64.180427 
L 197.995272 -65.604656 
L 196.349925 -67.127718 
L 194.704577 -68.756506 
L 193.05923 -70.498423 
L 191.413883 -72.216001 
L 189.768536 -74.035052 
L 188.123188 -75.823872 
L 186.477841 -77.695314 
L 184.832494 -79.062133 
L 183.187146 -81.134652 
L 181.541799 -83.711191 
L 179.896452 -86.557714 
L 178.251105 -89.668166 
L 176.605757 -92.581894 
L 174.96041 -95.01583 
L 173.315063 -97.874891 
L 171.669716 -100.093985 
L 170.024368 -101.698624 
L 168.379021 -102.752646 
L 166.733674 -102.588931 
z
" id="m1e3dfcf6d4" style="stroke:#228b22;stroke-opacity:0.4;"/>
    </defs>
    <g clip-path="url(#pb9276d10a1)">
     <use style="fill:#228b22;fill-opacity:0.4;stroke:#228b22;stroke-opacity:0.4;" x="0" xlink:href="#m1e3dfcf6d4" y="170.07874"/>
    </g>
   </g>
   <g id="PolyCollection_4">
    <defs>
     <path d="M 166.733674 -51.807686 
L 166.733674 -44.833201 
L 168.379021 -44.685304 
L 170.024368 -44.538007 
L 171.669716 -44.397016 
L 173.315063 -44.268227 
L 174.96041 -44.154728 
L 176.605757 -44.056985 
L 178.251105 -43.973495 
L 179.896452 -43.90591 
L 181.541799 -43.85058 
L 183.187146 -43.805114 
L 184.832494 -43.76921 
L 186.477841 -43.740371 
L 188.123188 -43.717498 
L 189.768536 -43.699364 
L 191.413883 -43.684862 
L 193.05923 -43.673369 
L 194.704577 -43.664205 
L 196.349925 -43.656947 
L 197.995272 -43.651256 
L 199.640619 -43.646796 
L 201.285966 -43.64326 
L 201.285966 -44.009104 
L 201.285966 -44.009104 
L 199.640619 -44.074842 
L 197.995272 -44.153366 
L 196.349925 -44.245351 
L 194.704577 -44.35059 
L 193.05923 -44.471747 
L 191.413883 -44.619202 
L 189.768536 -44.794471 
L 188.123188 -44.997369 
L 186.477841 -45.238233 
L 184.832494 -45.520973 
L 183.187146 -45.845856 
L 181.541799 -46.234835 
L 179.896452 -46.680208 
L 178.251105 -47.199833 
L 176.605757 -47.782826 
L 174.96041 -48.432239 
L 173.315063 -49.150735 
L 171.669716 -49.890929 
L 170.024368 -50.609526 
L 168.379021 -51.271902 
L 166.733674 -51.807686 
z
" id="md8e66afcee" style="stroke:#228b22;stroke-opacity:0.6;"/>
    </defs>
    <g clip-path="url(#pb9276d10a1)">
     <use style="fill:#228b22;fill-opacity:0.6;stroke:#228b22;stroke-opacity:0.6;" x="0" xlink:href="#md8e66afcee" y="170.07874"/>
    </g>
   </g>
   <g id="PathCollection_1">
    <defs>
     <path d="M -0.866025 1.732051 
L 0 0.866025 
L 0.866025 1.732051 
L 1.732051 0.866025 
L 0.866025 0 
L 1.732051 -0.866025 
L 0.866025 -1.732051 
L 0 -0.866025 
L -0.866025 -1.732051 
L -1.732051 -0.866025 
L -0.866025 0 
L -1.732051 0.866025 
z
" id="m37123d0c0d" style="stroke:#8a2be2;"/>
    </defs>
    <g clip-path="url(#pb9276d10a1)">
     <use style="fill:#8a2be2;stroke:#8a2be2;" x="133.826729" xlink:href="#m37123d0c0d" y="23.012874"/>
    </g>
   </g>
   <g id="PathCollection_2">
    <defs>
     <path d="M 0 -1.732051 
L -0.38887 -0.535233 
L -1.647278 -0.535233 
L -0.629204 0.204441 
L -1.018074 1.401259 
L -0 0.661585 
L 1.018074 1.401259 
L 0.629204 0.204441 
L 1.647278 -0.535233 
L 0.38887 -0.535233 
z
" id="m6d4bb7aec4" style="stroke:#000000;"/>
    </defs>
    <g clip-path="url(#pb9276d10a1)">
     <use style="stroke:#000000;" x="127.24534" xlink:href="#m6d4bb7aec4" y="23.012874"/>
    </g>
   </g>
   <g id="PathCollection_3">
    <defs>
     <path d="M -1.732051 1.732051 
L 1.732051 1.732051 
L 1.732051 -1.732051 
L -1.732051 -1.732051 
z
" id="m70a72edc3d" style="stroke:#c71585;"/>
    </defs>
    <g clip-path="url(#pb9276d10a1)">
     <use style="fill:#c71585;stroke:#c71585;" x="137.117423" xlink:href="#m70a72edc3d" y="23.012874"/>
    </g>
   </g>
   <g id="PathCollection_4">
    <defs>
     <path d="M 0 -1.732051 
L -1.647278 -0.535233 
L -1.018074 1.401259 
L 1.018074 1.401259 
L 1.647278 -0.535233 
z
" id="ma9cad28062" style="stroke:#800000;"/>
    </defs>
    <g clip-path="url(#pb9276d10a1)">
     <use style="fill:#800000;stroke:#800000;" x="133.826729" xlink:href="#ma9cad28062" y="28.184667"/>
    </g>
   </g>
   <g id="PathCollection_5">
    <defs>
     <path d="M -0 2.44949 
L 1.469694 0 
L 0 -2.44949 
L -1.469694 -0 
z
" id="m9d1800d90d" style="stroke:#556b2f;"/>
    </defs>
    <g clip-path="url(#pb9276d10a1)">
     <use style="fill:#556b2f;stroke:#556b2f;" x="133.826729" xlink:href="#m9d1800d90d" y="28.184667"/>
    </g>
   </g>
   <g id="patch_3">
    <path clip-path="url(#pb9276d10a1)" d="M 64.064005 126.44874 
L 65.380283 126.44874 
L 65.380283 126.44874 
L 64.064005 126.44874 
z
" style="fill:#1f77b4;opacity:0.5;"/>
   </g>
   <g id="patch_4">
    <path clip-path="url(#pb9276d10a1)" d="M 65.709352 126.44874 
L 67.02563 126.44874 
L 67.02563 126.44874 
L 65.709352 126.44874 
z
" style="fill:#1f77b4;opacity:0.5;"/>
   </g>
   <g id="patch_5">
    <path clip-path="url(#pb9276d10a1)" d="M 67.3547 126.44874 
L 68.670977 126.44874 
L 68.670977 126.44874 
L 67.3547 126.44874 
z
" style="fill:#1f77b4;opacity:0.5;"/>
   </g>
   <g id="patch_6">
    <path clip-path="url(#pb9276d10a1)" d="M 69.000047 126.44874 
L 70.316325 126.44874 
L 70.316325 126.44874 
L 69.000047 126.44874 
z
" style="fill:#1f77b4;opacity:0.5;"/>
   </g>
   <g id="patch_7">
    <path clip-path="url(#pb9276d10a1)" d="M 70.645394 126.44874 
L 71.961672 126.44874 
L 71.961672 126.446269 
L 70.645394 126.446269 
z
" style="fill:#1f77b4;opacity:0.5;"/>
   </g>
   <g id="patch_8">
    <path clip-path="url(#pb9276d10a1)" d="M 72.290741 126.44874 
L 73.607019 126.44874 
L 73.607019 126.44874 
L 72.290741 126.44874 
z
" style="fill:#1f77b4;opacity:0.5;"/>
   </g>
   <g id="patch_9">
    <path clip-path="url(#pb9276d10a1)" d="M 73.936089 126.44874 
L 75.252366 126.44874 
L 75.252366 126.44874 
L 73.936089 126.44874 
z
" style="fill:#1f77b4;opacity:0.5;"/>
   </g>
   <g id="patch_10">
    <path clip-path="url(#pb9276d10a1)" d="M 75.581436 126.44874 
L 76.897714 126.44874 
L 76.897714 126.44874 
L 75.581436 126.44874 
z
" style="fill:#1f77b4;opacity:0.5;"/>
   </g>
   <g id="patch_11">
    <path clip-path="url(#pb9276d10a1)" d="M 77.226783 126.44874 
L 78.543061 126.44874 
L 78.543061 126.44874 
L 77.226783 126.44874 
z
" style="fill:#1f77b4;opacity:0.5;"/>
   </g>
   <g id="patch_12">
    <path clip-path="url(#pb9276d10a1)" d="M 78.87213 126.44874 
L 80.188408 126.44874 
L 80.188408 126.44874 
L 78.87213 126.44874 
z
" style="fill:#1f77b4;opacity:0.5;"/>
   </g>
   <g id="patch_13">
    <path clip-path="url(#pb9276d10a1)" d="M 80.517478 126.44874 
L 81.833755 126.44874 
L 81.833755 126.44874 
L 80.517478 126.44874 
z
" style="fill:#1f77b4;opacity:0.5;"/>
   </g>
   <g id="patch_14">
    <path clip-path="url(#pb9276d10a1)" d="M 82.162825 126.44874 
L 83.479103 126.44874 
L 83.479103 126.44874 
L 82.162825 126.44874 
z
" style="fill:#1f77b4;opacity:0.5;"/>
   </g>
   <g id="patch_15">
    <path clip-path="url(#pb9276d10a1)" d="M 83.808172 126.44874 
L 85.12445 126.44874 
L 85.12445 126.44874 
L 83.808172 126.44874 
z
" style="fill:#1f77b4;opacity:0.5;"/>
   </g>
   <g id="patch_16">
    <path clip-path="url(#pb9276d10a1)" d="M 85.453519 126.44874 
L 86.769797 126.44874 
L 86.769797 126.44874 
L 85.453519 126.44874 
z
" style="fill:#1f77b4;opacity:0.5;"/>
   </g>
   <g id="patch_17">
    <path clip-path="url(#pb9276d10a1)" d="M 87.098867 126.44874 
L 88.415144 126.44874 
L 88.415144 126.44874 
L 87.098867 126.44874 
z
" style="fill:#1f77b4;opacity:0.5;"/>
   </g>
   <g id="patch_18">
    <path clip-path="url(#pb9276d10a1)" d="M 88.744214 126.44874 
L 90.060492 126.44874 
L 90.060492 126.44874 
L 88.744214 126.44874 
z
" style="fill:#1f77b4;opacity:0.5;"/>
   </g>
   <g id="patch_19">
    <path clip-path="url(#pb9276d10a1)" d="M 90.389561 126.44874 
L 91.705839 126.44874 
L 91.705839 126.44874 
L 90.389561 126.44874 
z
" style="fill:#1f77b4;opacity:0.5;"/>
   </g>
   <g id="patch_20">
    <path clip-path="url(#pb9276d10a1)" d="M 92.034908 126.44874 
L 93.351186 126.44874 
L 93.351186 126.44874 
L 92.034908 126.44874 
z
" style="fill:#1f77b4;opacity:0.5;"/>
   </g>
   <g id="patch_21">
    <path clip-path="url(#pb9276d10a1)" d="M 93.680256 126.44874 
L 94.996533 126.44874 
L 94.996533 126.44874 
L 93.680256 126.44874 
z
" style="fill:#1f77b4;opacity:0.5;"/>
   </g>
   <g id="patch_22">
    <path clip-path="url(#pb9276d10a1)" d="M 95.325603 126.44874 
L 96.641881 126.44874 
L 96.641881 126.44874 
L 95.325603 126.44874 
z
" style="fill:#1f77b4;opacity:0.5;"/>
   </g>
   <g id="patch_23">
    <path clip-path="url(#pb9276d10a1)" d="M 96.97095 126.44874 
L 98.287228 126.44874 
L 98.287228 126.44874 
L 96.97095 126.44874 
z
" style="fill:#1f77b4;opacity:0.5;"/>
   </g>
   <g id="patch_24">
    <path clip-path="url(#pb9276d10a1)" d="M 98.616297 126.44874 
L 99.932575 126.44874 
L 99.932575 126.44874 
L 98.616297 126.44874 
z
" style="fill:#1f77b4;opacity:0.5;"/>
   </g>
   <g id="patch_25">
    <path clip-path="url(#pb9276d10a1)" d="M 100.261645 126.44874 
L 101.577922 126.44874 
L 101.577922 126.44874 
L 100.261645 126.44874 
z
" style="fill:#1f77b4;opacity:0.5;"/>
   </g>
   <g id="patch_26">
    <path clip-path="url(#pb9276d10a1)" d="M 101.906992 126.44874 
L 103.22327 126.44874 
L 103.22327 126.44874 
L 101.906992 126.44874 
z
" style="fill:#1f77b4;opacity:0.5;"/>
   </g>
   <g id="patch_27">
    <path clip-path="url(#pb9276d10a1)" d="M 103.552339 126.44874 
L 104.868617 126.44874 
L 104.868617 126.44874 
L 103.552339 126.44874 
z
" style="fill:#1f77b4;opacity:0.5;"/>
   </g>
   <g id="patch_28">
    <path clip-path="url(#pb9276d10a1)" d="M 105.197686 126.44874 
L 106.513964 126.44874 
L 106.513964 126.44874 
L 105.197686 126.44874 
z
" style="fill:#1f77b4;opacity:0.5;"/>
   </g>
   <g id="patch_29">
    <path clip-path="url(#pb9276d10a1)" d="M 106.843034 126.44874 
L 108.159312 126.44874 
L 108.159312 126.437209 
L 106.843034 126.437209 
z
" style="fill:#1f77b4;opacity:0.5;"/>
   </g>
   <g id="patch_30">
    <path clip-path="url(#pb9276d10a1)" d="M 108.488381 126.44874 
L 109.804659 126.44874 
L 109.804659 126.397674 
L 108.488381 126.397674 
z
" style="fill:#1f77b4;opacity:0.5;"/>
   </g>
   <g id="patch_31">
    <path clip-path="url(#pb9276d10a1)" d="M 110.133728 126.44874 
L 111.450006 126.44874 
L 111.450006 126.405087 
L 110.133728 126.405087 
z
" style="fill:#1f77b4;opacity:0.5;"/>
   </g>
   <g id="patch_32">
    <path clip-path="url(#pb9276d10a1)" d="M 111.779075 126.44874 
L 113.095353 126.44874 
L 113.095353 126.368846 
L 111.779075 126.368846 
z
" style="fill:#1f77b4;opacity:0.5;"/>
   </g>
   <g id="patch_33">
    <path clip-path="url(#pb9276d10a1)" d="M 113.424423 126.44874 
L 114.740701 126.44874 
L 114.740701 126.372141 
L 113.424423 126.372141 
z
" style="fill:#1f77b4;opacity:0.5;"/>
   </g>
   <g id="patch_34">
    <path clip-path="url(#pb9276d10a1)" d="M 115.06977 126.44874 
L 116.386048 126.44874 
L 116.386048 126.384496 
L 115.06977 126.384496 
z
" style="fill:#1f77b4;opacity:0.5;"/>
   </g>
   <g id="patch_35">
    <path clip-path="url(#pb9276d10a1)" d="M 116.715117 126.44874 
L 118.031395 126.44874 
L 118.031395 126.242828 
L 116.715117 126.242828 
z
" style="fill:#1f77b4;opacity:0.5;"/>
   </g>
   <g id="patch_36">
    <path clip-path="url(#pb9276d10a1)" d="M 118.360465 126.44874 
L 119.676742 126.44874 
L 119.676742 126.252712 
L 118.360465 126.252712 
z
" style="fill:#1f77b4;opacity:0.5;"/>
   </g>
   <g id="patch_37">
    <path clip-path="url(#pb9276d10a1)" d="M 120.005812 126.44874 
L 121.32209 126.44874 
L 121.32209 126.251065 
L 120.005812 126.251065 
z
" style="fill:#1f77b4;opacity:0.5;"/>
   </g>
   <g id="patch_38">
    <path clip-path="url(#pb9276d10a1)" d="M 121.651159 126.44874 
L 122.967437 126.44874 
L 122.967437 125.986674 
L 121.651159 125.986674 
z
" style="fill:#1f77b4;opacity:0.5;"/>
   </g>
   <g id="patch_39">
    <path clip-path="url(#pb9276d10a1)" d="M 123.296506 126.44874 
L 124.612784 126.44874 
L 124.612784 126.162934 
L 123.296506 126.162934 
z
" style="fill:#1f77b4;opacity:0.5;"/>
   </g>
   <g id="patch_40">
    <path clip-path="url(#pb9276d10a1)" d="M 124.941854 126.44874 
L 126.258131 126.44874 
L 126.258131 126.06492 
L 124.941854 126.06492 
z
" style="fill:#1f77b4;opacity:0.5;"/>
   </g>
   <g id="patch_41">
    <path clip-path="url(#pb9276d10a1)" d="M 126.587201 126.44874 
L 127.903479 126.44874 
L 127.903479 125.965259 
L 126.587201 125.965259 
z
" style="fill:#1f77b4;opacity:0.5;"/>
   </g>
   <g id="patch_42">
    <path clip-path="url(#pb9276d10a1)" d="M 128.232548 126.44874 
L 129.548826 126.44874 
L 129.548826 125.815355 
L 128.232548 125.815355 
z
" style="fill:#1f77b4;opacity:0.5;"/>
   </g>
   <g id="patch_43">
    <path clip-path="url(#pb9276d10a1)" d="M 129.877895 126.44874 
L 131.194173 126.44874 
L 131.194173 125.807942 
L 129.877895 125.807942 
z
" style="fill:#1f77b4;opacity:0.5;"/>
   </g>
   <g id="patch_44">
    <path clip-path="url(#pb9276d10a1)" d="M 131.523243 126.44874 
L 132.83952 126.44874 
L 132.83952 125.421651 
L 131.523243 125.421651 
z
" style="fill:#1f77b4;opacity:0.5;"/>
   </g>
   <g id="patch_45">
    <path clip-path="url(#pb9276d10a1)" d="M 133.16859 126.44874 
L 134.484868 126.44874 
L 134.484868 125.219858 
L 133.16859 125.219858 
z
" style="fill:#1f77b4;opacity:0.5;"/>
   </g>
   <g id="patch_46">
    <path clip-path="url(#pb9276d10a1)" d="M 134.813937 126.44874 
L 136.130215 126.44874 
L 136.130215 124.968645 
L 134.813937 124.968645 
z
" style="fill:#1f77b4;opacity:0.5;"/>
   </g>
   <g id="patch_47">
    <path clip-path="url(#pb9276d10a1)" d="M 136.459284 126.44874 
L 137.775562 126.44874 
L 137.775562 125.644036 
L 136.459284 125.644036 
z
" style="fill:#1f77b4;opacity:0.5;"/>
   </g>
   <g id="patch_48">
    <path clip-path="url(#pb9276d10a1)" d="M 138.104632 126.44874 
L 139.420909 126.44874 
L 139.420909 124.543643 
L 138.104632 124.543643 
z
" style="fill:#1f77b4;opacity:0.5;"/>
   </g>
   <g id="patch_49">
    <path clip-path="url(#pb9276d10a1)" d="M 139.749979 126.44874 
L 141.066257 126.44874 
L 141.066257 124.26525 
L 139.749979 124.26525 
z
" style="fill:#1f77b4;opacity:0.5;"/>
   </g>
   <g id="patch_50">
    <path clip-path="url(#pb9276d10a1)" d="M 141.395326 126.44874 
L 142.711604 126.44874 
L 142.711604 124.350909 
L 141.395326 124.350909 
z
" style="fill:#1f77b4;opacity:0.5;"/>
   </g>
   <g id="patch_51">
    <path clip-path="url(#pb9276d10a1)" d="M 143.040673 126.44874 
L 144.356951 126.44874 
L 144.356951 123.568444 
L 143.040673 123.568444 
z
" style="fill:#1f77b4;opacity:0.5;"/>
   </g>
   <g id="patch_52">
    <path clip-path="url(#pb9276d10a1)" d="M 144.686021 126.44874 
L 146.002298 126.44874 
L 146.002298 124.123583 
L 144.686021 124.123583 
z
" style="fill:#1f77b4;opacity:0.5;"/>
   </g>
   <g id="patch_53">
    <path clip-path="url(#pb9276d10a1)" d="M 146.331368 126.44874 
L 147.647646 126.44874 
L 147.647646 123.154149 
L 146.331368 123.154149 
z
" style="fill:#1f77b4;opacity:0.5;"/>
   </g>
   <g id="patch_54">
    <path clip-path="url(#pb9276d10a1)" d="M 147.976715 126.44874 
L 149.292993 126.44874 
L 149.292993 123.544558 
L 147.976715 123.544558 
z
" style="fill:#1f77b4;opacity:0.5;"/>
   </g>
   <g id="patch_55">
    <path clip-path="url(#pb9276d10a1)" d="M 149.622062 126.44874 
L 150.93834 126.44874 
L 150.93834 122.983654 
L 149.622062 122.983654 
z
" style="fill:#1f77b4;opacity:0.5;"/>
   </g>
   <g id="patch_56">
    <path clip-path="url(#pb9276d10a1)" d="M 151.26741 126.44874 
L 152.583687 126.44874 
L 152.583687 122.065287 
L 151.26741 122.065287 
z
" style="fill:#1f77b4;opacity:0.5;"/>
   </g>
   <g id="patch_57">
    <path clip-path="url(#pb9276d10a1)" d="M 152.912757 126.44874 
L 154.229035 126.44874 
L 154.229035 121.518385 
L 152.912757 121.518385 
z
" style="fill:#1f77b4;opacity:0.5;"/>
   </g>
   <g id="patch_58">
    <path clip-path="url(#pb9276d10a1)" d="M 154.558104 126.44874 
L 155.874382 126.44874 
L 155.874382 121.048082 
L 154.558104 121.048082 
z
" style="fill:#1f77b4;opacity:0.5;"/>
   </g>
   <g id="patch_59">
    <path clip-path="url(#pb9276d10a1)" d="M 156.203451 126.44874 
L 157.519729 126.44874 
L 157.519729 121.869259 
L 156.203451 121.869259 
z
" style="fill:#1f77b4;opacity:0.5;"/>
   </g>
   <g id="patch_60">
    <path clip-path="url(#pb9276d10a1)" d="M 157.848799 126.44874 
L 159.165077 126.44874 
L 159.165077 122.504291 
L 157.848799 122.504291 
z
" style="fill:#1f77b4;opacity:0.5;"/>
   </g>
   <g id="patch_61">
    <path clip-path="url(#pb9276d10a1)" d="M 159.494146 126.44874 
L 160.810424 126.44874 
L 160.810424 122.125413 
L 159.494146 122.125413 
z
" style="fill:#1f77b4;opacity:0.5;"/>
   </g>
   <g id="patch_62">
    <path clip-path="url(#pb9276d10a1)" d="M 161.139493 126.44874 
L 162.455771 126.44874 
L 162.455771 122.157536 
L 161.139493 122.157536 
z
" style="fill:#1f77b4;opacity:0.5;"/>
   </g>
   <g id="patch_63">
    <path clip-path="url(#pb9276d10a1)" d="M 162.78484 126.44874 
L 164.101118 126.44874 
L 164.101118 121.380836 
L 162.78484 121.380836 
z
" style="fill:#1f77b4;opacity:0.5;"/>
   </g>
   <g id="patch_64">
    <path clip-path="url(#pb9276d10a1)" d="M 164.430188 126.44874 
L 165.746466 126.44874 
L 165.746466 121.540624 
L 164.430188 121.540624 
z
" style="fill:#1f77b4;opacity:0.5;"/>
   </g>
   <g id="patch_65">
    <path clip-path="url(#pb9276d10a1)" d="M 166.075535 126.44874 
L 167.391813 126.44874 
L 167.391813 121.528269 
L 166.075535 121.528269 
z
" style="fill:#1f77b4;opacity:0.5;"/>
   </g>
   <g id="patch_66">
    <path clip-path="url(#pb9276d10a1)" d="M 167.720882 126.44874 
L 169.03716 126.44874 
L 169.03716 122.15177 
L 167.720882 122.15177 
z
" style="fill:#1f77b4;opacity:0.5;"/>
   </g>
   <g id="patch_67">
    <path clip-path="url(#pb9276d10a1)" d="M 169.36623 126.44874 
L 170.682507 126.44874 
L 170.682507 123.112967 
L 169.36623 123.112967 
z
" style="fill:#1f77b4;opacity:0.5;"/>
   </g>
   <g id="patch_68">
    <path clip-path="url(#pb9276d10a1)" d="M 171.011577 126.44874 
L 172.327855 126.44874 
L 172.327855 123.110496 
L 171.011577 123.110496 
z
" style="fill:#1f77b4;opacity:0.5;"/>
   </g>
   <g id="patch_69">
    <path clip-path="url(#pb9276d10a1)" d="M 172.656924 126.44874 
L 173.973202 126.44874 
L 173.973202 122.510057 
L 172.656924 122.510057 
z
" style="fill:#1f77b4;opacity:0.5;"/>
   </g>
   <g id="patch_70">
    <path clip-path="url(#pb9276d10a1)" d="M 174.302271 126.44874 
L 175.618549 126.44874 
L 175.618549 122.603953 
L 174.302271 122.603953 
z
" style="fill:#1f77b4;opacity:0.5;"/>
   </g>
   <g id="patch_71">
    <path clip-path="url(#pb9276d10a1)" d="M 175.947619 126.44874 
L 177.263896 126.44874 
L 177.263896 122.672316 
L 175.947619 122.672316 
z
" style="fill:#1f77b4;opacity:0.5;"/>
   </g>
   <g id="patch_72">
    <path clip-path="url(#pb9276d10a1)" d="M 177.592966 126.44874 
L 178.909244 126.44874 
L 178.909244 122.491113 
L 177.592966 122.491113 
z
" style="fill:#1f77b4;opacity:0.5;"/>
   </g>
   <g id="patch_73">
    <path clip-path="url(#pb9276d10a1)" d="M 179.238313 126.44874 
L 180.554591 126.44874 
L 180.554591 122.893877 
L 179.238313 122.893877 
z
" style="fill:#1f77b4;opacity:0.5;"/>
   </g>
   <g id="patch_74">
    <path clip-path="url(#pb9276d10a1)" d="M 180.88366 126.44874 
L 182.199938 126.44874 
L 182.199938 123.484432 
L 180.88366 123.484432 
z
" style="fill:#1f77b4;opacity:0.5;"/>
   </g>
   <g id="patch_75">
    <path clip-path="url(#pb9276d10a1)" d="M 182.529008 126.44874 
L 183.845285 126.44874 
L 183.845285 123.945675 
L 182.529008 123.945675 
z
" style="fill:#1f77b4;opacity:0.5;"/>
   </g>
   <g id="patch_76">
    <path clip-path="url(#pb9276d10a1)" d="M 184.174355 126.44874 
L 185.490633 126.44874 
L 185.490633 123.289228 
L 184.174355 123.289228 
z
" style="fill:#1f77b4;opacity:0.5;"/>
   </g>
   <g id="patch_77">
    <path clip-path="url(#pb9276d10a1)" d="M 185.819702 126.44874 
L 187.13598 126.44874 
L 187.13598 122.986125 
L 185.819702 122.986125 
z
" style="fill:#1f77b4;opacity:0.5;"/>
   </g>
   <g id="patch_78">
    <path clip-path="url(#pb9276d10a1)" d="M 187.465049 126.44874 
L 188.781327 126.44874 
L 188.781327 123.194508 
L 187.465049 123.194508 
z
" style="fill:#1f77b4;opacity:0.5;"/>
   </g>
   <g id="patch_79">
    <path clip-path="url(#pb9276d10a1)" d="M 189.110397 126.44874 
L 190.426674 126.44874 
L 190.426674 122.582538 
L 189.110397 122.582538 
z
" style="fill:#1f77b4;opacity:0.5;"/>
   </g>
   <g id="patch_80">
    <path clip-path="url(#pb9276d10a1)" d="M 190.755744 126.44874 
L 192.072022 126.44874 
L 192.072022 123.078374 
L 190.755744 123.078374 
z
" style="fill:#1f77b4;opacity:0.5;"/>
   </g>
   <g id="patch_81">
    <path clip-path="url(#pb9276d10a1)" d="M 192.401091 126.44874 
L 193.717369 126.44874 
L 193.717369 123.851779 
L 192.401091 123.851779 
z
" style="fill:#1f77b4;opacity:0.5;"/>
   </g>
   <g id="patch_82">
    <path clip-path="url(#pb9276d10a1)" d="M 194.046438 126.44874 
L 195.362716 126.44874 
L 195.362716 124.000859 
L 194.046438 124.000859 
z
" style="fill:#1f77b4;opacity:0.5;"/>
   </g>
   <g id="patch_83">
    <path clip-path="url(#pb9276d10a1)" d="M 195.691786 126.44874 
L 197.008063 126.44874 
L 197.008063 124.252072 
L 195.691786 124.252072 
z
" style="fill:#1f77b4;opacity:0.5;"/>
   </g>
   <g id="patch_84">
    <path clip-path="url(#pb9276d10a1)" d="M 197.337133 126.44874 
L 198.653411 126.44874 
L 198.653411 123.33041 
L 197.337133 123.33041 
z
" style="fill:#1f77b4;opacity:0.5;"/>
   </g>
   <g id="patch_85">
    <path clip-path="url(#pb9276d10a1)" d="M 198.98248 126.44874 
L 200.298758 126.44874 
L 200.298758 123.571739 
L 198.98248 123.571739 
z
" style="fill:#1f77b4;opacity:0.5;"/>
   </g>
   <g id="patch_86">
    <path clip-path="url(#pb9276d10a1)" d="M 200.627827 126.44874 
L 201.944105 126.44874 
L 201.944105 123.573386 
L 200.627827 123.573386 
z
" style="fill:#1f77b4;opacity:0.5;"/>
   </g>
   <g id="matplotlib.axis_1">
    <g id="xtick_1">
     <g id="line2d_1">
      <defs>
       <path d="M 0 0 
L 0 3.5 
" id="mba48171915" style="stroke:#000000;stroke-width:0.8;"/>
      </defs>
      <g>
       <use style="stroke:#000000;stroke-width:0.8;" x="201.285966" xlink:href="#mba48171915" y="126.44874"/>
      </g>
     </g>
     <g id="text_1">
      <!-- 19 Apr -->
      <defs>
       <path d="M 12.40625 8.296875 
L 28.515625 8.296875 
L 28.515625 63.921875 
L 10.984375 60.40625 
L 10.984375 69.390625 
L 28.421875 72.90625 
L 38.28125 72.90625 
L 38.28125 8.296875 
L 54.390625 8.296875 
L 54.390625 0 
L 12.40625 0 
z
" id="DejaVuSans-49"/>
       <path d="M 10.984375 1.515625 
L 10.984375 10.5 
Q 14.703125 8.734375 18.5 7.8125 
Q 22.3125 6.890625 25.984375 6.890625 
Q 35.75 6.890625 40.890625 13.453125 
Q 46.046875 20.015625 46.78125 33.40625 
Q 43.953125 29.203125 39.59375 26.953125 
Q 35.25 24.703125 29.984375 24.703125 
Q 19.046875 24.703125 12.671875 31.3125 
Q 6.296875 37.9375 6.296875 49.421875 
Q 6.296875 60.640625 12.9375 67.421875 
Q 19.578125 74.21875 30.609375 74.21875 
Q 43.265625 74.21875 49.921875 64.515625 
Q 56.59375 54.828125 56.59375 36.375 
Q 56.59375 19.140625 48.40625 8.859375 
Q 40.234375 -1.421875 26.421875 -1.421875 
Q 22.703125 -1.421875 18.890625 -0.6875 
Q 15.09375 0.046875 10.984375 1.515625 
z
M 30.609375 32.421875 
Q 37.25 32.421875 41.125 36.953125 
Q 45.015625 41.5 45.015625 49.421875 
Q 45.015625 57.28125 41.125 61.84375 
Q 37.25 66.40625 30.609375 66.40625 
Q 23.96875 66.40625 20.09375 61.84375 
Q 16.21875 57.28125 16.21875 49.421875 
Q 16.21875 41.5 20.09375 36.953125 
Q 23.96875 32.421875 30.609375 32.421875 
z
" id="DejaVuSans-57"/>
       <path id="DejaVuSans-32"/>
       <path d="M 34.1875 63.1875 
L 20.796875 26.90625 
L 47.609375 26.90625 
z
M 28.609375 72.90625 
L 39.796875 72.90625 
L 67.578125 0 
L 57.328125 0 
L 50.6875 18.703125 
L 17.828125 18.703125 
L 11.1875 0 
L 0.78125 0 
z
" id="DejaVuSans-65"/>
       <path d="M 18.109375 8.203125 
L 18.109375 -20.796875 
L 9.078125 -20.796875 
L 9.078125 54.6875 
L 18.109375 54.6875 
L 18.109375 46.390625 
Q 20.953125 51.265625 25.265625 53.625 
Q 29.59375 56 35.59375 56 
Q 45.5625 56 51.78125 48.09375 
Q 58.015625 40.1875 58.015625 27.296875 
Q 58.015625 14.40625 51.78125 6.484375 
Q 45.5625 -1.421875 35.59375 -1.421875 
Q 29.59375 -1.421875 25.265625 0.953125 
Q 20.953125 3.328125 18.109375 8.203125 
z
M 48.6875 27.296875 
Q 48.6875 37.203125 44.609375 42.84375 
Q 40.53125 48.484375 33.40625 48.484375 
Q 26.265625 48.484375 22.1875 42.84375 
Q 18.109375 37.203125 18.109375 27.296875 
Q 18.109375 17.390625 22.1875 11.75 
Q 26.265625 6.109375 33.40625 6.109375 
Q 40.53125 6.109375 44.609375 11.75 
Q 48.6875 17.390625 48.6875 27.296875 
z
" id="DejaVuSans-112"/>
       <path d="M 41.109375 46.296875 
Q 39.59375 47.171875 37.8125 47.578125 
Q 36.03125 48 33.890625 48 
Q 26.265625 48 22.1875 43.046875 
Q 18.109375 38.09375 18.109375 28.8125 
L 18.109375 0 
L 9.078125 0 
L 9.078125 54.6875 
L 18.109375 54.6875 
L 18.109375 46.1875 
Q 20.953125 51.171875 25.484375 53.578125 
Q 30.03125 56 36.53125 56 
Q 37.453125 56 38.578125 55.875 
Q 39.703125 55.765625 41.0625 55.515625 
z
" id="DejaVuSans-114"/>
      </defs>
      <g transform="translate(203.493466 160.01124)rotate(-90)scale(0.08 -0.08)">
       <use xlink:href="#DejaVuSans-49"/>
       <use x="63.623047" xlink:href="#DejaVuSans-57"/>
       <use x="127.246094" xlink:href="#DejaVuSans-32"/>
       <use x="159.033203" xlink:href="#DejaVuSans-65"/>
       <use x="227.441406" xlink:href="#DejaVuSans-112"/>
       <use x="290.917969" xlink:href="#DejaVuSans-114"/>
      </g>
     </g>
    </g>
    <g id="xtick_2">
     <g id="line2d_2">
      <g>
       <use style="stroke:#000000;stroke-width:0.8;" x="189.768536" xlink:href="#mba48171915" y="126.44874"/>
      </g>
     </g>
     <g id="text_2">
      <!-- 12 Apr -->
      <defs>
       <path d="M 19.1875 8.296875 
L 53.609375 8.296875 
L 53.609375 0 
L 7.328125 0 
L 7.328125 8.296875 
Q 12.9375 14.109375 22.625 23.890625 
Q 32.328125 33.6875 34.8125 36.53125 
Q 39.546875 41.84375 41.421875 45.53125 
Q 43.3125 49.21875 43.3125 52.78125 
Q 43.3125 58.59375 39.234375 62.25 
Q 35.15625 65.921875 28.609375 65.921875 
Q 23.96875 65.921875 18.8125 64.3125 
Q 13.671875 62.703125 7.8125 59.421875 
L 7.8125 69.390625 
Q 13.765625 71.78125 18.9375 73 
Q 24.125 74.21875 28.421875 74.21875 
Q 39.75 74.21875 46.484375 68.546875 
Q 53.21875 62.890625 53.21875 53.421875 
Q 53.21875 48.921875 51.53125 44.890625 
Q 49.859375 40.875 45.40625 35.40625 
Q 44.1875 33.984375 37.640625 27.21875 
Q 31.109375 20.453125 19.1875 8.296875 
z
" id="DejaVuSans-50"/>
      </defs>
      <g transform="translate(191.976036 160.01124)rotate(-90)scale(0.08 -0.08)">
       <use xlink:href="#DejaVuSans-49"/>
       <use x="63.623047" xlink:href="#DejaVuSans-50"/>
       <use x="127.246094" xlink:href="#DejaVuSans-32"/>
       <use x="159.033203" xlink:href="#DejaVuSans-65"/>
       <use x="227.441406" xlink:href="#DejaVuSans-112"/>
       <use x="290.917969" xlink:href="#DejaVuSans-114"/>
      </g>
     </g>
    </g>
    <g id="xtick_3">
     <g id="line2d_3">
      <g>
       <use style="stroke:#000000;stroke-width:0.8;" x="178.251105" xlink:href="#mba48171915" y="126.44874"/>
      </g>
     </g>
     <g id="text_3">
      <!-- 5 Apr -->
      <defs>
       <path d="M 10.796875 72.90625 
L 49.515625 72.90625 
L 49.515625 64.59375 
L 19.828125 64.59375 
L 19.828125 46.734375 
Q 21.96875 47.46875 24.109375 47.828125 
Q 26.265625 48.1875 28.421875 48.1875 
Q 40.625 48.1875 47.75 41.5 
Q 54.890625 34.8125 54.890625 23.390625 
Q 54.890625 11.625 47.5625 5.09375 
Q 40.234375 -1.421875 26.90625 -1.421875 
Q 22.3125 -1.421875 17.546875 -0.640625 
Q 12.796875 0.140625 7.71875 1.703125 
L 7.71875 11.625 
Q 12.109375 9.234375 16.796875 8.0625 
Q 21.484375 6.890625 26.703125 6.890625 
Q 35.15625 6.890625 40.078125 11.328125 
Q 45.015625 15.765625 45.015625 23.390625 
Q 45.015625 31 40.078125 35.4375 
Q 35.15625 39.890625 26.703125 39.890625 
Q 22.75 39.890625 18.8125 39.015625 
Q 14.890625 38.140625 10.796875 36.28125 
z
" id="DejaVuSans-53"/>
      </defs>
      <g transform="translate(180.458605 154.92124)rotate(-90)scale(0.08 -0.08)">
       <use xlink:href="#DejaVuSans-53"/>
       <use x="63.623047" xlink:href="#DejaVuSans-32"/>
       <use x="95.410156" xlink:href="#DejaVuSans-65"/>
       <use x="163.818359" xlink:href="#DejaVuSans-112"/>
       <use x="227.294922" xlink:href="#DejaVuSans-114"/>
      </g>
     </g>
    </g>
    <g id="xtick_4">
     <g id="line2d_4">
      <g>
       <use style="stroke:#000000;stroke-width:0.8;" x="166.733674" xlink:href="#mba48171915" y="126.44874"/>
      </g>
     </g>
     <g id="text_4">
      <!-- 29 Mar -->
      <defs>
       <path d="M 9.8125 72.90625 
L 24.515625 72.90625 
L 43.109375 23.296875 
L 61.8125 72.90625 
L 76.515625 72.90625 
L 76.515625 0 
L 66.890625 0 
L 66.890625 64.015625 
L 48.09375 14.015625 
L 38.1875 14.015625 
L 19.390625 64.015625 
L 19.390625 0 
L 9.8125 0 
z
" id="DejaVuSans-77"/>
       <path d="M 34.28125 27.484375 
Q 23.390625 27.484375 19.1875 25 
Q 14.984375 22.515625 14.984375 16.5 
Q 14.984375 11.71875 18.140625 8.90625 
Q 21.296875 6.109375 26.703125 6.109375 
Q 34.1875 6.109375 38.703125 11.40625 
Q 43.21875 16.703125 43.21875 25.484375 
L 43.21875 27.484375 
z
M 52.203125 31.203125 
L 52.203125 0 
L 43.21875 0 
L 43.21875 8.296875 
Q 40.140625 3.328125 35.546875 0.953125 
Q 30.953125 -1.421875 24.3125 -1.421875 
Q 15.921875 -1.421875 10.953125 3.296875 
Q 6 8.015625 6 15.921875 
Q 6 25.140625 12.171875 29.828125 
Q 18.359375 34.515625 30.609375 34.515625 
L 43.21875 34.515625 
L 43.21875 35.40625 
Q 43.21875 41.609375 39.140625 45 
Q 35.0625 48.390625 27.6875 48.390625 
Q 23 48.390625 18.546875 47.265625 
Q 14.109375 46.140625 10.015625 43.890625 
L 10.015625 52.203125 
Q 14.9375 54.109375 19.578125 55.046875 
Q 24.21875 56 28.609375 56 
Q 40.484375 56 46.34375 49.84375 
Q 52.203125 43.703125 52.203125 31.203125 
z
" id="DejaVuSans-97"/>
      </defs>
      <g transform="translate(168.941174 161.26499)rotate(-90)scale(0.08 -0.08)">
       <use xlink:href="#DejaVuSans-50"/>
       <use x="63.623047" xlink:href="#DejaVuSans-57"/>
       <use x="127.246094" xlink:href="#DejaVuSans-32"/>
       <use x="159.033203" xlink:href="#DejaVuSans-77"/>
       <use x="245.3125" xlink:href="#DejaVuSans-97"/>
       <use x="306.591797" xlink:href="#DejaVuSans-114"/>
      </g>
     </g>
    </g>
    <g id="xtick_5">
     <g id="line2d_5">
      <g>
       <use style="stroke:#000000;stroke-width:0.8;" x="155.216243" xlink:href="#mba48171915" y="126.44874"/>
      </g>
     </g>
     <g id="text_5">
      <!-- 22 Mar -->
      <g transform="translate(157.423743 161.26499)rotate(-90)scale(0.08 -0.08)">
       <use xlink:href="#DejaVuSans-50"/>
       <use x="63.623047" xlink:href="#DejaVuSans-50"/>
       <use x="127.246094" xlink:href="#DejaVuSans-32"/>
       <use x="159.033203" xlink:href="#DejaVuSans-77"/>
       <use x="245.3125" xlink:href="#DejaVuSans-97"/>
       <use x="306.591797" xlink:href="#DejaVuSans-114"/>
      </g>
     </g>
    </g>
    <g id="xtick_6">
     <g id="line2d_6">
      <g>
       <use style="stroke:#000000;stroke-width:0.8;" x="143.698812" xlink:href="#mba48171915" y="126.44874"/>
      </g>
     </g>
     <g id="text_6">
      <!-- 15 Mar -->
      <g transform="translate(145.906312 161.26499)rotate(-90)scale(0.08 -0.08)">
       <use xlink:href="#DejaVuSans-49"/>
       <use x="63.623047" xlink:href="#DejaVuSans-53"/>
       <use x="127.246094" xlink:href="#DejaVuSans-32"/>
       <use x="159.033203" xlink:href="#DejaVuSans-77"/>
       <use x="245.3125" xlink:href="#DejaVuSans-97"/>
       <use x="306.591797" xlink:href="#DejaVuSans-114"/>
      </g>
     </g>
    </g>
    <g id="xtick_7">
     <g id="line2d_7">
      <g>
       <use style="stroke:#000000;stroke-width:0.8;" x="132.181381" xlink:href="#mba48171915" y="126.44874"/>
      </g>
     </g>
     <g id="text_7">
      <!-- 8 Mar -->
      <defs>
       <path d="M 31.78125 34.625 
Q 24.75 34.625 20.71875 30.859375 
Q 16.703125 27.09375 16.703125 20.515625 
Q 16.703125 13.921875 20.71875 10.15625 
Q 24.75 6.390625 31.78125 6.390625 
Q 38.8125 6.390625 42.859375 10.171875 
Q 46.921875 13.96875 46.921875 20.515625 
Q 46.921875 27.09375 42.890625 30.859375 
Q 38.875 34.625 31.78125 34.625 
z
M 21.921875 38.8125 
Q 15.578125 40.375 12.03125 44.71875 
Q 8.5 49.078125 8.5 55.328125 
Q 8.5 64.0625 14.71875 69.140625 
Q 20.953125 74.21875 31.78125 74.21875 
Q 42.671875 74.21875 48.875 69.140625 
Q 55.078125 64.0625 55.078125 55.328125 
Q 55.078125 49.078125 51.53125 44.71875 
Q 48 40.375 41.703125 38.8125 
Q 48.828125 37.15625 52.796875 32.3125 
Q 56.78125 27.484375 56.78125 20.515625 
Q 56.78125 9.90625 50.3125 4.234375 
Q 43.84375 -1.421875 31.78125 -1.421875 
Q 19.734375 -1.421875 13.25 4.234375 
Q 6.78125 9.90625 6.78125 20.515625 
Q 6.78125 27.484375 10.78125 32.3125 
Q 14.796875 37.15625 21.921875 38.8125 
z
M 18.3125 54.390625 
Q 18.3125 48.734375 21.84375 45.5625 
Q 25.390625 42.390625 31.78125 42.390625 
Q 38.140625 42.390625 41.71875 45.5625 
Q 45.3125 48.734375 45.3125 54.390625 
Q 45.3125 60.0625 41.71875 63.234375 
Q 38.140625 66.40625 31.78125 66.40625 
Q 25.390625 66.40625 21.84375 63.234375 
Q 18.3125 60.0625 18.3125 54.390625 
z
" id="DejaVuSans-56"/>
      </defs>
      <g transform="translate(134.388881 156.17499)rotate(-90)scale(0.08 -0.08)">
       <use xlink:href="#DejaVuSans-56"/>
       <use x="63.623047" xlink:href="#DejaVuSans-32"/>
       <use x="95.410156" xlink:href="#DejaVuSans-77"/>
       <use x="181.689453" xlink:href="#DejaVuSans-97"/>
       <use x="242.96875" xlink:href="#DejaVuSans-114"/>
      </g>
     </g>
    </g>
    <g id="xtick_8">
     <g id="line2d_8">
      <g>
       <use style="stroke:#000000;stroke-width:0.8;" x="120.663951" xlink:href="#mba48171915" y="126.44874"/>
      </g>
     </g>
     <g id="text_8">
      <!-- 1 Mar -->
      <g transform="translate(122.871451 156.17499)rotate(-90)scale(0.08 -0.08)">
       <use xlink:href="#DejaVuSans-49"/>
       <use x="63.623047" xlink:href="#DejaVuSans-32"/>
       <use x="95.410156" xlink:href="#DejaVuSans-77"/>
       <use x="181.689453" xlink:href="#DejaVuSans-97"/>
       <use x="242.96875" xlink:href="#DejaVuSans-114"/>
      </g>
     </g>
    </g>
    <g id="xtick_9">
     <g id="line2d_9">
      <g>
       <use style="stroke:#000000;stroke-width:0.8;" x="109.14652" xlink:href="#mba48171915" y="126.44874"/>
      </g>
     </g>
     <g id="text_9">
      <!-- 23 Feb -->
      <defs>
       <path d="M 40.578125 39.3125 
Q 47.65625 37.796875 51.625 33 
Q 55.609375 28.21875 55.609375 21.1875 
Q 55.609375 10.40625 48.1875 4.484375 
Q 40.765625 -1.421875 27.09375 -1.421875 
Q 22.515625 -1.421875 17.65625 -0.515625 
Q 12.796875 0.390625 7.625 2.203125 
L 7.625 11.71875 
Q 11.71875 9.328125 16.59375 8.109375 
Q 21.484375 6.890625 26.8125 6.890625 
Q 36.078125 6.890625 40.9375 10.546875 
Q 45.796875 14.203125 45.796875 21.1875 
Q 45.796875 27.640625 41.28125 31.265625 
Q 36.765625 34.90625 28.71875 34.90625 
L 20.21875 34.90625 
L 20.21875 43.015625 
L 29.109375 43.015625 
Q 36.375 43.015625 40.234375 45.921875 
Q 44.09375 48.828125 44.09375 54.296875 
Q 44.09375 59.90625 40.109375 62.90625 
Q 36.140625 65.921875 28.71875 65.921875 
Q 24.65625 65.921875 20.015625 65.03125 
Q 15.375 64.15625 9.8125 62.3125 
L 9.8125 71.09375 
Q 15.4375 72.65625 20.34375 73.4375 
Q 25.25 74.21875 29.59375 74.21875 
Q 40.828125 74.21875 47.359375 69.109375 
Q 53.90625 64.015625 53.90625 55.328125 
Q 53.90625 49.265625 50.4375 45.09375 
Q 46.96875 40.921875 40.578125 39.3125 
z
" id="DejaVuSans-51"/>
       <path d="M 9.8125 72.90625 
L 51.703125 72.90625 
L 51.703125 64.59375 
L 19.671875 64.59375 
L 19.671875 43.109375 
L 48.578125 43.109375 
L 48.578125 34.8125 
L 19.671875 34.8125 
L 19.671875 0 
L 9.8125 0 
z
" id="DejaVuSans-70"/>
       <path d="M 56.203125 29.59375 
L 56.203125 25.203125 
L 14.890625 25.203125 
Q 15.484375 15.921875 20.484375 11.0625 
Q 25.484375 6.203125 34.421875 6.203125 
Q 39.59375 6.203125 44.453125 7.46875 
Q 49.3125 8.734375 54.109375 11.28125 
L 54.109375 2.78125 
Q 49.265625 0.734375 44.1875 -0.34375 
Q 39.109375 -1.421875 33.890625 -1.421875 
Q 20.796875 -1.421875 13.15625 6.1875 
Q 5.515625 13.8125 5.515625 26.8125 
Q 5.515625 40.234375 12.765625 48.109375 
Q 20.015625 56 32.328125 56 
Q 43.359375 56 49.78125 48.890625 
Q 56.203125 41.796875 56.203125 29.59375 
z
M 47.21875 32.234375 
Q 47.125 39.59375 43.09375 43.984375 
Q 39.0625 48.390625 32.421875 48.390625 
Q 24.90625 48.390625 20.390625 44.140625 
Q 15.875 39.890625 15.1875 32.171875 
z
" id="DejaVuSans-101"/>
       <path d="M 48.6875 27.296875 
Q 48.6875 37.203125 44.609375 42.84375 
Q 40.53125 48.484375 33.40625 48.484375 
Q 26.265625 48.484375 22.1875 42.84375 
Q 18.109375 37.203125 18.109375 27.296875 
Q 18.109375 17.390625 22.1875 11.75 
Q 26.265625 6.109375 33.40625 6.109375 
Q 40.53125 6.109375 44.609375 11.75 
Q 48.6875 17.390625 48.6875 27.296875 
z
M 18.109375 46.390625 
Q 20.953125 51.265625 25.265625 53.625 
Q 29.59375 56 35.59375 56 
Q 45.5625 56 51.78125 48.09375 
Q 58.015625 40.1875 58.015625 27.296875 
Q 58.015625 14.40625 51.78125 6.484375 
Q 45.5625 -1.421875 35.59375 -1.421875 
Q 29.59375 -1.421875 25.265625 0.953125 
Q 20.953125 3.328125 18.109375 8.203125 
L 18.109375 0 
L 9.078125 0 
L 9.078125 75.984375 
L 18.109375 75.984375 
z
" id="DejaVuSans-98"/>
      </defs>
      <g transform="translate(111.35402 160.33374)rotate(-90)scale(0.08 -0.08)">
       <use xlink:href="#DejaVuSans-50"/>
       <use x="63.623047" xlink:href="#DejaVuSans-51"/>
       <use x="127.246094" xlink:href="#DejaVuSans-32"/>
       <use x="159.033203" xlink:href="#DejaVuSans-70"/>
       <use x="211.052734" xlink:href="#DejaVuSans-101"/>
       <use x="272.576172" xlink:href="#DejaVuSans-98"/>
      </g>
     </g>
    </g>
    <g id="xtick_10">
     <g id="line2d_10">
      <g>
       <use style="stroke:#000000;stroke-width:0.8;" x="97.629089" xlink:href="#mba48171915" y="126.44874"/>
      </g>
     </g>
     <g id="text_10">
      <!-- 16 Feb -->
      <defs>
       <path d="M 33.015625 40.375 
Q 26.375 40.375 22.484375 35.828125 
Q 18.609375 31.296875 18.609375 23.390625 
Q 18.609375 15.53125 22.484375 10.953125 
Q 26.375 6.390625 33.015625 6.390625 
Q 39.65625 6.390625 43.53125 10.953125 
Q 47.40625 15.53125 47.40625 23.390625 
Q 47.40625 31.296875 43.53125 35.828125 
Q 39.65625 40.375 33.015625 40.375 
z
M 52.59375 71.296875 
L 52.59375 62.3125 
Q 48.875 64.0625 45.09375 64.984375 
Q 41.3125 65.921875 37.59375 65.921875 
Q 27.828125 65.921875 22.671875 59.328125 
Q 17.53125 52.734375 16.796875 39.40625 
Q 19.671875 43.65625 24.015625 45.921875 
Q 28.375 48.1875 33.59375 48.1875 
Q 44.578125 48.1875 50.953125 41.515625 
Q 57.328125 34.859375 57.328125 23.390625 
Q 57.328125 12.15625 50.6875 5.359375 
Q 44.046875 -1.421875 33.015625 -1.421875 
Q 20.359375 -1.421875 13.671875 8.265625 
Q 6.984375 17.96875 6.984375 36.375 
Q 6.984375 53.65625 15.1875 63.9375 
Q 23.390625 74.21875 37.203125 74.21875 
Q 40.921875 74.21875 44.703125 73.484375 
Q 48.484375 72.75 52.59375 71.296875 
z
" id="DejaVuSans-54"/>
      </defs>
      <g transform="translate(99.836589 160.33374)rotate(-90)scale(0.08 -0.08)">
       <use xlink:href="#DejaVuSans-49"/>
       <use x="63.623047" xlink:href="#DejaVuSans-54"/>
       <use x="127.246094" xlink:href="#DejaVuSans-32"/>
       <use x="159.033203" xlink:href="#DejaVuSans-70"/>
       <use x="211.052734" xlink:href="#DejaVuSans-101"/>
       <use x="272.576172" xlink:href="#DejaVuSans-98"/>
      </g>
     </g>
    </g>
    <g id="xtick_11">
     <g id="line2d_11">
      <g>
       <use style="stroke:#000000;stroke-width:0.8;" x="86.111658" xlink:href="#mba48171915" y="126.44874"/>
      </g>
     </g>
     <g id="text_11">
      <!-- 9 Feb -->
      <g transform="translate(88.319158 155.24374)rotate(-90)scale(0.08 -0.08)">
       <use xlink:href="#DejaVuSans-57"/>
       <use x="63.623047" xlink:href="#DejaVuSans-32"/>
       <use x="95.410156" xlink:href="#DejaVuSans-70"/>
       <use x="147.429688" xlink:href="#DejaVuSans-101"/>
       <use x="208.953125" xlink:href="#DejaVuSans-98"/>
      </g>
     </g>
    </g>
    <g id="xtick_12">
     <g id="line2d_12">
      <g>
       <use style="stroke:#000000;stroke-width:0.8;" x="74.594227" xlink:href="#mba48171915" y="126.44874"/>
      </g>
     </g>
     <g id="text_12">
      <!-- 2 Feb -->
      <g transform="translate(76.801727 155.24374)rotate(-90)scale(0.08 -0.08)">
       <use xlink:href="#DejaVuSans-50"/>
       <use x="63.623047" xlink:href="#DejaVuSans-32"/>
       <use x="95.410156" xlink:href="#DejaVuSans-70"/>
       <use x="147.429688" xlink:href="#DejaVuSans-101"/>
       <use x="208.953125" xlink:href="#DejaVuSans-98"/>
      </g>
     </g>
    </g>
   </g>
   <g id="matplotlib.axis_2">
    <g id="ytick_1">
     <g id="line2d_13">
      <defs>
       <path d="M 0 0 
L -3.5 0 
" id="ma83a8c8f41" style="stroke:#000000;stroke-width:0.8;"/>
      </defs>
      <g>
       <use style="stroke:#000000;stroke-width:0.8;" x="57.17" xlink:href="#ma83a8c8f41" y="126.44874"/>
      </g>
     </g>
     <g id="text_13">
      <!-- 0 -->
      <defs>
       <path d="M 31.78125 66.40625 
Q 24.171875 66.40625 20.328125 58.90625 
Q 16.5 51.421875 16.5 36.375 
Q 16.5 21.390625 20.328125 13.890625 
Q 24.171875 6.390625 31.78125 6.390625 
Q 39.453125 6.390625 43.28125 13.890625 
Q 47.125 21.390625 47.125 36.375 
Q 47.125 51.421875 43.28125 58.90625 
Q 39.453125 66.40625 31.78125 66.40625 
z
M 31.78125 74.21875 
Q 44.046875 74.21875 50.515625 64.515625 
Q 56.984375 54.828125 56.984375 36.375 
Q 56.984375 17.96875 50.515625 8.265625 
Q 44.046875 -1.421875 31.78125 -1.421875 
Q 19.53125 -1.421875 13.0625 8.265625 
Q 6.59375 17.96875 6.59375 36.375 
Q 6.59375 54.828125 13.0625 64.515625 
Q 19.53125 74.21875 31.78125 74.21875 
z
" id="DejaVuSans-48"/>
      </defs>
      <g transform="translate(45.08 129.488115)scale(0.08 -0.08)">
       <use xlink:href="#DejaVuSans-48"/>
      </g>
     </g>
    </g>
    <g id="ytick_2">
     <g id="line2d_14">
      <g>
       <use style="stroke:#000000;stroke-width:0.8;" x="57.17" xlink:href="#ma83a8c8f41" y="109.975786"/>
      </g>
     </g>
     <g id="text_14">
      <!-- 20000 -->
      <g transform="translate(24.72 113.015161)scale(0.08 -0.08)">
       <use xlink:href="#DejaVuSans-50"/>
       <use x="63.623047" xlink:href="#DejaVuSans-48"/>
       <use x="127.246094" xlink:href="#DejaVuSans-48"/>
       <use x="190.869141" xlink:href="#DejaVuSans-48"/>
       <use x="254.492188" xlink:href="#DejaVuSans-48"/>
      </g>
     </g>
    </g>
    <g id="ytick_3">
     <g id="line2d_15">
      <g>
       <use style="stroke:#000000;stroke-width:0.8;" x="57.17" xlink:href="#ma83a8c8f41" y="93.502833"/>
      </g>
     </g>
     <g id="text_15">
      <!-- 40000 -->
      <defs>
       <path d="M 37.796875 64.3125 
L 12.890625 25.390625 
L 37.796875 25.390625 
z
M 35.203125 72.90625 
L 47.609375 72.90625 
L 47.609375 25.390625 
L 58.015625 25.390625 
L 58.015625 17.1875 
L 47.609375 17.1875 
L 47.609375 0 
L 37.796875 0 
L 37.796875 17.1875 
L 4.890625 17.1875 
L 4.890625 26.703125 
z
" id="DejaVuSans-52"/>
      </defs>
      <g transform="translate(24.72 96.542208)scale(0.08 -0.08)">
       <use xlink:href="#DejaVuSans-52"/>
       <use x="63.623047" xlink:href="#DejaVuSans-48"/>
       <use x="127.246094" xlink:href="#DejaVuSans-48"/>
       <use x="190.869141" xlink:href="#DejaVuSans-48"/>
       <use x="254.492188" xlink:href="#DejaVuSans-48"/>
      </g>
     </g>
    </g>
    <g id="ytick_4">
     <g id="line2d_16">
      <g>
       <use style="stroke:#000000;stroke-width:0.8;" x="57.17" xlink:href="#ma83a8c8f41" y="77.029879"/>
      </g>
     </g>
     <g id="text_16">
      <!-- 60000 -->
      <g transform="translate(24.72 80.069254)scale(0.08 -0.08)">
       <use xlink:href="#DejaVuSans-54"/>
       <use x="63.623047" xlink:href="#DejaVuSans-48"/>
       <use x="127.246094" xlink:href="#DejaVuSans-48"/>
       <use x="190.869141" xlink:href="#DejaVuSans-48"/>
       <use x="254.492188" xlink:href="#DejaVuSans-48"/>
      </g>
     </g>
    </g>
    <g id="ytick_5">
     <g id="line2d_17">
      <g>
       <use style="stroke:#000000;stroke-width:0.8;" x="57.17" xlink:href="#ma83a8c8f41" y="60.556925"/>
      </g>
     </g>
     <g id="text_17">
      <!-- 80000 -->
      <g transform="translate(24.72 63.5963)scale(0.08 -0.08)">
       <use xlink:href="#DejaVuSans-56"/>
       <use x="63.623047" xlink:href="#DejaVuSans-48"/>
       <use x="127.246094" xlink:href="#DejaVuSans-48"/>
       <use x="190.869141" xlink:href="#DejaVuSans-48"/>
       <use x="254.492188" xlink:href="#DejaVuSans-48"/>
      </g>
     </g>
    </g>
    <g id="ytick_6">
     <g id="line2d_18">
      <g>
       <use style="stroke:#000000;stroke-width:0.8;" x="57.17" xlink:href="#ma83a8c8f41" y="44.083971"/>
      </g>
     </g>
     <g id="text_18">
      <!-- 100000 -->
      <g transform="translate(19.63 47.123346)scale(0.08 -0.08)">
       <use xlink:href="#DejaVuSans-49"/>
       <use x="63.623047" xlink:href="#DejaVuSans-48"/>
       <use x="127.246094" xlink:href="#DejaVuSans-48"/>
       <use x="190.869141" xlink:href="#DejaVuSans-48"/>
       <use x="254.492188" xlink:href="#DejaVuSans-48"/>
       <use x="318.115234" xlink:href="#DejaVuSans-48"/>
      </g>
     </g>
    </g>
    <g id="ytick_7">
     <g id="line2d_19">
      <g>
       <use style="stroke:#000000;stroke-width:0.8;" x="57.17" xlink:href="#ma83a8c8f41" y="27.611018"/>
      </g>
     </g>
     <g id="text_19">
      <!-- 120000 -->
      <g transform="translate(19.63 30.650393)scale(0.08 -0.08)">
       <use xlink:href="#DejaVuSans-49"/>
       <use x="63.623047" xlink:href="#DejaVuSans-50"/>
       <use x="127.246094" xlink:href="#DejaVuSans-48"/>
       <use x="190.869141" xlink:href="#DejaVuSans-48"/>
       <use x="254.492188" xlink:href="#DejaVuSans-48"/>
       <use x="318.115234" xlink:href="#DejaVuSans-48"/>
      </g>
     </g>
    </g>
    <g id="text_20">
     <!-- Cases per day -->
     <defs>
      <path d="M 64.40625 67.28125 
L 64.40625 56.890625 
Q 59.421875 61.53125 53.78125 63.8125 
Q 48.140625 66.109375 41.796875 66.109375 
Q 29.296875 66.109375 22.65625 58.46875 
Q 16.015625 50.828125 16.015625 36.375 
Q 16.015625 21.96875 22.65625 14.328125 
Q 29.296875 6.6875 41.796875 6.6875 
Q 48.140625 6.6875 53.78125 8.984375 
Q 59.421875 11.28125 64.40625 15.921875 
L 64.40625 5.609375 
Q 59.234375 2.09375 53.4375 0.328125 
Q 47.65625 -1.421875 41.21875 -1.421875 
Q 24.65625 -1.421875 15.125 8.703125 
Q 5.609375 18.84375 5.609375 36.375 
Q 5.609375 53.953125 15.125 64.078125 
Q 24.65625 74.21875 41.21875 74.21875 
Q 47.75 74.21875 53.53125 72.484375 
Q 59.328125 70.75 64.40625 67.28125 
z
" id="DejaVuSans-67"/>
      <path d="M 44.28125 53.078125 
L 44.28125 44.578125 
Q 40.484375 46.53125 36.375 47.5 
Q 32.28125 48.484375 27.875 48.484375 
Q 21.1875 48.484375 17.84375 46.4375 
Q 14.5 44.390625 14.5 40.28125 
Q 14.5 37.15625 16.890625 35.375 
Q 19.28125 33.59375 26.515625 31.984375 
L 29.59375 31.296875 
Q 39.15625 29.25 43.1875 25.515625 
Q 47.21875 21.78125 47.21875 15.09375 
Q 47.21875 7.46875 41.1875 3.015625 
Q 35.15625 -1.421875 24.609375 -1.421875 
Q 20.21875 -1.421875 15.453125 -0.5625 
Q 10.6875 0.296875 5.421875 2 
L 5.421875 11.28125 
Q 10.40625 8.6875 15.234375 7.390625 
Q 20.0625 6.109375 24.8125 6.109375 
Q 31.15625 6.109375 34.5625 8.28125 
Q 37.984375 10.453125 37.984375 14.40625 
Q 37.984375 18.0625 35.515625 20.015625 
Q 33.0625 21.96875 24.703125 23.78125 
L 21.578125 24.515625 
Q 13.234375 26.265625 9.515625 29.90625 
Q 5.8125 33.546875 5.8125 39.890625 
Q 5.8125 47.609375 11.28125 51.796875 
Q 16.75 56 26.8125 56 
Q 31.78125 56 36.171875 55.265625 
Q 40.578125 54.546875 44.28125 53.078125 
z
" id="DejaVuSans-115"/>
      <path d="M 45.40625 46.390625 
L 45.40625 75.984375 
L 54.390625 75.984375 
L 54.390625 0 
L 45.40625 0 
L 45.40625 8.203125 
Q 42.578125 3.328125 38.25 0.953125 
Q 33.9375 -1.421875 27.875 -1.421875 
Q 17.96875 -1.421875 11.734375 6.484375 
Q 5.515625 14.40625 5.515625 27.296875 
Q 5.515625 40.1875 11.734375 48.09375 
Q 17.96875 56 27.875 56 
Q 33.9375 56 38.25 53.625 
Q 42.578125 51.265625 45.40625 46.390625 
z
M 14.796875 27.296875 
Q 14.796875 17.390625 18.875 11.75 
Q 22.953125 6.109375 30.078125 6.109375 
Q 37.203125 6.109375 41.296875 11.75 
Q 45.40625 17.390625 45.40625 27.296875 
Q 45.40625 37.203125 41.296875 42.84375 
Q 37.203125 48.484375 30.078125 48.484375 
Q 22.953125 48.484375 18.875 42.84375 
Q 14.796875 37.203125 14.796875 27.296875 
z
" id="DejaVuSans-100"/>
      <path d="M 32.171875 -5.078125 
Q 28.375 -14.84375 24.75 -17.8125 
Q 21.140625 -20.796875 15.09375 -20.796875 
L 7.90625 -20.796875 
L 7.90625 -13.28125 
L 13.1875 -13.28125 
Q 16.890625 -13.28125 18.9375 -11.515625 
Q 21 -9.765625 23.484375 -3.21875 
L 25.09375 0.875 
L 2.984375 54.6875 
L 12.5 54.6875 
L 29.59375 11.921875 
L 46.6875 54.6875 
L 56.203125 54.6875 
z
" id="DejaVuSans-121"/>
     </defs>
     <g transform="translate(13.96625 97.40312)rotate(-90)scale(0.08 -0.08)">
      <use xlink:href="#DejaVuSans-67"/>
      <use x="69.824219" xlink:href="#DejaVuSans-97"/>
      <use x="131.103516" xlink:href="#DejaVuSans-115"/>
      <use x="183.203125" xlink:href="#DejaVuSans-101"/>
      <use x="244.726562" xlink:href="#DejaVuSans-115"/>
      <use x="296.826172" xlink:href="#DejaVuSans-32"/>
      <use x="328.613281" xlink:href="#DejaVuSans-112"/>
      <use x="392.089844" xlink:href="#DejaVuSans-101"/>
      <use x="453.613281" xlink:href="#DejaVuSans-114"/>
      <use x="494.726562" xlink:href="#DejaVuSans-32"/>
      <use x="526.513672" xlink:href="#DejaVuSans-100"/>
      <use x="589.990234" xlink:href="#DejaVuSans-97"/>
      <use x="651.269531" xlink:href="#DejaVuSans-121"/>
     </g>
    </g>
   </g>
   <g id="line2d_20">
    <path clip-path="url(#pb9276d10a1)" d="M 64.722144 126.433343 
L 66.367491 126.433343 
L 68.012838 126.433343 
L 69.658186 126.433343 
L 71.303533 126.433343 
L 72.94888 126.433343 
L 74.594227 126.420607 
L 76.239575 126.41472 
L 77.884922 126.407125 
L 79.530269 126.397283 
L 81.175616 126.384829 
L 82.820964 126.369255 
L 84.466311 126.349849 
L 86.111658 126.325685 
L 87.757006 126.295587 
L 89.402353 126.258088 
L 91.0477 126.211356 
L 92.693047 126.153102 
L 94.338395 126.080469 
L 95.983742 125.999717 
L 97.629089 125.82753 
L 99.274436 125.707992 
L 100.919784 125.512632 
L 102.565131 125.350432 
L 104.210478 124.969981 
L 105.855825 124.600208 
L 107.501173 123.964544 
L 109.14652 121.568086 
L 110.791867 118.554883 
L 112.437214 120.518786 
L 114.082562 120.528035 
L 115.727909 118.105783 
L 117.373256 115.706346 
L 119.018603 113.26822 
L 120.663951 112.202154 
L 122.309298 110.313265 
L 123.954645 102.389605 
L 125.599992 95.538618 
L 127.24534 91.01971 
L 128.890687 82.962633 
L 130.536034 70.446068 
L 132.181381 52.944331 
L 133.826729 49.770183 
L 135.472076 37.804787 
L 137.117423 56.334156 
L 138.762771 67.456555 
L 140.408118 70.836522 
L 142.053465 89.297862 
L 143.698812 103.133526 
L 145.34416 79.03433 
L 146.989507 85.888279 
L 148.634854 89.374467 
L 150.280201 91.52193 
L 151.925549 88.32148 
L 153.570896 99.197421 
L 155.216243 115.549137 
L 156.86159 96.517389 
L 158.506938 100.381882 
L 160.152285 103.65945 
L 161.797632 105.221919 
L 163.442979 102.595709 
L 165.088327 107.170839 
L 166.733674 117.067957 
" style="fill:none;stroke:#0000ff;stroke-linecap:square;stroke-opacity:0.5;"/>
   </g>
   <g id="line2d_21">
    <path clip-path="url(#pb9276d10a1)" d="M 168.379021 117.211027 
L 170.024368 117.513007 
L 171.669716 117.923506 
L 173.315063 118.374804 
L 174.96041 118.818759 
L 176.605757 119.227958 
L 178.251105 119.589721 
L 179.896452 119.900242 
L 181.541799 120.160425 
L 183.187146 120.373325 
L 184.832494 120.54271 
L 186.477841 120.672324 
L 188.123188 120.765548 
L 189.768536 120.825271 
L 191.413883 120.853864 
L 193.05923 120.853202 
L 194.704577 120.824704 
L 196.349925 120.769372 
L 197.995272 120.687831 
L 199.640619 120.580356 
L 201.285966 120.446897 
" style="fill:none;stroke:#008000;stroke-linecap:square;stroke-opacity:0.5;"/>
   </g>
   <g id="line2d_22">
    <path clip-path="url(#pb9276d10a1)" d="M 133.826729 126.44874 
L 133.826729 11.52 
" style="fill:none;stroke:#0000ff;stroke-dasharray:1.85,0.8;stroke-dashoffset:0;stroke-width:0.5;"/>
   </g>
   <g id="line2d_23">
    <path clip-path="url(#pb9276d10a1)" d="M 127.24534 126.44874 
L 127.24534 11.52 
" style="fill:none;stroke:#0000ff;stroke-dasharray:1.85,0.8;stroke-dashoffset:0;stroke-width:0.5;"/>
   </g>
   <g id="line2d_24">
    <path clip-path="url(#pb9276d10a1)" d="M 137.117423 126.44874 
L 137.117423 11.52 
" style="fill:none;stroke:#0000ff;stroke-dasharray:1.85,0.8;stroke-dashoffset:0;stroke-width:0.5;"/>
   </g>
   <g id="line2d_25">
    <path clip-path="url(#pb9276d10a1)" d="M 133.826729 126.44874 
L 133.826729 11.52 
" style="fill:none;stroke:#0000ff;stroke-dasharray:1.85,0.8;stroke-dashoffset:0;stroke-width:0.5;"/>
   </g>
   <g id="line2d_26">
    <path clip-path="url(#pb9276d10a1)" d="M 133.826729 126.44874 
L 133.826729 11.52 
" style="fill:none;stroke:#0000ff;stroke-dasharray:1.85,0.8;stroke-dashoffset:0;stroke-width:0.5;"/>
   </g>
   <g id="patch_87">
    <path d="M 57.17 126.44874 
L 57.17 11.52 
" style="fill:none;stroke:#000000;stroke-linecap:square;stroke-linejoin:miter;stroke-width:0.8;"/>
   </g>
   <g id="patch_88">
    <path d="M 208.83811 126.44874 
L 208.83811 11.52 
" style="fill:none;stroke:#000000;stroke-linecap:square;stroke-linejoin:miter;stroke-width:0.8;"/>
   </g>
   <g id="patch_89">
    <path d="M 57.17 126.44874 
L 208.83811 126.44874 
" style="fill:none;stroke:#000000;stroke-linecap:square;stroke-linejoin:miter;stroke-width:0.8;"/>
   </g>
   <g id="patch_90">
    <path d="M 57.17 11.52 
L 208.83811 11.52 
" style="fill:none;stroke:#000000;stroke-linecap:square;stroke-linejoin:miter;stroke-width:0.8;"/>
   </g>
   <g id="legend_1">
    <g id="line2d_27">
     <path d="M 64.37 103.04249 
L 80.37 103.04249 
" style="fill:none;stroke:#0000ff;stroke-linecap:square;stroke-opacity:0.5;"/>
    </g>
    <g id="line2d_28"/>
    <g id="text_21">
     <!-- Simulation -->
     <defs>
      <path d="M 53.515625 70.515625 
L 53.515625 60.890625 
Q 47.90625 63.578125 42.921875 64.890625 
Q 37.9375 66.21875 33.296875 66.21875 
Q 25.25 66.21875 20.875 63.09375 
Q 16.5 59.96875 16.5 54.203125 
Q 16.5 49.359375 19.40625 46.890625 
Q 22.3125 44.4375 30.421875 42.921875 
L 36.375 41.703125 
Q 47.40625 39.59375 52.65625 34.296875 
Q 57.90625 29 57.90625 20.125 
Q 57.90625 9.515625 50.796875 4.046875 
Q 43.703125 -1.421875 29.984375 -1.421875 
Q 24.8125 -1.421875 18.96875 -0.25 
Q 13.140625 0.921875 6.890625 3.21875 
L 6.890625 13.375 
Q 12.890625 10.015625 18.65625 8.296875 
Q 24.421875 6.59375 29.984375 6.59375 
Q 38.421875 6.59375 43.015625 9.90625 
Q 47.609375 13.234375 47.609375 19.390625 
Q 47.609375 24.75 44.3125 27.78125 
Q 41.015625 30.8125 33.5 32.328125 
L 27.484375 33.5 
Q 16.453125 35.6875 11.515625 40.375 
Q 6.59375 45.0625 6.59375 53.421875 
Q 6.59375 63.09375 13.40625 68.65625 
Q 20.21875 74.21875 32.171875 74.21875 
Q 37.3125 74.21875 42.625 73.28125 
Q 47.953125 72.359375 53.515625 70.515625 
z
" id="DejaVuSans-83"/>
      <path d="M 9.421875 54.6875 
L 18.40625 54.6875 
L 18.40625 0 
L 9.421875 0 
z
M 9.421875 75.984375 
L 18.40625 75.984375 
L 18.40625 64.59375 
L 9.421875 64.59375 
z
" id="DejaVuSans-105"/>
      <path d="M 52 44.1875 
Q 55.375 50.25 60.0625 53.125 
Q 64.75 56 71.09375 56 
Q 79.640625 56 84.28125 50.015625 
Q 88.921875 44.046875 88.921875 33.015625 
L 88.921875 0 
L 79.890625 0 
L 79.890625 32.71875 
Q 79.890625 40.578125 77.09375 44.375 
Q 74.3125 48.1875 68.609375 48.1875 
Q 61.625 48.1875 57.5625 43.546875 
Q 53.515625 38.921875 53.515625 30.90625 
L 53.515625 0 
L 44.484375 0 
L 44.484375 32.71875 
Q 44.484375 40.625 41.703125 44.40625 
Q 38.921875 48.1875 33.109375 48.1875 
Q 26.21875 48.1875 22.15625 43.53125 
Q 18.109375 38.875 18.109375 30.90625 
L 18.109375 0 
L 9.078125 0 
L 9.078125 54.6875 
L 18.109375 54.6875 
L 18.109375 46.1875 
Q 21.1875 51.21875 25.484375 53.609375 
Q 29.78125 56 35.6875 56 
Q 41.65625 56 45.828125 52.96875 
Q 50 49.953125 52 44.1875 
z
" id="DejaVuSans-109"/>
      <path d="M 8.5 21.578125 
L 8.5 54.6875 
L 17.484375 54.6875 
L 17.484375 21.921875 
Q 17.484375 14.15625 20.5 10.265625 
Q 23.53125 6.390625 29.59375 6.390625 
Q 36.859375 6.390625 41.078125 11.03125 
Q 45.3125 15.671875 45.3125 23.6875 
L 45.3125 54.6875 
L 54.296875 54.6875 
L 54.296875 0 
L 45.3125 0 
L 45.3125 8.40625 
Q 42.046875 3.421875 37.71875 1 
Q 33.40625 -1.421875 27.6875 -1.421875 
Q 18.265625 -1.421875 13.375 4.4375 
Q 8.5 10.296875 8.5 21.578125 
z
M 31.109375 56 
z
" id="DejaVuSans-117"/>
      <path d="M 9.421875 75.984375 
L 18.40625 75.984375 
L 18.40625 0 
L 9.421875 0 
z
" id="DejaVuSans-108"/>
      <path d="M 18.3125 70.21875 
L 18.3125 54.6875 
L 36.8125 54.6875 
L 36.8125 47.703125 
L 18.3125 47.703125 
L 18.3125 18.015625 
Q 18.3125 11.328125 20.140625 9.421875 
Q 21.96875 7.515625 27.59375 7.515625 
L 36.8125 7.515625 
L 36.8125 0 
L 27.59375 0 
Q 17.1875 0 13.234375 3.875 
Q 9.28125 7.765625 9.28125 18.015625 
L 9.28125 47.703125 
L 2.6875 47.703125 
L 2.6875 54.6875 
L 9.28125 54.6875 
L 9.28125 70.21875 
z
" id="DejaVuSans-116"/>
      <path d="M 30.609375 48.390625 
Q 23.390625 48.390625 19.1875 42.75 
Q 14.984375 37.109375 14.984375 27.296875 
Q 14.984375 17.484375 19.15625 11.84375 
Q 23.34375 6.203125 30.609375 6.203125 
Q 37.796875 6.203125 41.984375 11.859375 
Q 46.1875 17.53125 46.1875 27.296875 
Q 46.1875 37.015625 41.984375 42.703125 
Q 37.796875 48.390625 30.609375 48.390625 
z
M 30.609375 56 
Q 42.328125 56 49.015625 48.375 
Q 55.71875 40.765625 55.71875 27.296875 
Q 55.71875 13.875 49.015625 6.21875 
Q 42.328125 -1.421875 30.609375 -1.421875 
Q 18.84375 -1.421875 12.171875 6.21875 
Q 5.515625 13.875 5.515625 27.296875 
Q 5.515625 40.765625 12.171875 48.375 
Q 18.84375 56 30.609375 56 
z
" id="DejaVuSans-111"/>
      <path d="M 54.890625 33.015625 
L 54.890625 0 
L 45.90625 0 
L 45.90625 32.71875 
Q 45.90625 40.484375 42.875 44.328125 
Q 39.84375 48.1875 33.796875 48.1875 
Q 26.515625 48.1875 22.3125 43.546875 
Q 18.109375 38.921875 18.109375 30.90625 
L 18.109375 0 
L 9.078125 0 
L 9.078125 54.6875 
L 18.109375 54.6875 
L 18.109375 46.1875 
Q 21.34375 51.125 25.703125 53.5625 
Q 30.078125 56 35.796875 56 
Q 45.21875 56 50.046875 50.171875 
Q 54.890625 44.34375 54.890625 33.015625 
z
" id="DejaVuSans-110"/>
     </defs>
     <g transform="translate(86.77 105.84249)scale(0.08 -0.08)">
      <use xlink:href="#DejaVuSans-83"/>
      <use x="63.476562" xlink:href="#DejaVuSans-105"/>
      <use x="91.259766" xlink:href="#DejaVuSans-109"/>
      <use x="188.671875" xlink:href="#DejaVuSans-117"/>
      <use x="252.050781" xlink:href="#DejaVuSans-108"/>
      <use x="279.833984" xlink:href="#DejaVuSans-97"/>
      <use x="341.113281" xlink:href="#DejaVuSans-116"/>
      <use x="380.322266" xlink:href="#DejaVuSans-105"/>
      <use x="408.105469" xlink:href="#DejaVuSans-111"/>
      <use x="469.287109" xlink:href="#DejaVuSans-110"/>
     </g>
    </g>
    <g id="line2d_29">
     <path d="M 64.37 114.78499 
L 80.37 114.78499 
" style="fill:none;stroke:#008000;stroke-linecap:square;stroke-opacity:0.5;"/>
    </g>
    <g id="line2d_30"/>
    <g id="text_22">
     <!-- Forecast -->
     <defs>
      <path d="M 48.78125 52.59375 
L 48.78125 44.1875 
Q 44.96875 46.296875 41.140625 47.34375 
Q 37.3125 48.390625 33.40625 48.390625 
Q 24.65625 48.390625 19.8125 42.84375 
Q 14.984375 37.3125 14.984375 27.296875 
Q 14.984375 17.28125 19.8125 11.734375 
Q 24.65625 6.203125 33.40625 6.203125 
Q 37.3125 6.203125 41.140625 7.25 
Q 44.96875 8.296875 48.78125 10.40625 
L 48.78125 2.09375 
Q 45.015625 0.34375 40.984375 -0.53125 
Q 36.96875 -1.421875 32.421875 -1.421875 
Q 20.0625 -1.421875 12.78125 6.34375 
Q 5.515625 14.109375 5.515625 27.296875 
Q 5.515625 40.671875 12.859375 48.328125 
Q 20.21875 56 33.015625 56 
Q 37.15625 56 41.109375 55.140625 
Q 45.0625 54.296875 48.78125 52.59375 
z
" id="DejaVuSans-99"/>
     </defs>
     <g transform="translate(86.77 117.58499)scale(0.08 -0.08)">
      <use xlink:href="#DejaVuSans-70"/>
      <use x="53.894531" xlink:href="#DejaVuSans-111"/>
      <use x="115.076172" xlink:href="#DejaVuSans-114"/>
      <use x="153.939453" xlink:href="#DejaVuSans-101"/>
      <use x="215.462891" xlink:href="#DejaVuSans-99"/>
      <use x="270.443359" xlink:href="#DejaVuSans-97"/>
      <use x="331.722656" xlink:href="#DejaVuSans-115"/>
      <use x="383.822266" xlink:href="#DejaVuSans-116"/>
     </g>
    </g>
   </g>
  </g>
  <g id="axes_2">
   <g id="matplotlib.axis_3">
    <g id="ytick_8">
     <g id="line2d_31">
      <defs>
       <path d="M 0 0 
L 3.5 0 
" id="m43e7fbb9e7" style="stroke:#000000;stroke-width:0.8;"/>
      </defs>
      <g>
       <use style="stroke:#000000;stroke-width:0.8;" x="208.83811" xlink:href="#m43e7fbb9e7" y="126.44874"/>
      </g>
     </g>
     <g id="text_23">
      <!-- 1.0 -->
      <defs>
       <path d="M 10.59375 35.5 
L 73.1875 35.5 
L 73.1875 27.203125 
L 10.59375 27.203125 
z
" id="DejaVuSans-8722"/>
       <path d="M 10.6875 12.40625 
L 21 12.40625 
L 21 0 
L 10.6875 0 
z
" id="DejaVuSans-46"/>
      </defs>
      <g transform="translate(215.83811 129.488115)scale(0.08 -0.08)">
       <use xlink:href="#DejaVuSans-8722"/>
       <use x="83.789062" xlink:href="#DejaVuSans-49"/>
       <use x="147.412109" xlink:href="#DejaVuSans-46"/>
       <use x="179.199219" xlink:href="#DejaVuSans-48"/>
      </g>
     </g>
    </g>
    <g id="ytick_9">
     <g id="line2d_32">
      <g>
       <use style="stroke:#000000;stroke-width:0.8;" x="208.83811" xlink:href="#m43e7fbb9e7" y="85.402762"/>
      </g>
     </g>
     <g id="text_24">
      <!-- 0.5 -->
      <g transform="translate(215.83811 88.442137)scale(0.08 -0.08)">
       <use xlink:href="#DejaVuSans-8722"/>
       <use x="83.789062" xlink:href="#DejaVuSans-48"/>
       <use x="147.412109" xlink:href="#DejaVuSans-46"/>
       <use x="179.199219" xlink:href="#DejaVuSans-53"/>
      </g>
     </g>
    </g>
    <g id="ytick_10">
     <g id="line2d_33">
      <g>
       <use style="stroke:#000000;stroke-width:0.8;" x="208.83811" xlink:href="#m43e7fbb9e7" y="44.356783"/>
      </g>
     </g>
     <g id="text_25">
      <!-- 0.0 -->
      <g transform="translate(215.83811 47.396158)scale(0.08 -0.08)">
       <use xlink:href="#DejaVuSans-48"/>
       <use x="63.623047" xlink:href="#DejaVuSans-46"/>
       <use x="95.410156" xlink:href="#DejaVuSans-48"/>
      </g>
     </g>
    </g>
    <g id="ytick_11">
     <g id="line2d_34">
      <g>
       <use style="stroke:#000000;stroke-width:0.8;" x="208.83811" xlink:href="#m43e7fbb9e7" y="11.52"/>
      </g>
     </g>
     <g id="text_26">
      <!-- 0.4 -->
      <g transform="translate(215.83811 14.559375)scale(0.08 -0.08)">
       <use xlink:href="#DejaVuSans-48"/>
       <use x="63.623047" xlink:href="#DejaVuSans-46"/>
       <use x="95.410156" xlink:href="#DejaVuSans-52"/>
      </g>
     </g>
    </g>
    <g id="text_27">
     <!-- Relative change -->
     <defs>
      <path d="M 44.390625 34.1875 
Q 47.5625 33.109375 50.5625 29.59375 
Q 53.5625 26.078125 56.59375 19.921875 
L 66.609375 0 
L 56 0 
L 46.6875 18.703125 
Q 43.0625 26.03125 39.671875 28.421875 
Q 36.28125 30.8125 30.421875 30.8125 
L 19.671875 30.8125 
L 19.671875 0 
L 9.8125 0 
L 9.8125 72.90625 
L 32.078125 72.90625 
Q 44.578125 72.90625 50.734375 67.671875 
Q 56.890625 62.453125 56.890625 51.90625 
Q 56.890625 45.015625 53.6875 40.46875 
Q 50.484375 35.9375 44.390625 34.1875 
z
M 19.671875 64.796875 
L 19.671875 38.921875 
L 32.078125 38.921875 
Q 39.203125 38.921875 42.84375 42.21875 
Q 46.484375 45.515625 46.484375 51.90625 
Q 46.484375 58.296875 42.84375 61.546875 
Q 39.203125 64.796875 32.078125 64.796875 
z
" id="DejaVuSans-82"/>
      <path d="M 2.984375 54.6875 
L 12.5 54.6875 
L 29.59375 8.796875 
L 46.6875 54.6875 
L 56.203125 54.6875 
L 35.6875 0 
L 23.484375 0 
z
" id="DejaVuSans-118"/>
      <path d="M 54.890625 33.015625 
L 54.890625 0 
L 45.90625 0 
L 45.90625 32.71875 
Q 45.90625 40.484375 42.875 44.328125 
Q 39.84375 48.1875 33.796875 48.1875 
Q 26.515625 48.1875 22.3125 43.546875 
Q 18.109375 38.921875 18.109375 30.90625 
L 18.109375 0 
L 9.078125 0 
L 9.078125 75.984375 
L 18.109375 75.984375 
L 18.109375 46.1875 
Q 21.34375 51.125 25.703125 53.5625 
Q 30.078125 56 35.796875 56 
Q 45.21875 56 50.046875 50.171875 
Q 54.890625 44.34375 54.890625 33.015625 
z
" id="DejaVuSans-104"/>
      <path d="M 45.40625 27.984375 
Q 45.40625 37.75 41.375 43.109375 
Q 37.359375 48.484375 30.078125 48.484375 
Q 22.859375 48.484375 18.828125 43.109375 
Q 14.796875 37.75 14.796875 27.984375 
Q 14.796875 18.265625 18.828125 12.890625 
Q 22.859375 7.515625 30.078125 7.515625 
Q 37.359375 7.515625 41.375 12.890625 
Q 45.40625 18.265625 45.40625 27.984375 
z
M 54.390625 6.78125 
Q 54.390625 -7.171875 48.1875 -13.984375 
Q 42 -20.796875 29.203125 -20.796875 
Q 24.46875 -20.796875 20.265625 -20.09375 
Q 16.0625 -19.390625 12.109375 -17.921875 
L 12.109375 -9.1875 
Q 16.0625 -11.328125 19.921875 -12.34375 
Q 23.78125 -13.375 27.78125 -13.375 
Q 36.625 -13.375 41.015625 -8.765625 
Q 45.40625 -4.15625 45.40625 5.171875 
L 45.40625 9.625 
Q 42.625 4.78125 38.28125 2.390625 
Q 33.9375 0 27.875 0 
Q 17.828125 0 11.671875 7.65625 
Q 5.515625 15.328125 5.515625 27.984375 
Q 5.515625 40.671875 11.671875 48.328125 
Q 17.828125 56 27.875 56 
Q 33.9375 56 38.28125 53.609375 
Q 42.625 51.21875 45.40625 46.390625 
L 45.40625 54.6875 
L 54.390625 54.6875 
z
" id="DejaVuSans-103"/>
     </defs>
     <g transform="translate(245.34311 101.10812)rotate(-90)scale(0.08 -0.08)">
      <use xlink:href="#DejaVuSans-82"/>
      <use x="64.982422" xlink:href="#DejaVuSans-101"/>
      <use x="126.505859" xlink:href="#DejaVuSans-108"/>
      <use x="154.289062" xlink:href="#DejaVuSans-97"/>
      <use x="215.568359" xlink:href="#DejaVuSans-116"/>
      <use x="254.777344" xlink:href="#DejaVuSans-105"/>
      <use x="282.560547" xlink:href="#DejaVuSans-118"/>
      <use x="341.740234" xlink:href="#DejaVuSans-101"/>
      <use x="403.263672" xlink:href="#DejaVuSans-32"/>
      <use x="435.050781" xlink:href="#DejaVuSans-99"/>
      <use x="490.03125" xlink:href="#DejaVuSans-104"/>
      <use x="553.410156" xlink:href="#DejaVuSans-97"/>
      <use x="614.689453" xlink:href="#DejaVuSans-110"/>
      <use x="678.068359" xlink:href="#DejaVuSans-103"/>
      <use x="741.544922" xlink:href="#DejaVuSans-101"/>
     </g>
    </g>
   </g>
   <g id="line2d_35">
    <path clip-path="url(#pb9276d10a1)" d="M 64.722144 44.356783 
L 66.367491 44.356783 
L 68.012838 44.356783 
L 69.658186 44.356783 
L 71.303533 44.356783 
L 72.94888 44.356783 
L 74.594227 44.356783 
L 76.239575 44.356783 
L 77.884922 44.356783 
L 79.530269 44.356783 
L 81.175616 44.356783 
L 82.820964 44.356783 
L 84.466311 44.356783 
L 86.111658 44.356783 
L 87.757006 44.356783 
L 89.402353 44.356783 
L 91.0477 44.356783 
L 92.693047 44.356783 
L 94.338395 44.356783 
L 95.983742 41.894024 
L 97.629089 41.894024 
L 99.274436 44.356783 
L 100.919784 41.894024 
L 102.565131 44.356783 
L 104.210478 42.714944 
L 105.855825 43.535863 
L 107.501173 45.177702 
L 109.14652 48.461381 
L 110.791867 47.640461 
L 112.437214 49.2823 
L 114.082562 55.028737 
L 115.727909 52.565979 
L 117.373256 50.924139 
L 119.018603 52.565979 
L 120.663951 59.954255 
L 122.309298 55.028737 
L 123.954645 50.10322 
L 125.599992 50.10322 
L 127.24534 54.207818 
L 128.890687 56.670576 
L 130.536034 59.954255 
L 132.181381 70.626209 
L 133.826729 68.98437 
L 135.472076 79.656325 
L 137.117423 87.044601 
L 138.762771 101.821153 
L 140.408118 105.925751 
L 142.053465 112.493107 
L 143.698812 118.239544 
L 145.34416 105.925751 
L 146.989507 107.56759 
L 148.634854 109.209429 
L 150.280201 109.209429 
L 151.925549 110.030349 
L 153.570896 114.955866 
L 155.216243 122.344142 
L 156.86159 110.030349 
L 158.506938 110.851268 
L 160.152285 112.493107 
L 161.797632 113.314027 
L 163.442979 112.493107 
L 165.088327 115.776786 
L 166.733674 121.523223 
" style="fill:none;stroke:#d62728;stroke-linecap:square;stroke-opacity:0.5;"/>
   </g>
   <g id="line2d_36">
    <path clip-path="url(#pb9276d10a1)" d="M 64.722144 44.356783 
L 66.367491 44.356783 
L 68.012838 44.356783 
L 69.658186 44.356783 
L 71.303533 44.356783 
L 72.94888 44.356783 
L 74.594227 44.356783 
L 76.239575 44.356783 
L 77.884922 44.356783 
L 79.530269 44.356783 
L 81.175616 44.356783 
L 82.820964 44.356783 
L 84.466311 44.356783 
L 86.111658 44.356783 
L 87.757006 44.356783 
L 89.402353 44.356783 
L 91.0477 44.356783 
L 92.693047 44.356783 
L 94.338395 44.356783 
L 95.983742 45.177702 
L 97.629089 42.714944 
L 99.274436 43.535863 
L 100.919784 43.535863 
L 102.565131 45.177702 
L 104.210478 43.535863 
L 105.855825 43.535863 
L 107.501173 41.894024 
L 109.14652 31.22207 
L 110.791867 25.475633 
L 112.437214 40.252185 
L 114.082562 48.461381 
L 115.727909 46.819542 
L 117.373256 45.998622 
L 119.018603 45.998622 
L 120.663951 48.461381 
L 122.309298 50.10322 
L 123.954645 45.177702 
L 125.599992 43.535863 
L 127.24534 44.356783 
L 128.890687 44.356783 
L 130.536034 43.535863 
L 132.181381 41.894024 
L 133.826729 45.177702 
L 135.472076 45.998622 
L 137.117423 55.849657 
L 138.762771 63.237933 
L 140.408118 67.342531 
L 142.053465 79.656325 
L 143.698812 93.611957 
L 145.34416 74.730807 
L 146.989507 78.014485 
L 148.634854 79.656325 
L 150.280201 80.477244 
L 151.925549 77.193566 
L 153.570896 86.223681 
L 155.216243 114.134947 
L 156.86159 81.298164 
L 158.506938 83.760922 
L 160.152285 86.223681 
L 161.797632 87.044601 
L 163.442979 82.119083 
L 165.088327 88.68644 
L 166.733674 114.134947 
" style="fill:none;stroke:#9467bd;stroke-linecap:square;stroke-opacity:0.5;"/>
   </g>
   <g id="line2d_37">
    <path clip-path="url(#pb9276d10a1)" d="M 64.722144 44.356783 
L 66.367491 44.356783 
L 68.012838 44.356783 
L 69.658186 44.356783 
L 71.303533 44.356783 
L 72.94888 44.356783 
L 74.594227 44.356783 
L 76.239575 44.356783 
L 77.884922 44.356783 
L 79.530269 44.356783 
L 81.175616 44.356783 
L 82.820964 44.356783 
L 84.466311 44.356783 
L 86.111658 44.356783 
L 87.757006 44.356783 
L 89.402353 44.356783 
L 91.0477 44.356783 
L 92.693047 44.356783 
L 94.338395 44.356783 
L 95.983742 36.968507 
L 97.629089 35.326668 
L 99.274436 41.894024 
L 100.919784 41.073105 
L 102.565131 41.894024 
L 104.210478 40.252185 
L 105.855825 40.252185 
L 107.501173 37.789426 
L 109.14652 39.431265 
L 110.791867 56.670576 
L 112.437214 59.133335 
L 114.082562 63.237933 
L 115.727909 62.417013 
L 117.373256 60.775174 
L 119.018603 57.491496 
L 120.663951 65.700692 
L 122.309298 64.879772 
L 123.954645 61.596094 
L 125.599992 59.954255 
L 127.24534 67.342531 
L 128.890687 68.163451 
L 130.536034 64.058853 
L 132.181381 66.521611 
L 133.826729 78.835405 
L 135.472076 86.223681 
L 137.117423 91.149199 
L 138.762771 99.358394 
L 140.408118 102.642073 
L 142.053465 106.74667 
L 143.698812 110.030349 
L 145.34416 105.104831 
L 146.989507 106.74667 
L 148.634854 107.56759 
L 150.280201 108.38851 
L 151.925549 108.38851 
L 153.570896 110.030349 
L 155.216243 115.776786 
L 156.86159 110.851268 
L 158.506938 110.851268 
L 160.152285 111.672188 
L 161.797632 112.493107 
L 163.442979 111.672188 
L 165.088327 111.672188 
L 166.733674 115.776786 
" style="fill:none;stroke:#e377c2;stroke-linecap:square;stroke-opacity:0.5;"/>
   </g>
   <g id="line2d_38">
    <path clip-path="url(#pb9276d10a1)" d="M 64.722144 44.356783 
L 66.367491 44.356783 
L 68.012838 44.356783 
L 69.658186 44.356783 
L 71.303533 44.356783 
L 72.94888 44.356783 
L 74.594227 44.356783 
L 76.239575 44.356783 
L 77.884922 44.356783 
L 79.530269 44.356783 
L 81.175616 44.356783 
L 82.820964 44.356783 
L 84.466311 44.356783 
L 86.111658 44.356783 
L 87.757006 44.356783 
L 89.402353 44.356783 
L 91.0477 44.356783 
L 92.693047 44.356783 
L 94.338395 44.356783 
L 95.983742 44.356783 
L 97.629089 43.535863 
L 99.274436 43.535863 
L 100.919784 43.535863 
L 102.565131 43.535863 
L 104.210478 43.535863 
L 105.855825 44.356783 
L 107.501173 44.356783 
L 109.14652 43.535863 
L 110.791867 55.849657 
L 112.437214 56.670576 
L 114.082562 54.207818 
L 115.727909 54.207818 
L 117.373256 54.207818 
L 119.018603 51.745059 
L 120.663951 48.461381 
L 122.309298 51.745059 
L 123.954645 50.924139 
L 125.599992 50.924139 
L 127.24534 57.491496 
L 128.890687 58.312416 
L 130.536034 56.670576 
L 132.181381 52.565979 
L 133.826729 64.058853 
L 135.472076 69.80529 
L 137.117423 74.730807 
L 138.762771 82.940003 
L 140.408118 87.86552 
L 142.053465 91.970118 
L 143.698812 89.507359 
L 145.34416 91.970118 
L 146.989507 94.432877 
L 148.634854 94.432877 
L 150.280201 96.074716 
L 151.925549 96.074716 
L 153.570896 96.074716 
L 155.216243 96.074716 
L 156.86159 100.179314 
L 158.506938 101.000233 
L 160.152285 101.821153 
L 161.797632 103.462992 
L 163.442979 102.642073 
L 165.088327 97.716555 
L 166.733674 96.074716 
" style="fill:none;stroke:#bcbd22;stroke-linecap:square;stroke-opacity:0.5;"/>
   </g>
   <g id="line2d_39">
    <path clip-path="url(#pb9276d10a1)" d="M 64.722144 44.356783 
L 66.367491 44.356783 
L 68.012838 44.356783 
L 69.658186 44.356783 
L 71.303533 44.356783 
L 72.94888 44.356783 
L 74.594227 44.356783 
L 76.239575 44.356783 
L 77.884922 44.356783 
L 79.530269 44.356783 
L 81.175616 44.356783 
L 82.820964 44.356783 
L 84.466311 44.356783 
L 86.111658 44.356783 
L 87.757006 44.356783 
L 89.402353 44.356783 
L 91.0477 44.356783 
L 92.693047 44.356783 
L 94.338395 44.356783 
L 95.983742 45.177702 
L 97.629089 45.998622 
L 99.274436 44.356783 
L 100.919784 44.356783 
L 102.565131 44.356783 
L 104.210478 44.356783 
L 105.855825 45.177702 
L 107.501173 45.177702 
L 109.14652 44.356783 
L 110.791867 41.073105 
L 112.437214 40.252185 
L 114.082562 39.431265 
L 115.727909 39.431265 
L 117.373256 40.252185 
L 119.018603 41.894024 
L 120.663951 41.073105 
L 122.309298 40.252185 
L 123.954645 41.073105 
L 125.599992 41.073105 
L 127.24534 38.610346 
L 128.890687 37.789426 
L 130.536034 39.431265 
L 132.181381 39.431265 
L 133.826729 35.326668 
L 135.472076 31.22207 
L 137.117423 28.759311 
L 138.762771 24.654713 
L 140.408118 21.371035 
L 142.053465 23.833794 
L 143.698812 26.296552 
L 145.34416 22.191954 
L 146.989507 20.550115 
L 148.634854 19.729196 
L 150.280201 18.908276 
L 151.925549 18.087357 
L 153.570896 23.012874 
L 155.216243 24.654713 
L 156.86159 18.087357 
L 158.506938 18.087357 
L 160.152285 16.445517 
L 161.797632 15.624598 
L 163.442979 14.803678 
L 165.088327 22.191954 
L 166.733674 24.654713 
" style="fill:none;stroke:#17becf;stroke-linecap:square;stroke-opacity:0.5;"/>
   </g>
   <g id="patch_91">
    <path d="M 57.17 126.44874 
L 57.17 11.52 
" style="fill:none;stroke:#000000;stroke-linecap:square;stroke-linejoin:miter;stroke-width:0.8;"/>
   </g>
   <g id="patch_92">
    <path d="M 208.83811 126.44874 
L 208.83811 11.52 
" style="fill:none;stroke:#000000;stroke-linecap:square;stroke-linejoin:miter;stroke-width:0.8;"/>
   </g>
   <g id="patch_93">
    <path d="M 57.17 126.44874 
L 208.83811 126.44874 
" style="fill:none;stroke:#000000;stroke-linecap:square;stroke-linejoin:miter;stroke-width:0.8;"/>
   </g>
   <g id="patch_94">
    <path d="M 57.17 11.52 
L 208.83811 11.52 
" style="fill:none;stroke:#000000;stroke-linecap:square;stroke-linejoin:miter;stroke-width:0.8;"/>
   </g>
  </g>
 </g>
 <defs>
  <clipPath id="pb9276d10a1">
   <rect height="114.92874" width="151.66811" x="57.17" y="11.52"/>
  </clipPath>
 </defs>
</svg>
