<?xml version="1.0" encoding="utf-8" standalone="no"?>
<!DOCTYPE svg PUBLIC "-//W3C//DTD SVG 1.1//EN"
  "http://www.w3.org/Graphics/SVG/1.1/DTD/svg11.dtd">
<!-- Created with matplotlib (https://matplotlib.org/) -->
<svg height="170.07874pt" version="1.1" viewBox="0 0 255.11811 170.07874" width="255.11811pt" xmlns="http://www.w3.org/2000/svg" xmlns:xlink="http://www.w3.org/1999/xlink">
 <defs>
  <style type="text/css">
*{stroke-linecap:butt;stroke-linejoin:round;}
  </style>
 </defs>
 <g id="figure_1">
  <g id="patch_1">
   <path d="M 0 170.07874 
L 255.11811 170.07874 
L 255.11811 0 
L 0 0 
z
" style="fill:#ffffff;"/>
  </g>
  <g id="axes_1">
   <g id="patch_2">
    <path d="M 47.09 126.44874 
L 208.83811 126.44874 
L 208.83811 11.52 
L 47.09 11.52 
z
" style="fill:#ffffff;"/>
   </g>
   <g id="PolyCollection_1">
    <defs>
     <path d="M 55.496264 -44.554553 
L 55.496264 -43.704045 
L 58.131456 -43.704045 
L 60.766649 -43.704045 
L 63.401841 -43.704045 
L 66.037033 -43.704045 
L 68.672226 -43.704045 
L 71.307418 -43.77398 
L 73.942611 -43.806732 
L 76.577803 -43.839598 
L 79.212995 -43.891678 
L 81.848188 -43.996653 
L 84.48338 -44.067522 
L 87.118573 -44.12071 
L 89.753765 -44.185463 
L 92.388958 -44.429657 
L 95.02415 -44.585885 
L 97.659342 -45.103978 
L 100.294535 -49.28005 
L 102.929727 -45.626557 
L 105.56492 -45.564386 
L 108.200112 -44.373431 
L 110.835304 -46.272425 
L 113.470497 -45.856506 
L 116.105689 -45.862172 
L 118.740882 -46.196196 
L 121.376074 -46.115743 
L 124.011267 -46.519237 
L 126.646459 -44.805169 
L 129.281651 -45.880523 
L 131.916844 -45.834881 
L 134.552036 -45.864398 
L 137.187229 -46.064025 
L 139.822421 -46.104622 
L 142.457613 -46.401045 
L 145.092806 -44.649357 
L 145.092806 -71.280501 
L 145.092806 -71.280501 
L 142.457613 -88.941646 
L 139.822421 -81.478517 
L 137.187229 -76.6459 
L 134.552036 -70.524267 
L 131.916844 -67.366914 
L 129.281651 -65.479186 
L 126.646459 -55.665122 
L 124.011267 -63.611697 
L 121.376074 -59.770239 
L 118.740882 -58.521307 
L 116.105689 -55.722607 
L 113.470497 -54.735939 
L 110.835304 -55.994223 
L 108.200112 -48.137929 
L 105.56492 -51.8711 
L 102.929727 -51.605563 
L 100.294535 -77.643526 
L 97.659342 -49.387172 
L 95.02415 -47.621461 
L 92.388958 -47.043898 
L 89.753765 -46.213094 
L 87.118573 -45.975753 
L 84.48338 -45.852147 
L 81.848188 -45.597987 
L 79.212995 -45.179573 
L 76.577803 -45.008952 
L 73.942611 -44.860275 
L 71.307418 -44.661296 
L 68.672226 -44.554553 
L 66.037033 -44.554553 
L 63.401841 -44.554553 
L 60.766649 -44.554553 
L 58.131456 -44.554553 
L 55.496264 -44.554553 
z
" id="m6b2a68cb7c" style="stroke:#6495ed;stroke-opacity:0.4;"/>
    </defs>
    <g clip-path="url(#p584513723e)">
     <use style="fill:#6495ed;fill-opacity:0.4;stroke:#6495ed;stroke-opacity:0.4;" x="0" xlink:href="#m6b2a68cb7c" y="170.07874"/>
    </g>
   </g>
   <g id="PolyCollection_2">
    <defs>
     <path d="M 55.496264 -44.040065 
L 55.496264 -43.802945 
L 58.131456 -43.802945 
L 60.766649 -43.802945 
L 63.401841 -43.802945 
L 66.037033 -43.802945 
L 68.672226 -43.802945 
L 71.307418 -43.918012 
L 73.942611 -43.978883 
L 76.577803 -44.034888 
L 79.212995 -44.118858 
L 81.848188 -44.291324 
L 84.48338 -44.398102 
L 87.118573 -44.468256 
L 89.753765 -44.564185 
L 92.388958 -44.928936 
L 95.02415 -45.155221 
L 97.659342 -45.952405 
L 100.294535 -54.375288 
L 102.929727 -46.844383 
L 105.56492 -46.838973 
L 108.200112 -44.98873 
L 110.835304 -48.235436 
L 113.470497 -47.572938 
L 116.105689 -47.760966 
L 118.740882 -48.590937 
L 121.376074 -48.585056 
L 124.011267 -49.502528 
L 126.646459 -46.261523 
L 129.281651 -48.834334 
L 131.916844 -48.883498 
L 134.552036 -49.190868 
L 137.187229 -49.989786 
L 139.822421 -50.445453 
L 142.457613 -51.438732 
L 145.092806 -46.972274 
L 145.092806 -53.139568 
L 145.092806 -53.139568 
L 142.457613 -62.518197 
L 139.822421 -59.847285 
L 137.187229 -58.211099 
L 134.552036 -56.013186 
L 131.916844 -54.933224 
L 129.281651 -54.400734 
L 126.646459 -49.335126 
L 124.011267 -54.642178 
L 121.376074 -52.745039 
L 118.740882 -52.488069 
L 116.105689 -50.866833 
L 113.470497 -50.425827 
L 110.835304 -51.395713 
L 108.200112 -46.131904 
L 105.56492 -48.849551 
L 102.929727 -48.768165 
L 100.294535 -63.997791 
L 97.659342 -47.371302 
L 95.02415 -46.165467 
L 92.388958 -45.812377 
L 89.753765 -45.237027 
L 87.118573 -45.09643 
L 84.48338 -44.988805 
L 81.848188 -44.82809 
L 79.212995 -44.547563 
L 76.577803 -44.411339 
L 73.942611 -44.315727 
L 71.307418 -44.200376 
L 68.672226 -44.040065 
L 66.037033 -44.040065 
L 63.401841 -44.040065 
L 60.766649 -44.040065 
L 58.131456 -44.040065 
L 55.496264 -44.040065 
z
" id="mccb6c36338" style="stroke:#6495ed;stroke-opacity:0.6;"/>
    </defs>
    <g clip-path="url(#p584513723e)">
     <use style="fill:#6495ed;fill-opacity:0.6;stroke:#6495ed;stroke-opacity:0.6;" x="0" xlink:href="#mccb6c36338" y="170.07874"/>
    </g>
   </g>
   <g id="PolyCollection_3">
    <defs>
     <path d="M 145.092806 -71.280501 
L 145.092806 -44.649357 
L 147.727998 -44.647265 
L 150.363191 -44.614676 
L 152.998383 -44.548117 
L 155.633575 -44.474683 
L 158.268768 -44.397402 
L 160.90396 -44.315447 
L 163.539153 -44.244541 
L 166.174345 -44.177452 
L 168.809538 -44.115914 
L 171.44473 -44.068468 
L 174.079922 -44.023745 
L 176.715115 -43.978342 
L 179.350307 -43.937384 
L 181.9855 -43.901391 
L 184.620692 -43.870554 
L 187.255884 -43.845147 
L 189.891077 -43.822384 
L 192.526269 -43.80194 
L 195.161462 -43.783338 
L 197.796654 -43.766749 
L 200.431846 -43.751077 
L 200.431846 -158.55874 
L 200.431846 -158.55874 
L 197.796654 -149.953326 
L 195.161462 -144.750578 
L 192.526269 -138.017288 
L 189.891077 -131.113217 
L 187.255884 -125.924567 
L 184.620692 -120.259385 
L 181.9855 -116.352906 
L 179.350307 -111.846565 
L 176.715115 -106.888365 
L 174.079922 -103.341587 
L 171.44473 -100.401591 
L 168.809538 -97.770377 
L 166.174345 -94.363547 
L 163.539153 -91.355556 
L 160.90396 -88.458558 
L 158.268768 -86.161787 
L 155.633575 -83.905797 
L 152.998383 -81.123029 
L 150.363191 -78.614807 
L 147.727998 -75.350652 
L 145.092806 -71.280501 
z
" id="m7703251482" style="stroke:#228b22;stroke-opacity:0.4;"/>
    </defs>
    <g clip-path="url(#p584513723e)">
     <use style="fill:#228b22;fill-opacity:0.4;stroke:#228b22;stroke-opacity:0.4;" x="0" xlink:href="#m7703251482" y="170.07874"/>
    </g>
   </g>
   <g id="PolyCollection_4">
    <defs>
     <path d="M 145.092806 -53.139568 
L 145.092806 -46.972274 
L 147.727998 -47.116867 
L 150.363191 -47.140262 
L 152.998383 -47.063165 
L 155.633575 -46.924576 
L 158.268768 -46.755319 
L 160.90396 -46.581758 
L 163.539153 -46.399682 
L 166.174345 -46.235448 
L 168.809538 -46.07814 
L 171.44473 -45.912949 
L 174.079922 -45.772532 
L 176.715115 -45.627899 
L 179.350307 -45.501314 
L 181.9855 -45.379311 
L 184.620692 -45.26047 
L 187.255884 -45.158129 
L 189.891077 -45.051787 
L 192.526269 -44.960299 
L 195.161462 -44.886114 
L 197.796654 -44.811382 
L 200.431846 -44.733059 
L 200.431846 -53.575578 
L 200.431846 -53.575578 
L 197.796654 -53.718837 
L 195.161462 -53.822266 
L 192.526269 -53.847452 
L 189.891077 -53.948943 
L 187.255884 -54.020762 
L 184.620692 -54.089837 
L 181.9855 -54.176756 
L 179.350307 -54.302471 
L 176.715115 -54.39347 
L 174.079922 -54.472491 
L 171.44473 -54.456456 
L 168.809538 -54.537009 
L 166.174345 -54.632459 
L 163.539153 -54.714123 
L 160.90396 -54.869027 
L 158.268768 -54.834293 
L 155.633575 -54.845307 
L 152.998383 -54.832563 
L 150.363191 -54.562082 
L 147.727998 -54.022763 
L 145.092806 -53.139568 
z
" id="m54b4f4a2c5" style="stroke:#228b22;stroke-opacity:0.6;"/>
    </defs>
    <g clip-path="url(#p584513723e)">
     <use style="fill:#228b22;fill-opacity:0.6;stroke:#228b22;stroke-opacity:0.6;" x="0" xlink:href="#m54b4f4a2c5" y="170.07874"/>
    </g>
   </g>
   <g id="PathCollection_1">
    <defs>
     <path d="M -0.866025 1.732051 
L 0 0.866025 
L 0.866025 1.732051 
L 1.732051 0.866025 
L 0.866025 0 
L 1.732051 -0.866025 
L 0.866025 -1.732051 
L 0 -0.866025 
L -0.866025 -1.732051 
L -1.732051 -0.866025 
L -0.866025 0 
L -1.732051 0.866025 
z
" id="md048f972b8" style="stroke:#8a2be2;"/>
    </defs>
    <g clip-path="url(#p584513723e)">
     <use style="fill:#8a2be2;stroke:#8a2be2;" x="100.294535" xlink:href="#md048f972b8" y="23.012874"/>
    </g>
   </g>
   <g id="PathCollection_2">
    <defs>
     <path d="M 0 -1.732051 
L -0.38887 -0.535233 
L -1.647278 -0.535233 
L -0.629204 0.204441 
L -1.018074 1.401259 
L -0 0.661585 
L 1.018074 1.401259 
L 0.629204 0.204441 
L 1.647278 -0.535233 
L 0.38887 -0.535233 
z
" id="m5e17c683c7" style="stroke:#000000;"/>
    </defs>
    <g clip-path="url(#p584513723e)">
     <use style="stroke:#000000;" x="102.929727" xlink:href="#m5e17c683c7" y="23.012874"/>
    </g>
   </g>
   <g id="PathCollection_3">
    <defs>
     <path d="M -1.732051 1.732051 
L 1.732051 1.732051 
L 1.732051 -1.732051 
L -1.732051 -1.732051 
z
" id="m43591b8b15" style="stroke:#c71585;"/>
    </defs>
    <g clip-path="url(#p584513723e)">
     <use style="fill:#c71585;stroke:#c71585;" x="131.916844" xlink:href="#m43591b8b15" y="23.012874"/>
    </g>
   </g>
   <g id="PathCollection_4">
    <defs>
     <path d="M 0 -1.732051 
L -1.647278 -0.535233 
L -1.018074 1.401259 
L 1.018074 1.401259 
L 1.647278 -0.535233 
z
" id="m8f600ac6d2" style="stroke:#800000;"/>
    </defs>
    <g clip-path="url(#p584513723e)">
     <use style="fill:#800000;stroke:#800000;" x="110.835304" xlink:href="#m8f600ac6d2" y="23.012874"/>
    </g>
   </g>
   <g id="PathCollection_5">
    <defs>
     <path d="M -0 2.44949 
L 1.469694 0 
L 0 -2.44949 
L -1.469694 -0 
z
" id="mc431e2cf8b" style="stroke:#556b2f;"/>
    </defs>
    <g clip-path="url(#p584513723e)">
     <use style="fill:#556b2f;stroke:#556b2f;" x="108.200112" xlink:href="#mc431e2cf8b" y="23.012874"/>
    </g>
   </g>
   <g id="patch_3">
    <path clip-path="url(#p584513723e)" d="M 54.442187 126.44874 
L 56.550341 126.44874 
L 56.550341 126.44874 
L 54.442187 126.44874 
z
" style="fill:#1f77b4;opacity:0.5;"/>
   </g>
   <g id="patch_4">
    <path clip-path="url(#p584513723e)" d="M 57.077379 126.44874 
L 59.185533 126.44874 
L 59.185533 126.44874 
L 57.077379 126.44874 
z
" style="fill:#1f77b4;opacity:0.5;"/>
   </g>
   <g id="patch_5">
    <path clip-path="url(#p584513723e)" d="M 59.712572 126.44874 
L 61.820726 126.44874 
L 61.820726 126.44874 
L 59.712572 126.44874 
z
" style="fill:#1f77b4;opacity:0.5;"/>
   </g>
   <g id="patch_6">
    <path clip-path="url(#p584513723e)" d="M 62.347764 126.44874 
L 64.455918 126.44874 
L 64.455918 126.434896 
L 62.347764 126.434896 
z
" style="fill:#1f77b4;opacity:0.5;"/>
   </g>
   <g id="patch_7">
    <path clip-path="url(#p584513723e)" d="M 64.982956 126.44874 
L 67.09111 126.44874 
L 67.09111 126.407206 
L 64.982956 126.407206 
z
" style="fill:#1f77b4;opacity:0.5;"/>
   </g>
   <g id="patch_8">
    <path clip-path="url(#p584513723e)" d="M 67.618149 126.44874 
L 69.726303 126.44874 
L 69.726303 126.421051 
L 67.618149 126.421051 
z
" style="fill:#1f77b4;opacity:0.5;"/>
   </g>
   <g id="patch_9">
    <path clip-path="url(#p584513723e)" d="M 70.253341 126.44874 
L 72.361495 126.44874 
L 72.361495 126.324139 
L 70.253341 126.324139 
z
" style="fill:#1f77b4;opacity:0.5;"/>
   </g>
   <g id="patch_10">
    <path clip-path="url(#p584513723e)" d="M 72.888534 126.44874 
L 74.996688 126.44874 
L 74.996688 126.393362 
L 72.888534 126.393362 
z
" style="fill:#1f77b4;opacity:0.5;"/>
   </g>
   <g id="patch_11">
    <path clip-path="url(#p584513723e)" d="M 75.523726 126.44874 
L 77.63188 126.44874 
L 77.63188 126.365673 
L 75.523726 126.365673 
z
" style="fill:#1f77b4;opacity:0.5;"/>
   </g>
   <g id="patch_12">
    <path clip-path="url(#p584513723e)" d="M 78.158919 126.44874 
L 80.267072 126.44874 
L 80.267072 126.337983 
L 78.158919 126.337983 
z
" style="fill:#1f77b4;opacity:0.5;"/>
   </g>
   <g id="patch_13">
    <path clip-path="url(#p584513723e)" d="M 80.794111 126.44874 
L 82.902265 126.44874 
L 82.902265 126.130314 
L 80.794111 126.130314 
z
" style="fill:#1f77b4;opacity:0.5;"/>
   </g>
   <g id="patch_14">
    <path clip-path="url(#p584513723e)" d="M 83.429303 126.44874 
L 85.537457 126.44874 
L 85.537457 126.033402 
L 83.429303 126.033402 
z
" style="fill:#1f77b4;opacity:0.5;"/>
   </g>
   <g id="patch_15">
    <path clip-path="url(#p584513723e)" d="M 86.064496 126.44874 
L 88.17265 126.44874 
L 88.17265 126.074936 
L 86.064496 126.074936 
z
" style="fill:#1f77b4;opacity:0.5;"/>
   </g>
   <g id="patch_16">
    <path clip-path="url(#p584513723e)" d="M 88.699688 126.44874 
L 90.807842 126.44874 
L 90.807842 125.978024 
L 88.699688 125.978024 
z
" style="fill:#1f77b4;opacity:0.5;"/>
   </g>
   <g id="patch_17">
    <path clip-path="url(#p584513723e)" d="M 91.334881 126.44874 
L 93.443035 126.44874 
L 93.443035 126.144159 
L 91.334881 126.144159 
z
" style="fill:#1f77b4;opacity:0.5;"/>
   </g>
   <g id="patch_18">
    <path clip-path="url(#p584513723e)" d="M 93.970073 126.44874 
L 96.078227 126.44874 
L 96.078227 126.130314 
L 93.970073 126.130314 
z
" style="fill:#1f77b4;opacity:0.5;"/>
   </g>
   <g id="patch_19">
    <path clip-path="url(#p584513723e)" d="M 96.605265 126.44874 
L 98.713419 126.44874 
L 98.713419 125.271949 
L 96.605265 125.271949 
z
" style="fill:#1f77b4;opacity:0.5;"/>
   </g>
   <g id="patch_20">
    <path clip-path="url(#p584513723e)" d="M 99.240458 126.44874 
L 101.348612 126.44874 
L 101.348612 123.513685 
L 99.240458 123.513685 
z
" style="fill:#1f77b4;opacity:0.5;"/>
   </g>
   <g id="patch_21">
    <path clip-path="url(#p584513723e)" d="M 101.87565 126.44874 
L 103.983804 126.44874 
L 103.983804 124.621253 
L 101.87565 124.621253 
z
" style="fill:#1f77b4;opacity:0.5;"/>
   </g>
   <g id="patch_22">
    <path clip-path="url(#p584513723e)" d="M 104.510843 126.44874 
L 106.618997 126.44874 
L 106.618997 126.44874 
L 104.510843 126.44874 
z
" style="fill:#1f77b4;opacity:0.5;"/>
   </g>
   <g id="patch_23">
    <path clip-path="url(#p584513723e)" d="M 107.146035 126.44874 
L 109.254189 126.44874 
L 109.254189 122.489184 
L 107.146035 122.489184 
z
" style="fill:#1f77b4;opacity:0.5;"/>
   </g>
   <g id="patch_24">
    <path clip-path="url(#p584513723e)" d="M 109.781227 126.44874 
L 111.889381 126.44874 
L 111.889381 124.095158 
L 109.781227 124.095158 
z
" style="fill:#1f77b4;opacity:0.5;"/>
   </g>
   <g id="patch_25">
    <path clip-path="url(#p584513723e)" d="M 112.41642 126.44874 
L 114.524574 126.44874 
L 114.524574 125.175037 
L 112.41642 125.175037 
z
" style="fill:#1f77b4;opacity:0.5;"/>
   </g>
   <g id="patch_26">
    <path clip-path="url(#p584513723e)" d="M 115.051612 126.44874 
L 117.159766 126.44874 
L 117.159766 124.524341 
L 115.051612 124.524341 
z
" style="fill:#1f77b4;opacity:0.5;"/>
   </g>
   <g id="patch_27">
    <path clip-path="url(#p584513723e)" d="M 117.686805 126.44874 
L 119.794959 126.44874 
L 119.794959 124.856611 
L 117.686805 124.856611 
z
" style="fill:#1f77b4;opacity:0.5;"/>
   </g>
   <g id="patch_28">
    <path clip-path="url(#p584513723e)" d="M 120.321997 126.44874 
L 122.430151 126.44874 
L 122.430151 124.662787 
L 120.321997 124.662787 
z
" style="fill:#1f77b4;opacity:0.5;"/>
   </g>
   <g id="patch_29">
    <path clip-path="url(#p584513723e)" d="M 122.95719 126.44874 
L 125.065343 126.44874 
L 125.065343 123.818266 
L 122.95719 123.818266 
z
" style="fill:#1f77b4;opacity:0.5;"/>
   </g>
   <g id="patch_30">
    <path clip-path="url(#p584513723e)" d="M 125.592382 126.44874 
L 127.700536 126.44874 
L 127.700536 123.901333 
L 125.592382 123.901333 
z
" style="fill:#1f77b4;opacity:0.5;"/>
   </g>
   <g id="patch_31">
    <path clip-path="url(#p584513723e)" d="M 128.227574 126.44874 
L 130.335728 126.44874 
L 130.335728 123.596752 
L 128.227574 123.596752 
z
" style="fill:#1f77b4;opacity:0.5;"/>
   </g>
   <g id="patch_32">
    <path clip-path="url(#p584513723e)" d="M 130.862767 126.44874 
L 132.970921 126.44874 
L 132.970921 123.13988 
L 130.862767 123.13988 
z
" style="fill:#1f77b4;opacity:0.5;"/>
   </g>
   <g id="patch_33">
    <path clip-path="url(#p584513723e)" d="M 133.497959 126.44874 
L 135.606113 126.44874 
L 135.606113 123.749043 
L 133.497959 123.749043 
z
" style="fill:#1f77b4;opacity:0.5;"/>
   </g>
   <g id="patch_34">
    <path clip-path="url(#p584513723e)" d="M 136.133152 126.44874 
L 138.241306 126.44874 
L 138.241306 121.60313 
L 136.133152 121.60313 
z
" style="fill:#1f77b4;opacity:0.5;"/>
   </g>
   <g id="patch_35">
    <path clip-path="url(#p584513723e)" d="M 138.768344 126.44874 
L 140.876498 126.44874 
L 140.876498 123.126036 
L 138.768344 123.126036 
z
" style="fill:#1f77b4;opacity:0.5;"/>
   </g>
   <g id="patch_36">
    <path clip-path="url(#p584513723e)" d="M 141.403536 126.44874 
L 143.51169 126.44874 
L 143.51169 120.564784 
L 141.403536 120.564784 
z
" style="fill:#1f77b4;opacity:0.5;"/>
   </g>
   <g id="patch_37">
    <path clip-path="url(#p584513723e)" d="M 144.038729 126.44874 
L 146.146883 126.44874 
L 146.146883 122.793765 
L 144.038729 122.793765 
z
" style="fill:#1f77b4;opacity:0.5;"/>
   </g>
   <g id="patch_38">
    <path clip-path="url(#p584513723e)" d="M 146.673921 126.44874 
L 148.782075 126.44874 
L 148.782075 122.890678 
L 146.673921 122.890678 
z
" style="fill:#1f77b4;opacity:0.5;"/>
   </g>
   <g id="patch_39">
    <path clip-path="url(#p584513723e)" d="M 149.309114 126.44874 
L 151.417268 126.44874 
L 151.417268 124.73201 
L 149.309114 124.73201 
z
" style="fill:#1f77b4;opacity:0.5;"/>
   </g>
   <g id="patch_40">
    <path clip-path="url(#p584513723e)" d="M 151.944306 126.44874 
L 154.05246 126.44874 
L 154.05246 123.389083 
L 151.944306 123.389083 
z
" style="fill:#1f77b4;opacity:0.5;"/>
   </g>
   <g id="patch_41">
    <path clip-path="url(#p584513723e)" d="M 154.579498 126.44874 
L 156.687652 126.44874 
L 156.687652 123.430617 
L 154.579498 123.430617 
z
" style="fill:#1f77b4;opacity:0.5;"/>
   </g>
   <g id="patch_42">
    <path clip-path="url(#p584513723e)" d="M 157.214691 126.44874 
L 159.322845 126.44874 
L 159.322845 122.710698 
L 157.214691 122.710698 
z
" style="fill:#1f77b4;opacity:0.5;"/>
   </g>
   <g id="patch_43">
    <path clip-path="url(#p584513723e)" d="M 159.849883 126.44874 
L 161.958037 126.44874 
L 161.958037 122.669164 
L 159.849883 122.669164 
z
" style="fill:#1f77b4;opacity:0.5;"/>
   </g>
   <g id="patch_44">
    <path clip-path="url(#p584513723e)" d="M 162.485076 126.44874 
L 164.59323 126.44874 
L 164.59323 122.26767 
L 162.485076 122.26767 
z
" style="fill:#1f77b4;opacity:0.5;"/>
   </g>
   <g id="patch_45">
    <path clip-path="url(#p584513723e)" d="M 165.120268 126.44874 
L 167.228422 126.44874 
L 167.228422 124.648942 
L 165.120268 124.648942 
z
" style="fill:#1f77b4;opacity:0.5;"/>
   </g>
   <g id="patch_46">
    <path clip-path="url(#p584513723e)" d="M 167.755461 126.44874 
L 169.863614 126.44874 
L 169.863614 124.856611 
L 167.755461 124.856611 
z
" style="fill:#1f77b4;opacity:0.5;"/>
   </g>
   <g id="patch_47">
    <path clip-path="url(#p584513723e)" d="M 170.390653 126.44874 
L 172.498807 126.44874 
L 172.498807 124.953523 
L 170.390653 124.953523 
z
" style="fill:#1f77b4;opacity:0.5;"/>
   </g>
   <g id="patch_48">
    <path clip-path="url(#p584513723e)" d="M 173.025845 126.44874 
L 175.133999 126.44874 
L 175.133999 124.413584 
L 173.025845 124.413584 
z
" style="fill:#1f77b4;opacity:0.5;"/>
   </g>
   <g id="patch_49">
    <path clip-path="url(#p584513723e)" d="M 175.661038 126.44874 
L 177.769192 126.44874 
L 177.769192 124.37205 
L 175.661038 124.37205 
z
" style="fill:#1f77b4;opacity:0.5;"/>
   </g>
   <g id="patch_50">
    <path clip-path="url(#p584513723e)" d="M 178.29623 126.44874 
L 180.404384 126.44874 
L 180.404384 125.285794 
L 178.29623 125.285794 
z
" style="fill:#1f77b4;opacity:0.5;"/>
   </g>
   <g id="patch_51">
    <path clip-path="url(#p584513723e)" d="M 180.931423 126.44874 
L 183.039577 126.44874 
L 183.039577 125.39655 
L 180.931423 125.39655 
z
" style="fill:#1f77b4;opacity:0.5;"/>
   </g>
   <g id="patch_52">
    <path clip-path="url(#p584513723e)" d="M 183.566615 126.44874 
L 185.674769 126.44874 
L 185.674769 125.133503 
L 183.566615 125.133503 
z
" style="fill:#1f77b4;opacity:0.5;"/>
   </g>
   <g id="patch_53">
    <path clip-path="url(#p584513723e)" d="M 186.201807 126.44874 
L 188.309961 126.44874 
L 188.309961 125.438084 
L 186.201807 125.438084 
z
" style="fill:#1f77b4;opacity:0.5;"/>
   </g>
   <g id="patch_54">
    <path clip-path="url(#p584513723e)" d="M 188.837 126.44874 
L 190.945154 126.44874 
L 190.945154 125.368861 
L 188.837 125.368861 
z
" style="fill:#1f77b4;opacity:0.5;"/>
   </g>
   <g id="patch_55">
    <path clip-path="url(#p584513723e)" d="M 191.472192 126.44874 
L 193.580346 126.44874 
L 193.580346 124.911989 
L 191.472192 124.911989 
z
" style="fill:#1f77b4;opacity:0.5;"/>
   </g>
   <g id="patch_56">
    <path clip-path="url(#p584513723e)" d="M 194.107385 126.44874 
L 196.215539 126.44874 
L 196.215539 124.870456 
L 194.107385 124.870456 
z
" style="fill:#1f77b4;opacity:0.5;"/>
   </g>
   <g id="patch_57">
    <path clip-path="url(#p584513723e)" d="M 196.742577 126.44874 
L 198.850731 126.44874 
L 198.850731 126.44874 
L 196.742577 126.44874 
z
" style="fill:#1f77b4;opacity:0.5;"/>
   </g>
   <g id="patch_58">
    <path clip-path="url(#p584513723e)" d="M 199.377769 126.44874 
L 201.485923 126.44874 
L 201.485923 123.776732 
L 199.377769 123.776732 
z
" style="fill:#1f77b4;opacity:0.5;"/>
   </g>
   <g id="matplotlib.axis_1">
    <g id="xtick_1">
     <g id="line2d_1">
      <defs>
       <path d="M 0 0 
L 0 3.5 
" id="m4298af77ee" style="stroke:#000000;stroke-width:0.8;"/>
      </defs>
      <g>
       <use style="stroke:#000000;stroke-width:0.8;" x="200.431846" xlink:href="#m4298af77ee" y="126.44874"/>
      </g>
     </g>
     <g id="text_1">
      <!-- 19 Apr -->
      <defs>
       <path d="M 12.40625 8.296875 
L 28.515625 8.296875 
L 28.515625 63.921875 
L 10.984375 60.40625 
L 10.984375 69.390625 
L 28.421875 72.90625 
L 38.28125 72.90625 
L 38.28125 8.296875 
L 54.390625 8.296875 
L 54.390625 0 
L 12.40625 0 
z
" id="DejaVuSans-49"/>
       <path d="M 10.984375 1.515625 
L 10.984375 10.5 
Q 14.703125 8.734375 18.5 7.8125 
Q 22.3125 6.890625 25.984375 6.890625 
Q 35.75 6.890625 40.890625 13.453125 
Q 46.046875 20.015625 46.78125 33.40625 
Q 43.953125 29.203125 39.59375 26.953125 
Q 35.25 24.703125 29.984375 24.703125 
Q 19.046875 24.703125 12.671875 31.3125 
Q 6.296875 37.9375 6.296875 49.421875 
Q 6.296875 60.640625 12.9375 67.421875 
Q 19.578125 74.21875 30.609375 74.21875 
Q 43.265625 74.21875 49.921875 64.515625 
Q 56.59375 54.828125 56.59375 36.375 
Q 56.59375 19.140625 48.40625 8.859375 
Q 40.234375 -1.421875 26.421875 -1.421875 
Q 22.703125 -1.421875 18.890625 -0.6875 
Q 15.09375 0.046875 10.984375 1.515625 
z
M 30.609375 32.421875 
Q 37.25 32.421875 41.125 36.953125 
Q 45.015625 41.5 45.015625 49.421875 
Q 45.015625 57.28125 41.125 61.84375 
Q 37.25 66.40625 30.609375 66.40625 
Q 23.96875 66.40625 20.09375 61.84375 
Q 16.21875 57.28125 16.21875 49.421875 
Q 16.21875 41.5 20.09375 36.953125 
Q 23.96875 32.421875 30.609375 32.421875 
z
" id="DejaVuSans-57"/>
       <path id="DejaVuSans-32"/>
       <path d="M 34.1875 63.1875 
L 20.796875 26.90625 
L 47.609375 26.90625 
z
M 28.609375 72.90625 
L 39.796875 72.90625 
L 67.578125 0 
L 57.328125 0 
L 50.6875 18.703125 
L 17.828125 18.703125 
L 11.1875 0 
L 0.78125 0 
z
" id="DejaVuSans-65"/>
       <path d="M 18.109375 8.203125 
L 18.109375 -20.796875 
L 9.078125 -20.796875 
L 9.078125 54.6875 
L 18.109375 54.6875 
L 18.109375 46.390625 
Q 20.953125 51.265625 25.265625 53.625 
Q 29.59375 56 35.59375 56 
Q 45.5625 56 51.78125 48.09375 
Q 58.015625 40.1875 58.015625 27.296875 
Q 58.015625 14.40625 51.78125 6.484375 
Q 45.5625 -1.421875 35.59375 -1.421875 
Q 29.59375 -1.421875 25.265625 0.953125 
Q 20.953125 3.328125 18.109375 8.203125 
z
M 48.6875 27.296875 
Q 48.6875 37.203125 44.609375 42.84375 
Q 40.53125 48.484375 33.40625 48.484375 
Q 26.265625 48.484375 22.1875 42.84375 
Q 18.109375 37.203125 18.109375 27.296875 
Q 18.109375 17.390625 22.1875 11.75 
Q 26.265625 6.109375 33.40625 6.109375 
Q 40.53125 6.109375 44.609375 11.75 
Q 48.6875 17.390625 48.6875 27.296875 
z
" id="DejaVuSans-112"/>
       <path d="M 41.109375 46.296875 
Q 39.59375 47.171875 37.8125 47.578125 
Q 36.03125 48 33.890625 48 
Q 26.265625 48 22.1875 43.046875 
Q 18.109375 38.09375 18.109375 28.8125 
L 18.109375 0 
L 9.078125 0 
L 9.078125 54.6875 
L 18.109375 54.6875 
L 18.109375 46.1875 
Q 20.953125 51.171875 25.484375 53.578125 
Q 30.03125 56 36.53125 56 
Q 37.453125 56 38.578125 55.875 
Q 39.703125 55.765625 41.0625 55.515625 
z
" id="DejaVuSans-114"/>
      </defs>
      <g transform="translate(202.639346 160.01124)rotate(-90)scale(0.08 -0.08)">
       <use xlink:href="#DejaVuSans-49"/>
       <use x="63.623047" xlink:href="#DejaVuSans-57"/>
       <use x="127.246094" xlink:href="#DejaVuSans-32"/>
       <use x="159.033203" xlink:href="#DejaVuSans-65"/>
       <use x="227.441406" xlink:href="#DejaVuSans-112"/>
       <use x="290.917969" xlink:href="#DejaVuSans-114"/>
      </g>
     </g>
    </g>
    <g id="xtick_2">
     <g id="line2d_2">
      <g>
       <use style="stroke:#000000;stroke-width:0.8;" x="181.9855" xlink:href="#m4298af77ee" y="126.44874"/>
      </g>
     </g>
     <g id="text_2">
      <!-- 12 Apr -->
      <defs>
       <path d="M 19.1875 8.296875 
L 53.609375 8.296875 
L 53.609375 0 
L 7.328125 0 
L 7.328125 8.296875 
Q 12.9375 14.109375 22.625 23.890625 
Q 32.328125 33.6875 34.8125 36.53125 
Q 39.546875 41.84375 41.421875 45.53125 
Q 43.3125 49.21875 43.3125 52.78125 
Q 43.3125 58.59375 39.234375 62.25 
Q 35.15625 65.921875 28.609375 65.921875 
Q 23.96875 65.921875 18.8125 64.3125 
Q 13.671875 62.703125 7.8125 59.421875 
L 7.8125 69.390625 
Q 13.765625 71.78125 18.9375 73 
Q 24.125 74.21875 28.421875 74.21875 
Q 39.75 74.21875 46.484375 68.546875 
Q 53.21875 62.890625 53.21875 53.421875 
Q 53.21875 48.921875 51.53125 44.890625 
Q 49.859375 40.875 45.40625 35.40625 
Q 44.1875 33.984375 37.640625 27.21875 
Q 31.109375 20.453125 19.1875 8.296875 
z
" id="DejaVuSans-50"/>
      </defs>
      <g transform="translate(184.193 160.01124)rotate(-90)scale(0.08 -0.08)">
       <use xlink:href="#DejaVuSans-49"/>
       <use x="63.623047" xlink:href="#DejaVuSans-50"/>
       <use x="127.246094" xlink:href="#DejaVuSans-32"/>
       <use x="159.033203" xlink:href="#DejaVuSans-65"/>
       <use x="227.441406" xlink:href="#DejaVuSans-112"/>
       <use x="290.917969" xlink:href="#DejaVuSans-114"/>
      </g>
     </g>
    </g>
    <g id="xtick_3">
     <g id="line2d_3">
      <g>
       <use style="stroke:#000000;stroke-width:0.8;" x="163.539153" xlink:href="#m4298af77ee" y="126.44874"/>
      </g>
     </g>
     <g id="text_3">
      <!-- 5 Apr -->
      <defs>
       <path d="M 10.796875 72.90625 
L 49.515625 72.90625 
L 49.515625 64.59375 
L 19.828125 64.59375 
L 19.828125 46.734375 
Q 21.96875 47.46875 24.109375 47.828125 
Q 26.265625 48.1875 28.421875 48.1875 
Q 40.625 48.1875 47.75 41.5 
Q 54.890625 34.8125 54.890625 23.390625 
Q 54.890625 11.625 47.5625 5.09375 
Q 40.234375 -1.421875 26.90625 -1.421875 
Q 22.3125 -1.421875 17.546875 -0.640625 
Q 12.796875 0.140625 7.71875 1.703125 
L 7.71875 11.625 
Q 12.109375 9.234375 16.796875 8.0625 
Q 21.484375 6.890625 26.703125 6.890625 
Q 35.15625 6.890625 40.078125 11.328125 
Q 45.015625 15.765625 45.015625 23.390625 
Q 45.015625 31 40.078125 35.4375 
Q 35.15625 39.890625 26.703125 39.890625 
Q 22.75 39.890625 18.8125 39.015625 
Q 14.890625 38.140625 10.796875 36.28125 
z
" id="DejaVuSans-53"/>
      </defs>
      <g transform="translate(165.746653 154.92124)rotate(-90)scale(0.08 -0.08)">
       <use xlink:href="#DejaVuSans-53"/>
       <use x="63.623047" xlink:href="#DejaVuSans-32"/>
       <use x="95.410156" xlink:href="#DejaVuSans-65"/>
       <use x="163.818359" xlink:href="#DejaVuSans-112"/>
       <use x="227.294922" xlink:href="#DejaVuSans-114"/>
      </g>
     </g>
    </g>
    <g id="xtick_4">
     <g id="line2d_4">
      <g>
       <use style="stroke:#000000;stroke-width:0.8;" x="145.092806" xlink:href="#m4298af77ee" y="126.44874"/>
      </g>
     </g>
     <g id="text_4">
      <!-- 29 Mar -->
      <defs>
       <path d="M 9.8125 72.90625 
L 24.515625 72.90625 
L 43.109375 23.296875 
L 61.8125 72.90625 
L 76.515625 72.90625 
L 76.515625 0 
L 66.890625 0 
L 66.890625 64.015625 
L 48.09375 14.015625 
L 38.1875 14.015625 
L 19.390625 64.015625 
L 19.390625 0 
L 9.8125 0 
z
" id="DejaVuSans-77"/>
       <path d="M 34.28125 27.484375 
Q 23.390625 27.484375 19.1875 25 
Q 14.984375 22.515625 14.984375 16.5 
Q 14.984375 11.71875 18.140625 8.90625 
Q 21.296875 6.109375 26.703125 6.109375 
Q 34.1875 6.109375 38.703125 11.40625 
Q 43.21875 16.703125 43.21875 25.484375 
L 43.21875 27.484375 
z
M 52.203125 31.203125 
L 52.203125 0 
L 43.21875 0 
L 43.21875 8.296875 
Q 40.140625 3.328125 35.546875 0.953125 
Q 30.953125 -1.421875 24.3125 -1.421875 
Q 15.921875 -1.421875 10.953125 3.296875 
Q 6 8.015625 6 15.921875 
Q 6 25.140625 12.171875 29.828125 
Q 18.359375 34.515625 30.609375 34.515625 
L 43.21875 34.515625 
L 43.21875 35.40625 
Q 43.21875 41.609375 39.140625 45 
Q 35.0625 48.390625 27.6875 48.390625 
Q 23 48.390625 18.546875 47.265625 
Q 14.109375 46.140625 10.015625 43.890625 
L 10.015625 52.203125 
Q 14.9375 54.109375 19.578125 55.046875 
Q 24.21875 56 28.609375 56 
Q 40.484375 56 46.34375 49.84375 
Q 52.203125 43.703125 52.203125 31.203125 
z
" id="DejaVuSans-97"/>
      </defs>
      <g transform="translate(147.300306 161.26499)rotate(-90)scale(0.08 -0.08)">
       <use xlink:href="#DejaVuSans-50"/>
       <use x="63.623047" xlink:href="#DejaVuSans-57"/>
       <use x="127.246094" xlink:href="#DejaVuSans-32"/>
       <use x="159.033203" xlink:href="#DejaVuSans-77"/>
       <use x="245.3125" xlink:href="#DejaVuSans-97"/>
       <use x="306.591797" xlink:href="#DejaVuSans-114"/>
      </g>
     </g>
    </g>
    <g id="xtick_5">
     <g id="line2d_5">
      <g>
       <use style="stroke:#000000;stroke-width:0.8;" x="126.646459" xlink:href="#m4298af77ee" y="126.44874"/>
      </g>
     </g>
     <g id="text_5">
      <!-- 22 Mar -->
      <g transform="translate(128.853959 161.26499)rotate(-90)scale(0.08 -0.08)">
       <use xlink:href="#DejaVuSans-50"/>
       <use x="63.623047" xlink:href="#DejaVuSans-50"/>
       <use x="127.246094" xlink:href="#DejaVuSans-32"/>
       <use x="159.033203" xlink:href="#DejaVuSans-77"/>
       <use x="245.3125" xlink:href="#DejaVuSans-97"/>
       <use x="306.591797" xlink:href="#DejaVuSans-114"/>
      </g>
     </g>
    </g>
    <g id="xtick_6">
     <g id="line2d_6">
      <g>
       <use style="stroke:#000000;stroke-width:0.8;" x="108.200112" xlink:href="#m4298af77ee" y="126.44874"/>
      </g>
     </g>
     <g id="text_6">
      <!-- 15 Mar -->
      <g transform="translate(110.407612 161.26499)rotate(-90)scale(0.08 -0.08)">
       <use xlink:href="#DejaVuSans-49"/>
       <use x="63.623047" xlink:href="#DejaVuSans-53"/>
       <use x="127.246094" xlink:href="#DejaVuSans-32"/>
       <use x="159.033203" xlink:href="#DejaVuSans-77"/>
       <use x="245.3125" xlink:href="#DejaVuSans-97"/>
       <use x="306.591797" xlink:href="#DejaVuSans-114"/>
      </g>
     </g>
    </g>
    <g id="xtick_7">
     <g id="line2d_7">
      <g>
       <use style="stroke:#000000;stroke-width:0.8;" x="89.753765" xlink:href="#m4298af77ee" y="126.44874"/>
      </g>
     </g>
     <g id="text_7">
      <!-- 8 Mar -->
      <defs>
       <path d="M 31.78125 34.625 
Q 24.75 34.625 20.71875 30.859375 
Q 16.703125 27.09375 16.703125 20.515625 
Q 16.703125 13.921875 20.71875 10.15625 
Q 24.75 6.390625 31.78125 6.390625 
Q 38.8125 6.390625 42.859375 10.171875 
Q 46.921875 13.96875 46.921875 20.515625 
Q 46.921875 27.09375 42.890625 30.859375 
Q 38.875 34.625 31.78125 34.625 
z
M 21.921875 38.8125 
Q 15.578125 40.375 12.03125 44.71875 
Q 8.5 49.078125 8.5 55.328125 
Q 8.5 64.0625 14.71875 69.140625 
Q 20.953125 74.21875 31.78125 74.21875 
Q 42.671875 74.21875 48.875 69.140625 
Q 55.078125 64.0625 55.078125 55.328125 
Q 55.078125 49.078125 51.53125 44.71875 
Q 48 40.375 41.703125 38.8125 
Q 48.828125 37.15625 52.796875 32.3125 
Q 56.78125 27.484375 56.78125 20.515625 
Q 56.78125 9.90625 50.3125 4.234375 
Q 43.84375 -1.421875 31.78125 -1.421875 
Q 19.734375 -1.421875 13.25 4.234375 
Q 6.78125 9.90625 6.78125 20.515625 
Q 6.78125 27.484375 10.78125 32.3125 
Q 14.796875 37.15625 21.921875 38.8125 
z
M 18.3125 54.390625 
Q 18.3125 48.734375 21.84375 45.5625 
Q 25.390625 42.390625 31.78125 42.390625 
Q 38.140625 42.390625 41.71875 45.5625 
Q 45.3125 48.734375 45.3125 54.390625 
Q 45.3125 60.0625 41.71875 63.234375 
Q 38.140625 66.40625 31.78125 66.40625 
Q 25.390625 66.40625 21.84375 63.234375 
Q 18.3125 60.0625 18.3125 54.390625 
z
" id="DejaVuSans-56"/>
      </defs>
      <g transform="translate(91.961265 156.17499)rotate(-90)scale(0.08 -0.08)">
       <use xlink:href="#DejaVuSans-56"/>
       <use x="63.623047" xlink:href="#DejaVuSans-32"/>
       <use x="95.410156" xlink:href="#DejaVuSans-77"/>
       <use x="181.689453" xlink:href="#DejaVuSans-97"/>
       <use x="242.96875" xlink:href="#DejaVuSans-114"/>
      </g>
     </g>
    </g>
    <g id="xtick_8">
     <g id="line2d_8">
      <g>
       <use style="stroke:#000000;stroke-width:0.8;" x="71.307418" xlink:href="#m4298af77ee" y="126.44874"/>
      </g>
     </g>
     <g id="text_8">
      <!-- 1 Mar -->
      <g transform="translate(73.514918 156.17499)rotate(-90)scale(0.08 -0.08)">
       <use xlink:href="#DejaVuSans-49"/>
       <use x="63.623047" xlink:href="#DejaVuSans-32"/>
       <use x="95.410156" xlink:href="#DejaVuSans-77"/>
       <use x="181.689453" xlink:href="#DejaVuSans-97"/>
       <use x="242.96875" xlink:href="#DejaVuSans-114"/>
      </g>
     </g>
    </g>
   </g>
   <g id="matplotlib.axis_2">
    <g id="ytick_1">
     <g id="line2d_9">
      <defs>
       <path d="M 0 0 
L -3.5 0 
" id="m2b3db6e678" style="stroke:#000000;stroke-width:0.8;"/>
      </defs>
      <g>
       <use style="stroke:#000000;stroke-width:0.8;" x="47.09" xlink:href="#m2b3db6e678" y="126.44874"/>
      </g>
     </g>
     <g id="text_9">
      <!-- 0 -->
      <defs>
       <path d="M 31.78125 66.40625 
Q 24.171875 66.40625 20.328125 58.90625 
Q 16.5 51.421875 16.5 36.375 
Q 16.5 21.390625 20.328125 13.890625 
Q 24.171875 6.390625 31.78125 6.390625 
Q 39.453125 6.390625 43.28125 13.890625 
Q 47.125 21.390625 47.125 36.375 
Q 47.125 51.421875 43.28125 58.90625 
Q 39.453125 66.40625 31.78125 66.40625 
z
M 31.78125 74.21875 
Q 44.046875 74.21875 50.515625 64.515625 
Q 56.984375 54.828125 56.984375 36.375 
Q 56.984375 17.96875 50.515625 8.265625 
Q 44.046875 -1.421875 31.78125 -1.421875 
Q 19.53125 -1.421875 13.0625 8.265625 
Q 6.59375 17.96875 6.59375 36.375 
Q 6.59375 54.828125 13.0625 64.515625 
Q 19.53125 74.21875 31.78125 74.21875 
z
" id="DejaVuSans-48"/>
      </defs>
      <g transform="translate(35 129.488115)scale(0.08 -0.08)">
       <use xlink:href="#DejaVuSans-48"/>
      </g>
     </g>
    </g>
    <g id="ytick_2">
     <g id="line2d_10">
      <g>
       <use style="stroke:#000000;stroke-width:0.8;" x="47.09" xlink:href="#m2b3db6e678" y="98.759537"/>
      </g>
     </g>
     <g id="text_10">
      <!-- 2000 -->
      <g transform="translate(19.73 101.798912)scale(0.08 -0.08)">
       <use xlink:href="#DejaVuSans-50"/>
       <use x="63.623047" xlink:href="#DejaVuSans-48"/>
       <use x="127.246094" xlink:href="#DejaVuSans-48"/>
       <use x="190.869141" xlink:href="#DejaVuSans-48"/>
      </g>
     </g>
    </g>
    <g id="ytick_3">
     <g id="line2d_11">
      <g>
       <use style="stroke:#000000;stroke-width:0.8;" x="47.09" xlink:href="#m2b3db6e678" y="71.070334"/>
      </g>
     </g>
     <g id="text_11">
      <!-- 4000 -->
      <defs>
       <path d="M 37.796875 64.3125 
L 12.890625 25.390625 
L 37.796875 25.390625 
z
M 35.203125 72.90625 
L 47.609375 72.90625 
L 47.609375 25.390625 
L 58.015625 25.390625 
L 58.015625 17.1875 
L 47.609375 17.1875 
L 47.609375 0 
L 37.796875 0 
L 37.796875 17.1875 
L 4.890625 17.1875 
L 4.890625 26.703125 
z
" id="DejaVuSans-52"/>
      </defs>
      <g transform="translate(19.73 74.109709)scale(0.08 -0.08)">
       <use xlink:href="#DejaVuSans-52"/>
       <use x="63.623047" xlink:href="#DejaVuSans-48"/>
       <use x="127.246094" xlink:href="#DejaVuSans-48"/>
       <use x="190.869141" xlink:href="#DejaVuSans-48"/>
      </g>
     </g>
    </g>
    <g id="ytick_4">
     <g id="line2d_12">
      <g>
       <use style="stroke:#000000;stroke-width:0.8;" x="47.09" xlink:href="#m2b3db6e678" y="43.381131"/>
      </g>
     </g>
     <g id="text_12">
      <!-- 6000 -->
      <defs>
       <path d="M 33.015625 40.375 
Q 26.375 40.375 22.484375 35.828125 
Q 18.609375 31.296875 18.609375 23.390625 
Q 18.609375 15.53125 22.484375 10.953125 
Q 26.375 6.390625 33.015625 6.390625 
Q 39.65625 6.390625 43.53125 10.953125 
Q 47.40625 15.53125 47.40625 23.390625 
Q 47.40625 31.296875 43.53125 35.828125 
Q 39.65625 40.375 33.015625 40.375 
z
M 52.59375 71.296875 
L 52.59375 62.3125 
Q 48.875 64.0625 45.09375 64.984375 
Q 41.3125 65.921875 37.59375 65.921875 
Q 27.828125 65.921875 22.671875 59.328125 
Q 17.53125 52.734375 16.796875 39.40625 
Q 19.671875 43.65625 24.015625 45.921875 
Q 28.375 48.1875 33.59375 48.1875 
Q 44.578125 48.1875 50.953125 41.515625 
Q 57.328125 34.859375 57.328125 23.390625 
Q 57.328125 12.15625 50.6875 5.359375 
Q 44.046875 -1.421875 33.015625 -1.421875 
Q 20.359375 -1.421875 13.671875 8.265625 
Q 6.984375 17.96875 6.984375 36.375 
Q 6.984375 53.65625 15.1875 63.9375 
Q 23.390625 74.21875 37.203125 74.21875 
Q 40.921875 74.21875 44.703125 73.484375 
Q 48.484375 72.75 52.59375 71.296875 
z
" id="DejaVuSans-54"/>
      </defs>
      <g transform="translate(19.73 46.420506)scale(0.08 -0.08)">
       <use xlink:href="#DejaVuSans-54"/>
       <use x="63.623047" xlink:href="#DejaVuSans-48"/>
       <use x="127.246094" xlink:href="#DejaVuSans-48"/>
       <use x="190.869141" xlink:href="#DejaVuSans-48"/>
      </g>
     </g>
    </g>
    <g id="ytick_5">
     <g id="line2d_13">
      <g>
       <use style="stroke:#000000;stroke-width:0.8;" x="47.09" xlink:href="#m2b3db6e678" y="15.691928"/>
      </g>
     </g>
     <g id="text_13">
      <!-- 8000 -->
      <g transform="translate(19.73 18.731303)scale(0.08 -0.08)">
       <use xlink:href="#DejaVuSans-56"/>
       <use x="63.623047" xlink:href="#DejaVuSans-48"/>
       <use x="127.246094" xlink:href="#DejaVuSans-48"/>
       <use x="190.869141" xlink:href="#DejaVuSans-48"/>
      </g>
     </g>
    </g>
    <g id="text_14">
     <!-- Cases per day -->
     <defs>
      <path d="M 64.40625 67.28125 
L 64.40625 56.890625 
Q 59.421875 61.53125 53.78125 63.8125 
Q 48.140625 66.109375 41.796875 66.109375 
Q 29.296875 66.109375 22.65625 58.46875 
Q 16.015625 50.828125 16.015625 36.375 
Q 16.015625 21.96875 22.65625 14.328125 
Q 29.296875 6.6875 41.796875 6.6875 
Q 48.140625 6.6875 53.78125 8.984375 
Q 59.421875 11.28125 64.40625 15.921875 
L 64.40625 5.609375 
Q 59.234375 2.09375 53.4375 0.328125 
Q 47.65625 -1.421875 41.21875 -1.421875 
Q 24.65625 -1.421875 15.125 8.703125 
Q 5.609375 18.84375 5.609375 36.375 
Q 5.609375 53.953125 15.125 64.078125 
Q 24.65625 74.21875 41.21875 74.21875 
Q 47.75 74.21875 53.53125 72.484375 
Q 59.328125 70.75 64.40625 67.28125 
z
" id="DejaVuSans-67"/>
      <path d="M 44.28125 53.078125 
L 44.28125 44.578125 
Q 40.484375 46.53125 36.375 47.5 
Q 32.28125 48.484375 27.875 48.484375 
Q 21.1875 48.484375 17.84375 46.4375 
Q 14.5 44.390625 14.5 40.28125 
Q 14.5 37.15625 16.890625 35.375 
Q 19.28125 33.59375 26.515625 31.984375 
L 29.59375 31.296875 
Q 39.15625 29.25 43.1875 25.515625 
Q 47.21875 21.78125 47.21875 15.09375 
Q 47.21875 7.46875 41.1875 3.015625 
Q 35.15625 -1.421875 24.609375 -1.421875 
Q 20.21875 -1.421875 15.453125 -0.5625 
Q 10.6875 0.296875 5.421875 2 
L 5.421875 11.28125 
Q 10.40625 8.6875 15.234375 7.390625 
Q 20.0625 6.109375 24.8125 6.109375 
Q 31.15625 6.109375 34.5625 8.28125 
Q 37.984375 10.453125 37.984375 14.40625 
Q 37.984375 18.0625 35.515625 20.015625 
Q 33.0625 21.96875 24.703125 23.78125 
L 21.578125 24.515625 
Q 13.234375 26.265625 9.515625 29.90625 
Q 5.8125 33.546875 5.8125 39.890625 
Q 5.8125 47.609375 11.28125 51.796875 
Q 16.75 56 26.8125 56 
Q 31.78125 56 36.171875 55.265625 
Q 40.578125 54.546875 44.28125 53.078125 
z
" id="DejaVuSans-115"/>
      <path d="M 56.203125 29.59375 
L 56.203125 25.203125 
L 14.890625 25.203125 
Q 15.484375 15.921875 20.484375 11.0625 
Q 25.484375 6.203125 34.421875 6.203125 
Q 39.59375 6.203125 44.453125 7.46875 
Q 49.3125 8.734375 54.109375 11.28125 
L 54.109375 2.78125 
Q 49.265625 0.734375 44.1875 -0.34375 
Q 39.109375 -1.421875 33.890625 -1.421875 
Q 20.796875 -1.421875 13.15625 6.1875 
Q 5.515625 13.8125 5.515625 26.8125 
Q 5.515625 40.234375 12.765625 48.109375 
Q 20.015625 56 32.328125 56 
Q 43.359375 56 49.78125 48.890625 
Q 56.203125 41.796875 56.203125 29.59375 
z
M 47.21875 32.234375 
Q 47.125 39.59375 43.09375 43.984375 
Q 39.0625 48.390625 32.421875 48.390625 
Q 24.90625 48.390625 20.390625 44.140625 
Q 15.875 39.890625 15.1875 32.171875 
z
" id="DejaVuSans-101"/>
      <path d="M 45.40625 46.390625 
L 45.40625 75.984375 
L 54.390625 75.984375 
L 54.390625 0 
L 45.40625 0 
L 45.40625 8.203125 
Q 42.578125 3.328125 38.25 0.953125 
Q 33.9375 -1.421875 27.875 -1.421875 
Q 17.96875 -1.421875 11.734375 6.484375 
Q 5.515625 14.40625 5.515625 27.296875 
Q 5.515625 40.1875 11.734375 48.09375 
Q 17.96875 56 27.875 56 
Q 33.9375 56 38.25 53.625 
Q 42.578125 51.265625 45.40625 46.390625 
z
M 14.796875 27.296875 
Q 14.796875 17.390625 18.875 11.75 
Q 22.953125 6.109375 30.078125 6.109375 
Q 37.203125 6.109375 41.296875 11.75 
Q 45.40625 17.390625 45.40625 27.296875 
Q 45.40625 37.203125 41.296875 42.84375 
Q 37.203125 48.484375 30.078125 48.484375 
Q 22.953125 48.484375 18.875 42.84375 
Q 14.796875 37.203125 14.796875 27.296875 
z
" id="DejaVuSans-100"/>
      <path d="M 32.171875 -5.078125 
Q 28.375 -14.84375 24.75 -17.8125 
Q 21.140625 -20.796875 15.09375 -20.796875 
L 7.90625 -20.796875 
L 7.90625 -13.28125 
L 13.1875 -13.28125 
Q 16.890625 -13.28125 18.9375 -11.515625 
Q 21 -9.765625 23.484375 -3.21875 
L 25.09375 0.875 
L 2.984375 54.6875 
L 12.5 54.6875 
L 29.59375 11.921875 
L 46.6875 54.6875 
L 56.203125 54.6875 
z
" id="DejaVuSans-121"/>
     </defs>
     <g transform="translate(14.06625 97.40312)rotate(-90)scale(0.08 -0.08)">
      <use xlink:href="#DejaVuSans-67"/>
      <use x="69.824219" xlink:href="#DejaVuSans-97"/>
      <use x="131.103516" xlink:href="#DejaVuSans-115"/>
      <use x="183.203125" xlink:href="#DejaVuSans-101"/>
      <use x="244.726562" xlink:href="#DejaVuSans-115"/>
      <use x="296.826172" xlink:href="#DejaVuSans-32"/>
      <use x="328.613281" xlink:href="#DejaVuSans-112"/>
      <use x="392.089844" xlink:href="#DejaVuSans-101"/>
      <use x="453.613281" xlink:href="#DejaVuSans-114"/>
      <use x="494.726562" xlink:href="#DejaVuSans-32"/>
      <use x="526.513672" xlink:href="#DejaVuSans-100"/>
      <use x="589.990234" xlink:href="#DejaVuSans-97"/>
      <use x="651.269531" xlink:href="#DejaVuSans-121"/>
     </g>
    </g>
   </g>
   <g id="line2d_14">
    <path clip-path="url(#p584513723e)" d="M 55.496264 126.122625 
L 58.131456 126.122625 
L 60.766649 126.122625 
L 63.401841 126.122625 
L 66.037033 126.122625 
L 68.672226 126.122625 
L 71.307418 125.994307 
L 73.942611 125.902455 
L 76.577803 125.823464 
L 79.212995 125.710637 
L 81.848188 125.480047 
L 84.48338 125.340654 
L 87.118573 125.254791 
L 89.753765 125.13223 
L 92.388958 124.650689 
L 95.02415 124.346948 
L 97.659342 123.322509 
L 100.294535 110.223494 
L 102.929727 122.14685 
L 105.56492 122.103466 
L 108.200112 124.407886 
L 110.835304 120.036666 
L 113.470497 120.863275 
L 116.105689 120.510539 
L 118.740882 119.219998 
L 121.376074 119.02786 
L 124.011267 117.531586 
L 126.646459 121.887557 
L 129.281651 117.810259 
L 131.916844 117.412554 
L 134.552036 116.568598 
L 137.187229 114.807698 
L 139.822421 113.502072 
L 142.457613 111.319824 
L 145.092806 118.71795 
" style="fill:none;stroke:#0000ff;stroke-linecap:square;stroke-opacity:0.5;"/>
   </g>
   <g id="line2d_15">
    <path clip-path="url(#p584513723e)" d="M 147.727998 117.950915 
L 150.363191 117.436213 
L 152.998383 117.131851 
L 155.633575 116.944507 
L 158.268768 116.804469 
L 160.90396 116.670395 
L 163.539153 116.520433 
L 166.174345 116.343639 
L 168.809538 116.134342 
L 171.44473 115.889021 
L 174.079922 115.604758 
L 176.715115 115.278533 
L 179.350307 114.906929 
L 181.9855 114.485996 
L 184.620692 114.011179 
L 187.255884 113.477251 
L 189.891077 112.878239 
L 192.526269 112.207339 
L 195.161462 111.456805 
L 197.796654 110.617833 
L 200.431846 109.680406 
" style="fill:none;stroke:#008000;stroke-linecap:square;stroke-opacity:0.5;"/>
   </g>
   <g id="line2d_16">
    <path clip-path="url(#p584513723e)" d="M 100.294535 126.44874 
L 100.294535 11.52 
" style="fill:none;stroke:#0000ff;stroke-dasharray:1.85,0.8;stroke-dashoffset:0;stroke-width:0.5;"/>
   </g>
   <g id="line2d_17">
    <path clip-path="url(#p584513723e)" d="M 102.929727 126.44874 
L 102.929727 11.52 
" style="fill:none;stroke:#0000ff;stroke-dasharray:1.85,0.8;stroke-dashoffset:0;stroke-width:0.5;"/>
   </g>
   <g id="line2d_18">
    <path clip-path="url(#p584513723e)" d="M 131.916844 126.44874 
L 131.916844 11.52 
" style="fill:none;stroke:#0000ff;stroke-dasharray:1.85,0.8;stroke-dashoffset:0;stroke-width:0.5;"/>
   </g>
   <g id="line2d_19">
    <path clip-path="url(#p584513723e)" d="M 110.835304 126.44874 
L 110.835304 11.52 
" style="fill:none;stroke:#0000ff;stroke-dasharray:1.85,0.8;stroke-dashoffset:0;stroke-width:0.5;"/>
   </g>
   <g id="line2d_20">
    <path clip-path="url(#p584513723e)" d="M 108.200112 126.44874 
L 108.200112 11.52 
" style="fill:none;stroke:#0000ff;stroke-dasharray:1.85,0.8;stroke-dashoffset:0;stroke-width:0.5;"/>
   </g>
   <g id="patch_59">
    <path d="M 47.09 126.44874 
L 47.09 11.52 
" style="fill:none;stroke:#000000;stroke-linecap:square;stroke-linejoin:miter;stroke-width:0.8;"/>
   </g>
   <g id="patch_60">
    <path d="M 208.83811 126.44874 
L 208.83811 11.52 
" style="fill:none;stroke:#000000;stroke-linecap:square;stroke-linejoin:miter;stroke-width:0.8;"/>
   </g>
   <g id="patch_61">
    <path d="M 47.09 126.44874 
L 208.83811 126.44874 
" style="fill:none;stroke:#000000;stroke-linecap:square;stroke-linejoin:miter;stroke-width:0.8;"/>
   </g>
   <g id="patch_62">
    <path d="M 47.09 11.52 
L 208.83811 11.52 
" style="fill:none;stroke:#000000;stroke-linecap:square;stroke-linejoin:miter;stroke-width:0.8;"/>
   </g>
   <g id="legend_1">
    <g id="line2d_21">
     <path d="M 54.29 103.04249 
L 70.29 103.04249 
" style="fill:none;stroke:#0000ff;stroke-linecap:square;stroke-opacity:0.5;"/>
    </g>
    <g id="line2d_22"/>
    <g id="text_15">
     <!-- Simulation -->
     <defs>
      <path d="M 53.515625 70.515625 
L 53.515625 60.890625 
Q 47.90625 63.578125 42.921875 64.890625 
Q 37.9375 66.21875 33.296875 66.21875 
Q 25.25 66.21875 20.875 63.09375 
Q 16.5 59.96875 16.5 54.203125 
Q 16.5 49.359375 19.40625 46.890625 
Q 22.3125 44.4375 30.421875 42.921875 
L 36.375 41.703125 
Q 47.40625 39.59375 52.65625 34.296875 
Q 57.90625 29 57.90625 20.125 
Q 57.90625 9.515625 50.796875 4.046875 
Q 43.703125 -1.421875 29.984375 -1.421875 
Q 24.8125 -1.421875 18.96875 -0.25 
Q 13.140625 0.921875 6.890625 3.21875 
L 6.890625 13.375 
Q 12.890625 10.015625 18.65625 8.296875 
Q 24.421875 6.59375 29.984375 6.59375 
Q 38.421875 6.59375 43.015625 9.90625 
Q 47.609375 13.234375 47.609375 19.390625 
Q 47.609375 24.75 44.3125 27.78125 
Q 41.015625 30.8125 33.5 32.328125 
L 27.484375 33.5 
Q 16.453125 35.6875 11.515625 40.375 
Q 6.59375 45.0625 6.59375 53.421875 
Q 6.59375 63.09375 13.40625 68.65625 
Q 20.21875 74.21875 32.171875 74.21875 
Q 37.3125 74.21875 42.625 73.28125 
Q 47.953125 72.359375 53.515625 70.515625 
z
" id="DejaVuSans-83"/>
      <path d="M 9.421875 54.6875 
L 18.40625 54.6875 
L 18.40625 0 
L 9.421875 0 
z
M 9.421875 75.984375 
L 18.40625 75.984375 
L 18.40625 64.59375 
L 9.421875 64.59375 
z
" id="DejaVuSans-105"/>
      <path d="M 52 44.1875 
Q 55.375 50.25 60.0625 53.125 
Q 64.75 56 71.09375 56 
Q 79.640625 56 84.28125 50.015625 
Q 88.921875 44.046875 88.921875 33.015625 
L 88.921875 0 
L 79.890625 0 
L 79.890625 32.71875 
Q 79.890625 40.578125 77.09375 44.375 
Q 74.3125 48.1875 68.609375 48.1875 
Q 61.625 48.1875 57.5625 43.546875 
Q 53.515625 38.921875 53.515625 30.90625 
L 53.515625 0 
L 44.484375 0 
L 44.484375 32.71875 
Q 44.484375 40.625 41.703125 44.40625 
Q 38.921875 48.1875 33.109375 48.1875 
Q 26.21875 48.1875 22.15625 43.53125 
Q 18.109375 38.875 18.109375 30.90625 
L 18.109375 0 
L 9.078125 0 
L 9.078125 54.6875 
L 18.109375 54.6875 
L 18.109375 46.1875 
Q 21.1875 51.21875 25.484375 53.609375 
Q 29.78125 56 35.6875 56 
Q 41.65625 56 45.828125 52.96875 
Q 50 49.953125 52 44.1875 
z
" id="DejaVuSans-109"/>
      <path d="M 8.5 21.578125 
L 8.5 54.6875 
L 17.484375 54.6875 
L 17.484375 21.921875 
Q 17.484375 14.15625 20.5 10.265625 
Q 23.53125 6.390625 29.59375 6.390625 
Q 36.859375 6.390625 41.078125 11.03125 
Q 45.3125 15.671875 45.3125 23.6875 
L 45.3125 54.6875 
L 54.296875 54.6875 
L 54.296875 0 
L 45.3125 0 
L 45.3125 8.40625 
Q 42.046875 3.421875 37.71875 1 
Q 33.40625 -1.421875 27.6875 -1.421875 
Q 18.265625 -1.421875 13.375 4.4375 
Q 8.5 10.296875 8.5 21.578125 
z
M 31.109375 56 
z
" id="DejaVuSans-117"/>
      <path d="M 9.421875 75.984375 
L 18.40625 75.984375 
L 18.40625 0 
L 9.421875 0 
z
" id="DejaVuSans-108"/>
      <path d="M 18.3125 70.21875 
L 18.3125 54.6875 
L 36.8125 54.6875 
L 36.8125 47.703125 
L 18.3125 47.703125 
L 18.3125 18.015625 
Q 18.3125 11.328125 20.140625 9.421875 
Q 21.96875 7.515625 27.59375 7.515625 
L 36.8125 7.515625 
L 36.8125 0 
L 27.59375 0 
Q 17.1875 0 13.234375 3.875 
Q 9.28125 7.765625 9.28125 18.015625 
L 9.28125 47.703125 
L 2.6875 47.703125 
L 2.6875 54.6875 
L 9.28125 54.6875 
L 9.28125 70.21875 
z
" id="DejaVuSans-116"/>
      <path d="M 30.609375 48.390625 
Q 23.390625 48.390625 19.1875 42.75 
Q 14.984375 37.109375 14.984375 27.296875 
Q 14.984375 17.484375 19.15625 11.84375 
Q 23.34375 6.203125 30.609375 6.203125 
Q 37.796875 6.203125 41.984375 11.859375 
Q 46.1875 17.53125 46.1875 27.296875 
Q 46.1875 37.015625 41.984375 42.703125 
Q 37.796875 48.390625 30.609375 48.390625 
z
M 30.609375 56 
Q 42.328125 56 49.015625 48.375 
Q 55.71875 40.765625 55.71875 27.296875 
Q 55.71875 13.875 49.015625 6.21875 
Q 42.328125 -1.421875 30.609375 -1.421875 
Q 18.84375 -1.421875 12.171875 6.21875 
Q 5.515625 13.875 5.515625 27.296875 
Q 5.515625 40.765625 12.171875 48.375 
Q 18.84375 56 30.609375 56 
z
" id="DejaVuSans-111"/>
      <path d="M 54.890625 33.015625 
L 54.890625 0 
L 45.90625 0 
L 45.90625 32.71875 
Q 45.90625 40.484375 42.875 44.328125 
Q 39.84375 48.1875 33.796875 48.1875 
Q 26.515625 48.1875 22.3125 43.546875 
Q 18.109375 38.921875 18.109375 30.90625 
L 18.109375 0 
L 9.078125 0 
L 9.078125 54.6875 
L 18.109375 54.6875 
L 18.109375 46.1875 
Q 21.34375 51.125 25.703125 53.5625 
Q 30.078125 56 35.796875 56 
Q 45.21875 56 50.046875 50.171875 
Q 54.890625 44.34375 54.890625 33.015625 
z
" id="DejaVuSans-110"/>
     </defs>
     <g transform="translate(76.69 105.84249)scale(0.08 -0.08)">
      <use xlink:href="#DejaVuSans-83"/>
      <use x="63.476562" xlink:href="#DejaVuSans-105"/>
      <use x="91.259766" xlink:href="#DejaVuSans-109"/>
      <use x="188.671875" xlink:href="#DejaVuSans-117"/>
      <use x="252.050781" xlink:href="#DejaVuSans-108"/>
      <use x="279.833984" xlink:href="#DejaVuSans-97"/>
      <use x="341.113281" xlink:href="#DejaVuSans-116"/>
      <use x="380.322266" xlink:href="#DejaVuSans-105"/>
      <use x="408.105469" xlink:href="#DejaVuSans-111"/>
      <use x="469.287109" xlink:href="#DejaVuSans-110"/>
     </g>
    </g>
    <g id="line2d_23">
     <path d="M 54.29 114.78499 
L 70.29 114.78499 
" style="fill:none;stroke:#008000;stroke-linecap:square;stroke-opacity:0.5;"/>
    </g>
    <g id="line2d_24"/>
    <g id="text_16">
     <!-- Forecast -->
     <defs>
      <path d="M 9.8125 72.90625 
L 51.703125 72.90625 
L 51.703125 64.59375 
L 19.671875 64.59375 
L 19.671875 43.109375 
L 48.578125 43.109375 
L 48.578125 34.8125 
L 19.671875 34.8125 
L 19.671875 0 
L 9.8125 0 
z
" id="DejaVuSans-70"/>
      <path d="M 48.78125 52.59375 
L 48.78125 44.1875 
Q 44.96875 46.296875 41.140625 47.34375 
Q 37.3125 48.390625 33.40625 48.390625 
Q 24.65625 48.390625 19.8125 42.84375 
Q 14.984375 37.3125 14.984375 27.296875 
Q 14.984375 17.28125 19.8125 11.734375 
Q 24.65625 6.203125 33.40625 6.203125 
Q 37.3125 6.203125 41.140625 7.25 
Q 44.96875 8.296875 48.78125 10.40625 
L 48.78125 2.09375 
Q 45.015625 0.34375 40.984375 -0.53125 
Q 36.96875 -1.421875 32.421875 -1.421875 
Q 20.0625 -1.421875 12.78125 6.34375 
Q 5.515625 14.109375 5.515625 27.296875 
Q 5.515625 40.671875 12.859375 48.328125 
Q 20.21875 56 33.015625 56 
Q 37.15625 56 41.109375 55.140625 
Q 45.0625 54.296875 48.78125 52.59375 
z
" id="DejaVuSans-99"/>
     </defs>
     <g transform="translate(76.69 117.58499)scale(0.08 -0.08)">
      <use xlink:href="#DejaVuSans-70"/>
      <use x="53.894531" xlink:href="#DejaVuSans-111"/>
      <use x="115.076172" xlink:href="#DejaVuSans-114"/>
      <use x="153.939453" xlink:href="#DejaVuSans-101"/>
      <use x="215.462891" xlink:href="#DejaVuSans-99"/>
      <use x="270.443359" xlink:href="#DejaVuSans-97"/>
      <use x="331.722656" xlink:href="#DejaVuSans-115"/>
      <use x="383.822266" xlink:href="#DejaVuSans-116"/>
     </g>
    </g>
   </g>
  </g>
  <g id="axes_2">
   <g id="matplotlib.axis_3">
    <g id="ytick_6">
     <g id="line2d_25">
      <defs>
       <path d="M 0 0 
L 3.5 0 
" id="mfd9eb434a6" style="stroke:#000000;stroke-width:0.8;"/>
      </defs>
      <g>
       <use style="stroke:#000000;stroke-width:0.8;" x="208.83811" xlink:href="#mfd9eb434a6" y="126.44874"/>
      </g>
     </g>
     <g id="text_17">
      <!-- 1.0 -->
      <defs>
       <path d="M 10.59375 35.5 
L 73.1875 35.5 
L 73.1875 27.203125 
L 10.59375 27.203125 
z
" id="DejaVuSans-8722"/>
       <path d="M 10.6875 12.40625 
L 21 12.40625 
L 21 0 
L 10.6875 0 
z
" id="DejaVuSans-46"/>
      </defs>
      <g transform="translate(215.83811 129.488115)scale(0.08 -0.08)">
       <use xlink:href="#DejaVuSans-8722"/>
       <use x="83.789062" xlink:href="#DejaVuSans-49"/>
       <use x="147.412109" xlink:href="#DejaVuSans-46"/>
       <use x="179.199219" xlink:href="#DejaVuSans-48"/>
      </g>
     </g>
    </g>
    <g id="ytick_7">
     <g id="line2d_26">
      <g>
       <use style="stroke:#000000;stroke-width:0.8;" x="208.83811" xlink:href="#mfd9eb434a6" y="85.402762"/>
      </g>
     </g>
     <g id="text_18">
      <!-- 0.5 -->
      <g transform="translate(215.83811 88.442137)scale(0.08 -0.08)">
       <use xlink:href="#DejaVuSans-8722"/>
       <use x="83.789062" xlink:href="#DejaVuSans-48"/>
       <use x="147.412109" xlink:href="#DejaVuSans-46"/>
       <use x="179.199219" xlink:href="#DejaVuSans-53"/>
      </g>
     </g>
    </g>
    <g id="ytick_8">
     <g id="line2d_27">
      <g>
       <use style="stroke:#000000;stroke-width:0.8;" x="208.83811" xlink:href="#mfd9eb434a6" y="44.356783"/>
      </g>
     </g>
     <g id="text_19">
      <!-- 0.0 -->
      <g transform="translate(215.83811 47.396158)scale(0.08 -0.08)">
       <use xlink:href="#DejaVuSans-48"/>
       <use x="63.623047" xlink:href="#DejaVuSans-46"/>
       <use x="95.410156" xlink:href="#DejaVuSans-48"/>
      </g>
     </g>
    </g>
    <g id="ytick_9">
     <g id="line2d_28">
      <g>
       <use style="stroke:#000000;stroke-width:0.8;" x="208.83811" xlink:href="#mfd9eb434a6" y="11.52"/>
      </g>
     </g>
     <g id="text_20">
      <!-- 0.4 -->
      <g transform="translate(215.83811 14.559375)scale(0.08 -0.08)">
       <use xlink:href="#DejaVuSans-48"/>
       <use x="63.623047" xlink:href="#DejaVuSans-46"/>
       <use x="95.410156" xlink:href="#DejaVuSans-52"/>
      </g>
     </g>
    </g>
    <g id="text_21">
     <!-- Relative change -->
     <defs>
      <path d="M 44.390625 34.1875 
Q 47.5625 33.109375 50.5625 29.59375 
Q 53.5625 26.078125 56.59375 19.921875 
L 66.609375 0 
L 56 0 
L 46.6875 18.703125 
Q 43.0625 26.03125 39.671875 28.421875 
Q 36.28125 30.8125 30.421875 30.8125 
L 19.671875 30.8125 
L 19.671875 0 
L 9.8125 0 
L 9.8125 72.90625 
L 32.078125 72.90625 
Q 44.578125 72.90625 50.734375 67.671875 
Q 56.890625 62.453125 56.890625 51.90625 
Q 56.890625 45.015625 53.6875 40.46875 
Q 50.484375 35.9375 44.390625 34.1875 
z
M 19.671875 64.796875 
L 19.671875 38.921875 
L 32.078125 38.921875 
Q 39.203125 38.921875 42.84375 42.21875 
Q 46.484375 45.515625 46.484375 51.90625 
Q 46.484375 58.296875 42.84375 61.546875 
Q 39.203125 64.796875 32.078125 64.796875 
z
" id="DejaVuSans-82"/>
      <path d="M 2.984375 54.6875 
L 12.5 54.6875 
L 29.59375 8.796875 
L 46.6875 54.6875 
L 56.203125 54.6875 
L 35.6875 0 
L 23.484375 0 
z
" id="DejaVuSans-118"/>
      <path d="M 54.890625 33.015625 
L 54.890625 0 
L 45.90625 0 
L 45.90625 32.71875 
Q 45.90625 40.484375 42.875 44.328125 
Q 39.84375 48.1875 33.796875 48.1875 
Q 26.515625 48.1875 22.3125 43.546875 
Q 18.109375 38.921875 18.109375 30.90625 
L 18.109375 0 
L 9.078125 0 
L 9.078125 75.984375 
L 18.109375 75.984375 
L 18.109375 46.1875 
Q 21.34375 51.125 25.703125 53.5625 
Q 30.078125 56 35.796875 56 
Q 45.21875 56 50.046875 50.171875 
Q 54.890625 44.34375 54.890625 33.015625 
z
" id="DejaVuSans-104"/>
      <path d="M 45.40625 27.984375 
Q 45.40625 37.75 41.375 43.109375 
Q 37.359375 48.484375 30.078125 48.484375 
Q 22.859375 48.484375 18.828125 43.109375 
Q 14.796875 37.75 14.796875 27.984375 
Q 14.796875 18.265625 18.828125 12.890625 
Q 22.859375 7.515625 30.078125 7.515625 
Q 37.359375 7.515625 41.375 12.890625 
Q 45.40625 18.265625 45.40625 27.984375 
z
M 54.390625 6.78125 
Q 54.390625 -7.171875 48.1875 -13.984375 
Q 42 -20.796875 29.203125 -20.796875 
Q 24.46875 -20.796875 20.265625 -20.09375 
Q 16.0625 -19.390625 12.109375 -17.921875 
L 12.109375 -9.1875 
Q 16.0625 -11.328125 19.921875 -12.34375 
Q 23.78125 -13.375 27.78125 -13.375 
Q 36.625 -13.375 41.015625 -8.765625 
Q 45.40625 -4.15625 45.40625 5.171875 
L 45.40625 9.625 
Q 42.625 4.78125 38.28125 2.390625 
Q 33.9375 0 27.875 0 
Q 17.828125 0 11.671875 7.65625 
Q 5.515625 15.328125 5.515625 27.984375 
Q 5.515625 40.671875 11.671875 48.328125 
Q 17.828125 56 27.875 56 
Q 33.9375 56 38.28125 53.609375 
Q 42.625 51.21875 45.40625 46.390625 
L 45.40625 54.6875 
L 54.390625 54.6875 
z
" id="DejaVuSans-103"/>
     </defs>
     <g transform="translate(245.34311 101.10812)rotate(-90)scale(0.08 -0.08)">
      <use xlink:href="#DejaVuSans-82"/>
      <use x="64.982422" xlink:href="#DejaVuSans-101"/>
      <use x="126.505859" xlink:href="#DejaVuSans-108"/>
      <use x="154.289062" xlink:href="#DejaVuSans-97"/>
      <use x="215.568359" xlink:href="#DejaVuSans-116"/>
      <use x="254.777344" xlink:href="#DejaVuSans-105"/>
      <use x="282.560547" xlink:href="#DejaVuSans-118"/>
      <use x="341.740234" xlink:href="#DejaVuSans-101"/>
      <use x="403.263672" xlink:href="#DejaVuSans-32"/>
      <use x="435.050781" xlink:href="#DejaVuSans-99"/>
      <use x="490.03125" xlink:href="#DejaVuSans-104"/>
      <use x="553.410156" xlink:href="#DejaVuSans-97"/>
      <use x="614.689453" xlink:href="#DejaVuSans-110"/>
      <use x="678.068359" xlink:href="#DejaVuSans-103"/>
      <use x="741.544922" xlink:href="#DejaVuSans-101"/>
     </g>
    </g>
   </g>
   <g id="line2d_29">
    <path clip-path="url(#p584513723e)" d="M 55.496264 43.535863 
L 58.131456 43.535863 
L 60.766649 42.714944 
L 63.401841 43.535863 
L 66.037033 43.535863 
L 68.672226 47.640461 
L 71.307418 52.565979 
L 73.942611 45.998622 
L 76.577803 45.177702 
L 79.212995 46.819542 
L 81.848188 44.356783 
L 84.48338 45.998622 
L 87.118573 50.10322 
L 89.753765 53.386898 
L 92.388958 47.640461 
L 95.02415 48.461381 
L 97.659342 49.2823 
L 100.294535 49.2823 
L 102.929727 72.268048 
L 105.56492 82.940003 
L 108.200112 102.642073 
L 110.835304 76.372646 
L 113.470497 80.477244 
L 116.105689 82.119083 
L 118.740882 80.477244 
L 121.376074 80.477244 
L 124.011267 84.581842 
L 126.646459 97.716555 
L 129.281651 78.014485 
L 131.916844 81.298164 
L 134.552036 81.298164 
L 137.187229 79.656325 
L 139.822421 78.835405 
L 142.457613 82.940003 
L 145.092806 97.716555 
" style="fill:none;stroke:#d62728;stroke-linecap:square;stroke-opacity:0.5;"/>
   </g>
   <g id="line2d_30">
    <path clip-path="url(#p584513723e)" d="M 55.496264 43.535863 
L 58.131456 43.535863 
L 60.766649 42.714944 
L 63.401841 41.894024 
L 66.037033 41.894024 
L 68.672226 45.177702 
L 71.307418 42.714944 
L 73.942611 42.714944 
L 76.577803 43.535863 
L 79.212995 43.535863 
L 81.848188 41.073105 
L 84.48338 41.894024 
L 87.118573 44.356783 
L 89.753765 45.998622 
L 92.388958 42.714944 
L 95.02415 42.714944 
L 97.659342 36.968507 
L 100.294535 2.489885 
L 102.929727 40.252185 
L 105.56492 51.745059 
L 108.200112 76.372646 
L 110.835304 51.745059 
L 113.470497 56.670576 
L 116.105689 56.670576 
L 118.740882 53.386898 
L 121.376074 54.207818 
L 124.011267 52.565979 
L 126.646459 70.626209 
L 129.281651 55.849657 
L 131.916844 55.849657 
L 134.552036 55.028737 
L 137.187229 52.565979 
L 139.822421 51.745059 
L 142.457613 50.924139 
L 145.092806 70.626209 
" style="fill:none;stroke:#9467bd;stroke-linecap:square;stroke-opacity:0.5;"/>
   </g>
   <g id="line2d_31">
    <path clip-path="url(#p584513723e)" d="M 55.496264 41.894024 
L 58.131456 45.177702 
L 60.766649 43.535863 
L 63.401841 44.356783 
L 66.037033 43.535863 
L 68.672226 42.714944 
L 71.307418 45.177702 
L 73.942611 44.356783 
L 76.577803 45.998622 
L 79.212995 43.535863 
L 81.848188 41.894024 
L 84.48338 42.714944 
L 87.118573 43.535863 
L 89.753765 51.745059 
L 92.388958 45.998622 
L 95.02415 50.10322 
L 97.659342 51.745059 
L 100.294535 60.775174 
L 102.929727 76.372646 
L 105.56492 74.730807 
L 108.200112 88.68644 
L 110.835304 84.581842 
L 113.470497 87.86552 
L 116.105689 89.507359 
L 118.740882 90.328279 
L 121.376074 89.507359 
L 124.011267 78.835405 
L 126.646459 91.149199 
L 129.281651 91.970118 
L 131.916844 92.791038 
L 134.552036 91.970118 
L 137.187229 90.328279 
L 139.822421 91.149199 
L 142.457613 85.402762 
L 145.092806 91.149199 
" style="fill:none;stroke:#e377c2;stroke-linecap:square;stroke-opacity:0.5;"/>
   </g>
   <g id="line2d_32">
    <path clip-path="url(#p584513723e)" d="M 55.496264 48.461381 
L 58.131456 47.640461 
L 60.766649 47.640461 
L 63.401841 48.461381 
L 66.037033 48.461381 
L 68.672226 45.998622 
L 71.307418 45.177702 
L 73.942611 45.998622 
L 76.577803 45.177702 
L 79.212995 45.998622 
L 81.848188 45.998622 
L 84.48338 45.998622 
L 87.118573 45.998622 
L 89.753765 45.998622 
L 92.388958 45.998622 
L 95.02415 45.177702 
L 97.659342 46.819542 
L 100.294535 53.386898 
L 102.929727 73.909888 
L 105.56492 63.237933 
L 108.200112 66.521611 
L 110.835304 83.760922 
L 113.470497 86.223681 
L 116.105689 87.044601 
L 118.740882 87.044601 
L 121.376074 87.044601 
L 124.011267 71.447129 
L 126.646459 72.268048 
L 129.281651 87.044601 
L 131.916844 87.86552 
L 134.552036 87.044601 
L 137.187229 87.044601 
L 139.822421 85.402762 
L 142.457613 71.447129 
L 145.092806 72.268048 
" style="fill:none;stroke:#bcbd22;stroke-linecap:square;stroke-opacity:0.5;"/>
   </g>
   <g id="line2d_33">
    <path clip-path="url(#p584513723e)" d="M 55.496264 44.356783 
L 58.131456 43.535863 
L 60.766649 44.356783 
L 63.401841 43.535863 
L 66.037033 43.535863 
L 68.672226 44.356783 
L 71.307418 44.356783 
L 73.942611 43.535863 
L 76.577803 43.535863 
L 79.212995 43.535863 
L 81.848188 44.356783 
L 84.48338 44.356783 
L 87.118573 44.356783 
L 89.753765 43.535863 
L 92.388958 43.535863 
L 95.02415 42.714944 
L 97.659342 41.894024 
L 100.294535 40.252185 
L 102.929727 32.863909 
L 105.56492 37.789426 
L 108.200112 35.326668 
L 110.835304 29.580231 
L 113.470497 28.759311 
L 116.105689 27.938391 
L 118.740882 27.938391 
L 121.376074 27.117472 
L 124.011267 36.968507 
L 126.646459 34.505748 
L 129.281651 27.938391 
L 131.916844 27.938391 
L 134.552036 27.938391 
L 137.187229 27.938391 
L 139.822421 27.117472 
L 142.457613 36.147587 
L 145.092806 35.326668 
" style="fill:none;stroke:#17becf;stroke-linecap:square;stroke-opacity:0.5;"/>
   </g>
   <g id="patch_63">
    <path d="M 47.09 126.44874 
L 47.09 11.52 
" style="fill:none;stroke:#000000;stroke-linecap:square;stroke-linejoin:miter;stroke-width:0.8;"/>
   </g>
   <g id="patch_64">
    <path d="M 208.83811 126.44874 
L 208.83811 11.52 
" style="fill:none;stroke:#000000;stroke-linecap:square;stroke-linejoin:miter;stroke-width:0.8;"/>
   </g>
   <g id="patch_65">
    <path d="M 47.09 126.44874 
L 208.83811 126.44874 
" style="fill:none;stroke:#000000;stroke-linecap:square;stroke-linejoin:miter;stroke-width:0.8;"/>
   </g>
   <g id="patch_66">
    <path d="M 47.09 11.52 
L 208.83811 11.52 
" style="fill:none;stroke:#000000;stroke-linecap:square;stroke-linejoin:miter;stroke-width:0.8;"/>
   </g>
  </g>
 </g>
 <defs>
  <clipPath id="p584513723e">
   <rect height="114.92874" width="161.74811" x="47.09" y="11.52"/>
  </clipPath>
 </defs>
</svg>
