<?xml version="1.0" encoding="utf-8" standalone="no"?>
<!DOCTYPE svg PUBLIC "-//W3C//DTD SVG 1.1//EN"
  "http://www.w3.org/Graphics/SVG/1.1/DTD/svg11.dtd">
<!-- Created with matplotlib (https://matplotlib.org/) -->
<svg height="170.07874pt" version="1.1" viewBox="0 0 255.11811 170.07874" width="255.11811pt" xmlns="http://www.w3.org/2000/svg" xmlns:xlink="http://www.w3.org/1999/xlink">
 <defs>
  <style type="text/css">
*{stroke-linecap:butt;stroke-linejoin:round;}
  </style>
 </defs>
 <g id="figure_1">
  <g id="patch_1">
   <path d="M 0 170.07874 
L 255.11811 170.07874 
L 255.11811 0 
L 0 0 
z
" style="fill:#ffffff;"/>
  </g>
  <g id="axes_1">
   <g id="patch_2">
    <path d="M 57.17 126.44874 
L 208.83811 126.44874 
L 208.83811 11.52 
L 57.17 11.52 
z
" style="fill:#ffffff;"/>
   </g>
   <g id="PolyCollection_1">
    <defs>
     <path d="M 65.052393 -43.69 
L 65.052393 -43.634805 
L 67.523362 -43.639611 
L 69.994332 -43.644416 
L 72.465301 -43.649221 
L 74.936271 -43.654026 
L 77.407241 -43.658832 
L 79.87821 -43.668175 
L 82.34918 -43.679645 
L 84.820149 -43.693247 
L 87.291119 -43.710229 
L 89.762088 -43.734023 
L 92.233058 -43.762417 
L 94.704027 -43.794262 
L 97.174997 -43.83031 
L 99.645966 -43.882205 
L 102.116936 -43.944238 
L 104.587905 -44.039894 
L 107.058875 -44.406562 
L 109.529845 -44.536131 
L 112.000814 -44.661666 
L 114.471784 -44.709912 
L 116.942753 -44.881396 
L 119.413723 -45.025888 
L 121.884692 -45.170748 
L 124.355662 -45.337285 
L 126.826631 -45.4986 
L 129.297601 -45.686101 
L 131.76857 -45.762366 
L 134.23954 -45.908416 
L 136.710509 -46.051505 
L 139.181479 -46.19651 
L 141.652449 -46.354469 
L 144.123418 -46.515063 
L 146.594388 -46.694894 
L 149.065357 -46.761047 
L 149.065357 -69.762162 
L 149.065357 -69.762162 
L 146.594388 -67.967744 
L 144.123418 -65.027181 
L 141.652449 -62.570949 
L 139.181479 -60.428337 
L 136.710509 -58.682996 
L 134.23954 -57.142556 
L 131.76857 -55.724622 
L 129.297601 -54.943586 
L 126.826631 -53.646846 
L 124.355662 -52.599403 
L 121.884692 -51.633011 
L 119.413723 -50.848244 
L 116.942753 -50.127509 
L 114.471784 -49.325116 
L 112.000814 -49.032567 
L 109.529845 -48.49775 
L 107.058875 -47.980164 
L 104.587905 -45.772809 
L 102.116936 -45.39919 
L 99.645966 -45.140158 
L 97.174997 -44.918608 
L 94.704027 -44.750975 
L 92.233058 -44.598744 
L 89.762088 -44.454535 
L 87.291119 -44.326819 
L 84.820149 -44.226258 
L 82.34918 -44.136769 
L 79.87821 -44.056928 
L 77.407241 -43.990001 
L 74.936271 -43.930001 
L 72.465301 -43.870001 
L 69.994332 -43.81 
L 67.523362 -43.75 
L 65.052393 -43.69 
z
" id="m33c8a7bc37" style="stroke:#6495ed;stroke-opacity:0.4;"/>
    </defs>
    <g clip-path="url(#pf5e760a363)">
     <use style="fill:#6495ed;fill-opacity:0.4;stroke:#6495ed;stroke-opacity:0.4;" x="0" xlink:href="#m33c8a7bc37" y="170.07874"/>
    </g>
   </g>
   <g id="PolyCollection_2">
    <defs>
     <path d="M 65.052393 -43.656612 
L 65.052393 -43.641224 
L 67.523362 -43.652447 
L 69.994332 -43.663671 
L 72.465301 -43.674894 
L 74.936271 -43.686118 
L 77.407241 -43.697341 
L 79.87821 -43.716032 
L 82.34918 -43.738673 
L 84.820149 -43.764949 
L 87.291119 -43.796674 
L 89.762088 -43.839592 
L 92.233058 -43.889439 
L 94.704027 -43.943839 
L 97.174997 -44.004464 
L 99.645966 -44.08876 
L 102.116936 -44.187741 
L 104.587905 -44.338457 
L 107.058875 -45.035787 
L 109.529845 -45.244389 
L 112.000814 -45.45264 
L 114.471784 -45.540817 
L 116.942753 -45.839693 
L 119.413723 -46.095575 
L 121.884692 -46.36366 
L 124.355662 -46.685607 
L 126.826631 -47.007172 
L 129.297601 -47.388278 
L 131.76857 -47.559055 
L 134.23954 -47.896797 
L 136.710509 -48.23773 
L 139.181479 -48.59861 
L 141.652449 -49.011337 
L 144.123418 -49.453636 
L 146.594388 -49.960394 
L 149.065357 -50.177296 
L 149.065357 -56.795815 
L 149.065357 -56.795815 
L 146.594388 -56.178679 
L 144.123418 -54.952903 
L 141.652449 -53.900459 
L 139.181479 -52.954199 
L 136.710509 -52.150575 
L 134.23954 -51.417036 
L 131.76857 -50.718054 
L 129.297601 -50.347812 
L 126.826631 -49.633162 
L 124.355662 -49.041629 
L 121.884692 -48.466772 
L 119.413723 -47.997128 
L 116.942753 -47.556103 
L 114.471784 -47.052136 
L 112.000814 -46.889772 
L 109.529845 -46.551042 
L 107.058875 -46.217593 
L 104.587905 -44.895797 
L 102.116936 -44.653 
L 99.645966 -44.488458 
L 97.174997 -44.346829 
L 94.704027 -44.242539 
L 92.233058 -44.147373 
L 89.762088 -44.059191 
L 87.291119 -43.98144 
L 84.820149 -43.921893 
L 82.34918 -43.871187 
L 79.87821 -43.826686 
L 77.407241 -43.78967 
L 74.936271 -43.763059 
L 72.465301 -43.736447 
L 69.994332 -43.709835 
L 67.523362 -43.683223 
L 65.052393 -43.656612 
z
" id="m99d55e1462" style="stroke:#6495ed;stroke-opacity:0.6;"/>
    </defs>
    <g clip-path="url(#pf5e760a363)">
     <use style="fill:#6495ed;fill-opacity:0.6;stroke:#6495ed;stroke-opacity:0.6;" x="0" xlink:href="#m99d55e1462" y="170.07874"/>
    </g>
   </g>
   <g id="PolyCollection_3">
    <defs>
     <path d="M 149.065357 -69.762162 
L 149.065357 -46.761047 
L 151.536327 -46.827063 
L 154.007296 -46.890965 
L 156.478266 -46.950548 
L 158.949235 -47.005365 
L 161.420205 -47.055166 
L 163.891174 -47.099649 
L 166.362144 -47.139531 
L 168.833113 -47.175058 
L 171.304083 -47.206592 
L 173.775052 -47.235047 
L 176.246022 -47.2606 
L 178.716992 -47.283206 
L 181.187961 -47.303154 
L 183.658931 -47.320767 
L 186.1299 -47.336378 
L 188.60087 -47.35034 
L 191.071839 -47.362825 
L 193.542809 -47.373983 
L 196.013778 -47.383934 
L 198.484748 -47.392809 
L 200.955717 -47.400666 
L 200.955717 -158.55874 
L 200.955717 -158.55874 
L 198.484748 -151.10028 
L 196.013778 -144.20028 
L 193.542809 -137.637919 
L 191.071839 -131.512525 
L 188.60087 -125.835179 
L 186.1299 -120.494559 
L 183.658931 -115.521588 
L 181.187961 -110.802134 
L 178.716992 -106.375125 
L 176.246022 -102.269886 
L 173.775052 -98.394819 
L 171.304083 -94.710548 
L 168.833113 -91.197033 
L 166.362144 -87.904609 
L 163.891174 -84.807392 
L 161.420205 -81.898181 
L 158.949235 -79.138021 
L 156.478266 -76.524267 
L 154.007296 -74.091105 
L 151.536327 -71.820717 
L 149.065357 -69.762162 
z
" id="m605d37594d" style="stroke:#228b22;stroke-opacity:0.4;"/>
    </defs>
    <g clip-path="url(#pf5e760a363)">
     <use style="fill:#228b22;fill-opacity:0.4;stroke:#228b22;stroke-opacity:0.4;" x="0" xlink:href="#m605d37594d" y="170.07874"/>
    </g>
   </g>
   <g id="PolyCollection_4">
    <defs>
     <path d="M 149.065357 -56.795815 
L 149.065357 -50.177296 
L 151.536327 -50.403581 
L 154.007296 -50.631384 
L 156.478266 -50.854184 
L 158.949235 -51.06799 
L 161.420205 -51.270812 
L 163.891174 -51.462371 
L 166.362144 -51.642113 
L 168.833113 -51.811197 
L 171.304083 -51.970073 
L 173.775052 -52.118228 
L 176.246022 -52.257271 
L 178.716992 -52.386927 
L 181.187961 -52.508369 
L 183.658931 -52.621893 
L 186.1299 -52.727704 
L 188.60087 -52.826874 
L 191.071839 -52.919143 
L 193.542809 -53.005475 
L 196.013778 -53.086992 
L 198.484748 -53.163659 
L 200.955717 -53.235244 
L 200.955717 -71.361482 
L 200.955717 -71.361482 
L 198.484748 -70.71605 
L 196.013778 -70.061321 
L 193.542809 -69.39988 
L 191.071839 -68.736804 
L 188.60087 -68.067142 
L 186.1299 -67.392819 
L 183.658931 -66.714013 
L 181.187961 -66.029567 
L 178.716992 -65.336962 
L 176.246022 -64.638451 
L 173.775052 -63.934813 
L 171.304083 -63.232215 
L 168.833113 -62.524389 
L 166.362144 -61.81037 
L 163.891174 -61.09105 
L 161.420205 -60.361678 
L 158.949235 -59.63456 
L 156.478266 -58.906727 
L 154.007296 -58.179721 
L 151.536327 -57.470268 
L 149.065357 -56.795815 
z
" id="m75a66fb6a9" style="stroke:#228b22;stroke-opacity:0.6;"/>
    </defs>
    <g clip-path="url(#pf5e760a363)">
     <use style="fill:#228b22;fill-opacity:0.6;stroke:#228b22;stroke-opacity:0.6;" x="0" xlink:href="#m75a66fb6a9" y="170.07874"/>
    </g>
   </g>
   <g id="PathCollection_1">
    <defs>
     <path d="M -0.866025 1.732051 
L 0 0.866025 
L 0.866025 1.732051 
L 1.732051 0.866025 
L 0.866025 0 
L 1.732051 -0.866025 
L 0.866025 -1.732051 
L 0 -0.866025 
L -0.866025 -1.732051 
L -1.732051 -0.866025 
L -0.866025 0 
L -1.732051 0.866025 
z
" id="m08da0129e2" style="stroke:#8a2be2;"/>
    </defs>
    <g clip-path="url(#pf5e760a363)">
     <use style="fill:#8a2be2;stroke:#8a2be2;" x="107.058875" xlink:href="#m08da0129e2" y="23.012874"/>
    </g>
   </g>
   <g id="PathCollection_2">
    <defs>
     <path d="M 0 -1.732051 
L -0.38887 -0.535233 
L -1.647278 -0.535233 
L -0.629204 0.204441 
L -1.018074 1.401259 
L -0 0.661585 
L 1.018074 1.401259 
L 0.629204 0.204441 
L 1.647278 -0.535233 
L 0.38887 -0.535233 
z
" id="m998cee1969" style="stroke:#000000;"/>
    </defs>
    <g clip-path="url(#pf5e760a363)">
     <use style="stroke:#000000;" x="109.529845" xlink:href="#m998cee1969" y="23.012874"/>
    </g>
   </g>
   <g id="PathCollection_3">
    <defs>
     <path d="M -1.732051 1.732051 
L 1.732051 1.732051 
L 1.732051 -1.732051 
L -1.732051 -1.732051 
z
" id="m75f118978f" style="stroke:#c71585;"/>
    </defs>
    <g clip-path="url(#pf5e760a363)">
     <use style="fill:#c71585;stroke:#c71585;" x="136.710509" xlink:href="#m75f118978f" y="23.012874"/>
    </g>
   </g>
   <g id="PathCollection_4">
    <defs>
     <path d="M 0 -1.732051 
L -1.647278 -0.535233 
L -1.018074 1.401259 
L 1.018074 1.401259 
L 1.647278 -0.535233 
z
" id="ma48e4dd3f6" style="stroke:#800000;"/>
    </defs>
    <g clip-path="url(#pf5e760a363)">
     <use style="fill:#800000;stroke:#800000;" x="116.942753" xlink:href="#ma48e4dd3f6" y="23.012874"/>
    </g>
   </g>
   <g id="PathCollection_5">
    <defs>
     <path d="M -0 2.44949 
L 1.469694 0 
L 0 -2.44949 
L -1.469694 -0 
z
" id="m8a040a9d9f" style="stroke:#556b2f;"/>
    </defs>
    <g clip-path="url(#pf5e760a363)">
     <use style="fill:#556b2f;stroke:#556b2f;" x="114.471784" xlink:href="#m8a040a9d9f" y="23.012874"/>
    </g>
   </g>
   <g id="patch_3">
    <path clip-path="url(#pf5e760a363)" d="M 64.064005 126.44874 
L 66.040781 126.44874 
L 66.040781 126.44874 
L 64.064005 126.44874 
z
" style="fill:#1f77b4;opacity:0.5;"/>
   </g>
   <g id="patch_4">
    <path clip-path="url(#pf5e760a363)" d="M 66.534975 126.44874 
L 68.51175 126.44874 
L 68.51175 126.44874 
L 66.534975 126.44874 
z
" style="fill:#1f77b4;opacity:0.5;"/>
   </g>
   <g id="patch_5">
    <path clip-path="url(#pf5e760a363)" d="M 69.005944 126.44874 
L 70.98272 126.44874 
L 70.98272 126.44874 
L 69.005944 126.44874 
z
" style="fill:#1f77b4;opacity:0.5;"/>
   </g>
   <g id="patch_6">
    <path clip-path="url(#pf5e760a363)" d="M 71.476914 126.44874 
L 73.453689 126.44874 
L 73.453689 126.447842 
L 71.476914 126.447842 
z
" style="fill:#1f77b4;opacity:0.5;"/>
   </g>
   <g id="patch_7">
    <path clip-path="url(#pf5e760a363)" d="M 73.947883 126.44874 
L 75.924659 126.44874 
L 75.924659 126.445146 
L 73.947883 126.445146 
z
" style="fill:#1f77b4;opacity:0.5;"/>
   </g>
   <g id="patch_8">
    <path clip-path="url(#pf5e760a363)" d="M 76.418853 126.44874 
L 78.395628 126.44874 
L 78.395628 126.443349 
L 76.418853 126.443349 
z
" style="fill:#1f77b4;opacity:0.5;"/>
   </g>
   <g id="patch_9">
    <path clip-path="url(#pf5e760a363)" d="M 78.889822 126.44874 
L 80.866598 126.44874 
L 80.866598 126.435263 
L 78.889822 126.435263 
z
" style="fill:#1f77b4;opacity:0.5;"/>
   </g>
   <g id="patch_10">
    <path clip-path="url(#pf5e760a363)" d="M 81.360792 126.44874 
L 83.337567 126.44874 
L 83.337567 126.431669 
L 81.360792 126.431669 
z
" style="fill:#1f77b4;opacity:0.5;"/>
   </g>
   <g id="patch_11">
    <path clip-path="url(#pf5e760a363)" d="M 83.831761 126.44874 
L 85.808537 126.44874 
L 85.808537 126.426279 
L 83.831761 126.426279 
z
" style="fill:#1f77b4;opacity:0.5;"/>
   </g>
   <g id="patch_12">
    <path clip-path="url(#pf5e760a363)" d="M 86.302731 126.44874 
L 88.279506 126.44874 
L 88.279506 126.419091 
L 86.302731 126.419091 
z
" style="fill:#1f77b4;opacity:0.5;"/>
   </g>
   <g id="patch_13">
    <path clip-path="url(#pf5e760a363)" d="M 88.7737 126.44874 
L 90.750476 126.44874 
L 90.750476 126.398426 
L 88.7737 126.398426 
z
" style="fill:#1f77b4;opacity:0.5;"/>
   </g>
   <g id="patch_14">
    <path clip-path="url(#pf5e760a363)" d="M 91.24467 126.44874 
L 93.221446 126.44874 
L 93.221446 126.371472 
L 91.24467 126.371472 
z
" style="fill:#1f77b4;opacity:0.5;"/>
   </g>
   <g id="patch_15">
    <path clip-path="url(#pf5e760a363)" d="M 93.715639 126.44874 
L 95.692415 126.44874 
L 95.692415 126.347214 
L 93.715639 126.347214 
z
" style="fill:#1f77b4;opacity:0.5;"/>
   </g>
   <g id="patch_16">
    <path clip-path="url(#pf5e760a363)" d="M 96.186609 126.44874 
L 98.163385 126.44874 
L 98.163385 126.316666 
L 96.186609 126.316666 
z
" style="fill:#1f77b4;opacity:0.5;"/>
   </g>
   <g id="patch_17">
    <path clip-path="url(#pf5e760a363)" d="M 98.657579 126.44874 
L 100.634354 126.44874 
L 100.634354 126.2969 
L 98.657579 126.2969 
z
" style="fill:#1f77b4;opacity:0.5;"/>
   </g>
   <g id="patch_18">
    <path clip-path="url(#pf5e760a363)" d="M 101.128548 126.44874 
L 103.105324 126.44874 
L 103.105324 126.276235 
L 101.128548 126.276235 
z
" style="fill:#1f77b4;opacity:0.5;"/>
   </g>
   <g id="patch_19">
    <path clip-path="url(#pf5e760a363)" d="M 103.599518 126.44874 
L 105.576293 126.44874 
L 105.576293 126.199865 
L 103.599518 126.199865 
z
" style="fill:#1f77b4;opacity:0.5;"/>
   </g>
   <g id="patch_20">
    <path clip-path="url(#pf5e760a363)" d="M 106.070487 126.44874 
L 108.047263 126.44874 
L 108.047263 126.009391 
L 106.070487 126.009391 
z
" style="fill:#1f77b4;opacity:0.5;"/>
   </g>
   <g id="patch_21">
    <path clip-path="url(#pf5e760a363)" d="M 108.541457 126.44874 
L 110.518232 126.44874 
L 110.518232 125.890794 
L 108.541457 125.890794 
z
" style="fill:#1f77b4;opacity:0.5;"/>
   </g>
   <g id="patch_22">
    <path clip-path="url(#pf5e760a363)" d="M 111.012426 126.44874 
L 112.989202 126.44874 
L 112.989202 125.890794 
L 111.012426 125.890794 
z
" style="fill:#1f77b4;opacity:0.5;"/>
   </g>
   <g id="patch_23">
    <path clip-path="url(#pf5e760a363)" d="M 113.483396 126.44874 
L 115.460171 126.44874 
L 115.460171 125.633833 
L 113.483396 125.633833 
z
" style="fill:#1f77b4;opacity:0.5;"/>
   </g>
   <g id="patch_24">
    <path clip-path="url(#pf5e760a363)" d="M 115.954365 126.44874 
L 117.931141 126.44874 
L 117.931141 125.481094 
L 115.954365 125.481094 
z
" style="fill:#1f77b4;opacity:0.5;"/>
   </g>
   <g id="patch_25">
    <path clip-path="url(#pf5e760a363)" d="M 118.425335 126.44874 
L 120.40211 126.44874 
L 120.40211 125.398435 
L 118.425335 125.398435 
z
" style="fill:#1f77b4;opacity:0.5;"/>
   </g>
   <g id="patch_26">
    <path clip-path="url(#pf5e760a363)" d="M 120.896304 126.44874 
L 122.87308 126.44874 
L 122.87308 125.273548 
L 120.896304 125.273548 
z
" style="fill:#1f77b4;opacity:0.5;"/>
   </g>
   <g id="patch_27">
    <path clip-path="url(#pf5e760a363)" d="M 123.367274 126.44874 
L 125.34405 126.44874 
L 125.34405 125.170225 
L 123.367274 125.170225 
z
" style="fill:#1f77b4;opacity:0.5;"/>
   </g>
   <g id="patch_28">
    <path clip-path="url(#pf5e760a363)" d="M 125.838243 126.44874 
L 127.815019 126.44874 
L 127.815019 125.054323 
L 125.838243 125.054323 
z
" style="fill:#1f77b4;opacity:0.5;"/>
   </g>
   <g id="patch_29">
    <path clip-path="url(#pf5e760a363)" d="M 128.309213 126.44874 
L 130.285989 126.44874 
L 130.285989 124.883615 
L 128.309213 124.883615 
z
" style="fill:#1f77b4;opacity:0.5;"/>
   </g>
   <g id="patch_30">
    <path clip-path="url(#pf5e760a363)" d="M 130.780183 126.44874 
L 132.756958 126.44874 
L 132.756958 124.718297 
L 130.780183 124.718297 
z
" style="fill:#1f77b4;opacity:0.5;"/>
   </g>
   <g id="patch_31">
    <path clip-path="url(#pf5e760a363)" d="M 133.251152 126.44874 
L 135.227928 126.44874 
L 135.227928 124.533213 
L 133.251152 124.533213 
z
" style="fill:#1f77b4;opacity:0.5;"/>
   </g>
   <g id="patch_32">
    <path clip-path="url(#pf5e760a363)" d="M 135.722122 126.44874 
L 137.698897 126.44874 
L 137.698897 124.31848 
L 135.722122 124.31848 
z
" style="fill:#1f77b4;opacity:0.5;"/>
   </g>
   <g id="patch_33">
    <path clip-path="url(#pf5e760a363)" d="M 138.193091 126.44874 
L 140.169867 126.44874 
L 140.169867 124.14328 
L 138.193091 124.14328 
z
" style="fill:#1f77b4;opacity:0.5;"/>
   </g>
   <g id="patch_34">
    <path clip-path="url(#pf5e760a363)" d="M 140.664061 126.44874 
L 142.640836 126.44874 
L 142.640836 123.828817 
L 140.664061 123.828817 
z
" style="fill:#1f77b4;opacity:0.5;"/>
   </g>
   <g id="patch_35">
    <path clip-path="url(#pf5e760a363)" d="M 143.13503 126.44874 
L 145.111806 126.44874 
L 145.111806 123.613186 
L 143.13503 123.613186 
z
" style="fill:#1f77b4;opacity:0.5;"/>
   </g>
   <g id="patch_36">
    <path clip-path="url(#pf5e760a363)" d="M 145.606 126.44874 
L 147.582775 126.44874 
L 147.582775 123.231338 
L 145.606 123.231338 
z
" style="fill:#1f77b4;opacity:0.5;"/>
   </g>
   <g id="patch_37">
    <path clip-path="url(#pf5e760a363)" d="M 148.076969 126.44874 
L 150.053745 126.44874 
L 150.053745 122.994143 
L 148.076969 122.994143 
z
" style="fill:#1f77b4;opacity:0.5;"/>
   </g>
   <g id="patch_38">
    <path clip-path="url(#pf5e760a363)" d="M 150.547939 126.44874 
L 152.524714 126.44874 
L 152.524714 122.763238 
L 150.547939 122.763238 
z
" style="fill:#1f77b4;opacity:0.5;"/>
   </g>
   <g id="patch_39">
    <path clip-path="url(#pf5e760a363)" d="M 153.018908 126.44874 
L 154.995684 126.44874 
L 154.995684 122.651828 
L 153.018908 122.651828 
z
" style="fill:#1f77b4;opacity:0.5;"/>
   </g>
   <g id="patch_40">
    <path clip-path="url(#pf5e760a363)" d="M 155.489878 126.44874 
L 157.466654 126.44874 
L 157.466654 122.453268 
L 155.489878 122.453268 
z
" style="fill:#1f77b4;opacity:0.5;"/>
   </g>
   <g id="patch_41">
    <path clip-path="url(#pf5e760a363)" d="M 157.960847 126.44874 
L 159.937623 126.44874 
L 159.937623 122.257402 
L 157.960847 122.257402 
z
" style="fill:#1f77b4;opacity:0.5;"/>
   </g>
   <g id="patch_42">
    <path clip-path="url(#pf5e760a363)" d="M 160.431817 126.44874 
L 162.408593 126.44874 
L 162.408593 122.014817 
L 160.431817 122.014817 
z
" style="fill:#1f77b4;opacity:0.5;"/>
   </g>
   <g id="patch_43">
    <path clip-path="url(#pf5e760a363)" d="M 162.902787 126.44874 
L 164.879562 126.44874 
L 164.879562 121.769536 
L 162.902787 121.769536 
z
" style="fill:#1f77b4;opacity:0.5;"/>
   </g>
   <g id="patch_44">
    <path clip-path="url(#pf5e760a363)" d="M 165.373756 126.44874 
L 167.350532 126.44874 
L 167.350532 121.4982 
L 165.373756 121.4982 
z
" style="fill:#1f77b4;opacity:0.5;"/>
   </g>
   <g id="patch_45">
    <path clip-path="url(#pf5e760a363)" d="M 167.844726 126.44874 
L 169.821501 126.44874 
L 169.821501 121.381399 
L 167.844726 121.381399 
z
" style="fill:#1f77b4;opacity:0.5;"/>
   </g>
   <g id="patch_46">
    <path clip-path="url(#pf5e760a363)" d="M 170.315695 126.44874 
L 172.292471 126.44874 
L 172.292471 121.278076 
L 170.315695 121.278076 
z
" style="fill:#1f77b4;opacity:0.5;"/>
   </g>
   <g id="patch_47">
    <path clip-path="url(#pf5e760a363)" d="M 172.786665 126.44874 
L 174.76344 126.44874 
L 174.76344 121.181042 
L 172.786665 121.181042 
z
" style="fill:#1f77b4;opacity:0.5;"/>
   </g>
   <g id="patch_48">
    <path clip-path="url(#pf5e760a363)" d="M 175.257634 126.44874 
L 177.23441 126.44874 
L 177.23441 121.048967 
L 175.257634 121.048967 
z
" style="fill:#1f77b4;opacity:0.5;"/>
   </g>
   <g id="patch_49">
    <path clip-path="url(#pf5e760a363)" d="M 177.728604 126.44874 
L 179.705379 126.44874 
L 179.705379 120.914198 
L 177.728604 120.914198 
z
" style="fill:#1f77b4;opacity:0.5;"/>
   </g>
   <g id="patch_50">
    <path clip-path="url(#pf5e760a363)" d="M 180.199573 126.44874 
L 182.176349 126.44874 
L 182.176349 120.838727 
L 180.199573 120.838727 
z
" style="fill:#1f77b4;opacity:0.5;"/>
   </g>
   <g id="patch_51">
    <path clip-path="url(#pf5e760a363)" d="M 182.670543 126.44874 
L 184.647318 126.44874 
L 184.647318 120.770443 
L 182.670543 120.770443 
z
" style="fill:#1f77b4;opacity:0.5;"/>
   </g>
   <g id="patch_52">
    <path clip-path="url(#pf5e760a363)" d="M 185.141512 126.44874 
L 187.118288 126.44874 
L 187.118288 120.685089 
L 185.141512 120.685089 
z
" style="fill:#1f77b4;opacity:0.5;"/>
   </g>
   <g id="patch_53">
    <path clip-path="url(#pf5e760a363)" d="M 187.612482 126.44874 
L 189.589258 126.44874 
L 189.589258 120.619501 
L 187.612482 120.619501 
z
" style="fill:#1f77b4;opacity:0.5;"/>
   </g>
   <g id="patch_54">
    <path clip-path="url(#pf5e760a363)" d="M 190.083451 126.44874 
L 192.060227 126.44874 
L 192.060227 120.549421 
L 190.083451 120.549421 
z
" style="fill:#1f77b4;opacity:0.5;"/>
   </g>
   <g id="patch_55">
    <path clip-path="url(#pf5e760a363)" d="M 192.554421 126.44874 
L 194.531197 126.44874 
L 194.531197 120.449691 
L 192.554421 120.449691 
z
" style="fill:#1f77b4;opacity:0.5;"/>
   </g>
   <g id="patch_56">
    <path clip-path="url(#pf5e760a363)" d="M 195.025391 126.44874 
L 197.002166 126.44874 
L 197.002166 120.347267 
L 195.025391 120.347267 
z
" style="fill:#1f77b4;opacity:0.5;"/>
   </g>
   <g id="patch_57">
    <path clip-path="url(#pf5e760a363)" d="M 197.49636 126.44874 
L 199.473136 126.44874 
L 199.473136 120.347267 
L 197.49636 120.347267 
z
" style="fill:#1f77b4;opacity:0.5;"/>
   </g>
   <g id="patch_58">
    <path clip-path="url(#pf5e760a363)" d="M 199.96733 126.44874 
L 201.944105 126.44874 
L 201.944105 120.173863 
L 199.96733 120.173863 
z
" style="fill:#1f77b4;opacity:0.5;"/>
   </g>
   <g id="matplotlib.axis_1">
    <g id="xtick_1">
     <g id="line2d_1">
      <defs>
       <path d="M 0 0 
L 0 3.5 
" id="ma9d2908478" style="stroke:#000000;stroke-width:0.8;"/>
      </defs>
      <g>
       <use style="stroke:#000000;stroke-width:0.8;" x="200.955717" xlink:href="#ma9d2908478" y="126.44874"/>
      </g>
     </g>
     <g id="text_1">
      <!-- 19 Apr -->
      <defs>
       <path d="M 12.40625 8.296875 
L 28.515625 8.296875 
L 28.515625 63.921875 
L 10.984375 60.40625 
L 10.984375 69.390625 
L 28.421875 72.90625 
L 38.28125 72.90625 
L 38.28125 8.296875 
L 54.390625 8.296875 
L 54.390625 0 
L 12.40625 0 
z
" id="DejaVuSans-49"/>
       <path d="M 10.984375 1.515625 
L 10.984375 10.5 
Q 14.703125 8.734375 18.5 7.8125 
Q 22.3125 6.890625 25.984375 6.890625 
Q 35.75 6.890625 40.890625 13.453125 
Q 46.046875 20.015625 46.78125 33.40625 
Q 43.953125 29.203125 39.59375 26.953125 
Q 35.25 24.703125 29.984375 24.703125 
Q 19.046875 24.703125 12.671875 31.3125 
Q 6.296875 37.9375 6.296875 49.421875 
Q 6.296875 60.640625 12.9375 67.421875 
Q 19.578125 74.21875 30.609375 74.21875 
Q 43.265625 74.21875 49.921875 64.515625 
Q 56.59375 54.828125 56.59375 36.375 
Q 56.59375 19.140625 48.40625 8.859375 
Q 40.234375 -1.421875 26.421875 -1.421875 
Q 22.703125 -1.421875 18.890625 -0.6875 
Q 15.09375 0.046875 10.984375 1.515625 
z
M 30.609375 32.421875 
Q 37.25 32.421875 41.125 36.953125 
Q 45.015625 41.5 45.015625 49.421875 
Q 45.015625 57.28125 41.125 61.84375 
Q 37.25 66.40625 30.609375 66.40625 
Q 23.96875 66.40625 20.09375 61.84375 
Q 16.21875 57.28125 16.21875 49.421875 
Q 16.21875 41.5 20.09375 36.953125 
Q 23.96875 32.421875 30.609375 32.421875 
z
" id="DejaVuSans-57"/>
       <path id="DejaVuSans-32"/>
       <path d="M 34.1875 63.1875 
L 20.796875 26.90625 
L 47.609375 26.90625 
z
M 28.609375 72.90625 
L 39.796875 72.90625 
L 67.578125 0 
L 57.328125 0 
L 50.6875 18.703125 
L 17.828125 18.703125 
L 11.1875 0 
L 0.78125 0 
z
" id="DejaVuSans-65"/>
       <path d="M 18.109375 8.203125 
L 18.109375 -20.796875 
L 9.078125 -20.796875 
L 9.078125 54.6875 
L 18.109375 54.6875 
L 18.109375 46.390625 
Q 20.953125 51.265625 25.265625 53.625 
Q 29.59375 56 35.59375 56 
Q 45.5625 56 51.78125 48.09375 
Q 58.015625 40.1875 58.015625 27.296875 
Q 58.015625 14.40625 51.78125 6.484375 
Q 45.5625 -1.421875 35.59375 -1.421875 
Q 29.59375 -1.421875 25.265625 0.953125 
Q 20.953125 3.328125 18.109375 8.203125 
z
M 48.6875 27.296875 
Q 48.6875 37.203125 44.609375 42.84375 
Q 40.53125 48.484375 33.40625 48.484375 
Q 26.265625 48.484375 22.1875 42.84375 
Q 18.109375 37.203125 18.109375 27.296875 
Q 18.109375 17.390625 22.1875 11.75 
Q 26.265625 6.109375 33.40625 6.109375 
Q 40.53125 6.109375 44.609375 11.75 
Q 48.6875 17.390625 48.6875 27.296875 
z
" id="DejaVuSans-112"/>
       <path d="M 41.109375 46.296875 
Q 39.59375 47.171875 37.8125 47.578125 
Q 36.03125 48 33.890625 48 
Q 26.265625 48 22.1875 43.046875 
Q 18.109375 38.09375 18.109375 28.8125 
L 18.109375 0 
L 9.078125 0 
L 9.078125 54.6875 
L 18.109375 54.6875 
L 18.109375 46.1875 
Q 20.953125 51.171875 25.484375 53.578125 
Q 30.03125 56 36.53125 56 
Q 37.453125 56 38.578125 55.875 
Q 39.703125 55.765625 41.0625 55.515625 
z
" id="DejaVuSans-114"/>
      </defs>
      <g transform="translate(203.163217 160.01124)rotate(-90)scale(0.08 -0.08)">
       <use xlink:href="#DejaVuSans-49"/>
       <use x="63.623047" xlink:href="#DejaVuSans-57"/>
       <use x="127.246094" xlink:href="#DejaVuSans-32"/>
       <use x="159.033203" xlink:href="#DejaVuSans-65"/>
       <use x="227.441406" xlink:href="#DejaVuSans-112"/>
       <use x="290.917969" xlink:href="#DejaVuSans-114"/>
      </g>
     </g>
    </g>
    <g id="xtick_2">
     <g id="line2d_2">
      <g>
       <use style="stroke:#000000;stroke-width:0.8;" x="183.658931" xlink:href="#ma9d2908478" y="126.44874"/>
      </g>
     </g>
     <g id="text_2">
      <!-- 12 Apr -->
      <defs>
       <path d="M 19.1875 8.296875 
L 53.609375 8.296875 
L 53.609375 0 
L 7.328125 0 
L 7.328125 8.296875 
Q 12.9375 14.109375 22.625 23.890625 
Q 32.328125 33.6875 34.8125 36.53125 
Q 39.546875 41.84375 41.421875 45.53125 
Q 43.3125 49.21875 43.3125 52.78125 
Q 43.3125 58.59375 39.234375 62.25 
Q 35.15625 65.921875 28.609375 65.921875 
Q 23.96875 65.921875 18.8125 64.3125 
Q 13.671875 62.703125 7.8125 59.421875 
L 7.8125 69.390625 
Q 13.765625 71.78125 18.9375 73 
Q 24.125 74.21875 28.421875 74.21875 
Q 39.75 74.21875 46.484375 68.546875 
Q 53.21875 62.890625 53.21875 53.421875 
Q 53.21875 48.921875 51.53125 44.890625 
Q 49.859375 40.875 45.40625 35.40625 
Q 44.1875 33.984375 37.640625 27.21875 
Q 31.109375 20.453125 19.1875 8.296875 
z
" id="DejaVuSans-50"/>
      </defs>
      <g transform="translate(185.866431 160.01124)rotate(-90)scale(0.08 -0.08)">
       <use xlink:href="#DejaVuSans-49"/>
       <use x="63.623047" xlink:href="#DejaVuSans-50"/>
       <use x="127.246094" xlink:href="#DejaVuSans-32"/>
       <use x="159.033203" xlink:href="#DejaVuSans-65"/>
       <use x="227.441406" xlink:href="#DejaVuSans-112"/>
       <use x="290.917969" xlink:href="#DejaVuSans-114"/>
      </g>
     </g>
    </g>
    <g id="xtick_3">
     <g id="line2d_3">
      <g>
       <use style="stroke:#000000;stroke-width:0.8;" x="166.362144" xlink:href="#ma9d2908478" y="126.44874"/>
      </g>
     </g>
     <g id="text_3">
      <!-- 5 Apr -->
      <defs>
       <path d="M 10.796875 72.90625 
L 49.515625 72.90625 
L 49.515625 64.59375 
L 19.828125 64.59375 
L 19.828125 46.734375 
Q 21.96875 47.46875 24.109375 47.828125 
Q 26.265625 48.1875 28.421875 48.1875 
Q 40.625 48.1875 47.75 41.5 
Q 54.890625 34.8125 54.890625 23.390625 
Q 54.890625 11.625 47.5625 5.09375 
Q 40.234375 -1.421875 26.90625 -1.421875 
Q 22.3125 -1.421875 17.546875 -0.640625 
Q 12.796875 0.140625 7.71875 1.703125 
L 7.71875 11.625 
Q 12.109375 9.234375 16.796875 8.0625 
Q 21.484375 6.890625 26.703125 6.890625 
Q 35.15625 6.890625 40.078125 11.328125 
Q 45.015625 15.765625 45.015625 23.390625 
Q 45.015625 31 40.078125 35.4375 
Q 35.15625 39.890625 26.703125 39.890625 
Q 22.75 39.890625 18.8125 39.015625 
Q 14.890625 38.140625 10.796875 36.28125 
z
" id="DejaVuSans-53"/>
      </defs>
      <g transform="translate(168.569644 154.92124)rotate(-90)scale(0.08 -0.08)">
       <use xlink:href="#DejaVuSans-53"/>
       <use x="63.623047" xlink:href="#DejaVuSans-32"/>
       <use x="95.410156" xlink:href="#DejaVuSans-65"/>
       <use x="163.818359" xlink:href="#DejaVuSans-112"/>
       <use x="227.294922" xlink:href="#DejaVuSans-114"/>
      </g>
     </g>
    </g>
    <g id="xtick_4">
     <g id="line2d_4">
      <g>
       <use style="stroke:#000000;stroke-width:0.8;" x="149.065357" xlink:href="#ma9d2908478" y="126.44874"/>
      </g>
     </g>
     <g id="text_4">
      <!-- 29 Mar -->
      <defs>
       <path d="M 9.8125 72.90625 
L 24.515625 72.90625 
L 43.109375 23.296875 
L 61.8125 72.90625 
L 76.515625 72.90625 
L 76.515625 0 
L 66.890625 0 
L 66.890625 64.015625 
L 48.09375 14.015625 
L 38.1875 14.015625 
L 19.390625 64.015625 
L 19.390625 0 
L 9.8125 0 
z
" id="DejaVuSans-77"/>
       <path d="M 34.28125 27.484375 
Q 23.390625 27.484375 19.1875 25 
Q 14.984375 22.515625 14.984375 16.5 
Q 14.984375 11.71875 18.140625 8.90625 
Q 21.296875 6.109375 26.703125 6.109375 
Q 34.1875 6.109375 38.703125 11.40625 
Q 43.21875 16.703125 43.21875 25.484375 
L 43.21875 27.484375 
z
M 52.203125 31.203125 
L 52.203125 0 
L 43.21875 0 
L 43.21875 8.296875 
Q 40.140625 3.328125 35.546875 0.953125 
Q 30.953125 -1.421875 24.3125 -1.421875 
Q 15.921875 -1.421875 10.953125 3.296875 
Q 6 8.015625 6 15.921875 
Q 6 25.140625 12.171875 29.828125 
Q 18.359375 34.515625 30.609375 34.515625 
L 43.21875 34.515625 
L 43.21875 35.40625 
Q 43.21875 41.609375 39.140625 45 
Q 35.0625 48.390625 27.6875 48.390625 
Q 23 48.390625 18.546875 47.265625 
Q 14.109375 46.140625 10.015625 43.890625 
L 10.015625 52.203125 
Q 14.9375 54.109375 19.578125 55.046875 
Q 24.21875 56 28.609375 56 
Q 40.484375 56 46.34375 49.84375 
Q 52.203125 43.703125 52.203125 31.203125 
z
" id="DejaVuSans-97"/>
      </defs>
      <g transform="translate(151.272857 161.26499)rotate(-90)scale(0.08 -0.08)">
       <use xlink:href="#DejaVuSans-50"/>
       <use x="63.623047" xlink:href="#DejaVuSans-57"/>
       <use x="127.246094" xlink:href="#DejaVuSans-32"/>
       <use x="159.033203" xlink:href="#DejaVuSans-77"/>
       <use x="245.3125" xlink:href="#DejaVuSans-97"/>
       <use x="306.591797" xlink:href="#DejaVuSans-114"/>
      </g>
     </g>
    </g>
    <g id="xtick_5">
     <g id="line2d_5">
      <g>
       <use style="stroke:#000000;stroke-width:0.8;" x="131.76857" xlink:href="#ma9d2908478" y="126.44874"/>
      </g>
     </g>
     <g id="text_5">
      <!-- 22 Mar -->
      <g transform="translate(133.97607 161.26499)rotate(-90)scale(0.08 -0.08)">
       <use xlink:href="#DejaVuSans-50"/>
       <use x="63.623047" xlink:href="#DejaVuSans-50"/>
       <use x="127.246094" xlink:href="#DejaVuSans-32"/>
       <use x="159.033203" xlink:href="#DejaVuSans-77"/>
       <use x="245.3125" xlink:href="#DejaVuSans-97"/>
       <use x="306.591797" xlink:href="#DejaVuSans-114"/>
      </g>
     </g>
    </g>
    <g id="xtick_6">
     <g id="line2d_6">
      <g>
       <use style="stroke:#000000;stroke-width:0.8;" x="114.471784" xlink:href="#ma9d2908478" y="126.44874"/>
      </g>
     </g>
     <g id="text_6">
      <!-- 15 Mar -->
      <g transform="translate(116.679284 161.26499)rotate(-90)scale(0.08 -0.08)">
       <use xlink:href="#DejaVuSans-49"/>
       <use x="63.623047" xlink:href="#DejaVuSans-53"/>
       <use x="127.246094" xlink:href="#DejaVuSans-32"/>
       <use x="159.033203" xlink:href="#DejaVuSans-77"/>
       <use x="245.3125" xlink:href="#DejaVuSans-97"/>
       <use x="306.591797" xlink:href="#DejaVuSans-114"/>
      </g>
     </g>
    </g>
    <g id="xtick_7">
     <g id="line2d_7">
      <g>
       <use style="stroke:#000000;stroke-width:0.8;" x="97.174997" xlink:href="#ma9d2908478" y="126.44874"/>
      </g>
     </g>
     <g id="text_7">
      <!-- 8 Mar -->
      <defs>
       <path d="M 31.78125 34.625 
Q 24.75 34.625 20.71875 30.859375 
Q 16.703125 27.09375 16.703125 20.515625 
Q 16.703125 13.921875 20.71875 10.15625 
Q 24.75 6.390625 31.78125 6.390625 
Q 38.8125 6.390625 42.859375 10.171875 
Q 46.921875 13.96875 46.921875 20.515625 
Q 46.921875 27.09375 42.890625 30.859375 
Q 38.875 34.625 31.78125 34.625 
z
M 21.921875 38.8125 
Q 15.578125 40.375 12.03125 44.71875 
Q 8.5 49.078125 8.5 55.328125 
Q 8.5 64.0625 14.71875 69.140625 
Q 20.953125 74.21875 31.78125 74.21875 
Q 42.671875 74.21875 48.875 69.140625 
Q 55.078125 64.0625 55.078125 55.328125 
Q 55.078125 49.078125 51.53125 44.71875 
Q 48 40.375 41.703125 38.8125 
Q 48.828125 37.15625 52.796875 32.3125 
Q 56.78125 27.484375 56.78125 20.515625 
Q 56.78125 9.90625 50.3125 4.234375 
Q 43.84375 -1.421875 31.78125 -1.421875 
Q 19.734375 -1.421875 13.25 4.234375 
Q 6.78125 9.90625 6.78125 20.515625 
Q 6.78125 27.484375 10.78125 32.3125 
Q 14.796875 37.15625 21.921875 38.8125 
z
M 18.3125 54.390625 
Q 18.3125 48.734375 21.84375 45.5625 
Q 25.390625 42.390625 31.78125 42.390625 
Q 38.140625 42.390625 41.71875 45.5625 
Q 45.3125 48.734375 45.3125 54.390625 
Q 45.3125 60.0625 41.71875 63.234375 
Q 38.140625 66.40625 31.78125 66.40625 
Q 25.390625 66.40625 21.84375 63.234375 
Q 18.3125 60.0625 18.3125 54.390625 
z
" id="DejaVuSans-56"/>
      </defs>
      <g transform="translate(99.382497 156.17499)rotate(-90)scale(0.08 -0.08)">
       <use xlink:href="#DejaVuSans-56"/>
       <use x="63.623047" xlink:href="#DejaVuSans-32"/>
       <use x="95.410156" xlink:href="#DejaVuSans-77"/>
       <use x="181.689453" xlink:href="#DejaVuSans-97"/>
       <use x="242.96875" xlink:href="#DejaVuSans-114"/>
      </g>
     </g>
    </g>
    <g id="xtick_8">
     <g id="line2d_8">
      <g>
       <use style="stroke:#000000;stroke-width:0.8;" x="79.87821" xlink:href="#ma9d2908478" y="126.44874"/>
      </g>
     </g>
     <g id="text_8">
      <!-- 1 Mar -->
      <g transform="translate(82.08571 156.17499)rotate(-90)scale(0.08 -0.08)">
       <use xlink:href="#DejaVuSans-49"/>
       <use x="63.623047" xlink:href="#DejaVuSans-32"/>
       <use x="95.410156" xlink:href="#DejaVuSans-77"/>
       <use x="181.689453" xlink:href="#DejaVuSans-97"/>
       <use x="242.96875" xlink:href="#DejaVuSans-114"/>
      </g>
     </g>
    </g>
   </g>
   <g id="matplotlib.axis_2">
    <g id="ytick_1">
     <g id="line2d_9">
      <defs>
       <path d="M 0 0 
L -3.5 0 
" id="m9aa4a3578b" style="stroke:#000000;stroke-width:0.8;"/>
      </defs>
      <g>
       <use style="stroke:#000000;stroke-width:0.8;" x="57.17" xlink:href="#m9aa4a3578b" y="126.44874"/>
      </g>
     </g>
     <g id="text_9">
      <!-- 0 -->
      <defs>
       <path d="M 31.78125 66.40625 
Q 24.171875 66.40625 20.328125 58.90625 
Q 16.5 51.421875 16.5 36.375 
Q 16.5 21.390625 20.328125 13.890625 
Q 24.171875 6.390625 31.78125 6.390625 
Q 39.453125 6.390625 43.28125 13.890625 
Q 47.125 21.390625 47.125 36.375 
Q 47.125 51.421875 43.28125 58.90625 
Q 39.453125 66.40625 31.78125 66.40625 
z
M 31.78125 74.21875 
Q 44.046875 74.21875 50.515625 64.515625 
Q 56.984375 54.828125 56.984375 36.375 
Q 56.984375 17.96875 50.515625 8.265625 
Q 44.046875 -1.421875 31.78125 -1.421875 
Q 19.53125 -1.421875 13.0625 8.265625 
Q 6.59375 17.96875 6.59375 36.375 
Q 6.59375 54.828125 13.0625 64.515625 
Q 19.53125 74.21875 31.78125 74.21875 
z
" id="DejaVuSans-48"/>
      </defs>
      <g transform="translate(45.08 129.488115)scale(0.08 -0.08)">
       <use xlink:href="#DejaVuSans-48"/>
      </g>
     </g>
    </g>
    <g id="ytick_2">
     <g id="line2d_10">
      <g>
       <use style="stroke:#000000;stroke-width:0.8;" x="57.17" xlink:href="#m9aa4a3578b" y="108.479447"/>
      </g>
     </g>
     <g id="text_10">
      <!-- 20000 -->
      <g transform="translate(24.72 111.518822)scale(0.08 -0.08)">
       <use xlink:href="#DejaVuSans-50"/>
       <use x="63.623047" xlink:href="#DejaVuSans-48"/>
       <use x="127.246094" xlink:href="#DejaVuSans-48"/>
       <use x="190.869141" xlink:href="#DejaVuSans-48"/>
       <use x="254.492188" xlink:href="#DejaVuSans-48"/>
      </g>
     </g>
    </g>
    <g id="ytick_3">
     <g id="line2d_11">
      <g>
       <use style="stroke:#000000;stroke-width:0.8;" x="57.17" xlink:href="#m9aa4a3578b" y="90.510153"/>
      </g>
     </g>
     <g id="text_11">
      <!-- 40000 -->
      <defs>
       <path d="M 37.796875 64.3125 
L 12.890625 25.390625 
L 37.796875 25.390625 
z
M 35.203125 72.90625 
L 47.609375 72.90625 
L 47.609375 25.390625 
L 58.015625 25.390625 
L 58.015625 17.1875 
L 47.609375 17.1875 
L 47.609375 0 
L 37.796875 0 
L 37.796875 17.1875 
L 4.890625 17.1875 
L 4.890625 26.703125 
z
" id="DejaVuSans-52"/>
      </defs>
      <g transform="translate(24.72 93.549528)scale(0.08 -0.08)">
       <use xlink:href="#DejaVuSans-52"/>
       <use x="63.623047" xlink:href="#DejaVuSans-48"/>
       <use x="127.246094" xlink:href="#DejaVuSans-48"/>
       <use x="190.869141" xlink:href="#DejaVuSans-48"/>
       <use x="254.492188" xlink:href="#DejaVuSans-48"/>
      </g>
     </g>
    </g>
    <g id="ytick_4">
     <g id="line2d_12">
      <g>
       <use style="stroke:#000000;stroke-width:0.8;" x="57.17" xlink:href="#m9aa4a3578b" y="72.540859"/>
      </g>
     </g>
     <g id="text_12">
      <!-- 60000 -->
      <defs>
       <path d="M 33.015625 40.375 
Q 26.375 40.375 22.484375 35.828125 
Q 18.609375 31.296875 18.609375 23.390625 
Q 18.609375 15.53125 22.484375 10.953125 
Q 26.375 6.390625 33.015625 6.390625 
Q 39.65625 6.390625 43.53125 10.953125 
Q 47.40625 15.53125 47.40625 23.390625 
Q 47.40625 31.296875 43.53125 35.828125 
Q 39.65625 40.375 33.015625 40.375 
z
M 52.59375 71.296875 
L 52.59375 62.3125 
Q 48.875 64.0625 45.09375 64.984375 
Q 41.3125 65.921875 37.59375 65.921875 
Q 27.828125 65.921875 22.671875 59.328125 
Q 17.53125 52.734375 16.796875 39.40625 
Q 19.671875 43.65625 24.015625 45.921875 
Q 28.375 48.1875 33.59375 48.1875 
Q 44.578125 48.1875 50.953125 41.515625 
Q 57.328125 34.859375 57.328125 23.390625 
Q 57.328125 12.15625 50.6875 5.359375 
Q 44.046875 -1.421875 33.015625 -1.421875 
Q 20.359375 -1.421875 13.671875 8.265625 
Q 6.984375 17.96875 6.984375 36.375 
Q 6.984375 53.65625 15.1875 63.9375 
Q 23.390625 74.21875 37.203125 74.21875 
Q 40.921875 74.21875 44.703125 73.484375 
Q 48.484375 72.75 52.59375 71.296875 
z
" id="DejaVuSans-54"/>
      </defs>
      <g transform="translate(24.72 75.580234)scale(0.08 -0.08)">
       <use xlink:href="#DejaVuSans-54"/>
       <use x="63.623047" xlink:href="#DejaVuSans-48"/>
       <use x="127.246094" xlink:href="#DejaVuSans-48"/>
       <use x="190.869141" xlink:href="#DejaVuSans-48"/>
       <use x="254.492188" xlink:href="#DejaVuSans-48"/>
      </g>
     </g>
    </g>
    <g id="ytick_5">
     <g id="line2d_13">
      <g>
       <use style="stroke:#000000;stroke-width:0.8;" x="57.17" xlink:href="#m9aa4a3578b" y="54.571566"/>
      </g>
     </g>
     <g id="text_13">
      <!-- 80000 -->
      <g transform="translate(24.72 57.610941)scale(0.08 -0.08)">
       <use xlink:href="#DejaVuSans-56"/>
       <use x="63.623047" xlink:href="#DejaVuSans-48"/>
       <use x="127.246094" xlink:href="#DejaVuSans-48"/>
       <use x="190.869141" xlink:href="#DejaVuSans-48"/>
       <use x="254.492188" xlink:href="#DejaVuSans-48"/>
      </g>
     </g>
    </g>
    <g id="ytick_6">
     <g id="line2d_14">
      <g>
       <use style="stroke:#000000;stroke-width:0.8;" x="57.17" xlink:href="#m9aa4a3578b" y="36.602272"/>
      </g>
     </g>
     <g id="text_14">
      <!-- 100000 -->
      <g transform="translate(19.63 39.641647)scale(0.08 -0.08)">
       <use xlink:href="#DejaVuSans-49"/>
       <use x="63.623047" xlink:href="#DejaVuSans-48"/>
       <use x="127.246094" xlink:href="#DejaVuSans-48"/>
       <use x="190.869141" xlink:href="#DejaVuSans-48"/>
       <use x="254.492188" xlink:href="#DejaVuSans-48"/>
       <use x="318.115234" xlink:href="#DejaVuSans-48"/>
      </g>
     </g>
    </g>
    <g id="ytick_7">
     <g id="line2d_15">
      <g>
       <use style="stroke:#000000;stroke-width:0.8;" x="57.17" xlink:href="#m9aa4a3578b" y="18.632979"/>
      </g>
     </g>
     <g id="text_15">
      <!-- 120000 -->
      <g transform="translate(19.63 21.672354)scale(0.08 -0.08)">
       <use xlink:href="#DejaVuSans-49"/>
       <use x="63.623047" xlink:href="#DejaVuSans-50"/>
       <use x="127.246094" xlink:href="#DejaVuSans-48"/>
       <use x="190.869141" xlink:href="#DejaVuSans-48"/>
       <use x="254.492188" xlink:href="#DejaVuSans-48"/>
       <use x="318.115234" xlink:href="#DejaVuSans-48"/>
      </g>
     </g>
    </g>
    <g id="text_16">
     <!-- Cumulative cases -->
     <defs>
      <path d="M 64.40625 67.28125 
L 64.40625 56.890625 
Q 59.421875 61.53125 53.78125 63.8125 
Q 48.140625 66.109375 41.796875 66.109375 
Q 29.296875 66.109375 22.65625 58.46875 
Q 16.015625 50.828125 16.015625 36.375 
Q 16.015625 21.96875 22.65625 14.328125 
Q 29.296875 6.6875 41.796875 6.6875 
Q 48.140625 6.6875 53.78125 8.984375 
Q 59.421875 11.28125 64.40625 15.921875 
L 64.40625 5.609375 
Q 59.234375 2.09375 53.4375 0.328125 
Q 47.65625 -1.421875 41.21875 -1.421875 
Q 24.65625 -1.421875 15.125 8.703125 
Q 5.609375 18.84375 5.609375 36.375 
Q 5.609375 53.953125 15.125 64.078125 
Q 24.65625 74.21875 41.21875 74.21875 
Q 47.75 74.21875 53.53125 72.484375 
Q 59.328125 70.75 64.40625 67.28125 
z
" id="DejaVuSans-67"/>
      <path d="M 8.5 21.578125 
L 8.5 54.6875 
L 17.484375 54.6875 
L 17.484375 21.921875 
Q 17.484375 14.15625 20.5 10.265625 
Q 23.53125 6.390625 29.59375 6.390625 
Q 36.859375 6.390625 41.078125 11.03125 
Q 45.3125 15.671875 45.3125 23.6875 
L 45.3125 54.6875 
L 54.296875 54.6875 
L 54.296875 0 
L 45.3125 0 
L 45.3125 8.40625 
Q 42.046875 3.421875 37.71875 1 
Q 33.40625 -1.421875 27.6875 -1.421875 
Q 18.265625 -1.421875 13.375 4.4375 
Q 8.5 10.296875 8.5 21.578125 
z
M 31.109375 56 
z
" id="DejaVuSans-117"/>
      <path d="M 52 44.1875 
Q 55.375 50.25 60.0625 53.125 
Q 64.75 56 71.09375 56 
Q 79.640625 56 84.28125 50.015625 
Q 88.921875 44.046875 88.921875 33.015625 
L 88.921875 0 
L 79.890625 0 
L 79.890625 32.71875 
Q 79.890625 40.578125 77.09375 44.375 
Q 74.3125 48.1875 68.609375 48.1875 
Q 61.625 48.1875 57.5625 43.546875 
Q 53.515625 38.921875 53.515625 30.90625 
L 53.515625 0 
L 44.484375 0 
L 44.484375 32.71875 
Q 44.484375 40.625 41.703125 44.40625 
Q 38.921875 48.1875 33.109375 48.1875 
Q 26.21875 48.1875 22.15625 43.53125 
Q 18.109375 38.875 18.109375 30.90625 
L 18.109375 0 
L 9.078125 0 
L 9.078125 54.6875 
L 18.109375 54.6875 
L 18.109375 46.1875 
Q 21.1875 51.21875 25.484375 53.609375 
Q 29.78125 56 35.6875 56 
Q 41.65625 56 45.828125 52.96875 
Q 50 49.953125 52 44.1875 
z
" id="DejaVuSans-109"/>
      <path d="M 9.421875 75.984375 
L 18.40625 75.984375 
L 18.40625 0 
L 9.421875 0 
z
" id="DejaVuSans-108"/>
      <path d="M 18.3125 70.21875 
L 18.3125 54.6875 
L 36.8125 54.6875 
L 36.8125 47.703125 
L 18.3125 47.703125 
L 18.3125 18.015625 
Q 18.3125 11.328125 20.140625 9.421875 
Q 21.96875 7.515625 27.59375 7.515625 
L 36.8125 7.515625 
L 36.8125 0 
L 27.59375 0 
Q 17.1875 0 13.234375 3.875 
Q 9.28125 7.765625 9.28125 18.015625 
L 9.28125 47.703125 
L 2.6875 47.703125 
L 2.6875 54.6875 
L 9.28125 54.6875 
L 9.28125 70.21875 
z
" id="DejaVuSans-116"/>
      <path d="M 9.421875 54.6875 
L 18.40625 54.6875 
L 18.40625 0 
L 9.421875 0 
z
M 9.421875 75.984375 
L 18.40625 75.984375 
L 18.40625 64.59375 
L 9.421875 64.59375 
z
" id="DejaVuSans-105"/>
      <path d="M 2.984375 54.6875 
L 12.5 54.6875 
L 29.59375 8.796875 
L 46.6875 54.6875 
L 56.203125 54.6875 
L 35.6875 0 
L 23.484375 0 
z
" id="DejaVuSans-118"/>
      <path d="M 56.203125 29.59375 
L 56.203125 25.203125 
L 14.890625 25.203125 
Q 15.484375 15.921875 20.484375 11.0625 
Q 25.484375 6.203125 34.421875 6.203125 
Q 39.59375 6.203125 44.453125 7.46875 
Q 49.3125 8.734375 54.109375 11.28125 
L 54.109375 2.78125 
Q 49.265625 0.734375 44.1875 -0.34375 
Q 39.109375 -1.421875 33.890625 -1.421875 
Q 20.796875 -1.421875 13.15625 6.1875 
Q 5.515625 13.8125 5.515625 26.8125 
Q 5.515625 40.234375 12.765625 48.109375 
Q 20.015625 56 32.328125 56 
Q 43.359375 56 49.78125 48.890625 
Q 56.203125 41.796875 56.203125 29.59375 
z
M 47.21875 32.234375 
Q 47.125 39.59375 43.09375 43.984375 
Q 39.0625 48.390625 32.421875 48.390625 
Q 24.90625 48.390625 20.390625 44.140625 
Q 15.875 39.890625 15.1875 32.171875 
z
" id="DejaVuSans-101"/>
      <path d="M 48.78125 52.59375 
L 48.78125 44.1875 
Q 44.96875 46.296875 41.140625 47.34375 
Q 37.3125 48.390625 33.40625 48.390625 
Q 24.65625 48.390625 19.8125 42.84375 
Q 14.984375 37.3125 14.984375 27.296875 
Q 14.984375 17.28125 19.8125 11.734375 
Q 24.65625 6.203125 33.40625 6.203125 
Q 37.3125 6.203125 41.140625 7.25 
Q 44.96875 8.296875 48.78125 10.40625 
L 48.78125 2.09375 
Q 45.015625 0.34375 40.984375 -0.53125 
Q 36.96875 -1.421875 32.421875 -1.421875 
Q 20.0625 -1.421875 12.78125 6.34375 
Q 5.515625 14.109375 5.515625 27.296875 
Q 5.515625 40.671875 12.859375 48.328125 
Q 20.21875 56 33.015625 56 
Q 37.15625 56 41.109375 55.140625 
Q 45.0625 54.296875 48.78125 52.59375 
z
" id="DejaVuSans-99"/>
      <path d="M 44.28125 53.078125 
L 44.28125 44.578125 
Q 40.484375 46.53125 36.375 47.5 
Q 32.28125 48.484375 27.875 48.484375 
Q 21.1875 48.484375 17.84375 46.4375 
Q 14.5 44.390625 14.5 40.28125 
Q 14.5 37.15625 16.890625 35.375 
Q 19.28125 33.59375 26.515625 31.984375 
L 29.59375 31.296875 
Q 39.15625 29.25 43.1875 25.515625 
Q 47.21875 21.78125 47.21875 15.09375 
Q 47.21875 7.46875 41.1875 3.015625 
Q 35.15625 -1.421875 24.609375 -1.421875 
Q 20.21875 -1.421875 15.453125 -0.5625 
Q 10.6875 0.296875 5.421875 2 
L 5.421875 11.28125 
Q 10.40625 8.6875 15.234375 7.390625 
Q 20.0625 6.109375 24.8125 6.109375 
Q 31.15625 6.109375 34.5625 8.28125 
Q 37.984375 10.453125 37.984375 14.40625 
Q 37.984375 18.0625 35.515625 20.015625 
Q 33.0625 21.96875 24.703125 23.78125 
L 21.578125 24.515625 
Q 13.234375 26.265625 9.515625 29.90625 
Q 5.8125 33.546875 5.8125 39.890625 
Q 5.8125 47.609375 11.28125 51.796875 
Q 16.75 56 26.8125 56 
Q 31.78125 56 36.171875 55.265625 
Q 40.578125 54.546875 44.28125 53.078125 
z
" id="DejaVuSans-115"/>
     </defs>
     <g transform="translate(13.96625 104.364995)rotate(-90)scale(0.08 -0.08)">
      <use xlink:href="#DejaVuSans-67"/>
      <use x="69.824219" xlink:href="#DejaVuSans-117"/>
      <use x="133.203125" xlink:href="#DejaVuSans-109"/>
      <use x="230.615234" xlink:href="#DejaVuSans-117"/>
      <use x="293.994141" xlink:href="#DejaVuSans-108"/>
      <use x="321.777344" xlink:href="#DejaVuSans-97"/>
      <use x="383.056641" xlink:href="#DejaVuSans-116"/>
      <use x="422.265625" xlink:href="#DejaVuSans-105"/>
      <use x="450.048828" xlink:href="#DejaVuSans-118"/>
      <use x="509.228516" xlink:href="#DejaVuSans-101"/>
      <use x="570.751953" xlink:href="#DejaVuSans-32"/>
      <use x="602.539062" xlink:href="#DejaVuSans-99"/>
      <use x="657.519531" xlink:href="#DejaVuSans-97"/>
      <use x="718.798828" xlink:href="#DejaVuSans-115"/>
      <use x="770.898438" xlink:href="#DejaVuSans-101"/>
      <use x="832.421875" xlink:href="#DejaVuSans-115"/>
     </g>
    </g>
   </g>
   <g id="line2d_16">
    <path clip-path="url(#pf5e760a363)" d="M 65.052393 126.427576 
L 67.523362 126.406413 
L 69.994332 126.385249 
L 72.465301 126.364085 
L 74.936271 126.342922 
L 77.407241 126.321758 
L 79.87821 126.292267 
L 82.34918 126.256815 
L 84.820149 126.216237 
L 87.291119 126.168336 
L 89.762088 126.105472 
L 92.233058 126.033561 
L 94.704027 125.956078 
L 97.174997 125.870641 
L 99.645966 125.753954 
L 102.116936 125.617555 
L 104.587905 125.414674 
L 107.058875 124.361714 
L 109.529845 124.082537 
L 112.000814 123.800545 
L 114.471784 123.668101 
L 116.942753 123.25198 
L 119.413723 122.889504 
L 121.884692 122.504136 
L 124.355662 122.035017 
L 126.826631 121.553428 
L 129.297601 120.974737 
L 131.76857 120.678733 
L 134.23954 120.118126 
L 136.710509 119.531711 
L 139.181479 118.890525 
L 141.652449 118.135063 
L 144.123418 117.294871 
L 146.594388 116.313059 
L 149.065357 115.811359 
" style="fill:none;stroke:#0000ff;stroke-linecap:square;stroke-opacity:0.5;"/>
   </g>
   <g id="line2d_17">
    <path clip-path="url(#pf5e760a363)" d="M 151.536327 115.259881 
L 154.007296 114.675 
L 156.478266 114.070368 
L 158.949235 113.453577 
L 161.420205 112.827699 
L 163.891174 112.19312 
L 166.362144 111.548808 
L 168.833113 110.893024 
L 171.304083 110.223656 
L 173.775052 109.538369 
L 176.246022 108.834633 
L 178.716992 108.109727 
L 181.187961 107.360705 
L 183.658931 106.584366 
L 186.1299 105.777214 
L 188.60087 104.935411 
L 191.071839 104.054734 
L 193.542809 103.130519 
L 196.013778 102.157596 
L 198.484748 101.130227 
L 200.955717 100.042023 
" style="fill:none;stroke:#008000;stroke-linecap:square;stroke-opacity:0.5;"/>
   </g>
   <g id="line2d_18">
    <path clip-path="url(#pf5e760a363)" d="M 107.058875 126.44874 
L 107.058875 11.52 
" style="fill:none;stroke:#0000ff;stroke-dasharray:1.85,0.8;stroke-dashoffset:0;stroke-width:0.5;"/>
   </g>
   <g id="line2d_19">
    <path clip-path="url(#pf5e760a363)" d="M 109.529845 126.44874 
L 109.529845 11.52 
" style="fill:none;stroke:#0000ff;stroke-dasharray:1.85,0.8;stroke-dashoffset:0;stroke-width:0.5;"/>
   </g>
   <g id="line2d_20">
    <path clip-path="url(#pf5e760a363)" d="M 136.710509 126.44874 
L 136.710509 11.52 
" style="fill:none;stroke:#0000ff;stroke-dasharray:1.85,0.8;stroke-dashoffset:0;stroke-width:0.5;"/>
   </g>
   <g id="line2d_21">
    <path clip-path="url(#pf5e760a363)" d="M 116.942753 126.44874 
L 116.942753 11.52 
" style="fill:none;stroke:#0000ff;stroke-dasharray:1.85,0.8;stroke-dashoffset:0;stroke-width:0.5;"/>
   </g>
   <g id="line2d_22">
    <path clip-path="url(#pf5e760a363)" d="M 114.471784 126.44874 
L 114.471784 11.52 
" style="fill:none;stroke:#0000ff;stroke-dasharray:1.85,0.8;stroke-dashoffset:0;stroke-width:0.5;"/>
   </g>
   <g id="patch_59">
    <path d="M 57.17 126.44874 
L 57.17 11.52 
" style="fill:none;stroke:#000000;stroke-linecap:square;stroke-linejoin:miter;stroke-width:0.8;"/>
   </g>
   <g id="patch_60">
    <path d="M 208.83811 126.44874 
L 208.83811 11.52 
" style="fill:none;stroke:#000000;stroke-linecap:square;stroke-linejoin:miter;stroke-width:0.8;"/>
   </g>
   <g id="patch_61">
    <path d="M 57.17 126.44874 
L 208.83811 126.44874 
" style="fill:none;stroke:#000000;stroke-linecap:square;stroke-linejoin:miter;stroke-width:0.8;"/>
   </g>
   <g id="patch_62">
    <path d="M 57.17 11.52 
L 208.83811 11.52 
" style="fill:none;stroke:#000000;stroke-linecap:square;stroke-linejoin:miter;stroke-width:0.8;"/>
   </g>
  </g>
  <g id="axes_2">
   <g id="matplotlib.axis_3">
    <g id="ytick_8">
     <g id="line2d_23">
      <defs>
       <path d="M 0 0 
L 3.5 0 
" id="m9823e1511a" style="stroke:#000000;stroke-width:0.8;"/>
      </defs>
      <g>
       <use style="stroke:#000000;stroke-width:0.8;" x="208.83811" xlink:href="#m9823e1511a" y="126.44874"/>
      </g>
     </g>
     <g id="text_17">
      <!-- 1.0 -->
      <defs>
       <path d="M 10.59375 35.5 
L 73.1875 35.5 
L 73.1875 27.203125 
L 10.59375 27.203125 
z
" id="DejaVuSans-8722"/>
       <path d="M 10.6875 12.40625 
L 21 12.40625 
L 21 0 
L 10.6875 0 
z
" id="DejaVuSans-46"/>
      </defs>
      <g transform="translate(215.83811 129.488115)scale(0.08 -0.08)">
       <use xlink:href="#DejaVuSans-8722"/>
       <use x="83.789062" xlink:href="#DejaVuSans-49"/>
       <use x="147.412109" xlink:href="#DejaVuSans-46"/>
       <use x="179.199219" xlink:href="#DejaVuSans-48"/>
      </g>
     </g>
    </g>
    <g id="ytick_9">
     <g id="line2d_24">
      <g>
       <use style="stroke:#000000;stroke-width:0.8;" x="208.83811" xlink:href="#m9823e1511a" y="85.402762"/>
      </g>
     </g>
     <g id="text_18">
      <!-- 0.5 -->
      <g transform="translate(215.83811 88.442137)scale(0.08 -0.08)">
       <use xlink:href="#DejaVuSans-8722"/>
       <use x="83.789062" xlink:href="#DejaVuSans-48"/>
       <use x="147.412109" xlink:href="#DejaVuSans-46"/>
       <use x="179.199219" xlink:href="#DejaVuSans-53"/>
      </g>
     </g>
    </g>
    <g id="ytick_10">
     <g id="line2d_25">
      <g>
       <use style="stroke:#000000;stroke-width:0.8;" x="208.83811" xlink:href="#m9823e1511a" y="44.356783"/>
      </g>
     </g>
     <g id="text_19">
      <!-- 0.0 -->
      <g transform="translate(215.83811 47.396158)scale(0.08 -0.08)">
       <use xlink:href="#DejaVuSans-48"/>
       <use x="63.623047" xlink:href="#DejaVuSans-46"/>
       <use x="95.410156" xlink:href="#DejaVuSans-48"/>
      </g>
     </g>
    </g>
    <g id="ytick_11">
     <g id="line2d_26">
      <g>
       <use style="stroke:#000000;stroke-width:0.8;" x="208.83811" xlink:href="#m9823e1511a" y="11.52"/>
      </g>
     </g>
     <g id="text_20">
      <!-- 0.4 -->
      <g transform="translate(215.83811 14.559375)scale(0.08 -0.08)">
       <use xlink:href="#DejaVuSans-48"/>
       <use x="63.623047" xlink:href="#DejaVuSans-46"/>
       <use x="95.410156" xlink:href="#DejaVuSans-52"/>
      </g>
     </g>
    </g>
    <g id="text_21">
     <!-- Relative change -->
     <defs>
      <path d="M 44.390625 34.1875 
Q 47.5625 33.109375 50.5625 29.59375 
Q 53.5625 26.078125 56.59375 19.921875 
L 66.609375 0 
L 56 0 
L 46.6875 18.703125 
Q 43.0625 26.03125 39.671875 28.421875 
Q 36.28125 30.8125 30.421875 30.8125 
L 19.671875 30.8125 
L 19.671875 0 
L 9.8125 0 
L 9.8125 72.90625 
L 32.078125 72.90625 
Q 44.578125 72.90625 50.734375 67.671875 
Q 56.890625 62.453125 56.890625 51.90625 
Q 56.890625 45.015625 53.6875 40.46875 
Q 50.484375 35.9375 44.390625 34.1875 
z
M 19.671875 64.796875 
L 19.671875 38.921875 
L 32.078125 38.921875 
Q 39.203125 38.921875 42.84375 42.21875 
Q 46.484375 45.515625 46.484375 51.90625 
Q 46.484375 58.296875 42.84375 61.546875 
Q 39.203125 64.796875 32.078125 64.796875 
z
" id="DejaVuSans-82"/>
      <path d="M 54.890625 33.015625 
L 54.890625 0 
L 45.90625 0 
L 45.90625 32.71875 
Q 45.90625 40.484375 42.875 44.328125 
Q 39.84375 48.1875 33.796875 48.1875 
Q 26.515625 48.1875 22.3125 43.546875 
Q 18.109375 38.921875 18.109375 30.90625 
L 18.109375 0 
L 9.078125 0 
L 9.078125 75.984375 
L 18.109375 75.984375 
L 18.109375 46.1875 
Q 21.34375 51.125 25.703125 53.5625 
Q 30.078125 56 35.796875 56 
Q 45.21875 56 50.046875 50.171875 
Q 54.890625 44.34375 54.890625 33.015625 
z
" id="DejaVuSans-104"/>
      <path d="M 54.890625 33.015625 
L 54.890625 0 
L 45.90625 0 
L 45.90625 32.71875 
Q 45.90625 40.484375 42.875 44.328125 
Q 39.84375 48.1875 33.796875 48.1875 
Q 26.515625 48.1875 22.3125 43.546875 
Q 18.109375 38.921875 18.109375 30.90625 
L 18.109375 0 
L 9.078125 0 
L 9.078125 54.6875 
L 18.109375 54.6875 
L 18.109375 46.1875 
Q 21.34375 51.125 25.703125 53.5625 
Q 30.078125 56 35.796875 56 
Q 45.21875 56 50.046875 50.171875 
Q 54.890625 44.34375 54.890625 33.015625 
z
" id="DejaVuSans-110"/>
      <path d="M 45.40625 27.984375 
Q 45.40625 37.75 41.375 43.109375 
Q 37.359375 48.484375 30.078125 48.484375 
Q 22.859375 48.484375 18.828125 43.109375 
Q 14.796875 37.75 14.796875 27.984375 
Q 14.796875 18.265625 18.828125 12.890625 
Q 22.859375 7.515625 30.078125 7.515625 
Q 37.359375 7.515625 41.375 12.890625 
Q 45.40625 18.265625 45.40625 27.984375 
z
M 54.390625 6.78125 
Q 54.390625 -7.171875 48.1875 -13.984375 
Q 42 -20.796875 29.203125 -20.796875 
Q 24.46875 -20.796875 20.265625 -20.09375 
Q 16.0625 -19.390625 12.109375 -17.921875 
L 12.109375 -9.1875 
Q 16.0625 -11.328125 19.921875 -12.34375 
Q 23.78125 -13.375 27.78125 -13.375 
Q 36.625 -13.375 41.015625 -8.765625 
Q 45.40625 -4.15625 45.40625 5.171875 
L 45.40625 9.625 
Q 42.625 4.78125 38.28125 2.390625 
Q 33.9375 0 27.875 0 
Q 17.828125 0 11.671875 7.65625 
Q 5.515625 15.328125 5.515625 27.984375 
Q 5.515625 40.671875 11.671875 48.328125 
Q 17.828125 56 27.875 56 
Q 33.9375 56 38.28125 53.609375 
Q 42.625 51.21875 45.40625 46.390625 
L 45.40625 54.6875 
L 54.390625 54.6875 
z
" id="DejaVuSans-103"/>
     </defs>
     <g transform="translate(245.34311 101.10812)rotate(-90)scale(0.08 -0.08)">
      <use xlink:href="#DejaVuSans-82"/>
      <use x="64.982422" xlink:href="#DejaVuSans-101"/>
      <use x="126.505859" xlink:href="#DejaVuSans-108"/>
      <use x="154.289062" xlink:href="#DejaVuSans-97"/>
      <use x="215.568359" xlink:href="#DejaVuSans-116"/>
      <use x="254.777344" xlink:href="#DejaVuSans-105"/>
      <use x="282.560547" xlink:href="#DejaVuSans-118"/>
      <use x="341.740234" xlink:href="#DejaVuSans-101"/>
      <use x="403.263672" xlink:href="#DejaVuSans-32"/>
      <use x="435.050781" xlink:href="#DejaVuSans-99"/>
      <use x="490.03125" xlink:href="#DejaVuSans-104"/>
      <use x="553.410156" xlink:href="#DejaVuSans-97"/>
      <use x="614.689453" xlink:href="#DejaVuSans-110"/>
      <use x="678.068359" xlink:href="#DejaVuSans-103"/>
      <use x="741.544922" xlink:href="#DejaVuSans-101"/>
     </g>
    </g>
   </g>
   <g id="line2d_27">
    <path clip-path="url(#pf5e760a363)" d="M 65.052393 43.535863 
L 67.523362 43.535863 
L 69.994332 42.714944 
L 72.465301 43.535863 
L 74.936271 43.535863 
L 77.407241 47.640461 
L 79.87821 52.565979 
L 82.34918 45.998622 
L 84.820149 45.177702 
L 87.291119 46.819542 
L 89.762088 44.356783 
L 92.233058 45.998622 
L 94.704027 50.10322 
L 97.174997 53.386898 
L 99.645966 47.640461 
L 102.116936 48.461381 
L 104.587905 49.2823 
L 107.058875 49.2823 
L 109.529845 72.268048 
L 112.000814 82.940003 
L 114.471784 102.642073 
L 116.942753 76.372646 
L 119.413723 80.477244 
L 121.884692 82.119083 
L 124.355662 80.477244 
L 126.826631 80.477244 
L 129.297601 84.581842 
L 131.76857 97.716555 
L 134.23954 78.014485 
L 136.710509 81.298164 
L 139.181479 81.298164 
L 141.652449 79.656325 
L 144.123418 78.835405 
L 146.594388 82.940003 
L 149.065357 97.716555 
" style="fill:none;stroke:#d62728;stroke-linecap:square;stroke-opacity:0.5;"/>
   </g>
   <g id="line2d_28">
    <path clip-path="url(#pf5e760a363)" d="M 65.052393 43.535863 
L 67.523362 43.535863 
L 69.994332 42.714944 
L 72.465301 41.894024 
L 74.936271 41.894024 
L 77.407241 45.177702 
L 79.87821 42.714944 
L 82.34918 42.714944 
L 84.820149 43.535863 
L 87.291119 43.535863 
L 89.762088 41.073105 
L 92.233058 41.894024 
L 94.704027 44.356783 
L 97.174997 45.998622 
L 99.645966 42.714944 
L 102.116936 42.714944 
L 104.587905 36.968507 
L 107.058875 2.489885 
L 109.529845 40.252185 
L 112.000814 51.745059 
L 114.471784 76.372646 
L 116.942753 51.745059 
L 119.413723 56.670576 
L 121.884692 56.670576 
L 124.355662 53.386898 
L 126.826631 54.207818 
L 129.297601 52.565979 
L 131.76857 70.626209 
L 134.23954 55.849657 
L 136.710509 55.849657 
L 139.181479 55.028737 
L 141.652449 52.565979 
L 144.123418 51.745059 
L 146.594388 50.924139 
L 149.065357 70.626209 
" style="fill:none;stroke:#9467bd;stroke-linecap:square;stroke-opacity:0.5;"/>
   </g>
   <g id="line2d_29">
    <path clip-path="url(#pf5e760a363)" d="M 65.052393 41.894024 
L 67.523362 45.177702 
L 69.994332 43.535863 
L 72.465301 44.356783 
L 74.936271 43.535863 
L 77.407241 42.714944 
L 79.87821 45.177702 
L 82.34918 44.356783 
L 84.820149 45.998622 
L 87.291119 43.535863 
L 89.762088 41.894024 
L 92.233058 42.714944 
L 94.704027 43.535863 
L 97.174997 51.745059 
L 99.645966 45.998622 
L 102.116936 50.10322 
L 104.587905 51.745059 
L 107.058875 60.775174 
L 109.529845 76.372646 
L 112.000814 74.730807 
L 114.471784 88.68644 
L 116.942753 84.581842 
L 119.413723 87.86552 
L 121.884692 89.507359 
L 124.355662 90.328279 
L 126.826631 89.507359 
L 129.297601 78.835405 
L 131.76857 91.149199 
L 134.23954 91.970118 
L 136.710509 92.791038 
L 139.181479 91.970118 
L 141.652449 90.328279 
L 144.123418 91.149199 
L 146.594388 85.402762 
L 149.065357 91.149199 
" style="fill:none;stroke:#e377c2;stroke-linecap:square;stroke-opacity:0.5;"/>
   </g>
   <g id="line2d_30">
    <path clip-path="url(#pf5e760a363)" d="M 65.052393 48.461381 
L 67.523362 47.640461 
L 69.994332 47.640461 
L 72.465301 48.461381 
L 74.936271 48.461381 
L 77.407241 45.998622 
L 79.87821 45.177702 
L 82.34918 45.998622 
L 84.820149 45.177702 
L 87.291119 45.998622 
L 89.762088 45.998622 
L 92.233058 45.998622 
L 94.704027 45.998622 
L 97.174997 45.998622 
L 99.645966 45.998622 
L 102.116936 45.177702 
L 104.587905 46.819542 
L 107.058875 53.386898 
L 109.529845 73.909888 
L 112.000814 63.237933 
L 114.471784 66.521611 
L 116.942753 83.760922 
L 119.413723 86.223681 
L 121.884692 87.044601 
L 124.355662 87.044601 
L 126.826631 87.044601 
L 129.297601 71.447129 
L 131.76857 72.268048 
L 134.23954 87.044601 
L 136.710509 87.86552 
L 139.181479 87.044601 
L 141.652449 87.044601 
L 144.123418 85.402762 
L 146.594388 71.447129 
L 149.065357 72.268048 
" style="fill:none;stroke:#bcbd22;stroke-linecap:square;stroke-opacity:0.5;"/>
   </g>
   <g id="line2d_31">
    <path clip-path="url(#pf5e760a363)" d="M 65.052393 44.356783 
L 67.523362 43.535863 
L 69.994332 44.356783 
L 72.465301 43.535863 
L 74.936271 43.535863 
L 77.407241 44.356783 
L 79.87821 44.356783 
L 82.34918 43.535863 
L 84.820149 43.535863 
L 87.291119 43.535863 
L 89.762088 44.356783 
L 92.233058 44.356783 
L 94.704027 44.356783 
L 97.174997 43.535863 
L 99.645966 43.535863 
L 102.116936 42.714944 
L 104.587905 41.894024 
L 107.058875 40.252185 
L 109.529845 32.863909 
L 112.000814 37.789426 
L 114.471784 35.326668 
L 116.942753 29.580231 
L 119.413723 28.759311 
L 121.884692 27.938391 
L 124.355662 27.938391 
L 126.826631 27.117472 
L 129.297601 36.968507 
L 131.76857 34.505748 
L 134.23954 27.938391 
L 136.710509 27.938391 
L 139.181479 27.938391 
L 141.652449 27.938391 
L 144.123418 27.117472 
L 146.594388 36.147587 
L 149.065357 35.326668 
" style="fill:none;stroke:#17becf;stroke-linecap:square;stroke-opacity:0.5;"/>
   </g>
   <g id="patch_63">
    <path d="M 57.17 126.44874 
L 57.17 11.52 
" style="fill:none;stroke:#000000;stroke-linecap:square;stroke-linejoin:miter;stroke-width:0.8;"/>
   </g>
   <g id="patch_64">
    <path d="M 208.83811 126.44874 
L 208.83811 11.52 
" style="fill:none;stroke:#000000;stroke-linecap:square;stroke-linejoin:miter;stroke-width:0.8;"/>
   </g>
   <g id="patch_65">
    <path d="M 57.17 126.44874 
L 208.83811 126.44874 
" style="fill:none;stroke:#000000;stroke-linecap:square;stroke-linejoin:miter;stroke-width:0.8;"/>
   </g>
   <g id="patch_66">
    <path d="M 57.17 11.52 
L 208.83811 11.52 
" style="fill:none;stroke:#000000;stroke-linecap:square;stroke-linejoin:miter;stroke-width:0.8;"/>
   </g>
  </g>
 </g>
 <defs>
  <clipPath id="pf5e760a363">
   <rect height="114.92874" width="151.66811" x="57.17" y="11.52"/>
  </clipPath>
 </defs>
</svg>
