<?xml version="1.0" encoding="utf-8" standalone="no"?>
<!DOCTYPE svg PUBLIC "-//W3C//DTD SVG 1.1//EN"
  "http://www.w3.org/Graphics/SVG/1.1/DTD/svg11.dtd">
<!-- Created with matplotlib (https://matplotlib.org/) -->
<svg height="170.07874pt" version="1.1" viewBox="0 0 255.11811 170.07874" width="255.11811pt" xmlns="http://www.w3.org/2000/svg" xmlns:xlink="http://www.w3.org/1999/xlink">
 <defs>
  <style type="text/css">
*{stroke-linecap:butt;stroke-linejoin:round;}
  </style>
 </defs>
 <g id="figure_1">
  <g id="patch_1">
   <path d="M 0 170.07874 
L 255.11811 170.07874 
L 255.11811 0 
L 0 0 
z
" style="fill:#ffffff;"/>
  </g>
  <g id="axes_1">
   <g id="patch_2">
    <path d="M 42.05 126.44874 
L 208.83811 126.44874 
L 208.83811 11.52 
L 42.05 11.52 
z
" style="fill:#ffffff;"/>
   </g>
   <g id="PolyCollection_1">
    <defs>
     <path d="M 50.718199 -43.63 
L 50.718199 -43.63 
L 53.435503 -43.63 
L 56.152807 -43.630007 
L 58.870111 -43.630037 
L 61.587415 -43.63012 
L 64.304719 -43.630302 
L 67.022022 -43.630644 
L 69.739326 -43.631219 
L 72.45663 -43.632115 
L 75.173934 -43.633439 
L 77.891238 -43.635317 
L 80.608542 -43.637903 
L 83.325845 -43.641396 
L 86.043149 -43.646033 
L 88.760453 -43.652157 
L 91.477757 -43.660106 
L 94.195061 -43.670268 
L 96.912365 -43.683247 
L 99.629669 -43.699793 
L 102.346972 -43.721694 
L 105.064276 -43.751239 
L 107.78158 -43.790961 
L 110.498884 -43.84385 
L 113.216188 -43.913463 
L 115.933492 -44.002508 
L 118.650795 -44.113833 
L 121.368099 -44.250472 
L 124.085403 -44.41462 
L 126.802707 -44.607443 
L 129.520011 -44.832473 
L 132.237315 -45.091379 
L 134.954619 -45.383615 
L 137.671922 -45.710151 
L 140.389226 -46.069611 
L 143.10653 -46.461079 
L 143.10653 -55.172812 
L 143.10653 -55.172812 
L 140.389226 -53.631605 
L 137.671922 -52.244125 
L 134.954619 -51.002887 
L 132.237315 -49.903048 
L 129.520011 -48.932783 
L 126.802707 -48.089101 
L 124.085403 -47.36101 
L 121.368099 -46.734407 
L 118.650795 -46.202462 
L 115.933492 -45.753104 
L 113.216188 -45.372176 
L 110.498884 -45.058934 
L 107.78158 -44.800703 
L 105.064276 -44.589791 
L 102.346972 -44.414068 
L 99.629669 -44.265255 
L 96.912365 -44.141183 
L 94.195061 -44.035503 
L 91.477757 -43.946833 
L 88.760453 -43.872904 
L 86.043149 -43.812338 
L 83.325845 -43.763448 
L 80.608542 -43.724773 
L 77.891238 -43.694975 
L 75.173934 -43.672566 
L 72.45663 -43.656359 
L 69.739326 -43.645223 
L 67.022022 -43.638043 
L 64.304719 -43.633772 
L 61.587415 -43.631496 
L 58.870111 -43.630458 
L 56.152807 -43.630085 
L 53.435503 -43.63 
L 50.718199 -43.63 
z
" id="m9276d8e77f" style="stroke:#6495ed;stroke-opacity:0.4;"/>
    </defs>
    <g clip-path="url(#pf9c7739474)">
     <use style="fill:#6495ed;fill-opacity:0.4;stroke:#6495ed;stroke-opacity:0.4;" x="0" xlink:href="#m9276d8e77f" y="170.07874"/>
    </g>
   </g>
   <g id="PolyCollection_2">
    <defs>
     <path d="M 50.718199 -43.63 
L 50.718199 -43.63 
L 53.435503 -43.63 
L 56.152807 -43.630016 
L 58.870111 -43.630086 
L 61.587415 -43.63028 
L 64.304719 -43.630706 
L 67.022022 -43.631505 
L 69.739326 -43.632848 
L 72.45663 -43.634935 
L 75.173934 -43.638003 
L 77.891238 -43.642316 
L 80.608542 -43.648188 
L 83.325845 -43.655995 
L 86.043149 -43.666164 
L 88.760453 -43.679255 
L 91.477757 -43.695939 
L 94.195061 -43.716948 
L 96.912365 -43.743155 
L 99.629669 -43.775806 
L 102.346972 -43.817423 
L 105.064276 -43.871019 
L 107.78158 -43.940949 
L 110.498884 -44.031945 
L 113.216188 -44.14834 
L 115.933492 -44.293941 
L 118.650795 -44.473036 
L 121.368099 -44.690226 
L 124.085403 -44.949209 
L 126.802707 -45.252743 
L 129.520011 -45.604699 
L 132.237315 -46.006894 
L 134.954619 -46.461925 
L 137.671922 -46.97206 
L 140.389226 -47.537591 
L 143.10653 -48.159139 
L 143.10653 -50.99596 
L 143.10653 -50.99596 
L 140.389226 -50.0005 
L 137.671922 -49.104629 
L 134.954619 -48.298359 
L 132.237315 -47.577736 
L 129.520011 -46.939223 
L 126.802707 -46.38173 
L 124.085403 -45.897454 
L 121.368099 -45.482091 
L 118.650795 -45.130937 
L 115.933492 -44.838346 
L 113.216188 -44.597262 
L 110.498884 -44.402631 
L 107.78158 -44.246972 
L 105.064276 -44.122517 
L 102.346972 -44.023014 
L 99.629669 -43.942591 
L 96.912365 -43.877087 
L 94.195061 -43.823018 
L 91.477757 -43.77862 
L 88.760453 -43.742522 
L 86.043149 -43.713529 
L 83.325845 -43.690541 
L 80.608542 -43.672653 
L 77.891238 -43.659029 
L 75.173934 -43.648931 
L 72.45663 -43.641694 
L 69.739326 -43.636752 
L 67.022022 -43.633567 
L 64.304719 -43.631673 
L 61.587415 -43.630664 
L 58.870111 -43.630203 
L 56.152807 -43.630038 
L 53.435503 -43.63 
L 50.718199 -43.63 
z
" id="med52920443" style="stroke:#6495ed;stroke-opacity:0.6;"/>
    </defs>
    <g clip-path="url(#pf9c7739474)">
     <use style="fill:#6495ed;fill-opacity:0.6;stroke:#6495ed;stroke-opacity:0.6;" x="0" xlink:href="#med52920443" y="170.07874"/>
    </g>
   </g>
   <g id="PolyCollection_3">
    <defs>
     <path d="M 143.10653 -55.172812 
L 143.10653 -46.461079 
L 145.823834 -46.886186 
L 148.541138 -47.343122 
L 151.258442 -47.828093 
L 153.975746 -48.336449 
L 156.693049 -48.870402 
L 159.410353 -49.431315 
L 162.127657 -50.011366 
L 164.844961 -50.60728 
L 167.562265 -51.213463 
L 170.279569 -51.825087 
L 172.996872 -52.437809 
L 175.714176 -53.048765 
L 178.43148 -53.656937 
L 181.148784 -54.256028 
L 183.866088 -54.846622 
L 186.583392 -55.423352 
L 189.300696 -55.983467 
L 192.017999 -56.533466 
L 194.735303 -57.071294 
L 197.452607 -57.590556 
L 200.169911 -58.08605 
L 200.169911 -158.55874 
L 200.169911 -158.55874 
L 197.452607 -149.23043 
L 194.735303 -140.465849 
L 192.017999 -132.32422 
L 189.300696 -124.671591 
L 186.583392 -117.537418 
L 183.866088 -110.870346 
L 181.148784 -104.606584 
L 178.43148 -98.785206 
L 175.714176 -93.39678 
L 172.996872 -88.399471 
L 170.279569 -83.81594 
L 167.562265 -79.542893 
L 164.844961 -75.630133 
L 162.127657 -72.083489 
L 159.410353 -68.843704 
L 156.693049 -65.926868 
L 153.975746 -63.297844 
L 151.258442 -60.924352 
L 148.541138 -58.802757 
L 145.823834 -56.891024 
L 143.10653 -55.172812 
z
" id="m16d6237a15" style="stroke:#228b22;stroke-opacity:0.4;"/>
    </defs>
    <g clip-path="url(#pf9c7739474)">
     <use style="fill:#228b22;fill-opacity:0.4;stroke:#228b22;stroke-opacity:0.4;" x="0" xlink:href="#m16d6237a15" y="170.07874"/>
    </g>
   </g>
   <g id="PolyCollection_4">
    <defs>
     <path d="M 143.10653 -50.99596 
L 143.10653 -48.159139 
L 145.823834 -48.837193 
L 148.541138 -49.574967 
L 151.258442 -50.373258 
L 153.975746 -51.228561 
L 156.693049 -52.141336 
L 159.410353 -53.109877 
L 162.127657 -54.129604 
L 164.844961 -55.194862 
L 167.562265 -56.302018 
L 170.279569 -57.446994 
L 172.996872 -58.624758 
L 175.714176 -59.828364 
L 178.43148 -61.053108 
L 181.148784 -62.289247 
L 183.866088 -63.532533 
L 186.583392 -64.780399 
L 189.300696 -66.023258 
L 192.017999 -67.26365 
L 194.735303 -68.490784 
L 197.452607 -69.701899 
L 200.169911 -70.891979 
L 200.169911 -96.744622 
L 200.169911 -96.744622 
L 197.452607 -93.740049 
L 194.735303 -90.77601 
L 192.017999 -87.845046 
L 189.300696 -84.973502 
L 186.583392 -82.172345 
L 183.866088 -79.457922 
L 181.148784 -76.821668 
L 178.43148 -74.271341 
L 175.714176 -71.809766 
L 172.996872 -69.442196 
L 170.279569 -67.178391 
L 167.562265 -65.018737 
L 164.844961 -62.975227 
L 162.127657 -61.047952 
L 159.410353 -59.249007 
L 156.693049 -57.574118 
L 153.975746 -56.026574 
L 151.258442 -54.599163 
L 148.541138 -53.287959 
L 145.823834 -52.089998 
L 143.10653 -50.99596 
z
" id="mf6ab76bfbd" style="stroke:#228b22;stroke-opacity:0.6;"/>
    </defs>
    <g clip-path="url(#pf9c7739474)">
     <use style="fill:#228b22;fill-opacity:0.6;stroke:#228b22;stroke-opacity:0.6;" x="0" xlink:href="#mf6ab76bfbd" y="170.07874"/>
    </g>
   </g>
   <g id="PathCollection_1">
    <defs>
     <path d="M -0.866025 1.732051 
L 0 0.866025 
L 0.866025 1.732051 
L 1.732051 0.866025 
L 0.866025 0 
L 1.732051 -0.866025 
L 0.866025 -1.732051 
L 0 -0.866025 
L -0.866025 -1.732051 
L -1.732051 -0.866025 
L -0.866025 0 
L -1.732051 0.866025 
z
" id="m74a2307f43" style="stroke:#8a2be2;"/>
    </defs>
    <g clip-path="url(#pf9c7739474)">
     <use style="fill:#8a2be2;stroke:#8a2be2;" x="96.912365" xlink:href="#m74a2307f43" y="23.012874"/>
    </g>
   </g>
   <g id="PathCollection_2">
    <defs>
     <path d="M 0 -1.732051 
L -0.38887 -0.535233 
L -1.647278 -0.535233 
L -0.629204 0.204441 
L -1.018074 1.401259 
L -0 0.661585 
L 1.018074 1.401259 
L 0.629204 0.204441 
L 1.647278 -0.535233 
L 0.38887 -0.535233 
z
" id="m9a7a654439" style="stroke:#000000;"/>
    </defs>
    <g clip-path="url(#pf9c7739474)">
     <use style="stroke:#000000;" x="99.629669" xlink:href="#m9a7a654439" y="23.012874"/>
    </g>
   </g>
   <g id="PathCollection_3">
    <defs>
     <path d="M -1.732051 1.732051 
L 1.732051 1.732051 
L 1.732051 -1.732051 
L -1.732051 -1.732051 
z
" id="m274dde0a36" style="stroke:#c71585;"/>
    </defs>
    <g clip-path="url(#pf9c7739474)">
     <use style="fill:#c71585;stroke:#c71585;" x="129.520011" xlink:href="#m274dde0a36" y="23.012874"/>
    </g>
   </g>
   <g id="PathCollection_4">
    <defs>
     <path d="M 0 -1.732051 
L -1.647278 -0.535233 
L -1.018074 1.401259 
L 1.018074 1.401259 
L 1.647278 -0.535233 
z
" id="m72bd7cbcd7" style="stroke:#800000;"/>
    </defs>
    <g clip-path="url(#pf9c7739474)">
     <use style="fill:#800000;stroke:#800000;" x="107.78158" xlink:href="#m72bd7cbcd7" y="23.012874"/>
    </g>
   </g>
   <g id="PathCollection_5">
    <defs>
     <path d="M -0 2.44949 
L 1.469694 0 
L 0 -2.44949 
L -1.469694 -0 
z
" id="m52b5503345" style="stroke:#556b2f;"/>
    </defs>
    <g clip-path="url(#pf9c7739474)">
     <use style="fill:#556b2f;stroke:#556b2f;" x="105.064276" xlink:href="#m52b5503345" y="23.012874"/>
    </g>
   </g>
   <g id="patch_3">
    <path clip-path="url(#pf9c7739474)" d="M 49.631278 126.44874 
L 51.805121 126.44874 
L 51.805121 126.44874 
L 49.631278 126.44874 
z
" style="fill:#1f77b4;opacity:0.5;"/>
   </g>
   <g id="patch_4">
    <path clip-path="url(#pf9c7739474)" d="M 52.348582 126.44874 
L 54.522425 126.44874 
L 54.522425 126.44874 
L 52.348582 126.44874 
z
" style="fill:#1f77b4;opacity:0.5;"/>
   </g>
   <g id="patch_5">
    <path clip-path="url(#pf9c7739474)" d="M 55.065885 126.44874 
L 57.239729 126.44874 
L 57.239729 126.44874 
L 55.065885 126.44874 
z
" style="fill:#1f77b4;opacity:0.5;"/>
   </g>
   <g id="patch_6">
    <path clip-path="url(#pf9c7739474)" d="M 57.783189 126.44874 
L 59.957032 126.44874 
L 59.957032 126.44874 
L 57.783189 126.44874 
z
" style="fill:#1f77b4;opacity:0.5;"/>
   </g>
   <g id="patch_7">
    <path clip-path="url(#pf9c7739474)" d="M 60.500493 126.44874 
L 62.674336 126.44874 
L 62.674336 126.44874 
L 60.500493 126.44874 
z
" style="fill:#1f77b4;opacity:0.5;"/>
   </g>
   <g id="patch_8">
    <path clip-path="url(#pf9c7739474)" d="M 63.217797 126.44874 
L 65.39164 126.44874 
L 65.39164 126.44874 
L 63.217797 126.44874 
z
" style="fill:#1f77b4;opacity:0.5;"/>
   </g>
   <g id="patch_9">
    <path clip-path="url(#pf9c7739474)" d="M 65.935101 126.44874 
L 68.108944 126.44874 
L 68.108944 126.44874 
L 65.935101 126.44874 
z
" style="fill:#1f77b4;opacity:0.5;"/>
   </g>
   <g id="patch_10">
    <path clip-path="url(#pf9c7739474)" d="M 68.652405 126.44874 
L 70.826248 126.44874 
L 70.826248 126.44874 
L 68.652405 126.44874 
z
" style="fill:#1f77b4;opacity:0.5;"/>
   </g>
   <g id="patch_11">
    <path clip-path="url(#pf9c7739474)" d="M 71.369709 126.44874 
L 73.543552 126.44874 
L 73.543552 126.44874 
L 71.369709 126.44874 
z
" style="fill:#1f77b4;opacity:0.5;"/>
   </g>
   <g id="patch_12">
    <path clip-path="url(#pf9c7739474)" d="M 74.087012 126.44874 
L 76.260855 126.44874 
L 76.260855 126.44874 
L 74.087012 126.44874 
z
" style="fill:#1f77b4;opacity:0.5;"/>
   </g>
   <g id="patch_13">
    <path clip-path="url(#pf9c7739474)" d="M 76.804316 126.44874 
L 78.978159 126.44874 
L 78.978159 126.44874 
L 76.804316 126.44874 
z
" style="fill:#1f77b4;opacity:0.5;"/>
   </g>
   <g id="patch_14">
    <path clip-path="url(#pf9c7739474)" d="M 79.52162 126.44874 
L 81.695463 126.44874 
L 81.695463 126.44874 
L 79.52162 126.44874 
z
" style="fill:#1f77b4;opacity:0.5;"/>
   </g>
   <g id="patch_15">
    <path clip-path="url(#pf9c7739474)" d="M 82.238924 126.44874 
L 84.412767 126.44874 
L 84.412767 126.44874 
L 82.238924 126.44874 
z
" style="fill:#1f77b4;opacity:0.5;"/>
   </g>
   <g id="patch_16">
    <path clip-path="url(#pf9c7739474)" d="M 84.956228 126.44874 
L 87.130071 126.44874 
L 87.130071 126.44874 
L 84.956228 126.44874 
z
" style="fill:#1f77b4;opacity:0.5;"/>
   </g>
   <g id="patch_17">
    <path clip-path="url(#pf9c7739474)" d="M 87.673532 126.44874 
L 89.847375 126.44874 
L 89.847375 126.44874 
L 87.673532 126.44874 
z
" style="fill:#1f77b4;opacity:0.5;"/>
   </g>
   <g id="patch_18">
    <path clip-path="url(#pf9c7739474)" d="M 90.390835 126.44874 
L 92.564679 126.44874 
L 92.564679 126.44874 
L 90.390835 126.44874 
z
" style="fill:#1f77b4;opacity:0.5;"/>
   </g>
   <g id="patch_19">
    <path clip-path="url(#pf9c7739474)" d="M 93.108139 126.44874 
L 95.281982 126.44874 
L 95.281982 126.44874 
L 93.108139 126.44874 
z
" style="fill:#1f77b4;opacity:0.5;"/>
   </g>
   <g id="patch_20">
    <path clip-path="url(#pf9c7739474)" d="M 95.825443 126.44874 
L 97.999286 126.44874 
L 97.999286 126.44874 
L 95.825443 126.44874 
z
" style="fill:#1f77b4;opacity:0.5;"/>
   </g>
   <g id="patch_21">
    <path clip-path="url(#pf9c7739474)" d="M 98.542747 126.44874 
L 100.71659 126.44874 
L 100.71659 126.184055 
L 98.542747 126.184055 
z
" style="fill:#1f77b4;opacity:0.5;"/>
   </g>
   <g id="patch_22">
    <path clip-path="url(#pf9c7739474)" d="M 101.260051 126.44874 
L 103.433894 126.44874 
L 103.433894 126.184055 
L 101.260051 126.184055 
z
" style="fill:#1f77b4;opacity:0.5;"/>
   </g>
   <g id="patch_23">
    <path clip-path="url(#pf9c7739474)" d="M 103.977355 126.44874 
L 106.151198 126.44874 
L 106.151198 126.184055 
L 103.977355 126.184055 
z
" style="fill:#1f77b4;opacity:0.5;"/>
   </g>
   <g id="patch_24">
    <path clip-path="url(#pf9c7739474)" d="M 106.694659 126.44874 
L 108.868502 126.44874 
L 108.868502 126.184055 
L 106.694659 126.184055 
z
" style="fill:#1f77b4;opacity:0.5;"/>
   </g>
   <g id="patch_25">
    <path clip-path="url(#pf9c7739474)" d="M 109.411962 126.44874 
L 111.585805 126.44874 
L 111.585805 125.654686 
L 109.411962 125.654686 
z
" style="fill:#1f77b4;opacity:0.5;"/>
   </g>
   <g id="patch_26">
    <path clip-path="url(#pf9c7739474)" d="M 112.129266 126.44874 
L 114.303109 126.44874 
L 114.303109 125.654686 
L 112.129266 125.654686 
z
" style="fill:#1f77b4;opacity:0.5;"/>
   </g>
   <g id="patch_27">
    <path clip-path="url(#pf9c7739474)" d="M 114.84657 126.44874 
L 117.020413 126.44874 
L 117.020413 125.654686 
L 114.84657 125.654686 
z
" style="fill:#1f77b4;opacity:0.5;"/>
   </g>
   <g id="patch_28">
    <path clip-path="url(#pf9c7739474)" d="M 117.563874 126.44874 
L 119.737717 126.44874 
L 119.737717 124.860632 
L 117.563874 124.860632 
z
" style="fill:#1f77b4;opacity:0.5;"/>
   </g>
   <g id="patch_29">
    <path clip-path="url(#pf9c7739474)" d="M 120.281178 126.44874 
L 122.455021 126.44874 
L 122.455021 124.595948 
L 120.281178 124.595948 
z
" style="fill:#1f77b4;opacity:0.5;"/>
   </g>
   <g id="patch_30">
    <path clip-path="url(#pf9c7739474)" d="M 122.998482 126.44874 
L 125.172325 126.44874 
L 125.172325 124.595948 
L 122.998482 124.595948 
z
" style="fill:#1f77b4;opacity:0.5;"/>
   </g>
   <g id="patch_31">
    <path clip-path="url(#pf9c7739474)" d="M 125.715786 126.44874 
L 127.889629 126.44874 
L 127.889629 124.595948 
L 125.715786 124.595948 
z
" style="fill:#1f77b4;opacity:0.5;"/>
   </g>
   <g id="patch_32">
    <path clip-path="url(#pf9c7739474)" d="M 128.433089 126.44874 
L 130.606932 126.44874 
L 130.606932 124.331263 
L 128.433089 124.331263 
z
" style="fill:#1f77b4;opacity:0.5;"/>
   </g>
   <g id="patch_33">
    <path clip-path="url(#pf9c7739474)" d="M 131.150393 126.44874 
L 133.324236 126.44874 
L 133.324236 123.801894 
L 131.150393 123.801894 
z
" style="fill:#1f77b4;opacity:0.5;"/>
   </g>
   <g id="patch_34">
    <path clip-path="url(#pf9c7739474)" d="M 133.867697 126.44874 
L 136.04154 126.44874 
L 136.04154 123.272524 
L 133.867697 123.272524 
z
" style="fill:#1f77b4;opacity:0.5;"/>
   </g>
   <g id="patch_35">
    <path clip-path="url(#pf9c7739474)" d="M 136.585001 126.44874 
L 138.758844 126.44874 
L 138.758844 122.743155 
L 136.585001 122.743155 
z
" style="fill:#1f77b4;opacity:0.5;"/>
   </g>
   <g id="patch_36">
    <path clip-path="url(#pf9c7739474)" d="M 139.302305 126.44874 
L 141.476148 126.44874 
L 141.476148 122.213786 
L 139.302305 122.213786 
z
" style="fill:#1f77b4;opacity:0.5;"/>
   </g>
   <g id="patch_37">
    <path clip-path="url(#pf9c7739474)" d="M 142.019609 126.44874 
L 144.193452 126.44874 
L 144.193452 121.155047 
L 142.019609 121.155047 
z
" style="fill:#1f77b4;opacity:0.5;"/>
   </g>
   <g id="patch_38">
    <path clip-path="url(#pf9c7739474)" d="M 144.736912 126.44874 
L 146.910756 126.44874 
L 146.910756 120.625678 
L 144.736912 120.625678 
z
" style="fill:#1f77b4;opacity:0.5;"/>
   </g>
   <g id="patch_39">
    <path clip-path="url(#pf9c7739474)" d="M 147.454216 126.44874 
L 149.628059 126.44874 
L 149.628059 119.566939 
L 147.454216 119.566939 
z
" style="fill:#1f77b4;opacity:0.5;"/>
   </g>
   <g id="patch_40">
    <path clip-path="url(#pf9c7739474)" d="M 150.17152 126.44874 
L 152.345363 126.44874 
L 152.345363 119.03757 
L 150.17152 119.03757 
z
" style="fill:#1f77b4;opacity:0.5;"/>
   </g>
   <g id="patch_41">
    <path clip-path="url(#pf9c7739474)" d="M 152.888824 126.44874 
L 155.062667 126.44874 
L 155.062667 117.978831 
L 152.888824 117.978831 
z
" style="fill:#1f77b4;opacity:0.5;"/>
   </g>
   <g id="patch_42">
    <path clip-path="url(#pf9c7739474)" d="M 155.606128 126.44874 
L 157.779971 126.44874 
L 157.779971 115.331984 
L 155.606128 115.331984 
z
" style="fill:#1f77b4;opacity:0.5;"/>
   </g>
   <g id="patch_43">
    <path clip-path="url(#pf9c7739474)" d="M 158.323432 126.44874 
L 160.497275 126.44874 
L 160.497275 114.802615 
L 158.323432 114.802615 
z
" style="fill:#1f77b4;opacity:0.5;"/>
   </g>
   <g id="patch_44">
    <path clip-path="url(#pf9c7739474)" d="M 161.040736 126.44874 
L 163.214579 126.44874 
L 163.214579 113.214507 
L 161.040736 113.214507 
z
" style="fill:#1f77b4;opacity:0.5;"/>
   </g>
   <g id="patch_45">
    <path clip-path="url(#pf9c7739474)" d="M 163.758039 126.44874 
L 165.931882 126.44874 
L 165.931882 111.09703 
L 163.758039 111.09703 
z
" style="fill:#1f77b4;opacity:0.5;"/>
   </g>
   <g id="patch_46">
    <path clip-path="url(#pf9c7739474)" d="M 166.475343 126.44874 
L 168.649186 126.44874 
L 168.649186 110.832345 
L 166.475343 110.832345 
z
" style="fill:#1f77b4;opacity:0.5;"/>
   </g>
   <g id="patch_47">
    <path clip-path="url(#pf9c7739474)" d="M 169.192647 126.44874 
L 171.36649 126.44874 
L 171.36649 108.185498 
L 169.192647 108.185498 
z
" style="fill:#1f77b4;opacity:0.5;"/>
   </g>
   <g id="patch_48">
    <path clip-path="url(#pf9c7739474)" d="M 171.909951 126.44874 
L 174.083794 126.44874 
L 174.083794 105.273967 
L 171.909951 105.273967 
z
" style="fill:#1f77b4;opacity:0.5;"/>
   </g>
   <g id="patch_49">
    <path clip-path="url(#pf9c7739474)" d="M 174.627255 126.44874 
L 176.801098 126.44874 
L 176.801098 103.15649 
L 174.627255 103.15649 
z
" style="fill:#1f77b4;opacity:0.5;"/>
   </g>
   <g id="patch_50">
    <path clip-path="url(#pf9c7739474)" d="M 177.344559 126.44874 
L 179.518402 126.44874 
L 179.518402 102.097751 
L 177.344559 102.097751 
z
" style="fill:#1f77b4;opacity:0.5;"/>
   </g>
   <g id="patch_51">
    <path clip-path="url(#pf9c7739474)" d="M 180.061862 126.44874 
L 182.235706 126.44874 
L 182.235706 100.509643 
L 180.061862 100.509643 
z
" style="fill:#1f77b4;opacity:0.5;"/>
   </g>
   <g id="patch_52">
    <path clip-path="url(#pf9c7739474)" d="M 182.779166 126.44874 
L 184.953009 126.44874 
L 184.953009 99.18622 
L 182.779166 99.18622 
z
" style="fill:#1f77b4;opacity:0.5;"/>
   </g>
   <g id="patch_53">
    <path clip-path="url(#pf9c7739474)" d="M 185.49647 126.44874 
L 187.670313 126.44874 
L 187.670313 96.274688 
L 185.49647 96.274688 
z
" style="fill:#1f77b4;opacity:0.5;"/>
   </g>
   <g id="patch_54">
    <path clip-path="url(#pf9c7739474)" d="M 188.213774 126.44874 
L 190.387617 126.44874 
L 190.387617 92.833788 
L 188.213774 92.833788 
z
" style="fill:#1f77b4;opacity:0.5;"/>
   </g>
   <g id="patch_55">
    <path clip-path="url(#pf9c7739474)" d="M 190.931078 126.44874 
L 193.104921 126.44874 
L 193.104921 92.039734 
L 190.931078 92.039734 
z
" style="fill:#1f77b4;opacity:0.5;"/>
   </g>
   <g id="patch_56">
    <path clip-path="url(#pf9c7739474)" d="M 193.648382 126.44874 
L 195.822225 126.44874 
L 195.822225 90.451626 
L 193.648382 90.451626 
z
" style="fill:#1f77b4;opacity:0.5;"/>
   </g>
   <g id="patch_57">
    <path clip-path="url(#pf9c7739474)" d="M 196.365686 126.44874 
L 198.539529 126.44874 
L 198.539529 90.451626 
L 196.365686 90.451626 
z
" style="fill:#1f77b4;opacity:0.5;"/>
   </g>
   <g id="patch_58">
    <path clip-path="url(#pf9c7739474)" d="M 199.082989 126.44874 
L 201.256832 126.44874 
L 201.256832 87.27541 
L 199.082989 87.27541 
z
" style="fill:#1f77b4;opacity:0.5;"/>
   </g>
   <g id="matplotlib.axis_1">
    <g id="xtick_1">
     <g id="line2d_1">
      <defs>
       <path d="M 0 0 
L 0 3.5 
" id="m24e345f33a" style="stroke:#000000;stroke-width:0.8;"/>
      </defs>
      <g>
       <use style="stroke:#000000;stroke-width:0.8;" x="200.169911" xlink:href="#m24e345f33a" y="126.44874"/>
      </g>
     </g>
     <g id="text_1">
      <!-- 19 Apr -->
      <defs>
       <path d="M 12.40625 8.296875 
L 28.515625 8.296875 
L 28.515625 63.921875 
L 10.984375 60.40625 
L 10.984375 69.390625 
L 28.421875 72.90625 
L 38.28125 72.90625 
L 38.28125 8.296875 
L 54.390625 8.296875 
L 54.390625 0 
L 12.40625 0 
z
" id="DejaVuSans-49"/>
       <path d="M 10.984375 1.515625 
L 10.984375 10.5 
Q 14.703125 8.734375 18.5 7.8125 
Q 22.3125 6.890625 25.984375 6.890625 
Q 35.75 6.890625 40.890625 13.453125 
Q 46.046875 20.015625 46.78125 33.40625 
Q 43.953125 29.203125 39.59375 26.953125 
Q 35.25 24.703125 29.984375 24.703125 
Q 19.046875 24.703125 12.671875 31.3125 
Q 6.296875 37.9375 6.296875 49.421875 
Q 6.296875 60.640625 12.9375 67.421875 
Q 19.578125 74.21875 30.609375 74.21875 
Q 43.265625 74.21875 49.921875 64.515625 
Q 56.59375 54.828125 56.59375 36.375 
Q 56.59375 19.140625 48.40625 8.859375 
Q 40.234375 -1.421875 26.421875 -1.421875 
Q 22.703125 -1.421875 18.890625 -0.6875 
Q 15.09375 0.046875 10.984375 1.515625 
z
M 30.609375 32.421875 
Q 37.25 32.421875 41.125 36.953125 
Q 45.015625 41.5 45.015625 49.421875 
Q 45.015625 57.28125 41.125 61.84375 
Q 37.25 66.40625 30.609375 66.40625 
Q 23.96875 66.40625 20.09375 61.84375 
Q 16.21875 57.28125 16.21875 49.421875 
Q 16.21875 41.5 20.09375 36.953125 
Q 23.96875 32.421875 30.609375 32.421875 
z
" id="DejaVuSans-57"/>
       <path id="DejaVuSans-32"/>
       <path d="M 34.1875 63.1875 
L 20.796875 26.90625 
L 47.609375 26.90625 
z
M 28.609375 72.90625 
L 39.796875 72.90625 
L 67.578125 0 
L 57.328125 0 
L 50.6875 18.703125 
L 17.828125 18.703125 
L 11.1875 0 
L 0.78125 0 
z
" id="DejaVuSans-65"/>
       <path d="M 18.109375 8.203125 
L 18.109375 -20.796875 
L 9.078125 -20.796875 
L 9.078125 54.6875 
L 18.109375 54.6875 
L 18.109375 46.390625 
Q 20.953125 51.265625 25.265625 53.625 
Q 29.59375 56 35.59375 56 
Q 45.5625 56 51.78125 48.09375 
Q 58.015625 40.1875 58.015625 27.296875 
Q 58.015625 14.40625 51.78125 6.484375 
Q 45.5625 -1.421875 35.59375 -1.421875 
Q 29.59375 -1.421875 25.265625 0.953125 
Q 20.953125 3.328125 18.109375 8.203125 
z
M 48.6875 27.296875 
Q 48.6875 37.203125 44.609375 42.84375 
Q 40.53125 48.484375 33.40625 48.484375 
Q 26.265625 48.484375 22.1875 42.84375 
Q 18.109375 37.203125 18.109375 27.296875 
Q 18.109375 17.390625 22.1875 11.75 
Q 26.265625 6.109375 33.40625 6.109375 
Q 40.53125 6.109375 44.609375 11.75 
Q 48.6875 17.390625 48.6875 27.296875 
z
" id="DejaVuSans-112"/>
       <path d="M 41.109375 46.296875 
Q 39.59375 47.171875 37.8125 47.578125 
Q 36.03125 48 33.890625 48 
Q 26.265625 48 22.1875 43.046875 
Q 18.109375 38.09375 18.109375 28.8125 
L 18.109375 0 
L 9.078125 0 
L 9.078125 54.6875 
L 18.109375 54.6875 
L 18.109375 46.1875 
Q 20.953125 51.171875 25.484375 53.578125 
Q 30.03125 56 36.53125 56 
Q 37.453125 56 38.578125 55.875 
Q 39.703125 55.765625 41.0625 55.515625 
z
" id="DejaVuSans-114"/>
      </defs>
      <g transform="translate(202.377411 160.01124)rotate(-90)scale(0.08 -0.08)">
       <use xlink:href="#DejaVuSans-49"/>
       <use x="63.623047" xlink:href="#DejaVuSans-57"/>
       <use x="127.246094" xlink:href="#DejaVuSans-32"/>
       <use x="159.033203" xlink:href="#DejaVuSans-65"/>
       <use x="227.441406" xlink:href="#DejaVuSans-112"/>
       <use x="290.917969" xlink:href="#DejaVuSans-114"/>
      </g>
     </g>
    </g>
    <g id="xtick_2">
     <g id="line2d_2">
      <g>
       <use style="stroke:#000000;stroke-width:0.8;" x="181.148784" xlink:href="#m24e345f33a" y="126.44874"/>
      </g>
     </g>
     <g id="text_2">
      <!-- 12 Apr -->
      <defs>
       <path d="M 19.1875 8.296875 
L 53.609375 8.296875 
L 53.609375 0 
L 7.328125 0 
L 7.328125 8.296875 
Q 12.9375 14.109375 22.625 23.890625 
Q 32.328125 33.6875 34.8125 36.53125 
Q 39.546875 41.84375 41.421875 45.53125 
Q 43.3125 49.21875 43.3125 52.78125 
Q 43.3125 58.59375 39.234375 62.25 
Q 35.15625 65.921875 28.609375 65.921875 
Q 23.96875 65.921875 18.8125 64.3125 
Q 13.671875 62.703125 7.8125 59.421875 
L 7.8125 69.390625 
Q 13.765625 71.78125 18.9375 73 
Q 24.125 74.21875 28.421875 74.21875 
Q 39.75 74.21875 46.484375 68.546875 
Q 53.21875 62.890625 53.21875 53.421875 
Q 53.21875 48.921875 51.53125 44.890625 
Q 49.859375 40.875 45.40625 35.40625 
Q 44.1875 33.984375 37.640625 27.21875 
Q 31.109375 20.453125 19.1875 8.296875 
z
" id="DejaVuSans-50"/>
      </defs>
      <g transform="translate(183.356284 160.01124)rotate(-90)scale(0.08 -0.08)">
       <use xlink:href="#DejaVuSans-49"/>
       <use x="63.623047" xlink:href="#DejaVuSans-50"/>
       <use x="127.246094" xlink:href="#DejaVuSans-32"/>
       <use x="159.033203" xlink:href="#DejaVuSans-65"/>
       <use x="227.441406" xlink:href="#DejaVuSans-112"/>
       <use x="290.917969" xlink:href="#DejaVuSans-114"/>
      </g>
     </g>
    </g>
    <g id="xtick_3">
     <g id="line2d_3">
      <g>
       <use style="stroke:#000000;stroke-width:0.8;" x="162.127657" xlink:href="#m24e345f33a" y="126.44874"/>
      </g>
     </g>
     <g id="text_3">
      <!-- 5 Apr -->
      <defs>
       <path d="M 10.796875 72.90625 
L 49.515625 72.90625 
L 49.515625 64.59375 
L 19.828125 64.59375 
L 19.828125 46.734375 
Q 21.96875 47.46875 24.109375 47.828125 
Q 26.265625 48.1875 28.421875 48.1875 
Q 40.625 48.1875 47.75 41.5 
Q 54.890625 34.8125 54.890625 23.390625 
Q 54.890625 11.625 47.5625 5.09375 
Q 40.234375 -1.421875 26.90625 -1.421875 
Q 22.3125 -1.421875 17.546875 -0.640625 
Q 12.796875 0.140625 7.71875 1.703125 
L 7.71875 11.625 
Q 12.109375 9.234375 16.796875 8.0625 
Q 21.484375 6.890625 26.703125 6.890625 
Q 35.15625 6.890625 40.078125 11.328125 
Q 45.015625 15.765625 45.015625 23.390625 
Q 45.015625 31 40.078125 35.4375 
Q 35.15625 39.890625 26.703125 39.890625 
Q 22.75 39.890625 18.8125 39.015625 
Q 14.890625 38.140625 10.796875 36.28125 
z
" id="DejaVuSans-53"/>
      </defs>
      <g transform="translate(164.335157 154.92124)rotate(-90)scale(0.08 -0.08)">
       <use xlink:href="#DejaVuSans-53"/>
       <use x="63.623047" xlink:href="#DejaVuSans-32"/>
       <use x="95.410156" xlink:href="#DejaVuSans-65"/>
       <use x="163.818359" xlink:href="#DejaVuSans-112"/>
       <use x="227.294922" xlink:href="#DejaVuSans-114"/>
      </g>
     </g>
    </g>
    <g id="xtick_4">
     <g id="line2d_4">
      <g>
       <use style="stroke:#000000;stroke-width:0.8;" x="143.10653" xlink:href="#m24e345f33a" y="126.44874"/>
      </g>
     </g>
     <g id="text_4">
      <!-- 29 Mar -->
      <defs>
       <path d="M 9.8125 72.90625 
L 24.515625 72.90625 
L 43.109375 23.296875 
L 61.8125 72.90625 
L 76.515625 72.90625 
L 76.515625 0 
L 66.890625 0 
L 66.890625 64.015625 
L 48.09375 14.015625 
L 38.1875 14.015625 
L 19.390625 64.015625 
L 19.390625 0 
L 9.8125 0 
z
" id="DejaVuSans-77"/>
       <path d="M 34.28125 27.484375 
Q 23.390625 27.484375 19.1875 25 
Q 14.984375 22.515625 14.984375 16.5 
Q 14.984375 11.71875 18.140625 8.90625 
Q 21.296875 6.109375 26.703125 6.109375 
Q 34.1875 6.109375 38.703125 11.40625 
Q 43.21875 16.703125 43.21875 25.484375 
L 43.21875 27.484375 
z
M 52.203125 31.203125 
L 52.203125 0 
L 43.21875 0 
L 43.21875 8.296875 
Q 40.140625 3.328125 35.546875 0.953125 
Q 30.953125 -1.421875 24.3125 -1.421875 
Q 15.921875 -1.421875 10.953125 3.296875 
Q 6 8.015625 6 15.921875 
Q 6 25.140625 12.171875 29.828125 
Q 18.359375 34.515625 30.609375 34.515625 
L 43.21875 34.515625 
L 43.21875 35.40625 
Q 43.21875 41.609375 39.140625 45 
Q 35.0625 48.390625 27.6875 48.390625 
Q 23 48.390625 18.546875 47.265625 
Q 14.109375 46.140625 10.015625 43.890625 
L 10.015625 52.203125 
Q 14.9375 54.109375 19.578125 55.046875 
Q 24.21875 56 28.609375 56 
Q 40.484375 56 46.34375 49.84375 
Q 52.203125 43.703125 52.203125 31.203125 
z
" id="DejaVuSans-97"/>
      </defs>
      <g transform="translate(145.31403 161.26499)rotate(-90)scale(0.08 -0.08)">
       <use xlink:href="#DejaVuSans-50"/>
       <use x="63.623047" xlink:href="#DejaVuSans-57"/>
       <use x="127.246094" xlink:href="#DejaVuSans-32"/>
       <use x="159.033203" xlink:href="#DejaVuSans-77"/>
       <use x="245.3125" xlink:href="#DejaVuSans-97"/>
       <use x="306.591797" xlink:href="#DejaVuSans-114"/>
      </g>
     </g>
    </g>
    <g id="xtick_5">
     <g id="line2d_5">
      <g>
       <use style="stroke:#000000;stroke-width:0.8;" x="124.085403" xlink:href="#m24e345f33a" y="126.44874"/>
      </g>
     </g>
     <g id="text_5">
      <!-- 22 Mar -->
      <g transform="translate(126.292903 161.26499)rotate(-90)scale(0.08 -0.08)">
       <use xlink:href="#DejaVuSans-50"/>
       <use x="63.623047" xlink:href="#DejaVuSans-50"/>
       <use x="127.246094" xlink:href="#DejaVuSans-32"/>
       <use x="159.033203" xlink:href="#DejaVuSans-77"/>
       <use x="245.3125" xlink:href="#DejaVuSans-97"/>
       <use x="306.591797" xlink:href="#DejaVuSans-114"/>
      </g>
     </g>
    </g>
    <g id="xtick_6">
     <g id="line2d_6">
      <g>
       <use style="stroke:#000000;stroke-width:0.8;" x="105.064276" xlink:href="#m24e345f33a" y="126.44874"/>
      </g>
     </g>
     <g id="text_6">
      <!-- 15 Mar -->
      <g transform="translate(107.271776 161.26499)rotate(-90)scale(0.08 -0.08)">
       <use xlink:href="#DejaVuSans-49"/>
       <use x="63.623047" xlink:href="#DejaVuSans-53"/>
       <use x="127.246094" xlink:href="#DejaVuSans-32"/>
       <use x="159.033203" xlink:href="#DejaVuSans-77"/>
       <use x="245.3125" xlink:href="#DejaVuSans-97"/>
       <use x="306.591797" xlink:href="#DejaVuSans-114"/>
      </g>
     </g>
    </g>
    <g id="xtick_7">
     <g id="line2d_7">
      <g>
       <use style="stroke:#000000;stroke-width:0.8;" x="86.043149" xlink:href="#m24e345f33a" y="126.44874"/>
      </g>
     </g>
     <g id="text_7">
      <!-- 8 Mar -->
      <defs>
       <path d="M 31.78125 34.625 
Q 24.75 34.625 20.71875 30.859375 
Q 16.703125 27.09375 16.703125 20.515625 
Q 16.703125 13.921875 20.71875 10.15625 
Q 24.75 6.390625 31.78125 6.390625 
Q 38.8125 6.390625 42.859375 10.171875 
Q 46.921875 13.96875 46.921875 20.515625 
Q 46.921875 27.09375 42.890625 30.859375 
Q 38.875 34.625 31.78125 34.625 
z
M 21.921875 38.8125 
Q 15.578125 40.375 12.03125 44.71875 
Q 8.5 49.078125 8.5 55.328125 
Q 8.5 64.0625 14.71875 69.140625 
Q 20.953125 74.21875 31.78125 74.21875 
Q 42.671875 74.21875 48.875 69.140625 
Q 55.078125 64.0625 55.078125 55.328125 
Q 55.078125 49.078125 51.53125 44.71875 
Q 48 40.375 41.703125 38.8125 
Q 48.828125 37.15625 52.796875 32.3125 
Q 56.78125 27.484375 56.78125 20.515625 
Q 56.78125 9.90625 50.3125 4.234375 
Q 43.84375 -1.421875 31.78125 -1.421875 
Q 19.734375 -1.421875 13.25 4.234375 
Q 6.78125 9.90625 6.78125 20.515625 
Q 6.78125 27.484375 10.78125 32.3125 
Q 14.796875 37.15625 21.921875 38.8125 
z
M 18.3125 54.390625 
Q 18.3125 48.734375 21.84375 45.5625 
Q 25.390625 42.390625 31.78125 42.390625 
Q 38.140625 42.390625 41.71875 45.5625 
Q 45.3125 48.734375 45.3125 54.390625 
Q 45.3125 60.0625 41.71875 63.234375 
Q 38.140625 66.40625 31.78125 66.40625 
Q 25.390625 66.40625 21.84375 63.234375 
Q 18.3125 60.0625 18.3125 54.390625 
z
" id="DejaVuSans-56"/>
      </defs>
      <g transform="translate(88.250649 156.17499)rotate(-90)scale(0.08 -0.08)">
       <use xlink:href="#DejaVuSans-56"/>
       <use x="63.623047" xlink:href="#DejaVuSans-32"/>
       <use x="95.410156" xlink:href="#DejaVuSans-77"/>
       <use x="181.689453" xlink:href="#DejaVuSans-97"/>
       <use x="242.96875" xlink:href="#DejaVuSans-114"/>
      </g>
     </g>
    </g>
    <g id="xtick_8">
     <g id="line2d_8">
      <g>
       <use style="stroke:#000000;stroke-width:0.8;" x="67.022022" xlink:href="#m24e345f33a" y="126.44874"/>
      </g>
     </g>
     <g id="text_8">
      <!-- 1 Mar -->
      <g transform="translate(69.229522 156.17499)rotate(-90)scale(0.08 -0.08)">
       <use xlink:href="#DejaVuSans-49"/>
       <use x="63.623047" xlink:href="#DejaVuSans-32"/>
       <use x="95.410156" xlink:href="#DejaVuSans-77"/>
       <use x="181.689453" xlink:href="#DejaVuSans-97"/>
       <use x="242.96875" xlink:href="#DejaVuSans-114"/>
      </g>
     </g>
    </g>
   </g>
   <g id="matplotlib.axis_2">
    <g id="ytick_1">
     <g id="line2d_9">
      <defs>
       <path d="M 0 0 
L -3.5 0 
" id="mb3237a125e" style="stroke:#000000;stroke-width:0.8;"/>
      </defs>
      <g>
       <use style="stroke:#000000;stroke-width:0.8;" x="42.05" xlink:href="#mb3237a125e" y="126.44874"/>
      </g>
     </g>
     <g id="text_9">
      <!-- 0 -->
      <defs>
       <path d="M 31.78125 66.40625 
Q 24.171875 66.40625 20.328125 58.90625 
Q 16.5 51.421875 16.5 36.375 
Q 16.5 21.390625 20.328125 13.890625 
Q 24.171875 6.390625 31.78125 6.390625 
Q 39.453125 6.390625 43.28125 13.890625 
Q 47.125 21.390625 47.125 36.375 
Q 47.125 51.421875 43.28125 58.90625 
Q 39.453125 66.40625 31.78125 66.40625 
z
M 31.78125 74.21875 
Q 44.046875 74.21875 50.515625 64.515625 
Q 56.984375 54.828125 56.984375 36.375 
Q 56.984375 17.96875 50.515625 8.265625 
Q 44.046875 -1.421875 31.78125 -1.421875 
Q 19.53125 -1.421875 13.0625 8.265625 
Q 6.59375 17.96875 6.59375 36.375 
Q 6.59375 54.828125 13.0625 64.515625 
Q 19.53125 74.21875 31.78125 74.21875 
z
" id="DejaVuSans-48"/>
      </defs>
      <g transform="translate(29.96 129.488115)scale(0.08 -0.08)">
       <use xlink:href="#DejaVuSans-48"/>
      </g>
     </g>
    </g>
    <g id="ytick_2">
     <g id="line2d_10">
      <g>
       <use style="stroke:#000000;stroke-width:0.8;" x="42.05" xlink:href="#mb3237a125e" y="99.980274"/>
      </g>
     </g>
     <g id="text_10">
      <!-- 100 -->
      <g transform="translate(19.78 103.019649)scale(0.08 -0.08)">
       <use xlink:href="#DejaVuSans-49"/>
       <use x="63.623047" xlink:href="#DejaVuSans-48"/>
       <use x="127.246094" xlink:href="#DejaVuSans-48"/>
      </g>
     </g>
    </g>
    <g id="ytick_3">
     <g id="line2d_11">
      <g>
       <use style="stroke:#000000;stroke-width:0.8;" x="42.05" xlink:href="#mb3237a125e" y="73.511807"/>
      </g>
     </g>
     <g id="text_11">
      <!-- 200 -->
      <g transform="translate(19.78 76.551182)scale(0.08 -0.08)">
       <use xlink:href="#DejaVuSans-50"/>
       <use x="63.623047" xlink:href="#DejaVuSans-48"/>
       <use x="127.246094" xlink:href="#DejaVuSans-48"/>
      </g>
     </g>
    </g>
    <g id="ytick_4">
     <g id="line2d_12">
      <g>
       <use style="stroke:#000000;stroke-width:0.8;" x="42.05" xlink:href="#mb3237a125e" y="47.043341"/>
      </g>
     </g>
     <g id="text_12">
      <!-- 300 -->
      <defs>
       <path d="M 40.578125 39.3125 
Q 47.65625 37.796875 51.625 33 
Q 55.609375 28.21875 55.609375 21.1875 
Q 55.609375 10.40625 48.1875 4.484375 
Q 40.765625 -1.421875 27.09375 -1.421875 
Q 22.515625 -1.421875 17.65625 -0.515625 
Q 12.796875 0.390625 7.625 2.203125 
L 7.625 11.71875 
Q 11.71875 9.328125 16.59375 8.109375 
Q 21.484375 6.890625 26.8125 6.890625 
Q 36.078125 6.890625 40.9375 10.546875 
Q 45.796875 14.203125 45.796875 21.1875 
Q 45.796875 27.640625 41.28125 31.265625 
Q 36.765625 34.90625 28.71875 34.90625 
L 20.21875 34.90625 
L 20.21875 43.015625 
L 29.109375 43.015625 
Q 36.375 43.015625 40.234375 45.921875 
Q 44.09375 48.828125 44.09375 54.296875 
Q 44.09375 59.90625 40.109375 62.90625 
Q 36.140625 65.921875 28.71875 65.921875 
Q 24.65625 65.921875 20.015625 65.03125 
Q 15.375 64.15625 9.8125 62.3125 
L 9.8125 71.09375 
Q 15.4375 72.65625 20.34375 73.4375 
Q 25.25 74.21875 29.59375 74.21875 
Q 40.828125 74.21875 47.359375 69.109375 
Q 53.90625 64.015625 53.90625 55.328125 
Q 53.90625 49.265625 50.4375 45.09375 
Q 46.96875 40.921875 40.578125 39.3125 
z
" id="DejaVuSans-51"/>
      </defs>
      <g transform="translate(19.78 50.082716)scale(0.08 -0.08)">
       <use xlink:href="#DejaVuSans-51"/>
       <use x="63.623047" xlink:href="#DejaVuSans-48"/>
       <use x="127.246094" xlink:href="#DejaVuSans-48"/>
      </g>
     </g>
    </g>
    <g id="ytick_5">
     <g id="line2d_13">
      <g>
       <use style="stroke:#000000;stroke-width:0.8;" x="42.05" xlink:href="#mb3237a125e" y="20.574874"/>
      </g>
     </g>
     <g id="text_13">
      <!-- 400 -->
      <defs>
       <path d="M 37.796875 64.3125 
L 12.890625 25.390625 
L 37.796875 25.390625 
z
M 35.203125 72.90625 
L 47.609375 72.90625 
L 47.609375 25.390625 
L 58.015625 25.390625 
L 58.015625 17.1875 
L 47.609375 17.1875 
L 47.609375 0 
L 37.796875 0 
L 37.796875 17.1875 
L 4.890625 17.1875 
L 4.890625 26.703125 
z
" id="DejaVuSans-52"/>
      </defs>
      <g transform="translate(19.78 23.614249)scale(0.08 -0.08)">
       <use xlink:href="#DejaVuSans-52"/>
       <use x="63.623047" xlink:href="#DejaVuSans-48"/>
       <use x="127.246094" xlink:href="#DejaVuSans-48"/>
      </g>
     </g>
    </g>
    <g id="text_14">
     <!-- Cumulative deaths -->
     <defs>
      <path d="M 64.40625 67.28125 
L 64.40625 56.890625 
Q 59.421875 61.53125 53.78125 63.8125 
Q 48.140625 66.109375 41.796875 66.109375 
Q 29.296875 66.109375 22.65625 58.46875 
Q 16.015625 50.828125 16.015625 36.375 
Q 16.015625 21.96875 22.65625 14.328125 
Q 29.296875 6.6875 41.796875 6.6875 
Q 48.140625 6.6875 53.78125 8.984375 
Q 59.421875 11.28125 64.40625 15.921875 
L 64.40625 5.609375 
Q 59.234375 2.09375 53.4375 0.328125 
Q 47.65625 -1.421875 41.21875 -1.421875 
Q 24.65625 -1.421875 15.125 8.703125 
Q 5.609375 18.84375 5.609375 36.375 
Q 5.609375 53.953125 15.125 64.078125 
Q 24.65625 74.21875 41.21875 74.21875 
Q 47.75 74.21875 53.53125 72.484375 
Q 59.328125 70.75 64.40625 67.28125 
z
" id="DejaVuSans-67"/>
      <path d="M 8.5 21.578125 
L 8.5 54.6875 
L 17.484375 54.6875 
L 17.484375 21.921875 
Q 17.484375 14.15625 20.5 10.265625 
Q 23.53125 6.390625 29.59375 6.390625 
Q 36.859375 6.390625 41.078125 11.03125 
Q 45.3125 15.671875 45.3125 23.6875 
L 45.3125 54.6875 
L 54.296875 54.6875 
L 54.296875 0 
L 45.3125 0 
L 45.3125 8.40625 
Q 42.046875 3.421875 37.71875 1 
Q 33.40625 -1.421875 27.6875 -1.421875 
Q 18.265625 -1.421875 13.375 4.4375 
Q 8.5 10.296875 8.5 21.578125 
z
M 31.109375 56 
z
" id="DejaVuSans-117"/>
      <path d="M 52 44.1875 
Q 55.375 50.25 60.0625 53.125 
Q 64.75 56 71.09375 56 
Q 79.640625 56 84.28125 50.015625 
Q 88.921875 44.046875 88.921875 33.015625 
L 88.921875 0 
L 79.890625 0 
L 79.890625 32.71875 
Q 79.890625 40.578125 77.09375 44.375 
Q 74.3125 48.1875 68.609375 48.1875 
Q 61.625 48.1875 57.5625 43.546875 
Q 53.515625 38.921875 53.515625 30.90625 
L 53.515625 0 
L 44.484375 0 
L 44.484375 32.71875 
Q 44.484375 40.625 41.703125 44.40625 
Q 38.921875 48.1875 33.109375 48.1875 
Q 26.21875 48.1875 22.15625 43.53125 
Q 18.109375 38.875 18.109375 30.90625 
L 18.109375 0 
L 9.078125 0 
L 9.078125 54.6875 
L 18.109375 54.6875 
L 18.109375 46.1875 
Q 21.1875 51.21875 25.484375 53.609375 
Q 29.78125 56 35.6875 56 
Q 41.65625 56 45.828125 52.96875 
Q 50 49.953125 52 44.1875 
z
" id="DejaVuSans-109"/>
      <path d="M 9.421875 75.984375 
L 18.40625 75.984375 
L 18.40625 0 
L 9.421875 0 
z
" id="DejaVuSans-108"/>
      <path d="M 18.3125 70.21875 
L 18.3125 54.6875 
L 36.8125 54.6875 
L 36.8125 47.703125 
L 18.3125 47.703125 
L 18.3125 18.015625 
Q 18.3125 11.328125 20.140625 9.421875 
Q 21.96875 7.515625 27.59375 7.515625 
L 36.8125 7.515625 
L 36.8125 0 
L 27.59375 0 
Q 17.1875 0 13.234375 3.875 
Q 9.28125 7.765625 9.28125 18.015625 
L 9.28125 47.703125 
L 2.6875 47.703125 
L 2.6875 54.6875 
L 9.28125 54.6875 
L 9.28125 70.21875 
z
" id="DejaVuSans-116"/>
      <path d="M 9.421875 54.6875 
L 18.40625 54.6875 
L 18.40625 0 
L 9.421875 0 
z
M 9.421875 75.984375 
L 18.40625 75.984375 
L 18.40625 64.59375 
L 9.421875 64.59375 
z
" id="DejaVuSans-105"/>
      <path d="M 2.984375 54.6875 
L 12.5 54.6875 
L 29.59375 8.796875 
L 46.6875 54.6875 
L 56.203125 54.6875 
L 35.6875 0 
L 23.484375 0 
z
" id="DejaVuSans-118"/>
      <path d="M 56.203125 29.59375 
L 56.203125 25.203125 
L 14.890625 25.203125 
Q 15.484375 15.921875 20.484375 11.0625 
Q 25.484375 6.203125 34.421875 6.203125 
Q 39.59375 6.203125 44.453125 7.46875 
Q 49.3125 8.734375 54.109375 11.28125 
L 54.109375 2.78125 
Q 49.265625 0.734375 44.1875 -0.34375 
Q 39.109375 -1.421875 33.890625 -1.421875 
Q 20.796875 -1.421875 13.15625 6.1875 
Q 5.515625 13.8125 5.515625 26.8125 
Q 5.515625 40.234375 12.765625 48.109375 
Q 20.015625 56 32.328125 56 
Q 43.359375 56 49.78125 48.890625 
Q 56.203125 41.796875 56.203125 29.59375 
z
M 47.21875 32.234375 
Q 47.125 39.59375 43.09375 43.984375 
Q 39.0625 48.390625 32.421875 48.390625 
Q 24.90625 48.390625 20.390625 44.140625 
Q 15.875 39.890625 15.1875 32.171875 
z
" id="DejaVuSans-101"/>
      <path d="M 45.40625 46.390625 
L 45.40625 75.984375 
L 54.390625 75.984375 
L 54.390625 0 
L 45.40625 0 
L 45.40625 8.203125 
Q 42.578125 3.328125 38.25 0.953125 
Q 33.9375 -1.421875 27.875 -1.421875 
Q 17.96875 -1.421875 11.734375 6.484375 
Q 5.515625 14.40625 5.515625 27.296875 
Q 5.515625 40.1875 11.734375 48.09375 
Q 17.96875 56 27.875 56 
Q 33.9375 56 38.25 53.625 
Q 42.578125 51.265625 45.40625 46.390625 
z
M 14.796875 27.296875 
Q 14.796875 17.390625 18.875 11.75 
Q 22.953125 6.109375 30.078125 6.109375 
Q 37.203125 6.109375 41.296875 11.75 
Q 45.40625 17.390625 45.40625 27.296875 
Q 45.40625 37.203125 41.296875 42.84375 
Q 37.203125 48.484375 30.078125 48.484375 
Q 22.953125 48.484375 18.875 42.84375 
Q 14.796875 37.203125 14.796875 27.296875 
z
" id="DejaVuSans-100"/>
      <path d="M 54.890625 33.015625 
L 54.890625 0 
L 45.90625 0 
L 45.90625 32.71875 
Q 45.90625 40.484375 42.875 44.328125 
Q 39.84375 48.1875 33.796875 48.1875 
Q 26.515625 48.1875 22.3125 43.546875 
Q 18.109375 38.921875 18.109375 30.90625 
L 18.109375 0 
L 9.078125 0 
L 9.078125 75.984375 
L 18.109375 75.984375 
L 18.109375 46.1875 
Q 21.34375 51.125 25.703125 53.5625 
Q 30.078125 56 35.796875 56 
Q 45.21875 56 50.046875 50.171875 
Q 54.890625 44.34375 54.890625 33.015625 
z
" id="DejaVuSans-104"/>
      <path d="M 44.28125 53.078125 
L 44.28125 44.578125 
Q 40.484375 46.53125 36.375 47.5 
Q 32.28125 48.484375 27.875 48.484375 
Q 21.1875 48.484375 17.84375 46.4375 
Q 14.5 44.390625 14.5 40.28125 
Q 14.5 37.15625 16.890625 35.375 
Q 19.28125 33.59375 26.515625 31.984375 
L 29.59375 31.296875 
Q 39.15625 29.25 43.1875 25.515625 
Q 47.21875 21.78125 47.21875 15.09375 
Q 47.21875 7.46875 41.1875 3.015625 
Q 35.15625 -1.421875 24.609375 -1.421875 
Q 20.21875 -1.421875 15.453125 -0.5625 
Q 10.6875 0.296875 5.421875 2 
L 5.421875 11.28125 
Q 10.40625 8.6875 15.234375 7.390625 
Q 20.0625 6.109375 24.8125 6.109375 
Q 31.15625 6.109375 34.5625 8.28125 
Q 37.984375 10.453125 37.984375 14.40625 
Q 37.984375 18.0625 35.515625 20.015625 
Q 33.0625 21.96875 24.703125 23.78125 
L 21.578125 24.515625 
Q 13.234375 26.265625 9.515625 29.90625 
Q 5.8125 33.546875 5.8125 39.890625 
Q 5.8125 47.609375 11.28125 51.796875 
Q 16.75 56 26.8125 56 
Q 31.78125 56 36.171875 55.265625 
Q 40.578125 54.546875 44.28125 53.078125 
z
" id="DejaVuSans-115"/>
     </defs>
     <g transform="translate(14.11625 106.72437)rotate(-90)scale(0.08 -0.08)">
      <use xlink:href="#DejaVuSans-67"/>
      <use x="69.824219" xlink:href="#DejaVuSans-117"/>
      <use x="133.203125" xlink:href="#DejaVuSans-109"/>
      <use x="230.615234" xlink:href="#DejaVuSans-117"/>
      <use x="293.994141" xlink:href="#DejaVuSans-108"/>
      <use x="321.777344" xlink:href="#DejaVuSans-97"/>
      <use x="383.056641" xlink:href="#DejaVuSans-116"/>
      <use x="422.265625" xlink:href="#DejaVuSans-105"/>
      <use x="450.048828" xlink:href="#DejaVuSans-118"/>
      <use x="509.228516" xlink:href="#DejaVuSans-101"/>
      <use x="570.751953" xlink:href="#DejaVuSans-32"/>
      <use x="602.539062" xlink:href="#DejaVuSans-100"/>
      <use x="666.015625" xlink:href="#DejaVuSans-101"/>
      <use x="727.539062" xlink:href="#DejaVuSans-97"/>
      <use x="788.818359" xlink:href="#DejaVuSans-116"/>
      <use x="828.027344" xlink:href="#DejaVuSans-104"/>
      <use x="891.40625" xlink:href="#DejaVuSans-115"/>
     </g>
    </g>
   </g>
   <g id="line2d_14">
    <path clip-path="url(#pf9c7739474)" d="M 50.718199 126.44874 
L 53.435503 126.44874 
L 56.152807 126.44871 
L 58.870111 126.448579 
L 61.587415 126.448212 
L 64.304719 126.44741 
L 67.022022 126.445903 
L 69.739326 126.44337 
L 72.45663 126.439439 
L 75.173934 126.43369 
L 77.891238 126.425657 
L 80.608542 126.414821 
L 83.325845 126.400596 
L 86.043149 126.382311 
L 88.760453 126.359201 
L 91.477757 126.330397 
L 94.195061 126.294897 
L 96.912365 126.251538 
L 99.629669 126.198894 
L 102.346972 126.13404 
L 105.064276 126.053187 
L 107.78158 125.951269 
L 110.498884 125.822728 
L 113.216188 125.661659 
L 115.933492 125.462308 
L 118.650795 125.219164 
L 121.368099 124.927011 
L 124.085403 124.580967 
L 126.802707 124.176341 
L 129.520011 123.709011 
L 132.237315 123.175133 
L 134.954619 122.571287 
L 137.671922 121.89428 
L 140.389226 121.14091 
L 143.10653 120.307732 
" style="fill:none;stroke:#0000ff;stroke-linecap:square;stroke-opacity:0.5;"/>
   </g>
   <g id="line2d_15">
    <path clip-path="url(#pf9c7739474)" d="M 145.823834 119.39072 
L 148.541138 118.385815 
L 151.258442 117.28905 
L 153.975746 116.097075 
L 156.693049 114.807451 
L 159.410353 113.418804 
L 162.127657 111.930856 
L 164.844961 110.344374 
L 167.562265 108.661049 
L 170.279569 106.883344 
L 172.996872 105.01432 
L 175.714176 103.057452 
L 178.43148 101.01645 
L 181.148784 98.895091 
L 183.866088 96.697059 
L 186.583392 94.425805 
L 189.300696 92.08442 
L 192.017999 89.675523 
L 194.735303 87.201168 
L 197.452607 84.662757 
L 200.169911 82.060969 
" style="fill:none;stroke:#008000;stroke-linecap:square;stroke-opacity:0.5;"/>
   </g>
   <g id="line2d_16">
    <path clip-path="url(#pf9c7739474)" d="M 96.912365 126.44874 
L 96.912365 11.52 
" style="fill:none;stroke:#0000ff;stroke-dasharray:1.85,0.8;stroke-dashoffset:0;stroke-width:0.5;"/>
   </g>
   <g id="line2d_17">
    <path clip-path="url(#pf9c7739474)" d="M 99.629669 126.44874 
L 99.629669 11.52 
" style="fill:none;stroke:#0000ff;stroke-dasharray:1.85,0.8;stroke-dashoffset:0;stroke-width:0.5;"/>
   </g>
   <g id="line2d_18">
    <path clip-path="url(#pf9c7739474)" d="M 129.520011 126.44874 
L 129.520011 11.52 
" style="fill:none;stroke:#0000ff;stroke-dasharray:1.85,0.8;stroke-dashoffset:0;stroke-width:0.5;"/>
   </g>
   <g id="line2d_19">
    <path clip-path="url(#pf9c7739474)" d="M 107.78158 126.44874 
L 107.78158 11.52 
" style="fill:none;stroke:#0000ff;stroke-dasharray:1.85,0.8;stroke-dashoffset:0;stroke-width:0.5;"/>
   </g>
   <g id="line2d_20">
    <path clip-path="url(#pf9c7739474)" d="M 105.064276 126.44874 
L 105.064276 11.52 
" style="fill:none;stroke:#0000ff;stroke-dasharray:1.85,0.8;stroke-dashoffset:0;stroke-width:0.5;"/>
   </g>
   <g id="patch_59">
    <path d="M 42.05 126.44874 
L 42.05 11.52 
" style="fill:none;stroke:#000000;stroke-linecap:square;stroke-linejoin:miter;stroke-width:0.8;"/>
   </g>
   <g id="patch_60">
    <path d="M 208.83811 126.44874 
L 208.83811 11.52 
" style="fill:none;stroke:#000000;stroke-linecap:square;stroke-linejoin:miter;stroke-width:0.8;"/>
   </g>
   <g id="patch_61">
    <path d="M 42.05 126.44874 
L 208.83811 126.44874 
" style="fill:none;stroke:#000000;stroke-linecap:square;stroke-linejoin:miter;stroke-width:0.8;"/>
   </g>
   <g id="patch_62">
    <path d="M 42.05 11.52 
L 208.83811 11.52 
" style="fill:none;stroke:#000000;stroke-linecap:square;stroke-linejoin:miter;stroke-width:0.8;"/>
   </g>
   <g id="legend_1">
    <g id="line2d_21">
     <path d="M 49.25 103.04249 
L 65.25 103.04249 
" style="fill:none;stroke:#0000ff;stroke-linecap:square;stroke-opacity:0.5;"/>
    </g>
    <g id="line2d_22"/>
    <g id="text_15">
     <!-- Simulation -->
     <defs>
      <path d="M 53.515625 70.515625 
L 53.515625 60.890625 
Q 47.90625 63.578125 42.921875 64.890625 
Q 37.9375 66.21875 33.296875 66.21875 
Q 25.25 66.21875 20.875 63.09375 
Q 16.5 59.96875 16.5 54.203125 
Q 16.5 49.359375 19.40625 46.890625 
Q 22.3125 44.4375 30.421875 42.921875 
L 36.375 41.703125 
Q 47.40625 39.59375 52.65625 34.296875 
Q 57.90625 29 57.90625 20.125 
Q 57.90625 9.515625 50.796875 4.046875 
Q 43.703125 -1.421875 29.984375 -1.421875 
Q 24.8125 -1.421875 18.96875 -0.25 
Q 13.140625 0.921875 6.890625 3.21875 
L 6.890625 13.375 
Q 12.890625 10.015625 18.65625 8.296875 
Q 24.421875 6.59375 29.984375 6.59375 
Q 38.421875 6.59375 43.015625 9.90625 
Q 47.609375 13.234375 47.609375 19.390625 
Q 47.609375 24.75 44.3125 27.78125 
Q 41.015625 30.8125 33.5 32.328125 
L 27.484375 33.5 
Q 16.453125 35.6875 11.515625 40.375 
Q 6.59375 45.0625 6.59375 53.421875 
Q 6.59375 63.09375 13.40625 68.65625 
Q 20.21875 74.21875 32.171875 74.21875 
Q 37.3125 74.21875 42.625 73.28125 
Q 47.953125 72.359375 53.515625 70.515625 
z
" id="DejaVuSans-83"/>
      <path d="M 30.609375 48.390625 
Q 23.390625 48.390625 19.1875 42.75 
Q 14.984375 37.109375 14.984375 27.296875 
Q 14.984375 17.484375 19.15625 11.84375 
Q 23.34375 6.203125 30.609375 6.203125 
Q 37.796875 6.203125 41.984375 11.859375 
Q 46.1875 17.53125 46.1875 27.296875 
Q 46.1875 37.015625 41.984375 42.703125 
Q 37.796875 48.390625 30.609375 48.390625 
z
M 30.609375 56 
Q 42.328125 56 49.015625 48.375 
Q 55.71875 40.765625 55.71875 27.296875 
Q 55.71875 13.875 49.015625 6.21875 
Q 42.328125 -1.421875 30.609375 -1.421875 
Q 18.84375 -1.421875 12.171875 6.21875 
Q 5.515625 13.875 5.515625 27.296875 
Q 5.515625 40.765625 12.171875 48.375 
Q 18.84375 56 30.609375 56 
z
" id="DejaVuSans-111"/>
      <path d="M 54.890625 33.015625 
L 54.890625 0 
L 45.90625 0 
L 45.90625 32.71875 
Q 45.90625 40.484375 42.875 44.328125 
Q 39.84375 48.1875 33.796875 48.1875 
Q 26.515625 48.1875 22.3125 43.546875 
Q 18.109375 38.921875 18.109375 30.90625 
L 18.109375 0 
L 9.078125 0 
L 9.078125 54.6875 
L 18.109375 54.6875 
L 18.109375 46.1875 
Q 21.34375 51.125 25.703125 53.5625 
Q 30.078125 56 35.796875 56 
Q 45.21875 56 50.046875 50.171875 
Q 54.890625 44.34375 54.890625 33.015625 
z
" id="DejaVuSans-110"/>
     </defs>
     <g transform="translate(71.65 105.84249)scale(0.08 -0.08)">
      <use xlink:href="#DejaVuSans-83"/>
      <use x="63.476562" xlink:href="#DejaVuSans-105"/>
      <use x="91.259766" xlink:href="#DejaVuSans-109"/>
      <use x="188.671875" xlink:href="#DejaVuSans-117"/>
      <use x="252.050781" xlink:href="#DejaVuSans-108"/>
      <use x="279.833984" xlink:href="#DejaVuSans-97"/>
      <use x="341.113281" xlink:href="#DejaVuSans-116"/>
      <use x="380.322266" xlink:href="#DejaVuSans-105"/>
      <use x="408.105469" xlink:href="#DejaVuSans-111"/>
      <use x="469.287109" xlink:href="#DejaVuSans-110"/>
     </g>
    </g>
    <g id="line2d_23">
     <path d="M 49.25 114.78499 
L 65.25 114.78499 
" style="fill:none;stroke:#008000;stroke-linecap:square;stroke-opacity:0.5;"/>
    </g>
    <g id="line2d_24"/>
    <g id="text_16">
     <!-- Forecast -->
     <defs>
      <path d="M 9.8125 72.90625 
L 51.703125 72.90625 
L 51.703125 64.59375 
L 19.671875 64.59375 
L 19.671875 43.109375 
L 48.578125 43.109375 
L 48.578125 34.8125 
L 19.671875 34.8125 
L 19.671875 0 
L 9.8125 0 
z
" id="DejaVuSans-70"/>
      <path d="M 48.78125 52.59375 
L 48.78125 44.1875 
Q 44.96875 46.296875 41.140625 47.34375 
Q 37.3125 48.390625 33.40625 48.390625 
Q 24.65625 48.390625 19.8125 42.84375 
Q 14.984375 37.3125 14.984375 27.296875 
Q 14.984375 17.28125 19.8125 11.734375 
Q 24.65625 6.203125 33.40625 6.203125 
Q 37.3125 6.203125 41.140625 7.25 
Q 44.96875 8.296875 48.78125 10.40625 
L 48.78125 2.09375 
Q 45.015625 0.34375 40.984375 -0.53125 
Q 36.96875 -1.421875 32.421875 -1.421875 
Q 20.0625 -1.421875 12.78125 6.34375 
Q 5.515625 14.109375 5.515625 27.296875 
Q 5.515625 40.671875 12.859375 48.328125 
Q 20.21875 56 33.015625 56 
Q 37.15625 56 41.109375 55.140625 
Q 45.0625 54.296875 48.78125 52.59375 
z
" id="DejaVuSans-99"/>
     </defs>
     <g transform="translate(71.65 117.58499)scale(0.08 -0.08)">
      <use xlink:href="#DejaVuSans-70"/>
      <use x="53.894531" xlink:href="#DejaVuSans-111"/>
      <use x="115.076172" xlink:href="#DejaVuSans-114"/>
      <use x="153.939453" xlink:href="#DejaVuSans-101"/>
      <use x="215.462891" xlink:href="#DejaVuSans-99"/>
      <use x="270.443359" xlink:href="#DejaVuSans-97"/>
      <use x="331.722656" xlink:href="#DejaVuSans-115"/>
      <use x="383.822266" xlink:href="#DejaVuSans-116"/>
     </g>
    </g>
   </g>
  </g>
  <g id="axes_2">
   <g id="matplotlib.axis_3">
    <g id="ytick_6">
     <g id="line2d_25">
      <defs>
       <path d="M 0 0 
L 3.5 0 
" id="m2459082b76" style="stroke:#000000;stroke-width:0.8;"/>
      </defs>
      <g>
       <use style="stroke:#000000;stroke-width:0.8;" x="208.83811" xlink:href="#m2459082b76" y="126.44874"/>
      </g>
     </g>
     <g id="text_17">
      <!-- 1.0 -->
      <defs>
       <path d="M 10.59375 35.5 
L 73.1875 35.5 
L 73.1875 27.203125 
L 10.59375 27.203125 
z
" id="DejaVuSans-8722"/>
       <path d="M 10.6875 12.40625 
L 21 12.40625 
L 21 0 
L 10.6875 0 
z
" id="DejaVuSans-46"/>
      </defs>
      <g transform="translate(215.83811 129.488115)scale(0.08 -0.08)">
       <use xlink:href="#DejaVuSans-8722"/>
       <use x="83.789062" xlink:href="#DejaVuSans-49"/>
       <use x="147.412109" xlink:href="#DejaVuSans-46"/>
       <use x="179.199219" xlink:href="#DejaVuSans-48"/>
      </g>
     </g>
    </g>
    <g id="ytick_7">
     <g id="line2d_26">
      <g>
       <use style="stroke:#000000;stroke-width:0.8;" x="208.83811" xlink:href="#m2459082b76" y="85.402762"/>
      </g>
     </g>
     <g id="text_18">
      <!-- 0.5 -->
      <g transform="translate(215.83811 88.442137)scale(0.08 -0.08)">
       <use xlink:href="#DejaVuSans-8722"/>
       <use x="83.789062" xlink:href="#DejaVuSans-48"/>
       <use x="147.412109" xlink:href="#DejaVuSans-46"/>
       <use x="179.199219" xlink:href="#DejaVuSans-53"/>
      </g>
     </g>
    </g>
    <g id="ytick_8">
     <g id="line2d_27">
      <g>
       <use style="stroke:#000000;stroke-width:0.8;" x="208.83811" xlink:href="#m2459082b76" y="44.356783"/>
      </g>
     </g>
     <g id="text_19">
      <!-- 0.0 -->
      <g transform="translate(215.83811 47.396158)scale(0.08 -0.08)">
       <use xlink:href="#DejaVuSans-48"/>
       <use x="63.623047" xlink:href="#DejaVuSans-46"/>
       <use x="95.410156" xlink:href="#DejaVuSans-48"/>
      </g>
     </g>
    </g>
    <g id="ytick_9">
     <g id="line2d_28">
      <g>
       <use style="stroke:#000000;stroke-width:0.8;" x="208.83811" xlink:href="#m2459082b76" y="11.52"/>
      </g>
     </g>
     <g id="text_20">
      <!-- 0.4 -->
      <g transform="translate(215.83811 14.559375)scale(0.08 -0.08)">
       <use xlink:href="#DejaVuSans-48"/>
       <use x="63.623047" xlink:href="#DejaVuSans-46"/>
       <use x="95.410156" xlink:href="#DejaVuSans-52"/>
      </g>
     </g>
    </g>
    <g id="text_21">
     <!-- Relative change -->
     <defs>
      <path d="M 44.390625 34.1875 
Q 47.5625 33.109375 50.5625 29.59375 
Q 53.5625 26.078125 56.59375 19.921875 
L 66.609375 0 
L 56 0 
L 46.6875 18.703125 
Q 43.0625 26.03125 39.671875 28.421875 
Q 36.28125 30.8125 30.421875 30.8125 
L 19.671875 30.8125 
L 19.671875 0 
L 9.8125 0 
L 9.8125 72.90625 
L 32.078125 72.90625 
Q 44.578125 72.90625 50.734375 67.671875 
Q 56.890625 62.453125 56.890625 51.90625 
Q 56.890625 45.015625 53.6875 40.46875 
Q 50.484375 35.9375 44.390625 34.1875 
z
M 19.671875 64.796875 
L 19.671875 38.921875 
L 32.078125 38.921875 
Q 39.203125 38.921875 42.84375 42.21875 
Q 46.484375 45.515625 46.484375 51.90625 
Q 46.484375 58.296875 42.84375 61.546875 
Q 39.203125 64.796875 32.078125 64.796875 
z
" id="DejaVuSans-82"/>
      <path d="M 45.40625 27.984375 
Q 45.40625 37.75 41.375 43.109375 
Q 37.359375 48.484375 30.078125 48.484375 
Q 22.859375 48.484375 18.828125 43.109375 
Q 14.796875 37.75 14.796875 27.984375 
Q 14.796875 18.265625 18.828125 12.890625 
Q 22.859375 7.515625 30.078125 7.515625 
Q 37.359375 7.515625 41.375 12.890625 
Q 45.40625 18.265625 45.40625 27.984375 
z
M 54.390625 6.78125 
Q 54.390625 -7.171875 48.1875 -13.984375 
Q 42 -20.796875 29.203125 -20.796875 
Q 24.46875 -20.796875 20.265625 -20.09375 
Q 16.0625 -19.390625 12.109375 -17.921875 
L 12.109375 -9.1875 
Q 16.0625 -11.328125 19.921875 -12.34375 
Q 23.78125 -13.375 27.78125 -13.375 
Q 36.625 -13.375 41.015625 -8.765625 
Q 45.40625 -4.15625 45.40625 5.171875 
L 45.40625 9.625 
Q 42.625 4.78125 38.28125 2.390625 
Q 33.9375 0 27.875 0 
Q 17.828125 0 11.671875 7.65625 
Q 5.515625 15.328125 5.515625 27.984375 
Q 5.515625 40.671875 11.671875 48.328125 
Q 17.828125 56 27.875 56 
Q 33.9375 56 38.28125 53.609375 
Q 42.625 51.21875 45.40625 46.390625 
L 45.40625 54.6875 
L 54.390625 54.6875 
z
" id="DejaVuSans-103"/>
     </defs>
     <g transform="translate(245.34311 101.10812)rotate(-90)scale(0.08 -0.08)">
      <use xlink:href="#DejaVuSans-82"/>
      <use x="64.982422" xlink:href="#DejaVuSans-101"/>
      <use x="126.505859" xlink:href="#DejaVuSans-108"/>
      <use x="154.289062" xlink:href="#DejaVuSans-97"/>
      <use x="215.568359" xlink:href="#DejaVuSans-116"/>
      <use x="254.777344" xlink:href="#DejaVuSans-105"/>
      <use x="282.560547" xlink:href="#DejaVuSans-118"/>
      <use x="341.740234" xlink:href="#DejaVuSans-101"/>
      <use x="403.263672" xlink:href="#DejaVuSans-32"/>
      <use x="435.050781" xlink:href="#DejaVuSans-99"/>
      <use x="490.03125" xlink:href="#DejaVuSans-104"/>
      <use x="553.410156" xlink:href="#DejaVuSans-97"/>
      <use x="614.689453" xlink:href="#DejaVuSans-110"/>
      <use x="678.068359" xlink:href="#DejaVuSans-103"/>
      <use x="741.544922" xlink:href="#DejaVuSans-101"/>
     </g>
    </g>
   </g>
   <g id="line2d_29">
    <path clip-path="url(#pf9c7739474)" d="M 50.718199 43.535863 
L 53.435503 43.535863 
L 56.152807 42.714944 
L 58.870111 43.535863 
L 61.587415 43.535863 
L 64.304719 47.640461 
L 67.022022 52.565979 
L 69.739326 45.998622 
L 72.45663 45.177702 
L 75.173934 46.819542 
L 77.891238 44.356783 
L 80.608542 45.998622 
L 83.325845 50.10322 
L 86.043149 53.386898 
L 88.760453 47.640461 
L 91.477757 48.461381 
L 94.195061 49.2823 
L 96.912365 49.2823 
L 99.629669 72.268048 
L 102.346972 82.940003 
L 105.064276 102.642073 
L 107.78158 76.372646 
L 110.498884 80.477244 
L 113.216188 82.119083 
L 115.933492 80.477244 
L 118.650795 80.477244 
L 121.368099 84.581842 
L 124.085403 97.716555 
L 126.802707 78.014485 
L 129.520011 81.298164 
L 132.237315 81.298164 
L 134.954619 79.656325 
L 137.671922 78.835405 
L 140.389226 82.940003 
L 143.10653 97.716555 
" style="fill:none;stroke:#d62728;stroke-linecap:square;stroke-opacity:0.5;"/>
   </g>
   <g id="line2d_30">
    <path clip-path="url(#pf9c7739474)" d="M 50.718199 43.535863 
L 53.435503 43.535863 
L 56.152807 42.714944 
L 58.870111 41.894024 
L 61.587415 41.894024 
L 64.304719 45.177702 
L 67.022022 42.714944 
L 69.739326 42.714944 
L 72.45663 43.535863 
L 75.173934 43.535863 
L 77.891238 41.073105 
L 80.608542 41.894024 
L 83.325845 44.356783 
L 86.043149 45.998622 
L 88.760453 42.714944 
L 91.477757 42.714944 
L 94.195061 36.968507 
L 96.912365 2.489885 
L 99.629669 40.252185 
L 102.346972 51.745059 
L 105.064276 76.372646 
L 107.78158 51.745059 
L 110.498884 56.670576 
L 113.216188 56.670576 
L 115.933492 53.386898 
L 118.650795 54.207818 
L 121.368099 52.565979 
L 124.085403 70.626209 
L 126.802707 55.849657 
L 129.520011 55.849657 
L 132.237315 55.028737 
L 134.954619 52.565979 
L 137.671922 51.745059 
L 140.389226 50.924139 
L 143.10653 70.626209 
" style="fill:none;stroke:#9467bd;stroke-linecap:square;stroke-opacity:0.5;"/>
   </g>
   <g id="line2d_31">
    <path clip-path="url(#pf9c7739474)" d="M 50.718199 41.894024 
L 53.435503 45.177702 
L 56.152807 43.535863 
L 58.870111 44.356783 
L 61.587415 43.535863 
L 64.304719 42.714944 
L 67.022022 45.177702 
L 69.739326 44.356783 
L 72.45663 45.998622 
L 75.173934 43.535863 
L 77.891238 41.894024 
L 80.608542 42.714944 
L 83.325845 43.535863 
L 86.043149 51.745059 
L 88.760453 45.998622 
L 91.477757 50.10322 
L 94.195061 51.745059 
L 96.912365 60.775174 
L 99.629669 76.372646 
L 102.346972 74.730807 
L 105.064276 88.68644 
L 107.78158 84.581842 
L 110.498884 87.86552 
L 113.216188 89.507359 
L 115.933492 90.328279 
L 118.650795 89.507359 
L 121.368099 78.835405 
L 124.085403 91.149199 
L 126.802707 91.970118 
L 129.520011 92.791038 
L 132.237315 91.970118 
L 134.954619 90.328279 
L 137.671922 91.149199 
L 140.389226 85.402762 
L 143.10653 91.149199 
" style="fill:none;stroke:#e377c2;stroke-linecap:square;stroke-opacity:0.5;"/>
   </g>
   <g id="line2d_32">
    <path clip-path="url(#pf9c7739474)" d="M 50.718199 48.461381 
L 53.435503 47.640461 
L 56.152807 47.640461 
L 58.870111 48.461381 
L 61.587415 48.461381 
L 64.304719 45.998622 
L 67.022022 45.177702 
L 69.739326 45.998622 
L 72.45663 45.177702 
L 75.173934 45.998622 
L 77.891238 45.998622 
L 80.608542 45.998622 
L 83.325845 45.998622 
L 86.043149 45.998622 
L 88.760453 45.998622 
L 91.477757 45.177702 
L 94.195061 46.819542 
L 96.912365 53.386898 
L 99.629669 73.909888 
L 102.346972 63.237933 
L 105.064276 66.521611 
L 107.78158 83.760922 
L 110.498884 86.223681 
L 113.216188 87.044601 
L 115.933492 87.044601 
L 118.650795 87.044601 
L 121.368099 71.447129 
L 124.085403 72.268048 
L 126.802707 87.044601 
L 129.520011 87.86552 
L 132.237315 87.044601 
L 134.954619 87.044601 
L 137.671922 85.402762 
L 140.389226 71.447129 
L 143.10653 72.268048 
" style="fill:none;stroke:#bcbd22;stroke-linecap:square;stroke-opacity:0.5;"/>
   </g>
   <g id="line2d_33">
    <path clip-path="url(#pf9c7739474)" d="M 50.718199 44.356783 
L 53.435503 43.535863 
L 56.152807 44.356783 
L 58.870111 43.535863 
L 61.587415 43.535863 
L 64.304719 44.356783 
L 67.022022 44.356783 
L 69.739326 43.535863 
L 72.45663 43.535863 
L 75.173934 43.535863 
L 77.891238 44.356783 
L 80.608542 44.356783 
L 83.325845 44.356783 
L 86.043149 43.535863 
L 88.760453 43.535863 
L 91.477757 42.714944 
L 94.195061 41.894024 
L 96.912365 40.252185 
L 99.629669 32.863909 
L 102.346972 37.789426 
L 105.064276 35.326668 
L 107.78158 29.580231 
L 110.498884 28.759311 
L 113.216188 27.938391 
L 115.933492 27.938391 
L 118.650795 27.117472 
L 121.368099 36.968507 
L 124.085403 34.505748 
L 126.802707 27.938391 
L 129.520011 27.938391 
L 132.237315 27.938391 
L 134.954619 27.938391 
L 137.671922 27.117472 
L 140.389226 36.147587 
L 143.10653 35.326668 
" style="fill:none;stroke:#17becf;stroke-linecap:square;stroke-opacity:0.5;"/>
   </g>
   <g id="patch_63">
    <path d="M 42.05 126.44874 
L 42.05 11.52 
" style="fill:none;stroke:#000000;stroke-linecap:square;stroke-linejoin:miter;stroke-width:0.8;"/>
   </g>
   <g id="patch_64">
    <path d="M 208.83811 126.44874 
L 208.83811 11.52 
" style="fill:none;stroke:#000000;stroke-linecap:square;stroke-linejoin:miter;stroke-width:0.8;"/>
   </g>
   <g id="patch_65">
    <path d="M 42.05 126.44874 
L 208.83811 126.44874 
" style="fill:none;stroke:#000000;stroke-linecap:square;stroke-linejoin:miter;stroke-width:0.8;"/>
   </g>
   <g id="patch_66">
    <path d="M 42.05 11.52 
L 208.83811 11.52 
" style="fill:none;stroke:#000000;stroke-linecap:square;stroke-linejoin:miter;stroke-width:0.8;"/>
   </g>
  </g>
 </g>
 <defs>
  <clipPath id="pf9c7739474">
   <rect height="114.92874" width="166.78811" x="42.05" y="11.52"/>
  </clipPath>
 </defs>
</svg>
