<?xml version="1.0" encoding="utf-8" standalone="no"?>
<!DOCTYPE svg PUBLIC "-//W3C//DTD SVG 1.1//EN"
  "http://www.w3.org/Graphics/SVG/1.1/DTD/svg11.dtd">
<!-- Created with matplotlib (https://matplotlib.org/) -->
<svg height="170.07874pt" version="1.1" viewBox="0 0 255.11811 170.07874" width="255.11811pt" xmlns="http://www.w3.org/2000/svg" xmlns:xlink="http://www.w3.org/1999/xlink">
 <defs>
  <style type="text/css">
*{stroke-linecap:butt;stroke-linejoin:round;}
  </style>
 </defs>
 <g id="figure_1">
  <g id="patch_1">
   <path d="M 0 170.07874 
L 255.11811 170.07874 
L 255.11811 0 
L 0 0 
z
" style="fill:#ffffff;"/>
  </g>
  <g id="axes_1">
   <g id="patch_2">
    <path d="M 57.17 126.44874 
L 208.83811 126.44874 
L 208.83811 11.52 
L 57.17 11.52 
z
" style="fill:#ffffff;"/>
   </g>
   <g id="PolyCollection_1">
    <defs>
     <path d="M 64.842989 -43.670143 
L 64.842989 -43.63535 
L 66.790448 -43.63535 
L 68.737907 -43.63535 
L 70.685366 -43.63535 
L 72.632825 -43.63535 
L 74.580284 -43.63535 
L 76.527743 -43.642074 
L 78.475202 -43.646719 
L 80.422661 -43.650068 
L 82.37012 -43.655314 
L 84.317579 -43.664415 
L 86.265038 -43.675144 
L 88.212497 -43.691478 
L 90.159956 -43.711416 
L 92.107415 -43.769301 
L 94.054874 -43.775273 
L 96.002333 -43.799988 
L 97.949792 -43.904412 
L 99.897251 -44.047079 
L 101.84471 -43.938565 
L 103.792169 -44.268581 
L 105.739629 -44.522806 
L 107.687088 -44.57332 
L 109.634547 -44.995102 
L 111.582006 -45.473558 
L 113.529465 -45.809248 
L 115.476924 -46.424706 
L 117.424383 -47.02758 
L 119.371842 -49.283146 
L 121.319301 -49.786391 
L 123.26676 -57.061786 
L 125.214219 -60.512774 
L 127.161678 -71.72396 
L 129.109137 -83.48234 
L 131.056596 -61.405373 
L 133.004055 -47.304467 
L 134.951514 -53.34268 
L 136.898973 -51.278967 
L 138.846432 -52.293844 
L 140.793891 -46.341474 
L 142.74135 -49.857409 
L 144.688809 -46.4715 
L 146.636268 -44.574757 
L 148.583727 -46.646554 
L 150.531187 -45.707592 
L 152.478646 -45.276731 
L 154.426105 -44.940602 
L 156.373564 -44.87166 
L 158.321023 -44.342629 
L 160.268482 -43.861758 
L 160.268482 -74.506628 
L 160.268482 -74.506628 
L 158.321023 -85.416886 
L 156.373564 -90.103563 
L 154.426105 -86.644166 
L 152.478646 -85.986707 
L 150.531187 -85.589391 
L 148.583727 -87.768579 
L 146.636268 -69.702731 
L 144.688809 -79.282576 
L 142.74135 -87.058242 
L 140.793891 -72.162012 
L 138.846432 -84.040362 
L 136.898973 -78.218063 
L 134.951514 -78.059337 
L 133.004055 -64.257548 
L 131.056596 -79.995307 
L 129.109137 -158.55874 
L 127.161678 -102.412311 
L 125.214219 -70.869609 
L 123.26676 -64.835035 
L 121.319301 -54.352165 
L 119.371842 -52.66681 
L 117.424383 -49.646503 
L 115.476924 -48.417986 
L 113.529465 -47.387099 
L 111.582006 -46.77405 
L 109.634547 -46.058828 
L 107.687088 -45.425488 
L 105.739629 -45.34687 
L 103.792169 -44.933679 
L 101.84471 -44.384598 
L 99.897251 -44.596322 
L 97.949792 -44.307684 
L 96.002333 -44.091034 
L 94.054874 -44.043298 
L 92.107415 -44.061019 
L 90.159956 -43.893709 
L 88.212497 -43.84523 
L 86.265038 -43.800738 
L 84.317579 -43.769681 
L 82.37012 -43.740397 
L 80.422661 -43.724277 
L 78.475202 -43.71507 
L 76.527743 -43.690752 
L 74.580284 -43.670143 
L 72.632825 -43.670143 
L 70.685366 -43.670143 
L 68.737907 -43.670143 
L 66.790448 -43.670143 
L 64.842989 -43.670143 
z
" id="mb03161512e" style="stroke:#6495ed;stroke-opacity:0.4;"/>
    </defs>
    <g clip-path="url(#p1c6b4f3eb4)">
     <use style="fill:#6495ed;fill-opacity:0.4;stroke:#6495ed;stroke-opacity:0.4;" x="0" xlink:href="#mb03161512e" y="170.07874"/>
    </g>
   </g>
   <g id="PolyCollection_2">
    <defs>
     <path d="M 64.842989 -43.652515 
L 64.842989 -43.641204 
L 66.790448 -43.641204 
L 68.737907 -43.641204 
L 70.685366 -43.641204 
L 72.632825 -43.641204 
L 74.580284 -43.641204 
L 76.527743 -43.652022 
L 78.475202 -43.660326 
L 80.422661 -43.665306 
L 82.37012 -43.673334 
L 84.317579 -43.687372 
L 86.265038 -43.703104 
L 88.212497 -43.72621 
L 90.159956 -43.753797 
L 92.107415 -43.83854 
L 94.054874 -43.840296 
L 96.002333 -43.872445 
L 97.949792 -44.006305 
L 99.897251 -44.191283 
L 101.84471 -44.046204 
L 103.792169 -44.447933 
L 105.739629 -44.746437 
L 107.687088 -44.802164 
L 109.634547 -45.286122 
L 111.582006 -45.839567 
L 113.529465 -46.244964 
L 115.476924 -46.969064 
L 117.424383 -47.743059 
L 119.371842 -50.195993 
L 121.319301 -51.01943 
L 123.26676 -59.381507 
L 125.214219 -63.644249 
L 127.161678 -81.223552 
L 129.109137 -104.698018 
L 131.056596 -66.428366 
L 133.004055 -50.056733 
L 134.951514 -58.494519 
L 136.898973 -56.189185 
L 138.846432 -57.883253 
L 140.793891 -49.255557 
L 142.74135 -54.97775 
L 144.688809 -49.707033 
L 146.636268 -46.120216 
L 148.583727 -50.196833 
L 150.531187 -48.528391 
L 152.478646 -47.755541 
L 154.426105 -47.094871 
L 156.373564 -47.014746 
L 158.321023 -45.79784 
L 160.268482 -44.518149 
L 160.268482 -48.727025 
L 160.268482 -48.727025 
L 158.321023 -52.799979 
L 156.373564 -55.59273 
L 154.426105 -55.333542 
L 152.478646 -56.39924 
L 150.531187 -57.607322 
L 148.583727 -60.313245 
L 146.636268 -51.753459 
L 144.688809 -58.361055 
L 142.74135 -65.916708 
L 140.793891 -56.43916 
L 138.846432 -68.063222 
L 136.898973 -64.979247 
L 134.951514 -66.911482 
L 133.004055 -55.578306 
L 131.056596 -72.522963 
L 129.109137 -129.602217 
L 127.161678 -91.339324 
L 125.214219 -67.065848 
L 123.26676 -61.946527 
L 121.319301 -52.585073 
L 119.371842 -51.376788 
L 117.424383 -48.646207 
L 115.476924 -47.655252 
L 113.529465 -46.791019 
L 111.582006 -46.283112 
L 109.634547 -45.648475 
L 107.687088 -45.09866 
L 105.739629 -45.022379 
L 103.792169 -44.671946 
L 101.84471 -44.19893 
L 99.897251 -44.377684 
L 97.949792 -44.144815 
L 96.002333 -43.969506 
L 94.054874 -43.931685 
L 92.107415 -43.939168 
L 90.159956 -43.815113 
L 88.212497 -43.777561 
L 86.265038 -43.744798 
L 84.317579 -43.722344 
L 82.37012 -43.70163 
L 80.422661 -43.690101 
L 78.475202 -43.683096 
L 76.527743 -43.668226 
L 74.580284 -43.652515 
L 72.632825 -43.652515 
L 70.685366 -43.652515 
L 68.737907 -43.652515 
L 66.790448 -43.652515 
L 64.842989 -43.652515 
z
" id="mcd63320fe4" style="stroke:#6495ed;stroke-opacity:0.6;"/>
    </defs>
    <g clip-path="url(#p1c6b4f3eb4)">
     <use style="fill:#6495ed;fill-opacity:0.6;stroke:#6495ed;stroke-opacity:0.6;" x="0" xlink:href="#mcd63320fe4" y="170.07874"/>
    </g>
   </g>
   <g id="PolyCollection_3">
    <defs>
     <path d="M 160.268482 -74.506628 
L 160.268482 -43.861758 
L 162.215941 -43.820988 
L 164.1634 -43.784794 
L 166.110859 -43.754609 
L 168.058318 -43.729305 
L 170.005777 -43.708419 
L 171.953236 -43.691789 
L 173.900695 -43.67822 
L 175.848154 -43.66736 
L 177.795613 -43.658765 
L 179.743072 -43.652087 
L 181.690531 -43.646971 
L 183.63799 -43.643023 
L 185.585449 -43.639973 
L 187.532908 -43.637627 
L 189.480367 -43.635827 
L 191.427826 -43.634448 
L 193.375285 -43.633394 
L 195.322744 -43.632604 
L 197.270204 -43.631998 
L 199.217663 -43.631529 
L 201.165122 -43.631167 
L 201.165122 -64.112141 
L 201.165122 -64.112141 
L 199.217663 -64.49551 
L 197.270204 -64.88606 
L 195.322744 -65.283926 
L 193.375285 -65.80767 
L 191.427826 -66.282774 
L 189.480367 -66.920114 
L 187.532908 -67.625589 
L 185.585449 -68.340976 
L 183.63799 -69.039611 
L 181.690531 -69.726316 
L 179.743072 -70.498467 
L 177.795613 -70.691997 
L 175.848154 -71.319897 
L 173.900695 -71.989653 
L 171.953236 -72.643151 
L 170.005777 -73.320759 
L 168.058318 -74.012831 
L 166.110859 -74.794061 
L 164.1634 -75.018973 
L 162.215941 -75.083171 
L 160.268482 -74.506628 
z
" id="mf4a9768e54" style="stroke:#228b22;stroke-opacity:0.4;"/>
    </defs>
    <g clip-path="url(#p1c6b4f3eb4)">
     <use style="fill:#228b22;fill-opacity:0.4;stroke:#228b22;stroke-opacity:0.4;" x="0" xlink:href="#mf4a9768e54" y="170.07874"/>
    </g>
   </g>
   <g id="PolyCollection_4">
    <defs>
     <path d="M 160.268482 -48.727025 
L 160.268482 -44.518149 
L 162.215941 -44.399612 
L 164.1634 -44.288714 
L 166.110859 -44.185395 
L 168.058318 -44.093374 
L 170.005777 -44.012554 
L 171.953236 -43.943331 
L 173.900695 -43.886245 
L 175.848154 -43.838677 
L 177.795613 -43.798675 
L 179.743072 -43.766101 
L 181.690531 -43.739911 
L 183.63799 -43.71823 
L 185.585449 -43.700877 
L 187.532908 -43.687024 
L 189.480367 -43.676049 
L 191.427826 -43.667173 
L 193.375285 -43.659896 
L 195.322744 -43.653835 
L 197.270204 -43.649097 
L 199.217663 -43.645404 
L 201.165122 -43.642382 
L 201.165122 -44.005887 
L 201.165122 -44.005887 
L 199.217663 -44.062218 
L 197.270204 -44.125102 
L 195.322744 -44.197571 
L 193.375285 -44.275971 
L 191.427826 -44.365233 
L 189.480367 -44.470939 
L 187.532908 -44.594776 
L 185.585449 -44.734031 
L 183.63799 -44.889764 
L 181.690531 -45.067769 
L 179.743072 -45.269882 
L 177.795613 -45.507518 
L 175.848154 -45.769558 
L 173.900695 -46.069052 
L 171.953236 -46.402046 
L 170.005777 -46.780189 
L 168.058318 -47.177283 
L 166.110859 -47.605743 
L 164.1634 -48.023979 
L 162.215941 -48.402095 
L 160.268482 -48.727025 
z
" id="mb7e417907f" style="stroke:#228b22;stroke-opacity:0.6;"/>
    </defs>
    <g clip-path="url(#p1c6b4f3eb4)">
     <use style="fill:#228b22;fill-opacity:0.6;stroke:#228b22;stroke-opacity:0.6;" x="0" xlink:href="#mb7e417907f" y="170.07874"/>
    </g>
   </g>
   <g id="PathCollection_1">
    <defs>
     <path d="M -0.866025 1.732051 
L 0 0.866025 
L 0.866025 1.732051 
L 1.732051 0.866025 
L 0.866025 0 
L 1.732051 -0.866025 
L 0.866025 -1.732051 
L 0 -0.866025 
L -0.866025 -1.732051 
L -1.732051 -0.866025 
L -0.866025 0 
L -1.732051 0.866025 
z
" id="m211e60ef8d" style="stroke:#8a2be2;"/>
    </defs>
    <g clip-path="url(#p1c6b4f3eb4)">
     <use style="fill:#8a2be2;stroke:#8a2be2;" x="131.056596" xlink:href="#m211e60ef8d" y="23.012874"/>
    </g>
   </g>
   <g id="PathCollection_2">
    <defs>
     <path d="M 0 -1.732051 
L -0.38887 -0.535233 
L -1.647278 -0.535233 
L -0.629204 0.204441 
L -1.018074 1.401259 
L -0 0.661585 
L 1.018074 1.401259 
L 0.629204 0.204441 
L 1.647278 -0.535233 
L 0.38887 -0.535233 
z
" id="m5eb4e20ad7" style="stroke:#000000;"/>
    </defs>
    <g clip-path="url(#p1c6b4f3eb4)">
     <use style="stroke:#000000;" x="129.109137" xlink:href="#m5eb4e20ad7" y="23.012874"/>
    </g>
   </g>
   <g id="PathCollection_3">
    <defs>
     <path d="M -1.732051 1.732051 
L 1.732051 1.732051 
L 1.732051 -1.732051 
L -1.732051 -1.732051 
z
" id="m80510775c5" style="stroke:#c71585;"/>
    </defs>
    <g clip-path="url(#p1c6b4f3eb4)">
     <use style="fill:#c71585;stroke:#c71585;" x="131.056596" xlink:href="#m80510775c5" y="28.184667"/>
    </g>
   </g>
   <g id="PathCollection_4">
    <defs>
     <path d="M 0 -1.732051 
L -1.647278 -0.535233 
L -1.018074 1.401259 
L 1.018074 1.401259 
L 1.647278 -0.535233 
z
" id="m5328ee1661" style="stroke:#800000;"/>
    </defs>
    <g clip-path="url(#p1c6b4f3eb4)">
     <use style="fill:#800000;stroke:#800000;" x="121.319301" xlink:href="#m5328ee1661" y="23.012874"/>
    </g>
   </g>
   <g id="PathCollection_5">
    <defs>
     <path d="M -0 2.44949 
L 1.469694 0 
L 0 -2.44949 
L -1.469694 -0 
z
" id="m8ba1f3cf78" style="stroke:#556b2f;"/>
    </defs>
    <g clip-path="url(#p1c6b4f3eb4)">
     <use style="fill:#556b2f;stroke:#556b2f;" x="136.898973" xlink:href="#m8ba1f3cf78" y="23.012874"/>
    </g>
   </g>
   <g id="patch_3">
    <path clip-path="url(#p1c6b4f3eb4)" d="M 64.064005 126.44874 
L 65.621972 126.44874 
L 65.621972 126.44874 
L 64.064005 126.44874 
z
" style="fill:#1f77b4;opacity:0.5;"/>
   </g>
   <g id="patch_4">
    <path clip-path="url(#p1c6b4f3eb4)" d="M 66.011464 126.44874 
L 67.569431 126.44874 
L 67.569431 126.448435 
L 66.011464 126.448435 
z
" style="fill:#1f77b4;opacity:0.5;"/>
   </g>
   <g id="patch_5">
    <path clip-path="url(#p1c6b4f3eb4)" d="M 67.958923 126.44874 
L 69.51689 126.44874 
L 69.51689 126.44874 
L 67.958923 126.44874 
z
" style="fill:#1f77b4;opacity:0.5;"/>
   </g>
   <g id="patch_6">
    <path clip-path="url(#p1c6b4f3eb4)" d="M 69.906382 126.44874 
L 71.464349 126.44874 
L 71.464349 126.44874 
L 69.906382 126.44874 
z
" style="fill:#1f77b4;opacity:0.5;"/>
   </g>
   <g id="patch_7">
    <path clip-path="url(#p1c6b4f3eb4)" d="M 71.853841 126.44874 
L 73.411808 126.44874 
L 73.411808 126.44874 
L 71.853841 126.44874 
z
" style="fill:#1f77b4;opacity:0.5;"/>
   </g>
   <g id="patch_8">
    <path clip-path="url(#p1c6b4f3eb4)" d="M 73.8013 126.44874 
L 75.359267 126.44874 
L 75.359267 126.44874 
L 73.8013 126.44874 
z
" style="fill:#1f77b4;opacity:0.5;"/>
   </g>
   <g id="patch_9">
    <path clip-path="url(#p1c6b4f3eb4)" d="M 75.748759 126.44874 
L 77.306727 126.44874 
L 77.306727 126.44874 
L 75.748759 126.44874 
z
" style="fill:#1f77b4;opacity:0.5;"/>
   </g>
   <g id="patch_10">
    <path clip-path="url(#p1c6b4f3eb4)" d="M 77.696218 126.44874 
L 79.254186 126.44874 
L 79.254186 126.44874 
L 77.696218 126.44874 
z
" style="fill:#1f77b4;opacity:0.5;"/>
   </g>
   <g id="patch_11">
    <path clip-path="url(#p1c6b4f3eb4)" d="M 79.643677 126.44874 
L 81.201645 126.44874 
L 81.201645 126.44874 
L 79.643677 126.44874 
z
" style="fill:#1f77b4;opacity:0.5;"/>
   </g>
   <g id="patch_12">
    <path clip-path="url(#p1c6b4f3eb4)" d="M 81.591136 126.44874 
L 83.149104 126.44874 
L 83.149104 126.44874 
L 81.591136 126.44874 
z
" style="fill:#1f77b4;opacity:0.5;"/>
   </g>
   <g id="patch_13">
    <path clip-path="url(#p1c6b4f3eb4)" d="M 83.538595 126.44874 
L 85.096563 126.44874 
L 85.096563 126.44874 
L 83.538595 126.44874 
z
" style="fill:#1f77b4;opacity:0.5;"/>
   </g>
   <g id="patch_14">
    <path clip-path="url(#p1c6b4f3eb4)" d="M 85.486054 126.44874 
L 87.044022 126.44874 
L 87.044022 126.44874 
L 85.486054 126.44874 
z
" style="fill:#1f77b4;opacity:0.5;"/>
   </g>
   <g id="patch_15">
    <path clip-path="url(#p1c6b4f3eb4)" d="M 87.433514 126.44874 
L 88.991481 126.44874 
L 88.991481 126.44874 
L 87.433514 126.44874 
z
" style="fill:#1f77b4;opacity:0.5;"/>
   </g>
   <g id="patch_16">
    <path clip-path="url(#p1c6b4f3eb4)" d="M 89.380973 126.44874 
L 90.93894 126.44874 
L 90.93894 126.44874 
L 89.380973 126.44874 
z
" style="fill:#1f77b4;opacity:0.5;"/>
   </g>
   <g id="patch_17">
    <path clip-path="url(#p1c6b4f3eb4)" d="M 91.328432 126.44874 
L 92.886399 126.44874 
L 92.886399 126.44874 
L 91.328432 126.44874 
z
" style="fill:#1f77b4;opacity:0.5;"/>
   </g>
   <g id="patch_18">
    <path clip-path="url(#p1c6b4f3eb4)" d="M 93.275891 126.44874 
L 94.833858 126.44874 
L 94.833858 126.44874 
L 93.275891 126.44874 
z
" style="fill:#1f77b4;opacity:0.5;"/>
   </g>
   <g id="patch_19">
    <path clip-path="url(#p1c6b4f3eb4)" d="M 95.22335 126.44874 
L 96.781317 126.44874 
L 96.781317 126.448435 
L 95.22335 126.448435 
z
" style="fill:#1f77b4;opacity:0.5;"/>
   </g>
   <g id="patch_20">
    <path clip-path="url(#p1c6b4f3eb4)" d="M 97.170809 126.44874 
L 98.728776 126.44874 
L 98.728776 126.44752 
L 97.170809 126.44752 
z
" style="fill:#1f77b4;opacity:0.5;"/>
   </g>
   <g id="patch_21">
    <path clip-path="url(#p1c6b4f3eb4)" d="M 99.118268 126.44874 
L 100.676235 126.44874 
L 100.676235 126.447215 
L 99.118268 126.447215 
z
" style="fill:#1f77b4;opacity:0.5;"/>
   </g>
   <g id="patch_22">
    <path clip-path="url(#p1c6b4f3eb4)" d="M 101.065727 126.44874 
L 102.623694 126.44874 
L 102.623694 126.444774 
L 101.065727 126.444774 
z
" style="fill:#1f77b4;opacity:0.5;"/>
   </g>
   <g id="patch_23">
    <path clip-path="url(#p1c6b4f3eb4)" d="M 103.013186 126.44874 
L 104.571153 126.44874 
L 104.571153 126.445994 
L 103.013186 126.445994 
z
" style="fill:#1f77b4;opacity:0.5;"/>
   </g>
   <g id="patch_24">
    <path clip-path="url(#p1c6b4f3eb4)" d="M 104.960645 126.44874 
L 106.518612 126.44874 
L 106.518612 126.438977 
L 104.960645 126.438977 
z
" style="fill:#1f77b4;opacity:0.5;"/>
   </g>
   <g id="patch_25">
    <path clip-path="url(#p1c6b4f3eb4)" d="M 106.908104 126.44874 
L 108.466071 126.44874 
L 108.466071 126.443554 
L 106.908104 126.443554 
z
" style="fill:#1f77b4;opacity:0.5;"/>
   </g>
   <g id="patch_26">
    <path clip-path="url(#p1c6b4f3eb4)" d="M 108.855563 126.44874 
L 110.41353 126.44874 
L 110.41353 126.439282 
L 108.855563 126.439282 
z
" style="fill:#1f77b4;opacity:0.5;"/>
   </g>
   <g id="patch_27">
    <path clip-path="url(#p1c6b4f3eb4)" d="M 110.803022 126.44874 
L 112.360989 126.44874 
L 112.360989 126.437452 
L 110.803022 126.437452 
z
" style="fill:#1f77b4;opacity:0.5;"/>
   </g>
   <g id="patch_28">
    <path clip-path="url(#p1c6b4f3eb4)" d="M 112.750481 126.44874 
L 114.308448 126.44874 
L 114.308448 126.433791 
L 112.750481 126.433791 
z
" style="fill:#1f77b4;opacity:0.5;"/>
   </g>
   <g id="patch_29">
    <path clip-path="url(#p1c6b4f3eb4)" d="M 114.69794 126.44874 
L 116.255907 126.44874 
L 116.255907 126.43013 
L 114.69794 126.43013 
z
" style="fill:#1f77b4;opacity:0.5;"/>
   </g>
   <g id="patch_30">
    <path clip-path="url(#p1c6b4f3eb4)" d="M 116.645399 126.44874 
L 118.203366 126.44874 
L 118.203366 126.414265 
L 116.645399 126.414265 
z
" style="fill:#1f77b4;opacity:0.5;"/>
   </g>
   <g id="patch_31">
    <path clip-path="url(#p1c6b4f3eb4)" d="M 118.592858 126.44874 
L 120.150825 126.44874 
L 120.150825 126.431655 
L 118.592858 126.431655 
z
" style="fill:#1f77b4;opacity:0.5;"/>
   </g>
   <g id="patch_32">
    <path clip-path="url(#p1c6b4f3eb4)" d="M 120.540317 126.44874 
L 122.098284 126.44874 
L 122.098284 126.400231 
L 120.540317 126.400231 
z
" style="fill:#1f77b4;opacity:0.5;"/>
   </g>
   <g id="patch_33">
    <path clip-path="url(#p1c6b4f3eb4)" d="M 122.487776 126.44874 
L 124.045744 126.44874 
L 124.045744 126.261109 
L 122.487776 126.261109 
z
" style="fill:#1f77b4;opacity:0.5;"/>
   </g>
   <g id="patch_34">
    <path clip-path="url(#p1c6b4f3eb4)" d="M 124.435235 126.44874 
L 125.993203 126.44874 
L 125.993203 126.316026 
L 124.435235 126.316026 
z
" style="fill:#1f77b4;opacity:0.5;"/>
   </g>
   <g id="patch_35">
    <path clip-path="url(#p1c6b4f3eb4)" d="M 126.382694 126.44874 
L 127.940662 126.44874 
L 127.940662 126.29589 
L 126.382694 126.29589 
z
" style="fill:#1f77b4;opacity:0.5;"/>
   </g>
   <g id="patch_36">
    <path clip-path="url(#p1c6b4f3eb4)" d="M 128.330153 126.44874 
L 129.888121 126.44874 
L 129.888121 126.185141 
L 128.330153 126.185141 
z
" style="fill:#1f77b4;opacity:0.5;"/>
   </g>
   <g id="patch_37">
    <path clip-path="url(#p1c6b4f3eb4)" d="M 130.277612 126.44874 
L 131.83558 126.44874 
L 131.83558 126.074393 
L 130.277612 126.074393 
z
" style="fill:#1f77b4;opacity:0.5;"/>
   </g>
   <g id="patch_38">
    <path clip-path="url(#p1c6b4f3eb4)" d="M 132.225072 126.44874 
L 133.783039 126.44874 
L 133.783039 125.984391 
L 132.225072 125.984391 
z
" style="fill:#1f77b4;opacity:0.5;"/>
   </g>
   <g id="patch_39">
    <path clip-path="url(#p1c6b4f3eb4)" d="M 134.172531 126.44874 
L 135.730498 126.44874 
L 135.730498 125.838558 
L 134.172531 125.838558 
z
" style="fill:#1f77b4;opacity:0.5;"/>
   </g>
   <g id="patch_40">
    <path clip-path="url(#p1c6b4f3eb4)" d="M 136.11999 126.44874 
L 137.677957 126.44874 
L 137.677957 126.010019 
L 136.11999 126.010019 
z
" style="fill:#1f77b4;opacity:0.5;"/>
   </g>
   <g id="patch_41">
    <path clip-path="url(#p1c6b4f3eb4)" d="M 138.067449 126.44874 
L 139.625416 126.44874 
L 139.625416 125.842524 
L 138.067449 125.842524 
z
" style="fill:#1f77b4;opacity:0.5;"/>
   </g>
   <g id="patch_42">
    <path clip-path="url(#p1c6b4f3eb4)" d="M 140.014908 126.44874 
L 141.572875 126.44874 
L 141.572875 125.674419 
L 140.014908 125.674419 
z
" style="fill:#1f77b4;opacity:0.5;"/>
   </g>
   <g id="patch_43">
    <path clip-path="url(#p1c6b4f3eb4)" d="M 141.962367 126.44874 
L 143.520334 126.44874 
L 143.520334 125.401973 
L 141.962367 125.401973 
z
" style="fill:#1f77b4;opacity:0.5;"/>
   </g>
   <g id="patch_44">
    <path clip-path="url(#p1c6b4f3eb4)" d="M 143.909826 126.44874 
L 145.467793 126.44874 
L 145.467793 125.584417 
L 143.909826 125.584417 
z
" style="fill:#1f77b4;opacity:0.5;"/>
   </g>
   <g id="patch_45">
    <path clip-path="url(#p1c6b4f3eb4)" d="M 145.857285 126.44874 
L 147.415252 126.44874 
L 147.415252 124.93976 
L 145.857285 124.93976 
z
" style="fill:#1f77b4;opacity:0.5;"/>
   </g>
   <g id="patch_46">
    <path clip-path="url(#p1c6b4f3eb4)" d="M 147.804744 126.44874 
L 149.362711 126.44874 
L 149.362711 125.336378 
L 147.804744 125.336378 
z
" style="fill:#1f77b4;opacity:0.5;"/>
   </g>
   <g id="patch_47">
    <path clip-path="url(#p1c6b4f3eb4)" d="M 149.752203 126.44874 
L 151.31017 126.44874 
L 151.31017 125.070644 
L 149.752203 125.070644 
z
" style="fill:#1f77b4;opacity:0.5;"/>
   </g>
   <g id="patch_48">
    <path clip-path="url(#p1c6b4f3eb4)" d="M 151.699662 126.44874 
L 153.257629 126.44874 
L 153.257629 124.44002 
L 151.699662 124.44002 
z
" style="fill:#1f77b4;opacity:0.5;"/>
   </g>
   <g id="patch_49">
    <path clip-path="url(#p1c6b4f3eb4)" d="M 153.647121 126.44874 
L 155.205088 126.44874 
L 155.205088 124.027232 
L 153.647121 124.027232 
z
" style="fill:#1f77b4;opacity:0.5;"/>
   </g>
   <g id="patch_50">
    <path clip-path="url(#p1c6b4f3eb4)" d="M 155.59458 126.44874 
L 157.152547 126.44874 
L 157.152547 123.831669 
L 155.59458 123.831669 
z
" style="fill:#1f77b4;opacity:0.5;"/>
   </g>
   <g id="patch_51">
    <path clip-path="url(#p1c6b4f3eb4)" d="M 157.542039 126.44874 
L 159.100006 126.44874 
L 159.100006 124.047368 
L 157.542039 124.047368 
z
" style="fill:#1f77b4;opacity:0.5;"/>
   </g>
   <g id="patch_52">
    <path clip-path="url(#p1c6b4f3eb4)" d="M 159.489498 126.44874 
L 161.047465 126.44874 
L 161.047465 123.950349 
L 159.489498 123.950349 
z
" style="fill:#1f77b4;opacity:0.5;"/>
   </g>
   <g id="patch_53">
    <path clip-path="url(#p1c6b4f3eb4)" d="M 161.436957 126.44874 
L 162.994924 126.44874 
L 162.994924 124.450699 
L 161.436957 124.450699 
z
" style="fill:#1f77b4;opacity:0.5;"/>
   </g>
   <g id="patch_54">
    <path clip-path="url(#p1c6b4f3eb4)" d="M 163.384416 126.44874 
L 164.942383 126.44874 
L 164.942383 124.496767 
L 163.384416 124.496767 
z
" style="fill:#1f77b4;opacity:0.5;"/>
   </g>
   <g id="patch_55">
    <path clip-path="url(#p1c6b4f3eb4)" d="M 165.331875 126.44874 
L 166.889842 126.44874 
L 166.889842 123.63519 
L 165.331875 123.63519 
z
" style="fill:#1f77b4;opacity:0.5;"/>
   </g>
   <g id="patch_56">
    <path clip-path="url(#p1c6b4f3eb4)" d="M 167.279334 126.44874 
L 168.837302 126.44874 
L 168.837302 124.093742 
L 167.279334 124.093742 
z
" style="fill:#1f77b4;opacity:0.5;"/>
   </g>
   <g id="patch_57">
    <path clip-path="url(#p1c6b4f3eb4)" d="M 169.226793 126.44874 
L 170.784761 126.44874 
L 170.784761 123.976892 
L 169.226793 123.976892 
z
" style="fill:#1f77b4;opacity:0.5;"/>
   </g>
   <g id="patch_58">
    <path clip-path="url(#p1c6b4f3eb4)" d="M 171.174252 126.44874 
L 172.73222 126.44874 
L 172.73222 124.169099 
L 171.174252 124.169099 
z
" style="fill:#1f77b4;opacity:0.5;"/>
   </g>
   <g id="patch_59">
    <path clip-path="url(#p1c6b4f3eb4)" d="M 173.121711 126.44874 
L 174.679679 126.44874 
L 174.679679 124.30517 
L 173.121711 124.30517 
z
" style="fill:#1f77b4;opacity:0.5;"/>
   </g>
   <g id="patch_60">
    <path clip-path="url(#p1c6b4f3eb4)" d="M 175.06917 126.44874 
L 176.627138 126.44874 
L 176.627138 124.611176 
L 175.06917 124.611176 
z
" style="fill:#1f77b4;opacity:0.5;"/>
   </g>
   <g id="patch_61">
    <path clip-path="url(#p1c6b4f3eb4)" d="M 177.016629 126.44874 
L 178.574597 126.44874 
L 178.574597 125.145086 
L 177.016629 125.145086 
z
" style="fill:#1f77b4;opacity:0.5;"/>
   </g>
   <g id="patch_62">
    <path clip-path="url(#p1c6b4f3eb4)" d="M 178.964089 126.44874 
L 180.522056 126.44874 
L 180.522056 124.777451 
L 178.964089 124.777451 
z
" style="fill:#1f77b4;opacity:0.5;"/>
   </g>
   <g id="patch_63">
    <path clip-path="url(#p1c6b4f3eb4)" d="M 180.911548 126.44874 
L 182.469515 126.44874 
L 182.469515 124.563277 
L 180.911548 124.563277 
z
" style="fill:#1f77b4;opacity:0.5;"/>
   </g>
   <g id="patch_64">
    <path clip-path="url(#p1c6b4f3eb4)" d="M 182.859007 126.44874 
L 184.416974 126.44874 
L 184.416974 124.692636 
L 182.859007 124.692636 
z
" style="fill:#1f77b4;opacity:0.5;"/>
   </g>
   <g id="patch_65">
    <path clip-path="url(#p1c6b4f3eb4)" d="M 184.806466 126.44874 
L 186.364433 126.44874 
L 186.364433 125.052643 
L 184.806466 125.052643 
z
" style="fill:#1f77b4;opacity:0.5;"/>
   </g>
   <g id="patch_66">
    <path clip-path="url(#p1c6b4f3eb4)" d="M 186.753925 126.44874 
L 188.311892 126.44874 
L 188.311892 124.97515 
L 186.753925 124.97515 
z
" style="fill:#1f77b4;opacity:0.5;"/>
   </g>
   <g id="patch_67">
    <path clip-path="url(#p1c6b4f3eb4)" d="M 188.701384 126.44874 
L 190.259351 126.44874 
L 190.259351 125.177426 
L 188.701384 125.177426 
z
" style="fill:#1f77b4;opacity:0.5;"/>
   </g>
   <g id="patch_68">
    <path clip-path="url(#p1c6b4f3eb4)" d="M 190.648843 126.44874 
L 192.20681 126.44874 
L 192.20681 125.387938 
L 190.648843 125.387938 
z
" style="fill:#1f77b4;opacity:0.5;"/>
   </g>
   <g id="patch_69">
    <path clip-path="url(#p1c6b4f3eb4)" d="M 192.596302 126.44874 
L 194.154269 126.44874 
L 194.154269 125.519738 
L 192.596302 125.519738 
z
" style="fill:#1f77b4;opacity:0.5;"/>
   </g>
   <g id="patch_70">
    <path clip-path="url(#p1c6b4f3eb4)" d="M 194.543761 126.44874 
L 196.101728 126.44874 
L 196.101728 124.895216 
L 194.543761 124.895216 
z
" style="fill:#1f77b4;opacity:0.5;"/>
   </g>
   <g id="patch_71">
    <path clip-path="url(#p1c6b4f3eb4)" d="M 196.49122 126.44874 
L 198.049187 126.44874 
L 198.049187 124.867453 
L 196.49122 124.867453 
z
" style="fill:#1f77b4;opacity:0.5;"/>
   </g>
   <g id="patch_72">
    <path clip-path="url(#p1c6b4f3eb4)" d="M 198.438679 126.44874 
L 199.996646 126.44874 
L 199.996646 124.846402 
L 198.438679 124.846402 
z
" style="fill:#1f77b4;opacity:0.5;"/>
   </g>
   <g id="patch_73">
    <path clip-path="url(#p1c6b4f3eb4)" d="M 200.386138 126.44874 
L 201.944105 126.44874 
L 201.944105 125.332717 
L 200.386138 125.332717 
z
" style="fill:#1f77b4;opacity:0.5;"/>
   </g>
   <g id="matplotlib.axis_1">
    <g id="xtick_1">
     <g id="line2d_1">
      <defs>
       <path d="M 0 0 
L 0 3.5 
" id="m1289278f0d" style="stroke:#000000;stroke-width:0.8;"/>
      </defs>
      <g>
       <use style="stroke:#000000;stroke-width:0.8;" x="201.165122" xlink:href="#m1289278f0d" y="126.44874"/>
      </g>
     </g>
     <g id="text_1">
      <!-- 19 Apr -->
      <defs>
       <path d="M 12.40625 8.296875 
L 28.515625 8.296875 
L 28.515625 63.921875 
L 10.984375 60.40625 
L 10.984375 69.390625 
L 28.421875 72.90625 
L 38.28125 72.90625 
L 38.28125 8.296875 
L 54.390625 8.296875 
L 54.390625 0 
L 12.40625 0 
z
" id="DejaVuSans-49"/>
       <path d="M 10.984375 1.515625 
L 10.984375 10.5 
Q 14.703125 8.734375 18.5 7.8125 
Q 22.3125 6.890625 25.984375 6.890625 
Q 35.75 6.890625 40.890625 13.453125 
Q 46.046875 20.015625 46.78125 33.40625 
Q 43.953125 29.203125 39.59375 26.953125 
Q 35.25 24.703125 29.984375 24.703125 
Q 19.046875 24.703125 12.671875 31.3125 
Q 6.296875 37.9375 6.296875 49.421875 
Q 6.296875 60.640625 12.9375 67.421875 
Q 19.578125 74.21875 30.609375 74.21875 
Q 43.265625 74.21875 49.921875 64.515625 
Q 56.59375 54.828125 56.59375 36.375 
Q 56.59375 19.140625 48.40625 8.859375 
Q 40.234375 -1.421875 26.421875 -1.421875 
Q 22.703125 -1.421875 18.890625 -0.6875 
Q 15.09375 0.046875 10.984375 1.515625 
z
M 30.609375 32.421875 
Q 37.25 32.421875 41.125 36.953125 
Q 45.015625 41.5 45.015625 49.421875 
Q 45.015625 57.28125 41.125 61.84375 
Q 37.25 66.40625 30.609375 66.40625 
Q 23.96875 66.40625 20.09375 61.84375 
Q 16.21875 57.28125 16.21875 49.421875 
Q 16.21875 41.5 20.09375 36.953125 
Q 23.96875 32.421875 30.609375 32.421875 
z
" id="DejaVuSans-57"/>
       <path id="DejaVuSans-32"/>
       <path d="M 34.1875 63.1875 
L 20.796875 26.90625 
L 47.609375 26.90625 
z
M 28.609375 72.90625 
L 39.796875 72.90625 
L 67.578125 0 
L 57.328125 0 
L 50.6875 18.703125 
L 17.828125 18.703125 
L 11.1875 0 
L 0.78125 0 
z
" id="DejaVuSans-65"/>
       <path d="M 18.109375 8.203125 
L 18.109375 -20.796875 
L 9.078125 -20.796875 
L 9.078125 54.6875 
L 18.109375 54.6875 
L 18.109375 46.390625 
Q 20.953125 51.265625 25.265625 53.625 
Q 29.59375 56 35.59375 56 
Q 45.5625 56 51.78125 48.09375 
Q 58.015625 40.1875 58.015625 27.296875 
Q 58.015625 14.40625 51.78125 6.484375 
Q 45.5625 -1.421875 35.59375 -1.421875 
Q 29.59375 -1.421875 25.265625 0.953125 
Q 20.953125 3.328125 18.109375 8.203125 
z
M 48.6875 27.296875 
Q 48.6875 37.203125 44.609375 42.84375 
Q 40.53125 48.484375 33.40625 48.484375 
Q 26.265625 48.484375 22.1875 42.84375 
Q 18.109375 37.203125 18.109375 27.296875 
Q 18.109375 17.390625 22.1875 11.75 
Q 26.265625 6.109375 33.40625 6.109375 
Q 40.53125 6.109375 44.609375 11.75 
Q 48.6875 17.390625 48.6875 27.296875 
z
" id="DejaVuSans-112"/>
       <path d="M 41.109375 46.296875 
Q 39.59375 47.171875 37.8125 47.578125 
Q 36.03125 48 33.890625 48 
Q 26.265625 48 22.1875 43.046875 
Q 18.109375 38.09375 18.109375 28.8125 
L 18.109375 0 
L 9.078125 0 
L 9.078125 54.6875 
L 18.109375 54.6875 
L 18.109375 46.1875 
Q 20.953125 51.171875 25.484375 53.578125 
Q 30.03125 56 36.53125 56 
Q 37.453125 56 38.578125 55.875 
Q 39.703125 55.765625 41.0625 55.515625 
z
" id="DejaVuSans-114"/>
      </defs>
      <g transform="translate(203.372622 160.01124)rotate(-90)scale(0.08 -0.08)">
       <use xlink:href="#DejaVuSans-49"/>
       <use x="63.623047" xlink:href="#DejaVuSans-57"/>
       <use x="127.246094" xlink:href="#DejaVuSans-32"/>
       <use x="159.033203" xlink:href="#DejaVuSans-65"/>
       <use x="227.441406" xlink:href="#DejaVuSans-112"/>
       <use x="290.917969" xlink:href="#DejaVuSans-114"/>
      </g>
     </g>
    </g>
    <g id="xtick_2">
     <g id="line2d_2">
      <g>
       <use style="stroke:#000000;stroke-width:0.8;" x="187.532908" xlink:href="#m1289278f0d" y="126.44874"/>
      </g>
     </g>
     <g id="text_2">
      <!-- 12 Apr -->
      <defs>
       <path d="M 19.1875 8.296875 
L 53.609375 8.296875 
L 53.609375 0 
L 7.328125 0 
L 7.328125 8.296875 
Q 12.9375 14.109375 22.625 23.890625 
Q 32.328125 33.6875 34.8125 36.53125 
Q 39.546875 41.84375 41.421875 45.53125 
Q 43.3125 49.21875 43.3125 52.78125 
Q 43.3125 58.59375 39.234375 62.25 
Q 35.15625 65.921875 28.609375 65.921875 
Q 23.96875 65.921875 18.8125 64.3125 
Q 13.671875 62.703125 7.8125 59.421875 
L 7.8125 69.390625 
Q 13.765625 71.78125 18.9375 73 
Q 24.125 74.21875 28.421875 74.21875 
Q 39.75 74.21875 46.484375 68.546875 
Q 53.21875 62.890625 53.21875 53.421875 
Q 53.21875 48.921875 51.53125 44.890625 
Q 49.859375 40.875 45.40625 35.40625 
Q 44.1875 33.984375 37.640625 27.21875 
Q 31.109375 20.453125 19.1875 8.296875 
z
" id="DejaVuSans-50"/>
      </defs>
      <g transform="translate(189.740408 160.01124)rotate(-90)scale(0.08 -0.08)">
       <use xlink:href="#DejaVuSans-49"/>
       <use x="63.623047" xlink:href="#DejaVuSans-50"/>
       <use x="127.246094" xlink:href="#DejaVuSans-32"/>
       <use x="159.033203" xlink:href="#DejaVuSans-65"/>
       <use x="227.441406" xlink:href="#DejaVuSans-112"/>
       <use x="290.917969" xlink:href="#DejaVuSans-114"/>
      </g>
     </g>
    </g>
    <g id="xtick_3">
     <g id="line2d_3">
      <g>
       <use style="stroke:#000000;stroke-width:0.8;" x="173.900695" xlink:href="#m1289278f0d" y="126.44874"/>
      </g>
     </g>
     <g id="text_3">
      <!-- 5 Apr -->
      <defs>
       <path d="M 10.796875 72.90625 
L 49.515625 72.90625 
L 49.515625 64.59375 
L 19.828125 64.59375 
L 19.828125 46.734375 
Q 21.96875 47.46875 24.109375 47.828125 
Q 26.265625 48.1875 28.421875 48.1875 
Q 40.625 48.1875 47.75 41.5 
Q 54.890625 34.8125 54.890625 23.390625 
Q 54.890625 11.625 47.5625 5.09375 
Q 40.234375 -1.421875 26.90625 -1.421875 
Q 22.3125 -1.421875 17.546875 -0.640625 
Q 12.796875 0.140625 7.71875 1.703125 
L 7.71875 11.625 
Q 12.109375 9.234375 16.796875 8.0625 
Q 21.484375 6.890625 26.703125 6.890625 
Q 35.15625 6.890625 40.078125 11.328125 
Q 45.015625 15.765625 45.015625 23.390625 
Q 45.015625 31 40.078125 35.4375 
Q 35.15625 39.890625 26.703125 39.890625 
Q 22.75 39.890625 18.8125 39.015625 
Q 14.890625 38.140625 10.796875 36.28125 
z
" id="DejaVuSans-53"/>
      </defs>
      <g transform="translate(176.108195 154.92124)rotate(-90)scale(0.08 -0.08)">
       <use xlink:href="#DejaVuSans-53"/>
       <use x="63.623047" xlink:href="#DejaVuSans-32"/>
       <use x="95.410156" xlink:href="#DejaVuSans-65"/>
       <use x="163.818359" xlink:href="#DejaVuSans-112"/>
       <use x="227.294922" xlink:href="#DejaVuSans-114"/>
      </g>
     </g>
    </g>
    <g id="xtick_4">
     <g id="line2d_4">
      <g>
       <use style="stroke:#000000;stroke-width:0.8;" x="160.268482" xlink:href="#m1289278f0d" y="126.44874"/>
      </g>
     </g>
     <g id="text_4">
      <!-- 29 Mar -->
      <defs>
       <path d="M 9.8125 72.90625 
L 24.515625 72.90625 
L 43.109375 23.296875 
L 61.8125 72.90625 
L 76.515625 72.90625 
L 76.515625 0 
L 66.890625 0 
L 66.890625 64.015625 
L 48.09375 14.015625 
L 38.1875 14.015625 
L 19.390625 64.015625 
L 19.390625 0 
L 9.8125 0 
z
" id="DejaVuSans-77"/>
       <path d="M 34.28125 27.484375 
Q 23.390625 27.484375 19.1875 25 
Q 14.984375 22.515625 14.984375 16.5 
Q 14.984375 11.71875 18.140625 8.90625 
Q 21.296875 6.109375 26.703125 6.109375 
Q 34.1875 6.109375 38.703125 11.40625 
Q 43.21875 16.703125 43.21875 25.484375 
L 43.21875 27.484375 
z
M 52.203125 31.203125 
L 52.203125 0 
L 43.21875 0 
L 43.21875 8.296875 
Q 40.140625 3.328125 35.546875 0.953125 
Q 30.953125 -1.421875 24.3125 -1.421875 
Q 15.921875 -1.421875 10.953125 3.296875 
Q 6 8.015625 6 15.921875 
Q 6 25.140625 12.171875 29.828125 
Q 18.359375 34.515625 30.609375 34.515625 
L 43.21875 34.515625 
L 43.21875 35.40625 
Q 43.21875 41.609375 39.140625 45 
Q 35.0625 48.390625 27.6875 48.390625 
Q 23 48.390625 18.546875 47.265625 
Q 14.109375 46.140625 10.015625 43.890625 
L 10.015625 52.203125 
Q 14.9375 54.109375 19.578125 55.046875 
Q 24.21875 56 28.609375 56 
Q 40.484375 56 46.34375 49.84375 
Q 52.203125 43.703125 52.203125 31.203125 
z
" id="DejaVuSans-97"/>
      </defs>
      <g transform="translate(162.475982 161.26499)rotate(-90)scale(0.08 -0.08)">
       <use xlink:href="#DejaVuSans-50"/>
       <use x="63.623047" xlink:href="#DejaVuSans-57"/>
       <use x="127.246094" xlink:href="#DejaVuSans-32"/>
       <use x="159.033203" xlink:href="#DejaVuSans-77"/>
       <use x="245.3125" xlink:href="#DejaVuSans-97"/>
       <use x="306.591797" xlink:href="#DejaVuSans-114"/>
      </g>
     </g>
    </g>
    <g id="xtick_5">
     <g id="line2d_5">
      <g>
       <use style="stroke:#000000;stroke-width:0.8;" x="146.636268" xlink:href="#m1289278f0d" y="126.44874"/>
      </g>
     </g>
     <g id="text_5">
      <!-- 22 Mar -->
      <g transform="translate(148.843768 161.26499)rotate(-90)scale(0.08 -0.08)">
       <use xlink:href="#DejaVuSans-50"/>
       <use x="63.623047" xlink:href="#DejaVuSans-50"/>
       <use x="127.246094" xlink:href="#DejaVuSans-32"/>
       <use x="159.033203" xlink:href="#DejaVuSans-77"/>
       <use x="245.3125" xlink:href="#DejaVuSans-97"/>
       <use x="306.591797" xlink:href="#DejaVuSans-114"/>
      </g>
     </g>
    </g>
    <g id="xtick_6">
     <g id="line2d_6">
      <g>
       <use style="stroke:#000000;stroke-width:0.8;" x="133.004055" xlink:href="#m1289278f0d" y="126.44874"/>
      </g>
     </g>
     <g id="text_6">
      <!-- 15 Mar -->
      <g transform="translate(135.211555 161.26499)rotate(-90)scale(0.08 -0.08)">
       <use xlink:href="#DejaVuSans-49"/>
       <use x="63.623047" xlink:href="#DejaVuSans-53"/>
       <use x="127.246094" xlink:href="#DejaVuSans-32"/>
       <use x="159.033203" xlink:href="#DejaVuSans-77"/>
       <use x="245.3125" xlink:href="#DejaVuSans-97"/>
       <use x="306.591797" xlink:href="#DejaVuSans-114"/>
      </g>
     </g>
    </g>
    <g id="xtick_7">
     <g id="line2d_7">
      <g>
       <use style="stroke:#000000;stroke-width:0.8;" x="119.371842" xlink:href="#m1289278f0d" y="126.44874"/>
      </g>
     </g>
     <g id="text_7">
      <!-- 8 Mar -->
      <defs>
       <path d="M 31.78125 34.625 
Q 24.75 34.625 20.71875 30.859375 
Q 16.703125 27.09375 16.703125 20.515625 
Q 16.703125 13.921875 20.71875 10.15625 
Q 24.75 6.390625 31.78125 6.390625 
Q 38.8125 6.390625 42.859375 10.171875 
Q 46.921875 13.96875 46.921875 20.515625 
Q 46.921875 27.09375 42.890625 30.859375 
Q 38.875 34.625 31.78125 34.625 
z
M 21.921875 38.8125 
Q 15.578125 40.375 12.03125 44.71875 
Q 8.5 49.078125 8.5 55.328125 
Q 8.5 64.0625 14.71875 69.140625 
Q 20.953125 74.21875 31.78125 74.21875 
Q 42.671875 74.21875 48.875 69.140625 
Q 55.078125 64.0625 55.078125 55.328125 
Q 55.078125 49.078125 51.53125 44.71875 
Q 48 40.375 41.703125 38.8125 
Q 48.828125 37.15625 52.796875 32.3125 
Q 56.78125 27.484375 56.78125 20.515625 
Q 56.78125 9.90625 50.3125 4.234375 
Q 43.84375 -1.421875 31.78125 -1.421875 
Q 19.734375 -1.421875 13.25 4.234375 
Q 6.78125 9.90625 6.78125 20.515625 
Q 6.78125 27.484375 10.78125 32.3125 
Q 14.796875 37.15625 21.921875 38.8125 
z
M 18.3125 54.390625 
Q 18.3125 48.734375 21.84375 45.5625 
Q 25.390625 42.390625 31.78125 42.390625 
Q 38.140625 42.390625 41.71875 45.5625 
Q 45.3125 48.734375 45.3125 54.390625 
Q 45.3125 60.0625 41.71875 63.234375 
Q 38.140625 66.40625 31.78125 66.40625 
Q 25.390625 66.40625 21.84375 63.234375 
Q 18.3125 60.0625 18.3125 54.390625 
z
" id="DejaVuSans-56"/>
      </defs>
      <g transform="translate(121.579342 156.17499)rotate(-90)scale(0.08 -0.08)">
       <use xlink:href="#DejaVuSans-56"/>
       <use x="63.623047" xlink:href="#DejaVuSans-32"/>
       <use x="95.410156" xlink:href="#DejaVuSans-77"/>
       <use x="181.689453" xlink:href="#DejaVuSans-97"/>
       <use x="242.96875" xlink:href="#DejaVuSans-114"/>
      </g>
     </g>
    </g>
    <g id="xtick_8">
     <g id="line2d_8">
      <g>
       <use style="stroke:#000000;stroke-width:0.8;" x="105.739629" xlink:href="#m1289278f0d" y="126.44874"/>
      </g>
     </g>
     <g id="text_8">
      <!-- 1 Mar -->
      <g transform="translate(107.947129 156.17499)rotate(-90)scale(0.08 -0.08)">
       <use xlink:href="#DejaVuSans-49"/>
       <use x="63.623047" xlink:href="#DejaVuSans-32"/>
       <use x="95.410156" xlink:href="#DejaVuSans-77"/>
       <use x="181.689453" xlink:href="#DejaVuSans-97"/>
       <use x="242.96875" xlink:href="#DejaVuSans-114"/>
      </g>
     </g>
    </g>
    <g id="xtick_9">
     <g id="line2d_9">
      <g>
       <use style="stroke:#000000;stroke-width:0.8;" x="92.107415" xlink:href="#m1289278f0d" y="126.44874"/>
      </g>
     </g>
     <g id="text_9">
      <!-- 23 Feb -->
      <defs>
       <path d="M 40.578125 39.3125 
Q 47.65625 37.796875 51.625 33 
Q 55.609375 28.21875 55.609375 21.1875 
Q 55.609375 10.40625 48.1875 4.484375 
Q 40.765625 -1.421875 27.09375 -1.421875 
Q 22.515625 -1.421875 17.65625 -0.515625 
Q 12.796875 0.390625 7.625 2.203125 
L 7.625 11.71875 
Q 11.71875 9.328125 16.59375 8.109375 
Q 21.484375 6.890625 26.8125 6.890625 
Q 36.078125 6.890625 40.9375 10.546875 
Q 45.796875 14.203125 45.796875 21.1875 
Q 45.796875 27.640625 41.28125 31.265625 
Q 36.765625 34.90625 28.71875 34.90625 
L 20.21875 34.90625 
L 20.21875 43.015625 
L 29.109375 43.015625 
Q 36.375 43.015625 40.234375 45.921875 
Q 44.09375 48.828125 44.09375 54.296875 
Q 44.09375 59.90625 40.109375 62.90625 
Q 36.140625 65.921875 28.71875 65.921875 
Q 24.65625 65.921875 20.015625 65.03125 
Q 15.375 64.15625 9.8125 62.3125 
L 9.8125 71.09375 
Q 15.4375 72.65625 20.34375 73.4375 
Q 25.25 74.21875 29.59375 74.21875 
Q 40.828125 74.21875 47.359375 69.109375 
Q 53.90625 64.015625 53.90625 55.328125 
Q 53.90625 49.265625 50.4375 45.09375 
Q 46.96875 40.921875 40.578125 39.3125 
z
" id="DejaVuSans-51"/>
       <path d="M 9.8125 72.90625 
L 51.703125 72.90625 
L 51.703125 64.59375 
L 19.671875 64.59375 
L 19.671875 43.109375 
L 48.578125 43.109375 
L 48.578125 34.8125 
L 19.671875 34.8125 
L 19.671875 0 
L 9.8125 0 
z
" id="DejaVuSans-70"/>
       <path d="M 56.203125 29.59375 
L 56.203125 25.203125 
L 14.890625 25.203125 
Q 15.484375 15.921875 20.484375 11.0625 
Q 25.484375 6.203125 34.421875 6.203125 
Q 39.59375 6.203125 44.453125 7.46875 
Q 49.3125 8.734375 54.109375 11.28125 
L 54.109375 2.78125 
Q 49.265625 0.734375 44.1875 -0.34375 
Q 39.109375 -1.421875 33.890625 -1.421875 
Q 20.796875 -1.421875 13.15625 6.1875 
Q 5.515625 13.8125 5.515625 26.8125 
Q 5.515625 40.234375 12.765625 48.109375 
Q 20.015625 56 32.328125 56 
Q 43.359375 56 49.78125 48.890625 
Q 56.203125 41.796875 56.203125 29.59375 
z
M 47.21875 32.234375 
Q 47.125 39.59375 43.09375 43.984375 
Q 39.0625 48.390625 32.421875 48.390625 
Q 24.90625 48.390625 20.390625 44.140625 
Q 15.875 39.890625 15.1875 32.171875 
z
" id="DejaVuSans-101"/>
       <path d="M 48.6875 27.296875 
Q 48.6875 37.203125 44.609375 42.84375 
Q 40.53125 48.484375 33.40625 48.484375 
Q 26.265625 48.484375 22.1875 42.84375 
Q 18.109375 37.203125 18.109375 27.296875 
Q 18.109375 17.390625 22.1875 11.75 
Q 26.265625 6.109375 33.40625 6.109375 
Q 40.53125 6.109375 44.609375 11.75 
Q 48.6875 17.390625 48.6875 27.296875 
z
M 18.109375 46.390625 
Q 20.953125 51.265625 25.265625 53.625 
Q 29.59375 56 35.59375 56 
Q 45.5625 56 51.78125 48.09375 
Q 58.015625 40.1875 58.015625 27.296875 
Q 58.015625 14.40625 51.78125 6.484375 
Q 45.5625 -1.421875 35.59375 -1.421875 
Q 29.59375 -1.421875 25.265625 0.953125 
Q 20.953125 3.328125 18.109375 8.203125 
L 18.109375 0 
L 9.078125 0 
L 9.078125 75.984375 
L 18.109375 75.984375 
z
" id="DejaVuSans-98"/>
      </defs>
      <g transform="translate(94.314915 160.33374)rotate(-90)scale(0.08 -0.08)">
       <use xlink:href="#DejaVuSans-50"/>
       <use x="63.623047" xlink:href="#DejaVuSans-51"/>
       <use x="127.246094" xlink:href="#DejaVuSans-32"/>
       <use x="159.033203" xlink:href="#DejaVuSans-70"/>
       <use x="211.052734" xlink:href="#DejaVuSans-101"/>
       <use x="272.576172" xlink:href="#DejaVuSans-98"/>
      </g>
     </g>
    </g>
    <g id="xtick_10">
     <g id="line2d_10">
      <g>
       <use style="stroke:#000000;stroke-width:0.8;" x="78.475202" xlink:href="#m1289278f0d" y="126.44874"/>
      </g>
     </g>
     <g id="text_10">
      <!-- 16 Feb -->
      <defs>
       <path d="M 33.015625 40.375 
Q 26.375 40.375 22.484375 35.828125 
Q 18.609375 31.296875 18.609375 23.390625 
Q 18.609375 15.53125 22.484375 10.953125 
Q 26.375 6.390625 33.015625 6.390625 
Q 39.65625 6.390625 43.53125 10.953125 
Q 47.40625 15.53125 47.40625 23.390625 
Q 47.40625 31.296875 43.53125 35.828125 
Q 39.65625 40.375 33.015625 40.375 
z
M 52.59375 71.296875 
L 52.59375 62.3125 
Q 48.875 64.0625 45.09375 64.984375 
Q 41.3125 65.921875 37.59375 65.921875 
Q 27.828125 65.921875 22.671875 59.328125 
Q 17.53125 52.734375 16.796875 39.40625 
Q 19.671875 43.65625 24.015625 45.921875 
Q 28.375 48.1875 33.59375 48.1875 
Q 44.578125 48.1875 50.953125 41.515625 
Q 57.328125 34.859375 57.328125 23.390625 
Q 57.328125 12.15625 50.6875 5.359375 
Q 44.046875 -1.421875 33.015625 -1.421875 
Q 20.359375 -1.421875 13.671875 8.265625 
Q 6.984375 17.96875 6.984375 36.375 
Q 6.984375 53.65625 15.1875 63.9375 
Q 23.390625 74.21875 37.203125 74.21875 
Q 40.921875 74.21875 44.703125 73.484375 
Q 48.484375 72.75 52.59375 71.296875 
z
" id="DejaVuSans-54"/>
      </defs>
      <g transform="translate(80.682702 160.33374)rotate(-90)scale(0.08 -0.08)">
       <use xlink:href="#DejaVuSans-49"/>
       <use x="63.623047" xlink:href="#DejaVuSans-54"/>
       <use x="127.246094" xlink:href="#DejaVuSans-32"/>
       <use x="159.033203" xlink:href="#DejaVuSans-70"/>
       <use x="211.052734" xlink:href="#DejaVuSans-101"/>
       <use x="272.576172" xlink:href="#DejaVuSans-98"/>
      </g>
     </g>
    </g>
   </g>
   <g id="matplotlib.axis_2">
    <g id="ytick_1">
     <g id="line2d_11">
      <defs>
       <path d="M 0 0 
L -3.5 0 
" id="m571e2edf16" style="stroke:#000000;stroke-width:0.8;"/>
      </defs>
      <g>
       <use style="stroke:#000000;stroke-width:0.8;" x="57.17" xlink:href="#m571e2edf16" y="126.44874"/>
      </g>
     </g>
     <g id="text_11">
      <!-- 0 -->
      <defs>
       <path d="M 31.78125 66.40625 
Q 24.171875 66.40625 20.328125 58.90625 
Q 16.5 51.421875 16.5 36.375 
Q 16.5 21.390625 20.328125 13.890625 
Q 24.171875 6.390625 31.78125 6.390625 
Q 39.453125 6.390625 43.28125 13.890625 
Q 47.125 21.390625 47.125 36.375 
Q 47.125 51.421875 43.28125 58.90625 
Q 39.453125 66.40625 31.78125 66.40625 
z
M 31.78125 74.21875 
Q 44.046875 74.21875 50.515625 64.515625 
Q 56.984375 54.828125 56.984375 36.375 
Q 56.984375 17.96875 50.515625 8.265625 
Q 44.046875 -1.421875 31.78125 -1.421875 
Q 19.53125 -1.421875 13.0625 8.265625 
Q 6.59375 17.96875 6.59375 36.375 
Q 6.59375 54.828125 13.0625 64.515625 
Q 19.53125 74.21875 31.78125 74.21875 
z
" id="DejaVuSans-48"/>
      </defs>
      <g transform="translate(45.08 129.488115)scale(0.08 -0.08)">
       <use xlink:href="#DejaVuSans-48"/>
      </g>
     </g>
    </g>
    <g id="ytick_2">
     <g id="line2d_12">
      <g>
       <use style="stroke:#000000;stroke-width:0.8;" x="57.17" xlink:href="#m571e2edf16" y="95.93963"/>
      </g>
     </g>
     <g id="text_12">
      <!-- 100000 -->
      <g transform="translate(19.63 98.979005)scale(0.08 -0.08)">
       <use xlink:href="#DejaVuSans-49"/>
       <use x="63.623047" xlink:href="#DejaVuSans-48"/>
       <use x="127.246094" xlink:href="#DejaVuSans-48"/>
       <use x="190.869141" xlink:href="#DejaVuSans-48"/>
       <use x="254.492188" xlink:href="#DejaVuSans-48"/>
       <use x="318.115234" xlink:href="#DejaVuSans-48"/>
      </g>
     </g>
    </g>
    <g id="ytick_3">
     <g id="line2d_13">
      <g>
       <use style="stroke:#000000;stroke-width:0.8;" x="57.17" xlink:href="#m571e2edf16" y="65.430519"/>
      </g>
     </g>
     <g id="text_13">
      <!-- 200000 -->
      <g transform="translate(19.63 68.469894)scale(0.08 -0.08)">
       <use xlink:href="#DejaVuSans-50"/>
       <use x="63.623047" xlink:href="#DejaVuSans-48"/>
       <use x="127.246094" xlink:href="#DejaVuSans-48"/>
       <use x="190.869141" xlink:href="#DejaVuSans-48"/>
       <use x="254.492188" xlink:href="#DejaVuSans-48"/>
       <use x="318.115234" xlink:href="#DejaVuSans-48"/>
      </g>
     </g>
    </g>
    <g id="ytick_4">
     <g id="line2d_14">
      <g>
       <use style="stroke:#000000;stroke-width:0.8;" x="57.17" xlink:href="#m571e2edf16" y="34.921409"/>
      </g>
     </g>
     <g id="text_14">
      <!-- 300000 -->
      <g transform="translate(19.63 37.960784)scale(0.08 -0.08)">
       <use xlink:href="#DejaVuSans-51"/>
       <use x="63.623047" xlink:href="#DejaVuSans-48"/>
       <use x="127.246094" xlink:href="#DejaVuSans-48"/>
       <use x="190.869141" xlink:href="#DejaVuSans-48"/>
       <use x="254.492188" xlink:href="#DejaVuSans-48"/>
       <use x="318.115234" xlink:href="#DejaVuSans-48"/>
      </g>
     </g>
    </g>
    <g id="text_15">
     <!-- Cases per day -->
     <defs>
      <path d="M 64.40625 67.28125 
L 64.40625 56.890625 
Q 59.421875 61.53125 53.78125 63.8125 
Q 48.140625 66.109375 41.796875 66.109375 
Q 29.296875 66.109375 22.65625 58.46875 
Q 16.015625 50.828125 16.015625 36.375 
Q 16.015625 21.96875 22.65625 14.328125 
Q 29.296875 6.6875 41.796875 6.6875 
Q 48.140625 6.6875 53.78125 8.984375 
Q 59.421875 11.28125 64.40625 15.921875 
L 64.40625 5.609375 
Q 59.234375 2.09375 53.4375 0.328125 
Q 47.65625 -1.421875 41.21875 -1.421875 
Q 24.65625 -1.421875 15.125 8.703125 
Q 5.609375 18.84375 5.609375 36.375 
Q 5.609375 53.953125 15.125 64.078125 
Q 24.65625 74.21875 41.21875 74.21875 
Q 47.75 74.21875 53.53125 72.484375 
Q 59.328125 70.75 64.40625 67.28125 
z
" id="DejaVuSans-67"/>
      <path d="M 44.28125 53.078125 
L 44.28125 44.578125 
Q 40.484375 46.53125 36.375 47.5 
Q 32.28125 48.484375 27.875 48.484375 
Q 21.1875 48.484375 17.84375 46.4375 
Q 14.5 44.390625 14.5 40.28125 
Q 14.5 37.15625 16.890625 35.375 
Q 19.28125 33.59375 26.515625 31.984375 
L 29.59375 31.296875 
Q 39.15625 29.25 43.1875 25.515625 
Q 47.21875 21.78125 47.21875 15.09375 
Q 47.21875 7.46875 41.1875 3.015625 
Q 35.15625 -1.421875 24.609375 -1.421875 
Q 20.21875 -1.421875 15.453125 -0.5625 
Q 10.6875 0.296875 5.421875 2 
L 5.421875 11.28125 
Q 10.40625 8.6875 15.234375 7.390625 
Q 20.0625 6.109375 24.8125 6.109375 
Q 31.15625 6.109375 34.5625 8.28125 
Q 37.984375 10.453125 37.984375 14.40625 
Q 37.984375 18.0625 35.515625 20.015625 
Q 33.0625 21.96875 24.703125 23.78125 
L 21.578125 24.515625 
Q 13.234375 26.265625 9.515625 29.90625 
Q 5.8125 33.546875 5.8125 39.890625 
Q 5.8125 47.609375 11.28125 51.796875 
Q 16.75 56 26.8125 56 
Q 31.78125 56 36.171875 55.265625 
Q 40.578125 54.546875 44.28125 53.078125 
z
" id="DejaVuSans-115"/>
      <path d="M 45.40625 46.390625 
L 45.40625 75.984375 
L 54.390625 75.984375 
L 54.390625 0 
L 45.40625 0 
L 45.40625 8.203125 
Q 42.578125 3.328125 38.25 0.953125 
Q 33.9375 -1.421875 27.875 -1.421875 
Q 17.96875 -1.421875 11.734375 6.484375 
Q 5.515625 14.40625 5.515625 27.296875 
Q 5.515625 40.1875 11.734375 48.09375 
Q 17.96875 56 27.875 56 
Q 33.9375 56 38.25 53.625 
Q 42.578125 51.265625 45.40625 46.390625 
z
M 14.796875 27.296875 
Q 14.796875 17.390625 18.875 11.75 
Q 22.953125 6.109375 30.078125 6.109375 
Q 37.203125 6.109375 41.296875 11.75 
Q 45.40625 17.390625 45.40625 27.296875 
Q 45.40625 37.203125 41.296875 42.84375 
Q 37.203125 48.484375 30.078125 48.484375 
Q 22.953125 48.484375 18.875 42.84375 
Q 14.796875 37.203125 14.796875 27.296875 
z
" id="DejaVuSans-100"/>
      <path d="M 32.171875 -5.078125 
Q 28.375 -14.84375 24.75 -17.8125 
Q 21.140625 -20.796875 15.09375 -20.796875 
L 7.90625 -20.796875 
L 7.90625 -13.28125 
L 13.1875 -13.28125 
Q 16.890625 -13.28125 18.9375 -11.515625 
Q 21 -9.765625 23.484375 -3.21875 
L 25.09375 0.875 
L 2.984375 54.6875 
L 12.5 54.6875 
L 29.59375 11.921875 
L 46.6875 54.6875 
L 56.203125 54.6875 
z
" id="DejaVuSans-121"/>
     </defs>
     <g transform="translate(13.96625 97.40312)rotate(-90)scale(0.08 -0.08)">
      <use xlink:href="#DejaVuSans-67"/>
      <use x="69.824219" xlink:href="#DejaVuSans-97"/>
      <use x="131.103516" xlink:href="#DejaVuSans-115"/>
      <use x="183.203125" xlink:href="#DejaVuSans-101"/>
      <use x="244.726562" xlink:href="#DejaVuSans-115"/>
      <use x="296.826172" xlink:href="#DejaVuSans-32"/>
      <use x="328.613281" xlink:href="#DejaVuSans-112"/>
      <use x="392.089844" xlink:href="#DejaVuSans-101"/>
      <use x="453.613281" xlink:href="#DejaVuSans-114"/>
      <use x="494.726562" xlink:href="#DejaVuSans-32"/>
      <use x="526.513672" xlink:href="#DejaVuSans-100"/>
      <use x="589.990234" xlink:href="#DejaVuSans-97"/>
      <use x="651.269531" xlink:href="#DejaVuSans-121"/>
     </g>
    </g>
   </g>
   <g id="line2d_15">
    <path clip-path="url(#p1c6b4f3eb4)" d="M 64.842989 126.431004 
L 66.790448 126.431004 
L 68.737907 126.431004 
L 70.685366 126.431004 
L 72.632825 126.431004 
L 74.580284 126.431004 
L 76.527743 126.417613 
L 78.475202 126.405709 
L 80.422661 126.399601 
L 82.37012 126.389593 
L 84.317579 126.371975 
L 86.265038 126.352593 
L 88.212497 126.324054 
L 90.159956 126.291076 
L 92.107415 126.185773 
L 94.054874 126.188622 
L 96.002333 126.153845 
L 97.949792 125.99745 
L 99.897251 125.787314 
L 101.84471 125.950141 
L 103.792169 125.509539 
L 105.739629 125.18481 
L 107.687088 125.119085 
L 109.634547 124.600297 
L 111.582006 124.007038 
L 113.529465 123.545757 
L 115.476924 122.752439 
L 117.424383 121.859862 
L 119.371842 119.264239 
L 121.319301 118.234848 
L 123.26676 109.392949 
L 125.214219 104.694286 
L 127.161678 83.709598 
L 129.109137 52.223813 
L 131.056596 100.479201 
L 133.004055 116.796403 
L 134.951514 106.821566 
L 136.898973 108.775386 
L 138.846432 106.238181 
L 140.793891 116.175659 
L 142.74135 108.276791 
L 144.688809 114.598666 
L 146.636268 119.721853 
L 148.583727 112.783857 
L 150.531187 114.877933 
L 152.478646 115.671788 
L 154.426105 116.312277 
L 156.373564 115.89403 
L 158.321023 117.889588 
L 160.268482 120.930006 
" style="fill:none;stroke:#0000ff;stroke-linecap:square;stroke-opacity:0.5;"/>
   </g>
   <g id="line2d_16">
    <path clip-path="url(#p1c6b4f3eb4)" d="M 162.215941 120.968969 
L 164.1634 121.06857 
L 166.110859 121.203036 
L 168.058318 121.341743 
L 170.005777 121.463555 
L 171.953236 121.556418 
L 173.900695 121.614335 
L 175.848154 121.634675 
L 177.795613 121.616365 
L 179.743072 121.558813 
L 181.690531 121.46131 
L 183.63799 121.322714 
L 185.585449 121.141281 
L 187.532908 120.914563 
L 189.480367 120.639328 
L 191.427826 120.311486 
L 193.375285 119.925998 
L 195.322744 119.476775 
L 197.270204 118.956544 
L 199.217663 118.356694 
L 201.165122 117.667092 
" style="fill:none;stroke:#008000;stroke-linecap:square;stroke-opacity:0.5;"/>
   </g>
   <g id="line2d_17">
    <path clip-path="url(#p1c6b4f3eb4)" d="M 131.056596 126.44874 
L 131.056596 11.52 
" style="fill:none;stroke:#0000ff;stroke-dasharray:1.85,0.8;stroke-dashoffset:0;stroke-width:0.5;"/>
   </g>
   <g id="line2d_18">
    <path clip-path="url(#p1c6b4f3eb4)" d="M 129.109137 126.44874 
L 129.109137 11.52 
" style="fill:none;stroke:#0000ff;stroke-dasharray:1.85,0.8;stroke-dashoffset:0;stroke-width:0.5;"/>
   </g>
   <g id="line2d_19">
    <path clip-path="url(#p1c6b4f3eb4)" d="M 131.056596 126.44874 
L 131.056596 11.52 
" style="fill:none;stroke:#0000ff;stroke-dasharray:1.85,0.8;stroke-dashoffset:0;stroke-width:0.5;"/>
   </g>
   <g id="line2d_20">
    <path clip-path="url(#p1c6b4f3eb4)" d="M 121.319301 126.44874 
L 121.319301 11.52 
" style="fill:none;stroke:#0000ff;stroke-dasharray:1.85,0.8;stroke-dashoffset:0;stroke-width:0.5;"/>
   </g>
   <g id="line2d_21">
    <path clip-path="url(#p1c6b4f3eb4)" d="M 136.898973 126.44874 
L 136.898973 11.52 
" style="fill:none;stroke:#0000ff;stroke-dasharray:1.85,0.8;stroke-dashoffset:0;stroke-width:0.5;"/>
   </g>
   <g id="patch_74">
    <path d="M 57.17 126.44874 
L 57.17 11.52 
" style="fill:none;stroke:#000000;stroke-linecap:square;stroke-linejoin:miter;stroke-width:0.8;"/>
   </g>
   <g id="patch_75">
    <path d="M 208.83811 126.44874 
L 208.83811 11.52 
" style="fill:none;stroke:#000000;stroke-linecap:square;stroke-linejoin:miter;stroke-width:0.8;"/>
   </g>
   <g id="patch_76">
    <path d="M 57.17 126.44874 
L 208.83811 126.44874 
" style="fill:none;stroke:#000000;stroke-linecap:square;stroke-linejoin:miter;stroke-width:0.8;"/>
   </g>
   <g id="patch_77">
    <path d="M 57.17 11.52 
L 208.83811 11.52 
" style="fill:none;stroke:#000000;stroke-linecap:square;stroke-linejoin:miter;stroke-width:0.8;"/>
   </g>
  </g>
  <g id="axes_2">
   <g id="matplotlib.axis_3">
    <g id="ytick_5">
     <g id="line2d_22">
      <defs>
       <path d="M 0 0 
L 3.5 0 
" id="ma0f1b7c9e4" style="stroke:#000000;stroke-width:0.8;"/>
      </defs>
      <g>
       <use style="stroke:#000000;stroke-width:0.8;" x="208.83811" xlink:href="#ma0f1b7c9e4" y="126.44874"/>
      </g>
     </g>
     <g id="text_16">
      <!-- 1.0 -->
      <defs>
       <path d="M 10.59375 35.5 
L 73.1875 35.5 
L 73.1875 27.203125 
L 10.59375 27.203125 
z
" id="DejaVuSans-8722"/>
       <path d="M 10.6875 12.40625 
L 21 12.40625 
L 21 0 
L 10.6875 0 
z
" id="DejaVuSans-46"/>
      </defs>
      <g transform="translate(215.83811 129.488115)scale(0.08 -0.08)">
       <use xlink:href="#DejaVuSans-8722"/>
       <use x="83.789062" xlink:href="#DejaVuSans-49"/>
       <use x="147.412109" xlink:href="#DejaVuSans-46"/>
       <use x="179.199219" xlink:href="#DejaVuSans-48"/>
      </g>
     </g>
    </g>
    <g id="ytick_6">
     <g id="line2d_23">
      <g>
       <use style="stroke:#000000;stroke-width:0.8;" x="208.83811" xlink:href="#ma0f1b7c9e4" y="85.402762"/>
      </g>
     </g>
     <g id="text_17">
      <!-- 0.5 -->
      <g transform="translate(215.83811 88.442137)scale(0.08 -0.08)">
       <use xlink:href="#DejaVuSans-8722"/>
       <use x="83.789062" xlink:href="#DejaVuSans-48"/>
       <use x="147.412109" xlink:href="#DejaVuSans-46"/>
       <use x="179.199219" xlink:href="#DejaVuSans-53"/>
      </g>
     </g>
    </g>
    <g id="ytick_7">
     <g id="line2d_24">
      <g>
       <use style="stroke:#000000;stroke-width:0.8;" x="208.83811" xlink:href="#ma0f1b7c9e4" y="44.356783"/>
      </g>
     </g>
     <g id="text_18">
      <!-- 0.0 -->
      <g transform="translate(215.83811 47.396158)scale(0.08 -0.08)">
       <use xlink:href="#DejaVuSans-48"/>
       <use x="63.623047" xlink:href="#DejaVuSans-46"/>
       <use x="95.410156" xlink:href="#DejaVuSans-48"/>
      </g>
     </g>
    </g>
    <g id="ytick_8">
     <g id="line2d_25">
      <g>
       <use style="stroke:#000000;stroke-width:0.8;" x="208.83811" xlink:href="#ma0f1b7c9e4" y="11.52"/>
      </g>
     </g>
     <g id="text_19">
      <!-- 0.4 -->
      <defs>
       <path d="M 37.796875 64.3125 
L 12.890625 25.390625 
L 37.796875 25.390625 
z
M 35.203125 72.90625 
L 47.609375 72.90625 
L 47.609375 25.390625 
L 58.015625 25.390625 
L 58.015625 17.1875 
L 47.609375 17.1875 
L 47.609375 0 
L 37.796875 0 
L 37.796875 17.1875 
L 4.890625 17.1875 
L 4.890625 26.703125 
z
" id="DejaVuSans-52"/>
      </defs>
      <g transform="translate(215.83811 14.559375)scale(0.08 -0.08)">
       <use xlink:href="#DejaVuSans-48"/>
       <use x="63.623047" xlink:href="#DejaVuSans-46"/>
       <use x="95.410156" xlink:href="#DejaVuSans-52"/>
      </g>
     </g>
    </g>
    <g id="text_20">
     <!-- Relative change -->
     <defs>
      <path d="M 44.390625 34.1875 
Q 47.5625 33.109375 50.5625 29.59375 
Q 53.5625 26.078125 56.59375 19.921875 
L 66.609375 0 
L 56 0 
L 46.6875 18.703125 
Q 43.0625 26.03125 39.671875 28.421875 
Q 36.28125 30.8125 30.421875 30.8125 
L 19.671875 30.8125 
L 19.671875 0 
L 9.8125 0 
L 9.8125 72.90625 
L 32.078125 72.90625 
Q 44.578125 72.90625 50.734375 67.671875 
Q 56.890625 62.453125 56.890625 51.90625 
Q 56.890625 45.015625 53.6875 40.46875 
Q 50.484375 35.9375 44.390625 34.1875 
z
M 19.671875 64.796875 
L 19.671875 38.921875 
L 32.078125 38.921875 
Q 39.203125 38.921875 42.84375 42.21875 
Q 46.484375 45.515625 46.484375 51.90625 
Q 46.484375 58.296875 42.84375 61.546875 
Q 39.203125 64.796875 32.078125 64.796875 
z
" id="DejaVuSans-82"/>
      <path d="M 9.421875 75.984375 
L 18.40625 75.984375 
L 18.40625 0 
L 9.421875 0 
z
" id="DejaVuSans-108"/>
      <path d="M 18.3125 70.21875 
L 18.3125 54.6875 
L 36.8125 54.6875 
L 36.8125 47.703125 
L 18.3125 47.703125 
L 18.3125 18.015625 
Q 18.3125 11.328125 20.140625 9.421875 
Q 21.96875 7.515625 27.59375 7.515625 
L 36.8125 7.515625 
L 36.8125 0 
L 27.59375 0 
Q 17.1875 0 13.234375 3.875 
Q 9.28125 7.765625 9.28125 18.015625 
L 9.28125 47.703125 
L 2.6875 47.703125 
L 2.6875 54.6875 
L 9.28125 54.6875 
L 9.28125 70.21875 
z
" id="DejaVuSans-116"/>
      <path d="M 9.421875 54.6875 
L 18.40625 54.6875 
L 18.40625 0 
L 9.421875 0 
z
M 9.421875 75.984375 
L 18.40625 75.984375 
L 18.40625 64.59375 
L 9.421875 64.59375 
z
" id="DejaVuSans-105"/>
      <path d="M 2.984375 54.6875 
L 12.5 54.6875 
L 29.59375 8.796875 
L 46.6875 54.6875 
L 56.203125 54.6875 
L 35.6875 0 
L 23.484375 0 
z
" id="DejaVuSans-118"/>
      <path d="M 48.78125 52.59375 
L 48.78125 44.1875 
Q 44.96875 46.296875 41.140625 47.34375 
Q 37.3125 48.390625 33.40625 48.390625 
Q 24.65625 48.390625 19.8125 42.84375 
Q 14.984375 37.3125 14.984375 27.296875 
Q 14.984375 17.28125 19.8125 11.734375 
Q 24.65625 6.203125 33.40625 6.203125 
Q 37.3125 6.203125 41.140625 7.25 
Q 44.96875 8.296875 48.78125 10.40625 
L 48.78125 2.09375 
Q 45.015625 0.34375 40.984375 -0.53125 
Q 36.96875 -1.421875 32.421875 -1.421875 
Q 20.0625 -1.421875 12.78125 6.34375 
Q 5.515625 14.109375 5.515625 27.296875 
Q 5.515625 40.671875 12.859375 48.328125 
Q 20.21875 56 33.015625 56 
Q 37.15625 56 41.109375 55.140625 
Q 45.0625 54.296875 48.78125 52.59375 
z
" id="DejaVuSans-99"/>
      <path d="M 54.890625 33.015625 
L 54.890625 0 
L 45.90625 0 
L 45.90625 32.71875 
Q 45.90625 40.484375 42.875 44.328125 
Q 39.84375 48.1875 33.796875 48.1875 
Q 26.515625 48.1875 22.3125 43.546875 
Q 18.109375 38.921875 18.109375 30.90625 
L 18.109375 0 
L 9.078125 0 
L 9.078125 75.984375 
L 18.109375 75.984375 
L 18.109375 46.1875 
Q 21.34375 51.125 25.703125 53.5625 
Q 30.078125 56 35.796875 56 
Q 45.21875 56 50.046875 50.171875 
Q 54.890625 44.34375 54.890625 33.015625 
z
" id="DejaVuSans-104"/>
      <path d="M 54.890625 33.015625 
L 54.890625 0 
L 45.90625 0 
L 45.90625 32.71875 
Q 45.90625 40.484375 42.875 44.328125 
Q 39.84375 48.1875 33.796875 48.1875 
Q 26.515625 48.1875 22.3125 43.546875 
Q 18.109375 38.921875 18.109375 30.90625 
L 18.109375 0 
L 9.078125 0 
L 9.078125 54.6875 
L 18.109375 54.6875 
L 18.109375 46.1875 
Q 21.34375 51.125 25.703125 53.5625 
Q 30.078125 56 35.796875 56 
Q 45.21875 56 50.046875 50.171875 
Q 54.890625 44.34375 54.890625 33.015625 
z
" id="DejaVuSans-110"/>
      <path d="M 45.40625 27.984375 
Q 45.40625 37.75 41.375 43.109375 
Q 37.359375 48.484375 30.078125 48.484375 
Q 22.859375 48.484375 18.828125 43.109375 
Q 14.796875 37.75 14.796875 27.984375 
Q 14.796875 18.265625 18.828125 12.890625 
Q 22.859375 7.515625 30.078125 7.515625 
Q 37.359375 7.515625 41.375 12.890625 
Q 45.40625 18.265625 45.40625 27.984375 
z
M 54.390625 6.78125 
Q 54.390625 -7.171875 48.1875 -13.984375 
Q 42 -20.796875 29.203125 -20.796875 
Q 24.46875 -20.796875 20.265625 -20.09375 
Q 16.0625 -19.390625 12.109375 -17.921875 
L 12.109375 -9.1875 
Q 16.0625 -11.328125 19.921875 -12.34375 
Q 23.78125 -13.375 27.78125 -13.375 
Q 36.625 -13.375 41.015625 -8.765625 
Q 45.40625 -4.15625 45.40625 5.171875 
L 45.40625 9.625 
Q 42.625 4.78125 38.28125 2.390625 
Q 33.9375 0 27.875 0 
Q 17.828125 0 11.671875 7.65625 
Q 5.515625 15.328125 5.515625 27.984375 
Q 5.515625 40.671875 11.671875 48.328125 
Q 17.828125 56 27.875 56 
Q 33.9375 56 38.28125 53.609375 
Q 42.625 51.21875 45.40625 46.390625 
L 45.40625 54.6875 
L 54.390625 54.6875 
z
" id="DejaVuSans-103"/>
     </defs>
     <g transform="translate(245.34311 101.10812)rotate(-90)scale(0.08 -0.08)">
      <use xlink:href="#DejaVuSans-82"/>
      <use x="64.982422" xlink:href="#DejaVuSans-101"/>
      <use x="126.505859" xlink:href="#DejaVuSans-108"/>
      <use x="154.289062" xlink:href="#DejaVuSans-97"/>
      <use x="215.568359" xlink:href="#DejaVuSans-116"/>
      <use x="254.777344" xlink:href="#DejaVuSans-105"/>
      <use x="282.560547" xlink:href="#DejaVuSans-118"/>
      <use x="341.740234" xlink:href="#DejaVuSans-101"/>
      <use x="403.263672" xlink:href="#DejaVuSans-32"/>
      <use x="435.050781" xlink:href="#DejaVuSans-99"/>
      <use x="490.03125" xlink:href="#DejaVuSans-104"/>
      <use x="553.410156" xlink:href="#DejaVuSans-97"/>
      <use x="614.689453" xlink:href="#DejaVuSans-110"/>
      <use x="678.068359" xlink:href="#DejaVuSans-103"/>
      <use x="741.544922" xlink:href="#DejaVuSans-101"/>
     </g>
    </g>
   </g>
   <g id="line2d_26">
    <path clip-path="url(#p1c6b4f3eb4)" d="M 64.842989 44.356783 
L 66.790448 44.356783 
L 68.737907 44.356783 
L 70.685366 44.356783 
L 72.632825 44.356783 
L 74.580284 44.356783 
L 76.527743 42.714944 
L 78.475202 42.714944 
L 80.422661 44.356783 
L 82.37012 45.998622 
L 84.317579 44.356783 
L 86.265038 43.535863 
L 88.212497 43.535863 
L 90.159956 42.714944 
L 92.107415 38.610346 
L 94.054874 40.252185 
L 96.002333 45.998622 
L 97.949792 44.356783 
L 99.897251 41.073105 
L 101.84471 45.177702 
L 103.792169 45.177702 
L 105.739629 42.714944 
L 107.687088 46.819542 
L 109.634547 46.819542 
L 111.582006 44.356783 
L 113.529465 45.177702 
L 115.476924 45.998622 
L 117.424383 45.177702 
L 119.371842 41.073105 
L 121.319301 45.177702 
L 123.26676 46.819542 
L 125.214219 48.461381 
L 127.161678 55.028737 
L 129.109137 71.447129 
L 131.056596 101.000233 
L 133.004055 115.776786 
L 134.951514 110.030349 
L 136.898973 112.493107 
L 138.846432 113.314027 
L 140.793891 116.597705 
L 142.74135 115.776786 
L 144.688809 119.881384 
L 146.636268 121.523223 
L 148.583727 114.134947 
L 150.531187 115.776786 
L 152.478646 115.776786 
L 154.426105 115.776786 
L 156.373564 116.597705 
L 158.321023 119.881384 
L 160.268482 121.523223 
" style="fill:none;stroke:#d62728;stroke-linecap:square;stroke-opacity:0.5;"/>
   </g>
   <g id="line2d_27">
    <path clip-path="url(#p1c6b4f3eb4)" d="M 64.842989 44.356783 
L 66.790448 44.356783 
L 68.737907 44.356783 
L 70.685366 44.356783 
L 72.632825 44.356783 
L 74.580284 44.356783 
L 76.527743 45.177702 
L 78.475202 41.894024 
L 80.422661 43.535863 
L 82.37012 44.356783 
L 84.317579 43.535863 
L 86.265038 43.535863 
L 88.212497 42.714944 
L 90.159956 42.714944 
L 92.107415 36.147587 
L 94.054874 41.894024 
L 96.002333 45.177702 
L 97.949792 41.073105 
L 99.897251 37.789426 
L 101.84471 50.10322 
L 103.792169 41.073105 
L 105.739629 39.431265 
L 107.687088 43.535863 
L 109.634547 41.894024 
L 111.582006 41.073105 
L 113.529465 42.714944 
L 115.476924 42.714944 
L 117.424383 43.535863 
L 119.371842 38.610346 
L 121.319301 41.073105 
L 123.26676 29.580231 
L 125.214219 30.40115 
L 127.161678 22.191954 
L 129.109137 17.266437 
L 131.056596 50.924139 
L 133.004055 84.581842 
L 134.951514 71.447129 
L 136.898973 76.372646 
L 138.846432 73.909888 
L 140.793891 91.970118 
L 142.74135 76.372646 
L 144.688809 87.86552 
L 146.636268 104.283912 
L 148.583727 82.119083 
L 150.531187 85.402762 
L 152.478646 86.223681 
L 154.426105 87.044601 
L 156.373564 84.581842 
L 158.321023 91.149199 
L 160.268482 106.74667 
" style="fill:none;stroke:#9467bd;stroke-linecap:square;stroke-opacity:0.5;"/>
   </g>
   <g id="line2d_28">
    <path clip-path="url(#p1c6b4f3eb4)" d="M 64.842989 44.356783 
L 66.790448 44.356783 
L 68.737907 44.356783 
L 70.685366 44.356783 
L 72.632825 44.356783 
L 74.580284 44.356783 
L 76.527743 37.789426 
L 78.475202 40.252185 
L 80.422661 41.894024 
L 82.37012 41.073105 
L 84.317579 42.714944 
L 86.265038 40.252185 
L 88.212497 39.431265 
L 90.159956 32.863909 
L 92.107415 35.326668 
L 94.054874 41.073105 
L 96.002333 41.894024 
L 97.949792 43.535863 
L 99.897251 39.431265 
L 101.84471 42.714944 
L 103.792169 39.431265 
L 105.739629 40.252185 
L 107.687088 46.819542 
L 109.634547 43.535863 
L 111.582006 42.714944 
L 113.529465 44.356783 
L 115.476924 44.356783 
L 117.424383 41.073105 
L 119.371842 37.789426 
L 121.319301 44.356783 
L 123.26676 45.177702 
L 125.214219 51.745059 
L 127.161678 57.491496 
L 129.109137 70.626209 
L 131.056596 87.044601 
L 133.004055 102.642073 
L 134.951514 102.642073 
L 136.898973 105.104831 
L 138.846432 106.74667 
L 140.793891 110.030349 
L 142.74135 110.030349 
L 144.688809 113.314027 
L 146.636268 115.776786 
L 148.583727 110.851268 
L 150.531187 110.851268 
L 152.478646 111.672188 
L 154.426105 111.672188 
L 156.373564 112.493107 
L 158.321023 114.955866 
L 160.268482 116.597705 
" style="fill:none;stroke:#e377c2;stroke-linecap:square;stroke-opacity:0.5;"/>
   </g>
   <g id="line2d_29">
    <path clip-path="url(#p1c6b4f3eb4)" d="M 64.842989 44.356783 
L 66.790448 44.356783 
L 68.737907 44.356783 
L 70.685366 44.356783 
L 72.632825 44.356783 
L 74.580284 44.356783 
L 76.527743 44.356783 
L 78.475202 45.177702 
L 80.422661 41.894024 
L 82.37012 41.894024 
L 84.317579 41.894024 
L 86.265038 41.894024 
L 88.212497 42.714944 
L 90.159956 42.714944 
L 92.107415 43.535863 
L 94.054874 50.10322 
L 96.002333 49.2823 
L 97.949792 44.356783 
L 99.897251 43.535863 
L 101.84471 53.386898 
L 103.792169 45.177702 
L 105.739629 43.535863 
L 107.687088 46.819542 
L 109.634547 41.894024 
L 111.582006 41.894024 
L 113.529465 42.714944 
L 115.476924 45.177702 
L 117.424383 43.535863 
L 119.371842 43.535863 
L 121.319301 41.894024 
L 123.26676 42.714944 
L 125.214219 45.998622 
L 127.161678 48.461381 
L 129.109137 58.312416 
L 131.056596 69.80529 
L 133.004055 83.760922 
L 134.951514 87.044601 
L 136.898973 92.791038 
L 138.846432 93.611957 
L 140.793891 102.642073 
L 142.74135 98.537475 
L 144.688809 96.074716 
L 146.636268 97.716555 
L 148.583727 97.716555 
L 150.531187 99.358394 
L 152.478646 99.358394 
L 154.426105 100.179314 
L 156.373564 100.179314 
L 158.321023 96.895636 
L 160.268482 96.895636 
" style="fill:none;stroke:#bcbd22;stroke-linecap:square;stroke-opacity:0.5;"/>
   </g>
   <g id="line2d_30">
    <path clip-path="url(#p1c6b4f3eb4)" d="M 64.842989 44.356783 
L 66.790448 44.356783 
L 68.737907 44.356783 
L 70.685366 44.356783 
L 72.632825 44.356783 
L 74.580284 44.356783 
L 76.527743 45.998622 
L 78.475202 45.998622 
L 80.422661 45.177702 
L 82.37012 44.356783 
L 84.317579 45.177702 
L 86.265038 45.177702 
L 88.212497 45.998622 
L 90.159956 45.998622 
L 92.107415 46.819542 
L 94.054874 44.356783 
L 96.002333 43.535863 
L 97.949792 44.356783 
L 99.897251 45.998622 
L 101.84471 44.356783 
L 103.792169 45.177702 
L 105.739629 45.998622 
L 107.687088 43.535863 
L 109.634547 44.356783 
L 111.582006 44.356783 
L 113.529465 44.356783 
L 115.476924 44.356783 
L 117.424383 45.177702 
L 119.371842 45.998622 
L 121.319301 45.177702 
L 123.26676 44.356783 
L 125.214219 43.535863 
L 127.161678 41.894024 
L 129.109137 37.789426 
L 131.056596 32.863909 
L 133.004055 30.40115 
L 134.951514 25.475633 
L 136.898973 23.833794 
L 138.846432 23.012874 
L 140.793891 18.908276 
L 142.74135 18.087357 
L 144.688809 23.012874 
L 146.636268 26.296552 
L 148.583727 21.371035 
L 150.531187 20.550115 
L 152.478646 19.729196 
L 154.426105 19.729196 
L 156.373564 17.266437 
L 158.321023 23.012874 
L 160.268482 26.296552 
" style="fill:none;stroke:#17becf;stroke-linecap:square;stroke-opacity:0.5;"/>
   </g>
   <g id="patch_78">
    <path d="M 57.17 126.44874 
L 57.17 11.52 
" style="fill:none;stroke:#000000;stroke-linecap:square;stroke-linejoin:miter;stroke-width:0.8;"/>
   </g>
   <g id="patch_79">
    <path d="M 208.83811 126.44874 
L 208.83811 11.52 
" style="fill:none;stroke:#000000;stroke-linecap:square;stroke-linejoin:miter;stroke-width:0.8;"/>
   </g>
   <g id="patch_80">
    <path d="M 57.17 126.44874 
L 208.83811 126.44874 
" style="fill:none;stroke:#000000;stroke-linecap:square;stroke-linejoin:miter;stroke-width:0.8;"/>
   </g>
   <g id="patch_81">
    <path d="M 57.17 11.52 
L 208.83811 11.52 
" style="fill:none;stroke:#000000;stroke-linecap:square;stroke-linejoin:miter;stroke-width:0.8;"/>
   </g>
  </g>
 </g>
 <defs>
  <clipPath id="p1c6b4f3eb4">
   <rect height="114.92874" width="151.66811" x="57.17" y="11.52"/>
  </clipPath>
 </defs>
</svg>
