<?xml version="1.0" encoding="utf-8" standalone="no"?>
<!DOCTYPE svg PUBLIC "-//W3C//DTD SVG 1.1//EN"
  "http://www.w3.org/Graphics/SVG/1.1/DTD/svg11.dtd">
<!-- Created with matplotlib (https://matplotlib.org/) -->
<svg height="170.07874pt" version="1.1" viewBox="0 0 255.11811 170.07874" width="255.11811pt" xmlns="http://www.w3.org/2000/svg" xmlns:xlink="http://www.w3.org/1999/xlink">
 <defs>
  <style type="text/css">
*{stroke-linecap:butt;stroke-linejoin:round;}
  </style>
 </defs>
 <g id="figure_1">
  <g id="patch_1">
   <path d="M 0 170.07874 
L 255.11811 170.07874 
L 255.11811 0 
L 0 0 
z
" style="fill:#ffffff;"/>
  </g>
  <g id="axes_1">
   <g id="patch_2">
    <path d="M 31.97 126.44874 
L 208.83811 126.44874 
L 208.83811 17.4 
L 31.97 17.4 
z
" style="fill:#ffffff;"/>
   </g>
   <g id="PolyCollection_1">
    <defs>
     <path d="M 41.050166 -43.630712 
L 41.050166 -43.630051 
L 43.651933 -43.630103 
L 46.2537 -43.630154 
L 48.855467 -43.630206 
L 51.457234 -43.630257 
L 54.059001 -43.630308 
L 56.660767 -43.63042 
L 59.262534 -43.630603 
L 61.864301 -43.63079 
L 64.466068 -43.631056 
L 67.067835 -43.631388 
L 69.669602 -43.631867 
L 72.271368 -43.632373 
L 74.873135 -43.633122 
L 77.474902 -43.634085 
L 80.076669 -43.635205 
L 82.678436 -43.636855 
L 85.280203 -43.638858 
L 87.88197 -43.641747 
L 90.483736 -43.64471 
L 93.085503 -43.648775 
L 95.68727 -43.654032 
L 98.289037 -43.661232 
L 100.890804 -43.672061 
L 103.492571 -43.684316 
L 106.094337 -43.700357 
L 108.696104 -43.714029 
L 111.297871 -43.733732 
L 113.899638 -43.754398 
L 116.501405 -43.775681 
L 119.103172 -43.801026 
L 121.704939 -43.826541 
L 124.306705 -43.85638 
L 126.908472 -43.884448 
L 129.510239 -43.915844 
L 132.112006 -43.951076 
L 134.713773 -44.003261 
L 137.31554 -44.053946 
L 139.917306 -44.104012 
L 142.519073 -44.163385 
L 145.12084 -44.214806 
L 145.12084 -46.208257 
L 145.12084 -46.208257 
L 142.519073 -45.803552 
L 139.917306 -45.408288 
L 137.31554 -45.105804 
L 134.713773 -44.840519 
L 132.112006 -44.602125 
L 129.510239 -44.444599 
L 126.908472 -44.317408 
L 124.306705 -44.212232 
L 121.704939 -44.115759 
L 119.103172 -44.039335 
L 116.501405 -43.970545 
L 113.899638 -43.916896 
L 111.297871 -43.868696 
L 108.696104 -43.825646 
L 106.094337 -43.797201 
L 103.492571 -43.763666 
L 100.890804 -43.73904 
L 98.289037 -43.716622 
L 95.68727 -43.702085 
L 93.085503 -43.69099 
L 90.483736 -43.68193 
L 87.88197 -43.674836 
L 85.280203 -43.667442 
L 82.678436 -43.661891 
L 80.076669 -43.656844 
L 77.474902 -43.653041 
L 74.873135 -43.649416 
L 72.271368 -43.646305 
L 69.669602 -43.643995 
L 67.067835 -43.64155 
L 64.466068 -43.639643 
L 61.864301 -43.637935 
L 59.262534 -43.636594 
L 56.660767 -43.635169 
L 54.059001 -43.634271 
L 51.457234 -43.633559 
L 48.855467 -43.632848 
L 46.2537 -43.632136 
L 43.651933 -43.631424 
L 41.050166 -43.630712 
z
" id="m15f1008696" style="stroke:#6495ed;stroke-opacity:0.4;"/>
    </defs>
    <g clip-path="url(#pbad031ab06)">
     <use style="fill:#6495ed;fill-opacity:0.4;stroke:#6495ed;stroke-opacity:0.4;" x="0" xlink:href="#m15f1008696" y="170.07874"/>
    </g>
   </g>
   <g id="PolyCollection_2">
    <defs>
     <path d="M 41.050166 -43.630328 
L 41.050166 -43.630143 
L 43.651933 -43.630287 
L 46.2537 -43.63043 
L 48.855467 -43.630573 
L 51.457234 -43.630717 
L 54.059001 -43.63086 
L 56.660767 -43.631111 
L 59.262534 -43.631526 
L 61.864301 -43.631928 
L 64.466068 -43.632477 
L 67.067835 -43.633127 
L 69.669602 -43.63402 
L 72.271368 -43.634909 
L 74.873135 -43.636197 
L 77.474902 -43.637786 
L 80.076669 -43.639546 
L 82.678436 -43.642055 
L 85.280203 -43.644951 
L 87.88197 -43.648981 
L 90.483736 -43.652974 
L 93.085503 -43.658283 
L 95.68727 -43.664984 
L 98.289037 -43.674029 
L 100.890804 -43.68774 
L 103.492571 -43.703054 
L 106.094337 -43.723457 
L 108.696104 -43.740829 
L 111.297871 -43.766398 
L 113.899638 -43.793865 
L 116.501405 -43.822995 
L 119.103172 -43.858719 
L 121.704939 -43.895819 
L 124.306705 -43.939972 
L 126.908472 -43.983531 
L 129.510239 -44.03299 
L 132.112006 -44.09033 
L 134.713773 -44.17597 
L 137.31554 -44.26274 
L 139.917306 -44.352018 
L 142.519073 -44.461402 
L 145.12084 -44.560591 
L 145.12084 -45.144248 
L 145.12084 -45.144248 
L 142.519073 -44.949397 
L 139.917306 -44.74847 
L 137.31554 -44.588585 
L 134.713773 -44.439656 
L 132.112006 -44.297855 
L 129.510239 -44.203932 
L 126.908472 -44.125142 
L 124.306705 -44.057792 
L 121.704939 -43.992008 
L 119.103172 -43.938264 
L 116.501405 -43.888074 
L 113.899638 -43.848123 
L 111.297871 -43.811446 
L 108.696104 -43.777773 
L 106.094337 -43.755392 
L 103.492571 -43.729131 
L 100.890804 -43.709684 
L 98.289037 -43.692178 
L 95.68727 -43.680617 
L 93.085503 -43.671908 
L 90.483736 -43.664898 
L 87.88197 -43.659489 
L 85.280203 -43.653949 
L 82.678436 -43.649859 
L 80.076669 -43.646207 
L 77.474902 -43.643564 
L 74.873135 -43.641121 
L 72.271368 -43.639081 
L 69.669602 -43.637625 
L 67.067835 -43.636126 
L 64.466068 -43.634994 
L 61.864301 -43.634003 
L 59.262534 -43.633252 
L 56.660767 -43.632455 
L 54.059001 -43.63197 
L 51.457234 -43.631641 
L 48.855467 -43.631313 
L 46.2537 -43.630985 
L 43.651933 -43.630657 
L 41.050166 -43.630328 
z
" id="m7915fb8b98" style="stroke:#6495ed;stroke-opacity:0.6;"/>
    </defs>
    <g clip-path="url(#pbad031ab06)">
     <use style="fill:#6495ed;fill-opacity:0.6;stroke:#6495ed;stroke-opacity:0.6;" x="0" xlink:href="#m7915fb8b98" y="170.07874"/>
    </g>
   </g>
   <g id="PolyCollection_3">
    <defs>
     <path d="M 145.12084 -46.208257 
L 145.12084 -44.214806 
L 147.722607 -44.270965 
L 150.324374 -44.331651 
L 152.926141 -44.396491 
L 155.527908 -44.465182 
L 158.129674 -44.537887 
L 160.731441 -44.614831 
L 163.333208 -44.695768 
L 165.934975 -44.780696 
L 168.536742 -44.870274 
L 171.138509 -44.965773 
L 173.740275 -45.066984 
L 176.342042 -45.173924 
L 178.943809 -45.286887 
L 181.545576 -45.406601 
L 184.147343 -45.532443 
L 186.74911 -45.664021 
L 189.350877 -45.801886 
L 191.952643 -45.946832 
L 194.55441 -46.099506 
L 197.156177 -46.260049 
L 199.757944 -46.429469 
L 199.757944 -152.67874 
L 199.757944 -152.67874 
L 197.156177 -134.856454 
L 194.55441 -119.943789 
L 191.952643 -107.423383 
L 189.350877 -96.950976 
L 186.74911 -88.150614 
L 184.147343 -80.796264 
L 181.545576 -74.656182 
L 178.943809 -69.535152 
L 176.342042 -65.285059 
L 173.740275 -61.744202 
L 171.138509 -58.790337 
L 168.536742 -56.320482 
L 165.934975 -54.248281 
L 163.333208 -52.504361 
L 160.731441 -51.047367 
L 158.129674 -49.845596 
L 155.527908 -48.842811 
L 152.926141 -48.002026 
L 150.324374 -47.295147 
L 147.722607 -46.702494 
L 145.12084 -46.208257 
z
" id="m135e35f5a6" style="stroke:#228b22;stroke-opacity:0.4;"/>
    </defs>
    <g clip-path="url(#pbad031ab06)">
     <use style="fill:#228b22;fill-opacity:0.4;stroke:#228b22;stroke-opacity:0.4;" x="0" xlink:href="#m135e35f5a6" y="170.07874"/>
    </g>
   </g>
   <g id="PolyCollection_4">
    <defs>
     <path d="M 145.12084 -45.144248 
L 145.12084 -44.560591 
L 147.722607 -44.672993 
L 150.324374 -44.798169 
L 152.926141 -44.93615 
L 155.527908 -45.087669 
L 158.129674 -45.253915 
L 160.731441 -45.435613 
L 163.333208 -45.63452 
L 165.934975 -45.85206 
L 168.536742 -46.090303 
L 171.138509 -46.351466 
L 173.740275 -46.637813 
L 176.342042 -46.950362 
L 178.943809 -47.292245 
L 181.545576 -47.667161 
L 184.147343 -48.076275 
L 186.74911 -48.524999 
L 189.350877 -49.016666 
L 191.952643 -49.55373 
L 194.55441 -50.141714 
L 197.156177 -50.785923 
L 199.757944 -51.490479 
L 199.757944 -68.91033 
L 199.757944 -68.91033 
L 197.156177 -65.810692 
L 194.55441 -63.091663 
L 191.952643 -60.706876 
L 189.350877 -58.616928 
L 186.74911 -56.77577 
L 184.147343 -55.155231 
L 181.545576 -53.734666 
L 178.943809 -52.488114 
L 176.342042 -51.39271 
L 173.740275 -50.430079 
L 171.138509 -49.584015 
L 168.536742 -48.840869 
L 165.934975 -48.187428 
L 163.333208 -47.613926 
L 160.731441 -47.110508 
L 158.129674 -46.667034 
L 155.527908 -46.277756 
L 152.926141 -45.935133 
L 150.324374 -45.635082 
L 147.722607 -45.372395 
L 145.12084 -45.144248 
z
" id="m0b096127d7" style="stroke:#228b22;stroke-opacity:0.6;"/>
    </defs>
    <g clip-path="url(#pbad031ab06)">
     <use style="fill:#228b22;fill-opacity:0.6;stroke:#228b22;stroke-opacity:0.6;" x="0" xlink:href="#m0b096127d7" y="170.07874"/>
    </g>
   </g>
   <g id="PathCollection_1">
    <defs>
     <path d="M -0.866025 1.732051 
L 0 0.866025 
L 0.866025 1.732051 
L 1.732051 0.866025 
L 0.866025 0 
L 1.732051 -0.866025 
L 0.866025 -1.732051 
L 0 -0.866025 
L -0.866025 -1.732051 
L -1.732051 -0.866025 
L -0.866025 0 
L -1.732051 0.866025 
z
" id="m9c7963bae9" style="stroke:#8a2be2;"/>
    </defs>
    <g clip-path="url(#pbad031ab06)">
     <use style="fill:#8a2be2;stroke:#8a2be2;" x="100.890804" xlink:href="#m9c7963bae9" y="28.304874"/>
    </g>
   </g>
   <g id="PathCollection_2">
    <defs>
     <path d="M 0 -1.732051 
L -0.38887 -0.535233 
L -1.647278 -0.535233 
L -0.629204 0.204441 
L -1.018074 1.401259 
L -0 0.661585 
L 1.018074 1.401259 
L 0.629204 0.204441 
L 1.647278 -0.535233 
L 0.38887 -0.535233 
z
" id="m696c1e6a8f" style="stroke:#000000;"/>
    </defs>
    <g clip-path="url(#pbad031ab06)">
     <use style="stroke:#000000;" x="116.501405" xlink:href="#m696c1e6a8f" y="28.304874"/>
    </g>
   </g>
   <g id="PathCollection_3">
    <defs>
     <path d="M 0 -1.732051 
L -1.647278 -0.535233 
L -1.018074 1.401259 
L 1.018074 1.401259 
L 1.647278 -0.535233 
z
" id="m281f9607c2" style="stroke:#800000;"/>
    </defs>
    <g clip-path="url(#pbad031ab06)">
     <use style="fill:#800000;stroke:#800000;" x="111.297871" xlink:href="#m281f9607c2" y="28.304874"/>
    </g>
   </g>
   <g id="PathCollection_4">
    <defs>
     <path d="M -0 2.44949 
L 1.469694 0 
L 0 -2.44949 
L -1.469694 -0 
z
" id="m0abd2035c7" style="stroke:#556b2f;"/>
    </defs>
    <g clip-path="url(#pbad031ab06)">
     <use style="fill:#556b2f;stroke:#556b2f;" x="95.68727" xlink:href="#m0abd2035c7" y="28.304874"/>
    </g>
   </g>
   <g id="patch_3">
    <path clip-path="url(#pbad031ab06)" d="M 40.00946 126.44874 
L 42.090873 126.44874 
L 42.090873 126.44874 
L 40.00946 126.44874 
z
" style="fill:#1f77b4;opacity:0.5;"/>
   </g>
   <g id="patch_4">
    <path clip-path="url(#pbad031ab06)" d="M 42.611226 126.44874 
L 44.69264 126.44874 
L 44.69264 126.44874 
L 42.611226 126.44874 
z
" style="fill:#1f77b4;opacity:0.5;"/>
   </g>
   <g id="patch_5">
    <path clip-path="url(#pbad031ab06)" d="M 45.212993 126.44874 
L 47.294407 126.44874 
L 47.294407 126.44874 
L 45.212993 126.44874 
z
" style="fill:#1f77b4;opacity:0.5;"/>
   </g>
   <g id="patch_6">
    <path clip-path="url(#pbad031ab06)" d="M 47.81476 126.44874 
L 49.896174 126.44874 
L 49.896174 126.44874 
L 47.81476 126.44874 
z
" style="fill:#1f77b4;opacity:0.5;"/>
   </g>
   <g id="patch_7">
    <path clip-path="url(#pbad031ab06)" d="M 50.416527 126.44874 
L 52.49794 126.44874 
L 52.49794 126.44874 
L 50.416527 126.44874 
z
" style="fill:#1f77b4;opacity:0.5;"/>
   </g>
   <g id="patch_8">
    <path clip-path="url(#pbad031ab06)" d="M 53.018294 126.44874 
L 55.099707 126.44874 
L 55.099707 126.44874 
L 53.018294 126.44874 
z
" style="fill:#1f77b4;opacity:0.5;"/>
   </g>
   <g id="patch_9">
    <path clip-path="url(#pbad031ab06)" d="M 55.620061 126.44874 
L 57.701474 126.44874 
L 57.701474 126.44874 
L 55.620061 126.44874 
z
" style="fill:#1f77b4;opacity:0.5;"/>
   </g>
   <g id="patch_10">
    <path clip-path="url(#pbad031ab06)" d="M 58.221827 126.44874 
L 60.303241 126.44874 
L 60.303241 126.44874 
L 58.221827 126.44874 
z
" style="fill:#1f77b4;opacity:0.5;"/>
   </g>
   <g id="patch_11">
    <path clip-path="url(#pbad031ab06)" d="M 60.823594 126.44874 
L 62.905008 126.44874 
L 62.905008 126.44874 
L 60.823594 126.44874 
z
" style="fill:#1f77b4;opacity:0.5;"/>
   </g>
   <g id="patch_12">
    <path clip-path="url(#pbad031ab06)" d="M 63.425361 126.44874 
L 65.506775 126.44874 
L 65.506775 126.448728 
L 63.425361 126.448728 
z
" style="fill:#1f77b4;opacity:0.5;"/>
   </g>
   <g id="patch_13">
    <path clip-path="url(#pbad031ab06)" d="M 66.027128 126.44874 
L 68.108542 126.44874 
L 68.108542 126.448665 
L 66.027128 126.448665 
z
" style="fill:#1f77b4;opacity:0.5;"/>
   </g>
   <g id="patch_14">
    <path clip-path="url(#pbad031ab06)" d="M 68.628895 126.44874 
L 70.710308 126.44874 
L 70.710308 126.448602 
L 68.628895 126.448602 
z
" style="fill:#1f77b4;opacity:0.5;"/>
   </g>
   <g id="patch_15">
    <path clip-path="url(#pbad031ab06)" d="M 71.230662 126.44874 
L 73.312075 126.44874 
L 73.312075 126.44859 
L 71.230662 126.44859 
z
" style="fill:#1f77b4;opacity:0.5;"/>
   </g>
   <g id="patch_16">
    <path clip-path="url(#pbad031ab06)" d="M 73.832429 126.44874 
L 75.913842 126.44874 
L 75.913842 126.448577 
L 73.832429 126.448577 
z
" style="fill:#1f77b4;opacity:0.5;"/>
   </g>
   <g id="patch_17">
    <path clip-path="url(#pbad031ab06)" d="M 76.434195 126.44874 
L 78.515609 126.44874 
L 78.515609 126.448565 
L 76.434195 126.448565 
z
" style="fill:#1f77b4;opacity:0.5;"/>
   </g>
   <g id="patch_18">
    <path clip-path="url(#pbad031ab06)" d="M 79.035962 126.44874 
L 81.117376 126.44874 
L 81.117376 126.448452 
L 79.035962 126.448452 
z
" style="fill:#1f77b4;opacity:0.5;"/>
   </g>
   <g id="patch_19">
    <path clip-path="url(#pbad031ab06)" d="M 81.637729 126.44874 
L 83.719143 126.44874 
L 83.719143 126.448314 
L 81.637729 126.448314 
z
" style="fill:#1f77b4;opacity:0.5;"/>
   </g>
   <g id="patch_20">
    <path clip-path="url(#pbad031ab06)" d="M 84.239496 126.44874 
L 86.320909 126.44874 
L 86.320909 126.447989 
L 84.239496 126.447989 
z
" style="fill:#1f77b4;opacity:0.5;"/>
   </g>
   <g id="patch_21">
    <path clip-path="url(#pbad031ab06)" d="M 86.841263 126.44874 
L 88.922676 126.44874 
L 88.922676 126.447037 
L 86.841263 126.447037 
z
" style="fill:#1f77b4;opacity:0.5;"/>
   </g>
   <g id="patch_22">
    <path clip-path="url(#pbad031ab06)" d="M 89.44303 126.44874 
L 91.524443 126.44874 
L 91.524443 126.446736 
L 89.44303 126.446736 
z
" style="fill:#1f77b4;opacity:0.5;"/>
   </g>
   <g id="patch_23">
    <path clip-path="url(#pbad031ab06)" d="M 92.044796 126.44874 
L 94.12621 126.44874 
L 94.12621 126.44621 
L 92.044796 126.44621 
z
" style="fill:#1f77b4;opacity:0.5;"/>
   </g>
   <g id="patch_24">
    <path clip-path="url(#pbad031ab06)" d="M 94.646563 126.44874 
L 96.727977 126.44874 
L 96.727977 126.445646 
L 94.646563 126.445646 
z
" style="fill:#1f77b4;opacity:0.5;"/>
   </g>
   <g id="patch_25">
    <path clip-path="url(#pbad031ab06)" d="M 97.24833 126.44874 
L 99.329744 126.44874 
L 99.329744 126.444669 
L 97.24833 126.444669 
z
" style="fill:#1f77b4;opacity:0.5;"/>
   </g>
   <g id="patch_26">
    <path clip-path="url(#pbad031ab06)" d="M 99.850097 126.44874 
L 101.931511 126.44874 
L 101.931511 126.442966 
L 99.850097 126.442966 
z
" style="fill:#1f77b4;opacity:0.5;"/>
   </g>
   <g id="patch_27">
    <path clip-path="url(#pbad031ab06)" d="M 102.451864 126.44874 
L 104.533277 126.44874 
L 104.533277 126.440987 
L 102.451864 126.440987 
z
" style="fill:#1f77b4;opacity:0.5;"/>
   </g>
   <g id="patch_28">
    <path clip-path="url(#pbad031ab06)" d="M 105.053631 126.44874 
L 107.135044 126.44874 
L 107.135044 126.439045 
L 105.053631 126.439045 
z
" style="fill:#1f77b4;opacity:0.5;"/>
   </g>
   <g id="patch_29">
    <path clip-path="url(#pbad031ab06)" d="M 107.655398 126.44874 
L 109.736811 126.44874 
L 109.736811 126.437179 
L 107.655398 126.437179 
z
" style="fill:#1f77b4;opacity:0.5;"/>
   </g>
   <g id="patch_30">
    <path clip-path="url(#pbad031ab06)" d="M 110.257164 126.44874 
L 112.338578 126.44874 
L 112.338578 126.435826 
L 110.257164 126.435826 
z
" style="fill:#1f77b4;opacity:0.5;"/>
   </g>
   <g id="patch_31">
    <path clip-path="url(#pbad031ab06)" d="M 112.858931 126.44874 
L 114.940345 126.44874 
L 114.940345 126.434711 
L 112.858931 126.434711 
z
" style="fill:#1f77b4;opacity:0.5;"/>
   </g>
   <g id="patch_32">
    <path clip-path="url(#pbad031ab06)" d="M 115.460698 126.44874 
L 117.542112 126.44874 
L 117.542112 126.434135 
L 115.460698 126.434135 
z
" style="fill:#1f77b4;opacity:0.5;"/>
   </g>
   <g id="patch_33">
    <path clip-path="url(#pbad031ab06)" d="M 118.062465 126.44874 
L 120.143878 126.44874 
L 120.143878 126.432456 
L 118.062465 126.432456 
z
" style="fill:#1f77b4;opacity:0.5;"/>
   </g>
   <g id="patch_34">
    <path clip-path="url(#pbad031ab06)" d="M 120.664232 126.44874 
L 122.745645 126.44874 
L 122.745645 126.430928 
L 120.664232 126.430928 
z
" style="fill:#1f77b4;opacity:0.5;"/>
   </g>
   <g id="patch_35">
    <path clip-path="url(#pbad031ab06)" d="M 123.265999 126.44874 
L 125.347412 126.44874 
L 125.347412 126.428423 
L 123.265999 126.428423 
z
" style="fill:#1f77b4;opacity:0.5;"/>
   </g>
   <g id="patch_36">
    <path clip-path="url(#pbad031ab06)" d="M 125.867765 126.44874 
L 127.949179 126.44874 
L 127.949179 126.426882 
L 125.867765 126.426882 
z
" style="fill:#1f77b4;opacity:0.5;"/>
   </g>
   <g id="patch_37">
    <path clip-path="url(#pbad031ab06)" d="M 128.469532 126.44874 
L 130.550946 126.44874 
L 130.550946 126.424878 
L 128.469532 126.424878 
z
" style="fill:#1f77b4;opacity:0.5;"/>
   </g>
   <g id="patch_38">
    <path clip-path="url(#pbad031ab06)" d="M 131.071299 126.44874 
L 133.152713 126.44874 
L 133.152713 126.4235 
L 131.071299 126.4235 
z
" style="fill:#1f77b4;opacity:0.5;"/>
   </g>
   <g id="patch_39">
    <path clip-path="url(#pbad031ab06)" d="M 133.673066 126.44874 
L 135.75448 126.44874 
L 135.75448 126.420294 
L 133.673066 126.420294 
z
" style="fill:#1f77b4;opacity:0.5;"/>
   </g>
   <g id="patch_40">
    <path clip-path="url(#pbad031ab06)" d="M 136.274833 126.44874 
L 138.356246 126.44874 
L 138.356246 126.417312 
L 136.274833 126.417312 
z
" style="fill:#1f77b4;opacity:0.5;"/>
   </g>
   <g id="patch_41">
    <path clip-path="url(#pbad031ab06)" d="M 138.8766 126.44874 
L 140.958013 126.44874 
L 140.958013 126.413605 
L 138.8766 126.413605 
z
" style="fill:#1f77b4;opacity:0.5;"/>
   </g>
   <g id="patch_42">
    <path clip-path="url(#pbad031ab06)" d="M 141.478367 126.44874 
L 143.55978 126.44874 
L 143.55978 126.410598 
L 141.478367 126.410598 
z
" style="fill:#1f77b4;opacity:0.5;"/>
   </g>
   <g id="patch_43">
    <path clip-path="url(#pbad031ab06)" d="M 144.080133 126.44874 
L 146.161547 126.44874 
L 146.161547 126.405575 
L 144.080133 126.405575 
z
" style="fill:#1f77b4;opacity:0.5;"/>
   </g>
   <g id="patch_44">
    <path clip-path="url(#pbad031ab06)" d="M 146.6819 126.44874 
L 148.763314 126.44874 
L 148.763314 126.402406 
L 146.6819 126.402406 
z
" style="fill:#1f77b4;opacity:0.5;"/>
   </g>
   <g id="patch_45">
    <path clip-path="url(#pbad031ab06)" d="M 149.283667 126.44874 
L 151.365081 126.44874 
L 151.365081 126.398298 
L 149.283667 126.398298 
z
" style="fill:#1f77b4;opacity:0.5;"/>
   </g>
   <g id="patch_46">
    <path clip-path="url(#pbad031ab06)" d="M 151.885434 126.44874 
L 153.966847 126.44874 
L 153.966847 126.3932 
L 151.885434 126.3932 
z
" style="fill:#1f77b4;opacity:0.5;"/>
   </g>
   <g id="patch_47">
    <path clip-path="url(#pbad031ab06)" d="M 154.487201 126.44874 
L 156.568614 126.44874 
L 156.568614 126.386786 
L 154.487201 126.386786 
z
" style="fill:#1f77b4;opacity:0.5;"/>
   </g>
   <g id="patch_48">
    <path clip-path="url(#pbad031ab06)" d="M 157.088968 126.44874 
L 159.170381 126.44874 
L 159.170381 126.380285 
L 157.088968 126.380285 
z
" style="fill:#1f77b4;opacity:0.5;"/>
   </g>
   <g id="patch_49">
    <path clip-path="url(#pbad031ab06)" d="M 159.690735 126.44874 
L 161.772148 126.44874 
L 161.772148 126.372619 
L 159.690735 126.372619 
z
" style="fill:#1f77b4;opacity:0.5;"/>
   </g>
   <g id="patch_50">
    <path clip-path="url(#pbad031ab06)" d="M 162.292501 126.44874 
L 164.373915 126.44874 
L 164.373915 126.368047 
L 162.292501 126.368047 
z
" style="fill:#1f77b4;opacity:0.5;"/>
   </g>
   <g id="patch_51">
    <path clip-path="url(#pbad031ab06)" d="M 164.894268 126.44874 
L 166.975682 126.44874 
L 166.975682 126.3632 
L 164.894268 126.3632 
z
" style="fill:#1f77b4;opacity:0.5;"/>
   </g>
   <g id="patch_52">
    <path clip-path="url(#pbad031ab06)" d="M 167.496035 126.44874 
L 169.577449 126.44874 
L 169.577449 126.35849 
L 167.496035 126.35849 
z
" style="fill:#1f77b4;opacity:0.5;"/>
   </g>
   <g id="patch_53">
    <path clip-path="url(#pbad031ab06)" d="M 170.097802 126.44874 
L 172.179215 126.44874 
L 172.179215 126.35239 
L 170.097802 126.35239 
z
" style="fill:#1f77b4;opacity:0.5;"/>
   </g>
   <g id="patch_54">
    <path clip-path="url(#pbad031ab06)" d="M 172.699569 126.44874 
L 174.780982 126.44874 
L 174.780982 126.343296 
L 172.699569 126.343296 
z
" style="fill:#1f77b4;opacity:0.5;"/>
   </g>
   <g id="patch_55">
    <path clip-path="url(#pbad031ab06)" d="M 175.301336 126.44874 
L 177.382749 126.44874 
L 177.382749 126.334252 
L 175.301336 126.334252 
z
" style="fill:#1f77b4;opacity:0.5;"/>
   </g>
   <g id="patch_56">
    <path clip-path="url(#pbad031ab06)" d="M 177.903102 126.44874 
L 179.984516 126.44874 
L 179.984516 126.327438 
L 177.903102 126.327438 
z
" style="fill:#1f77b4;opacity:0.5;"/>
   </g>
   <g id="patch_57">
    <path clip-path="url(#pbad031ab06)" d="M 180.504869 126.44874 
L 182.586283 126.44874 
L 182.586283 126.321601 
L 180.504869 126.321601 
z
" style="fill:#1f77b4;opacity:0.5;"/>
   </g>
   <g id="patch_58">
    <path clip-path="url(#pbad031ab06)" d="M 183.106636 126.44874 
L 185.18805 126.44874 
L 185.18805 126.317442 
L 183.106636 126.317442 
z
" style="fill:#1f77b4;opacity:0.5;"/>
   </g>
   <g id="patch_59">
    <path clip-path="url(#pbad031ab06)" d="M 185.708403 126.44874 
L 187.789816 126.44874 
L 187.789816 126.311618 
L 185.708403 126.311618 
z
" style="fill:#1f77b4;opacity:0.5;"/>
   </g>
   <g id="patch_60">
    <path clip-path="url(#pbad031ab06)" d="M 188.31017 126.44874 
L 190.391583 126.44874 
L 190.391583 126.305392 
L 188.31017 126.305392 
z
" style="fill:#1f77b4;opacity:0.5;"/>
   </g>
   <g id="patch_61">
    <path clip-path="url(#pbad031ab06)" d="M 190.911937 126.44874 
L 192.99335 126.44874 
L 192.99335 126.299355 
L 190.911937 126.299355 
z
" style="fill:#1f77b4;opacity:0.5;"/>
   </g>
   <g id="patch_62">
    <path clip-path="url(#pbad031ab06)" d="M 193.513704 126.44874 
L 195.595117 126.44874 
L 195.595117 126.291676 
L 193.513704 126.291676 
z
" style="fill:#1f77b4;opacity:0.5;"/>
   </g>
   <g id="patch_63">
    <path clip-path="url(#pbad031ab06)" d="M 196.11547 126.44874 
L 198.196884 126.44874 
L 198.196884 126.283208 
L 196.11547 126.283208 
z
" style="fill:#1f77b4;opacity:0.5;"/>
   </g>
   <g id="patch_64">
    <path clip-path="url(#pbad031ab06)" d="M 198.717237 126.44874 
L 200.798651 126.44874 
L 200.798651 126.275618 
L 198.717237 126.275618 
z
" style="fill:#1f77b4;opacity:0.5;"/>
   </g>
   <g id="matplotlib.axis_1">
    <g id="xtick_1">
     <g id="line2d_1">
      <defs>
       <path d="M 0 0 
L 0 3.5 
" id="mfd07c83af9" style="stroke:#000000;stroke-width:0.8;"/>
      </defs>
      <g>
       <use style="stroke:#000000;stroke-width:0.8;" x="199.757944" xlink:href="#mfd07c83af9" y="126.44874"/>
      </g>
     </g>
     <g id="text_1">
      <!-- 19 Apr -->
      <defs>
       <path d="M 12.40625 8.296875 
L 28.515625 8.296875 
L 28.515625 63.921875 
L 10.984375 60.40625 
L 10.984375 69.390625 
L 28.421875 72.90625 
L 38.28125 72.90625 
L 38.28125 8.296875 
L 54.390625 8.296875 
L 54.390625 0 
L 12.40625 0 
z
" id="DejaVuSans-49"/>
       <path d="M 10.984375 1.515625 
L 10.984375 10.5 
Q 14.703125 8.734375 18.5 7.8125 
Q 22.3125 6.890625 25.984375 6.890625 
Q 35.75 6.890625 40.890625 13.453125 
Q 46.046875 20.015625 46.78125 33.40625 
Q 43.953125 29.203125 39.59375 26.953125 
Q 35.25 24.703125 29.984375 24.703125 
Q 19.046875 24.703125 12.671875 31.3125 
Q 6.296875 37.9375 6.296875 49.421875 
Q 6.296875 60.640625 12.9375 67.421875 
Q 19.578125 74.21875 30.609375 74.21875 
Q 43.265625 74.21875 49.921875 64.515625 
Q 56.59375 54.828125 56.59375 36.375 
Q 56.59375 19.140625 48.40625 8.859375 
Q 40.234375 -1.421875 26.421875 -1.421875 
Q 22.703125 -1.421875 18.890625 -0.6875 
Q 15.09375 0.046875 10.984375 1.515625 
z
M 30.609375 32.421875 
Q 37.25 32.421875 41.125 36.953125 
Q 45.015625 41.5 45.015625 49.421875 
Q 45.015625 57.28125 41.125 61.84375 
Q 37.25 66.40625 30.609375 66.40625 
Q 23.96875 66.40625 20.09375 61.84375 
Q 16.21875 57.28125 16.21875 49.421875 
Q 16.21875 41.5 20.09375 36.953125 
Q 23.96875 32.421875 30.609375 32.421875 
z
" id="DejaVuSans-57"/>
       <path id="DejaVuSans-32"/>
       <path d="M 34.1875 63.1875 
L 20.796875 26.90625 
L 47.609375 26.90625 
z
M 28.609375 72.90625 
L 39.796875 72.90625 
L 67.578125 0 
L 57.328125 0 
L 50.6875 18.703125 
L 17.828125 18.703125 
L 11.1875 0 
L 0.78125 0 
z
" id="DejaVuSans-65"/>
       <path d="M 18.109375 8.203125 
L 18.109375 -20.796875 
L 9.078125 -20.796875 
L 9.078125 54.6875 
L 18.109375 54.6875 
L 18.109375 46.390625 
Q 20.953125 51.265625 25.265625 53.625 
Q 29.59375 56 35.59375 56 
Q 45.5625 56 51.78125 48.09375 
Q 58.015625 40.1875 58.015625 27.296875 
Q 58.015625 14.40625 51.78125 6.484375 
Q 45.5625 -1.421875 35.59375 -1.421875 
Q 29.59375 -1.421875 25.265625 0.953125 
Q 20.953125 3.328125 18.109375 8.203125 
z
M 48.6875 27.296875 
Q 48.6875 37.203125 44.609375 42.84375 
Q 40.53125 48.484375 33.40625 48.484375 
Q 26.265625 48.484375 22.1875 42.84375 
Q 18.109375 37.203125 18.109375 27.296875 
Q 18.109375 17.390625 22.1875 11.75 
Q 26.265625 6.109375 33.40625 6.109375 
Q 40.53125 6.109375 44.609375 11.75 
Q 48.6875 17.390625 48.6875 27.296875 
z
" id="DejaVuSans-112"/>
       <path d="M 41.109375 46.296875 
Q 39.59375 47.171875 37.8125 47.578125 
Q 36.03125 48 33.890625 48 
Q 26.265625 48 22.1875 43.046875 
Q 18.109375 38.09375 18.109375 28.8125 
L 18.109375 0 
L 9.078125 0 
L 9.078125 54.6875 
L 18.109375 54.6875 
L 18.109375 46.1875 
Q 20.953125 51.171875 25.484375 53.578125 
Q 30.03125 56 36.53125 56 
Q 37.453125 56 38.578125 55.875 
Q 39.703125 55.765625 41.0625 55.515625 
z
" id="DejaVuSans-114"/>
      </defs>
      <g transform="translate(201.965444 160.01124)rotate(-90)scale(0.08 -0.08)">
       <use xlink:href="#DejaVuSans-49"/>
       <use x="63.623047" xlink:href="#DejaVuSans-57"/>
       <use x="127.246094" xlink:href="#DejaVuSans-32"/>
       <use x="159.033203" xlink:href="#DejaVuSans-65"/>
       <use x="227.441406" xlink:href="#DejaVuSans-112"/>
       <use x="290.917969" xlink:href="#DejaVuSans-114"/>
      </g>
     </g>
    </g>
    <g id="xtick_2">
     <g id="line2d_2">
      <g>
       <use style="stroke:#000000;stroke-width:0.8;" x="181.545576" xlink:href="#mfd07c83af9" y="126.44874"/>
      </g>
     </g>
     <g id="text_2">
      <!-- 12 Apr -->
      <defs>
       <path d="M 19.1875 8.296875 
L 53.609375 8.296875 
L 53.609375 0 
L 7.328125 0 
L 7.328125 8.296875 
Q 12.9375 14.109375 22.625 23.890625 
Q 32.328125 33.6875 34.8125 36.53125 
Q 39.546875 41.84375 41.421875 45.53125 
Q 43.3125 49.21875 43.3125 52.78125 
Q 43.3125 58.59375 39.234375 62.25 
Q 35.15625 65.921875 28.609375 65.921875 
Q 23.96875 65.921875 18.8125 64.3125 
Q 13.671875 62.703125 7.8125 59.421875 
L 7.8125 69.390625 
Q 13.765625 71.78125 18.9375 73 
Q 24.125 74.21875 28.421875 74.21875 
Q 39.75 74.21875 46.484375 68.546875 
Q 53.21875 62.890625 53.21875 53.421875 
Q 53.21875 48.921875 51.53125 44.890625 
Q 49.859375 40.875 45.40625 35.40625 
Q 44.1875 33.984375 37.640625 27.21875 
Q 31.109375 20.453125 19.1875 8.296875 
z
" id="DejaVuSans-50"/>
      </defs>
      <g transform="translate(183.753076 160.01124)rotate(-90)scale(0.08 -0.08)">
       <use xlink:href="#DejaVuSans-49"/>
       <use x="63.623047" xlink:href="#DejaVuSans-50"/>
       <use x="127.246094" xlink:href="#DejaVuSans-32"/>
       <use x="159.033203" xlink:href="#DejaVuSans-65"/>
       <use x="227.441406" xlink:href="#DejaVuSans-112"/>
       <use x="290.917969" xlink:href="#DejaVuSans-114"/>
      </g>
     </g>
    </g>
    <g id="xtick_3">
     <g id="line2d_3">
      <g>
       <use style="stroke:#000000;stroke-width:0.8;" x="163.333208" xlink:href="#mfd07c83af9" y="126.44874"/>
      </g>
     </g>
     <g id="text_3">
      <!-- 5 Apr -->
      <defs>
       <path d="M 10.796875 72.90625 
L 49.515625 72.90625 
L 49.515625 64.59375 
L 19.828125 64.59375 
L 19.828125 46.734375 
Q 21.96875 47.46875 24.109375 47.828125 
Q 26.265625 48.1875 28.421875 48.1875 
Q 40.625 48.1875 47.75 41.5 
Q 54.890625 34.8125 54.890625 23.390625 
Q 54.890625 11.625 47.5625 5.09375 
Q 40.234375 -1.421875 26.90625 -1.421875 
Q 22.3125 -1.421875 17.546875 -0.640625 
Q 12.796875 0.140625 7.71875 1.703125 
L 7.71875 11.625 
Q 12.109375 9.234375 16.796875 8.0625 
Q 21.484375 6.890625 26.703125 6.890625 
Q 35.15625 6.890625 40.078125 11.328125 
Q 45.015625 15.765625 45.015625 23.390625 
Q 45.015625 31 40.078125 35.4375 
Q 35.15625 39.890625 26.703125 39.890625 
Q 22.75 39.890625 18.8125 39.015625 
Q 14.890625 38.140625 10.796875 36.28125 
z
" id="DejaVuSans-53"/>
      </defs>
      <g transform="translate(165.540708 154.92124)rotate(-90)scale(0.08 -0.08)">
       <use xlink:href="#DejaVuSans-53"/>
       <use x="63.623047" xlink:href="#DejaVuSans-32"/>
       <use x="95.410156" xlink:href="#DejaVuSans-65"/>
       <use x="163.818359" xlink:href="#DejaVuSans-112"/>
       <use x="227.294922" xlink:href="#DejaVuSans-114"/>
      </g>
     </g>
    </g>
    <g id="xtick_4">
     <g id="line2d_4">
      <g>
       <use style="stroke:#000000;stroke-width:0.8;" x="145.12084" xlink:href="#mfd07c83af9" y="126.44874"/>
      </g>
     </g>
     <g id="text_4">
      <!-- 29 Mar -->
      <defs>
       <path d="M 9.8125 72.90625 
L 24.515625 72.90625 
L 43.109375 23.296875 
L 61.8125 72.90625 
L 76.515625 72.90625 
L 76.515625 0 
L 66.890625 0 
L 66.890625 64.015625 
L 48.09375 14.015625 
L 38.1875 14.015625 
L 19.390625 64.015625 
L 19.390625 0 
L 9.8125 0 
z
" id="DejaVuSans-77"/>
       <path d="M 34.28125 27.484375 
Q 23.390625 27.484375 19.1875 25 
Q 14.984375 22.515625 14.984375 16.5 
Q 14.984375 11.71875 18.140625 8.90625 
Q 21.296875 6.109375 26.703125 6.109375 
Q 34.1875 6.109375 38.703125 11.40625 
Q 43.21875 16.703125 43.21875 25.484375 
L 43.21875 27.484375 
z
M 52.203125 31.203125 
L 52.203125 0 
L 43.21875 0 
L 43.21875 8.296875 
Q 40.140625 3.328125 35.546875 0.953125 
Q 30.953125 -1.421875 24.3125 -1.421875 
Q 15.921875 -1.421875 10.953125 3.296875 
Q 6 8.015625 6 15.921875 
Q 6 25.140625 12.171875 29.828125 
Q 18.359375 34.515625 30.609375 34.515625 
L 43.21875 34.515625 
L 43.21875 35.40625 
Q 43.21875 41.609375 39.140625 45 
Q 35.0625 48.390625 27.6875 48.390625 
Q 23 48.390625 18.546875 47.265625 
Q 14.109375 46.140625 10.015625 43.890625 
L 10.015625 52.203125 
Q 14.9375 54.109375 19.578125 55.046875 
Q 24.21875 56 28.609375 56 
Q 40.484375 56 46.34375 49.84375 
Q 52.203125 43.703125 52.203125 31.203125 
z
" id="DejaVuSans-97"/>
      </defs>
      <g transform="translate(147.32834 161.26499)rotate(-90)scale(0.08 -0.08)">
       <use xlink:href="#DejaVuSans-50"/>
       <use x="63.623047" xlink:href="#DejaVuSans-57"/>
       <use x="127.246094" xlink:href="#DejaVuSans-32"/>
       <use x="159.033203" xlink:href="#DejaVuSans-77"/>
       <use x="245.3125" xlink:href="#DejaVuSans-97"/>
       <use x="306.591797" xlink:href="#DejaVuSans-114"/>
      </g>
     </g>
    </g>
    <g id="xtick_5">
     <g id="line2d_5">
      <g>
       <use style="stroke:#000000;stroke-width:0.8;" x="126.908472" xlink:href="#mfd07c83af9" y="126.44874"/>
      </g>
     </g>
     <g id="text_5">
      <!-- 22 Mar -->
      <g transform="translate(129.115972 161.26499)rotate(-90)scale(0.08 -0.08)">
       <use xlink:href="#DejaVuSans-50"/>
       <use x="63.623047" xlink:href="#DejaVuSans-50"/>
       <use x="127.246094" xlink:href="#DejaVuSans-32"/>
       <use x="159.033203" xlink:href="#DejaVuSans-77"/>
       <use x="245.3125" xlink:href="#DejaVuSans-97"/>
       <use x="306.591797" xlink:href="#DejaVuSans-114"/>
      </g>
     </g>
    </g>
    <g id="xtick_6">
     <g id="line2d_6">
      <g>
       <use style="stroke:#000000;stroke-width:0.8;" x="108.696104" xlink:href="#mfd07c83af9" y="126.44874"/>
      </g>
     </g>
     <g id="text_6">
      <!-- 15 Mar -->
      <g transform="translate(110.903604 161.26499)rotate(-90)scale(0.08 -0.08)">
       <use xlink:href="#DejaVuSans-49"/>
       <use x="63.623047" xlink:href="#DejaVuSans-53"/>
       <use x="127.246094" xlink:href="#DejaVuSans-32"/>
       <use x="159.033203" xlink:href="#DejaVuSans-77"/>
       <use x="245.3125" xlink:href="#DejaVuSans-97"/>
       <use x="306.591797" xlink:href="#DejaVuSans-114"/>
      </g>
     </g>
    </g>
    <g id="xtick_7">
     <g id="line2d_7">
      <g>
       <use style="stroke:#000000;stroke-width:0.8;" x="90.483736" xlink:href="#mfd07c83af9" y="126.44874"/>
      </g>
     </g>
     <g id="text_7">
      <!-- 8 Mar -->
      <defs>
       <path d="M 31.78125 34.625 
Q 24.75 34.625 20.71875 30.859375 
Q 16.703125 27.09375 16.703125 20.515625 
Q 16.703125 13.921875 20.71875 10.15625 
Q 24.75 6.390625 31.78125 6.390625 
Q 38.8125 6.390625 42.859375 10.171875 
Q 46.921875 13.96875 46.921875 20.515625 
Q 46.921875 27.09375 42.890625 30.859375 
Q 38.875 34.625 31.78125 34.625 
z
M 21.921875 38.8125 
Q 15.578125 40.375 12.03125 44.71875 
Q 8.5 49.078125 8.5 55.328125 
Q 8.5 64.0625 14.71875 69.140625 
Q 20.953125 74.21875 31.78125 74.21875 
Q 42.671875 74.21875 48.875 69.140625 
Q 55.078125 64.0625 55.078125 55.328125 
Q 55.078125 49.078125 51.53125 44.71875 
Q 48 40.375 41.703125 38.8125 
Q 48.828125 37.15625 52.796875 32.3125 
Q 56.78125 27.484375 56.78125 20.515625 
Q 56.78125 9.90625 50.3125 4.234375 
Q 43.84375 -1.421875 31.78125 -1.421875 
Q 19.734375 -1.421875 13.25 4.234375 
Q 6.78125 9.90625 6.78125 20.515625 
Q 6.78125 27.484375 10.78125 32.3125 
Q 14.796875 37.15625 21.921875 38.8125 
z
M 18.3125 54.390625 
Q 18.3125 48.734375 21.84375 45.5625 
Q 25.390625 42.390625 31.78125 42.390625 
Q 38.140625 42.390625 41.71875 45.5625 
Q 45.3125 48.734375 45.3125 54.390625 
Q 45.3125 60.0625 41.71875 63.234375 
Q 38.140625 66.40625 31.78125 66.40625 
Q 25.390625 66.40625 21.84375 63.234375 
Q 18.3125 60.0625 18.3125 54.390625 
z
" id="DejaVuSans-56"/>
      </defs>
      <g transform="translate(92.691236 156.17499)rotate(-90)scale(0.08 -0.08)">
       <use xlink:href="#DejaVuSans-56"/>
       <use x="63.623047" xlink:href="#DejaVuSans-32"/>
       <use x="95.410156" xlink:href="#DejaVuSans-77"/>
       <use x="181.689453" xlink:href="#DejaVuSans-97"/>
       <use x="242.96875" xlink:href="#DejaVuSans-114"/>
      </g>
     </g>
    </g>
    <g id="xtick_8">
     <g id="line2d_8">
      <g>
       <use style="stroke:#000000;stroke-width:0.8;" x="72.271368" xlink:href="#mfd07c83af9" y="126.44874"/>
      </g>
     </g>
     <g id="text_8">
      <!-- 1 Mar -->
      <g transform="translate(74.478868 156.17499)rotate(-90)scale(0.08 -0.08)">
       <use xlink:href="#DejaVuSans-49"/>
       <use x="63.623047" xlink:href="#DejaVuSans-32"/>
       <use x="95.410156" xlink:href="#DejaVuSans-77"/>
       <use x="181.689453" xlink:href="#DejaVuSans-97"/>
       <use x="242.96875" xlink:href="#DejaVuSans-114"/>
      </g>
     </g>
    </g>
    <g id="xtick_9">
     <g id="line2d_9">
      <g>
       <use style="stroke:#000000;stroke-width:0.8;" x="54.059001" xlink:href="#mfd07c83af9" y="126.44874"/>
      </g>
     </g>
     <g id="text_9">
      <!-- 23 Feb -->
      <defs>
       <path d="M 40.578125 39.3125 
Q 47.65625 37.796875 51.625 33 
Q 55.609375 28.21875 55.609375 21.1875 
Q 55.609375 10.40625 48.1875 4.484375 
Q 40.765625 -1.421875 27.09375 -1.421875 
Q 22.515625 -1.421875 17.65625 -0.515625 
Q 12.796875 0.390625 7.625 2.203125 
L 7.625 11.71875 
Q 11.71875 9.328125 16.59375 8.109375 
Q 21.484375 6.890625 26.8125 6.890625 
Q 36.078125 6.890625 40.9375 10.546875 
Q 45.796875 14.203125 45.796875 21.1875 
Q 45.796875 27.640625 41.28125 31.265625 
Q 36.765625 34.90625 28.71875 34.90625 
L 20.21875 34.90625 
L 20.21875 43.015625 
L 29.109375 43.015625 
Q 36.375 43.015625 40.234375 45.921875 
Q 44.09375 48.828125 44.09375 54.296875 
Q 44.09375 59.90625 40.109375 62.90625 
Q 36.140625 65.921875 28.71875 65.921875 
Q 24.65625 65.921875 20.015625 65.03125 
Q 15.375 64.15625 9.8125 62.3125 
L 9.8125 71.09375 
Q 15.4375 72.65625 20.34375 73.4375 
Q 25.25 74.21875 29.59375 74.21875 
Q 40.828125 74.21875 47.359375 69.109375 
Q 53.90625 64.015625 53.90625 55.328125 
Q 53.90625 49.265625 50.4375 45.09375 
Q 46.96875 40.921875 40.578125 39.3125 
z
" id="DejaVuSans-51"/>
       <path d="M 9.8125 72.90625 
L 51.703125 72.90625 
L 51.703125 64.59375 
L 19.671875 64.59375 
L 19.671875 43.109375 
L 48.578125 43.109375 
L 48.578125 34.8125 
L 19.671875 34.8125 
L 19.671875 0 
L 9.8125 0 
z
" id="DejaVuSans-70"/>
       <path d="M 56.203125 29.59375 
L 56.203125 25.203125 
L 14.890625 25.203125 
Q 15.484375 15.921875 20.484375 11.0625 
Q 25.484375 6.203125 34.421875 6.203125 
Q 39.59375 6.203125 44.453125 7.46875 
Q 49.3125 8.734375 54.109375 11.28125 
L 54.109375 2.78125 
Q 49.265625 0.734375 44.1875 -0.34375 
Q 39.109375 -1.421875 33.890625 -1.421875 
Q 20.796875 -1.421875 13.15625 6.1875 
Q 5.515625 13.8125 5.515625 26.8125 
Q 5.515625 40.234375 12.765625 48.109375 
Q 20.015625 56 32.328125 56 
Q 43.359375 56 49.78125 48.890625 
Q 56.203125 41.796875 56.203125 29.59375 
z
M 47.21875 32.234375 
Q 47.125 39.59375 43.09375 43.984375 
Q 39.0625 48.390625 32.421875 48.390625 
Q 24.90625 48.390625 20.390625 44.140625 
Q 15.875 39.890625 15.1875 32.171875 
z
" id="DejaVuSans-101"/>
       <path d="M 48.6875 27.296875 
Q 48.6875 37.203125 44.609375 42.84375 
Q 40.53125 48.484375 33.40625 48.484375 
Q 26.265625 48.484375 22.1875 42.84375 
Q 18.109375 37.203125 18.109375 27.296875 
Q 18.109375 17.390625 22.1875 11.75 
Q 26.265625 6.109375 33.40625 6.109375 
Q 40.53125 6.109375 44.609375 11.75 
Q 48.6875 17.390625 48.6875 27.296875 
z
M 18.109375 46.390625 
Q 20.953125 51.265625 25.265625 53.625 
Q 29.59375 56 35.59375 56 
Q 45.5625 56 51.78125 48.09375 
Q 58.015625 40.1875 58.015625 27.296875 
Q 58.015625 14.40625 51.78125 6.484375 
Q 45.5625 -1.421875 35.59375 -1.421875 
Q 29.59375 -1.421875 25.265625 0.953125 
Q 20.953125 3.328125 18.109375 8.203125 
L 18.109375 0 
L 9.078125 0 
L 9.078125 75.984375 
L 18.109375 75.984375 
z
" id="DejaVuSans-98"/>
      </defs>
      <g transform="translate(56.266501 160.33374)rotate(-90)scale(0.08 -0.08)">
       <use xlink:href="#DejaVuSans-50"/>
       <use x="63.623047" xlink:href="#DejaVuSans-51"/>
       <use x="127.246094" xlink:href="#DejaVuSans-32"/>
       <use x="159.033203" xlink:href="#DejaVuSans-70"/>
       <use x="211.052734" xlink:href="#DejaVuSans-101"/>
       <use x="272.576172" xlink:href="#DejaVuSans-98"/>
      </g>
     </g>
    </g>
   </g>
   <g id="matplotlib.axis_2">
    <g id="ytick_1">
     <g id="line2d_10">
      <defs>
       <path d="M 0 0 
L -3.5 0 
" id="maee30f04d7" style="stroke:#000000;stroke-width:0.8;"/>
      </defs>
      <g>
       <use style="stroke:#000000;stroke-width:0.8;" x="31.97" xlink:href="#maee30f04d7" y="126.44874"/>
      </g>
     </g>
     <g id="text_10">
      <!-- 0 -->
      <defs>
       <path d="M 31.78125 66.40625 
Q 24.171875 66.40625 20.328125 58.90625 
Q 16.5 51.421875 16.5 36.375 
Q 16.5 21.390625 20.328125 13.890625 
Q 24.171875 6.390625 31.78125 6.390625 
Q 39.453125 6.390625 43.28125 13.890625 
Q 47.125 21.390625 47.125 36.375 
Q 47.125 51.421875 43.28125 58.90625 
Q 39.453125 66.40625 31.78125 66.40625 
z
M 31.78125 74.21875 
Q 44.046875 74.21875 50.515625 64.515625 
Q 56.984375 54.828125 56.984375 36.375 
Q 56.984375 17.96875 50.515625 8.265625 
Q 44.046875 -1.421875 31.78125 -1.421875 
Q 19.53125 -1.421875 13.0625 8.265625 
Q 6.59375 17.96875 6.59375 36.375 
Q 6.59375 54.828125 13.0625 64.515625 
Q 19.53125 74.21875 31.78125 74.21875 
z
" id="DejaVuSans-48"/>
      </defs>
      <g transform="translate(19.88 129.488115)scale(0.08 -0.08)">
       <use xlink:href="#DejaVuSans-48"/>
      </g>
     </g>
    </g>
    <g id="ytick_2">
     <g id="line2d_11">
      <g>
       <use style="stroke:#000000;stroke-width:0.8;" x="31.97" xlink:href="#maee30f04d7" y="101.396645"/>
      </g>
     </g>
     <g id="text_11">
      <!-- 2 -->
      <g transform="translate(19.88 104.43602)scale(0.08 -0.08)">
       <use xlink:href="#DejaVuSans-50"/>
      </g>
     </g>
    </g>
    <g id="ytick_3">
     <g id="line2d_12">
      <g>
       <use style="stroke:#000000;stroke-width:0.8;" x="31.97" xlink:href="#maee30f04d7" y="76.344549"/>
      </g>
     </g>
     <g id="text_12">
      <!-- 4 -->
      <defs>
       <path d="M 37.796875 64.3125 
L 12.890625 25.390625 
L 37.796875 25.390625 
z
M 35.203125 72.90625 
L 47.609375 72.90625 
L 47.609375 25.390625 
L 58.015625 25.390625 
L 58.015625 17.1875 
L 47.609375 17.1875 
L 47.609375 0 
L 37.796875 0 
L 37.796875 17.1875 
L 4.890625 17.1875 
L 4.890625 26.703125 
z
" id="DejaVuSans-52"/>
      </defs>
      <g transform="translate(19.88 79.383924)scale(0.08 -0.08)">
       <use xlink:href="#DejaVuSans-52"/>
      </g>
     </g>
    </g>
    <g id="ytick_4">
     <g id="line2d_13">
      <g>
       <use style="stroke:#000000;stroke-width:0.8;" x="31.97" xlink:href="#maee30f04d7" y="51.292454"/>
      </g>
     </g>
     <g id="text_13">
      <!-- 6 -->
      <defs>
       <path d="M 33.015625 40.375 
Q 26.375 40.375 22.484375 35.828125 
Q 18.609375 31.296875 18.609375 23.390625 
Q 18.609375 15.53125 22.484375 10.953125 
Q 26.375 6.390625 33.015625 6.390625 
Q 39.65625 6.390625 43.53125 10.953125 
Q 47.40625 15.53125 47.40625 23.390625 
Q 47.40625 31.296875 43.53125 35.828125 
Q 39.65625 40.375 33.015625 40.375 
z
M 52.59375 71.296875 
L 52.59375 62.3125 
Q 48.875 64.0625 45.09375 64.984375 
Q 41.3125 65.921875 37.59375 65.921875 
Q 27.828125 65.921875 22.671875 59.328125 
Q 17.53125 52.734375 16.796875 39.40625 
Q 19.671875 43.65625 24.015625 45.921875 
Q 28.375 48.1875 33.59375 48.1875 
Q 44.578125 48.1875 50.953125 41.515625 
Q 57.328125 34.859375 57.328125 23.390625 
Q 57.328125 12.15625 50.6875 5.359375 
Q 44.046875 -1.421875 33.015625 -1.421875 
Q 20.359375 -1.421875 13.671875 8.265625 
Q 6.984375 17.96875 6.984375 36.375 
Q 6.984375 53.65625 15.1875 63.9375 
Q 23.390625 74.21875 37.203125 74.21875 
Q 40.921875 74.21875 44.703125 73.484375 
Q 48.484375 72.75 52.59375 71.296875 
z
" id="DejaVuSans-54"/>
      </defs>
      <g transform="translate(19.88 54.331829)scale(0.08 -0.08)">
       <use xlink:href="#DejaVuSans-54"/>
      </g>
     </g>
    </g>
    <g id="ytick_5">
     <g id="line2d_14">
      <g>
       <use style="stroke:#000000;stroke-width:0.8;" x="31.97" xlink:href="#maee30f04d7" y="26.240358"/>
      </g>
     </g>
     <g id="text_14">
      <!-- 8 -->
      <g transform="translate(19.88 29.279733)scale(0.08 -0.08)">
       <use xlink:href="#DejaVuSans-56"/>
      </g>
     </g>
    </g>
    <g id="text_15">
     <!-- Cumulative cases -->
     <defs>
      <path d="M 64.40625 67.28125 
L 64.40625 56.890625 
Q 59.421875 61.53125 53.78125 63.8125 
Q 48.140625 66.109375 41.796875 66.109375 
Q 29.296875 66.109375 22.65625 58.46875 
Q 16.015625 50.828125 16.015625 36.375 
Q 16.015625 21.96875 22.65625 14.328125 
Q 29.296875 6.6875 41.796875 6.6875 
Q 48.140625 6.6875 53.78125 8.984375 
Q 59.421875 11.28125 64.40625 15.921875 
L 64.40625 5.609375 
Q 59.234375 2.09375 53.4375 0.328125 
Q 47.65625 -1.421875 41.21875 -1.421875 
Q 24.65625 -1.421875 15.125 8.703125 
Q 5.609375 18.84375 5.609375 36.375 
Q 5.609375 53.953125 15.125 64.078125 
Q 24.65625 74.21875 41.21875 74.21875 
Q 47.75 74.21875 53.53125 72.484375 
Q 59.328125 70.75 64.40625 67.28125 
z
" id="DejaVuSans-67"/>
      <path d="M 8.5 21.578125 
L 8.5 54.6875 
L 17.484375 54.6875 
L 17.484375 21.921875 
Q 17.484375 14.15625 20.5 10.265625 
Q 23.53125 6.390625 29.59375 6.390625 
Q 36.859375 6.390625 41.078125 11.03125 
Q 45.3125 15.671875 45.3125 23.6875 
L 45.3125 54.6875 
L 54.296875 54.6875 
L 54.296875 0 
L 45.3125 0 
L 45.3125 8.40625 
Q 42.046875 3.421875 37.71875 1 
Q 33.40625 -1.421875 27.6875 -1.421875 
Q 18.265625 -1.421875 13.375 4.4375 
Q 8.5 10.296875 8.5 21.578125 
z
M 31.109375 56 
z
" id="DejaVuSans-117"/>
      <path d="M 52 44.1875 
Q 55.375 50.25 60.0625 53.125 
Q 64.75 56 71.09375 56 
Q 79.640625 56 84.28125 50.015625 
Q 88.921875 44.046875 88.921875 33.015625 
L 88.921875 0 
L 79.890625 0 
L 79.890625 32.71875 
Q 79.890625 40.578125 77.09375 44.375 
Q 74.3125 48.1875 68.609375 48.1875 
Q 61.625 48.1875 57.5625 43.546875 
Q 53.515625 38.921875 53.515625 30.90625 
L 53.515625 0 
L 44.484375 0 
L 44.484375 32.71875 
Q 44.484375 40.625 41.703125 44.40625 
Q 38.921875 48.1875 33.109375 48.1875 
Q 26.21875 48.1875 22.15625 43.53125 
Q 18.109375 38.875 18.109375 30.90625 
L 18.109375 0 
L 9.078125 0 
L 9.078125 54.6875 
L 18.109375 54.6875 
L 18.109375 46.1875 
Q 21.1875 51.21875 25.484375 53.609375 
Q 29.78125 56 35.6875 56 
Q 41.65625 56 45.828125 52.96875 
Q 50 49.953125 52 44.1875 
z
" id="DejaVuSans-109"/>
      <path d="M 9.421875 75.984375 
L 18.40625 75.984375 
L 18.40625 0 
L 9.421875 0 
z
" id="DejaVuSans-108"/>
      <path d="M 18.3125 70.21875 
L 18.3125 54.6875 
L 36.8125 54.6875 
L 36.8125 47.703125 
L 18.3125 47.703125 
L 18.3125 18.015625 
Q 18.3125 11.328125 20.140625 9.421875 
Q 21.96875 7.515625 27.59375 7.515625 
L 36.8125 7.515625 
L 36.8125 0 
L 27.59375 0 
Q 17.1875 0 13.234375 3.875 
Q 9.28125 7.765625 9.28125 18.015625 
L 9.28125 47.703125 
L 2.6875 47.703125 
L 2.6875 54.6875 
L 9.28125 54.6875 
L 9.28125 70.21875 
z
" id="DejaVuSans-116"/>
      <path d="M 9.421875 54.6875 
L 18.40625 54.6875 
L 18.40625 0 
L 9.421875 0 
z
M 9.421875 75.984375 
L 18.40625 75.984375 
L 18.40625 64.59375 
L 9.421875 64.59375 
z
" id="DejaVuSans-105"/>
      <path d="M 2.984375 54.6875 
L 12.5 54.6875 
L 29.59375 8.796875 
L 46.6875 54.6875 
L 56.203125 54.6875 
L 35.6875 0 
L 23.484375 0 
z
" id="DejaVuSans-118"/>
      <path d="M 48.78125 52.59375 
L 48.78125 44.1875 
Q 44.96875 46.296875 41.140625 47.34375 
Q 37.3125 48.390625 33.40625 48.390625 
Q 24.65625 48.390625 19.8125 42.84375 
Q 14.984375 37.3125 14.984375 27.296875 
Q 14.984375 17.28125 19.8125 11.734375 
Q 24.65625 6.203125 33.40625 6.203125 
Q 37.3125 6.203125 41.140625 7.25 
Q 44.96875 8.296875 48.78125 10.40625 
L 48.78125 2.09375 
Q 45.015625 0.34375 40.984375 -0.53125 
Q 36.96875 -1.421875 32.421875 -1.421875 
Q 20.0625 -1.421875 12.78125 6.34375 
Q 5.515625 14.109375 5.515625 27.296875 
Q 5.515625 40.671875 12.859375 48.328125 
Q 20.21875 56 33.015625 56 
Q 37.15625 56 41.109375 55.140625 
Q 45.0625 54.296875 48.78125 52.59375 
z
" id="DejaVuSans-99"/>
      <path d="M 44.28125 53.078125 
L 44.28125 44.578125 
Q 40.484375 46.53125 36.375 47.5 
Q 32.28125 48.484375 27.875 48.484375 
Q 21.1875 48.484375 17.84375 46.4375 
Q 14.5 44.390625 14.5 40.28125 
Q 14.5 37.15625 16.890625 35.375 
Q 19.28125 33.59375 26.515625 31.984375 
L 29.59375 31.296875 
Q 39.15625 29.25 43.1875 25.515625 
Q 47.21875 21.78125 47.21875 15.09375 
Q 47.21875 7.46875 41.1875 3.015625 
Q 35.15625 -1.421875 24.609375 -1.421875 
Q 20.21875 -1.421875 15.453125 -0.5625 
Q 10.6875 0.296875 5.421875 2 
L 5.421875 11.28125 
Q 10.40625 8.6875 15.234375 7.390625 
Q 20.0625 6.109375 24.8125 6.109375 
Q 31.15625 6.109375 34.5625 8.28125 
Q 37.984375 10.453125 37.984375 14.40625 
Q 37.984375 18.0625 35.515625 20.015625 
Q 33.0625 21.96875 24.703125 23.78125 
L 21.578125 24.515625 
Q 13.234375 26.265625 9.515625 29.90625 
Q 5.8125 33.546875 5.8125 39.890625 
Q 5.8125 47.609375 11.28125 51.796875 
Q 16.75 56 26.8125 56 
Q 31.78125 56 36.171875 55.265625 
Q 40.578125 54.546875 44.28125 53.078125 
z
" id="DejaVuSans-115"/>
     </defs>
     <g transform="translate(14.21625 107.304995)rotate(-90)scale(0.08 -0.08)">
      <use xlink:href="#DejaVuSans-67"/>
      <use x="69.824219" xlink:href="#DejaVuSans-117"/>
      <use x="133.203125" xlink:href="#DejaVuSans-109"/>
      <use x="230.615234" xlink:href="#DejaVuSans-117"/>
      <use x="293.994141" xlink:href="#DejaVuSans-108"/>
      <use x="321.777344" xlink:href="#DejaVuSans-97"/>
      <use x="383.056641" xlink:href="#DejaVuSans-116"/>
      <use x="422.265625" xlink:href="#DejaVuSans-105"/>
      <use x="450.048828" xlink:href="#DejaVuSans-118"/>
      <use x="509.228516" xlink:href="#DejaVuSans-101"/>
      <use x="570.751953" xlink:href="#DejaVuSans-32"/>
      <use x="602.539062" xlink:href="#DejaVuSans-99"/>
      <use x="657.519531" xlink:href="#DejaVuSans-97"/>
      <use x="718.798828" xlink:href="#DejaVuSans-115"/>
      <use x="770.898438" xlink:href="#DejaVuSans-101"/>
      <use x="832.421875" xlink:href="#DejaVuSans-115"/>
     </g>
    </g>
    <g id="text_16">
     <!-- 1e6 -->
     <g transform="translate(31.97 14.4)scale(0.08 -0.08)">
      <use xlink:href="#DejaVuSans-49"/>
      <use x="63.623047" xlink:href="#DejaVuSans-101"/>
      <use x="125.146484" xlink:href="#DejaVuSans-54"/>
     </g>
    </g>
   </g>
   <g id="line2d_15">
    <path clip-path="url(#pbad031ab06)" d="M 41.050166 126.44848 
L 43.651933 126.448219 
L 46.2537 126.447959 
L 48.855467 126.447699 
L 51.457234 126.447438 
L 54.059001 126.447178 
L 56.660767 126.446788 
L 59.262534 126.446147 
L 61.864301 126.445541 
L 64.466068 126.444735 
L 67.067835 126.443808 
L 69.669602 126.44257 
L 72.271368 126.44136 
L 74.873135 126.439659 
L 77.474902 126.437606 
L 80.076669 126.435365 
L 82.678436 126.432242 
L 85.280203 126.428696 
L 87.88197 126.423845 
L 90.483736 126.419086 
L 93.085503 126.412849 
L 95.68727 126.405059 
L 98.289037 126.394662 
L 100.890804 126.378875 
L 103.492571 126.361333 
L 106.094337 126.337797 
L 108.696104 126.317739 
L 111.297871 126.287847 
L 113.899638 126.255382 
L 116.501405 126.220385 
L 119.103172 126.176835 
L 121.704939 126.13056 
L 124.306705 126.074318 
L 126.908472 126.017176 
L 129.510239 125.950611 
L 132.112006 125.871657 
L 134.713773 125.753087 
L 137.31554 125.628761 
L 139.917306 125.495815 
L 142.519073 125.328976 
L 145.12084 125.168386 
" style="fill:none;stroke:#0000ff;stroke-linecap:square;stroke-opacity:0.5;"/>
   </g>
   <g id="line2d_16">
    <path clip-path="url(#pbad031ab06)" d="M 147.722607 124.980436 
L 150.324374 124.76362 
L 152.926141 124.515414 
L 155.527908 124.231931 
L 158.129674 123.908101 
L 160.731441 123.537787 
L 163.333208 123.113759 
L 165.934975 122.627569 
L 168.536742 122.069352 
L 171.138509 121.427572 
L 173.740275 120.688724 
L 176.342042 119.836968 
L 178.943809 118.853706 
L 181.545576 117.717063 
L 184.147343 116.401287 
L 186.74911 114.876012 
L 189.350877 113.105387 
L 191.952643 111.047035 
L 194.55441 108.650787 
L 197.156177 105.857183 
L 199.757944 102.595654 
" style="fill:none;stroke:#008000;stroke-linecap:square;stroke-opacity:0.5;"/>
   </g>
   <g id="line2d_17">
    <path clip-path="url(#pbad031ab06)" d="M 100.890804 126.44874 
L 100.890804 17.4 
" style="fill:none;stroke:#0000ff;stroke-dasharray:1.85,0.8;stroke-dashoffset:0;stroke-width:0.5;"/>
   </g>
   <g id="line2d_18">
    <path clip-path="url(#pbad031ab06)" d="M 116.501405 126.44874 
L 116.501405 17.4 
" style="fill:none;stroke:#0000ff;stroke-dasharray:1.85,0.8;stroke-dashoffset:0;stroke-width:0.5;"/>
   </g>
   <g id="line2d_19">
    <path clip-path="url(#pbad031ab06)" d="M 111.297871 126.44874 
L 111.297871 17.4 
" style="fill:none;stroke:#0000ff;stroke-dasharray:1.85,0.8;stroke-dashoffset:0;stroke-width:0.5;"/>
   </g>
   <g id="line2d_20">
    <path clip-path="url(#pbad031ab06)" d="M 95.68727 126.44874 
L 95.68727 17.4 
" style="fill:none;stroke:#0000ff;stroke-dasharray:1.85,0.8;stroke-dashoffset:0;stroke-width:0.5;"/>
   </g>
   <g id="patch_65">
    <path d="M 31.97 126.44874 
L 31.97 17.4 
" style="fill:none;stroke:#000000;stroke-linecap:square;stroke-linejoin:miter;stroke-width:0.8;"/>
   </g>
   <g id="patch_66">
    <path d="M 208.83811 126.44874 
L 208.83811 17.4 
" style="fill:none;stroke:#000000;stroke-linecap:square;stroke-linejoin:miter;stroke-width:0.8;"/>
   </g>
   <g id="patch_67">
    <path d="M 31.97 126.44874 
L 208.83811 126.44874 
" style="fill:none;stroke:#000000;stroke-linecap:square;stroke-linejoin:miter;stroke-width:0.8;"/>
   </g>
   <g id="patch_68">
    <path d="M 31.97 17.4 
L 208.83811 17.4 
" style="fill:none;stroke:#000000;stroke-linecap:square;stroke-linejoin:miter;stroke-width:0.8;"/>
   </g>
   <g id="legend_1">
    <g id="line2d_21">
     <path d="M 39.17 103.04249 
L 55.17 103.04249 
" style="fill:none;stroke:#0000ff;stroke-linecap:square;stroke-opacity:0.5;"/>
    </g>
    <g id="line2d_22"/>
    <g id="text_17">
     <!-- Simulation -->
     <defs>
      <path d="M 53.515625 70.515625 
L 53.515625 60.890625 
Q 47.90625 63.578125 42.921875 64.890625 
Q 37.9375 66.21875 33.296875 66.21875 
Q 25.25 66.21875 20.875 63.09375 
Q 16.5 59.96875 16.5 54.203125 
Q 16.5 49.359375 19.40625 46.890625 
Q 22.3125 44.4375 30.421875 42.921875 
L 36.375 41.703125 
Q 47.40625 39.59375 52.65625 34.296875 
Q 57.90625 29 57.90625 20.125 
Q 57.90625 9.515625 50.796875 4.046875 
Q 43.703125 -1.421875 29.984375 -1.421875 
Q 24.8125 -1.421875 18.96875 -0.25 
Q 13.140625 0.921875 6.890625 3.21875 
L 6.890625 13.375 
Q 12.890625 10.015625 18.65625 8.296875 
Q 24.421875 6.59375 29.984375 6.59375 
Q 38.421875 6.59375 43.015625 9.90625 
Q 47.609375 13.234375 47.609375 19.390625 
Q 47.609375 24.75 44.3125 27.78125 
Q 41.015625 30.8125 33.5 32.328125 
L 27.484375 33.5 
Q 16.453125 35.6875 11.515625 40.375 
Q 6.59375 45.0625 6.59375 53.421875 
Q 6.59375 63.09375 13.40625 68.65625 
Q 20.21875 74.21875 32.171875 74.21875 
Q 37.3125 74.21875 42.625 73.28125 
Q 47.953125 72.359375 53.515625 70.515625 
z
" id="DejaVuSans-83"/>
      <path d="M 30.609375 48.390625 
Q 23.390625 48.390625 19.1875 42.75 
Q 14.984375 37.109375 14.984375 27.296875 
Q 14.984375 17.484375 19.15625 11.84375 
Q 23.34375 6.203125 30.609375 6.203125 
Q 37.796875 6.203125 41.984375 11.859375 
Q 46.1875 17.53125 46.1875 27.296875 
Q 46.1875 37.015625 41.984375 42.703125 
Q 37.796875 48.390625 30.609375 48.390625 
z
M 30.609375 56 
Q 42.328125 56 49.015625 48.375 
Q 55.71875 40.765625 55.71875 27.296875 
Q 55.71875 13.875 49.015625 6.21875 
Q 42.328125 -1.421875 30.609375 -1.421875 
Q 18.84375 -1.421875 12.171875 6.21875 
Q 5.515625 13.875 5.515625 27.296875 
Q 5.515625 40.765625 12.171875 48.375 
Q 18.84375 56 30.609375 56 
z
" id="DejaVuSans-111"/>
      <path d="M 54.890625 33.015625 
L 54.890625 0 
L 45.90625 0 
L 45.90625 32.71875 
Q 45.90625 40.484375 42.875 44.328125 
Q 39.84375 48.1875 33.796875 48.1875 
Q 26.515625 48.1875 22.3125 43.546875 
Q 18.109375 38.921875 18.109375 30.90625 
L 18.109375 0 
L 9.078125 0 
L 9.078125 54.6875 
L 18.109375 54.6875 
L 18.109375 46.1875 
Q 21.34375 51.125 25.703125 53.5625 
Q 30.078125 56 35.796875 56 
Q 45.21875 56 50.046875 50.171875 
Q 54.890625 44.34375 54.890625 33.015625 
z
" id="DejaVuSans-110"/>
     </defs>
     <g transform="translate(61.57 105.84249)scale(0.08 -0.08)">
      <use xlink:href="#DejaVuSans-83"/>
      <use x="63.476562" xlink:href="#DejaVuSans-105"/>
      <use x="91.259766" xlink:href="#DejaVuSans-109"/>
      <use x="188.671875" xlink:href="#DejaVuSans-117"/>
      <use x="252.050781" xlink:href="#DejaVuSans-108"/>
      <use x="279.833984" xlink:href="#DejaVuSans-97"/>
      <use x="341.113281" xlink:href="#DejaVuSans-116"/>
      <use x="380.322266" xlink:href="#DejaVuSans-105"/>
      <use x="408.105469" xlink:href="#DejaVuSans-111"/>
      <use x="469.287109" xlink:href="#DejaVuSans-110"/>
     </g>
    </g>
    <g id="line2d_23">
     <path d="M 39.17 114.78499 
L 55.17 114.78499 
" style="fill:none;stroke:#008000;stroke-linecap:square;stroke-opacity:0.5;"/>
    </g>
    <g id="line2d_24"/>
    <g id="text_18">
     <!-- Forecast -->
     <g transform="translate(61.57 117.58499)scale(0.08 -0.08)">
      <use xlink:href="#DejaVuSans-70"/>
      <use x="53.894531" xlink:href="#DejaVuSans-111"/>
      <use x="115.076172" xlink:href="#DejaVuSans-114"/>
      <use x="153.939453" xlink:href="#DejaVuSans-101"/>
      <use x="215.462891" xlink:href="#DejaVuSans-99"/>
      <use x="270.443359" xlink:href="#DejaVuSans-97"/>
      <use x="331.722656" xlink:href="#DejaVuSans-115"/>
      <use x="383.822266" xlink:href="#DejaVuSans-116"/>
     </g>
    </g>
   </g>
  </g>
  <g id="axes_2">
   <g id="matplotlib.axis_3">
    <g id="ytick_6">
     <g id="line2d_25">
      <defs>
       <path d="M 0 0 
L 3.5 0 
" id="m41383d617b" style="stroke:#000000;stroke-width:0.8;"/>
      </defs>
      <g>
       <use style="stroke:#000000;stroke-width:0.8;" x="208.83811" xlink:href="#m41383d617b" y="126.44874"/>
      </g>
     </g>
     <g id="text_19">
      <!-- 1.0 -->
      <defs>
       <path d="M 10.59375 35.5 
L 73.1875 35.5 
L 73.1875 27.203125 
L 10.59375 27.203125 
z
" id="DejaVuSans-8722"/>
       <path d="M 10.6875 12.40625 
L 21 12.40625 
L 21 0 
L 10.6875 0 
z
" id="DejaVuSans-46"/>
      </defs>
      <g transform="translate(215.83811 129.488115)scale(0.08 -0.08)">
       <use xlink:href="#DejaVuSans-8722"/>
       <use x="83.789062" xlink:href="#DejaVuSans-49"/>
       <use x="147.412109" xlink:href="#DejaVuSans-46"/>
       <use x="179.199219" xlink:href="#DejaVuSans-48"/>
      </g>
     </g>
    </g>
    <g id="ytick_7">
     <g id="line2d_26">
      <g>
       <use style="stroke:#000000;stroke-width:0.8;" x="208.83811" xlink:href="#m41383d617b" y="87.502762"/>
      </g>
     </g>
     <g id="text_20">
      <!-- 0.5 -->
      <g transform="translate(215.83811 90.542137)scale(0.08 -0.08)">
       <use xlink:href="#DejaVuSans-8722"/>
       <use x="83.789062" xlink:href="#DejaVuSans-48"/>
       <use x="147.412109" xlink:href="#DejaVuSans-46"/>
       <use x="179.199219" xlink:href="#DejaVuSans-53"/>
      </g>
     </g>
    </g>
    <g id="ytick_8">
     <g id="line2d_27">
      <g>
       <use style="stroke:#000000;stroke-width:0.8;" x="208.83811" xlink:href="#m41383d617b" y="48.556783"/>
      </g>
     </g>
     <g id="text_21">
      <!-- 0.0 -->
      <g transform="translate(215.83811 51.596158)scale(0.08 -0.08)">
       <use xlink:href="#DejaVuSans-48"/>
       <use x="63.623047" xlink:href="#DejaVuSans-46"/>
       <use x="95.410156" xlink:href="#DejaVuSans-48"/>
      </g>
     </g>
    </g>
    <g id="ytick_9">
     <g id="line2d_28">
      <g>
       <use style="stroke:#000000;stroke-width:0.8;" x="208.83811" xlink:href="#m41383d617b" y="17.4"/>
      </g>
     </g>
     <g id="text_22">
      <!-- 0.4 -->
      <g transform="translate(215.83811 20.439375)scale(0.08 -0.08)">
       <use xlink:href="#DejaVuSans-48"/>
       <use x="63.623047" xlink:href="#DejaVuSans-46"/>
       <use x="95.410156" xlink:href="#DejaVuSans-52"/>
      </g>
     </g>
    </g>
    <g id="text_23">
     <!-- Relative change -->
     <defs>
      <path d="M 44.390625 34.1875 
Q 47.5625 33.109375 50.5625 29.59375 
Q 53.5625 26.078125 56.59375 19.921875 
L 66.609375 0 
L 56 0 
L 46.6875 18.703125 
Q 43.0625 26.03125 39.671875 28.421875 
Q 36.28125 30.8125 30.421875 30.8125 
L 19.671875 30.8125 
L 19.671875 0 
L 9.8125 0 
L 9.8125 72.90625 
L 32.078125 72.90625 
Q 44.578125 72.90625 50.734375 67.671875 
Q 56.890625 62.453125 56.890625 51.90625 
Q 56.890625 45.015625 53.6875 40.46875 
Q 50.484375 35.9375 44.390625 34.1875 
z
M 19.671875 64.796875 
L 19.671875 38.921875 
L 32.078125 38.921875 
Q 39.203125 38.921875 42.84375 42.21875 
Q 46.484375 45.515625 46.484375 51.90625 
Q 46.484375 58.296875 42.84375 61.546875 
Q 39.203125 64.796875 32.078125 64.796875 
z
" id="DejaVuSans-82"/>
      <path d="M 54.890625 33.015625 
L 54.890625 0 
L 45.90625 0 
L 45.90625 32.71875 
Q 45.90625 40.484375 42.875 44.328125 
Q 39.84375 48.1875 33.796875 48.1875 
Q 26.515625 48.1875 22.3125 43.546875 
Q 18.109375 38.921875 18.109375 30.90625 
L 18.109375 0 
L 9.078125 0 
L 9.078125 75.984375 
L 18.109375 75.984375 
L 18.109375 46.1875 
Q 21.34375 51.125 25.703125 53.5625 
Q 30.078125 56 35.796875 56 
Q 45.21875 56 50.046875 50.171875 
Q 54.890625 44.34375 54.890625 33.015625 
z
" id="DejaVuSans-104"/>
      <path d="M 45.40625 27.984375 
Q 45.40625 37.75 41.375 43.109375 
Q 37.359375 48.484375 30.078125 48.484375 
Q 22.859375 48.484375 18.828125 43.109375 
Q 14.796875 37.75 14.796875 27.984375 
Q 14.796875 18.265625 18.828125 12.890625 
Q 22.859375 7.515625 30.078125 7.515625 
Q 37.359375 7.515625 41.375 12.890625 
Q 45.40625 18.265625 45.40625 27.984375 
z
M 54.390625 6.78125 
Q 54.390625 -7.171875 48.1875 -13.984375 
Q 42 -20.796875 29.203125 -20.796875 
Q 24.46875 -20.796875 20.265625 -20.09375 
Q 16.0625 -19.390625 12.109375 -17.921875 
L 12.109375 -9.1875 
Q 16.0625 -11.328125 19.921875 -12.34375 
Q 23.78125 -13.375 27.78125 -13.375 
Q 36.625 -13.375 41.015625 -8.765625 
Q 45.40625 -4.15625 45.40625 5.171875 
L 45.40625 9.625 
Q 42.625 4.78125 38.28125 2.390625 
Q 33.9375 0 27.875 0 
Q 17.828125 0 11.671875 7.65625 
Q 5.515625 15.328125 5.515625 27.984375 
Q 5.515625 40.671875 11.671875 48.328125 
Q 17.828125 56 27.875 56 
Q 33.9375 56 38.28125 53.609375 
Q 42.625 51.21875 45.40625 46.390625 
L 45.40625 54.6875 
L 54.390625 54.6875 
z
" id="DejaVuSans-103"/>
     </defs>
     <g transform="translate(245.34311 104.04812)rotate(-90)scale(0.08 -0.08)">
      <use xlink:href="#DejaVuSans-82"/>
      <use x="64.982422" xlink:href="#DejaVuSans-101"/>
      <use x="126.505859" xlink:href="#DejaVuSans-108"/>
      <use x="154.289062" xlink:href="#DejaVuSans-97"/>
      <use x="215.568359" xlink:href="#DejaVuSans-116"/>
      <use x="254.777344" xlink:href="#DejaVuSans-105"/>
      <use x="282.560547" xlink:href="#DejaVuSans-118"/>
      <use x="341.740234" xlink:href="#DejaVuSans-101"/>
      <use x="403.263672" xlink:href="#DejaVuSans-32"/>
      <use x="435.050781" xlink:href="#DejaVuSans-99"/>
      <use x="490.03125" xlink:href="#DejaVuSans-104"/>
      <use x="553.410156" xlink:href="#DejaVuSans-97"/>
      <use x="614.689453" xlink:href="#DejaVuSans-110"/>
      <use x="678.068359" xlink:href="#DejaVuSans-103"/>
      <use x="741.544922" xlink:href="#DejaVuSans-101"/>
     </g>
    </g>
   </g>
   <g id="line2d_29">
    <path clip-path="url(#pbad031ab06)" d="M 41.050166 48.556783 
L 43.651933 46.220024 
L 46.2537 47.777863 
L 48.855467 44.662185 
L 51.457234 48.556783 
L 54.059001 46.998944 
L 56.660767 46.998944 
L 59.262534 42.325426 
L 61.864301 44.662185 
L 64.466068 43.104346 
L 67.067835 43.104346 
L 69.669602 42.325426 
L 72.271368 49.335702 
L 74.873135 47.777863 
L 77.474902 48.556783 
L 80.076669 50.114622 
L 82.678436 48.556783 
L 85.280203 46.998944 
L 87.88197 44.662185 
L 90.483736 47.777863 
L 93.085503 50.114622 
L 95.68727 51.672461 
L 98.289037 51.672461 
L 100.890804 57.903818 
L 103.492571 58.682737 
L 106.094337 61.798416 
L 108.696104 68.029772 
L 111.297871 63.356255 
L 113.899638 67.250853 
L 116.501405 68.808692 
L 119.103172 65.693013 
L 121.704939 67.250853 
L 124.306705 68.808692 
L 126.908472 68.808692 
L 129.510239 68.029772 
L 132.112006 68.029772 
L 134.713773 63.356255 
L 137.31554 62.577335 
L 139.917306 63.356255 
L 142.519073 67.250853 
L 145.12084 67.250853 
" style="fill:none;stroke:#d62728;stroke-linecap:square;stroke-opacity:0.5;"/>
   </g>
   <g id="line2d_30">
    <path clip-path="url(#pbad031ab06)" d="M 41.050166 48.556783 
L 43.651933 47.777863 
L 46.2537 47.777863 
L 48.855467 48.556783 
L 51.457234 49.335702 
L 54.059001 48.556783 
L 56.660767 48.556783 
L 59.262534 41.546507 
L 61.864301 46.998944 
L 64.466068 45.441105 
L 67.067835 46.998944 
L 69.669602 45.441105 
L 72.271368 50.114622 
L 74.873135 46.998944 
L 77.474902 46.998944 
L 80.076669 49.335702 
L 82.678436 46.220024 
L 85.280203 47.777863 
L 87.88197 45.441105 
L 90.483736 50.114622 
L 93.085503 48.556783 
L 95.68727 47.777863 
L 98.289037 45.441105 
L 100.890804 39.988668 
L 103.492571 42.325426 
L 106.094337 41.546507 
L 108.696104 50.114622 
L 111.297871 46.220024 
L 113.899638 48.556783 
L 116.501405 50.893542 
L 119.103172 50.114622 
L 121.704939 52.451381 
L 124.306705 52.451381 
L 126.908472 55.567059 
L 129.510239 54.788139 
L 132.112006 54.00922 
L 134.713773 47.777863 
L 137.31554 50.114622 
L 139.917306 52.451381 
L 142.519073 51.672461 
L 145.12084 56.345979 
" style="fill:none;stroke:#9467bd;stroke-linecap:square;stroke-opacity:0.5;"/>
   </g>
   <g id="line2d_31">
    <path clip-path="url(#pbad031ab06)" d="M 41.050166 51.672461 
L 43.651933 50.893542 
L 46.2537 53.2303 
L 48.855467 50.114622 
L 51.457234 50.114622 
L 54.059001 48.556783 
L 56.660767 50.893542 
L 59.262534 50.893542 
L 61.864301 52.451381 
L 64.466068 50.114622 
L 67.067835 49.335702 
L 69.669602 44.662185 
L 72.271368 53.2303 
L 74.873135 50.893542 
L 77.474902 51.672461 
L 80.076669 52.451381 
L 82.678436 51.672461 
L 85.280203 49.335702 
L 87.88197 43.883265 
L 90.483736 53.2303 
L 93.085503 52.451381 
L 95.68727 53.2303 
L 98.289037 54.00922 
L 100.890804 61.019496 
L 103.492571 63.356255 
L 106.094337 58.682737 
L 108.696104 71.92437 
L 111.297871 68.029772 
L 113.899638 73.482209 
L 116.501405 77.376807 
L 119.103172 75.818968 
L 121.704939 77.376807 
L 124.306705 70.366531 
L 126.908472 74.261129 
L 129.510239 78.155727 
L 132.112006 77.376807 
L 134.713773 76.597888 
L 137.31554 75.818968 
L 139.917306 75.818968 
L 142.519073 71.145451 
L 145.12084 76.597888 
" style="fill:none;stroke:#e377c2;stroke-linecap:square;stroke-opacity:0.5;"/>
   </g>
   <g id="line2d_32">
    <path clip-path="url(#pbad031ab06)" d="M 41.050166 52.451381 
L 43.651933 52.451381 
L 46.2537 53.2303 
L 48.855467 54.00922 
L 51.457234 50.893542 
L 54.059001 49.335702 
L 56.660767 51.672461 
L 59.262534 51.672461 
L 61.864301 51.672461 
L 64.466068 52.451381 
L 67.067835 53.2303 
L 69.669602 48.556783 
L 72.271368 50.114622 
L 74.873135 50.114622 
L 77.474902 50.114622 
L 80.076669 50.114622 
L 82.678436 50.114622 
L 85.280203 50.114622 
L 87.88197 48.556783 
L 90.483736 49.335702 
L 93.085503 48.556783 
L 95.68727 48.556783 
L 98.289037 49.335702 
L 100.890804 51.672461 
L 103.492571 56.345979 
L 106.094337 53.2303 
L 108.696104 56.345979 
L 111.297871 61.798416 
L 113.899638 64.914094 
L 116.501405 69.587611 
L 119.103172 70.366531 
L 121.704939 70.366531 
L 124.306705 58.682737 
L 126.908472 60.240576 
L 129.510239 69.587611 
L 132.112006 70.366531 
L 134.713773 70.366531 
L 137.31554 70.366531 
L 139.917306 71.145451 
L 142.519073 60.240576 
L 145.12084 62.577335 
" style="fill:none;stroke:#bcbd22;stroke-linecap:square;stroke-opacity:0.5;"/>
   </g>
   <g id="line2d_33">
    <path clip-path="url(#pbad031ab06)" d="M 41.050166 47.777863 
L 43.651933 47.777863 
L 46.2537 47.777863 
L 48.855467 47.777863 
L 51.457234 47.777863 
L 54.059001 48.556783 
L 56.660767 47.777863 
L 59.262534 47.777863 
L 61.864301 47.777863 
L 64.466068 47.777863 
L 67.067835 47.777863 
L 69.669602 48.556783 
L 72.271368 47.777863 
L 74.873135 47.777863 
L 77.474902 47.777863 
L 80.076669 47.777863 
L 82.678436 47.777863 
L 85.280203 47.777863 
L 87.88197 48.556783 
L 90.483736 47.777863 
L 93.085503 47.777863 
L 95.68727 47.777863 
L 98.289037 46.998944 
L 100.890804 45.441105 
L 103.492571 43.883265 
L 106.094337 46.220024 
L 108.696104 44.662185 
L 111.297871 42.325426 
L 113.899638 41.546507 
L 116.501405 39.988668 
L 119.103172 39.988668 
L 121.704939 39.209748 
L 124.306705 43.883265 
L 126.908472 44.662185 
L 129.510239 39.988668 
L 132.112006 39.988668 
L 134.713773 39.988668 
L 137.31554 39.988668 
L 139.917306 39.988668 
L 142.519073 43.883265 
L 145.12084 44.662185 
" style="fill:none;stroke:#17becf;stroke-linecap:square;stroke-opacity:0.5;"/>
   </g>
   <g id="patch_69">
    <path d="M 31.97 126.44874 
L 31.97 17.4 
" style="fill:none;stroke:#000000;stroke-linecap:square;stroke-linejoin:miter;stroke-width:0.8;"/>
   </g>
   <g id="patch_70">
    <path d="M 208.83811 126.44874 
L 208.83811 17.4 
" style="fill:none;stroke:#000000;stroke-linecap:square;stroke-linejoin:miter;stroke-width:0.8;"/>
   </g>
   <g id="patch_71">
    <path d="M 31.97 126.44874 
L 208.83811 126.44874 
" style="fill:none;stroke:#000000;stroke-linecap:square;stroke-linejoin:miter;stroke-width:0.8;"/>
   </g>
   <g id="patch_72">
    <path d="M 31.97 17.4 
L 208.83811 17.4 
" style="fill:none;stroke:#000000;stroke-linecap:square;stroke-linejoin:miter;stroke-width:0.8;"/>
   </g>
  </g>
 </g>
 <defs>
  <clipPath id="pbad031ab06">
   <rect height="109.04874" width="176.86811" x="31.97" y="17.4"/>
  </clipPath>
 </defs>
</svg>
