<?xml version="1.0" encoding="utf-8" standalone="no"?>
<!DOCTYPE svg PUBLIC "-//W3C//DTD SVG 1.1//EN"
  "http://www.w3.org/Graphics/SVG/1.1/DTD/svg11.dtd">
<!-- Created with matplotlib (https://matplotlib.org/) -->
<svg height="170.07874pt" version="1.1" viewBox="0 0 255.11811 170.07874" width="255.11811pt" xmlns="http://www.w3.org/2000/svg" xmlns:xlink="http://www.w3.org/1999/xlink">
 <defs>
  <style type="text/css">
*{stroke-linecap:butt;stroke-linejoin:round;}
  </style>
 </defs>
 <g id="figure_1">
  <g id="patch_1">
   <path d="M 0 170.07874 
L 255.11811 170.07874 
L 255.11811 0 
L 0 0 
z
" style="fill:#ffffff;"/>
  </g>
  <g id="axes_1">
   <g id="patch_2">
    <path d="M 47.09 126.44874 
L 208.83811 126.44874 
L 208.83811 11.52 
L 47.09 11.52 
z
" style="fill:#ffffff;"/>
   </g>
   <g id="PolyCollection_1">
    <defs>
     <path d="M 55.393926 -43.63 
L 55.393926 -43.63 
L 57.773275 -43.63 
L 60.152623 -43.63 
L 62.531972 -43.630002 
L 64.91132 -43.630006 
L 67.290669 -43.630015 
L 69.670017 -43.630033 
L 72.049366 -43.630062 
L 74.428714 -43.630108 
L 76.808063 -43.630177 
L 79.187411 -43.630275 
L 81.56676 -43.630414 
L 83.946108 -43.630605 
L 86.325457 -43.630865 
L 88.704805 -43.631217 
L 91.084154 -43.631689 
L 93.463502 -43.632319 
L 95.842851 -43.633153 
L 98.222199 -43.634244 
L 100.601548 -43.635677 
L 102.980896 -43.637561 
L 105.360244 -43.640023 
L 107.739593 -43.643226 
L 110.118941 -43.647413 
L 112.49829 -43.652805 
L 114.877638 -43.659826 
L 117.256987 -43.668972 
L 119.636335 -43.680891 
L 122.015684 -43.696525 
L 124.395032 -43.716934 
L 126.774381 -43.743351 
L 129.153729 -43.777066 
L 131.533078 -43.819968 
L 133.912426 -43.873798 
L 136.291775 -43.940042 
L 138.671123 -44.020748 
L 141.050472 -44.117668 
L 143.42982 -44.232985 
L 145.809169 -44.368287 
L 148.188517 -44.525936 
L 150.567866 -44.70661 
L 150.567866 -46.010535 
L 150.567866 -46.010535 
L 148.188517 -45.615377 
L 145.809169 -45.287457 
L 143.42982 -45.015506 
L 141.050472 -44.789195 
L 138.671123 -44.599347 
L 136.291775 -44.441093 
L 133.912426 -44.309447 
L 131.533078 -44.199911 
L 129.153729 -44.108082 
L 126.774381 -44.031025 
L 124.395032 -43.966664 
L 122.015684 -43.912819 
L 119.636335 -43.867125 
L 117.256987 -43.828297 
L 114.877638 -43.795402 
L 112.49829 -43.767601 
L 110.118941 -43.743943 
L 107.739593 -43.723784 
L 105.360244 -43.706764 
L 102.980896 -43.692442 
L 100.601548 -43.680383 
L 98.222199 -43.670276 
L 95.842851 -43.661866 
L 93.463502 -43.654874 
L 91.084154 -43.649147 
L 88.704805 -43.644508 
L 86.325457 -43.640761 
L 83.946108 -43.637785 
L 81.56676 -43.635471 
L 79.187411 -43.633717 
L 76.808063 -43.632422 
L 74.428714 -43.631496 
L 72.049366 -43.630864 
L 69.670017 -43.630456 
L 67.290669 -43.630214 
L 64.91132 -43.630085 
L 62.531972 -43.630026 
L 60.152623 -43.630005 
L 57.773275 -43.63 
L 55.393926 -43.63 
z
" id="m4a8138624f" style="stroke:#6495ed;stroke-opacity:0.4;"/>
    </defs>
    <g clip-path="url(#paad3c11fc3)">
     <use style="fill:#6495ed;fill-opacity:0.4;stroke:#6495ed;stroke-opacity:0.4;" x="0" xlink:href="#m4a8138624f" y="170.07874"/>
    </g>
   </g>
   <g id="PolyCollection_2">
    <defs>
     <path d="M 55.393926 -43.63 
L 55.393926 -43.63 
L 57.773275 -43.63 
L 60.152623 -43.630001 
L 62.531972 -43.630005 
L 64.91132 -43.630017 
L 67.290669 -43.630043 
L 69.670017 -43.630092 
L 72.049366 -43.630174 
L 74.428714 -43.630302 
L 76.808063 -43.63049 
L 79.187411 -43.630758 
L 81.56676 -43.631128 
L 83.946108 -43.631628 
L 86.325457 -43.632294 
L 88.704805 -43.633167 
L 91.084154 -43.6343 
L 93.463502 -43.635756 
L 95.842851 -43.637617 
L 98.222199 -43.63998 
L 100.601548 -43.642958 
L 102.980896 -43.646706 
L 105.360244 -43.651408 
L 107.739593 -43.657296 
L 110.118941 -43.664652 
L 112.49829 -43.673821 
L 114.877638 -43.685261 
L 117.256987 -43.699541 
L 119.636335 -43.717433 
L 122.015684 -43.739912 
L 124.395032 -43.768108 
L 126.774381 -43.803423 
L 129.153729 -43.847472 
L 131.533078 -43.902331 
L 133.912426 -43.96989 
L 136.291775 -44.052431 
L 138.671123 -44.152499 
L 141.050472 -44.272676 
L 143.42982 -44.415728 
L 145.809169 -44.584624 
L 148.188517 -44.782297 
L 150.567866 -45.012745 
L 150.567866 -45.447893 
L 150.567866 -45.447893 
L 148.188517 -45.145783 
L 145.809169 -44.890448 
L 143.42982 -44.675187 
L 141.050472 -44.494142 
L 138.671123 -44.342544 
L 136.291775 -44.216372 
L 133.912426 -44.111445 
L 131.533078 -44.024679 
L 129.153729 -43.95306 
L 126.774381 -43.894261 
L 124.395032 -43.846115 
L 122.015684 -43.806712 
L 119.636335 -43.774415 
L 117.256987 -43.747877 
L 114.877638 -43.726101 
L 112.49829 -43.708161 
L 110.118941 -43.693356 
L 107.739593 -43.681132 
L 105.360244 -43.671057 
L 102.980896 -43.662778 
L 100.601548 -43.655981 
L 98.222199 -43.650421 
L 95.842851 -43.645889 
L 93.463502 -43.642221 
L 91.084154 -43.639269 
L 88.704805 -43.636922 
L 86.325457 -43.635075 
L 83.946108 -43.633642 
L 81.56676 -43.632546 
L 79.187411 -43.631722 
L 76.808063 -43.631119 
L 74.428714 -43.63069 
L 72.049366 -43.630398 
L 69.670017 -43.63021 
L 67.290669 -43.630099 
L 64.91132 -43.630039 
L 62.531972 -43.630012 
L 60.152623 -43.630002 
L 57.773275 -43.63 
L 55.393926 -43.63 
z
" id="mdc0a62fe25" style="stroke:#6495ed;stroke-opacity:0.6;"/>
    </defs>
    <g clip-path="url(#paad3c11fc3)">
     <use style="fill:#6495ed;fill-opacity:0.6;stroke:#6495ed;stroke-opacity:0.6;" x="0" xlink:href="#mdc0a62fe25" y="170.07874"/>
    </g>
   </g>
   <g id="PolyCollection_3">
    <defs>
     <path d="M 150.567866 -46.010535 
L 150.567866 -44.70661 
L 152.947214 -44.913153 
L 155.326563 -45.147486 
L 157.705911 -45.409793 
L 160.08526 -45.70515 
L 162.464608 -46.035244 
L 164.843957 -46.401352 
L 167.223305 -46.807602 
L 169.602654 -47.25596 
L 171.982002 -47.748428 
L 174.361351 -48.289128 
L 176.740699 -48.879515 
L 179.120048 -49.521152 
L 181.499396 -50.215175 
L 183.878745 -50.963826 
L 186.258093 -51.77237 
L 188.637442 -52.638779 
L 191.01679 -53.563775 
L 193.396139 -54.54863 
L 195.775487 -55.599469 
L 198.154836 -56.721947 
L 200.534184 -57.922214 
L 200.534184 -158.55874 
L 200.534184 -158.55874 
L 198.154836 -139.498954 
L 195.775487 -123.49353 
L 193.396139 -110.197923 
L 191.01679 -99.205603 
L 188.637442 -90.043231 
L 186.258093 -82.37682 
L 183.878745 -75.937579 
L 181.499396 -70.551609 
L 179.120048 -66.016492 
L 176.740699 -62.224249 
L 174.361351 -59.037731 
L 171.982002 -56.383872 
L 169.602654 -54.198382 
L 167.223305 -52.38579 
L 164.843957 -50.882489 
L 162.464608 -49.637557 
L 160.08526 -48.609049 
L 157.705911 -47.760238 
L 155.326563 -47.06116 
L 152.947214 -46.486162 
L 150.567866 -46.010535 
z
" id="m04629c6fa5" style="stroke:#228b22;stroke-opacity:0.4;"/>
    </defs>
    <g clip-path="url(#paad3c11fc3)">
     <use style="fill:#228b22;fill-opacity:0.4;stroke:#228b22;stroke-opacity:0.4;" x="0" xlink:href="#m04629c6fa5" y="170.07874"/>
    </g>
   </g>
   <g id="PolyCollection_4">
    <defs>
     <path d="M 150.567866 -45.447893 
L 150.567866 -45.012745 
L 152.947214 -45.28057 
L 155.326563 -45.590418 
L 157.705911 -45.947073 
L 160.08526 -46.356039 
L 162.464608 -46.823896 
L 164.843957 -47.35695 
L 167.223305 -47.96151 
L 169.602654 -48.645657 
L 171.982002 -49.415515 
L 174.361351 -50.279371 
L 176.740699 -51.246211 
L 179.120048 -52.323118 
L 181.499396 -53.522523 
L 183.878745 -54.849433 
L 186.258093 -56.318488 
L 188.637442 -57.944837 
L 191.01679 -59.738641 
L 193.396139 -61.717602 
L 195.775487 -63.898361 
L 198.154836 -66.301905 
L 200.534184 -68.943526 
L 200.534184 -93.058754 
L 200.534184 -93.058754 
L 198.154836 -86.66022 
L 195.775487 -81.042045 
L 193.396139 -76.109739 
L 191.01679 -71.791176 
L 188.637442 -68.014155 
L 186.258093 -64.705105 
L 183.878745 -61.810463 
L 181.499396 -59.286625 
L 179.120048 -57.084187 
L 176.740699 -55.169676 
L 174.361351 -53.502415 
L 171.982002 -52.057577 
L 169.602654 -50.808667 
L 167.223305 -49.728383 
L 164.843957 -48.796269 
L 162.464608 -47.995856 
L 160.08526 -47.311113 
L 157.705911 -46.727561 
L 155.326563 -46.228943 
L 152.947214 -45.805689 
L 150.567866 -45.447893 
z
" id="m9cf143ac71" style="stroke:#228b22;stroke-opacity:0.6;"/>
    </defs>
    <g clip-path="url(#paad3c11fc3)">
     <use style="fill:#228b22;fill-opacity:0.6;stroke:#228b22;stroke-opacity:0.6;" x="0" xlink:href="#m9cf143ac71" y="170.07874"/>
    </g>
   </g>
   <g id="PathCollection_1">
    <defs>
     <path d="M -0.866025 1.732051 
L 0 0.866025 
L 0.866025 1.732051 
L 1.732051 0.866025 
L 0.866025 0 
L 1.732051 -0.866025 
L 0.866025 -1.732051 
L 0 -0.866025 
L -0.866025 -1.732051 
L -1.732051 -0.866025 
L -0.866025 0 
L -1.732051 0.866025 
z
" id="m067e332b70" style="stroke:#8a2be2;"/>
    </defs>
    <g clip-path="url(#paad3c11fc3)">
     <use style="fill:#8a2be2;stroke:#8a2be2;" x="110.118941" xlink:href="#m067e332b70" y="23.012874"/>
    </g>
   </g>
   <g id="PathCollection_2">
    <defs>
     <path d="M 0 -1.732051 
L -0.38887 -0.535233 
L -1.647278 -0.535233 
L -0.629204 0.204441 
L -1.018074 1.401259 
L -0 0.661585 
L 1.018074 1.401259 
L 0.629204 0.204441 
L 1.647278 -0.535233 
L 0.38887 -0.535233 
z
" id="mbe1c0fe99a" style="stroke:#000000;"/>
    </defs>
    <g clip-path="url(#paad3c11fc3)">
     <use style="stroke:#000000;" x="124.395032" xlink:href="#mbe1c0fe99a" y="23.012874"/>
    </g>
   </g>
   <g id="PathCollection_3">
    <defs>
     <path d="M 0 -1.732051 
L -1.647278 -0.535233 
L -1.018074 1.401259 
L 1.018074 1.401259 
L 1.647278 -0.535233 
z
" id="m6c0fe34584" style="stroke:#800000;"/>
    </defs>
    <g clip-path="url(#paad3c11fc3)">
     <use style="fill:#800000;stroke:#800000;" x="119.636335" xlink:href="#m6c0fe34584" y="23.012874"/>
    </g>
   </g>
   <g id="PathCollection_4">
    <defs>
     <path d="M -0 2.44949 
L 1.469694 0 
L 0 -2.44949 
L -1.469694 -0 
z
" id="me928df4f5d" style="stroke:#556b2f;"/>
    </defs>
    <g clip-path="url(#paad3c11fc3)">
     <use style="fill:#556b2f;stroke:#556b2f;" x="105.360244" xlink:href="#me928df4f5d" y="23.012874"/>
    </g>
   </g>
   <g id="patch_3">
    <path clip-path="url(#paad3c11fc3)" d="M 54.442187 126.44874 
L 56.345666 126.44874 
L 56.345666 126.44874 
L 54.442187 126.44874 
z
" style="fill:#1f77b4;opacity:0.5;"/>
   </g>
   <g id="patch_4">
    <path clip-path="url(#paad3c11fc3)" d="M 56.821535 126.44874 
L 58.725014 126.44874 
L 58.725014 126.44874 
L 56.821535 126.44874 
z
" style="fill:#1f77b4;opacity:0.5;"/>
   </g>
   <g id="patch_5">
    <path clip-path="url(#paad3c11fc3)" d="M 59.200884 126.44874 
L 61.104363 126.44874 
L 61.104363 126.44874 
L 59.200884 126.44874 
z
" style="fill:#1f77b4;opacity:0.5;"/>
   </g>
   <g id="patch_6">
    <path clip-path="url(#paad3c11fc3)" d="M 61.580232 126.44874 
L 63.483711 126.44874 
L 63.483711 126.44874 
L 61.580232 126.44874 
z
" style="fill:#1f77b4;opacity:0.5;"/>
   </g>
   <g id="patch_7">
    <path clip-path="url(#paad3c11fc3)" d="M 63.959581 126.44874 
L 65.86306 126.44874 
L 65.86306 126.44874 
L 63.959581 126.44874 
z
" style="fill:#1f77b4;opacity:0.5;"/>
   </g>
   <g id="patch_8">
    <path clip-path="url(#paad3c11fc3)" d="M 66.338929 126.44874 
L 68.242408 126.44874 
L 68.242408 126.44874 
L 66.338929 126.44874 
z
" style="fill:#1f77b4;opacity:0.5;"/>
   </g>
   <g id="patch_9">
    <path clip-path="url(#paad3c11fc3)" d="M 68.718278 126.44874 
L 70.621757 126.44874 
L 70.621757 126.44874 
L 68.718278 126.44874 
z
" style="fill:#1f77b4;opacity:0.5;"/>
   </g>
   <g id="patch_10">
    <path clip-path="url(#paad3c11fc3)" d="M 71.097626 126.44874 
L 73.001105 126.44874 
L 73.001105 126.44874 
L 71.097626 126.44874 
z
" style="fill:#1f77b4;opacity:0.5;"/>
   </g>
   <g id="patch_11">
    <path clip-path="url(#paad3c11fc3)" d="M 73.476975 126.44874 
L 75.380454 126.44874 
L 75.380454 126.44874 
L 73.476975 126.44874 
z
" style="fill:#1f77b4;opacity:0.5;"/>
   </g>
   <g id="patch_12">
    <path clip-path="url(#paad3c11fc3)" d="M 75.856323 126.44874 
L 77.759802 126.44874 
L 77.759802 126.44874 
L 75.856323 126.44874 
z
" style="fill:#1f77b4;opacity:0.5;"/>
   </g>
   <g id="patch_13">
    <path clip-path="url(#paad3c11fc3)" d="M 78.235672 126.44874 
L 80.139151 126.44874 
L 80.139151 126.44874 
L 78.235672 126.44874 
z
" style="fill:#1f77b4;opacity:0.5;"/>
   </g>
   <g id="patch_14">
    <path clip-path="url(#paad3c11fc3)" d="M 80.61502 126.44874 
L 82.518499 126.44874 
L 82.518499 126.44874 
L 80.61502 126.44874 
z
" style="fill:#1f77b4;opacity:0.5;"/>
   </g>
   <g id="patch_15">
    <path clip-path="url(#paad3c11fc3)" d="M 82.994369 126.44874 
L 84.897847 126.44874 
L 84.897847 126.44874 
L 82.994369 126.44874 
z
" style="fill:#1f77b4;opacity:0.5;"/>
   </g>
   <g id="patch_16">
    <path clip-path="url(#paad3c11fc3)" d="M 85.373717 126.44874 
L 87.277196 126.44874 
L 87.277196 126.44874 
L 85.373717 126.44874 
z
" style="fill:#1f77b4;opacity:0.5;"/>
   </g>
   <g id="patch_17">
    <path clip-path="url(#paad3c11fc3)" d="M 87.753066 126.44874 
L 89.656544 126.44874 
L 89.656544 126.44874 
L 87.753066 126.44874 
z
" style="fill:#1f77b4;opacity:0.5;"/>
   </g>
   <g id="patch_18">
    <path clip-path="url(#paad3c11fc3)" d="M 90.132414 126.44874 
L 92.035893 126.44874 
L 92.035893 126.44874 
L 90.132414 126.44874 
z
" style="fill:#1f77b4;opacity:0.5;"/>
   </g>
   <g id="patch_19">
    <path clip-path="url(#paad3c11fc3)" d="M 92.511763 126.44874 
L 94.415241 126.44874 
L 94.415241 126.44874 
L 92.511763 126.44874 
z
" style="fill:#1f77b4;opacity:0.5;"/>
   </g>
   <g id="patch_20">
    <path clip-path="url(#paad3c11fc3)" d="M 94.891111 126.44874 
L 96.79459 126.44874 
L 96.79459 126.44874 
L 94.891111 126.44874 
z
" style="fill:#1f77b4;opacity:0.5;"/>
   </g>
   <g id="patch_21">
    <path clip-path="url(#paad3c11fc3)" d="M 97.27046 126.44874 
L 99.173938 126.44874 
L 99.173938 126.44874 
L 97.27046 126.44874 
z
" style="fill:#1f77b4;opacity:0.5;"/>
   </g>
   <g id="patch_22">
    <path clip-path="url(#paad3c11fc3)" d="M 99.649808 126.44874 
L 101.553287 126.44874 
L 101.553287 126.44874 
L 99.649808 126.44874 
z
" style="fill:#1f77b4;opacity:0.5;"/>
   </g>
   <g id="patch_23">
    <path clip-path="url(#paad3c11fc3)" d="M 102.029157 126.44874 
L 103.932635 126.44874 
L 103.932635 126.44874 
L 102.029157 126.44874 
z
" style="fill:#1f77b4;opacity:0.5;"/>
   </g>
   <g id="patch_24">
    <path clip-path="url(#paad3c11fc3)" d="M 104.408505 126.44874 
L 106.311984 126.44874 
L 106.311984 126.44874 
L 104.408505 126.44874 
z
" style="fill:#1f77b4;opacity:0.5;"/>
   </g>
   <g id="patch_25">
    <path clip-path="url(#paad3c11fc3)" d="M 106.787854 126.44874 
L 108.691332 126.44874 
L 108.691332 126.44874 
L 106.787854 126.44874 
z
" style="fill:#1f77b4;opacity:0.5;"/>
   </g>
   <g id="patch_26">
    <path clip-path="url(#paad3c11fc3)" d="M 109.167202 126.44874 
L 111.070681 126.44874 
L 111.070681 126.432947 
L 109.167202 126.432947 
z
" style="fill:#1f77b4;opacity:0.5;"/>
   </g>
   <g id="patch_27">
    <path clip-path="url(#paad3c11fc3)" d="M 111.546551 126.44874 
L 113.450029 126.44874 
L 113.450029 126.432947 
L 111.546551 126.432947 
z
" style="fill:#1f77b4;opacity:0.5;"/>
   </g>
   <g id="patch_28">
    <path clip-path="url(#paad3c11fc3)" d="M 113.925899 126.44874 
L 115.829378 126.44874 
L 115.829378 126.432947 
L 113.925899 126.432947 
z
" style="fill:#1f77b4;opacity:0.5;"/>
   </g>
   <g id="patch_29">
    <path clip-path="url(#paad3c11fc3)" d="M 116.305248 126.44874 
L 118.208726 126.44874 
L 118.208726 126.432947 
L 116.305248 126.432947 
z
" style="fill:#1f77b4;opacity:0.5;"/>
   </g>
   <g id="patch_30">
    <path clip-path="url(#paad3c11fc3)" d="M 118.684596 126.44874 
L 120.588075 126.44874 
L 120.588075 126.40136 
L 118.684596 126.40136 
z
" style="fill:#1f77b4;opacity:0.5;"/>
   </g>
   <g id="patch_31">
    <path clip-path="url(#paad3c11fc3)" d="M 121.063945 126.44874 
L 122.967423 126.44874 
L 122.967423 126.338186 
L 121.063945 126.338186 
z
" style="fill:#1f77b4;opacity:0.5;"/>
   </g>
   <g id="patch_32">
    <path clip-path="url(#paad3c11fc3)" d="M 123.443293 126.44874 
L 125.346772 126.44874 
L 125.346772 126.322392 
L 123.443293 126.322392 
z
" style="fill:#1f77b4;opacity:0.5;"/>
   </g>
   <g id="patch_33">
    <path clip-path="url(#paad3c11fc3)" d="M 125.822641 126.44874 
L 127.72612 126.44874 
L 127.72612 126.290805 
L 125.822641 126.290805 
z
" style="fill:#1f77b4;opacity:0.5;"/>
   </g>
   <g id="patch_34">
    <path clip-path="url(#paad3c11fc3)" d="M 128.20199 126.44874 
L 130.105469 126.44874 
L 130.105469 126.290805 
L 128.20199 126.290805 
z
" style="fill:#1f77b4;opacity:0.5;"/>
   </g>
   <g id="patch_35">
    <path clip-path="url(#paad3c11fc3)" d="M 130.581338 126.44874 
L 132.484817 126.44874 
L 132.484817 126.196044 
L 130.581338 126.196044 
z
" style="fill:#1f77b4;opacity:0.5;"/>
   </g>
   <g id="patch_36">
    <path clip-path="url(#paad3c11fc3)" d="M 132.960687 126.44874 
L 134.864166 126.44874 
L 134.864166 126.13287 
L 132.960687 126.13287 
z
" style="fill:#1f77b4;opacity:0.5;"/>
   </g>
   <g id="patch_37">
    <path clip-path="url(#paad3c11fc3)" d="M 135.340035 126.44874 
L 137.243514 126.44874 
L 137.243514 126.117077 
L 135.340035 126.117077 
z
" style="fill:#1f77b4;opacity:0.5;"/>
   </g>
   <g id="patch_38">
    <path clip-path="url(#paad3c11fc3)" d="M 137.719384 126.44874 
L 139.622863 126.44874 
L 139.622863 126.053903 
L 137.719384 126.053903 
z
" style="fill:#1f77b4;opacity:0.5;"/>
   </g>
   <g id="patch_39">
    <path clip-path="url(#paad3c11fc3)" d="M 140.098732 126.44874 
L 142.002211 126.44874 
L 142.002211 125.880175 
L 140.098732 125.880175 
z
" style="fill:#1f77b4;opacity:0.5;"/>
   </g>
   <g id="patch_40">
    <path clip-path="url(#paad3c11fc3)" d="M 142.478081 126.44874 
L 144.38156 126.44874 
L 144.38156 125.785414 
L 142.478081 125.785414 
z
" style="fill:#1f77b4;opacity:0.5;"/>
   </g>
   <g id="patch_41">
    <path clip-path="url(#paad3c11fc3)" d="M 144.857429 126.44874 
L 146.760908 126.44874 
L 146.760908 125.40637 
L 144.857429 125.40637 
z
" style="fill:#1f77b4;opacity:0.5;"/>
   </g>
   <g id="patch_42">
    <path clip-path="url(#paad3c11fc3)" d="M 147.236778 126.44874 
L 149.140257 126.44874 
L 149.140257 124.995739 
L 147.236778 124.995739 
z
" style="fill:#1f77b4;opacity:0.5;"/>
   </g>
   <g id="patch_43">
    <path clip-path="url(#paad3c11fc3)" d="M 149.616126 126.44874 
L 151.519605 126.44874 
L 151.519605 124.837804 
L 149.616126 124.837804 
z
" style="fill:#1f77b4;opacity:0.5;"/>
   </g>
   <g id="patch_44">
    <path clip-path="url(#paad3c11fc3)" d="M 151.995475 126.44874 
L 153.898954 126.44874 
L 153.898954 124.711456 
L 151.995475 124.711456 
z
" style="fill:#1f77b4;opacity:0.5;"/>
   </g>
   <g id="patch_45">
    <path clip-path="url(#paad3c11fc3)" d="M 154.374823 126.44874 
L 156.278302 126.44874 
L 156.278302 124.142891 
L 154.374823 124.142891 
z
" style="fill:#1f77b4;opacity:0.5;"/>
   </g>
   <g id="patch_46">
    <path clip-path="url(#paad3c11fc3)" d="M 156.754172 126.44874 
L 158.657651 126.44874 
L 158.657651 123.605912 
L 156.754172 123.605912 
z
" style="fill:#1f77b4;opacity:0.5;"/>
   </g>
   <g id="patch_47">
    <path clip-path="url(#paad3c11fc3)" d="M 159.13352 126.44874 
L 161.036999 126.44874 
L 161.036999 122.674096 
L 159.13352 122.674096 
z
" style="fill:#1f77b4;opacity:0.5;"/>
   </g>
   <g id="patch_48">
    <path clip-path="url(#paad3c11fc3)" d="M 161.512869 126.44874 
L 163.416348 126.44874 
L 163.416348 121.994976 
L 161.512869 121.994976 
z
" style="fill:#1f77b4;opacity:0.5;"/>
   </g>
   <g id="patch_49">
    <path clip-path="url(#paad3c11fc3)" d="M 163.892217 126.44874 
L 165.795696 126.44874 
L 165.795696 121.189508 
L 163.892217 121.189508 
z
" style="fill:#1f77b4;opacity:0.5;"/>
   </g>
   <g id="patch_50">
    <path clip-path="url(#paad3c11fc3)" d="M 166.271566 126.44874 
L 168.175045 126.44874 
L 168.175045 120.557768 
L 166.271566 120.557768 
z
" style="fill:#1f77b4;opacity:0.5;"/>
   </g>
   <g id="patch_51">
    <path clip-path="url(#paad3c11fc3)" d="M 168.650914 126.44874 
L 170.554393 126.44874 
L 170.554393 120.115551 
L 168.650914 120.115551 
z
" style="fill:#1f77b4;opacity:0.5;"/>
   </g>
   <g id="patch_52">
    <path clip-path="url(#paad3c11fc3)" d="M 171.030263 126.44874 
L 172.933742 126.44874 
L 172.933742 118.915245 
L 171.030263 118.915245 
z
" style="fill:#1f77b4;opacity:0.5;"/>
   </g>
   <g id="patch_53">
    <path clip-path="url(#paad3c11fc3)" d="M 173.409611 126.44874 
L 175.31309 126.44874 
L 175.31309 117.114788 
L 173.409611 117.114788 
z
" style="fill:#1f77b4;opacity:0.5;"/>
   </g>
   <g id="patch_54">
    <path clip-path="url(#paad3c11fc3)" d="M 175.78896 126.44874 
L 177.692439 126.44874 
L 177.692439 115.598612 
L 175.78896 115.598612 
z
" style="fill:#1f77b4;opacity:0.5;"/>
   </g>
   <g id="patch_55">
    <path clip-path="url(#paad3c11fc3)" d="M 178.168308 126.44874 
L 180.071787 126.44874 
L 180.071787 113.924502 
L 178.168308 113.924502 
z
" style="fill:#1f77b4;opacity:0.5;"/>
   </g>
   <g id="patch_56">
    <path clip-path="url(#paad3c11fc3)" d="M 180.547657 126.44874 
L 182.451136 126.44874 
L 182.451136 112.708404 
L 180.547657 112.708404 
z
" style="fill:#1f77b4;opacity:0.5;"/>
   </g>
   <g id="patch_57">
    <path clip-path="url(#paad3c11fc3)" d="M 182.927005 126.44874 
L 184.830484 126.44874 
L 184.830484 112.439914 
L 182.927005 112.439914 
z
" style="fill:#1f77b4;opacity:0.5;"/>
   </g>
   <g id="patch_58">
    <path clip-path="url(#paad3c11fc3)" d="M 185.306354 126.44874 
L 187.209832 126.44874 
L 187.209832 112.250393 
L 185.306354 112.250393 
z
" style="fill:#1f77b4;opacity:0.5;"/>
   </g>
   <g id="patch_59">
    <path clip-path="url(#paad3c11fc3)" d="M 187.685702 126.44874 
L 189.589181 126.44874 
L 189.589181 111.934523 
L 187.685702 111.934523 
z
" style="fill:#1f77b4;opacity:0.5;"/>
   </g>
   <g id="patch_60">
    <path clip-path="url(#paad3c11fc3)" d="M 190.065051 126.44874 
L 191.968529 126.44874 
L 191.968529 110.134065 
L 190.065051 110.134065 
z
" style="fill:#1f77b4;opacity:0.5;"/>
   </g>
   <g id="patch_61">
    <path clip-path="url(#paad3c11fc3)" d="M 192.444399 126.44874 
L 194.347878 126.44874 
L 194.347878 107.449172 
L 192.444399 107.449172 
z
" style="fill:#1f77b4;opacity:0.5;"/>
   </g>
   <g id="patch_62">
    <path clip-path="url(#paad3c11fc3)" d="M 194.823748 126.44874 
L 196.727226 126.44874 
L 196.727226 105.396018 
L 194.823748 105.396018 
z
" style="fill:#1f77b4;opacity:0.5;"/>
   </g>
   <g id="patch_63">
    <path clip-path="url(#paad3c11fc3)" d="M 197.203096 126.44874 
L 199.106575 126.44874 
L 199.106575 104.337854 
L 197.203096 104.337854 
z
" style="fill:#1f77b4;opacity:0.5;"/>
   </g>
   <g id="patch_64">
    <path clip-path="url(#paad3c11fc3)" d="M 199.582445 126.44874 
L 201.485923 126.44874 
L 201.485923 102.584777 
L 199.582445 102.584777 
z
" style="fill:#1f77b4;opacity:0.5;"/>
   </g>
   <g id="matplotlib.axis_1">
    <g id="xtick_1">
     <g id="line2d_1">
      <defs>
       <path d="M 0 0 
L 0 3.5 
" id="m0ed47ecb0c" style="stroke:#000000;stroke-width:0.8;"/>
      </defs>
      <g>
       <use style="stroke:#000000;stroke-width:0.8;" x="200.534184" xlink:href="#m0ed47ecb0c" y="126.44874"/>
      </g>
     </g>
     <g id="text_1">
      <!-- 19 Apr -->
      <defs>
       <path d="M 12.40625 8.296875 
L 28.515625 8.296875 
L 28.515625 63.921875 
L 10.984375 60.40625 
L 10.984375 69.390625 
L 28.421875 72.90625 
L 38.28125 72.90625 
L 38.28125 8.296875 
L 54.390625 8.296875 
L 54.390625 0 
L 12.40625 0 
z
" id="DejaVuSans-49"/>
       <path d="M 10.984375 1.515625 
L 10.984375 10.5 
Q 14.703125 8.734375 18.5 7.8125 
Q 22.3125 6.890625 25.984375 6.890625 
Q 35.75 6.890625 40.890625 13.453125 
Q 46.046875 20.015625 46.78125 33.40625 
Q 43.953125 29.203125 39.59375 26.953125 
Q 35.25 24.703125 29.984375 24.703125 
Q 19.046875 24.703125 12.671875 31.3125 
Q 6.296875 37.9375 6.296875 49.421875 
Q 6.296875 60.640625 12.9375 67.421875 
Q 19.578125 74.21875 30.609375 74.21875 
Q 43.265625 74.21875 49.921875 64.515625 
Q 56.59375 54.828125 56.59375 36.375 
Q 56.59375 19.140625 48.40625 8.859375 
Q 40.234375 -1.421875 26.421875 -1.421875 
Q 22.703125 -1.421875 18.890625 -0.6875 
Q 15.09375 0.046875 10.984375 1.515625 
z
M 30.609375 32.421875 
Q 37.25 32.421875 41.125 36.953125 
Q 45.015625 41.5 45.015625 49.421875 
Q 45.015625 57.28125 41.125 61.84375 
Q 37.25 66.40625 30.609375 66.40625 
Q 23.96875 66.40625 20.09375 61.84375 
Q 16.21875 57.28125 16.21875 49.421875 
Q 16.21875 41.5 20.09375 36.953125 
Q 23.96875 32.421875 30.609375 32.421875 
z
" id="DejaVuSans-57"/>
       <path id="DejaVuSans-32"/>
       <path d="M 34.1875 63.1875 
L 20.796875 26.90625 
L 47.609375 26.90625 
z
M 28.609375 72.90625 
L 39.796875 72.90625 
L 67.578125 0 
L 57.328125 0 
L 50.6875 18.703125 
L 17.828125 18.703125 
L 11.1875 0 
L 0.78125 0 
z
" id="DejaVuSans-65"/>
       <path d="M 18.109375 8.203125 
L 18.109375 -20.796875 
L 9.078125 -20.796875 
L 9.078125 54.6875 
L 18.109375 54.6875 
L 18.109375 46.390625 
Q 20.953125 51.265625 25.265625 53.625 
Q 29.59375 56 35.59375 56 
Q 45.5625 56 51.78125 48.09375 
Q 58.015625 40.1875 58.015625 27.296875 
Q 58.015625 14.40625 51.78125 6.484375 
Q 45.5625 -1.421875 35.59375 -1.421875 
Q 29.59375 -1.421875 25.265625 0.953125 
Q 20.953125 3.328125 18.109375 8.203125 
z
M 48.6875 27.296875 
Q 48.6875 37.203125 44.609375 42.84375 
Q 40.53125 48.484375 33.40625 48.484375 
Q 26.265625 48.484375 22.1875 42.84375 
Q 18.109375 37.203125 18.109375 27.296875 
Q 18.109375 17.390625 22.1875 11.75 
Q 26.265625 6.109375 33.40625 6.109375 
Q 40.53125 6.109375 44.609375 11.75 
Q 48.6875 17.390625 48.6875 27.296875 
z
" id="DejaVuSans-112"/>
       <path d="M 41.109375 46.296875 
Q 39.59375 47.171875 37.8125 47.578125 
Q 36.03125 48 33.890625 48 
Q 26.265625 48 22.1875 43.046875 
Q 18.109375 38.09375 18.109375 28.8125 
L 18.109375 0 
L 9.078125 0 
L 9.078125 54.6875 
L 18.109375 54.6875 
L 18.109375 46.1875 
Q 20.953125 51.171875 25.484375 53.578125 
Q 30.03125 56 36.53125 56 
Q 37.453125 56 38.578125 55.875 
Q 39.703125 55.765625 41.0625 55.515625 
z
" id="DejaVuSans-114"/>
      </defs>
      <g transform="translate(202.741684 160.01124)rotate(-90)scale(0.08 -0.08)">
       <use xlink:href="#DejaVuSans-49"/>
       <use x="63.623047" xlink:href="#DejaVuSans-57"/>
       <use x="127.246094" xlink:href="#DejaVuSans-32"/>
       <use x="159.033203" xlink:href="#DejaVuSans-65"/>
       <use x="227.441406" xlink:href="#DejaVuSans-112"/>
       <use x="290.917969" xlink:href="#DejaVuSans-114"/>
      </g>
     </g>
    </g>
    <g id="xtick_2">
     <g id="line2d_2">
      <g>
       <use style="stroke:#000000;stroke-width:0.8;" x="183.878745" xlink:href="#m0ed47ecb0c" y="126.44874"/>
      </g>
     </g>
     <g id="text_2">
      <!-- 12 Apr -->
      <defs>
       <path d="M 19.1875 8.296875 
L 53.609375 8.296875 
L 53.609375 0 
L 7.328125 0 
L 7.328125 8.296875 
Q 12.9375 14.109375 22.625 23.890625 
Q 32.328125 33.6875 34.8125 36.53125 
Q 39.546875 41.84375 41.421875 45.53125 
Q 43.3125 49.21875 43.3125 52.78125 
Q 43.3125 58.59375 39.234375 62.25 
Q 35.15625 65.921875 28.609375 65.921875 
Q 23.96875 65.921875 18.8125 64.3125 
Q 13.671875 62.703125 7.8125 59.421875 
L 7.8125 69.390625 
Q 13.765625 71.78125 18.9375 73 
Q 24.125 74.21875 28.421875 74.21875 
Q 39.75 74.21875 46.484375 68.546875 
Q 53.21875 62.890625 53.21875 53.421875 
Q 53.21875 48.921875 51.53125 44.890625 
Q 49.859375 40.875 45.40625 35.40625 
Q 44.1875 33.984375 37.640625 27.21875 
Q 31.109375 20.453125 19.1875 8.296875 
z
" id="DejaVuSans-50"/>
      </defs>
      <g transform="translate(186.086245 160.01124)rotate(-90)scale(0.08 -0.08)">
       <use xlink:href="#DejaVuSans-49"/>
       <use x="63.623047" xlink:href="#DejaVuSans-50"/>
       <use x="127.246094" xlink:href="#DejaVuSans-32"/>
       <use x="159.033203" xlink:href="#DejaVuSans-65"/>
       <use x="227.441406" xlink:href="#DejaVuSans-112"/>
       <use x="290.917969" xlink:href="#DejaVuSans-114"/>
      </g>
     </g>
    </g>
    <g id="xtick_3">
     <g id="line2d_3">
      <g>
       <use style="stroke:#000000;stroke-width:0.8;" x="167.223305" xlink:href="#m0ed47ecb0c" y="126.44874"/>
      </g>
     </g>
     <g id="text_3">
      <!-- 5 Apr -->
      <defs>
       <path d="M 10.796875 72.90625 
L 49.515625 72.90625 
L 49.515625 64.59375 
L 19.828125 64.59375 
L 19.828125 46.734375 
Q 21.96875 47.46875 24.109375 47.828125 
Q 26.265625 48.1875 28.421875 48.1875 
Q 40.625 48.1875 47.75 41.5 
Q 54.890625 34.8125 54.890625 23.390625 
Q 54.890625 11.625 47.5625 5.09375 
Q 40.234375 -1.421875 26.90625 -1.421875 
Q 22.3125 -1.421875 17.546875 -0.640625 
Q 12.796875 0.140625 7.71875 1.703125 
L 7.71875 11.625 
Q 12.109375 9.234375 16.796875 8.0625 
Q 21.484375 6.890625 26.703125 6.890625 
Q 35.15625 6.890625 40.078125 11.328125 
Q 45.015625 15.765625 45.015625 23.390625 
Q 45.015625 31 40.078125 35.4375 
Q 35.15625 39.890625 26.703125 39.890625 
Q 22.75 39.890625 18.8125 39.015625 
Q 14.890625 38.140625 10.796875 36.28125 
z
" id="DejaVuSans-53"/>
      </defs>
      <g transform="translate(169.430805 154.92124)rotate(-90)scale(0.08 -0.08)">
       <use xlink:href="#DejaVuSans-53"/>
       <use x="63.623047" xlink:href="#DejaVuSans-32"/>
       <use x="95.410156" xlink:href="#DejaVuSans-65"/>
       <use x="163.818359" xlink:href="#DejaVuSans-112"/>
       <use x="227.294922" xlink:href="#DejaVuSans-114"/>
      </g>
     </g>
    </g>
    <g id="xtick_4">
     <g id="line2d_4">
      <g>
       <use style="stroke:#000000;stroke-width:0.8;" x="150.567866" xlink:href="#m0ed47ecb0c" y="126.44874"/>
      </g>
     </g>
     <g id="text_4">
      <!-- 29 Mar -->
      <defs>
       <path d="M 9.8125 72.90625 
L 24.515625 72.90625 
L 43.109375 23.296875 
L 61.8125 72.90625 
L 76.515625 72.90625 
L 76.515625 0 
L 66.890625 0 
L 66.890625 64.015625 
L 48.09375 14.015625 
L 38.1875 14.015625 
L 19.390625 64.015625 
L 19.390625 0 
L 9.8125 0 
z
" id="DejaVuSans-77"/>
       <path d="M 34.28125 27.484375 
Q 23.390625 27.484375 19.1875 25 
Q 14.984375 22.515625 14.984375 16.5 
Q 14.984375 11.71875 18.140625 8.90625 
Q 21.296875 6.109375 26.703125 6.109375 
Q 34.1875 6.109375 38.703125 11.40625 
Q 43.21875 16.703125 43.21875 25.484375 
L 43.21875 27.484375 
z
M 52.203125 31.203125 
L 52.203125 0 
L 43.21875 0 
L 43.21875 8.296875 
Q 40.140625 3.328125 35.546875 0.953125 
Q 30.953125 -1.421875 24.3125 -1.421875 
Q 15.921875 -1.421875 10.953125 3.296875 
Q 6 8.015625 6 15.921875 
Q 6 25.140625 12.171875 29.828125 
Q 18.359375 34.515625 30.609375 34.515625 
L 43.21875 34.515625 
L 43.21875 35.40625 
Q 43.21875 41.609375 39.140625 45 
Q 35.0625 48.390625 27.6875 48.390625 
Q 23 48.390625 18.546875 47.265625 
Q 14.109375 46.140625 10.015625 43.890625 
L 10.015625 52.203125 
Q 14.9375 54.109375 19.578125 55.046875 
Q 24.21875 56 28.609375 56 
Q 40.484375 56 46.34375 49.84375 
Q 52.203125 43.703125 52.203125 31.203125 
z
" id="DejaVuSans-97"/>
      </defs>
      <g transform="translate(152.775366 161.26499)rotate(-90)scale(0.08 -0.08)">
       <use xlink:href="#DejaVuSans-50"/>
       <use x="63.623047" xlink:href="#DejaVuSans-57"/>
       <use x="127.246094" xlink:href="#DejaVuSans-32"/>
       <use x="159.033203" xlink:href="#DejaVuSans-77"/>
       <use x="245.3125" xlink:href="#DejaVuSans-97"/>
       <use x="306.591797" xlink:href="#DejaVuSans-114"/>
      </g>
     </g>
    </g>
    <g id="xtick_5">
     <g id="line2d_5">
      <g>
       <use style="stroke:#000000;stroke-width:0.8;" x="133.912426" xlink:href="#m0ed47ecb0c" y="126.44874"/>
      </g>
     </g>
     <g id="text_5">
      <!-- 22 Mar -->
      <g transform="translate(136.119926 161.26499)rotate(-90)scale(0.08 -0.08)">
       <use xlink:href="#DejaVuSans-50"/>
       <use x="63.623047" xlink:href="#DejaVuSans-50"/>
       <use x="127.246094" xlink:href="#DejaVuSans-32"/>
       <use x="159.033203" xlink:href="#DejaVuSans-77"/>
       <use x="245.3125" xlink:href="#DejaVuSans-97"/>
       <use x="306.591797" xlink:href="#DejaVuSans-114"/>
      </g>
     </g>
    </g>
    <g id="xtick_6">
     <g id="line2d_6">
      <g>
       <use style="stroke:#000000;stroke-width:0.8;" x="117.256987" xlink:href="#m0ed47ecb0c" y="126.44874"/>
      </g>
     </g>
     <g id="text_6">
      <!-- 15 Mar -->
      <g transform="translate(119.464487 161.26499)rotate(-90)scale(0.08 -0.08)">
       <use xlink:href="#DejaVuSans-49"/>
       <use x="63.623047" xlink:href="#DejaVuSans-53"/>
       <use x="127.246094" xlink:href="#DejaVuSans-32"/>
       <use x="159.033203" xlink:href="#DejaVuSans-77"/>
       <use x="245.3125" xlink:href="#DejaVuSans-97"/>
       <use x="306.591797" xlink:href="#DejaVuSans-114"/>
      </g>
     </g>
    </g>
    <g id="xtick_7">
     <g id="line2d_7">
      <g>
       <use style="stroke:#000000;stroke-width:0.8;" x="100.601548" xlink:href="#m0ed47ecb0c" y="126.44874"/>
      </g>
     </g>
     <g id="text_7">
      <!-- 8 Mar -->
      <defs>
       <path d="M 31.78125 34.625 
Q 24.75 34.625 20.71875 30.859375 
Q 16.703125 27.09375 16.703125 20.515625 
Q 16.703125 13.921875 20.71875 10.15625 
Q 24.75 6.390625 31.78125 6.390625 
Q 38.8125 6.390625 42.859375 10.171875 
Q 46.921875 13.96875 46.921875 20.515625 
Q 46.921875 27.09375 42.890625 30.859375 
Q 38.875 34.625 31.78125 34.625 
z
M 21.921875 38.8125 
Q 15.578125 40.375 12.03125 44.71875 
Q 8.5 49.078125 8.5 55.328125 
Q 8.5 64.0625 14.71875 69.140625 
Q 20.953125 74.21875 31.78125 74.21875 
Q 42.671875 74.21875 48.875 69.140625 
Q 55.078125 64.0625 55.078125 55.328125 
Q 55.078125 49.078125 51.53125 44.71875 
Q 48 40.375 41.703125 38.8125 
Q 48.828125 37.15625 52.796875 32.3125 
Q 56.78125 27.484375 56.78125 20.515625 
Q 56.78125 9.90625 50.3125 4.234375 
Q 43.84375 -1.421875 31.78125 -1.421875 
Q 19.734375 -1.421875 13.25 4.234375 
Q 6.78125 9.90625 6.78125 20.515625 
Q 6.78125 27.484375 10.78125 32.3125 
Q 14.796875 37.15625 21.921875 38.8125 
z
M 18.3125 54.390625 
Q 18.3125 48.734375 21.84375 45.5625 
Q 25.390625 42.390625 31.78125 42.390625 
Q 38.140625 42.390625 41.71875 45.5625 
Q 45.3125 48.734375 45.3125 54.390625 
Q 45.3125 60.0625 41.71875 63.234375 
Q 38.140625 66.40625 31.78125 66.40625 
Q 25.390625 66.40625 21.84375 63.234375 
Q 18.3125 60.0625 18.3125 54.390625 
z
" id="DejaVuSans-56"/>
      </defs>
      <g transform="translate(102.809048 156.17499)rotate(-90)scale(0.08 -0.08)">
       <use xlink:href="#DejaVuSans-56"/>
       <use x="63.623047" xlink:href="#DejaVuSans-32"/>
       <use x="95.410156" xlink:href="#DejaVuSans-77"/>
       <use x="181.689453" xlink:href="#DejaVuSans-97"/>
       <use x="242.96875" xlink:href="#DejaVuSans-114"/>
      </g>
     </g>
    </g>
    <g id="xtick_8">
     <g id="line2d_8">
      <g>
       <use style="stroke:#000000;stroke-width:0.8;" x="83.946108" xlink:href="#m0ed47ecb0c" y="126.44874"/>
      </g>
     </g>
     <g id="text_8">
      <!-- 1 Mar -->
      <g transform="translate(86.153608 156.17499)rotate(-90)scale(0.08 -0.08)">
       <use xlink:href="#DejaVuSans-49"/>
       <use x="63.623047" xlink:href="#DejaVuSans-32"/>
       <use x="95.410156" xlink:href="#DejaVuSans-77"/>
       <use x="181.689453" xlink:href="#DejaVuSans-97"/>
       <use x="242.96875" xlink:href="#DejaVuSans-114"/>
      </g>
     </g>
    </g>
    <g id="xtick_9">
     <g id="line2d_9">
      <g>
       <use style="stroke:#000000;stroke-width:0.8;" x="67.290669" xlink:href="#m0ed47ecb0c" y="126.44874"/>
      </g>
     </g>
     <g id="text_9">
      <!-- 23 Feb -->
      <defs>
       <path d="M 40.578125 39.3125 
Q 47.65625 37.796875 51.625 33 
Q 55.609375 28.21875 55.609375 21.1875 
Q 55.609375 10.40625 48.1875 4.484375 
Q 40.765625 -1.421875 27.09375 -1.421875 
Q 22.515625 -1.421875 17.65625 -0.515625 
Q 12.796875 0.390625 7.625 2.203125 
L 7.625 11.71875 
Q 11.71875 9.328125 16.59375 8.109375 
Q 21.484375 6.890625 26.8125 6.890625 
Q 36.078125 6.890625 40.9375 10.546875 
Q 45.796875 14.203125 45.796875 21.1875 
Q 45.796875 27.640625 41.28125 31.265625 
Q 36.765625 34.90625 28.71875 34.90625 
L 20.21875 34.90625 
L 20.21875 43.015625 
L 29.109375 43.015625 
Q 36.375 43.015625 40.234375 45.921875 
Q 44.09375 48.828125 44.09375 54.296875 
Q 44.09375 59.90625 40.109375 62.90625 
Q 36.140625 65.921875 28.71875 65.921875 
Q 24.65625 65.921875 20.015625 65.03125 
Q 15.375 64.15625 9.8125 62.3125 
L 9.8125 71.09375 
Q 15.4375 72.65625 20.34375 73.4375 
Q 25.25 74.21875 29.59375 74.21875 
Q 40.828125 74.21875 47.359375 69.109375 
Q 53.90625 64.015625 53.90625 55.328125 
Q 53.90625 49.265625 50.4375 45.09375 
Q 46.96875 40.921875 40.578125 39.3125 
z
" id="DejaVuSans-51"/>
       <path d="M 9.8125 72.90625 
L 51.703125 72.90625 
L 51.703125 64.59375 
L 19.671875 64.59375 
L 19.671875 43.109375 
L 48.578125 43.109375 
L 48.578125 34.8125 
L 19.671875 34.8125 
L 19.671875 0 
L 9.8125 0 
z
" id="DejaVuSans-70"/>
       <path d="M 56.203125 29.59375 
L 56.203125 25.203125 
L 14.890625 25.203125 
Q 15.484375 15.921875 20.484375 11.0625 
Q 25.484375 6.203125 34.421875 6.203125 
Q 39.59375 6.203125 44.453125 7.46875 
Q 49.3125 8.734375 54.109375 11.28125 
L 54.109375 2.78125 
Q 49.265625 0.734375 44.1875 -0.34375 
Q 39.109375 -1.421875 33.890625 -1.421875 
Q 20.796875 -1.421875 13.15625 6.1875 
Q 5.515625 13.8125 5.515625 26.8125 
Q 5.515625 40.234375 12.765625 48.109375 
Q 20.015625 56 32.328125 56 
Q 43.359375 56 49.78125 48.890625 
Q 56.203125 41.796875 56.203125 29.59375 
z
M 47.21875 32.234375 
Q 47.125 39.59375 43.09375 43.984375 
Q 39.0625 48.390625 32.421875 48.390625 
Q 24.90625 48.390625 20.390625 44.140625 
Q 15.875 39.890625 15.1875 32.171875 
z
" id="DejaVuSans-101"/>
       <path d="M 48.6875 27.296875 
Q 48.6875 37.203125 44.609375 42.84375 
Q 40.53125 48.484375 33.40625 48.484375 
Q 26.265625 48.484375 22.1875 42.84375 
Q 18.109375 37.203125 18.109375 27.296875 
Q 18.109375 17.390625 22.1875 11.75 
Q 26.265625 6.109375 33.40625 6.109375 
Q 40.53125 6.109375 44.609375 11.75 
Q 48.6875 17.390625 48.6875 27.296875 
z
M 18.109375 46.390625 
Q 20.953125 51.265625 25.265625 53.625 
Q 29.59375 56 35.59375 56 
Q 45.5625 56 51.78125 48.09375 
Q 58.015625 40.1875 58.015625 27.296875 
Q 58.015625 14.40625 51.78125 6.484375 
Q 45.5625 -1.421875 35.59375 -1.421875 
Q 29.59375 -1.421875 25.265625 0.953125 
Q 20.953125 3.328125 18.109375 8.203125 
L 18.109375 0 
L 9.078125 0 
L 9.078125 75.984375 
L 18.109375 75.984375 
z
" id="DejaVuSans-98"/>
      </defs>
      <g transform="translate(69.498169 160.33374)rotate(-90)scale(0.08 -0.08)">
       <use xlink:href="#DejaVuSans-50"/>
       <use x="63.623047" xlink:href="#DejaVuSans-51"/>
       <use x="127.246094" xlink:href="#DejaVuSans-32"/>
       <use x="159.033203" xlink:href="#DejaVuSans-70"/>
       <use x="211.052734" xlink:href="#DejaVuSans-101"/>
       <use x="272.576172" xlink:href="#DejaVuSans-98"/>
      </g>
     </g>
    </g>
   </g>
   <g id="matplotlib.axis_2">
    <g id="ytick_1">
     <g id="line2d_10">
      <defs>
       <path d="M 0 0 
L -3.5 0 
" id="m9238c1ef21" style="stroke:#000000;stroke-width:0.8;"/>
      </defs>
      <g>
       <use style="stroke:#000000;stroke-width:0.8;" x="47.09" xlink:href="#m9238c1ef21" y="126.44874"/>
      </g>
     </g>
     <g id="text_10">
      <!-- 0 -->
      <defs>
       <path d="M 31.78125 66.40625 
Q 24.171875 66.40625 20.328125 58.90625 
Q 16.5 51.421875 16.5 36.375 
Q 16.5 21.390625 20.328125 13.890625 
Q 24.171875 6.390625 31.78125 6.390625 
Q 39.453125 6.390625 43.28125 13.890625 
Q 47.125 21.390625 47.125 36.375 
Q 47.125 51.421875 43.28125 58.90625 
Q 39.453125 66.40625 31.78125 66.40625 
z
M 31.78125 74.21875 
Q 44.046875 74.21875 50.515625 64.515625 
Q 56.984375 54.828125 56.984375 36.375 
Q 56.984375 17.96875 50.515625 8.265625 
Q 44.046875 -1.421875 31.78125 -1.421875 
Q 19.53125 -1.421875 13.0625 8.265625 
Q 6.59375 17.96875 6.59375 36.375 
Q 6.59375 54.828125 13.0625 64.515625 
Q 19.53125 74.21875 31.78125 74.21875 
z
" id="DejaVuSans-48"/>
      </defs>
      <g transform="translate(35 129.488115)scale(0.08 -0.08)">
       <use xlink:href="#DejaVuSans-48"/>
      </g>
     </g>
    </g>
    <g id="ytick_2">
     <g id="line2d_11">
      <g>
       <use style="stroke:#000000;stroke-width:0.8;" x="47.09" xlink:href="#m9238c1ef21" y="94.86176"/>
      </g>
     </g>
     <g id="text_11">
      <!-- 2000 -->
      <g transform="translate(19.73 97.901135)scale(0.08 -0.08)">
       <use xlink:href="#DejaVuSans-50"/>
       <use x="63.623047" xlink:href="#DejaVuSans-48"/>
       <use x="127.246094" xlink:href="#DejaVuSans-48"/>
       <use x="190.869141" xlink:href="#DejaVuSans-48"/>
      </g>
     </g>
    </g>
    <g id="ytick_3">
     <g id="line2d_12">
      <g>
       <use style="stroke:#000000;stroke-width:0.8;" x="47.09" xlink:href="#m9238c1ef21" y="63.27478"/>
      </g>
     </g>
     <g id="text_12">
      <!-- 4000 -->
      <defs>
       <path d="M 37.796875 64.3125 
L 12.890625 25.390625 
L 37.796875 25.390625 
z
M 35.203125 72.90625 
L 47.609375 72.90625 
L 47.609375 25.390625 
L 58.015625 25.390625 
L 58.015625 17.1875 
L 47.609375 17.1875 
L 47.609375 0 
L 37.796875 0 
L 37.796875 17.1875 
L 4.890625 17.1875 
L 4.890625 26.703125 
z
" id="DejaVuSans-52"/>
      </defs>
      <g transform="translate(19.73 66.314155)scale(0.08 -0.08)">
       <use xlink:href="#DejaVuSans-52"/>
       <use x="63.623047" xlink:href="#DejaVuSans-48"/>
       <use x="127.246094" xlink:href="#DejaVuSans-48"/>
       <use x="190.869141" xlink:href="#DejaVuSans-48"/>
      </g>
     </g>
    </g>
    <g id="ytick_4">
     <g id="line2d_13">
      <g>
       <use style="stroke:#000000;stroke-width:0.8;" x="47.09" xlink:href="#m9238c1ef21" y="31.687799"/>
      </g>
     </g>
     <g id="text_13">
      <!-- 6000 -->
      <defs>
       <path d="M 33.015625 40.375 
Q 26.375 40.375 22.484375 35.828125 
Q 18.609375 31.296875 18.609375 23.390625 
Q 18.609375 15.53125 22.484375 10.953125 
Q 26.375 6.390625 33.015625 6.390625 
Q 39.65625 6.390625 43.53125 10.953125 
Q 47.40625 15.53125 47.40625 23.390625 
Q 47.40625 31.296875 43.53125 35.828125 
Q 39.65625 40.375 33.015625 40.375 
z
M 52.59375 71.296875 
L 52.59375 62.3125 
Q 48.875 64.0625 45.09375 64.984375 
Q 41.3125 65.921875 37.59375 65.921875 
Q 27.828125 65.921875 22.671875 59.328125 
Q 17.53125 52.734375 16.796875 39.40625 
Q 19.671875 43.65625 24.015625 45.921875 
Q 28.375 48.1875 33.59375 48.1875 
Q 44.578125 48.1875 50.953125 41.515625 
Q 57.328125 34.859375 57.328125 23.390625 
Q 57.328125 12.15625 50.6875 5.359375 
Q 44.046875 -1.421875 33.015625 -1.421875 
Q 20.359375 -1.421875 13.671875 8.265625 
Q 6.984375 17.96875 6.984375 36.375 
Q 6.984375 53.65625 15.1875 63.9375 
Q 23.390625 74.21875 37.203125 74.21875 
Q 40.921875 74.21875 44.703125 73.484375 
Q 48.484375 72.75 52.59375 71.296875 
z
" id="DejaVuSans-54"/>
      </defs>
      <g transform="translate(19.73 34.727174)scale(0.08 -0.08)">
       <use xlink:href="#DejaVuSans-54"/>
       <use x="63.623047" xlink:href="#DejaVuSans-48"/>
       <use x="127.246094" xlink:href="#DejaVuSans-48"/>
       <use x="190.869141" xlink:href="#DejaVuSans-48"/>
      </g>
     </g>
    </g>
    <g id="text_14">
     <!-- Cumulative deaths -->
     <defs>
      <path d="M 64.40625 67.28125 
L 64.40625 56.890625 
Q 59.421875 61.53125 53.78125 63.8125 
Q 48.140625 66.109375 41.796875 66.109375 
Q 29.296875 66.109375 22.65625 58.46875 
Q 16.015625 50.828125 16.015625 36.375 
Q 16.015625 21.96875 22.65625 14.328125 
Q 29.296875 6.6875 41.796875 6.6875 
Q 48.140625 6.6875 53.78125 8.984375 
Q 59.421875 11.28125 64.40625 15.921875 
L 64.40625 5.609375 
Q 59.234375 2.09375 53.4375 0.328125 
Q 47.65625 -1.421875 41.21875 -1.421875 
Q 24.65625 -1.421875 15.125 8.703125 
Q 5.609375 18.84375 5.609375 36.375 
Q 5.609375 53.953125 15.125 64.078125 
Q 24.65625 74.21875 41.21875 74.21875 
Q 47.75 74.21875 53.53125 72.484375 
Q 59.328125 70.75 64.40625 67.28125 
z
" id="DejaVuSans-67"/>
      <path d="M 8.5 21.578125 
L 8.5 54.6875 
L 17.484375 54.6875 
L 17.484375 21.921875 
Q 17.484375 14.15625 20.5 10.265625 
Q 23.53125 6.390625 29.59375 6.390625 
Q 36.859375 6.390625 41.078125 11.03125 
Q 45.3125 15.671875 45.3125 23.6875 
L 45.3125 54.6875 
L 54.296875 54.6875 
L 54.296875 0 
L 45.3125 0 
L 45.3125 8.40625 
Q 42.046875 3.421875 37.71875 1 
Q 33.40625 -1.421875 27.6875 -1.421875 
Q 18.265625 -1.421875 13.375 4.4375 
Q 8.5 10.296875 8.5 21.578125 
z
M 31.109375 56 
z
" id="DejaVuSans-117"/>
      <path d="M 52 44.1875 
Q 55.375 50.25 60.0625 53.125 
Q 64.75 56 71.09375 56 
Q 79.640625 56 84.28125 50.015625 
Q 88.921875 44.046875 88.921875 33.015625 
L 88.921875 0 
L 79.890625 0 
L 79.890625 32.71875 
Q 79.890625 40.578125 77.09375 44.375 
Q 74.3125 48.1875 68.609375 48.1875 
Q 61.625 48.1875 57.5625 43.546875 
Q 53.515625 38.921875 53.515625 30.90625 
L 53.515625 0 
L 44.484375 0 
L 44.484375 32.71875 
Q 44.484375 40.625 41.703125 44.40625 
Q 38.921875 48.1875 33.109375 48.1875 
Q 26.21875 48.1875 22.15625 43.53125 
Q 18.109375 38.875 18.109375 30.90625 
L 18.109375 0 
L 9.078125 0 
L 9.078125 54.6875 
L 18.109375 54.6875 
L 18.109375 46.1875 
Q 21.1875 51.21875 25.484375 53.609375 
Q 29.78125 56 35.6875 56 
Q 41.65625 56 45.828125 52.96875 
Q 50 49.953125 52 44.1875 
z
" id="DejaVuSans-109"/>
      <path d="M 9.421875 75.984375 
L 18.40625 75.984375 
L 18.40625 0 
L 9.421875 0 
z
" id="DejaVuSans-108"/>
      <path d="M 18.3125 70.21875 
L 18.3125 54.6875 
L 36.8125 54.6875 
L 36.8125 47.703125 
L 18.3125 47.703125 
L 18.3125 18.015625 
Q 18.3125 11.328125 20.140625 9.421875 
Q 21.96875 7.515625 27.59375 7.515625 
L 36.8125 7.515625 
L 36.8125 0 
L 27.59375 0 
Q 17.1875 0 13.234375 3.875 
Q 9.28125 7.765625 9.28125 18.015625 
L 9.28125 47.703125 
L 2.6875 47.703125 
L 2.6875 54.6875 
L 9.28125 54.6875 
L 9.28125 70.21875 
z
" id="DejaVuSans-116"/>
      <path d="M 9.421875 54.6875 
L 18.40625 54.6875 
L 18.40625 0 
L 9.421875 0 
z
M 9.421875 75.984375 
L 18.40625 75.984375 
L 18.40625 64.59375 
L 9.421875 64.59375 
z
" id="DejaVuSans-105"/>
      <path d="M 2.984375 54.6875 
L 12.5 54.6875 
L 29.59375 8.796875 
L 46.6875 54.6875 
L 56.203125 54.6875 
L 35.6875 0 
L 23.484375 0 
z
" id="DejaVuSans-118"/>
      <path d="M 45.40625 46.390625 
L 45.40625 75.984375 
L 54.390625 75.984375 
L 54.390625 0 
L 45.40625 0 
L 45.40625 8.203125 
Q 42.578125 3.328125 38.25 0.953125 
Q 33.9375 -1.421875 27.875 -1.421875 
Q 17.96875 -1.421875 11.734375 6.484375 
Q 5.515625 14.40625 5.515625 27.296875 
Q 5.515625 40.1875 11.734375 48.09375 
Q 17.96875 56 27.875 56 
Q 33.9375 56 38.25 53.625 
Q 42.578125 51.265625 45.40625 46.390625 
z
M 14.796875 27.296875 
Q 14.796875 17.390625 18.875 11.75 
Q 22.953125 6.109375 30.078125 6.109375 
Q 37.203125 6.109375 41.296875 11.75 
Q 45.40625 17.390625 45.40625 27.296875 
Q 45.40625 37.203125 41.296875 42.84375 
Q 37.203125 48.484375 30.078125 48.484375 
Q 22.953125 48.484375 18.875 42.84375 
Q 14.796875 37.203125 14.796875 27.296875 
z
" id="DejaVuSans-100"/>
      <path d="M 54.890625 33.015625 
L 54.890625 0 
L 45.90625 0 
L 45.90625 32.71875 
Q 45.90625 40.484375 42.875 44.328125 
Q 39.84375 48.1875 33.796875 48.1875 
Q 26.515625 48.1875 22.3125 43.546875 
Q 18.109375 38.921875 18.109375 30.90625 
L 18.109375 0 
L 9.078125 0 
L 9.078125 75.984375 
L 18.109375 75.984375 
L 18.109375 46.1875 
Q 21.34375 51.125 25.703125 53.5625 
Q 30.078125 56 35.796875 56 
Q 45.21875 56 50.046875 50.171875 
Q 54.890625 44.34375 54.890625 33.015625 
z
" id="DejaVuSans-104"/>
      <path d="M 44.28125 53.078125 
L 44.28125 44.578125 
Q 40.484375 46.53125 36.375 47.5 
Q 32.28125 48.484375 27.875 48.484375 
Q 21.1875 48.484375 17.84375 46.4375 
Q 14.5 44.390625 14.5 40.28125 
Q 14.5 37.15625 16.890625 35.375 
Q 19.28125 33.59375 26.515625 31.984375 
L 29.59375 31.296875 
Q 39.15625 29.25 43.1875 25.515625 
Q 47.21875 21.78125 47.21875 15.09375 
Q 47.21875 7.46875 41.1875 3.015625 
Q 35.15625 -1.421875 24.609375 -1.421875 
Q 20.21875 -1.421875 15.453125 -0.5625 
Q 10.6875 0.296875 5.421875 2 
L 5.421875 11.28125 
Q 10.40625 8.6875 15.234375 7.390625 
Q 20.0625 6.109375 24.8125 6.109375 
Q 31.15625 6.109375 34.5625 8.28125 
Q 37.984375 10.453125 37.984375 14.40625 
Q 37.984375 18.0625 35.515625 20.015625 
Q 33.0625 21.96875 24.703125 23.78125 
L 21.578125 24.515625 
Q 13.234375 26.265625 9.515625 29.90625 
Q 5.8125 33.546875 5.8125 39.890625 
Q 5.8125 47.609375 11.28125 51.796875 
Q 16.75 56 26.8125 56 
Q 31.78125 56 36.171875 55.265625 
Q 40.578125 54.546875 44.28125 53.078125 
z
" id="DejaVuSans-115"/>
     </defs>
     <g transform="translate(14.06625 106.72437)rotate(-90)scale(0.08 -0.08)">
      <use xlink:href="#DejaVuSans-67"/>
      <use x="69.824219" xlink:href="#DejaVuSans-117"/>
      <use x="133.203125" xlink:href="#DejaVuSans-109"/>
      <use x="230.615234" xlink:href="#DejaVuSans-117"/>
      <use x="293.994141" xlink:href="#DejaVuSans-108"/>
      <use x="321.777344" xlink:href="#DejaVuSans-97"/>
      <use x="383.056641" xlink:href="#DejaVuSans-116"/>
      <use x="422.265625" xlink:href="#DejaVuSans-105"/>
      <use x="450.048828" xlink:href="#DejaVuSans-118"/>
      <use x="509.228516" xlink:href="#DejaVuSans-101"/>
      <use x="570.751953" xlink:href="#DejaVuSans-32"/>
      <use x="602.539062" xlink:href="#DejaVuSans-100"/>
      <use x="666.015625" xlink:href="#DejaVuSans-101"/>
      <use x="727.539062" xlink:href="#DejaVuSans-97"/>
      <use x="788.818359" xlink:href="#DejaVuSans-116"/>
      <use x="828.027344" xlink:href="#DejaVuSans-104"/>
      <use x="891.40625" xlink:href="#DejaVuSans-115"/>
     </g>
    </g>
   </g>
   <g id="line2d_14">
    <path clip-path="url(#paad3c11fc3)" d="M 55.393926 126.44874 
L 57.773275 126.44874 
L 60.152623 126.448738 
L 62.531972 126.448731 
L 64.91132 126.448709 
L 67.290669 126.448662 
L 69.670017 126.448573 
L 72.049366 126.448424 
L 74.428714 126.448193 
L 76.808063 126.447852 
L 79.187411 126.447373 
L 81.56676 126.446718 
L 83.946108 126.445844 
L 86.325457 126.444702 
L 88.704805 126.443229 
L 91.084154 126.441356 
L 93.463502 126.438996 
L 95.842851 126.436049 
L 98.222199 126.432393 
L 100.601548 126.427881 
L 102.980896 126.422332 
L 105.360244 126.415531 
L 107.739593 126.407216 
L 110.118941 126.397071 
L 112.49829 126.384708 
L 114.877638 126.369627 
L 117.256987 126.351186 
L 119.636335 126.328547 
L 122.015684 126.300687 
L 124.395032 126.266337 
L 126.774381 126.223992 
L 129.153729 126.171897 
L 131.533078 126.108017 
L 133.912426 126.030049 
L 136.291775 125.935378 
L 138.671123 125.821108 
L 141.050472 125.684029 
L 143.42982 125.520596 
L 145.809169 125.32669 
L 148.188517 125.097528 
L 150.567866 124.827504 
" style="fill:none;stroke:#0000ff;stroke-linecap:square;stroke-opacity:0.5;"/>
   </g>
   <g id="line2d_15">
    <path clip-path="url(#paad3c11fc3)" d="M 152.947214 124.509994 
L 155.326563 124.137434 
L 157.705911 123.701227 
L 160.08526 123.191742 
L 162.464608 122.598236 
L 164.843957 121.908716 
L 167.223305 121.109763 
L 169.602654 120.186292 
L 171.982002 119.121267 
L 174.361351 117.895361 
L 176.740699 116.486552 
L 179.120048 114.869646 
L 181.499396 113.01572 
L 183.878745 110.891474 
L 186.258093 108.458469 
L 188.637442 105.672229 
L 191.01679 102.481198 
L 193.396139 98.8255 
L 195.775487 94.635493 
L 198.154836 89.830046 
L 200.534184 84.314517 
" style="fill:none;stroke:#008000;stroke-linecap:square;stroke-opacity:0.5;"/>
   </g>
   <g id="line2d_16">
    <path clip-path="url(#paad3c11fc3)" d="M 110.118941 126.44874 
L 110.118941 11.52 
" style="fill:none;stroke:#0000ff;stroke-dasharray:1.85,0.8;stroke-dashoffset:0;stroke-width:0.5;"/>
   </g>
   <g id="line2d_17">
    <path clip-path="url(#paad3c11fc3)" d="M 124.395032 126.44874 
L 124.395032 11.52 
" style="fill:none;stroke:#0000ff;stroke-dasharray:1.85,0.8;stroke-dashoffset:0;stroke-width:0.5;"/>
   </g>
   <g id="line2d_18">
    <path clip-path="url(#paad3c11fc3)" d="M 119.636335 126.44874 
L 119.636335 11.52 
" style="fill:none;stroke:#0000ff;stroke-dasharray:1.85,0.8;stroke-dashoffset:0;stroke-width:0.5;"/>
   </g>
   <g id="line2d_19">
    <path clip-path="url(#paad3c11fc3)" d="M 105.360244 126.44874 
L 105.360244 11.52 
" style="fill:none;stroke:#0000ff;stroke-dasharray:1.85,0.8;stroke-dashoffset:0;stroke-width:0.5;"/>
   </g>
   <g id="patch_65">
    <path d="M 47.09 126.44874 
L 47.09 11.52 
" style="fill:none;stroke:#000000;stroke-linecap:square;stroke-linejoin:miter;stroke-width:0.8;"/>
   </g>
   <g id="patch_66">
    <path d="M 208.83811 126.44874 
L 208.83811 11.52 
" style="fill:none;stroke:#000000;stroke-linecap:square;stroke-linejoin:miter;stroke-width:0.8;"/>
   </g>
   <g id="patch_67">
    <path d="M 47.09 126.44874 
L 208.83811 126.44874 
" style="fill:none;stroke:#000000;stroke-linecap:square;stroke-linejoin:miter;stroke-width:0.8;"/>
   </g>
   <g id="patch_68">
    <path d="M 47.09 11.52 
L 208.83811 11.52 
" style="fill:none;stroke:#000000;stroke-linecap:square;stroke-linejoin:miter;stroke-width:0.8;"/>
   </g>
   <g id="legend_1">
    <g id="line2d_20">
     <path d="M 54.29 103.04249 
L 70.29 103.04249 
" style="fill:none;stroke:#0000ff;stroke-linecap:square;stroke-opacity:0.5;"/>
    </g>
    <g id="line2d_21"/>
    <g id="text_15">
     <!-- Simulation -->
     <defs>
      <path d="M 53.515625 70.515625 
L 53.515625 60.890625 
Q 47.90625 63.578125 42.921875 64.890625 
Q 37.9375 66.21875 33.296875 66.21875 
Q 25.25 66.21875 20.875 63.09375 
Q 16.5 59.96875 16.5 54.203125 
Q 16.5 49.359375 19.40625 46.890625 
Q 22.3125 44.4375 30.421875 42.921875 
L 36.375 41.703125 
Q 47.40625 39.59375 52.65625 34.296875 
Q 57.90625 29 57.90625 20.125 
Q 57.90625 9.515625 50.796875 4.046875 
Q 43.703125 -1.421875 29.984375 -1.421875 
Q 24.8125 -1.421875 18.96875 -0.25 
Q 13.140625 0.921875 6.890625 3.21875 
L 6.890625 13.375 
Q 12.890625 10.015625 18.65625 8.296875 
Q 24.421875 6.59375 29.984375 6.59375 
Q 38.421875 6.59375 43.015625 9.90625 
Q 47.609375 13.234375 47.609375 19.390625 
Q 47.609375 24.75 44.3125 27.78125 
Q 41.015625 30.8125 33.5 32.328125 
L 27.484375 33.5 
Q 16.453125 35.6875 11.515625 40.375 
Q 6.59375 45.0625 6.59375 53.421875 
Q 6.59375 63.09375 13.40625 68.65625 
Q 20.21875 74.21875 32.171875 74.21875 
Q 37.3125 74.21875 42.625 73.28125 
Q 47.953125 72.359375 53.515625 70.515625 
z
" id="DejaVuSans-83"/>
      <path d="M 30.609375 48.390625 
Q 23.390625 48.390625 19.1875 42.75 
Q 14.984375 37.109375 14.984375 27.296875 
Q 14.984375 17.484375 19.15625 11.84375 
Q 23.34375 6.203125 30.609375 6.203125 
Q 37.796875 6.203125 41.984375 11.859375 
Q 46.1875 17.53125 46.1875 27.296875 
Q 46.1875 37.015625 41.984375 42.703125 
Q 37.796875 48.390625 30.609375 48.390625 
z
M 30.609375 56 
Q 42.328125 56 49.015625 48.375 
Q 55.71875 40.765625 55.71875 27.296875 
Q 55.71875 13.875 49.015625 6.21875 
Q 42.328125 -1.421875 30.609375 -1.421875 
Q 18.84375 -1.421875 12.171875 6.21875 
Q 5.515625 13.875 5.515625 27.296875 
Q 5.515625 40.765625 12.171875 48.375 
Q 18.84375 56 30.609375 56 
z
" id="DejaVuSans-111"/>
      <path d="M 54.890625 33.015625 
L 54.890625 0 
L 45.90625 0 
L 45.90625 32.71875 
Q 45.90625 40.484375 42.875 44.328125 
Q 39.84375 48.1875 33.796875 48.1875 
Q 26.515625 48.1875 22.3125 43.546875 
Q 18.109375 38.921875 18.109375 30.90625 
L 18.109375 0 
L 9.078125 0 
L 9.078125 54.6875 
L 18.109375 54.6875 
L 18.109375 46.1875 
Q 21.34375 51.125 25.703125 53.5625 
Q 30.078125 56 35.796875 56 
Q 45.21875 56 50.046875 50.171875 
Q 54.890625 44.34375 54.890625 33.015625 
z
" id="DejaVuSans-110"/>
     </defs>
     <g transform="translate(76.69 105.84249)scale(0.08 -0.08)">
      <use xlink:href="#DejaVuSans-83"/>
      <use x="63.476562" xlink:href="#DejaVuSans-105"/>
      <use x="91.259766" xlink:href="#DejaVuSans-109"/>
      <use x="188.671875" xlink:href="#DejaVuSans-117"/>
      <use x="252.050781" xlink:href="#DejaVuSans-108"/>
      <use x="279.833984" xlink:href="#DejaVuSans-97"/>
      <use x="341.113281" xlink:href="#DejaVuSans-116"/>
      <use x="380.322266" xlink:href="#DejaVuSans-105"/>
      <use x="408.105469" xlink:href="#DejaVuSans-111"/>
      <use x="469.287109" xlink:href="#DejaVuSans-110"/>
     </g>
    </g>
    <g id="line2d_22">
     <path d="M 54.29 114.78499 
L 70.29 114.78499 
" style="fill:none;stroke:#008000;stroke-linecap:square;stroke-opacity:0.5;"/>
    </g>
    <g id="line2d_23"/>
    <g id="text_16">
     <!-- Forecast -->
     <defs>
      <path d="M 48.78125 52.59375 
L 48.78125 44.1875 
Q 44.96875 46.296875 41.140625 47.34375 
Q 37.3125 48.390625 33.40625 48.390625 
Q 24.65625 48.390625 19.8125 42.84375 
Q 14.984375 37.3125 14.984375 27.296875 
Q 14.984375 17.28125 19.8125 11.734375 
Q 24.65625 6.203125 33.40625 6.203125 
Q 37.3125 6.203125 41.140625 7.25 
Q 44.96875 8.296875 48.78125 10.40625 
L 48.78125 2.09375 
Q 45.015625 0.34375 40.984375 -0.53125 
Q 36.96875 -1.421875 32.421875 -1.421875 
Q 20.0625 -1.421875 12.78125 6.34375 
Q 5.515625 14.109375 5.515625 27.296875 
Q 5.515625 40.671875 12.859375 48.328125 
Q 20.21875 56 33.015625 56 
Q 37.15625 56 41.109375 55.140625 
Q 45.0625 54.296875 48.78125 52.59375 
z
" id="DejaVuSans-99"/>
     </defs>
     <g transform="translate(76.69 117.58499)scale(0.08 -0.08)">
      <use xlink:href="#DejaVuSans-70"/>
      <use x="53.894531" xlink:href="#DejaVuSans-111"/>
      <use x="115.076172" xlink:href="#DejaVuSans-114"/>
      <use x="153.939453" xlink:href="#DejaVuSans-101"/>
      <use x="215.462891" xlink:href="#DejaVuSans-99"/>
      <use x="270.443359" xlink:href="#DejaVuSans-97"/>
      <use x="331.722656" xlink:href="#DejaVuSans-115"/>
      <use x="383.822266" xlink:href="#DejaVuSans-116"/>
     </g>
    </g>
   </g>
  </g>
  <g id="axes_2">
   <g id="matplotlib.axis_3">
    <g id="ytick_5">
     <g id="line2d_24">
      <defs>
       <path d="M 0 0 
L 3.5 0 
" id="mdfba4133e2" style="stroke:#000000;stroke-width:0.8;"/>
      </defs>
      <g>
       <use style="stroke:#000000;stroke-width:0.8;" x="208.83811" xlink:href="#mdfba4133e2" y="126.44874"/>
      </g>
     </g>
     <g id="text_17">
      <!-- 1.0 -->
      <defs>
       <path d="M 10.59375 35.5 
L 73.1875 35.5 
L 73.1875 27.203125 
L 10.59375 27.203125 
z
" id="DejaVuSans-8722"/>
       <path d="M 10.6875 12.40625 
L 21 12.40625 
L 21 0 
L 10.6875 0 
z
" id="DejaVuSans-46"/>
      </defs>
      <g transform="translate(215.83811 129.488115)scale(0.08 -0.08)">
       <use xlink:href="#DejaVuSans-8722"/>
       <use x="83.789062" xlink:href="#DejaVuSans-49"/>
       <use x="147.412109" xlink:href="#DejaVuSans-46"/>
       <use x="179.199219" xlink:href="#DejaVuSans-48"/>
      </g>
     </g>
    </g>
    <g id="ytick_6">
     <g id="line2d_25">
      <g>
       <use style="stroke:#000000;stroke-width:0.8;" x="208.83811" xlink:href="#mdfba4133e2" y="85.402762"/>
      </g>
     </g>
     <g id="text_18">
      <!-- 0.5 -->
      <g transform="translate(215.83811 88.442137)scale(0.08 -0.08)">
       <use xlink:href="#DejaVuSans-8722"/>
       <use x="83.789062" xlink:href="#DejaVuSans-48"/>
       <use x="147.412109" xlink:href="#DejaVuSans-46"/>
       <use x="179.199219" xlink:href="#DejaVuSans-53"/>
      </g>
     </g>
    </g>
    <g id="ytick_7">
     <g id="line2d_26">
      <g>
       <use style="stroke:#000000;stroke-width:0.8;" x="208.83811" xlink:href="#mdfba4133e2" y="44.356783"/>
      </g>
     </g>
     <g id="text_19">
      <!-- 0.0 -->
      <g transform="translate(215.83811 47.396158)scale(0.08 -0.08)">
       <use xlink:href="#DejaVuSans-48"/>
       <use x="63.623047" xlink:href="#DejaVuSans-46"/>
       <use x="95.410156" xlink:href="#DejaVuSans-48"/>
      </g>
     </g>
    </g>
    <g id="ytick_8">
     <g id="line2d_27">
      <g>
       <use style="stroke:#000000;stroke-width:0.8;" x="208.83811" xlink:href="#mdfba4133e2" y="11.52"/>
      </g>
     </g>
     <g id="text_20">
      <!-- 0.4 -->
      <g transform="translate(215.83811 14.559375)scale(0.08 -0.08)">
       <use xlink:href="#DejaVuSans-48"/>
       <use x="63.623047" xlink:href="#DejaVuSans-46"/>
       <use x="95.410156" xlink:href="#DejaVuSans-52"/>
      </g>
     </g>
    </g>
    <g id="text_21">
     <!-- Relative change -->
     <defs>
      <path d="M 44.390625 34.1875 
Q 47.5625 33.109375 50.5625 29.59375 
Q 53.5625 26.078125 56.59375 19.921875 
L 66.609375 0 
L 56 0 
L 46.6875 18.703125 
Q 43.0625 26.03125 39.671875 28.421875 
Q 36.28125 30.8125 30.421875 30.8125 
L 19.671875 30.8125 
L 19.671875 0 
L 9.8125 0 
L 9.8125 72.90625 
L 32.078125 72.90625 
Q 44.578125 72.90625 50.734375 67.671875 
Q 56.890625 62.453125 56.890625 51.90625 
Q 56.890625 45.015625 53.6875 40.46875 
Q 50.484375 35.9375 44.390625 34.1875 
z
M 19.671875 64.796875 
L 19.671875 38.921875 
L 32.078125 38.921875 
Q 39.203125 38.921875 42.84375 42.21875 
Q 46.484375 45.515625 46.484375 51.90625 
Q 46.484375 58.296875 42.84375 61.546875 
Q 39.203125 64.796875 32.078125 64.796875 
z
" id="DejaVuSans-82"/>
      <path d="M 45.40625 27.984375 
Q 45.40625 37.75 41.375 43.109375 
Q 37.359375 48.484375 30.078125 48.484375 
Q 22.859375 48.484375 18.828125 43.109375 
Q 14.796875 37.75 14.796875 27.984375 
Q 14.796875 18.265625 18.828125 12.890625 
Q 22.859375 7.515625 30.078125 7.515625 
Q 37.359375 7.515625 41.375 12.890625 
Q 45.40625 18.265625 45.40625 27.984375 
z
M 54.390625 6.78125 
Q 54.390625 -7.171875 48.1875 -13.984375 
Q 42 -20.796875 29.203125 -20.796875 
Q 24.46875 -20.796875 20.265625 -20.09375 
Q 16.0625 -19.390625 12.109375 -17.921875 
L 12.109375 -9.1875 
Q 16.0625 -11.328125 19.921875 -12.34375 
Q 23.78125 -13.375 27.78125 -13.375 
Q 36.625 -13.375 41.015625 -8.765625 
Q 45.40625 -4.15625 45.40625 5.171875 
L 45.40625 9.625 
Q 42.625 4.78125 38.28125 2.390625 
Q 33.9375 0 27.875 0 
Q 17.828125 0 11.671875 7.65625 
Q 5.515625 15.328125 5.515625 27.984375 
Q 5.515625 40.671875 11.671875 48.328125 
Q 17.828125 56 27.875 56 
Q 33.9375 56 38.28125 53.609375 
Q 42.625 51.21875 45.40625 46.390625 
L 45.40625 54.6875 
L 54.390625 54.6875 
z
" id="DejaVuSans-103"/>
     </defs>
     <g transform="translate(245.34311 101.10812)rotate(-90)scale(0.08 -0.08)">
      <use xlink:href="#DejaVuSans-82"/>
      <use x="64.982422" xlink:href="#DejaVuSans-101"/>
      <use x="126.505859" xlink:href="#DejaVuSans-108"/>
      <use x="154.289062" xlink:href="#DejaVuSans-97"/>
      <use x="215.568359" xlink:href="#DejaVuSans-116"/>
      <use x="254.777344" xlink:href="#DejaVuSans-105"/>
      <use x="282.560547" xlink:href="#DejaVuSans-118"/>
      <use x="341.740234" xlink:href="#DejaVuSans-101"/>
      <use x="403.263672" xlink:href="#DejaVuSans-32"/>
      <use x="435.050781" xlink:href="#DejaVuSans-99"/>
      <use x="490.03125" xlink:href="#DejaVuSans-104"/>
      <use x="553.410156" xlink:href="#DejaVuSans-97"/>
      <use x="614.689453" xlink:href="#DejaVuSans-110"/>
      <use x="678.068359" xlink:href="#DejaVuSans-103"/>
      <use x="741.544922" xlink:href="#DejaVuSans-101"/>
     </g>
    </g>
   </g>
   <g id="line2d_28">
    <path clip-path="url(#paad3c11fc3)" d="M 55.393926 44.356783 
L 57.773275 41.894024 
L 60.152623 43.535863 
L 62.531972 40.252185 
L 64.91132 44.356783 
L 67.290669 42.714944 
L 69.670017 42.714944 
L 72.049366 37.789426 
L 74.428714 40.252185 
L 76.808063 38.610346 
L 79.187411 38.610346 
L 81.56676 37.789426 
L 83.946108 45.177702 
L 86.325457 43.535863 
L 88.704805 44.356783 
L 91.084154 45.998622 
L 93.463502 44.356783 
L 95.842851 42.714944 
L 98.222199 40.252185 
L 100.601548 43.535863 
L 102.980896 45.998622 
L 105.360244 47.640461 
L 107.739593 47.640461 
L 110.118941 54.207818 
L 112.49829 55.028737 
L 114.877638 58.312416 
L 117.256987 64.879772 
L 119.636335 59.954255 
L 122.015684 64.058853 
L 124.395032 65.700692 
L 126.774381 62.417013 
L 129.153729 64.058853 
L 131.533078 65.700692 
L 133.912426 65.700692 
L 136.291775 64.879772 
L 138.671123 64.879772 
L 141.050472 59.954255 
L 143.42982 59.133335 
L 145.809169 59.954255 
L 148.188517 64.058853 
L 150.567866 64.058853 
" style="fill:none;stroke:#d62728;stroke-linecap:square;stroke-opacity:0.5;"/>
   </g>
   <g id="line2d_29">
    <path clip-path="url(#paad3c11fc3)" d="M 55.393926 44.356783 
L 57.773275 43.535863 
L 60.152623 43.535863 
L 62.531972 44.356783 
L 64.91132 45.177702 
L 67.290669 44.356783 
L 69.670017 44.356783 
L 72.049366 36.968507 
L 74.428714 42.714944 
L 76.808063 41.073105 
L 79.187411 42.714944 
L 81.56676 41.073105 
L 83.946108 45.998622 
L 86.325457 42.714944 
L 88.704805 42.714944 
L 91.084154 45.177702 
L 93.463502 41.894024 
L 95.842851 43.535863 
L 98.222199 41.073105 
L 100.601548 45.998622 
L 102.980896 44.356783 
L 105.360244 43.535863 
L 107.739593 41.073105 
L 110.118941 35.326668 
L 112.49829 37.789426 
L 114.877638 36.968507 
L 117.256987 45.998622 
L 119.636335 41.894024 
L 122.015684 44.356783 
L 124.395032 46.819542 
L 126.774381 45.998622 
L 129.153729 48.461381 
L 131.533078 48.461381 
L 133.912426 51.745059 
L 136.291775 50.924139 
L 138.671123 50.10322 
L 141.050472 43.535863 
L 143.42982 45.998622 
L 145.809169 48.461381 
L 148.188517 47.640461 
L 150.567866 52.565979 
" style="fill:none;stroke:#9467bd;stroke-linecap:square;stroke-opacity:0.5;"/>
   </g>
   <g id="line2d_30">
    <path clip-path="url(#paad3c11fc3)" d="M 55.393926 47.640461 
L 57.773275 46.819542 
L 60.152623 49.2823 
L 62.531972 45.998622 
L 64.91132 45.998622 
L 67.290669 44.356783 
L 69.670017 46.819542 
L 72.049366 46.819542 
L 74.428714 48.461381 
L 76.808063 45.998622 
L 79.187411 45.177702 
L 81.56676 40.252185 
L 83.946108 49.2823 
L 86.325457 46.819542 
L 88.704805 47.640461 
L 91.084154 48.461381 
L 93.463502 47.640461 
L 95.842851 45.177702 
L 98.222199 39.431265 
L 100.601548 49.2823 
L 102.980896 48.461381 
L 105.360244 49.2823 
L 107.739593 50.10322 
L 110.118941 57.491496 
L 112.49829 59.954255 
L 114.877638 55.028737 
L 117.256987 68.98437 
L 119.636335 64.879772 
L 122.015684 70.626209 
L 124.395032 74.730807 
L 126.774381 73.088968 
L 129.153729 74.730807 
L 131.533078 67.342531 
L 133.912426 71.447129 
L 136.291775 75.551727 
L 138.671123 74.730807 
L 141.050472 73.909888 
L 143.42982 73.088968 
L 145.809169 73.088968 
L 148.188517 68.163451 
L 150.567866 73.909888 
" style="fill:none;stroke:#e377c2;stroke-linecap:square;stroke-opacity:0.5;"/>
   </g>
   <g id="line2d_31">
    <path clip-path="url(#paad3c11fc3)" d="M 55.393926 48.461381 
L 57.773275 48.461381 
L 60.152623 49.2823 
L 62.531972 50.10322 
L 64.91132 46.819542 
L 67.290669 45.177702 
L 69.670017 47.640461 
L 72.049366 47.640461 
L 74.428714 47.640461 
L 76.808063 48.461381 
L 79.187411 49.2823 
L 81.56676 44.356783 
L 83.946108 45.998622 
L 86.325457 45.998622 
L 88.704805 45.998622 
L 91.084154 45.998622 
L 93.463502 45.998622 
L 95.842851 45.998622 
L 98.222199 44.356783 
L 100.601548 45.177702 
L 102.980896 44.356783 
L 105.360244 44.356783 
L 107.739593 45.177702 
L 110.118941 47.640461 
L 112.49829 52.565979 
L 114.877638 49.2823 
L 117.256987 52.565979 
L 119.636335 58.312416 
L 122.015684 61.596094 
L 124.395032 66.521611 
L 126.774381 67.342531 
L 129.153729 67.342531 
L 131.533078 55.028737 
L 133.912426 56.670576 
L 136.291775 66.521611 
L 138.671123 67.342531 
L 141.050472 67.342531 
L 143.42982 67.342531 
L 145.809169 68.163451 
L 148.188517 56.670576 
L 150.567866 59.133335 
" style="fill:none;stroke:#bcbd22;stroke-linecap:square;stroke-opacity:0.5;"/>
   </g>
   <g id="line2d_32">
    <path clip-path="url(#paad3c11fc3)" d="M 55.393926 43.535863 
L 57.773275 43.535863 
L 60.152623 43.535863 
L 62.531972 43.535863 
L 64.91132 43.535863 
L 67.290669 44.356783 
L 69.670017 43.535863 
L 72.049366 43.535863 
L 74.428714 43.535863 
L 76.808063 43.535863 
L 79.187411 43.535863 
L 81.56676 44.356783 
L 83.946108 43.535863 
L 86.325457 43.535863 
L 88.704805 43.535863 
L 91.084154 43.535863 
L 93.463502 43.535863 
L 95.842851 43.535863 
L 98.222199 44.356783 
L 100.601548 43.535863 
L 102.980896 43.535863 
L 105.360244 43.535863 
L 107.739593 42.714944 
L 110.118941 41.073105 
L 112.49829 39.431265 
L 114.877638 41.894024 
L 117.256987 40.252185 
L 119.636335 37.789426 
L 122.015684 36.968507 
L 124.395032 35.326668 
L 126.774381 35.326668 
L 129.153729 34.505748 
L 131.533078 39.431265 
L 133.912426 40.252185 
L 136.291775 35.326668 
L 138.671123 35.326668 
L 141.050472 35.326668 
L 143.42982 35.326668 
L 145.809169 35.326668 
L 148.188517 39.431265 
L 150.567866 40.252185 
" style="fill:none;stroke:#17becf;stroke-linecap:square;stroke-opacity:0.5;"/>
   </g>
   <g id="patch_69">
    <path d="M 47.09 126.44874 
L 47.09 11.52 
" style="fill:none;stroke:#000000;stroke-linecap:square;stroke-linejoin:miter;stroke-width:0.8;"/>
   </g>
   <g id="patch_70">
    <path d="M 208.83811 126.44874 
L 208.83811 11.52 
" style="fill:none;stroke:#000000;stroke-linecap:square;stroke-linejoin:miter;stroke-width:0.8;"/>
   </g>
   <g id="patch_71">
    <path d="M 47.09 126.44874 
L 208.83811 126.44874 
" style="fill:none;stroke:#000000;stroke-linecap:square;stroke-linejoin:miter;stroke-width:0.8;"/>
   </g>
   <g id="patch_72">
    <path d="M 47.09 11.52 
L 208.83811 11.52 
" style="fill:none;stroke:#000000;stroke-linecap:square;stroke-linejoin:miter;stroke-width:0.8;"/>
   </g>
  </g>
 </g>
 <defs>
  <clipPath id="paad3c11fc3">
   <rect height="114.92874" width="161.74811" x="47.09" y="11.52"/>
  </clipPath>
 </defs>
</svg>
