<?xml version="1.0" encoding="utf-8" standalone="no"?>
<!DOCTYPE svg PUBLIC "-//W3C//DTD SVG 1.1//EN"
  "http://www.w3.org/Graphics/SVG/1.1/DTD/svg11.dtd">
<!-- Created with matplotlib (https://matplotlib.org/) -->
<svg height="170.07874pt" version="1.1" viewBox="0 0 255.11811 170.07874" width="255.11811pt" xmlns="http://www.w3.org/2000/svg" xmlns:xlink="http://www.w3.org/1999/xlink">
 <defs>
  <style type="text/css">
*{stroke-linecap:butt;stroke-linejoin:round;}
  </style>
 </defs>
 <g id="figure_1">
  <g id="patch_1">
   <path d="M 0 170.07874 
L 255.11811 170.07874 
L 255.11811 0 
L 0 0 
z
" style="fill:#ffffff;"/>
  </g>
  <g id="axes_1">
   <g id="patch_2">
    <path d="M 42.05 126.44874 
L 208.83811 126.44874 
L 208.83811 11.52 
L 42.05 11.52 
z
" style="fill:#ffffff;"/>
   </g>
   <g id="PolyCollection_1">
    <defs>
     <path d="M 50.553014 -43.63 
L 50.553014 -43.63 
L 52.857353 -43.63 
L 55.161693 -43.630012 
L 57.466033 -43.630052 
L 59.770373 -43.630144 
L 62.074712 -43.630315 
L 64.379052 -43.630591 
L 66.683392 -43.630993 
L 68.987732 -43.631548 
L 71.292071 -43.632286 
L 73.596411 -43.633237 
L 75.900751 -43.634505 
L 78.20509 -43.63616 
L 80.50943 -43.638356 
L 82.81377 -43.64124 
L 85.11811 -43.644963 
L 87.422449 -43.649741 
L 89.726789 -43.656062 
L 92.031129 -43.664344 
L 94.335469 -43.674934 
L 96.639808 -43.688736 
L 98.944148 -43.706735 
L 101.248488 -43.730003 
L 103.552828 -43.758985 
L 105.857167 -43.796114 
L 108.161507 -43.841902 
L 110.465847 -43.900006 
L 112.770187 -43.972885 
L 115.074526 -44.067519 
L 117.378866 -44.185614 
L 119.683206 -44.33509 
L 121.987546 -44.536659 
L 124.291885 -44.800257 
L 126.596225 -45.173524 
L 128.900565 -45.645275 
L 131.204904 -46.234659 
L 133.509244 -46.986321 
L 135.813584 -47.861074 
L 138.117924 -48.864197 
L 140.422263 -49.949996 
L 142.726603 -51.098233 
L 145.030943 -52.320538 
L 147.335283 -53.605501 
L 149.639622 -54.889091 
L 151.943962 -56.172531 
L 151.943962 -68.363639 
L 151.943962 -68.363639 
L 149.639622 -65.167242 
L 147.335283 -62.206423 
L 145.030943 -59.401356 
L 142.726603 -56.863527 
L 140.422263 -54.608646 
L 138.117924 -52.613222 
L 135.813584 -50.888984 
L 133.509244 -49.491068 
L 131.204904 -48.340746 
L 128.900565 -47.431525 
L 126.596225 -46.74214 
L 124.291885 -46.203662 
L 121.987546 -45.784095 
L 119.683206 -45.443291 
L 117.378866 -45.159405 
L 115.074526 -44.935335 
L 112.770187 -44.733248 
L 110.465847 -44.562473 
L 108.161507 -44.420883 
L 105.857167 -44.299417 
L 103.552828 -44.194445 
L 101.248488 -44.104655 
L 98.944148 -44.027732 
L 96.639808 -43.961661 
L 94.335469 -43.905515 
L 92.031129 -43.856757 
L 89.726789 -43.816373 
L 87.422449 -43.781662 
L 85.11811 -43.752238 
L 82.81377 -43.727435 
L 80.50943 -43.706936 
L 78.20509 -43.689863 
L 75.900751 -43.675644 
L 73.596411 -43.66389 
L 71.292071 -43.654333 
L 68.987732 -43.646678 
L 66.683392 -43.640757 
L 64.379052 -43.636399 
L 62.074712 -43.633409 
L 59.770373 -43.631555 
L 57.466033 -43.630558 
L 55.161693 -43.630128 
L 52.857353 -43.63 
L 50.553014 -43.63 
z
" id="mb7c9d5fa35" style="stroke:#6495ed;stroke-opacity:0.4;"/>
    </defs>
    <g clip-path="url(#p17fae4e2bf)">
     <use style="fill:#6495ed;fill-opacity:0.4;stroke:#6495ed;stroke-opacity:0.4;" x="0" xlink:href="#mb7c9d5fa35" y="170.07874"/>
    </g>
   </g>
   <g id="PolyCollection_2">
    <defs>
     <path d="M 50.553014 -43.63 
L 50.553014 -43.63 
L 52.857353 -43.63 
L 55.161693 -43.630028 
L 57.466033 -43.63012 
L 59.770373 -43.630335 
L 62.074712 -43.630733 
L 64.379052 -43.631377 
L 66.683392 -43.632314 
L 68.987732 -43.633598 
L 71.292071 -43.635279 
L 73.596411 -43.637433 
L 75.900751 -43.640213 
L 78.20509 -43.643768 
L 80.50943 -43.648318 
L 82.81377 -43.654112 
L 85.11811 -43.661361 
L 87.422449 -43.670531 
L 89.726789 -43.682051 
L 92.031129 -43.696576 
L 94.335469 -43.71479 
L 96.639808 -43.737291 
L 98.944148 -43.765806 
L 101.248488 -43.800351 
L 103.552828 -43.844143 
L 105.857167 -43.897387 
L 108.161507 -43.962798 
L 110.465847 -44.043103 
L 112.770187 -44.14142 
L 115.074526 -44.262121 
L 117.378866 -44.410768 
L 119.683206 -44.599984 
L 121.987546 -44.845348 
L 124.291885 -45.16291 
L 126.596225 -45.581328 
L 128.900565 -46.127321 
L 131.204904 -46.81802 
L 133.509244 -47.661707 
L 135.813584 -48.671588 
L 138.117924 -49.862443 
L 140.422263 -51.197819 
L 142.726603 -52.638337 
L 145.030943 -54.202136 
L 147.335283 -55.850262 
L 149.639622 -57.525649 
L 151.943962 -59.281025 
L 151.943962 -63.226563 
L 151.943962 -63.226563 
L 149.639622 -60.864904 
L 147.335283 -58.623956 
L 145.030943 -56.505424 
L 142.726603 -54.531677 
L 140.422263 -52.729058 
L 138.117924 -51.104459 
L 135.813584 -49.693762 
L 133.509244 -48.490301 
L 131.204904 -47.516577 
L 128.900565 -46.739868 
L 126.596225 -46.121503 
L 124.291885 -45.638818 
L 121.987546 -45.266848 
L 119.683206 -44.969616 
L 117.378866 -44.734391 
L 115.074526 -44.546687 
L 112.770187 -44.388479 
L 110.465847 -44.257469 
L 108.161507 -44.148036 
L 105.857167 -44.056844 
L 103.552828 -43.981274 
L 101.248488 -43.917215 
L 98.944148 -43.864182 
L 96.639808 -43.820314 
L 94.335469 -43.783997 
L 92.031129 -43.7541 
L 89.726789 -43.729362 
L 87.422449 -43.708971 
L 85.11811 -43.692434 
L 82.81377 -43.678892 
L 80.50943 -43.667931 
L 78.20509 -43.659036 
L 75.900751 -43.65185 
L 73.596411 -43.646078 
L 71.292071 -43.641467 
L 68.987732 -43.637839 
L 66.683392 -43.635047 
L 64.379052 -43.633002 
L 62.074712 -43.6316 
L 59.770373 -43.63073 
L 57.466033 -43.630262 
L 55.161693 -43.63006 
L 52.857353 -43.63 
L 50.553014 -43.63 
z
" id="m1a1961a865" style="stroke:#6495ed;stroke-opacity:0.6;"/>
    </defs>
    <g clip-path="url(#p17fae4e2bf)">
     <use style="fill:#6495ed;fill-opacity:0.6;stroke:#6495ed;stroke-opacity:0.6;" x="0" xlink:href="#m1a1961a865" y="170.07874"/>
    </g>
   </g>
   <g id="PolyCollection_3">
    <defs>
     <path d="M 151.943962 -68.363639 
L 151.943962 -56.172531 
L 154.248302 -57.463929 
L 156.552642 -58.689128 
L 158.856981 -59.843579 
L 161.161321 -60.933222 
L 163.465661 -61.840563 
L 165.770001 -62.643879 
L 168.07434 -63.38713 
L 170.37868 -63.910653 
L 172.68302 -64.193864 
L 174.987359 -64.215419 
L 177.291699 -64.210056 
L 179.596039 -64.082879 
L 181.900379 -63.776284 
L 184.204718 -63.286312 
L 186.509058 -62.685027 
L 188.813398 -62.095068 
L 191.117738 -61.453986 
L 193.422077 -60.58804 
L 195.726417 -59.783716 
L 198.030757 -58.949455 
L 200.335097 -58.079097 
L 200.335097 -158.55874 
L 200.335097 -158.55874 
L 198.030757 -155.674107 
L 195.726417 -152.783388 
L 193.422077 -149.992526 
L 191.117738 -146.164794 
L 188.813398 -142.590748 
L 186.509058 -137.370617 
L 184.204718 -132.149864 
L 181.900379 -127.810438 
L 179.596039 -123.282325 
L 177.291699 -117.914088 
L 174.987359 -113.372484 
L 172.68302 -108.30891 
L 170.37868 -103.059755 
L 168.07434 -98.352837 
L 165.770001 -93.7475 
L 163.465661 -88.652081 
L 161.161321 -84.199261 
L 158.856981 -79.761841 
L 156.552642 -75.667305 
L 154.248302 -71.715052 
L 151.943962 -68.363639 
z
" id="m4fd057ef35" style="stroke:#228b22;stroke-opacity:0.4;"/>
    </defs>
    <g clip-path="url(#p17fae4e2bf)">
     <use style="fill:#228b22;fill-opacity:0.4;stroke:#228b22;stroke-opacity:0.4;" x="0" xlink:href="#m4fd057ef35" y="170.07874"/>
    </g>
   </g>
   <g id="PolyCollection_4">
    <defs>
     <path d="M 151.943962 -63.226563 
L 151.943962 -59.281025 
L 154.248302 -61.045084 
L 156.552642 -62.763959 
L 158.856981 -64.452615 
L 161.161321 -66.117223 
L 163.465661 -67.710041 
L 165.770001 -69.185103 
L 168.07434 -70.374376 
L 170.37868 -71.474653 
L 172.68302 -72.328947 
L 174.987359 -72.929675 
L 177.291699 -73.334324 
L 179.596039 -73.556508 
L 181.900379 -73.535203 
L 184.204718 -73.241592 
L 186.509058 -72.837117 
L 188.813398 -72.259724 
L 191.117738 -71.567358 
L 193.422077 -70.681592 
L 195.726417 -69.720357 
L 198.030757 -68.757581 
L 200.335097 -67.693663 
L 200.335097 -89.775813 
L 200.335097 -89.775813 
L 198.030757 -90.539109 
L 195.726417 -91.310964 
L 193.422077 -91.821615 
L 191.117738 -92.028205 
L 188.813398 -92.210696 
L 186.509058 -92.00026 
L 184.204718 -91.465343 
L 181.900379 -90.843511 
L 179.596039 -89.864358 
L 177.291699 -88.7369 
L 174.987359 -87.140389 
L 172.68302 -85.328188 
L 170.37868 -83.276402 
L 168.07434 -81.103113 
L 165.770001 -78.688718 
L 163.465661 -76.142971 
L 161.161321 -73.548126 
L 158.856981 -70.882372 
L 156.552642 -68.281693 
L 154.248302 -65.722783 
L 151.943962 -63.226563 
z
" id="mc6dbf324ac" style="stroke:#228b22;stroke-opacity:0.6;"/>
    </defs>
    <g clip-path="url(#p17fae4e2bf)">
     <use style="fill:#228b22;fill-opacity:0.6;stroke:#228b22;stroke-opacity:0.6;" x="0" xlink:href="#mc6dbf324ac" y="170.07874"/>
    </g>
   </g>
   <g id="PathCollection_1">
    <defs>
     <path d="M -0.866025 1.732051 
L 0 0.866025 
L 0.866025 1.732051 
L 1.732051 0.866025 
L 0.866025 0 
L 1.732051 -0.866025 
L 0.866025 -1.732051 
L 0 -0.866025 
L -0.866025 -1.732051 
L -1.732051 -0.866025 
L -0.866025 0 
L -1.732051 0.866025 
z
" id="m2679647d54" style="stroke:#8a2be2;"/>
    </defs>
    <g clip-path="url(#p17fae4e2bf)">
     <use style="fill:#8a2be2;stroke:#8a2be2;" x="115.074526" xlink:href="#m2679647d54" y="23.012874"/>
    </g>
   </g>
   <g id="PathCollection_2">
    <defs>
     <path d="M 0 -1.732051 
L -0.38887 -0.535233 
L -1.647278 -0.535233 
L -0.629204 0.204441 
L -1.018074 1.401259 
L -0 0.661585 
L 1.018074 1.401259 
L 0.629204 0.204441 
L 1.647278 -0.535233 
L 0.38887 -0.535233 
z
" id="m336842fd28" style="stroke:#000000;"/>
    </defs>
    <g clip-path="url(#p17fae4e2bf)">
     <use style="stroke:#000000;" x="117.378866" xlink:href="#m336842fd28" y="23.012874"/>
    </g>
   </g>
   <g id="PathCollection_3">
    <defs>
     <path d="M -1.732051 1.732051 
L 1.732051 1.732051 
L 1.732051 -1.732051 
L -1.732051 -1.732051 
z
" id="md0b2fec568" style="stroke:#c71585;"/>
    </defs>
    <g clip-path="url(#p17fae4e2bf)">
     <use style="fill:#c71585;stroke:#c71585;" x="131.204904" xlink:href="#md0b2fec568" y="23.012874"/>
    </g>
   </g>
   <g id="PathCollection_4">
    <defs>
     <path d="M 0 -1.732051 
L -1.647278 -0.535233 
L -1.018074 1.401259 
L 1.018074 1.401259 
L 1.647278 -0.535233 
z
" id="m654de9ff5c" style="stroke:#800000;"/>
    </defs>
    <g clip-path="url(#p17fae4e2bf)">
     <use style="fill:#800000;stroke:#800000;" x="121.987546" xlink:href="#m654de9ff5c" y="23.012874"/>
    </g>
   </g>
   <g id="PathCollection_5">
    <defs>
     <path d="M -0 2.44949 
L 1.469694 0 
L 0 -2.44949 
L -1.469694 -0 
z
" id="mb8f73cd33f" style="stroke:#556b2f;"/>
    </defs>
    <g clip-path="url(#p17fae4e2bf)">
     <use style="fill:#556b2f;stroke:#556b2f;" x="89.726789" xlink:href="#mb8f73cd33f" y="23.012874"/>
    </g>
   </g>
   <g id="patch_3">
    <path clip-path="url(#p17fae4e2bf)" d="M 49.631278 126.44874 
L 51.47475 126.44874 
L 51.47475 126.44874 
L 49.631278 126.44874 
z
" style="fill:#1f77b4;opacity:0.5;"/>
   </g>
   <g id="patch_4">
    <path clip-path="url(#p17fae4e2bf)" d="M 51.935617 126.44874 
L 53.779089 126.44874 
L 53.779089 126.44874 
L 51.935617 126.44874 
z
" style="fill:#1f77b4;opacity:0.5;"/>
   </g>
   <g id="patch_5">
    <path clip-path="url(#p17fae4e2bf)" d="M 54.239957 126.44874 
L 56.083429 126.44874 
L 56.083429 126.44874 
L 54.239957 126.44874 
z
" style="fill:#1f77b4;opacity:0.5;"/>
   </g>
   <g id="patch_6">
    <path clip-path="url(#p17fae4e2bf)" d="M 56.544297 126.44874 
L 58.387769 126.44874 
L 58.387769 126.44874 
L 56.544297 126.44874 
z
" style="fill:#1f77b4;opacity:0.5;"/>
   </g>
   <g id="patch_7">
    <path clip-path="url(#p17fae4e2bf)" d="M 58.848637 126.44874 
L 60.692108 126.44874 
L 60.692108 126.44874 
L 58.848637 126.44874 
z
" style="fill:#1f77b4;opacity:0.5;"/>
   </g>
   <g id="patch_8">
    <path clip-path="url(#p17fae4e2bf)" d="M 61.152976 126.44874 
L 62.996448 126.44874 
L 62.996448 126.44874 
L 61.152976 126.44874 
z
" style="fill:#1f77b4;opacity:0.5;"/>
   </g>
   <g id="patch_9">
    <path clip-path="url(#p17fae4e2bf)" d="M 63.457316 126.44874 
L 65.300788 126.44874 
L 65.300788 126.44874 
L 63.457316 126.44874 
z
" style="fill:#1f77b4;opacity:0.5;"/>
   </g>
   <g id="patch_10">
    <path clip-path="url(#p17fae4e2bf)" d="M 65.761656 126.44874 
L 67.605128 126.44874 
L 67.605128 126.44874 
L 65.761656 126.44874 
z
" style="fill:#1f77b4;opacity:0.5;"/>
   </g>
   <g id="patch_11">
    <path clip-path="url(#p17fae4e2bf)" d="M 68.065996 126.44874 
L 69.909467 126.44874 
L 69.909467 126.44874 
L 68.065996 126.44874 
z
" style="fill:#1f77b4;opacity:0.5;"/>
   </g>
   <g id="patch_12">
    <path clip-path="url(#p17fae4e2bf)" d="M 70.370335 126.44874 
L 72.213807 126.44874 
L 72.213807 126.44874 
L 70.370335 126.44874 
z
" style="fill:#1f77b4;opacity:0.5;"/>
   </g>
   <g id="patch_13">
    <path clip-path="url(#p17fae4e2bf)" d="M 72.674675 126.44874 
L 74.518147 126.44874 
L 74.518147 126.44874 
L 72.674675 126.44874 
z
" style="fill:#1f77b4;opacity:0.5;"/>
   </g>
   <g id="patch_14">
    <path clip-path="url(#p17fae4e2bf)" d="M 74.979015 126.44874 
L 76.822487 126.44874 
L 76.822487 126.44874 
L 74.979015 126.44874 
z
" style="fill:#1f77b4;opacity:0.5;"/>
   </g>
   <g id="patch_15">
    <path clip-path="url(#p17fae4e2bf)" d="M 77.283355 126.44874 
L 79.126826 126.44874 
L 79.126826 126.44874 
L 77.283355 126.44874 
z
" style="fill:#1f77b4;opacity:0.5;"/>
   </g>
   <g id="patch_16">
    <path clip-path="url(#p17fae4e2bf)" d="M 79.587694 126.44874 
L 81.431166 126.44874 
L 81.431166 126.44874 
L 79.587694 126.44874 
z
" style="fill:#1f77b4;opacity:0.5;"/>
   </g>
   <g id="patch_17">
    <path clip-path="url(#p17fae4e2bf)" d="M 81.892034 126.44874 
L 83.735506 126.44874 
L 83.735506 126.44874 
L 81.892034 126.44874 
z
" style="fill:#1f77b4;opacity:0.5;"/>
   </g>
   <g id="patch_18">
    <path clip-path="url(#p17fae4e2bf)" d="M 84.196374 126.44874 
L 86.039846 126.44874 
L 86.039846 126.44874 
L 84.196374 126.44874 
z
" style="fill:#1f77b4;opacity:0.5;"/>
   </g>
   <g id="patch_19">
    <path clip-path="url(#p17fae4e2bf)" d="M 86.500714 126.44874 
L 88.344185 126.44874 
L 88.344185 126.44874 
L 86.500714 126.44874 
z
" style="fill:#1f77b4;opacity:0.5;"/>
   </g>
   <g id="patch_20">
    <path clip-path="url(#p17fae4e2bf)" d="M 88.805053 126.44874 
L 90.648525 126.44874 
L 90.648525 126.44874 
L 88.805053 126.44874 
z
" style="fill:#1f77b4;opacity:0.5;"/>
   </g>
   <g id="patch_21">
    <path clip-path="url(#p17fae4e2bf)" d="M 91.109393 126.44874 
L 92.952865 126.44874 
L 92.952865 126.44874 
L 91.109393 126.44874 
z
" style="fill:#1f77b4;opacity:0.5;"/>
   </g>
   <g id="patch_22">
    <path clip-path="url(#p17fae4e2bf)" d="M 93.413733 126.44874 
L 95.257205 126.44874 
L 95.257205 126.44874 
L 93.413733 126.44874 
z
" style="fill:#1f77b4;opacity:0.5;"/>
   </g>
   <g id="patch_23">
    <path clip-path="url(#p17fae4e2bf)" d="M 95.718072 126.44874 
L 97.561544 126.44874 
L 97.561544 126.44874 
L 95.718072 126.44874 
z
" style="fill:#1f77b4;opacity:0.5;"/>
   </g>
   <g id="patch_24">
    <path clip-path="url(#p17fae4e2bf)" d="M 98.022412 126.44874 
L 99.865884 126.44874 
L 99.865884 125.960672 
L 98.022412 125.960672 
z
" style="fill:#1f77b4;opacity:0.5;"/>
   </g>
   <g id="patch_25">
    <path clip-path="url(#p17fae4e2bf)" d="M 100.326752 126.44874 
L 102.170224 126.44874 
L 102.170224 126.44874 
L 100.326752 126.44874 
z
" style="fill:#1f77b4;opacity:0.5;"/>
   </g>
   <g id="patch_26">
    <path clip-path="url(#p17fae4e2bf)" d="M 102.631092 126.44874 
L 104.474564 126.44874 
L 104.474564 126.44874 
L 102.631092 126.44874 
z
" style="fill:#1f77b4;opacity:0.5;"/>
   </g>
   <g id="patch_27">
    <path clip-path="url(#p17fae4e2bf)" d="M 104.935431 126.44874 
L 106.778903 126.44874 
L 106.778903 125.960672 
L 104.935431 125.960672 
z
" style="fill:#1f77b4;opacity:0.5;"/>
   </g>
   <g id="patch_28">
    <path clip-path="url(#p17fae4e2bf)" d="M 107.239771 126.44874 
L 109.083243 126.44874 
L 109.083243 126.44874 
L 107.239771 126.44874 
z
" style="fill:#1f77b4;opacity:0.5;"/>
   </g>
   <g id="patch_29">
    <path clip-path="url(#p17fae4e2bf)" d="M 109.544111 126.44874 
L 111.387583 126.44874 
L 111.387583 125.960672 
L 109.544111 125.960672 
z
" style="fill:#1f77b4;opacity:0.5;"/>
   </g>
   <g id="patch_30">
    <path clip-path="url(#p17fae4e2bf)" d="M 111.848451 126.44874 
L 113.691922 126.44874 
L 113.691922 125.960672 
L 111.848451 125.960672 
z
" style="fill:#1f77b4;opacity:0.5;"/>
   </g>
   <g id="patch_31">
    <path clip-path="url(#p17fae4e2bf)" d="M 114.15279 126.44874 
L 115.996262 126.44874 
L 115.996262 126.44874 
L 114.15279 126.44874 
z
" style="fill:#1f77b4;opacity:0.5;"/>
   </g>
   <g id="patch_32">
    <path clip-path="url(#p17fae4e2bf)" d="M 116.45713 126.44874 
L 118.300602 126.44874 
L 118.300602 124.984536 
L 116.45713 124.984536 
z
" style="fill:#1f77b4;opacity:0.5;"/>
   </g>
   <g id="patch_33">
    <path clip-path="url(#p17fae4e2bf)" d="M 118.76147 126.44874 
L 120.604942 126.44874 
L 120.604942 124.496468 
L 118.76147 124.496468 
z
" style="fill:#1f77b4;opacity:0.5;"/>
   </g>
   <g id="patch_34">
    <path clip-path="url(#p17fae4e2bf)" d="M 121.06581 126.44874 
L 122.909281 126.44874 
L 122.909281 125.472604 
L 121.06581 125.472604 
z
" style="fill:#1f77b4;opacity:0.5;"/>
   </g>
   <g id="patch_35">
    <path clip-path="url(#p17fae4e2bf)" d="M 123.370149 126.44874 
L 125.213621 126.44874 
L 125.213621 125.960672 
L 123.370149 125.960672 
z
" style="fill:#1f77b4;opacity:0.5;"/>
   </g>
   <g id="patch_36">
    <path clip-path="url(#p17fae4e2bf)" d="M 125.674489 126.44874 
L 127.517961 126.44874 
L 127.517961 124.0084 
L 125.674489 124.0084 
z
" style="fill:#1f77b4;opacity:0.5;"/>
   </g>
   <g id="patch_37">
    <path clip-path="url(#p17fae4e2bf)" d="M 127.978829 126.44874 
L 129.822301 126.44874 
L 129.822301 125.472604 
L 127.978829 125.472604 
z
" style="fill:#1f77b4;opacity:0.5;"/>
   </g>
   <g id="patch_38">
    <path clip-path="url(#p17fae4e2bf)" d="M 130.283169 126.44874 
L 132.12664 126.44874 
L 132.12664 120.591924 
L 130.283169 120.591924 
z
" style="fill:#1f77b4;opacity:0.5;"/>
   </g>
   <g id="patch_39">
    <path clip-path="url(#p17fae4e2bf)" d="M 132.587508 126.44874 
L 134.43098 126.44874 
L 134.43098 121.56806 
L 132.587508 121.56806 
z
" style="fill:#1f77b4;opacity:0.5;"/>
   </g>
   <g id="patch_40">
    <path clip-path="url(#p17fae4e2bf)" d="M 134.891848 126.44874 
L 136.73532 126.44874 
L 136.73532 120.103856 
L 134.891848 120.103856 
z
" style="fill:#1f77b4;opacity:0.5;"/>
   </g>
   <g id="patch_41">
    <path clip-path="url(#p17fae4e2bf)" d="M 137.196188 126.44874 
L 139.03966 126.44874 
L 139.03966 124.496468 
L 137.196188 124.496468 
z
" style="fill:#1f77b4;opacity:0.5;"/>
   </g>
   <g id="patch_42">
    <path clip-path="url(#p17fae4e2bf)" d="M 139.500528 126.44874 
L 141.343999 126.44874 
L 141.343999 123.520332 
L 139.500528 123.520332 
z
" style="fill:#1f77b4;opacity:0.5;"/>
   </g>
   <g id="patch_43">
    <path clip-path="url(#p17fae4e2bf)" d="M 141.804867 126.44874 
L 143.648339 126.44874 
L 143.648339 116.687381 
L 141.804867 116.687381 
z
" style="fill:#1f77b4;opacity:0.5;"/>
   </g>
   <g id="patch_44">
    <path clip-path="url(#p17fae4e2bf)" d="M 144.109207 126.44874 
L 145.952679 126.44874 
L 145.952679 118.151584 
L 144.109207 118.151584 
z
" style="fill:#1f77b4;opacity:0.5;"/>
   </g>
   <g id="patch_45">
    <path clip-path="url(#p17fae4e2bf)" d="M 146.413547 126.44874 
L 148.257019 126.44874 
L 148.257019 98.140797 
L 146.413547 98.140797 
z
" style="fill:#1f77b4;opacity:0.5;"/>
   </g>
   <g id="patch_46">
    <path clip-path="url(#p17fae4e2bf)" d="M 148.717886 126.44874 
L 150.561358 126.44874 
L 150.561358 108.878293 
L 148.717886 108.878293 
z
" style="fill:#1f77b4;opacity:0.5;"/>
   </g>
   <g id="patch_47">
    <path clip-path="url(#p17fae4e2bf)" d="M 151.022226 126.44874 
L 152.865698 126.44874 
L 152.865698 107.902157 
L 151.022226 107.902157 
z
" style="fill:#1f77b4;opacity:0.5;"/>
   </g>
   <g id="patch_48">
    <path clip-path="url(#p17fae4e2bf)" d="M 153.326566 126.44874 
L 155.170038 126.44874 
L 155.170038 115.711245 
L 153.326566 115.711245 
z
" style="fill:#1f77b4;opacity:0.5;"/>
   </g>
   <g id="patch_49">
    <path clip-path="url(#p17fae4e2bf)" d="M 155.630906 126.44874 
L 157.474377 126.44874 
L 157.474377 107.902157 
L 155.630906 107.902157 
z
" style="fill:#1f77b4;opacity:0.5;"/>
   </g>
   <g id="patch_50">
    <path clip-path="url(#p17fae4e2bf)" d="M 157.935245 126.44874 
L 159.778717 126.44874 
L 159.778717 88.379438 
L 157.935245 88.379438 
z
" style="fill:#1f77b4;opacity:0.5;"/>
   </g>
   <g id="patch_51">
    <path clip-path="url(#p17fae4e2bf)" d="M 160.239585 126.44874 
L 162.083057 126.44874 
L 162.083057 124.0084 
L 160.239585 124.0084 
z
" style="fill:#1f77b4;opacity:0.5;"/>
   </g>
   <g id="patch_52">
    <path clip-path="url(#p17fae4e2bf)" d="M 162.543925 126.44874 
L 164.387397 126.44874 
L 164.387397 100.093069 
L 162.543925 100.093069 
z
" style="fill:#1f77b4;opacity:0.5;"/>
   </g>
   <g id="patch_53">
    <path clip-path="url(#p17fae4e2bf)" d="M 164.848265 126.44874 
L 166.691736 126.44874 
L 166.691736 101.069205 
L 164.848265 101.069205 
z
" style="fill:#1f77b4;opacity:0.5;"/>
   </g>
   <g id="patch_54">
    <path clip-path="url(#p17fae4e2bf)" d="M 167.152604 126.44874 
L 168.996076 126.44874 
L 168.996076 99.116933 
L 167.152604 99.116933 
z
" style="fill:#1f77b4;opacity:0.5;"/>
   </g>
   <g id="patch_55">
    <path clip-path="url(#p17fae4e2bf)" d="M 169.456944 126.44874 
L 171.300416 126.44874 
L 171.300416 117.175449 
L 169.456944 117.175449 
z
" style="fill:#1f77b4;opacity:0.5;"/>
   </g>
   <g id="patch_56">
    <path clip-path="url(#p17fae4e2bf)" d="M 171.761284 126.44874 
L 173.604756 126.44874 
L 173.604756 114.247041 
L 171.761284 114.247041 
z
" style="fill:#1f77b4;opacity:0.5;"/>
   </g>
   <g id="patch_57">
    <path clip-path="url(#p17fae4e2bf)" d="M 174.065624 126.44874 
L 175.909095 126.44874 
L 175.909095 98.628865 
L 174.065624 98.628865 
z
" style="fill:#1f77b4;opacity:0.5;"/>
   </g>
   <g id="patch_58">
    <path clip-path="url(#p17fae4e2bf)" d="M 176.369963 126.44874 
L 178.213435 126.44874 
L 178.213435 95.212389 
L 176.369963 95.212389 
z
" style="fill:#1f77b4;opacity:0.5;"/>
   </g>
   <g id="patch_59">
    <path clip-path="url(#p17fae4e2bf)" d="M 178.674303 126.44874 
L 180.517775 126.44874 
L 180.517775 101.557273 
L 178.674303 101.557273 
z
" style="fill:#1f77b4;opacity:0.5;"/>
   </g>
   <g id="patch_60">
    <path clip-path="url(#p17fae4e2bf)" d="M 180.978643 126.44874 
L 182.822115 126.44874 
L 182.822115 102.533409 
L 180.978643 102.533409 
z
" style="fill:#1f77b4;opacity:0.5;"/>
   </g>
   <g id="patch_61">
    <path clip-path="url(#p17fae4e2bf)" d="M 183.282983 126.44874 
L 185.126454 126.44874 
L 185.126454 113.758973 
L 183.282983 113.758973 
z
" style="fill:#1f77b4;opacity:0.5;"/>
   </g>
   <g id="patch_62">
    <path clip-path="url(#p17fae4e2bf)" d="M 185.587322 126.44874 
L 187.430794 126.44874 
L 187.430794 113.270905 
L 185.587322 113.270905 
z
" style="fill:#1f77b4;opacity:0.5;"/>
   </g>
   <g id="patch_63">
    <path clip-path="url(#p17fae4e2bf)" d="M 187.891662 126.44874 
L 189.735134 126.44874 
L 189.735134 126.44874 
L 187.891662 126.44874 
z
" style="fill:#1f77b4;opacity:0.5;"/>
   </g>
   <g id="patch_64">
    <path clip-path="url(#p17fae4e2bf)" d="M 190.196002 126.44874 
L 192.039474 126.44874 
L 192.039474 105.949885 
L 190.196002 105.949885 
z
" style="fill:#1f77b4;opacity:0.5;"/>
   </g>
   <g id="patch_65">
    <path clip-path="url(#p17fae4e2bf)" d="M 192.500341 126.44874 
L 194.343813 126.44874 
L 194.343813 90.819778 
L 192.500341 90.819778 
z
" style="fill:#1f77b4;opacity:0.5;"/>
   </g>
   <g id="patch_66">
    <path clip-path="url(#p17fae4e2bf)" d="M 194.804681 126.44874 
L 196.648153 126.44874 
L 196.648153 105.461817 
L 194.804681 105.461817 
z
" style="fill:#1f77b4;opacity:0.5;"/>
   </g>
   <g id="patch_67">
    <path clip-path="url(#p17fae4e2bf)" d="M 197.109021 126.44874 
L 198.952493 126.44874 
L 198.952493 105.949885 
L 197.109021 105.949885 
z
" style="fill:#1f77b4;opacity:0.5;"/>
   </g>
   <g id="patch_68">
    <path clip-path="url(#p17fae4e2bf)" d="M 199.413361 126.44874 
L 201.256832 126.44874 
L 201.256832 101.069205 
L 199.413361 101.069205 
z
" style="fill:#1f77b4;opacity:0.5;"/>
   </g>
   <g id="matplotlib.axis_1">
    <g id="xtick_1">
     <g id="line2d_1">
      <defs>
       <path d="M 0 0 
L 0 3.5 
" id="md87689ba6f" style="stroke:#000000;stroke-width:0.8;"/>
      </defs>
      <g>
       <use style="stroke:#000000;stroke-width:0.8;" x="200.335097" xlink:href="#md87689ba6f" y="126.44874"/>
      </g>
     </g>
     <g id="text_1">
      <!-- 19 Apr -->
      <defs>
       <path d="M 12.40625 8.296875 
L 28.515625 8.296875 
L 28.515625 63.921875 
L 10.984375 60.40625 
L 10.984375 69.390625 
L 28.421875 72.90625 
L 38.28125 72.90625 
L 38.28125 8.296875 
L 54.390625 8.296875 
L 54.390625 0 
L 12.40625 0 
z
" id="DejaVuSans-49"/>
       <path d="M 10.984375 1.515625 
L 10.984375 10.5 
Q 14.703125 8.734375 18.5 7.8125 
Q 22.3125 6.890625 25.984375 6.890625 
Q 35.75 6.890625 40.890625 13.453125 
Q 46.046875 20.015625 46.78125 33.40625 
Q 43.953125 29.203125 39.59375 26.953125 
Q 35.25 24.703125 29.984375 24.703125 
Q 19.046875 24.703125 12.671875 31.3125 
Q 6.296875 37.9375 6.296875 49.421875 
Q 6.296875 60.640625 12.9375 67.421875 
Q 19.578125 74.21875 30.609375 74.21875 
Q 43.265625 74.21875 49.921875 64.515625 
Q 56.59375 54.828125 56.59375 36.375 
Q 56.59375 19.140625 48.40625 8.859375 
Q 40.234375 -1.421875 26.421875 -1.421875 
Q 22.703125 -1.421875 18.890625 -0.6875 
Q 15.09375 0.046875 10.984375 1.515625 
z
M 30.609375 32.421875 
Q 37.25 32.421875 41.125 36.953125 
Q 45.015625 41.5 45.015625 49.421875 
Q 45.015625 57.28125 41.125 61.84375 
Q 37.25 66.40625 30.609375 66.40625 
Q 23.96875 66.40625 20.09375 61.84375 
Q 16.21875 57.28125 16.21875 49.421875 
Q 16.21875 41.5 20.09375 36.953125 
Q 23.96875 32.421875 30.609375 32.421875 
z
" id="DejaVuSans-57"/>
       <path id="DejaVuSans-32"/>
       <path d="M 34.1875 63.1875 
L 20.796875 26.90625 
L 47.609375 26.90625 
z
M 28.609375 72.90625 
L 39.796875 72.90625 
L 67.578125 0 
L 57.328125 0 
L 50.6875 18.703125 
L 17.828125 18.703125 
L 11.1875 0 
L 0.78125 0 
z
" id="DejaVuSans-65"/>
       <path d="M 18.109375 8.203125 
L 18.109375 -20.796875 
L 9.078125 -20.796875 
L 9.078125 54.6875 
L 18.109375 54.6875 
L 18.109375 46.390625 
Q 20.953125 51.265625 25.265625 53.625 
Q 29.59375 56 35.59375 56 
Q 45.5625 56 51.78125 48.09375 
Q 58.015625 40.1875 58.015625 27.296875 
Q 58.015625 14.40625 51.78125 6.484375 
Q 45.5625 -1.421875 35.59375 -1.421875 
Q 29.59375 -1.421875 25.265625 0.953125 
Q 20.953125 3.328125 18.109375 8.203125 
z
M 48.6875 27.296875 
Q 48.6875 37.203125 44.609375 42.84375 
Q 40.53125 48.484375 33.40625 48.484375 
Q 26.265625 48.484375 22.1875 42.84375 
Q 18.109375 37.203125 18.109375 27.296875 
Q 18.109375 17.390625 22.1875 11.75 
Q 26.265625 6.109375 33.40625 6.109375 
Q 40.53125 6.109375 44.609375 11.75 
Q 48.6875 17.390625 48.6875 27.296875 
z
" id="DejaVuSans-112"/>
       <path d="M 41.109375 46.296875 
Q 39.59375 47.171875 37.8125 47.578125 
Q 36.03125 48 33.890625 48 
Q 26.265625 48 22.1875 43.046875 
Q 18.109375 38.09375 18.109375 28.8125 
L 18.109375 0 
L 9.078125 0 
L 9.078125 54.6875 
L 18.109375 54.6875 
L 18.109375 46.1875 
Q 20.953125 51.171875 25.484375 53.578125 
Q 30.03125 56 36.53125 56 
Q 37.453125 56 38.578125 55.875 
Q 39.703125 55.765625 41.0625 55.515625 
z
" id="DejaVuSans-114"/>
      </defs>
      <g transform="translate(202.542597 160.01124)rotate(-90)scale(0.08 -0.08)">
       <use xlink:href="#DejaVuSans-49"/>
       <use x="63.623047" xlink:href="#DejaVuSans-57"/>
       <use x="127.246094" xlink:href="#DejaVuSans-32"/>
       <use x="159.033203" xlink:href="#DejaVuSans-65"/>
       <use x="227.441406" xlink:href="#DejaVuSans-112"/>
       <use x="290.917969" xlink:href="#DejaVuSans-114"/>
      </g>
     </g>
    </g>
    <g id="xtick_2">
     <g id="line2d_2">
      <g>
       <use style="stroke:#000000;stroke-width:0.8;" x="184.204718" xlink:href="#md87689ba6f" y="126.44874"/>
      </g>
     </g>
     <g id="text_2">
      <!-- 12 Apr -->
      <defs>
       <path d="M 19.1875 8.296875 
L 53.609375 8.296875 
L 53.609375 0 
L 7.328125 0 
L 7.328125 8.296875 
Q 12.9375 14.109375 22.625 23.890625 
Q 32.328125 33.6875 34.8125 36.53125 
Q 39.546875 41.84375 41.421875 45.53125 
Q 43.3125 49.21875 43.3125 52.78125 
Q 43.3125 58.59375 39.234375 62.25 
Q 35.15625 65.921875 28.609375 65.921875 
Q 23.96875 65.921875 18.8125 64.3125 
Q 13.671875 62.703125 7.8125 59.421875 
L 7.8125 69.390625 
Q 13.765625 71.78125 18.9375 73 
Q 24.125 74.21875 28.421875 74.21875 
Q 39.75 74.21875 46.484375 68.546875 
Q 53.21875 62.890625 53.21875 53.421875 
Q 53.21875 48.921875 51.53125 44.890625 
Q 49.859375 40.875 45.40625 35.40625 
Q 44.1875 33.984375 37.640625 27.21875 
Q 31.109375 20.453125 19.1875 8.296875 
z
" id="DejaVuSans-50"/>
      </defs>
      <g transform="translate(186.412218 160.01124)rotate(-90)scale(0.08 -0.08)">
       <use xlink:href="#DejaVuSans-49"/>
       <use x="63.623047" xlink:href="#DejaVuSans-50"/>
       <use x="127.246094" xlink:href="#DejaVuSans-32"/>
       <use x="159.033203" xlink:href="#DejaVuSans-65"/>
       <use x="227.441406" xlink:href="#DejaVuSans-112"/>
       <use x="290.917969" xlink:href="#DejaVuSans-114"/>
      </g>
     </g>
    </g>
    <g id="xtick_3">
     <g id="line2d_3">
      <g>
       <use style="stroke:#000000;stroke-width:0.8;" x="168.07434" xlink:href="#md87689ba6f" y="126.44874"/>
      </g>
     </g>
     <g id="text_3">
      <!-- 5 Apr -->
      <defs>
       <path d="M 10.796875 72.90625 
L 49.515625 72.90625 
L 49.515625 64.59375 
L 19.828125 64.59375 
L 19.828125 46.734375 
Q 21.96875 47.46875 24.109375 47.828125 
Q 26.265625 48.1875 28.421875 48.1875 
Q 40.625 48.1875 47.75 41.5 
Q 54.890625 34.8125 54.890625 23.390625 
Q 54.890625 11.625 47.5625 5.09375 
Q 40.234375 -1.421875 26.90625 -1.421875 
Q 22.3125 -1.421875 17.546875 -0.640625 
Q 12.796875 0.140625 7.71875 1.703125 
L 7.71875 11.625 
Q 12.109375 9.234375 16.796875 8.0625 
Q 21.484375 6.890625 26.703125 6.890625 
Q 35.15625 6.890625 40.078125 11.328125 
Q 45.015625 15.765625 45.015625 23.390625 
Q 45.015625 31 40.078125 35.4375 
Q 35.15625 39.890625 26.703125 39.890625 
Q 22.75 39.890625 18.8125 39.015625 
Q 14.890625 38.140625 10.796875 36.28125 
z
" id="DejaVuSans-53"/>
      </defs>
      <g transform="translate(170.28184 154.92124)rotate(-90)scale(0.08 -0.08)">
       <use xlink:href="#DejaVuSans-53"/>
       <use x="63.623047" xlink:href="#DejaVuSans-32"/>
       <use x="95.410156" xlink:href="#DejaVuSans-65"/>
       <use x="163.818359" xlink:href="#DejaVuSans-112"/>
       <use x="227.294922" xlink:href="#DejaVuSans-114"/>
      </g>
     </g>
    </g>
    <g id="xtick_4">
     <g id="line2d_4">
      <g>
       <use style="stroke:#000000;stroke-width:0.8;" x="151.943962" xlink:href="#md87689ba6f" y="126.44874"/>
      </g>
     </g>
     <g id="text_4">
      <!-- 29 Mar -->
      <defs>
       <path d="M 9.8125 72.90625 
L 24.515625 72.90625 
L 43.109375 23.296875 
L 61.8125 72.90625 
L 76.515625 72.90625 
L 76.515625 0 
L 66.890625 0 
L 66.890625 64.015625 
L 48.09375 14.015625 
L 38.1875 14.015625 
L 19.390625 64.015625 
L 19.390625 0 
L 9.8125 0 
z
" id="DejaVuSans-77"/>
       <path d="M 34.28125 27.484375 
Q 23.390625 27.484375 19.1875 25 
Q 14.984375 22.515625 14.984375 16.5 
Q 14.984375 11.71875 18.140625 8.90625 
Q 21.296875 6.109375 26.703125 6.109375 
Q 34.1875 6.109375 38.703125 11.40625 
Q 43.21875 16.703125 43.21875 25.484375 
L 43.21875 27.484375 
z
M 52.203125 31.203125 
L 52.203125 0 
L 43.21875 0 
L 43.21875 8.296875 
Q 40.140625 3.328125 35.546875 0.953125 
Q 30.953125 -1.421875 24.3125 -1.421875 
Q 15.921875 -1.421875 10.953125 3.296875 
Q 6 8.015625 6 15.921875 
Q 6 25.140625 12.171875 29.828125 
Q 18.359375 34.515625 30.609375 34.515625 
L 43.21875 34.515625 
L 43.21875 35.40625 
Q 43.21875 41.609375 39.140625 45 
Q 35.0625 48.390625 27.6875 48.390625 
Q 23 48.390625 18.546875 47.265625 
Q 14.109375 46.140625 10.015625 43.890625 
L 10.015625 52.203125 
Q 14.9375 54.109375 19.578125 55.046875 
Q 24.21875 56 28.609375 56 
Q 40.484375 56 46.34375 49.84375 
Q 52.203125 43.703125 52.203125 31.203125 
z
" id="DejaVuSans-97"/>
      </defs>
      <g transform="translate(154.151462 161.26499)rotate(-90)scale(0.08 -0.08)">
       <use xlink:href="#DejaVuSans-50"/>
       <use x="63.623047" xlink:href="#DejaVuSans-57"/>
       <use x="127.246094" xlink:href="#DejaVuSans-32"/>
       <use x="159.033203" xlink:href="#DejaVuSans-77"/>
       <use x="245.3125" xlink:href="#DejaVuSans-97"/>
       <use x="306.591797" xlink:href="#DejaVuSans-114"/>
      </g>
     </g>
    </g>
    <g id="xtick_5">
     <g id="line2d_5">
      <g>
       <use style="stroke:#000000;stroke-width:0.8;" x="135.813584" xlink:href="#md87689ba6f" y="126.44874"/>
      </g>
     </g>
     <g id="text_5">
      <!-- 22 Mar -->
      <g transform="translate(138.021084 161.26499)rotate(-90)scale(0.08 -0.08)">
       <use xlink:href="#DejaVuSans-50"/>
       <use x="63.623047" xlink:href="#DejaVuSans-50"/>
       <use x="127.246094" xlink:href="#DejaVuSans-32"/>
       <use x="159.033203" xlink:href="#DejaVuSans-77"/>
       <use x="245.3125" xlink:href="#DejaVuSans-97"/>
       <use x="306.591797" xlink:href="#DejaVuSans-114"/>
      </g>
     </g>
    </g>
    <g id="xtick_6">
     <g id="line2d_6">
      <g>
       <use style="stroke:#000000;stroke-width:0.8;" x="119.683206" xlink:href="#md87689ba6f" y="126.44874"/>
      </g>
     </g>
     <g id="text_6">
      <!-- 15 Mar -->
      <g transform="translate(121.890706 161.26499)rotate(-90)scale(0.08 -0.08)">
       <use xlink:href="#DejaVuSans-49"/>
       <use x="63.623047" xlink:href="#DejaVuSans-53"/>
       <use x="127.246094" xlink:href="#DejaVuSans-32"/>
       <use x="159.033203" xlink:href="#DejaVuSans-77"/>
       <use x="245.3125" xlink:href="#DejaVuSans-97"/>
       <use x="306.591797" xlink:href="#DejaVuSans-114"/>
      </g>
     </g>
    </g>
    <g id="xtick_7">
     <g id="line2d_7">
      <g>
       <use style="stroke:#000000;stroke-width:0.8;" x="103.552828" xlink:href="#md87689ba6f" y="126.44874"/>
      </g>
     </g>
     <g id="text_7">
      <!-- 8 Mar -->
      <defs>
       <path d="M 31.78125 34.625 
Q 24.75 34.625 20.71875 30.859375 
Q 16.703125 27.09375 16.703125 20.515625 
Q 16.703125 13.921875 20.71875 10.15625 
Q 24.75 6.390625 31.78125 6.390625 
Q 38.8125 6.390625 42.859375 10.171875 
Q 46.921875 13.96875 46.921875 20.515625 
Q 46.921875 27.09375 42.890625 30.859375 
Q 38.875 34.625 31.78125 34.625 
z
M 21.921875 38.8125 
Q 15.578125 40.375 12.03125 44.71875 
Q 8.5 49.078125 8.5 55.328125 
Q 8.5 64.0625 14.71875 69.140625 
Q 20.953125 74.21875 31.78125 74.21875 
Q 42.671875 74.21875 48.875 69.140625 
Q 55.078125 64.0625 55.078125 55.328125 
Q 55.078125 49.078125 51.53125 44.71875 
Q 48 40.375 41.703125 38.8125 
Q 48.828125 37.15625 52.796875 32.3125 
Q 56.78125 27.484375 56.78125 20.515625 
Q 56.78125 9.90625 50.3125 4.234375 
Q 43.84375 -1.421875 31.78125 -1.421875 
Q 19.734375 -1.421875 13.25 4.234375 
Q 6.78125 9.90625 6.78125 20.515625 
Q 6.78125 27.484375 10.78125 32.3125 
Q 14.796875 37.15625 21.921875 38.8125 
z
M 18.3125 54.390625 
Q 18.3125 48.734375 21.84375 45.5625 
Q 25.390625 42.390625 31.78125 42.390625 
Q 38.140625 42.390625 41.71875 45.5625 
Q 45.3125 48.734375 45.3125 54.390625 
Q 45.3125 60.0625 41.71875 63.234375 
Q 38.140625 66.40625 31.78125 66.40625 
Q 25.390625 66.40625 21.84375 63.234375 
Q 18.3125 60.0625 18.3125 54.390625 
z
" id="DejaVuSans-56"/>
      </defs>
      <g transform="translate(105.760328 156.17499)rotate(-90)scale(0.08 -0.08)">
       <use xlink:href="#DejaVuSans-56"/>
       <use x="63.623047" xlink:href="#DejaVuSans-32"/>
       <use x="95.410156" xlink:href="#DejaVuSans-77"/>
       <use x="181.689453" xlink:href="#DejaVuSans-97"/>
       <use x="242.96875" xlink:href="#DejaVuSans-114"/>
      </g>
     </g>
    </g>
    <g id="xtick_8">
     <g id="line2d_8">
      <g>
       <use style="stroke:#000000;stroke-width:0.8;" x="87.422449" xlink:href="#md87689ba6f" y="126.44874"/>
      </g>
     </g>
     <g id="text_8">
      <!-- 1 Mar -->
      <g transform="translate(89.629949 156.17499)rotate(-90)scale(0.08 -0.08)">
       <use xlink:href="#DejaVuSans-49"/>
       <use x="63.623047" xlink:href="#DejaVuSans-32"/>
       <use x="95.410156" xlink:href="#DejaVuSans-77"/>
       <use x="181.689453" xlink:href="#DejaVuSans-97"/>
       <use x="242.96875" xlink:href="#DejaVuSans-114"/>
      </g>
     </g>
    </g>
    <g id="xtick_9">
     <g id="line2d_9">
      <g>
       <use style="stroke:#000000;stroke-width:0.8;" x="71.292071" xlink:href="#md87689ba6f" y="126.44874"/>
      </g>
     </g>
     <g id="text_9">
      <!-- 23 Feb -->
      <defs>
       <path d="M 40.578125 39.3125 
Q 47.65625 37.796875 51.625 33 
Q 55.609375 28.21875 55.609375 21.1875 
Q 55.609375 10.40625 48.1875 4.484375 
Q 40.765625 -1.421875 27.09375 -1.421875 
Q 22.515625 -1.421875 17.65625 -0.515625 
Q 12.796875 0.390625 7.625 2.203125 
L 7.625 11.71875 
Q 11.71875 9.328125 16.59375 8.109375 
Q 21.484375 6.890625 26.8125 6.890625 
Q 36.078125 6.890625 40.9375 10.546875 
Q 45.796875 14.203125 45.796875 21.1875 
Q 45.796875 27.640625 41.28125 31.265625 
Q 36.765625 34.90625 28.71875 34.90625 
L 20.21875 34.90625 
L 20.21875 43.015625 
L 29.109375 43.015625 
Q 36.375 43.015625 40.234375 45.921875 
Q 44.09375 48.828125 44.09375 54.296875 
Q 44.09375 59.90625 40.109375 62.90625 
Q 36.140625 65.921875 28.71875 65.921875 
Q 24.65625 65.921875 20.015625 65.03125 
Q 15.375 64.15625 9.8125 62.3125 
L 9.8125 71.09375 
Q 15.4375 72.65625 20.34375 73.4375 
Q 25.25 74.21875 29.59375 74.21875 
Q 40.828125 74.21875 47.359375 69.109375 
Q 53.90625 64.015625 53.90625 55.328125 
Q 53.90625 49.265625 50.4375 45.09375 
Q 46.96875 40.921875 40.578125 39.3125 
z
" id="DejaVuSans-51"/>
       <path d="M 9.8125 72.90625 
L 51.703125 72.90625 
L 51.703125 64.59375 
L 19.671875 64.59375 
L 19.671875 43.109375 
L 48.578125 43.109375 
L 48.578125 34.8125 
L 19.671875 34.8125 
L 19.671875 0 
L 9.8125 0 
z
" id="DejaVuSans-70"/>
       <path d="M 56.203125 29.59375 
L 56.203125 25.203125 
L 14.890625 25.203125 
Q 15.484375 15.921875 20.484375 11.0625 
Q 25.484375 6.203125 34.421875 6.203125 
Q 39.59375 6.203125 44.453125 7.46875 
Q 49.3125 8.734375 54.109375 11.28125 
L 54.109375 2.78125 
Q 49.265625 0.734375 44.1875 -0.34375 
Q 39.109375 -1.421875 33.890625 -1.421875 
Q 20.796875 -1.421875 13.15625 6.1875 
Q 5.515625 13.8125 5.515625 26.8125 
Q 5.515625 40.234375 12.765625 48.109375 
Q 20.015625 56 32.328125 56 
Q 43.359375 56 49.78125 48.890625 
Q 56.203125 41.796875 56.203125 29.59375 
z
M 47.21875 32.234375 
Q 47.125 39.59375 43.09375 43.984375 
Q 39.0625 48.390625 32.421875 48.390625 
Q 24.90625 48.390625 20.390625 44.140625 
Q 15.875 39.890625 15.1875 32.171875 
z
" id="DejaVuSans-101"/>
       <path d="M 48.6875 27.296875 
Q 48.6875 37.203125 44.609375 42.84375 
Q 40.53125 48.484375 33.40625 48.484375 
Q 26.265625 48.484375 22.1875 42.84375 
Q 18.109375 37.203125 18.109375 27.296875 
Q 18.109375 17.390625 22.1875 11.75 
Q 26.265625 6.109375 33.40625 6.109375 
Q 40.53125 6.109375 44.609375 11.75 
Q 48.6875 17.390625 48.6875 27.296875 
z
M 18.109375 46.390625 
Q 20.953125 51.265625 25.265625 53.625 
Q 29.59375 56 35.59375 56 
Q 45.5625 56 51.78125 48.09375 
Q 58.015625 40.1875 58.015625 27.296875 
Q 58.015625 14.40625 51.78125 6.484375 
Q 45.5625 -1.421875 35.59375 -1.421875 
Q 29.59375 -1.421875 25.265625 0.953125 
Q 20.953125 3.328125 18.109375 8.203125 
L 18.109375 0 
L 9.078125 0 
L 9.078125 75.984375 
L 18.109375 75.984375 
z
" id="DejaVuSans-98"/>
      </defs>
      <g transform="translate(73.499571 160.33374)rotate(-90)scale(0.08 -0.08)">
       <use xlink:href="#DejaVuSans-50"/>
       <use x="63.623047" xlink:href="#DejaVuSans-51"/>
       <use x="127.246094" xlink:href="#DejaVuSans-32"/>
       <use x="159.033203" xlink:href="#DejaVuSans-70"/>
       <use x="211.052734" xlink:href="#DejaVuSans-101"/>
       <use x="272.576172" xlink:href="#DejaVuSans-98"/>
      </g>
     </g>
    </g>
    <g id="xtick_10">
     <g id="line2d_10">
      <g>
       <use style="stroke:#000000;stroke-width:0.8;" x="55.161693" xlink:href="#md87689ba6f" y="126.44874"/>
      </g>
     </g>
     <g id="text_10">
      <!-- 16 Feb -->
      <defs>
       <path d="M 33.015625 40.375 
Q 26.375 40.375 22.484375 35.828125 
Q 18.609375 31.296875 18.609375 23.390625 
Q 18.609375 15.53125 22.484375 10.953125 
Q 26.375 6.390625 33.015625 6.390625 
Q 39.65625 6.390625 43.53125 10.953125 
Q 47.40625 15.53125 47.40625 23.390625 
Q 47.40625 31.296875 43.53125 35.828125 
Q 39.65625 40.375 33.015625 40.375 
z
M 52.59375 71.296875 
L 52.59375 62.3125 
Q 48.875 64.0625 45.09375 64.984375 
Q 41.3125 65.921875 37.59375 65.921875 
Q 27.828125 65.921875 22.671875 59.328125 
Q 17.53125 52.734375 16.796875 39.40625 
Q 19.671875 43.65625 24.015625 45.921875 
Q 28.375 48.1875 33.59375 48.1875 
Q 44.578125 48.1875 50.953125 41.515625 
Q 57.328125 34.859375 57.328125 23.390625 
Q 57.328125 12.15625 50.6875 5.359375 
Q 44.046875 -1.421875 33.015625 -1.421875 
Q 20.359375 -1.421875 13.671875 8.265625 
Q 6.984375 17.96875 6.984375 36.375 
Q 6.984375 53.65625 15.1875 63.9375 
Q 23.390625 74.21875 37.203125 74.21875 
Q 40.921875 74.21875 44.703125 73.484375 
Q 48.484375 72.75 52.59375 71.296875 
z
" id="DejaVuSans-54"/>
      </defs>
      <g transform="translate(57.369193 160.33374)rotate(-90)scale(0.08 -0.08)">
       <use xlink:href="#DejaVuSans-49"/>
       <use x="63.623047" xlink:href="#DejaVuSans-54"/>
       <use x="127.246094" xlink:href="#DejaVuSans-32"/>
       <use x="159.033203" xlink:href="#DejaVuSans-70"/>
       <use x="211.052734" xlink:href="#DejaVuSans-101"/>
       <use x="272.576172" xlink:href="#DejaVuSans-98"/>
      </g>
     </g>
    </g>
   </g>
   <g id="matplotlib.axis_2">
    <g id="ytick_1">
     <g id="line2d_11">
      <defs>
       <path d="M 0 0 
L -3.5 0 
" id="m50dee1a434" style="stroke:#000000;stroke-width:0.8;"/>
      </defs>
      <g>
       <use style="stroke:#000000;stroke-width:0.8;" x="42.05" xlink:href="#m50dee1a434" y="126.44874"/>
      </g>
     </g>
     <g id="text_11">
      <!-- 0 -->
      <defs>
       <path d="M 31.78125 66.40625 
Q 24.171875 66.40625 20.328125 58.90625 
Q 16.5 51.421875 16.5 36.375 
Q 16.5 21.390625 20.328125 13.890625 
Q 24.171875 6.390625 31.78125 6.390625 
Q 39.453125 6.390625 43.28125 13.890625 
Q 47.125 21.390625 47.125 36.375 
Q 47.125 51.421875 43.28125 58.90625 
Q 39.453125 66.40625 31.78125 66.40625 
z
M 31.78125 74.21875 
Q 44.046875 74.21875 50.515625 64.515625 
Q 56.984375 54.828125 56.984375 36.375 
Q 56.984375 17.96875 50.515625 8.265625 
Q 44.046875 -1.421875 31.78125 -1.421875 
Q 19.53125 -1.421875 13.0625 8.265625 
Q 6.59375 17.96875 6.59375 36.375 
Q 6.59375 54.828125 13.0625 64.515625 
Q 19.53125 74.21875 31.78125 74.21875 
z
" id="DejaVuSans-48"/>
      </defs>
      <g transform="translate(29.96 129.488115)scale(0.08 -0.08)">
       <use xlink:href="#DejaVuSans-48"/>
      </g>
     </g>
    </g>
    <g id="ytick_2">
     <g id="line2d_12">
      <g>
       <use style="stroke:#000000;stroke-width:0.8;" x="42.05" xlink:href="#m50dee1a434" y="102.045341"/>
      </g>
     </g>
     <g id="text_12">
      <!-- 50 -->
      <g transform="translate(24.87 105.084716)scale(0.08 -0.08)">
       <use xlink:href="#DejaVuSans-53"/>
       <use x="63.623047" xlink:href="#DejaVuSans-48"/>
      </g>
     </g>
    </g>
    <g id="ytick_3">
     <g id="line2d_13">
      <g>
       <use style="stroke:#000000;stroke-width:0.8;" x="42.05" xlink:href="#m50dee1a434" y="77.641942"/>
      </g>
     </g>
     <g id="text_13">
      <!-- 100 -->
      <g transform="translate(19.78 80.681317)scale(0.08 -0.08)">
       <use xlink:href="#DejaVuSans-49"/>
       <use x="63.623047" xlink:href="#DejaVuSans-48"/>
       <use x="127.246094" xlink:href="#DejaVuSans-48"/>
      </g>
     </g>
    </g>
    <g id="ytick_4">
     <g id="line2d_14">
      <g>
       <use style="stroke:#000000;stroke-width:0.8;" x="42.05" xlink:href="#m50dee1a434" y="53.238543"/>
      </g>
     </g>
     <g id="text_14">
      <!-- 150 -->
      <g transform="translate(19.78 56.277918)scale(0.08 -0.08)">
       <use xlink:href="#DejaVuSans-49"/>
       <use x="63.623047" xlink:href="#DejaVuSans-53"/>
       <use x="127.246094" xlink:href="#DejaVuSans-48"/>
      </g>
     </g>
    </g>
    <g id="ytick_5">
     <g id="line2d_15">
      <g>
       <use style="stroke:#000000;stroke-width:0.8;" x="42.05" xlink:href="#m50dee1a434" y="28.835144"/>
      </g>
     </g>
     <g id="text_15">
      <!-- 200 -->
      <g transform="translate(19.78 31.874519)scale(0.08 -0.08)">
       <use xlink:href="#DejaVuSans-50"/>
       <use x="63.623047" xlink:href="#DejaVuSans-48"/>
       <use x="127.246094" xlink:href="#DejaVuSans-48"/>
      </g>
     </g>
    </g>
    <g id="text_16">
     <!-- Deaths per day -->
     <defs>
      <path d="M 19.671875 64.796875 
L 19.671875 8.109375 
L 31.59375 8.109375 
Q 46.6875 8.109375 53.6875 14.9375 
Q 60.6875 21.78125 60.6875 36.53125 
Q 60.6875 51.171875 53.6875 57.984375 
Q 46.6875 64.796875 31.59375 64.796875 
z
M 9.8125 72.90625 
L 30.078125 72.90625 
Q 51.265625 72.90625 61.171875 64.09375 
Q 71.09375 55.28125 71.09375 36.53125 
Q 71.09375 17.671875 61.125 8.828125 
Q 51.171875 0 30.078125 0 
L 9.8125 0 
z
" id="DejaVuSans-68"/>
      <path d="M 18.3125 70.21875 
L 18.3125 54.6875 
L 36.8125 54.6875 
L 36.8125 47.703125 
L 18.3125 47.703125 
L 18.3125 18.015625 
Q 18.3125 11.328125 20.140625 9.421875 
Q 21.96875 7.515625 27.59375 7.515625 
L 36.8125 7.515625 
L 36.8125 0 
L 27.59375 0 
Q 17.1875 0 13.234375 3.875 
Q 9.28125 7.765625 9.28125 18.015625 
L 9.28125 47.703125 
L 2.6875 47.703125 
L 2.6875 54.6875 
L 9.28125 54.6875 
L 9.28125 70.21875 
z
" id="DejaVuSans-116"/>
      <path d="M 54.890625 33.015625 
L 54.890625 0 
L 45.90625 0 
L 45.90625 32.71875 
Q 45.90625 40.484375 42.875 44.328125 
Q 39.84375 48.1875 33.796875 48.1875 
Q 26.515625 48.1875 22.3125 43.546875 
Q 18.109375 38.921875 18.109375 30.90625 
L 18.109375 0 
L 9.078125 0 
L 9.078125 75.984375 
L 18.109375 75.984375 
L 18.109375 46.1875 
Q 21.34375 51.125 25.703125 53.5625 
Q 30.078125 56 35.796875 56 
Q 45.21875 56 50.046875 50.171875 
Q 54.890625 44.34375 54.890625 33.015625 
z
" id="DejaVuSans-104"/>
      <path d="M 44.28125 53.078125 
L 44.28125 44.578125 
Q 40.484375 46.53125 36.375 47.5 
Q 32.28125 48.484375 27.875 48.484375 
Q 21.1875 48.484375 17.84375 46.4375 
Q 14.5 44.390625 14.5 40.28125 
Q 14.5 37.15625 16.890625 35.375 
Q 19.28125 33.59375 26.515625 31.984375 
L 29.59375 31.296875 
Q 39.15625 29.25 43.1875 25.515625 
Q 47.21875 21.78125 47.21875 15.09375 
Q 47.21875 7.46875 41.1875 3.015625 
Q 35.15625 -1.421875 24.609375 -1.421875 
Q 20.21875 -1.421875 15.453125 -0.5625 
Q 10.6875 0.296875 5.421875 2 
L 5.421875 11.28125 
Q 10.40625 8.6875 15.234375 7.390625 
Q 20.0625 6.109375 24.8125 6.109375 
Q 31.15625 6.109375 34.5625 8.28125 
Q 37.984375 10.453125 37.984375 14.40625 
Q 37.984375 18.0625 35.515625 20.015625 
Q 33.0625 21.96875 24.703125 23.78125 
L 21.578125 24.515625 
Q 13.234375 26.265625 9.515625 29.90625 
Q 5.8125 33.546875 5.8125 39.890625 
Q 5.8125 47.609375 11.28125 51.796875 
Q 16.75 56 26.8125 56 
Q 31.78125 56 36.171875 55.265625 
Q 40.578125 54.546875 44.28125 53.078125 
z
" id="DejaVuSans-115"/>
      <path d="M 45.40625 46.390625 
L 45.40625 75.984375 
L 54.390625 75.984375 
L 54.390625 0 
L 45.40625 0 
L 45.40625 8.203125 
Q 42.578125 3.328125 38.25 0.953125 
Q 33.9375 -1.421875 27.875 -1.421875 
Q 17.96875 -1.421875 11.734375 6.484375 
Q 5.515625 14.40625 5.515625 27.296875 
Q 5.515625 40.1875 11.734375 48.09375 
Q 17.96875 56 27.875 56 
Q 33.9375 56 38.25 53.625 
Q 42.578125 51.265625 45.40625 46.390625 
z
M 14.796875 27.296875 
Q 14.796875 17.390625 18.875 11.75 
Q 22.953125 6.109375 30.078125 6.109375 
Q 37.203125 6.109375 41.296875 11.75 
Q 45.40625 17.390625 45.40625 27.296875 
Q 45.40625 37.203125 41.296875 42.84375 
Q 37.203125 48.484375 30.078125 48.484375 
Q 22.953125 48.484375 18.875 42.84375 
Q 14.796875 37.203125 14.796875 27.296875 
z
" id="DejaVuSans-100"/>
      <path d="M 32.171875 -5.078125 
Q 28.375 -14.84375 24.75 -17.8125 
Q 21.140625 -20.796875 15.09375 -20.796875 
L 7.90625 -20.796875 
L 7.90625 -13.28125 
L 13.1875 -13.28125 
Q 16.890625 -13.28125 18.9375 -11.515625 
Q 21 -9.765625 23.484375 -3.21875 
L 25.09375 0.875 
L 2.984375 54.6875 
L 12.5 54.6875 
L 29.59375 11.921875 
L 46.6875 54.6875 
L 56.203125 54.6875 
z
" id="DejaVuSans-121"/>
     </defs>
     <g transform="translate(14.11625 99.70937)rotate(-90)scale(0.08 -0.08)">
      <use xlink:href="#DejaVuSans-68"/>
      <use x="77.001953" xlink:href="#DejaVuSans-101"/>
      <use x="138.525391" xlink:href="#DejaVuSans-97"/>
      <use x="199.804688" xlink:href="#DejaVuSans-116"/>
      <use x="239.013672" xlink:href="#DejaVuSans-104"/>
      <use x="302.392578" xlink:href="#DejaVuSans-115"/>
      <use x="354.492188" xlink:href="#DejaVuSans-32"/>
      <use x="386.279297" xlink:href="#DejaVuSans-112"/>
      <use x="449.755859" xlink:href="#DejaVuSans-101"/>
      <use x="511.279297" xlink:href="#DejaVuSans-114"/>
      <use x="552.392578" xlink:href="#DejaVuSans-32"/>
      <use x="584.179688" xlink:href="#DejaVuSans-100"/>
      <use x="647.65625" xlink:href="#DejaVuSans-97"/>
      <use x="708.935547" xlink:href="#DejaVuSans-121"/>
     </g>
    </g>
   </g>
   <g id="line2d_16">
    <path clip-path="url(#p17fae4e2bf)" d="M 50.553014 126.44874 
L 52.857353 126.44874 
L 55.161693 126.448692 
L 57.466033 126.448531 
L 59.770373 126.448157 
L 62.074712 126.447462 
L 64.379052 126.446342 
L 66.683392 126.444709 
L 68.987732 126.44248 
L 71.292071 126.439581 
L 73.596411 126.435923 
L 75.900751 126.431302 
L 78.20509 126.425534 
L 80.50943 126.418326 
L 82.81377 126.4094 
L 85.11811 126.398428 
L 87.422449 126.38494 
L 89.726789 126.368419 
L 92.031129 126.348076 
L 94.335469 126.323161 
L 96.639808 126.292606 
L 98.944148 126.255305 
L 101.248488 126.210115 
L 103.552828 126.155553 
L 105.857167 126.089877 
L 108.161507 126.010396 
L 110.465847 125.914404 
L 112.770187 125.798489 
L 115.074526 125.658516 
L 117.378866 125.48851 
L 119.683206 125.275302 
L 121.987546 125.004907 
L 124.291885 124.660533 
L 126.596225 124.209015 
L 128.900565 123.627121 
L 131.204904 122.88662 
L 133.509244 121.968941 
L 135.813584 120.857001 
L 138.117924 119.551051 
L 140.422263 118.064583 
L 142.726603 116.414733 
L 145.030943 114.626304 
L 147.335283 112.72172 
L 149.639622 110.72019 
L 151.943962 108.6337 
" style="fill:none;stroke:#0000ff;stroke-linecap:square;stroke-opacity:0.5;"/>
   </g>
   <g id="line2d_17">
    <path clip-path="url(#p17fae4e2bf)" d="M 154.248302 106.472882 
L 156.552642 104.258533 
L 158.856981 102.016214 
L 161.161321 99.781795 
L 163.465661 97.595403 
L 165.770001 95.497402 
L 168.07434 93.525177 
L 170.37868 91.710914 
L 172.68302 90.080288 
L 174.987359 88.651905 
L 177.291699 87.437308 
L 179.596039 86.441381 
L 181.900379 85.663014 
L 184.204718 85.095916 
L 186.509058 84.72949 
L 188.813398 84.549714 
L 191.117738 84.539973 
L 193.422077 84.681824 
L 195.726417 84.955671 
L 198.030757 85.341344 
L 200.335097 85.818576 
" style="fill:none;stroke:#008000;stroke-linecap:square;stroke-opacity:0.5;"/>
   </g>
   <g id="line2d_18">
    <path clip-path="url(#p17fae4e2bf)" d="M 115.074526 126.44874 
L 115.074526 11.52 
" style="fill:none;stroke:#0000ff;stroke-dasharray:1.85,0.8;stroke-dashoffset:0;stroke-width:0.5;"/>
   </g>
   <g id="line2d_19">
    <path clip-path="url(#p17fae4e2bf)" d="M 117.378866 126.44874 
L 117.378866 11.52 
" style="fill:none;stroke:#0000ff;stroke-dasharray:1.85,0.8;stroke-dashoffset:0;stroke-width:0.5;"/>
   </g>
   <g id="line2d_20">
    <path clip-path="url(#p17fae4e2bf)" d="M 131.204904 126.44874 
L 131.204904 11.52 
" style="fill:none;stroke:#0000ff;stroke-dasharray:1.85,0.8;stroke-dashoffset:0;stroke-width:0.5;"/>
   </g>
   <g id="line2d_21">
    <path clip-path="url(#p17fae4e2bf)" d="M 121.987546 126.44874 
L 121.987546 11.52 
" style="fill:none;stroke:#0000ff;stroke-dasharray:1.85,0.8;stroke-dashoffset:0;stroke-width:0.5;"/>
   </g>
   <g id="line2d_22">
    <path clip-path="url(#p17fae4e2bf)" d="M 89.726789 126.44874 
L 89.726789 11.52 
" style="fill:none;stroke:#0000ff;stroke-dasharray:1.85,0.8;stroke-dashoffset:0;stroke-width:0.5;"/>
   </g>
   <g id="patch_69">
    <path d="M 42.05 126.44874 
L 42.05 11.52 
" style="fill:none;stroke:#000000;stroke-linecap:square;stroke-linejoin:miter;stroke-width:0.8;"/>
   </g>
   <g id="patch_70">
    <path d="M 208.83811 126.44874 
L 208.83811 11.52 
" style="fill:none;stroke:#000000;stroke-linecap:square;stroke-linejoin:miter;stroke-width:0.8;"/>
   </g>
   <g id="patch_71">
    <path d="M 42.05 126.44874 
L 208.83811 126.44874 
" style="fill:none;stroke:#000000;stroke-linecap:square;stroke-linejoin:miter;stroke-width:0.8;"/>
   </g>
   <g id="patch_72">
    <path d="M 42.05 11.52 
L 208.83811 11.52 
" style="fill:none;stroke:#000000;stroke-linecap:square;stroke-linejoin:miter;stroke-width:0.8;"/>
   </g>
   <g id="legend_1">
    <g id="line2d_23">
     <path d="M 49.25 103.04249 
L 65.25 103.04249 
" style="fill:none;stroke:#0000ff;stroke-linecap:square;stroke-opacity:0.5;"/>
    </g>
    <g id="line2d_24"/>
    <g id="text_17">
     <!-- Simulation -->
     <defs>
      <path d="M 53.515625 70.515625 
L 53.515625 60.890625 
Q 47.90625 63.578125 42.921875 64.890625 
Q 37.9375 66.21875 33.296875 66.21875 
Q 25.25 66.21875 20.875 63.09375 
Q 16.5 59.96875 16.5 54.203125 
Q 16.5 49.359375 19.40625 46.890625 
Q 22.3125 44.4375 30.421875 42.921875 
L 36.375 41.703125 
Q 47.40625 39.59375 52.65625 34.296875 
Q 57.90625 29 57.90625 20.125 
Q 57.90625 9.515625 50.796875 4.046875 
Q 43.703125 -1.421875 29.984375 -1.421875 
Q 24.8125 -1.421875 18.96875 -0.25 
Q 13.140625 0.921875 6.890625 3.21875 
L 6.890625 13.375 
Q 12.890625 10.015625 18.65625 8.296875 
Q 24.421875 6.59375 29.984375 6.59375 
Q 38.421875 6.59375 43.015625 9.90625 
Q 47.609375 13.234375 47.609375 19.390625 
Q 47.609375 24.75 44.3125 27.78125 
Q 41.015625 30.8125 33.5 32.328125 
L 27.484375 33.5 
Q 16.453125 35.6875 11.515625 40.375 
Q 6.59375 45.0625 6.59375 53.421875 
Q 6.59375 63.09375 13.40625 68.65625 
Q 20.21875 74.21875 32.171875 74.21875 
Q 37.3125 74.21875 42.625 73.28125 
Q 47.953125 72.359375 53.515625 70.515625 
z
" id="DejaVuSans-83"/>
      <path d="M 9.421875 54.6875 
L 18.40625 54.6875 
L 18.40625 0 
L 9.421875 0 
z
M 9.421875 75.984375 
L 18.40625 75.984375 
L 18.40625 64.59375 
L 9.421875 64.59375 
z
" id="DejaVuSans-105"/>
      <path d="M 52 44.1875 
Q 55.375 50.25 60.0625 53.125 
Q 64.75 56 71.09375 56 
Q 79.640625 56 84.28125 50.015625 
Q 88.921875 44.046875 88.921875 33.015625 
L 88.921875 0 
L 79.890625 0 
L 79.890625 32.71875 
Q 79.890625 40.578125 77.09375 44.375 
Q 74.3125 48.1875 68.609375 48.1875 
Q 61.625 48.1875 57.5625 43.546875 
Q 53.515625 38.921875 53.515625 30.90625 
L 53.515625 0 
L 44.484375 0 
L 44.484375 32.71875 
Q 44.484375 40.625 41.703125 44.40625 
Q 38.921875 48.1875 33.109375 48.1875 
Q 26.21875 48.1875 22.15625 43.53125 
Q 18.109375 38.875 18.109375 30.90625 
L 18.109375 0 
L 9.078125 0 
L 9.078125 54.6875 
L 18.109375 54.6875 
L 18.109375 46.1875 
Q 21.1875 51.21875 25.484375 53.609375 
Q 29.78125 56 35.6875 56 
Q 41.65625 56 45.828125 52.96875 
Q 50 49.953125 52 44.1875 
z
" id="DejaVuSans-109"/>
      <path d="M 8.5 21.578125 
L 8.5 54.6875 
L 17.484375 54.6875 
L 17.484375 21.921875 
Q 17.484375 14.15625 20.5 10.265625 
Q 23.53125 6.390625 29.59375 6.390625 
Q 36.859375 6.390625 41.078125 11.03125 
Q 45.3125 15.671875 45.3125 23.6875 
L 45.3125 54.6875 
L 54.296875 54.6875 
L 54.296875 0 
L 45.3125 0 
L 45.3125 8.40625 
Q 42.046875 3.421875 37.71875 1 
Q 33.40625 -1.421875 27.6875 -1.421875 
Q 18.265625 -1.421875 13.375 4.4375 
Q 8.5 10.296875 8.5 21.578125 
z
M 31.109375 56 
z
" id="DejaVuSans-117"/>
      <path d="M 9.421875 75.984375 
L 18.40625 75.984375 
L 18.40625 0 
L 9.421875 0 
z
" id="DejaVuSans-108"/>
      <path d="M 30.609375 48.390625 
Q 23.390625 48.390625 19.1875 42.75 
Q 14.984375 37.109375 14.984375 27.296875 
Q 14.984375 17.484375 19.15625 11.84375 
Q 23.34375 6.203125 30.609375 6.203125 
Q 37.796875 6.203125 41.984375 11.859375 
Q 46.1875 17.53125 46.1875 27.296875 
Q 46.1875 37.015625 41.984375 42.703125 
Q 37.796875 48.390625 30.609375 48.390625 
z
M 30.609375 56 
Q 42.328125 56 49.015625 48.375 
Q 55.71875 40.765625 55.71875 27.296875 
Q 55.71875 13.875 49.015625 6.21875 
Q 42.328125 -1.421875 30.609375 -1.421875 
Q 18.84375 -1.421875 12.171875 6.21875 
Q 5.515625 13.875 5.515625 27.296875 
Q 5.515625 40.765625 12.171875 48.375 
Q 18.84375 56 30.609375 56 
z
" id="DejaVuSans-111"/>
      <path d="M 54.890625 33.015625 
L 54.890625 0 
L 45.90625 0 
L 45.90625 32.71875 
Q 45.90625 40.484375 42.875 44.328125 
Q 39.84375 48.1875 33.796875 48.1875 
Q 26.515625 48.1875 22.3125 43.546875 
Q 18.109375 38.921875 18.109375 30.90625 
L 18.109375 0 
L 9.078125 0 
L 9.078125 54.6875 
L 18.109375 54.6875 
L 18.109375 46.1875 
Q 21.34375 51.125 25.703125 53.5625 
Q 30.078125 56 35.796875 56 
Q 45.21875 56 50.046875 50.171875 
Q 54.890625 44.34375 54.890625 33.015625 
z
" id="DejaVuSans-110"/>
     </defs>
     <g transform="translate(71.65 105.84249)scale(0.08 -0.08)">
      <use xlink:href="#DejaVuSans-83"/>
      <use x="63.476562" xlink:href="#DejaVuSans-105"/>
      <use x="91.259766" xlink:href="#DejaVuSans-109"/>
      <use x="188.671875" xlink:href="#DejaVuSans-117"/>
      <use x="252.050781" xlink:href="#DejaVuSans-108"/>
      <use x="279.833984" xlink:href="#DejaVuSans-97"/>
      <use x="341.113281" xlink:href="#DejaVuSans-116"/>
      <use x="380.322266" xlink:href="#DejaVuSans-105"/>
      <use x="408.105469" xlink:href="#DejaVuSans-111"/>
      <use x="469.287109" xlink:href="#DejaVuSans-110"/>
     </g>
    </g>
    <g id="line2d_25">
     <path d="M 49.25 114.78499 
L 65.25 114.78499 
" style="fill:none;stroke:#008000;stroke-linecap:square;stroke-opacity:0.5;"/>
    </g>
    <g id="line2d_26"/>
    <g id="text_18">
     <!-- Forecast -->
     <defs>
      <path d="M 48.78125 52.59375 
L 48.78125 44.1875 
Q 44.96875 46.296875 41.140625 47.34375 
Q 37.3125 48.390625 33.40625 48.390625 
Q 24.65625 48.390625 19.8125 42.84375 
Q 14.984375 37.3125 14.984375 27.296875 
Q 14.984375 17.28125 19.8125 11.734375 
Q 24.65625 6.203125 33.40625 6.203125 
Q 37.3125 6.203125 41.140625 7.25 
Q 44.96875 8.296875 48.78125 10.40625 
L 48.78125 2.09375 
Q 45.015625 0.34375 40.984375 -0.53125 
Q 36.96875 -1.421875 32.421875 -1.421875 
Q 20.0625 -1.421875 12.78125 6.34375 
Q 5.515625 14.109375 5.515625 27.296875 
Q 5.515625 40.671875 12.859375 48.328125 
Q 20.21875 56 33.015625 56 
Q 37.15625 56 41.109375 55.140625 
Q 45.0625 54.296875 48.78125 52.59375 
z
" id="DejaVuSans-99"/>
     </defs>
     <g transform="translate(71.65 117.58499)scale(0.08 -0.08)">
      <use xlink:href="#DejaVuSans-70"/>
      <use x="53.894531" xlink:href="#DejaVuSans-111"/>
      <use x="115.076172" xlink:href="#DejaVuSans-114"/>
      <use x="153.939453" xlink:href="#DejaVuSans-101"/>
      <use x="215.462891" xlink:href="#DejaVuSans-99"/>
      <use x="270.443359" xlink:href="#DejaVuSans-97"/>
      <use x="331.722656" xlink:href="#DejaVuSans-115"/>
      <use x="383.822266" xlink:href="#DejaVuSans-116"/>
     </g>
    </g>
   </g>
  </g>
  <g id="axes_2">
   <g id="matplotlib.axis_3">
    <g id="ytick_6">
     <g id="line2d_27">
      <defs>
       <path d="M 0 0 
L 3.5 0 
" id="m8592b77c97" style="stroke:#000000;stroke-width:0.8;"/>
      </defs>
      <g>
       <use style="stroke:#000000;stroke-width:0.8;" x="208.83811" xlink:href="#m8592b77c97" y="126.44874"/>
      </g>
     </g>
     <g id="text_19">
      <!-- 1.0 -->
      <defs>
       <path d="M 10.59375 35.5 
L 73.1875 35.5 
L 73.1875 27.203125 
L 10.59375 27.203125 
z
" id="DejaVuSans-8722"/>
       <path d="M 10.6875 12.40625 
L 21 12.40625 
L 21 0 
L 10.6875 0 
z
" id="DejaVuSans-46"/>
      </defs>
      <g transform="translate(215.83811 129.488115)scale(0.08 -0.08)">
       <use xlink:href="#DejaVuSans-8722"/>
       <use x="83.789062" xlink:href="#DejaVuSans-49"/>
       <use x="147.412109" xlink:href="#DejaVuSans-46"/>
       <use x="179.199219" xlink:href="#DejaVuSans-48"/>
      </g>
     </g>
    </g>
    <g id="ytick_7">
     <g id="line2d_28">
      <g>
       <use style="stroke:#000000;stroke-width:0.8;" x="208.83811" xlink:href="#m8592b77c97" y="85.402762"/>
      </g>
     </g>
     <g id="text_20">
      <!-- 0.5 -->
      <g transform="translate(215.83811 88.442137)scale(0.08 -0.08)">
       <use xlink:href="#DejaVuSans-8722"/>
       <use x="83.789062" xlink:href="#DejaVuSans-48"/>
       <use x="147.412109" xlink:href="#DejaVuSans-46"/>
       <use x="179.199219" xlink:href="#DejaVuSans-53"/>
      </g>
     </g>
    </g>
    <g id="ytick_8">
     <g id="line2d_29">
      <g>
       <use style="stroke:#000000;stroke-width:0.8;" x="208.83811" xlink:href="#m8592b77c97" y="44.356783"/>
      </g>
     </g>
     <g id="text_21">
      <!-- 0.0 -->
      <g transform="translate(215.83811 47.396158)scale(0.08 -0.08)">
       <use xlink:href="#DejaVuSans-48"/>
       <use x="63.623047" xlink:href="#DejaVuSans-46"/>
       <use x="95.410156" xlink:href="#DejaVuSans-48"/>
      </g>
     </g>
    </g>
    <g id="ytick_9">
     <g id="line2d_30">
      <g>
       <use style="stroke:#000000;stroke-width:0.8;" x="208.83811" xlink:href="#m8592b77c97" y="11.52"/>
      </g>
     </g>
     <g id="text_22">
      <!-- 0.4 -->
      <defs>
       <path d="M 37.796875 64.3125 
L 12.890625 25.390625 
L 37.796875 25.390625 
z
M 35.203125 72.90625 
L 47.609375 72.90625 
L 47.609375 25.390625 
L 58.015625 25.390625 
L 58.015625 17.1875 
L 47.609375 17.1875 
L 47.609375 0 
L 37.796875 0 
L 37.796875 17.1875 
L 4.890625 17.1875 
L 4.890625 26.703125 
z
" id="DejaVuSans-52"/>
      </defs>
      <g transform="translate(215.83811 14.559375)scale(0.08 -0.08)">
       <use xlink:href="#DejaVuSans-48"/>
       <use x="63.623047" xlink:href="#DejaVuSans-46"/>
       <use x="95.410156" xlink:href="#DejaVuSans-52"/>
      </g>
     </g>
    </g>
    <g id="text_23">
     <!-- Relative change -->
     <defs>
      <path d="M 44.390625 34.1875 
Q 47.5625 33.109375 50.5625 29.59375 
Q 53.5625 26.078125 56.59375 19.921875 
L 66.609375 0 
L 56 0 
L 46.6875 18.703125 
Q 43.0625 26.03125 39.671875 28.421875 
Q 36.28125 30.8125 30.421875 30.8125 
L 19.671875 30.8125 
L 19.671875 0 
L 9.8125 0 
L 9.8125 72.90625 
L 32.078125 72.90625 
Q 44.578125 72.90625 50.734375 67.671875 
Q 56.890625 62.453125 56.890625 51.90625 
Q 56.890625 45.015625 53.6875 40.46875 
Q 50.484375 35.9375 44.390625 34.1875 
z
M 19.671875 64.796875 
L 19.671875 38.921875 
L 32.078125 38.921875 
Q 39.203125 38.921875 42.84375 42.21875 
Q 46.484375 45.515625 46.484375 51.90625 
Q 46.484375 58.296875 42.84375 61.546875 
Q 39.203125 64.796875 32.078125 64.796875 
z
" id="DejaVuSans-82"/>
      <path d="M 2.984375 54.6875 
L 12.5 54.6875 
L 29.59375 8.796875 
L 46.6875 54.6875 
L 56.203125 54.6875 
L 35.6875 0 
L 23.484375 0 
z
" id="DejaVuSans-118"/>
      <path d="M 45.40625 27.984375 
Q 45.40625 37.75 41.375 43.109375 
Q 37.359375 48.484375 30.078125 48.484375 
Q 22.859375 48.484375 18.828125 43.109375 
Q 14.796875 37.75 14.796875 27.984375 
Q 14.796875 18.265625 18.828125 12.890625 
Q 22.859375 7.515625 30.078125 7.515625 
Q 37.359375 7.515625 41.375 12.890625 
Q 45.40625 18.265625 45.40625 27.984375 
z
M 54.390625 6.78125 
Q 54.390625 -7.171875 48.1875 -13.984375 
Q 42 -20.796875 29.203125 -20.796875 
Q 24.46875 -20.796875 20.265625 -20.09375 
Q 16.0625 -19.390625 12.109375 -17.921875 
L 12.109375 -9.1875 
Q 16.0625 -11.328125 19.921875 -12.34375 
Q 23.78125 -13.375 27.78125 -13.375 
Q 36.625 -13.375 41.015625 -8.765625 
Q 45.40625 -4.15625 45.40625 5.171875 
L 45.40625 9.625 
Q 42.625 4.78125 38.28125 2.390625 
Q 33.9375 0 27.875 0 
Q 17.828125 0 11.671875 7.65625 
Q 5.515625 15.328125 5.515625 27.984375 
Q 5.515625 40.671875 11.671875 48.328125 
Q 17.828125 56 27.875 56 
Q 33.9375 56 38.28125 53.609375 
Q 42.625 51.21875 45.40625 46.390625 
L 45.40625 54.6875 
L 54.390625 54.6875 
z
" id="DejaVuSans-103"/>
     </defs>
     <g transform="translate(245.34311 101.10812)rotate(-90)scale(0.08 -0.08)">
      <use xlink:href="#DejaVuSans-82"/>
      <use x="64.982422" xlink:href="#DejaVuSans-101"/>
      <use x="126.505859" xlink:href="#DejaVuSans-108"/>
      <use x="154.289062" xlink:href="#DejaVuSans-97"/>
      <use x="215.568359" xlink:href="#DejaVuSans-116"/>
      <use x="254.777344" xlink:href="#DejaVuSans-105"/>
      <use x="282.560547" xlink:href="#DejaVuSans-118"/>
      <use x="341.740234" xlink:href="#DejaVuSans-101"/>
      <use x="403.263672" xlink:href="#DejaVuSans-32"/>
      <use x="435.050781" xlink:href="#DejaVuSans-99"/>
      <use x="490.03125" xlink:href="#DejaVuSans-104"/>
      <use x="553.410156" xlink:href="#DejaVuSans-97"/>
      <use x="614.689453" xlink:href="#DejaVuSans-110"/>
      <use x="678.068359" xlink:href="#DejaVuSans-103"/>
      <use x="741.544922" xlink:href="#DejaVuSans-101"/>
     </g>
    </g>
   </g>
   <g id="line2d_31">
    <path clip-path="url(#p17fae4e2bf)" d="M 50.553014 44.356783 
L 52.857353 45.177702 
L 55.161693 36.147587 
L 57.466033 46.819542 
L 59.770373 41.894024 
L 62.074712 47.640461 
L 64.379052 42.714944 
L 66.683392 45.177702 
L 68.987732 43.535863 
L 71.292071 32.863909 
L 73.596411 39.431265 
L 75.900751 41.073105 
L 78.20509 48.461381 
L 80.50943 48.461381 
L 82.81377 45.177702 
L 85.11811 49.2823 
L 87.422449 41.894024 
L 89.726789 50.10322 
L 92.031129 45.177702 
L 94.335469 46.819542 
L 96.639808 53.386898 
L 98.944148 49.2823 
L 101.248488 47.640461 
L 103.552828 39.431265 
L 105.857167 50.924139 
L 108.161507 52.565979 
L 110.465847 50.10322 
L 112.770187 53.386898 
L 115.074526 55.028737 
L 117.378866 64.879772 
L 119.683206 66.521611 
L 121.987546 58.312416 
L 124.291885 91.149199 
L 126.596225 95.253796 
L 128.900565 97.716555 
L 131.204904 99.358394 
L 133.509244 108.38851 
L 135.813584 111.672188 
L 138.117924 100.179314 
L 140.422263 101.000233 
L 142.726603 101.821153 
L 145.030943 101.821153 
L 147.335283 101.000233 
L 149.639622 104.283912 
L 151.943962 110.851268 
" style="fill:none;stroke:#d62728;stroke-linecap:square;stroke-opacity:0.5;"/>
   </g>
   <g id="line2d_32">
    <path clip-path="url(#p17fae4e2bf)" d="M 50.553014 44.356783 
L 52.857353 45.177702 
L 55.161693 34.505748 
L 57.466033 47.640461 
L 59.770373 43.535863 
L 62.074712 47.640461 
L 64.379052 45.177702 
L 66.683392 45.177702 
L 68.987732 44.356783 
L 71.292071 29.580231 
L 73.596411 41.894024 
L 75.900751 39.431265 
L 78.20509 44.356783 
L 80.50943 43.535863 
L 82.81377 37.789426 
L 85.11811 41.073105 
L 87.422449 37.789426 
L 89.726789 45.177702 
L 92.031129 41.073105 
L 94.335469 43.535863 
L 96.639808 47.640461 
L 98.944148 43.535863 
L 101.248488 42.714944 
L 103.552828 38.610346 
L 105.857167 45.177702 
L 108.161507 45.177702 
L 110.465847 42.714944 
L 112.770187 37.789426 
L 115.074526 24.654713 
L 117.378866 34.505748 
L 119.683206 42.714944 
L 121.987546 24.654713 
L 124.291885 43.535863 
L 126.596225 47.640461 
L 128.900565 52.565979 
L 131.204904 47.640461 
L 133.509244 65.700692 
L 135.813584 84.581842 
L 138.117924 60.775174 
L 140.422263 59.954255 
L 142.726603 59.954255 
L 145.030943 59.133335 
L 147.335283 55.028737 
L 149.639622 59.954255 
L 151.943962 86.223681 
" style="fill:none;stroke:#9467bd;stroke-linecap:square;stroke-opacity:0.5;"/>
   </g>
   <g id="line2d_33">
    <path clip-path="url(#p17fae4e2bf)" d="M 50.553014 44.356783 
L 52.857353 39.431265 
L 55.161693 37.789426 
L 57.466033 45.998622 
L 59.770373 41.894024 
L 62.074712 47.640461 
L 64.379052 40.252185 
L 66.683392 43.535863 
L 68.987732 32.863909 
L 71.292071 33.684828 
L 73.596411 38.610346 
L 75.900751 41.894024 
L 78.20509 48.461381 
L 80.50943 48.461381 
L 82.81377 45.177702 
L 85.11811 50.10322 
L 87.422449 42.714944 
L 89.726789 50.10322 
L 92.031129 46.819542 
L 94.335469 45.998622 
L 96.639808 53.386898 
L 98.944148 50.924139 
L 101.248488 51.745059 
L 103.552828 41.894024 
L 105.857167 50.924139 
L 108.161507 52.565979 
L 110.465847 49.2823 
L 112.770187 53.386898 
L 115.074526 56.670576 
L 117.378866 65.700692 
L 119.683206 57.491496 
L 121.987546 68.98437 
L 124.291885 78.835405 
L 126.596225 81.298164 
L 128.900565 86.223681 
L 131.204904 90.328279 
L 133.509244 95.253796 
L 135.813584 98.537475 
L 138.117924 92.791038 
L 140.422263 91.970118 
L 142.726603 92.791038 
L 145.030943 94.432877 
L 147.335283 91.970118 
L 149.639622 87.86552 
L 151.943962 100.179314 
" style="fill:none;stroke:#e377c2;stroke-linecap:square;stroke-opacity:0.5;"/>
   </g>
   <g id="line2d_34">
    <path clip-path="url(#p17fae4e2bf)" d="M 50.553014 44.356783 
L 52.857353 45.998622 
L 55.161693 45.998622 
L 57.466033 45.177702 
L 59.770373 45.998622 
L 62.074712 46.819542 
L 64.379052 48.461381 
L 66.683392 49.2823 
L 68.987732 45.177702 
L 71.292071 44.356783 
L 73.596411 46.819542 
L 75.900751 47.640461 
L 78.20509 47.640461 
L 80.50943 48.461381 
L 82.81377 47.640461 
L 85.11811 45.998622 
L 87.422449 45.177702 
L 89.726789 45.177702 
L 92.031129 44.356783 
L 94.335469 45.177702 
L 96.639808 45.998622 
L 98.944148 45.998622 
L 101.248488 45.998622 
L 103.552828 46.819542 
L 105.857167 44.356783 
L 108.161507 45.177702 
L 110.465847 45.998622 
L 112.770187 47.640461 
L 115.074526 49.2823 
L 117.378866 50.10322 
L 119.683206 55.028737 
L 121.987546 60.775174 
L 124.291885 71.447129 
L 126.596225 75.551727 
L 128.900565 82.119083 
L 131.204904 81.298164 
L 133.509244 79.656325 
L 135.813584 81.298164 
L 138.117924 82.119083 
L 140.422263 84.581842 
L 142.726603 84.581842 
L 145.030943 85.402762 
L 147.335283 84.581842 
L 149.639622 79.656325 
L 151.943962 82.119083 
" style="fill:none;stroke:#bcbd22;stroke-linecap:square;stroke-opacity:0.5;"/>
   </g>
   <g id="line2d_35">
    <path clip-path="url(#p17fae4e2bf)" d="M 50.553014 44.356783 
L 52.857353 45.177702 
L 55.161693 45.177702 
L 57.466033 43.535863 
L 59.770373 43.535863 
L 62.074712 43.535863 
L 64.379052 44.356783 
L 66.683392 43.535863 
L 68.987732 45.998622 
L 71.292071 45.177702 
L 73.596411 44.356783 
L 75.900751 43.535863 
L 78.20509 42.714944 
L 80.50943 42.714944 
L 82.81377 42.714944 
L 85.11811 42.714944 
L 87.422449 43.535863 
L 89.726789 41.894024 
L 92.031129 42.714944 
L 94.335469 43.535863 
L 96.639808 41.894024 
L 98.944148 41.894024 
L 101.248488 41.894024 
L 103.552828 44.356783 
L 105.857167 41.894024 
L 108.161507 41.073105 
L 110.465847 41.894024 
L 112.770187 41.073105 
L 115.074526 40.252185 
L 117.378866 37.789426 
L 119.683206 40.252185 
L 121.987546 36.147587 
L 124.291885 30.40115 
L 126.596225 29.580231 
L 128.900565 27.117472 
L 131.204904 24.654713 
L 133.509244 28.759311 
L 135.813584 32.042989 
L 138.117924 26.296552 
L 140.422263 24.654713 
L 142.726603 25.475633 
L 145.030943 24.654713 
L 147.335283 23.012874 
L 149.639622 30.40115 
L 151.943962 32.042989 
" style="fill:none;stroke:#17becf;stroke-linecap:square;stroke-opacity:0.5;"/>
   </g>
   <g id="patch_73">
    <path d="M 42.05 126.44874 
L 42.05 11.52 
" style="fill:none;stroke:#000000;stroke-linecap:square;stroke-linejoin:miter;stroke-width:0.8;"/>
   </g>
   <g id="patch_74">
    <path d="M 208.83811 126.44874 
L 208.83811 11.52 
" style="fill:none;stroke:#000000;stroke-linecap:square;stroke-linejoin:miter;stroke-width:0.8;"/>
   </g>
   <g id="patch_75">
    <path d="M 42.05 126.44874 
L 208.83811 126.44874 
" style="fill:none;stroke:#000000;stroke-linecap:square;stroke-linejoin:miter;stroke-width:0.8;"/>
   </g>
   <g id="patch_76">
    <path d="M 42.05 11.52 
L 208.83811 11.52 
" style="fill:none;stroke:#000000;stroke-linecap:square;stroke-linejoin:miter;stroke-width:0.8;"/>
   </g>
  </g>
 </g>
 <defs>
  <clipPath id="p17fae4e2bf">
   <rect height="114.92874" width="166.78811" x="42.05" y="11.52"/>
  </clipPath>
 </defs>
</svg>
