<?xml version="1.0" encoding="utf-8" standalone="no"?>
<!DOCTYPE svg PUBLIC "-//W3C//DTD SVG 1.1//EN"
  "http://www.w3.org/Graphics/SVG/1.1/DTD/svg11.dtd">
<!-- Created with matplotlib (https://matplotlib.org/) -->
<svg height="170.07874pt" version="1.1" viewBox="0 0 255.11811 170.07874" width="255.11811pt" xmlns="http://www.w3.org/2000/svg" xmlns:xlink="http://www.w3.org/1999/xlink">
 <defs>
  <style type="text/css">
*{stroke-linecap:butt;stroke-linejoin:round;}
  </style>
 </defs>
 <g id="figure_1">
  <g id="patch_1">
   <path d="M 0 170.07874 
L 255.11811 170.07874 
L 255.11811 0 
L 0 0 
z
" style="fill:#ffffff;"/>
  </g>
  <g id="axes_1">
   <g id="patch_2">
    <path d="M 47.09 126.44874 
L 208.83811 126.44874 
L 208.83811 11.52 
L 47.09 11.52 
z
" style="fill:#ffffff;"/>
   </g>
   <g id="PolyCollection_1">
    <defs>
     <path d="M 55.33607 -43.63 
L 55.33607 -43.63 
L 57.570777 -43.63 
L 59.805484 -43.630001 
L 62.040191 -43.630004 
L 64.274899 -43.630014 
L 66.509606 -43.630035 
L 68.744313 -43.630075 
L 70.97902 -43.630142 
L 73.213728 -43.630247 
L 75.448435 -43.630402 
L 77.683142 -43.630621 
L 79.917849 -43.630925 
L 82.152557 -43.631342 
L 84.387264 -43.631907 
L 86.621971 -43.632667 
L 88.856678 -43.633679 
L 91.091386 -43.635014 
L 93.326093 -43.636776 
L 95.5608 -43.639099 
L 97.795507 -43.642138 
L 100.030215 -43.64611 
L 102.264922 -43.651299 
L 104.499629 -43.658062 
L 106.734336 -43.666785 
L 108.969044 -43.678019 
L 111.203751 -43.69235 
L 113.438458 -43.710609 
L 115.673165 -43.733798 
L 117.907873 -43.763386 
L 120.14258 -43.800961 
L 122.377287 -43.848645 
L 124.611994 -43.90996 
L 126.846701 -43.989101 
L 129.081409 -44.093486 
L 131.316116 -44.229774 
L 133.550823 -44.40592 
L 135.78553 -44.6329 
L 138.020238 -44.919037 
L 140.254945 -45.273013 
L 142.489652 -45.700418 
L 144.724359 -46.205476 
L 146.959067 -46.793196 
L 149.193774 -47.467814 
L 151.428481 -48.229239 
L 153.663188 -49.077459 
L 153.663188 -54.081085 
L 153.663188 -54.081085 
L 151.428481 -52.40841 
L 149.193774 -50.9519 
L 146.959067 -49.695623 
L 144.724359 -48.629045 
L 142.489652 -47.734095 
L 140.254945 -46.991636 
L 138.020238 -46.384123 
L 135.78553 -45.893216 
L 133.550823 -45.496847 
L 131.316116 -45.178271 
L 129.081409 -44.921183 
L 126.846701 -44.710717 
L 124.611994 -44.536667 
L 122.377287 -44.39099 
L 120.14258 -44.268362 
L 117.907873 -44.164932 
L 115.673165 -44.076656 
L 113.438458 -44.002046 
L 111.203751 -43.938985 
L 108.969044 -43.885499 
L 106.734336 -43.840229 
L 104.499629 -43.802057 
L 102.264922 -43.769957 
L 100.030215 -43.743059 
L 97.795507 -43.72063 
L 95.5608 -43.701997 
L 93.326093 -43.686662 
L 91.091386 -43.674058 
L 88.856678 -43.663802 
L 86.621971 -43.655535 
L 84.387264 -43.648946 
L 82.152557 -43.643743 
L 79.917849 -43.639695 
L 77.683142 -43.636608 
L 75.448435 -43.634316 
L 73.213728 -43.63267 
L 70.97902 -43.631542 
L 68.744313 -43.630815 
L 66.509606 -43.630382 
L 64.274899 -43.630152 
L 62.040191 -43.630046 
L 59.805484 -43.630009 
L 57.570777 -43.63 
L 55.33607 -43.63 
z
" id="ma33c2eed79" style="stroke:#6495ed;stroke-opacity:0.4;"/>
    </defs>
    <g clip-path="url(#pacb48568d6)">
     <use style="fill:#6495ed;fill-opacity:0.4;stroke:#6495ed;stroke-opacity:0.4;" x="0" xlink:href="#ma33c2eed79" y="170.07874"/>
    </g>
   </g>
   <g id="PolyCollection_2">
    <defs>
     <path d="M 55.33607 -43.63 
L 55.33607 -43.63 
L 57.570777 -43.63 
L 59.805484 -43.630002 
L 62.040191 -43.63001 
L 64.274899 -43.630033 
L 66.509606 -43.630082 
L 68.744313 -43.630175 
L 70.97902 -43.630332 
L 73.213728 -43.630575 
L 75.448435 -43.630932 
L 77.683142 -43.631435 
L 79.917849 -43.632126 
L 82.152557 -43.633057 
L 84.387264 -43.634295 
L 86.621971 -43.635926 
L 88.856678 -43.638047 
L 91.091386 -43.640788 
L 93.326093 -43.644308 
L 95.5608 -43.64881 
L 97.795507 -43.654544 
L 100.030215 -43.6618 
L 102.264922 -43.670985 
L 104.499629 -43.682505 
L 106.734336 -43.696987 
L 108.969044 -43.71507 
L 111.203751 -43.737576 
L 113.438458 -43.765513 
L 115.673165 -43.800099 
L 117.907873 -43.842848 
L 120.14258 -43.895649 
L 122.377287 -43.961247 
L 124.611994 -44.043438 
L 126.846701 -44.147105 
L 129.081409 -44.279068 
L 131.316116 -44.447956 
L 133.550823 -44.663554 
L 135.78553 -44.936208 
L 138.020238 -45.277158 
L 140.254945 -45.698643 
L 142.489652 -46.210435 
L 144.724359 -46.819647 
L 146.959067 -47.534614 
L 149.193774 -48.36104 
L 151.428481 -49.300768 
L 153.663188 -50.359208 
L 153.663188 -51.994907 
L 153.663188 -51.994907 
L 151.428481 -50.66964 
L 149.193774 -49.504086 
L 146.959067 -48.490082 
L 144.724359 -47.619349 
L 142.489652 -46.882096 
L 140.254945 -46.266749 
L 138.020238 -45.76127 
L 135.78553 -45.351193 
L 133.550823 -45.022503 
L 131.316116 -44.759664 
L 129.081409 -44.549351 
L 126.846701 -44.380857 
L 124.611994 -44.245006 
L 122.377287 -44.13431 
L 120.14258 -44.043715 
L 117.907873 -43.969027 
L 115.673165 -43.907034 
L 113.438458 -43.85574 
L 111.203751 -43.813306 
L 108.969044 -43.778273 
L 106.734336 -43.749406 
L 104.499629 -43.72565 
L 102.264922 -43.706227 
L 100.030215 -43.690389 
L 97.795507 -43.677519 
L 95.5608 -43.667105 
L 93.326093 -43.658712 
L 91.091386 -43.651992 
L 88.856678 -43.646652 
L 86.621971 -43.64243 
L 84.387264 -43.639123 
L 82.152557 -43.636558 
L 79.917849 -43.634594 
L 77.683142 -43.633117 
L 75.448435 -43.632029 
L 73.213728 -43.631254 
L 70.97902 -43.630724 
L 68.744313 -43.630382 
L 66.509606 -43.630179 
L 64.274899 -43.630071 
L 62.040191 -43.630022 
L 59.805484 -43.630004 
L 57.570777 -43.63 
L 55.33607 -43.63 
z
" id="m9d4bc16d20" style="stroke:#6495ed;stroke-opacity:0.6;"/>
    </defs>
    <g clip-path="url(#pacb48568d6)">
     <use style="fill:#6495ed;fill-opacity:0.6;stroke:#6495ed;stroke-opacity:0.6;" x="0" xlink:href="#m9d4bc16d20" y="170.07874"/>
    </g>
   </g>
   <g id="PolyCollection_3">
    <defs>
     <path d="M 153.663188 -54.081085 
L 153.663188 -49.077459 
L 155.897896 -50.013013 
L 158.132603 -51.031424 
L 160.36731 -52.127908 
L 162.602017 -53.298082 
L 164.836725 -54.529617 
L 167.071432 -55.815479 
L 169.306139 -57.151604 
L 171.540846 -58.523134 
L 173.775554 -59.913817 
L 176.010261 -61.305958 
L 178.244968 -62.697736 
L 180.479675 -64.080914 
L 182.714383 -65.443357 
L 184.94909 -66.772664 
L 187.183797 -68.061308 
L 189.418504 -69.310055 
L 191.653212 -70.515447 
L 193.887919 -71.662277 
L 196.122626 -72.754712 
L 198.357333 -73.790729 
L 200.592041 -74.767886 
L 200.592041 -158.55874 
L 200.592041 -158.55874 
L 198.357333 -150.786395 
L 196.122626 -143.209131 
L 193.887919 -135.827359 
L 191.653212 -128.634325 
L 189.418504 -121.700152 
L 187.183797 -115.007683 
L 184.94909 -108.668238 
L 182.714383 -102.68186 
L 180.479675 -96.988946 
L 178.244968 -91.602257 
L 176.010261 -86.578609 
L 173.775554 -81.862099 
L 171.540846 -77.488025 
L 169.306139 -73.468938 
L 167.071432 -69.768169 
L 164.836725 -66.378847 
L 162.602017 -63.334115 
L 160.36731 -60.590517 
L 158.132603 -58.147011 
L 155.897896 -55.980407 
L 153.663188 -54.081085 
z
" id="md03610f2c3" style="stroke:#228b22;stroke-opacity:0.4;"/>
    </defs>
    <g clip-path="url(#pacb48568d6)">
     <use style="fill:#228b22;fill-opacity:0.4;stroke:#228b22;stroke-opacity:0.4;" x="0" xlink:href="#md03610f2c3" y="170.07874"/>
    </g>
   </g>
   <g id="PolyCollection_4">
    <defs>
     <path d="M 153.663188 -51.994907 
L 153.663188 -50.359208 
L 155.897896 -51.536947 
L 158.132603 -52.830929 
L 160.36731 -54.239111 
L 162.602017 -55.759866 
L 164.836725 -57.388339 
L 167.071432 -59.116567 
L 169.306139 -60.925223 
L 171.540846 -62.808287 
L 173.775554 -64.749126 
L 176.010261 -66.73059 
L 178.244968 -68.73942 
L 180.479675 -70.763275 
L 182.714383 -72.785689 
L 184.94909 -74.788248 
L 187.183797 -76.763452 
L 189.418504 -78.699609 
L 191.653212 -80.588943 
L 193.887919 -82.418375 
L 196.122626 -84.182801 
L 198.357333 -85.882117 
L 200.592041 -87.509483 
L 200.592041 -109.781368 
L 200.592041 -109.781368 
L 198.357333 -106.660642 
L 196.122626 -103.488295 
L 193.887919 -100.26375 
L 191.653212 -97.004671 
L 189.418504 -93.731621 
L 187.183797 -90.446229 
L 184.94909 -87.175069 
L 182.714383 -83.940083 
L 180.479675 -80.747151 
L 178.244968 -77.620436 
L 176.010261 -74.569969 
L 173.775554 -71.627469 
L 171.540846 -68.807525 
L 169.306139 -66.126337 
L 167.071432 -63.592124 
L 164.836725 -61.22119 
L 162.602017 -59.022418 
L 160.36731 -56.99913 
L 158.132603 -55.15612 
L 155.897896 -53.488987 
L 153.663188 -51.994907 
z
" id="m25bf1855ea" style="stroke:#228b22;stroke-opacity:0.6;"/>
    </defs>
    <g clip-path="url(#pacb48568d6)">
     <use style="fill:#228b22;fill-opacity:0.6;stroke:#228b22;stroke-opacity:0.6;" x="0" xlink:href="#m25bf1855ea" y="170.07874"/>
    </g>
   </g>
   <g id="PathCollection_1">
    <defs>
     <path d="M -0.866025 1.732051 
L 0 0.866025 
L 0.866025 1.732051 
L 1.732051 0.866025 
L 0.866025 0 
L 1.732051 -0.866025 
L 0.866025 -1.732051 
L 0 -0.866025 
L -0.866025 -1.732051 
L -1.732051 -0.866025 
L -0.866025 0 
L -1.732051 0.866025 
z
" id="m88dc83f97f" style="stroke:#8a2be2;"/>
    </defs>
    <g clip-path="url(#pacb48568d6)">
     <use style="fill:#8a2be2;stroke:#8a2be2;" x="117.907873" xlink:href="#m88dc83f97f" y="23.012874"/>
    </g>
   </g>
   <g id="PathCollection_2">
    <defs>
     <path d="M 0 -1.732051 
L -0.38887 -0.535233 
L -1.647278 -0.535233 
L -0.629204 0.204441 
L -1.018074 1.401259 
L -0 0.661585 
L 1.018074 1.401259 
L 0.629204 0.204441 
L 1.647278 -0.535233 
L 0.38887 -0.535233 
z
" id="m1e96768dcf" style="stroke:#000000;"/>
    </defs>
    <g clip-path="url(#pacb48568d6)">
     <use style="stroke:#000000;" x="120.14258" xlink:href="#m1e96768dcf" y="23.012874"/>
    </g>
   </g>
   <g id="PathCollection_3">
    <defs>
     <path d="M -1.732051 1.732051 
L 1.732051 1.732051 
L 1.732051 -1.732051 
L -1.732051 -1.732051 
z
" id="mc064e650de" style="stroke:#c71585;"/>
    </defs>
    <g clip-path="url(#pacb48568d6)">
     <use style="fill:#c71585;stroke:#c71585;" x="133.550823" xlink:href="#mc064e650de" y="23.012874"/>
    </g>
   </g>
   <g id="PathCollection_4">
    <defs>
     <path d="M 0 -1.732051 
L -1.647278 -0.535233 
L -1.018074 1.401259 
L 1.018074 1.401259 
L 1.647278 -0.535233 
z
" id="m88891bd0c3" style="stroke:#800000;"/>
    </defs>
    <g clip-path="url(#pacb48568d6)">
     <use style="fill:#800000;stroke:#800000;" x="124.611994" xlink:href="#m88891bd0c3" y="23.012874"/>
    </g>
   </g>
   <g id="PathCollection_5">
    <defs>
     <path d="M -0 2.44949 
L 1.469694 0 
L 0 -2.44949 
L -1.469694 -0 
z
" id="m6ea50ff9cd" style="stroke:#556b2f;"/>
    </defs>
    <g clip-path="url(#pacb48568d6)">
     <use style="fill:#556b2f;stroke:#556b2f;" x="93.326093" xlink:href="#m6ea50ff9cd" y="23.012874"/>
    </g>
   </g>
   <g id="patch_3">
    <path clip-path="url(#pacb48568d6)" d="M 54.442187 126.44874 
L 56.229953 126.44874 
L 56.229953 126.44874 
L 54.442187 126.44874 
z
" style="fill:#1f77b4;opacity:0.5;"/>
   </g>
   <g id="patch_4">
    <path clip-path="url(#pacb48568d6)" d="M 56.676894 126.44874 
L 58.46466 126.44874 
L 58.46466 126.44874 
L 56.676894 126.44874 
z
" style="fill:#1f77b4;opacity:0.5;"/>
   </g>
   <g id="patch_5">
    <path clip-path="url(#pacb48568d6)" d="M 58.911601 126.44874 
L 60.699367 126.44874 
L 60.699367 126.44874 
L 58.911601 126.44874 
z
" style="fill:#1f77b4;opacity:0.5;"/>
   </g>
   <g id="patch_6">
    <path clip-path="url(#pacb48568d6)" d="M 61.146309 126.44874 
L 62.934074 126.44874 
L 62.934074 126.44874 
L 61.146309 126.44874 
z
" style="fill:#1f77b4;opacity:0.5;"/>
   </g>
   <g id="patch_7">
    <path clip-path="url(#pacb48568d6)" d="M 63.381016 126.44874 
L 65.168782 126.44874 
L 65.168782 126.44874 
L 63.381016 126.44874 
z
" style="fill:#1f77b4;opacity:0.5;"/>
   </g>
   <g id="patch_8">
    <path clip-path="url(#pacb48568d6)" d="M 65.615723 126.44874 
L 67.403489 126.44874 
L 67.403489 126.44874 
L 65.615723 126.44874 
z
" style="fill:#1f77b4;opacity:0.5;"/>
   </g>
   <g id="patch_9">
    <path clip-path="url(#pacb48568d6)" d="M 67.85043 126.44874 
L 69.638196 126.44874 
L 69.638196 126.44874 
L 67.85043 126.44874 
z
" style="fill:#1f77b4;opacity:0.5;"/>
   </g>
   <g id="patch_10">
    <path clip-path="url(#pacb48568d6)" d="M 70.085138 126.44874 
L 71.872903 126.44874 
L 71.872903 126.44874 
L 70.085138 126.44874 
z
" style="fill:#1f77b4;opacity:0.5;"/>
   </g>
   <g id="patch_11">
    <path clip-path="url(#pacb48568d6)" d="M 72.319845 126.44874 
L 74.107611 126.44874 
L 74.107611 126.44874 
L 72.319845 126.44874 
z
" style="fill:#1f77b4;opacity:0.5;"/>
   </g>
   <g id="patch_12">
    <path clip-path="url(#pacb48568d6)" d="M 74.554552 126.44874 
L 76.342318 126.44874 
L 76.342318 126.44874 
L 74.554552 126.44874 
z
" style="fill:#1f77b4;opacity:0.5;"/>
   </g>
   <g id="patch_13">
    <path clip-path="url(#pacb48568d6)" d="M 76.789259 126.44874 
L 78.577025 126.44874 
L 78.577025 126.44874 
L 76.789259 126.44874 
z
" style="fill:#1f77b4;opacity:0.5;"/>
   </g>
   <g id="patch_14">
    <path clip-path="url(#pacb48568d6)" d="M 79.023967 126.44874 
L 80.811732 126.44874 
L 80.811732 126.44874 
L 79.023967 126.44874 
z
" style="fill:#1f77b4;opacity:0.5;"/>
   </g>
   <g id="patch_15">
    <path clip-path="url(#pacb48568d6)" d="M 81.258674 126.44874 
L 83.04644 126.44874 
L 83.04644 126.44874 
L 81.258674 126.44874 
z
" style="fill:#1f77b4;opacity:0.5;"/>
   </g>
   <g id="patch_16">
    <path clip-path="url(#pacb48568d6)" d="M 83.493381 126.44874 
L 85.281147 126.44874 
L 85.281147 126.44874 
L 83.493381 126.44874 
z
" style="fill:#1f77b4;opacity:0.5;"/>
   </g>
   <g id="patch_17">
    <path clip-path="url(#pacb48568d6)" d="M 85.728088 126.44874 
L 87.515854 126.44874 
L 87.515854 126.44874 
L 85.728088 126.44874 
z
" style="fill:#1f77b4;opacity:0.5;"/>
   </g>
   <g id="patch_18">
    <path clip-path="url(#pacb48568d6)" d="M 87.962795 126.44874 
L 89.750561 126.44874 
L 89.750561 126.44874 
L 87.962795 126.44874 
z
" style="fill:#1f77b4;opacity:0.5;"/>
   </g>
   <g id="patch_19">
    <path clip-path="url(#pacb48568d6)" d="M 90.197503 126.44874 
L 91.985269 126.44874 
L 91.985269 126.44874 
L 90.197503 126.44874 
z
" style="fill:#1f77b4;opacity:0.5;"/>
   </g>
   <g id="patch_20">
    <path clip-path="url(#pacb48568d6)" d="M 92.43221 126.44874 
L 94.219976 126.44874 
L 94.219976 126.44874 
L 92.43221 126.44874 
z
" style="fill:#1f77b4;opacity:0.5;"/>
   </g>
   <g id="patch_21">
    <path clip-path="url(#pacb48568d6)" d="M 94.666917 126.44874 
L 96.454683 126.44874 
L 96.454683 126.44874 
L 94.666917 126.44874 
z
" style="fill:#1f77b4;opacity:0.5;"/>
   </g>
   <g id="patch_22">
    <path clip-path="url(#pacb48568d6)" d="M 96.901624 126.44874 
L 98.68939 126.44874 
L 98.68939 126.44874 
L 96.901624 126.44874 
z
" style="fill:#1f77b4;opacity:0.5;"/>
   </g>
   <g id="patch_23">
    <path clip-path="url(#pacb48568d6)" d="M 99.136332 126.44874 
L 100.924097 126.44874 
L 100.924097 126.44874 
L 99.136332 126.44874 
z
" style="fill:#1f77b4;opacity:0.5;"/>
   </g>
   <g id="patch_24">
    <path clip-path="url(#pacb48568d6)" d="M 101.371039 126.44874 
L 103.158805 126.44874 
L 103.158805 126.415733 
L 101.371039 126.415733 
z
" style="fill:#1f77b4;opacity:0.5;"/>
   </g>
   <g id="patch_25">
    <path clip-path="url(#pacb48568d6)" d="M 103.605746 126.44874 
L 105.393512 126.44874 
L 105.393512 126.415733 
L 103.605746 126.415733 
z
" style="fill:#1f77b4;opacity:0.5;"/>
   </g>
   <g id="patch_26">
    <path clip-path="url(#pacb48568d6)" d="M 105.840453 126.44874 
L 107.628219 126.44874 
L 107.628219 126.415733 
L 105.840453 126.415733 
z
" style="fill:#1f77b4;opacity:0.5;"/>
   </g>
   <g id="patch_27">
    <path clip-path="url(#pacb48568d6)" d="M 108.075161 126.44874 
L 109.862926 126.44874 
L 109.862926 126.382727 
L 108.075161 126.382727 
z
" style="fill:#1f77b4;opacity:0.5;"/>
   </g>
   <g id="patch_28">
    <path clip-path="url(#pacb48568d6)" d="M 110.309868 126.44874 
L 112.097634 126.44874 
L 112.097634 126.382727 
L 110.309868 126.382727 
z
" style="fill:#1f77b4;opacity:0.5;"/>
   </g>
   <g id="patch_29">
    <path clip-path="url(#pacb48568d6)" d="M 112.544575 126.44874 
L 114.332341 126.44874 
L 114.332341 126.34972 
L 112.544575 126.34972 
z
" style="fill:#1f77b4;opacity:0.5;"/>
   </g>
   <g id="patch_30">
    <path clip-path="url(#pacb48568d6)" d="M 114.779282 126.44874 
L 116.567048 126.44874 
L 116.567048 126.316713 
L 114.779282 126.316713 
z
" style="fill:#1f77b4;opacity:0.5;"/>
   </g>
   <g id="patch_31">
    <path clip-path="url(#pacb48568d6)" d="M 117.01399 126.44874 
L 118.801755 126.44874 
L 118.801755 126.316713 
L 117.01399 126.316713 
z
" style="fill:#1f77b4;opacity:0.5;"/>
   </g>
   <g id="patch_32">
    <path clip-path="url(#pacb48568d6)" d="M 119.248697 126.44874 
L 121.036463 126.44874 
L 121.036463 126.217692 
L 119.248697 126.217692 
z
" style="fill:#1f77b4;opacity:0.5;"/>
   </g>
   <g id="patch_33">
    <path clip-path="url(#pacb48568d6)" d="M 121.483404 126.44874 
L 123.27117 126.44874 
L 123.27117 126.085665 
L 121.483404 126.085665 
z
" style="fill:#1f77b4;opacity:0.5;"/>
   </g>
   <g id="patch_34">
    <path clip-path="url(#pacb48568d6)" d="M 123.718111 126.44874 
L 125.505877 126.44874 
L 125.505877 126.019651 
L 123.718111 126.019651 
z
" style="fill:#1f77b4;opacity:0.5;"/>
   </g>
   <g id="patch_35">
    <path clip-path="url(#pacb48568d6)" d="M 125.952819 126.44874 
L 127.740584 126.44874 
L 127.740584 125.986645 
L 125.952819 125.986645 
z
" style="fill:#1f77b4;opacity:0.5;"/>
   </g>
   <g id="patch_36">
    <path clip-path="url(#pacb48568d6)" d="M 128.187526 126.44874 
L 129.975292 126.44874 
L 129.975292 125.821611 
L 128.187526 125.821611 
z
" style="fill:#1f77b4;opacity:0.5;"/>
   </g>
   <g id="patch_37">
    <path clip-path="url(#pacb48568d6)" d="M 130.422233 126.44874 
L 132.209999 126.44874 
L 132.209999 125.755597 
L 130.422233 125.755597 
z
" style="fill:#1f77b4;opacity:0.5;"/>
   </g>
   <g id="patch_38">
    <path clip-path="url(#pacb48568d6)" d="M 132.65694 126.44874 
L 134.444706 126.44874 
L 134.444706 125.359515 
L 132.65694 125.359515 
z
" style="fill:#1f77b4;opacity:0.5;"/>
   </g>
   <g id="patch_39">
    <path clip-path="url(#pacb48568d6)" d="M 134.891648 126.44874 
L 136.679413 126.44874 
L 136.679413 125.029447 
L 134.891648 125.029447 
z
" style="fill:#1f77b4;opacity:0.5;"/>
   </g>
   <g id="patch_40">
    <path clip-path="url(#pacb48568d6)" d="M 137.126355 126.44874 
L 138.914121 126.44874 
L 138.914121 124.600358 
L 137.126355 124.600358 
z
" style="fill:#1f77b4;opacity:0.5;"/>
   </g>
   <g id="patch_41">
    <path clip-path="url(#pacb48568d6)" d="M 139.361062 126.44874 
L 141.148828 126.44874 
L 141.148828 124.468331 
L 139.361062 124.468331 
z
" style="fill:#1f77b4;opacity:0.5;"/>
   </g>
   <g id="patch_42">
    <path clip-path="url(#pacb48568d6)" d="M 141.595769 126.44874 
L 143.383535 126.44874 
L 143.383535 124.27029 
L 141.595769 124.27029 
z
" style="fill:#1f77b4;opacity:0.5;"/>
   </g>
   <g id="patch_43">
    <path clip-path="url(#pacb48568d6)" d="M 143.830477 126.44874 
L 145.618242 126.44874 
L 145.618242 123.610153 
L 143.830477 123.610153 
z
" style="fill:#1f77b4;opacity:0.5;"/>
   </g>
   <g id="patch_44">
    <path clip-path="url(#pacb48568d6)" d="M 146.065184 126.44874 
L 147.85295 126.44874 
L 147.85295 123.049037 
L 146.065184 123.049037 
z
" style="fill:#1f77b4;opacity:0.5;"/>
   </g>
   <g id="patch_45">
    <path clip-path="url(#pacb48568d6)" d="M 148.299891 126.44874 
L 150.087657 126.44874 
L 150.087657 121.134641 
L 148.299891 121.134641 
z
" style="fill:#1f77b4;opacity:0.5;"/>
   </g>
   <g id="patch_46">
    <path clip-path="url(#pacb48568d6)" d="M 150.534598 126.44874 
L 152.322364 126.44874 
L 152.322364 119.946396 
L 150.534598 119.946396 
z
" style="fill:#1f77b4;opacity:0.5;"/>
   </g>
   <g id="patch_47">
    <path clip-path="url(#pacb48568d6)" d="M 152.769306 126.44874 
L 154.557071 126.44874 
L 154.557071 118.692137 
L 152.769306 118.692137 
z
" style="fill:#1f77b4;opacity:0.5;"/>
   </g>
   <g id="patch_48">
    <path clip-path="url(#pacb48568d6)" d="M 155.004013 126.44874 
L 156.791779 126.44874 
L 156.791779 117.965986 
L 155.004013 117.965986 
z
" style="fill:#1f77b4;opacity:0.5;"/>
   </g>
   <g id="patch_49">
    <path clip-path="url(#pacb48568d6)" d="M 157.23872 126.44874 
L 159.026486 126.44874 
L 159.026486 116.711727 
L 157.23872 116.711727 
z
" style="fill:#1f77b4;opacity:0.5;"/>
   </g>
   <g id="patch_50">
    <path clip-path="url(#pacb48568d6)" d="M 159.473427 126.44874 
L 161.261193 126.44874 
L 161.261193 114.137195 
L 159.473427 114.137195 
z
" style="fill:#1f77b4;opacity:0.5;"/>
   </g>
   <g id="patch_51">
    <path clip-path="url(#pacb48568d6)" d="M 161.708134 126.44874 
L 163.4959 126.44874 
L 163.4959 113.972161 
L 161.708134 113.972161 
z
" style="fill:#1f77b4;opacity:0.5;"/>
   </g>
   <g id="patch_52">
    <path clip-path="url(#pacb48568d6)" d="M 163.942842 126.44874 
L 165.730608 126.44874 
L 165.730608 112.189792 
L 163.942842 112.189792 
z
" style="fill:#1f77b4;opacity:0.5;"/>
   </g>
   <g id="patch_53">
    <path clip-path="url(#pacb48568d6)" d="M 166.177549 126.44874 
L 167.965315 126.44874 
L 167.965315 110.473437 
L 166.177549 110.473437 
z
" style="fill:#1f77b4;opacity:0.5;"/>
   </g>
   <g id="patch_54">
    <path clip-path="url(#pacb48568d6)" d="M 168.412256 126.44874 
L 170.200022 126.44874 
L 170.200022 108.625055 
L 168.412256 108.625055 
z
" style="fill:#1f77b4;opacity:0.5;"/>
   </g>
   <g id="patch_55">
    <path clip-path="url(#pacb48568d6)" d="M 170.646963 126.44874 
L 172.434729 126.44874 
L 172.434729 107.997926 
L 170.646963 107.997926 
z
" style="fill:#1f77b4;opacity:0.5;"/>
   </g>
   <g id="patch_56">
    <path clip-path="url(#pacb48568d6)" d="M 172.881671 126.44874 
L 174.669436 126.44874 
L 174.669436 107.172755 
L 172.881671 107.172755 
z
" style="fill:#1f77b4;opacity:0.5;"/>
   </g>
   <g id="patch_57">
    <path clip-path="url(#pacb48568d6)" d="M 175.116378 126.44874 
L 176.904144 126.44874 
L 176.904144 105.291366 
L 175.116378 105.291366 
z
" style="fill:#1f77b4;opacity:0.5;"/>
   </g>
   <g id="patch_58">
    <path clip-path="url(#pacb48568d6)" d="M 177.351085 126.44874 
L 179.138851 126.44874 
L 179.138851 103.178929 
L 177.351085 103.178929 
z
" style="fill:#1f77b4;opacity:0.5;"/>
   </g>
   <g id="patch_59">
    <path clip-path="url(#pacb48568d6)" d="M 179.585792 126.44874 
L 181.373558 126.44874 
L 181.373558 101.495581 
L 179.585792 101.495581 
z
" style="fill:#1f77b4;opacity:0.5;"/>
   </g>
   <g id="patch_60">
    <path clip-path="url(#pacb48568d6)" d="M 181.8205 126.44874 
L 183.608265 126.44874 
L 183.608265 99.878247 
L 181.8205 99.878247 
z
" style="fill:#1f77b4;opacity:0.5;"/>
   </g>
   <g id="patch_61">
    <path clip-path="url(#pacb48568d6)" d="M 184.055207 126.44874 
L 185.842973 126.44874 
L 185.842973 99.020069 
L 184.055207 99.020069 
z
" style="fill:#1f77b4;opacity:0.5;"/>
   </g>
   <g id="patch_62">
    <path clip-path="url(#pacb48568d6)" d="M 186.289914 126.44874 
L 188.07768 126.44874 
L 188.07768 98.128885 
L 186.289914 98.128885 
z
" style="fill:#1f77b4;opacity:0.5;"/>
   </g>
   <g id="patch_63">
    <path clip-path="url(#pacb48568d6)" d="M 188.524621 126.44874 
L 190.312387 126.44874 
L 190.312387 98.128885 
L 188.524621 98.128885 
z
" style="fill:#1f77b4;opacity:0.5;"/>
   </g>
   <g id="patch_64">
    <path clip-path="url(#pacb48568d6)" d="M 190.759329 126.44874 
L 192.547094 126.44874 
L 192.547094 96.742599 
L 190.759329 96.742599 
z
" style="fill:#1f77b4;opacity:0.5;"/>
   </g>
   <g id="patch_65">
    <path clip-path="url(#pacb48568d6)" d="M 192.994036 126.44874 
L 194.781802 126.44874 
L 194.781802 94.3331 
L 192.994036 94.3331 
z
" style="fill:#1f77b4;opacity:0.5;"/>
   </g>
   <g id="patch_66">
    <path clip-path="url(#pacb48568d6)" d="M 195.228743 126.44874 
L 197.016509 126.44874 
L 197.016509 92.913807 
L 195.228743 92.913807 
z
" style="fill:#1f77b4;opacity:0.5;"/>
   </g>
   <g id="patch_67">
    <path clip-path="url(#pacb48568d6)" d="M 197.46345 126.44874 
L 199.251216 126.44874 
L 199.251216 91.52752 
L 197.46345 91.52752 
z
" style="fill:#1f77b4;opacity:0.5;"/>
   </g>
   <g id="patch_68">
    <path clip-path="url(#pacb48568d6)" d="M 199.698158 126.44874 
L 201.485923 126.44874 
L 201.485923 89.811166 
L 199.698158 89.811166 
z
" style="fill:#1f77b4;opacity:0.5;"/>
   </g>
   <g id="matplotlib.axis_1">
    <g id="xtick_1">
     <g id="line2d_1">
      <defs>
       <path d="M 0 0 
L 0 3.5 
" id="m1c07b76794" style="stroke:#000000;stroke-width:0.8;"/>
      </defs>
      <g>
       <use style="stroke:#000000;stroke-width:0.8;" x="200.592041" xlink:href="#m1c07b76794" y="126.44874"/>
      </g>
     </g>
     <g id="text_1">
      <!-- 19 Apr -->
      <defs>
       <path d="M 12.40625 8.296875 
L 28.515625 8.296875 
L 28.515625 63.921875 
L 10.984375 60.40625 
L 10.984375 69.390625 
L 28.421875 72.90625 
L 38.28125 72.90625 
L 38.28125 8.296875 
L 54.390625 8.296875 
L 54.390625 0 
L 12.40625 0 
z
" id="DejaVuSans-49"/>
       <path d="M 10.984375 1.515625 
L 10.984375 10.5 
Q 14.703125 8.734375 18.5 7.8125 
Q 22.3125 6.890625 25.984375 6.890625 
Q 35.75 6.890625 40.890625 13.453125 
Q 46.046875 20.015625 46.78125 33.40625 
Q 43.953125 29.203125 39.59375 26.953125 
Q 35.25 24.703125 29.984375 24.703125 
Q 19.046875 24.703125 12.671875 31.3125 
Q 6.296875 37.9375 6.296875 49.421875 
Q 6.296875 60.640625 12.9375 67.421875 
Q 19.578125 74.21875 30.609375 74.21875 
Q 43.265625 74.21875 49.921875 64.515625 
Q 56.59375 54.828125 56.59375 36.375 
Q 56.59375 19.140625 48.40625 8.859375 
Q 40.234375 -1.421875 26.421875 -1.421875 
Q 22.703125 -1.421875 18.890625 -0.6875 
Q 15.09375 0.046875 10.984375 1.515625 
z
M 30.609375 32.421875 
Q 37.25 32.421875 41.125 36.953125 
Q 45.015625 41.5 45.015625 49.421875 
Q 45.015625 57.28125 41.125 61.84375 
Q 37.25 66.40625 30.609375 66.40625 
Q 23.96875 66.40625 20.09375 61.84375 
Q 16.21875 57.28125 16.21875 49.421875 
Q 16.21875 41.5 20.09375 36.953125 
Q 23.96875 32.421875 30.609375 32.421875 
z
" id="DejaVuSans-57"/>
       <path id="DejaVuSans-32"/>
       <path d="M 34.1875 63.1875 
L 20.796875 26.90625 
L 47.609375 26.90625 
z
M 28.609375 72.90625 
L 39.796875 72.90625 
L 67.578125 0 
L 57.328125 0 
L 50.6875 18.703125 
L 17.828125 18.703125 
L 11.1875 0 
L 0.78125 0 
z
" id="DejaVuSans-65"/>
       <path d="M 18.109375 8.203125 
L 18.109375 -20.796875 
L 9.078125 -20.796875 
L 9.078125 54.6875 
L 18.109375 54.6875 
L 18.109375 46.390625 
Q 20.953125 51.265625 25.265625 53.625 
Q 29.59375 56 35.59375 56 
Q 45.5625 56 51.78125 48.09375 
Q 58.015625 40.1875 58.015625 27.296875 
Q 58.015625 14.40625 51.78125 6.484375 
Q 45.5625 -1.421875 35.59375 -1.421875 
Q 29.59375 -1.421875 25.265625 0.953125 
Q 20.953125 3.328125 18.109375 8.203125 
z
M 48.6875 27.296875 
Q 48.6875 37.203125 44.609375 42.84375 
Q 40.53125 48.484375 33.40625 48.484375 
Q 26.265625 48.484375 22.1875 42.84375 
Q 18.109375 37.203125 18.109375 27.296875 
Q 18.109375 17.390625 22.1875 11.75 
Q 26.265625 6.109375 33.40625 6.109375 
Q 40.53125 6.109375 44.609375 11.75 
Q 48.6875 17.390625 48.6875 27.296875 
z
" id="DejaVuSans-112"/>
       <path d="M 41.109375 46.296875 
Q 39.59375 47.171875 37.8125 47.578125 
Q 36.03125 48 33.890625 48 
Q 26.265625 48 22.1875 43.046875 
Q 18.109375 38.09375 18.109375 28.8125 
L 18.109375 0 
L 9.078125 0 
L 9.078125 54.6875 
L 18.109375 54.6875 
L 18.109375 46.1875 
Q 20.953125 51.171875 25.484375 53.578125 
Q 30.03125 56 36.53125 56 
Q 37.453125 56 38.578125 55.875 
Q 39.703125 55.765625 41.0625 55.515625 
z
" id="DejaVuSans-114"/>
      </defs>
      <g transform="translate(202.799541 160.01124)rotate(-90)scale(0.08 -0.08)">
       <use xlink:href="#DejaVuSans-49"/>
       <use x="63.623047" xlink:href="#DejaVuSans-57"/>
       <use x="127.246094" xlink:href="#DejaVuSans-32"/>
       <use x="159.033203" xlink:href="#DejaVuSans-65"/>
       <use x="227.441406" xlink:href="#DejaVuSans-112"/>
       <use x="290.917969" xlink:href="#DejaVuSans-114"/>
      </g>
     </g>
    </g>
    <g id="xtick_2">
     <g id="line2d_2">
      <g>
       <use style="stroke:#000000;stroke-width:0.8;" x="184.94909" xlink:href="#m1c07b76794" y="126.44874"/>
      </g>
     </g>
     <g id="text_2">
      <!-- 12 Apr -->
      <defs>
       <path d="M 19.1875 8.296875 
L 53.609375 8.296875 
L 53.609375 0 
L 7.328125 0 
L 7.328125 8.296875 
Q 12.9375 14.109375 22.625 23.890625 
Q 32.328125 33.6875 34.8125 36.53125 
Q 39.546875 41.84375 41.421875 45.53125 
Q 43.3125 49.21875 43.3125 52.78125 
Q 43.3125 58.59375 39.234375 62.25 
Q 35.15625 65.921875 28.609375 65.921875 
Q 23.96875 65.921875 18.8125 64.3125 
Q 13.671875 62.703125 7.8125 59.421875 
L 7.8125 69.390625 
Q 13.765625 71.78125 18.9375 73 
Q 24.125 74.21875 28.421875 74.21875 
Q 39.75 74.21875 46.484375 68.546875 
Q 53.21875 62.890625 53.21875 53.421875 
Q 53.21875 48.921875 51.53125 44.890625 
Q 49.859375 40.875 45.40625 35.40625 
Q 44.1875 33.984375 37.640625 27.21875 
Q 31.109375 20.453125 19.1875 8.296875 
z
" id="DejaVuSans-50"/>
      </defs>
      <g transform="translate(187.15659 160.01124)rotate(-90)scale(0.08 -0.08)">
       <use xlink:href="#DejaVuSans-49"/>
       <use x="63.623047" xlink:href="#DejaVuSans-50"/>
       <use x="127.246094" xlink:href="#DejaVuSans-32"/>
       <use x="159.033203" xlink:href="#DejaVuSans-65"/>
       <use x="227.441406" xlink:href="#DejaVuSans-112"/>
       <use x="290.917969" xlink:href="#DejaVuSans-114"/>
      </g>
     </g>
    </g>
    <g id="xtick_3">
     <g id="line2d_3">
      <g>
       <use style="stroke:#000000;stroke-width:0.8;" x="169.306139" xlink:href="#m1c07b76794" y="126.44874"/>
      </g>
     </g>
     <g id="text_3">
      <!-- 5 Apr -->
      <defs>
       <path d="M 10.796875 72.90625 
L 49.515625 72.90625 
L 49.515625 64.59375 
L 19.828125 64.59375 
L 19.828125 46.734375 
Q 21.96875 47.46875 24.109375 47.828125 
Q 26.265625 48.1875 28.421875 48.1875 
Q 40.625 48.1875 47.75 41.5 
Q 54.890625 34.8125 54.890625 23.390625 
Q 54.890625 11.625 47.5625 5.09375 
Q 40.234375 -1.421875 26.90625 -1.421875 
Q 22.3125 -1.421875 17.546875 -0.640625 
Q 12.796875 0.140625 7.71875 1.703125 
L 7.71875 11.625 
Q 12.109375 9.234375 16.796875 8.0625 
Q 21.484375 6.890625 26.703125 6.890625 
Q 35.15625 6.890625 40.078125 11.328125 
Q 45.015625 15.765625 45.015625 23.390625 
Q 45.015625 31 40.078125 35.4375 
Q 35.15625 39.890625 26.703125 39.890625 
Q 22.75 39.890625 18.8125 39.015625 
Q 14.890625 38.140625 10.796875 36.28125 
z
" id="DejaVuSans-53"/>
      </defs>
      <g transform="translate(171.513639 154.92124)rotate(-90)scale(0.08 -0.08)">
       <use xlink:href="#DejaVuSans-53"/>
       <use x="63.623047" xlink:href="#DejaVuSans-32"/>
       <use x="95.410156" xlink:href="#DejaVuSans-65"/>
       <use x="163.818359" xlink:href="#DejaVuSans-112"/>
       <use x="227.294922" xlink:href="#DejaVuSans-114"/>
      </g>
     </g>
    </g>
    <g id="xtick_4">
     <g id="line2d_4">
      <g>
       <use style="stroke:#000000;stroke-width:0.8;" x="153.663188" xlink:href="#m1c07b76794" y="126.44874"/>
      </g>
     </g>
     <g id="text_4">
      <!-- 29 Mar -->
      <defs>
       <path d="M 9.8125 72.90625 
L 24.515625 72.90625 
L 43.109375 23.296875 
L 61.8125 72.90625 
L 76.515625 72.90625 
L 76.515625 0 
L 66.890625 0 
L 66.890625 64.015625 
L 48.09375 14.015625 
L 38.1875 14.015625 
L 19.390625 64.015625 
L 19.390625 0 
L 9.8125 0 
z
" id="DejaVuSans-77"/>
       <path d="M 34.28125 27.484375 
Q 23.390625 27.484375 19.1875 25 
Q 14.984375 22.515625 14.984375 16.5 
Q 14.984375 11.71875 18.140625 8.90625 
Q 21.296875 6.109375 26.703125 6.109375 
Q 34.1875 6.109375 38.703125 11.40625 
Q 43.21875 16.703125 43.21875 25.484375 
L 43.21875 27.484375 
z
M 52.203125 31.203125 
L 52.203125 0 
L 43.21875 0 
L 43.21875 8.296875 
Q 40.140625 3.328125 35.546875 0.953125 
Q 30.953125 -1.421875 24.3125 -1.421875 
Q 15.921875 -1.421875 10.953125 3.296875 
Q 6 8.015625 6 15.921875 
Q 6 25.140625 12.171875 29.828125 
Q 18.359375 34.515625 30.609375 34.515625 
L 43.21875 34.515625 
L 43.21875 35.40625 
Q 43.21875 41.609375 39.140625 45 
Q 35.0625 48.390625 27.6875 48.390625 
Q 23 48.390625 18.546875 47.265625 
Q 14.109375 46.140625 10.015625 43.890625 
L 10.015625 52.203125 
Q 14.9375 54.109375 19.578125 55.046875 
Q 24.21875 56 28.609375 56 
Q 40.484375 56 46.34375 49.84375 
Q 52.203125 43.703125 52.203125 31.203125 
z
" id="DejaVuSans-97"/>
      </defs>
      <g transform="translate(155.870688 161.26499)rotate(-90)scale(0.08 -0.08)">
       <use xlink:href="#DejaVuSans-50"/>
       <use x="63.623047" xlink:href="#DejaVuSans-57"/>
       <use x="127.246094" xlink:href="#DejaVuSans-32"/>
       <use x="159.033203" xlink:href="#DejaVuSans-77"/>
       <use x="245.3125" xlink:href="#DejaVuSans-97"/>
       <use x="306.591797" xlink:href="#DejaVuSans-114"/>
      </g>
     </g>
    </g>
    <g id="xtick_5">
     <g id="line2d_5">
      <g>
       <use style="stroke:#000000;stroke-width:0.8;" x="138.020238" xlink:href="#m1c07b76794" y="126.44874"/>
      </g>
     </g>
     <g id="text_5">
      <!-- 22 Mar -->
      <g transform="translate(140.227738 161.26499)rotate(-90)scale(0.08 -0.08)">
       <use xlink:href="#DejaVuSans-50"/>
       <use x="63.623047" xlink:href="#DejaVuSans-50"/>
       <use x="127.246094" xlink:href="#DejaVuSans-32"/>
       <use x="159.033203" xlink:href="#DejaVuSans-77"/>
       <use x="245.3125" xlink:href="#DejaVuSans-97"/>
       <use x="306.591797" xlink:href="#DejaVuSans-114"/>
      </g>
     </g>
    </g>
    <g id="xtick_6">
     <g id="line2d_6">
      <g>
       <use style="stroke:#000000;stroke-width:0.8;" x="122.377287" xlink:href="#m1c07b76794" y="126.44874"/>
      </g>
     </g>
     <g id="text_6">
      <!-- 15 Mar -->
      <g transform="translate(124.584787 161.26499)rotate(-90)scale(0.08 -0.08)">
       <use xlink:href="#DejaVuSans-49"/>
       <use x="63.623047" xlink:href="#DejaVuSans-53"/>
       <use x="127.246094" xlink:href="#DejaVuSans-32"/>
       <use x="159.033203" xlink:href="#DejaVuSans-77"/>
       <use x="245.3125" xlink:href="#DejaVuSans-97"/>
       <use x="306.591797" xlink:href="#DejaVuSans-114"/>
      </g>
     </g>
    </g>
    <g id="xtick_7">
     <g id="line2d_7">
      <g>
       <use style="stroke:#000000;stroke-width:0.8;" x="106.734336" xlink:href="#m1c07b76794" y="126.44874"/>
      </g>
     </g>
     <g id="text_7">
      <!-- 8 Mar -->
      <defs>
       <path d="M 31.78125 34.625 
Q 24.75 34.625 20.71875 30.859375 
Q 16.703125 27.09375 16.703125 20.515625 
Q 16.703125 13.921875 20.71875 10.15625 
Q 24.75 6.390625 31.78125 6.390625 
Q 38.8125 6.390625 42.859375 10.171875 
Q 46.921875 13.96875 46.921875 20.515625 
Q 46.921875 27.09375 42.890625 30.859375 
Q 38.875 34.625 31.78125 34.625 
z
M 21.921875 38.8125 
Q 15.578125 40.375 12.03125 44.71875 
Q 8.5 49.078125 8.5 55.328125 
Q 8.5 64.0625 14.71875 69.140625 
Q 20.953125 74.21875 31.78125 74.21875 
Q 42.671875 74.21875 48.875 69.140625 
Q 55.078125 64.0625 55.078125 55.328125 
Q 55.078125 49.078125 51.53125 44.71875 
Q 48 40.375 41.703125 38.8125 
Q 48.828125 37.15625 52.796875 32.3125 
Q 56.78125 27.484375 56.78125 20.515625 
Q 56.78125 9.90625 50.3125 4.234375 
Q 43.84375 -1.421875 31.78125 -1.421875 
Q 19.734375 -1.421875 13.25 4.234375 
Q 6.78125 9.90625 6.78125 20.515625 
Q 6.78125 27.484375 10.78125 32.3125 
Q 14.796875 37.15625 21.921875 38.8125 
z
M 18.3125 54.390625 
Q 18.3125 48.734375 21.84375 45.5625 
Q 25.390625 42.390625 31.78125 42.390625 
Q 38.140625 42.390625 41.71875 45.5625 
Q 45.3125 48.734375 45.3125 54.390625 
Q 45.3125 60.0625 41.71875 63.234375 
Q 38.140625 66.40625 31.78125 66.40625 
Q 25.390625 66.40625 21.84375 63.234375 
Q 18.3125 60.0625 18.3125 54.390625 
z
" id="DejaVuSans-56"/>
      </defs>
      <g transform="translate(108.941836 156.17499)rotate(-90)scale(0.08 -0.08)">
       <use xlink:href="#DejaVuSans-56"/>
       <use x="63.623047" xlink:href="#DejaVuSans-32"/>
       <use x="95.410156" xlink:href="#DejaVuSans-77"/>
       <use x="181.689453" xlink:href="#DejaVuSans-97"/>
       <use x="242.96875" xlink:href="#DejaVuSans-114"/>
      </g>
     </g>
    </g>
    <g id="xtick_8">
     <g id="line2d_8">
      <g>
       <use style="stroke:#000000;stroke-width:0.8;" x="91.091386" xlink:href="#m1c07b76794" y="126.44874"/>
      </g>
     </g>
     <g id="text_8">
      <!-- 1 Mar -->
      <g transform="translate(93.298886 156.17499)rotate(-90)scale(0.08 -0.08)">
       <use xlink:href="#DejaVuSans-49"/>
       <use x="63.623047" xlink:href="#DejaVuSans-32"/>
       <use x="95.410156" xlink:href="#DejaVuSans-77"/>
       <use x="181.689453" xlink:href="#DejaVuSans-97"/>
       <use x="242.96875" xlink:href="#DejaVuSans-114"/>
      </g>
     </g>
    </g>
    <g id="xtick_9">
     <g id="line2d_9">
      <g>
       <use style="stroke:#000000;stroke-width:0.8;" x="75.448435" xlink:href="#m1c07b76794" y="126.44874"/>
      </g>
     </g>
     <g id="text_9">
      <!-- 23 Feb -->
      <defs>
       <path d="M 40.578125 39.3125 
Q 47.65625 37.796875 51.625 33 
Q 55.609375 28.21875 55.609375 21.1875 
Q 55.609375 10.40625 48.1875 4.484375 
Q 40.765625 -1.421875 27.09375 -1.421875 
Q 22.515625 -1.421875 17.65625 -0.515625 
Q 12.796875 0.390625 7.625 2.203125 
L 7.625 11.71875 
Q 11.71875 9.328125 16.59375 8.109375 
Q 21.484375 6.890625 26.8125 6.890625 
Q 36.078125 6.890625 40.9375 10.546875 
Q 45.796875 14.203125 45.796875 21.1875 
Q 45.796875 27.640625 41.28125 31.265625 
Q 36.765625 34.90625 28.71875 34.90625 
L 20.21875 34.90625 
L 20.21875 43.015625 
L 29.109375 43.015625 
Q 36.375 43.015625 40.234375 45.921875 
Q 44.09375 48.828125 44.09375 54.296875 
Q 44.09375 59.90625 40.109375 62.90625 
Q 36.140625 65.921875 28.71875 65.921875 
Q 24.65625 65.921875 20.015625 65.03125 
Q 15.375 64.15625 9.8125 62.3125 
L 9.8125 71.09375 
Q 15.4375 72.65625 20.34375 73.4375 
Q 25.25 74.21875 29.59375 74.21875 
Q 40.828125 74.21875 47.359375 69.109375 
Q 53.90625 64.015625 53.90625 55.328125 
Q 53.90625 49.265625 50.4375 45.09375 
Q 46.96875 40.921875 40.578125 39.3125 
z
" id="DejaVuSans-51"/>
       <path d="M 9.8125 72.90625 
L 51.703125 72.90625 
L 51.703125 64.59375 
L 19.671875 64.59375 
L 19.671875 43.109375 
L 48.578125 43.109375 
L 48.578125 34.8125 
L 19.671875 34.8125 
L 19.671875 0 
L 9.8125 0 
z
" id="DejaVuSans-70"/>
       <path d="M 56.203125 29.59375 
L 56.203125 25.203125 
L 14.890625 25.203125 
Q 15.484375 15.921875 20.484375 11.0625 
Q 25.484375 6.203125 34.421875 6.203125 
Q 39.59375 6.203125 44.453125 7.46875 
Q 49.3125 8.734375 54.109375 11.28125 
L 54.109375 2.78125 
Q 49.265625 0.734375 44.1875 -0.34375 
Q 39.109375 -1.421875 33.890625 -1.421875 
Q 20.796875 -1.421875 13.15625 6.1875 
Q 5.515625 13.8125 5.515625 26.8125 
Q 5.515625 40.234375 12.765625 48.109375 
Q 20.015625 56 32.328125 56 
Q 43.359375 56 49.78125 48.890625 
Q 56.203125 41.796875 56.203125 29.59375 
z
M 47.21875 32.234375 
Q 47.125 39.59375 43.09375 43.984375 
Q 39.0625 48.390625 32.421875 48.390625 
Q 24.90625 48.390625 20.390625 44.140625 
Q 15.875 39.890625 15.1875 32.171875 
z
" id="DejaVuSans-101"/>
       <path d="M 48.6875 27.296875 
Q 48.6875 37.203125 44.609375 42.84375 
Q 40.53125 48.484375 33.40625 48.484375 
Q 26.265625 48.484375 22.1875 42.84375 
Q 18.109375 37.203125 18.109375 27.296875 
Q 18.109375 17.390625 22.1875 11.75 
Q 26.265625 6.109375 33.40625 6.109375 
Q 40.53125 6.109375 44.609375 11.75 
Q 48.6875 17.390625 48.6875 27.296875 
z
M 18.109375 46.390625 
Q 20.953125 51.265625 25.265625 53.625 
Q 29.59375 56 35.59375 56 
Q 45.5625 56 51.78125 48.09375 
Q 58.015625 40.1875 58.015625 27.296875 
Q 58.015625 14.40625 51.78125 6.484375 
Q 45.5625 -1.421875 35.59375 -1.421875 
Q 29.59375 -1.421875 25.265625 0.953125 
Q 20.953125 3.328125 18.109375 8.203125 
L 18.109375 0 
L 9.078125 0 
L 9.078125 75.984375 
L 18.109375 75.984375 
z
" id="DejaVuSans-98"/>
      </defs>
      <g transform="translate(77.655935 160.33374)rotate(-90)scale(0.08 -0.08)">
       <use xlink:href="#DejaVuSans-50"/>
       <use x="63.623047" xlink:href="#DejaVuSans-51"/>
       <use x="127.246094" xlink:href="#DejaVuSans-32"/>
       <use x="159.033203" xlink:href="#DejaVuSans-70"/>
       <use x="211.052734" xlink:href="#DejaVuSans-101"/>
       <use x="272.576172" xlink:href="#DejaVuSans-98"/>
      </g>
     </g>
    </g>
    <g id="xtick_10">
     <g id="line2d_10">
      <g>
       <use style="stroke:#000000;stroke-width:0.8;" x="59.805484" xlink:href="#m1c07b76794" y="126.44874"/>
      </g>
     </g>
     <g id="text_10">
      <!-- 16 Feb -->
      <defs>
       <path d="M 33.015625 40.375 
Q 26.375 40.375 22.484375 35.828125 
Q 18.609375 31.296875 18.609375 23.390625 
Q 18.609375 15.53125 22.484375 10.953125 
Q 26.375 6.390625 33.015625 6.390625 
Q 39.65625 6.390625 43.53125 10.953125 
Q 47.40625 15.53125 47.40625 23.390625 
Q 47.40625 31.296875 43.53125 35.828125 
Q 39.65625 40.375 33.015625 40.375 
z
M 52.59375 71.296875 
L 52.59375 62.3125 
Q 48.875 64.0625 45.09375 64.984375 
Q 41.3125 65.921875 37.59375 65.921875 
Q 27.828125 65.921875 22.671875 59.328125 
Q 17.53125 52.734375 16.796875 39.40625 
Q 19.671875 43.65625 24.015625 45.921875 
Q 28.375 48.1875 33.59375 48.1875 
Q 44.578125 48.1875 50.953125 41.515625 
Q 57.328125 34.859375 57.328125 23.390625 
Q 57.328125 12.15625 50.6875 5.359375 
Q 44.046875 -1.421875 33.015625 -1.421875 
Q 20.359375 -1.421875 13.671875 8.265625 
Q 6.984375 17.96875 6.984375 36.375 
Q 6.984375 53.65625 15.1875 63.9375 
Q 23.390625 74.21875 37.203125 74.21875 
Q 40.921875 74.21875 44.703125 73.484375 
Q 48.484375 72.75 52.59375 71.296875 
z
" id="DejaVuSans-54"/>
      </defs>
      <g transform="translate(62.012984 160.33374)rotate(-90)scale(0.08 -0.08)">
       <use xlink:href="#DejaVuSans-49"/>
       <use x="63.623047" xlink:href="#DejaVuSans-54"/>
       <use x="127.246094" xlink:href="#DejaVuSans-32"/>
       <use x="159.033203" xlink:href="#DejaVuSans-70"/>
       <use x="211.052734" xlink:href="#DejaVuSans-101"/>
       <use x="272.576172" xlink:href="#DejaVuSans-98"/>
      </g>
     </g>
    </g>
   </g>
   <g id="matplotlib.axis_2">
    <g id="ytick_1">
     <g id="line2d_11">
      <defs>
       <path d="M 0 0 
L -3.5 0 
" id="m21462351de" style="stroke:#000000;stroke-width:0.8;"/>
      </defs>
      <g>
       <use style="stroke:#000000;stroke-width:0.8;" x="47.09" xlink:href="#m21462351de" y="126.44874"/>
      </g>
     </g>
     <g id="text_11">
      <!-- 0 -->
      <defs>
       <path d="M 31.78125 66.40625 
Q 24.171875 66.40625 20.328125 58.90625 
Q 16.5 51.421875 16.5 36.375 
Q 16.5 21.390625 20.328125 13.890625 
Q 24.171875 6.390625 31.78125 6.390625 
Q 39.453125 6.390625 43.28125 13.890625 
Q 47.125 21.390625 47.125 36.375 
Q 47.125 51.421875 43.28125 58.90625 
Q 39.453125 66.40625 31.78125 66.40625 
z
M 31.78125 74.21875 
Q 44.046875 74.21875 50.515625 64.515625 
Q 56.984375 54.828125 56.984375 36.375 
Q 56.984375 17.96875 50.515625 8.265625 
Q 44.046875 -1.421875 31.78125 -1.421875 
Q 19.53125 -1.421875 13.0625 8.265625 
Q 6.59375 17.96875 6.59375 36.375 
Q 6.59375 54.828125 13.0625 64.515625 
Q 19.53125 74.21875 31.78125 74.21875 
z
" id="DejaVuSans-48"/>
      </defs>
      <g transform="translate(35 129.488115)scale(0.08 -0.08)">
       <use xlink:href="#DejaVuSans-48"/>
      </g>
     </g>
    </g>
    <g id="ytick_2">
     <g id="line2d_12">
      <g>
       <use style="stroke:#000000;stroke-width:0.8;" x="47.09" xlink:href="#m21462351de" y="109.945328"/>
      </g>
     </g>
     <g id="text_12">
      <!-- 500 -->
      <g transform="translate(24.82 112.984703)scale(0.08 -0.08)">
       <use xlink:href="#DejaVuSans-53"/>
       <use x="63.623047" xlink:href="#DejaVuSans-48"/>
       <use x="127.246094" xlink:href="#DejaVuSans-48"/>
      </g>
     </g>
    </g>
    <g id="ytick_3">
     <g id="line2d_13">
      <g>
       <use style="stroke:#000000;stroke-width:0.8;" x="47.09" xlink:href="#m21462351de" y="93.441916"/>
      </g>
     </g>
     <g id="text_13">
      <!-- 1000 -->
      <g transform="translate(19.73 96.481291)scale(0.08 -0.08)">
       <use xlink:href="#DejaVuSans-49"/>
       <use x="63.623047" xlink:href="#DejaVuSans-48"/>
       <use x="127.246094" xlink:href="#DejaVuSans-48"/>
       <use x="190.869141" xlink:href="#DejaVuSans-48"/>
      </g>
     </g>
    </g>
    <g id="ytick_4">
     <g id="line2d_14">
      <g>
       <use style="stroke:#000000;stroke-width:0.8;" x="47.09" xlink:href="#m21462351de" y="76.938504"/>
      </g>
     </g>
     <g id="text_14">
      <!-- 1500 -->
      <g transform="translate(19.73 79.977879)scale(0.08 -0.08)">
       <use xlink:href="#DejaVuSans-49"/>
       <use x="63.623047" xlink:href="#DejaVuSans-53"/>
       <use x="127.246094" xlink:href="#DejaVuSans-48"/>
       <use x="190.869141" xlink:href="#DejaVuSans-48"/>
      </g>
     </g>
    </g>
    <g id="ytick_5">
     <g id="line2d_15">
      <g>
       <use style="stroke:#000000;stroke-width:0.8;" x="47.09" xlink:href="#m21462351de" y="60.435092"/>
      </g>
     </g>
     <g id="text_15">
      <!-- 2000 -->
      <g transform="translate(19.73 63.474467)scale(0.08 -0.08)">
       <use xlink:href="#DejaVuSans-50"/>
       <use x="63.623047" xlink:href="#DejaVuSans-48"/>
       <use x="127.246094" xlink:href="#DejaVuSans-48"/>
       <use x="190.869141" xlink:href="#DejaVuSans-48"/>
      </g>
     </g>
    </g>
    <g id="ytick_6">
     <g id="line2d_16">
      <g>
       <use style="stroke:#000000;stroke-width:0.8;" x="47.09" xlink:href="#m21462351de" y="43.93168"/>
      </g>
     </g>
     <g id="text_16">
      <!-- 2500 -->
      <g transform="translate(19.73 46.971055)scale(0.08 -0.08)">
       <use xlink:href="#DejaVuSans-50"/>
       <use x="63.623047" xlink:href="#DejaVuSans-53"/>
       <use x="127.246094" xlink:href="#DejaVuSans-48"/>
       <use x="190.869141" xlink:href="#DejaVuSans-48"/>
      </g>
     </g>
    </g>
    <g id="ytick_7">
     <g id="line2d_17">
      <g>
       <use style="stroke:#000000;stroke-width:0.8;" x="47.09" xlink:href="#m21462351de" y="27.428268"/>
      </g>
     </g>
     <g id="text_17">
      <!-- 3000 -->
      <g transform="translate(19.73 30.467643)scale(0.08 -0.08)">
       <use xlink:href="#DejaVuSans-51"/>
       <use x="63.623047" xlink:href="#DejaVuSans-48"/>
       <use x="127.246094" xlink:href="#DejaVuSans-48"/>
       <use x="190.869141" xlink:href="#DejaVuSans-48"/>
      </g>
     </g>
    </g>
    <g id="text_18">
     <!-- Cumulative deaths -->
     <defs>
      <path d="M 64.40625 67.28125 
L 64.40625 56.890625 
Q 59.421875 61.53125 53.78125 63.8125 
Q 48.140625 66.109375 41.796875 66.109375 
Q 29.296875 66.109375 22.65625 58.46875 
Q 16.015625 50.828125 16.015625 36.375 
Q 16.015625 21.96875 22.65625 14.328125 
Q 29.296875 6.6875 41.796875 6.6875 
Q 48.140625 6.6875 53.78125 8.984375 
Q 59.421875 11.28125 64.40625 15.921875 
L 64.40625 5.609375 
Q 59.234375 2.09375 53.4375 0.328125 
Q 47.65625 -1.421875 41.21875 -1.421875 
Q 24.65625 -1.421875 15.125 8.703125 
Q 5.609375 18.84375 5.609375 36.375 
Q 5.609375 53.953125 15.125 64.078125 
Q 24.65625 74.21875 41.21875 74.21875 
Q 47.75 74.21875 53.53125 72.484375 
Q 59.328125 70.75 64.40625 67.28125 
z
" id="DejaVuSans-67"/>
      <path d="M 8.5 21.578125 
L 8.5 54.6875 
L 17.484375 54.6875 
L 17.484375 21.921875 
Q 17.484375 14.15625 20.5 10.265625 
Q 23.53125 6.390625 29.59375 6.390625 
Q 36.859375 6.390625 41.078125 11.03125 
Q 45.3125 15.671875 45.3125 23.6875 
L 45.3125 54.6875 
L 54.296875 54.6875 
L 54.296875 0 
L 45.3125 0 
L 45.3125 8.40625 
Q 42.046875 3.421875 37.71875 1 
Q 33.40625 -1.421875 27.6875 -1.421875 
Q 18.265625 -1.421875 13.375 4.4375 
Q 8.5 10.296875 8.5 21.578125 
z
M 31.109375 56 
z
" id="DejaVuSans-117"/>
      <path d="M 52 44.1875 
Q 55.375 50.25 60.0625 53.125 
Q 64.75 56 71.09375 56 
Q 79.640625 56 84.28125 50.015625 
Q 88.921875 44.046875 88.921875 33.015625 
L 88.921875 0 
L 79.890625 0 
L 79.890625 32.71875 
Q 79.890625 40.578125 77.09375 44.375 
Q 74.3125 48.1875 68.609375 48.1875 
Q 61.625 48.1875 57.5625 43.546875 
Q 53.515625 38.921875 53.515625 30.90625 
L 53.515625 0 
L 44.484375 0 
L 44.484375 32.71875 
Q 44.484375 40.625 41.703125 44.40625 
Q 38.921875 48.1875 33.109375 48.1875 
Q 26.21875 48.1875 22.15625 43.53125 
Q 18.109375 38.875 18.109375 30.90625 
L 18.109375 0 
L 9.078125 0 
L 9.078125 54.6875 
L 18.109375 54.6875 
L 18.109375 46.1875 
Q 21.1875 51.21875 25.484375 53.609375 
Q 29.78125 56 35.6875 56 
Q 41.65625 56 45.828125 52.96875 
Q 50 49.953125 52 44.1875 
z
" id="DejaVuSans-109"/>
      <path d="M 9.421875 75.984375 
L 18.40625 75.984375 
L 18.40625 0 
L 9.421875 0 
z
" id="DejaVuSans-108"/>
      <path d="M 18.3125 70.21875 
L 18.3125 54.6875 
L 36.8125 54.6875 
L 36.8125 47.703125 
L 18.3125 47.703125 
L 18.3125 18.015625 
Q 18.3125 11.328125 20.140625 9.421875 
Q 21.96875 7.515625 27.59375 7.515625 
L 36.8125 7.515625 
L 36.8125 0 
L 27.59375 0 
Q 17.1875 0 13.234375 3.875 
Q 9.28125 7.765625 9.28125 18.015625 
L 9.28125 47.703125 
L 2.6875 47.703125 
L 2.6875 54.6875 
L 9.28125 54.6875 
L 9.28125 70.21875 
z
" id="DejaVuSans-116"/>
      <path d="M 9.421875 54.6875 
L 18.40625 54.6875 
L 18.40625 0 
L 9.421875 0 
z
M 9.421875 75.984375 
L 18.40625 75.984375 
L 18.40625 64.59375 
L 9.421875 64.59375 
z
" id="DejaVuSans-105"/>
      <path d="M 2.984375 54.6875 
L 12.5 54.6875 
L 29.59375 8.796875 
L 46.6875 54.6875 
L 56.203125 54.6875 
L 35.6875 0 
L 23.484375 0 
z
" id="DejaVuSans-118"/>
      <path d="M 45.40625 46.390625 
L 45.40625 75.984375 
L 54.390625 75.984375 
L 54.390625 0 
L 45.40625 0 
L 45.40625 8.203125 
Q 42.578125 3.328125 38.25 0.953125 
Q 33.9375 -1.421875 27.875 -1.421875 
Q 17.96875 -1.421875 11.734375 6.484375 
Q 5.515625 14.40625 5.515625 27.296875 
Q 5.515625 40.1875 11.734375 48.09375 
Q 17.96875 56 27.875 56 
Q 33.9375 56 38.25 53.625 
Q 42.578125 51.265625 45.40625 46.390625 
z
M 14.796875 27.296875 
Q 14.796875 17.390625 18.875 11.75 
Q 22.953125 6.109375 30.078125 6.109375 
Q 37.203125 6.109375 41.296875 11.75 
Q 45.40625 17.390625 45.40625 27.296875 
Q 45.40625 37.203125 41.296875 42.84375 
Q 37.203125 48.484375 30.078125 48.484375 
Q 22.953125 48.484375 18.875 42.84375 
Q 14.796875 37.203125 14.796875 27.296875 
z
" id="DejaVuSans-100"/>
      <path d="M 54.890625 33.015625 
L 54.890625 0 
L 45.90625 0 
L 45.90625 32.71875 
Q 45.90625 40.484375 42.875 44.328125 
Q 39.84375 48.1875 33.796875 48.1875 
Q 26.515625 48.1875 22.3125 43.546875 
Q 18.109375 38.921875 18.109375 30.90625 
L 18.109375 0 
L 9.078125 0 
L 9.078125 75.984375 
L 18.109375 75.984375 
L 18.109375 46.1875 
Q 21.34375 51.125 25.703125 53.5625 
Q 30.078125 56 35.796875 56 
Q 45.21875 56 50.046875 50.171875 
Q 54.890625 44.34375 54.890625 33.015625 
z
" id="DejaVuSans-104"/>
      <path d="M 44.28125 53.078125 
L 44.28125 44.578125 
Q 40.484375 46.53125 36.375 47.5 
Q 32.28125 48.484375 27.875 48.484375 
Q 21.1875 48.484375 17.84375 46.4375 
Q 14.5 44.390625 14.5 40.28125 
Q 14.5 37.15625 16.890625 35.375 
Q 19.28125 33.59375 26.515625 31.984375 
L 29.59375 31.296875 
Q 39.15625 29.25 43.1875 25.515625 
Q 47.21875 21.78125 47.21875 15.09375 
Q 47.21875 7.46875 41.1875 3.015625 
Q 35.15625 -1.421875 24.609375 -1.421875 
Q 20.21875 -1.421875 15.453125 -0.5625 
Q 10.6875 0.296875 5.421875 2 
L 5.421875 11.28125 
Q 10.40625 8.6875 15.234375 7.390625 
Q 20.0625 6.109375 24.8125 6.109375 
Q 31.15625 6.109375 34.5625 8.28125 
Q 37.984375 10.453125 37.984375 14.40625 
Q 37.984375 18.0625 35.515625 20.015625 
Q 33.0625 21.96875 24.703125 23.78125 
L 21.578125 24.515625 
Q 13.234375 26.265625 9.515625 29.90625 
Q 5.8125 33.546875 5.8125 39.890625 
Q 5.8125 47.609375 11.28125 51.796875 
Q 16.75 56 26.8125 56 
Q 31.78125 56 36.171875 55.265625 
Q 40.578125 54.546875 44.28125 53.078125 
z
" id="DejaVuSans-115"/>
     </defs>
     <g transform="translate(14.06625 106.72437)rotate(-90)scale(0.08 -0.08)">
      <use xlink:href="#DejaVuSans-67"/>
      <use x="69.824219" xlink:href="#DejaVuSans-117"/>
      <use x="133.203125" xlink:href="#DejaVuSans-109"/>
      <use x="230.615234" xlink:href="#DejaVuSans-117"/>
      <use x="293.994141" xlink:href="#DejaVuSans-108"/>
      <use x="321.777344" xlink:href="#DejaVuSans-97"/>
      <use x="383.056641" xlink:href="#DejaVuSans-116"/>
      <use x="422.265625" xlink:href="#DejaVuSans-105"/>
      <use x="450.048828" xlink:href="#DejaVuSans-118"/>
      <use x="509.228516" xlink:href="#DejaVuSans-101"/>
      <use x="570.751953" xlink:href="#DejaVuSans-32"/>
      <use x="602.539062" xlink:href="#DejaVuSans-100"/>
      <use x="666.015625" xlink:href="#DejaVuSans-101"/>
      <use x="727.539062" xlink:href="#DejaVuSans-97"/>
      <use x="788.818359" xlink:href="#DejaVuSans-116"/>
      <use x="828.027344" xlink:href="#DejaVuSans-104"/>
      <use x="891.40625" xlink:href="#DejaVuSans-115"/>
     </g>
    </g>
   </g>
   <g id="line2d_18">
    <path clip-path="url(#pacb48568d6)" d="M 55.33607 126.44874 
L 57.570777 126.44874 
L 59.805484 126.448737 
L 62.040191 126.448723 
L 64.274899 126.448683 
L 66.509606 126.448597 
L 68.744313 126.448435 
L 70.97902 126.448162 
L 73.213728 126.447739 
L 75.448435 126.447119 
L 77.683142 126.446253 
L 79.917849 126.445073 
L 82.152557 126.443504 
L 84.387264 126.441447 
L 86.621971 126.438787 
L 88.856678 126.435384 
L 91.091386 126.431069 
L 93.326093 126.425638 
L 95.5608 126.41883 
L 97.795507 126.410337 
L 100.030215 126.399778 
L 102.264922 126.386697 
L 104.499629 126.370559 
L 106.734336 126.350732 
L 108.969044 126.326463 
L 111.203751 126.296818 
L 113.438458 126.260683 
L 115.673165 126.216708 
L 117.907873 126.163267 
L 120.14258 126.098329 
L 122.377287 126.018972 
L 124.611994 125.921329 
L 126.846701 125.800397 
L 129.081409 125.64893 
L 131.316116 125.458111 
L 133.550823 125.217214 
L 135.78553 124.914256 
L 138.020238 124.536101 
L 140.254945 124.069627 
L 142.489652 123.502627 
L 144.724359 122.824052 
L 146.959067 122.024531 
L 149.193774 121.096206 
L 151.428481 120.032524 
L 153.663188 118.827737 
" style="fill:none;stroke:#0000ff;stroke-linecap:square;stroke-opacity:0.5;"/>
   </g>
   <g id="line2d_19">
    <path clip-path="url(#pacb48568d6)" d="M 155.897896 117.476819 
L 158.132603 115.976151 
L 160.36731 114.32384 
L 162.602017 112.52042 
L 164.836725 110.569141 
L 167.071432 108.475979 
L 169.306139 106.24944 
L 171.540846 103.900207 
L 173.775554 101.440699 
L 176.010261 98.884593 
L 178.244968 96.246347 
L 180.479675 93.540749 
L 182.714383 90.782512 
L 184.94909 87.985923 
L 187.183797 85.164554 
L 189.418504 82.331027 
L 191.653212 79.496841 
L 193.887919 76.672249 
L 196.122626 73.866175 
L 198.357333 71.086184 
L 200.592041 68.338468 
" style="fill:none;stroke:#008000;stroke-linecap:square;stroke-opacity:0.5;"/>
   </g>
   <g id="line2d_20">
    <path clip-path="url(#pacb48568d6)" d="M 117.907873 126.44874 
L 117.907873 11.52 
" style="fill:none;stroke:#0000ff;stroke-dasharray:1.85,0.8;stroke-dashoffset:0;stroke-width:0.5;"/>
   </g>
   <g id="line2d_21">
    <path clip-path="url(#pacb48568d6)" d="M 120.14258 126.44874 
L 120.14258 11.52 
" style="fill:none;stroke:#0000ff;stroke-dasharray:1.85,0.8;stroke-dashoffset:0;stroke-width:0.5;"/>
   </g>
   <g id="line2d_22">
    <path clip-path="url(#pacb48568d6)" d="M 133.550823 126.44874 
L 133.550823 11.52 
" style="fill:none;stroke:#0000ff;stroke-dasharray:1.85,0.8;stroke-dashoffset:0;stroke-width:0.5;"/>
   </g>
   <g id="line2d_23">
    <path clip-path="url(#pacb48568d6)" d="M 124.611994 126.44874 
L 124.611994 11.52 
" style="fill:none;stroke:#0000ff;stroke-dasharray:1.85,0.8;stroke-dashoffset:0;stroke-width:0.5;"/>
   </g>
   <g id="line2d_24">
    <path clip-path="url(#pacb48568d6)" d="M 93.326093 126.44874 
L 93.326093 11.52 
" style="fill:none;stroke:#0000ff;stroke-dasharray:1.85,0.8;stroke-dashoffset:0;stroke-width:0.5;"/>
   </g>
   <g id="patch_69">
    <path d="M 47.09 126.44874 
L 47.09 11.52 
" style="fill:none;stroke:#000000;stroke-linecap:square;stroke-linejoin:miter;stroke-width:0.8;"/>
   </g>
   <g id="patch_70">
    <path d="M 208.83811 126.44874 
L 208.83811 11.52 
" style="fill:none;stroke:#000000;stroke-linecap:square;stroke-linejoin:miter;stroke-width:0.8;"/>
   </g>
   <g id="patch_71">
    <path d="M 47.09 126.44874 
L 208.83811 126.44874 
" style="fill:none;stroke:#000000;stroke-linecap:square;stroke-linejoin:miter;stroke-width:0.8;"/>
   </g>
   <g id="patch_72">
    <path d="M 47.09 11.52 
L 208.83811 11.52 
" style="fill:none;stroke:#000000;stroke-linecap:square;stroke-linejoin:miter;stroke-width:0.8;"/>
   </g>
   <g id="legend_1">
    <g id="line2d_25">
     <path d="M 54.29 103.04249 
L 70.29 103.04249 
" style="fill:none;stroke:#0000ff;stroke-linecap:square;stroke-opacity:0.5;"/>
    </g>
    <g id="line2d_26"/>
    <g id="text_19">
     <!-- Simulation -->
     <defs>
      <path d="M 53.515625 70.515625 
L 53.515625 60.890625 
Q 47.90625 63.578125 42.921875 64.890625 
Q 37.9375 66.21875 33.296875 66.21875 
Q 25.25 66.21875 20.875 63.09375 
Q 16.5 59.96875 16.5 54.203125 
Q 16.5 49.359375 19.40625 46.890625 
Q 22.3125 44.4375 30.421875 42.921875 
L 36.375 41.703125 
Q 47.40625 39.59375 52.65625 34.296875 
Q 57.90625 29 57.90625 20.125 
Q 57.90625 9.515625 50.796875 4.046875 
Q 43.703125 -1.421875 29.984375 -1.421875 
Q 24.8125 -1.421875 18.96875 -0.25 
Q 13.140625 0.921875 6.890625 3.21875 
L 6.890625 13.375 
Q 12.890625 10.015625 18.65625 8.296875 
Q 24.421875 6.59375 29.984375 6.59375 
Q 38.421875 6.59375 43.015625 9.90625 
Q 47.609375 13.234375 47.609375 19.390625 
Q 47.609375 24.75 44.3125 27.78125 
Q 41.015625 30.8125 33.5 32.328125 
L 27.484375 33.5 
Q 16.453125 35.6875 11.515625 40.375 
Q 6.59375 45.0625 6.59375 53.421875 
Q 6.59375 63.09375 13.40625 68.65625 
Q 20.21875 74.21875 32.171875 74.21875 
Q 37.3125 74.21875 42.625 73.28125 
Q 47.953125 72.359375 53.515625 70.515625 
z
" id="DejaVuSans-83"/>
      <path d="M 30.609375 48.390625 
Q 23.390625 48.390625 19.1875 42.75 
Q 14.984375 37.109375 14.984375 27.296875 
Q 14.984375 17.484375 19.15625 11.84375 
Q 23.34375 6.203125 30.609375 6.203125 
Q 37.796875 6.203125 41.984375 11.859375 
Q 46.1875 17.53125 46.1875 27.296875 
Q 46.1875 37.015625 41.984375 42.703125 
Q 37.796875 48.390625 30.609375 48.390625 
z
M 30.609375 56 
Q 42.328125 56 49.015625 48.375 
Q 55.71875 40.765625 55.71875 27.296875 
Q 55.71875 13.875 49.015625 6.21875 
Q 42.328125 -1.421875 30.609375 -1.421875 
Q 18.84375 -1.421875 12.171875 6.21875 
Q 5.515625 13.875 5.515625 27.296875 
Q 5.515625 40.765625 12.171875 48.375 
Q 18.84375 56 30.609375 56 
z
" id="DejaVuSans-111"/>
      <path d="M 54.890625 33.015625 
L 54.890625 0 
L 45.90625 0 
L 45.90625 32.71875 
Q 45.90625 40.484375 42.875 44.328125 
Q 39.84375 48.1875 33.796875 48.1875 
Q 26.515625 48.1875 22.3125 43.546875 
Q 18.109375 38.921875 18.109375 30.90625 
L 18.109375 0 
L 9.078125 0 
L 9.078125 54.6875 
L 18.109375 54.6875 
L 18.109375 46.1875 
Q 21.34375 51.125 25.703125 53.5625 
Q 30.078125 56 35.796875 56 
Q 45.21875 56 50.046875 50.171875 
Q 54.890625 44.34375 54.890625 33.015625 
z
" id="DejaVuSans-110"/>
     </defs>
     <g transform="translate(76.69 105.84249)scale(0.08 -0.08)">
      <use xlink:href="#DejaVuSans-83"/>
      <use x="63.476562" xlink:href="#DejaVuSans-105"/>
      <use x="91.259766" xlink:href="#DejaVuSans-109"/>
      <use x="188.671875" xlink:href="#DejaVuSans-117"/>
      <use x="252.050781" xlink:href="#DejaVuSans-108"/>
      <use x="279.833984" xlink:href="#DejaVuSans-97"/>
      <use x="341.113281" xlink:href="#DejaVuSans-116"/>
      <use x="380.322266" xlink:href="#DejaVuSans-105"/>
      <use x="408.105469" xlink:href="#DejaVuSans-111"/>
      <use x="469.287109" xlink:href="#DejaVuSans-110"/>
     </g>
    </g>
    <g id="line2d_27">
     <path d="M 54.29 114.78499 
L 70.29 114.78499 
" style="fill:none;stroke:#008000;stroke-linecap:square;stroke-opacity:0.5;"/>
    </g>
    <g id="line2d_28"/>
    <g id="text_20">
     <!-- Forecast -->
     <defs>
      <path d="M 48.78125 52.59375 
L 48.78125 44.1875 
Q 44.96875 46.296875 41.140625 47.34375 
Q 37.3125 48.390625 33.40625 48.390625 
Q 24.65625 48.390625 19.8125 42.84375 
Q 14.984375 37.3125 14.984375 27.296875 
Q 14.984375 17.28125 19.8125 11.734375 
Q 24.65625 6.203125 33.40625 6.203125 
Q 37.3125 6.203125 41.140625 7.25 
Q 44.96875 8.296875 48.78125 10.40625 
L 48.78125 2.09375 
Q 45.015625 0.34375 40.984375 -0.53125 
Q 36.96875 -1.421875 32.421875 -1.421875 
Q 20.0625 -1.421875 12.78125 6.34375 
Q 5.515625 14.109375 5.515625 27.296875 
Q 5.515625 40.671875 12.859375 48.328125 
Q 20.21875 56 33.015625 56 
Q 37.15625 56 41.109375 55.140625 
Q 45.0625 54.296875 48.78125 52.59375 
z
" id="DejaVuSans-99"/>
     </defs>
     <g transform="translate(76.69 117.58499)scale(0.08 -0.08)">
      <use xlink:href="#DejaVuSans-70"/>
      <use x="53.894531" xlink:href="#DejaVuSans-111"/>
      <use x="115.076172" xlink:href="#DejaVuSans-114"/>
      <use x="153.939453" xlink:href="#DejaVuSans-101"/>
      <use x="215.462891" xlink:href="#DejaVuSans-99"/>
      <use x="270.443359" xlink:href="#DejaVuSans-97"/>
      <use x="331.722656" xlink:href="#DejaVuSans-115"/>
      <use x="383.822266" xlink:href="#DejaVuSans-116"/>
     </g>
    </g>
   </g>
  </g>
  <g id="axes_2">
   <g id="matplotlib.axis_3">
    <g id="ytick_8">
     <g id="line2d_29">
      <defs>
       <path d="M 0 0 
L 3.5 0 
" id="m03d5411888" style="stroke:#000000;stroke-width:0.8;"/>
      </defs>
      <g>
       <use style="stroke:#000000;stroke-width:0.8;" x="208.83811" xlink:href="#m03d5411888" y="126.44874"/>
      </g>
     </g>
     <g id="text_21">
      <!-- 1.0 -->
      <defs>
       <path d="M 10.59375 35.5 
L 73.1875 35.5 
L 73.1875 27.203125 
L 10.59375 27.203125 
z
" id="DejaVuSans-8722"/>
       <path d="M 10.6875 12.40625 
L 21 12.40625 
L 21 0 
L 10.6875 0 
z
" id="DejaVuSans-46"/>
      </defs>
      <g transform="translate(215.83811 129.488115)scale(0.08 -0.08)">
       <use xlink:href="#DejaVuSans-8722"/>
       <use x="83.789062" xlink:href="#DejaVuSans-49"/>
       <use x="147.412109" xlink:href="#DejaVuSans-46"/>
       <use x="179.199219" xlink:href="#DejaVuSans-48"/>
      </g>
     </g>
    </g>
    <g id="ytick_9">
     <g id="line2d_30">
      <g>
       <use style="stroke:#000000;stroke-width:0.8;" x="208.83811" xlink:href="#m03d5411888" y="85.402762"/>
      </g>
     </g>
     <g id="text_22">
      <!-- 0.5 -->
      <g transform="translate(215.83811 88.442137)scale(0.08 -0.08)">
       <use xlink:href="#DejaVuSans-8722"/>
       <use x="83.789062" xlink:href="#DejaVuSans-48"/>
       <use x="147.412109" xlink:href="#DejaVuSans-46"/>
       <use x="179.199219" xlink:href="#DejaVuSans-53"/>
      </g>
     </g>
    </g>
    <g id="ytick_10">
     <g id="line2d_31">
      <g>
       <use style="stroke:#000000;stroke-width:0.8;" x="208.83811" xlink:href="#m03d5411888" y="44.356783"/>
      </g>
     </g>
     <g id="text_23">
      <!-- 0.0 -->
      <g transform="translate(215.83811 47.396158)scale(0.08 -0.08)">
       <use xlink:href="#DejaVuSans-48"/>
       <use x="63.623047" xlink:href="#DejaVuSans-46"/>
       <use x="95.410156" xlink:href="#DejaVuSans-48"/>
      </g>
     </g>
    </g>
    <g id="ytick_11">
     <g id="line2d_32">
      <g>
       <use style="stroke:#000000;stroke-width:0.8;" x="208.83811" xlink:href="#m03d5411888" y="11.52"/>
      </g>
     </g>
     <g id="text_24">
      <!-- 0.4 -->
      <defs>
       <path d="M 37.796875 64.3125 
L 12.890625 25.390625 
L 37.796875 25.390625 
z
M 35.203125 72.90625 
L 47.609375 72.90625 
L 47.609375 25.390625 
L 58.015625 25.390625 
L 58.015625 17.1875 
L 47.609375 17.1875 
L 47.609375 0 
L 37.796875 0 
L 37.796875 17.1875 
L 4.890625 17.1875 
L 4.890625 26.703125 
z
" id="DejaVuSans-52"/>
      </defs>
      <g transform="translate(215.83811 14.559375)scale(0.08 -0.08)">
       <use xlink:href="#DejaVuSans-48"/>
       <use x="63.623047" xlink:href="#DejaVuSans-46"/>
       <use x="95.410156" xlink:href="#DejaVuSans-52"/>
      </g>
     </g>
    </g>
    <g id="text_25">
     <!-- Relative change -->
     <defs>
      <path d="M 44.390625 34.1875 
Q 47.5625 33.109375 50.5625 29.59375 
Q 53.5625 26.078125 56.59375 19.921875 
L 66.609375 0 
L 56 0 
L 46.6875 18.703125 
Q 43.0625 26.03125 39.671875 28.421875 
Q 36.28125 30.8125 30.421875 30.8125 
L 19.671875 30.8125 
L 19.671875 0 
L 9.8125 0 
L 9.8125 72.90625 
L 32.078125 72.90625 
Q 44.578125 72.90625 50.734375 67.671875 
Q 56.890625 62.453125 56.890625 51.90625 
Q 56.890625 45.015625 53.6875 40.46875 
Q 50.484375 35.9375 44.390625 34.1875 
z
M 19.671875 64.796875 
L 19.671875 38.921875 
L 32.078125 38.921875 
Q 39.203125 38.921875 42.84375 42.21875 
Q 46.484375 45.515625 46.484375 51.90625 
Q 46.484375 58.296875 42.84375 61.546875 
Q 39.203125 64.796875 32.078125 64.796875 
z
" id="DejaVuSans-82"/>
      <path d="M 45.40625 27.984375 
Q 45.40625 37.75 41.375 43.109375 
Q 37.359375 48.484375 30.078125 48.484375 
Q 22.859375 48.484375 18.828125 43.109375 
Q 14.796875 37.75 14.796875 27.984375 
Q 14.796875 18.265625 18.828125 12.890625 
Q 22.859375 7.515625 30.078125 7.515625 
Q 37.359375 7.515625 41.375 12.890625 
Q 45.40625 18.265625 45.40625 27.984375 
z
M 54.390625 6.78125 
Q 54.390625 -7.171875 48.1875 -13.984375 
Q 42 -20.796875 29.203125 -20.796875 
Q 24.46875 -20.796875 20.265625 -20.09375 
Q 16.0625 -19.390625 12.109375 -17.921875 
L 12.109375 -9.1875 
Q 16.0625 -11.328125 19.921875 -12.34375 
Q 23.78125 -13.375 27.78125 -13.375 
Q 36.625 -13.375 41.015625 -8.765625 
Q 45.40625 -4.15625 45.40625 5.171875 
L 45.40625 9.625 
Q 42.625 4.78125 38.28125 2.390625 
Q 33.9375 0 27.875 0 
Q 17.828125 0 11.671875 7.65625 
Q 5.515625 15.328125 5.515625 27.984375 
Q 5.515625 40.671875 11.671875 48.328125 
Q 17.828125 56 27.875 56 
Q 33.9375 56 38.28125 53.609375 
Q 42.625 51.21875 45.40625 46.390625 
L 45.40625 54.6875 
L 54.390625 54.6875 
z
" id="DejaVuSans-103"/>
     </defs>
     <g transform="translate(245.34311 101.10812)rotate(-90)scale(0.08 -0.08)">
      <use xlink:href="#DejaVuSans-82"/>
      <use x="64.982422" xlink:href="#DejaVuSans-101"/>
      <use x="126.505859" xlink:href="#DejaVuSans-108"/>
      <use x="154.289062" xlink:href="#DejaVuSans-97"/>
      <use x="215.568359" xlink:href="#DejaVuSans-116"/>
      <use x="254.777344" xlink:href="#DejaVuSans-105"/>
      <use x="282.560547" xlink:href="#DejaVuSans-118"/>
      <use x="341.740234" xlink:href="#DejaVuSans-101"/>
      <use x="403.263672" xlink:href="#DejaVuSans-32"/>
      <use x="435.050781" xlink:href="#DejaVuSans-99"/>
      <use x="490.03125" xlink:href="#DejaVuSans-104"/>
      <use x="553.410156" xlink:href="#DejaVuSans-97"/>
      <use x="614.689453" xlink:href="#DejaVuSans-110"/>
      <use x="678.068359" xlink:href="#DejaVuSans-103"/>
      <use x="741.544922" xlink:href="#DejaVuSans-101"/>
     </g>
    </g>
   </g>
   <g id="line2d_33">
    <path clip-path="url(#pacb48568d6)" d="M 55.33607 44.356783 
L 57.570777 45.177702 
L 59.805484 36.147587 
L 62.040191 46.819542 
L 64.274899 41.894024 
L 66.509606 47.640461 
L 68.744313 42.714944 
L 70.97902 45.177702 
L 73.213728 43.535863 
L 75.448435 32.863909 
L 77.683142 39.431265 
L 79.917849 41.073105 
L 82.152557 48.461381 
L 84.387264 48.461381 
L 86.621971 45.177702 
L 88.856678 49.2823 
L 91.091386 41.894024 
L 93.326093 50.10322 
L 95.5608 45.177702 
L 97.795507 46.819542 
L 100.030215 53.386898 
L 102.264922 49.2823 
L 104.499629 47.640461 
L 106.734336 39.431265 
L 108.969044 50.924139 
L 111.203751 52.565979 
L 113.438458 50.10322 
L 115.673165 53.386898 
L 117.907873 55.028737 
L 120.14258 64.879772 
L 122.377287 66.521611 
L 124.611994 58.312416 
L 126.846701 91.149199 
L 129.081409 95.253796 
L 131.316116 97.716555 
L 133.550823 99.358394 
L 135.78553 108.38851 
L 138.020238 111.672188 
L 140.254945 100.179314 
L 142.489652 101.000233 
L 144.724359 101.821153 
L 146.959067 101.821153 
L 149.193774 101.000233 
L 151.428481 104.283912 
L 153.663188 110.851268 
" style="fill:none;stroke:#d62728;stroke-linecap:square;stroke-opacity:0.5;"/>
   </g>
   <g id="line2d_34">
    <path clip-path="url(#pacb48568d6)" d="M 55.33607 44.356783 
L 57.570777 45.177702 
L 59.805484 34.505748 
L 62.040191 47.640461 
L 64.274899 43.535863 
L 66.509606 47.640461 
L 68.744313 45.177702 
L 70.97902 45.177702 
L 73.213728 44.356783 
L 75.448435 29.580231 
L 77.683142 41.894024 
L 79.917849 39.431265 
L 82.152557 44.356783 
L 84.387264 43.535863 
L 86.621971 37.789426 
L 88.856678 41.073105 
L 91.091386 37.789426 
L 93.326093 45.177702 
L 95.5608 41.073105 
L 97.795507 43.535863 
L 100.030215 47.640461 
L 102.264922 43.535863 
L 104.499629 42.714944 
L 106.734336 38.610346 
L 108.969044 45.177702 
L 111.203751 45.177702 
L 113.438458 42.714944 
L 115.673165 37.789426 
L 117.907873 24.654713 
L 120.14258 34.505748 
L 122.377287 42.714944 
L 124.611994 24.654713 
L 126.846701 43.535863 
L 129.081409 47.640461 
L 131.316116 52.565979 
L 133.550823 47.640461 
L 135.78553 65.700692 
L 138.020238 84.581842 
L 140.254945 60.775174 
L 142.489652 59.954255 
L 144.724359 59.954255 
L 146.959067 59.133335 
L 149.193774 55.028737 
L 151.428481 59.954255 
L 153.663188 86.223681 
" style="fill:none;stroke:#9467bd;stroke-linecap:square;stroke-opacity:0.5;"/>
   </g>
   <g id="line2d_35">
    <path clip-path="url(#pacb48568d6)" d="M 55.33607 44.356783 
L 57.570777 39.431265 
L 59.805484 37.789426 
L 62.040191 45.998622 
L 64.274899 41.894024 
L 66.509606 47.640461 
L 68.744313 40.252185 
L 70.97902 43.535863 
L 73.213728 32.863909 
L 75.448435 33.684828 
L 77.683142 38.610346 
L 79.917849 41.894024 
L 82.152557 48.461381 
L 84.387264 48.461381 
L 86.621971 45.177702 
L 88.856678 50.10322 
L 91.091386 42.714944 
L 93.326093 50.10322 
L 95.5608 46.819542 
L 97.795507 45.998622 
L 100.030215 53.386898 
L 102.264922 50.924139 
L 104.499629 51.745059 
L 106.734336 41.894024 
L 108.969044 50.924139 
L 111.203751 52.565979 
L 113.438458 49.2823 
L 115.673165 53.386898 
L 117.907873 56.670576 
L 120.14258 65.700692 
L 122.377287 57.491496 
L 124.611994 68.98437 
L 126.846701 78.835405 
L 129.081409 81.298164 
L 131.316116 86.223681 
L 133.550823 90.328279 
L 135.78553 95.253796 
L 138.020238 98.537475 
L 140.254945 92.791038 
L 142.489652 91.970118 
L 144.724359 92.791038 
L 146.959067 94.432877 
L 149.193774 91.970118 
L 151.428481 87.86552 
L 153.663188 100.179314 
" style="fill:none;stroke:#e377c2;stroke-linecap:square;stroke-opacity:0.5;"/>
   </g>
   <g id="line2d_36">
    <path clip-path="url(#pacb48568d6)" d="M 55.33607 44.356783 
L 57.570777 45.998622 
L 59.805484 45.998622 
L 62.040191 45.177702 
L 64.274899 45.998622 
L 66.509606 46.819542 
L 68.744313 48.461381 
L 70.97902 49.2823 
L 73.213728 45.177702 
L 75.448435 44.356783 
L 77.683142 46.819542 
L 79.917849 47.640461 
L 82.152557 47.640461 
L 84.387264 48.461381 
L 86.621971 47.640461 
L 88.856678 45.998622 
L 91.091386 45.177702 
L 93.326093 45.177702 
L 95.5608 44.356783 
L 97.795507 45.177702 
L 100.030215 45.998622 
L 102.264922 45.998622 
L 104.499629 45.998622 
L 106.734336 46.819542 
L 108.969044 44.356783 
L 111.203751 45.177702 
L 113.438458 45.998622 
L 115.673165 47.640461 
L 117.907873 49.2823 
L 120.14258 50.10322 
L 122.377287 55.028737 
L 124.611994 60.775174 
L 126.846701 71.447129 
L 129.081409 75.551727 
L 131.316116 82.119083 
L 133.550823 81.298164 
L 135.78553 79.656325 
L 138.020238 81.298164 
L 140.254945 82.119083 
L 142.489652 84.581842 
L 144.724359 84.581842 
L 146.959067 85.402762 
L 149.193774 84.581842 
L 151.428481 79.656325 
L 153.663188 82.119083 
" style="fill:none;stroke:#bcbd22;stroke-linecap:square;stroke-opacity:0.5;"/>
   </g>
   <g id="line2d_37">
    <path clip-path="url(#pacb48568d6)" d="M 55.33607 44.356783 
L 57.570777 45.177702 
L 59.805484 45.177702 
L 62.040191 43.535863 
L 64.274899 43.535863 
L 66.509606 43.535863 
L 68.744313 44.356783 
L 70.97902 43.535863 
L 73.213728 45.998622 
L 75.448435 45.177702 
L 77.683142 44.356783 
L 79.917849 43.535863 
L 82.152557 42.714944 
L 84.387264 42.714944 
L 86.621971 42.714944 
L 88.856678 42.714944 
L 91.091386 43.535863 
L 93.326093 41.894024 
L 95.5608 42.714944 
L 97.795507 43.535863 
L 100.030215 41.894024 
L 102.264922 41.894024 
L 104.499629 41.894024 
L 106.734336 44.356783 
L 108.969044 41.894024 
L 111.203751 41.073105 
L 113.438458 41.894024 
L 115.673165 41.073105 
L 117.907873 40.252185 
L 120.14258 37.789426 
L 122.377287 40.252185 
L 124.611994 36.147587 
L 126.846701 30.40115 
L 129.081409 29.580231 
L 131.316116 27.117472 
L 133.550823 24.654713 
L 135.78553 28.759311 
L 138.020238 32.042989 
L 140.254945 26.296552 
L 142.489652 24.654713 
L 144.724359 25.475633 
L 146.959067 24.654713 
L 149.193774 23.012874 
L 151.428481 30.40115 
L 153.663188 32.042989 
" style="fill:none;stroke:#17becf;stroke-linecap:square;stroke-opacity:0.5;"/>
   </g>
   <g id="patch_73">
    <path d="M 47.09 126.44874 
L 47.09 11.52 
" style="fill:none;stroke:#000000;stroke-linecap:square;stroke-linejoin:miter;stroke-width:0.8;"/>
   </g>
   <g id="patch_74">
    <path d="M 208.83811 126.44874 
L 208.83811 11.52 
" style="fill:none;stroke:#000000;stroke-linecap:square;stroke-linejoin:miter;stroke-width:0.8;"/>
   </g>
   <g id="patch_75">
    <path d="M 47.09 126.44874 
L 208.83811 126.44874 
" style="fill:none;stroke:#000000;stroke-linecap:square;stroke-linejoin:miter;stroke-width:0.8;"/>
   </g>
   <g id="patch_76">
    <path d="M 47.09 11.52 
L 208.83811 11.52 
" style="fill:none;stroke:#000000;stroke-linecap:square;stroke-linejoin:miter;stroke-width:0.8;"/>
   </g>
  </g>
 </g>
 <defs>
  <clipPath id="pacb48568d6">
   <rect height="114.92874" width="161.74811" x="47.09" y="11.52"/>
  </clipPath>
 </defs>
</svg>
