<?xml version="1.0" encoding="utf-8" standalone="no"?>
<!DOCTYPE svg PUBLIC "-//W3C//DTD SVG 1.1//EN"
  "http://www.w3.org/Graphics/SVG/1.1/DTD/svg11.dtd">
<!-- Created with matplotlib (https://matplotlib.org/) -->
<svg height="170.07874pt" version="1.1" viewBox="0 0 255.11811 170.07874" width="255.11811pt" xmlns="http://www.w3.org/2000/svg" xmlns:xlink="http://www.w3.org/1999/xlink">
 <defs>
  <style type="text/css">
*{stroke-linecap:butt;stroke-linejoin:round;}
  </style>
 </defs>
 <g id="figure_1">
  <g id="patch_1">
   <path d="M 0 170.07874 
L 255.11811 170.07874 
L 255.11811 0 
L 0 0 
z
" style="fill:#ffffff;"/>
  </g>
  <g id="axes_1">
   <g id="patch_2">
    <path d="M 57.17 126.44874 
L 208.83811 126.44874 
L 208.83811 11.52 
L 57.17 11.52 
z
" style="fill:#ffffff;"/>
   </g>
   <g id="PolyCollection_1">
    <defs>
     <path d="M 64.902182 -43.638943 
L 64.902182 -43.630825 
L 66.997624 -43.631651 
L 69.093066 -43.632476 
L 71.188509 -43.633301 
L 73.283951 -43.634127 
L 75.379393 -43.634952 
L 77.474835 -43.636525 
L 79.570278 -43.638408 
L 81.66572 -43.64087 
L 83.761162 -43.646577 
L 85.856604 -43.651061 
L 87.952047 -43.65787 
L 90.047489 -43.665098 
L 92.142931 -43.674818 
L 94.238373 -43.690788 
L 96.333816 -43.708483 
L 98.429258 -43.735443 
L 100.5247 -43.760586 
L 102.620142 -43.800182 
L 104.715585 -43.845327 
L 106.811027 -43.891662 
L 108.906469 -43.961706 
L 111.001911 -44.050628 
L 113.097354 -44.184958 
L 115.192796 -44.305634 
L 117.288238 -44.456058 
L 119.38368 -44.665457 
L 121.479123 -44.976425 
L 123.574565 -45.566676 
L 125.670007 -46.096846 
L 127.765449 -46.600329 
L 129.860892 -47.718834 
L 131.956334 -48.410649 
L 134.051776 -49.135051 
L 136.147218 -49.800485 
L 138.242661 -50.704696 
L 140.338103 -51.107742 
L 142.433545 -51.254074 
L 144.528988 -51.796786 
L 146.62443 -52.328317 
L 148.719872 -52.833635 
L 150.815314 -53.333252 
L 152.910757 -53.920026 
L 155.006199 -54.381942 
L 157.101641 -54.481732 
L 157.101641 -86.626476 
L 157.101641 -86.626476 
L 155.006199 -84.203424 
L 152.910757 -79.957555 
L 150.815314 -75.668853 
L 148.719872 -72.236749 
L 146.62443 -69.186115 
L 144.528988 -66.36504 
L 142.433545 -63.801176 
L 140.338103 -62.569192 
L 138.242661 -60.842731 
L 136.147218 -58.131605 
L 134.051776 -56.264222 
L 131.956334 -54.468998 
L 129.860892 -52.899311 
L 127.765449 -49.746161 
L 125.670007 -48.75806 
L 123.574565 -47.772939 
L 121.479123 -46.527578 
L 119.38368 -45.979178 
L 117.288238 -45.592383 
L 115.192796 -45.300612 
L 113.097354 -45.060823 
L 111.001911 -44.802221 
L 108.906469 -44.62103 
L 106.811027 -44.471088 
L 104.715585 -44.360372 
L 102.620142 -44.250793 
L 100.5247 -44.149565 
L 98.429258 -44.077672 
L 96.333816 -43.996614 
L 94.238373 -43.938551 
L 92.142931 -43.880845 
L 90.047489 -43.842615 
L 87.952047 -43.811491 
L 85.856604 -43.77964 
L 83.761162 -43.756107 
L 81.66572 -43.723096 
L 79.570278 -43.707314 
L 77.474835 -43.694515 
L 75.379393 -43.683659 
L 73.283951 -43.674716 
L 71.188509 -43.665773 
L 69.093066 -43.65683 
L 66.997624 -43.647886 
L 64.902182 -43.638943 
z
" id="m499d4cab0e" style="stroke:#6495ed;stroke-opacity:0.4;"/>
    </defs>
    <g clip-path="url(#p9ddd345dfb)">
     <use style="fill:#6495ed;fill-opacity:0.4;stroke:#6495ed;stroke-opacity:0.4;" x="0" xlink:href="#m499d4cab0e" y="170.07874"/>
    </g>
   </g>
   <g id="PolyCollection_2">
    <defs>
     <path d="M 64.902182 -43.634196 
L 64.902182 -43.631924 
L 66.997624 -43.633848 
L 69.093066 -43.635772 
L 71.188509 -43.637696 
L 73.283951 -43.63962 
L 75.379393 -43.641544 
L 77.474835 -43.644681 
L 79.570278 -43.648402 
L 81.66572 -43.653148 
L 83.761162 -43.663906 
L 85.856604 -43.671982 
L 87.952047 -43.683778 
L 90.047489 -43.69596 
L 92.142931 -43.711883 
L 94.238373 -43.737166 
L 96.333816 -43.764341 
L 98.429258 -43.804392 
L 100.5247 -43.840708 
L 102.620142 -43.896191 
L 104.715585 -43.957797 
L 106.811027 -44.020332 
L 108.906469 -44.112162 
L 111.001911 -44.226589 
L 113.097354 -44.39515 
L 115.192796 -44.546262 
L 117.288238 -44.731819 
L 119.38368 -44.98481 
L 121.479123 -45.359493 
L 123.574565 -46.12448 
L 125.670007 -46.779257 
L 127.765449 -47.412264 
L 129.860892 -49.025607 
L 131.956334 -49.941276 
L 134.051776 -50.930662 
L 136.147218 -51.88627 
L 138.242661 -53.220089 
L 140.338103 -53.881015 
L 142.433545 -54.17617 
L 144.528988 -55.111014 
L 146.62443 -56.061999 
L 148.719872 -57.002073 
L 150.815314 -57.964477 
L 152.910757 -59.126604 
L 155.006199 -60.096062 
L 157.101641 -60.374108 
L 157.101641 -69.97025 
L 157.101641 -69.97025 
L 155.006199 -69.152676 
L 152.910757 -67.13652 
L 150.815314 -64.907256 
L 148.719872 -63.098014 
L 146.62443 -61.413509 
L 144.528988 -59.781414 
L 142.433545 -58.227973 
L 140.338103 -57.622371 
L 138.242661 -56.539691 
L 136.147218 -54.615153 
L 134.051776 -53.271941 
L 131.956334 -51.927482 
L 129.860892 -50.721922 
L 127.765449 -48.45073 
L 125.670007 -47.659524 
L 123.574565 -46.859249 
L 121.479123 -45.882254 
L 119.38368 -45.428775 
L 117.288238 -45.113952 
L 115.192796 -44.879232 
L 113.097354 -44.686248 
L 111.001911 -44.475459 
L 108.906469 -44.329183 
L 106.811027 -44.20972 
L 104.715585 -44.12512 
L 102.620142 -44.041287 
L 100.5247 -43.964965 
L 98.429258 -43.912997 
L 96.333816 -43.85475 
L 94.238373 -43.814113 
L 92.142931 -43.775247 
L 90.047489 -43.749999 
L 87.952047 -43.730136 
L 85.856604 -43.710452 
L 83.761162 -43.696444 
L 81.66572 -43.676998 
L 79.570278 -43.668194 
L 77.474835 -43.661132 
L 75.379393 -43.655176 
L 73.283951 -43.65098 
L 71.188509 -43.646784 
L 69.093066 -43.642588 
L 66.997624 -43.638392 
L 64.902182 -43.634196 
z
" id="m2e80f31091" style="stroke:#6495ed;stroke-opacity:0.6;"/>
    </defs>
    <g clip-path="url(#p9ddd345dfb)">
     <use style="fill:#6495ed;fill-opacity:0.6;stroke:#6495ed;stroke-opacity:0.6;" x="0" xlink:href="#m2e80f31091" y="170.07874"/>
    </g>
   </g>
   <g id="PolyCollection_3">
    <defs>
     <path d="M 157.101641 -86.626476 
L 157.101641 -54.481732 
L 159.197083 -54.577168 
L 161.292526 -54.665633 
L 163.387968 -54.745279 
L 165.48341 -54.815286 
L 167.578852 -54.875532 
L 169.674295 -54.926665 
L 171.769737 -54.96959 
L 173.865179 -55.00548 
L 175.960621 -55.035348 
L 178.056064 -55.059989 
L 180.151506 -55.080199 
L 182.246948 -55.09677 
L 184.34239 -55.110343 
L 186.437833 -55.121474 
L 188.533275 -55.130527 
L 190.628717 -55.137945 
L 192.724159 -55.144052 
L 194.819602 -55.149085 
L 196.915044 -55.153218 
L 199.010486 -55.156615 
L 201.105928 -55.159409 
L 201.105928 -158.55874 
L 201.105928 -158.55874 
L 199.010486 -154.404024 
L 196.915044 -150.329986 
L 194.819602 -146.365561 
L 192.724159 -142.491196 
L 190.628717 -138.684113 
L 188.533275 -134.93249 
L 186.437833 -131.256398 
L 184.34239 -127.632017 
L 182.246948 -124.051739 
L 180.151506 -120.538332 
L 178.056064 -117.093418 
L 175.960621 -113.746753 
L 173.865179 -110.466138 
L 171.769737 -107.247626 
L 169.674295 -104.116153 
L 167.578852 -101.038062 
L 165.48341 -98.019424 
L 163.387968 -95.043559 
L 161.292526 -92.126146 
L 159.197083 -89.290511 
L 157.101641 -86.626476 
z
" id="m7db5a25e65" style="stroke:#228b22;stroke-opacity:0.4;"/>
    </defs>
    <g clip-path="url(#p9ddd345dfb)">
     <use style="fill:#228b22;fill-opacity:0.4;stroke:#228b22;stroke-opacity:0.4;" x="0" xlink:href="#m7db5a25e65" y="170.07874"/>
    </g>
   </g>
   <g id="PolyCollection_4">
    <defs>
     <path d="M 157.101641 -69.97025 
L 157.101641 -60.374108 
L 159.197083 -60.653996 
L 161.292526 -60.924244 
L 163.387968 -61.175429 
L 165.48341 -61.402992 
L 167.578852 -61.606409 
L 169.674295 -61.786031 
L 171.769737 -61.943226 
L 173.865179 -62.07988 
L 175.960621 -62.198595 
L 178.056064 -62.301637 
L 180.151506 -62.391091 
L 182.246948 -62.468806 
L 184.34239 -62.536084 
L 186.437833 -62.594651 
L 188.533275 -62.645199 
L 190.628717 -62.689075 
L 192.724159 -62.727016 
L 194.819602 -62.759796 
L 196.915044 -62.788335 
L 199.010486 -62.813006 
L 201.105928 -62.834401 
L 201.105928 -81.247332 
L 201.105928 -81.247332 
L 199.010486 -81.000645 
L 196.915044 -80.735937 
L 194.819602 -80.451749 
L 192.724159 -80.145485 
L 190.628717 -79.81712 
L 188.533275 -79.464156 
L 186.437833 -79.086267 
L 184.34239 -78.682414 
L 182.246948 -78.246597 
L 180.151506 -77.776612 
L 178.056064 -77.270661 
L 175.960621 -76.72816 
L 173.865179 -76.144241 
L 171.769737 -75.516145 
L 169.674295 -74.845539 
L 167.578852 -74.12447 
L 165.48341 -73.358095 
L 163.387968 -72.545451 
L 161.292526 -71.698272 
L 159.197083 -70.829756 
L 157.101641 -69.97025 
z
" id="m76e5b6a775" style="stroke:#228b22;stroke-opacity:0.6;"/>
    </defs>
    <g clip-path="url(#p9ddd345dfb)">
     <use style="fill:#228b22;fill-opacity:0.6;stroke:#228b22;stroke-opacity:0.6;" x="0" xlink:href="#m76e5b6a775" y="170.07874"/>
    </g>
   </g>
   <g id="PathCollection_1">
    <defs>
     <path d="M -0.866025 1.732051 
L 0 0.866025 
L 0.866025 1.732051 
L 1.732051 0.866025 
L 0.866025 0 
L 1.732051 -0.866025 
L 0.866025 -1.732051 
L 0 -0.866025 
L -0.866025 -1.732051 
L -1.732051 -0.866025 
L -0.866025 0 
L -1.732051 0.866025 
z
" id="m726cbae89a" style="stroke:#8a2be2;"/>
    </defs>
    <g clip-path="url(#p9ddd345dfb)">
     <use style="fill:#8a2be2;stroke:#8a2be2;" x="123.574565" xlink:href="#m726cbae89a" y="23.012874"/>
    </g>
   </g>
   <g id="PathCollection_2">
    <defs>
     <path d="M 0 -1.732051 
L -0.38887 -0.535233 
L -1.647278 -0.535233 
L -0.629204 0.204441 
L -1.018074 1.401259 
L -0 0.661585 
L 1.018074 1.401259 
L 0.629204 0.204441 
L 1.647278 -0.535233 
L 0.38887 -0.535233 
z
" id="m50b23fe524" style="stroke:#000000;"/>
    </defs>
    <g clip-path="url(#p9ddd345dfb)">
     <use style="stroke:#000000;" x="125.670007" xlink:href="#m50b23fe524" y="23.012874"/>
    </g>
   </g>
   <g id="PathCollection_3">
    <defs>
     <path d="M -1.732051 1.732051 
L 1.732051 1.732051 
L 1.732051 -1.732051 
L -1.732051 -1.732051 
z
" id="m81ede765bf" style="stroke:#c71585;"/>
    </defs>
    <g clip-path="url(#p9ddd345dfb)">
     <use style="fill:#c71585;stroke:#c71585;" x="138.242661" xlink:href="#m81ede765bf" y="23.012874"/>
    </g>
   </g>
   <g id="PathCollection_4">
    <defs>
     <path d="M 0 -1.732051 
L -1.647278 -0.535233 
L -1.018074 1.401259 
L 1.018074 1.401259 
L 1.647278 -0.535233 
z
" id="m63a7f48da4" style="stroke:#800000;"/>
    </defs>
    <g clip-path="url(#p9ddd345dfb)">
     <use style="fill:#800000;stroke:#800000;" x="129.860892" xlink:href="#m63a7f48da4" y="23.012874"/>
    </g>
   </g>
   <g id="PathCollection_5">
    <defs>
     <path d="M -0 2.44949 
L 1.469694 0 
L 0 -2.44949 
L -1.469694 -0 
z
" id="m22206693d3" style="stroke:#556b2f;"/>
    </defs>
    <g clip-path="url(#p9ddd345dfb)">
     <use style="fill:#556b2f;stroke:#556b2f;" x="100.5247" xlink:href="#m22206693d3" y="23.012874"/>
    </g>
   </g>
   <g id="patch_3">
    <path clip-path="url(#p9ddd345dfb)" d="M 64.064005 126.44874 
L 65.740359 126.44874 
L 65.740359 126.44874 
L 64.064005 126.44874 
z
" style="fill:#1f77b4;opacity:0.5;"/>
   </g>
   <g id="patch_4">
    <path clip-path="url(#p9ddd345dfb)" d="M 66.159447 126.44874 
L 67.835801 126.44874 
L 67.835801 126.44874 
L 66.159447 126.44874 
z
" style="fill:#1f77b4;opacity:0.5;"/>
   </g>
   <g id="patch_5">
    <path clip-path="url(#p9ddd345dfb)" d="M 68.25489 126.44874 
L 69.931243 126.44874 
L 69.931243 126.44874 
L 68.25489 126.44874 
z
" style="fill:#1f77b4;opacity:0.5;"/>
   </g>
   <g id="patch_6">
    <path clip-path="url(#p9ddd345dfb)" d="M 70.350332 126.44874 
L 72.026686 126.44874 
L 72.026686 126.44874 
L 70.350332 126.44874 
z
" style="fill:#1f77b4;opacity:0.5;"/>
   </g>
   <g id="patch_7">
    <path clip-path="url(#p9ddd345dfb)" d="M 72.445774 126.44874 
L 74.122128 126.44874 
L 74.122128 126.44874 
L 72.445774 126.44874 
z
" style="fill:#1f77b4;opacity:0.5;"/>
   </g>
   <g id="patch_8">
    <path clip-path="url(#p9ddd345dfb)" d="M 74.541216 126.44874 
L 76.21757 126.44874 
L 76.21757 126.44874 
L 74.541216 126.44874 
z
" style="fill:#1f77b4;opacity:0.5;"/>
   </g>
   <g id="patch_9">
    <path clip-path="url(#p9ddd345dfb)" d="M 76.636659 126.44874 
L 78.313012 126.44874 
L 78.313012 126.44874 
L 76.636659 126.44874 
z
" style="fill:#1f77b4;opacity:0.5;"/>
   </g>
   <g id="patch_10">
    <path clip-path="url(#p9ddd345dfb)" d="M 78.732101 126.44874 
L 80.408455 126.44874 
L 80.408455 126.44874 
L 78.732101 126.44874 
z
" style="fill:#1f77b4;opacity:0.5;"/>
   </g>
   <g id="patch_11">
    <path clip-path="url(#p9ddd345dfb)" d="M 80.827543 126.44874 
L 82.503897 126.44874 
L 82.503897 126.44874 
L 80.827543 126.44874 
z
" style="fill:#1f77b4;opacity:0.5;"/>
   </g>
   <g id="patch_12">
    <path clip-path="url(#p9ddd345dfb)" d="M 82.922985 126.44874 
L 84.599339 126.44874 
L 84.599339 126.44874 
L 82.922985 126.44874 
z
" style="fill:#1f77b4;opacity:0.5;"/>
   </g>
   <g id="patch_13">
    <path clip-path="url(#p9ddd345dfb)" d="M 85.018428 126.44874 
L 86.694781 126.44874 
L 86.694781 126.44874 
L 85.018428 126.44874 
z
" style="fill:#1f77b4;opacity:0.5;"/>
   </g>
   <g id="patch_14">
    <path clip-path="url(#p9ddd345dfb)" d="M 87.11387 126.44874 
L 88.790224 126.44874 
L 88.790224 126.44874 
L 87.11387 126.44874 
z
" style="fill:#1f77b4;opacity:0.5;"/>
   </g>
   <g id="patch_15">
    <path clip-path="url(#p9ddd345dfb)" d="M 89.209312 126.44874 
L 90.885666 126.44874 
L 90.885666 126.448557 
L 89.209312 126.448557 
z
" style="fill:#1f77b4;opacity:0.5;"/>
   </g>
   <g id="patch_16">
    <path clip-path="url(#p9ddd345dfb)" d="M 91.304754 126.44874 
L 92.981108 126.44874 
L 92.981108 126.448557 
L 91.304754 126.448557 
z
" style="fill:#1f77b4;opacity:0.5;"/>
   </g>
   <g id="patch_17">
    <path clip-path="url(#p9ddd345dfb)" d="M 93.400197 126.44874 
L 95.07655 126.44874 
L 95.07655 126.447273 
L 93.400197 126.447273 
z
" style="fill:#1f77b4;opacity:0.5;"/>
   </g>
   <g id="patch_18">
    <path clip-path="url(#p9ddd345dfb)" d="M 95.495639 126.44874 
L 97.171993 126.44874 
L 97.171993 126.44654 
L 95.495639 126.44654 
z
" style="fill:#1f77b4;opacity:0.5;"/>
   </g>
   <g id="patch_19">
    <path clip-path="url(#p9ddd345dfb)" d="M 97.591081 126.44874 
L 99.267435 126.44874 
L 99.267435 126.44544 
L 97.591081 126.44544 
z
" style="fill:#1f77b4;opacity:0.5;"/>
   </g>
   <g id="patch_20">
    <path clip-path="url(#p9ddd345dfb)" d="M 99.686523 126.44874 
L 101.362877 126.44874 
L 101.362877 126.444339 
L 99.686523 126.444339 
z
" style="fill:#1f77b4;opacity:0.5;"/>
   </g>
   <g id="patch_21">
    <path clip-path="url(#p9ddd345dfb)" d="M 101.781966 126.44874 
L 103.458319 126.44874 
L 103.458319 126.443239 
L 101.781966 126.443239 
z
" style="fill:#1f77b4;opacity:0.5;"/>
   </g>
   <g id="patch_22">
    <path clip-path="url(#p9ddd345dfb)" d="M 103.877408 126.44874 
L 105.553762 126.44874 
L 105.553762 126.441956 
L 103.877408 126.441956 
z
" style="fill:#1f77b4;opacity:0.5;"/>
   </g>
   <g id="patch_23">
    <path clip-path="url(#p9ddd345dfb)" d="M 105.97285 126.44874 
L 107.649204 126.44874 
L 107.649204 126.438288 
L 105.97285 126.438288 
z
" style="fill:#1f77b4;opacity:0.5;"/>
   </g>
   <g id="patch_24">
    <path clip-path="url(#p9ddd345dfb)" d="M 108.068292 126.44874 
L 109.744646 126.44874 
L 109.744646 126.432788 
L 108.068292 126.432788 
z
" style="fill:#1f77b4;opacity:0.5;"/>
   </g>
   <g id="patch_25">
    <path clip-path="url(#p9ddd345dfb)" d="M 110.163735 126.44874 
L 111.840088 126.44874 
L 111.840088 126.410417 
L 110.163735 126.410417 
z
" style="fill:#1f77b4;opacity:0.5;"/>
   </g>
   <g id="patch_26">
    <path clip-path="url(#p9ddd345dfb)" d="M 112.259177 126.44874 
L 113.935531 126.44874 
L 113.935531 126.400332 
L 112.259177 126.400332 
z
" style="fill:#1f77b4;opacity:0.5;"/>
   </g>
   <g id="patch_27">
    <path clip-path="url(#p9ddd345dfb)" d="M 114.354619 126.44874 
L 116.030973 126.44874 
L 116.030973 126.387864 
L 114.354619 126.387864 
z
" style="fill:#1f77b4;opacity:0.5;"/>
   </g>
   <g id="patch_28">
    <path clip-path="url(#p9ddd345dfb)" d="M 116.450061 126.44874 
L 118.126415 126.44874 
L 118.126415 126.380162 
L 116.450061 126.380162 
z
" style="fill:#1f77b4;opacity:0.5;"/>
   </g>
   <g id="patch_29">
    <path clip-path="url(#p9ddd345dfb)" d="M 118.545504 126.44874 
L 120.221857 126.44874 
L 120.221857 126.358892 
L 118.545504 126.358892 
z
" style="fill:#1f77b4;opacity:0.5;"/>
   </g>
   <g id="patch_30">
    <path clip-path="url(#p9ddd345dfb)" d="M 120.640946 126.44874 
L 122.3173 126.44874 
L 122.3173 126.331021 
L 120.640946 126.331021 
z
" style="fill:#1f77b4;opacity:0.5;"/>
   </g>
   <g id="patch_31">
    <path clip-path="url(#p9ddd345dfb)" d="M 122.736388 126.44874 
L 124.412742 126.44874 
L 124.412742 126.292148 
L 122.736388 126.292148 
z
" style="fill:#1f77b4;opacity:0.5;"/>
   </g>
   <g id="patch_32">
    <path clip-path="url(#p9ddd345dfb)" d="M 124.83183 126.44874 
L 126.508184 126.44874 
L 126.508184 126.24319 
L 124.83183 126.24319 
z
" style="fill:#1f77b4;opacity:0.5;"/>
   </g>
   <g id="patch_33">
    <path clip-path="url(#p9ddd345dfb)" d="M 126.927273 126.44874 
L 128.603626 126.44874 
L 128.603626 126.19955 
L 126.927273 126.19955 
z
" style="fill:#1f77b4;opacity:0.5;"/>
   </g>
   <g id="patch_34">
    <path clip-path="url(#p9ddd345dfb)" d="M 129.022715 126.44874 
L 130.699069 126.44874 
L 130.699069 126.045341 
L 129.022715 126.045341 
z
" style="fill:#1f77b4;opacity:0.5;"/>
   </g>
   <g id="patch_35">
    <path clip-path="url(#p9ddd345dfb)" d="M 131.118157 126.44874 
L 132.794511 126.44874 
L 132.794511 126.045341 
L 131.118157 126.045341 
z
" style="fill:#1f77b4;opacity:0.5;"/>
   </g>
   <g id="patch_36">
    <path clip-path="url(#p9ddd345dfb)" d="M 133.213599 126.44874 
L 134.889953 126.44874 
L 134.889953 125.962828 
L 133.213599 125.962828 
z
" style="fill:#1f77b4;opacity:0.5;"/>
   </g>
   <g id="patch_37">
    <path clip-path="url(#p9ddd345dfb)" d="M 135.309042 126.44874 
L 136.985395 126.44874 
L 136.985395 125.896817 
L 135.309042 125.896817 
z
" style="fill:#1f77b4;opacity:0.5;"/>
   </g>
   <g id="patch_38">
    <path clip-path="url(#p9ddd345dfb)" d="M 137.404484 126.44874 
L 139.080838 126.44874 
L 139.080838 125.735824 
L 137.404484 125.735824 
z
" style="fill:#1f77b4;opacity:0.5;"/>
   </g>
   <g id="patch_39">
    <path clip-path="url(#p9ddd345dfb)" d="M 139.499926 126.44874 
L 141.17628 126.44874 
L 141.17628 125.561263 
L 139.499926 125.561263 
z
" style="fill:#1f77b4;opacity:0.5;"/>
   </g>
   <g id="patch_40">
    <path clip-path="url(#p9ddd345dfb)" d="M 141.595368 126.44874 
L 143.271722 126.44874 
L 143.271722 125.334442 
L 141.595368 125.334442 
z
" style="fill:#1f77b4;opacity:0.5;"/>
   </g>
   <g id="patch_41">
    <path clip-path="url(#p9ddd345dfb)" d="M 143.690811 126.44874 
L 145.367164 126.44874 
L 145.367164 125.170516 
L 143.690811 125.170516 
z
" style="fill:#1f77b4;opacity:0.5;"/>
   </g>
   <g id="patch_42">
    <path clip-path="url(#p9ddd345dfb)" d="M 145.786253 126.44874 
L 147.462607 126.44874 
L 147.462607 124.979085 
L 145.786253 124.979085 
z
" style="fill:#1f77b4;opacity:0.5;"/>
   </g>
   <g id="patch_43">
    <path clip-path="url(#p9ddd345dfb)" d="M 147.881695 126.44874 
L 149.558049 126.44874 
L 149.558049 124.837162 
L 147.881695 124.837162 
z
" style="fill:#1f77b4;opacity:0.5;"/>
   </g>
   <g id="patch_44">
    <path clip-path="url(#p9ddd345dfb)" d="M 149.977137 126.44874 
L 151.653491 126.44874 
L 151.653491 124.667551 
L 149.977137 124.667551 
z
" style="fill:#1f77b4;opacity:0.5;"/>
   </g>
   <g id="patch_45">
    <path clip-path="url(#p9ddd345dfb)" d="M 152.07258 126.44874 
L 153.748933 126.44874 
L 153.748933 124.484188 
L 152.07258 124.484188 
z
" style="fill:#1f77b4;opacity:0.5;"/>
   </g>
   <g id="patch_46">
    <path clip-path="url(#p9ddd345dfb)" d="M 154.168022 126.44874 
L 155.844376 126.44874 
L 155.844376 124.229313 
L 154.168022 124.229313 
z
" style="fill:#1f77b4;opacity:0.5;"/>
   </g>
   <g id="patch_47">
    <path clip-path="url(#p9ddd345dfb)" d="M 156.263464 126.44874 
L 157.939818 126.44874 
L 157.939818 124.037148 
L 156.263464 124.037148 
z
" style="fill:#1f77b4;opacity:0.5;"/>
   </g>
   <g id="patch_48">
    <path clip-path="url(#p9ddd345dfb)" d="M 158.358906 126.44874 
L 160.03526 126.44874 
L 160.03526 123.831415 
L 158.358906 123.831415 
z
" style="fill:#1f77b4;opacity:0.5;"/>
   </g>
   <g id="patch_49">
    <path clip-path="url(#p9ddd345dfb)" d="M 160.454349 126.44874 
L 162.130702 126.44874 
L 162.130702 123.622748 
L 160.454349 123.622748 
z
" style="fill:#1f77b4;opacity:0.5;"/>
   </g>
   <g id="patch_50">
    <path clip-path="url(#p9ddd345dfb)" d="M 162.549791 126.44874 
L 164.226145 126.44874 
L 164.226145 123.495127 
L 162.549791 123.495127 
z
" style="fill:#1f77b4;opacity:0.5;"/>
   </g>
   <g id="patch_51">
    <path clip-path="url(#p9ddd345dfb)" d="M 164.645233 126.44874 
L 166.321587 126.44874 
L 166.321587 123.318731 
L 164.645233 123.318731 
z
" style="fill:#1f77b4;opacity:0.5;"/>
   </g>
   <g id="patch_52">
    <path clip-path="url(#p9ddd345dfb)" d="M 166.740675 126.44874 
L 168.417029 126.44874 
L 168.417029 123.112631 
L 166.740675 123.112631 
z
" style="fill:#1f77b4;opacity:0.5;"/>
   </g>
   <g id="patch_53">
    <path clip-path="url(#p9ddd345dfb)" d="M 168.836118 126.44874 
L 170.512471 126.44874 
L 170.512471 122.923217 
L 168.836118 122.923217 
z
" style="fill:#1f77b4;opacity:0.5;"/>
   </g>
   <g id="patch_54">
    <path clip-path="url(#p9ddd345dfb)" d="M 170.93156 126.44874 
L 172.607914 126.44874 
L 172.607914 122.744621 
L 170.93156 122.744621 
z
" style="fill:#1f77b4;opacity:0.5;"/>
   </g>
   <g id="patch_55">
    <path clip-path="url(#p9ddd345dfb)" d="M 173.027002 126.44874 
L 174.703356 126.44874 
L 174.703356 122.59408 
L 173.027002 122.59408 
z
" style="fill:#1f77b4;opacity:0.5;"/>
   </g>
   <g id="patch_56">
    <path clip-path="url(#p9ddd345dfb)" d="M 175.122444 126.44874 
L 176.798798 126.44874 
L 176.798798 122.492864 
L 175.122444 122.492864 
z
" style="fill:#1f77b4;opacity:0.5;"/>
   </g>
   <g id="patch_57">
    <path clip-path="url(#p9ddd345dfb)" d="M 177.217887 126.44874 
L 178.89424 126.44874 
L 178.89424 122.38468 
L 177.217887 122.38468 
z
" style="fill:#1f77b4;opacity:0.5;"/>
   </g>
   <g id="patch_58">
    <path clip-path="url(#p9ddd345dfb)" d="M 179.313329 126.44874 
L 180.989683 126.44874 
L 180.989683 122.284563 
L 179.313329 122.284563 
z
" style="fill:#1f77b4;opacity:0.5;"/>
   </g>
   <g id="patch_59">
    <path clip-path="url(#p9ddd345dfb)" d="M 181.408771 126.44874 
L 183.085125 126.44874 
L 183.085125 122.140623 
L 181.408771 122.140623 
z
" style="fill:#1f77b4;opacity:0.5;"/>
   </g>
   <g id="patch_60">
    <path clip-path="url(#p9ddd345dfb)" d="M 183.504213 126.44874 
L 185.180567 126.44874 
L 185.180567 122.006218 
L 183.504213 122.006218 
z
" style="fill:#1f77b4;opacity:0.5;"/>
   </g>
   <g id="patch_61">
    <path clip-path="url(#p9ddd345dfb)" d="M 185.599656 126.44874 
L 187.276009 126.44874 
L 187.276009 121.897667 
L 185.599656 121.897667 
z
" style="fill:#1f77b4;opacity:0.5;"/>
   </g>
   <g id="patch_62">
    <path clip-path="url(#p9ddd345dfb)" d="M 187.695098 126.44874 
L 189.371452 126.44874 
L 189.371452 121.824322 
L 187.695098 121.824322 
z
" style="fill:#1f77b4;opacity:0.5;"/>
   </g>
   <g id="patch_63">
    <path clip-path="url(#p9ddd345dfb)" d="M 189.79054 126.44874 
L 191.466894 126.44874 
L 191.466894 121.773164 
L 189.79054 121.773164 
z
" style="fill:#1f77b4;opacity:0.5;"/>
   </g>
   <g id="patch_64">
    <path clip-path="url(#p9ddd345dfb)" d="M 191.885982 126.44874 
L 193.562336 126.44874 
L 193.562336 121.726589 
L 191.885982 121.726589 
z
" style="fill:#1f77b4;opacity:0.5;"/>
   </g>
   <g id="patch_65">
    <path clip-path="url(#p9ddd345dfb)" d="M 193.981425 126.44874 
L 195.657778 126.44874 
L 195.657778 121.619689 
L 193.981425 121.619689 
z
" style="fill:#1f77b4;opacity:0.5;"/>
   </g>
   <g id="patch_66">
    <path clip-path="url(#p9ddd345dfb)" d="M 196.076867 126.44874 
L 197.753221 126.44874 
L 197.753221 121.561929 
L 196.076867 121.561929 
z
" style="fill:#1f77b4;opacity:0.5;"/>
   </g>
   <g id="patch_67">
    <path clip-path="url(#p9ddd345dfb)" d="M 198.172309 126.44874 
L 199.848663 126.44874 
L 199.848663 121.498486 
L 198.172309 121.498486 
z
" style="fill:#1f77b4;opacity:0.5;"/>
   </g>
   <g id="patch_68">
    <path clip-path="url(#p9ddd345dfb)" d="M 200.267751 126.44874 
L 201.944105 126.44874 
L 201.944105 121.438893 
L 200.267751 121.438893 
z
" style="fill:#1f77b4;opacity:0.5;"/>
   </g>
   <g id="matplotlib.axis_1">
    <g id="xtick_1">
     <g id="line2d_1">
      <defs>
       <path d="M 0 0 
L 0 3.5 
" id="mc3d26167e0" style="stroke:#000000;stroke-width:0.8;"/>
      </defs>
      <g>
       <use style="stroke:#000000;stroke-width:0.8;" x="201.105928" xlink:href="#mc3d26167e0" y="126.44874"/>
      </g>
     </g>
     <g id="text_1">
      <!-- 19 Apr -->
      <defs>
       <path d="M 12.40625 8.296875 
L 28.515625 8.296875 
L 28.515625 63.921875 
L 10.984375 60.40625 
L 10.984375 69.390625 
L 28.421875 72.90625 
L 38.28125 72.90625 
L 38.28125 8.296875 
L 54.390625 8.296875 
L 54.390625 0 
L 12.40625 0 
z
" id="DejaVuSans-49"/>
       <path d="M 10.984375 1.515625 
L 10.984375 10.5 
Q 14.703125 8.734375 18.5 7.8125 
Q 22.3125 6.890625 25.984375 6.890625 
Q 35.75 6.890625 40.890625 13.453125 
Q 46.046875 20.015625 46.78125 33.40625 
Q 43.953125 29.203125 39.59375 26.953125 
Q 35.25 24.703125 29.984375 24.703125 
Q 19.046875 24.703125 12.671875 31.3125 
Q 6.296875 37.9375 6.296875 49.421875 
Q 6.296875 60.640625 12.9375 67.421875 
Q 19.578125 74.21875 30.609375 74.21875 
Q 43.265625 74.21875 49.921875 64.515625 
Q 56.59375 54.828125 56.59375 36.375 
Q 56.59375 19.140625 48.40625 8.859375 
Q 40.234375 -1.421875 26.421875 -1.421875 
Q 22.703125 -1.421875 18.890625 -0.6875 
Q 15.09375 0.046875 10.984375 1.515625 
z
M 30.609375 32.421875 
Q 37.25 32.421875 41.125 36.953125 
Q 45.015625 41.5 45.015625 49.421875 
Q 45.015625 57.28125 41.125 61.84375 
Q 37.25 66.40625 30.609375 66.40625 
Q 23.96875 66.40625 20.09375 61.84375 
Q 16.21875 57.28125 16.21875 49.421875 
Q 16.21875 41.5 20.09375 36.953125 
Q 23.96875 32.421875 30.609375 32.421875 
z
" id="DejaVuSans-57"/>
       <path id="DejaVuSans-32"/>
       <path d="M 34.1875 63.1875 
L 20.796875 26.90625 
L 47.609375 26.90625 
z
M 28.609375 72.90625 
L 39.796875 72.90625 
L 67.578125 0 
L 57.328125 0 
L 50.6875 18.703125 
L 17.828125 18.703125 
L 11.1875 0 
L 0.78125 0 
z
" id="DejaVuSans-65"/>
       <path d="M 18.109375 8.203125 
L 18.109375 -20.796875 
L 9.078125 -20.796875 
L 9.078125 54.6875 
L 18.109375 54.6875 
L 18.109375 46.390625 
Q 20.953125 51.265625 25.265625 53.625 
Q 29.59375 56 35.59375 56 
Q 45.5625 56 51.78125 48.09375 
Q 58.015625 40.1875 58.015625 27.296875 
Q 58.015625 14.40625 51.78125 6.484375 
Q 45.5625 -1.421875 35.59375 -1.421875 
Q 29.59375 -1.421875 25.265625 0.953125 
Q 20.953125 3.328125 18.109375 8.203125 
z
M 48.6875 27.296875 
Q 48.6875 37.203125 44.609375 42.84375 
Q 40.53125 48.484375 33.40625 48.484375 
Q 26.265625 48.484375 22.1875 42.84375 
Q 18.109375 37.203125 18.109375 27.296875 
Q 18.109375 17.390625 22.1875 11.75 
Q 26.265625 6.109375 33.40625 6.109375 
Q 40.53125 6.109375 44.609375 11.75 
Q 48.6875 17.390625 48.6875 27.296875 
z
" id="DejaVuSans-112"/>
       <path d="M 41.109375 46.296875 
Q 39.59375 47.171875 37.8125 47.578125 
Q 36.03125 48 33.890625 48 
Q 26.265625 48 22.1875 43.046875 
Q 18.109375 38.09375 18.109375 28.8125 
L 18.109375 0 
L 9.078125 0 
L 9.078125 54.6875 
L 18.109375 54.6875 
L 18.109375 46.1875 
Q 20.953125 51.171875 25.484375 53.578125 
Q 30.03125 56 36.53125 56 
Q 37.453125 56 38.578125 55.875 
Q 39.703125 55.765625 41.0625 55.515625 
z
" id="DejaVuSans-114"/>
      </defs>
      <g transform="translate(203.313428 160.01124)rotate(-90)scale(0.08 -0.08)">
       <use xlink:href="#DejaVuSans-49"/>
       <use x="63.623047" xlink:href="#DejaVuSans-57"/>
       <use x="127.246094" xlink:href="#DejaVuSans-32"/>
       <use x="159.033203" xlink:href="#DejaVuSans-65"/>
       <use x="227.441406" xlink:href="#DejaVuSans-112"/>
       <use x="290.917969" xlink:href="#DejaVuSans-114"/>
      </g>
     </g>
    </g>
    <g id="xtick_2">
     <g id="line2d_2">
      <g>
       <use style="stroke:#000000;stroke-width:0.8;" x="186.437833" xlink:href="#mc3d26167e0" y="126.44874"/>
      </g>
     </g>
     <g id="text_2">
      <!-- 12 Apr -->
      <defs>
       <path d="M 19.1875 8.296875 
L 53.609375 8.296875 
L 53.609375 0 
L 7.328125 0 
L 7.328125 8.296875 
Q 12.9375 14.109375 22.625 23.890625 
Q 32.328125 33.6875 34.8125 36.53125 
Q 39.546875 41.84375 41.421875 45.53125 
Q 43.3125 49.21875 43.3125 52.78125 
Q 43.3125 58.59375 39.234375 62.25 
Q 35.15625 65.921875 28.609375 65.921875 
Q 23.96875 65.921875 18.8125 64.3125 
Q 13.671875 62.703125 7.8125 59.421875 
L 7.8125 69.390625 
Q 13.765625 71.78125 18.9375 73 
Q 24.125 74.21875 28.421875 74.21875 
Q 39.75 74.21875 46.484375 68.546875 
Q 53.21875 62.890625 53.21875 53.421875 
Q 53.21875 48.921875 51.53125 44.890625 
Q 49.859375 40.875 45.40625 35.40625 
Q 44.1875 33.984375 37.640625 27.21875 
Q 31.109375 20.453125 19.1875 8.296875 
z
" id="DejaVuSans-50"/>
      </defs>
      <g transform="translate(188.645333 160.01124)rotate(-90)scale(0.08 -0.08)">
       <use xlink:href="#DejaVuSans-49"/>
       <use x="63.623047" xlink:href="#DejaVuSans-50"/>
       <use x="127.246094" xlink:href="#DejaVuSans-32"/>
       <use x="159.033203" xlink:href="#DejaVuSans-65"/>
       <use x="227.441406" xlink:href="#DejaVuSans-112"/>
       <use x="290.917969" xlink:href="#DejaVuSans-114"/>
      </g>
     </g>
    </g>
    <g id="xtick_3">
     <g id="line2d_3">
      <g>
       <use style="stroke:#000000;stroke-width:0.8;" x="171.769737" xlink:href="#mc3d26167e0" y="126.44874"/>
      </g>
     </g>
     <g id="text_3">
      <!-- 5 Apr -->
      <defs>
       <path d="M 10.796875 72.90625 
L 49.515625 72.90625 
L 49.515625 64.59375 
L 19.828125 64.59375 
L 19.828125 46.734375 
Q 21.96875 47.46875 24.109375 47.828125 
Q 26.265625 48.1875 28.421875 48.1875 
Q 40.625 48.1875 47.75 41.5 
Q 54.890625 34.8125 54.890625 23.390625 
Q 54.890625 11.625 47.5625 5.09375 
Q 40.234375 -1.421875 26.90625 -1.421875 
Q 22.3125 -1.421875 17.546875 -0.640625 
Q 12.796875 0.140625 7.71875 1.703125 
L 7.71875 11.625 
Q 12.109375 9.234375 16.796875 8.0625 
Q 21.484375 6.890625 26.703125 6.890625 
Q 35.15625 6.890625 40.078125 11.328125 
Q 45.015625 15.765625 45.015625 23.390625 
Q 45.015625 31 40.078125 35.4375 
Q 35.15625 39.890625 26.703125 39.890625 
Q 22.75 39.890625 18.8125 39.015625 
Q 14.890625 38.140625 10.796875 36.28125 
z
" id="DejaVuSans-53"/>
      </defs>
      <g transform="translate(173.977237 154.92124)rotate(-90)scale(0.08 -0.08)">
       <use xlink:href="#DejaVuSans-53"/>
       <use x="63.623047" xlink:href="#DejaVuSans-32"/>
       <use x="95.410156" xlink:href="#DejaVuSans-65"/>
       <use x="163.818359" xlink:href="#DejaVuSans-112"/>
       <use x="227.294922" xlink:href="#DejaVuSans-114"/>
      </g>
     </g>
    </g>
    <g id="xtick_4">
     <g id="line2d_4">
      <g>
       <use style="stroke:#000000;stroke-width:0.8;" x="157.101641" xlink:href="#mc3d26167e0" y="126.44874"/>
      </g>
     </g>
     <g id="text_4">
      <!-- 29 Mar -->
      <defs>
       <path d="M 9.8125 72.90625 
L 24.515625 72.90625 
L 43.109375 23.296875 
L 61.8125 72.90625 
L 76.515625 72.90625 
L 76.515625 0 
L 66.890625 0 
L 66.890625 64.015625 
L 48.09375 14.015625 
L 38.1875 14.015625 
L 19.390625 64.015625 
L 19.390625 0 
L 9.8125 0 
z
" id="DejaVuSans-77"/>
       <path d="M 34.28125 27.484375 
Q 23.390625 27.484375 19.1875 25 
Q 14.984375 22.515625 14.984375 16.5 
Q 14.984375 11.71875 18.140625 8.90625 
Q 21.296875 6.109375 26.703125 6.109375 
Q 34.1875 6.109375 38.703125 11.40625 
Q 43.21875 16.703125 43.21875 25.484375 
L 43.21875 27.484375 
z
M 52.203125 31.203125 
L 52.203125 0 
L 43.21875 0 
L 43.21875 8.296875 
Q 40.140625 3.328125 35.546875 0.953125 
Q 30.953125 -1.421875 24.3125 -1.421875 
Q 15.921875 -1.421875 10.953125 3.296875 
Q 6 8.015625 6 15.921875 
Q 6 25.140625 12.171875 29.828125 
Q 18.359375 34.515625 30.609375 34.515625 
L 43.21875 34.515625 
L 43.21875 35.40625 
Q 43.21875 41.609375 39.140625 45 
Q 35.0625 48.390625 27.6875 48.390625 
Q 23 48.390625 18.546875 47.265625 
Q 14.109375 46.140625 10.015625 43.890625 
L 10.015625 52.203125 
Q 14.9375 54.109375 19.578125 55.046875 
Q 24.21875 56 28.609375 56 
Q 40.484375 56 46.34375 49.84375 
Q 52.203125 43.703125 52.203125 31.203125 
z
" id="DejaVuSans-97"/>
      </defs>
      <g transform="translate(159.309141 161.26499)rotate(-90)scale(0.08 -0.08)">
       <use xlink:href="#DejaVuSans-50"/>
       <use x="63.623047" xlink:href="#DejaVuSans-57"/>
       <use x="127.246094" xlink:href="#DejaVuSans-32"/>
       <use x="159.033203" xlink:href="#DejaVuSans-77"/>
       <use x="245.3125" xlink:href="#DejaVuSans-97"/>
       <use x="306.591797" xlink:href="#DejaVuSans-114"/>
      </g>
     </g>
    </g>
    <g id="xtick_5">
     <g id="line2d_5">
      <g>
       <use style="stroke:#000000;stroke-width:0.8;" x="142.433545" xlink:href="#mc3d26167e0" y="126.44874"/>
      </g>
     </g>
     <g id="text_5">
      <!-- 22 Mar -->
      <g transform="translate(144.641045 161.26499)rotate(-90)scale(0.08 -0.08)">
       <use xlink:href="#DejaVuSans-50"/>
       <use x="63.623047" xlink:href="#DejaVuSans-50"/>
       <use x="127.246094" xlink:href="#DejaVuSans-32"/>
       <use x="159.033203" xlink:href="#DejaVuSans-77"/>
       <use x="245.3125" xlink:href="#DejaVuSans-97"/>
       <use x="306.591797" xlink:href="#DejaVuSans-114"/>
      </g>
     </g>
    </g>
    <g id="xtick_6">
     <g id="line2d_6">
      <g>
       <use style="stroke:#000000;stroke-width:0.8;" x="127.765449" xlink:href="#mc3d26167e0" y="126.44874"/>
      </g>
     </g>
     <g id="text_6">
      <!-- 15 Mar -->
      <g transform="translate(129.972949 161.26499)rotate(-90)scale(0.08 -0.08)">
       <use xlink:href="#DejaVuSans-49"/>
       <use x="63.623047" xlink:href="#DejaVuSans-53"/>
       <use x="127.246094" xlink:href="#DejaVuSans-32"/>
       <use x="159.033203" xlink:href="#DejaVuSans-77"/>
       <use x="245.3125" xlink:href="#DejaVuSans-97"/>
       <use x="306.591797" xlink:href="#DejaVuSans-114"/>
      </g>
     </g>
    </g>
    <g id="xtick_7">
     <g id="line2d_7">
      <g>
       <use style="stroke:#000000;stroke-width:0.8;" x="113.097354" xlink:href="#mc3d26167e0" y="126.44874"/>
      </g>
     </g>
     <g id="text_7">
      <!-- 8 Mar -->
      <defs>
       <path d="M 31.78125 34.625 
Q 24.75 34.625 20.71875 30.859375 
Q 16.703125 27.09375 16.703125 20.515625 
Q 16.703125 13.921875 20.71875 10.15625 
Q 24.75 6.390625 31.78125 6.390625 
Q 38.8125 6.390625 42.859375 10.171875 
Q 46.921875 13.96875 46.921875 20.515625 
Q 46.921875 27.09375 42.890625 30.859375 
Q 38.875 34.625 31.78125 34.625 
z
M 21.921875 38.8125 
Q 15.578125 40.375 12.03125 44.71875 
Q 8.5 49.078125 8.5 55.328125 
Q 8.5 64.0625 14.71875 69.140625 
Q 20.953125 74.21875 31.78125 74.21875 
Q 42.671875 74.21875 48.875 69.140625 
Q 55.078125 64.0625 55.078125 55.328125 
Q 55.078125 49.078125 51.53125 44.71875 
Q 48 40.375 41.703125 38.8125 
Q 48.828125 37.15625 52.796875 32.3125 
Q 56.78125 27.484375 56.78125 20.515625 
Q 56.78125 9.90625 50.3125 4.234375 
Q 43.84375 -1.421875 31.78125 -1.421875 
Q 19.734375 -1.421875 13.25 4.234375 
Q 6.78125 9.90625 6.78125 20.515625 
Q 6.78125 27.484375 10.78125 32.3125 
Q 14.796875 37.15625 21.921875 38.8125 
z
M 18.3125 54.390625 
Q 18.3125 48.734375 21.84375 45.5625 
Q 25.390625 42.390625 31.78125 42.390625 
Q 38.140625 42.390625 41.71875 45.5625 
Q 45.3125 48.734375 45.3125 54.390625 
Q 45.3125 60.0625 41.71875 63.234375 
Q 38.140625 66.40625 31.78125 66.40625 
Q 25.390625 66.40625 21.84375 63.234375 
Q 18.3125 60.0625 18.3125 54.390625 
z
" id="DejaVuSans-56"/>
      </defs>
      <g transform="translate(115.304854 156.17499)rotate(-90)scale(0.08 -0.08)">
       <use xlink:href="#DejaVuSans-56"/>
       <use x="63.623047" xlink:href="#DejaVuSans-32"/>
       <use x="95.410156" xlink:href="#DejaVuSans-77"/>
       <use x="181.689453" xlink:href="#DejaVuSans-97"/>
       <use x="242.96875" xlink:href="#DejaVuSans-114"/>
      </g>
     </g>
    </g>
    <g id="xtick_8">
     <g id="line2d_8">
      <g>
       <use style="stroke:#000000;stroke-width:0.8;" x="98.429258" xlink:href="#mc3d26167e0" y="126.44874"/>
      </g>
     </g>
     <g id="text_8">
      <!-- 1 Mar -->
      <g transform="translate(100.636758 156.17499)rotate(-90)scale(0.08 -0.08)">
       <use xlink:href="#DejaVuSans-49"/>
       <use x="63.623047" xlink:href="#DejaVuSans-32"/>
       <use x="95.410156" xlink:href="#DejaVuSans-77"/>
       <use x="181.689453" xlink:href="#DejaVuSans-97"/>
       <use x="242.96875" xlink:href="#DejaVuSans-114"/>
      </g>
     </g>
    </g>
    <g id="xtick_9">
     <g id="line2d_9">
      <g>
       <use style="stroke:#000000;stroke-width:0.8;" x="83.761162" xlink:href="#mc3d26167e0" y="126.44874"/>
      </g>
     </g>
     <g id="text_9">
      <!-- 23 Feb -->
      <defs>
       <path d="M 40.578125 39.3125 
Q 47.65625 37.796875 51.625 33 
Q 55.609375 28.21875 55.609375 21.1875 
Q 55.609375 10.40625 48.1875 4.484375 
Q 40.765625 -1.421875 27.09375 -1.421875 
Q 22.515625 -1.421875 17.65625 -0.515625 
Q 12.796875 0.390625 7.625 2.203125 
L 7.625 11.71875 
Q 11.71875 9.328125 16.59375 8.109375 
Q 21.484375 6.890625 26.8125 6.890625 
Q 36.078125 6.890625 40.9375 10.546875 
Q 45.796875 14.203125 45.796875 21.1875 
Q 45.796875 27.640625 41.28125 31.265625 
Q 36.765625 34.90625 28.71875 34.90625 
L 20.21875 34.90625 
L 20.21875 43.015625 
L 29.109375 43.015625 
Q 36.375 43.015625 40.234375 45.921875 
Q 44.09375 48.828125 44.09375 54.296875 
Q 44.09375 59.90625 40.109375 62.90625 
Q 36.140625 65.921875 28.71875 65.921875 
Q 24.65625 65.921875 20.015625 65.03125 
Q 15.375 64.15625 9.8125 62.3125 
L 9.8125 71.09375 
Q 15.4375 72.65625 20.34375 73.4375 
Q 25.25 74.21875 29.59375 74.21875 
Q 40.828125 74.21875 47.359375 69.109375 
Q 53.90625 64.015625 53.90625 55.328125 
Q 53.90625 49.265625 50.4375 45.09375 
Q 46.96875 40.921875 40.578125 39.3125 
z
" id="DejaVuSans-51"/>
       <path d="M 9.8125 72.90625 
L 51.703125 72.90625 
L 51.703125 64.59375 
L 19.671875 64.59375 
L 19.671875 43.109375 
L 48.578125 43.109375 
L 48.578125 34.8125 
L 19.671875 34.8125 
L 19.671875 0 
L 9.8125 0 
z
" id="DejaVuSans-70"/>
       <path d="M 56.203125 29.59375 
L 56.203125 25.203125 
L 14.890625 25.203125 
Q 15.484375 15.921875 20.484375 11.0625 
Q 25.484375 6.203125 34.421875 6.203125 
Q 39.59375 6.203125 44.453125 7.46875 
Q 49.3125 8.734375 54.109375 11.28125 
L 54.109375 2.78125 
Q 49.265625 0.734375 44.1875 -0.34375 
Q 39.109375 -1.421875 33.890625 -1.421875 
Q 20.796875 -1.421875 13.15625 6.1875 
Q 5.515625 13.8125 5.515625 26.8125 
Q 5.515625 40.234375 12.765625 48.109375 
Q 20.015625 56 32.328125 56 
Q 43.359375 56 49.78125 48.890625 
Q 56.203125 41.796875 56.203125 29.59375 
z
M 47.21875 32.234375 
Q 47.125 39.59375 43.09375 43.984375 
Q 39.0625 48.390625 32.421875 48.390625 
Q 24.90625 48.390625 20.390625 44.140625 
Q 15.875 39.890625 15.1875 32.171875 
z
" id="DejaVuSans-101"/>
       <path d="M 48.6875 27.296875 
Q 48.6875 37.203125 44.609375 42.84375 
Q 40.53125 48.484375 33.40625 48.484375 
Q 26.265625 48.484375 22.1875 42.84375 
Q 18.109375 37.203125 18.109375 27.296875 
Q 18.109375 17.390625 22.1875 11.75 
Q 26.265625 6.109375 33.40625 6.109375 
Q 40.53125 6.109375 44.609375 11.75 
Q 48.6875 17.390625 48.6875 27.296875 
z
M 18.109375 46.390625 
Q 20.953125 51.265625 25.265625 53.625 
Q 29.59375 56 35.59375 56 
Q 45.5625 56 51.78125 48.09375 
Q 58.015625 40.1875 58.015625 27.296875 
Q 58.015625 14.40625 51.78125 6.484375 
Q 45.5625 -1.421875 35.59375 -1.421875 
Q 29.59375 -1.421875 25.265625 0.953125 
Q 20.953125 3.328125 18.109375 8.203125 
L 18.109375 0 
L 9.078125 0 
L 9.078125 75.984375 
L 18.109375 75.984375 
z
" id="DejaVuSans-98"/>
      </defs>
      <g transform="translate(85.968662 160.33374)rotate(-90)scale(0.08 -0.08)">
       <use xlink:href="#DejaVuSans-50"/>
       <use x="63.623047" xlink:href="#DejaVuSans-51"/>
       <use x="127.246094" xlink:href="#DejaVuSans-32"/>
       <use x="159.033203" xlink:href="#DejaVuSans-70"/>
       <use x="211.052734" xlink:href="#DejaVuSans-101"/>
       <use x="272.576172" xlink:href="#DejaVuSans-98"/>
      </g>
     </g>
    </g>
    <g id="xtick_10">
     <g id="line2d_10">
      <g>
       <use style="stroke:#000000;stroke-width:0.8;" x="69.093066" xlink:href="#mc3d26167e0" y="126.44874"/>
      </g>
     </g>
     <g id="text_10">
      <!-- 16 Feb -->
      <defs>
       <path d="M 33.015625 40.375 
Q 26.375 40.375 22.484375 35.828125 
Q 18.609375 31.296875 18.609375 23.390625 
Q 18.609375 15.53125 22.484375 10.953125 
Q 26.375 6.390625 33.015625 6.390625 
Q 39.65625 6.390625 43.53125 10.953125 
Q 47.40625 15.53125 47.40625 23.390625 
Q 47.40625 31.296875 43.53125 35.828125 
Q 39.65625 40.375 33.015625 40.375 
z
M 52.59375 71.296875 
L 52.59375 62.3125 
Q 48.875 64.0625 45.09375 64.984375 
Q 41.3125 65.921875 37.59375 65.921875 
Q 27.828125 65.921875 22.671875 59.328125 
Q 17.53125 52.734375 16.796875 39.40625 
Q 19.671875 43.65625 24.015625 45.921875 
Q 28.375 48.1875 33.59375 48.1875 
Q 44.578125 48.1875 50.953125 41.515625 
Q 57.328125 34.859375 57.328125 23.390625 
Q 57.328125 12.15625 50.6875 5.359375 
Q 44.046875 -1.421875 33.015625 -1.421875 
Q 20.359375 -1.421875 13.671875 8.265625 
Q 6.984375 17.96875 6.984375 36.375 
Q 6.984375 53.65625 15.1875 63.9375 
Q 23.390625 74.21875 37.203125 74.21875 
Q 40.921875 74.21875 44.703125 73.484375 
Q 48.484375 72.75 52.59375 71.296875 
z
" id="DejaVuSans-54"/>
      </defs>
      <g transform="translate(71.300566 160.33374)rotate(-90)scale(0.08 -0.08)">
       <use xlink:href="#DejaVuSans-49"/>
       <use x="63.623047" xlink:href="#DejaVuSans-54"/>
       <use x="127.246094" xlink:href="#DejaVuSans-32"/>
       <use x="159.033203" xlink:href="#DejaVuSans-70"/>
       <use x="211.052734" xlink:href="#DejaVuSans-101"/>
       <use x="272.576172" xlink:href="#DejaVuSans-98"/>
      </g>
     </g>
    </g>
   </g>
   <g id="matplotlib.axis_2">
    <g id="ytick_1">
     <g id="line2d_11">
      <defs>
       <path d="M 0 0 
L -3.5 0 
" id="m4e0a7eaa76" style="stroke:#000000;stroke-width:0.8;"/>
      </defs>
      <g>
       <use style="stroke:#000000;stroke-width:0.8;" x="57.17" xlink:href="#m4e0a7eaa76" y="126.44874"/>
      </g>
     </g>
     <g id="text_11">
      <!-- 0 -->
      <defs>
       <path d="M 31.78125 66.40625 
Q 24.171875 66.40625 20.328125 58.90625 
Q 16.5 51.421875 16.5 36.375 
Q 16.5 21.390625 20.328125 13.890625 
Q 24.171875 6.390625 31.78125 6.390625 
Q 39.453125 6.390625 43.28125 13.890625 
Q 47.125 21.390625 47.125 36.375 
Q 47.125 51.421875 43.28125 58.90625 
Q 39.453125 66.40625 31.78125 66.40625 
z
M 31.78125 74.21875 
Q 44.046875 74.21875 50.515625 64.515625 
Q 56.984375 54.828125 56.984375 36.375 
Q 56.984375 17.96875 50.515625 8.265625 
Q 44.046875 -1.421875 31.78125 -1.421875 
Q 19.53125 -1.421875 13.0625 8.265625 
Q 6.59375 17.96875 6.59375 36.375 
Q 6.59375 54.828125 13.0625 64.515625 
Q 19.53125 74.21875 31.78125 74.21875 
z
" id="DejaVuSans-48"/>
      </defs>
      <g transform="translate(45.08 129.488115)scale(0.08 -0.08)">
       <use xlink:href="#DejaVuSans-48"/>
      </g>
     </g>
    </g>
    <g id="ytick_2">
     <g id="line2d_12">
      <g>
       <use style="stroke:#000000;stroke-width:0.8;" x="57.17" xlink:href="#m4e0a7eaa76" y="108.112427"/>
      </g>
     </g>
     <g id="text_12">
      <!-- 100000 -->
      <g transform="translate(19.63 111.151802)scale(0.08 -0.08)">
       <use xlink:href="#DejaVuSans-49"/>
       <use x="63.623047" xlink:href="#DejaVuSans-48"/>
       <use x="127.246094" xlink:href="#DejaVuSans-48"/>
       <use x="190.869141" xlink:href="#DejaVuSans-48"/>
       <use x="254.492188" xlink:href="#DejaVuSans-48"/>
       <use x="318.115234" xlink:href="#DejaVuSans-48"/>
      </g>
     </g>
    </g>
    <g id="ytick_3">
     <g id="line2d_13">
      <g>
       <use style="stroke:#000000;stroke-width:0.8;" x="57.17" xlink:href="#m4e0a7eaa76" y="89.776113"/>
      </g>
     </g>
     <g id="text_13">
      <!-- 200000 -->
      <g transform="translate(19.63 92.815488)scale(0.08 -0.08)">
       <use xlink:href="#DejaVuSans-50"/>
       <use x="63.623047" xlink:href="#DejaVuSans-48"/>
       <use x="127.246094" xlink:href="#DejaVuSans-48"/>
       <use x="190.869141" xlink:href="#DejaVuSans-48"/>
       <use x="254.492188" xlink:href="#DejaVuSans-48"/>
       <use x="318.115234" xlink:href="#DejaVuSans-48"/>
      </g>
     </g>
    </g>
    <g id="ytick_4">
     <g id="line2d_14">
      <g>
       <use style="stroke:#000000;stroke-width:0.8;" x="57.17" xlink:href="#m4e0a7eaa76" y="71.4398"/>
      </g>
     </g>
     <g id="text_14">
      <!-- 300000 -->
      <g transform="translate(19.63 74.479175)scale(0.08 -0.08)">
       <use xlink:href="#DejaVuSans-51"/>
       <use x="63.623047" xlink:href="#DejaVuSans-48"/>
       <use x="127.246094" xlink:href="#DejaVuSans-48"/>
       <use x="190.869141" xlink:href="#DejaVuSans-48"/>
       <use x="254.492188" xlink:href="#DejaVuSans-48"/>
       <use x="318.115234" xlink:href="#DejaVuSans-48"/>
      </g>
     </g>
    </g>
    <g id="ytick_5">
     <g id="line2d_15">
      <g>
       <use style="stroke:#000000;stroke-width:0.8;" x="57.17" xlink:href="#m4e0a7eaa76" y="53.103486"/>
      </g>
     </g>
     <g id="text_15">
      <!-- 400000 -->
      <defs>
       <path d="M 37.796875 64.3125 
L 12.890625 25.390625 
L 37.796875 25.390625 
z
M 35.203125 72.90625 
L 47.609375 72.90625 
L 47.609375 25.390625 
L 58.015625 25.390625 
L 58.015625 17.1875 
L 47.609375 17.1875 
L 47.609375 0 
L 37.796875 0 
L 37.796875 17.1875 
L 4.890625 17.1875 
L 4.890625 26.703125 
z
" id="DejaVuSans-52"/>
      </defs>
      <g transform="translate(19.63 56.142861)scale(0.08 -0.08)">
       <use xlink:href="#DejaVuSans-52"/>
       <use x="63.623047" xlink:href="#DejaVuSans-48"/>
       <use x="127.246094" xlink:href="#DejaVuSans-48"/>
       <use x="190.869141" xlink:href="#DejaVuSans-48"/>
       <use x="254.492188" xlink:href="#DejaVuSans-48"/>
       <use x="318.115234" xlink:href="#DejaVuSans-48"/>
      </g>
     </g>
    </g>
    <g id="ytick_6">
     <g id="line2d_16">
      <g>
       <use style="stroke:#000000;stroke-width:0.8;" x="57.17" xlink:href="#m4e0a7eaa76" y="34.767173"/>
      </g>
     </g>
     <g id="text_16">
      <!-- 500000 -->
      <g transform="translate(19.63 37.806548)scale(0.08 -0.08)">
       <use xlink:href="#DejaVuSans-53"/>
       <use x="63.623047" xlink:href="#DejaVuSans-48"/>
       <use x="127.246094" xlink:href="#DejaVuSans-48"/>
       <use x="190.869141" xlink:href="#DejaVuSans-48"/>
       <use x="254.492188" xlink:href="#DejaVuSans-48"/>
       <use x="318.115234" xlink:href="#DejaVuSans-48"/>
      </g>
     </g>
    </g>
    <g id="ytick_7">
     <g id="line2d_17">
      <g>
       <use style="stroke:#000000;stroke-width:0.8;" x="57.17" xlink:href="#m4e0a7eaa76" y="16.430859"/>
      </g>
     </g>
     <g id="text_17">
      <!-- 600000 -->
      <g transform="translate(19.63 19.470234)scale(0.08 -0.08)">
       <use xlink:href="#DejaVuSans-54"/>
       <use x="63.623047" xlink:href="#DejaVuSans-48"/>
       <use x="127.246094" xlink:href="#DejaVuSans-48"/>
       <use x="190.869141" xlink:href="#DejaVuSans-48"/>
       <use x="254.492188" xlink:href="#DejaVuSans-48"/>
       <use x="318.115234" xlink:href="#DejaVuSans-48"/>
      </g>
     </g>
    </g>
    <g id="text_18">
     <!-- Cumulative cases -->
     <defs>
      <path d="M 64.40625 67.28125 
L 64.40625 56.890625 
Q 59.421875 61.53125 53.78125 63.8125 
Q 48.140625 66.109375 41.796875 66.109375 
Q 29.296875 66.109375 22.65625 58.46875 
Q 16.015625 50.828125 16.015625 36.375 
Q 16.015625 21.96875 22.65625 14.328125 
Q 29.296875 6.6875 41.796875 6.6875 
Q 48.140625 6.6875 53.78125 8.984375 
Q 59.421875 11.28125 64.40625 15.921875 
L 64.40625 5.609375 
Q 59.234375 2.09375 53.4375 0.328125 
Q 47.65625 -1.421875 41.21875 -1.421875 
Q 24.65625 -1.421875 15.125 8.703125 
Q 5.609375 18.84375 5.609375 36.375 
Q 5.609375 53.953125 15.125 64.078125 
Q 24.65625 74.21875 41.21875 74.21875 
Q 47.75 74.21875 53.53125 72.484375 
Q 59.328125 70.75 64.40625 67.28125 
z
" id="DejaVuSans-67"/>
      <path d="M 8.5 21.578125 
L 8.5 54.6875 
L 17.484375 54.6875 
L 17.484375 21.921875 
Q 17.484375 14.15625 20.5 10.265625 
Q 23.53125 6.390625 29.59375 6.390625 
Q 36.859375 6.390625 41.078125 11.03125 
Q 45.3125 15.671875 45.3125 23.6875 
L 45.3125 54.6875 
L 54.296875 54.6875 
L 54.296875 0 
L 45.3125 0 
L 45.3125 8.40625 
Q 42.046875 3.421875 37.71875 1 
Q 33.40625 -1.421875 27.6875 -1.421875 
Q 18.265625 -1.421875 13.375 4.4375 
Q 8.5 10.296875 8.5 21.578125 
z
M 31.109375 56 
z
" id="DejaVuSans-117"/>
      <path d="M 52 44.1875 
Q 55.375 50.25 60.0625 53.125 
Q 64.75 56 71.09375 56 
Q 79.640625 56 84.28125 50.015625 
Q 88.921875 44.046875 88.921875 33.015625 
L 88.921875 0 
L 79.890625 0 
L 79.890625 32.71875 
Q 79.890625 40.578125 77.09375 44.375 
Q 74.3125 48.1875 68.609375 48.1875 
Q 61.625 48.1875 57.5625 43.546875 
Q 53.515625 38.921875 53.515625 30.90625 
L 53.515625 0 
L 44.484375 0 
L 44.484375 32.71875 
Q 44.484375 40.625 41.703125 44.40625 
Q 38.921875 48.1875 33.109375 48.1875 
Q 26.21875 48.1875 22.15625 43.53125 
Q 18.109375 38.875 18.109375 30.90625 
L 18.109375 0 
L 9.078125 0 
L 9.078125 54.6875 
L 18.109375 54.6875 
L 18.109375 46.1875 
Q 21.1875 51.21875 25.484375 53.609375 
Q 29.78125 56 35.6875 56 
Q 41.65625 56 45.828125 52.96875 
Q 50 49.953125 52 44.1875 
z
" id="DejaVuSans-109"/>
      <path d="M 9.421875 75.984375 
L 18.40625 75.984375 
L 18.40625 0 
L 9.421875 0 
z
" id="DejaVuSans-108"/>
      <path d="M 18.3125 70.21875 
L 18.3125 54.6875 
L 36.8125 54.6875 
L 36.8125 47.703125 
L 18.3125 47.703125 
L 18.3125 18.015625 
Q 18.3125 11.328125 20.140625 9.421875 
Q 21.96875 7.515625 27.59375 7.515625 
L 36.8125 7.515625 
L 36.8125 0 
L 27.59375 0 
Q 17.1875 0 13.234375 3.875 
Q 9.28125 7.765625 9.28125 18.015625 
L 9.28125 47.703125 
L 2.6875 47.703125 
L 2.6875 54.6875 
L 9.28125 54.6875 
L 9.28125 70.21875 
z
" id="DejaVuSans-116"/>
      <path d="M 9.421875 54.6875 
L 18.40625 54.6875 
L 18.40625 0 
L 9.421875 0 
z
M 9.421875 75.984375 
L 18.40625 75.984375 
L 18.40625 64.59375 
L 9.421875 64.59375 
z
" id="DejaVuSans-105"/>
      <path d="M 2.984375 54.6875 
L 12.5 54.6875 
L 29.59375 8.796875 
L 46.6875 54.6875 
L 56.203125 54.6875 
L 35.6875 0 
L 23.484375 0 
z
" id="DejaVuSans-118"/>
      <path d="M 48.78125 52.59375 
L 48.78125 44.1875 
Q 44.96875 46.296875 41.140625 47.34375 
Q 37.3125 48.390625 33.40625 48.390625 
Q 24.65625 48.390625 19.8125 42.84375 
Q 14.984375 37.3125 14.984375 27.296875 
Q 14.984375 17.28125 19.8125 11.734375 
Q 24.65625 6.203125 33.40625 6.203125 
Q 37.3125 6.203125 41.140625 7.25 
Q 44.96875 8.296875 48.78125 10.40625 
L 48.78125 2.09375 
Q 45.015625 0.34375 40.984375 -0.53125 
Q 36.96875 -1.421875 32.421875 -1.421875 
Q 20.0625 -1.421875 12.78125 6.34375 
Q 5.515625 14.109375 5.515625 27.296875 
Q 5.515625 40.671875 12.859375 48.328125 
Q 20.21875 56 33.015625 56 
Q 37.15625 56 41.109375 55.140625 
Q 45.0625 54.296875 48.78125 52.59375 
z
" id="DejaVuSans-99"/>
      <path d="M 44.28125 53.078125 
L 44.28125 44.578125 
Q 40.484375 46.53125 36.375 47.5 
Q 32.28125 48.484375 27.875 48.484375 
Q 21.1875 48.484375 17.84375 46.4375 
Q 14.5 44.390625 14.5 40.28125 
Q 14.5 37.15625 16.890625 35.375 
Q 19.28125 33.59375 26.515625 31.984375 
L 29.59375 31.296875 
Q 39.15625 29.25 43.1875 25.515625 
Q 47.21875 21.78125 47.21875 15.09375 
Q 47.21875 7.46875 41.1875 3.015625 
Q 35.15625 -1.421875 24.609375 -1.421875 
Q 20.21875 -1.421875 15.453125 -0.5625 
Q 10.6875 0.296875 5.421875 2 
L 5.421875 11.28125 
Q 10.40625 8.6875 15.234375 7.390625 
Q 20.0625 6.109375 24.8125 6.109375 
Q 31.15625 6.109375 34.5625 8.28125 
Q 37.984375 10.453125 37.984375 14.40625 
Q 37.984375 18.0625 35.515625 20.015625 
Q 33.0625 21.96875 24.703125 23.78125 
L 21.578125 24.515625 
Q 13.234375 26.265625 9.515625 29.90625 
Q 5.8125 33.546875 5.8125 39.890625 
Q 5.8125 47.609375 11.28125 51.796875 
Q 16.75 56 26.8125 56 
Q 31.78125 56 36.171875 55.265625 
Q 40.578125 54.546875 44.28125 53.078125 
z
" id="DejaVuSans-115"/>
     </defs>
     <g transform="translate(13.96625 104.364995)rotate(-90)scale(0.08 -0.08)">
      <use xlink:href="#DejaVuSans-67"/>
      <use x="69.824219" xlink:href="#DejaVuSans-117"/>
      <use x="133.203125" xlink:href="#DejaVuSans-109"/>
      <use x="230.615234" xlink:href="#DejaVuSans-117"/>
      <use x="293.994141" xlink:href="#DejaVuSans-108"/>
      <use x="321.777344" xlink:href="#DejaVuSans-97"/>
      <use x="383.056641" xlink:href="#DejaVuSans-116"/>
      <use x="422.265625" xlink:href="#DejaVuSans-105"/>
      <use x="450.048828" xlink:href="#DejaVuSans-118"/>
      <use x="509.228516" xlink:href="#DejaVuSans-101"/>
      <use x="570.751953" xlink:href="#DejaVuSans-32"/>
      <use x="602.539062" xlink:href="#DejaVuSans-99"/>
      <use x="657.519531" xlink:href="#DejaVuSans-97"/>
      <use x="718.798828" xlink:href="#DejaVuSans-115"/>
      <use x="770.898438" xlink:href="#DejaVuSans-101"/>
      <use x="832.421875" xlink:href="#DejaVuSans-115"/>
     </g>
    </g>
   </g>
   <g id="line2d_18">
    <path clip-path="url(#p9ddd345dfb)" d="M 64.902182 126.445389 
L 66.997624 126.442037 
L 69.093066 126.438686 
L 71.188509 126.435334 
L 73.283951 126.431983 
L 75.379393 126.428631 
L 77.474835 126.42382 
L 79.570278 126.418117 
L 81.66572 126.410971 
L 83.761162 126.395157 
L 85.856604 126.383657 
L 87.952047 126.367322 
L 90.047489 126.350772 
L 92.142931 126.329611 
L 94.238373 126.296806 
L 96.333816 126.262222 
L 98.429258 126.212213 
L 100.5247 126.167358 
L 102.620142 126.100624 
L 104.715585 126.027054 
L 106.811027 125.952752 
L 108.906469 125.846227 
L 111.001911 125.715048 
L 113.097354 125.524101 
L 115.192796 125.350641 
L 117.288238 125.138245 
L 119.38368 124.851758 
L 121.479123 124.4349 
L 123.574565 123.556908 
L 125.670007 122.823711 
L 127.765449 122.107373 
L 129.860892 120.1269 
L 131.956334 119.053967 
L 134.051776 117.870415 
L 136.147218 116.701878 
L 138.242661 115.044076 
L 140.338103 114.140804 
L 142.433545 113.650862 
L 144.528988 112.355855 
L 146.62443 111.000647 
L 148.719872 109.612031 
L 150.815314 108.13239 
L 152.910757 106.317131 
L 155.006199 104.689797 
L 157.101641 104.021947 
" style="fill:none;stroke:#0000ff;stroke-linecap:square;stroke-opacity:0.5;"/>
   </g>
   <g id="line2d_19">
    <path clip-path="url(#p9ddd345dfb)" d="M 159.197083 103.312375 
L 161.292526 102.58763 
L 163.387968 101.86861 
L 165.48341 101.166982 
L 167.578852 100.487517 
L 169.674295 99.830802 
L 171.769737 99.195196 
L 173.865179 98.57801 
L 175.960621 97.97615 
L 178.056064 97.386425 
L 180.151506 96.805679 
L 182.246948 96.230825 
L 184.34239 95.658844 
L 186.437833 95.08676 
L 188.533275 94.51161 
L 190.628717 93.930407 
L 192.724159 93.340111 
L 194.819602 92.737592 
L 196.915044 92.119594 
L 199.010486 91.482704 
L 201.105928 90.82331 
" style="fill:none;stroke:#008000;stroke-linecap:square;stroke-opacity:0.5;"/>
   </g>
   <g id="line2d_20">
    <path clip-path="url(#p9ddd345dfb)" d="M 123.574565 126.44874 
L 123.574565 11.52 
" style="fill:none;stroke:#0000ff;stroke-dasharray:1.85,0.8;stroke-dashoffset:0;stroke-width:0.5;"/>
   </g>
   <g id="line2d_21">
    <path clip-path="url(#p9ddd345dfb)" d="M 125.670007 126.44874 
L 125.670007 11.52 
" style="fill:none;stroke:#0000ff;stroke-dasharray:1.85,0.8;stroke-dashoffset:0;stroke-width:0.5;"/>
   </g>
   <g id="line2d_22">
    <path clip-path="url(#p9ddd345dfb)" d="M 138.242661 126.44874 
L 138.242661 11.52 
" style="fill:none;stroke:#0000ff;stroke-dasharray:1.85,0.8;stroke-dashoffset:0;stroke-width:0.5;"/>
   </g>
   <g id="line2d_23">
    <path clip-path="url(#p9ddd345dfb)" d="M 129.860892 126.44874 
L 129.860892 11.52 
" style="fill:none;stroke:#0000ff;stroke-dasharray:1.85,0.8;stroke-dashoffset:0;stroke-width:0.5;"/>
   </g>
   <g id="line2d_24">
    <path clip-path="url(#p9ddd345dfb)" d="M 100.5247 126.44874 
L 100.5247 11.52 
" style="fill:none;stroke:#0000ff;stroke-dasharray:1.85,0.8;stroke-dashoffset:0;stroke-width:0.5;"/>
   </g>
   <g id="patch_69">
    <path d="M 57.17 126.44874 
L 57.17 11.52 
" style="fill:none;stroke:#000000;stroke-linecap:square;stroke-linejoin:miter;stroke-width:0.8;"/>
   </g>
   <g id="patch_70">
    <path d="M 208.83811 126.44874 
L 208.83811 11.52 
" style="fill:none;stroke:#000000;stroke-linecap:square;stroke-linejoin:miter;stroke-width:0.8;"/>
   </g>
   <g id="patch_71">
    <path d="M 57.17 126.44874 
L 208.83811 126.44874 
" style="fill:none;stroke:#000000;stroke-linecap:square;stroke-linejoin:miter;stroke-width:0.8;"/>
   </g>
   <g id="patch_72">
    <path d="M 57.17 11.52 
L 208.83811 11.52 
" style="fill:none;stroke:#000000;stroke-linecap:square;stroke-linejoin:miter;stroke-width:0.8;"/>
   </g>
   <g id="legend_1">
    <g id="line2d_25">
     <path d="M 64.37 103.04249 
L 80.37 103.04249 
" style="fill:none;stroke:#0000ff;stroke-linecap:square;stroke-opacity:0.5;"/>
    </g>
    <g id="line2d_26"/>
    <g id="text_19">
     <!-- Simulation -->
     <defs>
      <path d="M 53.515625 70.515625 
L 53.515625 60.890625 
Q 47.90625 63.578125 42.921875 64.890625 
Q 37.9375 66.21875 33.296875 66.21875 
Q 25.25 66.21875 20.875 63.09375 
Q 16.5 59.96875 16.5 54.203125 
Q 16.5 49.359375 19.40625 46.890625 
Q 22.3125 44.4375 30.421875 42.921875 
L 36.375 41.703125 
Q 47.40625 39.59375 52.65625 34.296875 
Q 57.90625 29 57.90625 20.125 
Q 57.90625 9.515625 50.796875 4.046875 
Q 43.703125 -1.421875 29.984375 -1.421875 
Q 24.8125 -1.421875 18.96875 -0.25 
Q 13.140625 0.921875 6.890625 3.21875 
L 6.890625 13.375 
Q 12.890625 10.015625 18.65625 8.296875 
Q 24.421875 6.59375 29.984375 6.59375 
Q 38.421875 6.59375 43.015625 9.90625 
Q 47.609375 13.234375 47.609375 19.390625 
Q 47.609375 24.75 44.3125 27.78125 
Q 41.015625 30.8125 33.5 32.328125 
L 27.484375 33.5 
Q 16.453125 35.6875 11.515625 40.375 
Q 6.59375 45.0625 6.59375 53.421875 
Q 6.59375 63.09375 13.40625 68.65625 
Q 20.21875 74.21875 32.171875 74.21875 
Q 37.3125 74.21875 42.625 73.28125 
Q 47.953125 72.359375 53.515625 70.515625 
z
" id="DejaVuSans-83"/>
      <path d="M 30.609375 48.390625 
Q 23.390625 48.390625 19.1875 42.75 
Q 14.984375 37.109375 14.984375 27.296875 
Q 14.984375 17.484375 19.15625 11.84375 
Q 23.34375 6.203125 30.609375 6.203125 
Q 37.796875 6.203125 41.984375 11.859375 
Q 46.1875 17.53125 46.1875 27.296875 
Q 46.1875 37.015625 41.984375 42.703125 
Q 37.796875 48.390625 30.609375 48.390625 
z
M 30.609375 56 
Q 42.328125 56 49.015625 48.375 
Q 55.71875 40.765625 55.71875 27.296875 
Q 55.71875 13.875 49.015625 6.21875 
Q 42.328125 -1.421875 30.609375 -1.421875 
Q 18.84375 -1.421875 12.171875 6.21875 
Q 5.515625 13.875 5.515625 27.296875 
Q 5.515625 40.765625 12.171875 48.375 
Q 18.84375 56 30.609375 56 
z
" id="DejaVuSans-111"/>
      <path d="M 54.890625 33.015625 
L 54.890625 0 
L 45.90625 0 
L 45.90625 32.71875 
Q 45.90625 40.484375 42.875 44.328125 
Q 39.84375 48.1875 33.796875 48.1875 
Q 26.515625 48.1875 22.3125 43.546875 
Q 18.109375 38.921875 18.109375 30.90625 
L 18.109375 0 
L 9.078125 0 
L 9.078125 54.6875 
L 18.109375 54.6875 
L 18.109375 46.1875 
Q 21.34375 51.125 25.703125 53.5625 
Q 30.078125 56 35.796875 56 
Q 45.21875 56 50.046875 50.171875 
Q 54.890625 44.34375 54.890625 33.015625 
z
" id="DejaVuSans-110"/>
     </defs>
     <g transform="translate(86.77 105.84249)scale(0.08 -0.08)">
      <use xlink:href="#DejaVuSans-83"/>
      <use x="63.476562" xlink:href="#DejaVuSans-105"/>
      <use x="91.259766" xlink:href="#DejaVuSans-109"/>
      <use x="188.671875" xlink:href="#DejaVuSans-117"/>
      <use x="252.050781" xlink:href="#DejaVuSans-108"/>
      <use x="279.833984" xlink:href="#DejaVuSans-97"/>
      <use x="341.113281" xlink:href="#DejaVuSans-116"/>
      <use x="380.322266" xlink:href="#DejaVuSans-105"/>
      <use x="408.105469" xlink:href="#DejaVuSans-111"/>
      <use x="469.287109" xlink:href="#DejaVuSans-110"/>
     </g>
    </g>
    <g id="line2d_27">
     <path d="M 64.37 114.78499 
L 80.37 114.78499 
" style="fill:none;stroke:#008000;stroke-linecap:square;stroke-opacity:0.5;"/>
    </g>
    <g id="line2d_28"/>
    <g id="text_20">
     <!-- Forecast -->
     <g transform="translate(86.77 117.58499)scale(0.08 -0.08)">
      <use xlink:href="#DejaVuSans-70"/>
      <use x="53.894531" xlink:href="#DejaVuSans-111"/>
      <use x="115.076172" xlink:href="#DejaVuSans-114"/>
      <use x="153.939453" xlink:href="#DejaVuSans-101"/>
      <use x="215.462891" xlink:href="#DejaVuSans-99"/>
      <use x="270.443359" xlink:href="#DejaVuSans-97"/>
      <use x="331.722656" xlink:href="#DejaVuSans-115"/>
      <use x="383.822266" xlink:href="#DejaVuSans-116"/>
     </g>
    </g>
   </g>
  </g>
  <g id="axes_2">
   <g id="matplotlib.axis_3">
    <g id="ytick_8">
     <g id="line2d_29">
      <defs>
       <path d="M 0 0 
L 3.5 0 
" id="md9e8c1e15c" style="stroke:#000000;stroke-width:0.8;"/>
      </defs>
      <g>
       <use style="stroke:#000000;stroke-width:0.8;" x="208.83811" xlink:href="#md9e8c1e15c" y="126.44874"/>
      </g>
     </g>
     <g id="text_21">
      <!-- 1.0 -->
      <defs>
       <path d="M 10.59375 35.5 
L 73.1875 35.5 
L 73.1875 27.203125 
L 10.59375 27.203125 
z
" id="DejaVuSans-8722"/>
       <path d="M 10.6875 12.40625 
L 21 12.40625 
L 21 0 
L 10.6875 0 
z
" id="DejaVuSans-46"/>
      </defs>
      <g transform="translate(215.83811 129.488115)scale(0.08 -0.08)">
       <use xlink:href="#DejaVuSans-8722"/>
       <use x="83.789062" xlink:href="#DejaVuSans-49"/>
       <use x="147.412109" xlink:href="#DejaVuSans-46"/>
       <use x="179.199219" xlink:href="#DejaVuSans-48"/>
      </g>
     </g>
    </g>
    <g id="ytick_9">
     <g id="line2d_30">
      <g>
       <use style="stroke:#000000;stroke-width:0.8;" x="208.83811" xlink:href="#md9e8c1e15c" y="85.402762"/>
      </g>
     </g>
     <g id="text_22">
      <!-- 0.5 -->
      <g transform="translate(215.83811 88.442137)scale(0.08 -0.08)">
       <use xlink:href="#DejaVuSans-8722"/>
       <use x="83.789062" xlink:href="#DejaVuSans-48"/>
       <use x="147.412109" xlink:href="#DejaVuSans-46"/>
       <use x="179.199219" xlink:href="#DejaVuSans-53"/>
      </g>
     </g>
    </g>
    <g id="ytick_10">
     <g id="line2d_31">
      <g>
       <use style="stroke:#000000;stroke-width:0.8;" x="208.83811" xlink:href="#md9e8c1e15c" y="44.356783"/>
      </g>
     </g>
     <g id="text_23">
      <!-- 0.0 -->
      <g transform="translate(215.83811 47.396158)scale(0.08 -0.08)">
       <use xlink:href="#DejaVuSans-48"/>
       <use x="63.623047" xlink:href="#DejaVuSans-46"/>
       <use x="95.410156" xlink:href="#DejaVuSans-48"/>
      </g>
     </g>
    </g>
    <g id="ytick_11">
     <g id="line2d_32">
      <g>
       <use style="stroke:#000000;stroke-width:0.8;" x="208.83811" xlink:href="#md9e8c1e15c" y="11.52"/>
      </g>
     </g>
     <g id="text_24">
      <!-- 0.4 -->
      <g transform="translate(215.83811 14.559375)scale(0.08 -0.08)">
       <use xlink:href="#DejaVuSans-48"/>
       <use x="63.623047" xlink:href="#DejaVuSans-46"/>
       <use x="95.410156" xlink:href="#DejaVuSans-52"/>
      </g>
     </g>
    </g>
    <g id="text_25">
     <!-- Relative change -->
     <defs>
      <path d="M 44.390625 34.1875 
Q 47.5625 33.109375 50.5625 29.59375 
Q 53.5625 26.078125 56.59375 19.921875 
L 66.609375 0 
L 56 0 
L 46.6875 18.703125 
Q 43.0625 26.03125 39.671875 28.421875 
Q 36.28125 30.8125 30.421875 30.8125 
L 19.671875 30.8125 
L 19.671875 0 
L 9.8125 0 
L 9.8125 72.90625 
L 32.078125 72.90625 
Q 44.578125 72.90625 50.734375 67.671875 
Q 56.890625 62.453125 56.890625 51.90625 
Q 56.890625 45.015625 53.6875 40.46875 
Q 50.484375 35.9375 44.390625 34.1875 
z
M 19.671875 64.796875 
L 19.671875 38.921875 
L 32.078125 38.921875 
Q 39.203125 38.921875 42.84375 42.21875 
Q 46.484375 45.515625 46.484375 51.90625 
Q 46.484375 58.296875 42.84375 61.546875 
Q 39.203125 64.796875 32.078125 64.796875 
z
" id="DejaVuSans-82"/>
      <path d="M 54.890625 33.015625 
L 54.890625 0 
L 45.90625 0 
L 45.90625 32.71875 
Q 45.90625 40.484375 42.875 44.328125 
Q 39.84375 48.1875 33.796875 48.1875 
Q 26.515625 48.1875 22.3125 43.546875 
Q 18.109375 38.921875 18.109375 30.90625 
L 18.109375 0 
L 9.078125 0 
L 9.078125 75.984375 
L 18.109375 75.984375 
L 18.109375 46.1875 
Q 21.34375 51.125 25.703125 53.5625 
Q 30.078125 56 35.796875 56 
Q 45.21875 56 50.046875 50.171875 
Q 54.890625 44.34375 54.890625 33.015625 
z
" id="DejaVuSans-104"/>
      <path d="M 45.40625 27.984375 
Q 45.40625 37.75 41.375 43.109375 
Q 37.359375 48.484375 30.078125 48.484375 
Q 22.859375 48.484375 18.828125 43.109375 
Q 14.796875 37.75 14.796875 27.984375 
Q 14.796875 18.265625 18.828125 12.890625 
Q 22.859375 7.515625 30.078125 7.515625 
Q 37.359375 7.515625 41.375 12.890625 
Q 45.40625 18.265625 45.40625 27.984375 
z
M 54.390625 6.78125 
Q 54.390625 -7.171875 48.1875 -13.984375 
Q 42 -20.796875 29.203125 -20.796875 
Q 24.46875 -20.796875 20.265625 -20.09375 
Q 16.0625 -19.390625 12.109375 -17.921875 
L 12.109375 -9.1875 
Q 16.0625 -11.328125 19.921875 -12.34375 
Q 23.78125 -13.375 27.78125 -13.375 
Q 36.625 -13.375 41.015625 -8.765625 
Q 45.40625 -4.15625 45.40625 5.171875 
L 45.40625 9.625 
Q 42.625 4.78125 38.28125 2.390625 
Q 33.9375 0 27.875 0 
Q 17.828125 0 11.671875 7.65625 
Q 5.515625 15.328125 5.515625 27.984375 
Q 5.515625 40.671875 11.671875 48.328125 
Q 17.828125 56 27.875 56 
Q 33.9375 56 38.28125 53.609375 
Q 42.625 51.21875 45.40625 46.390625 
L 45.40625 54.6875 
L 54.390625 54.6875 
z
" id="DejaVuSans-103"/>
     </defs>
     <g transform="translate(245.34311 101.10812)rotate(-90)scale(0.08 -0.08)">
      <use xlink:href="#DejaVuSans-82"/>
      <use x="64.982422" xlink:href="#DejaVuSans-101"/>
      <use x="126.505859" xlink:href="#DejaVuSans-108"/>
      <use x="154.289062" xlink:href="#DejaVuSans-97"/>
      <use x="215.568359" xlink:href="#DejaVuSans-116"/>
      <use x="254.777344" xlink:href="#DejaVuSans-105"/>
      <use x="282.560547" xlink:href="#DejaVuSans-118"/>
      <use x="341.740234" xlink:href="#DejaVuSans-101"/>
      <use x="403.263672" xlink:href="#DejaVuSans-32"/>
      <use x="435.050781" xlink:href="#DejaVuSans-99"/>
      <use x="490.03125" xlink:href="#DejaVuSans-104"/>
      <use x="553.410156" xlink:href="#DejaVuSans-97"/>
      <use x="614.689453" xlink:href="#DejaVuSans-110"/>
      <use x="678.068359" xlink:href="#DejaVuSans-103"/>
      <use x="741.544922" xlink:href="#DejaVuSans-101"/>
     </g>
    </g>
   </g>
   <g id="line2d_33">
    <path clip-path="url(#p9ddd345dfb)" d="M 64.902182 44.356783 
L 66.997624 45.177702 
L 69.093066 36.147587 
L 71.188509 46.819542 
L 73.283951 41.894024 
L 75.379393 47.640461 
L 77.474835 42.714944 
L 79.570278 45.177702 
L 81.66572 43.535863 
L 83.761162 32.863909 
L 85.856604 39.431265 
L 87.952047 41.073105 
L 90.047489 48.461381 
L 92.142931 48.461381 
L 94.238373 45.177702 
L 96.333816 49.2823 
L 98.429258 41.894024 
L 100.5247 50.10322 
L 102.620142 45.177702 
L 104.715585 46.819542 
L 106.811027 53.386898 
L 108.906469 49.2823 
L 111.001911 47.640461 
L 113.097354 39.431265 
L 115.192796 50.924139 
L 117.288238 52.565979 
L 119.38368 50.10322 
L 121.479123 53.386898 
L 123.574565 55.028737 
L 125.670007 64.879772 
L 127.765449 66.521611 
L 129.860892 58.312416 
L 131.956334 91.149199 
L 134.051776 95.253796 
L 136.147218 97.716555 
L 138.242661 99.358394 
L 140.338103 108.38851 
L 142.433545 111.672188 
L 144.528988 100.179314 
L 146.62443 101.000233 
L 148.719872 101.821153 
L 150.815314 101.821153 
L 152.910757 101.000233 
L 155.006199 104.283912 
L 157.101641 110.851268 
" style="fill:none;stroke:#d62728;stroke-linecap:square;stroke-opacity:0.5;"/>
   </g>
   <g id="line2d_34">
    <path clip-path="url(#p9ddd345dfb)" d="M 64.902182 44.356783 
L 66.997624 45.177702 
L 69.093066 34.505748 
L 71.188509 47.640461 
L 73.283951 43.535863 
L 75.379393 47.640461 
L 77.474835 45.177702 
L 79.570278 45.177702 
L 81.66572 44.356783 
L 83.761162 29.580231 
L 85.856604 41.894024 
L 87.952047 39.431265 
L 90.047489 44.356783 
L 92.142931 43.535863 
L 94.238373 37.789426 
L 96.333816 41.073105 
L 98.429258 37.789426 
L 100.5247 45.177702 
L 102.620142 41.073105 
L 104.715585 43.535863 
L 106.811027 47.640461 
L 108.906469 43.535863 
L 111.001911 42.714944 
L 113.097354 38.610346 
L 115.192796 45.177702 
L 117.288238 45.177702 
L 119.38368 42.714944 
L 121.479123 37.789426 
L 123.574565 24.654713 
L 125.670007 34.505748 
L 127.765449 42.714944 
L 129.860892 24.654713 
L 131.956334 43.535863 
L 134.051776 47.640461 
L 136.147218 52.565979 
L 138.242661 47.640461 
L 140.338103 65.700692 
L 142.433545 84.581842 
L 144.528988 60.775174 
L 146.62443 59.954255 
L 148.719872 59.954255 
L 150.815314 59.133335 
L 152.910757 55.028737 
L 155.006199 59.954255 
L 157.101641 86.223681 
" style="fill:none;stroke:#9467bd;stroke-linecap:square;stroke-opacity:0.5;"/>
   </g>
   <g id="line2d_35">
    <path clip-path="url(#p9ddd345dfb)" d="M 64.902182 44.356783 
L 66.997624 39.431265 
L 69.093066 37.789426 
L 71.188509 45.998622 
L 73.283951 41.894024 
L 75.379393 47.640461 
L 77.474835 40.252185 
L 79.570278 43.535863 
L 81.66572 32.863909 
L 83.761162 33.684828 
L 85.856604 38.610346 
L 87.952047 41.894024 
L 90.047489 48.461381 
L 92.142931 48.461381 
L 94.238373 45.177702 
L 96.333816 50.10322 
L 98.429258 42.714944 
L 100.5247 50.10322 
L 102.620142 46.819542 
L 104.715585 45.998622 
L 106.811027 53.386898 
L 108.906469 50.924139 
L 111.001911 51.745059 
L 113.097354 41.894024 
L 115.192796 50.924139 
L 117.288238 52.565979 
L 119.38368 49.2823 
L 121.479123 53.386898 
L 123.574565 56.670576 
L 125.670007 65.700692 
L 127.765449 57.491496 
L 129.860892 68.98437 
L 131.956334 78.835405 
L 134.051776 81.298164 
L 136.147218 86.223681 
L 138.242661 90.328279 
L 140.338103 95.253796 
L 142.433545 98.537475 
L 144.528988 92.791038 
L 146.62443 91.970118 
L 148.719872 92.791038 
L 150.815314 94.432877 
L 152.910757 91.970118 
L 155.006199 87.86552 
L 157.101641 100.179314 
" style="fill:none;stroke:#e377c2;stroke-linecap:square;stroke-opacity:0.5;"/>
   </g>
   <g id="line2d_36">
    <path clip-path="url(#p9ddd345dfb)" d="M 64.902182 44.356783 
L 66.997624 45.998622 
L 69.093066 45.998622 
L 71.188509 45.177702 
L 73.283951 45.998622 
L 75.379393 46.819542 
L 77.474835 48.461381 
L 79.570278 49.2823 
L 81.66572 45.177702 
L 83.761162 44.356783 
L 85.856604 46.819542 
L 87.952047 47.640461 
L 90.047489 47.640461 
L 92.142931 48.461381 
L 94.238373 47.640461 
L 96.333816 45.998622 
L 98.429258 45.177702 
L 100.5247 45.177702 
L 102.620142 44.356783 
L 104.715585 45.177702 
L 106.811027 45.998622 
L 108.906469 45.998622 
L 111.001911 45.998622 
L 113.097354 46.819542 
L 115.192796 44.356783 
L 117.288238 45.177702 
L 119.38368 45.998622 
L 121.479123 47.640461 
L 123.574565 49.2823 
L 125.670007 50.10322 
L 127.765449 55.028737 
L 129.860892 60.775174 
L 131.956334 71.447129 
L 134.051776 75.551727 
L 136.147218 82.119083 
L 138.242661 81.298164 
L 140.338103 79.656325 
L 142.433545 81.298164 
L 144.528988 82.119083 
L 146.62443 84.581842 
L 148.719872 84.581842 
L 150.815314 85.402762 
L 152.910757 84.581842 
L 155.006199 79.656325 
L 157.101641 82.119083 
" style="fill:none;stroke:#bcbd22;stroke-linecap:square;stroke-opacity:0.5;"/>
   </g>
   <g id="line2d_37">
    <path clip-path="url(#p9ddd345dfb)" d="M 64.902182 44.356783 
L 66.997624 45.177702 
L 69.093066 45.177702 
L 71.188509 43.535863 
L 73.283951 43.535863 
L 75.379393 43.535863 
L 77.474835 44.356783 
L 79.570278 43.535863 
L 81.66572 45.998622 
L 83.761162 45.177702 
L 85.856604 44.356783 
L 87.952047 43.535863 
L 90.047489 42.714944 
L 92.142931 42.714944 
L 94.238373 42.714944 
L 96.333816 42.714944 
L 98.429258 43.535863 
L 100.5247 41.894024 
L 102.620142 42.714944 
L 104.715585 43.535863 
L 106.811027 41.894024 
L 108.906469 41.894024 
L 111.001911 41.894024 
L 113.097354 44.356783 
L 115.192796 41.894024 
L 117.288238 41.073105 
L 119.38368 41.894024 
L 121.479123 41.073105 
L 123.574565 40.252185 
L 125.670007 37.789426 
L 127.765449 40.252185 
L 129.860892 36.147587 
L 131.956334 30.40115 
L 134.051776 29.580231 
L 136.147218 27.117472 
L 138.242661 24.654713 
L 140.338103 28.759311 
L 142.433545 32.042989 
L 144.528988 26.296552 
L 146.62443 24.654713 
L 148.719872 25.475633 
L 150.815314 24.654713 
L 152.910757 23.012874 
L 155.006199 30.40115 
L 157.101641 32.042989 
" style="fill:none;stroke:#17becf;stroke-linecap:square;stroke-opacity:0.5;"/>
   </g>
   <g id="patch_73">
    <path d="M 57.17 126.44874 
L 57.17 11.52 
" style="fill:none;stroke:#000000;stroke-linecap:square;stroke-linejoin:miter;stroke-width:0.8;"/>
   </g>
   <g id="patch_74">
    <path d="M 208.83811 126.44874 
L 208.83811 11.52 
" style="fill:none;stroke:#000000;stroke-linecap:square;stroke-linejoin:miter;stroke-width:0.8;"/>
   </g>
   <g id="patch_75">
    <path d="M 57.17 126.44874 
L 208.83811 126.44874 
" style="fill:none;stroke:#000000;stroke-linecap:square;stroke-linejoin:miter;stroke-width:0.8;"/>
   </g>
   <g id="patch_76">
    <path d="M 57.17 11.52 
L 208.83811 11.52 
" style="fill:none;stroke:#000000;stroke-linecap:square;stroke-linejoin:miter;stroke-width:0.8;"/>
   </g>
  </g>
 </g>
 <defs>
  <clipPath id="p9ddd345dfb">
   <rect height="114.92874" width="151.66811" x="57.17" y="11.52"/>
  </clipPath>
 </defs>
</svg>
