<?xml version="1.0" encoding="utf-8" standalone="no"?>
<!DOCTYPE svg PUBLIC "-//W3C//DTD SVG 1.1//EN"
  "http://www.w3.org/Graphics/SVG/1.1/DTD/svg11.dtd">
<!-- Created with matplotlib (https://matplotlib.org/) -->
<svg height="170.07874pt" version="1.1" viewBox="0 0 255.11811 170.07874" width="255.11811pt" xmlns="http://www.w3.org/2000/svg" xmlns:xlink="http://www.w3.org/1999/xlink">
 <defs>
  <style type="text/css">
*{stroke-linecap:butt;stroke-linejoin:round;}
  </style>
 </defs>
 <g id="figure_1">
  <g id="patch_1">
   <path d="M 0 170.07874 
L 255.11811 170.07874 
L 255.11811 0 
L 0 0 
z
" style="fill:#ffffff;"/>
  </g>
  <g id="axes_1">
   <g id="patch_2">
    <path d="M 39.62 126.44874 
L 208.83811 126.44874 
L 208.83811 17.4 
L 39.62 17.4 
z
" style="fill:#ffffff;"/>
   </g>
   <g id="PolyCollection_1">
    <defs>
     <path d="M 48.219311 -43.633533 
L 48.219311 -43.63058 
L 50.488259 -43.631161 
L 52.757206 -43.631741 
L 55.026154 -43.632322 
L 57.295102 -43.632902 
L 59.564049 -43.633483 
L 61.832997 -43.634493 
L 64.101944 -43.635671 
L 66.370892 -43.637082 
L 68.63984 -43.63884 
L 70.908787 -43.640959 
L 73.177735 -43.64358 
L 75.446682 -43.646858 
L 77.71563 -43.651607 
L 79.984577 -43.656777 
L 82.253525 -43.663472 
L 84.522473 -43.671751 
L 86.79142 -43.68203 
L 89.060368 -43.695532 
L 91.329315 -43.713373 
L 93.598263 -43.734811 
L 95.86721 -43.761619 
L 98.136158 -43.793591 
L 100.405106 -43.840286 
L 102.674053 -43.889309 
L 104.943001 -43.950304 
L 107.211948 -44.03047 
L 109.480896 -44.132354 
L 111.749843 -44.256796 
L 114.018791 -44.44879 
L 116.287739 -44.684975 
L 118.556686 -44.937858 
L 120.825634 -45.254759 
L 123.094581 -45.846028 
L 125.363529 -46.57339 
L 127.632476 -47.504847 
L 129.901424 -48.741572 
L 132.170372 -49.863008 
L 134.439319 -50.947314 
L 136.708267 -51.725255 
L 138.977214 -52.802853 
L 141.246162 -53.367132 
L 143.51511 -53.886715 
L 145.784057 -54.356125 
L 148.053005 -54.778549 
L 150.321952 -55.036783 
L 152.5909 -55.210583 
L 152.5909 -82.132028 
L 152.5909 -82.132028 
L 150.321952 -79.697829 
L 148.053005 -77.121257 
L 145.784057 -74.23 
L 143.51511 -71.488066 
L 141.246162 -68.917861 
L 138.977214 -66.516488 
L 136.708267 -63.209105 
L 134.439319 -60.906779 
L 132.170372 -58.016231 
L 129.901424 -55.113269 
L 127.632476 -51.505184 
L 125.363529 -49.238955 
L 123.094581 -47.682202 
L 120.825634 -46.521037 
L 118.556686 -45.949618 
L 116.287739 -45.507279 
L 114.018791 -45.119149 
L 111.749843 -44.809118 
L 109.480896 -44.594526 
L 107.211948 -44.421289 
L 104.943001 -44.283524 
L 102.674053 -44.174522 
L 100.405106 -44.086985 
L 98.136158 -44.005987 
L 95.86721 -43.946904 
L 93.598263 -43.896554 
L 91.329315 -43.854324 
L 89.060368 -43.817741 
L 86.79142 -43.788284 
L 84.522473 -43.764507 
L 82.253525 -43.744402 
L 79.984577 -43.727187 
L 77.71563 -43.713063 
L 75.446682 -43.698979 
L 73.177735 -43.688858 
L 70.908787 -43.680245 
L 68.63984 -43.672751 
L 66.370892 -43.666058 
L 64.101944 -43.660412 
L 61.832997 -43.655508 
L 59.564049 -43.651201 
L 57.295102 -43.647667 
L 55.026154 -43.644134 
L 52.757206 -43.6406 
L 50.488259 -43.637067 
L 48.219311 -43.633533 
z
" id="md687363aab" style="stroke:#6495ed;stroke-opacity:0.4;"/>
    </defs>
    <g clip-path="url(#p7de5cd995f)">
     <use style="fill:#6495ed;fill-opacity:0.4;stroke:#6495ed;stroke-opacity:0.4;" x="0" xlink:href="#md687363aab" y="170.07874"/>
    </g>
   </g>
   <g id="PolyCollection_2">
    <defs>
     <path d="M 48.219311 -43.632109 
L 48.219311 -43.631127 
L 50.488259 -43.632254 
L 52.757206 -43.633381 
L 55.026154 -43.634508 
L 57.295102 -43.635635 
L 59.564049 -43.636762 
L 61.832997 -43.638489 
L 64.101944 -43.640485 
L 66.370892 -43.642855 
L 68.63984 -43.645768 
L 70.908787 -43.649146 
L 73.177735 -43.653209 
L 75.446682 -43.65816 
L 77.71563 -43.66524 
L 79.984577 -43.67268 
L 82.253525 -43.682086 
L 84.522473 -43.693462 
L 86.79142 -43.707306 
L 89.060368 -43.724956 
L 91.329315 -43.747787 
L 93.598263 -43.774702 
L 95.86721 -43.807734 
L 98.136158 -43.846803 
L 100.405106 -43.902709 
L 102.674053 -43.961743 
L 104.943001 -44.035046 
L 107.211948 -44.130375 
L 109.480896 -44.250576 
L 111.749843 -44.397774 
L 114.018791 -44.621647 
L 116.287739 -44.89863 
L 118.556686 -45.201793 
L 120.825634 -45.585817 
L 123.094581 -46.330713 
L 125.363529 -47.278436 
L 127.632476 -48.546957 
L 129.901424 -50.348887 
L 132.170372 -51.909215 
L 134.439319 -53.438662 
L 136.708267 -54.57534 
L 138.977214 -56.180432 
L 141.246162 -57.117106 
L 143.51511 -58.030202 
L 145.784057 -58.894433 
L 148.053005 -59.719483 
L 150.321952 -60.280277 
L 152.5909 -60.689109 
L 152.5909 -69.023344 
L 152.5909 -69.023344 
L 150.321952 -68.046528 
L 148.053005 -66.855061 
L 145.784057 -65.303068 
L 143.51511 -63.756439 
L 141.246162 -62.213771 
L 138.977214 -60.707113 
L 136.708267 -58.376902 
L 134.439319 -56.741341 
L 132.170372 -54.620241 
L 129.901424 -52.478341 
L 127.632476 -49.889235 
L 125.363529 -48.177547 
L 123.094581 -46.953151 
L 120.825634 -46.016299 
L 118.556686 -45.545975 
L 116.287739 -45.178355 
L 114.018791 -44.848368 
L 111.749843 -44.584229 
L 109.480896 -44.407353 
L 107.211948 -44.263681 
L 104.943001 -44.149328 
L 102.674053 -44.060102 
L 100.405106 -43.98817 
L 98.136158 -43.920528 
L 95.86721 -43.872154 
L 93.598263 -43.830802 
L 91.329315 -43.796639 
L 89.060368 -43.767192 
L 86.79142 -43.743991 
L 84.522473 -43.725468 
L 82.253525 -43.709955 
L 79.984577 -43.696871 
L 77.71563 -43.686283 
L 75.446682 -43.675969 
L 73.177735 -43.668601 
L 70.908787 -43.662437 
L 68.63984 -43.657208 
L 66.370892 -43.652599 
L 64.101944 -43.648772 
L 61.832997 -43.645503 
L 59.564049 -43.642654 
L 57.295102 -43.640545 
L 55.026154 -43.638436 
L 52.757206 -43.636327 
L 50.488259 -43.634218 
L 48.219311 -43.632109 
z
" id="m68ee0c3d3d" style="stroke:#6495ed;stroke-opacity:0.6;"/>
    </defs>
    <g clip-path="url(#p7de5cd995f)">
     <use style="fill:#6495ed;fill-opacity:0.6;stroke:#6495ed;stroke-opacity:0.6;" x="0" xlink:href="#m68ee0c3d3d" y="170.07874"/>
    </g>
   </g>
   <g id="PolyCollection_3">
    <defs>
     <path d="M 152.5909 -82.132028 
L 152.5909 -55.210583 
L 154.859847 -55.366367 
L 157.128795 -55.502751 
L 159.397743 -55.620572 
L 161.66669 -55.721031 
L 163.935638 -55.806001 
L 166.204585 -55.877703 
L 168.473533 -55.938211 
L 170.74248 -55.988795 
L 173.011428 -56.031127 
L 175.280376 -56.066377 
L 177.549323 -56.095673 
L 179.818271 -56.120022 
L 182.087218 -56.140161 
L 184.356166 -56.156857 
L 186.625113 -56.170702 
L 188.894061 -56.182181 
L 191.163009 -56.191754 
L 193.431956 -56.199703 
L 195.700904 -56.206274 
L 197.969851 -56.211719 
L 200.238799 -56.216246 
L 200.238799 -152.67874 
L 200.238799 -152.67874 
L 197.969851 -148.348548 
L 195.700904 -144.097599 
L 193.431956 -139.972874 
L 191.163009 -135.973077 
L 188.894061 -132.066302 
L 186.625113 -128.250325 
L 184.356166 -124.563554 
L 182.087218 -120.991246 
L 179.818271 -117.511957 
L 177.549323 -114.12625 
L 175.280376 -110.841138 
L 173.011428 -107.649497 
L 170.74248 -104.522512 
L 168.473533 -101.463599 
L 166.204585 -98.508404 
L 163.935638 -95.627843 
L 161.66669 -92.84384 
L 159.397743 -90.076096 
L 157.128795 -87.346028 
L 154.859847 -84.688148 
L 152.5909 -82.132028 
z
" id="m96fe2caf8a" style="stroke:#228b22;stroke-opacity:0.4;"/>
    </defs>
    <g clip-path="url(#p7de5cd995f)">
     <use style="fill:#228b22;fill-opacity:0.4;stroke:#228b22;stroke-opacity:0.4;" x="0" xlink:href="#m96fe2caf8a" y="170.07874"/>
    </g>
   </g>
   <g id="PolyCollection_4">
    <defs>
     <path d="M 152.5909 -69.023344 
L 152.5909 -60.689109 
L 154.859847 -61.072093 
L 157.128795 -61.422539 
L 159.397743 -61.738396 
L 161.66669 -62.020489 
L 163.935638 -62.271245 
L 166.204585 -62.493821 
L 168.473533 -62.689488 
L 170.74248 -62.861933 
L 173.011428 -63.013229 
L 175.280376 -63.146147 
L 177.549323 -63.262711 
L 179.818271 -63.365075 
L 182.087218 -63.455003 
L 184.356166 -63.533866 
L 186.625113 -63.603003 
L 188.894061 -63.663791 
L 191.163009 -63.717148 
L 193.431956 -63.764054 
L 195.700904 -63.805173 
L 197.969851 -63.841351 
L 200.238799 -63.873187 
L 200.238799 -81.505701 
L 200.238799 -81.505701 
L 197.969851 -81.191668 
L 195.700904 -80.858913 
L 193.431956 -80.50546 
L 191.163009 -80.132526 
L 188.894061 -79.73807 
L 186.625113 -79.31999 
L 184.356166 -78.876312 
L 182.087218 -78.406659 
L 179.818271 -77.910507 
L 177.549323 -77.384713 
L 175.280376 -76.828164 
L 173.011428 -76.23761 
L 170.74248 -75.610237 
L 168.473533 -74.941958 
L 166.204585 -74.230284 
L 163.935638 -73.476917 
L 161.66669 -72.672832 
L 159.397743 -71.824331 
L 157.128795 -70.927153 
L 154.859847 -69.988218 
L 152.5909 -69.023344 
z
" id="mff95bffca4" style="stroke:#228b22;stroke-opacity:0.6;"/>
    </defs>
    <g clip-path="url(#p7de5cd995f)">
     <use style="fill:#228b22;fill-opacity:0.6;stroke:#228b22;stroke-opacity:0.6;" x="0" xlink:href="#mff95bffca4" y="170.07874"/>
    </g>
   </g>
   <g id="PathCollection_1">
    <defs>
     <path d="M -0.866025 1.732051 
L 0 0.866025 
L 0.866025 1.732051 
L 1.732051 0.866025 
L 0.866025 0 
L 1.732051 -0.866025 
L 0.866025 -1.732051 
L 0 -0.866025 
L -0.866025 -1.732051 
L -1.732051 -0.866025 
L -0.866025 0 
L -1.732051 0.866025 
z
" id="mf01972c85a" style="stroke:#8a2be2;"/>
    </defs>
    <g clip-path="url(#p7de5cd995f)">
     <use style="fill:#8a2be2;stroke:#8a2be2;" x="141.246162" xlink:href="#mf01972c85a" y="28.304874"/>
    </g>
   </g>
   <g id="PathCollection_2">
    <defs>
     <path d="M 0 -1.732051 
L -0.38887 -0.535233 
L -1.647278 -0.535233 
L -0.629204 0.204441 
L -1.018074 1.401259 
L -0 0.661585 
L 1.018074 1.401259 
L 0.629204 0.204441 
L 1.647278 -0.535233 
L 0.38887 -0.535233 
z
" id="mdd5618a4a4" style="stroke:#000000;"/>
    </defs>
    <g clip-path="url(#p7de5cd995f)">
     <use style="stroke:#000000;" x="134.439319" xlink:href="#mdd5618a4a4" y="28.304874"/>
    </g>
   </g>
   <g id="PathCollection_3">
    <defs>
     <path d="M -1.732051 1.732051 
L 1.732051 1.732051 
L 1.732051 -1.732051 
L -1.732051 -1.732051 
z
" id="m8c6a09e2de" style="stroke:#c71585;"/>
    </defs>
    <g clip-path="url(#p7de5cd995f)">
     <use style="fill:#c71585;stroke:#c71585;" x="141.246162" xlink:href="#m8c6a09e2de" y="33.212067"/>
    </g>
   </g>
   <g id="PathCollection_4">
    <defs>
     <path d="M 0 -1.732051 
L -1.647278 -0.535233 
L -1.018074 1.401259 
L 1.018074 1.401259 
L 1.647278 -0.535233 
z
" id="m8828eec1fa" style="stroke:#800000;"/>
    </defs>
    <g clip-path="url(#p7de5cd995f)">
     <use style="fill:#800000;stroke:#800000;" x="123.094581" xlink:href="#m8828eec1fa" y="28.304874"/>
    </g>
   </g>
   <g id="PathCollection_5">
    <defs>
     <path d="M -0 2.44949 
L 1.469694 0 
L 0 -2.44949 
L -1.469694 -0 
z
" id="m7301b043fb" style="stroke:#556b2f;"/>
    </defs>
    <g clip-path="url(#p7de5cd995f)">
     <use style="fill:#556b2f;stroke:#556b2f;" x="114.018791" xlink:href="#m7301b043fb" y="28.304874"/>
    </g>
   </g>
   <g id="patch_3">
    <path clip-path="url(#p7de5cd995f)" d="M 47.311732 126.44874 
L 49.12689 126.44874 
L 49.12689 126.44874 
L 47.311732 126.44874 
z
" style="fill:#1f77b4;opacity:0.5;"/>
   </g>
   <g id="patch_4">
    <path clip-path="url(#p7de5cd995f)" d="M 49.58068 126.44874 
L 51.395838 126.44874 
L 51.395838 126.448713 
L 49.58068 126.448713 
z
" style="fill:#1f77b4;opacity:0.5;"/>
   </g>
   <g id="patch_5">
    <path clip-path="url(#p7de5cd995f)" d="M 51.849627 126.44874 
L 53.664785 126.44874 
L 53.664785 126.448713 
L 51.849627 126.448713 
z
" style="fill:#1f77b4;opacity:0.5;"/>
   </g>
   <g id="patch_6">
    <path clip-path="url(#p7de5cd995f)" d="M 54.118575 126.44874 
L 55.933733 126.44874 
L 55.933733 126.448713 
L 54.118575 126.448713 
z
" style="fill:#1f77b4;opacity:0.5;"/>
   </g>
   <g id="patch_7">
    <path clip-path="url(#p7de5cd995f)" d="M 56.387523 126.44874 
L 58.202681 126.44874 
L 58.202681 126.448713 
L 56.387523 126.448713 
z
" style="fill:#1f77b4;opacity:0.5;"/>
   </g>
   <g id="patch_8">
    <path clip-path="url(#p7de5cd995f)" d="M 58.65647 126.44874 
L 60.471628 126.44874 
L 60.471628 126.448713 
L 58.65647 126.448713 
z
" style="fill:#1f77b4;opacity:0.5;"/>
   </g>
   <g id="patch_9">
    <path clip-path="url(#p7de5cd995f)" d="M 60.925418 126.44874 
L 62.740576 126.44874 
L 62.740576 126.448713 
L 60.925418 126.448713 
z
" style="fill:#1f77b4;opacity:0.5;"/>
   </g>
   <g id="patch_10">
    <path clip-path="url(#p7de5cd995f)" d="M 63.194365 126.44874 
L 65.009523 126.44874 
L 65.009523 126.448713 
L 63.194365 126.448713 
z
" style="fill:#1f77b4;opacity:0.5;"/>
   </g>
   <g id="patch_11">
    <path clip-path="url(#p7de5cd995f)" d="M 65.463313 126.44874 
L 67.278471 126.44874 
L 67.278471 126.448713 
L 65.463313 126.448713 
z
" style="fill:#1f77b4;opacity:0.5;"/>
   </g>
   <g id="patch_12">
    <path clip-path="url(#p7de5cd995f)" d="M 67.73226 126.44874 
L 69.547419 126.44874 
L 69.547419 126.448713 
L 67.73226 126.448713 
z
" style="fill:#1f77b4;opacity:0.5;"/>
   </g>
   <g id="patch_13">
    <path clip-path="url(#p7de5cd995f)" d="M 70.001208 126.44874 
L 71.816366 126.44874 
L 71.816366 126.448713 
L 70.001208 126.448713 
z
" style="fill:#1f77b4;opacity:0.5;"/>
   </g>
   <g id="patch_14">
    <path clip-path="url(#p7de5cd995f)" d="M 72.270156 126.44874 
L 74.085314 126.44874 
L 74.085314 126.448713 
L 72.270156 126.448713 
z
" style="fill:#1f77b4;opacity:0.5;"/>
   </g>
   <g id="patch_15">
    <path clip-path="url(#p7de5cd995f)" d="M 74.539103 126.44874 
L 76.354261 126.44874 
L 76.354261 126.448602 
L 74.539103 126.448602 
z
" style="fill:#1f77b4;opacity:0.5;"/>
   </g>
   <g id="patch_16">
    <path clip-path="url(#p7de5cd995f)" d="M 76.808051 126.44874 
L 78.623209 126.44874 
L 78.623209 126.448602 
L 76.808051 126.448602 
z
" style="fill:#1f77b4;opacity:0.5;"/>
   </g>
   <g id="patch_17">
    <path clip-path="url(#p7de5cd995f)" d="M 79.076998 126.44874 
L 80.892156 126.44874 
L 80.892156 126.448602 
L 79.076998 126.448602 
z
" style="fill:#1f77b4;opacity:0.5;"/>
   </g>
   <g id="patch_18">
    <path clip-path="url(#p7de5cd995f)" d="M 81.345946 126.44874 
L 83.161104 126.44874 
L 83.161104 126.448602 
L 81.345946 126.448602 
z
" style="fill:#1f77b4;opacity:0.5;"/>
   </g>
   <g id="patch_19">
    <path clip-path="url(#p7de5cd995f)" d="M 83.614894 126.44874 
L 85.430052 126.44874 
L 85.430052 126.44852 
L 83.614894 126.44852 
z
" style="fill:#1f77b4;opacity:0.5;"/>
   </g>
   <g id="patch_20">
    <path clip-path="url(#p7de5cd995f)" d="M 85.883841 126.44874 
L 87.698999 126.44874 
L 87.698999 126.448465 
L 85.883841 126.448465 
z
" style="fill:#1f77b4;opacity:0.5;"/>
   </g>
   <g id="patch_21">
    <path clip-path="url(#p7de5cd995f)" d="M 88.152789 126.44874 
L 89.967947 126.44874 
L 89.967947 126.448327 
L 88.152789 126.448327 
z
" style="fill:#1f77b4;opacity:0.5;"/>
   </g>
   <g id="patch_22">
    <path clip-path="url(#p7de5cd995f)" d="M 90.421736 126.44874 
L 92.236894 126.44874 
L 92.236894 126.447969 
L 90.421736 126.447969 
z
" style="fill:#1f77b4;opacity:0.5;"/>
   </g>
   <g id="patch_23">
    <path clip-path="url(#p7de5cd995f)" d="M 92.690684 126.44874 
L 94.505842 126.44874 
L 94.505842 126.447859 
L 92.690684 126.447859 
z
" style="fill:#1f77b4;opacity:0.5;"/>
   </g>
   <g id="patch_24">
    <path clip-path="url(#p7de5cd995f)" d="M 94.959631 126.44874 
L 96.774789 126.44874 
L 96.774789 126.447556 
L 94.959631 126.447556 
z
" style="fill:#1f77b4;opacity:0.5;"/>
   </g>
   <g id="patch_25">
    <path clip-path="url(#p7de5cd995f)" d="M 97.228579 126.44874 
L 99.043737 126.44874 
L 99.043737 126.446619 
L 97.228579 126.446619 
z
" style="fill:#1f77b4;opacity:0.5;"/>
   </g>
   <g id="patch_26">
    <path clip-path="url(#p7de5cd995f)" d="M 99.497527 126.44874 
L 101.312685 126.44874 
L 101.312685 126.445793 
L 99.497527 126.445793 
z
" style="fill:#1f77b4;opacity:0.5;"/>
   </g>
   <g id="patch_27">
    <path clip-path="url(#p7de5cd995f)" d="M 101.766474 126.44874 
L 103.581632 126.44874 
L 103.581632 126.444471 
L 101.766474 126.444471 
z
" style="fill:#1f77b4;opacity:0.5;"/>
   </g>
   <g id="patch_28">
    <path clip-path="url(#p7de5cd995f)" d="M 104.035422 126.44874 
L 105.85058 126.44874 
L 105.85058 126.443286 
L 104.035422 126.443286 
z
" style="fill:#1f77b4;opacity:0.5;"/>
   </g>
   <g id="patch_29">
    <path clip-path="url(#p7de5cd995f)" d="M 106.304369 126.44874 
L 108.119527 126.44874 
L 108.119527 126.441441 
L 106.304369 126.441441 
z
" style="fill:#1f77b4;opacity:0.5;"/>
   </g>
   <g id="patch_30">
    <path clip-path="url(#p7de5cd995f)" d="M 108.573317 126.44874 
L 110.388475 126.44874 
L 110.388475 126.440118 
L 108.573317 126.440118 
z
" style="fill:#1f77b4;opacity:0.5;"/>
   </g>
   <g id="patch_31">
    <path clip-path="url(#p7de5cd995f)" d="M 110.842264 126.44874 
L 112.657422 126.44874 
L 112.657422 126.438686 
L 110.842264 126.438686 
z
" style="fill:#1f77b4;opacity:0.5;"/>
   </g>
   <g id="patch_32">
    <path clip-path="url(#p7de5cd995f)" d="M 113.111212 126.44874 
L 114.92637 126.44874 
L 114.92637 126.4364 
L 113.111212 126.4364 
z
" style="fill:#1f77b4;opacity:0.5;"/>
   </g>
   <g id="patch_33">
    <path clip-path="url(#p7de5cd995f)" d="M 115.38016 126.44874 
L 117.195318 126.44874 
L 117.195318 126.432708 
L 115.38016 126.432708 
z
" style="fill:#1f77b4;opacity:0.5;"/>
   </g>
   <g id="patch_34">
    <path clip-path="url(#p7de5cd995f)" d="M 117.649107 126.44874 
L 119.464265 126.44874 
L 119.464265 126.429486 
L 117.649107 126.429486 
z
" style="fill:#1f77b4;opacity:0.5;"/>
   </g>
   <g id="patch_35">
    <path clip-path="url(#p7de5cd995f)" d="M 119.918055 126.44874 
L 121.733213 126.44874 
L 121.733213 126.417558 
L 119.918055 126.417558 
z
" style="fill:#1f77b4;opacity:0.5;"/>
   </g>
   <g id="patch_36">
    <path clip-path="url(#p7de5cd995f)" d="M 122.187002 126.44874 
L 124.00216 126.44874 
L 124.00216 126.410644 
L 122.187002 126.410644 
z
" style="fill:#1f77b4;opacity:0.5;"/>
   </g>
   <g id="patch_37">
    <path clip-path="url(#p7de5cd995f)" d="M 124.45595 126.44874 
L 126.271108 126.44874 
L 126.271108 126.406457 
L 124.45595 126.406457 
z
" style="fill:#1f77b4;opacity:0.5;"/>
   </g>
   <g id="patch_38">
    <path clip-path="url(#p7de5cd995f)" d="M 126.724897 126.44874 
L 128.540056 126.44874 
L 128.540056 126.395246 
L 126.724897 126.395246 
z
" style="fill:#1f77b4;opacity:0.5;"/>
   </g>
   <g id="patch_39">
    <path clip-path="url(#p7de5cd995f)" d="M 128.993845 126.44874 
L 130.809003 126.44874 
L 130.809003 126.376515 
L 128.993845 126.376515 
z
" style="fill:#1f77b4;opacity:0.5;"/>
   </g>
   <g id="patch_40">
    <path clip-path="url(#p7de5cd995f)" d="M 131.262793 126.44874 
L 133.077951 126.44874 
L 133.077951 126.358693 
L 131.262793 126.358693 
z
" style="fill:#1f77b4;opacity:0.5;"/>
   </g>
   <g id="patch_41">
    <path clip-path="url(#p7de5cd995f)" d="M 133.53174 126.44874 
L 135.346898 126.44874 
L 135.346898 126.339245 
L 133.53174 126.339245 
z
" style="fill:#1f77b4;opacity:0.5;"/>
   </g>
   <g id="patch_42">
    <path clip-path="url(#p7de5cd995f)" d="M 135.800688 126.44874 
L 137.615846 126.44874 
L 137.615846 126.310735 
L 135.800688 126.310735 
z
" style="fill:#1f77b4;opacity:0.5;"/>
   </g>
   <g id="patch_43">
    <path clip-path="url(#p7de5cd995f)" d="M 138.069635 126.44874 
L 139.884793 126.44874 
L 139.884793 126.292417 
L 138.069635 126.292417 
z
" style="fill:#1f77b4;opacity:0.5;"/>
   </g>
   <g id="patch_44">
    <path clip-path="url(#p7de5cd995f)" d="M 140.338583 126.44874 
L 142.153741 126.44874 
L 142.153741 126.265781 
L 140.338583 126.265781 
z
" style="fill:#1f77b4;opacity:0.5;"/>
   </g>
   <g id="patch_45">
    <path clip-path="url(#p7de5cd995f)" d="M 142.60753 126.44874 
L 144.422689 126.44874 
L 144.422689 126.226473 
L 142.60753 126.226473 
z
" style="fill:#1f77b4;opacity:0.5;"/>
   </g>
   <g id="patch_46">
    <path clip-path="url(#p7de5cd995f)" d="M 144.876478 126.44874 
L 146.691636 126.44874 
L 146.691636 126.186476 
L 144.876478 126.186476 
z
" style="fill:#1f77b4;opacity:0.5;"/>
   </g>
   <g id="patch_47">
    <path clip-path="url(#p7de5cd995f)" d="M 147.145426 126.44874 
L 148.960584 126.44874 
L 148.960584 126.127831 
L 147.145426 126.127831 
z
" style="fill:#1f77b4;opacity:0.5;"/>
   </g>
   <g id="patch_48">
    <path clip-path="url(#p7de5cd995f)" d="M 149.414373 126.44874 
L 151.229531 126.44874 
L 151.229531 126.048361 
L 149.414373 126.048361 
z
" style="fill:#1f77b4;opacity:0.5;"/>
   </g>
   <g id="patch_49">
    <path clip-path="url(#p7de5cd995f)" d="M 151.683321 126.44874 
L 153.498479 126.44874 
L 153.498479 125.97823 
L 151.683321 125.97823 
z
" style="fill:#1f77b4;opacity:0.5;"/>
   </g>
   <g id="patch_50">
    <path clip-path="url(#p7de5cd995f)" d="M 153.952268 126.44874 
L 155.767426 126.44874 
L 155.767426 125.911211 
L 153.952268 125.911211 
z
" style="fill:#1f77b4;opacity:0.5;"/>
   </g>
   <g id="patch_51">
    <path clip-path="url(#p7de5cd995f)" d="M 156.221216 126.44874 
L 158.036374 126.44874 
L 158.036374 125.839068 
L 156.221216 125.839068 
z
" style="fill:#1f77b4;opacity:0.5;"/>
   </g>
   <g id="patch_52">
    <path clip-path="url(#p7de5cd995f)" d="M 158.490164 126.44874 
L 160.305322 126.44874 
L 160.305322 125.756183 
L 158.490164 125.756183 
z
" style="fill:#1f77b4;opacity:0.5;"/>
   </g>
   <g id="patch_53">
    <path clip-path="url(#p7de5cd995f)" d="M 160.759111 126.44874 
L 162.574269 126.44874 
L 162.574269 125.637074 
L 160.759111 125.637074 
z
" style="fill:#1f77b4;opacity:0.5;"/>
   </g>
   <g id="patch_54">
    <path clip-path="url(#p7de5cd995f)" d="M 163.028059 126.44874 
L 164.843217 126.44874 
L 164.843217 125.52017 
L 163.028059 125.52017 
z
" style="fill:#1f77b4;opacity:0.5;"/>
   </g>
   <g id="patch_55">
    <path clip-path="url(#p7de5cd995f)" d="M 165.297006 126.44874 
L 167.112164 126.44874 
L 167.112164 125.397591 
L 165.297006 125.397591 
z
" style="fill:#1f77b4;opacity:0.5;"/>
   </g>
   <g id="patch_56">
    <path clip-path="url(#p7de5cd995f)" d="M 167.565954 126.44874 
L 169.381112 126.44874 
L 169.381112 125.294707 
L 167.565954 125.294707 
z
" style="fill:#1f77b4;opacity:0.5;"/>
   </g>
   <g id="patch_57">
    <path clip-path="url(#p7de5cd995f)" d="M 169.834901 126.44874 
L 171.650059 126.44874 
L 171.650059 125.132104 
L 169.834901 125.132104 
z
" style="fill:#1f77b4;opacity:0.5;"/>
   </g>
   <g id="patch_58">
    <path clip-path="url(#p7de5cd995f)" d="M 172.103849 126.44874 
L 173.919007 126.44874 
L 173.919007 125.027375 
L 172.103849 125.027375 
z
" style="fill:#1f77b4;opacity:0.5;"/>
   </g>
   <g id="patch_59">
    <path clip-path="url(#p7de5cd995f)" d="M 174.372797 126.44874 
L 176.187955 126.44874 
L 176.187955 124.927273 
L 174.372797 124.927273 
z
" style="fill:#1f77b4;opacity:0.5;"/>
   </g>
   <g id="patch_60">
    <path clip-path="url(#p7de5cd995f)" d="M 176.641744 126.44874 
L 178.456902 126.44874 
L 178.456902 124.776019 
L 176.641744 124.776019 
z
" style="fill:#1f77b4;opacity:0.5;"/>
   </g>
   <g id="patch_61">
    <path clip-path="url(#p7de5cd995f)" d="M 178.910692 126.44874 
L 180.72585 126.44874 
L 180.72585 124.65636 
L 178.910692 124.65636 
z
" style="fill:#1f77b4;opacity:0.5;"/>
   </g>
   <g id="patch_62">
    <path clip-path="url(#p7de5cd995f)" d="M 181.179639 126.44874 
L 182.994797 126.44874 
L 182.994797 124.513259 
L 181.179639 124.513259 
z
" style="fill:#1f77b4;opacity:0.5;"/>
   </g>
   <g id="patch_63">
    <path clip-path="url(#p7de5cd995f)" d="M 183.448587 126.44874 
L 185.263745 126.44874 
L 185.263745 124.273087 
L 183.448587 124.273087 
z
" style="fill:#1f77b4;opacity:0.5;"/>
   </g>
   <g id="patch_64">
    <path clip-path="url(#p7de5cd995f)" d="M 185.717534 126.44874 
L 187.532692 126.44874 
L 187.532692 124.127424 
L 185.717534 124.127424 
z
" style="fill:#1f77b4;opacity:0.5;"/>
   </g>
   <g id="patch_65">
    <path clip-path="url(#p7de5cd995f)" d="M 187.986482 126.44874 
L 189.80164 126.44874 
L 189.80164 124.00782 
L 187.986482 124.00782 
z
" style="fill:#1f77b4;opacity:0.5;"/>
   </g>
   <g id="patch_66">
    <path clip-path="url(#p7de5cd995f)" d="M 190.25543 126.44874 
L 192.070588 126.44874 
L 192.070588 123.86315 
L 190.25543 123.86315 
z
" style="fill:#1f77b4;opacity:0.5;"/>
   </g>
   <g id="patch_67">
    <path clip-path="url(#p7de5cd995f)" d="M 192.524377 126.44874 
L 194.339535 126.44874 
L 194.339535 123.736356 
L 192.524377 123.736356 
z
" style="fill:#1f77b4;opacity:0.5;"/>
   </g>
   <g id="patch_68">
    <path clip-path="url(#p7de5cd995f)" d="M 194.793325 126.44874 
L 196.608483 126.44874 
L 196.608483 123.609177 
L 194.793325 123.609177 
z
" style="fill:#1f77b4;opacity:0.5;"/>
   </g>
   <g id="patch_69">
    <path clip-path="url(#p7de5cd995f)" d="M 197.062272 126.44874 
L 198.87743 126.44874 
L 198.87743 123.454948 
L 197.062272 123.454948 
z
" style="fill:#1f77b4;opacity:0.5;"/>
   </g>
   <g id="patch_70">
    <path clip-path="url(#p7de5cd995f)" d="M 199.33122 126.44874 
L 201.146378 126.44874 
L 201.146378 123.302757 
L 199.33122 123.302757 
z
" style="fill:#1f77b4;opacity:0.5;"/>
   </g>
   <g id="matplotlib.axis_1">
    <g id="xtick_1">
     <g id="line2d_1">
      <defs>
       <path d="M 0 0 
L 0 3.5 
" id="meaeab0a4b1" style="stroke:#000000;stroke-width:0.8;"/>
      </defs>
      <g>
       <use style="stroke:#000000;stroke-width:0.8;" x="200.238799" xlink:href="#meaeab0a4b1" y="126.44874"/>
      </g>
     </g>
     <g id="text_1">
      <!-- 19 Apr -->
      <defs>
       <path d="M 12.40625 8.296875 
L 28.515625 8.296875 
L 28.515625 63.921875 
L 10.984375 60.40625 
L 10.984375 69.390625 
L 28.421875 72.90625 
L 38.28125 72.90625 
L 38.28125 8.296875 
L 54.390625 8.296875 
L 54.390625 0 
L 12.40625 0 
z
" id="DejaVuSans-49"/>
       <path d="M 10.984375 1.515625 
L 10.984375 10.5 
Q 14.703125 8.734375 18.5 7.8125 
Q 22.3125 6.890625 25.984375 6.890625 
Q 35.75 6.890625 40.890625 13.453125 
Q 46.046875 20.015625 46.78125 33.40625 
Q 43.953125 29.203125 39.59375 26.953125 
Q 35.25 24.703125 29.984375 24.703125 
Q 19.046875 24.703125 12.671875 31.3125 
Q 6.296875 37.9375 6.296875 49.421875 
Q 6.296875 60.640625 12.9375 67.421875 
Q 19.578125 74.21875 30.609375 74.21875 
Q 43.265625 74.21875 49.921875 64.515625 
Q 56.59375 54.828125 56.59375 36.375 
Q 56.59375 19.140625 48.40625 8.859375 
Q 40.234375 -1.421875 26.421875 -1.421875 
Q 22.703125 -1.421875 18.890625 -0.6875 
Q 15.09375 0.046875 10.984375 1.515625 
z
M 30.609375 32.421875 
Q 37.25 32.421875 41.125 36.953125 
Q 45.015625 41.5 45.015625 49.421875 
Q 45.015625 57.28125 41.125 61.84375 
Q 37.25 66.40625 30.609375 66.40625 
Q 23.96875 66.40625 20.09375 61.84375 
Q 16.21875 57.28125 16.21875 49.421875 
Q 16.21875 41.5 20.09375 36.953125 
Q 23.96875 32.421875 30.609375 32.421875 
z
" id="DejaVuSans-57"/>
       <path id="DejaVuSans-32"/>
       <path d="M 34.1875 63.1875 
L 20.796875 26.90625 
L 47.609375 26.90625 
z
M 28.609375 72.90625 
L 39.796875 72.90625 
L 67.578125 0 
L 57.328125 0 
L 50.6875 18.703125 
L 17.828125 18.703125 
L 11.1875 0 
L 0.78125 0 
z
" id="DejaVuSans-65"/>
       <path d="M 18.109375 8.203125 
L 18.109375 -20.796875 
L 9.078125 -20.796875 
L 9.078125 54.6875 
L 18.109375 54.6875 
L 18.109375 46.390625 
Q 20.953125 51.265625 25.265625 53.625 
Q 29.59375 56 35.59375 56 
Q 45.5625 56 51.78125 48.09375 
Q 58.015625 40.1875 58.015625 27.296875 
Q 58.015625 14.40625 51.78125 6.484375 
Q 45.5625 -1.421875 35.59375 -1.421875 
Q 29.59375 -1.421875 25.265625 0.953125 
Q 20.953125 3.328125 18.109375 8.203125 
z
M 48.6875 27.296875 
Q 48.6875 37.203125 44.609375 42.84375 
Q 40.53125 48.484375 33.40625 48.484375 
Q 26.265625 48.484375 22.1875 42.84375 
Q 18.109375 37.203125 18.109375 27.296875 
Q 18.109375 17.390625 22.1875 11.75 
Q 26.265625 6.109375 33.40625 6.109375 
Q 40.53125 6.109375 44.609375 11.75 
Q 48.6875 17.390625 48.6875 27.296875 
z
" id="DejaVuSans-112"/>
       <path d="M 41.109375 46.296875 
Q 39.59375 47.171875 37.8125 47.578125 
Q 36.03125 48 33.890625 48 
Q 26.265625 48 22.1875 43.046875 
Q 18.109375 38.09375 18.109375 28.8125 
L 18.109375 0 
L 9.078125 0 
L 9.078125 54.6875 
L 18.109375 54.6875 
L 18.109375 46.1875 
Q 20.953125 51.171875 25.484375 53.578125 
Q 30.03125 56 36.53125 56 
Q 37.453125 56 38.578125 55.875 
Q 39.703125 55.765625 41.0625 55.515625 
z
" id="DejaVuSans-114"/>
      </defs>
      <g transform="translate(202.446299 160.01124)rotate(-90)scale(0.08 -0.08)">
       <use xlink:href="#DejaVuSans-49"/>
       <use x="63.623047" xlink:href="#DejaVuSans-57"/>
       <use x="127.246094" xlink:href="#DejaVuSans-32"/>
       <use x="159.033203" xlink:href="#DejaVuSans-65"/>
       <use x="227.441406" xlink:href="#DejaVuSans-112"/>
       <use x="290.917969" xlink:href="#DejaVuSans-114"/>
      </g>
     </g>
    </g>
    <g id="xtick_2">
     <g id="line2d_2">
      <g>
       <use style="stroke:#000000;stroke-width:0.8;" x="184.356166" xlink:href="#meaeab0a4b1" y="126.44874"/>
      </g>
     </g>
     <g id="text_2">
      <!-- 12 Apr -->
      <defs>
       <path d="M 19.1875 8.296875 
L 53.609375 8.296875 
L 53.609375 0 
L 7.328125 0 
L 7.328125 8.296875 
Q 12.9375 14.109375 22.625 23.890625 
Q 32.328125 33.6875 34.8125 36.53125 
Q 39.546875 41.84375 41.421875 45.53125 
Q 43.3125 49.21875 43.3125 52.78125 
Q 43.3125 58.59375 39.234375 62.25 
Q 35.15625 65.921875 28.609375 65.921875 
Q 23.96875 65.921875 18.8125 64.3125 
Q 13.671875 62.703125 7.8125 59.421875 
L 7.8125 69.390625 
Q 13.765625 71.78125 18.9375 73 
Q 24.125 74.21875 28.421875 74.21875 
Q 39.75 74.21875 46.484375 68.546875 
Q 53.21875 62.890625 53.21875 53.421875 
Q 53.21875 48.921875 51.53125 44.890625 
Q 49.859375 40.875 45.40625 35.40625 
Q 44.1875 33.984375 37.640625 27.21875 
Q 31.109375 20.453125 19.1875 8.296875 
z
" id="DejaVuSans-50"/>
      </defs>
      <g transform="translate(186.563666 160.01124)rotate(-90)scale(0.08 -0.08)">
       <use xlink:href="#DejaVuSans-49"/>
       <use x="63.623047" xlink:href="#DejaVuSans-50"/>
       <use x="127.246094" xlink:href="#DejaVuSans-32"/>
       <use x="159.033203" xlink:href="#DejaVuSans-65"/>
       <use x="227.441406" xlink:href="#DejaVuSans-112"/>
       <use x="290.917969" xlink:href="#DejaVuSans-114"/>
      </g>
     </g>
    </g>
    <g id="xtick_3">
     <g id="line2d_3">
      <g>
       <use style="stroke:#000000;stroke-width:0.8;" x="168.473533" xlink:href="#meaeab0a4b1" y="126.44874"/>
      </g>
     </g>
     <g id="text_3">
      <!-- 5 Apr -->
      <defs>
       <path d="M 10.796875 72.90625 
L 49.515625 72.90625 
L 49.515625 64.59375 
L 19.828125 64.59375 
L 19.828125 46.734375 
Q 21.96875 47.46875 24.109375 47.828125 
Q 26.265625 48.1875 28.421875 48.1875 
Q 40.625 48.1875 47.75 41.5 
Q 54.890625 34.8125 54.890625 23.390625 
Q 54.890625 11.625 47.5625 5.09375 
Q 40.234375 -1.421875 26.90625 -1.421875 
Q 22.3125 -1.421875 17.546875 -0.640625 
Q 12.796875 0.140625 7.71875 1.703125 
L 7.71875 11.625 
Q 12.109375 9.234375 16.796875 8.0625 
Q 21.484375 6.890625 26.703125 6.890625 
Q 35.15625 6.890625 40.078125 11.328125 
Q 45.015625 15.765625 45.015625 23.390625 
Q 45.015625 31 40.078125 35.4375 
Q 35.15625 39.890625 26.703125 39.890625 
Q 22.75 39.890625 18.8125 39.015625 
Q 14.890625 38.140625 10.796875 36.28125 
z
" id="DejaVuSans-53"/>
      </defs>
      <g transform="translate(170.681033 154.92124)rotate(-90)scale(0.08 -0.08)">
       <use xlink:href="#DejaVuSans-53"/>
       <use x="63.623047" xlink:href="#DejaVuSans-32"/>
       <use x="95.410156" xlink:href="#DejaVuSans-65"/>
       <use x="163.818359" xlink:href="#DejaVuSans-112"/>
       <use x="227.294922" xlink:href="#DejaVuSans-114"/>
      </g>
     </g>
    </g>
    <g id="xtick_4">
     <g id="line2d_4">
      <g>
       <use style="stroke:#000000;stroke-width:0.8;" x="152.5909" xlink:href="#meaeab0a4b1" y="126.44874"/>
      </g>
     </g>
     <g id="text_4">
      <!-- 29 Mar -->
      <defs>
       <path d="M 9.8125 72.90625 
L 24.515625 72.90625 
L 43.109375 23.296875 
L 61.8125 72.90625 
L 76.515625 72.90625 
L 76.515625 0 
L 66.890625 0 
L 66.890625 64.015625 
L 48.09375 14.015625 
L 38.1875 14.015625 
L 19.390625 64.015625 
L 19.390625 0 
L 9.8125 0 
z
" id="DejaVuSans-77"/>
       <path d="M 34.28125 27.484375 
Q 23.390625 27.484375 19.1875 25 
Q 14.984375 22.515625 14.984375 16.5 
Q 14.984375 11.71875 18.140625 8.90625 
Q 21.296875 6.109375 26.703125 6.109375 
Q 34.1875 6.109375 38.703125 11.40625 
Q 43.21875 16.703125 43.21875 25.484375 
L 43.21875 27.484375 
z
M 52.203125 31.203125 
L 52.203125 0 
L 43.21875 0 
L 43.21875 8.296875 
Q 40.140625 3.328125 35.546875 0.953125 
Q 30.953125 -1.421875 24.3125 -1.421875 
Q 15.921875 -1.421875 10.953125 3.296875 
Q 6 8.015625 6 15.921875 
Q 6 25.140625 12.171875 29.828125 
Q 18.359375 34.515625 30.609375 34.515625 
L 43.21875 34.515625 
L 43.21875 35.40625 
Q 43.21875 41.609375 39.140625 45 
Q 35.0625 48.390625 27.6875 48.390625 
Q 23 48.390625 18.546875 47.265625 
Q 14.109375 46.140625 10.015625 43.890625 
L 10.015625 52.203125 
Q 14.9375 54.109375 19.578125 55.046875 
Q 24.21875 56 28.609375 56 
Q 40.484375 56 46.34375 49.84375 
Q 52.203125 43.703125 52.203125 31.203125 
z
" id="DejaVuSans-97"/>
      </defs>
      <g transform="translate(154.7984 161.26499)rotate(-90)scale(0.08 -0.08)">
       <use xlink:href="#DejaVuSans-50"/>
       <use x="63.623047" xlink:href="#DejaVuSans-57"/>
       <use x="127.246094" xlink:href="#DejaVuSans-32"/>
       <use x="159.033203" xlink:href="#DejaVuSans-77"/>
       <use x="245.3125" xlink:href="#DejaVuSans-97"/>
       <use x="306.591797" xlink:href="#DejaVuSans-114"/>
      </g>
     </g>
    </g>
    <g id="xtick_5">
     <g id="line2d_5">
      <g>
       <use style="stroke:#000000;stroke-width:0.8;" x="136.708267" xlink:href="#meaeab0a4b1" y="126.44874"/>
      </g>
     </g>
     <g id="text_5">
      <!-- 22 Mar -->
      <g transform="translate(138.915767 161.26499)rotate(-90)scale(0.08 -0.08)">
       <use xlink:href="#DejaVuSans-50"/>
       <use x="63.623047" xlink:href="#DejaVuSans-50"/>
       <use x="127.246094" xlink:href="#DejaVuSans-32"/>
       <use x="159.033203" xlink:href="#DejaVuSans-77"/>
       <use x="245.3125" xlink:href="#DejaVuSans-97"/>
       <use x="306.591797" xlink:href="#DejaVuSans-114"/>
      </g>
     </g>
    </g>
    <g id="xtick_6">
     <g id="line2d_6">
      <g>
       <use style="stroke:#000000;stroke-width:0.8;" x="120.825634" xlink:href="#meaeab0a4b1" y="126.44874"/>
      </g>
     </g>
     <g id="text_6">
      <!-- 15 Mar -->
      <g transform="translate(123.033134 161.26499)rotate(-90)scale(0.08 -0.08)">
       <use xlink:href="#DejaVuSans-49"/>
       <use x="63.623047" xlink:href="#DejaVuSans-53"/>
       <use x="127.246094" xlink:href="#DejaVuSans-32"/>
       <use x="159.033203" xlink:href="#DejaVuSans-77"/>
       <use x="245.3125" xlink:href="#DejaVuSans-97"/>
       <use x="306.591797" xlink:href="#DejaVuSans-114"/>
      </g>
     </g>
    </g>
    <g id="xtick_7">
     <g id="line2d_7">
      <g>
       <use style="stroke:#000000;stroke-width:0.8;" x="104.943001" xlink:href="#meaeab0a4b1" y="126.44874"/>
      </g>
     </g>
     <g id="text_7">
      <!-- 8 Mar -->
      <defs>
       <path d="M 31.78125 34.625 
Q 24.75 34.625 20.71875 30.859375 
Q 16.703125 27.09375 16.703125 20.515625 
Q 16.703125 13.921875 20.71875 10.15625 
Q 24.75 6.390625 31.78125 6.390625 
Q 38.8125 6.390625 42.859375 10.171875 
Q 46.921875 13.96875 46.921875 20.515625 
Q 46.921875 27.09375 42.890625 30.859375 
Q 38.875 34.625 31.78125 34.625 
z
M 21.921875 38.8125 
Q 15.578125 40.375 12.03125 44.71875 
Q 8.5 49.078125 8.5 55.328125 
Q 8.5 64.0625 14.71875 69.140625 
Q 20.953125 74.21875 31.78125 74.21875 
Q 42.671875 74.21875 48.875 69.140625 
Q 55.078125 64.0625 55.078125 55.328125 
Q 55.078125 49.078125 51.53125 44.71875 
Q 48 40.375 41.703125 38.8125 
Q 48.828125 37.15625 52.796875 32.3125 
Q 56.78125 27.484375 56.78125 20.515625 
Q 56.78125 9.90625 50.3125 4.234375 
Q 43.84375 -1.421875 31.78125 -1.421875 
Q 19.734375 -1.421875 13.25 4.234375 
Q 6.78125 9.90625 6.78125 20.515625 
Q 6.78125 27.484375 10.78125 32.3125 
Q 14.796875 37.15625 21.921875 38.8125 
z
M 18.3125 54.390625 
Q 18.3125 48.734375 21.84375 45.5625 
Q 25.390625 42.390625 31.78125 42.390625 
Q 38.140625 42.390625 41.71875 45.5625 
Q 45.3125 48.734375 45.3125 54.390625 
Q 45.3125 60.0625 41.71875 63.234375 
Q 38.140625 66.40625 31.78125 66.40625 
Q 25.390625 66.40625 21.84375 63.234375 
Q 18.3125 60.0625 18.3125 54.390625 
z
" id="DejaVuSans-56"/>
      </defs>
      <g transform="translate(107.150501 156.17499)rotate(-90)scale(0.08 -0.08)">
       <use xlink:href="#DejaVuSans-56"/>
       <use x="63.623047" xlink:href="#DejaVuSans-32"/>
       <use x="95.410156" xlink:href="#DejaVuSans-77"/>
       <use x="181.689453" xlink:href="#DejaVuSans-97"/>
       <use x="242.96875" xlink:href="#DejaVuSans-114"/>
      </g>
     </g>
    </g>
    <g id="xtick_8">
     <g id="line2d_8">
      <g>
       <use style="stroke:#000000;stroke-width:0.8;" x="89.060368" xlink:href="#meaeab0a4b1" y="126.44874"/>
      </g>
     </g>
     <g id="text_8">
      <!-- 1 Mar -->
      <g transform="translate(91.267868 156.17499)rotate(-90)scale(0.08 -0.08)">
       <use xlink:href="#DejaVuSans-49"/>
       <use x="63.623047" xlink:href="#DejaVuSans-32"/>
       <use x="95.410156" xlink:href="#DejaVuSans-77"/>
       <use x="181.689453" xlink:href="#DejaVuSans-97"/>
       <use x="242.96875" xlink:href="#DejaVuSans-114"/>
      </g>
     </g>
    </g>
    <g id="xtick_9">
     <g id="line2d_9">
      <g>
       <use style="stroke:#000000;stroke-width:0.8;" x="73.177735" xlink:href="#meaeab0a4b1" y="126.44874"/>
      </g>
     </g>
     <g id="text_9">
      <!-- 23 Feb -->
      <defs>
       <path d="M 40.578125 39.3125 
Q 47.65625 37.796875 51.625 33 
Q 55.609375 28.21875 55.609375 21.1875 
Q 55.609375 10.40625 48.1875 4.484375 
Q 40.765625 -1.421875 27.09375 -1.421875 
Q 22.515625 -1.421875 17.65625 -0.515625 
Q 12.796875 0.390625 7.625 2.203125 
L 7.625 11.71875 
Q 11.71875 9.328125 16.59375 8.109375 
Q 21.484375 6.890625 26.8125 6.890625 
Q 36.078125 6.890625 40.9375 10.546875 
Q 45.796875 14.203125 45.796875 21.1875 
Q 45.796875 27.640625 41.28125 31.265625 
Q 36.765625 34.90625 28.71875 34.90625 
L 20.21875 34.90625 
L 20.21875 43.015625 
L 29.109375 43.015625 
Q 36.375 43.015625 40.234375 45.921875 
Q 44.09375 48.828125 44.09375 54.296875 
Q 44.09375 59.90625 40.109375 62.90625 
Q 36.140625 65.921875 28.71875 65.921875 
Q 24.65625 65.921875 20.015625 65.03125 
Q 15.375 64.15625 9.8125 62.3125 
L 9.8125 71.09375 
Q 15.4375 72.65625 20.34375 73.4375 
Q 25.25 74.21875 29.59375 74.21875 
Q 40.828125 74.21875 47.359375 69.109375 
Q 53.90625 64.015625 53.90625 55.328125 
Q 53.90625 49.265625 50.4375 45.09375 
Q 46.96875 40.921875 40.578125 39.3125 
z
" id="DejaVuSans-51"/>
       <path d="M 9.8125 72.90625 
L 51.703125 72.90625 
L 51.703125 64.59375 
L 19.671875 64.59375 
L 19.671875 43.109375 
L 48.578125 43.109375 
L 48.578125 34.8125 
L 19.671875 34.8125 
L 19.671875 0 
L 9.8125 0 
z
" id="DejaVuSans-70"/>
       <path d="M 56.203125 29.59375 
L 56.203125 25.203125 
L 14.890625 25.203125 
Q 15.484375 15.921875 20.484375 11.0625 
Q 25.484375 6.203125 34.421875 6.203125 
Q 39.59375 6.203125 44.453125 7.46875 
Q 49.3125 8.734375 54.109375 11.28125 
L 54.109375 2.78125 
Q 49.265625 0.734375 44.1875 -0.34375 
Q 39.109375 -1.421875 33.890625 -1.421875 
Q 20.796875 -1.421875 13.15625 6.1875 
Q 5.515625 13.8125 5.515625 26.8125 
Q 5.515625 40.234375 12.765625 48.109375 
Q 20.015625 56 32.328125 56 
Q 43.359375 56 49.78125 48.890625 
Q 56.203125 41.796875 56.203125 29.59375 
z
M 47.21875 32.234375 
Q 47.125 39.59375 43.09375 43.984375 
Q 39.0625 48.390625 32.421875 48.390625 
Q 24.90625 48.390625 20.390625 44.140625 
Q 15.875 39.890625 15.1875 32.171875 
z
" id="DejaVuSans-101"/>
       <path d="M 48.6875 27.296875 
Q 48.6875 37.203125 44.609375 42.84375 
Q 40.53125 48.484375 33.40625 48.484375 
Q 26.265625 48.484375 22.1875 42.84375 
Q 18.109375 37.203125 18.109375 27.296875 
Q 18.109375 17.390625 22.1875 11.75 
Q 26.265625 6.109375 33.40625 6.109375 
Q 40.53125 6.109375 44.609375 11.75 
Q 48.6875 17.390625 48.6875 27.296875 
z
M 18.109375 46.390625 
Q 20.953125 51.265625 25.265625 53.625 
Q 29.59375 56 35.59375 56 
Q 45.5625 56 51.78125 48.09375 
Q 58.015625 40.1875 58.015625 27.296875 
Q 58.015625 14.40625 51.78125 6.484375 
Q 45.5625 -1.421875 35.59375 -1.421875 
Q 29.59375 -1.421875 25.265625 0.953125 
Q 20.953125 3.328125 18.109375 8.203125 
L 18.109375 0 
L 9.078125 0 
L 9.078125 75.984375 
L 18.109375 75.984375 
z
" id="DejaVuSans-98"/>
      </defs>
      <g transform="translate(75.385235 160.33374)rotate(-90)scale(0.08 -0.08)">
       <use xlink:href="#DejaVuSans-50"/>
       <use x="63.623047" xlink:href="#DejaVuSans-51"/>
       <use x="127.246094" xlink:href="#DejaVuSans-32"/>
       <use x="159.033203" xlink:href="#DejaVuSans-70"/>
       <use x="211.052734" xlink:href="#DejaVuSans-101"/>
       <use x="272.576172" xlink:href="#DejaVuSans-98"/>
      </g>
     </g>
    </g>
    <g id="xtick_10">
     <g id="line2d_10">
      <g>
       <use style="stroke:#000000;stroke-width:0.8;" x="57.295102" xlink:href="#meaeab0a4b1" y="126.44874"/>
      </g>
     </g>
     <g id="text_10">
      <!-- 16 Feb -->
      <defs>
       <path d="M 33.015625 40.375 
Q 26.375 40.375 22.484375 35.828125 
Q 18.609375 31.296875 18.609375 23.390625 
Q 18.609375 15.53125 22.484375 10.953125 
Q 26.375 6.390625 33.015625 6.390625 
Q 39.65625 6.390625 43.53125 10.953125 
Q 47.40625 15.53125 47.40625 23.390625 
Q 47.40625 31.296875 43.53125 35.828125 
Q 39.65625 40.375 33.015625 40.375 
z
M 52.59375 71.296875 
L 52.59375 62.3125 
Q 48.875 64.0625 45.09375 64.984375 
Q 41.3125 65.921875 37.59375 65.921875 
Q 27.828125 65.921875 22.671875 59.328125 
Q 17.53125 52.734375 16.796875 39.40625 
Q 19.671875 43.65625 24.015625 45.921875 
Q 28.375 48.1875 33.59375 48.1875 
Q 44.578125 48.1875 50.953125 41.515625 
Q 57.328125 34.859375 57.328125 23.390625 
Q 57.328125 12.15625 50.6875 5.359375 
Q 44.046875 -1.421875 33.015625 -1.421875 
Q 20.359375 -1.421875 13.671875 8.265625 
Q 6.984375 17.96875 6.984375 36.375 
Q 6.984375 53.65625 15.1875 63.9375 
Q 23.390625 74.21875 37.203125 74.21875 
Q 40.921875 74.21875 44.703125 73.484375 
Q 48.484375 72.75 52.59375 71.296875 
z
" id="DejaVuSans-54"/>
      </defs>
      <g transform="translate(59.502602 160.33374)rotate(-90)scale(0.08 -0.08)">
       <use xlink:href="#DejaVuSans-49"/>
       <use x="63.623047" xlink:href="#DejaVuSans-54"/>
       <use x="127.246094" xlink:href="#DejaVuSans-32"/>
       <use x="159.033203" xlink:href="#DejaVuSans-70"/>
       <use x="211.052734" xlink:href="#DejaVuSans-101"/>
       <use x="272.576172" xlink:href="#DejaVuSans-98"/>
      </g>
     </g>
    </g>
   </g>
   <g id="matplotlib.axis_2">
    <g id="ytick_1">
     <g id="line2d_11">
      <defs>
       <path d="M 0 0 
L -3.5 0 
" id="m494875d2c7" style="stroke:#000000;stroke-width:0.8;"/>
      </defs>
      <g>
       <use style="stroke:#000000;stroke-width:0.8;" x="39.62" xlink:href="#m494875d2c7" y="126.44874"/>
      </g>
     </g>
     <g id="text_11">
      <!-- 0 -->
      <defs>
       <path d="M 31.78125 66.40625 
Q 24.171875 66.40625 20.328125 58.90625 
Q 16.5 51.421875 16.5 36.375 
Q 16.5 21.390625 20.328125 13.890625 
Q 24.171875 6.390625 31.78125 6.390625 
Q 39.453125 6.390625 43.28125 13.890625 
Q 47.125 21.390625 47.125 36.375 
Q 47.125 51.421875 43.28125 58.90625 
Q 39.453125 66.40625 31.78125 66.40625 
z
M 31.78125 74.21875 
Q 44.046875 74.21875 50.515625 64.515625 
Q 56.984375 54.828125 56.984375 36.375 
Q 56.984375 17.96875 50.515625 8.265625 
Q 44.046875 -1.421875 31.78125 -1.421875 
Q 19.53125 -1.421875 13.0625 8.265625 
Q 6.59375 17.96875 6.59375 36.375 
Q 6.59375 54.828125 13.0625 64.515625 
Q 19.53125 74.21875 31.78125 74.21875 
z
" id="DejaVuSans-48"/>
      </defs>
      <g transform="translate(27.53 129.488115)scale(0.08 -0.08)">
       <use xlink:href="#DejaVuSans-48"/>
      </g>
     </g>
    </g>
    <g id="ytick_2">
     <g id="line2d_12">
      <g>
       <use style="stroke:#000000;stroke-width:0.8;" x="39.62" xlink:href="#m494875d2c7" y="98.902897"/>
      </g>
     </g>
     <g id="text_12">
      <!-- 1 -->
      <g transform="translate(27.53 101.942272)scale(0.08 -0.08)">
       <use xlink:href="#DejaVuSans-49"/>
      </g>
     </g>
    </g>
    <g id="ytick_3">
     <g id="line2d_13">
      <g>
       <use style="stroke:#000000;stroke-width:0.8;" x="39.62" xlink:href="#m494875d2c7" y="71.357054"/>
      </g>
     </g>
     <g id="text_13">
      <!-- 2 -->
      <g transform="translate(27.53 74.396429)scale(0.08 -0.08)">
       <use xlink:href="#DejaVuSans-50"/>
      </g>
     </g>
    </g>
    <g id="ytick_4">
     <g id="line2d_14">
      <g>
       <use style="stroke:#000000;stroke-width:0.8;" x="39.62" xlink:href="#m494875d2c7" y="43.811211"/>
      </g>
     </g>
     <g id="text_14">
      <!-- 3 -->
      <g transform="translate(27.53 46.850586)scale(0.08 -0.08)">
       <use xlink:href="#DejaVuSans-51"/>
      </g>
     </g>
    </g>
    <g id="text_15">
     <!-- Cumulative cases -->
     <defs>
      <path d="M 64.40625 67.28125 
L 64.40625 56.890625 
Q 59.421875 61.53125 53.78125 63.8125 
Q 48.140625 66.109375 41.796875 66.109375 
Q 29.296875 66.109375 22.65625 58.46875 
Q 16.015625 50.828125 16.015625 36.375 
Q 16.015625 21.96875 22.65625 14.328125 
Q 29.296875 6.6875 41.796875 6.6875 
Q 48.140625 6.6875 53.78125 8.984375 
Q 59.421875 11.28125 64.40625 15.921875 
L 64.40625 5.609375 
Q 59.234375 2.09375 53.4375 0.328125 
Q 47.65625 -1.421875 41.21875 -1.421875 
Q 24.65625 -1.421875 15.125 8.703125 
Q 5.609375 18.84375 5.609375 36.375 
Q 5.609375 53.953125 15.125 64.078125 
Q 24.65625 74.21875 41.21875 74.21875 
Q 47.75 74.21875 53.53125 72.484375 
Q 59.328125 70.75 64.40625 67.28125 
z
" id="DejaVuSans-67"/>
      <path d="M 8.5 21.578125 
L 8.5 54.6875 
L 17.484375 54.6875 
L 17.484375 21.921875 
Q 17.484375 14.15625 20.5 10.265625 
Q 23.53125 6.390625 29.59375 6.390625 
Q 36.859375 6.390625 41.078125 11.03125 
Q 45.3125 15.671875 45.3125 23.6875 
L 45.3125 54.6875 
L 54.296875 54.6875 
L 54.296875 0 
L 45.3125 0 
L 45.3125 8.40625 
Q 42.046875 3.421875 37.71875 1 
Q 33.40625 -1.421875 27.6875 -1.421875 
Q 18.265625 -1.421875 13.375 4.4375 
Q 8.5 10.296875 8.5 21.578125 
z
M 31.109375 56 
z
" id="DejaVuSans-117"/>
      <path d="M 52 44.1875 
Q 55.375 50.25 60.0625 53.125 
Q 64.75 56 71.09375 56 
Q 79.640625 56 84.28125 50.015625 
Q 88.921875 44.046875 88.921875 33.015625 
L 88.921875 0 
L 79.890625 0 
L 79.890625 32.71875 
Q 79.890625 40.578125 77.09375 44.375 
Q 74.3125 48.1875 68.609375 48.1875 
Q 61.625 48.1875 57.5625 43.546875 
Q 53.515625 38.921875 53.515625 30.90625 
L 53.515625 0 
L 44.484375 0 
L 44.484375 32.71875 
Q 44.484375 40.625 41.703125 44.40625 
Q 38.921875 48.1875 33.109375 48.1875 
Q 26.21875 48.1875 22.15625 43.53125 
Q 18.109375 38.875 18.109375 30.90625 
L 18.109375 0 
L 9.078125 0 
L 9.078125 54.6875 
L 18.109375 54.6875 
L 18.109375 46.1875 
Q 21.1875 51.21875 25.484375 53.609375 
Q 29.78125 56 35.6875 56 
Q 41.65625 56 45.828125 52.96875 
Q 50 49.953125 52 44.1875 
z
" id="DejaVuSans-109"/>
      <path d="M 9.421875 75.984375 
L 18.40625 75.984375 
L 18.40625 0 
L 9.421875 0 
z
" id="DejaVuSans-108"/>
      <path d="M 18.3125 70.21875 
L 18.3125 54.6875 
L 36.8125 54.6875 
L 36.8125 47.703125 
L 18.3125 47.703125 
L 18.3125 18.015625 
Q 18.3125 11.328125 20.140625 9.421875 
Q 21.96875 7.515625 27.59375 7.515625 
L 36.8125 7.515625 
L 36.8125 0 
L 27.59375 0 
Q 17.1875 0 13.234375 3.875 
Q 9.28125 7.765625 9.28125 18.015625 
L 9.28125 47.703125 
L 2.6875 47.703125 
L 2.6875 54.6875 
L 9.28125 54.6875 
L 9.28125 70.21875 
z
" id="DejaVuSans-116"/>
      <path d="M 9.421875 54.6875 
L 18.40625 54.6875 
L 18.40625 0 
L 9.421875 0 
z
M 9.421875 75.984375 
L 18.40625 75.984375 
L 18.40625 64.59375 
L 9.421875 64.59375 
z
" id="DejaVuSans-105"/>
      <path d="M 2.984375 54.6875 
L 12.5 54.6875 
L 29.59375 8.796875 
L 46.6875 54.6875 
L 56.203125 54.6875 
L 35.6875 0 
L 23.484375 0 
z
" id="DejaVuSans-118"/>
      <path d="M 48.78125 52.59375 
L 48.78125 44.1875 
Q 44.96875 46.296875 41.140625 47.34375 
Q 37.3125 48.390625 33.40625 48.390625 
Q 24.65625 48.390625 19.8125 42.84375 
Q 14.984375 37.3125 14.984375 27.296875 
Q 14.984375 17.28125 19.8125 11.734375 
Q 24.65625 6.203125 33.40625 6.203125 
Q 37.3125 6.203125 41.140625 7.25 
Q 44.96875 8.296875 48.78125 10.40625 
L 48.78125 2.09375 
Q 45.015625 0.34375 40.984375 -0.53125 
Q 36.96875 -1.421875 32.421875 -1.421875 
Q 20.0625 -1.421875 12.78125 6.34375 
Q 5.515625 14.109375 5.515625 27.296875 
Q 5.515625 40.671875 12.859375 48.328125 
Q 20.21875 56 33.015625 56 
Q 37.15625 56 41.109375 55.140625 
Q 45.0625 54.296875 48.78125 52.59375 
z
" id="DejaVuSans-99"/>
      <path d="M 44.28125 53.078125 
L 44.28125 44.578125 
Q 40.484375 46.53125 36.375 47.5 
Q 32.28125 48.484375 27.875 48.484375 
Q 21.1875 48.484375 17.84375 46.4375 
Q 14.5 44.390625 14.5 40.28125 
Q 14.5 37.15625 16.890625 35.375 
Q 19.28125 33.59375 26.515625 31.984375 
L 29.59375 31.296875 
Q 39.15625 29.25 43.1875 25.515625 
Q 47.21875 21.78125 47.21875 15.09375 
Q 47.21875 7.46875 41.1875 3.015625 
Q 35.15625 -1.421875 24.609375 -1.421875 
Q 20.21875 -1.421875 15.453125 -0.5625 
Q 10.6875 0.296875 5.421875 2 
L 5.421875 11.28125 
Q 10.40625 8.6875 15.234375 7.390625 
Q 20.0625 6.109375 24.8125 6.109375 
Q 31.15625 6.109375 34.5625 8.28125 
Q 37.984375 10.453125 37.984375 14.40625 
Q 37.984375 18.0625 35.515625 20.015625 
Q 33.0625 21.96875 24.703125 23.78125 
L 21.578125 24.515625 
Q 13.234375 26.265625 9.515625 29.90625 
Q 5.8125 33.546875 5.8125 39.890625 
Q 5.8125 47.609375 11.28125 51.796875 
Q 16.75 56 26.8125 56 
Q 31.78125 56 36.171875 55.265625 
Q 40.578125 54.546875 44.28125 53.078125 
z
" id="DejaVuSans-115"/>
     </defs>
     <g transform="translate(21.86625 107.304995)rotate(-90)scale(0.08 -0.08)">
      <use xlink:href="#DejaVuSans-67"/>
      <use x="69.824219" xlink:href="#DejaVuSans-117"/>
      <use x="133.203125" xlink:href="#DejaVuSans-109"/>
      <use x="230.615234" xlink:href="#DejaVuSans-117"/>
      <use x="293.994141" xlink:href="#DejaVuSans-108"/>
      <use x="321.777344" xlink:href="#DejaVuSans-97"/>
      <use x="383.056641" xlink:href="#DejaVuSans-116"/>
      <use x="422.265625" xlink:href="#DejaVuSans-105"/>
      <use x="450.048828" xlink:href="#DejaVuSans-118"/>
      <use x="509.228516" xlink:href="#DejaVuSans-101"/>
      <use x="570.751953" xlink:href="#DejaVuSans-32"/>
      <use x="602.539062" xlink:href="#DejaVuSans-99"/>
      <use x="657.519531" xlink:href="#DejaVuSans-97"/>
      <use x="718.798828" xlink:href="#DejaVuSans-115"/>
      <use x="770.898438" xlink:href="#DejaVuSans-101"/>
      <use x="832.421875" xlink:href="#DejaVuSans-115"/>
     </g>
    </g>
    <g id="text_16">
     <!-- 1e6 -->
     <g transform="translate(39.62 14.4)scale(0.08 -0.08)">
      <use xlink:href="#DejaVuSans-49"/>
      <use x="63.623047" xlink:href="#DejaVuSans-101"/>
      <use x="125.146484" xlink:href="#DejaVuSans-54"/>
     </g>
    </g>
   </g>
   <g id="line2d_15">
    <path clip-path="url(#p7de5cd995f)" d="M 48.219311 126.447059 
L 50.488259 126.445378 
L 52.757206 126.443696 
L 55.026154 126.442015 
L 57.295102 126.440334 
L 59.564049 126.438652 
L 61.832997 126.436312 
L 64.101944 126.433622 
L 66.370892 126.430463 
L 68.63984 126.426635 
L 70.908787 126.42226 
L 73.177735 126.417077 
L 75.446682 126.410837 
L 77.71563 126.402041 
L 79.984577 126.392925 
L 82.253525 126.381565 
L 84.522473 126.367974 
L 86.79142 126.351627 
L 89.060368 126.33102 
L 91.329315 126.304703 
L 93.598263 126.273922 
L 95.86721 126.236438 
L 98.136158 126.192383 
L 100.405106 126.130172 
L 102.674053 126.064144 
L 104.943001 125.982232 
L 107.211948 125.876617 
L 109.480896 125.743677 
L 111.749843 125.580467 
L 114.018791 125.335176 
L 116.287739 125.029961 
L 118.556686 124.692801 
L 120.825634 124.263236 
L 123.094581 123.41709 
L 125.363529 122.323473 
L 127.632476 120.818937 
L 129.901424 118.590053 
L 132.170372 116.711744 
L 134.439319 114.862398 
L 136.708267 113.453892 
L 138.977214 111.448007 
L 141.246162 110.185509 
L 143.51511 108.899399 
L 145.784057 107.625962 
L 148.053005 106.355323 
L 150.321952 105.389726 
L 152.5909 104.592176 
" style="fill:none;stroke:#0000ff;stroke-linecap:square;stroke-opacity:0.5;"/>
   </g>
   <g id="line2d_16">
    <path clip-path="url(#p7de5cd995f)" d="M 154.859847 103.800471 
L 157.128795 103.026597 
L 159.397743 102.277018 
L 161.66669 101.553637 
L 163.935638 100.855538 
L 166.204585 100.180316 
L 168.473533 99.524889 
L 170.74248 98.885936 
L 173.011428 98.260096 
L 175.280376 97.644051 
L 177.549323 97.034529 
L 179.818271 96.428286 
L 182.087218 95.822072 
L 184.356166 95.212587 
L 186.625113 94.596436 
L 188.894061 93.970084 
L 191.163009 93.329801 
L 193.431956 92.671611 
L 195.700904 91.991231 
L 197.969851 91.284003 
L 200.238799 90.544822 
" style="fill:none;stroke:#008000;stroke-linecap:square;stroke-opacity:0.5;"/>
   </g>
   <g id="line2d_17">
    <path clip-path="url(#p7de5cd995f)" d="M 141.246162 126.44874 
L 141.246162 17.4 
" style="fill:none;stroke:#0000ff;stroke-dasharray:1.85,0.8;stroke-dashoffset:0;stroke-width:0.5;"/>
   </g>
   <g id="line2d_18">
    <path clip-path="url(#p7de5cd995f)" d="M 134.439319 126.44874 
L 134.439319 17.4 
" style="fill:none;stroke:#0000ff;stroke-dasharray:1.85,0.8;stroke-dashoffset:0;stroke-width:0.5;"/>
   </g>
   <g id="line2d_19">
    <path clip-path="url(#p7de5cd995f)" d="M 141.246162 126.44874 
L 141.246162 17.4 
" style="fill:none;stroke:#0000ff;stroke-dasharray:1.85,0.8;stroke-dashoffset:0;stroke-width:0.5;"/>
   </g>
   <g id="line2d_20">
    <path clip-path="url(#p7de5cd995f)" d="M 123.094581 126.44874 
L 123.094581 17.4 
" style="fill:none;stroke:#0000ff;stroke-dasharray:1.85,0.8;stroke-dashoffset:0;stroke-width:0.5;"/>
   </g>
   <g id="line2d_21">
    <path clip-path="url(#p7de5cd995f)" d="M 114.018791 126.44874 
L 114.018791 17.4 
" style="fill:none;stroke:#0000ff;stroke-dasharray:1.85,0.8;stroke-dashoffset:0;stroke-width:0.5;"/>
   </g>
   <g id="patch_71">
    <path d="M 39.62 126.44874 
L 39.62 17.4 
" style="fill:none;stroke:#000000;stroke-linecap:square;stroke-linejoin:miter;stroke-width:0.8;"/>
   </g>
   <g id="patch_72">
    <path d="M 208.83811 126.44874 
L 208.83811 17.4 
" style="fill:none;stroke:#000000;stroke-linecap:square;stroke-linejoin:miter;stroke-width:0.8;"/>
   </g>
   <g id="patch_73">
    <path d="M 39.62 126.44874 
L 208.83811 126.44874 
" style="fill:none;stroke:#000000;stroke-linecap:square;stroke-linejoin:miter;stroke-width:0.8;"/>
   </g>
   <g id="patch_74">
    <path d="M 39.62 17.4 
L 208.83811 17.4 
" style="fill:none;stroke:#000000;stroke-linecap:square;stroke-linejoin:miter;stroke-width:0.8;"/>
   </g>
   <g id="legend_1">
    <g id="line2d_22">
     <path d="M 46.82 103.04249 
L 62.82 103.04249 
" style="fill:none;stroke:#0000ff;stroke-linecap:square;stroke-opacity:0.5;"/>
    </g>
    <g id="line2d_23"/>
    <g id="text_17">
     <!-- Simulation -->
     <defs>
      <path d="M 53.515625 70.515625 
L 53.515625 60.890625 
Q 47.90625 63.578125 42.921875 64.890625 
Q 37.9375 66.21875 33.296875 66.21875 
Q 25.25 66.21875 20.875 63.09375 
Q 16.5 59.96875 16.5 54.203125 
Q 16.5 49.359375 19.40625 46.890625 
Q 22.3125 44.4375 30.421875 42.921875 
L 36.375 41.703125 
Q 47.40625 39.59375 52.65625 34.296875 
Q 57.90625 29 57.90625 20.125 
Q 57.90625 9.515625 50.796875 4.046875 
Q 43.703125 -1.421875 29.984375 -1.421875 
Q 24.8125 -1.421875 18.96875 -0.25 
Q 13.140625 0.921875 6.890625 3.21875 
L 6.890625 13.375 
Q 12.890625 10.015625 18.65625 8.296875 
Q 24.421875 6.59375 29.984375 6.59375 
Q 38.421875 6.59375 43.015625 9.90625 
Q 47.609375 13.234375 47.609375 19.390625 
Q 47.609375 24.75 44.3125 27.78125 
Q 41.015625 30.8125 33.5 32.328125 
L 27.484375 33.5 
Q 16.453125 35.6875 11.515625 40.375 
Q 6.59375 45.0625 6.59375 53.421875 
Q 6.59375 63.09375 13.40625 68.65625 
Q 20.21875 74.21875 32.171875 74.21875 
Q 37.3125 74.21875 42.625 73.28125 
Q 47.953125 72.359375 53.515625 70.515625 
z
" id="DejaVuSans-83"/>
      <path d="M 30.609375 48.390625 
Q 23.390625 48.390625 19.1875 42.75 
Q 14.984375 37.109375 14.984375 27.296875 
Q 14.984375 17.484375 19.15625 11.84375 
Q 23.34375 6.203125 30.609375 6.203125 
Q 37.796875 6.203125 41.984375 11.859375 
Q 46.1875 17.53125 46.1875 27.296875 
Q 46.1875 37.015625 41.984375 42.703125 
Q 37.796875 48.390625 30.609375 48.390625 
z
M 30.609375 56 
Q 42.328125 56 49.015625 48.375 
Q 55.71875 40.765625 55.71875 27.296875 
Q 55.71875 13.875 49.015625 6.21875 
Q 42.328125 -1.421875 30.609375 -1.421875 
Q 18.84375 -1.421875 12.171875 6.21875 
Q 5.515625 13.875 5.515625 27.296875 
Q 5.515625 40.765625 12.171875 48.375 
Q 18.84375 56 30.609375 56 
z
" id="DejaVuSans-111"/>
      <path d="M 54.890625 33.015625 
L 54.890625 0 
L 45.90625 0 
L 45.90625 32.71875 
Q 45.90625 40.484375 42.875 44.328125 
Q 39.84375 48.1875 33.796875 48.1875 
Q 26.515625 48.1875 22.3125 43.546875 
Q 18.109375 38.921875 18.109375 30.90625 
L 18.109375 0 
L 9.078125 0 
L 9.078125 54.6875 
L 18.109375 54.6875 
L 18.109375 46.1875 
Q 21.34375 51.125 25.703125 53.5625 
Q 30.078125 56 35.796875 56 
Q 45.21875 56 50.046875 50.171875 
Q 54.890625 44.34375 54.890625 33.015625 
z
" id="DejaVuSans-110"/>
     </defs>
     <g transform="translate(69.22 105.84249)scale(0.08 -0.08)">
      <use xlink:href="#DejaVuSans-83"/>
      <use x="63.476562" xlink:href="#DejaVuSans-105"/>
      <use x="91.259766" xlink:href="#DejaVuSans-109"/>
      <use x="188.671875" xlink:href="#DejaVuSans-117"/>
      <use x="252.050781" xlink:href="#DejaVuSans-108"/>
      <use x="279.833984" xlink:href="#DejaVuSans-97"/>
      <use x="341.113281" xlink:href="#DejaVuSans-116"/>
      <use x="380.322266" xlink:href="#DejaVuSans-105"/>
      <use x="408.105469" xlink:href="#DejaVuSans-111"/>
      <use x="469.287109" xlink:href="#DejaVuSans-110"/>
     </g>
    </g>
    <g id="line2d_24">
     <path d="M 46.82 114.78499 
L 62.82 114.78499 
" style="fill:none;stroke:#008000;stroke-linecap:square;stroke-opacity:0.5;"/>
    </g>
    <g id="line2d_25"/>
    <g id="text_18">
     <!-- Forecast -->
     <g transform="translate(69.22 117.58499)scale(0.08 -0.08)">
      <use xlink:href="#DejaVuSans-70"/>
      <use x="53.894531" xlink:href="#DejaVuSans-111"/>
      <use x="115.076172" xlink:href="#DejaVuSans-114"/>
      <use x="153.939453" xlink:href="#DejaVuSans-101"/>
      <use x="215.462891" xlink:href="#DejaVuSans-99"/>
      <use x="270.443359" xlink:href="#DejaVuSans-97"/>
      <use x="331.722656" xlink:href="#DejaVuSans-115"/>
      <use x="383.822266" xlink:href="#DejaVuSans-116"/>
     </g>
    </g>
   </g>
  </g>
  <g id="axes_2">
   <g id="matplotlib.axis_3">
    <g id="ytick_5">
     <g id="line2d_26">
      <defs>
       <path d="M 0 0 
L 3.5 0 
" id="m2bc0600772" style="stroke:#000000;stroke-width:0.8;"/>
      </defs>
      <g>
       <use style="stroke:#000000;stroke-width:0.8;" x="208.83811" xlink:href="#m2bc0600772" y="126.44874"/>
      </g>
     </g>
     <g id="text_19">
      <!-- 1.0 -->
      <defs>
       <path d="M 10.59375 35.5 
L 73.1875 35.5 
L 73.1875 27.203125 
L 10.59375 27.203125 
z
" id="DejaVuSans-8722"/>
       <path d="M 10.6875 12.40625 
L 21 12.40625 
L 21 0 
L 10.6875 0 
z
" id="DejaVuSans-46"/>
      </defs>
      <g transform="translate(215.83811 129.488115)scale(0.08 -0.08)">
       <use xlink:href="#DejaVuSans-8722"/>
       <use x="83.789062" xlink:href="#DejaVuSans-49"/>
       <use x="147.412109" xlink:href="#DejaVuSans-46"/>
       <use x="179.199219" xlink:href="#DejaVuSans-48"/>
      </g>
     </g>
    </g>
    <g id="ytick_6">
     <g id="line2d_27">
      <g>
       <use style="stroke:#000000;stroke-width:0.8;" x="208.83811" xlink:href="#m2bc0600772" y="87.502762"/>
      </g>
     </g>
     <g id="text_20">
      <!-- 0.5 -->
      <g transform="translate(215.83811 90.542137)scale(0.08 -0.08)">
       <use xlink:href="#DejaVuSans-8722"/>
       <use x="83.789062" xlink:href="#DejaVuSans-48"/>
       <use x="147.412109" xlink:href="#DejaVuSans-46"/>
       <use x="179.199219" xlink:href="#DejaVuSans-53"/>
      </g>
     </g>
    </g>
    <g id="ytick_7">
     <g id="line2d_28">
      <g>
       <use style="stroke:#000000;stroke-width:0.8;" x="208.83811" xlink:href="#m2bc0600772" y="48.556783"/>
      </g>
     </g>
     <g id="text_21">
      <!-- 0.0 -->
      <g transform="translate(215.83811 51.596158)scale(0.08 -0.08)">
       <use xlink:href="#DejaVuSans-48"/>
       <use x="63.623047" xlink:href="#DejaVuSans-46"/>
       <use x="95.410156" xlink:href="#DejaVuSans-48"/>
      </g>
     </g>
    </g>
    <g id="ytick_8">
     <g id="line2d_29">
      <g>
       <use style="stroke:#000000;stroke-width:0.8;" x="208.83811" xlink:href="#m2bc0600772" y="17.4"/>
      </g>
     </g>
     <g id="text_22">
      <!-- 0.4 -->
      <defs>
       <path d="M 37.796875 64.3125 
L 12.890625 25.390625 
L 37.796875 25.390625 
z
M 35.203125 72.90625 
L 47.609375 72.90625 
L 47.609375 25.390625 
L 58.015625 25.390625 
L 58.015625 17.1875 
L 47.609375 17.1875 
L 47.609375 0 
L 37.796875 0 
L 37.796875 17.1875 
L 4.890625 17.1875 
L 4.890625 26.703125 
z
" id="DejaVuSans-52"/>
      </defs>
      <g transform="translate(215.83811 20.439375)scale(0.08 -0.08)">
       <use xlink:href="#DejaVuSans-48"/>
       <use x="63.623047" xlink:href="#DejaVuSans-46"/>
       <use x="95.410156" xlink:href="#DejaVuSans-52"/>
      </g>
     </g>
    </g>
    <g id="text_23">
     <!-- Relative change -->
     <defs>
      <path d="M 44.390625 34.1875 
Q 47.5625 33.109375 50.5625 29.59375 
Q 53.5625 26.078125 56.59375 19.921875 
L 66.609375 0 
L 56 0 
L 46.6875 18.703125 
Q 43.0625 26.03125 39.671875 28.421875 
Q 36.28125 30.8125 30.421875 30.8125 
L 19.671875 30.8125 
L 19.671875 0 
L 9.8125 0 
L 9.8125 72.90625 
L 32.078125 72.90625 
Q 44.578125 72.90625 50.734375 67.671875 
Q 56.890625 62.453125 56.890625 51.90625 
Q 56.890625 45.015625 53.6875 40.46875 
Q 50.484375 35.9375 44.390625 34.1875 
z
M 19.671875 64.796875 
L 19.671875 38.921875 
L 32.078125 38.921875 
Q 39.203125 38.921875 42.84375 42.21875 
Q 46.484375 45.515625 46.484375 51.90625 
Q 46.484375 58.296875 42.84375 61.546875 
Q 39.203125 64.796875 32.078125 64.796875 
z
" id="DejaVuSans-82"/>
      <path d="M 54.890625 33.015625 
L 54.890625 0 
L 45.90625 0 
L 45.90625 32.71875 
Q 45.90625 40.484375 42.875 44.328125 
Q 39.84375 48.1875 33.796875 48.1875 
Q 26.515625 48.1875 22.3125 43.546875 
Q 18.109375 38.921875 18.109375 30.90625 
L 18.109375 0 
L 9.078125 0 
L 9.078125 75.984375 
L 18.109375 75.984375 
L 18.109375 46.1875 
Q 21.34375 51.125 25.703125 53.5625 
Q 30.078125 56 35.796875 56 
Q 45.21875 56 50.046875 50.171875 
Q 54.890625 44.34375 54.890625 33.015625 
z
" id="DejaVuSans-104"/>
      <path d="M 45.40625 27.984375 
Q 45.40625 37.75 41.375 43.109375 
Q 37.359375 48.484375 30.078125 48.484375 
Q 22.859375 48.484375 18.828125 43.109375 
Q 14.796875 37.75 14.796875 27.984375 
Q 14.796875 18.265625 18.828125 12.890625 
Q 22.859375 7.515625 30.078125 7.515625 
Q 37.359375 7.515625 41.375 12.890625 
Q 45.40625 18.265625 45.40625 27.984375 
z
M 54.390625 6.78125 
Q 54.390625 -7.171875 48.1875 -13.984375 
Q 42 -20.796875 29.203125 -20.796875 
Q 24.46875 -20.796875 20.265625 -20.09375 
Q 16.0625 -19.390625 12.109375 -17.921875 
L 12.109375 -9.1875 
Q 16.0625 -11.328125 19.921875 -12.34375 
Q 23.78125 -13.375 27.78125 -13.375 
Q 36.625 -13.375 41.015625 -8.765625 
Q 45.40625 -4.15625 45.40625 5.171875 
L 45.40625 9.625 
Q 42.625 4.78125 38.28125 2.390625 
Q 33.9375 0 27.875 0 
Q 17.828125 0 11.671875 7.65625 
Q 5.515625 15.328125 5.515625 27.984375 
Q 5.515625 40.671875 11.671875 48.328125 
Q 17.828125 56 27.875 56 
Q 33.9375 56 38.28125 53.609375 
Q 42.625 51.21875 45.40625 46.390625 
L 45.40625 54.6875 
L 54.390625 54.6875 
z
" id="DejaVuSans-103"/>
     </defs>
     <g transform="translate(245.34311 104.04812)rotate(-90)scale(0.08 -0.08)">
      <use xlink:href="#DejaVuSans-82"/>
      <use x="64.982422" xlink:href="#DejaVuSans-101"/>
      <use x="126.505859" xlink:href="#DejaVuSans-108"/>
      <use x="154.289062" xlink:href="#DejaVuSans-97"/>
      <use x="215.568359" xlink:href="#DejaVuSans-116"/>
      <use x="254.777344" xlink:href="#DejaVuSans-105"/>
      <use x="282.560547" xlink:href="#DejaVuSans-118"/>
      <use x="341.740234" xlink:href="#DejaVuSans-101"/>
      <use x="403.263672" xlink:href="#DejaVuSans-32"/>
      <use x="435.050781" xlink:href="#DejaVuSans-99"/>
      <use x="490.03125" xlink:href="#DejaVuSans-104"/>
      <use x="553.410156" xlink:href="#DejaVuSans-97"/>
      <use x="614.689453" xlink:href="#DejaVuSans-110"/>
      <use x="678.068359" xlink:href="#DejaVuSans-103"/>
      <use x="741.544922" xlink:href="#DejaVuSans-101"/>
     </g>
    </g>
   </g>
   <g id="line2d_30">
    <path clip-path="url(#p7de5cd995f)" d="M 48.219311 48.556783 
L 50.488259 48.556783 
L 52.757206 48.556783 
L 55.026154 57.903818 
L 57.295102 54.00922 
L 59.564049 40.767587 
L 61.832997 43.104346 
L 64.101944 43.883265 
L 66.370892 44.662185 
L 68.63984 44.662185 
L 70.908787 51.672461 
L 73.177735 49.335702 
L 75.446682 50.893542 
L 77.71563 49.335702 
L 79.984577 47.777863 
L 82.253525 46.998944 
L 84.522473 47.777863 
L 86.79142 47.777863 
L 89.060368 43.104346 
L 91.329315 45.441105 
L 93.598263 46.998944 
L 95.86721 46.998944 
L 98.136158 49.335702 
L 100.405106 44.662185 
L 102.674053 48.556783 
L 104.943001 45.441105 
L 107.211948 48.556783 
L 109.480896 50.114622 
L 111.749843 48.556783 
L 114.018791 49.335702 
L 116.287739 50.114622 
L 118.556686 56.345979 
L 120.825634 57.124898 
L 123.094581 50.893542 
L 125.363529 60.240576 
L 127.632476 64.914094 
L 129.901424 64.914094 
L 132.170372 70.366531 
L 134.439319 87.502762 
L 136.708267 92.176279 
L 138.977214 83.608164 
L 141.246162 103.860073 
L 143.51511 105.417912 
L 145.784057 106.196831 
L 148.053005 107.75467 
L 150.321952 113.207107 
L 152.5909 114.764947 
" style="fill:none;stroke:#d62728;stroke-linecap:square;stroke-opacity:0.5;"/>
   </g>
   <g id="line2d_31">
    <path clip-path="url(#p7de5cd995f)" d="M 48.219311 48.556783 
L 50.488259 48.556783 
L 52.757206 48.556783 
L 55.026154 54.00922 
L 57.295102 53.2303 
L 59.564049 47.777863 
L 61.832997 49.335702 
L 64.101944 50.114622 
L 66.370892 50.114622 
L 68.63984 49.335702 
L 70.908787 50.114622 
L 73.177735 50.114622 
L 75.446682 49.335702 
L 77.71563 45.441105 
L 79.984577 48.556783 
L 82.253525 47.777863 
L 84.522473 47.777863 
L 86.79142 47.777863 
L 89.060368 46.998944 
L 91.329315 45.441105 
L 93.598263 46.220024 
L 95.86721 46.220024 
L 98.136158 46.998944 
L 100.405106 43.883265 
L 102.674053 46.998944 
L 104.943001 46.998944 
L 107.211948 45.441105 
L 109.480896 44.662185 
L 111.749843 44.662185 
L 114.018791 39.988668 
L 116.287739 39.988668 
L 118.556686 43.104346 
L 120.825634 43.104346 
L 123.094581 32.978391 
L 125.363529 32.199472 
L 127.632476 31.420552 
L 129.901424 29.862713 
L 132.170372 40.767587 
L 134.439319 47.777863 
L 136.708267 59.461657 
L 138.977214 54.788139 
L 141.246162 67.250853 
L 143.51511 68.808692 
L 145.784057 70.366531 
L 148.053005 71.145451 
L 150.321952 78.934646 
L 152.5909 84.387083 
" style="fill:none;stroke:#9467bd;stroke-linecap:square;stroke-opacity:0.5;"/>
   </g>
   <g id="line2d_32">
    <path clip-path="url(#p7de5cd995f)" d="M 48.219311 48.556783 
L 50.488259 48.556783 
L 52.757206 48.556783 
L 55.026154 57.903818 
L 57.295102 54.00922 
L 59.564049 50.114622 
L 61.832997 50.893542 
L 64.101944 51.672461 
L 66.370892 52.451381 
L 68.63984 50.893542 
L 70.908787 50.114622 
L 73.177735 46.220024 
L 75.446682 50.114622 
L 77.71563 47.777863 
L 79.984577 49.335702 
L 82.253525 48.556783 
L 84.522473 48.556783 
L 86.79142 50.114622 
L 89.060368 44.662185 
L 91.329315 48.556783 
L 93.598263 49.335702 
L 95.86721 50.114622 
L 98.136158 50.893542 
L 100.405106 47.777863 
L 102.674053 49.335702 
L 104.943001 46.998944 
L 107.211948 50.893542 
L 109.480896 51.672461 
L 111.749843 53.2303 
L 114.018791 54.788139 
L 116.287739 55.567059 
L 118.556686 60.240576 
L 120.825634 61.019496 
L 123.094581 61.019496 
L 125.363529 69.587611 
L 127.632476 75.040048 
L 129.901424 77.376807 
L 132.170372 79.713566 
L 134.439319 84.387083 
L 136.708267 84.387083 
L 138.977214 89.83952 
L 141.246162 98.407636 
L 143.51511 101.523314 
L 145.784057 103.081153 
L 148.053005 103.860073 
L 150.321952 106.196831 
L 152.5909 106.975751 
" style="fill:none;stroke:#e377c2;stroke-linecap:square;stroke-opacity:0.5;"/>
   </g>
   <g id="line2d_33">
    <path clip-path="url(#p7de5cd995f)" d="M 48.219311 48.556783 
L 50.488259 48.556783 
L 52.757206 48.556783 
L 55.026154 51.672461 
L 57.295102 50.893542 
L 59.564049 59.461657 
L 61.832997 59.461657 
L 64.101944 59.461657 
L 66.370892 59.461657 
L 68.63984 60.240576 
L 70.908787 50.114622 
L 73.177735 49.335702 
L 75.446682 50.114622 
L 77.71563 47.777863 
L 79.984577 47.777863 
L 82.253525 48.556783 
L 84.522473 49.335702 
L 86.79142 48.556783 
L 89.060368 47.777863 
L 91.329315 47.777863 
L 93.598263 47.777863 
L 95.86721 47.777863 
L 98.136158 48.556783 
L 100.405106 47.777863 
L 102.674053 47.777863 
L 104.943001 47.777863 
L 107.211948 48.556783 
L 109.480896 48.556783 
L 111.749843 48.556783 
L 114.018791 49.335702 
L 116.287739 51.672461 
L 118.556686 50.114622 
L 120.825634 51.672461 
L 123.094581 55.567059 
L 125.363529 61.019496 
L 127.632476 66.471933 
L 129.901424 69.587611 
L 132.170372 71.145451 
L 134.439319 68.029772 
L 136.708267 71.92437 
L 138.977214 83.608164 
L 141.246162 93.734118 
L 143.51511 98.407636 
L 145.784057 99.965475 
L 148.053005 99.965475 
L 150.321952 92.955199 
L 152.5909 91.397359 
" style="fill:none;stroke:#bcbd22;stroke-linecap:square;stroke-opacity:0.5;"/>
   </g>
   <g id="line2d_34">
    <path clip-path="url(#p7de5cd995f)" d="M 48.219311 48.556783 
L 50.488259 48.556783 
L 52.757206 48.556783 
L 55.026154 46.998944 
L 57.295102 47.777863 
L 59.564049 46.998944 
L 61.832997 46.998944 
L 64.101944 46.220024 
L 66.370892 46.220024 
L 68.63984 46.220024 
L 70.908787 47.777863 
L 73.177735 48.556783 
L 75.446682 47.777863 
L 77.71563 48.556783 
L 79.984577 48.556783 
L 82.253525 48.556783 
L 84.522473 47.777863 
L 86.79142 48.556783 
L 89.060368 49.335702 
L 91.329315 48.556783 
L 93.598263 48.556783 
L 95.86721 47.777863 
L 98.136158 47.777863 
L 100.405106 48.556783 
L 102.674053 48.556783 
L 104.943001 49.335702 
L 107.211948 47.777863 
L 109.480896 47.777863 
L 111.749843 47.777863 
L 114.018791 46.998944 
L 116.287739 46.998944 
L 118.556686 46.998944 
L 120.825634 46.998944 
L 123.094581 45.441105 
L 125.363529 43.104346 
L 127.632476 40.767587 
L 129.901424 39.988668 
L 132.170372 38.430828 
L 134.439319 39.988668 
L 136.708267 41.546507 
L 138.977214 35.31515 
L 141.246162 29.862713 
L 143.51511 28.304874 
L 145.784057 27.525954 
L 148.053005 26.747035 
L 150.321952 32.978391 
L 152.5909 36.872989 
" style="fill:none;stroke:#17becf;stroke-linecap:square;stroke-opacity:0.5;"/>
   </g>
   <g id="patch_75">
    <path d="M 39.62 126.44874 
L 39.62 17.4 
" style="fill:none;stroke:#000000;stroke-linecap:square;stroke-linejoin:miter;stroke-width:0.8;"/>
   </g>
   <g id="patch_76">
    <path d="M 208.83811 126.44874 
L 208.83811 17.4 
" style="fill:none;stroke:#000000;stroke-linecap:square;stroke-linejoin:miter;stroke-width:0.8;"/>
   </g>
   <g id="patch_77">
    <path d="M 39.62 126.44874 
L 208.83811 126.44874 
" style="fill:none;stroke:#000000;stroke-linecap:square;stroke-linejoin:miter;stroke-width:0.8;"/>
   </g>
   <g id="patch_78">
    <path d="M 39.62 17.4 
L 208.83811 17.4 
" style="fill:none;stroke:#000000;stroke-linecap:square;stroke-linejoin:miter;stroke-width:0.8;"/>
   </g>
  </g>
 </g>
 <defs>
  <clipPath id="p7de5cd995f">
   <rect height="109.04874" width="169.21811" x="39.62" y="17.4"/>
  </clipPath>
 </defs>
</svg>
