<?xml version="1.0" encoding="utf-8" standalone="no"?>
<!DOCTYPE svg PUBLIC "-//W3C//DTD SVG 1.1//EN"
  "http://www.w3.org/Graphics/SVG/1.1/DTD/svg11.dtd">
<!-- Created with matplotlib (https://matplotlib.org/) -->
<svg height="170.07874pt" version="1.1" viewBox="0 0 255.11811 170.07874" width="255.11811pt" xmlns="http://www.w3.org/2000/svg" xmlns:xlink="http://www.w3.org/1999/xlink">
 <defs>
  <style type="text/css">
*{stroke-linecap:butt;stroke-linejoin:round;}
  </style>
 </defs>
 <g id="figure_1">
  <g id="patch_1">
   <path d="M 0 170.07874 
L 255.11811 170.07874 
L 255.11811 0 
L 0 0 
z
" style="fill:#ffffff;"/>
  </g>
  <g id="axes_1">
   <g id="patch_2">
    <path d="M 47.09 126.44874 
L 208.83811 126.44874 
L 208.83811 11.52 
L 47.09 11.52 
z
" style="fill:#ffffff;"/>
   </g>
   <g id="PolyCollection_1">
    <defs>
     <path d="M 55.309701 -43.63 
L 55.309701 -43.63 
L 57.478488 -43.63 
L 59.647275 -43.630009 
L 61.816062 -43.630039 
L 63.984848 -43.630108 
L 66.153635 -43.630238 
L 68.322422 -43.630446 
L 70.491208 -43.63075 
L 72.659995 -43.631166 
L 74.828782 -43.631714 
L 76.997568 -43.632417 
L 79.166355 -43.633302 
L 81.335142 -43.634408 
L 83.503928 -43.635758 
L 85.672715 -43.637427 
L 87.841502 -43.639489 
L 90.010288 -43.642014 
L 92.179075 -43.645159 
L 94.347862 -43.649028 
L 96.516648 -43.653789 
L 98.685435 -43.659653 
L 100.854222 -43.667036 
L 103.023008 -43.676297 
L 105.191795 -43.688218 
L 107.360582 -43.703388 
L 109.529368 -43.722143 
L 111.698155 -43.745902 
L 113.866942 -43.776163 
L 116.035728 -43.813302 
L 118.204515 -43.859973 
L 120.373302 -43.920018 
L 122.542088 -43.995013 
L 124.710875 -44.09197 
L 126.879662 -44.21353 
L 129.048448 -44.367066 
L 131.217235 -44.568198 
L 133.386022 -44.830794 
L 135.554808 -45.180637 
L 137.723595 -45.649399 
L 139.892382 -46.257511 
L 142.061169 -47.029154 
L 144.229955 -47.956445 
L 146.398742 -49.046346 
L 148.567529 -50.292381 
L 150.736315 -51.697304 
L 152.905102 -53.274578 
L 155.073889 -54.968037 
L 155.073889 -66.642192 
L 155.073889 -66.642192 
L 152.905102 -62.730008 
L 150.736315 -59.098618 
L 148.567529 -55.867143 
L 146.398742 -53.088134 
L 144.229955 -50.839276 
L 142.061169 -49.07685 
L 139.892382 -47.770755 
L 137.723595 -46.826699 
L 135.554808 -46.134271 
L 133.386022 -45.625689 
L 131.217235 -45.24304 
L 129.048448 -44.938306 
L 126.879662 -44.706102 
L 124.710875 -44.524386 
L 122.542088 -44.375696 
L 120.373302 -44.253454 
L 118.204515 -44.153996 
L 116.035728 -44.072677 
L 113.866942 -44.002852 
L 111.698155 -43.944863 
L 109.529368 -43.897551 
L 107.360582 -43.856671 
L 105.191795 -43.822992 
L 103.023008 -43.793724 
L 100.854222 -43.768982 
L 98.685435 -43.747852 
L 96.516648 -43.729414 
L 94.347862 -43.713878 
L 92.179075 -43.700403 
L 90.010288 -43.688416 
L 87.841502 -43.678169 
L 85.672715 -43.669413 
L 83.503928 -43.66172 
L 81.335142 -43.654924 
L 79.166355 -43.649167 
L 76.997568 -43.644329 
L 74.828782 -43.640315 
L 72.659995 -43.637074 
L 70.491208 -43.634563 
L 68.322422 -43.632714 
L 66.153635 -43.631446 
L 63.984848 -43.63066 
L 61.816062 -43.630237 
L 59.647275 -43.630054 
L 57.478488 -43.63 
L 55.309701 -43.63 
z
" id="mfa247345ff" style="stroke:#6495ed;stroke-opacity:0.4;"/>
    </defs>
    <g clip-path="url(#p2374e4cf12)">
     <use style="fill:#6495ed;fill-opacity:0.4;stroke:#6495ed;stroke-opacity:0.4;" x="0" xlink:href="#mfa247345ff" y="170.07874"/>
    </g>
   </g>
   <g id="PolyCollection_2">
    <defs>
     <path d="M 55.309701 -43.63 
L 55.309701 -43.63 
L 57.478488 -43.63 
L 59.647275 -43.630017 
L 61.816062 -43.630076 
L 63.984848 -43.63021 
L 66.153635 -43.630461 
L 68.322422 -43.630866 
L 70.491208 -43.631455 
L 72.659995 -43.632262 
L 74.828782 -43.633313 
L 76.997568 -43.634642 
L 79.166355 -43.636284 
L 81.335142 -43.638295 
L 83.503928 -43.640725 
L 85.672715 -43.643635 
L 87.841502 -43.647122 
L 90.010288 -43.651304 
L 92.179075 -43.656381 
L 94.347862 -43.66248 
L 96.516648 -43.669994 
L 98.685435 -43.679025 
L 100.854222 -43.689951 
L 103.023008 -43.70312 
L 105.191795 -43.719466 
L 107.360582 -43.739259 
L 109.529368 -43.763755 
L 111.698155 -43.794152 
L 113.866942 -43.83165 
L 116.035728 -43.877883 
L 118.204515 -43.934591 
L 120.373302 -44.00459 
L 122.542088 -44.092105 
L 124.710875 -44.202328 
L 126.879662 -44.340666 
L 129.048448 -44.517396 
L 131.217235 -44.744882 
L 133.386022 -45.039929 
L 135.554808 -45.438393 
L 137.723595 -45.971912 
L 139.892382 -46.680718 
L 142.061169 -47.583889 
L 144.229955 -48.719683 
L 146.398742 -50.111671 
L 148.567529 -51.74842 
L 150.736315 -53.622406 
L 152.905102 -55.714567 
L 155.073889 -57.934384 
L 155.073889 -61.842028 
L 155.073889 -61.842028 
L 152.905102 -58.856389 
L 150.736315 -56.095567 
L 148.567529 -53.642509 
L 146.398742 -51.512586 
L 144.229955 -49.735456 
L 142.061169 -48.301903 
L 139.892382 -47.193482 
L 137.723595 -46.369896 
L 135.554808 -45.755146 
L 133.386022 -45.309621 
L 131.217235 -44.971924 
L 129.048448 -44.714865 
L 126.879662 -44.513864 
L 124.710875 -44.354078 
L 122.542088 -44.226578 
L 120.373302 -44.120493 
L 118.204515 -44.03611 
L 116.035728 -43.967974 
L 113.866942 -43.91064 
L 111.698155 -43.863625 
L 109.529368 -43.824556 
L 107.360582 -43.79213 
L 105.191795 -43.765523 
L 103.023008 -43.742896 
L 100.854222 -43.724247 
L 98.685435 -43.708769 
L 96.516648 -43.695545 
L 94.347862 -43.684495 
L 92.179075 -43.675002 
L 90.010288 -43.666922 
L 87.841502 -43.660132 
L 85.672715 -43.654311 
L 83.503928 -43.649344 
L 81.335142 -43.645143 
L 79.166355 -43.641569 
L 76.997568 -43.638602 
L 74.828782 -43.636172 
L 72.659995 -43.634226 
L 70.491208 -43.632724 
L 68.322422 -43.63162 
L 66.153635 -43.630863 
L 63.984848 -43.630394 
L 61.816062 -43.630141 
L 59.647275 -43.630032 
L 57.478488 -43.63 
L 55.309701 -43.63 
z
" id="m1c68bdd58d" style="stroke:#6495ed;stroke-opacity:0.6;"/>
    </defs>
    <g clip-path="url(#p2374e4cf12)">
     <use style="fill:#6495ed;fill-opacity:0.6;stroke:#6495ed;stroke-opacity:0.6;" x="0" xlink:href="#m1c68bdd58d" y="170.07874"/>
    </g>
   </g>
   <g id="PolyCollection_3">
    <defs>
     <path d="M 155.073889 -66.642192 
L 155.073889 -54.968037 
L 157.242675 -56.717602 
L 159.411462 -58.429939 
L 161.580249 -60.147833 
L 163.749035 -61.819976 
L 165.917822 -63.451629 
L 168.086609 -64.763018 
L 170.255395 -65.866515 
L 172.424182 -66.819434 
L 174.592969 -67.608756 
L 176.761755 -68.204649 
L 178.930542 -68.570777 
L 181.099329 -68.680904 
L 183.268115 -68.60931 
L 185.436902 -68.393132 
L 187.605689 -67.977512 
L 189.774475 -67.45689 
L 191.943262 -66.668328 
L 194.112049 -65.881401 
L 196.280835 -64.91591 
L 198.449622 -64.019721 
L 200.618409 -63.012321 
L 200.618409 -158.55874 
L 200.618409 -158.55874 
L 198.449622 -154.027458 
L 196.280835 -150.783397 
L 194.112049 -145.522429 
L 191.943262 -141.477542 
L 189.774475 -136.897998 
L 187.605689 -132.398529 
L 185.436902 -129.442836 
L 183.268115 -125.751503 
L 181.099329 -121.51011 
L 178.930542 -116.980138 
L 176.761755 -112.119188 
L 174.592969 -107.337023 
L 172.424182 -102.808331 
L 170.255395 -98.051403 
L 168.086609 -93.756672 
L 165.917822 -89.109044 
L 163.749035 -84.465459 
L 161.580249 -79.840287 
L 159.411462 -75.262215 
L 157.242675 -70.804952 
L 155.073889 -66.642192 
z
" id="mab4ed5f73d" style="stroke:#228b22;stroke-opacity:0.4;"/>
    </defs>
    <g clip-path="url(#p2374e4cf12)">
     <use style="fill:#228b22;fill-opacity:0.4;stroke:#228b22;stroke-opacity:0.4;" x="0" xlink:href="#mab4ed5f73d" y="170.07874"/>
    </g>
   </g>
   <g id="PolyCollection_4">
    <defs>
     <path d="M 155.073889 -61.842028 
L 155.073889 -57.934384 
L 157.242675 -60.311211 
L 159.411462 -62.721404 
L 161.580249 -65.145669 
L 163.749035 -67.542096 
L 165.917822 -69.775533 
L 168.086609 -71.884856 
L 170.255395 -73.766533 
L 172.424182 -75.364779 
L 174.592969 -76.66397 
L 176.761755 -77.795629 
L 178.930542 -78.550269 
L 181.099329 -79.008789 
L 183.268115 -79.164723 
L 185.436902 -79.078849 
L 187.605689 -78.694756 
L 189.774475 -78.10322 
L 191.943262 -77.401877 
L 194.112049 -76.565689 
L 196.280835 -75.473573 
L 198.449622 -74.327764 
L 200.618409 -73.102289 
L 200.618409 -94.179809 
L 200.618409 -94.179809 
L 198.449622 -95.082731 
L 196.280835 -95.737101 
L 194.112049 -96.234202 
L 191.943262 -96.562958 
L 189.774475 -96.47317 
L 187.605689 -96.24275 
L 185.436902 -95.767931 
L 183.268115 -95.130043 
L 181.099329 -94.27956 
L 178.930542 -92.932925 
L 176.761755 -91.196993 
L 174.592969 -89.129763 
L 172.424182 -86.854788 
L 170.255395 -84.127222 
L 168.086609 -81.194619 
L 165.917822 -78.153468 
L 163.749035 -75.00258 
L 161.580249 -71.710414 
L 159.411462 -68.331202 
L 157.242675 -65.044656 
L 155.073889 -61.842028 
z
" id="m8feb51d82b" style="stroke:#228b22;stroke-opacity:0.6;"/>
    </defs>
    <g clip-path="url(#p2374e4cf12)">
     <use style="fill:#228b22;fill-opacity:0.6;stroke:#228b22;stroke-opacity:0.6;" x="0" xlink:href="#m8feb51d82b" y="170.07874"/>
    </g>
   </g>
   <g id="PathCollection_1">
    <defs>
     <path d="M -0.866025 1.732051 
L 0 0.866025 
L 0.866025 1.732051 
L 1.732051 0.866025 
L 0.866025 0 
L 1.732051 -0.866025 
L 0.866025 -1.732051 
L 0 -0.866025 
L -0.866025 -1.732051 
L -1.732051 -0.866025 
L -0.866025 0 
L -1.732051 0.866025 
z
" id="md4fde99116" style="stroke:#8a2be2;"/>
    </defs>
    <g clip-path="url(#p2374e4cf12)">
     <use style="fill:#8a2be2;stroke:#8a2be2;" x="144.229955" xlink:href="#md4fde99116" y="23.012874"/>
    </g>
   </g>
   <g id="PathCollection_2">
    <defs>
     <path d="M 0 -1.732051 
L -0.38887 -0.535233 
L -1.647278 -0.535233 
L -0.629204 0.204441 
L -1.018074 1.401259 
L -0 0.661585 
L 1.018074 1.401259 
L 0.629204 0.204441 
L 1.647278 -0.535233 
L 0.38887 -0.535233 
z
" id="m78a6f91b90" style="stroke:#000000;"/>
    </defs>
    <g clip-path="url(#p2374e4cf12)">
     <use style="stroke:#000000;" x="137.723595" xlink:href="#m78a6f91b90" y="23.012874"/>
    </g>
   </g>
   <g id="PathCollection_3">
    <defs>
     <path d="M -1.732051 1.732051 
L 1.732051 1.732051 
L 1.732051 -1.732051 
L -1.732051 -1.732051 
z
" id="m00a6939424" style="stroke:#c71585;"/>
    </defs>
    <g clip-path="url(#p2374e4cf12)">
     <use style="fill:#c71585;stroke:#c71585;" x="144.229955" xlink:href="#m00a6939424" y="28.184667"/>
    </g>
   </g>
   <g id="PathCollection_4">
    <defs>
     <path d="M 0 -1.732051 
L -1.647278 -0.535233 
L -1.018074 1.401259 
L 1.018074 1.401259 
L 1.647278 -0.535233 
z
" id="mf55ead34f4" style="stroke:#800000;"/>
    </defs>
    <g clip-path="url(#p2374e4cf12)">
     <use style="fill:#800000;stroke:#800000;" x="126.879662" xlink:href="#mf55ead34f4" y="23.012874"/>
    </g>
   </g>
   <g id="PathCollection_5">
    <defs>
     <path d="M -0 2.44949 
L 1.469694 0 
L 0 -2.44949 
L -1.469694 -0 
z
" id="meb701a8485" style="stroke:#556b2f;"/>
    </defs>
    <g clip-path="url(#p2374e4cf12)">
     <use style="fill:#556b2f;stroke:#556b2f;" x="118.204515" xlink:href="#meb701a8485" y="23.012874"/>
    </g>
   </g>
   <g id="patch_3">
    <path clip-path="url(#p2374e4cf12)" d="M 54.442187 126.44874 
L 56.177216 126.44874 
L 56.177216 126.44874 
L 54.442187 126.44874 
z
" style="fill:#1f77b4;opacity:0.5;"/>
   </g>
   <g id="patch_4">
    <path clip-path="url(#p2374e4cf12)" d="M 56.610974 126.44874 
L 58.346003 126.44874 
L 58.346003 126.44874 
L 56.610974 126.44874 
z
" style="fill:#1f77b4;opacity:0.5;"/>
   </g>
   <g id="patch_5">
    <path clip-path="url(#p2374e4cf12)" d="M 58.77976 126.44874 
L 60.51479 126.44874 
L 60.51479 126.44874 
L 58.77976 126.44874 
z
" style="fill:#1f77b4;opacity:0.5;"/>
   </g>
   <g id="patch_6">
    <path clip-path="url(#p2374e4cf12)" d="M 60.948547 126.44874 
L 62.683576 126.44874 
L 62.683576 126.44874 
L 60.948547 126.44874 
z
" style="fill:#1f77b4;opacity:0.5;"/>
   </g>
   <g id="patch_7">
    <path clip-path="url(#p2374e4cf12)" d="M 63.117334 126.44874 
L 64.852363 126.44874 
L 64.852363 126.44874 
L 63.117334 126.44874 
z
" style="fill:#1f77b4;opacity:0.5;"/>
   </g>
   <g id="patch_8">
    <path clip-path="url(#p2374e4cf12)" d="M 65.28612 126.44874 
L 67.02115 126.44874 
L 67.02115 126.44874 
L 65.28612 126.44874 
z
" style="fill:#1f77b4;opacity:0.5;"/>
   </g>
   <g id="patch_9">
    <path clip-path="url(#p2374e4cf12)" d="M 67.454907 126.44874 
L 69.189936 126.44874 
L 69.189936 126.44874 
L 67.454907 126.44874 
z
" style="fill:#1f77b4;opacity:0.5;"/>
   </g>
   <g id="patch_10">
    <path clip-path="url(#p2374e4cf12)" d="M 69.623694 126.44874 
L 71.358723 126.44874 
L 71.358723 126.44874 
L 69.623694 126.44874 
z
" style="fill:#1f77b4;opacity:0.5;"/>
   </g>
   <g id="patch_11">
    <path clip-path="url(#p2374e4cf12)" d="M 71.79248 126.44874 
L 73.52751 126.44874 
L 73.52751 126.44874 
L 71.79248 126.44874 
z
" style="fill:#1f77b4;opacity:0.5;"/>
   </g>
   <g id="patch_12">
    <path clip-path="url(#p2374e4cf12)" d="M 73.961267 126.44874 
L 75.696296 126.44874 
L 75.696296 126.44874 
L 73.961267 126.44874 
z
" style="fill:#1f77b4;opacity:0.5;"/>
   </g>
   <g id="patch_13">
    <path clip-path="url(#p2374e4cf12)" d="M 76.130054 126.44874 
L 77.865083 126.44874 
L 77.865083 126.44874 
L 76.130054 126.44874 
z
" style="fill:#1f77b4;opacity:0.5;"/>
   </g>
   <g id="patch_14">
    <path clip-path="url(#p2374e4cf12)" d="M 78.29884 126.44874 
L 80.03387 126.44874 
L 80.03387 126.44874 
L 78.29884 126.44874 
z
" style="fill:#1f77b4;opacity:0.5;"/>
   </g>
   <g id="patch_15">
    <path clip-path="url(#p2374e4cf12)" d="M 80.467627 126.44874 
L 82.202656 126.44874 
L 82.202656 126.44874 
L 80.467627 126.44874 
z
" style="fill:#1f77b4;opacity:0.5;"/>
   </g>
   <g id="patch_16">
    <path clip-path="url(#p2374e4cf12)" d="M 82.636414 126.44874 
L 84.371443 126.44874 
L 84.371443 126.44874 
L 82.636414 126.44874 
z
" style="fill:#1f77b4;opacity:0.5;"/>
   </g>
   <g id="patch_17">
    <path clip-path="url(#p2374e4cf12)" d="M 84.8052 126.44874 
L 86.54023 126.44874 
L 86.54023 126.44874 
L 84.8052 126.44874 
z
" style="fill:#1f77b4;opacity:0.5;"/>
   </g>
   <g id="patch_18">
    <path clip-path="url(#p2374e4cf12)" d="M 86.973987 126.44874 
L 88.709016 126.44874 
L 88.709016 126.44874 
L 86.973987 126.44874 
z
" style="fill:#1f77b4;opacity:0.5;"/>
   </g>
   <g id="patch_19">
    <path clip-path="url(#p2374e4cf12)" d="M 89.142774 126.44874 
L 90.877803 126.44874 
L 90.877803 126.44874 
L 89.142774 126.44874 
z
" style="fill:#1f77b4;opacity:0.5;"/>
   </g>
   <g id="patch_20">
    <path clip-path="url(#p2374e4cf12)" d="M 91.31156 126.44874 
L 93.04659 126.44874 
L 93.04659 126.44874 
L 91.31156 126.44874 
z
" style="fill:#1f77b4;opacity:0.5;"/>
   </g>
   <g id="patch_21">
    <path clip-path="url(#p2374e4cf12)" d="M 93.480347 126.44874 
L 95.215376 126.44874 
L 95.215376 126.44874 
L 93.480347 126.44874 
z
" style="fill:#1f77b4;opacity:0.5;"/>
   </g>
   <g id="patch_22">
    <path clip-path="url(#p2374e4cf12)" d="M 95.649134 126.44874 
L 97.384163 126.44874 
L 97.384163 126.44874 
L 95.649134 126.44874 
z
" style="fill:#1f77b4;opacity:0.5;"/>
   </g>
   <g id="patch_23">
    <path clip-path="url(#p2374e4cf12)" d="M 97.81792 126.44874 
L 99.55295 126.44874 
L 99.55295 126.44874 
L 97.81792 126.44874 
z
" style="fill:#1f77b4;opacity:0.5;"/>
   </g>
   <g id="patch_24">
    <path clip-path="url(#p2374e4cf12)" d="M 99.986707 126.44874 
L 101.721736 126.44874 
L 101.721736 126.44874 
L 99.986707 126.44874 
z
" style="fill:#1f77b4;opacity:0.5;"/>
   </g>
   <g id="patch_25">
    <path clip-path="url(#p2374e4cf12)" d="M 102.155494 126.44874 
L 103.890523 126.44874 
L 103.890523 126.44874 
L 102.155494 126.44874 
z
" style="fill:#1f77b4;opacity:0.5;"/>
   </g>
   <g id="patch_26">
    <path clip-path="url(#p2374e4cf12)" d="M 104.32428 126.44874 
L 106.05931 126.44874 
L 106.05931 126.373194 
L 104.32428 126.373194 
z
" style="fill:#1f77b4;opacity:0.5;"/>
   </g>
   <g id="patch_27">
    <path clip-path="url(#p2374e4cf12)" d="M 106.493067 126.44874 
L 108.228096 126.44874 
L 108.228096 126.44874 
L 106.493067 126.44874 
z
" style="fill:#1f77b4;opacity:0.5;"/>
   </g>
   <g id="patch_28">
    <path clip-path="url(#p2374e4cf12)" d="M 108.661854 126.44874 
L 110.396883 126.44874 
L 110.396883 126.373194 
L 108.661854 126.373194 
z
" style="fill:#1f77b4;opacity:0.5;"/>
   </g>
   <g id="patch_29">
    <path clip-path="url(#p2374e4cf12)" d="M 110.83064 126.44874 
L 112.56567 126.44874 
L 112.56567 126.373194 
L 110.83064 126.373194 
z
" style="fill:#1f77b4;opacity:0.5;"/>
   </g>
   <g id="patch_30">
    <path clip-path="url(#p2374e4cf12)" d="M 112.999427 126.44874 
L 114.734456 126.44874 
L 114.734456 126.297648 
L 112.999427 126.297648 
z
" style="fill:#1f77b4;opacity:0.5;"/>
   </g>
   <g id="patch_31">
    <path clip-path="url(#p2374e4cf12)" d="M 115.168214 126.44874 
L 116.903243 126.44874 
L 116.903243 126.373194 
L 115.168214 126.373194 
z
" style="fill:#1f77b4;opacity:0.5;"/>
   </g>
   <g id="patch_32">
    <path clip-path="url(#p2374e4cf12)" d="M 117.337 126.44874 
L 119.07203 126.44874 
L 119.07203 126.44874 
L 117.337 126.44874 
z
" style="fill:#1f77b4;opacity:0.5;"/>
   </g>
   <g id="patch_33">
    <path clip-path="url(#p2374e4cf12)" d="M 119.505787 126.44874 
L 121.240816 126.44874 
L 121.240816 126.146556 
L 119.505787 126.146556 
z
" style="fill:#1f77b4;opacity:0.5;"/>
   </g>
   <g id="patch_34">
    <path clip-path="url(#p2374e4cf12)" d="M 121.674574 126.44874 
L 123.409603 126.44874 
L 123.409603 126.44874 
L 121.674574 126.44874 
z
" style="fill:#1f77b4;opacity:0.5;"/>
   </g>
   <g id="patch_35">
    <path clip-path="url(#p2374e4cf12)" d="M 123.84336 126.44874 
L 125.57839 126.44874 
L 125.57839 125.617733 
L 123.84336 125.617733 
z
" style="fill:#1f77b4;opacity:0.5;"/>
   </g>
   <g id="patch_36">
    <path clip-path="url(#p2374e4cf12)" d="M 126.012147 126.44874 
L 127.747176 126.44874 
L 127.747176 125.391094 
L 126.012147 125.391094 
z
" style="fill:#1f77b4;opacity:0.5;"/>
   </g>
   <g id="patch_37">
    <path clip-path="url(#p2374e4cf12)" d="M 128.180934 126.44874 
L 129.915963 126.44874 
L 129.915963 124.937817 
L 128.180934 124.937817 
z
" style="fill:#1f77b4;opacity:0.5;"/>
   </g>
   <g id="patch_38">
    <path clip-path="url(#p2374e4cf12)" d="M 130.34972 126.44874 
L 132.08475 126.44874 
L 132.08475 126.071009 
L 130.34972 126.071009 
z
" style="fill:#1f77b4;opacity:0.5;"/>
   </g>
   <g id="patch_39">
    <path clip-path="url(#p2374e4cf12)" d="M 132.518507 126.44874 
L 134.253536 126.44874 
L 134.253536 123.200256 
L 132.518507 123.200256 
z
" style="fill:#1f77b4;opacity:0.5;"/>
   </g>
   <g id="patch_40">
    <path clip-path="url(#p2374e4cf12)" d="M 134.687294 126.44874 
L 136.422323 126.44874 
L 136.422323 123.351348 
L 134.687294 123.351348 
z
" style="fill:#1f77b4;opacity:0.5;"/>
   </g>
   <g id="patch_41">
    <path clip-path="url(#p2374e4cf12)" d="M 136.85608 126.44874 
L 138.59111 126.44874 
L 138.59111 123.955717 
L 136.85608 123.955717 
z
" style="fill:#1f77b4;opacity:0.5;"/>
   </g>
   <g id="patch_42">
    <path clip-path="url(#p2374e4cf12)" d="M 139.024867 126.44874 
L 140.759897 126.44874 
L 140.759897 122.218156 
L 139.024867 122.218156 
z
" style="fill:#1f77b4;opacity:0.5;"/>
   </g>
   <g id="patch_43">
    <path clip-path="url(#p2374e4cf12)" d="M 141.193654 126.44874 
L 142.928683 126.44874 
L 142.928683 122.822525 
L 141.193654 122.822525 
z
" style="fill:#1f77b4;opacity:0.5;"/>
   </g>
   <g id="patch_44">
    <path clip-path="url(#p2374e4cf12)" d="M 143.362441 126.44874 
L 145.09747 126.44874 
L 145.09747 122.369248 
L 143.362441 122.369248 
z
" style="fill:#1f77b4;opacity:0.5;"/>
   </g>
   <g id="patch_45">
    <path clip-path="url(#p2374e4cf12)" d="M 145.531227 126.44874 
L 147.266257 126.44874 
L 147.266257 119.876226 
L 145.531227 119.876226 
z
" style="fill:#1f77b4;opacity:0.5;"/>
   </g>
   <g id="patch_46">
    <path clip-path="url(#p2374e4cf12)" d="M 147.700014 126.44874 
L 149.435043 126.44874 
L 149.435043 123.351348 
L 147.700014 123.351348 
z
" style="fill:#1f77b4;opacity:0.5;"/>
   </g>
   <g id="patch_47">
    <path clip-path="url(#p2374e4cf12)" d="M 149.868801 126.44874 
L 151.60383 126.44874 
L 151.60383 117.760933 
L 149.868801 117.760933 
z
" style="fill:#1f77b4;opacity:0.5;"/>
   </g>
   <g id="patch_48">
    <path clip-path="url(#p2374e4cf12)" d="M 152.037587 126.44874 
L 153.772617 126.44874 
L 153.772617 112.774888 
L 152.037587 112.774888 
z
" style="fill:#1f77b4;opacity:0.5;"/>
   </g>
   <g id="patch_49">
    <path clip-path="url(#p2374e4cf12)" d="M 154.206374 126.44874 
L 155.941403 126.44874 
L 155.941403 106.806742 
L 154.206374 106.806742 
z
" style="fill:#1f77b4;opacity:0.5;"/>
   </g>
   <g id="patch_50">
    <path clip-path="url(#p2374e4cf12)" d="M 156.375161 126.44874 
L 158.11019 126.44874 
L 158.11019 110.659596 
L 156.375161 110.659596 
z
" style="fill:#1f77b4;opacity:0.5;"/>
   </g>
   <g id="patch_51">
    <path clip-path="url(#p2374e4cf12)" d="M 158.543947 126.44874 
L 160.278977 126.44874 
L 160.278977 112.850434 
L 158.543947 112.850434 
z
" style="fill:#1f77b4;opacity:0.5;"/>
   </g>
   <g id="patch_52">
    <path clip-path="url(#p2374e4cf12)" d="M 160.712734 126.44874 
L 162.447763 126.44874 
L 162.447763 97.665659 
L 160.712734 97.665659 
z
" style="fill:#1f77b4;opacity:0.5;"/>
   </g>
   <g id="patch_53">
    <path clip-path="url(#p2374e4cf12)" d="M 162.881521 126.44874 
L 164.61655 126.44874 
L 164.61655 70.317954 
L 162.881521 70.317954 
z
" style="fill:#1f77b4;opacity:0.5;"/>
   </g>
   <g id="patch_54">
    <path clip-path="url(#p2374e4cf12)" d="M 165.050307 126.44874 
L 166.785337 126.44874 
L 166.785337 97.06129 
L 165.050307 97.06129 
z
" style="fill:#1f77b4;opacity:0.5;"/>
   </g>
   <g id="patch_55">
    <path clip-path="url(#p2374e4cf12)" d="M 167.219094 126.44874 
L 168.954123 126.44874 
L 168.954123 74.775177 
L 167.219094 74.775177 
z
" style="fill:#1f77b4;opacity:0.5;"/>
   </g>
   <g id="patch_56">
    <path clip-path="url(#p2374e4cf12)" d="M 169.387881 126.44874 
L 171.12291 126.44874 
L 171.12291 72.962069 
L 169.387881 72.962069 
z
" style="fill:#1f77b4;opacity:0.5;"/>
   </g>
   <g id="patch_57">
    <path clip-path="url(#p2374e4cf12)" d="M 171.556667 126.44874 
L 173.291697 126.44874 
L 173.291697 79.534584 
L 171.556667 79.534584 
z
" style="fill:#1f77b4;opacity:0.5;"/>
   </g>
   <g id="patch_58">
    <path clip-path="url(#p2374e4cf12)" d="M 173.725454 126.44874 
L 175.460483 126.44874 
L 175.460483 93.283982 
L 173.725454 93.283982 
z
" style="fill:#1f77b4;opacity:0.5;"/>
   </g>
   <g id="patch_59">
    <path clip-path="url(#p2374e4cf12)" d="M 175.894241 126.44874 
L 177.62927 126.44874 
L 177.62927 67.06947 
L 175.894241 67.06947 
z
" style="fill:#1f77b4;opacity:0.5;"/>
   </g>
   <g id="patch_60">
    <path clip-path="url(#p2374e4cf12)" d="M 178.063027 126.44874 
L 179.798057 126.44874 
L 179.798057 55.586456 
L 178.063027 55.586456 
z
" style="fill:#1f77b4;opacity:0.5;"/>
   </g>
   <g id="patch_61">
    <path clip-path="url(#p2374e4cf12)" d="M 180.231814 126.44874 
L 181.966843 126.44874 
L 181.966843 59.892586 
L 180.231814 59.892586 
z
" style="fill:#1f77b4;opacity:0.5;"/>
   </g>
   <g id="patch_62">
    <path clip-path="url(#p2374e4cf12)" d="M 182.400601 126.44874 
L 184.13563 126.44874 
L 184.13563 52.413518 
L 182.400601 52.413518 
z
" style="fill:#1f77b4;opacity:0.5;"/>
   </g>
   <g id="patch_63">
    <path clip-path="url(#p2374e4cf12)" d="M 184.569387 126.44874 
L 186.304417 126.44874 
L 186.304417 57.172925 
L 184.569387 57.172925 
z
" style="fill:#1f77b4;opacity:0.5;"/>
   </g>
   <g id="patch_64">
    <path clip-path="url(#p2374e4cf12)" d="M 186.738174 126.44874 
L 188.473203 126.44874 
L 188.473203 70.771231 
L 186.738174 70.771231 
z
" style="fill:#1f77b4;opacity:0.5;"/>
   </g>
   <g id="patch_65">
    <path clip-path="url(#p2374e4cf12)" d="M 188.906961 126.44874 
L 190.64199 126.44874 
L 190.64199 72.282154 
L 188.906961 72.282154 
z
" style="fill:#1f77b4;opacity:0.5;"/>
   </g>
   <g id="patch_66">
    <path clip-path="url(#p2374e4cf12)" d="M 191.075747 126.44874 
L 192.810777 126.44874 
L 192.810777 67.673839 
L 191.075747 67.673839 
z
" style="fill:#1f77b4;opacity:0.5;"/>
   </g>
   <g id="patch_67">
    <path clip-path="url(#p2374e4cf12)" d="M 193.244534 126.44874 
L 194.979563 126.44874 
L 194.979563 68.958124 
L 193.244534 68.958124 
z
" style="fill:#1f77b4;opacity:0.5;"/>
   </g>
   <g id="patch_68">
    <path clip-path="url(#p2374e4cf12)" d="M 195.413321 126.44874 
L 197.14835 126.44874 
L 197.14835 61.403509 
L 195.413321 61.403509 
z
" style="fill:#1f77b4;opacity:0.5;"/>
   </g>
   <g id="patch_69">
    <path clip-path="url(#p2374e4cf12)" d="M 197.582107 126.44874 
L 199.317137 126.44874 
L 199.317137 62.461155 
L 197.582107 62.461155 
z
" style="fill:#1f77b4;opacity:0.5;"/>
   </g>
   <g id="patch_70">
    <path clip-path="url(#p2374e4cf12)" d="M 199.750894 126.44874 
L 201.485923 126.44874 
L 201.485923 59.363763 
L 199.750894 59.363763 
z
" style="fill:#1f77b4;opacity:0.5;"/>
   </g>
   <g id="matplotlib.axis_1">
    <g id="xtick_1">
     <g id="line2d_1">
      <defs>
       <path d="M 0 0 
L 0 3.5 
" id="m4de65eb5c6" style="stroke:#000000;stroke-width:0.8;"/>
      </defs>
      <g>
       <use style="stroke:#000000;stroke-width:0.8;" x="200.618409" xlink:href="#m4de65eb5c6" y="126.44874"/>
      </g>
     </g>
     <g id="text_1">
      <!-- 19 Apr -->
      <defs>
       <path d="M 12.40625 8.296875 
L 28.515625 8.296875 
L 28.515625 63.921875 
L 10.984375 60.40625 
L 10.984375 69.390625 
L 28.421875 72.90625 
L 38.28125 72.90625 
L 38.28125 8.296875 
L 54.390625 8.296875 
L 54.390625 0 
L 12.40625 0 
z
" id="DejaVuSans-49"/>
       <path d="M 10.984375 1.515625 
L 10.984375 10.5 
Q 14.703125 8.734375 18.5 7.8125 
Q 22.3125 6.890625 25.984375 6.890625 
Q 35.75 6.890625 40.890625 13.453125 
Q 46.046875 20.015625 46.78125 33.40625 
Q 43.953125 29.203125 39.59375 26.953125 
Q 35.25 24.703125 29.984375 24.703125 
Q 19.046875 24.703125 12.671875 31.3125 
Q 6.296875 37.9375 6.296875 49.421875 
Q 6.296875 60.640625 12.9375 67.421875 
Q 19.578125 74.21875 30.609375 74.21875 
Q 43.265625 74.21875 49.921875 64.515625 
Q 56.59375 54.828125 56.59375 36.375 
Q 56.59375 19.140625 48.40625 8.859375 
Q 40.234375 -1.421875 26.421875 -1.421875 
Q 22.703125 -1.421875 18.890625 -0.6875 
Q 15.09375 0.046875 10.984375 1.515625 
z
M 30.609375 32.421875 
Q 37.25 32.421875 41.125 36.953125 
Q 45.015625 41.5 45.015625 49.421875 
Q 45.015625 57.28125 41.125 61.84375 
Q 37.25 66.40625 30.609375 66.40625 
Q 23.96875 66.40625 20.09375 61.84375 
Q 16.21875 57.28125 16.21875 49.421875 
Q 16.21875 41.5 20.09375 36.953125 
Q 23.96875 32.421875 30.609375 32.421875 
z
" id="DejaVuSans-57"/>
       <path id="DejaVuSans-32"/>
       <path d="M 34.1875 63.1875 
L 20.796875 26.90625 
L 47.609375 26.90625 
z
M 28.609375 72.90625 
L 39.796875 72.90625 
L 67.578125 0 
L 57.328125 0 
L 50.6875 18.703125 
L 17.828125 18.703125 
L 11.1875 0 
L 0.78125 0 
z
" id="DejaVuSans-65"/>
       <path d="M 18.109375 8.203125 
L 18.109375 -20.796875 
L 9.078125 -20.796875 
L 9.078125 54.6875 
L 18.109375 54.6875 
L 18.109375 46.390625 
Q 20.953125 51.265625 25.265625 53.625 
Q 29.59375 56 35.59375 56 
Q 45.5625 56 51.78125 48.09375 
Q 58.015625 40.1875 58.015625 27.296875 
Q 58.015625 14.40625 51.78125 6.484375 
Q 45.5625 -1.421875 35.59375 -1.421875 
Q 29.59375 -1.421875 25.265625 0.953125 
Q 20.953125 3.328125 18.109375 8.203125 
z
M 48.6875 27.296875 
Q 48.6875 37.203125 44.609375 42.84375 
Q 40.53125 48.484375 33.40625 48.484375 
Q 26.265625 48.484375 22.1875 42.84375 
Q 18.109375 37.203125 18.109375 27.296875 
Q 18.109375 17.390625 22.1875 11.75 
Q 26.265625 6.109375 33.40625 6.109375 
Q 40.53125 6.109375 44.609375 11.75 
Q 48.6875 17.390625 48.6875 27.296875 
z
" id="DejaVuSans-112"/>
       <path d="M 41.109375 46.296875 
Q 39.59375 47.171875 37.8125 47.578125 
Q 36.03125 48 33.890625 48 
Q 26.265625 48 22.1875 43.046875 
Q 18.109375 38.09375 18.109375 28.8125 
L 18.109375 0 
L 9.078125 0 
L 9.078125 54.6875 
L 18.109375 54.6875 
L 18.109375 46.1875 
Q 20.953125 51.171875 25.484375 53.578125 
Q 30.03125 56 36.53125 56 
Q 37.453125 56 38.578125 55.875 
Q 39.703125 55.765625 41.0625 55.515625 
z
" id="DejaVuSans-114"/>
      </defs>
      <g transform="translate(202.825909 160.01124)rotate(-90)scale(0.08 -0.08)">
       <use xlink:href="#DejaVuSans-49"/>
       <use x="63.623047" xlink:href="#DejaVuSans-57"/>
       <use x="127.246094" xlink:href="#DejaVuSans-32"/>
       <use x="159.033203" xlink:href="#DejaVuSans-65"/>
       <use x="227.441406" xlink:href="#DejaVuSans-112"/>
       <use x="290.917969" xlink:href="#DejaVuSans-114"/>
      </g>
     </g>
    </g>
    <g id="xtick_2">
     <g id="line2d_2">
      <g>
       <use style="stroke:#000000;stroke-width:0.8;" x="185.436902" xlink:href="#m4de65eb5c6" y="126.44874"/>
      </g>
     </g>
     <g id="text_2">
      <!-- 12 Apr -->
      <defs>
       <path d="M 19.1875 8.296875 
L 53.609375 8.296875 
L 53.609375 0 
L 7.328125 0 
L 7.328125 8.296875 
Q 12.9375 14.109375 22.625 23.890625 
Q 32.328125 33.6875 34.8125 36.53125 
Q 39.546875 41.84375 41.421875 45.53125 
Q 43.3125 49.21875 43.3125 52.78125 
Q 43.3125 58.59375 39.234375 62.25 
Q 35.15625 65.921875 28.609375 65.921875 
Q 23.96875 65.921875 18.8125 64.3125 
Q 13.671875 62.703125 7.8125 59.421875 
L 7.8125 69.390625 
Q 13.765625 71.78125 18.9375 73 
Q 24.125 74.21875 28.421875 74.21875 
Q 39.75 74.21875 46.484375 68.546875 
Q 53.21875 62.890625 53.21875 53.421875 
Q 53.21875 48.921875 51.53125 44.890625 
Q 49.859375 40.875 45.40625 35.40625 
Q 44.1875 33.984375 37.640625 27.21875 
Q 31.109375 20.453125 19.1875 8.296875 
z
" id="DejaVuSans-50"/>
      </defs>
      <g transform="translate(187.644402 160.01124)rotate(-90)scale(0.08 -0.08)">
       <use xlink:href="#DejaVuSans-49"/>
       <use x="63.623047" xlink:href="#DejaVuSans-50"/>
       <use x="127.246094" xlink:href="#DejaVuSans-32"/>
       <use x="159.033203" xlink:href="#DejaVuSans-65"/>
       <use x="227.441406" xlink:href="#DejaVuSans-112"/>
       <use x="290.917969" xlink:href="#DejaVuSans-114"/>
      </g>
     </g>
    </g>
    <g id="xtick_3">
     <g id="line2d_3">
      <g>
       <use style="stroke:#000000;stroke-width:0.8;" x="170.255395" xlink:href="#m4de65eb5c6" y="126.44874"/>
      </g>
     </g>
     <g id="text_3">
      <!-- 5 Apr -->
      <defs>
       <path d="M 10.796875 72.90625 
L 49.515625 72.90625 
L 49.515625 64.59375 
L 19.828125 64.59375 
L 19.828125 46.734375 
Q 21.96875 47.46875 24.109375 47.828125 
Q 26.265625 48.1875 28.421875 48.1875 
Q 40.625 48.1875 47.75 41.5 
Q 54.890625 34.8125 54.890625 23.390625 
Q 54.890625 11.625 47.5625 5.09375 
Q 40.234375 -1.421875 26.90625 -1.421875 
Q 22.3125 -1.421875 17.546875 -0.640625 
Q 12.796875 0.140625 7.71875 1.703125 
L 7.71875 11.625 
Q 12.109375 9.234375 16.796875 8.0625 
Q 21.484375 6.890625 26.703125 6.890625 
Q 35.15625 6.890625 40.078125 11.328125 
Q 45.015625 15.765625 45.015625 23.390625 
Q 45.015625 31 40.078125 35.4375 
Q 35.15625 39.890625 26.703125 39.890625 
Q 22.75 39.890625 18.8125 39.015625 
Q 14.890625 38.140625 10.796875 36.28125 
z
" id="DejaVuSans-53"/>
      </defs>
      <g transform="translate(172.462895 154.92124)rotate(-90)scale(0.08 -0.08)">
       <use xlink:href="#DejaVuSans-53"/>
       <use x="63.623047" xlink:href="#DejaVuSans-32"/>
       <use x="95.410156" xlink:href="#DejaVuSans-65"/>
       <use x="163.818359" xlink:href="#DejaVuSans-112"/>
       <use x="227.294922" xlink:href="#DejaVuSans-114"/>
      </g>
     </g>
    </g>
    <g id="xtick_4">
     <g id="line2d_4">
      <g>
       <use style="stroke:#000000;stroke-width:0.8;" x="155.073889" xlink:href="#m4de65eb5c6" y="126.44874"/>
      </g>
     </g>
     <g id="text_4">
      <!-- 29 Mar -->
      <defs>
       <path d="M 9.8125 72.90625 
L 24.515625 72.90625 
L 43.109375 23.296875 
L 61.8125 72.90625 
L 76.515625 72.90625 
L 76.515625 0 
L 66.890625 0 
L 66.890625 64.015625 
L 48.09375 14.015625 
L 38.1875 14.015625 
L 19.390625 64.015625 
L 19.390625 0 
L 9.8125 0 
z
" id="DejaVuSans-77"/>
       <path d="M 34.28125 27.484375 
Q 23.390625 27.484375 19.1875 25 
Q 14.984375 22.515625 14.984375 16.5 
Q 14.984375 11.71875 18.140625 8.90625 
Q 21.296875 6.109375 26.703125 6.109375 
Q 34.1875 6.109375 38.703125 11.40625 
Q 43.21875 16.703125 43.21875 25.484375 
L 43.21875 27.484375 
z
M 52.203125 31.203125 
L 52.203125 0 
L 43.21875 0 
L 43.21875 8.296875 
Q 40.140625 3.328125 35.546875 0.953125 
Q 30.953125 -1.421875 24.3125 -1.421875 
Q 15.921875 -1.421875 10.953125 3.296875 
Q 6 8.015625 6 15.921875 
Q 6 25.140625 12.171875 29.828125 
Q 18.359375 34.515625 30.609375 34.515625 
L 43.21875 34.515625 
L 43.21875 35.40625 
Q 43.21875 41.609375 39.140625 45 
Q 35.0625 48.390625 27.6875 48.390625 
Q 23 48.390625 18.546875 47.265625 
Q 14.109375 46.140625 10.015625 43.890625 
L 10.015625 52.203125 
Q 14.9375 54.109375 19.578125 55.046875 
Q 24.21875 56 28.609375 56 
Q 40.484375 56 46.34375 49.84375 
Q 52.203125 43.703125 52.203125 31.203125 
z
" id="DejaVuSans-97"/>
      </defs>
      <g transform="translate(157.281389 161.26499)rotate(-90)scale(0.08 -0.08)">
       <use xlink:href="#DejaVuSans-50"/>
       <use x="63.623047" xlink:href="#DejaVuSans-57"/>
       <use x="127.246094" xlink:href="#DejaVuSans-32"/>
       <use x="159.033203" xlink:href="#DejaVuSans-77"/>
       <use x="245.3125" xlink:href="#DejaVuSans-97"/>
       <use x="306.591797" xlink:href="#DejaVuSans-114"/>
      </g>
     </g>
    </g>
    <g id="xtick_5">
     <g id="line2d_5">
      <g>
       <use style="stroke:#000000;stroke-width:0.8;" x="139.892382" xlink:href="#m4de65eb5c6" y="126.44874"/>
      </g>
     </g>
     <g id="text_5">
      <!-- 22 Mar -->
      <g transform="translate(142.099882 161.26499)rotate(-90)scale(0.08 -0.08)">
       <use xlink:href="#DejaVuSans-50"/>
       <use x="63.623047" xlink:href="#DejaVuSans-50"/>
       <use x="127.246094" xlink:href="#DejaVuSans-32"/>
       <use x="159.033203" xlink:href="#DejaVuSans-77"/>
       <use x="245.3125" xlink:href="#DejaVuSans-97"/>
       <use x="306.591797" xlink:href="#DejaVuSans-114"/>
      </g>
     </g>
    </g>
    <g id="xtick_6">
     <g id="line2d_6">
      <g>
       <use style="stroke:#000000;stroke-width:0.8;" x="124.710875" xlink:href="#m4de65eb5c6" y="126.44874"/>
      </g>
     </g>
     <g id="text_6">
      <!-- 15 Mar -->
      <g transform="translate(126.918375 161.26499)rotate(-90)scale(0.08 -0.08)">
       <use xlink:href="#DejaVuSans-49"/>
       <use x="63.623047" xlink:href="#DejaVuSans-53"/>
       <use x="127.246094" xlink:href="#DejaVuSans-32"/>
       <use x="159.033203" xlink:href="#DejaVuSans-77"/>
       <use x="245.3125" xlink:href="#DejaVuSans-97"/>
       <use x="306.591797" xlink:href="#DejaVuSans-114"/>
      </g>
     </g>
    </g>
    <g id="xtick_7">
     <g id="line2d_7">
      <g>
       <use style="stroke:#000000;stroke-width:0.8;" x="109.529368" xlink:href="#m4de65eb5c6" y="126.44874"/>
      </g>
     </g>
     <g id="text_7">
      <!-- 8 Mar -->
      <defs>
       <path d="M 31.78125 34.625 
Q 24.75 34.625 20.71875 30.859375 
Q 16.703125 27.09375 16.703125 20.515625 
Q 16.703125 13.921875 20.71875 10.15625 
Q 24.75 6.390625 31.78125 6.390625 
Q 38.8125 6.390625 42.859375 10.171875 
Q 46.921875 13.96875 46.921875 20.515625 
Q 46.921875 27.09375 42.890625 30.859375 
Q 38.875 34.625 31.78125 34.625 
z
M 21.921875 38.8125 
Q 15.578125 40.375 12.03125 44.71875 
Q 8.5 49.078125 8.5 55.328125 
Q 8.5 64.0625 14.71875 69.140625 
Q 20.953125 74.21875 31.78125 74.21875 
Q 42.671875 74.21875 48.875 69.140625 
Q 55.078125 64.0625 55.078125 55.328125 
Q 55.078125 49.078125 51.53125 44.71875 
Q 48 40.375 41.703125 38.8125 
Q 48.828125 37.15625 52.796875 32.3125 
Q 56.78125 27.484375 56.78125 20.515625 
Q 56.78125 9.90625 50.3125 4.234375 
Q 43.84375 -1.421875 31.78125 -1.421875 
Q 19.734375 -1.421875 13.25 4.234375 
Q 6.78125 9.90625 6.78125 20.515625 
Q 6.78125 27.484375 10.78125 32.3125 
Q 14.796875 37.15625 21.921875 38.8125 
z
M 18.3125 54.390625 
Q 18.3125 48.734375 21.84375 45.5625 
Q 25.390625 42.390625 31.78125 42.390625 
Q 38.140625 42.390625 41.71875 45.5625 
Q 45.3125 48.734375 45.3125 54.390625 
Q 45.3125 60.0625 41.71875 63.234375 
Q 38.140625 66.40625 31.78125 66.40625 
Q 25.390625 66.40625 21.84375 63.234375 
Q 18.3125 60.0625 18.3125 54.390625 
z
" id="DejaVuSans-56"/>
      </defs>
      <g transform="translate(111.736868 156.17499)rotate(-90)scale(0.08 -0.08)">
       <use xlink:href="#DejaVuSans-56"/>
       <use x="63.623047" xlink:href="#DejaVuSans-32"/>
       <use x="95.410156" xlink:href="#DejaVuSans-77"/>
       <use x="181.689453" xlink:href="#DejaVuSans-97"/>
       <use x="242.96875" xlink:href="#DejaVuSans-114"/>
      </g>
     </g>
    </g>
    <g id="xtick_8">
     <g id="line2d_8">
      <g>
       <use style="stroke:#000000;stroke-width:0.8;" x="94.347862" xlink:href="#m4de65eb5c6" y="126.44874"/>
      </g>
     </g>
     <g id="text_8">
      <!-- 1 Mar -->
      <g transform="translate(96.555362 156.17499)rotate(-90)scale(0.08 -0.08)">
       <use xlink:href="#DejaVuSans-49"/>
       <use x="63.623047" xlink:href="#DejaVuSans-32"/>
       <use x="95.410156" xlink:href="#DejaVuSans-77"/>
       <use x="181.689453" xlink:href="#DejaVuSans-97"/>
       <use x="242.96875" xlink:href="#DejaVuSans-114"/>
      </g>
     </g>
    </g>
    <g id="xtick_9">
     <g id="line2d_9">
      <g>
       <use style="stroke:#000000;stroke-width:0.8;" x="79.166355" xlink:href="#m4de65eb5c6" y="126.44874"/>
      </g>
     </g>
     <g id="text_9">
      <!-- 23 Feb -->
      <defs>
       <path d="M 40.578125 39.3125 
Q 47.65625 37.796875 51.625 33 
Q 55.609375 28.21875 55.609375 21.1875 
Q 55.609375 10.40625 48.1875 4.484375 
Q 40.765625 -1.421875 27.09375 -1.421875 
Q 22.515625 -1.421875 17.65625 -0.515625 
Q 12.796875 0.390625 7.625 2.203125 
L 7.625 11.71875 
Q 11.71875 9.328125 16.59375 8.109375 
Q 21.484375 6.890625 26.8125 6.890625 
Q 36.078125 6.890625 40.9375 10.546875 
Q 45.796875 14.203125 45.796875 21.1875 
Q 45.796875 27.640625 41.28125 31.265625 
Q 36.765625 34.90625 28.71875 34.90625 
L 20.21875 34.90625 
L 20.21875 43.015625 
L 29.109375 43.015625 
Q 36.375 43.015625 40.234375 45.921875 
Q 44.09375 48.828125 44.09375 54.296875 
Q 44.09375 59.90625 40.109375 62.90625 
Q 36.140625 65.921875 28.71875 65.921875 
Q 24.65625 65.921875 20.015625 65.03125 
Q 15.375 64.15625 9.8125 62.3125 
L 9.8125 71.09375 
Q 15.4375 72.65625 20.34375 73.4375 
Q 25.25 74.21875 29.59375 74.21875 
Q 40.828125 74.21875 47.359375 69.109375 
Q 53.90625 64.015625 53.90625 55.328125 
Q 53.90625 49.265625 50.4375 45.09375 
Q 46.96875 40.921875 40.578125 39.3125 
z
" id="DejaVuSans-51"/>
       <path d="M 9.8125 72.90625 
L 51.703125 72.90625 
L 51.703125 64.59375 
L 19.671875 64.59375 
L 19.671875 43.109375 
L 48.578125 43.109375 
L 48.578125 34.8125 
L 19.671875 34.8125 
L 19.671875 0 
L 9.8125 0 
z
" id="DejaVuSans-70"/>
       <path d="M 56.203125 29.59375 
L 56.203125 25.203125 
L 14.890625 25.203125 
Q 15.484375 15.921875 20.484375 11.0625 
Q 25.484375 6.203125 34.421875 6.203125 
Q 39.59375 6.203125 44.453125 7.46875 
Q 49.3125 8.734375 54.109375 11.28125 
L 54.109375 2.78125 
Q 49.265625 0.734375 44.1875 -0.34375 
Q 39.109375 -1.421875 33.890625 -1.421875 
Q 20.796875 -1.421875 13.15625 6.1875 
Q 5.515625 13.8125 5.515625 26.8125 
Q 5.515625 40.234375 12.765625 48.109375 
Q 20.015625 56 32.328125 56 
Q 43.359375 56 49.78125 48.890625 
Q 56.203125 41.796875 56.203125 29.59375 
z
M 47.21875 32.234375 
Q 47.125 39.59375 43.09375 43.984375 
Q 39.0625 48.390625 32.421875 48.390625 
Q 24.90625 48.390625 20.390625 44.140625 
Q 15.875 39.890625 15.1875 32.171875 
z
" id="DejaVuSans-101"/>
       <path d="M 48.6875 27.296875 
Q 48.6875 37.203125 44.609375 42.84375 
Q 40.53125 48.484375 33.40625 48.484375 
Q 26.265625 48.484375 22.1875 42.84375 
Q 18.109375 37.203125 18.109375 27.296875 
Q 18.109375 17.390625 22.1875 11.75 
Q 26.265625 6.109375 33.40625 6.109375 
Q 40.53125 6.109375 44.609375 11.75 
Q 48.6875 17.390625 48.6875 27.296875 
z
M 18.109375 46.390625 
Q 20.953125 51.265625 25.265625 53.625 
Q 29.59375 56 35.59375 56 
Q 45.5625 56 51.78125 48.09375 
Q 58.015625 40.1875 58.015625 27.296875 
Q 58.015625 14.40625 51.78125 6.484375 
Q 45.5625 -1.421875 35.59375 -1.421875 
Q 29.59375 -1.421875 25.265625 0.953125 
Q 20.953125 3.328125 18.109375 8.203125 
L 18.109375 0 
L 9.078125 0 
L 9.078125 75.984375 
L 18.109375 75.984375 
z
" id="DejaVuSans-98"/>
      </defs>
      <g transform="translate(81.373855 160.33374)rotate(-90)scale(0.08 -0.08)">
       <use xlink:href="#DejaVuSans-50"/>
       <use x="63.623047" xlink:href="#DejaVuSans-51"/>
       <use x="127.246094" xlink:href="#DejaVuSans-32"/>
       <use x="159.033203" xlink:href="#DejaVuSans-70"/>
       <use x="211.052734" xlink:href="#DejaVuSans-101"/>
       <use x="272.576172" xlink:href="#DejaVuSans-98"/>
      </g>
     </g>
    </g>
    <g id="xtick_10">
     <g id="line2d_10">
      <g>
       <use style="stroke:#000000;stroke-width:0.8;" x="63.984848" xlink:href="#m4de65eb5c6" y="126.44874"/>
      </g>
     </g>
     <g id="text_10">
      <!-- 16 Feb -->
      <defs>
       <path d="M 33.015625 40.375 
Q 26.375 40.375 22.484375 35.828125 
Q 18.609375 31.296875 18.609375 23.390625 
Q 18.609375 15.53125 22.484375 10.953125 
Q 26.375 6.390625 33.015625 6.390625 
Q 39.65625 6.390625 43.53125 10.953125 
Q 47.40625 15.53125 47.40625 23.390625 
Q 47.40625 31.296875 43.53125 35.828125 
Q 39.65625 40.375 33.015625 40.375 
z
M 52.59375 71.296875 
L 52.59375 62.3125 
Q 48.875 64.0625 45.09375 64.984375 
Q 41.3125 65.921875 37.59375 65.921875 
Q 27.828125 65.921875 22.671875 59.328125 
Q 17.53125 52.734375 16.796875 39.40625 
Q 19.671875 43.65625 24.015625 45.921875 
Q 28.375 48.1875 33.59375 48.1875 
Q 44.578125 48.1875 50.953125 41.515625 
Q 57.328125 34.859375 57.328125 23.390625 
Q 57.328125 12.15625 50.6875 5.359375 
Q 44.046875 -1.421875 33.015625 -1.421875 
Q 20.359375 -1.421875 13.671875 8.265625 
Q 6.984375 17.96875 6.984375 36.375 
Q 6.984375 53.65625 15.1875 63.9375 
Q 23.390625 74.21875 37.203125 74.21875 
Q 40.921875 74.21875 44.703125 73.484375 
Q 48.484375 72.75 52.59375 71.296875 
z
" id="DejaVuSans-54"/>
      </defs>
      <g transform="translate(66.192348 160.33374)rotate(-90)scale(0.08 -0.08)">
       <use xlink:href="#DejaVuSans-49"/>
       <use x="63.623047" xlink:href="#DejaVuSans-54"/>
       <use x="127.246094" xlink:href="#DejaVuSans-32"/>
       <use x="159.033203" xlink:href="#DejaVuSans-70"/>
       <use x="211.052734" xlink:href="#DejaVuSans-101"/>
       <use x="272.576172" xlink:href="#DejaVuSans-98"/>
      </g>
     </g>
    </g>
   </g>
   <g id="matplotlib.axis_2">
    <g id="ytick_1">
     <g id="line2d_11">
      <defs>
       <path d="M 0 0 
L -3.5 0 
" id="m9f114ff0e5" style="stroke:#000000;stroke-width:0.8;"/>
      </defs>
      <g>
       <use style="stroke:#000000;stroke-width:0.8;" x="47.09" xlink:href="#m9f114ff0e5" y="126.44874"/>
      </g>
     </g>
     <g id="text_11">
      <!-- 0 -->
      <defs>
       <path d="M 31.78125 66.40625 
Q 24.171875 66.40625 20.328125 58.90625 
Q 16.5 51.421875 16.5 36.375 
Q 16.5 21.390625 20.328125 13.890625 
Q 24.171875 6.390625 31.78125 6.390625 
Q 39.453125 6.390625 43.28125 13.890625 
Q 47.125 21.390625 47.125 36.375 
Q 47.125 51.421875 43.28125 58.90625 
Q 39.453125 66.40625 31.78125 66.40625 
z
M 31.78125 74.21875 
Q 44.046875 74.21875 50.515625 64.515625 
Q 56.984375 54.828125 56.984375 36.375 
Q 56.984375 17.96875 50.515625 8.265625 
Q 44.046875 -1.421875 31.78125 -1.421875 
Q 19.53125 -1.421875 13.0625 8.265625 
Q 6.59375 17.96875 6.59375 36.375 
Q 6.59375 54.828125 13.0625 64.515625 
Q 19.53125 74.21875 31.78125 74.21875 
z
" id="DejaVuSans-48"/>
      </defs>
      <g transform="translate(35 129.488115)scale(0.08 -0.08)">
       <use xlink:href="#DejaVuSans-48"/>
      </g>
     </g>
    </g>
    <g id="ytick_2">
     <g id="line2d_12">
      <g>
       <use style="stroke:#000000;stroke-width:0.8;" x="47.09" xlink:href="#m9f114ff0e5" y="107.562204"/>
      </g>
     </g>
     <g id="text_12">
      <!-- 250 -->
      <g transform="translate(24.82 110.601579)scale(0.08 -0.08)">
       <use xlink:href="#DejaVuSans-50"/>
       <use x="63.623047" xlink:href="#DejaVuSans-53"/>
       <use x="127.246094" xlink:href="#DejaVuSans-48"/>
      </g>
     </g>
    </g>
    <g id="ytick_3">
     <g id="line2d_13">
      <g>
       <use style="stroke:#000000;stroke-width:0.8;" x="47.09" xlink:href="#m9f114ff0e5" y="88.675668"/>
      </g>
     </g>
     <g id="text_13">
      <!-- 500 -->
      <g transform="translate(24.82 91.715043)scale(0.08 -0.08)">
       <use xlink:href="#DejaVuSans-53"/>
       <use x="63.623047" xlink:href="#DejaVuSans-48"/>
       <use x="127.246094" xlink:href="#DejaVuSans-48"/>
      </g>
     </g>
    </g>
    <g id="ytick_4">
     <g id="line2d_14">
      <g>
       <use style="stroke:#000000;stroke-width:0.8;" x="47.09" xlink:href="#m9f114ff0e5" y="69.789131"/>
      </g>
     </g>
     <g id="text_14">
      <!-- 750 -->
      <defs>
       <path d="M 8.203125 72.90625 
L 55.078125 72.90625 
L 55.078125 68.703125 
L 28.609375 0 
L 18.3125 0 
L 43.21875 64.59375 
L 8.203125 64.59375 
z
" id="DejaVuSans-55"/>
      </defs>
      <g transform="translate(24.82 72.828506)scale(0.08 -0.08)">
       <use xlink:href="#DejaVuSans-55"/>
       <use x="63.623047" xlink:href="#DejaVuSans-53"/>
       <use x="127.246094" xlink:href="#DejaVuSans-48"/>
      </g>
     </g>
    </g>
    <g id="ytick_5">
     <g id="line2d_15">
      <g>
       <use style="stroke:#000000;stroke-width:0.8;" x="47.09" xlink:href="#m9f114ff0e5" y="50.902595"/>
      </g>
     </g>
     <g id="text_15">
      <!-- 1000 -->
      <g transform="translate(19.73 53.94197)scale(0.08 -0.08)">
       <use xlink:href="#DejaVuSans-49"/>
       <use x="63.623047" xlink:href="#DejaVuSans-48"/>
       <use x="127.246094" xlink:href="#DejaVuSans-48"/>
       <use x="190.869141" xlink:href="#DejaVuSans-48"/>
      </g>
     </g>
    </g>
    <g id="ytick_6">
     <g id="line2d_16">
      <g>
       <use style="stroke:#000000;stroke-width:0.8;" x="47.09" xlink:href="#m9f114ff0e5" y="32.016059"/>
      </g>
     </g>
     <g id="text_16">
      <!-- 1250 -->
      <g transform="translate(19.73 35.055434)scale(0.08 -0.08)">
       <use xlink:href="#DejaVuSans-49"/>
       <use x="63.623047" xlink:href="#DejaVuSans-50"/>
       <use x="127.246094" xlink:href="#DejaVuSans-53"/>
       <use x="190.869141" xlink:href="#DejaVuSans-48"/>
      </g>
     </g>
    </g>
    <g id="ytick_7">
     <g id="line2d_17">
      <g>
       <use style="stroke:#000000;stroke-width:0.8;" x="47.09" xlink:href="#m9f114ff0e5" y="13.129522"/>
      </g>
     </g>
     <g id="text_17">
      <!-- 1500 -->
      <g transform="translate(19.73 16.168897)scale(0.08 -0.08)">
       <use xlink:href="#DejaVuSans-49"/>
       <use x="63.623047" xlink:href="#DejaVuSans-53"/>
       <use x="127.246094" xlink:href="#DejaVuSans-48"/>
       <use x="190.869141" xlink:href="#DejaVuSans-48"/>
      </g>
     </g>
    </g>
    <g id="text_18">
     <!-- Deaths per day -->
     <defs>
      <path d="M 19.671875 64.796875 
L 19.671875 8.109375 
L 31.59375 8.109375 
Q 46.6875 8.109375 53.6875 14.9375 
Q 60.6875 21.78125 60.6875 36.53125 
Q 60.6875 51.171875 53.6875 57.984375 
Q 46.6875 64.796875 31.59375 64.796875 
z
M 9.8125 72.90625 
L 30.078125 72.90625 
Q 51.265625 72.90625 61.171875 64.09375 
Q 71.09375 55.28125 71.09375 36.53125 
Q 71.09375 17.671875 61.125 8.828125 
Q 51.171875 0 30.078125 0 
L 9.8125 0 
z
" id="DejaVuSans-68"/>
      <path d="M 18.3125 70.21875 
L 18.3125 54.6875 
L 36.8125 54.6875 
L 36.8125 47.703125 
L 18.3125 47.703125 
L 18.3125 18.015625 
Q 18.3125 11.328125 20.140625 9.421875 
Q 21.96875 7.515625 27.59375 7.515625 
L 36.8125 7.515625 
L 36.8125 0 
L 27.59375 0 
Q 17.1875 0 13.234375 3.875 
Q 9.28125 7.765625 9.28125 18.015625 
L 9.28125 47.703125 
L 2.6875 47.703125 
L 2.6875 54.6875 
L 9.28125 54.6875 
L 9.28125 70.21875 
z
" id="DejaVuSans-116"/>
      <path d="M 54.890625 33.015625 
L 54.890625 0 
L 45.90625 0 
L 45.90625 32.71875 
Q 45.90625 40.484375 42.875 44.328125 
Q 39.84375 48.1875 33.796875 48.1875 
Q 26.515625 48.1875 22.3125 43.546875 
Q 18.109375 38.921875 18.109375 30.90625 
L 18.109375 0 
L 9.078125 0 
L 9.078125 75.984375 
L 18.109375 75.984375 
L 18.109375 46.1875 
Q 21.34375 51.125 25.703125 53.5625 
Q 30.078125 56 35.796875 56 
Q 45.21875 56 50.046875 50.171875 
Q 54.890625 44.34375 54.890625 33.015625 
z
" id="DejaVuSans-104"/>
      <path d="M 44.28125 53.078125 
L 44.28125 44.578125 
Q 40.484375 46.53125 36.375 47.5 
Q 32.28125 48.484375 27.875 48.484375 
Q 21.1875 48.484375 17.84375 46.4375 
Q 14.5 44.390625 14.5 40.28125 
Q 14.5 37.15625 16.890625 35.375 
Q 19.28125 33.59375 26.515625 31.984375 
L 29.59375 31.296875 
Q 39.15625 29.25 43.1875 25.515625 
Q 47.21875 21.78125 47.21875 15.09375 
Q 47.21875 7.46875 41.1875 3.015625 
Q 35.15625 -1.421875 24.609375 -1.421875 
Q 20.21875 -1.421875 15.453125 -0.5625 
Q 10.6875 0.296875 5.421875 2 
L 5.421875 11.28125 
Q 10.40625 8.6875 15.234375 7.390625 
Q 20.0625 6.109375 24.8125 6.109375 
Q 31.15625 6.109375 34.5625 8.28125 
Q 37.984375 10.453125 37.984375 14.40625 
Q 37.984375 18.0625 35.515625 20.015625 
Q 33.0625 21.96875 24.703125 23.78125 
L 21.578125 24.515625 
Q 13.234375 26.265625 9.515625 29.90625 
Q 5.8125 33.546875 5.8125 39.890625 
Q 5.8125 47.609375 11.28125 51.796875 
Q 16.75 56 26.8125 56 
Q 31.78125 56 36.171875 55.265625 
Q 40.578125 54.546875 44.28125 53.078125 
z
" id="DejaVuSans-115"/>
      <path d="M 45.40625 46.390625 
L 45.40625 75.984375 
L 54.390625 75.984375 
L 54.390625 0 
L 45.40625 0 
L 45.40625 8.203125 
Q 42.578125 3.328125 38.25 0.953125 
Q 33.9375 -1.421875 27.875 -1.421875 
Q 17.96875 -1.421875 11.734375 6.484375 
Q 5.515625 14.40625 5.515625 27.296875 
Q 5.515625 40.1875 11.734375 48.09375 
Q 17.96875 56 27.875 56 
Q 33.9375 56 38.25 53.625 
Q 42.578125 51.265625 45.40625 46.390625 
z
M 14.796875 27.296875 
Q 14.796875 17.390625 18.875 11.75 
Q 22.953125 6.109375 30.078125 6.109375 
Q 37.203125 6.109375 41.296875 11.75 
Q 45.40625 17.390625 45.40625 27.296875 
Q 45.40625 37.203125 41.296875 42.84375 
Q 37.203125 48.484375 30.078125 48.484375 
Q 22.953125 48.484375 18.875 42.84375 
Q 14.796875 37.203125 14.796875 27.296875 
z
" id="DejaVuSans-100"/>
      <path d="M 32.171875 -5.078125 
Q 28.375 -14.84375 24.75 -17.8125 
Q 21.140625 -20.796875 15.09375 -20.796875 
L 7.90625 -20.796875 
L 7.90625 -13.28125 
L 13.1875 -13.28125 
Q 16.890625 -13.28125 18.9375 -11.515625 
Q 21 -9.765625 23.484375 -3.21875 
L 25.09375 0.875 
L 2.984375 54.6875 
L 12.5 54.6875 
L 29.59375 11.921875 
L 46.6875 54.6875 
L 56.203125 54.6875 
z
" id="DejaVuSans-121"/>
     </defs>
     <g transform="translate(14.06625 99.70937)rotate(-90)scale(0.08 -0.08)">
      <use xlink:href="#DejaVuSans-68"/>
      <use x="77.001953" xlink:href="#DejaVuSans-101"/>
      <use x="138.525391" xlink:href="#DejaVuSans-97"/>
      <use x="199.804688" xlink:href="#DejaVuSans-116"/>
      <use x="239.013672" xlink:href="#DejaVuSans-104"/>
      <use x="302.392578" xlink:href="#DejaVuSans-115"/>
      <use x="354.492188" xlink:href="#DejaVuSans-32"/>
      <use x="386.279297" xlink:href="#DejaVuSans-112"/>
      <use x="449.755859" xlink:href="#DejaVuSans-101"/>
      <use x="511.279297" xlink:href="#DejaVuSans-114"/>
      <use x="552.392578" xlink:href="#DejaVuSans-32"/>
      <use x="584.179688" xlink:href="#DejaVuSans-100"/>
      <use x="647.65625" xlink:href="#DejaVuSans-97"/>
      <use x="708.935547" xlink:href="#DejaVuSans-121"/>
     </g>
    </g>
   </g>
   <g id="line2d_18">
    <path clip-path="url(#p2374e4cf12)" d="M 55.309701 126.44874 
L 57.478488 126.44874 
L 59.647275 126.448714 
L 61.816062 126.448627 
L 63.984848 126.448426 
L 66.153635 126.448052 
L 68.322422 126.447449 
L 70.491208 126.446569 
L 72.659995 126.44537 
L 74.828782 126.443814 
L 76.997568 126.441862 
L 79.166355 126.43947 
L 81.335142 126.436591 
L 83.503928 126.433163 
L 85.672715 126.429115 
L 87.841502 126.424331 
L 90.010288 126.418686 
L 92.179075 126.412009 
L 94.347862 126.404095 
L 96.516648 126.394695 
L 98.685435 126.383494 
L 100.854222 126.370079 
L 103.023008 126.353949 
L 105.191795 126.334474 
L 107.360582 126.310917 
L 109.529368 126.282258 
L 111.698155 126.247379 
L 113.866942 126.204863 
L 116.035728 126.152968 
L 118.204515 126.089492 
L 120.373302 126.011668 
L 122.542088 125.91534 
L 124.710875 125.795065 
L 126.879662 125.644237 
L 129.048448 125.454543 
L 131.217235 125.211296 
L 133.386022 124.894113 
L 135.554808 124.472067 
L 137.723595 123.89907 
L 139.892382 123.12849 
L 142.061169 122.112299 
L 144.229955 120.818523 
L 146.398742 119.221183 
L 148.567529 117.321483 
L 150.736315 115.133714 
L 152.905102 112.690384 
L 155.073889 110.035734 
" style="fill:none;stroke:#0000ff;stroke-linecap:square;stroke-opacity:0.5;"/>
   </g>
   <g id="line2d_19">
    <path clip-path="url(#p2374e4cf12)" d="M 157.242675 107.225665 
L 159.411462 104.322912 
L 161.580249 101.393499 
L 163.749035 98.502939 
L 165.917822 95.711945 
L 168.086609 93.073621 
L 170.255395 90.631786 
L 172.424182 88.420235 
L 174.592969 86.462746 
L 176.761755 84.773604 
L 178.930542 83.358484 
L 181.099329 82.215525 
L 183.268115 81.336503 
L 185.436902 80.708015 
L 187.605689 80.312605 
L 189.774475 80.129809 
L 191.943262 80.137081 
L 194.112049 80.310594 
L 196.280835 80.625915 
L 198.449622 81.058551 
L 200.618409 81.584372 
" style="fill:none;stroke:#008000;stroke-linecap:square;stroke-opacity:0.5;"/>
   </g>
   <g id="line2d_20">
    <path clip-path="url(#p2374e4cf12)" d="M 144.229955 126.44874 
L 144.229955 11.52 
" style="fill:none;stroke:#0000ff;stroke-dasharray:1.85,0.8;stroke-dashoffset:0;stroke-width:0.5;"/>
   </g>
   <g id="line2d_21">
    <path clip-path="url(#p2374e4cf12)" d="M 137.723595 126.44874 
L 137.723595 11.52 
" style="fill:none;stroke:#0000ff;stroke-dasharray:1.85,0.8;stroke-dashoffset:0;stroke-width:0.5;"/>
   </g>
   <g id="line2d_22">
    <path clip-path="url(#p2374e4cf12)" d="M 144.229955 126.44874 
L 144.229955 11.52 
" style="fill:none;stroke:#0000ff;stroke-dasharray:1.85,0.8;stroke-dashoffset:0;stroke-width:0.5;"/>
   </g>
   <g id="line2d_23">
    <path clip-path="url(#p2374e4cf12)" d="M 126.879662 126.44874 
L 126.879662 11.52 
" style="fill:none;stroke:#0000ff;stroke-dasharray:1.85,0.8;stroke-dashoffset:0;stroke-width:0.5;"/>
   </g>
   <g id="line2d_24">
    <path clip-path="url(#p2374e4cf12)" d="M 118.204515 126.44874 
L 118.204515 11.52 
" style="fill:none;stroke:#0000ff;stroke-dasharray:1.85,0.8;stroke-dashoffset:0;stroke-width:0.5;"/>
   </g>
   <g id="patch_71">
    <path d="M 47.09 126.44874 
L 47.09 11.52 
" style="fill:none;stroke:#000000;stroke-linecap:square;stroke-linejoin:miter;stroke-width:0.8;"/>
   </g>
   <g id="patch_72">
    <path d="M 208.83811 126.44874 
L 208.83811 11.52 
" style="fill:none;stroke:#000000;stroke-linecap:square;stroke-linejoin:miter;stroke-width:0.8;"/>
   </g>
   <g id="patch_73">
    <path d="M 47.09 126.44874 
L 208.83811 126.44874 
" style="fill:none;stroke:#000000;stroke-linecap:square;stroke-linejoin:miter;stroke-width:0.8;"/>
   </g>
   <g id="patch_74">
    <path d="M 47.09 11.52 
L 208.83811 11.52 
" style="fill:none;stroke:#000000;stroke-linecap:square;stroke-linejoin:miter;stroke-width:0.8;"/>
   </g>
   <g id="legend_1">
    <g id="line2d_25">
     <path d="M 54.29 103.04249 
L 70.29 103.04249 
" style="fill:none;stroke:#0000ff;stroke-linecap:square;stroke-opacity:0.5;"/>
    </g>
    <g id="line2d_26"/>
    <g id="text_19">
     <!-- Simulation -->
     <defs>
      <path d="M 53.515625 70.515625 
L 53.515625 60.890625 
Q 47.90625 63.578125 42.921875 64.890625 
Q 37.9375 66.21875 33.296875 66.21875 
Q 25.25 66.21875 20.875 63.09375 
Q 16.5 59.96875 16.5 54.203125 
Q 16.5 49.359375 19.40625 46.890625 
Q 22.3125 44.4375 30.421875 42.921875 
L 36.375 41.703125 
Q 47.40625 39.59375 52.65625 34.296875 
Q 57.90625 29 57.90625 20.125 
Q 57.90625 9.515625 50.796875 4.046875 
Q 43.703125 -1.421875 29.984375 -1.421875 
Q 24.8125 -1.421875 18.96875 -0.25 
Q 13.140625 0.921875 6.890625 3.21875 
L 6.890625 13.375 
Q 12.890625 10.015625 18.65625 8.296875 
Q 24.421875 6.59375 29.984375 6.59375 
Q 38.421875 6.59375 43.015625 9.90625 
Q 47.609375 13.234375 47.609375 19.390625 
Q 47.609375 24.75 44.3125 27.78125 
Q 41.015625 30.8125 33.5 32.328125 
L 27.484375 33.5 
Q 16.453125 35.6875 11.515625 40.375 
Q 6.59375 45.0625 6.59375 53.421875 
Q 6.59375 63.09375 13.40625 68.65625 
Q 20.21875 74.21875 32.171875 74.21875 
Q 37.3125 74.21875 42.625 73.28125 
Q 47.953125 72.359375 53.515625 70.515625 
z
" id="DejaVuSans-83"/>
      <path d="M 9.421875 54.6875 
L 18.40625 54.6875 
L 18.40625 0 
L 9.421875 0 
z
M 9.421875 75.984375 
L 18.40625 75.984375 
L 18.40625 64.59375 
L 9.421875 64.59375 
z
" id="DejaVuSans-105"/>
      <path d="M 52 44.1875 
Q 55.375 50.25 60.0625 53.125 
Q 64.75 56 71.09375 56 
Q 79.640625 56 84.28125 50.015625 
Q 88.921875 44.046875 88.921875 33.015625 
L 88.921875 0 
L 79.890625 0 
L 79.890625 32.71875 
Q 79.890625 40.578125 77.09375 44.375 
Q 74.3125 48.1875 68.609375 48.1875 
Q 61.625 48.1875 57.5625 43.546875 
Q 53.515625 38.921875 53.515625 30.90625 
L 53.515625 0 
L 44.484375 0 
L 44.484375 32.71875 
Q 44.484375 40.625 41.703125 44.40625 
Q 38.921875 48.1875 33.109375 48.1875 
Q 26.21875 48.1875 22.15625 43.53125 
Q 18.109375 38.875 18.109375 30.90625 
L 18.109375 0 
L 9.078125 0 
L 9.078125 54.6875 
L 18.109375 54.6875 
L 18.109375 46.1875 
Q 21.1875 51.21875 25.484375 53.609375 
Q 29.78125 56 35.6875 56 
Q 41.65625 56 45.828125 52.96875 
Q 50 49.953125 52 44.1875 
z
" id="DejaVuSans-109"/>
      <path d="M 8.5 21.578125 
L 8.5 54.6875 
L 17.484375 54.6875 
L 17.484375 21.921875 
Q 17.484375 14.15625 20.5 10.265625 
Q 23.53125 6.390625 29.59375 6.390625 
Q 36.859375 6.390625 41.078125 11.03125 
Q 45.3125 15.671875 45.3125 23.6875 
L 45.3125 54.6875 
L 54.296875 54.6875 
L 54.296875 0 
L 45.3125 0 
L 45.3125 8.40625 
Q 42.046875 3.421875 37.71875 1 
Q 33.40625 -1.421875 27.6875 -1.421875 
Q 18.265625 -1.421875 13.375 4.4375 
Q 8.5 10.296875 8.5 21.578125 
z
M 31.109375 56 
z
" id="DejaVuSans-117"/>
      <path d="M 9.421875 75.984375 
L 18.40625 75.984375 
L 18.40625 0 
L 9.421875 0 
z
" id="DejaVuSans-108"/>
      <path d="M 30.609375 48.390625 
Q 23.390625 48.390625 19.1875 42.75 
Q 14.984375 37.109375 14.984375 27.296875 
Q 14.984375 17.484375 19.15625 11.84375 
Q 23.34375 6.203125 30.609375 6.203125 
Q 37.796875 6.203125 41.984375 11.859375 
Q 46.1875 17.53125 46.1875 27.296875 
Q 46.1875 37.015625 41.984375 42.703125 
Q 37.796875 48.390625 30.609375 48.390625 
z
M 30.609375 56 
Q 42.328125 56 49.015625 48.375 
Q 55.71875 40.765625 55.71875 27.296875 
Q 55.71875 13.875 49.015625 6.21875 
Q 42.328125 -1.421875 30.609375 -1.421875 
Q 18.84375 -1.421875 12.171875 6.21875 
Q 5.515625 13.875 5.515625 27.296875 
Q 5.515625 40.765625 12.171875 48.375 
Q 18.84375 56 30.609375 56 
z
" id="DejaVuSans-111"/>
      <path d="M 54.890625 33.015625 
L 54.890625 0 
L 45.90625 0 
L 45.90625 32.71875 
Q 45.90625 40.484375 42.875 44.328125 
Q 39.84375 48.1875 33.796875 48.1875 
Q 26.515625 48.1875 22.3125 43.546875 
Q 18.109375 38.921875 18.109375 30.90625 
L 18.109375 0 
L 9.078125 0 
L 9.078125 54.6875 
L 18.109375 54.6875 
L 18.109375 46.1875 
Q 21.34375 51.125 25.703125 53.5625 
Q 30.078125 56 35.796875 56 
Q 45.21875 56 50.046875 50.171875 
Q 54.890625 44.34375 54.890625 33.015625 
z
" id="DejaVuSans-110"/>
     </defs>
     <g transform="translate(76.69 105.84249)scale(0.08 -0.08)">
      <use xlink:href="#DejaVuSans-83"/>
      <use x="63.476562" xlink:href="#DejaVuSans-105"/>
      <use x="91.259766" xlink:href="#DejaVuSans-109"/>
      <use x="188.671875" xlink:href="#DejaVuSans-117"/>
      <use x="252.050781" xlink:href="#DejaVuSans-108"/>
      <use x="279.833984" xlink:href="#DejaVuSans-97"/>
      <use x="341.113281" xlink:href="#DejaVuSans-116"/>
      <use x="380.322266" xlink:href="#DejaVuSans-105"/>
      <use x="408.105469" xlink:href="#DejaVuSans-111"/>
      <use x="469.287109" xlink:href="#DejaVuSans-110"/>
     </g>
    </g>
    <g id="line2d_27">
     <path d="M 54.29 114.78499 
L 70.29 114.78499 
" style="fill:none;stroke:#008000;stroke-linecap:square;stroke-opacity:0.5;"/>
    </g>
    <g id="line2d_28"/>
    <g id="text_20">
     <!-- Forecast -->
     <defs>
      <path d="M 48.78125 52.59375 
L 48.78125 44.1875 
Q 44.96875 46.296875 41.140625 47.34375 
Q 37.3125 48.390625 33.40625 48.390625 
Q 24.65625 48.390625 19.8125 42.84375 
Q 14.984375 37.3125 14.984375 27.296875 
Q 14.984375 17.28125 19.8125 11.734375 
Q 24.65625 6.203125 33.40625 6.203125 
Q 37.3125 6.203125 41.140625 7.25 
Q 44.96875 8.296875 48.78125 10.40625 
L 48.78125 2.09375 
Q 45.015625 0.34375 40.984375 -0.53125 
Q 36.96875 -1.421875 32.421875 -1.421875 
Q 20.0625 -1.421875 12.78125 6.34375 
Q 5.515625 14.109375 5.515625 27.296875 
Q 5.515625 40.671875 12.859375 48.328125 
Q 20.21875 56 33.015625 56 
Q 37.15625 56 41.109375 55.140625 
Q 45.0625 54.296875 48.78125 52.59375 
z
" id="DejaVuSans-99"/>
     </defs>
     <g transform="translate(76.69 117.58499)scale(0.08 -0.08)">
      <use xlink:href="#DejaVuSans-70"/>
      <use x="53.894531" xlink:href="#DejaVuSans-111"/>
      <use x="115.076172" xlink:href="#DejaVuSans-114"/>
      <use x="153.939453" xlink:href="#DejaVuSans-101"/>
      <use x="215.462891" xlink:href="#DejaVuSans-99"/>
      <use x="270.443359" xlink:href="#DejaVuSans-97"/>
      <use x="331.722656" xlink:href="#DejaVuSans-115"/>
      <use x="383.822266" xlink:href="#DejaVuSans-116"/>
     </g>
    </g>
   </g>
  </g>
  <g id="axes_2">
   <g id="matplotlib.axis_3">
    <g id="ytick_8">
     <g id="line2d_29">
      <defs>
       <path d="M 0 0 
L 3.5 0 
" id="m28a3f5538d" style="stroke:#000000;stroke-width:0.8;"/>
      </defs>
      <g>
       <use style="stroke:#000000;stroke-width:0.8;" x="208.83811" xlink:href="#m28a3f5538d" y="126.44874"/>
      </g>
     </g>
     <g id="text_21">
      <!-- 1.0 -->
      <defs>
       <path d="M 10.59375 35.5 
L 73.1875 35.5 
L 73.1875 27.203125 
L 10.59375 27.203125 
z
" id="DejaVuSans-8722"/>
       <path d="M 10.6875 12.40625 
L 21 12.40625 
L 21 0 
L 10.6875 0 
z
" id="DejaVuSans-46"/>
      </defs>
      <g transform="translate(215.83811 129.488115)scale(0.08 -0.08)">
       <use xlink:href="#DejaVuSans-8722"/>
       <use x="83.789062" xlink:href="#DejaVuSans-49"/>
       <use x="147.412109" xlink:href="#DejaVuSans-46"/>
       <use x="179.199219" xlink:href="#DejaVuSans-48"/>
      </g>
     </g>
    </g>
    <g id="ytick_9">
     <g id="line2d_30">
      <g>
       <use style="stroke:#000000;stroke-width:0.8;" x="208.83811" xlink:href="#m28a3f5538d" y="85.402762"/>
      </g>
     </g>
     <g id="text_22">
      <!-- 0.5 -->
      <g transform="translate(215.83811 88.442137)scale(0.08 -0.08)">
       <use xlink:href="#DejaVuSans-8722"/>
       <use x="83.789062" xlink:href="#DejaVuSans-48"/>
       <use x="147.412109" xlink:href="#DejaVuSans-46"/>
       <use x="179.199219" xlink:href="#DejaVuSans-53"/>
      </g>
     </g>
    </g>
    <g id="ytick_10">
     <g id="line2d_31">
      <g>
       <use style="stroke:#000000;stroke-width:0.8;" x="208.83811" xlink:href="#m28a3f5538d" y="44.356783"/>
      </g>
     </g>
     <g id="text_23">
      <!-- 0.0 -->
      <g transform="translate(215.83811 47.396158)scale(0.08 -0.08)">
       <use xlink:href="#DejaVuSans-48"/>
       <use x="63.623047" xlink:href="#DejaVuSans-46"/>
       <use x="95.410156" xlink:href="#DejaVuSans-48"/>
      </g>
     </g>
    </g>
    <g id="ytick_11">
     <g id="line2d_32">
      <g>
       <use style="stroke:#000000;stroke-width:0.8;" x="208.83811" xlink:href="#m28a3f5538d" y="11.52"/>
      </g>
     </g>
     <g id="text_24">
      <!-- 0.4 -->
      <defs>
       <path d="M 37.796875 64.3125 
L 12.890625 25.390625 
L 37.796875 25.390625 
z
M 35.203125 72.90625 
L 47.609375 72.90625 
L 47.609375 25.390625 
L 58.015625 25.390625 
L 58.015625 17.1875 
L 47.609375 17.1875 
L 47.609375 0 
L 37.796875 0 
L 37.796875 17.1875 
L 4.890625 17.1875 
L 4.890625 26.703125 
z
" id="DejaVuSans-52"/>
      </defs>
      <g transform="translate(215.83811 14.559375)scale(0.08 -0.08)">
       <use xlink:href="#DejaVuSans-48"/>
       <use x="63.623047" xlink:href="#DejaVuSans-46"/>
       <use x="95.410156" xlink:href="#DejaVuSans-52"/>
      </g>
     </g>
    </g>
    <g id="text_25">
     <!-- Relative change -->
     <defs>
      <path d="M 44.390625 34.1875 
Q 47.5625 33.109375 50.5625 29.59375 
Q 53.5625 26.078125 56.59375 19.921875 
L 66.609375 0 
L 56 0 
L 46.6875 18.703125 
Q 43.0625 26.03125 39.671875 28.421875 
Q 36.28125 30.8125 30.421875 30.8125 
L 19.671875 30.8125 
L 19.671875 0 
L 9.8125 0 
L 9.8125 72.90625 
L 32.078125 72.90625 
Q 44.578125 72.90625 50.734375 67.671875 
Q 56.890625 62.453125 56.890625 51.90625 
Q 56.890625 45.015625 53.6875 40.46875 
Q 50.484375 35.9375 44.390625 34.1875 
z
M 19.671875 64.796875 
L 19.671875 38.921875 
L 32.078125 38.921875 
Q 39.203125 38.921875 42.84375 42.21875 
Q 46.484375 45.515625 46.484375 51.90625 
Q 46.484375 58.296875 42.84375 61.546875 
Q 39.203125 64.796875 32.078125 64.796875 
z
" id="DejaVuSans-82"/>
      <path d="M 2.984375 54.6875 
L 12.5 54.6875 
L 29.59375 8.796875 
L 46.6875 54.6875 
L 56.203125 54.6875 
L 35.6875 0 
L 23.484375 0 
z
" id="DejaVuSans-118"/>
      <path d="M 45.40625 27.984375 
Q 45.40625 37.75 41.375 43.109375 
Q 37.359375 48.484375 30.078125 48.484375 
Q 22.859375 48.484375 18.828125 43.109375 
Q 14.796875 37.75 14.796875 27.984375 
Q 14.796875 18.265625 18.828125 12.890625 
Q 22.859375 7.515625 30.078125 7.515625 
Q 37.359375 7.515625 41.375 12.890625 
Q 45.40625 18.265625 45.40625 27.984375 
z
M 54.390625 6.78125 
Q 54.390625 -7.171875 48.1875 -13.984375 
Q 42 -20.796875 29.203125 -20.796875 
Q 24.46875 -20.796875 20.265625 -20.09375 
Q 16.0625 -19.390625 12.109375 -17.921875 
L 12.109375 -9.1875 
Q 16.0625 -11.328125 19.921875 -12.34375 
Q 23.78125 -13.375 27.78125 -13.375 
Q 36.625 -13.375 41.015625 -8.765625 
Q 45.40625 -4.15625 45.40625 5.171875 
L 45.40625 9.625 
Q 42.625 4.78125 38.28125 2.390625 
Q 33.9375 0 27.875 0 
Q 17.828125 0 11.671875 7.65625 
Q 5.515625 15.328125 5.515625 27.984375 
Q 5.515625 40.671875 11.671875 48.328125 
Q 17.828125 56 27.875 56 
Q 33.9375 56 38.28125 53.609375 
Q 42.625 51.21875 45.40625 46.390625 
L 45.40625 54.6875 
L 54.390625 54.6875 
z
" id="DejaVuSans-103"/>
     </defs>
     <g transform="translate(245.34311 101.10812)rotate(-90)scale(0.08 -0.08)">
      <use xlink:href="#DejaVuSans-82"/>
      <use x="64.982422" xlink:href="#DejaVuSans-101"/>
      <use x="126.505859" xlink:href="#DejaVuSans-108"/>
      <use x="154.289062" xlink:href="#DejaVuSans-97"/>
      <use x="215.568359" xlink:href="#DejaVuSans-116"/>
      <use x="254.777344" xlink:href="#DejaVuSans-105"/>
      <use x="282.560547" xlink:href="#DejaVuSans-118"/>
      <use x="341.740234" xlink:href="#DejaVuSans-101"/>
      <use x="403.263672" xlink:href="#DejaVuSans-32"/>
      <use x="435.050781" xlink:href="#DejaVuSans-99"/>
      <use x="490.03125" xlink:href="#DejaVuSans-104"/>
      <use x="553.410156" xlink:href="#DejaVuSans-97"/>
      <use x="614.689453" xlink:href="#DejaVuSans-110"/>
      <use x="678.068359" xlink:href="#DejaVuSans-103"/>
      <use x="741.544922" xlink:href="#DejaVuSans-101"/>
     </g>
    </g>
   </g>
   <g id="line2d_33">
    <path clip-path="url(#p2374e4cf12)" d="M 55.309701 44.356783 
L 57.478488 44.356783 
L 59.647275 44.356783 
L 61.816062 54.207818 
L 63.984848 50.10322 
L 66.153635 36.147587 
L 68.322422 38.610346 
L 70.491208 39.431265 
L 72.659995 40.252185 
L 74.828782 40.252185 
L 76.997568 47.640461 
L 79.166355 45.177702 
L 81.335142 46.819542 
L 83.503928 45.177702 
L 85.672715 43.535863 
L 87.841502 42.714944 
L 90.010288 43.535863 
L 92.179075 43.535863 
L 94.347862 38.610346 
L 96.516648 41.073105 
L 98.685435 42.714944 
L 100.854222 42.714944 
L 103.023008 45.177702 
L 105.191795 40.252185 
L 107.360582 44.356783 
L 109.529368 41.073105 
L 111.698155 44.356783 
L 113.866942 45.998622 
L 116.035728 44.356783 
L 118.204515 45.177702 
L 120.373302 45.998622 
L 122.542088 52.565979 
L 124.710875 53.386898 
L 126.879662 46.819542 
L 129.048448 56.670576 
L 131.217235 61.596094 
L 133.386022 61.596094 
L 135.554808 67.342531 
L 137.723595 85.402762 
L 139.892382 90.328279 
L 142.061169 81.298164 
L 144.229955 102.642073 
L 146.398742 104.283912 
L 148.567529 105.104831 
L 150.736315 106.74667 
L 152.905102 112.493107 
L 155.073889 114.134947 
" style="fill:none;stroke:#d62728;stroke-linecap:square;stroke-opacity:0.5;"/>
   </g>
   <g id="line2d_34">
    <path clip-path="url(#p2374e4cf12)" d="M 55.309701 44.356783 
L 57.478488 44.356783 
L 59.647275 44.356783 
L 61.816062 50.10322 
L 63.984848 49.2823 
L 66.153635 43.535863 
L 68.322422 45.177702 
L 70.491208 45.998622 
L 72.659995 45.998622 
L 74.828782 45.177702 
L 76.997568 45.998622 
L 79.166355 45.998622 
L 81.335142 45.177702 
L 83.503928 41.073105 
L 85.672715 44.356783 
L 87.841502 43.535863 
L 90.010288 43.535863 
L 92.179075 43.535863 
L 94.347862 42.714944 
L 96.516648 41.073105 
L 98.685435 41.894024 
L 100.854222 41.894024 
L 103.023008 42.714944 
L 105.191795 39.431265 
L 107.360582 42.714944 
L 109.529368 42.714944 
L 111.698155 41.073105 
L 113.866942 40.252185 
L 116.035728 40.252185 
L 118.204515 35.326668 
L 120.373302 35.326668 
L 122.542088 38.610346 
L 124.710875 38.610346 
L 126.879662 27.938391 
L 129.048448 27.117472 
L 131.217235 26.296552 
L 133.386022 24.654713 
L 135.554808 36.147587 
L 137.723595 43.535863 
L 139.892382 55.849657 
L 142.061169 50.924139 
L 144.229955 64.058853 
L 146.398742 65.700692 
L 148.567529 67.342531 
L 150.736315 68.163451 
L 152.905102 76.372646 
L 155.073889 82.119083 
" style="fill:none;stroke:#9467bd;stroke-linecap:square;stroke-opacity:0.5;"/>
   </g>
   <g id="line2d_35">
    <path clip-path="url(#p2374e4cf12)" d="M 55.309701 44.356783 
L 57.478488 44.356783 
L 59.647275 44.356783 
L 61.816062 54.207818 
L 63.984848 50.10322 
L 66.153635 45.998622 
L 68.322422 46.819542 
L 70.491208 47.640461 
L 72.659995 48.461381 
L 74.828782 46.819542 
L 76.997568 45.998622 
L 79.166355 41.894024 
L 81.335142 45.998622 
L 83.503928 43.535863 
L 85.672715 45.177702 
L 87.841502 44.356783 
L 90.010288 44.356783 
L 92.179075 45.998622 
L 94.347862 40.252185 
L 96.516648 44.356783 
L 98.685435 45.177702 
L 100.854222 45.998622 
L 103.023008 46.819542 
L 105.191795 43.535863 
L 107.360582 45.177702 
L 109.529368 42.714944 
L 111.698155 46.819542 
L 113.866942 47.640461 
L 116.035728 49.2823 
L 118.204515 50.924139 
L 120.373302 51.745059 
L 122.542088 56.670576 
L 124.710875 57.491496 
L 126.879662 57.491496 
L 129.048448 66.521611 
L 131.217235 72.268048 
L 133.386022 74.730807 
L 135.554808 77.193566 
L 137.723595 82.119083 
L 139.892382 82.119083 
L 142.061169 87.86552 
L 144.229955 96.895636 
L 146.398742 100.179314 
L 148.567529 101.821153 
L 150.736315 102.642073 
L 152.905102 105.104831 
L 155.073889 105.925751 
" style="fill:none;stroke:#e377c2;stroke-linecap:square;stroke-opacity:0.5;"/>
   </g>
   <g id="line2d_36">
    <path clip-path="url(#p2374e4cf12)" d="M 55.309701 44.356783 
L 57.478488 44.356783 
L 59.647275 44.356783 
L 61.816062 47.640461 
L 63.984848 46.819542 
L 66.153635 55.849657 
L 68.322422 55.849657 
L 70.491208 55.849657 
L 72.659995 55.849657 
L 74.828782 56.670576 
L 76.997568 45.998622 
L 79.166355 45.177702 
L 81.335142 45.998622 
L 83.503928 43.535863 
L 85.672715 43.535863 
L 87.841502 44.356783 
L 90.010288 45.177702 
L 92.179075 44.356783 
L 94.347862 43.535863 
L 96.516648 43.535863 
L 98.685435 43.535863 
L 100.854222 43.535863 
L 103.023008 44.356783 
L 105.191795 43.535863 
L 107.360582 43.535863 
L 109.529368 43.535863 
L 111.698155 44.356783 
L 113.866942 44.356783 
L 116.035728 44.356783 
L 118.204515 45.177702 
L 120.373302 47.640461 
L 122.542088 45.998622 
L 124.710875 47.640461 
L 126.879662 51.745059 
L 129.048448 57.491496 
L 131.217235 63.237933 
L 133.386022 66.521611 
L 135.554808 68.163451 
L 137.723595 64.879772 
L 139.892382 68.98437 
L 142.061169 81.298164 
L 144.229955 91.970118 
L 146.398742 96.895636 
L 148.567529 98.537475 
L 150.736315 98.537475 
L 152.905102 91.149199 
L 155.073889 89.507359 
" style="fill:none;stroke:#bcbd22;stroke-linecap:square;stroke-opacity:0.5;"/>
   </g>
   <g id="line2d_37">
    <path clip-path="url(#p2374e4cf12)" d="M 55.309701 44.356783 
L 57.478488 44.356783 
L 59.647275 44.356783 
L 61.816062 42.714944 
L 63.984848 43.535863 
L 66.153635 42.714944 
L 68.322422 42.714944 
L 70.491208 41.894024 
L 72.659995 41.894024 
L 74.828782 41.894024 
L 76.997568 43.535863 
L 79.166355 44.356783 
L 81.335142 43.535863 
L 83.503928 44.356783 
L 85.672715 44.356783 
L 87.841502 44.356783 
L 90.010288 43.535863 
L 92.179075 44.356783 
L 94.347862 45.177702 
L 96.516648 44.356783 
L 98.685435 44.356783 
L 100.854222 43.535863 
L 103.023008 43.535863 
L 105.191795 44.356783 
L 107.360582 44.356783 
L 109.529368 45.177702 
L 111.698155 43.535863 
L 113.866942 43.535863 
L 116.035728 43.535863 
L 118.204515 42.714944 
L 120.373302 42.714944 
L 122.542088 42.714944 
L 124.710875 42.714944 
L 126.879662 41.073105 
L 129.048448 38.610346 
L 131.217235 36.147587 
L 133.386022 35.326668 
L 135.554808 33.684828 
L 137.723595 35.326668 
L 139.892382 36.968507 
L 142.061169 30.40115 
L 144.229955 24.654713 
L 146.398742 23.012874 
L 148.567529 22.191954 
L 150.736315 21.371035 
L 152.905102 27.938391 
L 155.073889 32.042989 
" style="fill:none;stroke:#17becf;stroke-linecap:square;stroke-opacity:0.5;"/>
   </g>
   <g id="patch_75">
    <path d="M 47.09 126.44874 
L 47.09 11.52 
" style="fill:none;stroke:#000000;stroke-linecap:square;stroke-linejoin:miter;stroke-width:0.8;"/>
   </g>
   <g id="patch_76">
    <path d="M 208.83811 126.44874 
L 208.83811 11.52 
" style="fill:none;stroke:#000000;stroke-linecap:square;stroke-linejoin:miter;stroke-width:0.8;"/>
   </g>
   <g id="patch_77">
    <path d="M 47.09 126.44874 
L 208.83811 126.44874 
" style="fill:none;stroke:#000000;stroke-linecap:square;stroke-linejoin:miter;stroke-width:0.8;"/>
   </g>
   <g id="patch_78">
    <path d="M 47.09 11.52 
L 208.83811 11.52 
" style="fill:none;stroke:#000000;stroke-linecap:square;stroke-linejoin:miter;stroke-width:0.8;"/>
   </g>
  </g>
 </g>
 <defs>
  <clipPath id="p2374e4cf12">
   <rect height="114.92874" width="161.74811" x="47.09" y="11.52"/>
  </clipPath>
 </defs>
</svg>
