<?xml version="1.0" encoding="utf-8" standalone="no"?>
<!DOCTYPE svg PUBLIC "-//W3C//DTD SVG 1.1//EN"
  "http://www.w3.org/Graphics/SVG/1.1/DTD/svg11.dtd">
<!-- Created with matplotlib (https://matplotlib.org/) -->
<svg height="720pt" version="1.1" viewBox="0 0 1080 720" width="1080pt" xmlns="http://www.w3.org/2000/svg" xmlns:xlink="http://www.w3.org/1999/xlink">
 <defs>
  <style type="text/css">
*{stroke-linecap:butt;stroke-linejoin:round;}
  </style>
 </defs>
 <g id="figure_1">
  <g id="patch_1">
   <path d="M 0 720 
L 1080 720 
L 1080 0 
L 0 0 
z
" style="fill:#ffffff;"/>
  </g>
  <g id="axes_1">
   <g id="patch_2">
    <path d="M 135 640.8 
L 972 640.8 
L 972 86.4 
L 135 86.4 
z
" style="fill:#ffffff;"/>
   </g>
   <g id="patch_3">
    <path clip-path="url(#pd70dcf69a5)" d="M 201.116335 640.8 
L 215.211682 640.8 
L 215.211682 112.8 
L 201.116335 112.8 
z
" style="fill:#1f77b4;opacity:0.4;"/>
   </g>
   <g id="patch_4">
    <path clip-path="url(#pd70dcf69a5)" d="M 215.211682 640.8 
L 229.307029 640.8 
L 229.307029 440.889087 
L 215.211682 440.889087 
z
" style="fill:#1f77b4;opacity:0.4;"/>
   </g>
   <g id="patch_5">
    <path clip-path="url(#pd70dcf69a5)" d="M 229.307029 640.8 
L 243.402375 640.8 
L 243.402375 543.196437 
L 229.307029 543.196437 
z
" style="fill:#1f77b4;opacity:0.4;"/>
   </g>
   <g id="patch_6">
    <path clip-path="url(#pd70dcf69a5)" d="M 243.402375 640.8 
L 257.497722 640.8 
L 257.497722 559.659688 
L 243.402375 559.659688 
z
" style="fill:#1f77b4;opacity:0.4;"/>
   </g>
   <g id="patch_7">
    <path clip-path="url(#pd70dcf69a5)" d="M 257.497722 640.8 
L 271.593068 640.8 
L 271.593068 573.771047 
L 257.497722 573.771047 
z
" style="fill:#1f77b4;opacity:0.4;"/>
   </g>
   <g id="patch_8">
    <path clip-path="url(#pd70dcf69a5)" d="M 271.593068 640.8 
L 285.688415 640.8 
L 285.688415 604.345657 
L 271.593068 604.345657 
z
" style="fill:#1f77b4;opacity:0.4;"/>
   </g>
   <g id="patch_9">
    <path clip-path="url(#pd70dcf69a5)" d="M 285.688415 640.8 
L 299.783762 640.8 
L 299.783762 609.049443 
L 285.688415 609.049443 
z
" style="fill:#1f77b4;opacity:0.4;"/>
   </g>
   <g id="patch_10">
    <path clip-path="url(#pd70dcf69a5)" d="M 299.783762 640.8 
L 313.879108 640.8 
L 313.879108 619.632962 
L 299.783762 619.632962 
z
" style="fill:#1f77b4;opacity:0.4;"/>
   </g>
   <g id="patch_11">
    <path clip-path="url(#pd70dcf69a5)" d="M 313.879108 640.8 
L 327.974455 640.8 
L 327.974455 621.984855 
L 313.879108 621.984855 
z
" style="fill:#1f77b4;opacity:0.4;"/>
   </g>
   <g id="patch_12">
    <path clip-path="url(#pd70dcf69a5)" d="M 327.974455 640.8 
L 342.069801 640.8 
L 342.069801 624.336748 
L 327.974455 624.336748 
z
" style="fill:#1f77b4;opacity:0.4;"/>
   </g>
   <g id="patch_13">
    <path clip-path="url(#pd70dcf69a5)" d="M 342.069801 640.8 
L 356.165148 640.8 
L 356.165148 631.392428 
L 342.069801 631.392428 
z
" style="fill:#1f77b4;opacity:0.4;"/>
   </g>
   <g id="patch_14">
    <path clip-path="url(#pd70dcf69a5)" d="M 356.165148 640.8 
L 370.260494 640.8 
L 370.260494 630.216481 
L 356.165148 630.216481 
z
" style="fill:#1f77b4;opacity:0.4;"/>
   </g>
   <g id="patch_15">
    <path clip-path="url(#pd70dcf69a5)" d="M 370.260494 640.8 
L 384.355841 640.8 
L 384.355841 632.568374 
L 370.260494 632.568374 
z
" style="fill:#1f77b4;opacity:0.4;"/>
   </g>
   <g id="patch_16">
    <path clip-path="url(#pd70dcf69a5)" d="M 384.355841 640.8 
L 398.451188 640.8 
L 398.451188 637.27216 
L 384.355841 637.27216 
z
" style="fill:#1f77b4;opacity:0.4;"/>
   </g>
   <g id="patch_17">
    <path clip-path="url(#pd70dcf69a5)" d="M 398.451188 640.8 
L 412.546534 640.8 
L 412.546534 636.096214 
L 398.451188 636.096214 
z
" style="fill:#1f77b4;opacity:0.4;"/>
   </g>
   <g id="patch_18">
    <path clip-path="url(#pd70dcf69a5)" d="M 412.546534 640.8 
L 426.641881 640.8 
L 426.641881 638.448107 
L 412.546534 638.448107 
z
" style="fill:#1f77b4;opacity:0.4;"/>
   </g>
   <g id="patch_19">
    <path clip-path="url(#pd70dcf69a5)" d="M 426.641881 640.8 
L 440.737227 640.8 
L 440.737227 634.920267 
L 426.641881 634.920267 
z
" style="fill:#1f77b4;opacity:0.4;"/>
   </g>
   <g id="patch_20">
    <path clip-path="url(#pd70dcf69a5)" d="M 440.737227 640.8 
L 454.832574 640.8 
L 454.832574 632.568374 
L 440.737227 632.568374 
z
" style="fill:#1f77b4;opacity:0.4;"/>
   </g>
   <g id="patch_21">
    <path clip-path="url(#pd70dcf69a5)" d="M 454.832574 640.8 
L 468.927921 640.8 
L 468.927921 633.744321 
L 454.832574 633.744321 
z
" style="fill:#1f77b4;opacity:0.4;"/>
   </g>
   <g id="patch_22">
    <path clip-path="url(#pd70dcf69a5)" d="M 468.927921 640.8 
L 483.023267 640.8 
L 483.023267 640.8 
L 468.927921 640.8 
z
" style="fill:#1f77b4;opacity:0.4;"/>
   </g>
   <g id="patch_23">
    <path clip-path="url(#pd70dcf69a5)" d="M 483.023267 640.8 
L 497.118614 640.8 
L 497.118614 636.096214 
L 483.023267 636.096214 
z
" style="fill:#1f77b4;opacity:0.4;"/>
   </g>
   <g id="patch_24">
    <path clip-path="url(#pd70dcf69a5)" d="M 497.118614 640.8 
L 511.21396 640.8 
L 511.21396 639.624053 
L 497.118614 639.624053 
z
" style="fill:#1f77b4;opacity:0.4;"/>
   </g>
   <g id="patch_25">
    <path clip-path="url(#pd70dcf69a5)" d="M 511.21396 640.8 
L 525.309307 640.8 
L 525.309307 640.8 
L 511.21396 640.8 
z
" style="fill:#1f77b4;opacity:0.4;"/>
   </g>
   <g id="patch_26">
    <path clip-path="url(#pd70dcf69a5)" d="M 525.309307 640.8 
L 539.404653 640.8 
L 539.404653 640.8 
L 525.309307 640.8 
z
" style="fill:#1f77b4;opacity:0.4;"/>
   </g>
   <g id="patch_27">
    <path clip-path="url(#pd70dcf69a5)" d="M 539.404653 640.8 
L 553.5 640.8 
L 553.5 639.624053 
L 539.404653 639.624053 
z
" style="fill:#1f77b4;opacity:0.4;"/>
   </g>
   <g id="patch_28">
    <path clip-path="url(#pd70dcf69a5)" d="M 553.5 640.8 
L 567.595347 640.8 
L 567.595347 639.624053 
L 553.5 639.624053 
z
" style="fill:#1f77b4;opacity:0.4;"/>
   </g>
   <g id="patch_29">
    <path clip-path="url(#pd70dcf69a5)" d="M 567.595347 640.8 
L 581.690693 640.8 
L 581.690693 640.8 
L 567.595347 640.8 
z
" style="fill:#1f77b4;opacity:0.4;"/>
   </g>
   <g id="patch_30">
    <path clip-path="url(#pd70dcf69a5)" d="M 581.690693 640.8 
L 595.78604 640.8 
L 595.78604 639.624053 
L 581.690693 639.624053 
z
" style="fill:#1f77b4;opacity:0.4;"/>
   </g>
   <g id="patch_31">
    <path clip-path="url(#pd70dcf69a5)" d="M 595.78604 640.8 
L 609.881386 640.8 
L 609.881386 640.8 
L 595.78604 640.8 
z
" style="fill:#1f77b4;opacity:0.4;"/>
   </g>
   <g id="patch_32">
    <path clip-path="url(#pd70dcf69a5)" d="M 609.881386 640.8 
L 623.976733 640.8 
L 623.976733 639.624053 
L 609.881386 639.624053 
z
" style="fill:#1f77b4;opacity:0.4;"/>
   </g>
   <g id="patch_33">
    <path clip-path="url(#pd70dcf69a5)" d="M 623.976733 640.8 
L 638.072079 640.8 
L 638.072079 640.8 
L 623.976733 640.8 
z
" style="fill:#1f77b4;opacity:0.4;"/>
   </g>
   <g id="patch_34">
    <path clip-path="url(#pd70dcf69a5)" d="M 638.072079 640.8 
L 652.167426 640.8 
L 652.167426 639.624053 
L 638.072079 639.624053 
z
" style="fill:#1f77b4;opacity:0.4;"/>
   </g>
   <g id="patch_35">
    <path clip-path="url(#pd70dcf69a5)" d="M 652.167426 640.8 
L 666.262773 640.8 
L 666.262773 640.8 
L 652.167426 640.8 
z
" style="fill:#1f77b4;opacity:0.4;"/>
   </g>
   <g id="patch_36">
    <path clip-path="url(#pd70dcf69a5)" d="M 666.262773 640.8 
L 680.358119 640.8 
L 680.358119 640.8 
L 666.262773 640.8 
z
" style="fill:#1f77b4;opacity:0.4;"/>
   </g>
   <g id="patch_37">
    <path clip-path="url(#pd70dcf69a5)" d="M 680.358119 640.8 
L 694.453466 640.8 
L 694.453466 640.8 
L 680.358119 640.8 
z
" style="fill:#1f77b4;opacity:0.4;"/>
   </g>
   <g id="patch_38">
    <path clip-path="url(#pd70dcf69a5)" d="M 694.453466 640.8 
L 708.548812 640.8 
L 708.548812 639.624053 
L 694.453466 639.624053 
z
" style="fill:#1f77b4;opacity:0.4;"/>
   </g>
   <g id="patch_39">
    <path clip-path="url(#pd70dcf69a5)" d="M 708.548812 640.8 
L 722.644159 640.8 
L 722.644159 639.624053 
L 708.548812 639.624053 
z
" style="fill:#1f77b4;opacity:0.4;"/>
   </g>
   <g id="patch_40">
    <path clip-path="url(#pd70dcf69a5)" d="M 722.644159 640.8 
L 736.739506 640.8 
L 736.739506 640.8 
L 722.644159 640.8 
z
" style="fill:#1f77b4;opacity:0.4;"/>
   </g>
   <g id="patch_41">
    <path clip-path="url(#pd70dcf69a5)" d="M 736.739506 640.8 
L 750.834852 640.8 
L 750.834852 640.8 
L 736.739506 640.8 
z
" style="fill:#1f77b4;opacity:0.4;"/>
   </g>
   <g id="patch_42">
    <path clip-path="url(#pd70dcf69a5)" d="M 750.834852 640.8 
L 764.930199 640.8 
L 764.930199 639.624053 
L 750.834852 639.624053 
z
" style="fill:#1f77b4;opacity:0.4;"/>
   </g>
   <g id="patch_43">
    <path clip-path="url(#pd70dcf69a5)" d="M 764.930199 640.8 
L 779.025545 640.8 
L 779.025545 640.8 
L 764.930199 640.8 
z
" style="fill:#1f77b4;opacity:0.4;"/>
   </g>
   <g id="patch_44">
    <path clip-path="url(#pd70dcf69a5)" d="M 779.025545 640.8 
L 793.120892 640.8 
L 793.120892 640.8 
L 779.025545 640.8 
z
" style="fill:#1f77b4;opacity:0.4;"/>
   </g>
   <g id="patch_45">
    <path clip-path="url(#pd70dcf69a5)" d="M 793.120892 640.8 
L 807.216238 640.8 
L 807.216238 640.8 
L 793.120892 640.8 
z
" style="fill:#1f77b4;opacity:0.4;"/>
   </g>
   <g id="patch_46">
    <path clip-path="url(#pd70dcf69a5)" d="M 807.216238 640.8 
L 821.311585 640.8 
L 821.311585 640.8 
L 807.216238 640.8 
z
" style="fill:#1f77b4;opacity:0.4;"/>
   </g>
   <g id="patch_47">
    <path clip-path="url(#pd70dcf69a5)" d="M 821.311585 640.8 
L 835.406932 640.8 
L 835.406932 640.8 
L 821.311585 640.8 
z
" style="fill:#1f77b4;opacity:0.4;"/>
   </g>
   <g id="patch_48">
    <path clip-path="url(#pd70dcf69a5)" d="M 835.406932 640.8 
L 849.502278 640.8 
L 849.502278 639.624053 
L 835.406932 639.624053 
z
" style="fill:#1f77b4;opacity:0.4;"/>
   </g>
   <g id="patch_49">
    <path clip-path="url(#pd70dcf69a5)" d="M 849.502278 640.8 
L 863.597625 640.8 
L 863.597625 640.8 
L 849.502278 640.8 
z
" style="fill:#1f77b4;opacity:0.4;"/>
   </g>
   <g id="patch_50">
    <path clip-path="url(#pd70dcf69a5)" d="M 863.597625 640.8 
L 877.692971 640.8 
L 877.692971 640.8 
L 863.597625 640.8 
z
" style="fill:#1f77b4;opacity:0.4;"/>
   </g>
   <g id="patch_51">
    <path clip-path="url(#pd70dcf69a5)" d="M 877.692971 640.8 
L 891.788318 640.8 
L 891.788318 640.8 
L 877.692971 640.8 
z
" style="fill:#1f77b4;opacity:0.4;"/>
   </g>
   <g id="patch_52">
    <path clip-path="url(#pd70dcf69a5)" d="M 891.788318 640.8 
L 905.883665 640.8 
L 905.883665 639.624053 
L 891.788318 639.624053 
z
" style="fill:#1f77b4;opacity:0.4;"/>
   </g>
   <g id="matplotlib.axis_1">
    <g id="xtick_1">
     <g id="line2d_1">
      <defs>
       <path d="M 0 0 
L 0 3.5 
" id="m0887a32181" style="stroke:#000000;stroke-width:0.8;"/>
      </defs>
      <g>
       <use style="stroke:#000000;stroke-width:0.8;" x="201.109176" xlink:href="#m0887a32181" y="640.8"/>
      </g>
     </g>
     <g id="text_1">
      <!-- 0.0 -->
      <defs>
       <path d="M 31.78125 66.40625 
Q 24.171875 66.40625 20.328125 58.90625 
Q 16.5 51.421875 16.5 36.375 
Q 16.5 21.390625 20.328125 13.890625 
Q 24.171875 6.390625 31.78125 6.390625 
Q 39.453125 6.390625 43.28125 13.890625 
Q 47.125 21.390625 47.125 36.375 
Q 47.125 51.421875 43.28125 58.90625 
Q 39.453125 66.40625 31.78125 66.40625 
z
M 31.78125 74.21875 
Q 44.046875 74.21875 50.515625 64.515625 
Q 56.984375 54.828125 56.984375 36.375 
Q 56.984375 17.96875 50.515625 8.265625 
Q 44.046875 -1.421875 31.78125 -1.421875 
Q 19.53125 -1.421875 13.0625 8.265625 
Q 6.59375 17.96875 6.59375 36.375 
Q 6.59375 54.828125 13.0625 64.515625 
Q 19.53125 74.21875 31.78125 74.21875 
z
" id="DejaVuSans-48"/>
       <path d="M 10.6875 12.40625 
L 21 12.40625 
L 21 0 
L 10.6875 0 
z
" id="DejaVuSans-46"/>
      </defs>
      <g transform="translate(185.206051 662.996875)scale(0.2 -0.2)">
       <use xlink:href="#DejaVuSans-48"/>
       <use x="63.623047" xlink:href="#DejaVuSans-46"/>
       <use x="95.410156" xlink:href="#DejaVuSans-48"/>
      </g>
     </g>
    </g>
    <g id="xtick_2">
     <g id="line2d_2">
      <g>
       <use style="stroke:#000000;stroke-width:0.8;" x="349.975899" xlink:href="#m0887a32181" y="640.8"/>
      </g>
     </g>
     <g id="text_2">
      <!-- 0.1 -->
      <defs>
       <path d="M 12.40625 8.296875 
L 28.515625 8.296875 
L 28.515625 63.921875 
L 10.984375 60.40625 
L 10.984375 69.390625 
L 28.421875 72.90625 
L 38.28125 72.90625 
L 38.28125 8.296875 
L 54.390625 8.296875 
L 54.390625 0 
L 12.40625 0 
z
" id="DejaVuSans-49"/>
      </defs>
      <g transform="translate(334.072774 662.996875)scale(0.2 -0.2)">
       <use xlink:href="#DejaVuSans-48"/>
       <use x="63.623047" xlink:href="#DejaVuSans-46"/>
       <use x="95.410156" xlink:href="#DejaVuSans-49"/>
      </g>
     </g>
    </g>
    <g id="xtick_3">
     <g id="line2d_3">
      <g>
       <use style="stroke:#000000;stroke-width:0.8;" x="498.842621" xlink:href="#m0887a32181" y="640.8"/>
      </g>
     </g>
     <g id="text_3">
      <!-- 0.2 -->
      <defs>
       <path d="M 19.1875 8.296875 
L 53.609375 8.296875 
L 53.609375 0 
L 7.328125 0 
L 7.328125 8.296875 
Q 12.9375 14.109375 22.625 23.890625 
Q 32.328125 33.6875 34.8125 36.53125 
Q 39.546875 41.84375 41.421875 45.53125 
Q 43.3125 49.21875 43.3125 52.78125 
Q 43.3125 58.59375 39.234375 62.25 
Q 35.15625 65.921875 28.609375 65.921875 
Q 23.96875 65.921875 18.8125 64.3125 
Q 13.671875 62.703125 7.8125 59.421875 
L 7.8125 69.390625 
Q 13.765625 71.78125 18.9375 73 
Q 24.125 74.21875 28.421875 74.21875 
Q 39.75 74.21875 46.484375 68.546875 
Q 53.21875 62.890625 53.21875 53.421875 
Q 53.21875 48.921875 51.53125 44.890625 
Q 49.859375 40.875 45.40625 35.40625 
Q 44.1875 33.984375 37.640625 27.21875 
Q 31.109375 20.453125 19.1875 8.296875 
z
" id="DejaVuSans-50"/>
      </defs>
      <g transform="translate(482.939496 662.996875)scale(0.2 -0.2)">
       <use xlink:href="#DejaVuSans-48"/>
       <use x="63.623047" xlink:href="#DejaVuSans-46"/>
       <use x="95.410156" xlink:href="#DejaVuSans-50"/>
      </g>
     </g>
    </g>
    <g id="xtick_4">
     <g id="line2d_4">
      <g>
       <use style="stroke:#000000;stroke-width:0.8;" x="647.709343" xlink:href="#m0887a32181" y="640.8"/>
      </g>
     </g>
     <g id="text_4">
      <!-- 0.3 -->
      <defs>
       <path d="M 40.578125 39.3125 
Q 47.65625 37.796875 51.625 33 
Q 55.609375 28.21875 55.609375 21.1875 
Q 55.609375 10.40625 48.1875 4.484375 
Q 40.765625 -1.421875 27.09375 -1.421875 
Q 22.515625 -1.421875 17.65625 -0.515625 
Q 12.796875 0.390625 7.625 2.203125 
L 7.625 11.71875 
Q 11.71875 9.328125 16.59375 8.109375 
Q 21.484375 6.890625 26.8125 6.890625 
Q 36.078125 6.890625 40.9375 10.546875 
Q 45.796875 14.203125 45.796875 21.1875 
Q 45.796875 27.640625 41.28125 31.265625 
Q 36.765625 34.90625 28.71875 34.90625 
L 20.21875 34.90625 
L 20.21875 43.015625 
L 29.109375 43.015625 
Q 36.375 43.015625 40.234375 45.921875 
Q 44.09375 48.828125 44.09375 54.296875 
Q 44.09375 59.90625 40.109375 62.90625 
Q 36.140625 65.921875 28.71875 65.921875 
Q 24.65625 65.921875 20.015625 65.03125 
Q 15.375 64.15625 9.8125 62.3125 
L 9.8125 71.09375 
Q 15.4375 72.65625 20.34375 73.4375 
Q 25.25 74.21875 29.59375 74.21875 
Q 40.828125 74.21875 47.359375 69.109375 
Q 53.90625 64.015625 53.90625 55.328125 
Q 53.90625 49.265625 50.4375 45.09375 
Q 46.96875 40.921875 40.578125 39.3125 
z
" id="DejaVuSans-51"/>
      </defs>
      <g transform="translate(631.806218 662.996875)scale(0.2 -0.2)">
       <use xlink:href="#DejaVuSans-48"/>
       <use x="63.623047" xlink:href="#DejaVuSans-46"/>
       <use x="95.410156" xlink:href="#DejaVuSans-51"/>
      </g>
     </g>
    </g>
    <g id="xtick_5">
     <g id="line2d_5">
      <g>
       <use style="stroke:#000000;stroke-width:0.8;" x="796.576065" xlink:href="#m0887a32181" y="640.8"/>
      </g>
     </g>
     <g id="text_5">
      <!-- 0.4 -->
      <defs>
       <path d="M 37.796875 64.3125 
L 12.890625 25.390625 
L 37.796875 25.390625 
z
M 35.203125 72.90625 
L 47.609375 72.90625 
L 47.609375 25.390625 
L 58.015625 25.390625 
L 58.015625 17.1875 
L 47.609375 17.1875 
L 47.609375 0 
L 37.796875 0 
L 37.796875 17.1875 
L 4.890625 17.1875 
L 4.890625 26.703125 
z
" id="DejaVuSans-52"/>
      </defs>
      <g transform="translate(780.67294 662.996875)scale(0.2 -0.2)">
       <use xlink:href="#DejaVuSans-48"/>
       <use x="63.623047" xlink:href="#DejaVuSans-46"/>
       <use x="95.410156" xlink:href="#DejaVuSans-52"/>
      </g>
     </g>
    </g>
    <g id="xtick_6">
     <g id="line2d_6">
      <g>
       <use style="stroke:#000000;stroke-width:0.8;" x="945.442787" xlink:href="#m0887a32181" y="640.8"/>
      </g>
     </g>
     <g id="text_6">
      <!-- 0.5 -->
      <defs>
       <path d="M 10.796875 72.90625 
L 49.515625 72.90625 
L 49.515625 64.59375 
L 19.828125 64.59375 
L 19.828125 46.734375 
Q 21.96875 47.46875 24.109375 47.828125 
Q 26.265625 48.1875 28.421875 48.1875 
Q 40.625 48.1875 47.75 41.5 
Q 54.890625 34.8125 54.890625 23.390625 
Q 54.890625 11.625 47.5625 5.09375 
Q 40.234375 -1.421875 26.90625 -1.421875 
Q 22.3125 -1.421875 17.546875 -0.640625 
Q 12.796875 0.140625 7.71875 1.703125 
L 7.71875 11.625 
Q 12.109375 9.234375 16.796875 8.0625 
Q 21.484375 6.890625 26.703125 6.890625 
Q 35.15625 6.890625 40.078125 11.328125 
Q 45.015625 15.765625 45.015625 23.390625 
Q 45.015625 31 40.078125 35.4375 
Q 35.15625 39.890625 26.703125 39.890625 
Q 22.75 39.890625 18.8125 39.015625 
Q 14.890625 38.140625 10.796875 36.28125 
z
" id="DejaVuSans-53"/>
      </defs>
      <g transform="translate(929.539662 662.996875)scale(0.2 -0.2)">
       <use xlink:href="#DejaVuSans-48"/>
       <use x="63.623047" xlink:href="#DejaVuSans-46"/>
       <use x="95.410156" xlink:href="#DejaVuSans-53"/>
      </g>
     </g>
    </g>
   </g>
   <g id="matplotlib.axis_2">
    <g id="ytick_1">
     <g id="line2d_7">
      <defs>
       <path d="M 0 0 
L -3.5 0 
" id="m92bbc885e5" style="stroke:#000000;stroke-width:0.8;"/>
      </defs>
      <g>
       <use style="stroke:#000000;stroke-width:0.8;" x="135" xlink:href="#m92bbc885e5" y="640.8"/>
      </g>
     </g>
     <g id="text_7">
      <!-- 0 -->
      <g transform="translate(115.275 648.398438)scale(0.2 -0.2)">
       <use xlink:href="#DejaVuSans-48"/>
      </g>
     </g>
    </g>
    <g id="ytick_2">
     <g id="line2d_8">
      <g>
       <use style="stroke:#000000;stroke-width:0.8;" x="135" xlink:href="#m92bbc885e5" y="529.456283"/>
      </g>
     </g>
     <g id="text_8">
      <!-- 10 -->
      <g transform="translate(102.55 537.054721)scale(0.2 -0.2)">
       <use xlink:href="#DejaVuSans-49"/>
       <use x="63.623047" xlink:href="#DejaVuSans-48"/>
      </g>
     </g>
    </g>
    <g id="ytick_3">
     <g id="line2d_9">
      <g>
       <use style="stroke:#000000;stroke-width:0.8;" x="135" xlink:href="#m92bbc885e5" y="418.112566"/>
      </g>
     </g>
     <g id="text_9">
      <!-- 20 -->
      <g transform="translate(102.55 425.711004)scale(0.2 -0.2)">
       <use xlink:href="#DejaVuSans-50"/>
       <use x="63.623047" xlink:href="#DejaVuSans-48"/>
      </g>
     </g>
    </g>
    <g id="ytick_4">
     <g id="line2d_10">
      <g>
       <use style="stroke:#000000;stroke-width:0.8;" x="135" xlink:href="#m92bbc885e5" y="306.76885"/>
      </g>
     </g>
     <g id="text_10">
      <!-- 30 -->
      <g transform="translate(102.55 314.367287)scale(0.2 -0.2)">
       <use xlink:href="#DejaVuSans-51"/>
       <use x="63.623047" xlink:href="#DejaVuSans-48"/>
      </g>
     </g>
    </g>
    <g id="ytick_5">
     <g id="line2d_11">
      <g>
       <use style="stroke:#000000;stroke-width:0.8;" x="135" xlink:href="#m92bbc885e5" y="195.425133"/>
      </g>
     </g>
     <g id="text_11">
      <!-- 40 -->
      <g transform="translate(102.55 203.02357)scale(0.2 -0.2)">
       <use xlink:href="#DejaVuSans-52"/>
       <use x="63.623047" xlink:href="#DejaVuSans-48"/>
      </g>
     </g>
    </g>
   </g>
   <g id="line2d_12">
    <path clip-path="url(#pd70dcf69a5)" d="M 173.045455 639.502968 
L 179.036865 632.987167 
L 185.028275 607.928369 
L 191.019685 544.221093 
L 197.011095 441.191871 
L 203.002505 344.497468 
L 208.993916 310.897249 
L 214.985326 344.675132 
L 220.976736 405.648761 
L 226.968146 461.916161 
L 232.959556 505.414631 
L 238.950966 536.064481 
L 244.942377 554.268142 
L 250.933787 563.602541 
L 256.925197 569.443531 
L 262.916607 575.569078 
L 268.908017 583.512298 
L 274.899427 592.69175 
L 280.890838 601.089791 
L 286.882248 607.234939 
L 292.873658 611.168868 
L 298.865068 613.790441 
L 304.856478 615.890001 
L 322.830709 621.708485 
L 334.813529 624.709818 
L 340.804939 626.793494 
L 346.796349 629.603193 
L 352.787759 632.059559 
L 358.77917 632.813058 
L 364.77058 632.046911 
L 370.76199 631.420512 
L 376.7534 632.050166 
L 388.73622 635.105869 
L 394.727631 636.057971 
L 400.719041 636.522261 
L 412.701861 637.156778 
L 418.693271 637.154913 
L 424.684681 636.662195 
L 430.676092 635.823369 
L 442.658912 633.601426 
L 448.650322 633.041813 
L 454.641732 633.552197 
L 460.633142 634.885864 
L 466.624553 636.418136 
L 472.615963 637.516189 
L 478.607373 637.827014 
L 484.598783 637.693333 
L 490.590193 637.806637 
L 496.581603 638.429568 
L 508.564424 640.104963 
L 514.555834 640.55981 
L 520.547244 640.723765 
L 526.538654 640.704533 
L 532.530064 640.536045 
L 544.512885 640.007019 
L 556.495705 639.866394 
L 568.478525 640.066831 
L 574.469936 640.178613 
L 592.444166 640.093893 
L 598.435576 640.165229 
L 610.418397 640.04177 
L 628.392627 640.53394 
L 646.366858 640.114384 
L 670.332498 640.764502 
L 676.323908 640.712995 
L 688.306729 640.277328 
L 694.298139 640.084054 
L 724.25519 640.190746 
L 730.2466 640.439411 
L 736.23801 640.547829 
L 754.212241 640.094163 
L 766.195061 640.527026 
L 772.186471 640.709315 
L 784.169291 640.797097 
L 820.117752 640.761901 
L 826.109162 640.658839 
L 844.083393 640.099174 
L 868.049034 640.780473 
L 886.023264 640.722059 
L 898.006084 640.303395 
L 903.997495 640.117163 
L 909.988905 640.170205 
L 921.971725 640.632825 
L 927.963135 640.739514 
L 933.954545 640.640725 
L 933.954545 640.640725 
" style="fill:none;stroke:#1f77b4;stroke-linecap:square;stroke-width:1.5;"/>
   </g>
   <g id="patch_53">
    <path d="M 135 640.8 
L 135 86.4 
" style="fill:none;stroke:#000000;stroke-linecap:square;stroke-linejoin:miter;stroke-width:0.8;"/>
   </g>
   <g id="patch_54">
    <path d="M 972 640.8 
L 972 86.4 
" style="fill:none;stroke:#000000;stroke-linecap:square;stroke-linejoin:miter;stroke-width:0.8;"/>
   </g>
   <g id="patch_55">
    <path d="M 135 640.8 
L 972 640.8 
" style="fill:none;stroke:#000000;stroke-linecap:square;stroke-linejoin:miter;stroke-width:0.8;"/>
   </g>
   <g id="patch_56">
    <path d="M 135 86.4 
L 972 86.4 
" style="fill:none;stroke:#000000;stroke-linecap:square;stroke-linejoin:miter;stroke-width:0.8;"/>
   </g>
  </g>
 </g>
 <defs>
  <clipPath id="pd70dcf69a5">
   <rect height="554.4" width="837" x="135" y="86.4"/>
  </clipPath>
 </defs>
</svg>
