<?xml version="1.0" encoding="utf-8" standalone="no"?>
<!DOCTYPE svg PUBLIC "-//W3C//DTD SVG 1.1//EN"
  "http://www.w3.org/Graphics/SVG/1.1/DTD/svg11.dtd">
<!-- Created with matplotlib (https://matplotlib.org/) -->
<svg height="720pt" version="1.1" viewBox="0 0 1080 720" width="1080pt" xmlns="http://www.w3.org/2000/svg" xmlns:xlink="http://www.w3.org/1999/xlink">
 <defs>
  <style type="text/css">
*{stroke-linecap:butt;stroke-linejoin:round;}
  </style>
 </defs>
 <g id="figure_1">
  <g id="patch_1">
   <path d="M 0 720 
L 1080 720 
L 1080 0 
L 0 0 
z
" style="fill:#ffffff;"/>
  </g>
  <g id="axes_1">
   <g id="patch_2">
    <path d="M 135 640.8 
L 972 640.8 
L 972 86.4 
L 135 86.4 
z
" style="fill:#ffffff;"/>
   </g>
   <g id="patch_3">
    <path clip-path="url(#pf9ce4be6f7)" d="M 194.060151 640.8 
L 208.437745 640.8 
L 208.437745 112.8 
L 194.060151 112.8 
z
" style="fill:#1f77b4;opacity:0.4;"/>
   </g>
   <g id="patch_4">
    <path clip-path="url(#pf9ce4be6f7)" d="M 208.437745 640.8 
L 222.815339 640.8 
L 222.815339 473.7375 
L 208.437745 473.7375 
z
" style="fill:#1f77b4;opacity:0.4;"/>
   </g>
   <g id="patch_5">
    <path clip-path="url(#pf9ce4be6f7)" d="M 222.815339 640.8 
L 237.192933 640.8 
L 237.192933 536.64375 
L 222.815339 536.64375 
z
" style="fill:#1f77b4;opacity:0.4;"/>
   </g>
   <g id="patch_6">
    <path clip-path="url(#pf9ce4be6f7)" d="M 237.192933 640.8 
L 251.570526 640.8 
L 251.570526 576.8625 
L 237.192933 576.8625 
z
" style="fill:#1f77b4;opacity:0.4;"/>
   </g>
   <g id="patch_7">
    <path clip-path="url(#pf9ce4be6f7)" d="M 251.570526 640.8 
L 265.94812 640.8 
L 265.94812 599.55 
L 251.570526 599.55 
z
" style="fill:#1f77b4;opacity:0.4;"/>
   </g>
   <g id="patch_8">
    <path clip-path="url(#pf9ce4be6f7)" d="M 265.94812 640.8 
L 280.325714 640.8 
L 280.325714 625.33125 
L 265.94812 625.33125 
z
" style="fill:#1f77b4;opacity:0.4;"/>
   </g>
   <g id="patch_9">
    <path clip-path="url(#pf9ce4be6f7)" d="M 280.325714 640.8 
L 294.703308 640.8 
L 294.703308 616.05 
L 280.325714 616.05 
z
" style="fill:#1f77b4;opacity:0.4;"/>
   </g>
   <g id="patch_10">
    <path clip-path="url(#pf9ce4be6f7)" d="M 294.703308 640.8 
L 309.080902 640.8 
L 309.080902 626.3625 
L 294.703308 626.3625 
z
" style="fill:#1f77b4;opacity:0.4;"/>
   </g>
   <g id="patch_11">
    <path clip-path="url(#pf9ce4be6f7)" d="M 309.080902 640.8 
L 323.458496 640.8 
L 323.458496 628.425 
L 309.080902 628.425 
z
" style="fill:#1f77b4;opacity:0.4;"/>
   </g>
   <g id="patch_12">
    <path clip-path="url(#pf9ce4be6f7)" d="M 323.458496 640.8 
L 337.83609 640.8 
L 337.83609 628.425 
L 323.458496 628.425 
z
" style="fill:#1f77b4;opacity:0.4;"/>
   </g>
   <g id="patch_13">
    <path clip-path="url(#pf9ce4be6f7)" d="M 337.83609 640.8 
L 352.213684 640.8 
L 352.213684 632.55 
L 337.83609 632.55 
z
" style="fill:#1f77b4;opacity:0.4;"/>
   </g>
   <g id="patch_14">
    <path clip-path="url(#pf9ce4be6f7)" d="M 352.213684 640.8 
L 366.591278 640.8 
L 366.591278 636.675 
L 352.213684 636.675 
z
" style="fill:#1f77b4;opacity:0.4;"/>
   </g>
   <g id="patch_15">
    <path clip-path="url(#pf9ce4be6f7)" d="M 366.591278 640.8 
L 380.968872 640.8 
L 380.968872 635.64375 
L 366.591278 635.64375 
z
" style="fill:#1f77b4;opacity:0.4;"/>
   </g>
   <g id="patch_16">
    <path clip-path="url(#pf9ce4be6f7)" d="M 380.968872 640.8 
L 395.346466 640.8 
L 395.346466 638.7375 
L 380.968872 638.7375 
z
" style="fill:#1f77b4;opacity:0.4;"/>
   </g>
   <g id="patch_17">
    <path clip-path="url(#pf9ce4be6f7)" d="M 395.346466 640.8 
L 409.72406 640.8 
L 409.72406 639.76875 
L 395.346466 639.76875 
z
" style="fill:#1f77b4;opacity:0.4;"/>
   </g>
   <g id="patch_18">
    <path clip-path="url(#pf9ce4be6f7)" d="M 409.72406 640.8 
L 424.101654 640.8 
L 424.101654 635.64375 
L 409.72406 635.64375 
z
" style="fill:#1f77b4;opacity:0.4;"/>
   </g>
   <g id="patch_19">
    <path clip-path="url(#pf9ce4be6f7)" d="M 424.101654 640.8 
L 438.479248 640.8 
L 438.479248 639.76875 
L 424.101654 639.76875 
z
" style="fill:#1f77b4;opacity:0.4;"/>
   </g>
   <g id="patch_20">
    <path clip-path="url(#pf9ce4be6f7)" d="M 438.479248 640.8 
L 452.856842 640.8 
L 452.856842 638.7375 
L 438.479248 638.7375 
z
" style="fill:#1f77b4;opacity:0.4;"/>
   </g>
   <g id="patch_21">
    <path clip-path="url(#pf9ce4be6f7)" d="M 452.856842 640.8 
L 467.234436 640.8 
L 467.234436 640.8 
L 452.856842 640.8 
z
" style="fill:#1f77b4;opacity:0.4;"/>
   </g>
   <g id="patch_22">
    <path clip-path="url(#pf9ce4be6f7)" d="M 467.234436 640.8 
L 481.61203 640.8 
L 481.61203 639.76875 
L 467.234436 639.76875 
z
" style="fill:#1f77b4;opacity:0.4;"/>
   </g>
   <g id="patch_23">
    <path clip-path="url(#pf9ce4be6f7)" d="M 481.61203 640.8 
L 495.989624 640.8 
L 495.989624 639.76875 
L 481.61203 639.76875 
z
" style="fill:#1f77b4;opacity:0.4;"/>
   </g>
   <g id="patch_24">
    <path clip-path="url(#pf9ce4be6f7)" d="M 495.989624 640.8 
L 510.367218 640.8 
L 510.367218 637.70625 
L 495.989624 637.70625 
z
" style="fill:#1f77b4;opacity:0.4;"/>
   </g>
   <g id="patch_25">
    <path clip-path="url(#pf9ce4be6f7)" d="M 510.367218 640.8 
L 524.744812 640.8 
L 524.744812 639.76875 
L 510.367218 639.76875 
z
" style="fill:#1f77b4;opacity:0.4;"/>
   </g>
   <g id="patch_26">
    <path clip-path="url(#pf9ce4be6f7)" d="M 524.744812 640.8 
L 539.122406 640.8 
L 539.122406 639.76875 
L 524.744812 639.76875 
z
" style="fill:#1f77b4;opacity:0.4;"/>
   </g>
   <g id="patch_27">
    <path clip-path="url(#pf9ce4be6f7)" d="M 539.122406 640.8 
L 553.5 640.8 
L 553.5 640.8 
L 539.122406 640.8 
z
" style="fill:#1f77b4;opacity:0.4;"/>
   </g>
   <g id="patch_28">
    <path clip-path="url(#pf9ce4be6f7)" d="M 553.5 640.8 
L 567.877594 640.8 
L 567.877594 640.8 
L 553.5 640.8 
z
" style="fill:#1f77b4;opacity:0.4;"/>
   </g>
   <g id="patch_29">
    <path clip-path="url(#pf9ce4be6f7)" d="M 567.877594 640.8 
L 582.255188 640.8 
L 582.255188 639.76875 
L 567.877594 639.76875 
z
" style="fill:#1f77b4;opacity:0.4;"/>
   </g>
   <g id="patch_30">
    <path clip-path="url(#pf9ce4be6f7)" d="M 582.255188 640.8 
L 596.632782 640.8 
L 596.632782 639.76875 
L 582.255188 639.76875 
z
" style="fill:#1f77b4;opacity:0.4;"/>
   </g>
   <g id="patch_31">
    <path clip-path="url(#pf9ce4be6f7)" d="M 596.632782 640.8 
L 611.010376 640.8 
L 611.010376 639.76875 
L 596.632782 639.76875 
z
" style="fill:#1f77b4;opacity:0.4;"/>
   </g>
   <g id="patch_32">
    <path clip-path="url(#pf9ce4be6f7)" d="M 611.010376 640.8 
L 625.38797 640.8 
L 625.38797 640.8 
L 611.010376 640.8 
z
" style="fill:#1f77b4;opacity:0.4;"/>
   </g>
   <g id="patch_33">
    <path clip-path="url(#pf9ce4be6f7)" d="M 625.38797 640.8 
L 639.765564 640.8 
L 639.765564 639.76875 
L 625.38797 639.76875 
z
" style="fill:#1f77b4;opacity:0.4;"/>
   </g>
   <g id="patch_34">
    <path clip-path="url(#pf9ce4be6f7)" d="M 639.765564 640.8 
L 654.143158 640.8 
L 654.143158 640.8 
L 639.765564 640.8 
z
" style="fill:#1f77b4;opacity:0.4;"/>
   </g>
   <g id="patch_35">
    <path clip-path="url(#pf9ce4be6f7)" d="M 654.143158 640.8 
L 668.520752 640.8 
L 668.520752 640.8 
L 654.143158 640.8 
z
" style="fill:#1f77b4;opacity:0.4;"/>
   </g>
   <g id="patch_36">
    <path clip-path="url(#pf9ce4be6f7)" d="M 668.520752 640.8 
L 682.898346 640.8 
L 682.898346 640.8 
L 668.520752 640.8 
z
" style="fill:#1f77b4;opacity:0.4;"/>
   </g>
   <g id="patch_37">
    <path clip-path="url(#pf9ce4be6f7)" d="M 682.898346 640.8 
L 697.27594 640.8 
L 697.27594 639.76875 
L 682.898346 639.76875 
z
" style="fill:#1f77b4;opacity:0.4;"/>
   </g>
   <g id="patch_38">
    <path clip-path="url(#pf9ce4be6f7)" d="M 697.27594 640.8 
L 711.653534 640.8 
L 711.653534 640.8 
L 697.27594 640.8 
z
" style="fill:#1f77b4;opacity:0.4;"/>
   </g>
   <g id="patch_39">
    <path clip-path="url(#pf9ce4be6f7)" d="M 711.653534 640.8 
L 726.031128 640.8 
L 726.031128 640.8 
L 711.653534 640.8 
z
" style="fill:#1f77b4;opacity:0.4;"/>
   </g>
   <g id="patch_40">
    <path clip-path="url(#pf9ce4be6f7)" d="M 726.031128 640.8 
L 740.408722 640.8 
L 740.408722 639.76875 
L 726.031128 639.76875 
z
" style="fill:#1f77b4;opacity:0.4;"/>
   </g>
   <g id="patch_41">
    <path clip-path="url(#pf9ce4be6f7)" d="M 740.408722 640.8 
L 754.786316 640.8 
L 754.786316 639.76875 
L 740.408722 639.76875 
z
" style="fill:#1f77b4;opacity:0.4;"/>
   </g>
   <g id="patch_42">
    <path clip-path="url(#pf9ce4be6f7)" d="M 754.786316 640.8 
L 769.16391 640.8 
L 769.16391 640.8 
L 754.786316 640.8 
z
" style="fill:#1f77b4;opacity:0.4;"/>
   </g>
   <g id="patch_43">
    <path clip-path="url(#pf9ce4be6f7)" d="M 769.16391 640.8 
L 783.541504 640.8 
L 783.541504 640.8 
L 769.16391 640.8 
z
" style="fill:#1f77b4;opacity:0.4;"/>
   </g>
   <g id="patch_44">
    <path clip-path="url(#pf9ce4be6f7)" d="M 783.541504 640.8 
L 797.919098 640.8 
L 797.919098 640.8 
L 783.541504 640.8 
z
" style="fill:#1f77b4;opacity:0.4;"/>
   </g>
   <g id="patch_45">
    <path clip-path="url(#pf9ce4be6f7)" d="M 797.919098 640.8 
L 812.296692 640.8 
L 812.296692 639.76875 
L 797.919098 639.76875 
z
" style="fill:#1f77b4;opacity:0.4;"/>
   </g>
   <g id="patch_46">
    <path clip-path="url(#pf9ce4be6f7)" d="M 812.296692 640.8 
L 826.674286 640.8 
L 826.674286 639.76875 
L 812.296692 639.76875 
z
" style="fill:#1f77b4;opacity:0.4;"/>
   </g>
   <g id="patch_47">
    <path clip-path="url(#pf9ce4be6f7)" d="M 826.674286 640.8 
L 841.05188 640.8 
L 841.05188 640.8 
L 826.674286 640.8 
z
" style="fill:#1f77b4;opacity:0.4;"/>
   </g>
   <g id="patch_48">
    <path clip-path="url(#pf9ce4be6f7)" d="M 841.05188 640.8 
L 855.429474 640.8 
L 855.429474 640.8 
L 841.05188 640.8 
z
" style="fill:#1f77b4;opacity:0.4;"/>
   </g>
   <g id="patch_49">
    <path clip-path="url(#pf9ce4be6f7)" d="M 855.429474 640.8 
L 869.807067 640.8 
L 869.807067 639.76875 
L 855.429474 639.76875 
z
" style="fill:#1f77b4;opacity:0.4;"/>
   </g>
   <g id="patch_50">
    <path clip-path="url(#pf9ce4be6f7)" d="M 869.807067 640.8 
L 884.184661 640.8 
L 884.184661 640.8 
L 869.807067 640.8 
z
" style="fill:#1f77b4;opacity:0.4;"/>
   </g>
   <g id="patch_51">
    <path clip-path="url(#pf9ce4be6f7)" d="M 884.184661 640.8 
L 898.562255 640.8 
L 898.562255 640.8 
L 884.184661 640.8 
z
" style="fill:#1f77b4;opacity:0.4;"/>
   </g>
   <g id="patch_52">
    <path clip-path="url(#pf9ce4be6f7)" d="M 898.562255 640.8 
L 912.939849 640.8 
L 912.939849 639.76875 
L 898.562255 639.76875 
z
" style="fill:#1f77b4;opacity:0.4;"/>
   </g>
   <g id="matplotlib.axis_1">
    <g id="xtick_1">
     <g id="line2d_1">
      <defs>
       <path d="M 0 0 
L 0 3.5 
" id="m165610dc7b" style="stroke:#000000;stroke-width:0.8;"/>
      </defs>
      <g>
       <use style="stroke:#000000;stroke-width:0.8;" x="194.058389" xlink:href="#m165610dc7b" y="640.8"/>
      </g>
     </g>
     <g id="text_1">
      <!-- 0.0 -->
      <defs>
       <path d="M 31.78125 66.40625 
Q 24.171875 66.40625 20.328125 58.90625 
Q 16.5 51.421875 16.5 36.375 
Q 16.5 21.390625 20.328125 13.890625 
Q 24.171875 6.390625 31.78125 6.390625 
Q 39.453125 6.390625 43.28125 13.890625 
Q 47.125 21.390625 47.125 36.375 
Q 47.125 51.421875 43.28125 58.90625 
Q 39.453125 66.40625 31.78125 66.40625 
z
M 31.78125 74.21875 
Q 44.046875 74.21875 50.515625 64.515625 
Q 56.984375 54.828125 56.984375 36.375 
Q 56.984375 17.96875 50.515625 8.265625 
Q 44.046875 -1.421875 31.78125 -1.421875 
Q 19.53125 -1.421875 13.0625 8.265625 
Q 6.59375 17.96875 6.59375 36.375 
Q 6.59375 54.828125 13.0625 64.515625 
Q 19.53125 74.21875 31.78125 74.21875 
z
" id="DejaVuSans-48"/>
       <path d="M 10.6875 12.40625 
L 21 12.40625 
L 21 0 
L 10.6875 0 
z
" id="DejaVuSans-46"/>
      </defs>
      <g transform="translate(178.155264 662.996875)scale(0.2 -0.2)">
       <use xlink:href="#DejaVuSans-48"/>
       <use x="63.623047" xlink:href="#DejaVuSans-46"/>
       <use x="95.410156" xlink:href="#DejaVuSans-48"/>
      </g>
     </g>
    </g>
    <g id="xtick_2">
     <g id="line2d_2">
      <g>
       <use style="stroke:#000000;stroke-width:0.8;" x="316.783797" xlink:href="#m165610dc7b" y="640.8"/>
      </g>
     </g>
     <g id="text_2">
      <!-- 0.1 -->
      <defs>
       <path d="M 12.40625 8.296875 
L 28.515625 8.296875 
L 28.515625 63.921875 
L 10.984375 60.40625 
L 10.984375 69.390625 
L 28.421875 72.90625 
L 38.28125 72.90625 
L 38.28125 8.296875 
L 54.390625 8.296875 
L 54.390625 0 
L 12.40625 0 
z
" id="DejaVuSans-49"/>
      </defs>
      <g transform="translate(300.880672 662.996875)scale(0.2 -0.2)">
       <use xlink:href="#DejaVuSans-48"/>
       <use x="63.623047" xlink:href="#DejaVuSans-46"/>
       <use x="95.410156" xlink:href="#DejaVuSans-49"/>
      </g>
     </g>
    </g>
    <g id="xtick_3">
     <g id="line2d_3">
      <g>
       <use style="stroke:#000000;stroke-width:0.8;" x="439.509205" xlink:href="#m165610dc7b" y="640.8"/>
      </g>
     </g>
     <g id="text_3">
      <!-- 0.2 -->
      <defs>
       <path d="M 19.1875 8.296875 
L 53.609375 8.296875 
L 53.609375 0 
L 7.328125 0 
L 7.328125 8.296875 
Q 12.9375 14.109375 22.625 23.890625 
Q 32.328125 33.6875 34.8125 36.53125 
Q 39.546875 41.84375 41.421875 45.53125 
Q 43.3125 49.21875 43.3125 52.78125 
Q 43.3125 58.59375 39.234375 62.25 
Q 35.15625 65.921875 28.609375 65.921875 
Q 23.96875 65.921875 18.8125 64.3125 
Q 13.671875 62.703125 7.8125 59.421875 
L 7.8125 69.390625 
Q 13.765625 71.78125 18.9375 73 
Q 24.125 74.21875 28.421875 74.21875 
Q 39.75 74.21875 46.484375 68.546875 
Q 53.21875 62.890625 53.21875 53.421875 
Q 53.21875 48.921875 51.53125 44.890625 
Q 49.859375 40.875 45.40625 35.40625 
Q 44.1875 33.984375 37.640625 27.21875 
Q 31.109375 20.453125 19.1875 8.296875 
z
" id="DejaVuSans-50"/>
      </defs>
      <g transform="translate(423.60608 662.996875)scale(0.2 -0.2)">
       <use xlink:href="#DejaVuSans-48"/>
       <use x="63.623047" xlink:href="#DejaVuSans-46"/>
       <use x="95.410156" xlink:href="#DejaVuSans-50"/>
      </g>
     </g>
    </g>
    <g id="xtick_4">
     <g id="line2d_4">
      <g>
       <use style="stroke:#000000;stroke-width:0.8;" x="562.234613" xlink:href="#m165610dc7b" y="640.8"/>
      </g>
     </g>
     <g id="text_4">
      <!-- 0.3 -->
      <defs>
       <path d="M 40.578125 39.3125 
Q 47.65625 37.796875 51.625 33 
Q 55.609375 28.21875 55.609375 21.1875 
Q 55.609375 10.40625 48.1875 4.484375 
Q 40.765625 -1.421875 27.09375 -1.421875 
Q 22.515625 -1.421875 17.65625 -0.515625 
Q 12.796875 0.390625 7.625 2.203125 
L 7.625 11.71875 
Q 11.71875 9.328125 16.59375 8.109375 
Q 21.484375 6.890625 26.8125 6.890625 
Q 36.078125 6.890625 40.9375 10.546875 
Q 45.796875 14.203125 45.796875 21.1875 
Q 45.796875 27.640625 41.28125 31.265625 
Q 36.765625 34.90625 28.71875 34.90625 
L 20.21875 34.90625 
L 20.21875 43.015625 
L 29.109375 43.015625 
Q 36.375 43.015625 40.234375 45.921875 
Q 44.09375 48.828125 44.09375 54.296875 
Q 44.09375 59.90625 40.109375 62.90625 
Q 36.140625 65.921875 28.71875 65.921875 
Q 24.65625 65.921875 20.015625 65.03125 
Q 15.375 64.15625 9.8125 62.3125 
L 9.8125 71.09375 
Q 15.4375 72.65625 20.34375 73.4375 
Q 25.25 74.21875 29.59375 74.21875 
Q 40.828125 74.21875 47.359375 69.109375 
Q 53.90625 64.015625 53.90625 55.328125 
Q 53.90625 49.265625 50.4375 45.09375 
Q 46.96875 40.921875 40.578125 39.3125 
z
" id="DejaVuSans-51"/>
      </defs>
      <g transform="translate(546.331488 662.996875)scale(0.2 -0.2)">
       <use xlink:href="#DejaVuSans-48"/>
       <use x="63.623047" xlink:href="#DejaVuSans-46"/>
       <use x="95.410156" xlink:href="#DejaVuSans-51"/>
      </g>
     </g>
    </g>
    <g id="xtick_5">
     <g id="line2d_5">
      <g>
       <use style="stroke:#000000;stroke-width:0.8;" x="684.960021" xlink:href="#m165610dc7b" y="640.8"/>
      </g>
     </g>
     <g id="text_5">
      <!-- 0.4 -->
      <defs>
       <path d="M 37.796875 64.3125 
L 12.890625 25.390625 
L 37.796875 25.390625 
z
M 35.203125 72.90625 
L 47.609375 72.90625 
L 47.609375 25.390625 
L 58.015625 25.390625 
L 58.015625 17.1875 
L 47.609375 17.1875 
L 47.609375 0 
L 37.796875 0 
L 37.796875 17.1875 
L 4.890625 17.1875 
L 4.890625 26.703125 
z
" id="DejaVuSans-52"/>
      </defs>
      <g transform="translate(669.056896 662.996875)scale(0.2 -0.2)">
       <use xlink:href="#DejaVuSans-48"/>
       <use x="63.623047" xlink:href="#DejaVuSans-46"/>
       <use x="95.410156" xlink:href="#DejaVuSans-52"/>
      </g>
     </g>
    </g>
    <g id="xtick_6">
     <g id="line2d_6">
      <g>
       <use style="stroke:#000000;stroke-width:0.8;" x="807.685429" xlink:href="#m165610dc7b" y="640.8"/>
      </g>
     </g>
     <g id="text_6">
      <!-- 0.5 -->
      <defs>
       <path d="M 10.796875 72.90625 
L 49.515625 72.90625 
L 49.515625 64.59375 
L 19.828125 64.59375 
L 19.828125 46.734375 
Q 21.96875 47.46875 24.109375 47.828125 
Q 26.265625 48.1875 28.421875 48.1875 
Q 40.625 48.1875 47.75 41.5 
Q 54.890625 34.8125 54.890625 23.390625 
Q 54.890625 11.625 47.5625 5.09375 
Q 40.234375 -1.421875 26.90625 -1.421875 
Q 22.3125 -1.421875 17.546875 -0.640625 
Q 12.796875 0.140625 7.71875 1.703125 
L 7.71875 11.625 
Q 12.109375 9.234375 16.796875 8.0625 
Q 21.484375 6.890625 26.703125 6.890625 
Q 35.15625 6.890625 40.078125 11.328125 
Q 45.015625 15.765625 45.015625 23.390625 
Q 45.015625 31 40.078125 35.4375 
Q 35.15625 39.890625 26.703125 39.890625 
Q 22.75 39.890625 18.8125 39.015625 
Q 14.890625 38.140625 10.796875 36.28125 
z
" id="DejaVuSans-53"/>
      </defs>
      <g transform="translate(791.782304 662.996875)scale(0.2 -0.2)">
       <use xlink:href="#DejaVuSans-48"/>
       <use x="63.623047" xlink:href="#DejaVuSans-46"/>
       <use x="95.410156" xlink:href="#DejaVuSans-53"/>
      </g>
     </g>
    </g>
    <g id="xtick_7">
     <g id="line2d_7">
      <g>
       <use style="stroke:#000000;stroke-width:0.8;" x="930.410837" xlink:href="#m165610dc7b" y="640.8"/>
      </g>
     </g>
     <g id="text_7">
      <!-- 0.6 -->
      <defs>
       <path d="M 33.015625 40.375 
Q 26.375 40.375 22.484375 35.828125 
Q 18.609375 31.296875 18.609375 23.390625 
Q 18.609375 15.53125 22.484375 10.953125 
Q 26.375 6.390625 33.015625 6.390625 
Q 39.65625 6.390625 43.53125 10.953125 
Q 47.40625 15.53125 47.40625 23.390625 
Q 47.40625 31.296875 43.53125 35.828125 
Q 39.65625 40.375 33.015625 40.375 
z
M 52.59375 71.296875 
L 52.59375 62.3125 
Q 48.875 64.0625 45.09375 64.984375 
Q 41.3125 65.921875 37.59375 65.921875 
Q 27.828125 65.921875 22.671875 59.328125 
Q 17.53125 52.734375 16.796875 39.40625 
Q 19.671875 43.65625 24.015625 45.921875 
Q 28.375 48.1875 33.59375 48.1875 
Q 44.578125 48.1875 50.953125 41.515625 
Q 57.328125 34.859375 57.328125 23.390625 
Q 57.328125 12.15625 50.6875 5.359375 
Q 44.046875 -1.421875 33.015625 -1.421875 
Q 20.359375 -1.421875 13.671875 8.265625 
Q 6.984375 17.96875 6.984375 36.375 
Q 6.984375 53.65625 15.1875 63.9375 
Q 23.390625 74.21875 37.203125 74.21875 
Q 40.921875 74.21875 44.703125 73.484375 
Q 48.484375 72.75 52.59375 71.296875 
z
" id="DejaVuSans-54"/>
      </defs>
      <g transform="translate(914.507712 662.996875)scale(0.2 -0.2)">
       <use xlink:href="#DejaVuSans-48"/>
       <use x="63.623047" xlink:href="#DejaVuSans-46"/>
       <use x="95.410156" xlink:href="#DejaVuSans-54"/>
      </g>
     </g>
    </g>
   </g>
   <g id="matplotlib.axis_2">
    <g id="ytick_1">
     <g id="line2d_8">
      <defs>
       <path d="M 0 0 
L -3.5 0 
" id="mb96bda6f9b" style="stroke:#000000;stroke-width:0.8;"/>
      </defs>
      <g>
       <use style="stroke:#000000;stroke-width:0.8;" x="135" xlink:href="#mb96bda6f9b" y="640.8"/>
      </g>
     </g>
     <g id="text_8">
      <!-- 0 -->
      <g transform="translate(115.275 648.398438)scale(0.2 -0.2)">
       <use xlink:href="#DejaVuSans-48"/>
      </g>
     </g>
    </g>
    <g id="ytick_2">
     <g id="line2d_9">
      <g>
       <use style="stroke:#000000;stroke-width:0.8;" x="135" xlink:href="#mb96bda6f9b" y="519.986437"/>
      </g>
     </g>
     <g id="text_9">
      <!-- 10 -->
      <g transform="translate(102.55 527.584875)scale(0.2 -0.2)">
       <use xlink:href="#DejaVuSans-49"/>
       <use x="63.623047" xlink:href="#DejaVuSans-48"/>
      </g>
     </g>
    </g>
    <g id="ytick_3">
     <g id="line2d_10">
      <g>
       <use style="stroke:#000000;stroke-width:0.8;" x="135" xlink:href="#mb96bda6f9b" y="399.172874"/>
      </g>
     </g>
     <g id="text_10">
      <!-- 20 -->
      <g transform="translate(102.55 406.771312)scale(0.2 -0.2)">
       <use xlink:href="#DejaVuSans-50"/>
       <use x="63.623047" xlink:href="#DejaVuSans-48"/>
      </g>
     </g>
    </g>
    <g id="ytick_4">
     <g id="line2d_11">
      <g>
       <use style="stroke:#000000;stroke-width:0.8;" x="135" xlink:href="#mb96bda6f9b" y="278.359311"/>
      </g>
     </g>
     <g id="text_11">
      <!-- 30 -->
      <g transform="translate(102.55 285.957749)scale(0.2 -0.2)">
       <use xlink:href="#DejaVuSans-51"/>
       <use x="63.623047" xlink:href="#DejaVuSans-48"/>
      </g>
     </g>
    </g>
    <g id="ytick_5">
     <g id="line2d_12">
      <g>
       <use style="stroke:#000000;stroke-width:0.8;" x="135" xlink:href="#mb96bda6f9b" y="157.545748"/>
      </g>
     </g>
     <g id="text_12">
      <!-- 40 -->
      <g transform="translate(102.55 165.144186)scale(0.2 -0.2)">
       <use xlink:href="#DejaVuSans-52"/>
       <use x="63.623047" xlink:href="#DejaVuSans-48"/>
      </g>
     </g>
    </g>
   </g>
   <g id="line2d_13">
    <path clip-path="url(#pf9ce4be6f7)" d="M 173.045455 638.872115 
L 179.036865 622.969804 
L 185.028275 553.006961 
L 191.019685 399.270538 
L 197.011095 264.626575 
L 203.002505 280.520274 
L 208.993916 375.975045 
L 214.985326 452.360395 
L 220.976736 499.685222 
L 226.968146 526.502068 
L 232.959556 544.110991 
L 238.950966 561.153449 
L 244.942377 576.954928 
L 250.933787 588.503017 
L 256.925197 598.086504 
L 262.916607 608.971378 
L 268.908017 618.490218 
L 274.899427 620.4931 
L 280.890838 617.11341 
L 286.882248 617.761988 
L 292.873658 622.338844 
L 298.865068 625.085744 
L 304.856478 626.042673 
L 310.847888 627.219482 
L 316.839298 628.93722 
L 322.830709 629.618868 
L 328.822119 629.443404 
L 334.813529 630.05549 
L 340.804939 631.319273 
L 346.796349 632.808185 
L 352.787759 634.52982 
L 358.77917 635.834993 
L 364.77058 636.418537 
L 376.7534 636.091628 
L 382.74481 636.995866 
L 388.73622 638.147747 
L 394.727631 638.983725 
L 400.719041 639.425971 
L 406.710451 638.773963 
L 412.701861 637.146366 
L 418.693271 636.646851 
L 424.684681 637.935517 
L 430.676092 639.01609 
L 436.667502 639.199641 
L 442.658912 639.10092 
L 448.650322 639.506367 
L 454.641732 640.23401 
L 460.633142 640.627661 
L 466.624553 640.559459 
L 478.607373 639.724399 
L 490.590193 639.279498 
L 502.573014 638.633281 
L 508.564424 638.672589 
L 514.555834 639.085788 
L 520.547244 639.369969 
L 532.530064 639.668936 
L 544.512885 640.625622 
L 550.504295 640.76014 
L 556.495705 640.67978 
L 568.478525 639.986565 
L 580.461346 639.8859 
L 586.452756 639.63318 
L 592.444166 639.553864 
L 598.435576 639.724726 
L 610.418397 640.640083 
L 616.409807 640.774189 
L 622.401217 640.753375 
L 628.392627 640.567993 
L 634.384037 640.164126 
L 640.375447 639.944155 
L 652.358268 640.650626 
L 664.341088 640.798909 
L 676.323908 640.749235 
L 682.315319 640.549729 
L 688.306729 640.151918 
L 694.298139 639.956309 
L 706.280959 640.655787 
L 712.272369 640.779574 
L 718.26378 640.772885 
L 724.25519 640.602257 
L 730.2466 640.028469 
L 736.23801 639.301835 
L 742.22942 639.314594 
L 748.22083 640.0486 
L 754.212241 640.607706 
L 760.203651 640.776346 
L 784.169291 640.798573 
L 790.160702 640.768551 
L 796.152112 640.610009 
L 808.134932 639.859222 
L 820.117752 639.980709 
L 826.109162 639.940417 
L 838.091983 640.651273 
L 844.083393 640.722614 
L 850.074803 640.521091 
L 856.066213 640.134315 
L 862.057623 639.973603 
L 874.040444 640.662342 
L 880.031854 640.785584 
L 892.014674 640.792239 
L 898.006084 640.695613 
L 909.988905 640.043252 
L 915.980315 640.067009 
L 927.963135 640.717472 
L 933.954545 640.651261 
L 933.954545 640.651261 
" style="fill:none;stroke:#1f77b4;stroke-linecap:square;stroke-width:1.5;"/>
   </g>
   <g id="patch_53">
    <path d="M 135 640.8 
L 135 86.4 
" style="fill:none;stroke:#000000;stroke-linecap:square;stroke-linejoin:miter;stroke-width:0.8;"/>
   </g>
   <g id="patch_54">
    <path d="M 972 640.8 
L 972 86.4 
" style="fill:none;stroke:#000000;stroke-linecap:square;stroke-linejoin:miter;stroke-width:0.8;"/>
   </g>
   <g id="patch_55">
    <path d="M 135 640.8 
L 972 640.8 
" style="fill:none;stroke:#000000;stroke-linecap:square;stroke-linejoin:miter;stroke-width:0.8;"/>
   </g>
   <g id="patch_56">
    <path d="M 135 86.4 
L 972 86.4 
" style="fill:none;stroke:#000000;stroke-linecap:square;stroke-linejoin:miter;stroke-width:0.8;"/>
   </g>
  </g>
 </g>
 <defs>
  <clipPath id="pf9ce4be6f7">
   <rect height="554.4" width="837" x="135" y="86.4"/>
  </clipPath>
 </defs>
</svg>
