<?xml version="1.0" encoding="utf-8" standalone="no"?>
<!DOCTYPE svg PUBLIC "-//W3C//DTD SVG 1.1//EN"
  "http://www.w3.org/Graphics/SVG/1.1/DTD/svg11.dtd">
<!-- Created with matplotlib (https://matplotlib.org/) -->
<svg height="720pt" version="1.1" viewBox="0 0 1080 720" width="1080pt" xmlns="http://www.w3.org/2000/svg" xmlns:xlink="http://www.w3.org/1999/xlink">
 <defs>
  <style type="text/css">
*{stroke-linecap:butt;stroke-linejoin:round;}
  </style>
 </defs>
 <g id="figure_1">
  <g id="patch_1">
   <path d="M 0 720 
L 1080 720 
L 1080 0 
L 0 0 
z
" style="fill:#ffffff;"/>
  </g>
  <g id="axes_1">
   <g id="patch_2">
    <path d="M 135 640.8 
L 972 640.8 
L 972 86.4 
L 135 86.4 
z
" style="fill:#ffffff;"/>
   </g>
   <g id="patch_3">
    <path clip-path="url(#p8095c3deee)" d="M 254.90031 640.8 
L 282.045736 640.8 
L 282.045736 622.273684 
L 254.90031 622.273684 
z
" style="fill:#1f77b4;opacity:0.4;"/>
   </g>
   <g id="patch_4">
    <path clip-path="url(#p8095c3deee)" d="M 282.045736 640.8 
L 309.191162 640.8 
L 309.191162 599.115789 
L 282.045736 599.115789 
z
" style="fill:#1f77b4;opacity:0.4;"/>
   </g>
   <g id="patch_5">
    <path clip-path="url(#p8095c3deee)" d="M 309.191162 640.8 
L 336.336589 640.8 
L 336.336589 589.852632 
L 309.191162 589.852632 
z
" style="fill:#1f77b4;opacity:0.4;"/>
   </g>
   <g id="patch_6">
    <path clip-path="url(#p8095c3deee)" d="M 336.336589 640.8 
L 363.482015 640.8 
L 363.482015 589.852632 
L 336.336589 589.852632 
z
" style="fill:#1f77b4;opacity:0.4;"/>
   </g>
   <g id="patch_7">
    <path clip-path="url(#p8095c3deee)" d="M 363.482015 640.8 
L 390.627442 640.8 
L 390.627442 538.905263 
L 363.482015 538.905263 
z
" style="fill:#1f77b4;opacity:0.4;"/>
   </g>
   <g id="patch_8">
    <path clip-path="url(#p8095c3deee)" d="M 390.627442 640.8 
L 417.772868 640.8 
L 417.772868 464.8 
L 390.627442 464.8 
z
" style="fill:#1f77b4;opacity:0.4;"/>
   </g>
   <g id="patch_9">
    <path clip-path="url(#p8095c3deee)" d="M 417.772868 640.8 
L 444.918294 640.8 
L 444.918294 450.905263 
L 417.772868 450.905263 
z
" style="fill:#1f77b4;opacity:0.4;"/>
   </g>
   <g id="patch_10">
    <path clip-path="url(#p8095c3deee)" d="M 444.918294 640.8 
L 472.063721 640.8 
L 472.063721 427.747368 
L 444.918294 427.747368 
z
" style="fill:#1f77b4;opacity:0.4;"/>
   </g>
   <g id="patch_11">
    <path clip-path="url(#p8095c3deee)" d="M 472.063721 640.8 
L 499.209147 640.8 
L 499.209147 205.431579 
L 472.063721 205.431579 
z
" style="fill:#1f77b4;opacity:0.4;"/>
   </g>
   <g id="patch_12">
    <path clip-path="url(#p8095c3deee)" d="M 499.209147 640.8 
L 526.354574 640.8 
L 526.354574 196.168421 
L 499.209147 196.168421 
z
" style="fill:#1f77b4;opacity:0.4;"/>
   </g>
   <g id="patch_13">
    <path clip-path="url(#p8095c3deee)" d="M 526.354574 640.8 
L 553.5 640.8 
L 553.5 191.536842 
L 526.354574 191.536842 
z
" style="fill:#1f77b4;opacity:0.4;"/>
   </g>
   <g id="patch_14">
    <path clip-path="url(#p8095c3deee)" d="M 553.5 640.8 
L 580.645426 640.8 
L 580.645426 112.8 
L 553.5 112.8 
z
" style="fill:#1f77b4;opacity:0.4;"/>
   </g>
   <g id="patch_15">
    <path clip-path="url(#p8095c3deee)" d="M 580.645426 640.8 
L 607.790853 640.8 
L 607.790853 251.747368 
L 580.645426 251.747368 
z
" style="fill:#1f77b4;opacity:0.4;"/>
   </g>
   <g id="patch_16">
    <path clip-path="url(#p8095c3deee)" d="M 607.790853 640.8 
L 634.936279 640.8 
L 634.936279 186.905263 
L 607.790853 186.905263 
z
" style="fill:#1f77b4;opacity:0.4;"/>
   </g>
   <g id="patch_17">
    <path clip-path="url(#p8095c3deee)" d="M 634.936279 640.8 
L 662.081706 640.8 
L 662.081706 358.273684 
L 634.936279 358.273684 
z
" style="fill:#1f77b4;opacity:0.4;"/>
   </g>
   <g id="patch_18">
    <path clip-path="url(#p8095c3deee)" d="M 662.081706 640.8 
L 689.227132 640.8 
L 689.227132 376.8 
L 662.081706 376.8 
z
" style="fill:#1f77b4;opacity:0.4;"/>
   </g>
   <g id="patch_19">
    <path clip-path="url(#p8095c3deee)" d="M 689.227132 640.8 
L 716.372558 640.8 
L 716.372558 450.905263 
L 689.227132 450.905263 
z
" style="fill:#1f77b4;opacity:0.4;"/>
   </g>
   <g id="patch_20">
    <path clip-path="url(#p8095c3deee)" d="M 716.372558 640.8 
L 743.517985 640.8 
L 743.517985 515.747368 
L 716.372558 515.747368 
z
" style="fill:#1f77b4;opacity:0.4;"/>
   </g>
   <g id="patch_21">
    <path clip-path="url(#p8095c3deee)" d="M 743.517985 640.8 
L 770.663411 640.8 
L 770.663411 529.642105 
L 743.517985 529.642105 
z
" style="fill:#1f77b4;opacity:0.4;"/>
   </g>
   <g id="patch_22">
    <path clip-path="url(#p8095c3deee)" d="M 770.663411 640.8 
L 797.808838 640.8 
L 797.808838 594.484211 
L 770.663411 594.484211 
z
" style="fill:#1f77b4;opacity:0.4;"/>
   </g>
   <g id="patch_23">
    <path clip-path="url(#p8095c3deee)" d="M 797.808838 640.8 
L 824.954264 640.8 
L 824.954264 585.221053 
L 797.808838 585.221053 
z
" style="fill:#1f77b4;opacity:0.4;"/>
   </g>
   <g id="patch_24">
    <path clip-path="url(#p8095c3deee)" d="M 824.954264 640.8 
L 852.09969 640.8 
L 852.09969 626.905263 
L 824.954264 626.905263 
z
" style="fill:#1f77b4;opacity:0.4;"/>
   </g>
   <g id="matplotlib.axis_1">
    <g id="xtick_1">
     <g id="line2d_1">
      <defs>
       <path d="M 0 0 
L 0 3.5 
" id="mf107176654" style="stroke:#000000;stroke-width:0.8;"/>
      </defs>
      <g>
       <use style="stroke:#000000;stroke-width:0.8;" x="238.911786" xlink:href="#mf107176654" y="640.8"/>
      </g>
     </g>
     <g id="text_1">
      <!-- −1.5 -->
      <defs>
       <path d="M 10.59375 35.5 
L 73.1875 35.5 
L 73.1875 27.203125 
L 10.59375 27.203125 
z
" id="DejaVuSans-8722"/>
       <path d="M 12.40625 8.296875 
L 28.515625 8.296875 
L 28.515625 63.921875 
L 10.984375 60.40625 
L 10.984375 69.390625 
L 28.421875 72.90625 
L 38.28125 72.90625 
L 38.28125 8.296875 
L 54.390625 8.296875 
L 54.390625 0 
L 12.40625 0 
z
" id="DejaVuSans-49"/>
       <path d="M 10.6875 12.40625 
L 21 12.40625 
L 21 0 
L 10.6875 0 
z
" id="DejaVuSans-46"/>
       <path d="M 10.796875 72.90625 
L 49.515625 72.90625 
L 49.515625 64.59375 
L 19.828125 64.59375 
L 19.828125 46.734375 
Q 21.96875 47.46875 24.109375 47.828125 
Q 26.265625 48.1875 28.421875 48.1875 
Q 40.625 48.1875 47.75 41.5 
Q 54.890625 34.8125 54.890625 23.390625 
Q 54.890625 11.625 47.5625 5.09375 
Q 40.234375 -1.421875 26.90625 -1.421875 
Q 22.3125 -1.421875 17.546875 -0.640625 
Q 12.796875 0.140625 7.71875 1.703125 
L 7.71875 11.625 
Q 12.109375 9.234375 16.796875 8.0625 
Q 21.484375 6.890625 26.703125 6.890625 
Q 35.15625 6.890625 40.078125 11.328125 
Q 45.015625 15.765625 45.015625 23.390625 
Q 45.015625 31 40.078125 35.4375 
Q 35.15625 39.890625 26.703125 39.890625 
Q 22.75 39.890625 18.8125 39.015625 
Q 14.890625 38.140625 10.796875 36.28125 
z
" id="DejaVuSans-53"/>
      </defs>
      <g transform="translate(214.628974 662.996875)scale(0.2 -0.2)">
       <use xlink:href="#DejaVuSans-8722"/>
       <use x="83.789062" xlink:href="#DejaVuSans-49"/>
       <use x="147.412109" xlink:href="#DejaVuSans-46"/>
       <use x="179.199219" xlink:href="#DejaVuSans-53"/>
      </g>
     </g>
    </g>
    <g id="xtick_2">
     <g id="line2d_2">
      <g>
       <use style="stroke:#000000;stroke-width:0.8;" x="346.220667" xlink:href="#mf107176654" y="640.8"/>
      </g>
     </g>
     <g id="text_2">
      <!-- −1.0 -->
      <defs>
       <path d="M 31.78125 66.40625 
Q 24.171875 66.40625 20.328125 58.90625 
Q 16.5 51.421875 16.5 36.375 
Q 16.5 21.390625 20.328125 13.890625 
Q 24.171875 6.390625 31.78125 6.390625 
Q 39.453125 6.390625 43.28125 13.890625 
Q 47.125 21.390625 47.125 36.375 
Q 47.125 51.421875 43.28125 58.90625 
Q 39.453125 66.40625 31.78125 66.40625 
z
M 31.78125 74.21875 
Q 44.046875 74.21875 50.515625 64.515625 
Q 56.984375 54.828125 56.984375 36.375 
Q 56.984375 17.96875 50.515625 8.265625 
Q 44.046875 -1.421875 31.78125 -1.421875 
Q 19.53125 -1.421875 13.0625 8.265625 
Q 6.59375 17.96875 6.59375 36.375 
Q 6.59375 54.828125 13.0625 64.515625 
Q 19.53125 74.21875 31.78125 74.21875 
z
" id="DejaVuSans-48"/>
      </defs>
      <g transform="translate(321.937855 662.996875)scale(0.2 -0.2)">
       <use xlink:href="#DejaVuSans-8722"/>
       <use x="83.789062" xlink:href="#DejaVuSans-49"/>
       <use x="147.412109" xlink:href="#DejaVuSans-46"/>
       <use x="179.199219" xlink:href="#DejaVuSans-48"/>
      </g>
     </g>
    </g>
    <g id="xtick_3">
     <g id="line2d_3">
      <g>
       <use style="stroke:#000000;stroke-width:0.8;" x="453.529549" xlink:href="#mf107176654" y="640.8"/>
      </g>
     </g>
     <g id="text_3">
      <!-- −0.5 -->
      <g transform="translate(429.246736 662.996875)scale(0.2 -0.2)">
       <use xlink:href="#DejaVuSans-8722"/>
       <use x="83.789062" xlink:href="#DejaVuSans-48"/>
       <use x="147.412109" xlink:href="#DejaVuSans-46"/>
       <use x="179.199219" xlink:href="#DejaVuSans-53"/>
      </g>
     </g>
    </g>
    <g id="xtick_4">
     <g id="line2d_4">
      <g>
       <use style="stroke:#000000;stroke-width:0.8;" x="560.83843" xlink:href="#mf107176654" y="640.8"/>
      </g>
     </g>
     <g id="text_4">
      <!-- 0.0 -->
      <g transform="translate(544.935305 662.996875)scale(0.2 -0.2)">
       <use xlink:href="#DejaVuSans-48"/>
       <use x="63.623047" xlink:href="#DejaVuSans-46"/>
       <use x="95.410156" xlink:href="#DejaVuSans-48"/>
      </g>
     </g>
    </g>
    <g id="xtick_5">
     <g id="line2d_5">
      <g>
       <use style="stroke:#000000;stroke-width:0.8;" x="668.147311" xlink:href="#mf107176654" y="640.8"/>
      </g>
     </g>
     <g id="text_5">
      <!-- 0.5 -->
      <g transform="translate(652.244186 662.996875)scale(0.2 -0.2)">
       <use xlink:href="#DejaVuSans-48"/>
       <use x="63.623047" xlink:href="#DejaVuSans-46"/>
       <use x="95.410156" xlink:href="#DejaVuSans-53"/>
      </g>
     </g>
    </g>
    <g id="xtick_6">
     <g id="line2d_6">
      <g>
       <use style="stroke:#000000;stroke-width:0.8;" x="775.456193" xlink:href="#mf107176654" y="640.8"/>
      </g>
     </g>
     <g id="text_6">
      <!-- 1.0 -->
      <g transform="translate(759.553068 662.996875)scale(0.2 -0.2)">
       <use xlink:href="#DejaVuSans-49"/>
       <use x="63.623047" xlink:href="#DejaVuSans-46"/>
       <use x="95.410156" xlink:href="#DejaVuSans-48"/>
      </g>
     </g>
    </g>
    <g id="xtick_7">
     <g id="line2d_7">
      <g>
       <use style="stroke:#000000;stroke-width:0.8;" x="882.765074" xlink:href="#mf107176654" y="640.8"/>
      </g>
     </g>
     <g id="text_7">
      <!-- 1.5 -->
      <g transform="translate(866.861949 662.996875)scale(0.2 -0.2)">
       <use xlink:href="#DejaVuSans-49"/>
       <use x="63.623047" xlink:href="#DejaVuSans-46"/>
       <use x="95.410156" xlink:href="#DejaVuSans-53"/>
      </g>
     </g>
    </g>
   </g>
   <g id="matplotlib.axis_2">
    <g id="ytick_1">
     <g id="line2d_8">
      <defs>
       <path d="M 0 0 
L -3.5 0 
" id="m08b9b8fbdd" style="stroke:#000000;stroke-width:0.8;"/>
      </defs>
      <g>
       <use style="stroke:#000000;stroke-width:0.8;" x="135" xlink:href="#m08b9b8fbdd" y="640.8"/>
      </g>
     </g>
     <g id="text_8">
      <!-- 0.0 -->
      <g transform="translate(96.19375 648.398438)scale(0.2 -0.2)">
       <use xlink:href="#DejaVuSans-48"/>
       <use x="63.623047" xlink:href="#DejaVuSans-46"/>
       <use x="95.410156" xlink:href="#DejaVuSans-48"/>
      </g>
     </g>
    </g>
    <g id="ytick_2">
     <g id="line2d_9">
      <g>
       <use style="stroke:#000000;stroke-width:0.8;" x="135" xlink:href="#m08b9b8fbdd" y="523.637111"/>
      </g>
     </g>
     <g id="text_9">
      <!-- 0.2 -->
      <defs>
       <path d="M 19.1875 8.296875 
L 53.609375 8.296875 
L 53.609375 0 
L 7.328125 0 
L 7.328125 8.296875 
Q 12.9375 14.109375 22.625 23.890625 
Q 32.328125 33.6875 34.8125 36.53125 
Q 39.546875 41.84375 41.421875 45.53125 
Q 43.3125 49.21875 43.3125 52.78125 
Q 43.3125 58.59375 39.234375 62.25 
Q 35.15625 65.921875 28.609375 65.921875 
Q 23.96875 65.921875 18.8125 64.3125 
Q 13.671875 62.703125 7.8125 59.421875 
L 7.8125 69.390625 
Q 13.765625 71.78125 18.9375 73 
Q 24.125 74.21875 28.421875 74.21875 
Q 39.75 74.21875 46.484375 68.546875 
Q 53.21875 62.890625 53.21875 53.421875 
Q 53.21875 48.921875 51.53125 44.890625 
Q 49.859375 40.875 45.40625 35.40625 
Q 44.1875 33.984375 37.640625 27.21875 
Q 31.109375 20.453125 19.1875 8.296875 
z
" id="DejaVuSans-50"/>
      </defs>
      <g transform="translate(96.19375 531.235549)scale(0.2 -0.2)">
       <use xlink:href="#DejaVuSans-48"/>
       <use x="63.623047" xlink:href="#DejaVuSans-46"/>
       <use x="95.410156" xlink:href="#DejaVuSans-50"/>
      </g>
     </g>
    </g>
    <g id="ytick_3">
     <g id="line2d_10">
      <g>
       <use style="stroke:#000000;stroke-width:0.8;" x="135" xlink:href="#m08b9b8fbdd" y="406.474222"/>
      </g>
     </g>
     <g id="text_10">
      <!-- 0.4 -->
      <defs>
       <path d="M 37.796875 64.3125 
L 12.890625 25.390625 
L 37.796875 25.390625 
z
M 35.203125 72.90625 
L 47.609375 72.90625 
L 47.609375 25.390625 
L 58.015625 25.390625 
L 58.015625 17.1875 
L 47.609375 17.1875 
L 47.609375 0 
L 37.796875 0 
L 37.796875 17.1875 
L 4.890625 17.1875 
L 4.890625 26.703125 
z
" id="DejaVuSans-52"/>
      </defs>
      <g transform="translate(96.19375 414.07266)scale(0.2 -0.2)">
       <use xlink:href="#DejaVuSans-48"/>
       <use x="63.623047" xlink:href="#DejaVuSans-46"/>
       <use x="95.410156" xlink:href="#DejaVuSans-52"/>
      </g>
     </g>
    </g>
    <g id="ytick_4">
     <g id="line2d_11">
      <g>
       <use style="stroke:#000000;stroke-width:0.8;" x="135" xlink:href="#m08b9b8fbdd" y="289.311333"/>
      </g>
     </g>
     <g id="text_11">
      <!-- 0.6 -->
      <defs>
       <path d="M 33.015625 40.375 
Q 26.375 40.375 22.484375 35.828125 
Q 18.609375 31.296875 18.609375 23.390625 
Q 18.609375 15.53125 22.484375 10.953125 
Q 26.375 6.390625 33.015625 6.390625 
Q 39.65625 6.390625 43.53125 10.953125 
Q 47.40625 15.53125 47.40625 23.390625 
Q 47.40625 31.296875 43.53125 35.828125 
Q 39.65625 40.375 33.015625 40.375 
z
M 52.59375 71.296875 
L 52.59375 62.3125 
Q 48.875 64.0625 45.09375 64.984375 
Q 41.3125 65.921875 37.59375 65.921875 
Q 27.828125 65.921875 22.671875 59.328125 
Q 17.53125 52.734375 16.796875 39.40625 
Q 19.671875 43.65625 24.015625 45.921875 
Q 28.375 48.1875 33.59375 48.1875 
Q 44.578125 48.1875 50.953125 41.515625 
Q 57.328125 34.859375 57.328125 23.390625 
Q 57.328125 12.15625 50.6875 5.359375 
Q 44.046875 -1.421875 33.015625 -1.421875 
Q 20.359375 -1.421875 13.671875 8.265625 
Q 6.984375 17.96875 6.984375 36.375 
Q 6.984375 53.65625 15.1875 63.9375 
Q 23.390625 74.21875 37.203125 74.21875 
Q 40.921875 74.21875 44.703125 73.484375 
Q 48.484375 72.75 52.59375 71.296875 
z
" id="DejaVuSans-54"/>
      </defs>
      <g transform="translate(96.19375 296.909771)scale(0.2 -0.2)">
       <use xlink:href="#DejaVuSans-48"/>
       <use x="63.623047" xlink:href="#DejaVuSans-46"/>
       <use x="95.410156" xlink:href="#DejaVuSans-54"/>
      </g>
     </g>
    </g>
    <g id="ytick_5">
     <g id="line2d_12">
      <g>
       <use style="stroke:#000000;stroke-width:0.8;" x="135" xlink:href="#m08b9b8fbdd" y="172.148444"/>
      </g>
     </g>
     <g id="text_12">
      <!-- 0.8 -->
      <defs>
       <path d="M 31.78125 34.625 
Q 24.75 34.625 20.71875 30.859375 
Q 16.703125 27.09375 16.703125 20.515625 
Q 16.703125 13.921875 20.71875 10.15625 
Q 24.75 6.390625 31.78125 6.390625 
Q 38.8125 6.390625 42.859375 10.171875 
Q 46.921875 13.96875 46.921875 20.515625 
Q 46.921875 27.09375 42.890625 30.859375 
Q 38.875 34.625 31.78125 34.625 
z
M 21.921875 38.8125 
Q 15.578125 40.375 12.03125 44.71875 
Q 8.5 49.078125 8.5 55.328125 
Q 8.5 64.0625 14.71875 69.140625 
Q 20.953125 74.21875 31.78125 74.21875 
Q 42.671875 74.21875 48.875 69.140625 
Q 55.078125 64.0625 55.078125 55.328125 
Q 55.078125 49.078125 51.53125 44.71875 
Q 48 40.375 41.703125 38.8125 
Q 48.828125 37.15625 52.796875 32.3125 
Q 56.78125 27.484375 56.78125 20.515625 
Q 56.78125 9.90625 50.3125 4.234375 
Q 43.84375 -1.421875 31.78125 -1.421875 
Q 19.734375 -1.421875 13.25 4.234375 
Q 6.78125 9.90625 6.78125 20.515625 
Q 6.78125 27.484375 10.78125 32.3125 
Q 14.796875 37.15625 21.921875 38.8125 
z
M 18.3125 54.390625 
Q 18.3125 48.734375 21.84375 45.5625 
Q 25.390625 42.390625 31.78125 42.390625 
Q 38.140625 42.390625 41.71875 45.5625 
Q 45.3125 48.734375 45.3125 54.390625 
Q 45.3125 60.0625 41.71875 63.234375 
Q 38.140625 66.40625 31.78125 66.40625 
Q 25.390625 66.40625 21.84375 63.234375 
Q 18.3125 60.0625 18.3125 54.390625 
z
" id="DejaVuSans-56"/>
      </defs>
      <g transform="translate(96.19375 179.746882)scale(0.2 -0.2)">
       <use xlink:href="#DejaVuSans-48"/>
       <use x="63.623047" xlink:href="#DejaVuSans-46"/>
       <use x="95.410156" xlink:href="#DejaVuSans-56"/>
      </g>
     </g>
    </g>
   </g>
   <g id="line2d_13">
    <path clip-path="url(#p8095c3deee)" d="M 173.045455 640.754289 
L 191.019685 640.580747 
L 203.002505 640.1709 
L 208.993916 639.791777 
L 214.985326 639.242774 
L 220.976736 638.479627 
L 226.968146 637.460067 
L 232.959556 636.149141 
L 238.950966 634.524259 
L 244.942377 632.578756 
L 250.933787 630.322886 
L 256.925197 627.781738 
L 262.916607 624.990419 
L 268.908017 621.987785 
L 274.899427 618.810603 
L 286.882248 612.051906 
L 298.865068 604.916863 
L 322.830709 590.230418 
L 328.822119 586.412748 
L 334.813529 582.344249 
L 340.804939 577.830186 
L 346.796349 572.646319 
L 352.787759 566.580613 
L 358.77917 559.480956 
L 364.77058 551.295686 
L 370.76199 542.094768 
L 376.7534 532.064747 
L 382.74481 521.477844 
L 394.727631 499.844604 
L 400.719041 489.295815 
L 406.710451 479.089086 
L 424.684681 449.297301 
L 430.676092 438.56445 
L 436.667502 426.671955 
L 442.658912 413.159103 
L 448.650322 397.678404 
L 454.641732 380.087859 
L 460.633142 360.526449 
L 466.624553 339.448352 
L 478.607373 295.89708 
L 484.598783 275.319916 
L 490.590193 256.684363 
L 496.581603 240.510842 
L 502.573014 226.930827 
L 508.564424 215.694541 
L 514.555834 206.27602 
L 520.547244 198.047775 
L 526.538654 190.476326 
L 532.530064 183.283905 
L 538.521475 176.532165 
L 544.512885 170.606943 
L 550.504295 166.1113 
L 556.495705 163.698854 
L 562.487115 163.894151 
L 568.478525 166.948575 
L 574.469936 172.76939 
L 580.461346 180.939375 
L 586.452756 190.820086 
L 592.444166 201.708988 
L 616.409807 247.014348 
L 622.401217 258.826361 
L 628.392627 271.373553 
L 634.384037 284.855889 
L 640.375447 299.282513 
L 646.366858 314.464707 
L 664.341088 361.017812 
L 670.332498 375.753537 
L 676.323908 389.794276 
L 682.315319 403.152057 
L 688.306729 415.937087 
L 700.289549 440.437111 
L 718.26378 476.231481 
L 724.25519 487.923466 
L 730.2466 499.333117 
L 736.23801 510.331743 
L 742.22942 520.80776 
L 748.22083 530.681482 
L 754.212241 539.906468 
L 760.203651 548.461262 
L 766.195061 556.33923 
L 772.186471 563.543978 
L 778.177881 570.093771 
L 784.169291 576.032512 
L 790.160702 581.440193 
L 796.152112 586.434647 
L 808.134932 595.760004 
L 826.109162 609.672579 
L 832.100573 614.316225 
L 838.091983 618.801996 
L 844.083393 622.993252 
L 850.074803 626.767745 
L 856.066213 630.039893 
L 862.057623 632.771249 
L 868.049034 634.969215 
L 874.040444 636.677308 
L 880.031854 637.961591 
L 886.023264 638.897413 
L 892.014674 639.559052 
L 898.006084 640.013143 
L 909.988905 640.510559 
L 921.971725 640.703741 
L 933.954545 640.758107 
L 933.954545 640.758107 
" style="fill:none;stroke:#1f77b4;stroke-linecap:square;stroke-width:1.5;"/>
   </g>
   <g id="patch_25">
    <path d="M 135 640.8 
L 135 86.4 
" style="fill:none;stroke:#000000;stroke-linecap:square;stroke-linejoin:miter;stroke-width:0.8;"/>
   </g>
   <g id="patch_26">
    <path d="M 972 640.8 
L 972 86.4 
" style="fill:none;stroke:#000000;stroke-linecap:square;stroke-linejoin:miter;stroke-width:0.8;"/>
   </g>
   <g id="patch_27">
    <path d="M 135 640.8 
L 972 640.8 
" style="fill:none;stroke:#000000;stroke-linecap:square;stroke-linejoin:miter;stroke-width:0.8;"/>
   </g>
   <g id="patch_28">
    <path d="M 135 86.4 
L 972 86.4 
" style="fill:none;stroke:#000000;stroke-linecap:square;stroke-linejoin:miter;stroke-width:0.8;"/>
   </g>
  </g>
 </g>
 <defs>
  <clipPath id="p8095c3deee">
   <rect height="554.4" width="837" x="135" y="86.4"/>
  </clipPath>
 </defs>
</svg>
