<?xml version="1.0" encoding="utf-8" standalone="no"?>
<!DOCTYPE svg PUBLIC "-//W3C//DTD SVG 1.1//EN"
  "http://www.w3.org/Graphics/SVG/1.1/DTD/svg11.dtd">
<!-- Created with matplotlib (https://matplotlib.org/) -->
<svg height="720pt" version="1.1" viewBox="0 0 1080 720" width="1080pt" xmlns="http://www.w3.org/2000/svg" xmlns:xlink="http://www.w3.org/1999/xlink">
 <defs>
  <style type="text/css">
*{stroke-linecap:butt;stroke-linejoin:round;}
  </style>
 </defs>
 <g id="figure_1">
  <g id="patch_1">
   <path d="M 0 720 
L 1080 720 
L 1080 0 
L 0 0 
z
" style="fill:#ffffff;"/>
  </g>
  <g id="axes_1">
   <g id="patch_2">
    <path d="M 135 640.8 
L 972 640.8 
L 972 86.4 
L 135 86.4 
z
" style="fill:#ffffff;"/>
   </g>
   <g id="patch_3">
    <path clip-path="url(#p66f898202f)" d="M 251.386416 640.8 
L 277.657162 640.8 
L 277.657162 632.352 
L 251.386416 632.352 
z
" style="fill:#1f77b4;opacity:0.4;"/>
   </g>
   <g id="patch_4">
    <path clip-path="url(#p66f898202f)" d="M 277.657162 640.8 
L 303.927909 640.8 
L 303.927909 632.352 
L 277.657162 632.352 
z
" style="fill:#1f77b4;opacity:0.4;"/>
   </g>
   <g id="patch_5">
    <path clip-path="url(#p66f898202f)" d="M 303.927909 640.8 
L 330.198655 640.8 
L 330.198655 619.68 
L 303.927909 619.68 
z
" style="fill:#1f77b4;opacity:0.4;"/>
   </g>
   <g id="patch_6">
    <path clip-path="url(#p66f898202f)" d="M 330.198655 640.8 
L 356.469402 640.8 
L 356.469402 585.888 
L 330.198655 585.888 
z
" style="fill:#1f77b4;opacity:0.4;"/>
   </g>
   <g id="patch_7">
    <path clip-path="url(#p66f898202f)" d="M 356.469402 640.8 
L 382.740148 640.8 
L 382.740148 568.992 
L 356.469402 568.992 
z
" style="fill:#1f77b4;opacity:0.4;"/>
   </g>
   <g id="patch_8">
    <path clip-path="url(#p66f898202f)" d="M 382.740148 640.8 
L 409.010895 640.8 
L 409.010895 514.08 
L 382.740148 514.08 
z
" style="fill:#1f77b4;opacity:0.4;"/>
   </g>
   <g id="patch_9">
    <path clip-path="url(#p66f898202f)" d="M 409.010895 640.8 
L 435.281641 640.8 
L 435.281641 467.616 
L 409.010895 467.616 
z
" style="fill:#1f77b4;opacity:0.4;"/>
   </g>
   <g id="patch_10">
    <path clip-path="url(#p66f898202f)" d="M 435.281641 640.8 
L 461.552387 640.8 
L 461.552387 387.36 
L 435.281641 387.36 
z
" style="fill:#1f77b4;opacity:0.4;"/>
   </g>
   <g id="patch_11">
    <path clip-path="url(#p66f898202f)" d="M 461.552387 640.8 
L 487.823134 640.8 
L 487.823134 269.088 
L 461.552387 269.088 
z
" style="fill:#1f77b4;opacity:0.4;"/>
   </g>
   <g id="patch_12">
    <path clip-path="url(#p66f898202f)" d="M 487.823134 640.8 
L 514.09388 640.8 
L 514.09388 336.672 
L 487.823134 336.672 
z
" style="fill:#1f77b4;opacity:0.4;"/>
   </g>
   <g id="patch_13">
    <path clip-path="url(#p66f898202f)" d="M 514.09388 640.8 
L 540.364627 640.8 
L 540.364627 243.744 
L 514.09388 243.744 
z
" style="fill:#1f77b4;opacity:0.4;"/>
   </g>
   <g id="patch_14">
    <path clip-path="url(#p66f898202f)" d="M 540.364627 640.8 
L 566.635373 640.8 
L 566.635373 112.8 
L 540.364627 112.8 
z
" style="fill:#1f77b4;opacity:0.4;"/>
   </g>
   <g id="patch_15">
    <path clip-path="url(#p66f898202f)" d="M 566.635373 640.8 
L 592.90612 640.8 
L 592.90612 235.296 
L 566.635373 235.296 
z
" style="fill:#1f77b4;opacity:0.4;"/>
   </g>
   <g id="patch_16">
    <path clip-path="url(#p66f898202f)" d="M 592.90612 640.8 
L 619.176866 640.8 
L 619.176866 222.624 
L 592.90612 222.624 
z
" style="fill:#1f77b4;opacity:0.4;"/>
   </g>
   <g id="patch_17">
    <path clip-path="url(#p66f898202f)" d="M 619.176866 640.8 
L 645.447613 640.8 
L 645.447613 315.552 
L 619.176866 315.552 
z
" style="fill:#1f77b4;opacity:0.4;"/>
   </g>
   <g id="patch_18">
    <path clip-path="url(#p66f898202f)" d="M 645.447613 640.8 
L 671.718359 640.8 
L 671.718359 395.808 
L 645.447613 395.808 
z
" style="fill:#1f77b4;opacity:0.4;"/>
   </g>
   <g id="patch_19">
    <path clip-path="url(#p66f898202f)" d="M 671.718359 640.8 
L 697.989105 640.8 
L 697.989105 463.392 
L 671.718359 463.392 
z
" style="fill:#1f77b4;opacity:0.4;"/>
   </g>
   <g id="patch_20">
    <path clip-path="url(#p66f898202f)" d="M 697.989105 640.8 
L 724.259852 640.8 
L 724.259852 492.96 
L 697.989105 492.96 
z
" style="fill:#1f77b4;opacity:0.4;"/>
   </g>
   <g id="patch_21">
    <path clip-path="url(#p66f898202f)" d="M 724.259852 640.8 
L 750.530598 640.8 
L 750.530598 564.768 
L 724.259852 564.768 
z
" style="fill:#1f77b4;opacity:0.4;"/>
   </g>
   <g id="patch_22">
    <path clip-path="url(#p66f898202f)" d="M 750.530598 640.8 
L 776.801345 640.8 
L 776.801345 577.44 
L 750.530598 577.44 
z
" style="fill:#1f77b4;opacity:0.4;"/>
   </g>
   <g id="patch_23">
    <path clip-path="url(#p66f898202f)" d="M 776.801345 640.8 
L 803.072091 640.8 
L 803.072091 628.128 
L 776.801345 628.128 
z
" style="fill:#1f77b4;opacity:0.4;"/>
   </g>
   <g id="patch_24">
    <path clip-path="url(#p66f898202f)" d="M 803.072091 640.8 
L 829.342838 640.8 
L 829.342838 619.68 
L 803.072091 619.68 
z
" style="fill:#1f77b4;opacity:0.4;"/>
   </g>
   <g id="patch_25">
    <path clip-path="url(#p66f898202f)" d="M 829.342838 640.8 
L 855.613584 640.8 
L 855.613584 628.128 
L 829.342838 628.128 
z
" style="fill:#1f77b4;opacity:0.4;"/>
   </g>
   <g id="matplotlib.axis_1">
    <g id="xtick_1">
     <g id="line2d_1">
      <defs>
       <path d="M 0 0 
L 0 3.5 
" id="m3722ec2ee2" style="stroke:#000000;stroke-width:0.8;"/>
      </defs>
      <g>
       <use style="stroke:#000000;stroke-width:0.8;" x="157.116482" xlink:href="#m3722ec2ee2" y="640.8"/>
      </g>
     </g>
     <g id="text_1">
      <!-- −2.0 -->
      <defs>
       <path d="M 10.59375 35.5 
L 73.1875 35.5 
L 73.1875 27.203125 
L 10.59375 27.203125 
z
" id="DejaVuSans-8722"/>
       <path d="M 19.1875 8.296875 
L 53.609375 8.296875 
L 53.609375 0 
L 7.328125 0 
L 7.328125 8.296875 
Q 12.9375 14.109375 22.625 23.890625 
Q 32.328125 33.6875 34.8125 36.53125 
Q 39.546875 41.84375 41.421875 45.53125 
Q 43.3125 49.21875 43.3125 52.78125 
Q 43.3125 58.59375 39.234375 62.25 
Q 35.15625 65.921875 28.609375 65.921875 
Q 23.96875 65.921875 18.8125 64.3125 
Q 13.671875 62.703125 7.8125 59.421875 
L 7.8125 69.390625 
Q 13.765625 71.78125 18.9375 73 
Q 24.125 74.21875 28.421875 74.21875 
Q 39.75 74.21875 46.484375 68.546875 
Q 53.21875 62.890625 53.21875 53.421875 
Q 53.21875 48.921875 51.53125 44.890625 
Q 49.859375 40.875 45.40625 35.40625 
Q 44.1875 33.984375 37.640625 27.21875 
Q 31.109375 20.453125 19.1875 8.296875 
z
" id="DejaVuSans-50"/>
       <path d="M 10.6875 12.40625 
L 21 12.40625 
L 21 0 
L 10.6875 0 
z
" id="DejaVuSans-46"/>
       <path d="M 31.78125 66.40625 
Q 24.171875 66.40625 20.328125 58.90625 
Q 16.5 51.421875 16.5 36.375 
Q 16.5 21.390625 20.328125 13.890625 
Q 24.171875 6.390625 31.78125 6.390625 
Q 39.453125 6.390625 43.28125 13.890625 
Q 47.125 21.390625 47.125 36.375 
Q 47.125 51.421875 43.28125 58.90625 
Q 39.453125 66.40625 31.78125 66.40625 
z
M 31.78125 74.21875 
Q 44.046875 74.21875 50.515625 64.515625 
Q 56.984375 54.828125 56.984375 36.375 
Q 56.984375 17.96875 50.515625 8.265625 
Q 44.046875 -1.421875 31.78125 -1.421875 
Q 19.53125 -1.421875 13.0625 8.265625 
Q 6.59375 17.96875 6.59375 36.375 
Q 6.59375 54.828125 13.0625 64.515625 
Q 19.53125 74.21875 31.78125 74.21875 
z
" id="DejaVuSans-48"/>
      </defs>
      <g transform="translate(132.833669 662.996875)scale(0.2 -0.2)">
       <use xlink:href="#DejaVuSans-8722"/>
       <use x="83.789062" xlink:href="#DejaVuSans-50"/>
       <use x="147.412109" xlink:href="#DejaVuSans-46"/>
       <use x="179.199219" xlink:href="#DejaVuSans-48"/>
      </g>
     </g>
    </g>
    <g id="xtick_2">
     <g id="line2d_2">
      <g>
       <use style="stroke:#000000;stroke-width:0.8;" x="256.817895" xlink:href="#m3722ec2ee2" y="640.8"/>
      </g>
     </g>
     <g id="text_2">
      <!-- −1.5 -->
      <defs>
       <path d="M 12.40625 8.296875 
L 28.515625 8.296875 
L 28.515625 63.921875 
L 10.984375 60.40625 
L 10.984375 69.390625 
L 28.421875 72.90625 
L 38.28125 72.90625 
L 38.28125 8.296875 
L 54.390625 8.296875 
L 54.390625 0 
L 12.40625 0 
z
" id="DejaVuSans-49"/>
       <path d="M 10.796875 72.90625 
L 49.515625 72.90625 
L 49.515625 64.59375 
L 19.828125 64.59375 
L 19.828125 46.734375 
Q 21.96875 47.46875 24.109375 47.828125 
Q 26.265625 48.1875 28.421875 48.1875 
Q 40.625 48.1875 47.75 41.5 
Q 54.890625 34.8125 54.890625 23.390625 
Q 54.890625 11.625 47.5625 5.09375 
Q 40.234375 -1.421875 26.90625 -1.421875 
Q 22.3125 -1.421875 17.546875 -0.640625 
Q 12.796875 0.140625 7.71875 1.703125 
L 7.71875 11.625 
Q 12.109375 9.234375 16.796875 8.0625 
Q 21.484375 6.890625 26.703125 6.890625 
Q 35.15625 6.890625 40.078125 11.328125 
Q 45.015625 15.765625 45.015625 23.390625 
Q 45.015625 31 40.078125 35.4375 
Q 35.15625 39.890625 26.703125 39.890625 
Q 22.75 39.890625 18.8125 39.015625 
Q 14.890625 38.140625 10.796875 36.28125 
z
" id="DejaVuSans-53"/>
      </defs>
      <g transform="translate(232.535082 662.996875)scale(0.2 -0.2)">
       <use xlink:href="#DejaVuSans-8722"/>
       <use x="83.789062" xlink:href="#DejaVuSans-49"/>
       <use x="147.412109" xlink:href="#DejaVuSans-46"/>
       <use x="179.199219" xlink:href="#DejaVuSans-53"/>
      </g>
     </g>
    </g>
    <g id="xtick_3">
     <g id="line2d_3">
      <g>
       <use style="stroke:#000000;stroke-width:0.8;" x="356.519307" xlink:href="#m3722ec2ee2" y="640.8"/>
      </g>
     </g>
     <g id="text_3">
      <!-- −1.0 -->
      <g transform="translate(332.236495 662.996875)scale(0.2 -0.2)">
       <use xlink:href="#DejaVuSans-8722"/>
       <use x="83.789062" xlink:href="#DejaVuSans-49"/>
       <use x="147.412109" xlink:href="#DejaVuSans-46"/>
       <use x="179.199219" xlink:href="#DejaVuSans-48"/>
      </g>
     </g>
    </g>
    <g id="xtick_4">
     <g id="line2d_4">
      <g>
       <use style="stroke:#000000;stroke-width:0.8;" x="456.22072" xlink:href="#m3722ec2ee2" y="640.8"/>
      </g>
     </g>
     <g id="text_4">
      <!-- −0.5 -->
      <g transform="translate(431.937908 662.996875)scale(0.2 -0.2)">
       <use xlink:href="#DejaVuSans-8722"/>
       <use x="83.789062" xlink:href="#DejaVuSans-48"/>
       <use x="147.412109" xlink:href="#DejaVuSans-46"/>
       <use x="179.199219" xlink:href="#DejaVuSans-53"/>
      </g>
     </g>
    </g>
    <g id="xtick_5">
     <g id="line2d_5">
      <g>
       <use style="stroke:#000000;stroke-width:0.8;" x="555.922133" xlink:href="#m3722ec2ee2" y="640.8"/>
      </g>
     </g>
     <g id="text_5">
      <!-- 0.0 -->
      <g transform="translate(540.019008 662.996875)scale(0.2 -0.2)">
       <use xlink:href="#DejaVuSans-48"/>
       <use x="63.623047" xlink:href="#DejaVuSans-46"/>
       <use x="95.410156" xlink:href="#DejaVuSans-48"/>
      </g>
     </g>
    </g>
    <g id="xtick_6">
     <g id="line2d_6">
      <g>
       <use style="stroke:#000000;stroke-width:0.8;" x="655.623546" xlink:href="#m3722ec2ee2" y="640.8"/>
      </g>
     </g>
     <g id="text_6">
      <!-- 0.5 -->
      <g transform="translate(639.720421 662.996875)scale(0.2 -0.2)">
       <use xlink:href="#DejaVuSans-48"/>
       <use x="63.623047" xlink:href="#DejaVuSans-46"/>
       <use x="95.410156" xlink:href="#DejaVuSans-53"/>
      </g>
     </g>
    </g>
    <g id="xtick_7">
     <g id="line2d_7">
      <g>
       <use style="stroke:#000000;stroke-width:0.8;" x="755.324959" xlink:href="#m3722ec2ee2" y="640.8"/>
      </g>
     </g>
     <g id="text_7">
      <!-- 1.0 -->
      <g transform="translate(739.421834 662.996875)scale(0.2 -0.2)">
       <use xlink:href="#DejaVuSans-49"/>
       <use x="63.623047" xlink:href="#DejaVuSans-46"/>
       <use x="95.410156" xlink:href="#DejaVuSans-48"/>
      </g>
     </g>
    </g>
    <g id="xtick_8">
     <g id="line2d_8">
      <g>
       <use style="stroke:#000000;stroke-width:0.8;" x="855.026371" xlink:href="#m3722ec2ee2" y="640.8"/>
      </g>
     </g>
     <g id="text_8">
      <!-- 1.5 -->
      <g transform="translate(839.123246 662.996875)scale(0.2 -0.2)">
       <use xlink:href="#DejaVuSans-49"/>
       <use x="63.623047" xlink:href="#DejaVuSans-46"/>
       <use x="95.410156" xlink:href="#DejaVuSans-53"/>
      </g>
     </g>
    </g>
    <g id="xtick_9">
     <g id="line2d_9">
      <g>
       <use style="stroke:#000000;stroke-width:0.8;" x="954.727784" xlink:href="#m3722ec2ee2" y="640.8"/>
      </g>
     </g>
     <g id="text_9">
      <!-- 2.0 -->
      <g transform="translate(938.824659 662.996875)scale(0.2 -0.2)">
       <use xlink:href="#DejaVuSans-50"/>
       <use x="63.623047" xlink:href="#DejaVuSans-46"/>
       <use x="95.410156" xlink:href="#DejaVuSans-48"/>
      </g>
     </g>
    </g>
   </g>
   <g id="matplotlib.axis_2">
    <g id="ytick_1">
     <g id="line2d_10">
      <defs>
       <path d="M 0 0 
L -3.5 0 
" id="md430f830cd" style="stroke:#000000;stroke-width:0.8;"/>
      </defs>
      <g>
       <use style="stroke:#000000;stroke-width:0.8;" x="135" xlink:href="#md430f830cd" y="640.8"/>
      </g>
     </g>
     <g id="text_10">
      <!-- 0.0 -->
      <g transform="translate(96.19375 648.398438)scale(0.2 -0.2)">
       <use xlink:href="#DejaVuSans-48"/>
       <use x="63.623047" xlink:href="#DejaVuSans-46"/>
       <use x="95.410156" xlink:href="#DejaVuSans-48"/>
      </g>
     </g>
    </g>
    <g id="ytick_2">
     <g id="line2d_11">
      <g>
       <use style="stroke:#000000;stroke-width:0.8;" x="135" xlink:href="#md430f830cd" y="529.50004"/>
      </g>
     </g>
     <g id="text_11">
      <!-- 0.2 -->
      <g transform="translate(96.19375 537.098477)scale(0.2 -0.2)">
       <use xlink:href="#DejaVuSans-48"/>
       <use x="63.623047" xlink:href="#DejaVuSans-46"/>
       <use x="95.410156" xlink:href="#DejaVuSans-50"/>
      </g>
     </g>
    </g>
    <g id="ytick_3">
     <g id="line2d_12">
      <g>
       <use style="stroke:#000000;stroke-width:0.8;" x="135" xlink:href="#md430f830cd" y="418.200079"/>
      </g>
     </g>
     <g id="text_12">
      <!-- 0.4 -->
      <defs>
       <path d="M 37.796875 64.3125 
L 12.890625 25.390625 
L 37.796875 25.390625 
z
M 35.203125 72.90625 
L 47.609375 72.90625 
L 47.609375 25.390625 
L 58.015625 25.390625 
L 58.015625 17.1875 
L 47.609375 17.1875 
L 47.609375 0 
L 37.796875 0 
L 37.796875 17.1875 
L 4.890625 17.1875 
L 4.890625 26.703125 
z
" id="DejaVuSans-52"/>
      </defs>
      <g transform="translate(96.19375 425.798517)scale(0.2 -0.2)">
       <use xlink:href="#DejaVuSans-48"/>
       <use x="63.623047" xlink:href="#DejaVuSans-46"/>
       <use x="95.410156" xlink:href="#DejaVuSans-52"/>
      </g>
     </g>
    </g>
    <g id="ytick_4">
     <g id="line2d_13">
      <g>
       <use style="stroke:#000000;stroke-width:0.8;" x="135" xlink:href="#md430f830cd" y="306.900119"/>
      </g>
     </g>
     <g id="text_13">
      <!-- 0.6 -->
      <defs>
       <path d="M 33.015625 40.375 
Q 26.375 40.375 22.484375 35.828125 
Q 18.609375 31.296875 18.609375 23.390625 
Q 18.609375 15.53125 22.484375 10.953125 
Q 26.375 6.390625 33.015625 6.390625 
Q 39.65625 6.390625 43.53125 10.953125 
Q 47.40625 15.53125 47.40625 23.390625 
Q 47.40625 31.296875 43.53125 35.828125 
Q 39.65625 40.375 33.015625 40.375 
z
M 52.59375 71.296875 
L 52.59375 62.3125 
Q 48.875 64.0625 45.09375 64.984375 
Q 41.3125 65.921875 37.59375 65.921875 
Q 27.828125 65.921875 22.671875 59.328125 
Q 17.53125 52.734375 16.796875 39.40625 
Q 19.671875 43.65625 24.015625 45.921875 
Q 28.375 48.1875 33.59375 48.1875 
Q 44.578125 48.1875 50.953125 41.515625 
Q 57.328125 34.859375 57.328125 23.390625 
Q 57.328125 12.15625 50.6875 5.359375 
Q 44.046875 -1.421875 33.015625 -1.421875 
Q 20.359375 -1.421875 13.671875 8.265625 
Q 6.984375 17.96875 6.984375 36.375 
Q 6.984375 53.65625 15.1875 63.9375 
Q 23.390625 74.21875 37.203125 74.21875 
Q 40.921875 74.21875 44.703125 73.484375 
Q 48.484375 72.75 52.59375 71.296875 
z
" id="DejaVuSans-54"/>
      </defs>
      <g transform="translate(96.19375 314.498556)scale(0.2 -0.2)">
       <use xlink:href="#DejaVuSans-48"/>
       <use x="63.623047" xlink:href="#DejaVuSans-46"/>
       <use x="95.410156" xlink:href="#DejaVuSans-54"/>
      </g>
     </g>
    </g>
    <g id="ytick_5">
     <g id="line2d_14">
      <g>
       <use style="stroke:#000000;stroke-width:0.8;" x="135" xlink:href="#md430f830cd" y="195.600158"/>
      </g>
     </g>
     <g id="text_14">
      <!-- 0.8 -->
      <defs>
       <path d="M 31.78125 34.625 
Q 24.75 34.625 20.71875 30.859375 
Q 16.703125 27.09375 16.703125 20.515625 
Q 16.703125 13.921875 20.71875 10.15625 
Q 24.75 6.390625 31.78125 6.390625 
Q 38.8125 6.390625 42.859375 10.171875 
Q 46.921875 13.96875 46.921875 20.515625 
Q 46.921875 27.09375 42.890625 30.859375 
Q 38.875 34.625 31.78125 34.625 
z
M 21.921875 38.8125 
Q 15.578125 40.375 12.03125 44.71875 
Q 8.5 49.078125 8.5 55.328125 
Q 8.5 64.0625 14.71875 69.140625 
Q 20.953125 74.21875 31.78125 74.21875 
Q 42.671875 74.21875 48.875 69.140625 
Q 55.078125 64.0625 55.078125 55.328125 
Q 55.078125 49.078125 51.53125 44.71875 
Q 48 40.375 41.703125 38.8125 
Q 48.828125 37.15625 52.796875 32.3125 
Q 56.78125 27.484375 56.78125 20.515625 
Q 56.78125 9.90625 50.3125 4.234375 
Q 43.84375 -1.421875 31.78125 -1.421875 
Q 19.734375 -1.421875 13.25 4.234375 
Q 6.78125 9.90625 6.78125 20.515625 
Q 6.78125 27.484375 10.78125 32.3125 
Q 14.796875 37.15625 21.921875 38.8125 
z
M 18.3125 54.390625 
Q 18.3125 48.734375 21.84375 45.5625 
Q 25.390625 42.390625 31.78125 42.390625 
Q 38.140625 42.390625 41.71875 45.5625 
Q 45.3125 48.734375 45.3125 54.390625 
Q 45.3125 60.0625 41.71875 63.234375 
Q 38.140625 66.40625 31.78125 66.40625 
Q 25.390625 66.40625 21.84375 63.234375 
Q 18.3125 60.0625 18.3125 54.390625 
z
" id="DejaVuSans-56"/>
      </defs>
      <g transform="translate(96.19375 203.198596)scale(0.2 -0.2)">
       <use xlink:href="#DejaVuSans-48"/>
       <use x="63.623047" xlink:href="#DejaVuSans-46"/>
       <use x="95.410156" xlink:href="#DejaVuSans-56"/>
      </g>
     </g>
    </g>
   </g>
   <g id="line2d_15">
    <path clip-path="url(#p66f898202f)" d="M 173.045455 640.749207 
L 191.019685 640.585926 
L 203.002505 640.229444 
L 214.985326 639.540967 
L 226.968146 638.490771 
L 262.916607 634.67043 
L 268.908017 633.948927 
L 274.899427 633.065836 
L 280.890838 631.926146 
L 286.882248 630.431849 
L 292.873658 628.491489 
L 298.865068 626.027791 
L 304.856478 622.983228 
L 310.847888 619.323804 
L 316.839298 615.040953 
L 322.830709 610.150652 
L 328.822119 604.688519 
L 334.813529 598.70052 
L 340.804939 592.230865 
L 346.796349 585.310842 
L 352.787759 577.95311 
L 358.77917 570.154299 
L 364.77058 561.904994 
L 370.76199 553.201951 
L 376.7534 544.055273 
L 382.74481 534.484684 
L 388.73622 524.503756 
L 394.727631 514.096961 
L 400.719041 503.198849 
L 406.710451 491.685772 
L 412.701861 479.387816 
L 418.693271 466.123183 
L 424.684681 451.750686 
L 430.676092 436.229908 
L 436.667502 419.674113 
L 454.641732 367.576468 
L 460.633142 351.278212 
L 466.624553 336.448831 
L 472.615963 323.408336 
L 478.607373 312.186775 
L 484.598783 302.500529 
L 490.590193 293.800345 
L 496.581603 285.385437 
L 502.573014 276.560032 
L 508.564424 266.796769 
L 514.555834 255.869075 
L 520.547244 243.922201 
L 526.538654 231.467258 
L 532.530064 219.299853 
L 538.521475 208.360814 
L 544.512885 199.568231 
L 550.504295 193.655988 
L 556.495705 191.053118 
L 562.487115 191.829771 
L 568.478525 195.720116 
L 574.469936 202.213021 
L 580.461346 210.683625 
L 586.452756 220.529013 
L 592.444166 231.273288 
L 598.435576 242.62049 
L 604.426986 254.452537 
L 610.418397 266.785932 
L 616.409807 279.709203 
L 622.401217 293.321312 
L 628.392627 307.683017 
L 634.384037 322.784154 
L 640.375447 338.525166 
L 664.341088 402.959986 
L 670.332498 417.89678 
L 676.323908 431.920094 
L 682.315319 445.030122 
L 688.306729 457.368909 
L 694.298139 469.17068 
L 712.272369 503.517474 
L 724.25519 526.054202 
L 730.2466 536.883453 
L 736.23801 547.214582 
L 742.22942 556.954759 
L 748.22083 566.076531 
L 754.212241 574.598683 
L 760.203651 582.551256 
L 766.195061 589.941645 
L 772.186471 596.73649 
L 778.177881 602.866162 
L 784.169291 608.248867 
L 790.160702 612.823705 
L 796.152112 616.579353 
L 802.143522 619.56797 
L 808.134932 621.900531 
L 814.126342 623.726936 
L 820.117752 625.208965 
L 832.100573 627.702154 
L 844.083393 630.156859 
L 874.040444 636.543351 
L 880.031854 637.583127 
L 886.023264 638.461734 
L 892.014674 639.168866 
L 898.006084 639.710023 
L 903.997495 640.103289 
L 915.980315 640.551028 
L 927.963135 640.719806 
L 933.954545 640.747203 
L 933.954545 640.747203 
" style="fill:none;stroke:#1f77b4;stroke-linecap:square;stroke-width:1.5;"/>
   </g>
   <g id="patch_26">
    <path d="M 135 640.8 
L 135 86.4 
" style="fill:none;stroke:#000000;stroke-linecap:square;stroke-linejoin:miter;stroke-width:0.8;"/>
   </g>
   <g id="patch_27">
    <path d="M 972 640.8 
L 972 86.4 
" style="fill:none;stroke:#000000;stroke-linecap:square;stroke-linejoin:miter;stroke-width:0.8;"/>
   </g>
   <g id="patch_28">
    <path d="M 135 640.8 
L 972 640.8 
" style="fill:none;stroke:#000000;stroke-linecap:square;stroke-linejoin:miter;stroke-width:0.8;"/>
   </g>
   <g id="patch_29">
    <path d="M 135 86.4 
L 972 86.4 
" style="fill:none;stroke:#000000;stroke-linecap:square;stroke-linejoin:miter;stroke-width:0.8;"/>
   </g>
  </g>
 </g>
 <defs>
  <clipPath id="p66f898202f">
   <rect height="554.4" width="837" x="135" y="86.4"/>
  </clipPath>
 </defs>
</svg>
